<?xml version="1.0" encoding="UTF-8" standalone="no"?>
<!DOCTYPE svg PUBLIC "-//W3C//DTD SVG 1.1//EN"
 "http://www.w3.org/Graphics/SVG/1.1/DTD/svg11.dtd">
<!-- Generated by graphviz version 2.43.0 (0)
 -->
<!-- Title: QuantConnect.Algorithm.QCAlgorithm.RemoveOptionContract Pages: 1 -->
<!--zoomable 431 -->
<svg id="main" version="1.1" xmlns="http://www.w3.org/2000/svg" xmlns:xlink="http://www.w3.org/1999/xlink" xml:space="preserve" onload="init(evt)">
<style type="text/css"><![CDATA[
.edge:hover path { stroke: red; }
.edge:hover polygon { stroke: red; fill: red; }
]]></style>
<script type="text/javascript"><![CDATA[
var edges = document.getElementsByTagName('g');
if (edges && edges.length) {
  for (var i=0;i<edges.length;i++) {
    if (edges[i].id.substr(0,4)=='edge') {
      edges[i].setAttribute('class','edge');
    }
  }
}
]]></script>
        <defs>
                <circle id="rim" cx="0" cy="0" r="7"/>
                <circle id="rim2" cx="0" cy="0" r="3.5"/>
                <g id="zoomPlus">
                        <use xlink:href="#rim" fill="#404040">
                                <set attributeName="fill" to="#808080" begin="zoomplus.mouseover" end="zoomplus.mouseout"/>
                        </use>
                        <path d="M-4,0h8M0,-4v8" fill="none" stroke="white" stroke-width="1.5" pointer-events="none"/>
                </g>
                <g id="zoomMin">
                        <use xlink:href="#rim" fill="#404040">
                                <set attributeName="fill" to="#808080" begin="zoomminus.mouseover" end="zoomminus.mouseout"/>
                        </use>
                        <path d="M-4,0h8" fill="none" stroke="white" stroke-width="1.5" pointer-events="none"/>
                </g>
                <g id="dirArrow">
                        <path fill="none" stroke="white" stroke-width="1.5" d="M0,-3.0v7 M-2.5,-0.5L0,-3.0L2.5,-0.5"/>
                </g>
               <g id="resetDef">
                       <use xlink:href="#rim2" fill="#404040">
                               <set attributeName="fill" to="#808080" begin="reset.mouseover" end="reset.mouseout"/>
                       </use>
               </g>
        </defs>

<script type="text/javascript">
var viewWidth = 1350;
var viewHeight = 431;
var sectionId = 'dynsection-63';
</script>
<script xlink:href="svgpan.js"/>
<svg id="graph" class="graph">
<g id="viewport">
<title>QuantConnect.Algorithm.QCAlgorithm.RemoveOptionContract</title>
<polygon fill="white" stroke="transparent" points="-4,4 -4,-427 1346,-427 1346,4 -4,4"/>
<!-- Node1 -->
<g id="node1" class="node">
<title>Node1</title>
<g id="a_node1"><a xlink:title="Removes the security with the specified symbol. This will cancel all open orders and then liquidate a...">
<polygon fill="#bfbfbf" stroke="black" points="0,-125.5 0,-155.5 205,-155.5 205,-125.5 0,-125.5"/>
<text text-anchor="start" x="8" y="-143.5" font-family="Helvetica,sans-Serif" font-size="10.00">QuantConnect.Algorithm.QCAlgorithm.</text>
<text text-anchor="middle" x="102.5" y="-132.5" font-family="Helvetica,sans-Serif" font-size="10.00">RemoveOptionContract</text>
</a>
</g>
</g>
<!-- Node2 -->
<g id="node2" class="node">
<title>Node2</title>
<g id="a_node2"><a xlink:href="classQuantConnect_1_1Algorithm_1_1QCAlgorithm.html#a6ece1896dff33aafccfb1707a83a77c3" target="_top" xlink:title="Removes the security with the specified symbol. This will cancel all open orders and then liquidate a...">
<polygon fill="white" stroke="black" points="241,-125.5 241,-155.5 446,-155.5 446,-125.5 241,-125.5"/>
<text text-anchor="start" x="249" y="-143.5" font-family="Helvetica,sans-Serif" font-size="10.00">QuantConnect.Algorithm.QCAlgorithm.</text>
<text text-anchor="middle" x="343.5" y="-132.5" font-family="Helvetica,sans-Serif" font-size="10.00">RemoveSecurity</text>
</a>
</g>
</g>
<!-- Node1&#45;&gt;Node2 -->
<g id="edge1" class="edge">
<title>Node1&#45;&gt;Node2</title>
<path fill="none" stroke="midnightblue" d="M205.2,-140.5C213.7,-140.5 222.31,-140.5 230.87,-140.5"/>
<polygon fill="midnightblue" stroke="midnightblue" points="230.89,-144 240.89,-140.5 230.89,-137 230.89,-144"/>
</g>
<!-- Node3 -->
<g id="node3" class="node">
<title>Node3</title>
<g id="a_node3"><a xlink:href="classQuantConnect_1_1Securities_1_1SecurityTransactionManager.html#ad21f183822521891147c190aed4fc5e2" target="_top" xlink:title="Cancels all open orders for all symbols">
<polygon fill="white" stroke="black" points="490.5,-251 490.5,-292 680.5,-292 680.5,-251 490.5,-251"/>
<text text-anchor="start" x="498.5" y="-280" font-family="Helvetica,sans-Serif" font-size="10.00">QuantConnect.Securities.</text>
<text text-anchor="start" x="498.5" y="-269" font-family="Helvetica,sans-Serif" font-size="10.00">SecurityTransactionManager.Cancel</text>
<text text-anchor="middle" x="585.5" y="-258" font-family="Helvetica,sans-Serif" font-size="10.00">OpenOrders</text>
</a>
</g>
</g>
<!-- Node2&#45;&gt;Node3 -->
<g id="edge2" class="edge">
<title>Node2&#45;&gt;Node3</title>
<path fill="none" stroke="midnightblue" d="M361.02,-155.67C385.64,-177.54 434.21,-217.87 482,-241.5 486.08,-243.52 490.33,-245.43 494.66,-247.23"/>
<polygon fill="midnightblue" stroke="midnightblue" points="493.69,-250.6 504.28,-250.99 496.24,-244.09 493.69,-250.6"/>
</g>
<!-- Node6 -->
<g id="node6" class="node">
<title>Node6</title>
<g id="a_node6"><a xlink:href="classQuantConnect_1_1Data_1_1UniverseSelection_1_1ContinuousContractUniverse.html#a8936fedb0ce5c206ac4bb0751c449552" target="_top" xlink:title="Creates a continuous universe symbol">
<polygon fill="white" stroke="black" points="482,-191 482,-232 689,-232 689,-191 482,-191"/>
<text text-anchor="start" x="490" y="-220" font-family="Helvetica,sans-Serif" font-size="10.00">QuantConnect.Data.Universe</text>
<text text-anchor="start" x="490" y="-209" font-family="Helvetica,sans-Serif" font-size="10.00">Selection.ContinuousContractUniverse.</text>
<text text-anchor="middle" x="585.5" y="-198" font-family="Helvetica,sans-Serif" font-size="10.00">CreateSymbol</text>
</a>
</g>
</g>
<!-- Node2&#45;&gt;Node6 -->
<g id="edge5" class="edge">
<title>Node2&#45;&gt;Node6</title>
<path fill="none" stroke="midnightblue" d="M394.77,-155.56C420.79,-163.33 453.09,-172.96 482,-181.5 489.31,-183.66 496.92,-185.9 504.55,-188.14"/>
<polygon fill="midnightblue" stroke="midnightblue" points="503.6,-191.51 514.19,-190.97 505.58,-184.8 503.6,-191.51"/>
</g>
<!-- Node18 -->
<g id="node18" class="node">
<title>Node18</title>
<g id="a_node18"><a xlink:href="classQuantConnect_1_1Symbol.html#a1f3c25223fd9a7b753a4f84ece6469ab" target="_top" xlink:title="Method returns true, if symbol is a derivative canonical symbol">
<polygon fill="white" stroke="black" points="493,-153 493,-172 678,-172 678,-153 493,-153"/>
<text text-anchor="middle" x="585.5" y="-160" font-family="Helvetica,sans-Serif" font-size="10.00">QuantConnect.Symbol.IsCanonical</text>
</a>
</g>
</g>
<!-- Node2&#45;&gt;Node18 -->
<g id="edge17" class="edge">
<title>Node2&#45;&gt;Node18</title>
<path fill="none" stroke="midnightblue" d="M446.28,-149.83C458.36,-150.94 470.69,-152.07 482.76,-153.17"/>
<polygon fill="midnightblue" stroke="midnightblue" points="482.56,-156.67 492.84,-154.1 483.2,-149.7 482.56,-156.67"/>
</g>
<!-- Node19 -->
<g id="node19" class="node">
<title>Node19</title>
<g id="a_node19"><a xlink:href="classQuantConnect_1_1Algorithm_1_1QCAlgorithm.html#a0a176aafa4bfff6cb26993422569cef3" target="_top" xlink:title="Liquidate your portfolio holdings">
<polygon fill="white" stroke="black" points="483,-103.5 483,-133.5 688,-133.5 688,-103.5 483,-103.5"/>
<text text-anchor="start" x="491" y="-121.5" font-family="Helvetica,sans-Serif" font-size="10.00">QuantConnect.Algorithm.QCAlgorithm.</text>
<text text-anchor="middle" x="585.5" y="-110.5" font-family="Helvetica,sans-Serif" font-size="10.00">Liquidate</text>
</a>
</g>
</g>
<!-- Node2&#45;&gt;Node19 -->
<g id="edge18" class="edge">
<title>Node2&#45;&gt;Node19</title>
<path fill="none" stroke="midnightblue" d="M446.28,-131.17C455.1,-130.36 464.05,-129.54 472.94,-128.73"/>
<polygon fill="midnightblue" stroke="midnightblue" points="473.31,-132.21 482.94,-127.81 472.67,-125.24 473.31,-132.21"/>
</g>
<!-- Node20 -->
<g id="node20" class="node">
<title>Node20</title>
<g id="a_node20"><a xlink:href="classQuantConnect_1_1Securities_1_1UniverseManager.html#a836a9f06d5e6539c66b3dd9712045996" target="_top" xlink:title="Removes the first occurrence of a specific object from the T:System.Collections.Generic....">
<polygon fill="white" stroke="black" points="512.5,-54.5 512.5,-84.5 658.5,-84.5 658.5,-54.5 512.5,-54.5"/>
<text text-anchor="start" x="520.5" y="-72.5" font-family="Helvetica,sans-Serif" font-size="10.00">QuantConnect.Securities.</text>
<text text-anchor="middle" x="585.5" y="-61.5" font-family="Helvetica,sans-Serif" font-size="10.00">UniverseManager.Remove</text>
</a>
</g>
</g>
<!-- Node2&#45;&gt;Node20 -->
<g id="edge19" class="edge">
<title>Node2&#45;&gt;Node20</title>
<path fill="none" stroke="midnightblue" d="M386.34,-125.49C413.44,-116.02 449.59,-103.86 482,-94.5 490.79,-91.96 500.05,-89.46 509.26,-87.09"/>
<polygon fill="midnightblue" stroke="midnightblue" points="510.39,-90.41 519.22,-84.56 508.66,-83.63 510.39,-90.41"/>
</g>
<!-- Node21 -->
<g id="node21" class="node">
<title>Node21</title>
<g id="a_node21"><a xlink:href="classQuantConnect_1_1Securities_1_1SecurityManager.html#af3ad97e370ceec706ac1afe70f7fbb42" target="_top" xlink:title="Try and get this security object with matching symbol and return true on success.">
<polygon fill="white" stroke="black" points="505.5,-5.5 505.5,-35.5 665.5,-35.5 665.5,-5.5 505.5,-5.5"/>
<text text-anchor="start" x="513.5" y="-23.5" font-family="Helvetica,sans-Serif" font-size="10.00">QuantConnect.Securities.</text>
<text text-anchor="middle" x="585.5" y="-12.5" font-family="Helvetica,sans-Serif" font-size="10.00">SecurityManager.TryGetValue</text>
</a>
</g>
</g>
<!-- Node2&#45;&gt;Node21 -->
<g id="edge20" class="edge">
<title>Node2&#45;&gt;Node21</title>
<path fill="none" stroke="midnightblue" d="M361.89,-125.31C386.81,-104.32 434.88,-66.65 482,-45.5 487.46,-43.05 493.2,-40.82 499.05,-38.79"/>
<polygon fill="midnightblue" stroke="midnightblue" points="500.55,-41.98 508.98,-35.56 498.39,-35.32 500.55,-41.98"/>
</g>
<!-- Node4 -->
<g id="node4" class="node">
<title>Node4</title>
<g id="a_node4"><a xlink:href="classQuantConnect_1_1Securities_1_1SecurityTransactionManager.html#a40a5adc0c964d6f0f472f93fc56d4d53" target="_top" xlink:title="Get an enumerable of open OrderTicket for the specified symbol">
<polygon fill="white" stroke="black" points="736.5,-311 736.5,-352 910.5,-352 910.5,-311 736.5,-311"/>
<text text-anchor="start" x="744.5" y="-340" font-family="Helvetica,sans-Serif" font-size="10.00">QuantConnect.Securities.</text>
<text text-anchor="start" x="744.5" y="-329" font-family="Helvetica,sans-Serif" font-size="10.00">SecurityTransactionManager.Get</text>
<text text-anchor="middle" x="823.5" y="-318" font-family="Helvetica,sans-Serif" font-size="10.00">OpenOrderTickets</text>
</a>
</g>
</g>
<!-- Node3&#45;&gt;Node4 -->
<g id="edge3" class="edge">
<title>Node3&#45;&gt;Node4</title>
<path fill="none" stroke="midnightblue" d="M667.39,-292.06C688.12,-297.34 710.56,-303.04 731.75,-308.43"/>
<polygon fill="midnightblue" stroke="midnightblue" points="731.16,-311.89 741.72,-310.96 732.89,-305.11 731.16,-311.89"/>
</g>
<!-- Node5 -->
<g id="node5" class="node">
<title>Node5</title>
<g id="a_node5"><a xlink:href="classQuantConnect_1_1Messages_1_1SecurityTransactionManager.html#a8e0b665f9ea93c89fdcd1cf97e83a9f0" target="_top" xlink:title="Returns a string message saying the order was canceled by the CancelOpenOrders() at the given time">
<polygon fill="white" stroke="black" points="729,-251 729,-292 918,-292 918,-251 729,-251"/>
<text text-anchor="start" x="737" y="-280" font-family="Helvetica,sans-Serif" font-size="10.00">QuantConnect.Messages.Security</text>
<text text-anchor="start" x="737" y="-269" font-family="Helvetica,sans-Serif" font-size="10.00">TransactionManager.OrderCanceled</text>
<text text-anchor="middle" x="823.5" y="-258" font-family="Helvetica,sans-Serif" font-size="10.00">ByCancelOpenOrders</text>
</a>
</g>
</g>
<!-- Node3&#45;&gt;Node5 -->
<g id="edge4" class="edge">
<title>Node3&#45;&gt;Node5</title>
<path fill="none" stroke="midnightblue" d="M680.79,-271.5C693.25,-271.5 706.08,-271.5 718.69,-271.5"/>
<polygon fill="midnightblue" stroke="midnightblue" points="718.74,-275 728.74,-271.5 718.74,-268 718.74,-275"/>
</g>
<!-- Node7 -->
<g id="node7" class="node">
<title>Node7</title>
<g id="a_node7"><a xlink:href="classQuantConnect_1_1Data_1_1UniverseSelection_1_1UniverseExtensions.html#a3c3f2f38446c96bf7e5e2a66d77f6bf3" target="_top" xlink:title="Creates a universe symbol">
<polygon fill="white" stroke="black" points="725,-191 725,-232 922,-232 922,-191 725,-191"/>
<text text-anchor="start" x="733" y="-220" font-family="Helvetica,sans-Serif" font-size="10.00">QuantConnect.Data.Universe</text>
<text text-anchor="start" x="733" y="-209" font-family="Helvetica,sans-Serif" font-size="10.00">Selection.UniverseExtensions.Create</text>
<text text-anchor="middle" x="823.5" y="-198" font-family="Helvetica,sans-Serif" font-size="10.00">Symbol</text>
</a>
</g>
</g>
<!-- Node6&#45;&gt;Node7 -->
<g id="edge6" class="edge">
<title>Node6&#45;&gt;Node7</title>
<path fill="none" stroke="midnightblue" d="M689.33,-211.5C697.72,-211.5 706.21,-211.5 714.63,-211.5"/>
<polygon fill="midnightblue" stroke="midnightblue" points="714.86,-215 724.86,-211.5 714.86,-208 714.86,-215"/>
</g>
<!-- Node8 -->
<g id="node8" class="node">
<title>Node8</title>
<g id="a_node8"><a xlink:href="classQuantConnect_1_1SecurityIdentifier.html#a02ca750115844561c001c2346fbafc00" target="_top" xlink:title="Generates a new SecurityIdentifier for a custom security with the option of providing the first date">
<polygon fill="white" stroke="black" points="958,-392.5 958,-422.5 1132,-422.5 1132,-392.5 958,-392.5"/>
<text text-anchor="start" x="966" y="-410.5" font-family="Helvetica,sans-Serif" font-size="10.00">QuantConnect.SecurityIdentifier.</text>
<text text-anchor="middle" x="1045" y="-399.5" font-family="Helvetica,sans-Serif" font-size="10.00">GenerateBase</text>
</a>
</g>
</g>
<!-- Node7&#45;&gt;Node8 -->
<g id="edge7" class="edge">
<title>Node7&#45;&gt;Node8</title>
<path fill="none" stroke="midnightblue" d="M911.06,-232.25C915.02,-234.97 918.7,-238.03 922,-241.5 966.87,-288.68 912.51,-336.92 958,-383.5 958.94,-384.47 959.92,-385.4 960.94,-386.29"/>
<polygon fill="midnightblue" stroke="midnightblue" points="959.14,-389.31 969.26,-392.44 963.3,-383.68 959.14,-389.31"/>
</g>
<!-- Node10 -->
<g id="node10" class="node">
<title>Node10</title>
<g id="a_node10"><a xlink:href="classQuantConnect_1_1SecurityIdentifier.html#a53953b18d814c5445e4ecdcb3b555080" target="_top" xlink:title="Generates a new SecurityIdentifier for a CFD security">
<polygon fill="white" stroke="black" points="958,-343.5 958,-373.5 1132,-373.5 1132,-343.5 958,-343.5"/>
<text text-anchor="start" x="966" y="-361.5" font-family="Helvetica,sans-Serif" font-size="10.00">QuantConnect.SecurityIdentifier.</text>
<text text-anchor="middle" x="1045" y="-350.5" font-family="Helvetica,sans-Serif" font-size="10.00">GenerateCfd</text>
</a>
</g>
</g>
<!-- Node7&#45;&gt;Node10 -->
<g id="edge9" class="edge">
<title>Node7&#45;&gt;Node10</title>
<path fill="none" stroke="midnightblue" d="M909.67,-232.17C914.08,-234.91 918.24,-238 922,-241.5 954.43,-271.71 925.17,-304.72 958,-334.5 959.3,-335.68 960.66,-336.81 962.06,-337.87"/>
<polygon fill="midnightblue" stroke="midnightblue" points="960.26,-340.88 970.54,-343.42 964.09,-335.02 960.26,-340.88"/>
</g>
<!-- Node11 -->
<g id="node11" class="node">
<title>Node11</title>
<g id="a_node11"><a xlink:href="classQuantConnect_1_1SecurityIdentifier.html#a5889a95a36ce927dd0a109cbfbcbe663" target="_top" xlink:title="Generates a new SecurityIdentifier for a Crypto pair">
<polygon fill="white" stroke="black" points="958,-294.5 958,-324.5 1132,-324.5 1132,-294.5 958,-294.5"/>
<text text-anchor="start" x="966" y="-312.5" font-family="Helvetica,sans-Serif" font-size="10.00">QuantConnect.SecurityIdentifier.</text>
<text text-anchor="middle" x="1045" y="-301.5" font-family="Helvetica,sans-Serif" font-size="10.00">GenerateCrypto</text>
</a>
</g>
</g>
<!-- Node7&#45;&gt;Node11 -->
<g id="edge10" class="edge">
<title>Node7&#45;&gt;Node11</title>
<path fill="none" stroke="midnightblue" d="M905.03,-232.01C910.98,-234.79 916.71,-237.94 922,-241.5 942.97,-255.59 936.85,-271.68 958,-285.5 960.43,-287.09 962.97,-288.57 965.59,-289.96"/>
<polygon fill="midnightblue" stroke="midnightblue" points="964.2,-293.18 974.73,-294.32 967.21,-286.86 964.2,-293.18"/>
</g>
<!-- Node12 -->
<g id="node12" class="node">
<title>Node12</title>
<g id="a_node12"><a xlink:href="classQuantConnect_1_1SecurityIdentifier.html#ac665665a16d5449872fed3427b95a260" target="_top" xlink:title="Generates a new SecurityIdentifier for a CryptoFuture pair">
<polygon fill="white" stroke="black" points="958,-245.5 958,-275.5 1132,-275.5 1132,-245.5 958,-245.5"/>
<text text-anchor="start" x="966" y="-263.5" font-family="Helvetica,sans-Serif" font-size="10.00">QuantConnect.SecurityIdentifier.</text>
<text text-anchor="middle" x="1045" y="-252.5" font-family="Helvetica,sans-Serif" font-size="10.00">GenerateCryptoFuture</text>
</a>
</g>
</g>
<!-- Node7&#45;&gt;Node12 -->
<g id="edge11" class="edge">
<title>Node7&#45;&gt;Node12</title>
<path fill="none" stroke="midnightblue" d="M916.63,-232.07C933.34,-235.8 950.62,-239.65 966.84,-243.28"/>
<polygon fill="midnightblue" stroke="midnightblue" points="966.27,-246.73 976.79,-245.5 967.8,-239.9 966.27,-246.73"/>
</g>
<!-- Node13 -->
<g id="node13" class="node">
<title>Node13</title>
<g id="a_node13"><a xlink:href="classQuantConnect_1_1SecurityIdentifier.html#a0c21d7880c9fdd260883d11ea0c99a00" target="_top" xlink:title="Helper overload that will search the mapfiles to resolve the first date. This implementation uses the...">
<polygon fill="white" stroke="black" points="958,-196.5 958,-226.5 1132,-226.5 1132,-196.5 958,-196.5"/>
<text text-anchor="start" x="966" y="-214.5" font-family="Helvetica,sans-Serif" font-size="10.00">QuantConnect.SecurityIdentifier.</text>
<text text-anchor="middle" x="1045" y="-203.5" font-family="Helvetica,sans-Serif" font-size="10.00">GenerateEquity</text>
</a>
</g>
</g>
<!-- Node7&#45;&gt;Node13 -->
<g id="edge12" class="edge">
<title>Node7&#45;&gt;Node13</title>
<path fill="none" stroke="midnightblue" d="M922.05,-211.5C930.52,-211.5 939.08,-211.5 947.54,-211.5"/>
<polygon fill="midnightblue" stroke="midnightblue" points="947.79,-215 957.79,-211.5 947.79,-208 947.79,-215"/>
</g>
<!-- Node14 -->
<g id="node14" class="node">
<title>Node14</title>
<g id="a_node14"><a xlink:href="classQuantConnect_1_1SecurityIdentifier.html#a9cf0d3b208a5171e6112516ce441f18d" target="_top" xlink:title="Generates a new SecurityIdentifier for a forex pair">
<polygon fill="white" stroke="black" points="958,-147.5 958,-177.5 1132,-177.5 1132,-147.5 958,-147.5"/>
<text text-anchor="start" x="966" y="-165.5" font-family="Helvetica,sans-Serif" font-size="10.00">QuantConnect.SecurityIdentifier.</text>
<text text-anchor="middle" x="1045" y="-154.5" font-family="Helvetica,sans-Serif" font-size="10.00">GenerateForex</text>
</a>
</g>
</g>
<!-- Node7&#45;&gt;Node14 -->
<g id="edge13" class="edge">
<title>Node7&#45;&gt;Node14</title>
<path fill="none" stroke="midnightblue" d="M916.63,-190.93C933.34,-187.2 950.62,-183.35 966.84,-179.72"/>
<polygon fill="midnightblue" stroke="midnightblue" points="967.8,-183.1 976.79,-177.5 966.27,-176.27 967.8,-183.1"/>
</g>
<!-- Node15 -->
<g id="node15" class="node">
<title>Node15</title>
<g id="a_node15"><a xlink:href="classQuantConnect_1_1SecurityIdentifier.html#ad50a891c97cb0c084a9e2aa43607ed66" target="_top" xlink:title="Generates a new SecurityIdentifier for a future">
<polygon fill="white" stroke="black" points="958,-98.5 958,-128.5 1132,-128.5 1132,-98.5 958,-98.5"/>
<text text-anchor="start" x="966" y="-116.5" font-family="Helvetica,sans-Serif" font-size="10.00">QuantConnect.SecurityIdentifier.</text>
<text text-anchor="middle" x="1045" y="-105.5" font-family="Helvetica,sans-Serif" font-size="10.00">GenerateFuture</text>
</a>
</g>
</g>
<!-- Node7&#45;&gt;Node15 -->
<g id="edge14" class="edge">
<title>Node7&#45;&gt;Node15</title>
<path fill="none" stroke="midnightblue" d="M857.25,-190.97C883.68,-175.04 922.23,-153.27 958,-138.5 963.75,-136.12 969.81,-133.88 975.93,-131.78"/>
<polygon fill="midnightblue" stroke="midnightblue" points="977.17,-135.06 985.58,-128.62 974.99,-128.41 977.17,-135.06"/>
</g>
<!-- Node16 -->
<g id="node16" class="node">
<title>Node16</title>
<g id="a_node16"><a xlink:href="classQuantConnect_1_1SecurityIdentifier.html#ade05a8e57b041ab484cf585be8d05699" target="_top" xlink:title="Generates a new SecurityIdentifier for a INDEX security">
<polygon fill="white" stroke="black" points="958,-49.5 958,-79.5 1132,-79.5 1132,-49.5 958,-49.5"/>
<text text-anchor="start" x="966" y="-67.5" font-family="Helvetica,sans-Serif" font-size="10.00">QuantConnect.SecurityIdentifier.</text>
<text text-anchor="middle" x="1045" y="-56.5" font-family="Helvetica,sans-Serif" font-size="10.00">GenerateIndex</text>
</a>
</g>
</g>
<!-- Node7&#45;&gt;Node16 -->
<g id="edge15" class="edge">
<title>Node7&#45;&gt;Node16</title>
<path fill="none" stroke="midnightblue" d="M841.75,-190.67C865.3,-163.53 910.09,-116.4 958,-89.5 961.92,-87.3 966.05,-85.28 970.29,-83.42"/>
<polygon fill="midnightblue" stroke="midnightblue" points="971.76,-86.6 979.73,-79.62 969.15,-80.11 971.76,-86.6"/>
</g>
<!-- Node17 -->
<g id="node17" class="node">
<title>Node17</title>
<g id="a_node17"><a xlink:href="classQuantConnect_1_1SecurityIdentifier.html#a58becf4433a3155807bc4959679ccca7" target="_top" xlink:title="Generates a new SecurityIdentifier for an option">
<polygon fill="white" stroke="black" points="958,-0.5 958,-30.5 1132,-30.5 1132,-0.5 958,-0.5"/>
<text text-anchor="start" x="966" y="-18.5" font-family="Helvetica,sans-Serif" font-size="10.00">QuantConnect.SecurityIdentifier.</text>
<text text-anchor="middle" x="1045" y="-7.5" font-family="Helvetica,sans-Serif" font-size="10.00">GenerateOption</text>
</a>
</g>
</g>
<!-- Node7&#45;&gt;Node17 -->
<g id="edge16" class="edge">
<title>Node7&#45;&gt;Node17</title>
<path fill="none" stroke="midnightblue" d="M834.88,-190.98C854.15,-155 898.91,-80.53 958,-40.5 960.92,-38.52 964,-36.7 967.18,-35.02"/>
<polygon fill="midnightblue" stroke="midnightblue" points="968.87,-38.09 976.4,-30.64 965.87,-31.77 968.87,-38.09"/>
</g>
<!-- Node9 -->
<g id="node9" class="node">
<title>Node9</title>
<g id="a_node9"><a xlink:href="classQuantConnect_1_1SecurityIdentifier.html#a19e1f9da410608020d74ed9e7d283575" target="_top" xlink:title="Generates the Symbol property for QuantConnect.SecurityType.Base security identifiers">
<polygon fill="white" stroke="black" points="1168,-392.5 1168,-422.5 1342,-422.5 1342,-392.5 1168,-392.5"/>
<text text-anchor="start" x="1176" y="-410.5" font-family="Helvetica,sans-Serif" font-size="10.00">QuantConnect.SecurityIdentifier.</text>
<text text-anchor="middle" x="1255" y="-399.5" font-family="Helvetica,sans-Serif" font-size="10.00">GenerateBaseSymbol</text>
</a>
</g>
</g>
<!-- Node8&#45;&gt;Node9 -->
<g id="edge8" class="edge">
<title>Node8&#45;&gt;Node9</title>
<path fill="none" stroke="midnightblue" d="M1132.1,-407.5C1140.62,-407.5 1149.3,-407.5 1157.91,-407.5"/>
<polygon fill="midnightblue" stroke="midnightblue" points="1157.96,-411 1167.96,-407.5 1157.96,-404 1157.96,-411"/>
</g>
</g>
</svg>
        <g id="navigator" transform="translate(0 0)" fill="#404254">
                <rect fill="#f2f5e9" fill-opacity="0.5" stroke="#606060" stroke-width=".5" x="0" y="0" width="60" height="60"/>
                <use id="zoomplus" xlink:href="#zoomPlus" x="17" y="9" onmousedown="handleZoom(evt,'in')"/>
                <use id="zoomminus" xlink:href="#zoomMin" x="42" y="9" onmousedown="handleZoom(evt,'out')"/>
                <use id="reset" xlink:href="#resetDef" x="30" y="36" onmousedown="handleReset()"/>
                <g id="arrowUp" xlink:href="#dirArrow" transform="translate(30 24)" onmousedown="handlePan(0,-1)">
                  <use xlink:href="#rim" fill="#404040">
                        <set attributeName="fill" to="#808080" begin="arrowUp.mouseover" end="arrowUp.mouseout"/>
                  </use>
                  <path fill="none" stroke="white" stroke-width="1.5" d="M0,-3.0v7 M-2.5,-0.5L0,-3.0L2.5,-0.5"/>
                </g>
                <g id="arrowRight" xlink:href="#dirArrow" transform="rotate(90) translate(36 -43)" onmousedown="handlePan(1,0)">
                  <use xlink:href="#rim" fill="#404040">
                        <set attributeName="fill" to="#808080" begin="arrowRight.mouseover" end="arrowRight.mouseout"/>
                  </use>
                  <path fill="none" stroke="white" stroke-width="1.5" d="M0,-3.0v7 M-2.5,-0.5L0,-3.0L2.5,-0.5"/>
                </g>
                <g id="arrowDown" xlink:href="#dirArrow" transform="rotate(180) translate(-30 -48)" onmousedown="handlePan(0,1)">
                  <use xlink:href="#rim" fill="#404040">
                        <set attributeName="fill" to="#808080" begin="arrowDown.mouseover" end="arrowDown.mouseout"/>
                  </use>
                  <path fill="none" stroke="white" stroke-width="1.5" d="M0,-3.0v7 M-2.5,-0.5L0,-3.0L2.5,-0.5"/>
                </g>
                <g id="arrowLeft" xlink:href="#dirArrow" transform="rotate(270) translate(-36 17)" onmousedown="handlePan(-1,0)">
                  <use xlink:href="#rim" fill="#404040">
                        <set attributeName="fill" to="#808080" begin="arrowLeft.mouseover" end="arrowLeft.mouseout"/>
                  </use>
                  <path fill="none" stroke="white" stroke-width="1.5" d="M0,-3.0v7 M-2.5,-0.5L0,-3.0L2.5,-0.5"/>
                </g>
        </g>
        <svg viewBox="0 0 15 15" width="100%" height="30px" preserveAspectRatio="xMaxYMin meet">
         <g id="arrow_out" transform="scale(0.3 0.3)">
          <a xlink:href="classQuantConnect_1_1Algorithm_1_1QCAlgorithm_aaa03fad6a4f4df5db3a0273d94df6436_cgraph_org.svg" target="_base">
           <rect id="button" ry="5" rx="5" y="6" x="6" height="38" width="38"
                fill="#f2f5e9" fill-opacity="0.5" stroke="#606060" stroke-width="1.0"/>
           <path id="arrow"
             d="M 11.500037,31.436501 C 11.940474,20.09759 22.043105,11.32322 32.158766,21.979434 L 37.068811,17.246167 C 37.068811,17.246167 37.088388,32 37.088388,32 L 22.160133,31.978069 C 22.160133,31.978069 26.997745,27.140456 26.997745,27.140456 C 18.528582,18.264221 13.291696,25.230495 11.500037,31.436501 z"
             style="fill:#404040;"/>
          </a>
         </g>
        </svg>
</svg>
