<?xml version="1.0" encoding="UTF-8" standalone="no"?>
<!DOCTYPE svg PUBLIC "-//W3C//DTD SVG 1.1//EN"
 "http://www.w3.org/Graphics/SVG/1.1/DTD/svg11.dtd">
<!-- Generated by graphviz version 2.43.0 (0)
 -->
<!-- Title: QuantConnect.Securities.SecurityExchangeHours.IsOpen Pages: 1 -->
<svg width="916pt" height="891pt"
 viewBox="0.00 0.00 916.00 891.00" xmlns="http://www.w3.org/2000/svg" xmlns:xlink="http://www.w3.org/1999/xlink">
<g id="graph0" class="graph" transform="scale(1 1) rotate(0) translate(4 887)">
<title>QuantConnect.Securities.SecurityExchangeHours.IsOpen</title>
<polygon fill="white" stroke="transparent" points="-4,4 -4,-887 912,-887 912,4 -4,4"/>
<!-- Node1 -->
<g id="node1" class="node">
<title>Node1</title>
<g id="a_node1"><a xlink:title="Determines if the exchange is open at the specified local date time.">
<polygon fill="#bfbfbf" stroke="black" points="739,-318.5 739,-348.5 908,-348.5 908,-318.5 739,-318.5"/>
<text text-anchor="start" x="747" y="-336.5" font-family="Helvetica,sans-Serif" font-size="10.00">QuantConnect.Securities.</text>
<text text-anchor="middle" x="823.5" y="-325.5" font-family="Helvetica,sans-Serif" font-size="10.00">SecurityExchangeHours.IsOpen</text>
</a>
</g>
</g>
<!-- Node2 -->
<g id="node2" class="node">
<title>Node2</title>
<g id="a_node2"><a xlink:href="classQuantConnect_1_1Securities_1_1SecurityExchange.html#a0cb909c2d8b9da2709749846b313e3bb" target="_top" xlink:title="Check if this DateTime is open.">
<polygon fill="white" stroke="black" points="507.5,-803.5 507.5,-833.5 695.5,-833.5 695.5,-803.5 507.5,-803.5"/>
<text text-anchor="start" x="515.5" y="-821.5" font-family="Helvetica,sans-Serif" font-size="10.00">QuantConnect.Securities.</text>
<text text-anchor="middle" x="601.5" y="-810.5" font-family="Helvetica,sans-Serif" font-size="10.00">SecurityExchange.DateTimeIsOpen</text>
</a>
</g>
</g>
<!-- Node1&#45;&gt;Node2 -->
<g id="edge1" class="edge">
<title>Node1&#45;&gt;Node2</title>
<path fill="none" stroke="midnightblue" d="M812.41,-358.17C792.33,-407.04 745.59,-519.46 703,-612.5 669.96,-684.68 627.38,-769.47 610.2,-803.37"/>
<polygon fill="midnightblue" stroke="midnightblue" points="815.73,-359.32 816.28,-348.74 809.25,-356.66 815.73,-359.32"/>
</g>
<!-- Node6 -->
<g id="node6" class="node">
<title>Node6</title>
<g id="a_node6"><a xlink:href="classQuantConnect_1_1Time.html#a273e34dea37136297d376a85e31be3ac" target="_top" xlink:title="Define an enumerable date range of tradeable dates but expressed in a different time zone.">
<polygon fill="white" stroke="black" points="508,-490.5 508,-520.5 695,-520.5 695,-490.5 508,-490.5"/>
<text text-anchor="start" x="516" y="-508.5" font-family="Helvetica,sans-Serif" font-size="10.00">QuantConnect.Time.EachTradeable</text>
<text text-anchor="middle" x="601.5" y="-497.5" font-family="Helvetica,sans-Serif" font-size="10.00">DayInTimeZone</text>
</a>
</g>
</g>
<!-- Node1&#45;&gt;Node6 -->
<g id="edge5" class="edge">
<title>Node1&#45;&gt;Node6</title>
<path fill="none" stroke="midnightblue" d="M809.66,-357.9C790.84,-391.18 752.57,-450.22 703,-481.5 697.54,-484.95 691.63,-487.9 685.5,-490.43"/>
<polygon fill="midnightblue" stroke="midnightblue" points="812.89,-359.3 814.65,-348.85 806.76,-355.91 812.89,-359.3"/>
</g>
<!-- Node7 -->
<g id="node7" class="node">
<title>Node7</title>
<g id="a_node7"><a xlink:href="classQuantConnect_1_1Extensions.html#a86783fabc655fb5d516336b3a5cb724f" target="_top" xlink:title="Extension method to round a datetime down by a timespan interval until it&#39;s within the specified exch...">
<polygon fill="white" stroke="black" points="529,-441.5 529,-471.5 674,-471.5 674,-441.5 529,-441.5"/>
<text text-anchor="start" x="537" y="-459.5" font-family="Helvetica,sans-Serif" font-size="10.00">QuantConnect.Extensions.</text>
<text text-anchor="middle" x="601.5" y="-448.5" font-family="Helvetica,sans-Serif" font-size="10.00">ExchangeRoundDown</text>
</a>
</g>
</g>
<!-- Node1&#45;&gt;Node7 -->
<g id="edge6" class="edge">
<title>Node1&#45;&gt;Node7</title>
<path fill="none" stroke="midnightblue" d="M801.67,-355.97C779.4,-378.66 741.98,-413.04 703,-432.5 694.01,-436.99 684.15,-440.66 674.22,-443.66"/>
<polygon fill="midnightblue" stroke="midnightblue" points="804.2,-358.39 808.63,-348.77 799.17,-353.53 804.2,-358.39"/>
</g>
<!-- Node8 -->
<g id="node8" class="node">
<title>Node8</title>
<g id="a_node8"><a xlink:href="classQuantConnect_1_1Extensions.html#a177570478a066cacfbfb59256378b506" target="_top" xlink:title="Extension method to round a datetime down by a timespan interval until it&#39;s within the specified exch...">
<polygon fill="white" stroke="black" points="511,-392.5 511,-422.5 692,-422.5 692,-392.5 511,-392.5"/>
<text text-anchor="start" x="519" y="-410.5" font-family="Helvetica,sans-Serif" font-size="10.00">QuantConnect.Extensions.</text>
<text text-anchor="middle" x="601.5" y="-399.5" font-family="Helvetica,sans-Serif" font-size="10.00">ExchangeRoundDownInTimeZone</text>
</a>
</g>
</g>
<!-- Node1&#45;&gt;Node8 -->
<g id="edge7" class="edge">
<title>Node1&#45;&gt;Node8</title>
<path fill="none" stroke="midnightblue" d="M781.23,-352.71C758.49,-362.8 729.57,-374.83 703,-383.5 693.02,-386.75 682.36,-389.78 671.84,-392.5"/>
<polygon fill="midnightblue" stroke="midnightblue" points="782.88,-355.81 790.58,-348.52 780.02,-349.42 782.88,-355.81"/>
</g>
<!-- Node9 -->
<g id="node9" class="node">
<title>Node9</title>
<g id="a_node9"><a xlink:href="classQuantConnect_1_1Time.html#a18b31437302a5918b76a15ecb0bd56d1" target="_top" xlink:title="Determines the end time at which the requested number of bars of the given will have elapsed....">
<polygon fill="white" stroke="black" points="525.5,-343.5 525.5,-373.5 677.5,-373.5 677.5,-343.5 525.5,-343.5"/>
<text text-anchor="start" x="533.5" y="-361.5" font-family="Helvetica,sans-Serif" font-size="10.00">QuantConnect.Time.GetEnd</text>
<text text-anchor="middle" x="601.5" y="-350.5" font-family="Helvetica,sans-Serif" font-size="10.00">TimeForTradeBars</text>
</a>
</g>
</g>
<!-- Node1&#45;&gt;Node9 -->
<g id="edge8" class="edge">
<title>Node1&#45;&gt;Node9</title>
<path fill="none" stroke="midnightblue" d="M728.75,-344.15C711.73,-346.09 694.18,-348.08 677.77,-349.95"/>
<polygon fill="midnightblue" stroke="midnightblue" points="729.16,-347.63 738.7,-343.02 728.37,-340.67 729.16,-347.63"/>
</g>
<!-- Node12 -->
<g id="node12" class="node">
<title>Node12</title>
<g id="a_node12"><a xlink:href="classQuantConnect_1_1Util_1_1LeanData.html#ad63021af2455d8433040838f49a7a15d" target="_top" xlink:title="Helper method to get the next daily end time, taking into account strict end times if appropriate">
<polygon fill="white" stroke="black" points="522.5,-294.5 522.5,-324.5 680.5,-324.5 680.5,-294.5 522.5,-294.5"/>
<text text-anchor="start" x="530.5" y="-312.5" font-family="Helvetica,sans-Serif" font-size="10.00">QuantConnect.Util.LeanData.</text>
<text text-anchor="middle" x="601.5" y="-301.5" font-family="Helvetica,sans-Serif" font-size="10.00">GetNextDailyEndTime</text>
</a>
</g>
</g>
<!-- Node1&#45;&gt;Node12 -->
<g id="edge11" class="edge">
<title>Node1&#45;&gt;Node12</title>
<path fill="none" stroke="midnightblue" d="M728.33,-323.23C712.43,-321.49 696.07,-319.71 680.64,-318.02"/>
<polygon fill="midnightblue" stroke="midnightblue" points="728.38,-326.75 738.7,-324.36 729.14,-319.79 728.38,-326.75"/>
</g>
<!-- Node13 -->
<g id="node13" class="node">
<title>Node13</title>
<g id="a_node13"><a xlink:href="classQuantConnect_1_1Time.html#a049782d5c99a307e1ea12810fa79cdff" target="_top" xlink:title="Gets the number of trade bars of the specified barSize &#160;that fit between the start &#160;and end">
<polygon fill="white" stroke="black" points="515,-245.5 515,-275.5 688,-275.5 688,-245.5 515,-245.5"/>
<text text-anchor="start" x="523" y="-263.5" font-family="Helvetica,sans-Serif" font-size="10.00">QuantConnect.Time.GetNumber</text>
<text text-anchor="middle" x="601.5" y="-252.5" font-family="Helvetica,sans-Serif" font-size="10.00">OfTradeBarsInInterval</text>
</a>
</g>
</g>
<!-- Node1&#45;&gt;Node13 -->
<g id="edge12" class="edge">
<title>Node1&#45;&gt;Node13</title>
<path fill="none" stroke="midnightblue" d="M779.43,-314.52C756.93,-305.04 728.78,-293.84 703,-285.5 691.97,-281.93 680.11,-278.57 668.55,-275.55"/>
<polygon fill="midnightblue" stroke="midnightblue" points="778.13,-317.78 788.71,-318.47 780.87,-311.33 778.13,-317.78"/>
</g>
<!-- Node14 -->
<g id="node14" class="node">
<title>Node14</title>
<g id="a_node14"><a xlink:href="classQuantConnect_1_1Time.html#a50fc3d93661ea9b1506e9d6ab78bcabd" target="_top" xlink:title="Determines the start time required to produce the requested number of bars and the given size">
<polygon fill="white" stroke="black" points="523,-196.5 523,-226.5 680,-226.5 680,-196.5 523,-196.5"/>
<text text-anchor="start" x="531" y="-214.5" font-family="Helvetica,sans-Serif" font-size="10.00">QuantConnect.Time.GetStart</text>
<text text-anchor="middle" x="601.5" y="-203.5" font-family="Helvetica,sans-Serif" font-size="10.00">TimeForTradeBars</text>
</a>
</g>
</g>
<!-- Node1&#45;&gt;Node14 -->
<g id="edge13" class="edge">
<title>Node1&#45;&gt;Node14</title>
<path fill="none" stroke="midnightblue" d="M800.88,-310.91C778.43,-288.76 741.28,-255.6 703,-236.5 695.28,-232.65 686.92,-229.36 678.43,-226.56"/>
<polygon fill="midnightblue" stroke="midnightblue" points="798.65,-313.63 808.19,-318.25 803.61,-308.69 798.65,-313.63"/>
</g>
<!-- Node23 -->
<g id="node23" class="node">
<title>Node23</title>
<g id="a_node23"><a xlink:href="classQuantConnect_1_1Securities_1_1SecurityExchange.html#a91d7448f76fb5c0ea9b0907d52791764" target="_top" xlink:title="Determines if the exchange is going to close in the next provided minutes">
<polygon fill="white" stroke="black" points="514,-147.5 514,-177.5 689,-177.5 689,-147.5 514,-147.5"/>
<text text-anchor="start" x="522" y="-165.5" font-family="Helvetica,sans-Serif" font-size="10.00">QuantConnect.Securities.</text>
<text text-anchor="middle" x="601.5" y="-154.5" font-family="Helvetica,sans-Serif" font-size="10.00">SecurityExchange.IsClosingSoon</text>
</a>
</g>
</g>
<!-- Node1&#45;&gt;Node23 -->
<g id="edge22" class="edge">
<title>Node1&#45;&gt;Node23</title>
<path fill="none" stroke="midnightblue" d="M809.53,-309.5C790.57,-276.75 752.12,-218.59 703,-187.5 696.85,-183.61 690.13,-180.32 683.17,-177.54"/>
<polygon fill="midnightblue" stroke="midnightblue" points="806.6,-311.42 814.57,-318.4 812.69,-307.97 806.6,-311.42"/>
</g>
<!-- Node24 -->
<g id="node24" class="node">
<title>Node24</title>
<g id="a_node24"><a xlink:href="classQuantConnect_1_1Orders_1_1Fills_1_1FillModel.html#acc205b791cf6a99fa989502aff6b53b8" target="_top" xlink:title="Determines if the exchange is open using the current time of the asset">
<polygon fill="white" stroke="black" points="283,-583.5 283,-613.5 429,-613.5 429,-583.5 283,-583.5"/>
<text text-anchor="start" x="291" y="-601.5" font-family="Helvetica,sans-Serif" font-size="10.00">QuantConnect.Orders.Fills.</text>
<text text-anchor="middle" x="356" y="-590.5" font-family="Helvetica,sans-Serif" font-size="10.00">FillModel.IsExchangeOpen</text>
</a>
</g>
</g>
<!-- Node1&#45;&gt;Node24 -->
<g id="edge23" class="edge">
<title>Node1&#45;&gt;Node24</title>
<path fill="none" stroke="midnightblue" d="M818.73,-358.8C809.53,-410.53 780.7,-527.84 703,-579.5 619.71,-634.87 498.68,-626.34 424.05,-613.55"/>
<polygon fill="midnightblue" stroke="midnightblue" points="822.2,-359.25 820.4,-348.81 815.3,-358.09 822.2,-359.25"/>
</g>
<!-- Node33 -->
<g id="node33" class="node">
<title>Node33</title>
<g id="a_node33"><a xlink:href="classQuantConnect_1_1Extensions.html#aff495d7dd569c4ed3f9a1e59ed429cef" target="_top" xlink:title="Helper method to determine if a specific market is open">
<polygon fill="white" stroke="black" points="529,-98.5 529,-128.5 674,-128.5 674,-98.5 529,-98.5"/>
<text text-anchor="start" x="537" y="-116.5" font-family="Helvetica,sans-Serif" font-size="10.00">QuantConnect.Extensions.</text>
<text text-anchor="middle" x="601.5" y="-105.5" font-family="Helvetica,sans-Serif" font-size="10.00">IsMarketOpen</text>
</a>
</g>
</g>
<!-- Node1&#45;&gt;Node33 -->
<g id="edge33" class="edge">
<title>Node1&#45;&gt;Node33</title>
<path fill="none" stroke="midnightblue" d="M814.33,-308.61C799.28,-266.75 763.08,-182.53 703,-138.5 694.44,-132.23 684.49,-127.52 674.25,-123.99"/>
<polygon fill="midnightblue" stroke="midnightblue" points="811.11,-310 817.71,-318.29 817.72,-307.69 811.11,-310"/>
</g>
<!-- Node34 -->
<g id="node34" class="node">
<title>Node34</title>
<g id="a_node34"><a xlink:href="classQuantConnect_1_1Securities_1_1SecurityExchangeHours.html#aed0ab6a599e3b21b5da170054848b541" target="_top" xlink:title="Determines if the exchange is open at any point in time over the specified interval.">
<polygon fill="white" stroke="black" points="517,-49.5 517,-79.5 686,-79.5 686,-49.5 517,-49.5"/>
<text text-anchor="start" x="525" y="-67.5" font-family="Helvetica,sans-Serif" font-size="10.00">QuantConnect.Securities.</text>
<text text-anchor="middle" x="601.5" y="-56.5" font-family="Helvetica,sans-Serif" font-size="10.00">SecurityExchangeHours.IsOpen</text>
</a>
</g>
</g>
<!-- Node1&#45;&gt;Node34 -->
<g id="edge34" class="edge">
<title>Node1&#45;&gt;Node34</title>
<path fill="none" stroke="midnightblue" d="M817.6,-308.52C806.49,-258.83 774.61,-147.36 703,-89.5 697.97,-85.43 692.36,-82.01 686.44,-79.14"/>
<polygon fill="midnightblue" stroke="midnightblue" points="814.2,-309.37 819.71,-318.42 821.04,-307.91 814.2,-309.37"/>
</g>
<!-- Node35 -->
<g id="node35" class="node">
<title>Node35</title>
<g id="a_node35"><a xlink:href="classQuantConnect_1_1Securities_1_1SecurityExchange.html#a17daa159794484b17946fc540864800c" target="_top" xlink:title="Determines if the exchange was open at any time between start and stop">
<polygon fill="white" stroke="black" points="507,-539.5 507,-569.5 696,-569.5 696,-539.5 507,-539.5"/>
<text text-anchor="start" x="515" y="-557.5" font-family="Helvetica,sans-Serif" font-size="10.00">QuantConnect.Securities.</text>
<text text-anchor="middle" x="601.5" y="-546.5" font-family="Helvetica,sans-Serif" font-size="10.00">SecurityExchange.IsOpenDuringBar</text>
</a>
</g>
</g>
<!-- Node1&#45;&gt;Node35 -->
<g id="edge35" class="edge">
<title>Node1&#45;&gt;Node35</title>
<path fill="none" stroke="midnightblue" d="M814.66,-358.13C799.91,-400.3 763.92,-486.09 703,-530.5 698.36,-533.88 693.31,-536.79 688.03,-539.3"/>
<polygon fill="midnightblue" stroke="midnightblue" points="817.98,-359.23 817.87,-348.63 811.35,-356.98 817.98,-359.23"/>
</g>
<!-- Node38 -->
<g id="node38" class="node">
<title>Node38</title>
<g id="a_node38"><a xlink:href="classQuantConnect_1_1Data_1_1Common_1_1MarketHourAwareConsolidator.html#ada2633845f46ba47d02bc3d8d696383f" target="_top" xlink:title="Updates this consolidator with the specified data">
<polygon fill="white" stroke="black" points="500,-0.5 500,-30.5 703,-30.5 703,-0.5 500,-0.5"/>
<text text-anchor="start" x="508" y="-18.5" font-family="Helvetica,sans-Serif" font-size="10.00">QuantConnect.Data.Common.</text>
<text text-anchor="middle" x="601.5" y="-7.5" font-family="Helvetica,sans-Serif" font-size="10.00">MarketHourAwareConsolidator.Update</text>
</a>
</g>
</g>
<!-- Node1&#45;&gt;Node38 -->
<g id="edge39" class="edge">
<title>Node1&#45;&gt;Node38</title>
<path fill="none" stroke="midnightblue" d="M819.91,-308.25C812.66,-251.15 786.84,-111.5 703,-39.5 699.05,-36.11 694.71,-33.18 690.11,-30.65"/>
<polygon fill="midnightblue" stroke="midnightblue" points="816.44,-308.7 821.09,-318.22 823.39,-307.88 816.44,-308.7"/>
</g>
<!-- Node3 -->
<g id="node3" class="node">
<title>Node3</title>
<g id="a_node3"><a xlink:href="classQuantConnect_1_1Orders_1_1Fills_1_1EquityFillModel.html#a2cc8fb9eafec5a645f7901a20b6c0594" target="_top" xlink:title="Market on Open Fill Model. Return an order event with the fill details">
<polygon fill="white" stroke="black" points="15,-803.5 15,-833.5 197,-833.5 197,-803.5 15,-803.5"/>
<text text-anchor="start" x="23" y="-821.5" font-family="Helvetica,sans-Serif" font-size="10.00">QuantConnect.Orders.Fills.</text>
<text text-anchor="middle" x="106" y="-810.5" font-family="Helvetica,sans-Serif" font-size="10.00">EquityFillModel.MarketOnOpenFill</text>
</a>
</g>
</g>
<!-- Node2&#45;&gt;Node3 -->
<g id="edge2" class="edge">
<title>Node2&#45;&gt;Node3</title>
<path fill="none" stroke="midnightblue" d="M497.3,-818.5C408.6,-818.5 281.94,-818.5 197.22,-818.5"/>
<polygon fill="midnightblue" stroke="midnightblue" points="497.39,-822 507.39,-818.5 497.39,-815 497.39,-822"/>
</g>
<!-- Node4 -->
<g id="node4" class="node">
<title>Node4</title>
<g id="a_node4"><a xlink:href="classQuantConnect_1_1Orders_1_1Fills_1_1FillModel.html#ad6b2c831ede0fe9358c0310ba05e1290" target="_top" xlink:title="Market on Open Fill Model. Return an order event with the fill details">
<polygon fill="white" stroke="black" points="280.5,-849.5 280.5,-879.5 431.5,-879.5 431.5,-849.5 280.5,-849.5"/>
<text text-anchor="start" x="288.5" y="-867.5" font-family="Helvetica,sans-Serif" font-size="10.00">QuantConnect.Orders.Fills.</text>
<text text-anchor="middle" x="356" y="-856.5" font-family="Helvetica,sans-Serif" font-size="10.00">FillModel.MarketOnOpenFill</text>
</a>
</g>
</g>
<!-- Node2&#45;&gt;Node4 -->
<g id="edge3" class="edge">
<title>Node2&#45;&gt;Node4</title>
<path fill="none" stroke="midnightblue" d="M510.89,-835.43C484.8,-840.36 456.59,-845.69 431.54,-850.42"/>
<polygon fill="midnightblue" stroke="midnightblue" points="511.59,-838.86 520.77,-833.56 510.29,-831.98 511.59,-838.86"/>
</g>
<!-- Node5 -->
<g id="node5" class="node">
<title>Node5</title>
<g id="a_node5"><a xlink:href="classQuantConnect_1_1Orders_1_1Fills_1_1FillModel.html#ab2919d2ee3ef2bd42013884458871c85" target="_top" xlink:title="Return an order event with the fill details">
<polygon fill="white" stroke="black" points="33,-852.5 33,-882.5 179,-882.5 179,-852.5 33,-852.5"/>
<text text-anchor="start" x="41" y="-870.5" font-family="Helvetica,sans-Serif" font-size="10.00">QuantConnect.Orders.Fills.</text>
<text text-anchor="middle" x="106" y="-859.5" font-family="Helvetica,sans-Serif" font-size="10.00">FillModel.Fill</text>
</a>
</g>
</g>
<!-- Node4&#45;&gt;Node5 -->
<g id="edge4" class="edge">
<title>Node4&#45;&gt;Node5</title>
<path fill="none" stroke="midnightblue" d="M269.94,-865.53C240.35,-865.89 207.47,-866.28 179.04,-866.63"/>
<polygon fill="midnightblue" stroke="midnightblue" points="270.3,-869.02 280.26,-865.4 270.21,-862.03 270.3,-869.02"/>
</g>
<!-- Node10 -->
<g id="node10" class="node">
<title>Node10</title>
<g id="a_node10"><a xlink:href="classQuantConnect_1_1Algorithm_1_1Framework_1_1Alphas_1_1Insight.html#a9b0d98e6ada41f28b42e52f36b7f9f44" target="_top" xlink:title="Computes the insight closing time from the given generated time, resolution and bar count....">
<polygon fill="white" stroke="black" points="257.5,-352.5 257.5,-382.5 454.5,-382.5 454.5,-352.5 257.5,-352.5"/>
<text text-anchor="start" x="265.5" y="-370.5" font-family="Helvetica,sans-Serif" font-size="10.00">QuantConnect.Algorithm.Framework.</text>
<text text-anchor="middle" x="356" y="-359.5" font-family="Helvetica,sans-Serif" font-size="10.00">Alphas.Insight.ComputeCloseTime</text>
</a>
</g>
</g>
<!-- Node9&#45;&gt;Node10 -->
<g id="edge9" class="edge">
<title>Node9&#45;&gt;Node10</title>
<path fill="none" stroke="midnightblue" d="M515.35,-361.65C495.75,-362.37 474.76,-363.15 454.68,-363.89"/>
<polygon fill="midnightblue" stroke="midnightblue" points="515.59,-365.14 525.46,-361.27 515.33,-358.15 515.59,-365.14"/>
</g>
<!-- Node11 -->
<g id="node11" class="node">
<title>Node11</title>
<g id="a_node11"><a xlink:href="classQuantConnect_1_1Algorithm_1_1Framework_1_1Alphas_1_1Insight.html#ac78ab1ab756a3e78a9ee46c5ed1752ff" target="_top" xlink:title="computs the insight closing time from the given generated time and period">
<polygon fill="white" stroke="black" points="7.5,-313.5 7.5,-343.5 204.5,-343.5 204.5,-313.5 7.5,-313.5"/>
<text text-anchor="start" x="15.5" y="-331.5" font-family="Helvetica,sans-Serif" font-size="10.00">QuantConnect.Algorithm.Framework.</text>
<text text-anchor="middle" x="106" y="-320.5" font-family="Helvetica,sans-Serif" font-size="10.00">Alphas.Insight.ComputeCloseTime</text>
</a>
</g>
</g>
<!-- Node10&#45;&gt;Node11 -->
<g id="edge10" class="edge">
<title>Node10&#45;&gt;Node11</title>
<path fill="none" stroke="midnightblue" d="M249.32,-350.88C233.76,-348.43 217.81,-345.93 202.48,-343.51"/>
<polygon fill="midnightblue" stroke="midnightblue" points="249.05,-354.38 259.47,-352.48 250.14,-347.47 249.05,-354.38"/>
</g>
<!-- Node15 -->
<g id="node15" class="node">
<title>Node15</title>
<g id="a_node15"><a xlink:href="classQuantConnect_1_1Lean_1_1Engine_1_1DataFeeds_1_1UniverseSelection.html#aa1f5bba72357a2a66d98099a3d20a0e5" target="_top" xlink:title="Will add any pending internal currency subscriptions">
<polygon fill="white" stroke="black" points="265,-12 265,-53 447,-53 447,-12 265,-12"/>
<text text-anchor="start" x="273" y="-41" font-family="Helvetica,sans-Serif" font-size="10.00">QuantConnect.Lean.Engine.</text>
<text text-anchor="start" x="273" y="-30" font-family="Helvetica,sans-Serif" font-size="10.00">DataFeeds.UniverseSelection.Add</text>
<text text-anchor="middle" x="356" y="-19" font-family="Helvetica,sans-Serif" font-size="10.00">PendingInternalDataFeeds</text>
</a>
</g>
</g>
<!-- Node14&#45;&gt;Node15 -->
<g id="edge14" class="edge">
<title>Node14&#45;&gt;Node15</title>
<path fill="none" stroke="midnightblue" d="M513.65,-197.52C508.71,-194.72 504.09,-191.41 500,-187.5 458.19,-147.57 505.02,-103.24 464,-62.5 459,-57.54 453.26,-53.38 447.07,-49.9"/>
<polygon fill="midnightblue" stroke="midnightblue" points="512.33,-200.77 522.85,-202.03 515.41,-194.49 512.33,-200.77"/>
</g>
<!-- Node16 -->
<g id="node16" class="node">
<title>Node16</title>
<g id="a_node16"><a xlink:href="classQuantConnect_1_1Lean_1_1Engine_1_1DataFeeds_1_1FileSystemDataFeed.html#ac148e78fc814fca88c70a1835be51a25" target="_top" xlink:title="Creates a new subscription to provide data for the specified security.">
<polygon fill="white" stroke="black" points="252.5,-292 252.5,-333 459.5,-333 459.5,-292 252.5,-292"/>
<text text-anchor="start" x="260.5" y="-321" font-family="Helvetica,sans-Serif" font-size="10.00">QuantConnect.Lean.Engine.</text>
<text text-anchor="start" x="260.5" y="-310" font-family="Helvetica,sans-Serif" font-size="10.00">DataFeeds.FileSystemDataFeed.Create</text>
<text text-anchor="middle" x="356" y="-299" font-family="Helvetica,sans-Serif" font-size="10.00">Subscription</text>
</a>
</g>
</g>
<!-- Node14&#45;&gt;Node16 -->
<g id="edge15" class="edge">
<title>Node14&#45;&gt;Node16</title>
<path fill="none" stroke="midnightblue" d="M513.56,-229.07C508.83,-231.26 504.27,-233.73 500,-236.5 478.22,-250.62 485.57,-268.06 464,-282.5 458.71,-286.04 453.01,-289.17 447.08,-291.93"/>
<polygon fill="midnightblue" stroke="midnightblue" points="514.97,-232.28 522.84,-225.19 512.26,-225.82 514.97,-232.28"/>
</g>
<!-- Node17 -->
<g id="node17" class="node">
<title>Node17</title>
<g id="a_node17"><a xlink:href="classQuantConnect_1_1Lean_1_1Engine_1_1DataFeeds_1_1DataManager.html#acf9050df1be040d4259dc9a89c2cb740" target="_top" xlink:title="Creates a new instance of the DataManager">
<polygon fill="white" stroke="black" points="253,-242.5 253,-272.5 459,-272.5 459,-242.5 253,-242.5"/>
<text text-anchor="start" x="261" y="-260.5" font-family="Helvetica,sans-Serif" font-size="10.00">QuantConnect.Lean.Engine.</text>
<text text-anchor="middle" x="356" y="-249.5" font-family="Helvetica,sans-Serif" font-size="10.00">DataFeeds.DataManager.DataManager</text>
</a>
</g>
</g>
<!-- Node14&#45;&gt;Node17 -->
<g id="edge16" class="edge">
<title>Node14&#45;&gt;Node17</title>
<path fill="none" stroke="midnightblue" d="M512.63,-228.1C487.76,-232.8 460.84,-237.88 436.49,-242.48"/>
<polygon fill="midnightblue" stroke="midnightblue" points="513.61,-231.48 522.79,-226.18 512.31,-224.6 513.61,-231.48"/>
</g>
<!-- Node18 -->
<g id="node18" class="node">
<title>Node18</title>
<g id="a_node18"><a xlink:href="classQuantConnect_1_1Securities_1_1Volatility_1_1BaseVolatilityModel.html#a1447baed13180db4f86dc485496400b8" target="_top" xlink:title="Gets history requests required for warming up the greeks with the provided resolution">
<polygon fill="white" stroke="black" points="275,-182 275,-223 437,-223 437,-182 275,-182"/>
<text text-anchor="start" x="283" y="-211" font-family="Helvetica,sans-Serif" font-size="10.00">QuantConnect.Securities.</text>
<text text-anchor="start" x="283" y="-200" font-family="Helvetica,sans-Serif" font-size="10.00">Volatility.BaseVolatilityModel.</text>
<text text-anchor="middle" x="356" y="-189" font-family="Helvetica,sans-Serif" font-size="10.00">GetHistoryRequirements</text>
</a>
</g>
</g>
<!-- Node14&#45;&gt;Node18 -->
<g id="edge17" class="edge">
<title>Node14&#45;&gt;Node18</title>
<path fill="none" stroke="midnightblue" d="M512.74,-208.26C488.12,-207.35 461.49,-206.36 437.33,-205.47"/>
<polygon fill="midnightblue" stroke="midnightblue" points="512.66,-211.76 522.79,-208.63 512.92,-204.76 512.66,-211.76"/>
</g>
<!-- Node19 -->
<g id="node19" class="node">
<title>Node19</title>
<g id="a_node19"><a xlink:href="classQuantConnect_1_1Data_1_1HistoryRequestFactory.html#a76f5a4548714e2abf1a8c2d7e0664564" target="_top" xlink:title="Gets the start time required for the specified bar count in terms of the algorithm&#39;s time zone">
<polygon fill="white" stroke="black" points="260.5,-132.5 260.5,-162.5 451.5,-162.5 451.5,-132.5 260.5,-132.5"/>
<text text-anchor="start" x="268.5" y="-150.5" font-family="Helvetica,sans-Serif" font-size="10.00">QuantConnect.Data.History</text>
<text text-anchor="middle" x="356" y="-139.5" font-family="Helvetica,sans-Serif" font-size="10.00">RequestFactory.GetStartTimeAlgoTz</text>
</a>
</g>
</g>
<!-- Node14&#45;&gt;Node19 -->
<g id="edge18" class="edge">
<title>Node14&#45;&gt;Node19</title>
<path fill="none" stroke="midnightblue" d="M521.28,-193.85C514.05,-191.86 506.86,-189.73 500,-187.5 483.52,-182.14 480.5,-177.82 464,-172.5 452.74,-168.87 440.66,-165.53 428.82,-162.55"/>
<polygon fill="midnightblue" stroke="midnightblue" points="520.6,-197.29 531.16,-196.49 522.4,-190.53 520.6,-197.29"/>
</g>
<!-- Node20 -->
<g id="node20" class="node">
<title>Node20</title>
<g id="a_node20"><a xlink:href="classQuantConnect_1_1Lean_1_1Engine_1_1DataFeeds_1_1BacktestingChainProvider.html#a903ec0b9ee074f1a7ee6d1eccc5f712b" target="_top" xlink:title="Get the contract symbols associated with the given canonical symbol and date">
<polygon fill="white" stroke="black" points="256,-72 256,-113 456,-113 456,-72 256,-72"/>
<text text-anchor="start" x="264" y="-101" font-family="Helvetica,sans-Serif" font-size="10.00">QuantConnect.Lean.Engine.</text>
<text text-anchor="start" x="264" y="-90" font-family="Helvetica,sans-Serif" font-size="10.00">DataFeeds.BacktestingChainProvider.</text>
<text text-anchor="middle" x="356" y="-79" font-family="Helvetica,sans-Serif" font-size="10.00">GetSymbols</text>
</a>
</g>
</g>
<!-- Node14&#45;&gt;Node20 -->
<g id="edge19" class="edge">
<title>Node14&#45;&gt;Node20</title>
<path fill="none" stroke="midnightblue" d="M513.49,-195.81C508.73,-193.41 504.19,-190.66 500,-187.5 473.95,-167.84 489.58,-143.77 464,-123.5 459,-119.54 453.51,-116.08 447.74,-113.06"/>
<polygon fill="midnightblue" stroke="midnightblue" points="512.33,-199.12 522.89,-199.99 515.17,-192.72 512.33,-199.12"/>
</g>
<!-- Node21 -->
<g id="node21" class="node">
<title>Node21</title>
<g id="a_node21"><a xlink:href="classQuantConnect_1_1Lean_1_1Engine_1_1DataFeeds_1_1BacktestingFutureChainProvider.html#ad95ac9ea6895b03fa51209aa7e9c2fb4" target="_top" xlink:title="Gets the list of future contracts for a given underlying symbol">
<polygon fill="white" stroke="black" points="12,-102 12,-143 200,-143 200,-102 12,-102"/>
<text text-anchor="start" x="20" y="-131" font-family="Helvetica,sans-Serif" font-size="10.00">QuantConnect.Lean.Engine.</text>
<text text-anchor="start" x="20" y="-120" font-family="Helvetica,sans-Serif" font-size="10.00">DataFeeds.BacktestingFutureChain</text>
<text text-anchor="middle" x="106" y="-109" font-family="Helvetica,sans-Serif" font-size="10.00">Provider.GetFutureContractList</text>
</a>
</g>
</g>
<!-- Node20&#45;&gt;Node21 -->
<g id="edge20" class="edge">
<title>Node20&#45;&gt;Node21</title>
<path fill="none" stroke="midnightblue" d="M245.96,-105.69C230.73,-107.53 215.19,-109.41 200.29,-111.22"/>
<polygon fill="midnightblue" stroke="midnightblue" points="246.41,-109.16 255.91,-104.49 245.57,-102.21 246.41,-109.16"/>
</g>
<!-- Node22 -->
<g id="node22" class="node">
<title>Node22</title>
<g id="a_node22"><a xlink:href="classQuantConnect_1_1Lean_1_1Engine_1_1DataFeeds_1_1BacktestingOptionChainProvider.html#a5b140615fad8e3c0f8d08597a7ca1509" target="_top" xlink:title="Gets the list of option contracts for a given underlying symbol">
<polygon fill="white" stroke="black" points="11.5,-42 11.5,-83 200.5,-83 200.5,-42 11.5,-42"/>
<text text-anchor="start" x="19.5" y="-71" font-family="Helvetica,sans-Serif" font-size="10.00">QuantConnect.Lean.Engine.</text>
<text text-anchor="start" x="19.5" y="-60" font-family="Helvetica,sans-Serif" font-size="10.00">DataFeeds.BacktestingOptionChain</text>
<text text-anchor="middle" x="106" y="-49" font-family="Helvetica,sans-Serif" font-size="10.00">Provider.GetOptionContractList</text>
</a>
</g>
</g>
<!-- Node20&#45;&gt;Node22 -->
<g id="edge21" class="edge">
<title>Node20&#45;&gt;Node22</title>
<path fill="none" stroke="midnightblue" d="M245.6,-79.27C230.62,-77.45 215.35,-75.61 200.69,-73.83"/>
<polygon fill="midnightblue" stroke="midnightblue" points="245.57,-82.79 255.91,-80.51 246.41,-75.84 245.57,-82.79"/>
</g>
<!-- Node24&#45;&gt;Node3 -->
<g id="edge29" class="edge">
<title>Node24&#45;&gt;Node3</title>
<path fill="none" stroke="midnightblue" d="M344.36,-622.84C324.67,-664.87 278.43,-750.73 212,-794.5 206.77,-797.95 201.11,-800.9 195.22,-803.44"/>
<polygon fill="midnightblue" stroke="midnightblue" points="347.6,-624.17 348.58,-613.62 341.23,-621.26 347.6,-624.17"/>
</g>
<!-- Node25 -->
<g id="node25" class="node">
<title>Node25</title>
<g id="a_node25"><a xlink:href="classQuantConnect_1_1Orders_1_1Fills_1_1EquityFillModel.html#a26bd9d6ef294e705ff15aea24f41cb75" target="_top" xlink:title="Limit fill model implementation for Equity.">
<polygon fill="white" stroke="black" points="33,-509.5 33,-539.5 179,-539.5 179,-509.5 33,-509.5"/>
<text text-anchor="start" x="41" y="-527.5" font-family="Helvetica,sans-Serif" font-size="10.00">QuantConnect.Orders.Fills.</text>
<text text-anchor="middle" x="106" y="-516.5" font-family="Helvetica,sans-Serif" font-size="10.00">EquityFillModel.LimitFill</text>
</a>
</g>
</g>
<!-- Node24&#45;&gt;Node25 -->
<g id="edge24" class="edge">
<title>Node24&#45;&gt;Node25</title>
<path fill="none" stroke="midnightblue" d="M304.65,-579.92C277.42,-570.21 243.09,-558.51 212,-549.5 199.94,-546.01 187,-542.63 174.47,-539.55"/>
<polygon fill="midnightblue" stroke="midnightblue" points="303.75,-583.31 314.34,-583.4 306.11,-576.73 303.75,-583.31"/>
</g>
<!-- Node26 -->
<g id="node26" class="node">
<title>Node26</title>
<g id="a_node26"><a xlink:href="classQuantConnect_1_1Orders_1_1Fills_1_1EquityFillModel.html#a9ece28ffc288b6632dc301189fe60a70" target="_top" xlink:title="Default limit if touched fill model implementation in base class security.">
<polygon fill="white" stroke="black" points="16,-460.5 16,-490.5 196,-490.5 196,-460.5 16,-460.5"/>
<text text-anchor="start" x="24" y="-478.5" font-family="Helvetica,sans-Serif" font-size="10.00">QuantConnect.Orders.Fills.</text>
<text text-anchor="middle" x="106" y="-467.5" font-family="Helvetica,sans-Serif" font-size="10.00">EquityFillModel.LimitIfTouchedFill</text>
</a>
</g>
</g>
<!-- Node24&#45;&gt;Node26 -->
<g id="edge25" class="edge">
<title>Node24&#45;&gt;Node26</title>
<path fill="none" stroke="midnightblue" d="M329.46,-576.65C302.12,-554.35 256.63,-520.29 212,-500.5 203.35,-496.66 194.02,-493.37 184.63,-490.55"/>
<polygon fill="midnightblue" stroke="midnightblue" points="327.4,-579.49 337.34,-583.16 331.86,-574.09 327.4,-579.49"/>
</g>
<!-- Node27 -->
<g id="node27" class="node">
<title>Node27</title>
<g id="a_node27"><a xlink:href="classQuantConnect_1_1Orders_1_1Fills_1_1FutureFillModel.html#a7bc1214a98a1f4ef4920db58e1d3af15" target="_top" xlink:title="Default market fill model for the base security class. Fills at the last traded price.">
<polygon fill="white" stroke="black" points="33,-411.5 33,-441.5 179,-441.5 179,-411.5 33,-411.5"/>
<text text-anchor="start" x="41" y="-429.5" font-family="Helvetica,sans-Serif" font-size="10.00">QuantConnect.Orders.Fills.</text>
<text text-anchor="middle" x="106" y="-418.5" font-family="Helvetica,sans-Serif" font-size="10.00">FutureFillModel.MarketFill</text>
</a>
</g>
</g>
<!-- Node24&#45;&gt;Node27 -->
<g id="edge26" class="edge">
<title>Node24&#45;&gt;Node27</title>
<path fill="none" stroke="midnightblue" d="M323.36,-577.71C300.59,-561.71 270.13,-538.07 248,-512.5 227.4,-488.7 237.33,-470.19 212,-451.5 202.27,-444.32 190.78,-439.18 179.04,-435.49"/>
<polygon fill="midnightblue" stroke="midnightblue" points="321.46,-580.65 331.67,-583.45 325.44,-574.89 321.46,-580.65"/>
</g>
<!-- Node28 -->
<g id="node28" class="node">
<title>Node28</title>
<g id="a_node28"><a xlink:href="classQuantConnect_1_1Orders_1_1Fills_1_1EquityFillModel.html#a7f02ae71a851b7be45d65da18127b978" target="_top" xlink:title="Default market fill model for the base security class. Fills at the last traded price.">
<polygon fill="white" stroke="black" points="33,-754.5 33,-784.5 179,-784.5 179,-754.5 33,-754.5"/>
<text text-anchor="start" x="41" y="-772.5" font-family="Helvetica,sans-Serif" font-size="10.00">QuantConnect.Orders.Fills.</text>
<text text-anchor="middle" x="106" y="-761.5" font-family="Helvetica,sans-Serif" font-size="10.00">EquityFillModel.MarketFill</text>
</a>
</g>
</g>
<!-- Node24&#45;&gt;Node28 -->
<g id="edge27" class="edge">
<title>Node24&#45;&gt;Node28</title>
<path fill="none" stroke="midnightblue" d="M338.75,-622.34C314.93,-655.35 267.33,-714.41 212,-745.5 201.89,-751.18 190.52,-755.52 179.09,-758.83"/>
<polygon fill="midnightblue" stroke="midnightblue" points="341.9,-623.95 344.82,-613.77 336.19,-619.91 341.9,-623.95"/>
</g>
<!-- Node29 -->
<g id="node29" class="node">
<title>Node29</title>
<g id="a_node29"><a xlink:href="classQuantConnect_1_1Orders_1_1Fills_1_1EquityFillModel.html#aca188cd71e166416b2dc8b39b9c10311" target="_top" xlink:title="Market on Close Fill Model. Return an order event with the fill details">
<polygon fill="white" stroke="black" points="14.5,-705.5 14.5,-735.5 197.5,-735.5 197.5,-705.5 14.5,-705.5"/>
<text text-anchor="start" x="22.5" y="-723.5" font-family="Helvetica,sans-Serif" font-size="10.00">QuantConnect.Orders.Fills.</text>
<text text-anchor="middle" x="106" y="-712.5" font-family="Helvetica,sans-Serif" font-size="10.00">EquityFillModel.MarketOnCloseFill</text>
</a>
</g>
</g>
<!-- Node24&#45;&gt;Node29 -->
<g id="edge28" class="edge">
<title>Node24&#45;&gt;Node29</title>
<path fill="none" stroke="midnightblue" d="M329.95,-620.06C302.69,-642.42 256.97,-676.81 212,-696.5 204.21,-699.91 195.87,-702.87 187.42,-705.43"/>
<polygon fill="midnightblue" stroke="midnightblue" points="332.34,-622.62 337.79,-613.54 327.87,-617.24 332.34,-622.62"/>
</g>
<!-- Node30 -->
<g id="node30" class="node">
<title>Node30</title>
<g id="a_node30"><a xlink:href="classQuantConnect_1_1Orders_1_1Fills_1_1EquityFillModel.html#a22aa83d2e8118b75f3d5a8416bc4542f" target="_top" xlink:title="Default stop limit fill model implementation in base class security. (Stop Limit Order Type)">
<polygon fill="white" stroke="black" points="28.5,-656.5 28.5,-686.5 183.5,-686.5 183.5,-656.5 28.5,-656.5"/>
<text text-anchor="start" x="36.5" y="-674.5" font-family="Helvetica,sans-Serif" font-size="10.00">QuantConnect.Orders.Fills.</text>
<text text-anchor="middle" x="106" y="-663.5" font-family="Helvetica,sans-Serif" font-size="10.00">EquityFillModel.StopLimitFill</text>
</a>
</g>
</g>
<!-- Node24&#45;&gt;Node30 -->
<g id="edge30" class="edge">
<title>Node24&#45;&gt;Node30</title>
<path fill="none" stroke="midnightblue" d="M304.98,-617.09C277.71,-626.85 243.25,-638.6 212,-647.5 200.94,-650.65 189.13,-653.67 177.58,-656.44"/>
<polygon fill="midnightblue" stroke="midnightblue" points="306.46,-620.27 314.68,-613.59 304.08,-613.69 306.46,-620.27"/>
</g>
<!-- Node31 -->
<g id="node31" class="node">
<title>Node31</title>
<g id="a_node31"><a xlink:href="classQuantConnect_1_1Orders_1_1Fills_1_1FutureFillModel.html#a27d0f1f5940e7e8c6569c2e5a06de387" target="_top" xlink:title="Stop fill model implementation for Future.">
<polygon fill="white" stroke="black" points="24,-607.5 24,-637.5 188,-637.5 188,-607.5 24,-607.5"/>
<text text-anchor="start" x="32" y="-625.5" font-family="Helvetica,sans-Serif" font-size="10.00">QuantConnect.Orders.Fills.</text>
<text text-anchor="middle" x="106" y="-614.5" font-family="Helvetica,sans-Serif" font-size="10.00">FutureFillModel.StopMarketFill</text>
</a>
</g>
</g>
<!-- Node24&#45;&gt;Node31 -->
<g id="edge31" class="edge">
<title>Node24&#45;&gt;Node31</title>
<path fill="none" stroke="midnightblue" d="M272.7,-606.46C245.58,-609.09 215.45,-612 188.4,-614.62"/>
<polygon fill="midnightblue" stroke="midnightblue" points="273.32,-609.92 282.93,-605.47 272.64,-602.95 273.32,-609.92"/>
</g>
<!-- Node32 -->
<g id="node32" class="node">
<title>Node32</title>
<g id="a_node32"><a xlink:href="classQuantConnect_1_1Orders_1_1Fills_1_1EquityFillModel.html#a2b4a2286e47d3b55612f8ebbfe7beae9" target="_top" xlink:title="Stop fill model implementation for Equity.">
<polygon fill="white" stroke="black" points="24,-558.5 24,-588.5 188,-588.5 188,-558.5 24,-558.5"/>
<text text-anchor="start" x="32" y="-576.5" font-family="Helvetica,sans-Serif" font-size="10.00">QuantConnect.Orders.Fills.</text>
<text text-anchor="middle" x="106" y="-565.5" font-family="Helvetica,sans-Serif" font-size="10.00">EquityFillModel.StopMarketFill</text>
</a>
</g>
</g>
<!-- Node24&#45;&gt;Node32 -->
<g id="edge32" class="edge">
<title>Node24&#45;&gt;Node32</title>
<path fill="none" stroke="midnightblue" d="M272.7,-590.2C245.58,-587.47 215.45,-584.43 188.4,-581.71"/>
<polygon fill="midnightblue" stroke="midnightblue" points="272.63,-593.71 282.93,-591.24 273.34,-586.75 272.63,-593.71"/>
</g>
<!-- Node35&#45;&gt;Node24 -->
<g id="edge38" class="edge">
<title>Node35&#45;&gt;Node24</title>
<path fill="none" stroke="midnightblue" d="M507.53,-571.3C481.56,-575.99 453.74,-581.02 429.17,-585.46"/>
<polygon fill="midnightblue" stroke="midnightblue" points="508.16,-574.74 517.38,-569.52 506.92,-567.85 508.16,-574.74"/>
</g>
<!-- Node36 -->
<g id="node36" class="node">
<title>Node36</title>
<g id="a_node36"><a xlink:href="classQuantConnect_1_1Brokerages_1_1TradierBrokerageModel.html#a16fcd860e1d830e23658480625c26c2e" target="_top" xlink:title="Returns true if the brokerage would be able to execute this order at this time assuming market prices...">
<polygon fill="white" stroke="black" points="248,-472.5 248,-502.5 464,-502.5 464,-472.5 248,-472.5"/>
<text text-anchor="start" x="256" y="-490.5" font-family="Helvetica,sans-Serif" font-size="10.00">QuantConnect.Brokerages.</text>
<text text-anchor="middle" x="356" y="-479.5" font-family="Helvetica,sans-Serif" font-size="10.00">TradierBrokerageModel.CanExecuteOrder</text>
</a>
</g>
</g>
<!-- Node35&#45;&gt;Node36 -->
<g id="edge36" class="edge">
<title>Node35&#45;&gt;Node36</title>
<path fill="none" stroke="midnightblue" d="M525.24,-537.03C516.71,-534.9 508.15,-532.7 500,-530.5 467.96,-521.86 432.21,-511.11 404.47,-502.52"/>
<polygon fill="midnightblue" stroke="midnightblue" points="524.67,-540.49 535.22,-539.49 526.35,-533.7 524.67,-540.49"/>
</g>
<!-- Node37 -->
<g id="node37" class="node">
<title>Node37</title>
<g id="a_node37"><a xlink:href="classQuantConnect_1_1Brokerages_1_1TradierBrokerageModel.html#a5cafb36dfeec2e93a72842cc12ee9ec3" target="_top" xlink:title="Returns true if the brokerage could accept this order. This takes into account order type,...">
<polygon fill="white" stroke="black" points="0,-362.5 0,-392.5 212,-392.5 212,-362.5 0,-362.5"/>
<text text-anchor="start" x="8" y="-380.5" font-family="Helvetica,sans-Serif" font-size="10.00">QuantConnect.Brokerages.</text>
<text text-anchor="middle" x="106" y="-369.5" font-family="Helvetica,sans-Serif" font-size="10.00">TradierBrokerageModel.CanSubmitOrder</text>
</a>
</g>
</g>
<!-- Node36&#45;&gt;Node37 -->
<g id="edge37" class="edge">
<title>Node36&#45;&gt;Node37</title>
<path fill="none" stroke="midnightblue" d="M325.76,-466.51C297.78,-447.32 253.78,-419.43 212,-402.5 202.62,-398.7 192.53,-395.39 182.44,-392.53"/>
<polygon fill="midnightblue" stroke="midnightblue" points="324.04,-469.58 334.25,-472.41 328.04,-463.83 324.04,-469.58"/>
</g>
</g>
</svg>
