<?xml version="1.0" encoding="UTF-8" standalone="no"?>
<!DOCTYPE svg PUBLIC "-//W3C//DTD SVG 1.1//EN"
 "http://www.w3.org/Graphics/SVG/1.1/DTD/svg11.dtd">
<!-- Generated by graphviz version 2.43.0 (0)
 -->
<!-- Title: QuantConnect.Api.BaseOptimization Pages: 1 -->
<svg width="366pt" height="207pt"
 viewBox="0.00 0.00 366.00 207.00" xmlns="http://www.w3.org/2000/svg" xmlns:xlink="http://www.w3.org/1999/xlink">
<g id="graph0" class="graph" transform="scale(1 1) rotate(0) translate(4 203)">
<title>QuantConnect.Api.BaseOptimization</title>
<polygon fill="white" stroke="transparent" points="-4,4 -4,-203 362,-203 362,4 -4,4"/>
<!-- Node1 -->
<g id="node1" class="node">
<title>Node1</title>
<g id="a_node1"><a xlink:title="BaseOptimization item from the QuantConnect.com API.">
<polygon fill="#bfbfbf" stroke="black" points="82,-67.5 82,-86.5 276,-86.5 276,-67.5 82,-67.5"/>
<text text-anchor="middle" x="179" y="-74.5" font-family="Helvetica,sans-Serif" font-size="10.00">QuantConnect.Api.BaseOptimization</text>
</a>
</g>
</g>
<!-- Node4 -->
<g id="node4" class="node">
<title>Node4</title>
<g id="a_node4"><a xlink:href="classQuantConnect_1_1Api_1_1Optimization.html" target="_top" xlink:title="Optimization response packet from the QuantConnect.com API.">
<polygon fill="white" stroke="black" points="0,-6 0,-25 170,-25 170,-6 0,-6"/>
<text text-anchor="middle" x="85" y="-13" font-family="Helvetica,sans-Serif" font-size="10.00">QuantConnect.Api.Optimization</text>
</a>
</g>
</g>
<!-- Node1&#45;&gt;Node4 -->
<g id="edge3" class="edge">
<title>Node1&#45;&gt;Node4</title>
<path fill="none" stroke="midnightblue" d="M156.77,-61.93C138.65,-50.46 113.65,-34.63 98.44,-25.01"/>
<polygon fill="midnightblue" stroke="midnightblue" points="155.21,-65.08 165.53,-67.48 158.95,-59.17 155.21,-65.08"/>
</g>
<!-- Node5 -->
<g id="node5" class="node">
<title>Node5</title>
<g id="a_node5"><a xlink:href="classQuantConnect_1_1Api_1_1OptimizationSummary.html" target="_top" xlink:title="Optimization summary response for creating an optimization">
<polygon fill="white" stroke="black" points="188,-0.5 188,-30.5 358,-30.5 358,-0.5 188,-0.5"/>
<text text-anchor="start" x="196" y="-18.5" font-family="Helvetica,sans-Serif" font-size="10.00">QuantConnect.Api.Optimization</text>
<text text-anchor="middle" x="273" y="-7.5" font-family="Helvetica,sans-Serif" font-size="10.00">Summary</text>
</a>
</g>
</g>
<!-- Node1&#45;&gt;Node5 -->
<g id="edge4" class="edge">
<title>Node1&#45;&gt;Node5</title>
<path fill="none" stroke="midnightblue" d="M201.1,-62.01C216.1,-52.52 235.84,-40.02 250.85,-30.52"/>
<polygon fill="midnightblue" stroke="midnightblue" points="199.05,-59.17 192.47,-67.48 202.79,-65.08 199.05,-59.17"/>
</g>
<!-- Node2 -->
<g id="node2" class="node">
<title>Node2</title>
<g id="a_node2"><a xlink:href="classQuantConnect_1_1Api_1_1RestResponse.html" target="_top" xlink:title="Base API response class for the QuantConnect API.">
<polygon fill="white" stroke="black" points="136,-123.5 136,-142.5 222,-142.5 222,-123.5 136,-123.5"/>
<text text-anchor="middle" x="179" y="-130.5" font-family="Helvetica,sans-Serif" font-size="10.00">RestResponse</text>
</a>
</g>
</g>
<!-- Node2&#45;&gt;Node1 -->
<g id="edge1" class="edge">
<title>Node2&#45;&gt;Node1</title>
<path fill="none" stroke="midnightblue" d="M179,-112.8C179,-103.91 179,-93.78 179,-86.75"/>
<polygon fill="midnightblue" stroke="midnightblue" points="175.5,-113.08 179,-123.08 182.5,-113.08 175.5,-113.08"/>
</g>
<!-- Node3 -->
<g id="node3" class="node">
<title>Node3</title>
<g id="a_node3"><a xlink:href="classQuantConnect_1_1Api_1_1StringRepresentation.html" target="_top" xlink:title="Class to return the string representation of an API response class">
<polygon fill="white" stroke="black" points="119.5,-179.5 119.5,-198.5 238.5,-198.5 238.5,-179.5 119.5,-179.5"/>
<text text-anchor="middle" x="179" y="-186.5" font-family="Helvetica,sans-Serif" font-size="10.00">StringRepresentation</text>
</a>
</g>
</g>
<!-- Node3&#45;&gt;Node2 -->
<g id="edge2" class="edge">
<title>Node3&#45;&gt;Node2</title>
<path fill="none" stroke="midnightblue" d="M179,-168.8C179,-159.91 179,-149.78 179,-142.75"/>
<polygon fill="midnightblue" stroke="midnightblue" points="175.5,-169.08 179,-179.08 182.5,-169.08 175.5,-169.08"/>
</g>
</g>
</svg>
