<?xml version="1.0" encoding="UTF-8" standalone="no"?>
<!DOCTYPE svg PUBLIC "-//W3C//DTD SVG 1.1//EN"
 "http://www.w3.org/Graphics/SVG/1.1/DTD/svg11.dtd">
<!-- Generated by graphviz version 2.43.0 (0)
 -->
<!-- Title: QuantConnect.Messages.TrailingStopOrder.TrailingAmount Pages: 1 -->
<svg width="574pt" height="88pt"
 viewBox="0.00 0.00 574.00 88.00" xmlns="http://www.w3.org/2000/svg" xmlns:xlink="http://www.w3.org/1999/xlink">
<g id="graph0" class="graph" transform="scale(1 1) rotate(0) translate(4 84)">
<title>QuantConnect.Messages.TrailingStopOrder.TrailingAmount</title>
<polygon fill="white" stroke="transparent" points="-4,4 -4,-84 570,-84 570,4 -4,4"/>
<!-- Node1 -->
<g id="node1" class="node">
<title>Node1</title>
<g id="a_node1"><a xlink:title="Returns a TrailingAmount string representation for the given TrailingStopOrder">
<polygon fill="#bfbfbf" stroke="black" points="390,-24.5 390,-54.5 566,-54.5 566,-24.5 390,-24.5"/>
<text text-anchor="start" x="398" y="-42.5" font-family="Helvetica,sans-Serif" font-size="10.00">QuantConnect.Messages.Trailing</text>
<text text-anchor="middle" x="478" y="-31.5" font-family="Helvetica,sans-Serif" font-size="10.00">StopOrder.TrailingAmount</text>
</a>
</g>
</g>
<!-- Node2 -->
<g id="node2" class="node">
<title>Node2</title>
<g id="a_node2"><a xlink:href="classQuantConnect_1_1Messages_1_1OrderEvent.html#a7dba5af6f586a90efa4b0d60acbbc5f4" target="_top" xlink:title="Parses the given order event into a string message which summarizes the basic information about it">
<polygon fill="white" stroke="black" points="187,-49.5 187,-79.5 354,-79.5 354,-49.5 187,-49.5"/>
<text text-anchor="start" x="195" y="-67.5" font-family="Helvetica,sans-Serif" font-size="10.00">QuantConnect.Messages.Order</text>
<text text-anchor="middle" x="270.5" y="-56.5" font-family="Helvetica,sans-Serif" font-size="10.00">Event.ShortToString</text>
</a>
</g>
</g>
<!-- Node1&#45;&gt;Node2 -->
<g id="edge1" class="edge">
<title>Node1&#45;&gt;Node2</title>
<path fill="none" stroke="midnightblue" d="M379.83,-51.32C371.26,-52.36 362.64,-53.41 354.21,-54.44"/>
<polygon fill="midnightblue" stroke="midnightblue" points="380.35,-54.78 389.85,-50.1 379.5,-47.84 380.35,-54.78"/>
</g>
<!-- Node4 -->
<g id="node4" class="node">
<title>Node4</title>
<g id="a_node4"><a xlink:href="classQuantConnect_1_1Messages_1_1OrderEvent.html#adf2f5d2b6f2cf4db7284f0bc13a470f6" target="_top" xlink:title="Parses the given order event into a string message containing basic information about it">
<polygon fill="white" stroke="black" points="187,-0.5 187,-30.5 354,-30.5 354,-0.5 187,-0.5"/>
<text text-anchor="start" x="195" y="-18.5" font-family="Helvetica,sans-Serif" font-size="10.00">QuantConnect.Messages.Order</text>
<text text-anchor="middle" x="270.5" y="-7.5" font-family="Helvetica,sans-Serif" font-size="10.00">Event.ToString</text>
</a>
</g>
</g>
<!-- Node1&#45;&gt;Node4 -->
<g id="edge3" class="edge">
<title>Node1&#45;&gt;Node4</title>
<path fill="none" stroke="midnightblue" d="M379.83,-28.15C371.26,-27.15 362.64,-26.14 354.21,-25.16"/>
<polygon fill="midnightblue" stroke="midnightblue" points="379.51,-31.64 389.85,-29.32 380.32,-24.69 379.51,-31.64"/>
</g>
<!-- Node3 -->
<g id="node3" class="node">
<title>Node3</title>
<g id="a_node3"><a xlink:href="classQuantConnect_1_1Orders_1_1OrderEvent.html#a5e1d456251e1463c2940ef39741f83eb" target="_top" xlink:title="Returns a short string that represents the current object.">
<polygon fill="white" stroke="black" points="0,-49.5 0,-79.5 151,-79.5 151,-49.5 0,-49.5"/>
<text text-anchor="start" x="8" y="-67.5" font-family="Helvetica,sans-Serif" font-size="10.00">QuantConnect.Orders.Order</text>
<text text-anchor="middle" x="75.5" y="-56.5" font-family="Helvetica,sans-Serif" font-size="10.00">Event.ShortToString</text>
</a>
</g>
</g>
<!-- Node2&#45;&gt;Node3 -->
<g id="edge2" class="edge">
<title>Node2&#45;&gt;Node3</title>
<path fill="none" stroke="midnightblue" d="M176.75,-64.5C168.14,-64.5 159.5,-64.5 151.09,-64.5"/>
<polygon fill="midnightblue" stroke="midnightblue" points="176.81,-68 186.81,-64.5 176.81,-61 176.81,-68"/>
</g>
<!-- Node5 -->
<g id="node5" class="node">
<title>Node5</title>
<g id="a_node5"><a xlink:href="classQuantConnect_1_1Orders_1_1OrderEvent.html#a1b496c436eb7de7bb499b8e53c71555f" target="_top" xlink:title="Returns a string that represents the current object.">
<polygon fill="white" stroke="black" points="0,-0.5 0,-30.5 151,-30.5 151,-0.5 0,-0.5"/>
<text text-anchor="start" x="8" y="-18.5" font-family="Helvetica,sans-Serif" font-size="10.00">QuantConnect.Orders.Order</text>
<text text-anchor="middle" x="75.5" y="-7.5" font-family="Helvetica,sans-Serif" font-size="10.00">Event.ToString</text>
</a>
</g>
</g>
<!-- Node4&#45;&gt;Node5 -->
<g id="edge4" class="edge">
<title>Node4&#45;&gt;Node5</title>
<path fill="none" stroke="midnightblue" d="M176.75,-15.5C168.14,-15.5 159.5,-15.5 151.09,-15.5"/>
<polygon fill="midnightblue" stroke="midnightblue" points="176.81,-19 186.81,-15.5 176.81,-12 176.81,-19"/>
</g>
</g>
</svg>
