<?xml version="1.0" encoding="UTF-8" standalone="no"?>
<!DOCTYPE svg PUBLIC "-//W3C//DTD SVG 1.1//EN"
 "http://www.w3.org/Graphics/SVG/1.1/DTD/svg11.dtd">
<!-- Generated by graphviz version 2.43.0 (0)
 -->
<!-- Title: QuantConnect.Messages.DefaultBrokerageModel.UnsupportedCrossZeroOrderUpdate Pages: 1 -->
<svg width="434pt" height="50pt"
 viewBox="0.00 0.00 434.00 50.00" xmlns="http://www.w3.org/2000/svg" xmlns:xlink="http://www.w3.org/1999/xlink">
<g id="graph0" class="graph" transform="scale(1 1) rotate(0) translate(4 46)">
<title>QuantConnect.Messages.DefaultBrokerageModel.UnsupportedCrossZeroOrderUpdate</title>
<polygon fill="white" stroke="transparent" points="-4,4 -4,-46 430,-46 430,4 -4,4"/>
<!-- Node1 -->
<g id="node1" class="node">
<title>Node1</title>
<g id="a_node1"><a xlink:title="Returns a string message saying the given brokerage does not support updating the quantity of Cross Z...">
<polygon fill="#bfbfbf" stroke="black" points="215,-0.5 215,-41.5 426,-41.5 426,-0.5 215,-0.5"/>
<text text-anchor="start" x="223" y="-29.5" font-family="Helvetica,sans-Serif" font-size="10.00">QuantConnect.Messages.Default</text>
<text text-anchor="start" x="223" y="-18.5" font-family="Helvetica,sans-Serif" font-size="10.00">BrokerageModel.UnsupportedCrossZero</text>
<text text-anchor="middle" x="320.5" y="-7.5" font-family="Helvetica,sans-Serif" font-size="10.00">OrderUpdate</text>
</a>
</g>
</g>
<!-- Node2 -->
<g id="node2" class="node">
<title>Node2</title>
<g id="a_node2"><a xlink:href="classQuantConnect_1_1Brokerages_1_1TradeStationBrokerageModel.html#ab4dfad57980a081874ef6451e29b4453" target="_top" xlink:title="TradeStation support Update Order">
<polygon fill="white" stroke="black" points="0,-0.5 0,-41.5 179,-41.5 179,-0.5 0,-0.5"/>
<text text-anchor="start" x="8" y="-29.5" font-family="Helvetica,sans-Serif" font-size="10.00">QuantConnect.Brokerages.</text>
<text text-anchor="start" x="8" y="-18.5" font-family="Helvetica,sans-Serif" font-size="10.00">TradeStationBrokerageModel.Can</text>
<text text-anchor="middle" x="89.5" y="-7.5" font-family="Helvetica,sans-Serif" font-size="10.00">UpdateOrder</text>
</a>
</g>
</g>
<!-- Node1&#45;&gt;Node2 -->
<g id="edge1" class="edge">
<title>Node1&#45;&gt;Node2</title>
<path fill="none" stroke="midnightblue" d="M204.66,-21C196.08,-21 187.51,-21 179.13,-21"/>
<polygon fill="midnightblue" stroke="midnightblue" points="204.72,-24.5 214.72,-21 204.72,-17.5 204.72,-24.5"/>
</g>
</g>
</svg>
