<?xml version="1.0" encoding="UTF-8" standalone="no"?>
<!DOCTYPE svg PUBLIC "-//W3C//DTD SVG 1.1//EN"
 "http://www.w3.org/Graphics/SVG/1.1/DTD/svg11.dtd">
<!-- Generated by graphviz version 2.43.0 (0)
 -->
<!-- Title: QuantConnect.Python.RiskFreeInterestRateModelPythonWrapper Pages: 1 -->
<svg width="344pt" height="106pt"
 viewBox="0.00 0.00 344.00 106.00" xmlns="http://www.w3.org/2000/svg" xmlns:xlink="http://www.w3.org/1999/xlink">
<g id="graph0" class="graph" transform="scale(1 1) rotate(0) translate(4 102)">
<title>QuantConnect.Python.RiskFreeInterestRateModelPythonWrapper</title>
<polygon fill="white" stroke="transparent" points="-4,4 -4,-102 340,-102 340,4 -4,4"/>
<!-- Node1 -->
<g id="node1" class="node">
<title>Node1</title>
<g id="a_node1"><a xlink:title="Wraps a PyObject object that represents a risk&#45;free interest rate model">
<polygon fill="#bfbfbf" stroke="black" points="69.5,-0.5 69.5,-30.5 272.5,-30.5 272.5,-0.5 69.5,-0.5"/>
<text text-anchor="start" x="77.5" y="-18.5" font-family="Helvetica,sans-Serif" font-size="10.00">QuantConnect.Python.Risk</text>
<text text-anchor="middle" x="171" y="-7.5" font-family="Helvetica,sans-Serif" font-size="10.00">FreeInterestRateModelPythonWrapper</text>
</a>
</g>
</g>
<!-- Node2 -->
<g id="node2" class="node">
<title>Node2</title>
<g id="a_node2"><a xlink:href="classQuantConnect_1_1Python_1_1BasePythonWrapper.html" target="_top" xlink:title=" ">
<polygon fill="white" stroke="black" points="0,-67.5 0,-97.5 166,-97.5 166,-67.5 0,-67.5"/>
<text text-anchor="start" x="8" y="-85.5" font-family="Helvetica,sans-Serif" font-size="10.00">BasePythonWrapper&lt;</text>
<text text-anchor="middle" x="83" y="-74.5" font-family="Helvetica,sans-Serif" font-size="10.00"> IRiskFreeInterestRateModel &gt;</text>
</a>
</g>
</g>
<!-- Node2&#45;&gt;Node1 -->
<g id="edge1" class="edge">
<title>Node2&#45;&gt;Node1</title>
<path fill="none" stroke="midnightblue" d="M110.14,-61.45C123.68,-51.45 139.73,-39.6 151.94,-30.58"/>
<polygon fill="midnightblue" stroke="midnightblue" points="108.06,-58.64 102.09,-67.4 112.22,-64.27 108.06,-58.64"/>
</g>
<!-- Node3 -->
<g id="node3" class="node">
<title>Node3</title>
<g id="a_node3"><a xlink:href="interfaceQuantConnect_1_1Data_1_1IRiskFreeInterestRateModel.html" target="_top" xlink:title="Represents a model that provides risk free interest rate data">
<polygon fill="white" stroke="black" points="184,-73 184,-92 336,-92 336,-73 184,-73"/>
<text text-anchor="middle" x="260" y="-80" font-family="Helvetica,sans-Serif" font-size="10.00">IRiskFreeInterestRateModel</text>
</a>
</g>
</g>
<!-- Node3&#45;&gt;Node1 -->
<g id="edge2" class="edge">
<title>Node3&#45;&gt;Node1</title>
<path fill="none" stroke="midnightblue" d="M239.52,-66.54C224.71,-55.73 204.82,-41.2 190.29,-30.59"/>
<polygon fill="midnightblue" stroke="midnightblue" points="237.86,-69.66 248,-72.73 241.99,-64.01 237.86,-69.66"/>
</g>
</g>
</svg>
