<?xml version="1.0" encoding="UTF-8" standalone="no"?>
<!DOCTYPE svg PUBLIC "-//W3C//DTD SVG 1.1//EN"
 "http://www.w3.org/Graphics/SVG/1.1/DTD/svg11.dtd">
<!-- Generated by graphviz version 2.43.0 (0)
 -->
<!-- Title: QuantConnect.Securities.FuncSecuritySeeder.SeedSecurity Pages: 1 -->
<svg width="821pt" height="323pt"
 viewBox="0.00 0.00 821.00 323.00" xmlns="http://www.w3.org/2000/svg" xmlns:xlink="http://www.w3.org/1999/xlink">
<g id="graph0" class="graph" transform="scale(1 1) rotate(0) translate(4 319)">
<title>QuantConnect.Securities.FuncSecuritySeeder.SeedSecurity</title>
<polygon fill="white" stroke="transparent" points="-4,4 -4,-319 817,-319 817,4 -4,4"/>
<!-- Node1 -->
<g id="node1" class="node">
<title>Node1</title>
<g id="a_node1"><a xlink:title="Seed the security">
<polygon fill="#bfbfbf" stroke="black" points="0,-147.5 0,-177.5 179,-177.5 179,-147.5 0,-147.5"/>
<text text-anchor="start" x="8" y="-165.5" font-family="Helvetica,sans-Serif" font-size="10.00">QuantConnect.Securities.</text>
<text text-anchor="middle" x="89.5" y="-154.5" font-family="Helvetica,sans-Serif" font-size="10.00">FuncSecuritySeeder.SeedSecurity</text>
</a>
</g>
</g>
<!-- Node2 -->
<g id="node2" class="node">
<title>Node2</title>
<g id="a_node2"><a xlink:href="classQuantConnect_1_1Logging_1_1Log.html#ad908daef9d61532d7d60c9dcfb9a3e0c" target="_top" xlink:title="Output to the console">
<polygon fill="white" stroke="black" points="240.5,-284.5 240.5,-314.5 390.5,-314.5 390.5,-284.5 240.5,-284.5"/>
<text text-anchor="start" x="248.5" y="-302.5" font-family="Helvetica,sans-Serif" font-size="10.00">QuantConnect.Logging.Log.</text>
<text text-anchor="middle" x="315.5" y="-291.5" font-family="Helvetica,sans-Serif" font-size="10.00">Debug</text>
</a>
</g>
</g>
<!-- Node1&#45;&gt;Node2 -->
<g id="edge1" class="edge">
<title>Node1&#45;&gt;Node2</title>
<path fill="none" stroke="midnightblue" d="M102.96,-177.73C123.65,-201.99 167.53,-249.22 215,-274.5 220.09,-277.21 225.48,-279.63 231.01,-281.8"/>
<polygon fill="midnightblue" stroke="midnightblue" points="229.84,-285.1 240.44,-285.21 232.22,-278.52 229.84,-285.1"/>
</g>
<!-- Node4 -->
<g id="node4" class="node">
<title>Node4</title>
<g id="a_node4"><a xlink:href="classQuantConnect_1_1Symbol.html#a1f3c25223fd9a7b753a4f84ece6469ab" target="_top" xlink:title="Method returns true, if symbol is a derivative canonical symbol">
<polygon fill="white" stroke="black" points="223,-246 223,-265 408,-265 408,-246 223,-246"/>
<text text-anchor="middle" x="315.5" y="-253" font-family="Helvetica,sans-Serif" font-size="10.00">QuantConnect.Symbol.IsCanonical</text>
</a>
</g>
</g>
<!-- Node1&#45;&gt;Node4 -->
<g id="edge3" class="edge">
<title>Node1&#45;&gt;Node4</title>
<path fill="none" stroke="midnightblue" d="M110.94,-177.71C134.72,-194.66 175.74,-221.61 215,-236.5 222.17,-239.22 229.78,-241.56 237.48,-243.58"/>
<polygon fill="midnightblue" stroke="midnightblue" points="236.7,-246.99 247.25,-245.96 238.36,-240.19 236.7,-246.99"/>
</g>
<!-- Node5 -->
<g id="node5" class="node">
<title>Node5</title>
<g id="a_node5"><a xlink:href="classQuantConnect_1_1Messages_1_1FuncSecuritySeeder.html#aae27508d5e64624172ac4f9b2d35dac4" target="_top" xlink:title="Returns a string message with basic information about the given BaseData object">
<polygon fill="white" stroke="black" points="222,-196.5 222,-226.5 409,-226.5 409,-196.5 222,-196.5"/>
<text text-anchor="start" x="230" y="-214.5" font-family="Helvetica,sans-Serif" font-size="10.00">QuantConnect.Messages.Func</text>
<text text-anchor="middle" x="315.5" y="-203.5" font-family="Helvetica,sans-Serif" font-size="10.00">SecuritySeeder.SeededSecurityInfo</text>
</a>
</g>
</g>
<!-- Node1&#45;&gt;Node5 -->
<g id="edge4" class="edge">
<title>Node1&#45;&gt;Node5</title>
<path fill="none" stroke="midnightblue" d="M159.23,-177.53C183.53,-182.85 211.03,-188.87 236.07,-194.34"/>
<polygon fill="midnightblue" stroke="midnightblue" points="235.38,-197.78 245.9,-196.49 236.88,-190.94 235.38,-197.78"/>
</g>
<!-- Node6 -->
<g id="node6" class="node">
<title>Node6</title>
<g id="a_node6"><a xlink:href="classQuantConnect_1_1Securities_1_1Security.html#adaeacf247e436705df3ce4a3244ee073" target="_top" xlink:title="Update any security properties based on the latest market data and time">
<polygon fill="white" stroke="black" points="245.5,-147.5 245.5,-177.5 385.5,-177.5 385.5,-147.5 245.5,-147.5"/>
<text text-anchor="start" x="253.5" y="-165.5" font-family="Helvetica,sans-Serif" font-size="10.00">QuantConnect.Securities.</text>
<text text-anchor="middle" x="315.5" y="-154.5" font-family="Helvetica,sans-Serif" font-size="10.00">Security.SetMarketPrice</text>
</a>
</g>
</g>
<!-- Node1&#45;&gt;Node6 -->
<g id="edge5" class="edge">
<title>Node1&#45;&gt;Node6</title>
<path fill="none" stroke="midnightblue" d="M179.03,-162.5C197.52,-162.5 216.9,-162.5 235.03,-162.5"/>
<polygon fill="midnightblue" stroke="midnightblue" points="235.25,-166 245.25,-162.5 235.25,-159 235.25,-166"/>
</g>
<!-- Node9 -->
<g id="node9" class="node">
<title>Node9</title>
<g id="a_node9"><a xlink:href="classQuantConnect_1_1Logging_1_1Log.html#a4e55477fbc790846b74550a57198cea9" target="_top" xlink:title="Log trace">
<polygon fill="white" stroke="black" points="240.5,-98.5 240.5,-128.5 390.5,-128.5 390.5,-98.5 240.5,-98.5"/>
<text text-anchor="start" x="248.5" y="-116.5" font-family="Helvetica,sans-Serif" font-size="10.00">QuantConnect.Logging.Log.</text>
<text text-anchor="middle" x="315.5" y="-105.5" font-family="Helvetica,sans-Serif" font-size="10.00">Trace</text>
</a>
</g>
</g>
<!-- Node1&#45;&gt;Node9 -->
<g id="edge8" class="edge">
<title>Node1&#45;&gt;Node9</title>
<path fill="none" stroke="midnightblue" d="M159.23,-147.47C183.53,-142.15 211.03,-136.13 236.07,-130.66"/>
<polygon fill="midnightblue" stroke="midnightblue" points="236.88,-134.06 245.9,-128.51 235.38,-127.22 236.88,-134.06"/>
</g>
<!-- Node11 -->
<g id="node11" class="node">
<title>Node11</title>
<g id="a_node11"><a xlink:href="classQuantConnect_1_1Messages_1_1FuncSecuritySeeder.html#a4379eb0dc64361e9d385f5d5ea52465a" target="_top" xlink:title="Returns a string message saying it was impossible to seed price for the given security">
<polygon fill="white" stroke="black" points="215,-49.5 215,-79.5 416,-79.5 416,-49.5 215,-49.5"/>
<text text-anchor="start" x="223" y="-67.5" font-family="Helvetica,sans-Serif" font-size="10.00">QuantConnect.Messages.Func</text>
<text text-anchor="middle" x="315.5" y="-56.5" font-family="Helvetica,sans-Serif" font-size="10.00">SecuritySeeder.UnableToSecurityPrice</text>
</a>
</g>
</g>
<!-- Node1&#45;&gt;Node11 -->
<g id="edge10" class="edge">
<title>Node1&#45;&gt;Node11</title>
<path fill="none" stroke="midnightblue" d="M111.51,-147.33C135.47,-130.68 176.34,-104.23 215,-88.5 220.32,-86.33 225.89,-84.33 231.56,-82.49"/>
<polygon fill="midnightblue" stroke="midnightblue" points="232.63,-85.82 241.16,-79.53 230.57,-79.13 232.63,-85.82"/>
</g>
<!-- Node12 -->
<g id="node12" class="node">
<title>Node12</title>
<g id="a_node12"><a xlink:href="classQuantConnect_1_1Messages_1_1FuncSecuritySeeder.html#a711ad8d4191958b63922e0e497983f22" target="_top" xlink:title="Returns a string message saying it was impossible to seed the given security">
<polygon fill="white" stroke="black" points="215,-0.5 215,-30.5 416,-30.5 416,-0.5 215,-0.5"/>
<text text-anchor="start" x="223" y="-18.5" font-family="Helvetica,sans-Serif" font-size="10.00">QuantConnect.Messages.Func</text>
<text text-anchor="middle" x="315.5" y="-7.5" font-family="Helvetica,sans-Serif" font-size="10.00">SecuritySeeder.UnableToSeedSecurity</text>
</a>
</g>
</g>
<!-- Node1&#45;&gt;Node12 -->
<g id="edge11" class="edge">
<title>Node1&#45;&gt;Node12</title>
<path fill="none" stroke="midnightblue" d="M101.31,-147.37C120.88,-121.16 164.83,-67.43 215,-39.5 218.3,-37.66 221.74,-35.97 225.27,-34.4"/>
<polygon fill="midnightblue" stroke="midnightblue" points="226.84,-37.54 234.79,-30.54 224.21,-31.05 226.84,-37.54"/>
</g>
<!-- Node3 -->
<g id="node3" class="node">
<title>Node3</title>
<g id="a_node3"><a xlink:href="interfaceQuantConnect_1_1Logging_1_1ILogHandler.html#a2c738b8e78dd5b54244bc68b969ba91d" target="_top" xlink:title="Write debug message to log">
<polygon fill="white" stroke="black" points="452,-284.5 452,-314.5 602,-314.5 602,-284.5 452,-284.5"/>
<text text-anchor="start" x="460" y="-302.5" font-family="Helvetica,sans-Serif" font-size="10.00">QuantConnect.Logging.ILog</text>
<text text-anchor="middle" x="527" y="-291.5" font-family="Helvetica,sans-Serif" font-size="10.00">Handler.Debug</text>
</a>
</g>
</g>
<!-- Node2&#45;&gt;Node3 -->
<g id="edge2" class="edge">
<title>Node2&#45;&gt;Node3</title>
<path fill="none" stroke="midnightblue" d="M390.66,-299.5C407.13,-299.5 424.71,-299.5 441.56,-299.5"/>
<polygon fill="midnightblue" stroke="midnightblue" points="441.94,-303 451.94,-299.5 441.94,-296 441.94,-303"/>
</g>
<!-- Node7 -->
<g id="node7" class="node">
<title>Node7</title>
<g id="a_node7"><a xlink:href="classQuantConnect_1_1Securities_1_1SecurityCache.html#a306a1a4267b478aae7ddcbea69a16dcb" target="_top" xlink:title="Add a new market data point to the local security cache for the current market price....">
<polygon fill="white" stroke="black" points="457,-147.5 457,-177.5 597,-177.5 597,-147.5 457,-147.5"/>
<text text-anchor="start" x="465" y="-165.5" font-family="Helvetica,sans-Serif" font-size="10.00">QuantConnect.Securities.</text>
<text text-anchor="middle" x="527" y="-154.5" font-family="Helvetica,sans-Serif" font-size="10.00">SecurityCache.AddData</text>
</a>
</g>
</g>
<!-- Node6&#45;&gt;Node7 -->
<g id="edge6" class="edge">
<title>Node6&#45;&gt;Node7</title>
<path fill="none" stroke="midnightblue" d="M385.68,-162.5C405.25,-162.5 426.71,-162.5 446.83,-162.5"/>
<polygon fill="midnightblue" stroke="midnightblue" points="446.89,-166 456.89,-162.5 446.89,-159 446.89,-166"/>
</g>
<!-- Node8 -->
<g id="node8" class="node">
<title>Node8</title>
<g id="a_node8"><a xlink:href="classQuantConnect_1_1Securities_1_1SecurityCache.html#a50f2c7ac45a816c462ec67e944a6100e" target="_top" xlink:title="Will consume the given data point updating the cache state and it&#39;s properties">
<polygon fill="white" stroke="black" points="638,-147.5 638,-177.5 813,-177.5 813,-147.5 638,-147.5"/>
<text text-anchor="start" x="646" y="-165.5" font-family="Helvetica,sans-Serif" font-size="10.00">QuantConnect.Securities.</text>
<text text-anchor="middle" x="725.5" y="-154.5" font-family="Helvetica,sans-Serif" font-size="10.00">SecurityCache.ProcessDataPoint</text>
</a>
</g>
</g>
<!-- Node7&#45;&gt;Node8 -->
<g id="edge7" class="edge">
<title>Node7&#45;&gt;Node8</title>
<path fill="none" stroke="midnightblue" d="M597,-162.5C606.87,-162.5 617.17,-162.5 627.46,-162.5"/>
<polygon fill="midnightblue" stroke="midnightblue" points="627.72,-166 637.72,-162.5 627.72,-159 627.72,-166"/>
</g>
<!-- Node10 -->
<g id="node10" class="node">
<title>Node10</title>
<g id="a_node10"><a xlink:href="interfaceQuantConnect_1_1Logging_1_1ILogHandler.html#a3fb71a33ac66129240b63f12b6fcda3b" target="_top" xlink:title="Write debug message to log">
<polygon fill="white" stroke="black" points="452,-98.5 452,-128.5 602,-128.5 602,-98.5 452,-98.5"/>
<text text-anchor="start" x="460" y="-116.5" font-family="Helvetica,sans-Serif" font-size="10.00">QuantConnect.Logging.ILog</text>
<text text-anchor="middle" x="527" y="-105.5" font-family="Helvetica,sans-Serif" font-size="10.00">Handler.Trace</text>
</a>
</g>
</g>
<!-- Node9&#45;&gt;Node10 -->
<g id="edge9" class="edge">
<title>Node9&#45;&gt;Node10</title>
<path fill="none" stroke="midnightblue" d="M390.66,-113.5C407.13,-113.5 424.71,-113.5 441.56,-113.5"/>
<polygon fill="midnightblue" stroke="midnightblue" points="441.94,-117 451.94,-113.5 441.94,-110 441.94,-117"/>
</g>
</g>
</svg>
