<?xml version="1.0" encoding="UTF-8" standalone="no"?>
<!DOCTYPE svg PUBLIC "-//W3C//DTD SVG 1.1//EN"
 "http://www.w3.org/Graphics/SVG/1.1/DTD/svg11.dtd">
<!-- Generated by graphviz version 2.43.0 (0)
 -->
<!-- Title: QuantConnect.Lean.Engine.Setup.BrokerageSetupHandler.Setup Pages: 1 -->
<!--zoomable 413 -->
<svg id="main" version="1.1" xmlns="http://www.w3.org/2000/svg" xmlns:xlink="http://www.w3.org/1999/xlink" xml:space="preserve" onload="init(evt)">
<style type="text/css"><![CDATA[
.edge:hover path { stroke: red; }
.edge:hover polygon { stroke: red; fill: red; }
]]></style>
<script type="text/javascript"><![CDATA[
var edges = document.getElementsByTagName('g');
if (edges && edges.length) {
  for (var i=0;i<edges.length;i++) {
    if (edges[i].id.substr(0,4)=='edge') {
      edges[i].setAttribute('class','edge');
    }
  }
}
]]></script>
        <defs>
                <circle id="rim" cx="0" cy="0" r="7"/>
                <circle id="rim2" cx="0" cy="0" r="3.5"/>
                <g id="zoomPlus">
                        <use xlink:href="#rim" fill="#404040">
                                <set attributeName="fill" to="#808080" begin="zoomplus.mouseover" end="zoomplus.mouseout"/>
                        </use>
                        <path d="M-4,0h8M0,-4v8" fill="none" stroke="white" stroke-width="1.5" pointer-events="none"/>
                </g>
                <g id="zoomMin">
                        <use xlink:href="#rim" fill="#404040">
                                <set attributeName="fill" to="#808080" begin="zoomminus.mouseover" end="zoomminus.mouseout"/>
                        </use>
                        <path d="M-4,0h8" fill="none" stroke="white" stroke-width="1.5" pointer-events="none"/>
                </g>
                <g id="dirArrow">
                        <path fill="none" stroke="white" stroke-width="1.5" d="M0,-3.0v7 M-2.5,-0.5L0,-3.0L2.5,-0.5"/>
                </g>
               <g id="resetDef">
                       <use xlink:href="#rim2" fill="#404040">
                               <set attributeName="fill" to="#808080" begin="reset.mouseover" end="reset.mouseout"/>
                       </use>
               </g>
        </defs>

<script type="text/javascript">
var viewWidth = 1427;
var viewHeight = 413;
var sectionId = 'dynsection-3';
</script>
<script xlink:href="svgpan.js"/>
<svg id="graph" class="graph">
<g id="viewport">
<title>QuantConnect.Lean.Engine.Setup.BrokerageSetupHandler.Setup</title>
<polygon fill="white" stroke="transparent" points="-4,4 -4,-409.35 1423,-409.35 1423,4 -4,4"/>
<!-- Node1 -->
<g id="node1" class="node">
<title>Node1</title>
<g id="a_node1"><a xlink:title="Primary entry point to setup a new algorithm">
<polygon fill="#bfbfbf" stroke="black" points="0,-200 0,-230 193,-230 193,-200 0,-200"/>
<text text-anchor="start" x="8" y="-218" font-family="Helvetica,sans-Serif" font-size="10.00">QuantConnect.Lean.Engine.</text>
<text text-anchor="middle" x="96.5" y="-207" font-family="Helvetica,sans-Serif" font-size="10.00">Setup.BrokerageSetupHandler.Setup</text>
</a>
</g>
</g>
<!-- Node2 -->
<g id="node2" class="node">
<title>Node2</title>
<g id="a_node2"><a xlink:href="classQuantConnect_1_1Logging_1_1Log.html#af0e7955911bc7664b37661b2a303a9e3" target="_top" xlink:title="Log error">
<polygon fill="white" stroke="black" points="499,-373 499,-403 649,-403 649,-373 499,-373"/>
<text text-anchor="start" x="507" y="-391" font-family="Helvetica,sans-Serif" font-size="10.00">QuantConnect.Logging.Log.</text>
<text text-anchor="middle" x="574" y="-380" font-family="Helvetica,sans-Serif" font-size="10.00">Error</text>
</a>
</g>
</g>
<!-- Node1&#45;&gt;Node2 -->
<g id="edge1" class="edge">
<title>Node1&#45;&gt;Node2</title>
<path fill="none" stroke="midnightblue" d="M105.08,-230.38C122.07,-262.88 166.61,-338.12 229,-369 310.4,-409.29 416.28,-408.47 488.95,-401.13"/>
<polygon fill="midnightblue" stroke="midnightblue" points="489.4,-404.6 498.97,-400.05 488.66,-397.64 489.4,-404.6"/>
</g>
<!-- Node4 -->
<g id="node4" class="node">
<title>Node4</title>
<g id="a_node4"><a xlink:href="interfaceQuantConnect_1_1Data_1_1IDataAggregator.html#a8f4955272deb4dbdcc5b9ed0d1b7697f" target="_top" xlink:title="Initialize this instance">
<polygon fill="white" stroke="black" points="236,-329 236,-359 433,-359 433,-329 236,-329"/>
<text text-anchor="start" x="244" y="-347" font-family="Helvetica,sans-Serif" font-size="10.00">QuantConnect.Data.IDataAggregator.</text>
<text text-anchor="middle" x="334.5" y="-336" font-family="Helvetica,sans-Serif" font-size="10.00">Initialize</text>
</a>
</g>
</g>
<!-- Node1&#45;&gt;Node4 -->
<g id="edge3" class="edge">
<title>Node1&#45;&gt;Node4</title>
<path fill="none" stroke="midnightblue" d="M112.17,-230.25C134.99,-253.06 181.35,-295.86 229,-319 233.98,-321.42 239.21,-323.61 244.57,-325.6"/>
<polygon fill="midnightblue" stroke="midnightblue" points="243.73,-329.01 254.32,-328.96 246.01,-322.39 243.73,-329.01"/>
</g>
<!-- Node5 -->
<g id="node5" class="node">
<title>Node5</title>
<g id="a_node5"><a xlink:href="classQuantConnect_1_1Lean_1_1Engine_1_1Setup_1_1BrokerageSetupHandler.html#abcd444fc0f3eca0af0470d9f963a5efd" target="_top" xlink:title="Loads existing holdings and orders">
<polygon fill="white" stroke="black" points="240.5,-268.5 240.5,-309.5 428.5,-309.5 428.5,-268.5 240.5,-268.5"/>
<text text-anchor="start" x="248.5" y="-297.5" font-family="Helvetica,sans-Serif" font-size="10.00">QuantConnect.Lean.Engine.</text>
<text text-anchor="start" x="248.5" y="-286.5" font-family="Helvetica,sans-Serif" font-size="10.00">Setup.BrokerageSetupHandler.Load</text>
<text text-anchor="middle" x="334.5" y="-275.5" font-family="Helvetica,sans-Serif" font-size="10.00">ExistingHoldingsAndOrders</text>
</a>
</g>
</g>
<!-- Node1&#45;&gt;Node5 -->
<g id="edge4" class="edge">
<title>Node1&#45;&gt;Node5</title>
<path fill="none" stroke="midnightblue" d="M145.54,-230.06C177.96,-240.23 221.39,-253.85 258.34,-265.43"/>
<polygon fill="midnightblue" stroke="midnightblue" points="257.49,-268.83 268.08,-268.49 259.59,-262.16 257.49,-268.83"/>
</g>
<!-- Node16 -->
<g id="node16" class="node">
<title>Node16</title>
<g id="a_node16"><a xlink:href="classQuantConnect_1_1Logging_1_1Log.html#a4e55477fbc790846b74550a57198cea9" target="_top" xlink:title="Log trace">
<polygon fill="white" stroke="black" points="499,-75 499,-105 649,-105 649,-75 499,-75"/>
<text text-anchor="start" x="507" y="-93" font-family="Helvetica,sans-Serif" font-size="10.00">QuantConnect.Logging.Log.</text>
<text text-anchor="middle" x="574" y="-82" font-family="Helvetica,sans-Serif" font-size="10.00">Trace</text>
</a>
</g>
</g>
<!-- Node1&#45;&gt;Node16 -->
<g id="edge25" class="edge">
<title>Node1&#45;&gt;Node16</title>
<path fill="none" stroke="midnightblue" d="M139.83,-230.09C209.23,-251.93 348.64,-283.36 440,-221 476.27,-196.25 445.1,-160.19 476,-129 484.05,-120.87 494.02,-114.38 504.47,-109.22"/>
<polygon fill="midnightblue" stroke="midnightblue" points="506.09,-112.33 513.75,-105.01 503.19,-105.95 506.09,-112.33"/>
</g>
<!-- Node18 -->
<g id="node18" class="node">
<title>Node18</title>
<g id="a_node18"><a xlink:href="interfaceQuantConnect_1_1Lean_1_1Engine_1_1Results_1_1IResultHandler.html#a57b3b4272b885797bd27c104976b90a6" target="_top" xlink:title="Send a algorithm status update to the user of the algorithms running state.">
<polygon fill="white" stroke="black" points="242,-170.5 242,-211.5 427,-211.5 427,-170.5 242,-170.5"/>
<text text-anchor="start" x="250" y="-199.5" font-family="Helvetica,sans-Serif" font-size="10.00">QuantConnect.Lean.Engine.</text>
<text text-anchor="start" x="250" y="-188.5" font-family="Helvetica,sans-Serif" font-size="10.00">Results.IResultHandler.SendStatus</text>
<text text-anchor="middle" x="334.5" y="-177.5" font-family="Helvetica,sans-Serif" font-size="10.00">Update</text>
</a>
</g>
</g>
<!-- Node1&#45;&gt;Node18 -->
<g id="edge18" class="edge">
<title>Node1&#45;&gt;Node18</title>
<path fill="none" stroke="midnightblue" d="M193.15,-205.27C205.85,-203.98 218.92,-202.65 231.72,-201.35"/>
<polygon fill="midnightblue" stroke="midnightblue" points="232.32,-204.81 241.92,-200.31 231.61,-197.84 232.32,-204.81"/>
</g>
<!-- Node19 -->
<g id="node19" class="node">
<title>Node19</title>
<g id="a_node19"><a xlink:href="classQuantConnect_1_1Lean_1_1Engine_1_1Setup_1_1BaseSetupHandler.html#a700f98e4cf6add8654078dc4f304afd0" target="_top" xlink:title="Set the number of trading days per year based on the specified brokerage model.">
<polygon fill="white" stroke="black" points="232,-110.5 232,-151.5 437,-151.5 437,-110.5 232,-110.5"/>
<text text-anchor="start" x="240" y="-139.5" font-family="Helvetica,sans-Serif" font-size="10.00">QuantConnect.Lean.Engine.</text>
<text text-anchor="start" x="240" y="-128.5" font-family="Helvetica,sans-Serif" font-size="10.00">Setup.BaseSetupHandler.SetBrokerage</text>
<text text-anchor="middle" x="334.5" y="-117.5" font-family="Helvetica,sans-Serif" font-size="10.00">TradingDayPerYear</text>
</a>
</g>
</g>
<!-- Node1&#45;&gt;Node19 -->
<g id="edge19" class="edge">
<title>Node1&#45;&gt;Node19</title>
<path fill="none" stroke="midnightblue" d="M131.16,-199.98C157.5,-188.52 195.2,-172.75 229,-161 235.29,-158.81 241.83,-156.66 248.43,-154.57"/>
<polygon fill="midnightblue" stroke="midnightblue" points="249.61,-157.87 258.13,-151.56 247.54,-151.18 249.61,-157.87"/>
</g>
<!-- Node20 -->
<g id="node20" class="node">
<title>Node20</title>
<g id="a_node20"><a xlink:href="classQuantConnect_1_1Lean_1_1Engine_1_1Setup_1_1BaseSetupHandler.html#ae3d99e89ce2014c78544fa5f4972d842" target="_top" xlink:title="Primary entry point to setup a new algorithm">
<polygon fill="white" stroke="black" points="251,-61 251,-91 418,-91 418,-61 251,-61"/>
<text text-anchor="start" x="259" y="-79" font-family="Helvetica,sans-Serif" font-size="10.00">QuantConnect.Lean.Engine.</text>
<text text-anchor="middle" x="334.5" y="-68" font-family="Helvetica,sans-Serif" font-size="10.00">Setup.BaseSetupHandler.Setup</text>
</a>
</g>
</g>
<!-- Node1&#45;&gt;Node20 -->
<g id="edge20" class="edge">
<title>Node1&#45;&gt;Node20</title>
<path fill="none" stroke="midnightblue" d="M110.41,-199.85C132.24,-175.22 179.01,-126.68 229,-101 233.6,-98.64 238.43,-96.49 243.39,-94.55"/>
<polygon fill="midnightblue" stroke="midnightblue" points="244.84,-97.74 253.04,-91.05 242.45,-91.16 244.84,-97.74"/>
</g>
<!-- Node21 -->
<g id="node21" class="node">
<title>Node21</title>
<g id="a_node21"><a xlink:href="classQuantConnect_1_1Lean_1_1Engine_1_1Setup_1_1BaseSetupHandler.html#ab487c9ff7dc96f704f6e2eb55910b6a3" target="_top" xlink:title="Will first check and add all the required conversion rate securities and later will seed an initial v...">
<polygon fill="white" stroke="black" points="229,-0.5 229,-41.5 440,-41.5 440,-0.5 229,-0.5"/>
<text text-anchor="start" x="237" y="-29.5" font-family="Helvetica,sans-Serif" font-size="10.00">QuantConnect.Lean.Engine.</text>
<text text-anchor="start" x="237" y="-18.5" font-family="Helvetica,sans-Serif" font-size="10.00">Setup.BaseSetupHandler.SetupCurrency</text>
<text text-anchor="middle" x="334.5" y="-7.5" font-family="Helvetica,sans-Serif" font-size="10.00">Conversions</text>
</a>
</g>
</g>
<!-- Node1&#45;&gt;Node21 -->
<g id="edge22" class="edge">
<title>Node1&#45;&gt;Node21</title>
<path fill="none" stroke="midnightblue" d="M105.43,-199.73C123.08,-167.25 168.85,-91.04 229,-51 231.59,-49.28 234.27,-47.65 237.04,-46.12"/>
<polygon fill="midnightblue" stroke="midnightblue" points="238.76,-49.17 246.09,-41.53 235.59,-42.93 238.76,-49.17"/>
</g>
<!-- Node3 -->
<g id="node3" class="node">
<title>Node3</title>
<g id="a_node3"><a xlink:href="interfaceQuantConnect_1_1Logging_1_1ILogHandler.html#a35373a0c5d76031fa5ccf5dc39e5c25d" target="_top" xlink:title="Write error message to log">
<polygon fill="white" stroke="black" points="718,-373 718,-403 868,-403 868,-373 718,-373"/>
<text text-anchor="start" x="726" y="-391" font-family="Helvetica,sans-Serif" font-size="10.00">QuantConnect.Logging.ILog</text>
<text text-anchor="middle" x="793" y="-380" font-family="Helvetica,sans-Serif" font-size="10.00">Handler.Error</text>
</a>
</g>
</g>
<!-- Node2&#45;&gt;Node3 -->
<g id="edge2" class="edge">
<title>Node2&#45;&gt;Node3</title>
<path fill="none" stroke="midnightblue" d="M649.07,-388C668,-388 688.48,-388 707.87,-388"/>
<polygon fill="midnightblue" stroke="midnightblue" points="707.89,-391.5 717.89,-388 707.89,-384.5 707.89,-391.5"/>
</g>
<!-- Node5&#45;&gt;Node2 -->
<g id="edge5" class="edge">
<title>Node5&#45;&gt;Node2</title>
<path fill="none" stroke="midnightblue" d="M421.01,-309.61C427.67,-312.63 434.09,-316.07 440,-320 461.04,-333.99 454.64,-350.5 476,-364 480.29,-366.71 484.86,-369.12 489.6,-371.25"/>
<polygon fill="midnightblue" stroke="midnightblue" points="488.31,-374.5 498.89,-375.03 490.95,-368.02 488.31,-374.5"/>
</g>
<!-- Node6 -->
<g id="node6" class="node">
<title>Node6</title>
<g id="a_node6"><a xlink:href="interfaceQuantConnect_1_1Interfaces_1_1IBrokerage.html#af112e17ef4c5005c9ab2416d98b1192b" target="_top" xlink:title="Gets all holdings for the account">
<polygon fill="white" stroke="black" points="488.5,-324 488.5,-354 659.5,-354 659.5,-324 488.5,-324"/>
<text text-anchor="start" x="496.5" y="-342" font-family="Helvetica,sans-Serif" font-size="10.00">QuantConnect.Interfaces.</text>
<text text-anchor="middle" x="574" y="-331" font-family="Helvetica,sans-Serif" font-size="10.00">IBrokerage.GetAccountHoldings</text>
</a>
</g>
</g>
<!-- Node5&#45;&gt;Node6 -->
<g id="edge6" class="edge">
<title>Node5&#45;&gt;Node6</title>
<path fill="none" stroke="midnightblue" d="M428.68,-308.62C449.46,-312.99 471.33,-317.59 491.58,-321.86"/>
<polygon fill="midnightblue" stroke="midnightblue" points="490.88,-325.29 501.38,-323.92 492.32,-318.44 490.88,-325.29"/>
</g>
<!-- Node7 -->
<g id="node7" class="node">
<title>Node7</title>
<g id="a_node7"><a xlink:href="interfaceQuantConnect_1_1Interfaces_1_1IAlgorithm.html#aef2054f9e0d8b47362428225b6eeb57f" target="_top" xlink:title="Get the last known price using the history provider. Useful for seeding securities with the correct p...">
<polygon fill="white" stroke="black" points="491.5,-275 491.5,-305 656.5,-305 656.5,-275 491.5,-275"/>
<text text-anchor="start" x="499.5" y="-293" font-family="Helvetica,sans-Serif" font-size="10.00">QuantConnect.Interfaces.</text>
<text text-anchor="middle" x="574" y="-282" font-family="Helvetica,sans-Serif" font-size="10.00">IAlgorithm.GetLastKnownPrice</text>
</a>
</g>
</g>
<!-- Node5&#45;&gt;Node7 -->
<g id="edge7" class="edge">
<title>Node5&#45;&gt;Node7</title>
<path fill="none" stroke="midnightblue" d="M428.68,-289.39C445.96,-289.47 463.99,-289.54 481.22,-289.61"/>
<polygon fill="midnightblue" stroke="midnightblue" points="481.24,-293.11 491.26,-289.66 481.27,-286.11 481.24,-293.11"/>
</g>
<!-- Node8 -->
<g id="node8" class="node">
<title>Node8</title>
<g id="a_node8"><a xlink:href="classQuantConnect_1_1Securities_1_1SecurityHolding.html#a577d8ef814d6d8a1958453357ac2903d" target="_top" xlink:title="Set the quantity of holdings and their average price after processing a portfolio fill.">
<polygon fill="white" stroke="black" points="496.5,-226 496.5,-256 651.5,-256 651.5,-226 496.5,-226"/>
<text text-anchor="start" x="504.5" y="-244" font-family="Helvetica,sans-Serif" font-size="10.00">QuantConnect.Securities.</text>
<text text-anchor="middle" x="574" y="-233" font-family="Helvetica,sans-Serif" font-size="10.00">SecurityHolding.SetHoldings</text>
</a>
</g>
</g>
<!-- Node5&#45;&gt;Node8 -->
<g id="edge8" class="edge">
<title>Node5&#45;&gt;Node8</title>
<path fill="none" stroke="midnightblue" d="M428.68,-270.17C448.38,-266.19 469.07,-262.01 488.43,-258.09"/>
<polygon fill="midnightblue" stroke="midnightblue" points="489.31,-261.49 498.42,-256.07 487.92,-254.62 489.31,-261.49"/>
</g>
<!-- Node9 -->
<g id="node9" class="node">
<title>Node9</title>
<g id="a_node9"><a xlink:href="classQuantConnect_1_1Symbol.html#a59158f74116be3dad0ea0f3f3f134416" target="_top" xlink:title="Initializes a new instance of the Symbol class">
<polygon fill="white" stroke="black" points="491.5,-187.5 491.5,-206.5 656.5,-206.5 656.5,-187.5 491.5,-187.5"/>
<text text-anchor="middle" x="574" y="-194.5" font-family="Helvetica,sans-Serif" font-size="10.00">QuantConnect.Symbol.Symbol</text>
</a>
</g>
</g>
<!-- Node5&#45;&gt;Node9 -->
<g id="edge9" class="edge">
<title>Node5&#45;&gt;Node9</title>
<path fill="none" stroke="midnightblue" d="M411.4,-268.4C421.37,-264.32 431.17,-259.55 440,-254 459.43,-241.79 455.88,-228.02 476,-217 481.12,-214.19 486.59,-211.78 492.22,-209.71"/>
<polygon fill="midnightblue" stroke="midnightblue" points="493.44,-212.99 501.83,-206.52 491.23,-206.35 493.44,-212.99"/>
</g>
<!-- Node15 -->
<g id="node15" class="node">
<title>Node15</title>
<g id="a_node15"><a xlink:href="interfaceQuantConnect_1_1Interfaces_1_1IAlgorithm.html#a02804905423f5ada9758dbb92f4e1f10" target="_top" xlink:title="Converts the string &#39;ticker&#39; symbol into a full Symbol object This requires that the string &#39;ticker&#39; ...">
<polygon fill="white" stroke="black" points="504,-138 504,-168 644,-168 644,-138 504,-138"/>
<text text-anchor="start" x="512" y="-156" font-family="Helvetica,sans-Serif" font-size="10.00">QuantConnect.Interfaces.</text>
<text text-anchor="middle" x="574" y="-145" font-family="Helvetica,sans-Serif" font-size="10.00">IAlgorithm.Symbol</text>
</a>
</g>
</g>
<!-- Node5&#45;&gt;Node15 -->
<g id="edge15" class="edge">
<title>Node5&#45;&gt;Node15</title>
<path fill="none" stroke="midnightblue" d="M418.58,-268.38C426.32,-264.4 433.63,-259.65 440,-254 467.96,-229.19 447.18,-201.8 476,-178 481.58,-173.39 487.9,-169.62 494.59,-166.54"/>
<polygon fill="midnightblue" stroke="midnightblue" points="495.95,-169.77 503.89,-162.75 493.3,-163.28 495.95,-169.77"/>
</g>
<!-- Node5&#45;&gt;Node16 -->
<g id="edge16" class="edge">
<title>Node5&#45;&gt;Node16</title>
<path fill="none" stroke="midnightblue" d="M421.33,-268.39C428.2,-264.41 434.57,-259.66 440,-254 480,-212.25 437.25,-171.91 476,-129 483.26,-120.96 492.42,-114.54 502.18,-109.44"/>
<polygon fill="midnightblue" stroke="midnightblue" points="503.76,-112.56 511.29,-105.1 500.75,-106.24 503.76,-112.56"/>
</g>
<!-- Node10 -->
<g id="node10" class="node">
<title>Node10</title>
<g id="a_node10"><a xlink:href="classQuantConnect_1_1Symbol.html#a59b0795fa21f46c306deb5576fa03bb9" target="_top" xlink:title="Centralized helper method to resolve alias for a symbol">
<polygon fill="white" stroke="black" points="708,-187.5 708,-206.5 878,-206.5 878,-187.5 708,-187.5"/>
<text text-anchor="middle" x="793" y="-194.5" font-family="Helvetica,sans-Serif" font-size="10.00">QuantConnect.Symbol.GetAlias</text>
</a>
</g>
</g>
<!-- Node9&#45;&gt;Node10 -->
<g id="edge10" class="edge">
<title>Node9&#45;&gt;Node10</title>
<path fill="none" stroke="midnightblue" d="M656.73,-197C670.04,-197 683.92,-197 697.5,-197"/>
<polygon fill="midnightblue" stroke="midnightblue" points="697.82,-200.5 707.82,-197 697.82,-193.5 697.82,-200.5"/>
</g>
<!-- Node11 -->
<g id="node11" class="node">
<title>Node11</title>
<g id="a_node11"><a xlink:href="classQuantConnect_1_1SymbolRepresentation.html#ad43ac907f6c19083821f58f21c6de017" target="_top" xlink:title="Returns future symbol ticker from underlying and expiration date. Function can generate tickers of tw...">
<polygon fill="white" stroke="black" points="914,-208 914,-238 1117,-238 1117,-208 914,-208"/>
<text text-anchor="start" x="922" y="-226" font-family="Helvetica,sans-Serif" font-size="10.00">QuantConnect.SymbolRepresentation.</text>
<text text-anchor="middle" x="1015.5" y="-215" font-family="Helvetica,sans-Serif" font-size="10.00">GenerateFutureTicker</text>
</a>
</g>
</g>
<!-- Node10&#45;&gt;Node11 -->
<g id="edge11" class="edge">
<title>Node10&#45;&gt;Node11</title>
<path fill="none" stroke="midnightblue" d="M874.85,-206.53C884.25,-207.64 893.95,-208.79 903.66,-209.93"/>
<polygon fill="midnightblue" stroke="midnightblue" points="903.43,-213.43 913.77,-211.12 904.25,-206.48 903.43,-213.43"/>
</g>
<!-- Node13 -->
<g id="node13" class="node">
<title>Node13</title>
<g id="a_node13"><a xlink:href="classQuantConnect_1_1SymbolRepresentation.html#ab133044f5cf8c16e700190a2202b215e" target="_top" xlink:title="Returns option symbol ticker in accordance with OSI symbology More information can be found at http:/...">
<polygon fill="white" stroke="black" points="914,-156 914,-186 1117,-186 1117,-156 914,-156"/>
<text text-anchor="start" x="922" y="-174" font-family="Helvetica,sans-Serif" font-size="10.00">QuantConnect.SymbolRepresentation.</text>
<text text-anchor="middle" x="1015.5" y="-163" font-family="Helvetica,sans-Serif" font-size="10.00">GenerateOptionTickerOSI</text>
</a>
</g>
</g>
<!-- Node10&#45;&gt;Node13 -->
<g id="edge13" class="edge">
<title>Node10&#45;&gt;Node13</title>
<path fill="none" stroke="midnightblue" d="M874.85,-187.47C884.25,-186.36 893.95,-185.21 903.66,-184.07"/>
<polygon fill="midnightblue" stroke="midnightblue" points="904.25,-187.52 913.77,-182.88 903.43,-180.57 904.25,-187.52"/>
</g>
<!-- Node12 -->
<g id="node12" class="node">
<title>Node12</title>
<g id="a_node12"><a xlink:href="classQuantConnect_1_1Securities_1_1Future_1_1FuturesExpiryUtilityFunctions.html#a4ccb1e2f2fe40ff09785a74a02f26df1" target="_top" xlink:title="Gets the number of months between the contract month and the expiry date.">
<polygon fill="white" stroke="black" points="1153,-205.5 1153,-246.5 1419,-246.5 1419,-205.5 1153,-205.5"/>
<text text-anchor="start" x="1161" y="-234.5" font-family="Helvetica,sans-Serif" font-size="10.00">QuantConnect.Securities.</text>
<text text-anchor="start" x="1161" y="-223.5" font-family="Helvetica,sans-Serif" font-size="10.00">Future.FuturesExpiryUtilityFunctions.</text>
<text text-anchor="middle" x="1286" y="-212.5" font-family="Helvetica,sans-Serif" font-size="10.00">GetDeltaBetweenContractMonthAndContractExpiry</text>
</a>
</g>
</g>
<!-- Node11&#45;&gt;Node12 -->
<g id="edge12" class="edge">
<title>Node11&#45;&gt;Node12</title>
<path fill="none" stroke="midnightblue" d="M1117.24,-224.13C1125.59,-224.22 1134.11,-224.31 1142.68,-224.41"/>
<polygon fill="midnightblue" stroke="midnightblue" points="1142.72,-227.91 1152.76,-224.52 1142.8,-220.91 1142.72,-227.91"/>
</g>
<!-- Node14 -->
<g id="node14" class="node">
<title>Node14</title>
<g id="a_node14"><a xlink:href="classQuantConnect_1_1Messages_1_1SymbolRepresentation.html#a2c514157d8055cfa271ea3a7ca1ccde7" target="_top" xlink:title="Returns a string message saying an unexpected security type was received by the given method name">
<polygon fill="white" stroke="black" points="1190,-145.5 1190,-186.5 1382,-186.5 1382,-145.5 1190,-145.5"/>
<text text-anchor="start" x="1198" y="-174.5" font-family="Helvetica,sans-Serif" font-size="10.00">QuantConnect.Messages.Symbol</text>
<text text-anchor="start" x="1198" y="-163.5" font-family="Helvetica,sans-Serif" font-size="10.00">Representation.UnexpectedSecurity</text>
<text text-anchor="middle" x="1286" y="-152.5" font-family="Helvetica,sans-Serif" font-size="10.00">TypeForMethod</text>
</a>
</g>
</g>
<!-- Node13&#45;&gt;Node14 -->
<g id="edge14" class="edge">
<title>Node13&#45;&gt;Node14</title>
<path fill="none" stroke="midnightblue" d="M1117.24,-169.12C1137.7,-168.74 1159.27,-168.34 1179.88,-167.96"/>
<polygon fill="midnightblue" stroke="midnightblue" points="1179.98,-171.46 1189.91,-167.77 1179.85,-164.46 1179.98,-171.46"/>
</g>
<!-- Node17 -->
<g id="node17" class="node">
<title>Node17</title>
<g id="a_node17"><a xlink:href="interfaceQuantConnect_1_1Logging_1_1ILogHandler.html#a3fb71a33ac66129240b63f12b6fcda3b" target="_top" xlink:title="Write debug message to log">
<polygon fill="white" stroke="black" points="718,-75 718,-105 868,-105 868,-75 718,-75"/>
<text text-anchor="start" x="726" y="-93" font-family="Helvetica,sans-Serif" font-size="10.00">QuantConnect.Logging.ILog</text>
<text text-anchor="middle" x="793" y="-82" font-family="Helvetica,sans-Serif" font-size="10.00">Handler.Trace</text>
</a>
</g>
</g>
<!-- Node16&#45;&gt;Node17 -->
<g id="edge17" class="edge">
<title>Node16&#45;&gt;Node17</title>
<path fill="none" stroke="midnightblue" d="M649.07,-90C668,-90 688.48,-90 707.87,-90"/>
<polygon fill="midnightblue" stroke="midnightblue" points="707.89,-93.5 717.89,-90 707.89,-86.5 707.89,-93.5"/>
</g>
<!-- Node20&#45;&gt;Node16 -->
<g id="edge21" class="edge">
<title>Node20&#45;&gt;Node16</title>
<path fill="none" stroke="midnightblue" d="M418.23,-80.88C441.09,-82.22 465.91,-83.69 488.85,-85.04"/>
<polygon fill="midnightblue" stroke="midnightblue" points="488.71,-88.54 498.89,-85.63 489.12,-81.55 488.71,-88.54"/>
</g>
<!-- Node21&#45;&gt;Node16 -->
<g id="edge24" class="edge">
<title>Node21&#45;&gt;Node16</title>
<path fill="none" stroke="midnightblue" d="M407.19,-41.52C418.18,-44.69 429.4,-47.92 440,-51 463.55,-57.83 489.43,-65.41 512.05,-72.05"/>
<polygon fill="midnightblue" stroke="midnightblue" points="511.28,-75.47 521.86,-74.93 513.25,-68.75 511.28,-75.47"/>
</g>
<!-- Node22 -->
<g id="node22" class="node">
<title>Node22</title>
<g id="a_node22"><a xlink:href="classQuantConnect_1_1Lean_1_1Engine_1_1DataFeeds_1_1UniverseSelection.html#acf85de19c4377320f5c0baab450a99fb" target="_top" xlink:title="Checks the current subscriptions and adds necessary currency pair feeds to provide real time conversi...">
<polygon fill="white" stroke="black" points="476,-0.5 476,-41.5 672,-41.5 672,-0.5 476,-0.5"/>
<text text-anchor="start" x="484" y="-29.5" font-family="Helvetica,sans-Serif" font-size="10.00">QuantConnect.Lean.Engine.</text>
<text text-anchor="start" x="484" y="-18.5" font-family="Helvetica,sans-Serif" font-size="10.00">DataFeeds.UniverseSelection.Ensure</text>
<text text-anchor="middle" x="574" y="-7.5" font-family="Helvetica,sans-Serif" font-size="10.00">CurrencyDataFeeds</text>
</a>
</g>
</g>
<!-- Node21&#45;&gt;Node22 -->
<g id="edge23" class="edge">
<title>Node21&#45;&gt;Node22</title>
<path fill="none" stroke="midnightblue" d="M440.02,-21C448.6,-21 457.29,-21 465.9,-21"/>
<polygon fill="midnightblue" stroke="midnightblue" points="465.95,-24.5 475.95,-21 465.95,-17.5 465.95,-24.5"/>
</g>
</g>
</svg>
        <g id="navigator" transform="translate(0 0)" fill="#404254">
                <rect fill="#f2f5e9" fill-opacity="0.5" stroke="#606060" stroke-width=".5" x="0" y="0" width="60" height="60"/>
                <use id="zoomplus" xlink:href="#zoomPlus" x="17" y="9" onmousedown="handleZoom(evt,'in')"/>
                <use id="zoomminus" xlink:href="#zoomMin" x="42" y="9" onmousedown="handleZoom(evt,'out')"/>
                <use id="reset" xlink:href="#resetDef" x="30" y="36" onmousedown="handleReset()"/>
                <g id="arrowUp" xlink:href="#dirArrow" transform="translate(30 24)" onmousedown="handlePan(0,-1)">
                  <use xlink:href="#rim" fill="#404040">
                        <set attributeName="fill" to="#808080" begin="arrowUp.mouseover" end="arrowUp.mouseout"/>
                  </use>
                  <path fill="none" stroke="white" stroke-width="1.5" d="M0,-3.0v7 M-2.5,-0.5L0,-3.0L2.5,-0.5"/>
                </g>
                <g id="arrowRight" xlink:href="#dirArrow" transform="rotate(90) translate(36 -43)" onmousedown="handlePan(1,0)">
                  <use xlink:href="#rim" fill="#404040">
                        <set attributeName="fill" to="#808080" begin="arrowRight.mouseover" end="arrowRight.mouseout"/>
                  </use>
                  <path fill="none" stroke="white" stroke-width="1.5" d="M0,-3.0v7 M-2.5,-0.5L0,-3.0L2.5,-0.5"/>
                </g>
                <g id="arrowDown" xlink:href="#dirArrow" transform="rotate(180) translate(-30 -48)" onmousedown="handlePan(0,1)">
                  <use xlink:href="#rim" fill="#404040">
                        <set attributeName="fill" to="#808080" begin="arrowDown.mouseover" end="arrowDown.mouseout"/>
                  </use>
                  <path fill="none" stroke="white" stroke-width="1.5" d="M0,-3.0v7 M-2.5,-0.5L0,-3.0L2.5,-0.5"/>
                </g>
                <g id="arrowLeft" xlink:href="#dirArrow" transform="rotate(270) translate(-36 17)" onmousedown="handlePan(-1,0)">
                  <use xlink:href="#rim" fill="#404040">
                        <set attributeName="fill" to="#808080" begin="arrowLeft.mouseover" end="arrowLeft.mouseout"/>
                  </use>
                  <path fill="none" stroke="white" stroke-width="1.5" d="M0,-3.0v7 M-2.5,-0.5L0,-3.0L2.5,-0.5"/>
                </g>
        </g>
        <svg viewBox="0 0 15 15" width="100%" height="30px" preserveAspectRatio="xMaxYMin meet">
         <g id="arrow_out" transform="scale(0.3 0.3)">
          <a xlink:href="classQuantConnect_1_1Lean_1_1Engine_1_1Setup_1_1BrokerageSetupHandler_a31fba19179b2197553a8f0152885886b_cgraph_org.svg" target="_base">
           <rect id="button" ry="5" rx="5" y="6" x="6" height="38" width="38"
                fill="#f2f5e9" fill-opacity="0.5" stroke="#606060" stroke-width="1.0"/>
           <path id="arrow"
             d="M 11.500037,31.436501 C 11.940474,20.09759 22.043105,11.32322 32.158766,21.979434 L 37.068811,17.246167 C 37.068811,17.246167 37.088388,32 37.088388,32 L 22.160133,31.978069 C 22.160133,31.978069 26.997745,27.140456 26.997745,27.140456 C 18.528582,18.264221 13.291696,25.230495 11.500037,31.436501 z"
             style="fill:#404040;"/>
          </a>
         </g>
        </svg>
</svg>
