<?xml version="1.0" encoding="UTF-8" standalone="no"?>
<!DOCTYPE svg PUBLIC "-//W3C//DTD SVG 1.1//EN"
 "http://www.w3.org/Graphics/SVG/1.1/DTD/svg11.dtd">
<!-- Generated by graphviz version 2.43.0 (0)
 -->
<!-- Title: QuantConnect.SecurityIdentifier.ToString Pages: 1 -->
<svg width="894pt" height="286pt"
 viewBox="0.00 0.00 894.00 286.00" xmlns="http://www.w3.org/2000/svg" xmlns:xlink="http://www.w3.org/1999/xlink">
<g id="graph0" class="graph" transform="scale(1 1) rotate(0) translate(4 282)">
<title>QuantConnect.SecurityIdentifier.ToString</title>
<polygon fill="white" stroke="transparent" points="-4,4 -4,-282 890,-282 890,4 -4,4"/>
<!-- Node1 -->
<g id="node1" class="node">
<title>Node1</title>
<g id="a_node1"><a xlink:title="Returns a string that represents the current object.">
<polygon fill="#bfbfbf" stroke="black" points="712,-112.5 712,-142.5 886,-142.5 886,-112.5 712,-112.5"/>
<text text-anchor="start" x="720" y="-130.5" font-family="Helvetica,sans-Serif" font-size="10.00">QuantConnect.SecurityIdentifier.</text>
<text text-anchor="middle" x="799" y="-119.5" font-family="Helvetica,sans-Serif" font-size="10.00">ToString</text>
</a>
</g>
</g>
<!-- Node2 -->
<g id="node2" class="node">
<title>Node2</title>
<g id="a_node2"><a xlink:href="classQuantConnect_1_1SecurityIdentifier.html#ad3b399b38ae519650ec764caabad7cfa" target="_top" xlink:title="Compares the current instance with another object of the same type and returns an integer that indica...">
<polygon fill="white" stroke="black" points="476.5,-210.5 476.5,-240.5 650.5,-240.5 650.5,-210.5 476.5,-210.5"/>
<text text-anchor="start" x="484.5" y="-228.5" font-family="Helvetica,sans-Serif" font-size="10.00">QuantConnect.SecurityIdentifier.</text>
<text text-anchor="middle" x="563.5" y="-217.5" font-family="Helvetica,sans-Serif" font-size="10.00">CompareTo</text>
</a>
</g>
</g>
<!-- Node1&#45;&gt;Node2 -->
<g id="edge1" class="edge">
<title>Node1&#45;&gt;Node2</title>
<path fill="none" stroke="midnightblue" d="M769.72,-148.42C745.87,-165.11 710.24,-187.88 676,-201.5 667.44,-204.9 658.32,-207.86 649.11,-210.43"/>
<polygon fill="midnightblue" stroke="midnightblue" points="771.83,-151.21 777.95,-142.57 767.77,-145.51 771.83,-151.21"/>
</g>
<!-- Node4 -->
<g id="node4" class="node">
<title>Node4</title>
<g id="a_node4"><a xlink:href="classQuantConnect_1_1Util_1_1SecurityIdentifierJsonConverter.html#a81dd6bb01b2869a1a6ee7b3a197fd062" target="_top" xlink:title="Converts as security identifier to a string">
<polygon fill="white" stroke="black" points="479,-161.5 479,-191.5 648,-191.5 648,-161.5 479,-161.5"/>
<text text-anchor="start" x="487" y="-179.5" font-family="Helvetica,sans-Serif" font-size="10.00">QuantConnect.Util.Security</text>
<text text-anchor="middle" x="563.5" y="-168.5" font-family="Helvetica,sans-Serif" font-size="10.00">IdentifierJsonConverter.Convert</text>
</a>
</g>
</g>
<!-- Node1&#45;&gt;Node4 -->
<g id="edge3" class="edge">
<title>Node1&#45;&gt;Node4</title>
<path fill="none" stroke="midnightblue" d="M716.45,-144.61C690.25,-150.11 661.44,-156.16 636.01,-161.49"/>
<polygon fill="midnightblue" stroke="midnightblue" points="717.29,-148.01 726.36,-142.53 715.85,-141.16 717.29,-148.01"/>
</g>
<!-- Node5 -->
<g id="node5" class="node">
<title>Node5</title>
<g id="a_node5"><a xlink:href="classQuantConnect_1_1SymbolCache.html#a57e097effb7b510a77d3ce51f8feadbc" target="_top" xlink:title="Gets the string ticker symbol that is mapped to the specified Symbol">
<polygon fill="white" stroke="black" points="484.5,-112.5 484.5,-142.5 642.5,-142.5 642.5,-112.5 484.5,-112.5"/>
<text text-anchor="start" x="492.5" y="-130.5" font-family="Helvetica,sans-Serif" font-size="10.00">QuantConnect.SymbolCache.</text>
<text text-anchor="middle" x="563.5" y="-119.5" font-family="Helvetica,sans-Serif" font-size="10.00">GetTicker</text>
</a>
</g>
</g>
<!-- Node1&#45;&gt;Node5 -->
<g id="edge4" class="edge">
<title>Node1&#45;&gt;Node5</title>
<path fill="none" stroke="midnightblue" d="M701.55,-127.5C681.96,-127.5 661.58,-127.5 642.71,-127.5"/>
<polygon fill="midnightblue" stroke="midnightblue" points="701.72,-131 711.72,-127.5 701.72,-124 701.72,-131"/>
</g>
<!-- Node13 -->
<g id="node13" class="node">
<title>Node13</title>
<g id="a_node13"><a xlink:href="classQuantConnect_1_1Algorithm_1_1Framework_1_1Alphas_1_1Serialization_1_1SerializedInsight.html#a1351eb402776a7711c31492680ed2c0d" target="_top" xlink:title="Initializes a new instance of the SerializedInsight &#160;class by copying the specified insight">
<polygon fill="white" stroke="black" points="463.5,-52 463.5,-93 663.5,-93 663.5,-52 463.5,-52"/>
<text text-anchor="start" x="471.5" y="-81" font-family="Helvetica,sans-Serif" font-size="10.00">QuantConnect.Algorithm.Framework.</text>
<text text-anchor="start" x="471.5" y="-70" font-family="Helvetica,sans-Serif" font-size="10.00">Alphas.Serialization.SerializedInsight.</text>
<text text-anchor="middle" x="563.5" y="-59" font-family="Helvetica,sans-Serif" font-size="10.00">SerializedInsight</text>
</a>
</g>
</g>
<!-- Node1&#45;&gt;Node13 -->
<g id="edge12" class="edge">
<title>Node1&#45;&gt;Node13</title>
<path fill="none" stroke="midnightblue" d="M724.18,-110.11C701.21,-104.7 675.66,-98.68 651.86,-93.08"/>
<polygon fill="midnightblue" stroke="midnightblue" points="723.66,-113.58 734.2,-112.47 725.26,-106.77 723.66,-113.58"/>
</g>
<!-- Node14 -->
<g id="node14" class="node">
<title>Node14</title>
<g id="a_node14"><a xlink:href="classQuantConnect_1_1Orders_1_1Serialization_1_1SerializedOrderEvent.html#ab778a830759f40e39bc5035b6aa1c145" target="_top" xlink:title="Creates a new instances based on the provided order event and algorithm Id">
<polygon fill="white" stroke="black" points="451,-2.5 451,-32.5 676,-32.5 676,-2.5 451,-2.5"/>
<text text-anchor="start" x="459" y="-20.5" font-family="Helvetica,sans-Serif" font-size="10.00">QuantConnect.Orders.Serialization.</text>
<text text-anchor="middle" x="563.5" y="-9.5" font-family="Helvetica,sans-Serif" font-size="10.00">SerializedOrderEvent.SerializedOrderEvent</text>
</a>
</g>
</g>
<!-- Node1&#45;&gt;Node14 -->
<g id="edge13" class="edge">
<title>Node1&#45;&gt;Node14</title>
<path fill="none" stroke="midnightblue" d="M773.41,-106.02C749.93,-86.61 712.78,-58.68 676,-42.5 667.19,-38.62 657.72,-35.32 648.15,-32.51"/>
<polygon fill="midnightblue" stroke="midnightblue" points="771.21,-108.74 781.12,-112.49 775.71,-103.38 771.21,-108.74"/>
</g>
<!-- Node3 -->
<g id="node3" class="node">
<title>Node3</title>
<g id="a_node3"><a xlink:href="classQuantConnect_1_1SecurityIdentifier.html#ab9032cfe7a19882ddef6f5233dd09ae0" target="_top" xlink:title="Compares the current instance with another object of the same type and returns an integer that indica...">
<polygon fill="white" stroke="black" points="241,-210.5 241,-240.5 415,-240.5 415,-210.5 241,-210.5"/>
<text text-anchor="start" x="249" y="-228.5" font-family="Helvetica,sans-Serif" font-size="10.00">QuantConnect.SecurityIdentifier.</text>
<text text-anchor="middle" x="328" y="-217.5" font-family="Helvetica,sans-Serif" font-size="10.00">CompareTo</text>
</a>
</g>
</g>
<!-- Node2&#45;&gt;Node3 -->
<g id="edge2" class="edge">
<title>Node2&#45;&gt;Node3</title>
<path fill="none" stroke="midnightblue" d="M465.87,-225.5C449.11,-225.5 431.78,-225.5 415.32,-225.5"/>
<polygon fill="midnightblue" stroke="midnightblue" points="466.22,-229 476.22,-225.5 466.22,-222 466.22,-229"/>
</g>
<!-- Node6 -->
<g id="node6" class="node">
<title>Node6</title>
<g id="a_node6"><a xlink:href="classQuantConnect_1_1Symbol.html#a3c54bbbf67e90444df99f3d80ed1c3a2" target="_top" xlink:title="Returns a string that represents the current object.">
<polygon fill="white" stroke="black" points="244.5,-118 244.5,-137 411.5,-137 411.5,-118 244.5,-118"/>
<text text-anchor="middle" x="328" y="-125" font-family="Helvetica,sans-Serif" font-size="10.00">QuantConnect.Symbol.ToString</text>
</a>
</g>
</g>
<!-- Node5&#45;&gt;Node6 -->
<g id="edge5" class="edge">
<title>Node5&#45;&gt;Node6</title>
<path fill="none" stroke="midnightblue" d="M474.17,-127.5C453.72,-127.5 432.02,-127.5 411.81,-127.5"/>
<polygon fill="midnightblue" stroke="midnightblue" points="474.42,-131 484.42,-127.5 474.42,-124 474.42,-131"/>
</g>
<!-- Node7 -->
<g id="node7" class="node">
<title>Node7</title>
<g id="a_node7"><a xlink:href="classQuantConnect_1_1Algorithm_1_1QCAlgorithm.html#a9c7ada35b14342f6e65d869d482af918" target="_top" xlink:title="Creates a new name for an indicator created with the convenience functions (SMA, EMA,...">
<polygon fill="white" stroke="black" points="0,-247.5 0,-277.5 205,-277.5 205,-247.5 0,-247.5"/>
<text text-anchor="start" x="8" y="-265.5" font-family="Helvetica,sans-Serif" font-size="10.00">QuantConnect.Algorithm.QCAlgorithm.</text>
<text text-anchor="middle" x="102.5" y="-254.5" font-family="Helvetica,sans-Serif" font-size="10.00">CreateIndicatorName</text>
</a>
</g>
</g>
<!-- Node6&#45;&gt;Node7 -->
<g id="edge6" class="edge">
<title>Node6&#45;&gt;Node7</title>
<path fill="none" stroke="midnightblue" d="M307.45,-143.61C289.78,-158.33 263.21,-180.89 241,-201.5 224.41,-216.89 224.71,-226.39 205,-237.5 198.12,-241.38 190.65,-244.66 182.99,-247.44"/>
<polygon fill="midnightblue" stroke="midnightblue" points="309.89,-146.13 315.35,-137.05 305.42,-140.74 309.89,-146.13"/>
</g>
<!-- Node8 -->
<g id="node8" class="node">
<title>Node8</title>
<g id="a_node8"><a xlink:href="classQuantConnect_1_1Lean_1_1Engine_1_1RealTime_1_1ScheduledEventFactory.html#a2a548ebf5457bc6d9ae25dd28f2a3dcd" target="_top" xlink:title="Creates a new ScheduledEvent that will fire before market close by the specified time">
<polygon fill="white" stroke="black" points="12,-187 12,-228 193,-228 193,-187 12,-187"/>
<text text-anchor="start" x="20" y="-216" font-family="Helvetica,sans-Serif" font-size="10.00">QuantConnect.Lean.Engine.</text>
<text text-anchor="start" x="20" y="-205" font-family="Helvetica,sans-Serif" font-size="10.00">RealTime.ScheduledEventFactory.</text>
<text text-anchor="middle" x="102.5" y="-194" font-family="Helvetica,sans-Serif" font-size="10.00">EverySecurityEndOfDay</text>
</a>
</g>
</g>
<!-- Node6&#45;&gt;Node8 -->
<g id="edge7" class="edge">
<title>Node6&#45;&gt;Node8</title>
<path fill="none" stroke="midnightblue" d="M296.19,-141.14C271.73,-151.73 236.51,-166.42 205,-177.5 195.81,-180.73 186.08,-183.91 176.42,-186.92"/>
<polygon fill="midnightblue" stroke="midnightblue" points="297.89,-144.22 305.66,-137.02 295.09,-137.8 297.89,-144.22"/>
</g>
<!-- Node9 -->
<g id="node9" class="node">
<title>Node9</title>
<g id="a_node9"><a xlink:href="classQuantConnect_1_1Algorithm_1_1QCAlgorithm.html#a162e101f2df8722dbb5788b504ec562a" target="_top" xlink:title="End of a trading day event handler. This method is called at the end of the algorithm day (or multipl...">
<polygon fill="white" stroke="black" points="0,-137.5 0,-167.5 205,-167.5 205,-137.5 0,-137.5"/>
<text text-anchor="start" x="8" y="-155.5" font-family="Helvetica,sans-Serif" font-size="10.00">QuantConnect.Algorithm.QCAlgorithm.</text>
<text text-anchor="middle" x="102.5" y="-144.5" font-family="Helvetica,sans-Serif" font-size="10.00">OnEndOfDay</text>
</a>
</g>
</g>
<!-- Node6&#45;&gt;Node9 -->
<g id="edge8" class="edge">
<title>Node6&#45;&gt;Node9</title>
<path fill="none" stroke="midnightblue" d="M234.41,-137.86C224.73,-138.94 214.85,-140.04 205.08,-141.14"/>
<polygon fill="midnightblue" stroke="midnightblue" points="234.86,-141.33 244.41,-136.74 234.08,-134.37 234.86,-141.33"/>
</g>
<!-- Node10 -->
<g id="node10" class="node">
<title>Node10</title>
<g id="a_node10"><a xlink:href="classQuantConnect_1_1Symbol.html#a3105c014ff7c97c040d9af90a509cce0" target="_top" xlink:title="Returns the symbol&#39;s string ticker">
<polygon fill="white" stroke="black" points="17.5,-88.5 17.5,-118.5 187.5,-118.5 187.5,-88.5 17.5,-88.5"/>
<text text-anchor="start" x="25.5" y="-106.5" font-family="Helvetica,sans-Serif" font-size="10.00">QuantConnect.Symbol.operator</text>
<text text-anchor="middle" x="102.5" y="-95.5" font-family="Helvetica,sans-Serif" font-size="10.00"> string</text>
</a>
</g>
</g>
<!-- Node6&#45;&gt;Node10 -->
<g id="edge9" class="edge">
<title>Node6&#45;&gt;Node10</title>
<path fill="none" stroke="midnightblue" d="M234.33,-117.55C218.85,-115.89 202.87,-114.17 187.62,-112.53"/>
<polygon fill="midnightblue" stroke="midnightblue" points="234.1,-121.04 244.41,-118.63 234.84,-114.08 234.1,-121.04"/>
</g>
<!-- Node11 -->
<g id="node11" class="node">
<title>Node11</title>
<g id="a_node11"><a xlink:href="classQuantConnect_1_1Symbol.html#a57cd4801d0cbe4b260b9a47fdae295a1" target="_top" xlink:title="Equals operator">
<polygon fill="white" stroke="black" points="9.5,-50 9.5,-69 195.5,-69 195.5,-50 9.5,-50"/>
<text text-anchor="middle" x="102.5" y="-57" font-family="Helvetica,sans-Serif" font-size="10.00">QuantConnect.Symbol.operator==</text>
</a>
</g>
</g>
<!-- Node6&#45;&gt;Node11 -->
<g id="edge10" class="edge">
<title>Node6&#45;&gt;Node11</title>
<path fill="none" stroke="midnightblue" d="M296.4,-113.68C272.04,-103.11 236.87,-88.83 205,-79.5 191.04,-75.41 175.75,-71.91 161.37,-69.03"/>
<polygon fill="midnightblue" stroke="midnightblue" points="295.25,-116.99 305.81,-117.81 298.06,-110.58 295.25,-116.99"/>
</g>
<!-- Node12 -->
<g id="node12" class="node">
<title>Node12</title>
<g id="a_node12"><a xlink:href="classQuantConnect_1_1Securities_1_1Security.html#a9dfff4b4f8b5951f83589ede12d80c84" target="_top" xlink:title="Returns a string that represents the current object.">
<polygon fill="white" stroke="black" points="32.5,-0.5 32.5,-30.5 172.5,-30.5 172.5,-0.5 32.5,-0.5"/>
<text text-anchor="start" x="40.5" y="-18.5" font-family="Helvetica,sans-Serif" font-size="10.00">QuantConnect.Securities.</text>
<text text-anchor="middle" x="102.5" y="-7.5" font-family="Helvetica,sans-Serif" font-size="10.00">Security.ToString</text>
</a>
</g>
</g>
<!-- Node6&#45;&gt;Node12 -->
<g id="edge11" class="edge">
<title>Node6&#45;&gt;Node12</title>
<path fill="none" stroke="midnightblue" d="M308.65,-110.98C285.92,-91.36 245.25,-58.98 205,-40.5 194.86,-35.84 183.73,-31.98 172.68,-28.8"/>
<polygon fill="midnightblue" stroke="midnightblue" points="306.62,-113.85 316.45,-117.81 311.24,-108.59 306.62,-113.85"/>
</g>
</g>
</svg>
