<?xml version="1.0" encoding="UTF-8" standalone="no"?>
<!DOCTYPE svg PUBLIC "-//W3C//DTD SVG 1.1//EN"
 "http://www.w3.org/Graphics/SVG/1.1/DTD/svg11.dtd">
<!-- Generated by graphviz version 2.43.0 (0)
 -->
<!-- Title: QuantConnect.Util.LeanData.UseStrictEndTime Pages: 1 -->
<svg width="896pt" height="270pt"
 viewBox="0.00 0.00 896.00 270.00" xmlns="http://www.w3.org/2000/svg" xmlns:xlink="http://www.w3.org/1999/xlink">
<g id="graph0" class="graph" transform="scale(1 1) rotate(0) translate(4 266)">
<title>QuantConnect.Util.LeanData.UseStrictEndTime</title>
<polygon fill="white" stroke="transparent" points="-4,4 -4,-266 892,-266 892,4 -4,4"/>
<!-- Node1 -->
<g id="node1" class="node">
<title>Node1</title>
<g id="a_node1"><a xlink:title="Helper method to determine if we should use strict end time">
<polygon fill="#bfbfbf" stroke="black" points="730,-116 730,-146 888,-146 888,-116 730,-116"/>
<text text-anchor="start" x="738" y="-134" font-family="Helvetica,sans-Serif" font-size="10.00">QuantConnect.Util.LeanData.</text>
<text text-anchor="middle" x="809" y="-123" font-family="Helvetica,sans-Serif" font-size="10.00">UseStrictEndTime</text>
</a>
</g>
</g>
<!-- Node2 -->
<g id="node2" class="node">
<title>Node2</title>
<g id="a_node2"><a xlink:href="classQuantConnect_1_1Lean_1_1Engine_1_1DataFeeds_1_1UniverseSelection.html#aa1f5bba72357a2a66d98099a3d20a0e5" target="_top" xlink:title="Will add any pending internal currency subscriptions">
<polygon fill="white" stroke="black" points="498.5,-220.5 498.5,-261.5 680.5,-261.5 680.5,-220.5 498.5,-220.5"/>
<text text-anchor="start" x="506.5" y="-249.5" font-family="Helvetica,sans-Serif" font-size="10.00">QuantConnect.Lean.Engine.</text>
<text text-anchor="start" x="506.5" y="-238.5" font-family="Helvetica,sans-Serif" font-size="10.00">DataFeeds.UniverseSelection.Add</text>
<text text-anchor="middle" x="589.5" y="-227.5" font-family="Helvetica,sans-Serif" font-size="10.00">PendingInternalDataFeeds</text>
</a>
</g>
</g>
<!-- Node1&#45;&gt;Node2 -->
<g id="edge1" class="edge">
<title>Node1&#45;&gt;Node2</title>
<path fill="none" stroke="midnightblue" d="M782.7,-152.46C760.55,-170.31 726.87,-195.24 694,-211 686.75,-214.48 679.01,-217.63 671.16,-220.48"/>
<polygon fill="midnightblue" stroke="midnightblue" points="785.07,-155.04 790.6,-146 780.64,-149.62 785.07,-155.04"/>
</g>
<!-- Node3 -->
<g id="node3" class="node">
<title>Node3</title>
<g id="a_node3"><a xlink:href="classQuantConnect_1_1Util_1_1LeanData.html#ad63021af2455d8433040838f49a7a15d" target="_top" xlink:title="Helper method to get the next daily end time, taking into account strict end times if appropriate">
<polygon fill="white" stroke="black" points="510.5,-171 510.5,-201 668.5,-201 668.5,-171 510.5,-171"/>
<text text-anchor="start" x="518.5" y="-189" font-family="Helvetica,sans-Serif" font-size="10.00">QuantConnect.Util.LeanData.</text>
<text text-anchor="middle" x="589.5" y="-178" font-family="Helvetica,sans-Serif" font-size="10.00">GetNextDailyEndTime</text>
</a>
</g>
</g>
<!-- Node1&#45;&gt;Node3 -->
<g id="edge2" class="edge">
<title>Node1&#45;&gt;Node3</title>
<path fill="none" stroke="midnightblue" d="M741.71,-148.69C726.08,-152.79 709.46,-157.1 694,-161 681.01,-164.28 667.07,-167.71 653.77,-170.93"/>
<polygon fill="midnightblue" stroke="midnightblue" points="743.03,-151.96 751.81,-146.03 741.25,-145.19 743.03,-151.96"/>
</g>
<!-- Node4 -->
<g id="node4" class="node">
<title>Node4</title>
<g id="a_node4"><a xlink:href="classQuantConnect_1_1Lean_1_1Engine_1_1DataFeeds_1_1DataQueueHandlerManager.html#a9a5fdfba2516f1d530704aebcd807e03" target="_top" xlink:title="Subscribe to the specified configuration">
<polygon fill="white" stroke="black" points="485,-110.5 485,-151.5 694,-151.5 694,-110.5 485,-110.5"/>
<text text-anchor="start" x="493" y="-139.5" font-family="Helvetica,sans-Serif" font-size="10.00">QuantConnect.Lean.Engine.</text>
<text text-anchor="start" x="493" y="-128.5" font-family="Helvetica,sans-Serif" font-size="10.00">DataFeeds.DataQueueHandlerManager.</text>
<text text-anchor="middle" x="589.5" y="-117.5" font-family="Helvetica,sans-Serif" font-size="10.00">Subscribe</text>
</a>
</g>
</g>
<!-- Node1&#45;&gt;Node4 -->
<g id="edge3" class="edge">
<title>Node1&#45;&gt;Node4</title>
<path fill="none" stroke="midnightblue" d="M719.64,-131C711.24,-131 702.68,-131 694.15,-131"/>
<polygon fill="midnightblue" stroke="midnightblue" points="719.78,-134.5 729.78,-131 719.78,-127.5 719.78,-134.5"/>
</g>
<!-- Node5 -->
<g id="node5" class="node">
<title>Node5</title>
<g id="a_node5"><a xlink:href="classQuantConnect_1_1Util_1_1LeanData.html#aa5edea8cb59c33b5a15f4499e55b7c1c" target="_top" xlink:title="Helper method to determine if we should use strict end time">
<polygon fill="white" stroke="black" points="510.5,-61 510.5,-91 668.5,-91 668.5,-61 510.5,-61"/>
<text text-anchor="start" x="518.5" y="-79" font-family="Helvetica,sans-Serif" font-size="10.00">QuantConnect.Util.LeanData.</text>
<text text-anchor="middle" x="589.5" y="-68" font-family="Helvetica,sans-Serif" font-size="10.00">UseDailyStrictEndTimes</text>
</a>
</g>
</g>
<!-- Node1&#45;&gt;Node5 -->
<g id="edge4" class="edge">
<title>Node1&#45;&gt;Node5</title>
<path fill="none" stroke="midnightblue" d="M741.71,-113.31C726.08,-109.21 709.46,-104.9 694,-101 681.01,-97.72 667.07,-94.29 653.77,-91.07"/>
<polygon fill="midnightblue" stroke="midnightblue" points="741.25,-116.81 751.81,-115.97 743.03,-110.04 741.25,-116.81"/>
</g>
<!-- Node6 -->
<g id="node6" class="node">
<title>Node6</title>
<g id="a_node6"><a xlink:href="classQuantConnect_1_1Data_1_1Common_1_1MarketHourAwareConsolidator.html#afa1ad701ff92332bc7d9fb18df951223" target="_top" xlink:title="Useful for testing">
<polygon fill="white" stroke="black" points="496,-0.5 496,-41.5 683,-41.5 683,-0.5 496,-0.5"/>
<text text-anchor="start" x="504" y="-29.5" font-family="Helvetica,sans-Serif" font-size="10.00">QuantConnect.Data.Common.</text>
<text text-anchor="start" x="504" y="-18.5" font-family="Helvetica,sans-Serif" font-size="10.00">MarketHourAwareConsolidator.Use</text>
<text text-anchor="middle" x="589.5" y="-7.5" font-family="Helvetica,sans-Serif" font-size="10.00">StrictEndTime</text>
</a>
</g>
</g>
<!-- Node1&#45;&gt;Node6 -->
<g id="edge5" class="edge">
<title>Node1&#45;&gt;Node6</title>
<path fill="none" stroke="midnightblue" d="M782.23,-109.59C760.03,-92.05 726.52,-67.65 694,-52 685.97,-48.14 677.36,-44.64 668.66,-41.51"/>
<polygon fill="midnightblue" stroke="midnightblue" points="780.16,-112.42 790.16,-115.94 784.54,-106.96 780.16,-112.42"/>
</g>
<!-- Node7 -->
<g id="node7" class="node">
<title>Node7</title>
<g id="a_node7"><a xlink:href="classQuantConnect_1_1Data_1_1Common_1_1MarketHourAwareConsolidator.html#a4c25267f3235115e0930b33f6a7883bf" target="_top" xlink:title="Perform late initialization based on the datas symbol">
<polygon fill="white" stroke="black" points="239,-6 239,-36 449,-36 449,-6 239,-6"/>
<text text-anchor="start" x="247" y="-24" font-family="Helvetica,sans-Serif" font-size="10.00">QuantConnect.Data.Common.</text>
<text text-anchor="middle" x="344" y="-13" font-family="Helvetica,sans-Serif" font-size="10.00">MarketHourAwareConsolidator.Initialize</text>
</a>
</g>
</g>
<!-- Node6&#45;&gt;Node7 -->
<g id="edge6" class="edge">
<title>Node6&#45;&gt;Node7</title>
<path fill="none" stroke="midnightblue" d="M485.7,-21C473.66,-21 461.36,-21 449.29,-21"/>
<polygon fill="midnightblue" stroke="midnightblue" points="485.75,-24.5 495.75,-21 485.75,-17.5 485.75,-24.5"/>
</g>
<!-- Node8 -->
<g id="node8" class="node">
<title>Node8</title>
<g id="a_node8"><a xlink:href="classQuantConnect_1_1Data_1_1Common_1_1MarketHourAwareConsolidator.html#ada2633845f46ba47d02bc3d8d696383f" target="_top" xlink:title="Updates this consolidator with the specified data">
<polygon fill="white" stroke="black" points="0,-6 0,-36 203,-36 203,-6 0,-6"/>
<text text-anchor="start" x="8" y="-24" font-family="Helvetica,sans-Serif" font-size="10.00">QuantConnect.Data.Common.</text>
<text text-anchor="middle" x="101.5" y="-13" font-family="Helvetica,sans-Serif" font-size="10.00">MarketHourAwareConsolidator.Update</text>
</a>
</g>
</g>
<!-- Node7&#45;&gt;Node8 -->
<g id="edge7" class="edge">
<title>Node7&#45;&gt;Node8</title>
<path fill="none" stroke="midnightblue" d="M228.91,-21C220.37,-21 211.78,-21 203.32,-21"/>
<polygon fill="midnightblue" stroke="midnightblue" points="228.91,-24.5 238.91,-21 228.91,-17.5 228.91,-24.5"/>
</g>
</g>
</svg>
