<?xml version="1.0" encoding="UTF-8" standalone="no"?>
<!DOCTYPE svg PUBLIC "-//W3C//DTD SVG 1.1//EN"
 "http://www.w3.org/Graphics/SVG/1.1/DTD/svg11.dtd">
<!-- Generated by graphviz version 2.43.0 (0)
 -->
<!-- Title: QuantConnect.Data.Fundamental.FundamentalUniverse.UniverseSymbol Pages: 1 -->
<svg width="1585pt" height="513pt"
 viewBox="0.00 0.00 1585.00 513.35" xmlns="http://www.w3.org/2000/svg" xmlns:xlink="http://www.w3.org/1999/xlink">
<g id="graph0" class="graph" transform="scale(1 1) rotate(0) translate(4 509.35)">
<title>QuantConnect.Data.Fundamental.FundamentalUniverse.UniverseSymbol</title>
<polygon fill="white" stroke="transparent" points="-4,4 -4,-509.35 1581,-509.35 1581,4 -4,4"/>
<!-- Node1 -->
<g id="node1" class="node">
<title>Node1</title>
<g id="a_node1"><a xlink:title="Creates the universe symbol for the target market">
<polygon fill="#bfbfbf" stroke="black" points="0,-245.5 0,-275.5 207,-275.5 207,-245.5 0,-245.5"/>
<text text-anchor="start" x="8" y="-263.5" font-family="Helvetica,sans-Serif" font-size="10.00">QuantConnect.Data.Fundamental.</text>
<text text-anchor="middle" x="103.5" y="-252.5" font-family="Helvetica,sans-Serif" font-size="10.00">FundamentalUniverse.UniverseSymbol</text>
</a>
</g>
</g>
<!-- Node2 -->
<g id="node2" class="node">
<title>Node2</title>
<g id="a_node2"><a xlink:href="classQuantConnect_1_1Symbol.html#a350b9a625cf7bad95da82894be3cd0a8" target="_top" xlink:title="Provides a convenience method for creating a Symbol for most security types. This method currently do...">
<polygon fill="white" stroke="black" points="243,-251 243,-270 404,-270 404,-251 243,-251"/>
<text text-anchor="middle" x="323.5" y="-258" font-family="Helvetica,sans-Serif" font-size="10.00">QuantConnect.Symbol.Create</text>
</a>
</g>
</g>
<!-- Node1&#45;&gt;Node2 -->
<g id="edge1" class="edge">
<title>Node1&#45;&gt;Node2</title>
<path fill="none" stroke="midnightblue" d="M207.12,-260.5C215.67,-260.5 224.28,-260.5 232.74,-260.5"/>
<polygon fill="midnightblue" stroke="midnightblue" points="232.95,-264 242.95,-260.5 232.95,-257 232.95,-264"/>
</g>
<!-- Node3 -->
<g id="node3" class="node">
<title>Node3</title>
<g id="a_node3"><a xlink:href="classQuantConnect_1_1Symbol.html#a7518a1932d1babbff128f2ba9666a78b" target="_top" xlink:title="Provides a convenience method for creating an option Symbol.">
<polygon fill="white" stroke="black" points="449.5,-431.5 449.5,-461.5 610.5,-461.5 610.5,-431.5 449.5,-431.5"/>
<text text-anchor="start" x="457.5" y="-449.5" font-family="Helvetica,sans-Serif" font-size="10.00">QuantConnect.Symbol.Create</text>
<text text-anchor="middle" x="530" y="-438.5" font-family="Helvetica,sans-Serif" font-size="10.00">Option</text>
</a>
</g>
</g>
<!-- Node2&#45;&gt;Node3 -->
<g id="edge2" class="edge">
<title>Node2&#45;&gt;Node3</title>
<path fill="none" stroke="midnightblue" d="M328.99,-270.15C342.11,-297.3 383.06,-375.05 440,-416.5 445.58,-420.56 451.75,-424.1 458.16,-427.18"/>
<polygon fill="midnightblue" stroke="midnightblue" points="457.11,-430.54 467.68,-431.37 459.93,-424.14 457.11,-430.54"/>
</g>
<!-- Node4 -->
<g id="node4" class="node">
<title>Node4</title>
<g id="a_node4"><a xlink:href="classQuantConnect_1_1SecurityIdentifier.html#a0c21d7880c9fdd260883d11ea0c99a00" target="_top" xlink:title="Helper overload that will search the mapfiles to resolve the first date. This implementation uses the...">
<polygon fill="white" stroke="black" points="656,-464.5 656,-494.5 830,-494.5 830,-464.5 656,-464.5"/>
<text text-anchor="start" x="664" y="-482.5" font-family="Helvetica,sans-Serif" font-size="10.00">QuantConnect.SecurityIdentifier.</text>
<text text-anchor="middle" x="743" y="-471.5" font-family="Helvetica,sans-Serif" font-size="10.00">GenerateEquity</text>
</a>
</g>
</g>
<!-- Node2&#45;&gt;Node4 -->
<g id="edge15" class="edge">
<title>Node2&#45;&gt;Node4</title>
<path fill="none" stroke="midnightblue" d="M326.34,-270.41C333.45,-305.5 362.66,-424.27 440,-471.5 509.68,-514.05 606.29,-507.81 671.31,-496.38"/>
<polygon fill="midnightblue" stroke="midnightblue" points="672.27,-499.77 681.47,-494.51 671,-492.88 672.27,-499.77"/>
</g>
<!-- Node5 -->
<g id="node5" class="node">
<title>Node5</title>
<g id="a_node5"><a xlink:href="classQuantConnect_1_1Symbol.html#a59158f74116be3dad0ea0f3f3f134416" target="_top" xlink:title="Initializes a new instance of the Symbol class">
<polygon fill="white" stroke="black" points="660.5,-415 660.5,-434 825.5,-434 825.5,-415 660.5,-415"/>
<text text-anchor="middle" x="743" y="-422" font-family="Helvetica,sans-Serif" font-size="10.00">QuantConnect.Symbol.Symbol</text>
</a>
</g>
</g>
<!-- Node2&#45;&gt;Node5 -->
<g id="edge20" class="edge">
<title>Node2&#45;&gt;Node5</title>
<path fill="none" stroke="midnightblue" d="M330.31,-270.18C345.17,-293.96 387.1,-355.26 440,-382.5 475.62,-400.84 574.72,-412.18 649.76,-418.38"/>
<polygon fill="midnightblue" stroke="midnightblue" points="649.93,-421.9 660.18,-419.22 650.49,-414.93 649.93,-421.9"/>
</g>
<!-- Node11 -->
<g id="node11" class="node">
<title>Node11</title>
<g id="a_node11"><a xlink:href="classQuantConnect_1_1SecurityIdentifier.html#a02ca750115844561c001c2346fbafc00" target="_top" xlink:title="Generates a new SecurityIdentifier for a custom security with the option of providing the first date">
<polygon fill="white" stroke="black" points="443,-343.5 443,-373.5 617,-373.5 617,-343.5 443,-343.5"/>
<text text-anchor="start" x="451" y="-361.5" font-family="Helvetica,sans-Serif" font-size="10.00">QuantConnect.SecurityIdentifier.</text>
<text text-anchor="middle" x="530" y="-350.5" font-family="Helvetica,sans-Serif" font-size="10.00">GenerateBase</text>
</a>
</g>
</g>
<!-- Node2&#45;&gt;Node11 -->
<g id="edge10" class="edge">
<title>Node2&#45;&gt;Node11</title>
<path fill="none" stroke="midnightblue" d="M336.97,-270.11C357.44,-285.48 399.91,-315.66 440,-333.5 445.35,-335.88 450.99,-338.09 456.72,-340.14"/>
<polygon fill="midnightblue" stroke="midnightblue" points="455.83,-343.53 466.42,-343.41 458.07,-336.9 455.83,-343.53"/>
</g>
<!-- Node13 -->
<g id="node13" class="node">
<title>Node13</title>
<g id="a_node13"><a xlink:href="classQuantConnect_1_1SecurityIdentifier.html#a53953b18d814c5445e4ecdcb3b555080" target="_top" xlink:title="Generates a new SecurityIdentifier for a CFD security">
<polygon fill="white" stroke="black" points="443,-294.5 443,-324.5 617,-324.5 617,-294.5 443,-294.5"/>
<text text-anchor="start" x="451" y="-312.5" font-family="Helvetica,sans-Serif" font-size="10.00">QuantConnect.SecurityIdentifier.</text>
<text text-anchor="middle" x="530" y="-301.5" font-family="Helvetica,sans-Serif" font-size="10.00">GenerateCfd</text>
</a>
</g>
</g>
<!-- Node2&#45;&gt;Node13 -->
<g id="edge12" class="edge">
<title>Node2&#45;&gt;Node13</title>
<path fill="none" stroke="midnightblue" d="M364.42,-270.06C390.53,-276.32 425.42,-284.68 456.36,-292.09"/>
<polygon fill="midnightblue" stroke="midnightblue" points="455.7,-295.54 466.24,-294.46 457.33,-288.73 455.7,-295.54"/>
</g>
<!-- Node14 -->
<g id="node14" class="node">
<title>Node14</title>
<g id="a_node14"><a xlink:href="classQuantConnect_1_1SecurityIdentifier.html#a5889a95a36ce927dd0a109cbfbcbe663" target="_top" xlink:title="Generates a new SecurityIdentifier for a Crypto pair">
<polygon fill="white" stroke="black" points="443,-245.5 443,-275.5 617,-275.5 617,-245.5 443,-245.5"/>
<text text-anchor="start" x="451" y="-263.5" font-family="Helvetica,sans-Serif" font-size="10.00">QuantConnect.SecurityIdentifier.</text>
<text text-anchor="middle" x="530" y="-252.5" font-family="Helvetica,sans-Serif" font-size="10.00">GenerateCrypto</text>
</a>
</g>
</g>
<!-- Node2&#45;&gt;Node14 -->
<g id="edge13" class="edge">
<title>Node2&#45;&gt;Node14</title>
<path fill="none" stroke="midnightblue" d="M404.15,-260.5C413.46,-260.5 423.03,-260.5 432.53,-260.5"/>
<polygon fill="midnightblue" stroke="midnightblue" points="432.8,-264 442.8,-260.5 432.8,-257 432.8,-264"/>
</g>
<!-- Node15 -->
<g id="node15" class="node">
<title>Node15</title>
<g id="a_node15"><a xlink:href="classQuantConnect_1_1SecurityIdentifier.html#ac665665a16d5449872fed3427b95a260" target="_top" xlink:title="Generates a new SecurityIdentifier for a CryptoFuture pair">
<polygon fill="white" stroke="black" points="443,-196.5 443,-226.5 617,-226.5 617,-196.5 443,-196.5"/>
<text text-anchor="start" x="451" y="-214.5" font-family="Helvetica,sans-Serif" font-size="10.00">QuantConnect.SecurityIdentifier.</text>
<text text-anchor="middle" x="530" y="-203.5" font-family="Helvetica,sans-Serif" font-size="10.00">GenerateCryptoFuture</text>
</a>
</g>
</g>
<!-- Node2&#45;&gt;Node15 -->
<g id="edge14" class="edge">
<title>Node2&#45;&gt;Node15</title>
<path fill="none" stroke="midnightblue" d="M364.42,-250.94C390.53,-244.68 425.42,-236.32 456.36,-228.91"/>
<polygon fill="midnightblue" stroke="midnightblue" points="457.33,-232.27 466.24,-226.54 455.7,-225.46 457.33,-232.27"/>
</g>
<!-- Node16 -->
<g id="node16" class="node">
<title>Node16</title>
<g id="a_node16"><a xlink:href="classQuantConnect_1_1SecurityIdentifier.html#a9cf0d3b208a5171e6112516ce441f18d" target="_top" xlink:title="Generates a new SecurityIdentifier for a forex pair">
<polygon fill="white" stroke="black" points="443,-147.5 443,-177.5 617,-177.5 617,-147.5 443,-147.5"/>
<text text-anchor="start" x="451" y="-165.5" font-family="Helvetica,sans-Serif" font-size="10.00">QuantConnect.SecurityIdentifier.</text>
<text text-anchor="middle" x="530" y="-154.5" font-family="Helvetica,sans-Serif" font-size="10.00">GenerateForex</text>
</a>
</g>
</g>
<!-- Node2&#45;&gt;Node16 -->
<g id="edge16" class="edge">
<title>Node2&#45;&gt;Node16</title>
<path fill="none" stroke="midnightblue" d="M336.6,-250.95C356.88,-235.37 399.49,-204.42 440,-186.5 444.64,-184.45 449.49,-182.54 454.43,-180.76"/>
<polygon fill="midnightblue" stroke="midnightblue" points="455.67,-184.04 464.02,-177.52 453.43,-177.41 455.67,-184.04"/>
</g>
<!-- Node17 -->
<g id="node17" class="node">
<title>Node17</title>
<g id="a_node17"><a xlink:href="classQuantConnect_1_1SecurityIdentifier.html#ad50a891c97cb0c084a9e2aa43607ed66" target="_top" xlink:title="Generates a new SecurityIdentifier for a future">
<polygon fill="white" stroke="black" points="443,-98.5 443,-128.5 617,-128.5 617,-98.5 443,-98.5"/>
<text text-anchor="start" x="451" y="-116.5" font-family="Helvetica,sans-Serif" font-size="10.00">QuantConnect.SecurityIdentifier.</text>
<text text-anchor="middle" x="530" y="-105.5" font-family="Helvetica,sans-Serif" font-size="10.00">GenerateFuture</text>
</a>
</g>
</g>
<!-- Node2&#45;&gt;Node17 -->
<g id="edge17" class="edge">
<title>Node2&#45;&gt;Node17</title>
<path fill="none" stroke="midnightblue" d="M330.74,-250.8C346.26,-227.5 389,-168.08 440,-137.5 442.97,-135.72 446.08,-134.07 449.28,-132.53"/>
<polygon fill="midnightblue" stroke="midnightblue" points="450.71,-135.73 458.49,-128.53 447.92,-129.31 450.71,-135.73"/>
</g>
<!-- Node18 -->
<g id="node18" class="node">
<title>Node18</title>
<g id="a_node18"><a xlink:href="classQuantConnect_1_1SecurityIdentifier.html#ade05a8e57b041ab484cf585be8d05699" target="_top" xlink:title="Generates a new SecurityIdentifier for a INDEX security">
<polygon fill="white" stroke="black" points="443,-49.5 443,-79.5 617,-79.5 617,-49.5 443,-49.5"/>
<text text-anchor="start" x="451" y="-67.5" font-family="Helvetica,sans-Serif" font-size="10.00">QuantConnect.SecurityIdentifier.</text>
<text text-anchor="middle" x="530" y="-56.5" font-family="Helvetica,sans-Serif" font-size="10.00">GenerateIndex</text>
</a>
</g>
</g>
<!-- Node2&#45;&gt;Node18 -->
<g id="edge18" class="edge">
<title>Node2&#45;&gt;Node18</title>
<path fill="none" stroke="midnightblue" d="M328.07,-250.94C339.48,-221.72 378,-132.89 440,-88.5 442.11,-86.99 444.3,-85.58 446.57,-84.25"/>
<polygon fill="midnightblue" stroke="midnightblue" points="448.34,-87.28 455.61,-79.57 445.12,-81.06 448.34,-87.28"/>
</g>
<!-- Node19 -->
<g id="node19" class="node">
<title>Node19</title>
<g id="a_node19"><a xlink:href="classQuantConnect_1_1Messages_1_1Symbol.html#ab801bef52a308b8ba7ba6d42e1ef1988" target="_top" xlink:title="Returns a string message saying the given security type has not been implemented yet">
<polygon fill="white" stroke="black" points="440,-0.5 440,-30.5 620,-30.5 620,-0.5 440,-0.5"/>
<text text-anchor="start" x="448" y="-18.5" font-family="Helvetica,sans-Serif" font-size="10.00">QuantConnect.Messages.Symbol.</text>
<text text-anchor="middle" x="530" y="-7.5" font-family="Helvetica,sans-Serif" font-size="10.00">SecurityTypeNotImplementedYet</text>
</a>
</g>
</g>
<!-- Node2&#45;&gt;Node19 -->
<g id="edge19" class="edge">
<title>Node2&#45;&gt;Node19</title>
<path fill="none" stroke="midnightblue" d="M326.62,-250.77C334.69,-216.21 366.73,-98.3 440,-39.5 441.59,-38.22 443.24,-37.01 444.95,-35.87"/>
<polygon fill="midnightblue" stroke="midnightblue" points="447,-38.73 453.87,-30.66 443.47,-32.68 447,-38.73"/>
</g>
<!-- Node3&#45;&gt;Node4 -->
<g id="edge3" class="edge">
<title>Node3&#45;&gt;Node4</title>
<path fill="none" stroke="midnightblue" d="M610.77,-458.98C622.14,-460.75 633.94,-462.6 645.59,-464.42"/>
<polygon fill="midnightblue" stroke="midnightblue" points="645.35,-467.93 655.77,-466.01 646.43,-461.01 645.35,-467.93"/>
</g>
<!-- Node3&#45;&gt;Node5 -->
<g id="edge4" class="edge">
<title>Node3&#45;&gt;Node5</title>
<path fill="none" stroke="midnightblue" d="M610.77,-438.18C623.7,-436.83 637.17,-435.43 650.35,-434.06"/>
<polygon fill="midnightblue" stroke="midnightblue" points="650.78,-437.53 660.36,-433.01 650.05,-430.57 650.78,-437.53"/>
</g>
<!-- Node6 -->
<g id="node6" class="node">
<title>Node6</title>
<g id="a_node6"><a xlink:href="classQuantConnect_1_1Symbol.html#a59b0795fa21f46c306deb5576fa03bb9" target="_top" xlink:title="Centralized helper method to resolve alias for a symbol">
<polygon fill="white" stroke="black" points="866,-415 866,-434 1036,-434 1036,-415 866,-415"/>
<text text-anchor="middle" x="951" y="-422" font-family="Helvetica,sans-Serif" font-size="10.00">QuantConnect.Symbol.GetAlias</text>
</a>
</g>
</g>
<!-- Node5&#45;&gt;Node6 -->
<g id="edge5" class="edge">
<title>Node5&#45;&gt;Node6</title>
<path fill="none" stroke="midnightblue" d="M825.71,-424.5C835.47,-424.5 845.49,-424.5 855.4,-424.5"/>
<polygon fill="midnightblue" stroke="midnightblue" points="855.68,-428 865.68,-424.5 855.68,-421 855.68,-428"/>
</g>
<!-- Node7 -->
<g id="node7" class="node">
<title>Node7</title>
<g id="a_node7"><a xlink:href="classQuantConnect_1_1SymbolRepresentation.html#ad43ac907f6c19083821f58f21c6de017" target="_top" xlink:title="Returns future symbol ticker from underlying and expiration date. Function can generate tickers of tw...">
<polygon fill="white" stroke="black" points="1072,-437.5 1072,-467.5 1275,-467.5 1275,-437.5 1072,-437.5"/>
<text text-anchor="start" x="1080" y="-455.5" font-family="Helvetica,sans-Serif" font-size="10.00">QuantConnect.SymbolRepresentation.</text>
<text text-anchor="middle" x="1173.5" y="-444.5" font-family="Helvetica,sans-Serif" font-size="10.00">GenerateFutureTicker</text>
</a>
</g>
</g>
<!-- Node6&#45;&gt;Node7 -->
<g id="edge6" class="edge">
<title>Node6&#45;&gt;Node7</title>
<path fill="none" stroke="midnightblue" d="M1026.96,-434.02C1038.27,-435.46 1050.14,-436.96 1062.01,-438.47"/>
<polygon fill="midnightblue" stroke="midnightblue" points="1061.62,-441.95 1071.98,-439.74 1062.5,-435 1061.62,-441.95"/>
</g>
<!-- Node9 -->
<g id="node9" class="node">
<title>Node9</title>
<g id="a_node9"><a xlink:href="classQuantConnect_1_1SymbolRepresentation.html#ab133044f5cf8c16e700190a2202b215e" target="_top" xlink:title="Returns option symbol ticker in accordance with OSI symbology More information can be found at http:/...">
<polygon fill="white" stroke="black" points="1072,-385.5 1072,-415.5 1275,-415.5 1275,-385.5 1072,-385.5"/>
<text text-anchor="start" x="1080" y="-403.5" font-family="Helvetica,sans-Serif" font-size="10.00">QuantConnect.SymbolRepresentation.</text>
<text text-anchor="middle" x="1173.5" y="-392.5" font-family="Helvetica,sans-Serif" font-size="10.00">GenerateOptionTickerOSI</text>
</a>
</g>
</g>
<!-- Node6&#45;&gt;Node9 -->
<g id="edge8" class="edge">
<title>Node6&#45;&gt;Node9</title>
<path fill="none" stroke="midnightblue" d="M1036.31,-415.32C1044.69,-414.41 1053.3,-413.47 1061.9,-412.54"/>
<polygon fill="midnightblue" stroke="midnightblue" points="1062.43,-416 1071.99,-411.44 1061.67,-409.04 1062.43,-416"/>
</g>
<!-- Node8 -->
<g id="node8" class="node">
<title>Node8</title>
<g id="a_node8"><a xlink:href="classQuantConnect_1_1Securities_1_1Future_1_1FuturesExpiryUtilityFunctions.html#a4ccb1e2f2fe40ff09785a74a02f26df1" target="_top" xlink:title="Gets the number of months between the contract month and the expiry date.">
<polygon fill="white" stroke="black" points="1311,-435 1311,-476 1577,-476 1577,-435 1311,-435"/>
<text text-anchor="start" x="1319" y="-464" font-family="Helvetica,sans-Serif" font-size="10.00">QuantConnect.Securities.</text>
<text text-anchor="start" x="1319" y="-453" font-family="Helvetica,sans-Serif" font-size="10.00">Future.FuturesExpiryUtilityFunctions.</text>
<text text-anchor="middle" x="1444" y="-442" font-family="Helvetica,sans-Serif" font-size="10.00">GetDeltaBetweenContractMonthAndContractExpiry</text>
</a>
</g>
</g>
<!-- Node7&#45;&gt;Node8 -->
<g id="edge7" class="edge">
<title>Node7&#45;&gt;Node8</title>
<path fill="none" stroke="midnightblue" d="M1275.24,-453.63C1283.59,-453.72 1292.11,-453.81 1300.68,-453.91"/>
<polygon fill="midnightblue" stroke="midnightblue" points="1300.72,-457.41 1310.76,-454.02 1300.8,-450.41 1300.72,-457.41"/>
</g>
<!-- Node10 -->
<g id="node10" class="node">
<title>Node10</title>
<g id="a_node10"><a xlink:href="classQuantConnect_1_1Messages_1_1SymbolRepresentation.html#a2c514157d8055cfa271ea3a7ca1ccde7" target="_top" xlink:title="Returns a string message saying an unexpected security type was received by the given method name">
<polygon fill="white" stroke="black" points="1348,-375 1348,-416 1540,-416 1540,-375 1348,-375"/>
<text text-anchor="start" x="1356" y="-404" font-family="Helvetica,sans-Serif" font-size="10.00">QuantConnect.Messages.Symbol</text>
<text text-anchor="start" x="1356" y="-393" font-family="Helvetica,sans-Serif" font-size="10.00">Representation.UnexpectedSecurity</text>
<text text-anchor="middle" x="1444" y="-382" font-family="Helvetica,sans-Serif" font-size="10.00">TypeForMethod</text>
</a>
</g>
</g>
<!-- Node9&#45;&gt;Node10 -->
<g id="edge9" class="edge">
<title>Node9&#45;&gt;Node10</title>
<path fill="none" stroke="midnightblue" d="M1275.24,-398.62C1295.7,-398.24 1317.27,-397.84 1337.88,-397.46"/>
<polygon fill="midnightblue" stroke="midnightblue" points="1337.98,-400.96 1347.91,-397.27 1337.85,-393.96 1337.98,-400.96"/>
</g>
<!-- Node12 -->
<g id="node12" class="node">
<title>Node12</title>
<g id="a_node12"><a xlink:href="classQuantConnect_1_1SecurityIdentifier.html#a19e1f9da410608020d74ed9e7d283575" target="_top" xlink:title="Generates the Symbol property for QuantConnect.SecurityType.Base security identifiers">
<polygon fill="white" stroke="black" points="656,-343.5 656,-373.5 830,-373.5 830,-343.5 656,-343.5"/>
<text text-anchor="start" x="664" y="-361.5" font-family="Helvetica,sans-Serif" font-size="10.00">QuantConnect.SecurityIdentifier.</text>
<text text-anchor="middle" x="743" y="-350.5" font-family="Helvetica,sans-Serif" font-size="10.00">GenerateBaseSymbol</text>
</a>
</g>
</g>
<!-- Node11&#45;&gt;Node12 -->
<g id="edge11" class="edge">
<title>Node11&#45;&gt;Node12</title>
<path fill="none" stroke="midnightblue" d="M617.13,-358.5C626.5,-358.5 636.08,-358.5 645.57,-358.5"/>
<polygon fill="midnightblue" stroke="midnightblue" points="645.81,-362 655.81,-358.5 645.81,-355 645.81,-362"/>
</g>
</g>
</svg>
