<?xml version="1.0" encoding="UTF-8" standalone="no"?>
<!DOCTYPE svg PUBLIC "-//W3C//DTD SVG 1.1//EN"
 "http://www.w3.org/Graphics/SVG/1.1/DTD/svg11.dtd">
<!-- Generated by graphviz version 2.43.0 (0)
 -->
<!-- Title: QuantConnect.ToolBox.LeanParser.Parse Pages: 1 -->
<!--zoomable 764 -->
<svg id="main" version="1.1" xmlns="http://www.w3.org/2000/svg" xmlns:xlink="http://www.w3.org/1999/xlink" xml:space="preserve" onload="init(evt)">
<style type="text/css"><![CDATA[
.edge:hover path { stroke: red; }
.edge:hover polygon { stroke: red; fill: red; }
]]></style>
<script type="text/javascript"><![CDATA[
var edges = document.getElementsByTagName('g');
if (edges && edges.length) {
  for (var i=0;i<edges.length;i++) {
    if (edges[i].id.substr(0,4)=='edge') {
      edges[i].setAttribute('class','edge');
    }
  }
}
]]></script>
        <defs>
                <circle id="rim" cx="0" cy="0" r="7"/>
                <circle id="rim2" cx="0" cy="0" r="3.5"/>
                <g id="zoomPlus">
                        <use xlink:href="#rim" fill="#404040">
                                <set attributeName="fill" to="#808080" begin="zoomplus.mouseover" end="zoomplus.mouseout"/>
                        </use>
                        <path d="M-4,0h8M0,-4v8" fill="none" stroke="white" stroke-width="1.5" pointer-events="none"/>
                </g>
                <g id="zoomMin">
                        <use xlink:href="#rim" fill="#404040">
                                <set attributeName="fill" to="#808080" begin="zoomminus.mouseover" end="zoomminus.mouseout"/>
                        </use>
                        <path d="M-4,0h8" fill="none" stroke="white" stroke-width="1.5" pointer-events="none"/>
                </g>
                <g id="dirArrow">
                        <path fill="none" stroke="white" stroke-width="1.5" d="M0,-3.0v7 M-2.5,-0.5L0,-3.0L2.5,-0.5"/>
                </g>
               <g id="resetDef">
                       <use xlink:href="#rim2" fill="#404040">
                               <set attributeName="fill" to="#808080" begin="reset.mouseover" end="reset.mouseout"/>
                       </use>
               </g>
        </defs>

<script type="text/javascript">
var viewWidth = 1823;
var viewHeight = 764;
var sectionId = 'dynsection-1';
</script>
<script xlink:href="svgpan.js"/>
<svg id="graph" class="graph">
<g id="viewport">
<title>QuantConnect.ToolBox.LeanParser.Parse</title>
<polygon fill="white" stroke="transparent" points="-4,4 -4,-760 1819,-760 1819,4 -4,4"/>
<!-- Node1 -->
<g id="node1" class="node">
<title>Node1</title>
<g id="a_node1"><a xlink:title="Parses the specified input stream into an enumerable of data">
<polygon fill="#bfbfbf" stroke="black" points="0,-383 0,-413 153,-413 153,-383 0,-383"/>
<text text-anchor="start" x="8" y="-401" font-family="Helvetica,sans-Serif" font-size="10.00">QuantConnect.ToolBox.Lean</text>
<text text-anchor="middle" x="76.5" y="-390" font-family="Helvetica,sans-Serif" font-size="10.00">Parser.Parse</text>
</a>
</g>
</g>
<!-- Node2 -->
<g id="node2" class="node">
<title>Node2</title>
<g id="a_node2"><a xlink:href="classQuantConnect_1_1Util_1_1LeanDataPathComponents.html#a0d24d06405609c2f8b3107c6b41ba57d" target="_top" xlink:title="Parses the specified path into a new instance of the LeanDataPathComponents class">
<polygon fill="white" stroke="black" points="189,-383 189,-413 344,-413 344,-383 189,-383"/>
<text text-anchor="start" x="197" y="-401" font-family="Helvetica,sans-Serif" font-size="10.00">QuantConnect.Util.LeanData</text>
<text text-anchor="middle" x="266.5" y="-390" font-family="Helvetica,sans-Serif" font-size="10.00">PathComponents.Parse</text>
</a>
</g>
</g>
<!-- Node1&#45;&gt;Node2 -->
<g id="edge1" class="edge">
<title>Node1&#45;&gt;Node2</title>
<path fill="none" stroke="midnightblue" d="M153.15,-398C161.5,-398 170.04,-398 178.5,-398"/>
<polygon fill="midnightblue" stroke="midnightblue" points="178.78,-401.5 188.78,-398 178.78,-394.5 178.78,-401.5"/>
</g>
<!-- Node3 -->
<g id="node3" class="node">
<title>Node3</title>
<g id="a_node3"><a xlink:href="classQuantConnect_1_1Symbol.html#a350b9a625cf7bad95da82894be3cd0a8" target="_top" xlink:title="Provides a convenience method for creating a Symbol for most security types. This method currently do...">
<polygon fill="white" stroke="black" points="415,-410.5 415,-429.5 576,-429.5 576,-410.5 415,-410.5"/>
<text text-anchor="middle" x="495.5" y="-417.5" font-family="Helvetica,sans-Serif" font-size="10.00">QuantConnect.Symbol.Create</text>
</a>
</g>
</g>
<!-- Node2&#45;&gt;Node3 -->
<g id="edge2" class="edge">
<title>Node2&#45;&gt;Node3</title>
<path fill="none" stroke="midnightblue" d="M344.04,-405.42C363.52,-407.31 384.65,-409.35 404.73,-411.3"/>
<polygon fill="midnightblue" stroke="midnightblue" points="404.52,-414.8 414.81,-412.28 405.19,-407.83 404.52,-414.8"/>
</g>
<!-- Node4 -->
<g id="node4" class="node">
<title>Node4</title>
<g id="a_node4"><a xlink:href="classQuantConnect_1_1Symbol.html#a7518a1932d1babbff128f2ba9666a78b" target="_top" xlink:title="Provides a convenience method for creating an option Symbol.">
<polygon fill="white" stroke="black" points="672,-591 672,-621 833,-621 833,-591 672,-591"/>
<text text-anchor="start" x="680" y="-609" font-family="Helvetica,sans-Serif" font-size="10.00">QuantConnect.Symbol.Create</text>
<text text-anchor="middle" x="752.5" y="-598" font-family="Helvetica,sans-Serif" font-size="10.00">Option</text>
</a>
</g>
</g>
<!-- Node2&#45;&gt;Node4 -->
<g id="edge26" class="edge">
<title>Node2&#45;&gt;Node4</title>
<path fill="none" stroke="midnightblue" d="M295.87,-413.22C358.08,-446.18 511.76,-525.24 647,-576 658.57,-580.34 671.06,-584.43 683.25,-588.1"/>
<polygon fill="midnightblue" stroke="midnightblue" points="682.34,-591.49 692.93,-590.96 684.33,-584.77 682.34,-591.49"/>
</g>
<!-- Node21 -->
<g id="node21" class="node">
<title>Node21</title>
<g id="a_node21"><a xlink:href="classQuantConnect_1_1Symbol.html#a484f4a4845d55c491201a7998f0d6ec4" target="_top" xlink:title="Provides a convenience method for creating a future Symbol.">
<polygon fill="white" stroke="black" points="415,-662 415,-692 576,-692 576,-662 415,-662"/>
<text text-anchor="start" x="423" y="-680" font-family="Helvetica,sans-Serif" font-size="10.00">QuantConnect.Symbol.Create</text>
<text text-anchor="middle" x="495.5" y="-669" font-family="Helvetica,sans-Serif" font-size="10.00">Future</text>
</a>
</g>
</g>
<!-- Node2&#45;&gt;Node21 -->
<g id="edge22" class="edge">
<title>Node2&#45;&gt;Node21</title>
<path fill="none" stroke="midnightblue" d="M278.66,-413.39C298.5,-440.59 341.45,-498.73 380,-546 411.7,-584.87 450.44,-628.42 473.76,-654.23"/>
<polygon fill="midnightblue" stroke="midnightblue" points="471.45,-656.9 480.76,-661.96 476.64,-652.2 471.45,-656.9"/>
</g>
<!-- Node22 -->
<g id="node22" class="node">
<title>Node22</title>
<g id="a_node22"><a xlink:href="classQuantConnect_1_1Symbol.html#a286d1c5264b2903fce067284095c5c2a" target="_top" xlink:title="Determines the underlying SecurityType based on the option Symbol&#39;s SecurityType GetOptionTypeFromUnd...">
<polygon fill="white" stroke="black" points="396,-361 396,-391 595,-391 595,-361 396,-361"/>
<text text-anchor="start" x="404" y="-379" font-family="Helvetica,sans-Serif" font-size="10.00">QuantConnect.Symbol.GetUnderlying</text>
<text text-anchor="middle" x="495.5" y="-368" font-family="Helvetica,sans-Serif" font-size="10.00">FromOptionType</text>
</a>
</g>
</g>
<!-- Node2&#45;&gt;Node22 -->
<g id="edge27" class="edge">
<title>Node2&#45;&gt;Node22</title>
<path fill="none" stroke="midnightblue" d="M344.04,-390.58C357.4,-389.29 371.52,-387.92 385.56,-386.56"/>
<polygon fill="midnightblue" stroke="midnightblue" points="386.13,-390.02 395.75,-385.57 385.46,-383.05 386.13,-390.02"/>
</g>
<!-- Node24 -->
<g id="node24" class="node">
<title>Node24</title>
<g id="a_node24"><a xlink:href="classQuantConnect_1_1Util_1_1LeanDataPathComponents.html#ad1321c6f7d36fb2731fe7b984a1d823d" target="_top" xlink:title="Initializes a new instance of the LeanDataPathComponents class">
<polygon fill="white" stroke="black" points="380,-312 380,-342 611,-342 611,-312 380,-312"/>
<text text-anchor="start" x="388" y="-330" font-family="Helvetica,sans-Serif" font-size="10.00">QuantConnect.Util.LeanData</text>
<text text-anchor="middle" x="495.5" y="-319" font-family="Helvetica,sans-Serif" font-size="10.00">PathComponents.LeanDataPathComponents</text>
</a>
</g>
</g>
<!-- Node2&#45;&gt;Node24 -->
<g id="edge29" class="edge">
<title>Node2&#45;&gt;Node24</title>
<path fill="none" stroke="midnightblue" d="M299.93,-382.99C322.12,-373.16 352.4,-360.59 380,-352 388.7,-349.29 397.87,-346.77 407.06,-344.44"/>
<polygon fill="midnightblue" stroke="midnightblue" points="408.15,-347.78 417.03,-342 406.49,-340.98 408.15,-347.78"/>
</g>
<!-- Node25 -->
<g id="node25" class="node">
<title>Node25</title>
<g id="a_node25"><a xlink:href="classQuantConnect_1_1Securities_1_1Option_1_1OptionSymbol.html#a8cce1d52c1926fdaafbe5aa2e1ee4d29" target="_top" xlink:title="Maps the option ticker to it&#39;s underlying">
<polygon fill="white" stroke="black" points="391,-66 391,-96 600,-96 600,-66 391,-66"/>
<text text-anchor="start" x="399" y="-84" font-family="Helvetica,sans-Serif" font-size="10.00">QuantConnect.Securities.</text>
<text text-anchor="middle" x="495.5" y="-73" font-family="Helvetica,sans-Serif" font-size="10.00">Option.OptionSymbol.MapToUnderlying</text>
</a>
</g>
</g>
<!-- Node2&#45;&gt;Node25 -->
<g id="edge30" class="edge">
<title>Node2&#45;&gt;Node25</title>
<path fill="none" stroke="midnightblue" d="M278.45,-382.71C315.08,-331.55 433.55,-166.12 477.7,-104.46"/>
<polygon fill="midnightblue" stroke="midnightblue" points="480.68,-106.3 483.66,-96.14 474.99,-102.23 480.68,-106.3"/>
</g>
<!-- Node3&#45;&gt;Node4 -->
<g id="edge3" class="edge">
<title>Node3&#45;&gt;Node4</title>
<path fill="none" stroke="midnightblue" d="M510.39,-429.69C533.22,-446.07 579.31,-481.07 611,-518 630.76,-541.02 622.8,-557.7 647,-576 652.46,-580.13 658.48,-583.69 664.77,-586.76"/>
<polygon fill="midnightblue" stroke="midnightblue" points="663.61,-590.08 674.17,-590.92 666.44,-583.68 663.61,-590.08"/>
</g>
<!-- Node5 -->
<g id="node5" class="node">
<title>Node5</title>
<g id="a_node5"><a xlink:href="classQuantConnect_1_1SecurityIdentifier.html#a0c21d7880c9fdd260883d11ea0c99a00" target="_top" xlink:title="Helper overload that will search the mapfiles to resolve the first date. This implementation uses the...">
<polygon fill="white" stroke="black" points="894,-446 894,-476 1068,-476 1068,-446 894,-446"/>
<text text-anchor="start" x="902" y="-464" font-family="Helvetica,sans-Serif" font-size="10.00">QuantConnect.SecurityIdentifier.</text>
<text text-anchor="middle" x="981" y="-453" font-family="Helvetica,sans-Serif" font-size="10.00">GenerateEquity</text>
</a>
</g>
</g>
<!-- Node3&#45;&gt;Node5 -->
<g id="edge16" class="edge">
<title>Node3&#45;&gt;Node5</title>
<path fill="none" stroke="midnightblue" d="M576.03,-415.48C588.38,-412.39 600.51,-407.78 611,-401 635.23,-385.35 621.57,-360.61 647,-347 729.68,-302.75 770.77,-312.59 858,-347 903.99,-365.14 942.85,-409.71 963.67,-437.44"/>
<polygon fill="midnightblue" stroke="midnightblue" points="961.05,-439.79 969.78,-445.79 966.7,-435.66 961.05,-439.79"/>
</g>
<!-- Node6 -->
<g id="node6" class="node">
<title>Node6</title>
<g id="a_node6"><a xlink:href="classQuantConnect_1_1Symbol.html#a59158f74116be3dad0ea0f3f3f134416" target="_top" xlink:title="Initializes a new instance of the Symbol class">
<polygon fill="white" stroke="black" points="898.5,-629.5 898.5,-648.5 1063.5,-648.5 1063.5,-629.5 898.5,-629.5"/>
<text text-anchor="middle" x="981" y="-636.5" font-family="Helvetica,sans-Serif" font-size="10.00">QuantConnect.Symbol.Symbol</text>
</a>
</g>
</g>
<!-- Node3&#45;&gt;Node6 -->
<g id="edge21" class="edge">
<title>Node3&#45;&gt;Node6</title>
<path fill="none" stroke="midnightblue" d="M564.65,-429.56C581.35,-434.6 598.11,-442.29 611,-454 642.58,-482.69 613.95,-516.02 647,-543 720.88,-603.31 767.18,-552.91 858,-582 892.59,-593.08 930.14,-611.71 954.3,-624.64"/>
<polygon fill="midnightblue" stroke="midnightblue" points="952.73,-627.76 963.18,-629.46 956.06,-621.61 952.73,-627.76"/>
</g>
<!-- Node12 -->
<g id="node12" class="node">
<title>Node12</title>
<g id="a_node12"><a xlink:href="classQuantConnect_1_1SecurityIdentifier.html#a02ca750115844561c001c2346fbafc00" target="_top" xlink:title="Generates a new SecurityIdentifier for a custom security with the option of providing the first date">
<polygon fill="white" stroke="black" points="665.5,-219 665.5,-249 839.5,-249 839.5,-219 665.5,-219"/>
<text text-anchor="start" x="673.5" y="-237" font-family="Helvetica,sans-Serif" font-size="10.00">QuantConnect.SecurityIdentifier.</text>
<text text-anchor="middle" x="752.5" y="-226" font-family="Helvetica,sans-Serif" font-size="10.00">GenerateBase</text>
</a>
</g>
</g>
<!-- Node3&#45;&gt;Node12 -->
<g id="edge11" class="edge">
<title>Node3&#45;&gt;Node12</title>
<path fill="none" stroke="midnightblue" d="M576.21,-418.94C589.04,-415.54 601.28,-409.93 611,-401 658.93,-356.93 600.65,-304.73 647,-259 649.94,-256.1 653.16,-253.51 656.57,-251.21"/>
<polygon fill="midnightblue" stroke="midnightblue" points="658.57,-254.1 665.45,-246.04 655.05,-248.05 658.57,-254.1"/>
</g>
<!-- Node14 -->
<g id="node14" class="node">
<title>Node14</title>
<g id="a_node14"><a xlink:href="classQuantConnect_1_1SecurityIdentifier.html#a53953b18d814c5445e4ecdcb3b555080" target="_top" xlink:title="Generates a new SecurityIdentifier for a CFD security">
<polygon fill="white" stroke="black" points="665.5,-268 665.5,-298 839.5,-298 839.5,-268 665.5,-268"/>
<text text-anchor="start" x="673.5" y="-286" font-family="Helvetica,sans-Serif" font-size="10.00">QuantConnect.SecurityIdentifier.</text>
<text text-anchor="middle" x="752.5" y="-275" font-family="Helvetica,sans-Serif" font-size="10.00">GenerateCfd</text>
</a>
</g>
</g>
<!-- Node3&#45;&gt;Node14 -->
<g id="edge13" class="edge">
<title>Node3&#45;&gt;Node14</title>
<path fill="none" stroke="midnightblue" d="M576.1,-417.54C588.72,-414.25 600.92,-409.04 611,-401 644.03,-374.64 615.54,-341.21 647,-313 651.41,-309.04 656.31,-305.61 661.52,-302.62"/>
<polygon fill="midnightblue" stroke="midnightblue" points="663.22,-305.68 670.53,-298.01 660.03,-299.45 663.22,-305.68"/>
</g>
<!-- Node15 -->
<g id="node15" class="node">
<title>Node15</title>
<g id="a_node15"><a xlink:href="classQuantConnect_1_1SecurityIdentifier.html#a5889a95a36ce927dd0a109cbfbcbe663" target="_top" xlink:title="Generates a new SecurityIdentifier for a Crypto pair">
<polygon fill="white" stroke="black" points="665.5,-170 665.5,-200 839.5,-200 839.5,-170 665.5,-170"/>
<text text-anchor="start" x="673.5" y="-188" font-family="Helvetica,sans-Serif" font-size="10.00">QuantConnect.SecurityIdentifier.</text>
<text text-anchor="middle" x="752.5" y="-177" font-family="Helvetica,sans-Serif" font-size="10.00">GenerateCrypto</text>
</a>
</g>
</g>
<!-- Node3&#45;&gt;Node15 -->
<g id="edge14" class="edge">
<title>Node3&#45;&gt;Node15</title>
<path fill="none" stroke="midnightblue" d="M576.09,-419.58C589.09,-416.16 601.42,-410.37 611,-401 672.75,-340.59 587.42,-272.55 647,-210 649.88,-206.97 653.07,-204.28 656.47,-201.89"/>
<polygon fill="midnightblue" stroke="midnightblue" points="658.57,-204.71 665.35,-196.56 654.97,-198.71 658.57,-204.71"/>
</g>
<!-- Node16 -->
<g id="node16" class="node">
<title>Node16</title>
<g id="a_node16"><a xlink:href="classQuantConnect_1_1SecurityIdentifier.html#ac665665a16d5449872fed3427b95a260" target="_top" xlink:title="Generates a new SecurityIdentifier for a CryptoFuture pair">
<polygon fill="white" stroke="black" points="665.5,-503 665.5,-533 839.5,-533 839.5,-503 665.5,-503"/>
<text text-anchor="start" x="673.5" y="-521" font-family="Helvetica,sans-Serif" font-size="10.00">QuantConnect.SecurityIdentifier.</text>
<text text-anchor="middle" x="752.5" y="-510" font-family="Helvetica,sans-Serif" font-size="10.00">GenerateCryptoFuture</text>
</a>
</g>
</g>
<!-- Node3&#45;&gt;Node16 -->
<g id="edge15" class="edge">
<title>Node3&#45;&gt;Node16</title>
<path fill="none" stroke="midnightblue" d="M512.66,-429.51C539.64,-445.02 595.97,-475.87 647,-494 653.31,-496.24 659.9,-498.32 666.58,-500.25"/>
<polygon fill="midnightblue" stroke="midnightblue" points="665.83,-503.68 676.4,-502.96 667.69,-496.93 665.83,-503.68"/>
</g>
<!-- Node17 -->
<g id="node17" class="node">
<title>Node17</title>
<g id="a_node17"><a xlink:href="classQuantConnect_1_1SecurityIdentifier.html#a9cf0d3b208a5171e6112516ce441f18d" target="_top" xlink:title="Generates a new SecurityIdentifier for a forex pair">
<polygon fill="white" stroke="black" points="665.5,-454 665.5,-484 839.5,-484 839.5,-454 665.5,-454"/>
<text text-anchor="start" x="673.5" y="-472" font-family="Helvetica,sans-Serif" font-size="10.00">QuantConnect.SecurityIdentifier.</text>
<text text-anchor="middle" x="752.5" y="-461" font-family="Helvetica,sans-Serif" font-size="10.00">GenerateForex</text>
</a>
</g>
</g>
<!-- Node3&#45;&gt;Node17 -->
<g id="edge17" class="edge">
<title>Node3&#45;&gt;Node17</title>
<path fill="none" stroke="midnightblue" d="M545.97,-429.51C579.22,-435.89 623.96,-444.49 663.22,-452.04"/>
<polygon fill="midnightblue" stroke="midnightblue" points="662.59,-455.48 673.07,-453.93 663.91,-448.6 662.59,-455.48"/>
</g>
<!-- Node18 -->
<g id="node18" class="node">
<title>Node18</title>
<g id="a_node18"><a xlink:href="classQuantConnect_1_1SecurityIdentifier.html#ad50a891c97cb0c084a9e2aa43607ed66" target="_top" xlink:title="Generates a new SecurityIdentifier for a future">
<polygon fill="white" stroke="black" points="665.5,-640 665.5,-670 839.5,-670 839.5,-640 665.5,-640"/>
<text text-anchor="start" x="673.5" y="-658" font-family="Helvetica,sans-Serif" font-size="10.00">QuantConnect.SecurityIdentifier.</text>
<text text-anchor="middle" x="752.5" y="-647" font-family="Helvetica,sans-Serif" font-size="10.00">GenerateFuture</text>
</a>
</g>
</g>
<!-- Node3&#45;&gt;Node18 -->
<g id="edge18" class="edge">
<title>Node3&#45;&gt;Node18</title>
<path fill="none" stroke="midnightblue" d="M500.45,-429.89C514.59,-463.93 566.16,-577.05 647,-631 649.95,-632.97 653.05,-634.78 656.24,-636.45"/>
<polygon fill="midnightblue" stroke="midnightblue" points="654.95,-639.7 665.5,-640.75 657.91,-633.36 654.95,-639.7"/>
</g>
<!-- Node19 -->
<g id="node19" class="node">
<title>Node19</title>
<g id="a_node19"><a xlink:href="classQuantConnect_1_1SecurityIdentifier.html#ade05a8e57b041ab484cf585be8d05699" target="_top" xlink:title="Generates a new SecurityIdentifier for a INDEX security">
<polygon fill="white" stroke="black" points="665.5,-405 665.5,-435 839.5,-435 839.5,-405 665.5,-405"/>
<text text-anchor="start" x="673.5" y="-423" font-family="Helvetica,sans-Serif" font-size="10.00">QuantConnect.SecurityIdentifier.</text>
<text text-anchor="middle" x="752.5" y="-412" font-family="Helvetica,sans-Serif" font-size="10.00">GenerateIndex</text>
</a>
</g>
</g>
<!-- Node3&#45;&gt;Node19 -->
<g id="edge19" class="edge">
<title>Node3&#45;&gt;Node19</title>
<path fill="none" stroke="midnightblue" d="M576.13,-420C601.16,-420 629.07,-420 655.13,-420"/>
<polygon fill="midnightblue" stroke="midnightblue" points="655.4,-423.5 665.4,-420 655.39,-416.5 655.4,-423.5"/>
</g>
<!-- Node20 -->
<g id="node20" class="node">
<title>Node20</title>
<g id="a_node20"><a xlink:href="classQuantConnect_1_1Messages_1_1Symbol.html#ab801bef52a308b8ba7ba6d42e1ef1988" target="_top" xlink:title="Returns a string message saying the given security type has not been implemented yet">
<polygon fill="white" stroke="black" points="662.5,-356 662.5,-386 842.5,-386 842.5,-356 662.5,-356"/>
<text text-anchor="start" x="670.5" y="-374" font-family="Helvetica,sans-Serif" font-size="10.00">QuantConnect.Messages.Symbol.</text>
<text text-anchor="middle" x="752.5" y="-363" font-family="Helvetica,sans-Serif" font-size="10.00">SecurityTypeNotImplementedYet</text>
</a>
</g>
</g>
<!-- Node3&#45;&gt;Node20 -->
<g id="edge20" class="edge">
<title>Node3&#45;&gt;Node20</title>
<path fill="none" stroke="midnightblue" d="M557.2,-410.46C574.6,-407.58 593.58,-404.3 611,-401 631.53,-397.11 653.68,-392.55 674.18,-388.18"/>
<polygon fill="midnightblue" stroke="midnightblue" points="675.05,-391.57 684.09,-386.05 673.58,-384.72 675.05,-391.57"/>
</g>
<!-- Node4&#45;&gt;Node5 -->
<g id="edge4" class="edge">
<title>Node4&#45;&gt;Node5</title>
<path fill="none" stroke="midnightblue" d="M779.48,-590.82C800.76,-578.27 831.56,-559.84 858,-543 889.63,-522.85 925.15,-498.82 949.67,-481.99"/>
<polygon fill="midnightblue" stroke="midnightblue" points="951.92,-484.69 958.18,-476.14 947.95,-478.92 951.92,-484.69"/>
</g>
<!-- Node4&#45;&gt;Node6 -->
<g id="edge5" class="edge">
<title>Node4&#45;&gt;Node6</title>
<path fill="none" stroke="midnightblue" d="M833.04,-617.59C856.24,-620.97 881.53,-624.65 904.48,-628"/>
<polygon fill="midnightblue" stroke="midnightblue" points="904.1,-631.48 914.5,-629.46 905.11,-624.55 904.1,-631.48"/>
</g>
<!-- Node7 -->
<g id="node7" class="node">
<title>Node7</title>
<g id="a_node7"><a xlink:href="classQuantConnect_1_1Symbol.html#a59b0795fa21f46c306deb5576fa03bb9" target="_top" xlink:title="Centralized helper method to resolve alias for a symbol">
<polygon fill="white" stroke="black" points="1104,-694.5 1104,-713.5 1274,-713.5 1274,-694.5 1104,-694.5"/>
<text text-anchor="middle" x="1189" y="-701.5" font-family="Helvetica,sans-Serif" font-size="10.00">QuantConnect.Symbol.GetAlias</text>
</a>
</g>
</g>
<!-- Node6&#45;&gt;Node7 -->
<g id="edge6" class="edge">
<title>Node6&#45;&gt;Node7</title>
<path fill="none" stroke="midnightblue" d="M1012.4,-648.59C1048.4,-659.95 1108.5,-678.91 1148.19,-691.44"/>
<polygon fill="midnightblue" stroke="midnightblue" points="1147.23,-694.8 1157.81,-694.48 1149.33,-688.13 1147.23,-694.8"/>
</g>
<!-- Node8 -->
<g id="node8" class="node">
<title>Node8</title>
<g id="a_node8"><a xlink:href="classQuantConnect_1_1SymbolRepresentation.html#ad43ac907f6c19083821f58f21c6de017" target="_top" xlink:title="Returns future symbol ticker from underlying and expiration date. Function can generate tickers of tw...">
<polygon fill="white" stroke="black" points="1310,-717 1310,-747 1513,-747 1513,-717 1310,-717"/>
<text text-anchor="start" x="1318" y="-735" font-family="Helvetica,sans-Serif" font-size="10.00">QuantConnect.SymbolRepresentation.</text>
<text text-anchor="middle" x="1411.5" y="-724" font-family="Helvetica,sans-Serif" font-size="10.00">GenerateFutureTicker</text>
</a>
</g>
</g>
<!-- Node7&#45;&gt;Node8 -->
<g id="edge7" class="edge">
<title>Node7&#45;&gt;Node8</title>
<path fill="none" stroke="midnightblue" d="M1264.96,-713.52C1276.27,-714.96 1288.14,-716.46 1300.01,-717.97"/>
<polygon fill="midnightblue" stroke="midnightblue" points="1299.62,-721.45 1309.98,-719.24 1300.5,-714.5 1299.62,-721.45"/>
</g>
<!-- Node10 -->
<g id="node10" class="node">
<title>Node10</title>
<g id="a_node10"><a xlink:href="classQuantConnect_1_1SymbolRepresentation.html#ab133044f5cf8c16e700190a2202b215e" target="_top" xlink:title="Returns option symbol ticker in accordance with OSI symbology More information can be found at http:/...">
<polygon fill="white" stroke="black" points="1310,-665 1310,-695 1513,-695 1513,-665 1310,-665"/>
<text text-anchor="start" x="1318" y="-683" font-family="Helvetica,sans-Serif" font-size="10.00">QuantConnect.SymbolRepresentation.</text>
<text text-anchor="middle" x="1411.5" y="-672" font-family="Helvetica,sans-Serif" font-size="10.00">GenerateOptionTickerOSI</text>
</a>
</g>
</g>
<!-- Node7&#45;&gt;Node10 -->
<g id="edge9" class="edge">
<title>Node7&#45;&gt;Node10</title>
<path fill="none" stroke="midnightblue" d="M1274.31,-694.82C1282.69,-693.91 1291.3,-692.97 1299.9,-692.04"/>
<polygon fill="midnightblue" stroke="midnightblue" points="1300.43,-695.5 1309.99,-690.94 1299.67,-688.54 1300.43,-695.5"/>
</g>
<!-- Node9 -->
<g id="node9" class="node">
<title>Node9</title>
<g id="a_node9"><a xlink:href="classQuantConnect_1_1Securities_1_1Future_1_1FuturesExpiryUtilityFunctions.html#a4ccb1e2f2fe40ff09785a74a02f26df1" target="_top" xlink:title="Gets the number of months between the contract month and the expiry date.">
<polygon fill="white" stroke="black" points="1549,-714.5 1549,-755.5 1815,-755.5 1815,-714.5 1549,-714.5"/>
<text text-anchor="start" x="1557" y="-743.5" font-family="Helvetica,sans-Serif" font-size="10.00">QuantConnect.Securities.</text>
<text text-anchor="start" x="1557" y="-732.5" font-family="Helvetica,sans-Serif" font-size="10.00">Future.FuturesExpiryUtilityFunctions.</text>
<text text-anchor="middle" x="1682" y="-721.5" font-family="Helvetica,sans-Serif" font-size="10.00">GetDeltaBetweenContractMonthAndContractExpiry</text>
</a>
</g>
</g>
<!-- Node8&#45;&gt;Node9 -->
<g id="edge8" class="edge">
<title>Node8&#45;&gt;Node9</title>
<path fill="none" stroke="midnightblue" d="M1513.24,-733.13C1521.59,-733.22 1530.11,-733.31 1538.68,-733.41"/>
<polygon fill="midnightblue" stroke="midnightblue" points="1538.72,-736.91 1548.76,-733.52 1538.8,-729.91 1538.72,-736.91"/>
</g>
<!-- Node11 -->
<g id="node11" class="node">
<title>Node11</title>
<g id="a_node11"><a xlink:href="classQuantConnect_1_1Messages_1_1SymbolRepresentation.html#a2c514157d8055cfa271ea3a7ca1ccde7" target="_top" xlink:title="Returns a string message saying an unexpected security type was received by the given method name">
<polygon fill="white" stroke="black" points="1586,-654.5 1586,-695.5 1778,-695.5 1778,-654.5 1586,-654.5"/>
<text text-anchor="start" x="1594" y="-683.5" font-family="Helvetica,sans-Serif" font-size="10.00">QuantConnect.Messages.Symbol</text>
<text text-anchor="start" x="1594" y="-672.5" font-family="Helvetica,sans-Serif" font-size="10.00">Representation.UnexpectedSecurity</text>
<text text-anchor="middle" x="1682" y="-661.5" font-family="Helvetica,sans-Serif" font-size="10.00">TypeForMethod</text>
</a>
</g>
</g>
<!-- Node10&#45;&gt;Node11 -->
<g id="edge10" class="edge">
<title>Node10&#45;&gt;Node11</title>
<path fill="none" stroke="midnightblue" d="M1513.24,-678.12C1533.7,-677.74 1555.27,-677.34 1575.88,-676.96"/>
<polygon fill="midnightblue" stroke="midnightblue" points="1575.98,-680.46 1585.91,-676.77 1575.85,-673.46 1575.98,-680.46"/>
</g>
<!-- Node13 -->
<g id="node13" class="node">
<title>Node13</title>
<g id="a_node13"><a xlink:href="classQuantConnect_1_1SecurityIdentifier.html#a19e1f9da410608020d74ed9e7d283575" target="_top" xlink:title="Generates the Symbol property for QuantConnect.SecurityType.Base security identifiers">
<polygon fill="white" stroke="black" points="894,-219 894,-249 1068,-249 1068,-219 894,-219"/>
<text text-anchor="start" x="902" y="-237" font-family="Helvetica,sans-Serif" font-size="10.00">QuantConnect.SecurityIdentifier.</text>
<text text-anchor="middle" x="981" y="-226" font-family="Helvetica,sans-Serif" font-size="10.00">GenerateBaseSymbol</text>
</a>
</g>
</g>
<!-- Node12&#45;&gt;Node13 -->
<g id="edge12" class="edge">
<title>Node12&#45;&gt;Node13</title>
<path fill="none" stroke="midnightblue" d="M839.78,-234C854.2,-234 869.24,-234 883.9,-234"/>
<polygon fill="midnightblue" stroke="midnightblue" points="883.96,-237.5 893.96,-234 883.96,-230.5 883.96,-237.5"/>
</g>
<!-- Node21&#45;&gt;Node6 -->
<g id="edge25" class="edge">
<title>Node21&#45;&gt;Node6</title>
<path fill="none" stroke="midnightblue" d="M576.08,-685.36C649.72,-691.29 761.99,-695.7 858,-680 889.98,-674.77 924.88,-662.31 949.12,-652.49"/>
<polygon fill="midnightblue" stroke="midnightblue" points="950.6,-655.66 958.51,-648.6 947.93,-649.19 950.6,-655.66"/>
</g>
<!-- Node21&#45;&gt;Node7 -->
<g id="edge24" class="edge">
<title>Node21&#45;&gt;Node7</title>
<path fill="none" stroke="midnightblue" d="M576.33,-690.73C599.09,-694.08 623.96,-697.22 647,-699 803.27,-711.09 985.67,-709.54 1093.75,-707"/>
<polygon fill="midnightblue" stroke="midnightblue" points="1094.06,-710.49 1103.97,-706.75 1093.89,-703.5 1094.06,-710.49"/>
</g>
<!-- Node21&#45;&gt;Node18 -->
<g id="edge23" class="edge">
<title>Node21&#45;&gt;Node18</title>
<path fill="none" stroke="midnightblue" d="M576.13,-670.13C601.16,-667.97 629.07,-665.56 655.13,-663.31"/>
<polygon fill="midnightblue" stroke="midnightblue" points="655.73,-666.78 665.4,-662.43 655.13,-659.8 655.73,-666.78"/>
</g>
<!-- Node23 -->
<g id="node23" class="node">
<title>Node23</title>
<g id="a_node23"><a xlink:href="classQuantConnect_1_1Messages_1_1Symbol.html#aca1b191a6d0c88e8d403b617bf63ff16" target="_top" xlink:title="Returns a string message saying no underlying type exists for the given option SecurityType">
<polygon fill="white" stroke="black" points="662.5,-121 662.5,-151 842.5,-151 842.5,-121 662.5,-121"/>
<text text-anchor="start" x="670.5" y="-139" font-family="Helvetica,sans-Serif" font-size="10.00">QuantConnect.Messages.Symbol.</text>
<text text-anchor="middle" x="752.5" y="-128" font-family="Helvetica,sans-Serif" font-size="10.00">NoUnderlyingForOption</text>
</a>
</g>
</g>
<!-- Node22&#45;&gt;Node23 -->
<g id="edge28" class="edge">
<title>Node22&#45;&gt;Node23</title>
<path fill="none" stroke="midnightblue" d="M595.1,-363.99C600.92,-360.74 606.31,-356.79 611,-352 671.46,-290.3 587.42,-223.55 647,-161 649.11,-158.78 651.38,-156.75 653.78,-154.88"/>
<polygon fill="midnightblue" stroke="midnightblue" points="656,-157.61 662.39,-149.16 652.13,-151.78 656,-157.61"/>
</g>
<!-- Node26 -->
<g id="node26" class="node">
<title>Node26</title>
<g id="a_node26"><a xlink:href="classQuantConnect_1_1Securities_1_1Future_1_1FuturesOptionsSymbolMappings.html#a739feea1e5e726c78e75fd6c58fa2d5e" target="_top" xlink:title="Maps a futures options ticker to its underlying future&#39;s ticker">
<polygon fill="white" stroke="black" points="647,-60.5 647,-101.5 858,-101.5 858,-60.5 647,-60.5"/>
<text text-anchor="start" x="655" y="-89.5" font-family="Helvetica,sans-Serif" font-size="10.00">QuantConnect.Securities.</text>
<text text-anchor="start" x="655" y="-78.5" font-family="Helvetica,sans-Serif" font-size="10.00">Future.FuturesOptionsSymbolMappings.</text>
<text text-anchor="middle" x="752.5" y="-67.5" font-family="Helvetica,sans-Serif" font-size="10.00">MapFromOption</text>
</a>
</g>
</g>
<!-- Node25&#45;&gt;Node26 -->
<g id="edge31" class="edge">
<title>Node25&#45;&gt;Node26</title>
<path fill="none" stroke="midnightblue" d="M600.22,-81C612.18,-81 624.42,-81 636.52,-81"/>
<polygon fill="midnightblue" stroke="midnightblue" points="636.63,-84.5 646.63,-81 636.63,-77.5 636.63,-84.5"/>
</g>
<!-- Node27 -->
<g id="node27" class="node">
<title>Node27</title>
<g id="a_node27"><a xlink:href="classQuantConnect_1_1Securities_1_1IndexOption_1_1IndexOptionSymbol.html#ac516ce6e5976b125793890b240532f0a" target="_top" xlink:title="Maps an index option ticker to its underlying index ticker">
<polygon fill="white" stroke="black" points="663.5,-0.5 663.5,-41.5 841.5,-41.5 841.5,-0.5 663.5,-0.5"/>
<text text-anchor="start" x="671.5" y="-29.5" font-family="Helvetica,sans-Serif" font-size="10.00">QuantConnect.Securities.</text>
<text text-anchor="start" x="671.5" y="-18.5" font-family="Helvetica,sans-Serif" font-size="10.00">IndexOption.IndexOptionSymbol.</text>
<text text-anchor="middle" x="752.5" y="-7.5" font-family="Helvetica,sans-Serif" font-size="10.00">MapToUnderlying</text>
</a>
</g>
</g>
<!-- Node25&#45;&gt;Node27 -->
<g id="edge32" class="edge">
<title>Node25&#45;&gt;Node27</title>
<path fill="none" stroke="midnightblue" d="M560.52,-65.94C588.87,-59.27 622.85,-51.27 654.24,-43.89"/>
<polygon fill="midnightblue" stroke="midnightblue" points="655.39,-47.21 664.33,-41.51 653.79,-40.39 655.39,-47.21"/>
</g>
</g>
</svg>
        <g id="navigator" transform="translate(0 0)" fill="#404254">
                <rect fill="#f2f5e9" fill-opacity="0.5" stroke="#606060" stroke-width=".5" x="0" y="0" width="60" height="60"/>
                <use id="zoomplus" xlink:href="#zoomPlus" x="17" y="9" onmousedown="handleZoom(evt,'in')"/>
                <use id="zoomminus" xlink:href="#zoomMin" x="42" y="9" onmousedown="handleZoom(evt,'out')"/>
                <use id="reset" xlink:href="#resetDef" x="30" y="36" onmousedown="handleReset()"/>
                <g id="arrowUp" xlink:href="#dirArrow" transform="translate(30 24)" onmousedown="handlePan(0,-1)">
                  <use xlink:href="#rim" fill="#404040">
                        <set attributeName="fill" to="#808080" begin="arrowUp.mouseover" end="arrowUp.mouseout"/>
                  </use>
                  <path fill="none" stroke="white" stroke-width="1.5" d="M0,-3.0v7 M-2.5,-0.5L0,-3.0L2.5,-0.5"/>
                </g>
                <g id="arrowRight" xlink:href="#dirArrow" transform="rotate(90) translate(36 -43)" onmousedown="handlePan(1,0)">
                  <use xlink:href="#rim" fill="#404040">
                        <set attributeName="fill" to="#808080" begin="arrowRight.mouseover" end="arrowRight.mouseout"/>
                  </use>
                  <path fill="none" stroke="white" stroke-width="1.5" d="M0,-3.0v7 M-2.5,-0.5L0,-3.0L2.5,-0.5"/>
                </g>
                <g id="arrowDown" xlink:href="#dirArrow" transform="rotate(180) translate(-30 -48)" onmousedown="handlePan(0,1)">
                  <use xlink:href="#rim" fill="#404040">
                        <set attributeName="fill" to="#808080" begin="arrowDown.mouseover" end="arrowDown.mouseout"/>
                  </use>
                  <path fill="none" stroke="white" stroke-width="1.5" d="M0,-3.0v7 M-2.5,-0.5L0,-3.0L2.5,-0.5"/>
                </g>
                <g id="arrowLeft" xlink:href="#dirArrow" transform="rotate(270) translate(-36 17)" onmousedown="handlePan(-1,0)">
                  <use xlink:href="#rim" fill="#404040">
                        <set attributeName="fill" to="#808080" begin="arrowLeft.mouseover" end="arrowLeft.mouseout"/>
                  </use>
                  <path fill="none" stroke="white" stroke-width="1.5" d="M0,-3.0v7 M-2.5,-0.5L0,-3.0L2.5,-0.5"/>
                </g>
        </g>
        <svg viewBox="0 0 15 15" width="100%" height="30px" preserveAspectRatio="xMaxYMin meet">
         <g id="arrow_out" transform="scale(0.3 0.3)">
          <a xlink:href="classQuantConnect_1_1ToolBox_1_1LeanParser_abd1bb9fca7f05ea516d50523b8218593_cgraph_org.svg" target="_base">
           <rect id="button" ry="5" rx="5" y="6" x="6" height="38" width="38"
                fill="#f2f5e9" fill-opacity="0.5" stroke="#606060" stroke-width="1.0"/>
           <path id="arrow"
             d="M 11.500037,31.436501 C 11.940474,20.09759 22.043105,11.32322 32.158766,21.979434 L 37.068811,17.246167 C 37.068811,17.246167 37.088388,32 37.088388,32 L 22.160133,31.978069 C 22.160133,31.978069 26.997745,27.140456 26.997745,27.140456 C 18.528582,18.264221 13.291696,25.230495 11.500037,31.436501 z"
             style="fill:#404040;"/>
          </a>
         </g>
        </svg>
</svg>
