<?xml version="1.0" encoding="UTF-8" standalone="no"?>
<!DOCTYPE svg PUBLIC "-//W3C//DTD SVG 1.1//EN"
 "http://www.w3.org/Graphics/SVG/1.1/DTD/svg11.dtd">
<!-- Generated by graphviz version 2.43.0 (0)
 -->
<!-- Title: QuantConnect.Lean.Engine.DataFeeds.Enumerators.ScheduledEnumerator.MoveNext Pages: 1 -->
<svg width="773pt" height="50pt"
 viewBox="0.00 0.00 773.00 50.00" xmlns="http://www.w3.org/2000/svg" xmlns:xlink="http://www.w3.org/1999/xlink">
<g id="graph0" class="graph" transform="scale(1 1) rotate(0) translate(4 46)">
<title>QuantConnect.Lean.Engine.DataFeeds.Enumerators.ScheduledEnumerator.MoveNext</title>
<polygon fill="white" stroke="transparent" points="-4,4 -4,-46 769,-46 769,4 -4,4"/>
<!-- Node1 -->
<g id="node1" class="node">
<title>Node1</title>
<g id="a_node1"><a xlink:title="Advances the enumerator to the next element of the collection.">
<polygon fill="#bfbfbf" stroke="black" points="0,-0.5 0,-41.5 187,-41.5 187,-0.5 0,-0.5"/>
<text text-anchor="start" x="8" y="-29.5" font-family="Helvetica,sans-Serif" font-size="10.00">QuantConnect.Lean.Engine.</text>
<text text-anchor="start" x="8" y="-18.5" font-family="Helvetica,sans-Serif" font-size="10.00">DataFeeds.Enumerators.Scheduled</text>
<text text-anchor="middle" x="93.5" y="-7.5" font-family="Helvetica,sans-Serif" font-size="10.00">Enumerator.MoveNext</text>
</a>
</g>
</g>
<!-- Node2 -->
<g id="node2" class="node">
<title>Node2</title>
<g id="a_node2"><a xlink:href="classQuantConnect_1_1Data_1_1BaseData.html#af8622cdfef34470fda9fd08d2f4c02b7" target="_top" xlink:title="Return a new instance clone of this object, used in fill forward">
<polygon fill="white" stroke="black" points="223,-6 223,-36 388,-36 388,-6 223,-6"/>
<text text-anchor="start" x="231" y="-24" font-family="Helvetica,sans-Serif" font-size="10.00">QuantConnect.Data.BaseData.</text>
<text text-anchor="middle" x="305.5" y="-13" font-family="Helvetica,sans-Serif" font-size="10.00">Clone</text>
</a>
</g>
</g>
<!-- Node1&#45;&gt;Node2 -->
<g id="edge1" class="edge">
<title>Node1&#45;&gt;Node2</title>
<path fill="none" stroke="midnightblue" d="M187.22,-21C195.66,-21 204.2,-21 212.63,-21"/>
<polygon fill="midnightblue" stroke="midnightblue" points="212.84,-24.5 222.84,-21 212.84,-17.5 212.84,-24.5"/>
</g>
<!-- Node3 -->
<g id="node3" class="node">
<title>Node3</title>
<g id="a_node3"><a xlink:href="classQuantConnect_1_1Data_1_1BaseData.html#af973f9d8b7c0726fed42fa03ccd5f963" target="_top" xlink:title="Return a new instance clone of this object, used in fill forward">
<polygon fill="white" stroke="black" points="424,-6 424,-36 589,-36 589,-6 424,-6"/>
<text text-anchor="start" x="432" y="-24" font-family="Helvetica,sans-Serif" font-size="10.00">QuantConnect.Data.BaseData.</text>
<text text-anchor="middle" x="506.5" y="-13" font-family="Helvetica,sans-Serif" font-size="10.00">Clone</text>
</a>
</g>
</g>
<!-- Node2&#45;&gt;Node3 -->
<g id="edge2" class="edge">
<title>Node2&#45;&gt;Node3</title>
<path fill="none" stroke="midnightblue" d="M388.02,-21C396.5,-21 405.17,-21 413.76,-21"/>
<polygon fill="midnightblue" stroke="midnightblue" points="413.79,-24.5 423.79,-21 413.79,-17.5 413.79,-24.5"/>
</g>
<!-- Node4 -->
<g id="node4" class="node">
<title>Node4</title>
<g id="a_node4"><a xlink:href="classQuantConnect_1_1Util_1_1ObjectActivator.html#abcd1c91f67b9d78743601743d663cd10" target="_top" xlink:title="Clones the specified instance using reflection">
<polygon fill="white" stroke="black" points="625,-6 625,-36 765,-36 765,-6 625,-6"/>
<text text-anchor="start" x="633" y="-24" font-family="Helvetica,sans-Serif" font-size="10.00">QuantConnect.Util.Object</text>
<text text-anchor="middle" x="695" y="-13" font-family="Helvetica,sans-Serif" font-size="10.00">Activator.Clone</text>
</a>
</g>
</g>
<!-- Node3&#45;&gt;Node4 -->
<g id="edge3" class="edge">
<title>Node3&#45;&gt;Node4</title>
<path fill="none" stroke="midnightblue" d="M589.03,-21C597.53,-21 606.17,-21 614.64,-21"/>
<polygon fill="midnightblue" stroke="midnightblue" points="614.88,-24.5 624.88,-21 614.88,-17.5 614.88,-24.5"/>
</g>
</g>
</svg>
