<?xml version="1.0" encoding="UTF-8" standalone="no"?>
<!DOCTYPE svg PUBLIC "-//W3C//DTD SVG 1.1//EN"
 "http://www.w3.org/Graphics/SVG/1.1/DTD/svg11.dtd">
<!-- Generated by graphviz version 2.43.0 (0)
 -->
<!-- Title: QuantConnect.Python.MarginInterestRateModelPythonWrapper Pages: 1 -->
<svg width="328pt" height="106pt"
 viewBox="0.00 0.00 327.50 106.00" xmlns="http://www.w3.org/2000/svg" xmlns:xlink="http://www.w3.org/1999/xlink">
<g id="graph0" class="graph" transform="scale(1 1) rotate(0) translate(4 102)">
<title>QuantConnect.Python.MarginInterestRateModelPythonWrapper</title>
<polygon fill="white" stroke="transparent" points="-4,4 -4,-102 323.5,-102 323.5,4 -4,4"/>
<!-- Node1 -->
<g id="node1" class="node">
<title>Node1</title>
<g id="a_node1"><a xlink:title="Wraps a PyObject object that represents a security&#39;s margin interest rate model">
<polygon fill="#bfbfbf" stroke="black" points="72,-0.5 72,-30.5 254,-30.5 254,-0.5 72,-0.5"/>
<text text-anchor="start" x="80" y="-18.5" font-family="Helvetica,sans-Serif" font-size="10.00">QuantConnect.Python.Margin</text>
<text text-anchor="middle" x="163" y="-7.5" font-family="Helvetica,sans-Serif" font-size="10.00">InterestRateModelPythonWrapper</text>
</a>
</g>
</g>
<!-- Node2 -->
<g id="node2" class="node">
<title>Node2</title>
<g id="a_node2"><a xlink:href="classQuantConnect_1_1Python_1_1BasePythonWrapper.html" target="_top" xlink:title=" ">
<polygon fill="white" stroke="black" points="0,-67.5 0,-97.5 158,-97.5 158,-67.5 0,-67.5"/>
<text text-anchor="start" x="8" y="-85.5" font-family="Helvetica,sans-Serif" font-size="10.00">BasePythonWrapper&lt;</text>
<text text-anchor="middle" x="79" y="-74.5" font-family="Helvetica,sans-Serif" font-size="10.00"> IMarginInterestRateModel &gt;</text>
</a>
</g>
</g>
<!-- Node2&#45;&gt;Node1 -->
<g id="edge1" class="edge">
<title>Node2&#45;&gt;Node1</title>
<path fill="none" stroke="midnightblue" d="M105.28,-61.17C118.12,-51.23 133.26,-39.51 144.81,-30.58"/>
<polygon fill="midnightblue" stroke="midnightblue" points="102.99,-58.51 97.23,-67.4 107.28,-64.04 102.99,-58.51"/>
</g>
<!-- Node3 -->
<g id="node3" class="node">
<title>Node3</title>
<g id="a_node3"><a xlink:href="interfaceQuantConnect_1_1Securities_1_1IMarginInterestRateModel.html" target="_top" xlink:title="The responsability of this model is to apply margin interest rate cash flows to the portfolio">
<polygon fill="white" stroke="black" points="176.5,-73 176.5,-92 319.5,-92 319.5,-73 176.5,-73"/>
<text text-anchor="middle" x="248" y="-80" font-family="Helvetica,sans-Serif" font-size="10.00">IMarginInterestRateModel</text>
</a>
</g>
</g>
<!-- Node3&#45;&gt;Node1 -->
<g id="edge2" class="edge">
<title>Node3&#45;&gt;Node1</title>
<path fill="none" stroke="midnightblue" d="M228.44,-66.54C214.29,-55.73 195.3,-41.2 181.42,-30.59"/>
<polygon fill="midnightblue" stroke="midnightblue" points="226.47,-69.44 236.54,-72.73 230.72,-63.88 226.47,-69.44"/>
</g>
</g>
</svg>
