<?xml version="1.0" encoding="UTF-8" standalone="no"?>
<!DOCTYPE svg PUBLIC "-//W3C//DTD SVG 1.1//EN"
 "http://www.w3.org/Graphics/SVG/1.1/DTD/svg11.dtd">
<!-- Generated by graphviz version 2.43.0 (0)
 -->
<!-- Title: QuantConnect.Algorithm.QCAlgorithm.FilteredIdentity Pages: 1 -->
<svg width="1156pt" height="161pt"
 viewBox="0.00 0.00 1156.00 161.00" xmlns="http://www.w3.org/2000/svg" xmlns:xlink="http://www.w3.org/1999/xlink">
<g id="graph0" class="graph" transform="scale(1 1) rotate(0) translate(4 157)">
<title>QuantConnect.Algorithm.QCAlgorithm.FilteredIdentity</title>
<polygon fill="white" stroke="transparent" points="-4,4 -4,-157 1152,-157 1152,4 -4,4"/>
<!-- Node1 -->
<g id="node1" class="node">
<title>Node1</title>
<g id="a_node1"><a xlink:title="Creates a new FilteredIdentity indicator for the symbol The indicator will be automatically updated o...">
<polygon fill="#bfbfbf" stroke="black" points="0,-73.5 0,-103.5 205,-103.5 205,-73.5 0,-73.5"/>
<text text-anchor="start" x="8" y="-91.5" font-family="Helvetica,sans-Serif" font-size="10.00">QuantConnect.Algorithm.QCAlgorithm.</text>
<text text-anchor="middle" x="102.5" y="-80.5" font-family="Helvetica,sans-Serif" font-size="10.00">FilteredIdentity</text>
</a>
</g>
</g>
<!-- Node2 -->
<g id="node2" class="node">
<title>Node2</title>
<g id="a_node2"><a xlink:href="classQuantConnect_1_1Algorithm_1_1QCAlgorithm.html#a46d89a30b7e0513cf7a4ac77f3ca3fe5" target="_top" xlink:title="Creates a new name for an indicator created with the convenience functions (SMA, EMA,...">
<polygon fill="white" stroke="black" points="241,-122.5 241,-152.5 446,-152.5 446,-122.5 241,-122.5"/>
<text text-anchor="start" x="249" y="-140.5" font-family="Helvetica,sans-Serif" font-size="10.00">QuantConnect.Algorithm.QCAlgorithm.</text>
<text text-anchor="middle" x="343.5" y="-129.5" font-family="Helvetica,sans-Serif" font-size="10.00">CreateIndicatorName</text>
</a>
</g>
</g>
<!-- Node1&#45;&gt;Node2 -->
<g id="edge1" class="edge">
<title>Node1&#45;&gt;Node2</title>
<path fill="none" stroke="midnightblue" d="M176.83,-103.53C202.87,-108.87 232.36,-114.92 259.18,-120.42"/>
<polygon fill="midnightblue" stroke="midnightblue" points="258.81,-123.91 269.31,-122.49 260.21,-117.06 258.81,-123.91"/>
</g>
<!-- Node3 -->
<g id="node3" class="node">
<title>Node3</title>
<g id="a_node3"><a xlink:href="classQuantConnect_1_1Algorithm_1_1QCAlgorithm.html#a6e1523a6f1bc7806ae47956d544bdb2a" target="_top" xlink:title="Creates a new FilteredIdentity indicator for the symbol The indicator will be automatically updated o...">
<polygon fill="white" stroke="black" points="241,-73.5 241,-103.5 446,-103.5 446,-73.5 241,-73.5"/>
<text text-anchor="start" x="249" y="-91.5" font-family="Helvetica,sans-Serif" font-size="10.00">QuantConnect.Algorithm.QCAlgorithm.</text>
<text text-anchor="middle" x="343.5" y="-80.5" font-family="Helvetica,sans-Serif" font-size="10.00">FilteredIdentity</text>
</a>
</g>
</g>
<!-- Node1&#45;&gt;Node3 -->
<g id="edge2" class="edge">
<title>Node1&#45;&gt;Node3</title>
<path fill="none" stroke="midnightblue" d="M205.2,-88.5C213.7,-88.5 222.31,-88.5 230.87,-88.5"/>
<polygon fill="midnightblue" stroke="midnightblue" points="230.89,-92 240.89,-88.5 230.89,-85 230.89,-92"/>
</g>
<!-- Node4 -->
<g id="node4" class="node">
<title>Node4</title>
<g id="a_node4"><a xlink:href="classQuantConnect_1_1Algorithm_1_1QCAlgorithm.html#a918f318ce76cdc3ed9efad235ff7481e" target="_top" xlink:title="Creates and registers a new consolidator to receive automatic updates at the specified resolution as ...">
<polygon fill="white" stroke="black" points="241,-24.5 241,-54.5 446,-54.5 446,-24.5 241,-24.5"/>
<text text-anchor="start" x="249" y="-42.5" font-family="Helvetica,sans-Serif" font-size="10.00">QuantConnect.Algorithm.QCAlgorithm.</text>
<text text-anchor="middle" x="343.5" y="-31.5" font-family="Helvetica,sans-Serif" font-size="10.00">RegisterIndicator</text>
</a>
</g>
</g>
<!-- Node1&#45;&gt;Node4 -->
<g id="edge3" class="edge">
<title>Node1&#45;&gt;Node4</title>
<path fill="none" stroke="midnightblue" d="M176.83,-73.47C202.87,-68.13 232.36,-62.08 259.18,-56.58"/>
<polygon fill="midnightblue" stroke="midnightblue" points="260.21,-59.94 269.31,-54.51 258.81,-53.09 260.21,-59.94"/>
</g>
<!-- Node5 -->
<g id="node5" class="node">
<title>Node5</title>
<g id="a_node5"><a xlink:href="classQuantConnect_1_1Algorithm_1_1QCAlgorithm.html#ade17e71e20d320dc9a1efa3ddf8aa3cd" target="_top" xlink:title="Gets the default consolidator for the specified symbol and resolution">
<polygon fill="white" stroke="black" points="482,-24.5 482,-54.5 687,-54.5 687,-24.5 482,-24.5"/>
<text text-anchor="start" x="490" y="-42.5" font-family="Helvetica,sans-Serif" font-size="10.00">QuantConnect.Algorithm.QCAlgorithm.</text>
<text text-anchor="middle" x="584.5" y="-31.5" font-family="Helvetica,sans-Serif" font-size="10.00">ResolveConsolidator</text>
</a>
</g>
</g>
<!-- Node4&#45;&gt;Node5 -->
<g id="edge4" class="edge">
<title>Node4&#45;&gt;Node5</title>
<path fill="none" stroke="midnightblue" d="M446.2,-39.5C454.7,-39.5 463.31,-39.5 471.87,-39.5"/>
<polygon fill="midnightblue" stroke="midnightblue" points="471.89,-43 481.89,-39.5 471.89,-36 471.89,-43"/>
</g>
<!-- Node6 -->
<g id="node6" class="node">
<title>Node6</title>
<g id="a_node6"><a xlink:href="classQuantConnect_1_1Algorithm_1_1QCAlgorithm.html#a656b1f8da059abe31170845a61834a09" target="_top" xlink:title="Creates a new consolidator for the specified period, generating the requested output type.">
<polygon fill="white" stroke="black" points="736,-49.5 736,-79.5 941,-79.5 941,-49.5 736,-49.5"/>
<text text-anchor="start" x="744" y="-67.5" font-family="Helvetica,sans-Serif" font-size="10.00">QuantConnect.Algorithm.QCAlgorithm.</text>
<text text-anchor="middle" x="838.5" y="-56.5" font-family="Helvetica,sans-Serif" font-size="10.00">CreateConsolidator</text>
</a>
</g>
</g>
<!-- Node5&#45;&gt;Node6 -->
<g id="edge5" class="edge">
<title>Node5&#45;&gt;Node6</title>
<path fill="none" stroke="midnightblue" d="M687.27,-49.6C699.88,-50.85 712.83,-52.13 725.58,-53.4"/>
<polygon fill="midnightblue" stroke="midnightblue" points="725.46,-56.9 735.76,-54.41 726.15,-49.94 725.46,-56.9"/>
</g>
<!-- Node7 -->
<g id="node7" class="node">
<title>Node7</title>
<g id="a_node7"><a xlink:href="classQuantConnect_1_1Util_1_1LeanData.html#adf1799b921849e0643385e6794ec2471" target="_top" xlink:title="Get the TickType for common Lean data types. If not a Lean common data type, return a TickType of Tra...">
<polygon fill="white" stroke="black" points="723,-0.5 723,-30.5 954,-30.5 954,-0.5 723,-0.5"/>
<text text-anchor="start" x="731" y="-18.5" font-family="Helvetica,sans-Serif" font-size="10.00">QuantConnect.Util.LeanData.</text>
<text text-anchor="middle" x="838.5" y="-7.5" font-family="Helvetica,sans-Serif" font-size="10.00">GetCommonTickTypeForCommonDataTypes</text>
</a>
</g>
</g>
<!-- Node5&#45;&gt;Node7 -->
<g id="edge6" class="edge">
<title>Node5&#45;&gt;Node7</title>
<path fill="none" stroke="midnightblue" d="M687.27,-29.81C695.72,-29 704.31,-28.18 712.9,-27.37"/>
<polygon fill="midnightblue" stroke="midnightblue" points="713.34,-30.84 722.96,-26.41 712.67,-23.87 713.34,-30.84"/>
</g>
<!-- Node8 -->
<g id="node8" class="node">
<title>Node8</title>
<g id="a_node8"><a xlink:href="classQuantConnect_1_1Util_1_1LeanData.html#a24869ac4b029b3f2d468596baab6d72d" target="_top" xlink:title="Gets the tick type most commonly associated with the specified security type">
<polygon fill="white" stroke="black" points="990,-0.5 990,-30.5 1148,-30.5 1148,-0.5 990,-0.5"/>
<text text-anchor="start" x="998" y="-18.5" font-family="Helvetica,sans-Serif" font-size="10.00">QuantConnect.Util.LeanData.</text>
<text text-anchor="middle" x="1069" y="-7.5" font-family="Helvetica,sans-Serif" font-size="10.00">GetCommonTickType</text>
</a>
</g>
</g>
<!-- Node7&#45;&gt;Node8 -->
<g id="edge7" class="edge">
<title>Node7&#45;&gt;Node8</title>
<path fill="none" stroke="midnightblue" d="M954.08,-15.5C962.71,-15.5 971.34,-15.5 979.77,-15.5"/>
<polygon fill="midnightblue" stroke="midnightblue" points="979.93,-19 989.93,-15.5 979.93,-12 979.93,-19"/>
</g>
</g>
</svg>
