<?xml version="1.0" encoding="UTF-8" standalone="no"?>
<!DOCTYPE svg PUBLIC "-//W3C//DTD SVG 1.1//EN"
 "http://www.w3.org/Graphics/SVG/1.1/DTD/svg11.dtd">
<!-- Generated by graphviz version 2.43.0 (0)
 -->
<!-- Title: QuantConnect.Messages.CashBuyingPowerModel.BuyOrderQuantityGreaterThanMaxForBuyingPower Pages: 1 -->
<svg width="447pt" height="50pt"
 viewBox="0.00 0.00 447.00 50.00" xmlns="http://www.w3.org/2000/svg" xmlns:xlink="http://www.w3.org/1999/xlink">
<g id="graph0" class="graph" transform="scale(1 1) rotate(0) translate(4 46)">
<title>QuantConnect.Messages.CashBuyingPowerModel.BuyOrderQuantityGreaterThanMaxForBuyingPower</title>
<polygon fill="white" stroke="transparent" points="-4,4 -4,-46 443,-46 443,4 -4,4"/>
<!-- Node1 -->
<g id="node1" class="node">
<title>Node1</title>
<g id="a_node1"><a xlink:title="Returns a string message containing the portfolio holdings, the buy order and the maximum buying powe...">
<polygon fill="#bfbfbf" stroke="black" points="238,-0.5 238,-41.5 439,-41.5 439,-0.5 238,-0.5"/>
<text text-anchor="start" x="246" y="-29.5" font-family="Helvetica,sans-Serif" font-size="10.00">QuantConnect.Messages.Cash</text>
<text text-anchor="start" x="246" y="-18.5" font-family="Helvetica,sans-Serif" font-size="10.00">BuyingPowerModel.BuyOrderQuantity</text>
<text text-anchor="middle" x="338.5" y="-7.5" font-family="Helvetica,sans-Serif" font-size="10.00">GreaterThanMaxForBuyingPower</text>
</a>
</g>
</g>
<!-- Node2 -->
<g id="node2" class="node">
<title>Node2</title>
<g id="a_node2"><a xlink:href="classQuantConnect_1_1Securities_1_1CashBuyingPowerModel.html#ae2182361668bcb0b67727ea2e077423a" target="_top" xlink:title="Check if there is sufficient buying power to execute this order.">
<polygon fill="white" stroke="black" points="0,-0.5 0,-41.5 202,-41.5 202,-0.5 0,-0.5"/>
<text text-anchor="start" x="8" y="-29.5" font-family="Helvetica,sans-Serif" font-size="10.00">QuantConnect.Securities.</text>
<text text-anchor="start" x="8" y="-18.5" font-family="Helvetica,sans-Serif" font-size="10.00">CashBuyingPowerModel.HasSufficient</text>
<text text-anchor="middle" x="101" y="-7.5" font-family="Helvetica,sans-Serif" font-size="10.00">BuyingPowerForOrder</text>
</a>
</g>
</g>
<!-- Node1&#45;&gt;Node2 -->
<g id="edge1" class="edge">
<title>Node1&#45;&gt;Node2</title>
<path fill="none" stroke="midnightblue" d="M227.96,-21C219.41,-21 210.8,-21 202.31,-21"/>
<polygon fill="midnightblue" stroke="midnightblue" points="227.97,-24.5 237.97,-21 227.97,-17.5 227.97,-24.5"/>
</g>
</g>
</svg>
