<?xml version="1.0" encoding="UTF-8" standalone="no"?>
<!DOCTYPE svg PUBLIC "-//W3C//DTD SVG 1.1//EN"
 "http://www.w3.org/Graphics/SVG/1.1/DTD/svg11.dtd">
<!-- Generated by graphviz version 2.43.0 (0)
 -->
<!-- Title: QuantConnect.Commands.CallbackCommand.Run Pages: 1 -->
<svg width="373pt" height="88pt"
 viewBox="0.00 0.00 373.00 88.00" xmlns="http://www.w3.org/2000/svg" xmlns:xlink="http://www.w3.org/1999/xlink">
<g id="graph0" class="graph" transform="scale(1 1) rotate(0) translate(4 84)">
<title>QuantConnect.Commands.CallbackCommand.Run</title>
<polygon fill="white" stroke="transparent" points="-4,4 -4,-84 369,-84 369,4 -4,4"/>
<!-- Node1 -->
<g id="node1" class="node">
<title>Node1</title>
<g id="a_node1"><a xlink:title="Runs this command against the specified algorithm instance">
<polygon fill="#bfbfbf" stroke="black" points="0,-24.5 0,-54.5 189,-54.5 189,-24.5 0,-24.5"/>
<text text-anchor="start" x="8" y="-42.5" font-family="Helvetica,sans-Serif" font-size="10.00">QuantConnect.Commands.Callback</text>
<text text-anchor="middle" x="94.5" y="-31.5" font-family="Helvetica,sans-Serif" font-size="10.00">Command.Run</text>
</a>
</g>
</g>
<!-- Node2 -->
<g id="node2" class="node">
<title>Node2</title>
<g id="a_node2"><a xlink:href="interfaceQuantConnect_1_1Interfaces_1_1IAlgorithm.html#aabefaaaa33defc9122ee504c828da239" target="_top" xlink:title="Generic untyped command call handler">
<polygon fill="white" stroke="black" points="225,-49.5 225,-79.5 365,-79.5 365,-49.5 225,-49.5"/>
<text text-anchor="start" x="233" y="-67.5" font-family="Helvetica,sans-Serif" font-size="10.00">QuantConnect.Interfaces.</text>
<text text-anchor="middle" x="295" y="-56.5" font-family="Helvetica,sans-Serif" font-size="10.00">IAlgorithm.OnCommand</text>
</a>
</g>
</g>
<!-- Node1&#45;&gt;Node2 -->
<g id="edge1" class="edge">
<title>Node1&#45;&gt;Node2</title>
<path fill="none" stroke="midnightblue" d="M189.23,-51.3C197.79,-52.38 206.41,-53.47 214.83,-54.53"/>
<polygon fill="midnightblue" stroke="midnightblue" points="214.62,-58.03 224.98,-55.81 215.49,-51.08 214.62,-58.03"/>
</g>
<!-- Node3 -->
<g id="node3" class="node">
<title>Node3</title>
<g id="a_node3"><a xlink:href="interfaceQuantConnect_1_1Interfaces_1_1IAlgorithm.html#a71ed6a9bd333f7025887e3cb692025f6" target="_top" xlink:title="Run a callback command instance">
<polygon fill="white" stroke="black" points="225,-0.5 225,-30.5 365,-30.5 365,-0.5 225,-0.5"/>
<text text-anchor="start" x="233" y="-18.5" font-family="Helvetica,sans-Serif" font-size="10.00">QuantConnect.Interfaces.</text>
<text text-anchor="middle" x="295" y="-7.5" font-family="Helvetica,sans-Serif" font-size="10.00">IAlgorithm.RunCommand</text>
</a>
</g>
</g>
<!-- Node1&#45;&gt;Node3 -->
<g id="edge2" class="edge">
<title>Node1&#45;&gt;Node3</title>
<path fill="none" stroke="midnightblue" d="M189.23,-28.17C197.79,-27.13 206.41,-26.09 214.83,-25.07"/>
<polygon fill="midnightblue" stroke="midnightblue" points="215.47,-28.52 224.98,-23.85 214.63,-21.57 215.47,-28.52"/>
</g>
</g>
</svg>
