<?xml version="1.0" encoding="UTF-8" standalone="no"?>
<!DOCTYPE svg PUBLIC "-//W3C//DTD SVG 1.1//EN"
 "http://www.w3.org/Graphics/SVG/1.1/DTD/svg11.dtd">
<!-- Generated by graphviz version 2.43.0 (0)
 -->
<!-- Title: QuantConnect.Lean.Engine.TransactionHandlers.BacktestingTransactionHandler.WaitForOrderSubmission Pages: 1 -->
<svg width="948pt" height="209pt"
 viewBox="0.00 0.00 948.00 209.00" xmlns="http://www.w3.org/2000/svg" xmlns:xlink="http://www.w3.org/1999/xlink">
<g id="graph0" class="graph" transform="scale(1 1) rotate(0) translate(4 205)">
<title>QuantConnect.Lean.Engine.TransactionHandlers.BacktestingTransactionHandler.WaitForOrderSubmission</title>
<polygon fill="white" stroke="transparent" points="-4,4 -4,-205 944,-205 944,4 -4,4"/>
<!-- Node1 -->
<g id="node1" class="node">
<title>Node1</title>
<g id="a_node1"><a xlink:title="For backtesting we will submit the order ourselves">
<polygon fill="#bfbfbf" stroke="black" points="0,-107 0,-148 233,-148 233,-107 0,-107"/>
<text text-anchor="start" x="8" y="-136" font-family="Helvetica,sans-Serif" font-size="10.00">QuantConnect.Lean.Engine.</text>
<text text-anchor="start" x="8" y="-125" font-family="Helvetica,sans-Serif" font-size="10.00">TransactionHandlers.Backtesting</text>
<text text-anchor="middle" x="116.5" y="-114" font-family="Helvetica,sans-Serif" font-size="10.00">TransactionHandler.WaitForOrderSubmission</text>
</a>
</g>
</g>
<!-- Node2 -->
<g id="node2" class="node">
<title>Node2</title>
<g id="a_node2"><a xlink:href="classQuantConnect_1_1Logging_1_1Log.html#af0e7955911bc7664b37661b2a303a9e3" target="_top" xlink:title="Log error">
<polygon fill="white" stroke="black" points="306,-155.5 306,-185.5 456,-185.5 456,-155.5 306,-155.5"/>
<text text-anchor="start" x="314" y="-173.5" font-family="Helvetica,sans-Serif" font-size="10.00">QuantConnect.Logging.Log.</text>
<text text-anchor="middle" x="381" y="-162.5" font-family="Helvetica,sans-Serif" font-size="10.00">Error</text>
</a>
</g>
</g>
<!-- Node1&#45;&gt;Node2 -->
<g id="edge1" class="edge">
<title>Node1&#45;&gt;Node2</title>
<path fill="none" stroke="midnightblue" d="M233.02,-146.42C254.2,-149.89 275.93,-153.45 295.97,-156.74"/>
<polygon fill="midnightblue" stroke="midnightblue" points="295.54,-160.21 305.98,-158.37 296.67,-153.3 295.54,-160.21"/>
</g>
<!-- Node4 -->
<g id="node4" class="node">
<title>Node4</title>
<g id="a_node4"><a xlink:href="classQuantConnect_1_1Lean_1_1Engine_1_1TransactionHandlers_1_1BrokerageTransactionHandler.html#a477c8a3adb1be235898839e1cef7503e" target="_top" xlink:title="Primary thread entry point to launch the transaction thread.">
<polygon fill="white" stroke="black" points="269,-80 269,-121 493,-121 493,-80 269,-80"/>
<text text-anchor="start" x="277" y="-109" font-family="Helvetica,sans-Serif" font-size="10.00">QuantConnect.Lean.Engine.</text>
<text text-anchor="start" x="277" y="-98" font-family="Helvetica,sans-Serif" font-size="10.00">TransactionHandlers.BrokerageTransaction</text>
<text text-anchor="middle" x="381" y="-87" font-family="Helvetica,sans-Serif" font-size="10.00">Handler.Run</text>
</a>
</g>
</g>
<!-- Node1&#45;&gt;Node4 -->
<g id="edge3" class="edge">
<title>Node1&#45;&gt;Node4</title>
<path fill="none" stroke="midnightblue" d="M233.02,-115.62C241.52,-114.74 250.11,-113.86 258.65,-112.98"/>
<polygon fill="midnightblue" stroke="midnightblue" points="259.04,-116.46 268.63,-111.95 258.33,-109.5 259.04,-116.46"/>
</g>
<!-- Node3 -->
<g id="node3" class="node">
<title>Node3</title>
<g id="a_node3"><a xlink:href="interfaceQuantConnect_1_1Logging_1_1ILogHandler.html#a35373a0c5d76031fa5ccf5dc39e5c25d" target="_top" xlink:title="Write error message to log">
<polygon fill="white" stroke="black" points="566,-170.5 566,-200.5 716,-200.5 716,-170.5 566,-170.5"/>
<text text-anchor="start" x="574" y="-188.5" font-family="Helvetica,sans-Serif" font-size="10.00">QuantConnect.Logging.ILog</text>
<text text-anchor="middle" x="641" y="-177.5" font-family="Helvetica,sans-Serif" font-size="10.00">Handler.Error</text>
</a>
</g>
</g>
<!-- Node2&#45;&gt;Node3 -->
<g id="edge2" class="edge">
<title>Node2&#45;&gt;Node3</title>
<path fill="none" stroke="midnightblue" d="M456.28,-174.82C487.31,-176.62 523.52,-178.73 555.56,-180.59"/>
<polygon fill="midnightblue" stroke="midnightblue" points="555.61,-184.1 565.8,-181.19 556.02,-177.11 555.61,-184.1"/>
</g>
<!-- Node5 -->
<g id="node5" class="node">
<title>Node5</title>
<g id="a_node5"><a xlink:href="classQuantConnect_1_1Lean_1_1Engine_1_1TransactionHandlers_1_1BrokerageTransactionHandler.html#aba770aab9844310dafb4fb7c7794adc9" target="_top" xlink:title="Handles a generic order request">
<polygon fill="white" stroke="black" points="529,-110 529,-151 753,-151 753,-110 529,-110"/>
<text text-anchor="start" x="537" y="-139" font-family="Helvetica,sans-Serif" font-size="10.00">QuantConnect.Lean.Engine.</text>
<text text-anchor="start" x="537" y="-128" font-family="Helvetica,sans-Serif" font-size="10.00">TransactionHandlers.BrokerageTransaction</text>
<text text-anchor="middle" x="641" y="-117" font-family="Helvetica,sans-Serif" font-size="10.00">Handler.HandleOrderRequest</text>
</a>
</g>
</g>
<!-- Node4&#45;&gt;Node5 -->
<g id="edge4" class="edge">
<title>Node4&#45;&gt;Node5</title>
<path fill="none" stroke="midnightblue" d="M493.29,-113.44C501.72,-114.42 510.25,-115.41 518.74,-116.4"/>
<polygon fill="midnightblue" stroke="midnightblue" points="518.34,-119.88 528.67,-117.56 519.14,-112.92 518.34,-119.88"/>
</g>
<!-- Node7 -->
<g id="node7" class="node">
<title>Node7</title>
<g id="a_node7"><a xlink:href="classQuantConnect_1_1Lean_1_1Engine_1_1TransactionHandlers_1_1BrokerageTransactionHandler.html#abd6ad9f599d8b799f22df59a1d6bd1c9" target="_top" xlink:title="Processes asynchronous events on the transaction handler&#39;s thread">
<polygon fill="white" stroke="black" points="529,-50 529,-91 753,-91 753,-50 529,-50"/>
<text text-anchor="start" x="537" y="-79" font-family="Helvetica,sans-Serif" font-size="10.00">QuantConnect.Lean.Engine.</text>
<text text-anchor="start" x="537" y="-68" font-family="Helvetica,sans-Serif" font-size="10.00">TransactionHandlers.BrokerageTransaction</text>
<text text-anchor="middle" x="641" y="-57" font-family="Helvetica,sans-Serif" font-size="10.00">Handler.ProcessAsynchronousEvents</text>
</a>
</g>
</g>
<!-- Node4&#45;&gt;Node7 -->
<g id="edge6" class="edge">
<title>Node4&#45;&gt;Node7</title>
<path fill="none" stroke="midnightblue" d="M493.29,-87.56C501.72,-86.58 510.25,-85.59 518.74,-84.6"/>
<polygon fill="midnightblue" stroke="midnightblue" points="519.14,-88.08 528.67,-83.44 518.34,-81.12 519.14,-88.08"/>
</g>
<!-- Node8 -->
<g id="node8" class="node">
<title>Node8</title>
<g id="a_node8"><a xlink:href="classQuantConnect_1_1Logging_1_1Log.html#a4e55477fbc790846b74550a57198cea9" target="_top" xlink:title="Log trace">
<polygon fill="white" stroke="black" points="566,-0.5 566,-30.5 716,-30.5 716,-0.5 566,-0.5"/>
<text text-anchor="start" x="574" y="-18.5" font-family="Helvetica,sans-Serif" font-size="10.00">QuantConnect.Logging.Log.</text>
<text text-anchor="middle" x="641" y="-7.5" font-family="Helvetica,sans-Serif" font-size="10.00">Trace</text>
</a>
</g>
</g>
<!-- Node4&#45;&gt;Node8 -->
<g id="edge7" class="edge">
<title>Node4&#45;&gt;Node8</title>
<path fill="none" stroke="midnightblue" d="M426.97,-79.87C455.71,-67.26 494.03,-51.49 529,-40.5 537.65,-37.78 546.77,-35.23 555.9,-32.88"/>
<polygon fill="midnightblue" stroke="midnightblue" points="556.95,-36.23 565.8,-30.41 555.25,-29.44 556.95,-36.23"/>
</g>
<!-- Node6 -->
<g id="node6" class="node">
<title>Node6</title>
<g id="a_node6"><a xlink:href="classQuantConnect_1_1Orders_1_1OrderRequest.html#aed73f8f311c9224866211078cd6caef1" target="_top" xlink:title="Sets the Response for this request">
<polygon fill="white" stroke="black" points="789,-115.5 789,-145.5 940,-145.5 940,-115.5 789,-115.5"/>
<text text-anchor="start" x="797" y="-133.5" font-family="Helvetica,sans-Serif" font-size="10.00">QuantConnect.Orders.Order</text>
<text text-anchor="middle" x="864.5" y="-122.5" font-family="Helvetica,sans-Serif" font-size="10.00">Request.SetResponse</text>
</a>
</g>
</g>
<!-- Node5&#45;&gt;Node6 -->
<g id="edge5" class="edge">
<title>Node5&#45;&gt;Node6</title>
<path fill="none" stroke="midnightblue" d="M753.07,-130.5C761.67,-130.5 770.26,-130.5 778.64,-130.5"/>
<polygon fill="midnightblue" stroke="midnightblue" points="778.75,-134 788.75,-130.5 778.75,-127 778.75,-134"/>
</g>
<!-- Node9 -->
<g id="node9" class="node">
<title>Node9</title>
<g id="a_node9"><a xlink:href="interfaceQuantConnect_1_1Logging_1_1ILogHandler.html#a3fb71a33ac66129240b63f12b6fcda3b" target="_top" xlink:title="Write debug message to log">
<polygon fill="white" stroke="black" points="789.5,-0.5 789.5,-30.5 939.5,-30.5 939.5,-0.5 789.5,-0.5"/>
<text text-anchor="start" x="797.5" y="-18.5" font-family="Helvetica,sans-Serif" font-size="10.00">QuantConnect.Logging.ILog</text>
<text text-anchor="middle" x="864.5" y="-7.5" font-family="Helvetica,sans-Serif" font-size="10.00">Handler.Trace</text>
</a>
</g>
</g>
<!-- Node8&#45;&gt;Node9 -->
<g id="edge8" class="edge">
<title>Node8&#45;&gt;Node9</title>
<path fill="none" stroke="midnightblue" d="M716.06,-15.5C736.28,-15.5 758.32,-15.5 779.06,-15.5"/>
<polygon fill="midnightblue" stroke="midnightblue" points="779.13,-19 789.13,-15.5 779.13,-12 779.13,-19"/>
</g>
</g>
</svg>
