<?xml version="1.0" encoding="UTF-8" standalone="no"?>
<!DOCTYPE svg PUBLIC "-//W3C//DTD SVG 1.1//EN"
 "http://www.w3.org/Graphics/SVG/1.1/DTD/svg11.dtd">
<!-- Generated by graphviz version 2.43.0 (0)
 -->
<!-- Title: QuantConnect.Data.Custom.IconicTypes.UnlinkedDataTradeBar Pages: 1 -->
<svg width="193pt" height="263pt"
 viewBox="0.00 0.00 193.00 263.00" xmlns="http://www.w3.org/2000/svg" xmlns:xlink="http://www.w3.org/1999/xlink">
<g id="graph0" class="graph" transform="scale(1 1) rotate(0) translate(4 259)">
<title>QuantConnect.Data.Custom.IconicTypes.UnlinkedDataTradeBar</title>
<polygon fill="white" stroke="transparent" points="-4,4 -4,-259 189,-259 189,4 -4,4"/>
<!-- Node1 -->
<g id="node1" class="node">
<title>Node1</title>
<g id="a_node1"><a xlink:title="Data source that is unlinked (no mapping) and takes any ticker when calling AddData">
<polygon fill="#bfbfbf" stroke="black" points="0,-0.5 0,-30.5 185,-30.5 185,-0.5 0,-0.5"/>
<text text-anchor="start" x="8" y="-18.5" font-family="Helvetica,sans-Serif" font-size="10.00">QuantConnect.Data.Custom.</text>
<text text-anchor="middle" x="92.5" y="-7.5" font-family="Helvetica,sans-Serif" font-size="10.00">IconicTypes.UnlinkedDataTradeBar</text>
</a>
</g>
</g>
<!-- Node2 -->
<g id="node2" class="node">
<title>Node2</title>
<g id="a_node2"><a xlink:href="classQuantConnect_1_1Data_1_1Market_1_1TradeBar.html" target="_top" xlink:title="TradeBar class for second and minute resolution data: An OHLC implementation of the QuantConnect Base...">
<polygon fill="white" stroke="black" points="63,-67.5 63,-86.5 122,-86.5 122,-67.5 63,-67.5"/>
<text text-anchor="middle" x="92.5" y="-74.5" font-family="Helvetica,sans-Serif" font-size="10.00">TradeBar</text>
</a>
</g>
</g>
<!-- Node2&#45;&gt;Node1 -->
<g id="edge1" class="edge">
<title>Node2&#45;&gt;Node1</title>
<path fill="none" stroke="midnightblue" d="M92.5,-57.23C92.5,-48.59 92.5,-38.5 92.5,-30.52"/>
<polygon fill="midnightblue" stroke="midnightblue" points="89,-57.48 92.5,-67.48 96,-57.48 89,-57.48"/>
</g>
<!-- Node3 -->
<g id="node3" class="node">
<title>Node3</title>
<g id="a_node3"><a xlink:href="classQuantConnect_1_1Data_1_1BaseData.html" target="_top" xlink:title="Abstract base data class of QuantConnect. It is intended to be extended to define generic user custom...">
<polygon fill="white" stroke="black" points="106.5,-123.5 106.5,-142.5 170.5,-142.5 170.5,-123.5 106.5,-123.5"/>
<text text-anchor="middle" x="138.5" y="-130.5" font-family="Helvetica,sans-Serif" font-size="10.00">BaseData</text>
</a>
</g>
</g>
<!-- Node3&#45;&gt;Node2 -->
<g id="edge2" class="edge">
<title>Node3&#45;&gt;Node2</title>
<path fill="none" stroke="midnightblue" d="M124.39,-115.43C116.32,-105.97 106.54,-94.48 99.95,-86.75"/>
<polygon fill="midnightblue" stroke="midnightblue" points="121.75,-117.74 130.9,-123.08 127.08,-113.2 121.75,-117.74"/>
</g>
<!-- Node4 -->
<g id="node4" class="node">
<title>Node4</title>
<g id="a_node4"><a xlink:href="interfaceQuantConnect_1_1Data_1_1IBaseData.html" target="_top" xlink:title="Base Data Class: Type, Timestamp, Key – Base Features.">
<polygon fill="white" stroke="black" points="94,-179.5 94,-198.5 161,-198.5 161,-179.5 94,-179.5"/>
<text text-anchor="middle" x="127.5" y="-186.5" font-family="Helvetica,sans-Serif" font-size="10.00">IBaseData</text>
</a>
</g>
</g>
<!-- Node4&#45;&gt;Node3 -->
<g id="edge3" class="edge">
<title>Node4&#45;&gt;Node3</title>
<path fill="none" stroke="midnightblue" d="M131.35,-169.1C133.18,-160.14 135.27,-149.86 136.72,-142.75"/>
<polygon fill="midnightblue" stroke="midnightblue" points="127.88,-168.59 129.32,-179.08 134.74,-169.98 127.88,-168.59"/>
</g>
<!-- Node6 -->
<g id="node6" class="node">
<title>Node6</title>
<g id="a_node6"><a xlink:href="interfaceQuantConnect_1_1Data_1_1Market_1_1IBaseDataBar.html" target="_top" xlink:title="Represents a type that is both a bar and base data">
<polygon fill="white" stroke="black" points="5,-123.5 5,-142.5 88,-142.5 88,-123.5 5,-123.5"/>
<text text-anchor="middle" x="46.5" y="-130.5" font-family="Helvetica,sans-Serif" font-size="10.00">IBaseDataBar</text>
</a>
</g>
</g>
<!-- Node4&#45;&gt;Node6 -->
<g id="edge6" class="edge">
<title>Node4&#45;&gt;Node6</title>
<path fill="none" stroke="midnightblue" d="M105.93,-173.62C91.14,-163.76 71.99,-150.99 59.48,-142.65"/>
<polygon fill="midnightblue" stroke="midnightblue" points="104.22,-176.69 114.49,-179.32 108.11,-170.86 104.22,-176.69"/>
</g>
<!-- Node5 -->
<g id="node5" class="node">
<title>Node5</title>
<g id="a_node5"><a xlink:href="interfaceQuantConnect_1_1Data_1_1ISymbolProvider.html" target="_top" xlink:title="Base data with a symbol">
<polygon fill="white" stroke="black" points="79,-235.5 79,-254.5 176,-254.5 176,-235.5 79,-235.5"/>
<text text-anchor="middle" x="127.5" y="-242.5" font-family="Helvetica,sans-Serif" font-size="10.00">ISymbolProvider</text>
</a>
</g>
</g>
<!-- Node5&#45;&gt;Node4 -->
<g id="edge4" class="edge">
<title>Node5&#45;&gt;Node4</title>
<path fill="none" stroke="midnightblue" d="M127.5,-224.8C127.5,-215.91 127.5,-205.78 127.5,-198.75"/>
<polygon fill="midnightblue" stroke="midnightblue" points="124,-225.08 127.5,-235.08 131,-225.08 124,-225.08"/>
</g>
<!-- Node6&#45;&gt;Node2 -->
<g id="edge5" class="edge">
<title>Node6&#45;&gt;Node2</title>
<path fill="none" stroke="midnightblue" d="M60.61,-115.43C68.68,-105.97 78.46,-94.48 85.05,-86.75"/>
<polygon fill="midnightblue" stroke="midnightblue" points="57.92,-113.2 54.1,-123.08 63.25,-117.74 57.92,-113.2"/>
</g>
<!-- Node7 -->
<g id="node7" class="node">
<title>Node7</title>
<g id="a_node7"><a xlink:href="interfaceQuantConnect_1_1Data_1_1Market_1_1IBar.html" target="_top" xlink:title="Generic bar interface with Open, High, Low and Close.">
<polygon fill="white" stroke="black" points="28.5,-179.5 28.5,-198.5 64.5,-198.5 64.5,-179.5 28.5,-179.5"/>
<text text-anchor="middle" x="46.5" y="-186.5" font-family="Helvetica,sans-Serif" font-size="10.00">IBar</text>
</a>
</g>
</g>
<!-- Node7&#45;&gt;Node6 -->
<g id="edge7" class="edge">
<title>Node7&#45;&gt;Node6</title>
<path fill="none" stroke="midnightblue" d="M46.5,-168.8C46.5,-159.91 46.5,-149.78 46.5,-142.75"/>
<polygon fill="midnightblue" stroke="midnightblue" points="43,-169.08 46.5,-179.08 50,-169.08 43,-169.08"/>
</g>
</g>
</svg>
