<?xml version="1.0" encoding="UTF-8" standalone="no"?>
<!DOCTYPE svg PUBLIC "-//W3C//DTD SVG 1.1//EN"
 "http://www.w3.org/Graphics/SVG/1.1/DTD/svg11.dtd">
<!-- Generated by graphviz version 2.43.0 (0)
 -->
<!-- Title: QuantConnect.Lean.Engine.DataFeeds.Enumerators.StrictDailyEndTimesEnumerator.MoveNext Pages: 1 -->
<svg width="774pt" height="137pt"
 viewBox="0.00 0.00 774.00 137.00" xmlns="http://www.w3.org/2000/svg" xmlns:xlink="http://www.w3.org/1999/xlink">
<g id="graph0" class="graph" transform="scale(1 1) rotate(0) translate(4 133)">
<title>QuantConnect.Lean.Engine.DataFeeds.Enumerators.StrictDailyEndTimesEnumerator.MoveNext</title>
<polygon fill="white" stroke="transparent" points="-4,4 -4,-133 770,-133 770,4 -4,4"/>
<!-- Node1 -->
<g id="node1" class="node">
<title>Node1</title>
<g id="a_node1"><a xlink:title="Move to the next date">
<polygon fill="#bfbfbf" stroke="black" points="0,-42 0,-83 188,-83 188,-42 0,-42"/>
<text text-anchor="start" x="8" y="-71" font-family="Helvetica,sans-Serif" font-size="10.00">QuantConnect.Lean.Engine.</text>
<text text-anchor="start" x="8" y="-60" font-family="Helvetica,sans-Serif" font-size="10.00">DataFeeds.Enumerators.StrictDaily</text>
<text text-anchor="middle" x="94" y="-49" font-family="Helvetica,sans-Serif" font-size="10.00">EndTimesEnumerator.MoveNext</text>
</a>
</g>
</g>
<!-- Node2 -->
<g id="node2" class="node">
<title>Node2</title>
<g id="a_node2"><a xlink:href="classQuantConnect_1_1Data_1_1BaseData.html#af8622cdfef34470fda9fd08d2f4c02b7" target="_top" xlink:title="Return a new instance clone of this object, used in fill forward">
<polygon fill="white" stroke="black" points="224,-97.5 224,-127.5 389,-127.5 389,-97.5 224,-97.5"/>
<text text-anchor="start" x="232" y="-115.5" font-family="Helvetica,sans-Serif" font-size="10.00">QuantConnect.Data.BaseData.</text>
<text text-anchor="middle" x="306.5" y="-104.5" font-family="Helvetica,sans-Serif" font-size="10.00">Clone</text>
</a>
</g>
</g>
<!-- Node1&#45;&gt;Node2 -->
<g id="edge1" class="edge">
<title>Node1&#45;&gt;Node2</title>
<path fill="none" stroke="midnightblue" d="M181.53,-83.05C198.34,-87.05 215.81,-91.2 232.14,-95.08"/>
<polygon fill="midnightblue" stroke="midnightblue" points="231.61,-98.55 242.15,-97.45 233.23,-91.74 231.61,-98.55"/>
</g>
<!-- Node5 -->
<g id="node5" class="node">
<title>Node5</title>
<g id="a_node5"><a xlink:href="classQuantConnect_1_1Util_1_1LeanData.html#adeb47ee1eb59ad44f25a2ff78b616a1d" target="_top" xlink:title="Helper method that if appropiate, will set the Time and EndTime of the given data point to it&#39;s daily...">
<polygon fill="white" stroke="black" points="227.5,-47.5 227.5,-77.5 385.5,-77.5 385.5,-47.5 227.5,-47.5"/>
<text text-anchor="start" x="235.5" y="-65.5" font-family="Helvetica,sans-Serif" font-size="10.00">QuantConnect.Util.LeanData.</text>
<text text-anchor="middle" x="306.5" y="-54.5" font-family="Helvetica,sans-Serif" font-size="10.00">SetStrictEndTimes</text>
</a>
</g>
</g>
<!-- Node1&#45;&gt;Node5 -->
<g id="edge4" class="edge">
<title>Node1&#45;&gt;Node5</title>
<path fill="none" stroke="midnightblue" d="M188.25,-62.5C197.86,-62.5 207.6,-62.5 217.16,-62.5"/>
<polygon fill="midnightblue" stroke="midnightblue" points="217.44,-66 227.44,-62.5 217.44,-59 217.44,-66"/>
</g>
<!-- Node7 -->
<g id="node7" class="node">
<title>Node7</title>
<g id="a_node7"><a xlink:href="classQuantConnect_1_1Util_1_1LeanData.html#a45d5455942a1261f332547548a7682d9" target="_top" xlink:title="Helper method to determine if we should use strict end time">
<polygon fill="white" stroke="black" points="428.5,-0.5 428.5,-30.5 586.5,-30.5 586.5,-0.5 428.5,-0.5"/>
<text text-anchor="start" x="436.5" y="-18.5" font-family="Helvetica,sans-Serif" font-size="10.00">QuantConnect.Util.LeanData.</text>
<text text-anchor="middle" x="507.5" y="-7.5" font-family="Helvetica,sans-Serif" font-size="10.00">UseDailyStrictEndTimes</text>
</a>
</g>
</g>
<!-- Node1&#45;&gt;Node7 -->
<g id="edge7" class="edge">
<title>Node1&#45;&gt;Node7</title>
<path fill="none" stroke="midnightblue" d="M188.15,-43.15C200.18,-41.03 212.36,-39.08 224,-37.5 288.71,-28.74 362.26,-23.15 418.09,-19.8"/>
<polygon fill="midnightblue" stroke="midnightblue" points="418.53,-23.28 428.31,-19.2 418.12,-16.29 418.53,-23.28"/>
</g>
<!-- Node3 -->
<g id="node3" class="node">
<title>Node3</title>
<g id="a_node3"><a xlink:href="classQuantConnect_1_1Data_1_1BaseData.html#af973f9d8b7c0726fed42fa03ccd5f963" target="_top" xlink:title="Return a new instance clone of this object, used in fill forward">
<polygon fill="white" stroke="black" points="425,-98.5 425,-128.5 590,-128.5 590,-98.5 425,-98.5"/>
<text text-anchor="start" x="433" y="-116.5" font-family="Helvetica,sans-Serif" font-size="10.00">QuantConnect.Data.BaseData.</text>
<text text-anchor="middle" x="507.5" y="-105.5" font-family="Helvetica,sans-Serif" font-size="10.00">Clone</text>
</a>
</g>
</g>
<!-- Node2&#45;&gt;Node3 -->
<g id="edge2" class="edge">
<title>Node2&#45;&gt;Node3</title>
<path fill="none" stroke="midnightblue" d="M389.02,-112.91C397.5,-112.95 406.17,-113 414.76,-113.04"/>
<polygon fill="midnightblue" stroke="midnightblue" points="414.77,-116.54 424.79,-113.09 414.81,-109.54 414.77,-116.54"/>
</g>
<!-- Node4 -->
<g id="node4" class="node">
<title>Node4</title>
<g id="a_node4"><a xlink:href="classQuantConnect_1_1Util_1_1ObjectActivator.html#abcd1c91f67b9d78743601743d663cd10" target="_top" xlink:title="Clones the specified instance using reflection">
<polygon fill="white" stroke="black" points="626,-98.5 626,-128.5 766,-128.5 766,-98.5 626,-98.5"/>
<text text-anchor="start" x="634" y="-116.5" font-family="Helvetica,sans-Serif" font-size="10.00">QuantConnect.Util.Object</text>
<text text-anchor="middle" x="696" y="-105.5" font-family="Helvetica,sans-Serif" font-size="10.00">Activator.Clone</text>
</a>
</g>
</g>
<!-- Node3&#45;&gt;Node4 -->
<g id="edge3" class="edge">
<title>Node3&#45;&gt;Node4</title>
<path fill="none" stroke="midnightblue" d="M590.03,-113.5C598.53,-113.5 607.17,-113.5 615.64,-113.5"/>
<polygon fill="midnightblue" stroke="midnightblue" points="615.88,-117 625.88,-113.5 615.88,-110 615.88,-117"/>
</g>
<!-- Node6 -->
<g id="node6" class="node">
<title>Node6</title>
<g id="a_node6"><a xlink:href="classQuantConnect_1_1Util_1_1LeanData.html#a333e4bd6d612caca6773226d353cec49" target="_top" xlink:title="Helper method to return the start time and period of a bar the given point time should be part of">
<polygon fill="white" stroke="black" points="428.5,-49.5 428.5,-79.5 586.5,-79.5 586.5,-49.5 428.5,-49.5"/>
<text text-anchor="start" x="436.5" y="-67.5" font-family="Helvetica,sans-Serif" font-size="10.00">QuantConnect.Util.LeanData.</text>
<text text-anchor="middle" x="507.5" y="-56.5" font-family="Helvetica,sans-Serif" font-size="10.00">GetDailyCalendar</text>
</a>
</g>
</g>
<!-- Node5&#45;&gt;Node6 -->
<g id="edge5" class="edge">
<title>Node5&#45;&gt;Node6</title>
<path fill="none" stroke="midnightblue" d="M385.58,-63.28C396.22,-63.39 407.21,-63.5 418.02,-63.61"/>
<polygon fill="midnightblue" stroke="midnightblue" points="418.28,-67.11 428.32,-63.71 418.36,-60.11 418.28,-67.11"/>
</g>
<!-- Node5&#45;&gt;Node7 -->
<g id="edge6" class="edge">
<title>Node5&#45;&gt;Node7</title>
<path fill="none" stroke="midnightblue" d="M371.01,-47.5C390.76,-42.84 412.69,-37.66 433.05,-32.85"/>
<polygon fill="midnightblue" stroke="midnightblue" points="433.98,-36.22 442.91,-30.52 432.37,-29.41 433.98,-36.22"/>
</g>
</g>
</svg>
