<?xml version="1.0" encoding="UTF-8" standalone="no"?>
<!DOCTYPE svg PUBLIC "-//W3C//DTD SVG 1.1//EN"
 "http://www.w3.org/Graphics/SVG/1.1/DTD/svg11.dtd">
<!-- Generated by graphviz version 2.43.0 (0)
 -->
<!-- Title: QuantConnect.Brokerages.Brokerage.TryHandleRemainingCrossZeroOrder Pages: 1 -->
<!--zoomable 264 -->
<svg id="main" version="1.1" xmlns="http://www.w3.org/2000/svg" xmlns:xlink="http://www.w3.org/1999/xlink" xml:space="preserve" onload="init(evt)">
<style type="text/css"><![CDATA[
.edge:hover path { stroke: red; }
.edge:hover polygon { stroke: red; fill: red; }
]]></style>
<script type="text/javascript"><![CDATA[
var edges = document.getElementsByTagName('g');
if (edges && edges.length) {
  for (var i=0;i<edges.length;i++) {
    if (edges[i].id.substr(0,4)=='edge') {
      edges[i].setAttribute('class','edge');
    }
  }
}
]]></script>
        <defs>
                <circle id="rim" cx="0" cy="0" r="7"/>
                <circle id="rim2" cx="0" cy="0" r="3.5"/>
                <g id="zoomPlus">
                        <use xlink:href="#rim" fill="#404040">
                                <set attributeName="fill" to="#808080" begin="zoomplus.mouseover" end="zoomplus.mouseout"/>
                        </use>
                        <path d="M-4,0h8M0,-4v8" fill="none" stroke="white" stroke-width="1.5" pointer-events="none"/>
                </g>
                <g id="zoomMin">
                        <use xlink:href="#rim" fill="#404040">
                                <set attributeName="fill" to="#808080" begin="zoomminus.mouseover" end="zoomminus.mouseout"/>
                        </use>
                        <path d="M-4,0h8" fill="none" stroke="white" stroke-width="1.5" pointer-events="none"/>
                </g>
                <g id="dirArrow">
                        <path fill="none" stroke="white" stroke-width="1.5" d="M0,-3.0v7 M-2.5,-0.5L0,-3.0L2.5,-0.5"/>
                </g>
               <g id="resetDef">
                       <use xlink:href="#rim2" fill="#404040">
                               <set attributeName="fill" to="#808080" begin="reset.mouseover" end="reset.mouseout"/>
                       </use>
               </g>
        </defs>

<script type="text/javascript">
var viewWidth = 983;
var viewHeight = 264;
var sectionId = 'dynsection-25';
</script>
<script xlink:href="svgpan.js"/>
<svg id="graph" class="graph">
<g id="viewport">
<title>QuantConnect.Brokerages.Brokerage.TryHandleRemainingCrossZeroOrder</title>
<polygon fill="white" stroke="transparent" points="-4,4 -4,-260 979,-260 979,4 -4,4"/>
<!-- Node1 -->
<g id="node1" class="node">
<title>Node1</title>
<g id="a_node1"><a xlink:title="Attempts to handle any remaining orders that cross the zero boundary.">
<polygon fill="#bfbfbf" stroke="black" points="0,-107 0,-148 170,-148 170,-107 0,-107"/>
<text text-anchor="start" x="8" y="-136" font-family="Helvetica,sans-Serif" font-size="10.00">QuantConnect.Brokerages.</text>
<text text-anchor="start" x="8" y="-125" font-family="Helvetica,sans-Serif" font-size="10.00">Brokerage.TryHandleRemaining</text>
<text text-anchor="middle" x="85" y="-114" font-family="Helvetica,sans-Serif" font-size="10.00">CrossZeroOrder</text>
</a>
</g>
</g>
<!-- Node2 -->
<g id="node2" class="node">
<title>Node2</title>
<g id="a_node2"><a xlink:href="classQuantConnect_1_1Logging_1_1Log.html#af0e7955911bc7664b37661b2a303a9e3" target="_top" xlink:title="Log error">
<polygon fill="white" stroke="black" points="639,-159.5 639,-189.5 789,-189.5 789,-159.5 639,-159.5"/>
<text text-anchor="start" x="647" y="-177.5" font-family="Helvetica,sans-Serif" font-size="10.00">QuantConnect.Logging.Log.</text>
<text text-anchor="middle" x="714" y="-166.5" font-family="Helvetica,sans-Serif" font-size="10.00">Error</text>
</a>
</g>
</g>
<!-- Node1&#45;&gt;Node2 -->
<g id="edge1" class="edge">
<title>Node1&#45;&gt;Node2</title>
<path fill="none" stroke="midnightblue" d="M124.49,-148.12C147.44,-159.24 177.56,-171.81 206,-177.5 352.24,-206.75 526.99,-195.97 628.45,-185.33"/>
<polygon fill="midnightblue" stroke="midnightblue" points="629.07,-188.78 638.64,-184.24 628.32,-181.82 629.07,-188.78"/>
</g>
<!-- Node4 -->
<g id="node4" class="node">
<title>Node4</title>
<g id="a_node4"><a xlink:href="classQuantConnect_1_1Brokerages_1_1Brokerage.html#ab94fd3189885f301121caaa9751c571c" target="_top" xlink:title="Event invocator for the Message event">
<polygon fill="white" stroke="black" points="219,-88.5 219,-118.5 365,-118.5 365,-88.5 219,-88.5"/>
<text text-anchor="start" x="227" y="-106.5" font-family="Helvetica,sans-Serif" font-size="10.00">QuantConnect.Brokerages.</text>
<text text-anchor="middle" x="292" y="-95.5" font-family="Helvetica,sans-Serif" font-size="10.00">Brokerage.OnMessage</text>
</a>
</g>
</g>
<!-- Node1&#45;&gt;Node4 -->
<g id="edge3" class="edge">
<title>Node1&#45;&gt;Node4</title>
<path fill="none" stroke="midnightblue" d="M170.27,-117.63C182.99,-116.14 196.1,-114.61 208.78,-113.13"/>
<polygon fill="midnightblue" stroke="midnightblue" points="209.31,-116.59 218.84,-111.95 208.5,-109.63 209.31,-116.59"/>
</g>
<!-- Node5 -->
<g id="node5" class="node">
<title>Node5</title>
<g id="a_node5"><a xlink:href="classQuantConnect_1_1Logging_1_1Log.html#a4e55477fbc790846b74550a57198cea9" target="_top" xlink:title="Log trace">
<polygon fill="white" stroke="black" points="433.5,-46.5 433.5,-76.5 583.5,-76.5 583.5,-46.5 433.5,-46.5"/>
<text text-anchor="start" x="441.5" y="-64.5" font-family="Helvetica,sans-Serif" font-size="10.00">QuantConnect.Logging.Log.</text>
<text text-anchor="middle" x="508.5" y="-53.5" font-family="Helvetica,sans-Serif" font-size="10.00">Trace</text>
</a>
</g>
</g>
<!-- Node1&#45;&gt;Node5 -->
<g id="edge13" class="edge">
<title>Node1&#45;&gt;Node5</title>
<path fill="none" stroke="midnightblue" d="M126.83,-106.88C149.54,-96.43 178.67,-84.67 206,-78.5 278.03,-62.24 362.07,-58.73 423.1,-58.86"/>
<polygon fill="midnightblue" stroke="midnightblue" points="423.43,-62.36 433.45,-58.91 423.47,-55.36 423.43,-62.36"/>
</g>
<!-- Node7 -->
<g id="node7" class="node">
<title>Node7</title>
<g id="a_node7"><a xlink:href="classQuantConnect_1_1Brokerages_1_1Brokerage.html#a811fd60a40633f4e51fb7e8d85c98fef" target="_top" xlink:title="Event invocator for the OrderFilled event">
<polygon fill="white" stroke="black" points="219,-137.5 219,-167.5 365,-167.5 365,-137.5 219,-137.5"/>
<text text-anchor="start" x="227" y="-155.5" font-family="Helvetica,sans-Serif" font-size="10.00">QuantConnect.Brokerages.</text>
<text text-anchor="middle" x="292" y="-144.5" font-family="Helvetica,sans-Serif" font-size="10.00">Brokerage.OnOrderEvent</text>
</a>
</g>
</g>
<!-- Node1&#45;&gt;Node7 -->
<g id="edge7" class="edge">
<title>Node1&#45;&gt;Node7</title>
<path fill="none" stroke="midnightblue" d="M170.27,-137.78C182.99,-139.33 196.1,-140.93 208.78,-142.47"/>
<polygon fill="midnightblue" stroke="midnightblue" points="208.49,-145.96 218.84,-143.7 209.34,-139.01 208.49,-145.96"/>
</g>
<!-- Node9 -->
<g id="node9" class="node">
<title>Node9</title>
<g id="a_node9"><a xlink:href="classQuantConnect_1_1Brokerages_1_1Brokerage.html#af1adbf7290999599cdb99bb93ed16906" target="_top" xlink:title="Event invocator for the OrderIdChanged event">
<polygon fill="white" stroke="black" points="414,-225.5 414,-255.5 603,-255.5 603,-225.5 414,-225.5"/>
<text text-anchor="start" x="422" y="-243.5" font-family="Helvetica,sans-Serif" font-size="10.00">QuantConnect.Brokerages.</text>
<text text-anchor="middle" x="508.5" y="-232.5" font-family="Helvetica,sans-Serif" font-size="10.00">Brokerage.OnOrderIdChangedEvent</text>
</a>
</g>
</g>
<!-- Node1&#45;&gt;Node9 -->
<g id="edge10" class="edge">
<title>Node1&#45;&gt;Node9</title>
<path fill="none" stroke="midnightblue" d="M108.35,-148.24C131.06,-167.95 168.19,-196.61 206,-210.5 269.01,-233.65 344.12,-241.18 403.61,-242.9"/>
<polygon fill="midnightblue" stroke="midnightblue" points="403.7,-246.4 413.78,-243.14 403.86,-239.41 403.7,-246.4"/>
</g>
<!-- Node10 -->
<g id="node10" class="node">
<title>Node10</title>
<g id="a_node10"><a xlink:href="classQuantConnect_1_1Brokerages_1_1Brokerage.html#a85164c57e2887c97ec0acca8084adf3f" target="_top" xlink:title="Places an order that crosses zero (transitions from a short position to a long position or vice versa...">
<polygon fill="white" stroke="black" points="206,-0.5 206,-30.5 378,-30.5 378,-0.5 206,-0.5"/>
<text text-anchor="start" x="214" y="-18.5" font-family="Helvetica,sans-Serif" font-size="10.00">QuantConnect.Brokerages.</text>
<text text-anchor="middle" x="292" y="-7.5" font-family="Helvetica,sans-Serif" font-size="10.00">Brokerage.PlaceCrossZeroOrder</text>
</a>
</g>
</g>
<!-- Node1&#45;&gt;Node10 -->
<g id="edge12" class="edge">
<title>Node1&#45;&gt;Node10</title>
<path fill="none" stroke="midnightblue" d="M111.92,-106.84C135.43,-88.84 171.57,-62.96 206,-45.5 214.2,-41.34 223.11,-37.51 231.98,-34.08"/>
<polygon fill="midnightblue" stroke="midnightblue" points="233.4,-37.28 241.55,-30.51 230.95,-30.73 233.4,-37.28"/>
</g>
<!-- Node3 -->
<g id="node3" class="node">
<title>Node3</title>
<g id="a_node3"><a xlink:href="interfaceQuantConnect_1_1Logging_1_1ILogHandler.html#a35373a0c5d76031fa5ccf5dc39e5c25d" target="_top" xlink:title="Write error message to log">
<polygon fill="white" stroke="black" points="825,-159.5 825,-189.5 975,-189.5 975,-159.5 825,-159.5"/>
<text text-anchor="start" x="833" y="-177.5" font-family="Helvetica,sans-Serif" font-size="10.00">QuantConnect.Logging.ILog</text>
<text text-anchor="middle" x="900" y="-166.5" font-family="Helvetica,sans-Serif" font-size="10.00">Handler.Error</text>
</a>
</g>
</g>
<!-- Node2&#45;&gt;Node3 -->
<g id="edge2" class="edge">
<title>Node2&#45;&gt;Node3</title>
<path fill="none" stroke="midnightblue" d="M789.04,-174.5C797.51,-174.5 806.19,-174.5 814.78,-174.5"/>
<polygon fill="midnightblue" stroke="midnightblue" points="814.81,-178 824.81,-174.5 814.81,-171 814.81,-178"/>
</g>
<!-- Node4&#45;&gt;Node2 -->
<g id="edge4" class="edge">
<title>Node4&#45;&gt;Node2</title>
<path fill="none" stroke="midnightblue" d="M365.12,-102.93C428.6,-103.93 523.12,-109.1 603,-128.5 627.77,-134.52 654.16,-145.39 674.88,-155.05"/>
<polygon fill="midnightblue" stroke="midnightblue" points="673.45,-158.24 683.98,-159.39 676.46,-151.92 673.45,-158.24"/>
</g>
<!-- Node4&#45;&gt;Node5 -->
<g id="edge5" class="edge">
<title>Node4&#45;&gt;Node5</title>
<path fill="none" stroke="midnightblue" d="M365.02,-89.4C383.78,-85.72 404.16,-81.73 423.48,-77.95"/>
<polygon fill="midnightblue" stroke="midnightblue" points="424.33,-81.35 433.47,-76 422.99,-74.48 424.33,-81.35"/>
</g>
<!-- Node6 -->
<g id="node6" class="node">
<title>Node6</title>
<g id="a_node6"><a xlink:href="interfaceQuantConnect_1_1Logging_1_1ILogHandler.html#a3fb71a33ac66129240b63f12b6fcda3b" target="_top" xlink:title="Write debug message to log">
<polygon fill="white" stroke="black" points="639,-46.5 639,-76.5 789,-76.5 789,-46.5 639,-46.5"/>
<text text-anchor="start" x="647" y="-64.5" font-family="Helvetica,sans-Serif" font-size="10.00">QuantConnect.Logging.ILog</text>
<text text-anchor="middle" x="714" y="-53.5" font-family="Helvetica,sans-Serif" font-size="10.00">Handler.Trace</text>
</a>
</g>
</g>
<!-- Node5&#45;&gt;Node6 -->
<g id="edge6" class="edge">
<title>Node5&#45;&gt;Node6</title>
<path fill="none" stroke="midnightblue" d="M583.54,-61.5C598.13,-61.5 613.54,-61.5 628.45,-61.5"/>
<polygon fill="midnightblue" stroke="midnightblue" points="628.67,-65 638.67,-61.5 628.67,-58 628.67,-65"/>
</g>
<!-- Node8 -->
<g id="node8" class="node">
<title>Node8</title>
<g id="a_node8"><a xlink:href="classQuantConnect_1_1Brokerages_1_1Brokerage.html#ae7499c6cef985b52effb93373f5706fd" target="_top" xlink:title="Event invocator for the OrderFilled event">
<polygon fill="white" stroke="black" points="435.5,-137.5 435.5,-167.5 581.5,-167.5 581.5,-137.5 435.5,-137.5"/>
<text text-anchor="start" x="443.5" y="-155.5" font-family="Helvetica,sans-Serif" font-size="10.00">QuantConnect.Brokerages.</text>
<text text-anchor="middle" x="508.5" y="-144.5" font-family="Helvetica,sans-Serif" font-size="10.00">Brokerage.OnOrderEvents</text>
</a>
</g>
</g>
<!-- Node7&#45;&gt;Node8 -->
<g id="edge8" class="edge">
<title>Node7&#45;&gt;Node8</title>
<path fill="none" stroke="midnightblue" d="M365.02,-152.5C384.3,-152.5 405.29,-152.5 425.08,-152.5"/>
<polygon fill="midnightblue" stroke="midnightblue" points="425.3,-156 435.3,-152.5 425.3,-149 425.3,-156"/>
</g>
<!-- Node8&#45;&gt;Node2 -->
<g id="edge9" class="edge">
<title>Node8&#45;&gt;Node2</title>
<path fill="none" stroke="midnightblue" d="M581.53,-160.29C596.73,-161.93 612.89,-163.68 628.5,-165.36"/>
<polygon fill="midnightblue" stroke="midnightblue" points="628.34,-168.87 638.66,-166.46 629.09,-161.91 628.34,-168.87"/>
</g>
<!-- Node9&#45;&gt;Node2 -->
<g id="edge11" class="edge">
<title>Node9&#45;&gt;Node2</title>
<path fill="none" stroke="midnightblue" d="M556.6,-225.45C571.45,-220.68 587.92,-215.39 603,-210.5 620.82,-204.72 640.25,-198.38 657.76,-192.65"/>
<polygon fill="midnightblue" stroke="midnightblue" points="658.85,-195.97 667.26,-189.53 656.67,-189.32 658.85,-195.97"/>
</g>
</g>
</svg>
        <g id="navigator" transform="translate(0 0)" fill="#404254">
                <rect fill="#f2f5e9" fill-opacity="0.5" stroke="#606060" stroke-width=".5" x="0" y="0" width="60" height="60"/>
                <use id="zoomplus" xlink:href="#zoomPlus" x="17" y="9" onmousedown="handleZoom(evt,'in')"/>
                <use id="zoomminus" xlink:href="#zoomMin" x="42" y="9" onmousedown="handleZoom(evt,'out')"/>
                <use id="reset" xlink:href="#resetDef" x="30" y="36" onmousedown="handleReset()"/>
                <g id="arrowUp" xlink:href="#dirArrow" transform="translate(30 24)" onmousedown="handlePan(0,-1)">
                  <use xlink:href="#rim" fill="#404040">
                        <set attributeName="fill" to="#808080" begin="arrowUp.mouseover" end="arrowUp.mouseout"/>
                  </use>
                  <path fill="none" stroke="white" stroke-width="1.5" d="M0,-3.0v7 M-2.5,-0.5L0,-3.0L2.5,-0.5"/>
                </g>
                <g id="arrowRight" xlink:href="#dirArrow" transform="rotate(90) translate(36 -43)" onmousedown="handlePan(1,0)">
                  <use xlink:href="#rim" fill="#404040">
                        <set attributeName="fill" to="#808080" begin="arrowRight.mouseover" end="arrowRight.mouseout"/>
                  </use>
                  <path fill="none" stroke="white" stroke-width="1.5" d="M0,-3.0v7 M-2.5,-0.5L0,-3.0L2.5,-0.5"/>
                </g>
                <g id="arrowDown" xlink:href="#dirArrow" transform="rotate(180) translate(-30 -48)" onmousedown="handlePan(0,1)">
                  <use xlink:href="#rim" fill="#404040">
                        <set attributeName="fill" to="#808080" begin="arrowDown.mouseover" end="arrowDown.mouseout"/>
                  </use>
                  <path fill="none" stroke="white" stroke-width="1.5" d="M0,-3.0v7 M-2.5,-0.5L0,-3.0L2.5,-0.5"/>
                </g>
                <g id="arrowLeft" xlink:href="#dirArrow" transform="rotate(270) translate(-36 17)" onmousedown="handlePan(-1,0)">
                  <use xlink:href="#rim" fill="#404040">
                        <set attributeName="fill" to="#808080" begin="arrowLeft.mouseover" end="arrowLeft.mouseout"/>
                  </use>
                  <path fill="none" stroke="white" stroke-width="1.5" d="M0,-3.0v7 M-2.5,-0.5L0,-3.0L2.5,-0.5"/>
                </g>
        </g>
        <svg viewBox="0 0 15 15" width="100%" height="30px" preserveAspectRatio="xMaxYMin meet">
         <g id="arrow_out" transform="scale(0.3 0.3)">
          <a xlink:href="classQuantConnect_1_1Brokerages_1_1Brokerage_af5619808bb527e226c7ad3ef2eecc150_cgraph_org.svg" target="_base">
           <rect id="button" ry="5" rx="5" y="6" x="6" height="38" width="38"
                fill="#f2f5e9" fill-opacity="0.5" stroke="#606060" stroke-width="1.0"/>
           <path id="arrow"
             d="M 11.500037,31.436501 C 11.940474,20.09759 22.043105,11.32322 32.158766,21.979434 L 37.068811,17.246167 C 37.068811,17.246167 37.088388,32 37.088388,32 L 22.160133,31.978069 C 22.160133,31.978069 26.997745,27.140456 26.997745,27.140456 C 18.528582,18.264221 13.291696,25.230495 11.500037,31.436501 z"
             style="fill:#404040;"/>
          </a>
         </g>
        </svg>
</svg>
