<?xml version="1.0" encoding="UTF-8" standalone="no"?>
<!DOCTYPE svg PUBLIC "-//W3C//DTD SVG 1.1//EN"
 "http://www.w3.org/Graphics/SVG/1.1/DTD/svg11.dtd">
<!-- Generated by graphviz version 2.43.0 (0)
 -->
<!-- Title: QuantConnect.Brokerages.Backtesting.BacktestingBrokerage.ProcessDelistings Pages: 1 -->
<svg width="833pt" height="338pt"
 viewBox="0.00 0.00 833.00 337.50" xmlns="http://www.w3.org/2000/svg" xmlns:xlink="http://www.w3.org/1999/xlink">
<g id="graph0" class="graph" transform="scale(1 1) rotate(0) translate(4 333.5)">
<title>QuantConnect.Brokerages.Backtesting.BacktestingBrokerage.ProcessDelistings</title>
<polygon fill="white" stroke="transparent" points="-4,4 -4,-333.5 829,-333.5 829,4 -4,4"/>
<!-- Node1 -->
<g id="node1" class="node">
<title>Node1</title>
<g id="a_node1"><a xlink:title="Process delistings">
<polygon fill="#bfbfbf" stroke="black" points="0,-129 0,-170 188,-170 188,-129 0,-129"/>
<text text-anchor="start" x="8" y="-158" font-family="Helvetica,sans-Serif" font-size="10.00">QuantConnect.Brokerages.</text>
<text text-anchor="start" x="8" y="-147" font-family="Helvetica,sans-Serif" font-size="10.00">Backtesting.BacktestingBrokerage.</text>
<text text-anchor="middle" x="94" y="-136" font-family="Helvetica,sans-Serif" font-size="10.00">ProcessDelistings</text>
</a>
</g>
</g>
<!-- Node2 -->
<g id="node2" class="node">
<title>Node2</title>
<g id="a_node2"><a xlink:href="classQuantConnect_1_1Securities_1_1SecurityTransactionManager.html#ad21f183822521891147c190aed4fc5e2" target="_top" xlink:title="Cancels all open orders for all symbols">
<polygon fill="white" stroke="black" points="224,-247 224,-288 414,-288 414,-247 224,-247"/>
<text text-anchor="start" x="232" y="-276" font-family="Helvetica,sans-Serif" font-size="10.00">QuantConnect.Securities.</text>
<text text-anchor="start" x="232" y="-265" font-family="Helvetica,sans-Serif" font-size="10.00">SecurityTransactionManager.Cancel</text>
<text text-anchor="middle" x="319" y="-254" font-family="Helvetica,sans-Serif" font-size="10.00">OpenOrders</text>
</a>
</g>
</g>
<!-- Node1&#45;&gt;Node2 -->
<g id="edge1" class="edge">
<title>Node1&#45;&gt;Node2</title>
<path fill="none" stroke="midnightblue" d="M123.15,-170.14C148.6,-188.18 187.56,-214.26 224,-232.5 231.5,-236.25 239.5,-239.83 247.56,-243.17"/>
<polygon fill="midnightblue" stroke="midnightblue" points="246.42,-246.49 257.01,-246.98 249.04,-240 246.42,-246.49"/>
</g>
<!-- Node5 -->
<g id="node5" class="node">
<title>Node5</title>
<g id="a_node5"><a xlink:href="classQuantConnect_1_1Logging_1_1Log.html#ad908daef9d61532d7d60c9dcfb9a3e0c" target="_top" xlink:title="Output to the console">
<polygon fill="white" stroke="black" points="469.5,-159.5 469.5,-189.5 619.5,-189.5 619.5,-159.5 469.5,-159.5"/>
<text text-anchor="start" x="477.5" y="-177.5" font-family="Helvetica,sans-Serif" font-size="10.00">QuantConnect.Logging.Log.</text>
<text text-anchor="middle" x="544.5" y="-166.5" font-family="Helvetica,sans-Serif" font-size="10.00">Debug</text>
</a>
</g>
</g>
<!-- Node1&#45;&gt;Node5 -->
<g id="edge4" class="edge">
<title>Node1&#45;&gt;Node5</title>
<path fill="none" stroke="midnightblue" d="M136.26,-170C161.03,-181.15 193.54,-193.8 224,-199.5 306.54,-214.94 402.81,-203.48 467.93,-191.48"/>
<polygon fill="midnightblue" stroke="midnightblue" points="468.93,-194.85 478.1,-189.55 467.63,-187.97 468.93,-194.85"/>
</g>
<!-- Node7 -->
<g id="node7" class="node">
<title>Node7</title>
<g id="a_node7"><a xlink:href="classQuantConnect_1_1Brokerages_1_1Brokerage.html#a97af4faae6b9826e71e8c7c7bf134a3a" target="_top" xlink:title="Event invocator for the DelistingNotification event">
<polygon fill="white" stroke="black" points="228,-159.5 228,-189.5 410,-189.5 410,-159.5 228,-159.5"/>
<text text-anchor="start" x="236" y="-177.5" font-family="Helvetica,sans-Serif" font-size="10.00">QuantConnect.Brokerages.</text>
<text text-anchor="middle" x="319" y="-166.5" font-family="Helvetica,sans-Serif" font-size="10.00">Brokerage.OnDelistingNotification</text>
</a>
</g>
</g>
<!-- Node1&#45;&gt;Node7 -->
<g id="edge6" class="edge">
<title>Node1&#45;&gt;Node7</title>
<path fill="none" stroke="midnightblue" d="M188.28,-159.96C198.02,-161.05 207.96,-162.16 217.78,-163.26"/>
<polygon fill="midnightblue" stroke="midnightblue" points="217.62,-166.77 227.95,-164.4 218.4,-159.81 217.62,-166.77"/>
</g>
<!-- Node10 -->
<g id="node10" class="node">
<title>Node10</title>
<g id="a_node10"><a xlink:href="classQuantConnect_1_1Brokerages_1_1Brokerage.html#abda95ccb728dbbbe9ddedb31e10adb19" target="_top" xlink:title="Event invocator for the OptionNotification event">
<polygon fill="white" stroke="black" points="233.5,-110.5 233.5,-140.5 404.5,-140.5 404.5,-110.5 233.5,-110.5"/>
<text text-anchor="start" x="241.5" y="-128.5" font-family="Helvetica,sans-Serif" font-size="10.00">QuantConnect.Brokerages.</text>
<text text-anchor="middle" x="319" y="-117.5" font-family="Helvetica,sans-Serif" font-size="10.00">Brokerage.OnOptionNotification</text>
</a>
</g>
</g>
<!-- Node1&#45;&gt;Node10 -->
<g id="edge10" class="edge">
<title>Node1&#45;&gt;Node10</title>
<path fill="none" stroke="midnightblue" d="M188.28,-139.46C199.82,-138.22 211.63,-136.95 223.19,-135.7"/>
<polygon fill="midnightblue" stroke="midnightblue" points="223.7,-139.17 233.27,-134.62 222.95,-132.21 223.7,-139.17"/>
</g>
<!-- Node11 -->
<g id="node11" class="node">
<title>Node11</title>
<g id="a_node11"><a xlink:href="classQuantConnect_1_1Data_1_1UniverseSelection_1_1UserDefinedUniverse.html#ac2073fa727ed83f897d6b52fc8485b5b" target="_top" xlink:title="Removes the specified Symbol from this universe">
<polygon fill="white" stroke="black" points="233.5,-50 233.5,-91 404.5,-91 404.5,-50 233.5,-50"/>
<text text-anchor="start" x="241.5" y="-79" font-family="Helvetica,sans-Serif" font-size="10.00">QuantConnect.Data.Universe</text>
<text text-anchor="start" x="241.5" y="-68" font-family="Helvetica,sans-Serif" font-size="10.00">Selection.UserDefinedUniverse.</text>
<text text-anchor="middle" x="319" y="-57" font-family="Helvetica,sans-Serif" font-size="10.00">Remove</text>
</a>
</g>
</g>
<!-- Node1&#45;&gt;Node11 -->
<g id="edge13" class="edge">
<title>Node1&#45;&gt;Node11</title>
<path fill="none" stroke="midnightblue" d="M148.81,-128.96C171.89,-120.29 199.2,-110.2 224,-101.5 230.8,-99.11 237.9,-96.68 245.01,-94.27"/>
<polygon fill="midnightblue" stroke="midnightblue" points="246.32,-97.52 254.69,-91.02 244.09,-90.89 246.32,-97.52"/>
</g>
<!-- Node13 -->
<g id="node13" class="node">
<title>Node13</title>
<g id="a_node13"><a xlink:href="classQuantConnect_1_1Logging_1_1Log.html#a4e55477fbc790846b74550a57198cea9" target="_top" xlink:title="Log trace">
<polygon fill="white" stroke="black" points="244,-0.5 244,-30.5 394,-30.5 394,-0.5 244,-0.5"/>
<text text-anchor="start" x="252" y="-18.5" font-family="Helvetica,sans-Serif" font-size="10.00">QuantConnect.Logging.Log.</text>
<text text-anchor="middle" x="319" y="-7.5" font-family="Helvetica,sans-Serif" font-size="10.00">Trace</text>
</a>
</g>
</g>
<!-- Node1&#45;&gt;Node13 -->
<g id="edge15" class="edge">
<title>Node1&#45;&gt;Node13</title>
<path fill="none" stroke="midnightblue" d="M113.93,-128.67C137.42,-104.05 179.81,-63.55 224,-40.5 228.47,-38.17 233.18,-36.04 238,-34.1"/>
<polygon fill="midnightblue" stroke="midnightblue" points="239.26,-37.37 247.4,-30.6 236.81,-30.81 239.26,-37.37"/>
</g>
<!-- Node3 -->
<g id="node3" class="node">
<title>Node3</title>
<g id="a_node3"><a xlink:href="classQuantConnect_1_1Securities_1_1SecurityTransactionManager.html#a40a5adc0c964d6f0f472f93fc56d4d53" target="_top" xlink:title="Get an enumerable of open OrderTicket for the specified symbol">
<polygon fill="white" stroke="black" points="457.5,-288 457.5,-329 631.5,-329 631.5,-288 457.5,-288"/>
<text text-anchor="start" x="465.5" y="-317" font-family="Helvetica,sans-Serif" font-size="10.00">QuantConnect.Securities.</text>
<text text-anchor="start" x="465.5" y="-306" font-family="Helvetica,sans-Serif" font-size="10.00">SecurityTransactionManager.Get</text>
<text text-anchor="middle" x="544.5" y="-295" font-family="Helvetica,sans-Serif" font-size="10.00">OpenOrderTickets</text>
</a>
</g>
</g>
<!-- Node2&#45;&gt;Node3 -->
<g id="edge2" class="edge">
<title>Node2&#45;&gt;Node3</title>
<path fill="none" stroke="midnightblue" d="M414.14,-284.77C425.1,-286.78 436.29,-288.83 447.28,-290.85"/>
<polygon fill="midnightblue" stroke="midnightblue" points="446.83,-294.32 457.3,-292.69 448.09,-287.44 446.83,-294.32"/>
</g>
<!-- Node4 -->
<g id="node4" class="node">
<title>Node4</title>
<g id="a_node4"><a xlink:href="classQuantConnect_1_1Messages_1_1SecurityTransactionManager.html#a8e0b665f9ea93c89fdcd1cf97e83a9f0" target="_top" xlink:title="Returns a string message saying the order was canceled by the CancelOpenOrders() at the given time">
<polygon fill="white" stroke="black" points="450,-228 450,-269 639,-269 639,-228 450,-228"/>
<text text-anchor="start" x="458" y="-257" font-family="Helvetica,sans-Serif" font-size="10.00">QuantConnect.Messages.Security</text>
<text text-anchor="start" x="458" y="-246" font-family="Helvetica,sans-Serif" font-size="10.00">TransactionManager.OrderCanceled</text>
<text text-anchor="middle" x="544.5" y="-235" font-family="Helvetica,sans-Serif" font-size="10.00">ByCancelOpenOrders</text>
</a>
</g>
</g>
<!-- Node2&#45;&gt;Node4 -->
<g id="edge3" class="edge">
<title>Node2&#45;&gt;Node4</title>
<path fill="none" stroke="midnightblue" d="M414.14,-259.5C422.63,-258.78 431.25,-258.04 439.82,-257.31"/>
<polygon fill="midnightblue" stroke="midnightblue" points="440.16,-260.8 449.83,-256.46 439.57,-253.82 440.16,-260.8"/>
</g>
<!-- Node6 -->
<g id="node6" class="node">
<title>Node6</title>
<g id="a_node6"><a xlink:href="interfaceQuantConnect_1_1Logging_1_1ILogHandler.html#a2c738b8e78dd5b54244bc68b969ba91d" target="_top" xlink:title="Write debug message to log">
<polygon fill="white" stroke="black" points="675,-159.5 675,-189.5 825,-189.5 825,-159.5 675,-159.5"/>
<text text-anchor="start" x="683" y="-177.5" font-family="Helvetica,sans-Serif" font-size="10.00">QuantConnect.Logging.ILog</text>
<text text-anchor="middle" x="750" y="-166.5" font-family="Helvetica,sans-Serif" font-size="10.00">Handler.Debug</text>
</a>
</g>
</g>
<!-- Node5&#45;&gt;Node6 -->
<g id="edge5" class="edge">
<title>Node5&#45;&gt;Node6</title>
<path fill="none" stroke="midnightblue" d="M619.54,-174.5C634.13,-174.5 649.54,-174.5 664.45,-174.5"/>
<polygon fill="midnightblue" stroke="midnightblue" points="664.67,-178 674.67,-174.5 664.67,-171 664.67,-178"/>
</g>
<!-- Node7&#45;&gt;Node5 -->
<g id="edge7" class="edge">
<title>Node7&#45;&gt;Node5</title>
<path fill="none" stroke="midnightblue" d="M410.26,-174.5C426.36,-174.5 443.08,-174.5 459.01,-174.5"/>
<polygon fill="midnightblue" stroke="midnightblue" points="459.35,-178 469.35,-174.5 459.35,-171 459.35,-178"/>
</g>
<!-- Node8 -->
<g id="node8" class="node">
<title>Node8</title>
<g id="a_node8"><a xlink:href="classQuantConnect_1_1Logging_1_1Log.html#af0e7955911bc7664b37661b2a303a9e3" target="_top" xlink:title="Log error">
<polygon fill="white" stroke="black" points="469.5,-110.5 469.5,-140.5 619.5,-140.5 619.5,-110.5 469.5,-110.5"/>
<text text-anchor="start" x="477.5" y="-128.5" font-family="Helvetica,sans-Serif" font-size="10.00">QuantConnect.Logging.Log.</text>
<text text-anchor="middle" x="544.5" y="-117.5" font-family="Helvetica,sans-Serif" font-size="10.00">Error</text>
</a>
</g>
</g>
<!-- Node7&#45;&gt;Node8 -->
<g id="edge8" class="edge">
<title>Node7&#45;&gt;Node8</title>
<path fill="none" stroke="midnightblue" d="M388.58,-159.47C412.82,-154.15 440.26,-148.13 465.25,-142.66"/>
<polygon fill="midnightblue" stroke="midnightblue" points="466.03,-146.07 475.05,-140.51 464.54,-139.23 466.03,-146.07"/>
</g>
<!-- Node9 -->
<g id="node9" class="node">
<title>Node9</title>
<g id="a_node9"><a xlink:href="interfaceQuantConnect_1_1Logging_1_1ILogHandler.html#a35373a0c5d76031fa5ccf5dc39e5c25d" target="_top" xlink:title="Write error message to log">
<polygon fill="white" stroke="black" points="675,-110.5 675,-140.5 825,-140.5 825,-110.5 675,-110.5"/>
<text text-anchor="start" x="683" y="-128.5" font-family="Helvetica,sans-Serif" font-size="10.00">QuantConnect.Logging.ILog</text>
<text text-anchor="middle" x="750" y="-117.5" font-family="Helvetica,sans-Serif" font-size="10.00">Handler.Error</text>
</a>
</g>
</g>
<!-- Node8&#45;&gt;Node9 -->
<g id="edge9" class="edge">
<title>Node8&#45;&gt;Node9</title>
<path fill="none" stroke="midnightblue" d="M619.54,-125.5C634.13,-125.5 649.54,-125.5 664.45,-125.5"/>
<polygon fill="midnightblue" stroke="midnightblue" points="664.67,-129 674.67,-125.5 664.67,-122 664.67,-129"/>
</g>
<!-- Node10&#45;&gt;Node5 -->
<g id="edge11" class="edge">
<title>Node10&#45;&gt;Node5</title>
<path fill="none" stroke="midnightblue" d="M388.58,-140.53C412.82,-145.85 440.26,-151.87 465.25,-157.34"/>
<polygon fill="midnightblue" stroke="midnightblue" points="464.54,-160.77 475.05,-159.49 466.03,-153.93 464.54,-160.77"/>
</g>
<!-- Node10&#45;&gt;Node8 -->
<g id="edge12" class="edge">
<title>Node10&#45;&gt;Node8</title>
<path fill="none" stroke="midnightblue" d="M404.81,-125.5C422.57,-125.5 441.29,-125.5 459.03,-125.5"/>
<polygon fill="midnightblue" stroke="midnightblue" points="459.35,-129 469.35,-125.5 459.35,-122 459.35,-129"/>
</g>
<!-- Node12 -->
<g id="node12" class="node">
<title>Node12</title>
<g id="a_node12"><a xlink:href="classQuantConnect_1_1Data_1_1UniverseSelection_1_1UserDefinedUniverse.html#a143d427b0db8ba8fec29f3612d72073a" target="_top" xlink:title="Event invocator for the CollectionChanged event">
<polygon fill="white" stroke="black" points="459,-50 459,-91 630,-91 630,-50 459,-50"/>
<text text-anchor="start" x="467" y="-79" font-family="Helvetica,sans-Serif" font-size="10.00">QuantConnect.Data.Universe</text>
<text text-anchor="start" x="467" y="-68" font-family="Helvetica,sans-Serif" font-size="10.00">Selection.UserDefinedUniverse.</text>
<text text-anchor="middle" x="544.5" y="-57" font-family="Helvetica,sans-Serif" font-size="10.00">OnCollectionChanged</text>
</a>
</g>
</g>
<!-- Node11&#45;&gt;Node12 -->
<g id="edge14" class="edge">
<title>Node11&#45;&gt;Node12</title>
<path fill="none" stroke="midnightblue" d="M404.81,-70.5C419.16,-70.5 434.14,-70.5 448.72,-70.5"/>
<polygon fill="midnightblue" stroke="midnightblue" points="448.74,-74 458.74,-70.5 448.74,-67 448.74,-74"/>
</g>
<!-- Node14 -->
<g id="node14" class="node">
<title>Node14</title>
<g id="a_node14"><a xlink:href="interfaceQuantConnect_1_1Logging_1_1ILogHandler.html#a3fb71a33ac66129240b63f12b6fcda3b" target="_top" xlink:title="Write debug message to log">
<polygon fill="white" stroke="black" points="469.5,-0.5 469.5,-30.5 619.5,-30.5 619.5,-0.5 469.5,-0.5"/>
<text text-anchor="start" x="477.5" y="-18.5" font-family="Helvetica,sans-Serif" font-size="10.00">QuantConnect.Logging.ILog</text>
<text text-anchor="middle" x="544.5" y="-7.5" font-family="Helvetica,sans-Serif" font-size="10.00">Handler.Trace</text>
</a>
</g>
</g>
<!-- Node13&#45;&gt;Node14 -->
<g id="edge16" class="edge">
<title>Node13&#45;&gt;Node14</title>
<path fill="none" stroke="midnightblue" d="M394.11,-15.5C414.95,-15.5 437.77,-15.5 459.17,-15.5"/>
<polygon fill="midnightblue" stroke="midnightblue" points="459.21,-19 469.21,-15.5 459.21,-12 459.21,-19"/>
</g>
</g>
</svg>
