<?xml version="1.0" encoding="UTF-8" standalone="no"?>
<!DOCTYPE svg PUBLIC "-//W3C//DTD SVG 1.1//EN"
 "http://www.w3.org/Graphics/SVG/1.1/DTD/svg11.dtd">
<!-- Generated by graphviz version 2.43.0 (0)
 -->
<!-- Title: QuantConnect.Brokerages.TradeStationBrokerageModel.CanSubmitOrder Pages: 1 -->
<svg width="447pt" height="198pt"
 viewBox="0.00 0.00 447.00 198.00" xmlns="http://www.w3.org/2000/svg" xmlns:xlink="http://www.w3.org/1999/xlink">
<g id="graph0" class="graph" transform="scale(1 1) rotate(0) translate(4 194)">
<title>QuantConnect.Brokerages.TradeStationBrokerageModel.CanSubmitOrder</title>
<polygon fill="white" stroke="transparent" points="-4,4 -4,-194 443,-194 443,4 -4,4"/>
<!-- Node1 -->
<g id="node1" class="node">
<title>Node1</title>
<g id="a_node1"><a xlink:title="Returns true if the brokerage could accept this order. This takes into account order type,...">
<polygon fill="#bfbfbf" stroke="black" points="0,-71 0,-112 179,-112 179,-71 0,-71"/>
<text text-anchor="start" x="8" y="-100" font-family="Helvetica,sans-Serif" font-size="10.00">QuantConnect.Brokerages.</text>
<text text-anchor="start" x="8" y="-89" font-family="Helvetica,sans-Serif" font-size="10.00">TradeStationBrokerageModel.Can</text>
<text text-anchor="middle" x="89.5" y="-78" font-family="Helvetica,sans-Serif" font-size="10.00">SubmitOrder</text>
</a>
</g>
</g>
<!-- Node2 -->
<g id="node2" class="node">
<title>Node2</title>
<g id="a_node2"><a xlink:href="classQuantConnect_1_1Brokerages_1_1BrokerageExtensions.html#a59d79c1126d8f1cad70f5029c020d7f4" target="_top" xlink:title="Determines if executing the specified order will cross the zero holdings threshold.">
<polygon fill="white" stroke="black" points="222,-159.5 222,-189.5 432,-189.5 432,-159.5 222,-159.5"/>
<text text-anchor="start" x="230" y="-177.5" font-family="Helvetica,sans-Serif" font-size="10.00">QuantConnect.Brokerages.</text>
<text text-anchor="middle" x="327" y="-166.5" font-family="Helvetica,sans-Serif" font-size="10.00">BrokerageExtensions.OrderCrossesZero</text>
</a>
</g>
</g>
<!-- Node1&#45;&gt;Node2 -->
<g id="edge1" class="edge">
<title>Node1&#45;&gt;Node2</title>
<path fill="none" stroke="midnightblue" d="M129.14,-112.13C153.28,-124.35 185.32,-139.38 215,-149.5 222.86,-152.18 231.13,-154.66 239.47,-156.92"/>
<polygon fill="midnightblue" stroke="midnightblue" points="238.71,-160.34 249.27,-159.48 240.48,-153.57 238.71,-160.34"/>
</g>
<!-- Node3 -->
<g id="node3" class="node">
<title>Node3</title>
<g id="a_node3"><a xlink:href="classQuantConnect_1_1Messages_1_1DefaultBrokerageModel.html#a5978e08dd839e3c0b31c03ebd4d6e87d" target="_top" xlink:title="Returns a message indicating that the specified order type is not supported for orders that cross the...">
<polygon fill="white" stroke="black" points="221.5,-99 221.5,-140 432.5,-140 432.5,-99 221.5,-99"/>
<text text-anchor="start" x="229.5" y="-128" font-family="Helvetica,sans-Serif" font-size="10.00">QuantConnect.Messages.Default</text>
<text text-anchor="start" x="229.5" y="-117" font-family="Helvetica,sans-Serif" font-size="10.00">BrokerageModel.UnsupportedCrossZero</text>
<text text-anchor="middle" x="327" y="-106" font-family="Helvetica,sans-Serif" font-size="10.00">ByOrderType</text>
</a>
</g>
</g>
<!-- Node1&#45;&gt;Node3 -->
<g id="edge2" class="edge">
<title>Node1&#45;&gt;Node3</title>
<path fill="none" stroke="midnightblue" d="M179.2,-102.05C189.57,-103.28 200.27,-104.55 210.93,-105.82"/>
<polygon fill="midnightblue" stroke="midnightblue" points="210.8,-109.33 221.14,-107.03 211.62,-102.38 210.8,-109.33"/>
</g>
<!-- Node4 -->
<g id="node4" class="node">
<title>Node4</title>
<g id="a_node4"><a xlink:href="classQuantConnect_1_1Messages_1_1DefaultBrokerageModel.html#a772b06f7270c604cc7386874e827dc84" target="_top" xlink:title="Returns a string message saying the type of the given order is unsupported by the given brokerage mod...">
<polygon fill="white" stroke="black" points="221.5,-49.5 221.5,-79.5 432.5,-79.5 432.5,-49.5 221.5,-49.5"/>
<text text-anchor="start" x="229.5" y="-67.5" font-family="Helvetica,sans-Serif" font-size="10.00">QuantConnect.Messages.Default</text>
<text text-anchor="middle" x="327" y="-56.5" font-family="Helvetica,sans-Serif" font-size="10.00">BrokerageModel.UnsupportedOrderType</text>
</a>
</g>
</g>
<!-- Node1&#45;&gt;Node4 -->
<g id="edge3" class="edge">
<title>Node1&#45;&gt;Node4</title>
<path fill="none" stroke="midnightblue" d="M179.2,-81.33C189.57,-80.14 200.27,-78.92 210.93,-77.69"/>
<polygon fill="midnightblue" stroke="midnightblue" points="211.6,-81.14 221.14,-76.52 210.81,-74.18 211.6,-81.14"/>
</g>
<!-- Node5 -->
<g id="node5" class="node">
<title>Node5</title>
<g id="a_node5"><a xlink:href="classQuantConnect_1_1Messages_1_1DefaultBrokerageModel.html#a1b9fa7f8e1c87b388c646fcef6cdb389" target="_top" xlink:title="Retunrns a string message saying the type of the given security is not supported by the given brokera...">
<polygon fill="white" stroke="black" points="215,-0.5 215,-30.5 439,-30.5 439,-0.5 215,-0.5"/>
<text text-anchor="start" x="223" y="-18.5" font-family="Helvetica,sans-Serif" font-size="10.00">QuantConnect.Messages.Default</text>
<text text-anchor="middle" x="327" y="-7.5" font-family="Helvetica,sans-Serif" font-size="10.00">BrokerageModel.UnsupportedSecurityType</text>
</a>
</g>
</g>
<!-- Node1&#45;&gt;Node5 -->
<g id="edge4" class="edge">
<title>Node1&#45;&gt;Node5</title>
<path fill="none" stroke="midnightblue" d="M135.36,-70.99C158.75,-60.85 188.04,-48.99 215,-40.5 223.51,-37.82 232.47,-35.31 241.46,-32.99"/>
<polygon fill="midnightblue" stroke="midnightblue" points="242.36,-36.37 251.21,-30.54 240.66,-29.58 242.36,-36.37"/>
</g>
</g>
</svg>
