<?xml version="1.0" encoding="UTF-8" standalone="no"?>
<!DOCTYPE svg PUBLIC "-//W3C//DTD SVG 1.1//EN"
 "http://www.w3.org/Graphics/SVG/1.1/DTD/svg11.dtd">
<!-- Generated by graphviz version 2.43.0 (0)
 -->
<!-- Title: QuantConnect.Lean.Engine.HistoricalData.HistoryProviderManager.GetHistory Pages: 1 -->
<svg width="382pt" height="100pt"
 viewBox="0.00 0.00 382.00 99.50" xmlns="http://www.w3.org/2000/svg" xmlns:xlink="http://www.w3.org/1999/xlink">
<g id="graph0" class="graph" transform="scale(1 1) rotate(0) translate(4 95.5)">
<title>QuantConnect.Lean.Engine.HistoricalData.HistoryProviderManager.GetHistory</title>
<polygon fill="white" stroke="transparent" points="-4,4 -4,-95.5 378,-95.5 378,4 -4,4"/>
<!-- Node1 -->
<g id="node1" class="node">
<title>Node1</title>
<g id="a_node1"><a xlink:title="Gets the history for the requested securities">
<polygon fill="#bfbfbf" stroke="black" points="0,-22 0,-63 165,-63 165,-22 0,-22"/>
<text text-anchor="start" x="8" y="-51" font-family="Helvetica,sans-Serif" font-size="10.00">QuantConnect.Lean.Engine.</text>
<text text-anchor="start" x="8" y="-40" font-family="Helvetica,sans-Serif" font-size="10.00">HistoricalData.HistoryProvider</text>
<text text-anchor="middle" x="82.5" y="-29" font-family="Helvetica,sans-Serif" font-size="10.00">Manager.GetHistory</text>
</a>
</g>
</g>
<!-- Node2 -->
<g id="node2" class="node">
<title>Node2</title>
<g id="a_node2"><a xlink:href="interfaceQuantConnect_1_1Interfaces_1_1IDataPermissionManager.html#a43996d144f0389a27e15d8bb17b3f858" target="_top" xlink:title="Will assert the requested configuration is valid for the current job">
<polygon fill="white" stroke="black" points="201,-50 201,-91 374,-91 374,-50 201,-50"/>
<text text-anchor="start" x="209" y="-79" font-family="Helvetica,sans-Serif" font-size="10.00">QuantConnect.Interfaces.</text>
<text text-anchor="start" x="209" y="-68" font-family="Helvetica,sans-Serif" font-size="10.00">IDataPermissionManager.Assert</text>
<text text-anchor="middle" x="287.5" y="-57" font-family="Helvetica,sans-Serif" font-size="10.00">Configuration</text>
</a>
</g>
</g>
<!-- Node1&#45;&gt;Node2 -->
<g id="edge1" class="edge">
<title>Node1&#45;&gt;Node2</title>
<path fill="none" stroke="midnightblue" d="M165.19,-53.77C173.66,-54.94 182.33,-56.13 190.94,-57.32"/>
<polygon fill="midnightblue" stroke="midnightblue" points="190.61,-60.81 201,-58.71 191.57,-53.87 190.61,-60.81"/>
</g>
<!-- Node3 -->
<g id="node3" class="node">
<title>Node3</title>
<g id="a_node3"><a xlink:href="classQuantConnect_1_1Data_1_1Slice.html#a18f7bd0b5e471bb6353a1358af1ebc94" target="_top" xlink:title="Merge two slice with same Time">
<polygon fill="white" stroke="black" points="217,-0.5 217,-30.5 358,-30.5 358,-0.5 217,-0.5"/>
<text text-anchor="start" x="225" y="-18.5" font-family="Helvetica,sans-Serif" font-size="10.00">QuantConnect.Data.Slice.</text>
<text text-anchor="middle" x="287.5" y="-7.5" font-family="Helvetica,sans-Serif" font-size="10.00">MergeSlice</text>
</a>
</g>
</g>
<!-- Node1&#45;&gt;Node3 -->
<g id="edge2" class="edge">
<title>Node1&#45;&gt;Node3</title>
<path fill="none" stroke="midnightblue" d="M165.19,-31.63C178.8,-29.82 192.9,-27.95 206.47,-26.14"/>
<polygon fill="midnightblue" stroke="midnightblue" points="207.27,-29.57 216.72,-24.78 206.35,-22.63 207.27,-29.57"/>
</g>
</g>
</svg>
