<?xml version="1.0" encoding="UTF-8" standalone="no"?>
<!DOCTYPE svg PUBLIC "-//W3C//DTD SVG 1.1//EN"
 "http://www.w3.org/Graphics/SVG/1.1/DTD/svg11.dtd">
<!-- Generated by graphviz version 2.43.0 (0)
 -->
<!-- Title: QuantConnect.Python.DataConsolidatorPythonWrapper Pages: 1 -->
<svg width="254pt" height="162pt"
 viewBox="0.00 0.00 254.00 162.00" xmlns="http://www.w3.org/2000/svg" xmlns:xlink="http://www.w3.org/1999/xlink">
<g id="graph0" class="graph" transform="scale(1 1) rotate(0) translate(4 158)">
<title>QuantConnect.Python.DataConsolidatorPythonWrapper</title>
<polygon fill="white" stroke="transparent" points="-4,4 -4,-158 250,-158 250,4 -4,4"/>
<!-- Node1 -->
<g id="node1" class="node">
<title>Node1</title>
<g id="a_node1"><a xlink:title="Provides an Data Consolidator that wraps a PyObject object that represents a custom Python consolidat...">
<polygon fill="#bfbfbf" stroke="black" points="51.5,-0.5 51.5,-30.5 204.5,-30.5 204.5,-0.5 51.5,-0.5"/>
<text text-anchor="start" x="59.5" y="-18.5" font-family="Helvetica,sans-Serif" font-size="10.00">QuantConnect.Python.Data</text>
<text text-anchor="middle" x="128" y="-7.5" font-family="Helvetica,sans-Serif" font-size="10.00">ConsolidatorPythonWrapper</text>
</a>
</g>
</g>
<!-- Node2 -->
<g id="node2" class="node">
<title>Node2</title>
<g id="a_node2"><a xlink:href="classQuantConnect_1_1Python_1_1BasePythonWrapper.html" target="_top" xlink:title=" ">
<polygon fill="white" stroke="black" points="0,-67.5 0,-97.5 124,-97.5 124,-67.5 0,-67.5"/>
<text text-anchor="start" x="8" y="-85.5" font-family="Helvetica,sans-Serif" font-size="10.00">BasePythonWrapper&lt;</text>
<text text-anchor="middle" x="62" y="-74.5" font-family="Helvetica,sans-Serif" font-size="10.00"> IDataConsolidator &gt;</text>
</a>
</g>
</g>
<!-- Node2&#45;&gt;Node1 -->
<g id="edge1" class="edge">
<title>Node2&#45;&gt;Node1</title>
<path fill="none" stroke="midnightblue" d="M83.51,-60.31C93.41,-50.56 104.89,-39.26 113.71,-30.58"/>
<polygon fill="midnightblue" stroke="midnightblue" points="80.99,-57.89 76.32,-67.4 85.9,-62.87 80.99,-57.89"/>
</g>
<!-- Node3 -->
<g id="node3" class="node">
<title>Node3</title>
<g id="a_node3"><a xlink:href="interfaceQuantConnect_1_1Data_1_1Consolidators_1_1IDataConsolidator.html" target="_top" xlink:title="Represents a type capable of taking BaseData updates and firing events containing new &#39;consolidated&#39; ...">
<polygon fill="white" stroke="black" points="142,-73 142,-92 246,-92 246,-73 142,-73"/>
<text text-anchor="middle" x="194" y="-80" font-family="Helvetica,sans-Serif" font-size="10.00">IDataConsolidator</text>
</a>
</g>
</g>
<!-- Node3&#45;&gt;Node1 -->
<g id="edge2" class="edge">
<title>Node3&#45;&gt;Node1</title>
<path fill="none" stroke="midnightblue" d="M177.87,-65.62C167,-54.91 152.78,-40.9 142.31,-30.59"/>
<polygon fill="midnightblue" stroke="midnightblue" points="175.52,-68.21 185.1,-72.73 180.43,-63.22 175.52,-68.21"/>
</g>
<!-- Node4 -->
<g id="node4" class="node">
<title>Node4</title>
<g id="a_node4"><a xlink:title=" ">
<polygon fill="white" stroke="#bfbfbf" points="157,-134.5 157,-153.5 231,-153.5 231,-134.5 157,-134.5"/>
<text text-anchor="middle" x="194" y="-141.5" font-family="Helvetica,sans-Serif" font-size="10.00">IDisposable</text>
</a>
</g>
</g>
<!-- Node4&#45;&gt;Node3 -->
<g id="edge3" class="edge">
<title>Node4&#45;&gt;Node3</title>
<path fill="none" stroke="midnightblue" d="M194,-124.32C194,-113.5 194,-100.4 194,-92.01"/>
<polygon fill="midnightblue" stroke="midnightblue" points="190.5,-124.48 194,-134.48 197.5,-124.48 190.5,-124.48"/>
</g>
</g>
</svg>
