<?xml version="1.0" encoding="UTF-8" standalone="no"?>
<!DOCTYPE svg PUBLIC "-//W3C//DTD SVG 1.1//EN"
 "http://www.w3.org/Graphics/SVG/1.1/DTD/svg11.dtd">
<!-- Generated by graphviz version 2.43.0 (0)
 -->
<!-- Title: QuantConnect.Algorithm.Selection.OptionContractUniverse.CreateSymbol Pages: 1 -->
<svg width="1597pt" height="513pt"
 viewBox="0.00 0.00 1597.00 512.73" xmlns="http://www.w3.org/2000/svg" xmlns:xlink="http://www.w3.org/1999/xlink">
<g id="graph0" class="graph" transform="scale(1 1) rotate(0) translate(4 508.73)">
<title>QuantConnect.Algorithm.Selection.OptionContractUniverse.CreateSymbol</title>
<polygon fill="white" stroke="transparent" points="-4,4 -4,-508.73 1593,-508.73 1593,4 -4,4"/>
<!-- Node1 -->
<g id="node1" class="node">
<title>Node1</title>
<g id="a_node1"><a xlink:title="Creates a user defined universe symbol">
<polygon fill="#bfbfbf" stroke="black" points="0,-223.5 0,-253.5 206,-253.5 206,-223.5 0,-223.5"/>
<text text-anchor="start" x="8" y="-241.5" font-family="Helvetica,sans-Serif" font-size="10.00">QuantConnect.Algorithm.Selection.</text>
<text text-anchor="middle" x="103" y="-230.5" font-family="Helvetica,sans-Serif" font-size="10.00">OptionContractUniverse.CreateSymbol</text>
</a>
</g>
</g>
<!-- Node2 -->
<g id="node2" class="node">
<title>Node2</title>
<g id="a_node2"><a xlink:href="classQuantConnect_1_1Symbol.html#a350b9a625cf7bad95da82894be3cd0a8" target="_top" xlink:title="Provides a convenience method for creating a Symbol for most security types. This method currently do...">
<polygon fill="white" stroke="black" points="248.5,-251 248.5,-270 409.5,-270 409.5,-251 248.5,-251"/>
<text text-anchor="middle" x="329" y="-258" font-family="Helvetica,sans-Serif" font-size="10.00">QuantConnect.Symbol.Create</text>
</a>
</g>
</g>
<!-- Node1&#45;&gt;Node2 -->
<g id="edge1" class="edge">
<title>Node1&#45;&gt;Node2</title>
<path fill="none" stroke="midnightblue" d="M206.17,-248.53C216.92,-249.59 227.8,-250.66 238.4,-251.7"/>
<polygon fill="midnightblue" stroke="midnightblue" points="238.17,-255.19 248.46,-252.69 238.85,-248.23 238.17,-255.19"/>
</g>
<!-- Node20 -->
<g id="node20" class="node">
<title>Node20</title>
<g id="a_node20"><a xlink:href="classQuantConnect_1_1SecurityIdentifier.html#a58becf4433a3155807bc4959679ccca7" target="_top" xlink:title="Generates a new SecurityIdentifier for an option">
<polygon fill="white" stroke="black" points="242,-201.5 242,-231.5 416,-231.5 416,-201.5 242,-201.5"/>
<text text-anchor="start" x="250" y="-219.5" font-family="Helvetica,sans-Serif" font-size="10.00">QuantConnect.SecurityIdentifier.</text>
<text text-anchor="middle" x="329" y="-208.5" font-family="Helvetica,sans-Serif" font-size="10.00">GenerateOption</text>
</a>
</g>
</g>
<!-- Node1&#45;&gt;Node20 -->
<g id="edge21" class="edge">
<title>Node1&#45;&gt;Node20</title>
<path fill="none" stroke="midnightblue" d="M206.17,-228.47C214.62,-227.64 223.14,-226.8 231.55,-225.97"/>
<polygon fill="midnightblue" stroke="midnightblue" points="232.12,-229.43 241.73,-224.97 231.43,-222.47 232.12,-229.43"/>
</g>
<!-- Node3 -->
<g id="node3" class="node">
<title>Node3</title>
<g id="a_node3"><a xlink:href="classQuantConnect_1_1Symbol.html#a7518a1932d1babbff128f2ba9666a78b" target="_top" xlink:title="Provides a convenience method for creating an option Symbol.">
<polygon fill="white" stroke="black" points="461.5,-431.5 461.5,-461.5 622.5,-461.5 622.5,-431.5 461.5,-431.5"/>
<text text-anchor="start" x="469.5" y="-449.5" font-family="Helvetica,sans-Serif" font-size="10.00">QuantConnect.Symbol.Create</text>
<text text-anchor="middle" x="542" y="-438.5" font-family="Helvetica,sans-Serif" font-size="10.00">Option</text>
</a>
</g>
</g>
<!-- Node2&#45;&gt;Node3 -->
<g id="edge2" class="edge">
<title>Node2&#45;&gt;Node3</title>
<path fill="none" stroke="midnightblue" d="M334.9,-270.15C349.15,-297.28 393.35,-374.98 452,-416.5 457.86,-420.65 464.33,-424.25 471.03,-427.38"/>
<polygon fill="midnightblue" stroke="midnightblue" points="469.71,-430.63 480.28,-431.36 472.48,-424.2 469.71,-430.63"/>
</g>
<!-- Node4 -->
<g id="node4" class="node">
<title>Node4</title>
<g id="a_node4"><a xlink:href="classQuantConnect_1_1SecurityIdentifier.html#a0c21d7880c9fdd260883d11ea0c99a00" target="_top" xlink:title="Helper overload that will search the mapfiles to resolve the first date. This implementation uses the...">
<polygon fill="white" stroke="black" points="668,-464.5 668,-494.5 842,-494.5 842,-464.5 668,-464.5"/>
<text text-anchor="start" x="676" y="-482.5" font-family="Helvetica,sans-Serif" font-size="10.00">QuantConnect.SecurityIdentifier.</text>
<text text-anchor="middle" x="755" y="-471.5" font-family="Helvetica,sans-Serif" font-size="10.00">GenerateEquity</text>
</a>
</g>
</g>
<!-- Node2&#45;&gt;Node4 -->
<g id="edge15" class="edge">
<title>Node2&#45;&gt;Node4</title>
<path fill="none" stroke="midnightblue" d="M332.14,-270.43C340.29,-305.59 373.08,-424.56 452,-471.5 521.53,-512.85 616.91,-507.28 681.75,-496.31"/>
<polygon fill="midnightblue" stroke="midnightblue" points="682.65,-499.71 691.89,-494.51 681.43,-492.81 682.65,-499.71"/>
</g>
<!-- Node5 -->
<g id="node5" class="node">
<title>Node5</title>
<g id="a_node5"><a xlink:href="classQuantConnect_1_1Symbol.html#a59158f74116be3dad0ea0f3f3f134416" target="_top" xlink:title="Initializes a new instance of the Symbol class">
<polygon fill="white" stroke="black" points="672.5,-415 672.5,-434 837.5,-434 837.5,-415 672.5,-415"/>
<text text-anchor="middle" x="755" y="-422" font-family="Helvetica,sans-Serif" font-size="10.00">QuantConnect.Symbol.Symbol</text>
</a>
</g>
</g>
<!-- Node2&#45;&gt;Node5 -->
<g id="edge20" class="edge">
<title>Node2&#45;&gt;Node5</title>
<path fill="none" stroke="midnightblue" d="M336.28,-270.19C352.3,-293.97 397.29,-355.27 452,-382.5 487.87,-400.35 586.92,-411.78 661.88,-418.13"/>
<polygon fill="midnightblue" stroke="midnightblue" points="662.04,-421.66 672.29,-419 662.62,-414.68 662.04,-421.66"/>
</g>
<!-- Node11 -->
<g id="node11" class="node">
<title>Node11</title>
<g id="a_node11"><a xlink:href="classQuantConnect_1_1SecurityIdentifier.html#a02ca750115844561c001c2346fbafc00" target="_top" xlink:title="Generates a new SecurityIdentifier for a custom security with the option of providing the first date">
<polygon fill="white" stroke="black" points="455,-343.5 455,-373.5 629,-373.5 629,-343.5 455,-343.5"/>
<text text-anchor="start" x="463" y="-361.5" font-family="Helvetica,sans-Serif" font-size="10.00">QuantConnect.SecurityIdentifier.</text>
<text text-anchor="middle" x="542" y="-350.5" font-family="Helvetica,sans-Serif" font-size="10.00">GenerateBase</text>
</a>
</g>
</g>
<!-- Node2&#45;&gt;Node11 -->
<g id="edge10" class="edge">
<title>Node2&#45;&gt;Node11</title>
<path fill="none" stroke="midnightblue" d="M343.27,-270.06C365.02,-285.36 410.06,-315.44 452,-333.5 457.48,-335.86 463.24,-338.06 469.09,-340.1"/>
<polygon fill="midnightblue" stroke="midnightblue" points="468.39,-343.55 478.98,-343.37 470.59,-336.91 468.39,-343.55"/>
</g>
<!-- Node13 -->
<g id="node13" class="node">
<title>Node13</title>
<g id="a_node13"><a xlink:href="classQuantConnect_1_1SecurityIdentifier.html#a53953b18d814c5445e4ecdcb3b555080" target="_top" xlink:title="Generates a new SecurityIdentifier for a CFD security">
<polygon fill="white" stroke="black" points="455,-294.5 455,-324.5 629,-324.5 629,-294.5 455,-294.5"/>
<text text-anchor="start" x="463" y="-312.5" font-family="Helvetica,sans-Serif" font-size="10.00">QuantConnect.SecurityIdentifier.</text>
<text text-anchor="middle" x="542" y="-301.5" font-family="Helvetica,sans-Serif" font-size="10.00">GenerateCfd</text>
</a>
</g>
</g>
<!-- Node2&#45;&gt;Node13 -->
<g id="edge12" class="edge">
<title>Node2&#45;&gt;Node13</title>
<path fill="none" stroke="midnightblue" d="M370.93,-270.01C397.98,-276.29 434.22,-284.7 466.29,-292.15"/>
<polygon fill="midnightblue" stroke="midnightblue" points="465.57,-295.58 476.1,-294.43 467.15,-288.76 465.57,-295.58"/>
</g>
<!-- Node14 -->
<g id="node14" class="node">
<title>Node14</title>
<g id="a_node14"><a xlink:href="classQuantConnect_1_1SecurityIdentifier.html#a5889a95a36ce927dd0a109cbfbcbe663" target="_top" xlink:title="Generates a new SecurityIdentifier for a Crypto pair">
<polygon fill="white" stroke="black" points="455,-245.5 455,-275.5 629,-275.5 629,-245.5 455,-245.5"/>
<text text-anchor="start" x="463" y="-263.5" font-family="Helvetica,sans-Serif" font-size="10.00">QuantConnect.SecurityIdentifier.</text>
<text text-anchor="middle" x="542" y="-252.5" font-family="Helvetica,sans-Serif" font-size="10.00">GenerateCrypto</text>
</a>
</g>
</g>
<!-- Node2&#45;&gt;Node14 -->
<g id="edge13" class="edge">
<title>Node2&#45;&gt;Node14</title>
<path fill="none" stroke="midnightblue" d="M409.77,-260.5C421.14,-260.5 432.94,-260.5 444.59,-260.5"/>
<polygon fill="midnightblue" stroke="midnightblue" points="444.77,-264 454.77,-260.5 444.77,-257 444.77,-264"/>
</g>
<!-- Node15 -->
<g id="node15" class="node">
<title>Node15</title>
<g id="a_node15"><a xlink:href="classQuantConnect_1_1SecurityIdentifier.html#ac665665a16d5449872fed3427b95a260" target="_top" xlink:title="Generates a new SecurityIdentifier for a CryptoFuture pair">
<polygon fill="white" stroke="black" points="455,-196.5 455,-226.5 629,-226.5 629,-196.5 455,-196.5"/>
<text text-anchor="start" x="463" y="-214.5" font-family="Helvetica,sans-Serif" font-size="10.00">QuantConnect.SecurityIdentifier.</text>
<text text-anchor="middle" x="542" y="-203.5" font-family="Helvetica,sans-Serif" font-size="10.00">GenerateCryptoFuture</text>
</a>
</g>
</g>
<!-- Node2&#45;&gt;Node15 -->
<g id="edge14" class="edge">
<title>Node2&#45;&gt;Node15</title>
<path fill="none" stroke="midnightblue" d="M370.93,-250.99C397.98,-244.71 434.22,-236.3 466.29,-228.85"/>
<polygon fill="midnightblue" stroke="midnightblue" points="467.15,-232.24 476.1,-226.57 465.57,-225.42 467.15,-232.24"/>
</g>
<!-- Node16 -->
<g id="node16" class="node">
<title>Node16</title>
<g id="a_node16"><a xlink:href="classQuantConnect_1_1SecurityIdentifier.html#a9cf0d3b208a5171e6112516ce441f18d" target="_top" xlink:title="Generates a new SecurityIdentifier for a forex pair">
<polygon fill="white" stroke="black" points="455,-147.5 455,-177.5 629,-177.5 629,-147.5 455,-147.5"/>
<text text-anchor="start" x="463" y="-165.5" font-family="Helvetica,sans-Serif" font-size="10.00">QuantConnect.SecurityIdentifier.</text>
<text text-anchor="middle" x="542" y="-154.5" font-family="Helvetica,sans-Serif" font-size="10.00">GenerateForex</text>
</a>
</g>
</g>
<!-- Node2&#45;&gt;Node16 -->
<g id="edge16" class="edge">
<title>Node2&#45;&gt;Node16</title>
<path fill="none" stroke="midnightblue" d="M395.2,-250.97C402.58,-248.29 409.7,-244.86 416,-240.5 439.71,-224.08 428.58,-203.33 452,-186.5 454.1,-184.99 456.3,-183.57 458.56,-182.24"/>
<polygon fill="midnightblue" stroke="midnightblue" points="460.33,-185.27 467.6,-177.55 457.11,-179.05 460.33,-185.27"/>
</g>
<!-- Node17 -->
<g id="node17" class="node">
<title>Node17</title>
<g id="a_node17"><a xlink:href="classQuantConnect_1_1SecurityIdentifier.html#ad50a891c97cb0c084a9e2aa43607ed66" target="_top" xlink:title="Generates a new SecurityIdentifier for a future">
<polygon fill="white" stroke="black" points="455,-98.5 455,-128.5 629,-128.5 629,-98.5 455,-98.5"/>
<text text-anchor="start" x="463" y="-116.5" font-family="Helvetica,sans-Serif" font-size="10.00">QuantConnect.SecurityIdentifier.</text>
<text text-anchor="middle" x="542" y="-105.5" font-family="Helvetica,sans-Serif" font-size="10.00">GenerateFuture</text>
</a>
</g>
</g>
<!-- Node2&#45;&gt;Node17 -->
<g id="edge17" class="edge">
<title>Node2&#45;&gt;Node17</title>
<path fill="none" stroke="midnightblue" d="M399.77,-250.95C405.68,-248.23 411.21,-244.8 416,-240.5 452.09,-208.11 416.48,-170.52 452,-137.5 453.14,-136.44 454.31,-135.43 455.53,-134.47"/>
<polygon fill="midnightblue" stroke="midnightblue" points="457.71,-137.21 464.02,-128.7 453.78,-131.42 457.71,-137.21"/>
</g>
<!-- Node18 -->
<g id="node18" class="node">
<title>Node18</title>
<g id="a_node18"><a xlink:href="classQuantConnect_1_1SecurityIdentifier.html#ade05a8e57b041ab484cf585be8d05699" target="_top" xlink:title="Generates a new SecurityIdentifier for a INDEX security">
<polygon fill="white" stroke="black" points="455,-49.5 455,-79.5 629,-79.5 629,-49.5 455,-49.5"/>
<text text-anchor="start" x="463" y="-67.5" font-family="Helvetica,sans-Serif" font-size="10.00">QuantConnect.SecurityIdentifier.</text>
<text text-anchor="middle" x="542" y="-56.5" font-family="Helvetica,sans-Serif" font-size="10.00">GenerateIndex</text>
</a>
</g>
</g>
<!-- Node2&#45;&gt;Node18 -->
<g id="edge18" class="edge">
<title>Node2&#45;&gt;Node18</title>
<path fill="none" stroke="midnightblue" d="M401.49,-250.84C406.82,-248.12 411.76,-244.72 416,-240.5 465.19,-191.51 403.67,-138.34 452,-88.5 452.94,-87.53 453.91,-86.6 454.92,-85.7"/>
<polygon fill="midnightblue" stroke="midnightblue" points="457.27,-88.32 463.19,-79.53 453.09,-82.71 457.27,-88.32"/>
</g>
<!-- Node19 -->
<g id="node19" class="node">
<title>Node19</title>
<g id="a_node19"><a xlink:href="classQuantConnect_1_1Messages_1_1Symbol.html#ab801bef52a308b8ba7ba6d42e1ef1988" target="_top" xlink:title="Returns a string message saying the given security type has not been implemented yet">
<polygon fill="white" stroke="black" points="452,-0.5 452,-30.5 632,-30.5 632,-0.5 452,-0.5"/>
<text text-anchor="start" x="460" y="-18.5" font-family="Helvetica,sans-Serif" font-size="10.00">QuantConnect.Messages.Symbol.</text>
<text text-anchor="middle" x="542" y="-7.5" font-family="Helvetica,sans-Serif" font-size="10.00">SecurityTypeNotImplementedYet</text>
</a>
</g>
</g>
<!-- Node2&#45;&gt;Node19 -->
<g id="edge19" class="edge">
<title>Node2&#45;&gt;Node19</title>
<path fill="none" stroke="midnightblue" d="M402.15,-250.88C407.27,-248.13 411.99,-244.72 416,-240.5 478.51,-174.7 390.65,-106.38 452,-39.5 452.78,-38.65 453.6,-37.82 454.43,-37.02"/>
<polygon fill="midnightblue" stroke="midnightblue" points="456.9,-39.53 462.57,-30.58 452.56,-34.04 456.9,-39.53"/>
</g>
<!-- Node3&#45;&gt;Node4 -->
<g id="edge3" class="edge">
<title>Node3&#45;&gt;Node4</title>
<path fill="none" stroke="midnightblue" d="M622.77,-458.98C634.14,-460.75 645.94,-462.6 657.59,-464.42"/>
<polygon fill="midnightblue" stroke="midnightblue" points="657.35,-467.93 667.77,-466.01 658.43,-461.01 657.35,-467.93"/>
</g>
<!-- Node3&#45;&gt;Node5 -->
<g id="edge4" class="edge">
<title>Node3&#45;&gt;Node5</title>
<path fill="none" stroke="midnightblue" d="M622.77,-438.18C635.7,-436.83 649.17,-435.43 662.35,-434.06"/>
<polygon fill="midnightblue" stroke="midnightblue" points="662.78,-437.53 672.36,-433.01 662.05,-430.57 662.78,-437.53"/>
</g>
<!-- Node6 -->
<g id="node6" class="node">
<title>Node6</title>
<g id="a_node6"><a xlink:href="classQuantConnect_1_1Symbol.html#a59b0795fa21f46c306deb5576fa03bb9" target="_top" xlink:title="Centralized helper method to resolve alias for a symbol">
<polygon fill="white" stroke="black" points="878,-415 878,-434 1048,-434 1048,-415 878,-415"/>
<text text-anchor="middle" x="963" y="-422" font-family="Helvetica,sans-Serif" font-size="10.00">QuantConnect.Symbol.GetAlias</text>
</a>
</g>
</g>
<!-- Node5&#45;&gt;Node6 -->
<g id="edge5" class="edge">
<title>Node5&#45;&gt;Node6</title>
<path fill="none" stroke="midnightblue" d="M837.71,-424.5C847.47,-424.5 857.49,-424.5 867.4,-424.5"/>
<polygon fill="midnightblue" stroke="midnightblue" points="867.68,-428 877.68,-424.5 867.68,-421 867.68,-428"/>
</g>
<!-- Node7 -->
<g id="node7" class="node">
<title>Node7</title>
<g id="a_node7"><a xlink:href="classQuantConnect_1_1SymbolRepresentation.html#ad43ac907f6c19083821f58f21c6de017" target="_top" xlink:title="Returns future symbol ticker from underlying and expiration date. Function can generate tickers of tw...">
<polygon fill="white" stroke="black" points="1084,-437.5 1084,-467.5 1287,-467.5 1287,-437.5 1084,-437.5"/>
<text text-anchor="start" x="1092" y="-455.5" font-family="Helvetica,sans-Serif" font-size="10.00">QuantConnect.SymbolRepresentation.</text>
<text text-anchor="middle" x="1185.5" y="-444.5" font-family="Helvetica,sans-Serif" font-size="10.00">GenerateFutureTicker</text>
</a>
</g>
</g>
<!-- Node6&#45;&gt;Node7 -->
<g id="edge6" class="edge">
<title>Node6&#45;&gt;Node7</title>
<path fill="none" stroke="midnightblue" d="M1038.96,-434.02C1050.27,-435.46 1062.14,-436.96 1074.01,-438.47"/>
<polygon fill="midnightblue" stroke="midnightblue" points="1073.62,-441.95 1083.98,-439.74 1074.5,-435 1073.62,-441.95"/>
</g>
<!-- Node9 -->
<g id="node9" class="node">
<title>Node9</title>
<g id="a_node9"><a xlink:href="classQuantConnect_1_1SymbolRepresentation.html#ab133044f5cf8c16e700190a2202b215e" target="_top" xlink:title="Returns option symbol ticker in accordance with OSI symbology More information can be found at http:/...">
<polygon fill="white" stroke="black" points="1084,-385.5 1084,-415.5 1287,-415.5 1287,-385.5 1084,-385.5"/>
<text text-anchor="start" x="1092" y="-403.5" font-family="Helvetica,sans-Serif" font-size="10.00">QuantConnect.SymbolRepresentation.</text>
<text text-anchor="middle" x="1185.5" y="-392.5" font-family="Helvetica,sans-Serif" font-size="10.00">GenerateOptionTickerOSI</text>
</a>
</g>
</g>
<!-- Node6&#45;&gt;Node9 -->
<g id="edge8" class="edge">
<title>Node6&#45;&gt;Node9</title>
<path fill="none" stroke="midnightblue" d="M1048.31,-415.32C1056.69,-414.41 1065.3,-413.47 1073.9,-412.54"/>
<polygon fill="midnightblue" stroke="midnightblue" points="1074.43,-416 1083.99,-411.44 1073.67,-409.04 1074.43,-416"/>
</g>
<!-- Node8 -->
<g id="node8" class="node">
<title>Node8</title>
<g id="a_node8"><a xlink:href="classQuantConnect_1_1Securities_1_1Future_1_1FuturesExpiryUtilityFunctions.html#a4ccb1e2f2fe40ff09785a74a02f26df1" target="_top" xlink:title="Gets the number of months between the contract month and the expiry date.">
<polygon fill="white" stroke="black" points="1323,-435 1323,-476 1589,-476 1589,-435 1323,-435"/>
<text text-anchor="start" x="1331" y="-464" font-family="Helvetica,sans-Serif" font-size="10.00">QuantConnect.Securities.</text>
<text text-anchor="start" x="1331" y="-453" font-family="Helvetica,sans-Serif" font-size="10.00">Future.FuturesExpiryUtilityFunctions.</text>
<text text-anchor="middle" x="1456" y="-442" font-family="Helvetica,sans-Serif" font-size="10.00">GetDeltaBetweenContractMonthAndContractExpiry</text>
</a>
</g>
</g>
<!-- Node7&#45;&gt;Node8 -->
<g id="edge7" class="edge">
<title>Node7&#45;&gt;Node8</title>
<path fill="none" stroke="midnightblue" d="M1287.24,-453.63C1295.59,-453.72 1304.11,-453.81 1312.68,-453.91"/>
<polygon fill="midnightblue" stroke="midnightblue" points="1312.72,-457.41 1322.76,-454.02 1312.8,-450.41 1312.72,-457.41"/>
</g>
<!-- Node10 -->
<g id="node10" class="node">
<title>Node10</title>
<g id="a_node10"><a xlink:href="classQuantConnect_1_1Messages_1_1SymbolRepresentation.html#a2c514157d8055cfa271ea3a7ca1ccde7" target="_top" xlink:title="Returns a string message saying an unexpected security type was received by the given method name">
<polygon fill="white" stroke="black" points="1360,-375 1360,-416 1552,-416 1552,-375 1360,-375"/>
<text text-anchor="start" x="1368" y="-404" font-family="Helvetica,sans-Serif" font-size="10.00">QuantConnect.Messages.Symbol</text>
<text text-anchor="start" x="1368" y="-393" font-family="Helvetica,sans-Serif" font-size="10.00">Representation.UnexpectedSecurity</text>
<text text-anchor="middle" x="1456" y="-382" font-family="Helvetica,sans-Serif" font-size="10.00">TypeForMethod</text>
</a>
</g>
</g>
<!-- Node9&#45;&gt;Node10 -->
<g id="edge9" class="edge">
<title>Node9&#45;&gt;Node10</title>
<path fill="none" stroke="midnightblue" d="M1287.24,-398.62C1307.7,-398.24 1329.27,-397.84 1349.88,-397.46"/>
<polygon fill="midnightblue" stroke="midnightblue" points="1349.98,-400.96 1359.91,-397.27 1349.85,-393.96 1349.98,-400.96"/>
</g>
<!-- Node12 -->
<g id="node12" class="node">
<title>Node12</title>
<g id="a_node12"><a xlink:href="classQuantConnect_1_1SecurityIdentifier.html#a19e1f9da410608020d74ed9e7d283575" target="_top" xlink:title="Generates the Symbol property for QuantConnect.SecurityType.Base security identifiers">
<polygon fill="white" stroke="black" points="668,-343.5 668,-373.5 842,-373.5 842,-343.5 668,-343.5"/>
<text text-anchor="start" x="676" y="-361.5" font-family="Helvetica,sans-Serif" font-size="10.00">QuantConnect.SecurityIdentifier.</text>
<text text-anchor="middle" x="755" y="-350.5" font-family="Helvetica,sans-Serif" font-size="10.00">GenerateBaseSymbol</text>
</a>
</g>
</g>
<!-- Node11&#45;&gt;Node12 -->
<g id="edge11" class="edge">
<title>Node11&#45;&gt;Node12</title>
<path fill="none" stroke="midnightblue" d="M629.13,-358.5C638.5,-358.5 648.08,-358.5 657.57,-358.5"/>
<polygon fill="midnightblue" stroke="midnightblue" points="657.81,-362 667.81,-358.5 657.81,-355 657.81,-362"/>
</g>
</g>
</svg>
