<?xml version="1.0" encoding="UTF-8" standalone="no"?>
<!DOCTYPE svg PUBLIC "-//W3C//DTD SVG 1.1//EN"
 "http://www.w3.org/Graphics/SVG/1.1/DTD/svg11.dtd">
<!-- Generated by graphviz version 2.43.0 (0)
 -->
<!-- Title: QuantConnect.Scheduling.TimeRules.BeforeMarketClose Pages: 1 -->
<!--zoomable 319 -->
<svg id="main" version="1.1" xmlns="http://www.w3.org/2000/svg" xmlns:xlink="http://www.w3.org/1999/xlink" xml:space="preserve" onload="init(evt)">
<style type="text/css"><![CDATA[
.edge:hover path { stroke: red; }
.edge:hover polygon { stroke: red; fill: red; }
]]></style>
<script type="text/javascript"><![CDATA[
var edges = document.getElementsByTagName('g');
if (edges && edges.length) {
  for (var i=0;i<edges.length;i++) {
    if (edges[i].id.substr(0,4)=='edge') {
      edges[i].setAttribute('class','edge');
    }
  }
}
]]></script>
        <defs>
                <circle id="rim" cx="0" cy="0" r="7"/>
                <circle id="rim2" cx="0" cy="0" r="3.5"/>
                <g id="zoomPlus">
                        <use xlink:href="#rim" fill="#404040">
                                <set attributeName="fill" to="#808080" begin="zoomplus.mouseover" end="zoomplus.mouseout"/>
                        </use>
                        <path d="M-4,0h8M0,-4v8" fill="none" stroke="white" stroke-width="1.5" pointer-events="none"/>
                </g>
                <g id="zoomMin">
                        <use xlink:href="#rim" fill="#404040">
                                <set attributeName="fill" to="#808080" begin="zoomminus.mouseover" end="zoomminus.mouseout"/>
                        </use>
                        <path d="M-4,0h8" fill="none" stroke="white" stroke-width="1.5" pointer-events="none"/>
                </g>
                <g id="dirArrow">
                        <path fill="none" stroke="white" stroke-width="1.5" d="M0,-3.0v7 M-2.5,-0.5L0,-3.0L2.5,-0.5"/>
                </g>
               <g id="resetDef">
                       <use xlink:href="#rim2" fill="#404040">
                               <set attributeName="fill" to="#808080" begin="reset.mouseover" end="reset.mouseout"/>
                       </use>
               </g>
        </defs>

<script type="text/javascript">
var viewWidth = 1284;
var viewHeight = 319;
var sectionId = 'dynsection-10';
</script>
<script xlink:href="svgpan.js"/>
<svg id="graph" class="graph">
<g id="viewport">
<title>QuantConnect.Scheduling.TimeRules.BeforeMarketClose</title>
<polygon fill="white" stroke="transparent" points="-4,4 -4,-314.5 1280,-314.5 1280,4 -4,4"/>
<!-- Node1 -->
<g id="node1" class="node">
<title>Node1</title>
<g id="a_node1"><a xlink:title="Specifies an event should fire at the market close +&#45; minutesBeforeClose">
<polygon fill="#bfbfbf" stroke="black" points="0,-121 0,-151 164,-151 164,-121 0,-121"/>
<text text-anchor="start" x="8" y="-139" font-family="Helvetica,sans-Serif" font-size="10.00">QuantConnect.Scheduling.</text>
<text text-anchor="middle" x="82" y="-128" font-family="Helvetica,sans-Serif" font-size="10.00">TimeRules.BeforeMarketClose</text>
</a>
</g>
</g>
<!-- Node2 -->
<g id="node2" class="node">
<title>Node2</title>
<g id="a_node2"><a xlink:href="classQuantConnect_1_1Scheduling_1_1BaseScheduleRules.html#a7f7f5459a775e24b528b7c58ebe6fe77" target="_top" xlink:title="Helper method to fetch the security exchange hours">
<polygon fill="white" stroke="black" points="200,-115.5 200,-156.5 372,-156.5 372,-115.5 200,-115.5"/>
<text text-anchor="start" x="208" y="-144.5" font-family="Helvetica,sans-Serif" font-size="10.00">QuantConnect.Scheduling.</text>
<text text-anchor="start" x="208" y="-133.5" font-family="Helvetica,sans-Serif" font-size="10.00">BaseScheduleRules.GetSecurity</text>
<text text-anchor="middle" x="286" y="-122.5" font-family="Helvetica,sans-Serif" font-size="10.00">ExchangeHours</text>
</a>
</g>
</g>
<!-- Node1&#45;&gt;Node2 -->
<g id="edge1" class="edge">
<title>Node1&#45;&gt;Node2</title>
<path fill="none" stroke="midnightblue" d="M164.29,-136C172.72,-136 181.34,-136 189.91,-136"/>
<polygon fill="midnightblue" stroke="midnightblue" points="189.92,-139.5 199.92,-136 189.92,-132.5 189.92,-139.5"/>
</g>
<!-- Node3 -->
<g id="node3" class="node">
<title>Node3</title>
<g id="a_node3"><a xlink:href="classQuantConnect_1_1Securities_1_1MarketHoursDatabase.html#aeac6cf20dbffdbafd258f0d5f4473713" target="_top" xlink:title="Gets the entry for the specified market/symbol/security&#45;type">
<polygon fill="white" stroke="black" points="408,-146 408,-176 579,-176 579,-146 408,-146"/>
<text text-anchor="start" x="416" y="-164" font-family="Helvetica,sans-Serif" font-size="10.00">QuantConnect.Securities.</text>
<text text-anchor="middle" x="493.5" y="-153" font-family="Helvetica,sans-Serif" font-size="10.00">MarketHoursDatabase.GetEntry</text>
</a>
</g>
</g>
<!-- Node2&#45;&gt;Node3 -->
<g id="edge2" class="edge">
<title>Node2&#45;&gt;Node3</title>
<path fill="none" stroke="midnightblue" d="M372.07,-146.35C380.56,-147.38 389.22,-148.44 397.8,-149.48"/>
<polygon fill="midnightblue" stroke="midnightblue" points="397.48,-152.97 407.83,-150.7 398.32,-146.02 397.48,-152.97"/>
</g>
<!-- Node15 -->
<g id="node15" class="node">
<title>Node15</title>
<g id="a_node15"><a xlink:href="classQuantConnect_1_1Securities_1_1SecurityManager.html#af3ad97e370ceec706ac1afe70f7fbb42" target="_top" xlink:title="Try and get this security object with matching symbol and return true on success.">
<polygon fill="white" stroke="black" points="413.5,-97 413.5,-127 573.5,-127 573.5,-97 413.5,-97"/>
<text text-anchor="start" x="421.5" y="-115" font-family="Helvetica,sans-Serif" font-size="10.00">QuantConnect.Securities.</text>
<text text-anchor="middle" x="493.5" y="-104" font-family="Helvetica,sans-Serif" font-size="10.00">SecurityManager.TryGetValue</text>
</a>
</g>
</g>
<!-- Node2&#45;&gt;Node15 -->
<g id="edge14" class="edge">
<title>Node2&#45;&gt;Node15</title>
<path fill="none" stroke="midnightblue" d="M372.07,-126.07C382.34,-124.87 392.85,-123.64 403.18,-122.43"/>
<polygon fill="midnightblue" stroke="midnightblue" points="403.9,-125.87 413.43,-121.23 403.09,-118.92 403.9,-125.87"/>
</g>
<!-- Node4 -->
<g id="node4" class="node">
<title>Node4</title>
<g id="a_node4"><a xlink:href="classQuantConnect_1_1Logging_1_1Log.html#af0e7955911bc7664b37661b2a303a9e3" target="_top" xlink:title="Log error">
<polygon fill="white" stroke="black" points="648.5,-280 648.5,-310 798.5,-310 798.5,-280 648.5,-280"/>
<text text-anchor="start" x="656.5" y="-298" font-family="Helvetica,sans-Serif" font-size="10.00">QuantConnect.Logging.Log.</text>
<text text-anchor="middle" x="723.5" y="-287" font-family="Helvetica,sans-Serif" font-size="10.00">Error</text>
</a>
</g>
</g>
<!-- Node3&#45;&gt;Node4 -->
<g id="edge3" class="edge">
<title>Node3&#45;&gt;Node4</title>
<path fill="none" stroke="midnightblue" d="M506.44,-176.11C526.29,-200.14 568.51,-246.81 615,-271 622.44,-274.87 630.48,-278.12 638.7,-280.84"/>
<polygon fill="midnightblue" stroke="midnightblue" points="637.83,-284.24 648.41,-283.81 639.87,-277.54 637.83,-284.24"/>
</g>
<!-- Node6 -->
<g id="node6" class="node">
<title>Node6</title>
<g id="a_node6"><a xlink:href="classQuantConnect_1_1Messages_1_1MarketHoursDatabase.html#af07138844a7ebc1a342f8b56a6be9917" target="_top" xlink:title="Returns a string message saying it was impossible to locate exchange hours for the given key....">
<polygon fill="white" stroke="black" points="615,-231 615,-261 832,-261 832,-231 615,-231"/>
<text text-anchor="start" x="623" y="-249" font-family="Helvetica,sans-Serif" font-size="10.00">QuantConnect.Messages.Market</text>
<text text-anchor="middle" x="723.5" y="-238" font-family="Helvetica,sans-Serif" font-size="10.00">HoursDatabase.ExchangeHoursNotFound</text>
</a>
</g>
</g>
<!-- Node3&#45;&gt;Node6 -->
<g id="edge5" class="edge">
<title>Node3&#45;&gt;Node6</title>
<path fill="none" stroke="midnightblue" d="M520.52,-176.18C544.41,-189.58 581.13,-208.82 615,-221 622.29,-223.62 629.96,-226.04 637.7,-228.25"/>
<polygon fill="midnightblue" stroke="midnightblue" points="636.96,-231.68 647.53,-230.94 638.81,-224.93 636.96,-231.68"/>
</g>
<!-- Node7 -->
<g id="node7" class="node">
<title>Node7</title>
<g id="a_node7"><a xlink:href="classQuantConnect_1_1Securities_1_1SymbolPropertiesDatabase.html#aee26fb588793fd311c44eb8b2909cc33" target="_top" xlink:title="Gets the instance of the SymbolPropertiesDatabase class produced by reading in the symbol properties ...">
<polygon fill="white" stroke="black" points="635,-170.5 635,-211.5 812,-211.5 812,-170.5 635,-170.5"/>
<text text-anchor="start" x="643" y="-199.5" font-family="Helvetica,sans-Serif" font-size="10.00">QuantConnect.Securities.</text>
<text text-anchor="start" x="643" y="-188.5" font-family="Helvetica,sans-Serif" font-size="10.00">SymbolPropertiesDatabase.From</text>
<text text-anchor="middle" x="723.5" y="-177.5" font-family="Helvetica,sans-Serif" font-size="10.00">DataFolder</text>
</a>
</g>
</g>
<!-- Node3&#45;&gt;Node7 -->
<g id="edge6" class="edge">
<title>Node3&#45;&gt;Node7</title>
<path fill="none" stroke="midnightblue" d="M579.07,-172.13C593.8,-174.07 609.23,-176.1 624.28,-178.08"/>
<polygon fill="midnightblue" stroke="midnightblue" points="624.26,-181.6 634.63,-179.44 625.17,-174.66 624.26,-181.6"/>
</g>
<!-- Node11 -->
<g id="node11" class="node">
<title>Node11</title>
<g id="a_node11"><a xlink:href="classQuantConnect_1_1Messages_1_1MarketHoursDatabase.html#a656d4c4976d6c12d2d865ad34fb23c42" target="_top" xlink:title="Returns a string message that suggests the given market based on the provided ticker">
<polygon fill="white" stroke="black" points="619,-110.5 619,-151.5 828,-151.5 828,-110.5 619,-110.5"/>
<text text-anchor="start" x="627" y="-139.5" font-family="Helvetica,sans-Serif" font-size="10.00">QuantConnect.Messages.Market</text>
<text text-anchor="start" x="627" y="-128.5" font-family="Helvetica,sans-Serif" font-size="10.00">HoursDatabase.SuggestedMarketBased</text>
<text text-anchor="middle" x="723.5" y="-117.5" font-family="Helvetica,sans-Serif" font-size="10.00">OnTicker</text>
</a>
</g>
</g>
<!-- Node3&#45;&gt;Node11 -->
<g id="edge10" class="edge">
<title>Node3&#45;&gt;Node11</title>
<path fill="none" stroke="midnightblue" d="M579.07,-149.87C588.77,-148.6 598.77,-147.28 608.77,-145.96"/>
<polygon fill="midnightblue" stroke="midnightblue" points="609.29,-149.43 618.75,-144.65 608.38,-142.49 609.29,-149.43"/>
</g>
<!-- Node12 -->
<g id="node12" class="node">
<title>Node12</title>
<g id="a_node12"><a xlink:href="classQuantConnect_1_1Securities_1_1MarketHoursDatabase.html#a3eedd1459368e8f50da2cedfc7508006" target="_top" xlink:title="Tries to get the entry for the specified market/symbol/security&#45;type">
<polygon fill="white" stroke="black" points="631,-61 631,-91 816,-91 816,-61 631,-61"/>
<text text-anchor="start" x="639" y="-79" font-family="Helvetica,sans-Serif" font-size="10.00">QuantConnect.Securities.</text>
<text text-anchor="middle" x="723.5" y="-68" font-family="Helvetica,sans-Serif" font-size="10.00">MarketHoursDatabase.TryGetEntry</text>
</a>
</g>
</g>
<!-- Node3&#45;&gt;Node12 -->
<g id="edge11" class="edge">
<title>Node3&#45;&gt;Node12</title>
<path fill="none" stroke="midnightblue" d="M557.76,-145.99C565.15,-143.17 572.4,-139.86 579,-136 598.26,-124.73 595.42,-111.7 615,-101 619.24,-98.68 623.69,-96.58 628.27,-94.67"/>
<polygon fill="midnightblue" stroke="midnightblue" points="629.73,-97.86 637.82,-91.02 627.23,-91.32 629.73,-97.86"/>
</g>
<!-- Node14 -->
<g id="node14" class="node">
<title>Node14</title>
<g id="a_node14"><a xlink:href="classQuantConnect_1_1Securities_1_1SymbolPropertiesDatabase.html#a5a7baeddd03bfc7fb60cef8ab2e6834b" target="_top" xlink:title="Tries to get the market for the provided symbol/security type">
<polygon fill="white" stroke="black" points="640,-0.5 640,-41.5 807,-41.5 807,-0.5 640,-0.5"/>
<text text-anchor="start" x="648" y="-29.5" font-family="Helvetica,sans-Serif" font-size="10.00">QuantConnect.Securities.</text>
<text text-anchor="start" x="648" y="-18.5" font-family="Helvetica,sans-Serif" font-size="10.00">SymbolPropertiesDatabase.Try</text>
<text text-anchor="middle" x="723.5" y="-7.5" font-family="Helvetica,sans-Serif" font-size="10.00">GetMarket</text>
</a>
</g>
</g>
<!-- Node3&#45;&gt;Node14 -->
<g id="edge13" class="edge">
<title>Node3&#45;&gt;Node14</title>
<path fill="none" stroke="midnightblue" d="M564.53,-145.91C569.75,-143.15 574.66,-139.87 579,-136 609.6,-108.67 584.19,-78.09 615,-51 619.78,-46.8 625.09,-43.19 630.73,-40.08"/>
<polygon fill="midnightblue" stroke="midnightblue" points="632.41,-43.15 639.84,-35.59 629.32,-36.87 632.41,-43.15"/>
</g>
<!-- Node5 -->
<g id="node5" class="node">
<title>Node5</title>
<g id="a_node5"><a xlink:href="interfaceQuantConnect_1_1Logging_1_1ILogHandler.html#a35373a0c5d76031fa5ccf5dc39e5c25d" target="_top" xlink:title="Write error message to log">
<polygon fill="white" stroke="black" points="889,-280 889,-310 1039,-310 1039,-280 889,-280"/>
<text text-anchor="start" x="897" y="-298" font-family="Helvetica,sans-Serif" font-size="10.00">QuantConnect.Logging.ILog</text>
<text text-anchor="middle" x="964" y="-287" font-family="Helvetica,sans-Serif" font-size="10.00">Handler.Error</text>
</a>
</g>
</g>
<!-- Node4&#45;&gt;Node5 -->
<g id="edge4" class="edge">
<title>Node4&#45;&gt;Node5</title>
<path fill="none" stroke="midnightblue" d="M798.66,-295C824.01,-295 852.55,-295 878.64,-295"/>
<polygon fill="midnightblue" stroke="midnightblue" points="878.89,-298.5 888.89,-295 878.89,-291.5 878.89,-298.5"/>
</g>
<!-- Node8 -->
<g id="node8" class="node">
<title>Node8</title>
<g id="a_node8"><a xlink:href="classQuantConnect_1_1Globals.html#ae01b5c94ef475a21ab1a62fe1b04ea5c" target="_top" xlink:title="Helper method that will build a data folder path checking if it exists on the cache folder else will ...">
<polygon fill="white" stroke="black" points="891,-204 891,-234 1037,-234 1037,-204 891,-204"/>
<text text-anchor="start" x="899" y="-222" font-family="Helvetica,sans-Serif" font-size="10.00">QuantConnect.Globals.Get</text>
<text text-anchor="middle" x="964" y="-211" font-family="Helvetica,sans-Serif" font-size="10.00">DataFolderPath</text>
</a>
</g>
</g>
<!-- Node7&#45;&gt;Node8 -->
<g id="edge7" class="edge">
<title>Node7&#45;&gt;Node8</title>
<path fill="none" stroke="midnightblue" d="M812.29,-201.31C834.64,-203.93 858.57,-206.74 880.63,-209.33"/>
<polygon fill="midnightblue" stroke="midnightblue" points="880.29,-212.81 890.63,-210.5 881.1,-205.86 880.29,-212.81"/>
</g>
<!-- Node9 -->
<g id="node9" class="node">
<title>Node9</title>
<g id="a_node9"><a xlink:href="classQuantConnect_1_1Securities_1_1SymbolPropertiesDatabase.html#a1658f93bf0dce7022bb7584e1a95cc7a" target="_top" xlink:title="Initialize a new instance of SymbolPropertiesDatabase using the given file">
<polygon fill="white" stroke="black" points="869.5,-143.5 869.5,-184.5 1058.5,-184.5 1058.5,-143.5 869.5,-143.5"/>
<text text-anchor="start" x="877.5" y="-172.5" font-family="Helvetica,sans-Serif" font-size="10.00">QuantConnect.Securities.</text>
<text text-anchor="start" x="877.5" y="-161.5" font-family="Helvetica,sans-Serif" font-size="10.00">SymbolPropertiesDatabase.Symbol</text>
<text text-anchor="middle" x="964" y="-150.5" font-family="Helvetica,sans-Serif" font-size="10.00">PropertiesDatabase</text>
</a>
</g>
</g>
<!-- Node7&#45;&gt;Node9 -->
<g id="edge8" class="edge">
<title>Node7&#45;&gt;Node9</title>
<path fill="none" stroke="midnightblue" d="M812.29,-181.06C827.55,-179.33 843.54,-177.52 859.17,-175.75"/>
<polygon fill="midnightblue" stroke="midnightblue" points="859.84,-179.2 869.38,-174.6 859.05,-172.25 859.84,-179.2"/>
</g>
<!-- Node10 -->
<g id="node10" class="node">
<title>Node10</title>
<g id="a_node10"><a xlink:href="classQuantConnect_1_1Messages_1_1SymbolPropertiesDatabase.html#a6abceae517a349a28223bfc2dc9106d7" target="_top" xlink:title="Returns a string saying a duplicated key was found while processing the given file">
<polygon fill="white" stroke="black" points="1096,-143.5 1096,-184.5 1276,-184.5 1276,-143.5 1096,-143.5"/>
<text text-anchor="start" x="1104" y="-172.5" font-family="Helvetica,sans-Serif" font-size="10.00">QuantConnect.Messages.Symbol</text>
<text text-anchor="start" x="1104" y="-161.5" font-family="Helvetica,sans-Serif" font-size="10.00">PropertiesDatabase.DuplicateKey</text>
<text text-anchor="middle" x="1186" y="-150.5" font-family="Helvetica,sans-Serif" font-size="10.00">InFile</text>
</a>
</g>
</g>
<!-- Node9&#45;&gt;Node10 -->
<g id="edge9" class="edge">
<title>Node9&#45;&gt;Node10</title>
<path fill="none" stroke="midnightblue" d="M1058.62,-164C1067.54,-164 1076.61,-164 1085.58,-164"/>
<polygon fill="midnightblue" stroke="midnightblue" points="1085.66,-167.5 1095.66,-164 1085.66,-160.5 1085.66,-167.5"/>
</g>
<!-- Node13 -->
<g id="node13" class="node">
<title>Node13</title>
<g id="a_node13"><a xlink:href="classQuantConnect_1_1Securities_1_1MarketHoursDatabase.html#aa717adb9bb04be931913608ffd5a2733" target="_top" xlink:title="Gets the correct string symbol to use as a database key">
<polygon fill="white" stroke="black" points="868,-55.5 868,-96.5 1060,-96.5 1060,-55.5 868,-55.5"/>
<text text-anchor="start" x="876" y="-84.5" font-family="Helvetica,sans-Serif" font-size="10.00">QuantConnect.Securities.</text>
<text text-anchor="start" x="876" y="-73.5" font-family="Helvetica,sans-Serif" font-size="10.00">MarketHoursDatabase.GetDatabase</text>
<text text-anchor="middle" x="964" y="-62.5" font-family="Helvetica,sans-Serif" font-size="10.00">SymbolKey</text>
</a>
</g>
</g>
<!-- Node12&#45;&gt;Node13 -->
<g id="edge12" class="edge">
<title>Node12&#45;&gt;Node13</title>
<path fill="none" stroke="midnightblue" d="M816.03,-76C829.66,-76 843.81,-76 857.7,-76"/>
<polygon fill="midnightblue" stroke="midnightblue" points="857.76,-79.5 867.76,-76 857.76,-72.5 857.76,-79.5"/>
</g>
</g>
</svg>
        <g id="navigator" transform="translate(0 0)" fill="#404254">
                <rect fill="#f2f5e9" fill-opacity="0.5" stroke="#606060" stroke-width=".5" x="0" y="0" width="60" height="60"/>
                <use id="zoomplus" xlink:href="#zoomPlus" x="17" y="9" onmousedown="handleZoom(evt,'in')"/>
                <use id="zoomminus" xlink:href="#zoomMin" x="42" y="9" onmousedown="handleZoom(evt,'out')"/>
                <use id="reset" xlink:href="#resetDef" x="30" y="36" onmousedown="handleReset()"/>
                <g id="arrowUp" xlink:href="#dirArrow" transform="translate(30 24)" onmousedown="handlePan(0,-1)">
                  <use xlink:href="#rim" fill="#404040">
                        <set attributeName="fill" to="#808080" begin="arrowUp.mouseover" end="arrowUp.mouseout"/>
                  </use>
                  <path fill="none" stroke="white" stroke-width="1.5" d="M0,-3.0v7 M-2.5,-0.5L0,-3.0L2.5,-0.5"/>
                </g>
                <g id="arrowRight" xlink:href="#dirArrow" transform="rotate(90) translate(36 -43)" onmousedown="handlePan(1,0)">
                  <use xlink:href="#rim" fill="#404040">
                        <set attributeName="fill" to="#808080" begin="arrowRight.mouseover" end="arrowRight.mouseout"/>
                  </use>
                  <path fill="none" stroke="white" stroke-width="1.5" d="M0,-3.0v7 M-2.5,-0.5L0,-3.0L2.5,-0.5"/>
                </g>
                <g id="arrowDown" xlink:href="#dirArrow" transform="rotate(180) translate(-30 -48)" onmousedown="handlePan(0,1)">
                  <use xlink:href="#rim" fill="#404040">
                        <set attributeName="fill" to="#808080" begin="arrowDown.mouseover" end="arrowDown.mouseout"/>
                  </use>
                  <path fill="none" stroke="white" stroke-width="1.5" d="M0,-3.0v7 M-2.5,-0.5L0,-3.0L2.5,-0.5"/>
                </g>
                <g id="arrowLeft" xlink:href="#dirArrow" transform="rotate(270) translate(-36 17)" onmousedown="handlePan(-1,0)">
                  <use xlink:href="#rim" fill="#404040">
                        <set attributeName="fill" to="#808080" begin="arrowLeft.mouseover" end="arrowLeft.mouseout"/>
                  </use>
                  <path fill="none" stroke="white" stroke-width="1.5" d="M0,-3.0v7 M-2.5,-0.5L0,-3.0L2.5,-0.5"/>
                </g>
        </g>
        <svg viewBox="0 0 15 15" width="100%" height="30px" preserveAspectRatio="xMaxYMin meet">
         <g id="arrow_out" transform="scale(0.3 0.3)">
          <a xlink:href="classQuantConnect_1_1Scheduling_1_1TimeRules_a2deae02e63a372ec702f2bc8b1233506_cgraph_org.svg" target="_base">
           <rect id="button" ry="5" rx="5" y="6" x="6" height="38" width="38"
                fill="#f2f5e9" fill-opacity="0.5" stroke="#606060" stroke-width="1.0"/>
           <path id="arrow"
             d="M 11.500037,31.436501 C 11.940474,20.09759 22.043105,11.32322 32.158766,21.979434 L 37.068811,17.246167 C 37.068811,17.246167 37.088388,32 37.088388,32 L 22.160133,31.978069 C 22.160133,31.978069 26.997745,27.140456 26.997745,27.140456 C 18.528582,18.264221 13.291696,25.230495 11.500037,31.436501 z"
             style="fill:#404040;"/>
          </a>
         </g>
        </svg>
</svg>
