<?xml version="1.0" encoding="UTF-8" standalone="no"?>
<!DOCTYPE svg PUBLIC "-//W3C//DTD SVG 1.1//EN"
 "http://www.w3.org/Graphics/SVG/1.1/DTD/svg11.dtd">
<!-- Generated by graphviz version 2.43.0 (0)
 -->
<!-- Title: QuantConnect.CapacityEstimate.UpdateMarketCapacity Pages: 1 -->
<svg width="1134pt" height="110pt"
 viewBox="0.00 0.00 1134.00 110.00" xmlns="http://www.w3.org/2000/svg" xmlns:xlink="http://www.w3.org/1999/xlink">
<g id="graph0" class="graph" transform="scale(1 1) rotate(0) translate(4 106)">
<title>QuantConnect.CapacityEstimate.UpdateMarketCapacity</title>
<polygon fill="white" stroke="transparent" points="-4,4 -4,-106 1130,-106 1130,4 -4,4"/>
<!-- Node1 -->
<g id="node1" class="node">
<title>Node1</title>
<g id="a_node1"><a xlink:title="Updates the market capacity for any Symbols that require a market update. Sometimes,...">
<polygon fill="#bfbfbf" stroke="black" points="0,-35 0,-65 178,-65 178,-35 0,-35"/>
<text text-anchor="start" x="8" y="-53" font-family="Helvetica,sans-Serif" font-size="10.00">QuantConnect.CapacityEstimate.</text>
<text text-anchor="middle" x="89" y="-42" font-family="Helvetica,sans-Serif" font-size="10.00">UpdateMarketCapacity</text>
</a>
</g>
</g>
<!-- Node2 -->
<g id="node2" class="node">
<title>Node2</title>
<g id="a_node2"><a xlink:href="classQuantConnect_1_1Symbol.html#a59158f74116be3dad0ea0f3f3f134416" target="_top" xlink:title="Initializes a new instance of the Symbol class">
<polygon fill="white" stroke="black" points="214,-40.5 214,-59.5 379,-59.5 379,-40.5 214,-40.5"/>
<text text-anchor="middle" x="296.5" y="-47.5" font-family="Helvetica,sans-Serif" font-size="10.00">QuantConnect.Symbol.Symbol</text>
</a>
</g>
</g>
<!-- Node1&#45;&gt;Node2 -->
<g id="edge1" class="edge">
<title>Node1&#45;&gt;Node2</title>
<path fill="none" stroke="midnightblue" d="M178.04,-50C186.49,-50 195.06,-50 203.54,-50"/>
<polygon fill="midnightblue" stroke="midnightblue" points="203.82,-53.5 213.82,-50 203.82,-46.5 203.82,-53.5"/>
</g>
<!-- Node3 -->
<g id="node3" class="node">
<title>Node3</title>
<g id="a_node3"><a xlink:href="classQuantConnect_1_1Symbol.html#a59b0795fa21f46c306deb5576fa03bb9" target="_top" xlink:title="Centralized helper method to resolve alias for a symbol">
<polygon fill="white" stroke="black" points="415,-40.5 415,-59.5 585,-59.5 585,-40.5 415,-40.5"/>
<text text-anchor="middle" x="500" y="-47.5" font-family="Helvetica,sans-Serif" font-size="10.00">QuantConnect.Symbol.GetAlias</text>
</a>
</g>
</g>
<!-- Node2&#45;&gt;Node3 -->
<g id="edge2" class="edge">
<title>Node2&#45;&gt;Node3</title>
<path fill="none" stroke="midnightblue" d="M379.17,-50C387.64,-50 396.29,-50 404.88,-50"/>
<polygon fill="midnightblue" stroke="midnightblue" points="404.92,-53.5 414.92,-50 404.92,-46.5 404.92,-53.5"/>
</g>
<!-- Node4 -->
<g id="node4" class="node">
<title>Node4</title>
<g id="a_node4"><a xlink:href="classQuantConnect_1_1SymbolRepresentation.html#ad43ac907f6c19083821f58f21c6de017" target="_top" xlink:title="Returns future symbol ticker from underlying and expiration date. Function can generate tickers of tw...">
<polygon fill="white" stroke="black" points="621,-63 621,-93 824,-93 824,-63 621,-63"/>
<text text-anchor="start" x="629" y="-81" font-family="Helvetica,sans-Serif" font-size="10.00">QuantConnect.SymbolRepresentation.</text>
<text text-anchor="middle" x="722.5" y="-70" font-family="Helvetica,sans-Serif" font-size="10.00">GenerateFutureTicker</text>
</a>
</g>
</g>
<!-- Node3&#45;&gt;Node4 -->
<g id="edge3" class="edge">
<title>Node3&#45;&gt;Node4</title>
<path fill="none" stroke="midnightblue" d="M575.96,-59.52C587.27,-60.96 599.14,-62.46 611.01,-63.97"/>
<polygon fill="midnightblue" stroke="midnightblue" points="610.62,-67.45 620.98,-65.24 611.5,-60.5 610.62,-67.45"/>
</g>
<!-- Node6 -->
<g id="node6" class="node">
<title>Node6</title>
<g id="a_node6"><a xlink:href="classQuantConnect_1_1SymbolRepresentation.html#ab133044f5cf8c16e700190a2202b215e" target="_top" xlink:title="Returns option symbol ticker in accordance with OSI symbology More information can be found at http:/...">
<polygon fill="white" stroke="black" points="621,-11 621,-41 824,-41 824,-11 621,-11"/>
<text text-anchor="start" x="629" y="-29" font-family="Helvetica,sans-Serif" font-size="10.00">QuantConnect.SymbolRepresentation.</text>
<text text-anchor="middle" x="722.5" y="-18" font-family="Helvetica,sans-Serif" font-size="10.00">GenerateOptionTickerOSI</text>
</a>
</g>
</g>
<!-- Node3&#45;&gt;Node6 -->
<g id="edge5" class="edge">
<title>Node3&#45;&gt;Node6</title>
<path fill="none" stroke="midnightblue" d="M585.31,-40.82C593.69,-39.91 602.3,-38.97 610.9,-38.04"/>
<polygon fill="midnightblue" stroke="midnightblue" points="611.43,-41.5 620.99,-36.94 610.67,-34.54 611.43,-41.5"/>
</g>
<!-- Node5 -->
<g id="node5" class="node">
<title>Node5</title>
<g id="a_node5"><a xlink:href="classQuantConnect_1_1Securities_1_1Future_1_1FuturesExpiryUtilityFunctions.html#a4ccb1e2f2fe40ff09785a74a02f26df1" target="_top" xlink:title="Gets the number of months between the contract month and the expiry date.">
<polygon fill="white" stroke="black" points="860,-60.5 860,-101.5 1126,-101.5 1126,-60.5 860,-60.5"/>
<text text-anchor="start" x="868" y="-89.5" font-family="Helvetica,sans-Serif" font-size="10.00">QuantConnect.Securities.</text>
<text text-anchor="start" x="868" y="-78.5" font-family="Helvetica,sans-Serif" font-size="10.00">Future.FuturesExpiryUtilityFunctions.</text>
<text text-anchor="middle" x="993" y="-67.5" font-family="Helvetica,sans-Serif" font-size="10.00">GetDeltaBetweenContractMonthAndContractExpiry</text>
</a>
</g>
</g>
<!-- Node4&#45;&gt;Node5 -->
<g id="edge4" class="edge">
<title>Node4&#45;&gt;Node5</title>
<path fill="none" stroke="midnightblue" d="M824.24,-79.13C832.59,-79.22 841.11,-79.31 849.68,-79.41"/>
<polygon fill="midnightblue" stroke="midnightblue" points="849.72,-82.91 859.76,-79.52 849.8,-75.91 849.72,-82.91"/>
</g>
<!-- Node7 -->
<g id="node7" class="node">
<title>Node7</title>
<g id="a_node7"><a xlink:href="classQuantConnect_1_1Messages_1_1SymbolRepresentation.html#a2c514157d8055cfa271ea3a7ca1ccde7" target="_top" xlink:title="Returns a string message saying an unexpected security type was received by the given method name">
<polygon fill="white" stroke="black" points="897,-0.5 897,-41.5 1089,-41.5 1089,-0.5 897,-0.5"/>
<text text-anchor="start" x="905" y="-29.5" font-family="Helvetica,sans-Serif" font-size="10.00">QuantConnect.Messages.Symbol</text>
<text text-anchor="start" x="905" y="-18.5" font-family="Helvetica,sans-Serif" font-size="10.00">Representation.UnexpectedSecurity</text>
<text text-anchor="middle" x="993" y="-7.5" font-family="Helvetica,sans-Serif" font-size="10.00">TypeForMethod</text>
</a>
</g>
</g>
<!-- Node6&#45;&gt;Node7 -->
<g id="edge6" class="edge">
<title>Node6&#45;&gt;Node7</title>
<path fill="none" stroke="midnightblue" d="M824.24,-24.12C844.7,-23.74 866.27,-23.34 886.88,-22.96"/>
<polygon fill="midnightblue" stroke="midnightblue" points="886.98,-26.46 896.91,-22.77 886.85,-19.46 886.98,-26.46"/>
</g>
</g>
</svg>
