<?xml version="1.0" encoding="UTF-8" standalone="no"?>
<!DOCTYPE svg PUBLIC "-//W3C//DTD SVG 1.1//EN"
 "http://www.w3.org/Graphics/SVG/1.1/DTD/svg11.dtd">
<!-- Generated by graphviz version 2.43.0 (0)
 -->
<!-- Title: QuantConnect.Orders.OrderProperties Pages: 1 -->
<!--zoomable 774 -->
<svg id="main" version="1.1" xmlns="http://www.w3.org/2000/svg" xmlns:xlink="http://www.w3.org/1999/xlink" xml:space="preserve" onload="init(evt)">
<style type="text/css"><![CDATA[
.edge:hover path { stroke: red; }
.edge:hover polygon { stroke: red; fill: red; }
]]></style>
<script type="text/javascript"><![CDATA[
var edges = document.getElementsByTagName('g');
if (edges && edges.length) {
  for (var i=0;i<edges.length;i++) {
    if (edges[i].id.substr(0,4)=='edge') {
      edges[i].setAttribute('class','edge');
    }
  }
}
]]></script>
        <defs>
                <circle id="rim" cx="0" cy="0" r="7"/>
                <circle id="rim2" cx="0" cy="0" r="3.5"/>
                <g id="zoomPlus">
                        <use xlink:href="#rim" fill="#404040">
                                <set attributeName="fill" to="#808080" begin="zoomplus.mouseover" end="zoomplus.mouseout"/>
                        </use>
                        <path d="M-4,0h8M0,-4v8" fill="none" stroke="white" stroke-width="1.5" pointer-events="none"/>
                </g>
                <g id="zoomMin">
                        <use xlink:href="#rim" fill="#404040">
                                <set attributeName="fill" to="#808080" begin="zoomminus.mouseover" end="zoomminus.mouseout"/>
                        </use>
                        <path d="M-4,0h8" fill="none" stroke="white" stroke-width="1.5" pointer-events="none"/>
                </g>
                <g id="dirArrow">
                        <path fill="none" stroke="white" stroke-width="1.5" d="M0,-3.0v7 M-2.5,-0.5L0,-3.0L2.5,-0.5"/>
                </g>
               <g id="resetDef">
                       <use xlink:href="#rim2" fill="#404040">
                               <set attributeName="fill" to="#808080" begin="reset.mouseover" end="reset.mouseout"/>
                       </use>
               </g>
        </defs>

<script type="text/javascript">
var viewWidth = 734;
var viewHeight = 774;
var sectionId = 'dynsection-0';
</script>
<script xlink:href="svgpan.js"/>
<svg id="graph" class="graph">
<g id="viewport">
<title>QuantConnect.Orders.OrderProperties</title>
<polygon fill="white" stroke="transparent" points="-4,4 -4,-770 730,-770 730,4 -4,4"/>
<!-- Node1 -->
<g id="node1" class="node">
<title>Node1</title>
<g id="a_node1"><a xlink:title="Contains additional properties and settings for an order">
<polygon fill="#bfbfbf" stroke="black" points="132,-367.5 132,-397.5 283,-397.5 283,-367.5 132,-367.5"/>
<text text-anchor="start" x="140" y="-385.5" font-family="Helvetica,sans-Serif" font-size="10.00">QuantConnect.Orders.Order</text>
<text text-anchor="middle" x="207.5" y="-374.5" font-family="Helvetica,sans-Serif" font-size="10.00">Properties</text>
</a>
</g>
</g>
<!-- Node3 -->
<g id="node3" class="node">
<title>Node3</title>
<g id="a_node3"><a xlink:href="classQuantConnect_1_1Orders_1_1AlpacaOrderProperties.html" target="_top" xlink:title="Provides an implementation of the OrderProperties specific to Alpaca order.">
<polygon fill="white" stroke="black" points="336.5,-735.5 336.5,-765.5 493.5,-765.5 493.5,-735.5 336.5,-735.5"/>
<text text-anchor="start" x="344.5" y="-753.5" font-family="Helvetica,sans-Serif" font-size="10.00">QuantConnect.Orders.Alpaca</text>
<text text-anchor="middle" x="415" y="-742.5" font-family="Helvetica,sans-Serif" font-size="10.00">OrderProperties</text>
</a>
</g>
</g>
<!-- Node1&#45;&gt;Node3 -->
<g id="edge2" class="edge">
<title>Node1&#45;&gt;Node3</title>
<path fill="none" stroke="midnightblue" d="M208.85,-408.12C211.15,-471.65 226.23,-637.64 319,-725.5 324.08,-730.31 329.96,-734.22 336.27,-737.39"/>
<polygon fill="midnightblue" stroke="midnightblue" points="212.34,-407.72 208.56,-397.83 205.34,-407.92 212.34,-407.72"/>
</g>
<!-- Node4 -->
<g id="node4" class="node">
<title>Node4</title>
<g id="a_node4"><a xlink:href="classQuantConnect_1_1Orders_1_1BinanceOrderProperties.html" target="_top" xlink:title="Contains additional properties and settings for an order submitted to Binance brokerage">
<polygon fill="white" stroke="black" points="333.5,-686.5 333.5,-716.5 496.5,-716.5 496.5,-686.5 333.5,-686.5"/>
<text text-anchor="start" x="341.5" y="-704.5" font-family="Helvetica,sans-Serif" font-size="10.00">QuantConnect.Orders.Binance</text>
<text text-anchor="middle" x="415" y="-693.5" font-family="Helvetica,sans-Serif" font-size="10.00">OrderProperties</text>
</a>
</g>
</g>
<!-- Node1&#45;&gt;Node4 -->
<g id="edge3" class="edge">
<title>Node1&#45;&gt;Node4</title>
<path fill="none" stroke="midnightblue" d="M210.42,-407.93C216.11,-464.87 237.98,-603.37 319,-676.5 323.3,-680.39 328.14,-683.68 333.29,-686.47"/>
<polygon fill="midnightblue" stroke="midnightblue" points="213.87,-407.31 209.48,-397.67 206.9,-407.95 213.87,-407.31"/>
</g>
<!-- Node5 -->
<g id="node5" class="node">
<title>Node5</title>
<g id="a_node5"><a xlink:href="classQuantConnect_1_1Orders_1_1BitfinexOrderProperties.html" target="_top" xlink:title="Contains additional properties and settings for an order submitted to Bitfinex brokerage">
<polygon fill="white" stroke="black" points="334.5,-637.5 334.5,-667.5 495.5,-667.5 495.5,-637.5 334.5,-637.5"/>
<text text-anchor="start" x="342.5" y="-655.5" font-family="Helvetica,sans-Serif" font-size="10.00">QuantConnect.Orders.Bitfinex</text>
<text text-anchor="middle" x="415" y="-644.5" font-family="Helvetica,sans-Serif" font-size="10.00">OrderProperties</text>
</a>
</g>
</g>
<!-- Node1&#45;&gt;Node5 -->
<g id="edge4" class="edge">
<title>Node1&#45;&gt;Node5</title>
<path fill="none" stroke="midnightblue" d="M212.47,-407.46C221.73,-457.14 249.47,-568.68 319,-627.5 323.69,-631.47 328.93,-634.81 334.49,-637.63"/>
<polygon fill="midnightblue" stroke="midnightblue" points="215.91,-406.8 210.73,-397.56 209.02,-408.02 215.91,-406.8"/>
</g>
<!-- Node6 -->
<g id="node6" class="node">
<title>Node6</title>
<g id="a_node6"><a xlink:href="classQuantConnect_1_1Orders_1_1CharlesSchwabOrderProperties.html" target="_top" xlink:title="Contains additional properties and settings for an order submitted to Charles Schwab brokerage">
<polygon fill="white" stroke="black" points="334.5,-588.5 334.5,-618.5 495.5,-618.5 495.5,-588.5 334.5,-588.5"/>
<text text-anchor="start" x="342.5" y="-606.5" font-family="Helvetica,sans-Serif" font-size="10.00">QuantConnect.Orders.Charles</text>
<text text-anchor="middle" x="415" y="-595.5" font-family="Helvetica,sans-Serif" font-size="10.00">SchwabOrderProperties</text>
</a>
</g>
</g>
<!-- Node1&#45;&gt;Node6 -->
<g id="edge5" class="edge">
<title>Node1&#45;&gt;Node6</title>
<path fill="none" stroke="midnightblue" d="M215.53,-407.41C228.66,-449.32 260.99,-533.72 319,-578.5 324,-582.36 329.53,-585.62 335.35,-588.38"/>
<polygon fill="midnightblue" stroke="midnightblue" points="218.84,-406.28 212.6,-397.72 212.14,-408.3 218.84,-406.28"/>
</g>
<!-- Node7 -->
<g id="node7" class="node">
<title>Node7</title>
<g id="a_node7"><a xlink:href="classQuantConnect_1_1Orders_1_1CoinbaseOrderProperties.html" target="_top" xlink:title="Contains additional properties and settings for an order submitted to Coinbase brokerage">
<polygon fill="white" stroke="black" points="330.5,-539.5 330.5,-569.5 499.5,-569.5 499.5,-539.5 330.5,-539.5"/>
<text text-anchor="start" x="338.5" y="-557.5" font-family="Helvetica,sans-Serif" font-size="10.00">QuantConnect.Orders.Coinbase</text>
<text text-anchor="middle" x="415" y="-546.5" font-family="Helvetica,sans-Serif" font-size="10.00">OrderProperties</text>
</a>
</g>
</g>
<!-- Node1&#45;&gt;Node7 -->
<g id="edge6" class="edge">
<title>Node1&#45;&gt;Node7</title>
<path fill="none" stroke="midnightblue" d="M220.04,-406.58C237.04,-439.46 271.97,-497.89 319,-529.5 324.8,-533.4 331.18,-536.69 337.81,-539.47"/>
<polygon fill="midnightblue" stroke="midnightblue" points="223.16,-405 215.53,-397.65 216.91,-408.15 223.16,-405"/>
</g>
<!-- Node9 -->
<g id="node9" class="node">
<title>Node9</title>
<g id="a_node9"><a xlink:href="classQuantConnect_1_1Orders_1_1EzeOrderProperties.html" target="_top" xlink:title="Contains additional properties and settings for an order submitted to EZE brokerage">
<polygon fill="white" stroke="black" points="331,-490.5 331,-520.5 499,-520.5 499,-490.5 331,-490.5"/>
<text text-anchor="start" x="339" y="-508.5" font-family="Helvetica,sans-Serif" font-size="10.00">QuantConnect.Orders.EzeOrder</text>
<text text-anchor="middle" x="415" y="-497.5" font-family="Helvetica,sans-Serif" font-size="10.00">Properties</text>
</a>
</g>
</g>
<!-- Node1&#45;&gt;Node9 -->
<g id="edge8" class="edge">
<title>Node1&#45;&gt;Node9</title>
<path fill="none" stroke="midnightblue" d="M228.08,-405.21C248.57,-427.57 282.76,-461.1 319,-480.5 326.22,-484.36 334.07,-487.66 342.06,-490.46"/>
<polygon fill="midnightblue" stroke="midnightblue" points="230.46,-402.62 221.17,-397.52 225.26,-407.3 230.46,-402.62"/>
</g>
<!-- Node10 -->
<g id="node10" class="node">
<title>Node10</title>
<g id="a_node10"><a xlink:href="classQuantConnect_1_1Orders_1_1FixOrderProperites.html" target="_top" xlink:title="FIX (Financial Information Exchange) order properties">
<polygon fill="white" stroke="black" points="332.5,-441.5 332.5,-471.5 497.5,-471.5 497.5,-441.5 332.5,-441.5"/>
<text text-anchor="start" x="340.5" y="-459.5" font-family="Helvetica,sans-Serif" font-size="10.00">QuantConnect.Orders.FixOrder</text>
<text text-anchor="middle" x="415" y="-448.5" font-family="Helvetica,sans-Serif" font-size="10.00">Properites</text>
</a>
</g>
</g>
<!-- Node1&#45;&gt;Node10 -->
<g id="edge9" class="edge">
<title>Node1&#45;&gt;Node10</title>
<path fill="none" stroke="midnightblue" d="M248.08,-401.9C268.87,-411.61 294.96,-423.07 319,-431.5 329.22,-435.08 340.21,-438.43 350.97,-441.43"/>
<polygon fill="midnightblue" stroke="midnightblue" points="249.46,-398.68 238.93,-397.57 246.47,-405.01 249.46,-398.68"/>
</g>
<!-- Node12 -->
<g id="node12" class="node">
<title>Node12</title>
<g id="a_node12"><a xlink:href="classQuantConnect_1_1Orders_1_1FTXOrderProperties.html" target="_top" xlink:title="Contains additional properties and settings for an order submitted to FTX brokerage">
<polygon fill="white" stroke="black" points="331,-392.5 331,-422.5 499,-422.5 499,-392.5 331,-392.5"/>
<text text-anchor="start" x="339" y="-410.5" font-family="Helvetica,sans-Serif" font-size="10.00">QuantConnect.Orders.FTXOrder</text>
<text text-anchor="middle" x="415" y="-399.5" font-family="Helvetica,sans-Serif" font-size="10.00">Properties</text>
</a>
</g>
</g>
<!-- Node1&#45;&gt;Node12 -->
<g id="edge11" class="edge">
<title>Node1&#45;&gt;Node12</title>
<path fill="none" stroke="midnightblue" d="M293.55,-392.85C305.91,-394.35 318.62,-395.9 330.94,-397.4"/>
<polygon fill="midnightblue" stroke="midnightblue" points="293.62,-389.33 283.27,-391.6 292.78,-396.28 293.62,-389.33"/>
</g>
<!-- Node13 -->
<g id="node13" class="node">
<title>Node13</title>
<g id="a_node13"><a xlink:href="classQuantConnect_1_1Orders_1_1IndiaOrderProperties.html" target="_top" xlink:title="Contains additional properties and settings for an order submitted to Indian Brokerages">
<polygon fill="white" stroke="black" points="341,-343.5 341,-373.5 489,-373.5 489,-343.5 341,-343.5"/>
<text text-anchor="start" x="349" y="-361.5" font-family="Helvetica,sans-Serif" font-size="10.00">QuantConnect.Orders.India</text>
<text text-anchor="middle" x="415" y="-350.5" font-family="Helvetica,sans-Serif" font-size="10.00">OrderProperties</text>
</a>
</g>
</g>
<!-- Node1&#45;&gt;Node13 -->
<g id="edge12" class="edge">
<title>Node1&#45;&gt;Node13</title>
<path fill="none" stroke="midnightblue" d="M293.47,-372.58C309.14,-370.75 325.37,-368.85 340.66,-367.07"/>
<polygon fill="midnightblue" stroke="midnightblue" points="292.8,-369.13 283.27,-373.77 293.61,-376.08 292.8,-369.13"/>
</g>
<!-- Node14 -->
<g id="node14" class="node">
<title>Node14</title>
<g id="a_node14"><a xlink:href="classQuantConnect_1_1Orders_1_1InteractiveBrokersOrderProperties.html" target="_top" xlink:title="Contains additional properties and settings for an order submitted to Interactive Brokers">
<polygon fill="white" stroke="black" points="327,-294.5 327,-324.5 503,-324.5 503,-294.5 327,-294.5"/>
<text text-anchor="start" x="335" y="-312.5" font-family="Helvetica,sans-Serif" font-size="10.00">QuantConnect.Orders.Interactive</text>
<text text-anchor="middle" x="415" y="-301.5" font-family="Helvetica,sans-Serif" font-size="10.00">BrokersOrderProperties</text>
</a>
</g>
</g>
<!-- Node1&#45;&gt;Node14 -->
<g id="edge13" class="edge">
<title>Node1&#45;&gt;Node14</title>
<path fill="none" stroke="midnightblue" d="M248.04,-363C268.82,-353.26 294.92,-341.81 319,-333.5 328.41,-330.25 338.48,-327.24 348.41,-324.51"/>
<polygon fill="midnightblue" stroke="midnightblue" points="246.43,-359.89 238.9,-367.34 249.43,-366.22 246.43,-359.89"/>
</g>
<!-- Node15 -->
<g id="node15" class="node">
<title>Node15</title>
<g id="a_node15"><a xlink:href="classQuantConnect_1_1Orders_1_1KrakenOrderProperties.html" target="_top" xlink:title="Kraken order properties">
<polygon fill="white" stroke="black" points="336,-245.5 336,-275.5 494,-275.5 494,-245.5 336,-245.5"/>
<text text-anchor="start" x="344" y="-263.5" font-family="Helvetica,sans-Serif" font-size="10.00">QuantConnect.Orders.Kraken</text>
<text text-anchor="middle" x="415" y="-252.5" font-family="Helvetica,sans-Serif" font-size="10.00">OrderProperties</text>
</a>
</g>
</g>
<!-- Node1&#45;&gt;Node15 -->
<g id="edge14" class="edge">
<title>Node1&#45;&gt;Node15</title>
<path fill="none" stroke="midnightblue" d="M228.04,-359.72C248.5,-337.3 282.66,-303.72 319,-284.5 325.47,-281.08 332.44,-278.13 339.57,-275.59"/>
<polygon fill="midnightblue" stroke="midnightblue" points="225.21,-357.64 221.15,-367.42 230.42,-362.3 225.21,-357.64"/>
</g>
<!-- Node16 -->
<g id="node16" class="node">
<title>Node16</title>
<g id="a_node16"><a xlink:href="classQuantConnect_1_1Orders_1_1RBIOrderProperties.html" target="_top" xlink:title="RBI order properties">
<polygon fill="white" stroke="black" points="331.5,-196.5 331.5,-226.5 498.5,-226.5 498.5,-196.5 331.5,-196.5"/>
<text text-anchor="start" x="339.5" y="-214.5" font-family="Helvetica,sans-Serif" font-size="10.00">QuantConnect.Orders.RBIOrder</text>
<text text-anchor="middle" x="415" y="-203.5" font-family="Helvetica,sans-Serif" font-size="10.00">Properties</text>
</a>
</g>
</g>
<!-- Node1&#45;&gt;Node16 -->
<g id="edge15" class="edge">
<title>Node1&#45;&gt;Node16</title>
<path fill="none" stroke="midnightblue" d="M219.99,-358.35C236.94,-325.4 271.82,-266.88 319,-235.5 324.1,-232.11 329.64,-229.2 335.41,-226.7"/>
<polygon fill="midnightblue" stroke="midnightblue" points="216.85,-356.8 215.5,-367.31 223.11,-359.94 216.85,-356.8"/>
</g>
<!-- Node17 -->
<g id="node17" class="node">
<title>Node17</title>
<g id="a_node17"><a xlink:href="classQuantConnect_1_1Orders_1_1TDAmeritradeOrderProperties.html" target="_top" xlink:title="TDAmeritrade order properties">
<polygon fill="white" stroke="black" points="319,-147.5 319,-177.5 511,-177.5 511,-147.5 319,-147.5"/>
<text text-anchor="start" x="327" y="-165.5" font-family="Helvetica,sans-Serif" font-size="10.00">QuantConnect.Orders.TDAmeritrade</text>
<text text-anchor="middle" x="415" y="-154.5" font-family="Helvetica,sans-Serif" font-size="10.00">OrderProperties</text>
</a>
</g>
</g>
<!-- Node1&#45;&gt;Node17 -->
<g id="edge16" class="edge">
<title>Node1&#45;&gt;Node17</title>
<path fill="none" stroke="midnightblue" d="M215.48,-357.53C228.54,-315.53 260.77,-230.99 319,-186.5 323.46,-183.09 328.35,-180.16 333.48,-177.65"/>
<polygon fill="midnightblue" stroke="midnightblue" points="212.09,-356.66 212.57,-367.24 218.79,-358.67 212.09,-356.66"/>
</g>
<!-- Node18 -->
<g id="node18" class="node">
<title>Node18</title>
<g id="a_node18"><a xlink:href="classQuantConnect_1_1Orders_1_1TerminalLinkOrderProperties.html" target="_top" xlink:title="The terminal link order properties">
<polygon fill="white" stroke="black" points="332,-98.5 332,-128.5 498,-128.5 498,-98.5 332,-98.5"/>
<text text-anchor="start" x="340" y="-116.5" font-family="Helvetica,sans-Serif" font-size="10.00">QuantConnect.Orders.Terminal</text>
<text text-anchor="middle" x="415" y="-105.5" font-family="Helvetica,sans-Serif" font-size="10.00">LinkOrderProperties</text>
</a>
</g>
</g>
<!-- Node1&#45;&gt;Node18 -->
<g id="edge17" class="edge">
<title>Node1&#45;&gt;Node18</title>
<path fill="none" stroke="midnightblue" d="M212.43,-357.49C221.59,-307.7 249.18,-195.98 319,-137.5 323.04,-134.11 327.5,-131.2 332.21,-128.68"/>
<polygon fill="midnightblue" stroke="midnightblue" points="208.97,-356.95 210.7,-367.4 215.86,-358.15 208.97,-356.95"/>
</g>
<!-- Node19 -->
<g id="node19" class="node">
<title>Node19</title>
<g id="a_node19"><a xlink:href="classQuantConnect_1_1Orders_1_1TradeStationOrderProperties.html" target="_top" xlink:title="Represents the properties of an order in TradeStation.">
<polygon fill="white" stroke="black" points="340,-49.5 340,-79.5 490,-79.5 490,-49.5 340,-49.5"/>
<text text-anchor="start" x="348" y="-67.5" font-family="Helvetica,sans-Serif" font-size="10.00">QuantConnect.Orders.Trade</text>
<text text-anchor="middle" x="415" y="-56.5" font-family="Helvetica,sans-Serif" font-size="10.00">StationOrderProperties</text>
</a>
</g>
</g>
<!-- Node1&#45;&gt;Node19 -->
<g id="edge18" class="edge">
<title>Node1&#45;&gt;Node19</title>
<path fill="none" stroke="midnightblue" d="M210.36,-357.02C215.95,-299.95 237.63,-161.23 319,-88.5 325.09,-83.06 332.23,-78.81 339.82,-75.51"/>
<polygon fill="midnightblue" stroke="midnightblue" points="206.85,-357.03 209.45,-367.3 213.82,-357.65 206.85,-357.03"/>
</g>
<!-- Node20 -->
<g id="node20" class="node">
<title>Node20</title>
<g id="a_node20"><a xlink:href="classQuantConnect_1_1Orders_1_1WolverineOrderProperties.html" target="_top" xlink:title="Wolverine order properties">
<polygon fill="white" stroke="black" points="328.5,-0.5 328.5,-30.5 501.5,-30.5 501.5,-0.5 328.5,-0.5"/>
<text text-anchor="start" x="336.5" y="-18.5" font-family="Helvetica,sans-Serif" font-size="10.00">QuantConnect.Orders.Wolverine</text>
<text text-anchor="middle" x="415" y="-7.5" font-family="Helvetica,sans-Serif" font-size="10.00">OrderProperties</text>
</a>
</g>
</g>
<!-- Node1&#45;&gt;Node20 -->
<g id="edge19" class="edge">
<title>Node1&#45;&gt;Node20</title>
<path fill="none" stroke="midnightblue" d="M208.79,-356.82C210.98,-293.16 225.8,-126.9 319,-39.5 322.6,-36.13 326.6,-33.21 330.87,-30.69"/>
<polygon fill="midnightblue" stroke="midnightblue" points="205.29,-357.05 208.52,-367.14 212.28,-357.23 205.29,-357.05"/>
</g>
<!-- Node2 -->
<g id="node2" class="node">
<title>Node2</title>
<g id="a_node2"><a xlink:href="interfaceQuantConnect_1_1Interfaces_1_1IOrderProperties.html" target="_top" xlink:title="Contains additional properties and settings for an order">
<polygon fill="white" stroke="black" points="0,-373 0,-392 96,-392 96,-373 0,-373"/>
<text text-anchor="middle" x="48" y="-380" font-family="Helvetica,sans-Serif" font-size="10.00">IOrderProperties</text>
</a>
</g>
</g>
<!-- Node2&#45;&gt;Node1 -->
<g id="edge1" class="edge">
<title>Node2&#45;&gt;Node1</title>
<path fill="none" stroke="midnightblue" d="M106.5,-382.5C114.76,-382.5 123.35,-382.5 131.88,-382.5"/>
<polygon fill="midnightblue" stroke="midnightblue" points="106.26,-379 96.26,-382.5 106.26,-386 106.26,-379"/>
</g>
<!-- Node8 -->
<g id="node8" class="node">
<title>Node8</title>
<g id="a_node8"><a xlink:href="classQuantConnect_1_1Orders_1_1GDAXOrderProperties.html" target="_top" xlink:title="Contains additional properties and settings for an order submitted to GDAX brokerage">
<polygon fill="white" stroke="black" points="547,-539.5 547,-569.5 726,-569.5 726,-539.5 547,-539.5"/>
<text text-anchor="start" x="555" y="-557.5" font-family="Helvetica,sans-Serif" font-size="10.00">QuantConnect.Orders.GDAXOrder</text>
<text text-anchor="middle" x="636.5" y="-546.5" font-family="Helvetica,sans-Serif" font-size="10.00">Properties</text>
</a>
</g>
</g>
<!-- Node7&#45;&gt;Node8 -->
<g id="edge7" class="edge">
<title>Node7&#45;&gt;Node8</title>
<path fill="none" stroke="midnightblue" d="M509.8,-554.5C522.02,-554.5 534.51,-554.5 546.64,-554.5"/>
<polygon fill="midnightblue" stroke="midnightblue" points="509.61,-551 499.61,-554.5 509.61,-558 509.61,-551"/>
</g>
<!-- Node11 -->
<g id="node11" class="node">
<title>Node11</title>
<g id="a_node11"><a xlink:href="classQuantConnect_1_1Orders_1_1TradingTechnologiesOrderProperties.html" target="_top" xlink:title="Trading Technologies order properties">
<polygon fill="white" stroke="black" points="557,-441.5 557,-471.5 716,-471.5 716,-441.5 557,-441.5"/>
<text text-anchor="start" x="565" y="-459.5" font-family="Helvetica,sans-Serif" font-size="10.00">QuantConnect.Orders.Trading</text>
<text text-anchor="middle" x="636.5" y="-448.5" font-family="Helvetica,sans-Serif" font-size="10.00">TechnologiesOrderProperties</text>
</a>
</g>
</g>
<!-- Node10&#45;&gt;Node11 -->
<g id="edge10" class="edge">
<title>Node10&#45;&gt;Node11</title>
<path fill="none" stroke="midnightblue" d="M507.82,-456.5C524.16,-456.5 541.05,-456.5 556.98,-456.5"/>
<polygon fill="midnightblue" stroke="midnightblue" points="507.73,-453 497.73,-456.5 507.73,-460 507.73,-453"/>
</g>
</g>
</svg>
        <g id="navigator" transform="translate(0 0)" fill="#404254">
                <rect fill="#f2f5e9" fill-opacity="0.5" stroke="#606060" stroke-width=".5" x="0" y="0" width="60" height="60"/>
                <use id="zoomplus" xlink:href="#zoomPlus" x="17" y="9" onmousedown="handleZoom(evt,'in')"/>
                <use id="zoomminus" xlink:href="#zoomMin" x="42" y="9" onmousedown="handleZoom(evt,'out')"/>
                <use id="reset" xlink:href="#resetDef" x="30" y="36" onmousedown="handleReset()"/>
                <g id="arrowUp" xlink:href="#dirArrow" transform="translate(30 24)" onmousedown="handlePan(0,-1)">
                  <use xlink:href="#rim" fill="#404040">
                        <set attributeName="fill" to="#808080" begin="arrowUp.mouseover" end="arrowUp.mouseout"/>
                  </use>
                  <path fill="none" stroke="white" stroke-width="1.5" d="M0,-3.0v7 M-2.5,-0.5L0,-3.0L2.5,-0.5"/>
                </g>
                <g id="arrowRight" xlink:href="#dirArrow" transform="rotate(90) translate(36 -43)" onmousedown="handlePan(1,0)">
                  <use xlink:href="#rim" fill="#404040">
                        <set attributeName="fill" to="#808080" begin="arrowRight.mouseover" end="arrowRight.mouseout"/>
                  </use>
                  <path fill="none" stroke="white" stroke-width="1.5" d="M0,-3.0v7 M-2.5,-0.5L0,-3.0L2.5,-0.5"/>
                </g>
                <g id="arrowDown" xlink:href="#dirArrow" transform="rotate(180) translate(-30 -48)" onmousedown="handlePan(0,1)">
                  <use xlink:href="#rim" fill="#404040">
                        <set attributeName="fill" to="#808080" begin="arrowDown.mouseover" end="arrowDown.mouseout"/>
                  </use>
                  <path fill="none" stroke="white" stroke-width="1.5" d="M0,-3.0v7 M-2.5,-0.5L0,-3.0L2.5,-0.5"/>
                </g>
                <g id="arrowLeft" xlink:href="#dirArrow" transform="rotate(270) translate(-36 17)" onmousedown="handlePan(-1,0)">
                  <use xlink:href="#rim" fill="#404040">
                        <set attributeName="fill" to="#808080" begin="arrowLeft.mouseover" end="arrowLeft.mouseout"/>
                  </use>
                  <path fill="none" stroke="white" stroke-width="1.5" d="M0,-3.0v7 M-2.5,-0.5L0,-3.0L2.5,-0.5"/>
                </g>
        </g>
        <svg viewBox="0 0 15 15" width="100%" height="30px" preserveAspectRatio="xMaxYMin meet">
         <g id="arrow_out" transform="scale(0.3 0.3)">
          <a xlink:href="classQuantConnect_1_1Orders_1_1OrderProperties__inherit__graph_org.svg" target="_base">
           <rect id="button" ry="5" rx="5" y="6" x="6" height="38" width="38"
                fill="#f2f5e9" fill-opacity="0.5" stroke="#606060" stroke-width="1.0"/>
           <path id="arrow"
             d="M 11.500037,31.436501 C 11.940474,20.09759 22.043105,11.32322 32.158766,21.979434 L 37.068811,17.246167 C 37.068811,17.246167 37.088388,32 37.088388,32 L 22.160133,31.978069 C 22.160133,31.978069 26.997745,27.140456 26.997745,27.140456 C 18.528582,18.264221 13.291696,25.230495 11.500037,31.436501 z"
             style="fill:#404040;"/>
          </a>
         </g>
        </svg>
</svg>
