<?xml version="1.0" encoding="UTF-8" standalone="no"?>
<!DOCTYPE svg PUBLIC "-//W3C//DTD SVG 1.1//EN"
 "http://www.w3.org/Graphics/SVG/1.1/DTD/svg11.dtd">
<!-- Generated by graphviz version 2.43.0 (0)
 -->
<!-- Title: QuantConnect.Configuration.Config.GetToken Pages: 1 -->
<!--zoomable 1228 -->
<svg id="main" version="1.1" xmlns="http://www.w3.org/2000/svg" xmlns:xlink="http://www.w3.org/1999/xlink" xml:space="preserve" onload="init(evt)">
<style type="text/css"><![CDATA[
.edge:hover path { stroke: red; }
.edge:hover polygon { stroke: red; fill: red; }
]]></style>
<script type="text/javascript"><![CDATA[
var edges = document.getElementsByTagName('g');
if (edges && edges.length) {
  for (var i=0;i<edges.length;i++) {
    if (edges[i].id.substr(0,4)=='edge') {
      edges[i].setAttribute('class','edge');
    }
  }
}
]]></script>
        <defs>
                <circle id="rim" cx="0" cy="0" r="7"/>
                <circle id="rim2" cx="0" cy="0" r="3.5"/>
                <g id="zoomPlus">
                        <use xlink:href="#rim" fill="#404040">
                                <set attributeName="fill" to="#808080" begin="zoomplus.mouseover" end="zoomplus.mouseout"/>
                        </use>
                        <path d="M-4,0h8M0,-4v8" fill="none" stroke="white" stroke-width="1.5" pointer-events="none"/>
                </g>
                <g id="zoomMin">
                        <use xlink:href="#rim" fill="#404040">
                                <set attributeName="fill" to="#808080" begin="zoomminus.mouseover" end="zoomminus.mouseout"/>
                        </use>
                        <path d="M-4,0h8" fill="none" stroke="white" stroke-width="1.5" pointer-events="none"/>
                </g>
                <g id="dirArrow">
                        <path fill="none" stroke="white" stroke-width="1.5" d="M0,-3.0v7 M-2.5,-0.5L0,-3.0L2.5,-0.5"/>
                </g>
               <g id="resetDef">
                       <use xlink:href="#rim2" fill="#404040">
                               <set attributeName="fill" to="#808080" begin="reset.mouseover" end="reset.mouseout"/>
                       </use>
               </g>
        </defs>

<script type="text/javascript">
var viewWidth = 1121;
var viewHeight = 1228;
var sectionId = 'dynsection-8';
</script>
<script xlink:href="svgpan.js"/>
<svg id="graph" class="graph">
<g id="viewport">
<title>QuantConnect.Configuration.Config.GetToken</title>
<polygon fill="white" stroke="transparent" points="-4,4 -4,-1223.5 1117,-1223.5 1117,4 -4,4"/>
<!-- Node1 -->
<g id="node1" class="node">
<title>Node1</title>
<g id="a_node1"><a xlink:title="Gets the underlying JToken for the specified key">
<polygon fill="#bfbfbf" stroke="black" points="956,-545.5 956,-575.5 1113,-575.5 1113,-545.5 956,-545.5"/>
<text text-anchor="start" x="964" y="-563.5" font-family="Helvetica,sans-Serif" font-size="10.00">QuantConnect.Configuration.</text>
<text text-anchor="middle" x="1034.5" y="-552.5" font-family="Helvetica,sans-Serif" font-size="10.00">Config.GetToken</text>
</a>
</g>
</g>
<!-- Node2 -->
<g id="node2" class="node">
<title>Node2</title>
<g id="a_node2"><a xlink:href="classQuantConnect_1_1Configuration_1_1Config.html#aaabf1286e33a675b2e116f3289981839" target="_top" xlink:title="Get the matching config setting from the file searching for this key.">
<polygon fill="white" stroke="black" points="763,-570.5 763,-600.5 920,-600.5 920,-570.5 763,-570.5"/>
<text text-anchor="start" x="771" y="-588.5" font-family="Helvetica,sans-Serif" font-size="10.00">QuantConnect.Configuration.</text>
<text text-anchor="middle" x="841.5" y="-577.5" font-family="Helvetica,sans-Serif" font-size="10.00">Config.Get</text>
</a>
</g>
</g>
<!-- Node1&#45;&gt;Node2 -->
<g id="edge1" class="edge">
<title>Node1&#45;&gt;Node2</title>
<path fill="none" stroke="midnightblue" d="M945.81,-571.98C937.24,-573.1 928.58,-574.23 920.12,-575.34"/>
<polygon fill="midnightblue" stroke="midnightblue" points="946.35,-575.44 955.81,-570.67 945.44,-568.5 946.35,-575.44"/>
</g>
<!-- Node32 -->
<g id="node32" class="node">
<title>Node32</title>
<g id="a_node32"><a xlink:href="classQuantConnect_1_1Configuration_1_1Config.html#a9ba31e0732178efadbc4c78c84b5ab0a" target="_top" xlink:title="Gets a value from configuration and converts it to the requested type, assigning a default if the con...">
<polygon fill="white" stroke="black" points="763,-521.5 763,-551.5 920,-551.5 920,-521.5 763,-521.5"/>
<text text-anchor="start" x="771" y="-539.5" font-family="Helvetica,sans-Serif" font-size="10.00">QuantConnect.Configuration.</text>
<text text-anchor="middle" x="841.5" y="-528.5" font-family="Helvetica,sans-Serif" font-size="10.00">Config.GetValue&lt; T &gt;</text>
</a>
</g>
</g>
<!-- Node1&#45;&gt;Node32 -->
<g id="edge35" class="edge">
<title>Node1&#45;&gt;Node32</title>
<path fill="none" stroke="midnightblue" d="M945.81,-549.48C937.24,-548.4 928.58,-547.32 920.12,-546.25"/>
<polygon fill="midnightblue" stroke="midnightblue" points="945.45,-552.96 955.81,-550.74 946.33,-546.02 945.45,-552.96"/>
</g>
<!-- Node3 -->
<g id="node3" class="node">
<title>Node3</title>
<g id="a_node3"><a xlink:href="classQuantConnect_1_1DownloaderDataProvider_1_1Launcher_1_1Models_1_1BrokerageDataDownloader.html#a3ff1ab227775c1091b812ba8a0471c38" target="_top" xlink:title="Initializes a new instance of the BrokerageDataDownloader class.">
<polygon fill="white" stroke="black" points="488,-1178 488,-1219 720,-1219 720,-1178 488,-1178"/>
<text text-anchor="start" x="496" y="-1207" font-family="Helvetica,sans-Serif" font-size="10.00">QuantConnect.DownloaderData</text>
<text text-anchor="start" x="496" y="-1196" font-family="Helvetica,sans-Serif" font-size="10.00">Provider.Launcher.Models.Brokerage</text>
<text text-anchor="middle" x="604" y="-1185" font-family="Helvetica,sans-Serif" font-size="10.00">DataDownloader.BrokerageDataDownloader</text>
</a>
</g>
</g>
<!-- Node2&#45;&gt;Node3 -->
<g id="edge2" class="edge">
<title>Node2&#45;&gt;Node3</title>
<path fill="none" stroke="midnightblue" d="M838.98,-610.66C832.41,-710.9 803.32,-1080.36 727,-1163.5 721.78,-1169.18 715.71,-1173.96 709.12,-1177.99"/>
<polygon fill="midnightblue" stroke="midnightblue" points="842.48,-610.76 839.62,-600.55 835.49,-610.31 842.48,-610.76"/>
</g>
<!-- Node4 -->
<g id="node4" class="node">
<title>Node4</title>
<g id="a_node4"><a xlink:href="classQuantConnect_1_1ToolBox_1_1CoarseUniverseGenerator_1_1CoarseUniverseGeneratorProgram.html#a103afc5eb53a85f54056c0ba18b75e28" target="_top" xlink:title="Runs the Coarse universe generator with default values.">
<polygon fill="white" stroke="black" points="209,-1151 209,-1192 445,-1192 445,-1151 209,-1151"/>
<text text-anchor="start" x="217" y="-1180" font-family="Helvetica,sans-Serif" font-size="10.00">QuantConnect.ToolBox.Coarse</text>
<text text-anchor="start" x="217" y="-1169" font-family="Helvetica,sans-Serif" font-size="10.00">UniverseGenerator.CoarseUniverse</text>
<text text-anchor="middle" x="327" y="-1158" font-family="Helvetica,sans-Serif" font-size="10.00">GeneratorProgram.CoarseUniverseGenerator</text>
</a>
</g>
</g>
<!-- Node2&#45;&gt;Node4 -->
<g id="edge3" class="edge">
<title>Node2&#45;&gt;Node4</title>
<path fill="none" stroke="midnightblue" d="M839.06,-610.87C832.97,-708.68 805.86,-1059.36 727,-1130.5 706.28,-1149.19 555.16,-1160.54 445,-1166.43"/>
<polygon fill="midnightblue" stroke="midnightblue" points="842.57,-610.91 839.68,-600.72 835.58,-610.49 842.57,-610.91"/>
</g>
<!-- Node5 -->
<g id="node5" class="node">
<title>Node5</title>
<g id="a_node5"><a xlink:href="classQuantConnect_1_1Util_1_1Composer.html#a7dbbeb5b2182ae4fefe28360259b4c2d" target="_top" xlink:title="Initializes a new instance of the Composer class. This type is a light wrapper on top of an MEF Compo...">
<polygon fill="white" stroke="black" points="523.5,-953.5 523.5,-983.5 684.5,-983.5 684.5,-953.5 523.5,-953.5"/>
<text text-anchor="start" x="531.5" y="-971.5" font-family="Helvetica,sans-Serif" font-size="10.00">QuantConnect.Util.Composer.</text>
<text text-anchor="middle" x="604" y="-960.5" font-family="Helvetica,sans-Serif" font-size="10.00">Composer</text>
</a>
</g>
</g>
<!-- Node2&#45;&gt;Node5 -->
<g id="edge4" class="edge">
<title>Node2&#45;&gt;Node5</title>
<path fill="none" stroke="midnightblue" d="M840.63,-610.78C839.5,-676.45 826.86,-853.6 727,-943.5 715.19,-954.13 700.1,-960.72 684.6,-964.71"/>
<polygon fill="midnightblue" stroke="midnightblue" points="844.13,-610.57 840.72,-600.54 837.13,-610.5 844.13,-610.57"/>
</g>
<!-- Node6 -->
<g id="node6" class="node">
<title>Node6</title>
<g id="a_node6"><a xlink:href="classQuantConnect_1_1Lean_1_1Engine_1_1DataFeeds_1_1CompositeDataProvider.html#ac5e5ca843d607c530e745fcd6aeaa94b" target="_top" xlink:title="Creates a new instance and initialize data providers used">
<polygon fill="white" stroke="black" points="509,-893 509,-934 699,-934 699,-893 509,-893"/>
<text text-anchor="start" x="517" y="-922" font-family="Helvetica,sans-Serif" font-size="10.00">QuantConnect.Lean.Engine.</text>
<text text-anchor="start" x="517" y="-911" font-family="Helvetica,sans-Serif" font-size="10.00">DataFeeds.CompositeDataProvider.</text>
<text text-anchor="middle" x="604" y="-900" font-family="Helvetica,sans-Serif" font-size="10.00">CompositeDataProvider</text>
</a>
</g>
</g>
<!-- Node2&#45;&gt;Node6 -->
<g id="edge5" class="edge">
<title>Node2&#45;&gt;Node6</title>
<path fill="none" stroke="midnightblue" d="M838.58,-610.61C832.8,-668.06 810.38,-809.78 727,-883.5 718.91,-890.65 709.39,-896.16 699.29,-900.39"/>
<polygon fill="midnightblue" stroke="midnightblue" points="842.07,-610.87 839.5,-600.59 835.1,-610.23 842.07,-610.87"/>
</g>
<!-- Node7 -->
<g id="node7" class="node">
<title>Node7</title>
<g id="a_node7"><a xlink:href="classQuantConnect_1_1Lean_1_1Engine_1_1Setup_1_1BacktestingSetupHandler.html#abf6f082a6ab52726b44468da7ca26d96" target="_top" xlink:title="Create a new instance of an algorithm from a physical dll path.">
<polygon fill="white" stroke="black" points="517.5,-833 517.5,-874 690.5,-874 690.5,-833 517.5,-833"/>
<text text-anchor="start" x="525.5" y="-862" font-family="Helvetica,sans-Serif" font-size="10.00">QuantConnect.Lean.Engine.</text>
<text text-anchor="start" x="525.5" y="-851" font-family="Helvetica,sans-Serif" font-size="10.00">Setup.BacktestingSetupHandler.</text>
<text text-anchor="middle" x="604" y="-840" font-family="Helvetica,sans-Serif" font-size="10.00">CreateAlgorithmInstance</text>
</a>
</g>
</g>
<!-- Node2&#45;&gt;Node7 -->
<g id="edge6" class="edge">
<title>Node2&#45;&gt;Node7</title>
<path fill="none" stroke="midnightblue" d="M835.92,-610.52C825.63,-659.32 795.97,-767.33 727,-823.5 716.43,-832.11 703.75,-838.3 690.62,-842.75"/>
<polygon fill="midnightblue" stroke="midnightblue" points="839.39,-611.01 837.93,-600.51 832.53,-609.63 839.39,-611.01"/>
</g>
<!-- Node8 -->
<g id="node8" class="node">
<title>Node8</title>
<g id="a_node8"><a xlink:href="classQuantConnect_1_1Lean_1_1Engine_1_1Setup_1_1BrokerageSetupHandler.html#a3a0a2910b1976db333f88598ed8eafd2" target="_top" xlink:title="Create a new instance of an algorithm from a physical dll path.">
<polygon fill="white" stroke="black" points="505.5,-773 505.5,-814 702.5,-814 702.5,-773 505.5,-773"/>
<text text-anchor="start" x="513.5" y="-802" font-family="Helvetica,sans-Serif" font-size="10.00">QuantConnect.Lean.Engine.</text>
<text text-anchor="start" x="513.5" y="-791" font-family="Helvetica,sans-Serif" font-size="10.00">Setup.BrokerageSetupHandler.Create</text>
<text text-anchor="middle" x="604" y="-780" font-family="Helvetica,sans-Serif" font-size="10.00">AlgorithmInstance</text>
</a>
</g>
</g>
<!-- Node2&#45;&gt;Node8 -->
<g id="edge7" class="edge">
<title>Node2&#45;&gt;Node8</title>
<path fill="none" stroke="midnightblue" d="M831.75,-610.17C816.65,-649.02 781.95,-724.09 727,-763.5 719.56,-768.84 711.27,-773.23 702.62,-776.85"/>
<polygon fill="midnightblue" stroke="midnightblue" points="835.07,-611.26 835.32,-600.67 828.52,-608.8 835.07,-611.26"/>
</g>
<!-- Node9 -->
<g id="node9" class="node">
<title>Node9</title>
<g id="a_node9"><a xlink:href="structQuantConnect_1_1DownloaderDataProvider_1_1Launcher_1_1DataDownloadConfig.html#a57d8d34a6b29fb2b086ce297072670d3" target="_top" xlink:title="Initializes a new instance of the DataDownloadConfig struct.">
<polygon fill="white" stroke="black" points="498,-713 498,-754 710,-754 710,-713 498,-713"/>
<text text-anchor="start" x="506" y="-742" font-family="Helvetica,sans-Serif" font-size="10.00">QuantConnect.DownloaderData</text>
<text text-anchor="start" x="506" y="-731" font-family="Helvetica,sans-Serif" font-size="10.00">Provider.Launcher.DataDownloadConfig.</text>
<text text-anchor="middle" x="604" y="-720" font-family="Helvetica,sans-Serif" font-size="10.00">DataDownloadConfig</text>
</a>
</g>
</g>
<!-- Node2&#45;&gt;Node9 -->
<g id="edge8" class="edge">
<title>Node2&#45;&gt;Node9</title>
<path fill="none" stroke="midnightblue" d="M824.41,-608.93C804.64,-635.9 768.55,-679.54 727,-703.5 720.86,-707.04 714.31,-710.17 707.56,-712.92"/>
<polygon fill="midnightblue" stroke="midnightblue" points="827.26,-610.97 830.24,-600.81 821.57,-606.89 827.26,-610.97"/>
</g>
<!-- Node10 -->
<g id="node10" class="node">
<title>Node10</title>
<g id="a_node10"><a xlink:href="classQuantConnect_1_1Lean_1_1Engine_1_1DataFeeds_1_1DownloaderDataProvider.html#aad94c69b28198e7d262bd99ca5f9bee3" target="_top" xlink:title="Creates a new instance">
<polygon fill="white" stroke="black" points="506,-653 506,-694 702,-694 702,-653 506,-653"/>
<text text-anchor="start" x="514" y="-682" font-family="Helvetica,sans-Serif" font-size="10.00">QuantConnect.Lean.Engine.</text>
<text text-anchor="start" x="514" y="-671" font-family="Helvetica,sans-Serif" font-size="10.00">DataFeeds.DownloaderDataProvider.</text>
<text text-anchor="middle" x="604" y="-660" font-family="Helvetica,sans-Serif" font-size="10.00">DownloaderDataProvider</text>
</a>
</g>
</g>
<!-- Node2&#45;&gt;Node10 -->
<g id="edge9" class="edge">
<title>Node2&#45;&gt;Node10</title>
<path fill="none" stroke="midnightblue" d="M806.17,-605.68C784.14,-617.97 754.58,-633.22 727,-643.5 717.8,-646.93 708.07,-650.08 698.27,-652.94"/>
<polygon fill="midnightblue" stroke="midnightblue" points="808.14,-608.59 815.13,-600.62 804.7,-602.49 808.14,-608.59"/>
</g>
<!-- Node11 -->
<g id="node11" class="node">
<title>Node11</title>
<g id="a_node11"><a xlink:href="classQuantConnect_1_1Lean_1_1Engine_1_1LeanEngineSystemHandlers.html#ab6dc3eec10dc442e3b625b8282cec7be" target="_top" xlink:title="Creates a new instance of the LeanEngineSystemHandlers class from the specified composer using type n...">
<polygon fill="white" stroke="black" points="481,-1002.5 481,-1032.5 727,-1032.5 727,-1002.5 481,-1002.5"/>
<text text-anchor="start" x="489" y="-1020.5" font-family="Helvetica,sans-Serif" font-size="10.00">QuantConnect.Lean.Engine.</text>
<text text-anchor="middle" x="604" y="-1009.5" font-family="Helvetica,sans-Serif" font-size="10.00">LeanEngineSystemHandlers.FromConfiguration</text>
</a>
</g>
</g>
<!-- Node2&#45;&gt;Node11 -->
<g id="edge10" class="edge">
<title>Node2&#45;&gt;Node11</title>
<path fill="none" stroke="midnightblue" d="M836.91,-611.14C825.05,-692.11 784.58,-940.19 727,-993.5 723.36,-996.87 719.38,-999.83 715.17,-1002.43"/>
<polygon fill="midnightblue" stroke="midnightblue" points="840.43,-611.26 838.39,-600.86 833.5,-610.26 840.43,-611.26"/>
</g>
<!-- Node14 -->
<g id="node14" class="node">
<title>Node14</title>
<g id="a_node14"><a xlink:href="classQuantConnect_1_1Lean_1_1Engine_1_1LeanEngineAlgorithmHandlers.html#a9737f33c09743080ebc70bcd06241110" target="_top" xlink:title="Creates a new instance of the LeanEngineAlgorithmHandlers class from the specified composer using typ...">
<polygon fill="white" stroke="black" points="231,-1041 231,-1082 423,-1082 423,-1041 231,-1041"/>
<text text-anchor="start" x="239" y="-1070" font-family="Helvetica,sans-Serif" font-size="10.00">QuantConnect.Lean.Engine.</text>
<text text-anchor="start" x="239" y="-1059" font-family="Helvetica,sans-Serif" font-size="10.00">LeanEngineAlgorithmHandlers.From</text>
<text text-anchor="middle" x="327" y="-1048" font-family="Helvetica,sans-Serif" font-size="10.00">Configuration</text>
</a>
</g>
</g>
<!-- Node2&#45;&gt;Node14 -->
<g id="edge13" class="edge">
<title>Node2&#45;&gt;Node14</title>
<path fill="none" stroke="midnightblue" d="M838.08,-611.07C829.2,-698.98 795.31,-986.41 727,-1042.5 682.31,-1079.19 526.55,-1076.15 423.38,-1069.56"/>
<polygon fill="midnightblue" stroke="midnightblue" points="841.58,-611.22 839.08,-600.92 834.62,-610.53 841.58,-611.22"/>
</g>
<!-- Node16 -->
<g id="node16" class="node">
<title>Node16</title>
<g id="a_node16"><a xlink:href="classQuantConnect_1_1Lean_1_1Engine_1_1Setup_1_1BaseSetupHandler.html#a4aeff0655cd0e6f02d247daac3ec2cde" target="_top" xlink:title="Get the available data feeds from config.json,">
<polygon fill="white" stroke="black" points="499.5,-593 499.5,-634 708.5,-634 708.5,-593 499.5,-593"/>
<text text-anchor="start" x="507.5" y="-622" font-family="Helvetica,sans-Serif" font-size="10.00">QuantConnect.Lean.Engine.</text>
<text text-anchor="start" x="507.5" y="-611" font-family="Helvetica,sans-Serif" font-size="10.00">Setup.BaseSetupHandler.GetConfigured</text>
<text text-anchor="middle" x="604" y="-600" font-family="Helvetica,sans-Serif" font-size="10.00">DataFeeds</text>
</a>
</g>
</g>
<!-- Node2&#45;&gt;Node16 -->
<g id="edge16" class="edge">
<title>Node2&#45;&gt;Node16</title>
<path fill="none" stroke="midnightblue" d="M752.47,-595.97C738.21,-597.66 723.32,-599.43 708.73,-601.17"/>
<polygon fill="midnightblue" stroke="midnightblue" points="753.22,-599.4 762.74,-594.75 752.39,-592.45 753.22,-599.4"/>
</g>
<!-- Node17 -->
<g id="node17" class="node">
<title>Node17</title>
<g id="a_node17"><a xlink:href="classQuantConnect_1_1Data_1_1UniverseSelection_1_1FundamentalService.html#af1ccc5261a5315492c0ba4066d36fab3" target="_top" xlink:title="Initializes the service">
<polygon fill="white" stroke="black" points="499.5,-1090.5 499.5,-1120.5 708.5,-1120.5 708.5,-1090.5 499.5,-1090.5"/>
<text text-anchor="start" x="507.5" y="-1108.5" font-family="Helvetica,sans-Serif" font-size="10.00">QuantConnect.Data.Universe</text>
<text text-anchor="middle" x="604" y="-1097.5" font-family="Helvetica,sans-Serif" font-size="10.00">Selection.FundamentalService.Initialize</text>
</a>
</g>
</g>
<!-- Node2&#45;&gt;Node17 -->
<g id="edge17" class="edge">
<title>Node2&#45;&gt;Node17</title>
<path fill="none" stroke="midnightblue" d="M838.09,-610.91C828.97,-701.66 793.67,-1007.92 727,-1075.5 721.03,-1081.56 714.04,-1086.46 706.49,-1090.43"/>
<polygon fill="midnightblue" stroke="midnightblue" points="841.59,-611.01 839.09,-600.72 834.63,-610.32 841.59,-611.01"/>
</g>
<!-- Node19 -->
<g id="node19" class="node">
<title>Node19</title>
<g id="a_node19"><a xlink:href="classQuantConnect_1_1Messaging_1_1StreamingMessageHandler.html#a6a233a9082ff3d412b99816ffe2d76f5" target="_top" xlink:title="Initialize the messaging system">
<polygon fill="white" stroke="black" points="507,-543.5 507,-573.5 701,-573.5 701,-543.5 507,-543.5"/>
<text text-anchor="start" x="515" y="-561.5" font-family="Helvetica,sans-Serif" font-size="10.00">QuantConnect.Messaging.Streaming</text>
<text text-anchor="middle" x="604" y="-550.5" font-family="Helvetica,sans-Serif" font-size="10.00">MessageHandler.Initialize</text>
</a>
</g>
</g>
<!-- Node2&#45;&gt;Node19 -->
<g id="edge21" class="edge">
<title>Node2&#45;&gt;Node19</title>
<path fill="none" stroke="midnightblue" d="M752.44,-575.4C735.72,-573.49 718.13,-571.47 701.17,-569.53"/>
<polygon fill="midnightblue" stroke="midnightblue" points="752.4,-578.92 762.74,-576.58 753.2,-571.97 752.4,-578.92"/>
</g>
<!-- Node20 -->
<g id="node20" class="node">
<title>Node20</title>
<g id="a_node20"><a xlink:href="classQuantConnect_1_1Lean_1_1Engine_1_1HistoricalData_1_1HistoryProviderManager.html#a8a9a7a7c37fb03207bcee5283fe4301a" target="_top" xlink:title="Initializes this history provider to work for the specified job">
<polygon fill="white" stroke="black" points="521.5,-483 521.5,-524 686.5,-524 686.5,-483 521.5,-483"/>
<text text-anchor="start" x="529.5" y="-512" font-family="Helvetica,sans-Serif" font-size="10.00">QuantConnect.Lean.Engine.</text>
<text text-anchor="start" x="529.5" y="-501" font-family="Helvetica,sans-Serif" font-size="10.00">HistoricalData.HistoryProvider</text>
<text text-anchor="middle" x="604" y="-490" font-family="Helvetica,sans-Serif" font-size="10.00">Manager.Initialize</text>
</a>
</g>
</g>
<!-- Node2&#45;&gt;Node20 -->
<g id="edge22" class="edge">
<title>Node2&#45;&gt;Node20</title>
<path fill="none" stroke="midnightblue" d="M774.11,-566.64C770.3,-565.03 766.57,-563.32 763,-561.5 745.19,-552.41 745.04,-543.13 727,-534.5 714.38,-528.46 700.45,-523.51 686.65,-519.47"/>
<polygon fill="midnightblue" stroke="midnightblue" points="773.13,-570.01 783.72,-570.41 775.69,-563.5 773.13,-570.01"/>
</g>
<!-- Node21 -->
<g id="node21" class="node">
<title>Node21</title>
<g id="a_node21"><a xlink:href="classQuantConnect_1_1AlgorithmFactory_1_1DebuggerHelper.html#a5c17c1da05954705aa54e386603bb8c9" target="_top" xlink:title="Will start a new debugging session">
<polygon fill="white" stroke="black" points="517.5,-433.5 517.5,-463.5 690.5,-463.5 690.5,-433.5 517.5,-433.5"/>
<text text-anchor="start" x="525.5" y="-451.5" font-family="Helvetica,sans-Serif" font-size="10.00">QuantConnect.AlgorithmFactory.</text>
<text text-anchor="middle" x="604" y="-440.5" font-family="Helvetica,sans-Serif" font-size="10.00">DebuggerHelper.Initialize</text>
</a>
</g>
</g>
<!-- Node2&#45;&gt;Node21 -->
<g id="edge23" class="edge">
<title>Node2&#45;&gt;Node21</title>
<path fill="none" stroke="midnightblue" d="M767.02,-564.86C765.63,-563.8 764.29,-562.68 763,-561.5 731.83,-532.96 759.53,-500.47 727,-473.5 716.51,-464.81 703.8,-458.88 690.59,-454.88"/>
<polygon fill="midnightblue" stroke="midnightblue" points="765.17,-567.83 775.45,-570.38 769,-561.97 765.17,-567.83"/>
</g>
<!-- Node22 -->
<g id="node22" class="node">
<title>Node22</title>
<g id="a_node22"><a xlink:href="classQuantConnect_1_1Lean_1_1Engine_1_1DataFeeds_1_1SubscriptionDataReader.html#a44ab08d71bc4ea22bb19ae8ea4099b05" target="_top" xlink:title="Initializes the SubscriptionDataReader instance">
<polygon fill="white" stroke="black" points="508.5,-373 508.5,-414 699.5,-414 699.5,-373 508.5,-373"/>
<text text-anchor="start" x="516.5" y="-402" font-family="Helvetica,sans-Serif" font-size="10.00">QuantConnect.Lean.Engine.</text>
<text text-anchor="start" x="516.5" y="-391" font-family="Helvetica,sans-Serif" font-size="10.00">DataFeeds.SubscriptionDataReader.</text>
<text text-anchor="middle" x="604" y="-380" font-family="Helvetica,sans-Serif" font-size="10.00">Initialize</text>
</a>
</g>
</g>
<!-- Node2&#45;&gt;Node22 -->
<g id="edge24" class="edge">
<title>Node2&#45;&gt;Node22</title>
<path fill="none" stroke="midnightblue" d="M765.91,-564.3C764.9,-563.41 763.93,-562.47 763,-561.5 719.46,-516.03 771.7,-468.84 727,-424.5 719.24,-416.81 709.86,-410.93 699.79,-406.47"/>
<polygon fill="midnightblue" stroke="midnightblue" points="764.09,-567.32 774.21,-570.46 768.26,-561.69 764.09,-567.32"/>
</g>
<!-- Node24 -->
<g id="node24" class="node">
<title>Node24</title>
<g id="a_node24"><a xlink:href="classProgram.html#a9fcf1ef5c265aa471a7b8d45bc0fb193" target="_top" xlink:title="Initializes various configurations for the application. This method sets up logging,...">
<polygon fill="white" stroke="black" points="517.5,-297 517.5,-316 690.5,-316 690.5,-297 517.5,-297"/>
<text text-anchor="middle" x="604" y="-304" font-family="Helvetica,sans-Serif" font-size="10.00">Program.InitializeConfigurations</text>
</a>
</g>
</g>
<!-- Node2&#45;&gt;Node24 -->
<g id="edge26" class="edge">
<title>Node2&#45;&gt;Node24</title>
<path fill="none" stroke="midnightblue" d="M765.3,-563.97C764.5,-563.18 763.74,-562.35 763,-561.5 695.07,-482.87 799,-405.41 727,-330.5 717.13,-320.23 704.24,-313.66 690.54,-309.56"/>
<polygon fill="midnightblue" stroke="midnightblue" points="763.15,-566.73 773.1,-570.37 767.58,-561.32 763.15,-566.73"/>
</g>
<!-- Node25 -->
<g id="node25" class="node">
<title>Node25</title>
<g id="a_node25"><a xlink:href="classProgram.html#ada72f8d1518f89bc2e6ad807d5059564" target="_top" xlink:title="The main entry point for the application.">
<polygon fill="white" stroke="black" points="284.5,-316 284.5,-335 369.5,-335 369.5,-316 284.5,-316"/>
<text text-anchor="middle" x="327" y="-323" font-family="Helvetica,sans-Serif" font-size="10.00">Program.Main</text>
</a>
</g>
</g>
<!-- Node2&#45;&gt;Node25 -->
<g id="edge28" class="edge">
<title>Node2&#45;&gt;Node25</title>
<path fill="none" stroke="midnightblue" d="M765.33,-563.94C764.52,-563.16 763.75,-562.34 763,-561.5 703.68,-494.56 792.87,-424 727,-363.5 701.06,-339.67 466.5,-329.76 369.6,-326.66"/>
<polygon fill="midnightblue" stroke="midnightblue" points="763.21,-566.73 773.2,-570.28 767.6,-561.28 763.21,-566.73"/>
</g>
<!-- Node26 -->
<g id="node26" class="node">
<title>Node26</title>
<g id="a_node26"><a xlink:href="classQuantConnect_1_1Queues_1_1JobQueue.html#a17c084971b1ac56a96fbd202637788db" target="_top" xlink:title="Desktop/Local Get Next Task &#45; Get task from the Algorithm folder of VS Solution.">
<polygon fill="white" stroke="black" points="515,-247.5 515,-277.5 693,-277.5 693,-247.5 515,-247.5"/>
<text text-anchor="start" x="523" y="-265.5" font-family="Helvetica,sans-Serif" font-size="10.00">QuantConnect.Queues.JobQueue.</text>
<text text-anchor="middle" x="604" y="-254.5" font-family="Helvetica,sans-Serif" font-size="10.00">NextJob</text>
</a>
</g>
</g>
<!-- Node2&#45;&gt;Node26 -->
<g id="edge29" class="edge">
<title>Node2&#45;&gt;Node26</title>
<path fill="none" stroke="midnightblue" d="M765.27,-563.99C764.48,-563.19 763.73,-562.36 763,-561.5 683.82,-467.6 810.69,-377.4 727,-287.5 717.87,-277.69 706,-271.16 693.26,-266.91"/>
<polygon fill="midnightblue" stroke="midnightblue" points="763.08,-566.73 773,-570.45 767.57,-561.35 763.08,-566.73"/>
</g>
<!-- Node27 -->
<g id="node27" class="node">
<title>Node27</title>
<g id="a_node27"><a xlink:href="classQuantConnect_1_1Lean_1_1Engine_1_1DataFeeds_1_1ProcessedDataProvider.html#a1f4c33c829efa83f3f1f7c815548ea1e" target="_top" xlink:title="Creates a new instance">
<polygon fill="white" stroke="black" points="510.5,-187 510.5,-228 697.5,-228 697.5,-187 510.5,-187"/>
<text text-anchor="start" x="518.5" y="-216" font-family="Helvetica,sans-Serif" font-size="10.00">QuantConnect.Lean.Engine.</text>
<text text-anchor="start" x="518.5" y="-205" font-family="Helvetica,sans-Serif" font-size="10.00">DataFeeds.ProcessedDataProvider.</text>
<text text-anchor="middle" x="604" y="-194" font-family="Helvetica,sans-Serif" font-size="10.00">ProcessedDataProvider</text>
</a>
</g>
</g>
<!-- Node2&#45;&gt;Node27 -->
<g id="edge30" class="edge">
<title>Node2&#45;&gt;Node27</title>
<path fill="none" stroke="midnightblue" d="M764.89,-563.64C764.24,-562.95 763.61,-562.24 763,-561.5 670.71,-449.81 822.55,-346.41 727,-237.5 719.02,-228.4 708.76,-221.84 697.59,-217.14"/>
<polygon fill="midnightblue" stroke="midnightblue" points="762.72,-566.39 772.58,-570.27 767.29,-561.09 762.72,-566.39"/>
</g>
<!-- Node28 -->
<g id="node28" class="node">
<title>Node28</title>
<g id="a_node28"><a xlink:href="classQuantConnect_1_1Report_1_1Report.html#a2d338bee6035d5400eb638c69fe69371" target="_top" xlink:title="Create beautiful HTML and PDF Reports based on backtest and live data.">
<polygon fill="white" stroke="black" points="524.5,-137.5 524.5,-167.5 683.5,-167.5 683.5,-137.5 524.5,-137.5"/>
<text text-anchor="start" x="532.5" y="-155.5" font-family="Helvetica,sans-Serif" font-size="10.00">QuantConnect.Report.Report.</text>
<text text-anchor="middle" x="604" y="-144.5" font-family="Helvetica,sans-Serif" font-size="10.00">Report</text>
</a>
</g>
</g>
<!-- Node2&#45;&gt;Node28 -->
<g id="edge31" class="edge">
<title>Node2&#45;&gt;Node28</title>
<path fill="none" stroke="midnightblue" d="M764.87,-563.66C764.23,-562.96 763.6,-562.24 763,-561.5 708.98,-494.96 784.22,-241.31 727,-177.5 715.74,-164.95 700.02,-157.72 683.59,-153.74"/>
<polygon fill="midnightblue" stroke="midnightblue" points="762.68,-566.39 772.51,-570.33 767.28,-561.11 762.68,-566.39"/>
</g>
<!-- Node29 -->
<g id="node29" class="node">
<title>Node29</title>
<g id="a_node29"><a xlink:href="classQuantConnect_1_1Globals.html#a2aae16e1ae5048f0db1dcc7d9a1e9b46" target="_top" xlink:title="Resets global values with the Config data.">
<polygon fill="white" stroke="black" points="526,-99 526,-118 682,-118 682,-99 526,-99"/>
<text text-anchor="middle" x="604" y="-106" font-family="Helvetica,sans-Serif" font-size="10.00">QuantConnect.Globals.Reset</text>
</a>
</g>
</g>
<!-- Node2&#45;&gt;Node29 -->
<g id="edge32" class="edge">
<title>Node2&#45;&gt;Node29</title>
<path fill="none" stroke="midnightblue" d="M764.86,-563.67C764.22,-562.97 763.6,-562.24 763,-561.5 702.4,-486.04 792.93,-198.34 727,-127.5 715.32,-114.95 699.02,-108.38 682.14,-105.29"/>
<polygon fill="midnightblue" stroke="midnightblue" points="762.65,-566.38 772.47,-570.36 767.27,-561.13 762.65,-566.38"/>
</g>
<!-- Node30 -->
<g id="node30" class="node">
<title>Node30</title>
<g id="a_node30"><a xlink:href="classQuantConnect_1_1ToolBox_1_1ExchangeInfoUpdater.html#a4793c678ea44705a8bdb870a498f6a90" target="_top" xlink:title="Update existing symbol properties database">
<polygon fill="white" stroke="black" points="515.5,-49.5 515.5,-79.5 692.5,-79.5 692.5,-49.5 515.5,-49.5"/>
<text text-anchor="start" x="523.5" y="-67.5" font-family="Helvetica,sans-Serif" font-size="10.00">QuantConnect.ToolBox.Exchange</text>
<text text-anchor="middle" x="604" y="-56.5" font-family="Helvetica,sans-Serif" font-size="10.00">InfoUpdater.Run</text>
</a>
</g>
</g>
<!-- Node2&#45;&gt;Node30 -->
<g id="edge33" class="edge">
<title>Node2&#45;&gt;Node30</title>
<path fill="none" stroke="midnightblue" d="M764.85,-563.67C764.21,-562.97 763.6,-562.25 763,-561.5 697.4,-479.26 796.55,-168.42 727,-89.5 717.92,-79.2 705.84,-72.47 692.81,-68.18"/>
<polygon fill="midnightblue" stroke="midnightblue" points="762.63,-566.38 772.44,-570.38 767.27,-561.14 762.63,-566.38"/>
</g>
<!-- Node31 -->
<g id="node31" class="node">
<title>Node31</title>
<g id="a_node31"><a xlink:href="classQuantConnect_1_1Lean_1_1Engine_1_1Initializer.html#a9bf25f03ea7c7f01843b04ca0845a2e5" target="_top" xlink:title="Basic common Lean initialization">
<polygon fill="white" stroke="black" points="528.5,-0.5 528.5,-30.5 679.5,-30.5 679.5,-0.5 528.5,-0.5"/>
<text text-anchor="start" x="536.5" y="-18.5" font-family="Helvetica,sans-Serif" font-size="10.00">QuantConnect.Lean.Engine.</text>
<text text-anchor="middle" x="604" y="-7.5" font-family="Helvetica,sans-Serif" font-size="10.00">Initializer.Start</text>
</a>
</g>
</g>
<!-- Node2&#45;&gt;Node31 -->
<g id="edge34" class="edge">
<title>Node2&#45;&gt;Node31</title>
<path fill="none" stroke="midnightblue" d="M764.85,-563.68C764.21,-562.97 763.59,-562.25 763,-561.5 690.82,-470.34 803.91,-126.71 727,-39.5 714.94,-25.82 697.54,-18.56 679.65,-14.96"/>
<polygon fill="midnightblue" stroke="midnightblue" points="762.61,-566.38 772.42,-570.4 767.26,-561.15 762.61,-566.38"/>
</g>
<!-- Node12 -->
<g id="node12" class="node">
<title>Node12</title>
<g id="a_node12"><a xlink:href="classQuantConnect_1_1Lean_1_1Engine_1_1Initializer.html#a7524eafaf359e6e12cc30b9ade9a193f" target="_top" xlink:title="Get and initializes System Handler">
<polygon fill="white" stroke="black" points="246,-991.5 246,-1021.5 408,-1021.5 408,-991.5 246,-991.5"/>
<text text-anchor="start" x="254" y="-1009.5" font-family="Helvetica,sans-Serif" font-size="10.00">QuantConnect.Lean.Engine.</text>
<text text-anchor="middle" x="327" y="-998.5" font-family="Helvetica,sans-Serif" font-size="10.00">Initializer.GetSystemHandlers</text>
</a>
</g>
</g>
<!-- Node11&#45;&gt;Node12 -->
<g id="edge11" class="edge">
<title>Node11&#45;&gt;Node12</title>
<path fill="none" stroke="midnightblue" d="M470.69,-1012.21C449.41,-1011.36 427.96,-1010.5 408.39,-1009.72"/>
<polygon fill="midnightblue" stroke="midnightblue" points="470.65,-1015.71 480.78,-1012.61 470.93,-1008.71 470.65,-1015.71"/>
</g>
<!-- Node13 -->
<g id="node13" class="node">
<title>Node13</title>
<g id="a_node13"><a xlink:href="classQuantConnect_1_1Research_1_1QuantBook.html#a239bcca3c726a8cc25b9a6a3cd0c244f" target="_top" xlink:title="QuantBook constructor. Provides access to data for quantitative analysis">
<polygon fill="white" stroke="black" points="3.5,-972.5 3.5,-1002.5 169.5,-1002.5 169.5,-972.5 3.5,-972.5"/>
<text text-anchor="start" x="11.5" y="-990.5" font-family="Helvetica,sans-Serif" font-size="10.00">QuantConnect.Research.Quant</text>
<text text-anchor="middle" x="86.5" y="-979.5" font-family="Helvetica,sans-Serif" font-size="10.00">Book.QuantBook</text>
</a>
</g>
</g>
<!-- Node11&#45;&gt;Node13 -->
<g id="edge12" class="edge">
<title>Node11&#45;&gt;Node13</title>
<path fill="none" stroke="midnightblue" d="M510.43,-1000.33C500.47,-998.17 490.5,-995.88 481,-993.5 464.77,-989.44 461.55,-984.97 445,-982.5 341.26,-967 313.87,-980.34 209,-982.5 196.23,-982.76 182.71,-983.18 169.51,-983.67"/>
<polygon fill="midnightblue" stroke="midnightblue" points="509.88,-1003.79 520.39,-1002.44 511.33,-996.94 509.88,-1003.79"/>
</g>
<!-- Node14&#45;&gt;Node13 -->
<g id="edge15" class="edge">
<title>Node14&#45;&gt;Node13</title>
<path fill="none" stroke="midnightblue" d="M231.85,-1038.21C224.09,-1036.03 216.4,-1033.78 209,-1031.5 180.92,-1022.84 149.76,-1011.52 126.03,-1002.53"/>
<polygon fill="midnightblue" stroke="midnightblue" points="231.12,-1041.63 241.69,-1040.92 232.98,-1034.89 231.12,-1041.63"/>
</g>
<!-- Node15 -->
<g id="node15" class="node">
<title>Node15</title>
<g id="a_node15"><a xlink:href="classQuantConnect_1_1Lean_1_1Engine_1_1Initializer.html#a8b5510189c94accd341087b4d8d1c796" target="_top" xlink:title="Get and initializes Algorithm Handler">
<polygon fill="white" stroke="black" points="0,-1046.5 0,-1076.5 173,-1076.5 173,-1046.5 0,-1046.5"/>
<text text-anchor="start" x="8" y="-1064.5" font-family="Helvetica,sans-Serif" font-size="10.00">QuantConnect.Lean.Engine.</text>
<text text-anchor="middle" x="86.5" y="-1053.5" font-family="Helvetica,sans-Serif" font-size="10.00">Initializer.GetAlgorithmHandlers</text>
</a>
</g>
</g>
<!-- Node14&#45;&gt;Node15 -->
<g id="edge14" class="edge">
<title>Node14&#45;&gt;Node15</title>
<path fill="none" stroke="midnightblue" d="M220.43,-1061.5C204.69,-1061.5 188.64,-1061.5 173.38,-1061.5"/>
<polygon fill="midnightblue" stroke="midnightblue" points="220.71,-1065 230.71,-1061.5 220.71,-1058 220.71,-1065"/>
</g>
<!-- Node17&#45;&gt;Node4 -->
<g id="edge18" class="edge">
<title>Node17&#45;&gt;Node4</title>
<path fill="none" stroke="midnightblue" d="M530.36,-1122.93C494.54,-1131.53 451.1,-1141.96 413.66,-1150.94"/>
<polygon fill="midnightblue" stroke="midnightblue" points="531.35,-1126.3 540.25,-1120.56 529.71,-1119.49 531.35,-1126.3"/>
</g>
<!-- Node17&#45;&gt;Node14 -->
<g id="edge19" class="edge">
<title>Node17&#45;&gt;Node14</title>
<path fill="none" stroke="midnightblue" d="M498.96,-1088.85C474.13,-1084.88 447.74,-1080.66 423.32,-1076.75"/>
<polygon fill="midnightblue" stroke="midnightblue" points="498.7,-1092.36 509.13,-1090.48 499.81,-1085.44 498.7,-1092.36"/>
</g>
<!-- Node18 -->
<g id="node18" class="node">
<title>Node18</title>
<g id="a_node18"><a xlink:href="classQuantConnect_1_1Data_1_1UniverseSelection_1_1FundamentalService.html#ab1ff384581bf0ec48d57fdbfa4b4043c" target="_top" xlink:title="Initializes the service">
<polygon fill="white" stroke="black" points="222.5,-1101.5 222.5,-1131.5 431.5,-1131.5 431.5,-1101.5 222.5,-1101.5"/>
<text text-anchor="start" x="230.5" y="-1119.5" font-family="Helvetica,sans-Serif" font-size="10.00">QuantConnect.Data.Universe</text>
<text text-anchor="middle" x="327" y="-1108.5" font-family="Helvetica,sans-Serif" font-size="10.00">Selection.FundamentalService.Initialize</text>
</a>
</g>
</g>
<!-- Node17&#45;&gt;Node18 -->
<g id="edge20" class="edge">
<title>Node17&#45;&gt;Node18</title>
<path fill="none" stroke="midnightblue" d="M489.26,-1110.05C470.27,-1110.81 450.66,-1111.59 431.94,-1112.34"/>
<polygon fill="midnightblue" stroke="midnightblue" points="489.57,-1113.54 499.43,-1109.64 489.29,-1106.55 489.57,-1113.54"/>
</g>
<!-- Node23 -->
<g id="node23" class="node">
<title>Node23</title>
<g id="a_node23"><a xlink:href="classQuantConnect_1_1Lean_1_1Engine_1_1DataFeeds_1_1SubscriptionDataReader.html#a4fa83c28c502b16107397fe40dcae389" target="_top" xlink:title="Advances the enumerator to the next element of the collection.">
<polygon fill="white" stroke="black" points="231.5,-373 231.5,-414 422.5,-414 422.5,-373 231.5,-373"/>
<text text-anchor="start" x="239.5" y="-402" font-family="Helvetica,sans-Serif" font-size="10.00">QuantConnect.Lean.Engine.</text>
<text text-anchor="start" x="239.5" y="-391" font-family="Helvetica,sans-Serif" font-size="10.00">DataFeeds.SubscriptionDataReader.</text>
<text text-anchor="middle" x="327" y="-380" font-family="Helvetica,sans-Serif" font-size="10.00">MoveNext</text>
</a>
</g>
</g>
<!-- Node22&#45;&gt;Node23 -->
<g id="edge25" class="edge">
<title>Node22&#45;&gt;Node23</title>
<path fill="none" stroke="midnightblue" d="M498.21,-393.5C473.42,-393.5 447.13,-393.5 422.81,-393.5"/>
<polygon fill="midnightblue" stroke="midnightblue" points="498.36,-397 508.36,-393.5 498.36,-390 498.36,-397"/>
</g>
<!-- Node24&#45;&gt;Node25 -->
<g id="edge27" class="edge">
<title>Node24&#45;&gt;Node25</title>
<path fill="none" stroke="midnightblue" d="M507.27,-313.11C460.25,-316.36 406.03,-320.11 369.64,-322.62"/>
<polygon fill="midnightblue" stroke="midnightblue" points="507.76,-316.59 517.5,-312.41 507.28,-309.61 507.76,-316.59"/>
</g>
</g>
</svg>
        <g id="navigator" transform="translate(0 0)" fill="#404254">
                <rect fill="#f2f5e9" fill-opacity="0.5" stroke="#606060" stroke-width=".5" x="0" y="0" width="60" height="60"/>
                <use id="zoomplus" xlink:href="#zoomPlus" x="17" y="9" onmousedown="handleZoom(evt,'in')"/>
                <use id="zoomminus" xlink:href="#zoomMin" x="42" y="9" onmousedown="handleZoom(evt,'out')"/>
                <use id="reset" xlink:href="#resetDef" x="30" y="36" onmousedown="handleReset()"/>
                <g id="arrowUp" xlink:href="#dirArrow" transform="translate(30 24)" onmousedown="handlePan(0,-1)">
                  <use xlink:href="#rim" fill="#404040">
                        <set attributeName="fill" to="#808080" begin="arrowUp.mouseover" end="arrowUp.mouseout"/>
                  </use>
                  <path fill="none" stroke="white" stroke-width="1.5" d="M0,-3.0v7 M-2.5,-0.5L0,-3.0L2.5,-0.5"/>
                </g>
                <g id="arrowRight" xlink:href="#dirArrow" transform="rotate(90) translate(36 -43)" onmousedown="handlePan(1,0)">
                  <use xlink:href="#rim" fill="#404040">
                        <set attributeName="fill" to="#808080" begin="arrowRight.mouseover" end="arrowRight.mouseout"/>
                  </use>
                  <path fill="none" stroke="white" stroke-width="1.5" d="M0,-3.0v7 M-2.5,-0.5L0,-3.0L2.5,-0.5"/>
                </g>
                <g id="arrowDown" xlink:href="#dirArrow" transform="rotate(180) translate(-30 -48)" onmousedown="handlePan(0,1)">
                  <use xlink:href="#rim" fill="#404040">
                        <set attributeName="fill" to="#808080" begin="arrowDown.mouseover" end="arrowDown.mouseout"/>
                  </use>
                  <path fill="none" stroke="white" stroke-width="1.5" d="M0,-3.0v7 M-2.5,-0.5L0,-3.0L2.5,-0.5"/>
                </g>
                <g id="arrowLeft" xlink:href="#dirArrow" transform="rotate(270) translate(-36 17)" onmousedown="handlePan(-1,0)">
                  <use xlink:href="#rim" fill="#404040">
                        <set attributeName="fill" to="#808080" begin="arrowLeft.mouseover" end="arrowLeft.mouseout"/>
                  </use>
                  <path fill="none" stroke="white" stroke-width="1.5" d="M0,-3.0v7 M-2.5,-0.5L0,-3.0L2.5,-0.5"/>
                </g>
        </g>
        <svg viewBox="0 0 15 15" width="100%" height="30px" preserveAspectRatio="xMaxYMin meet">
         <g id="arrow_out" transform="scale(0.3 0.3)">
          <a xlink:href="classQuantConnect_1_1Configuration_1_1Config_a9ed01bc116e8181a7557f3e668f34691_icgraph_org.svg" target="_base">
           <rect id="button" ry="5" rx="5" y="6" x="6" height="38" width="38"
                fill="#f2f5e9" fill-opacity="0.5" stroke="#606060" stroke-width="1.0"/>
           <path id="arrow"
             d="M 11.500037,31.436501 C 11.940474,20.09759 22.043105,11.32322 32.158766,21.979434 L 37.068811,17.246167 C 37.068811,17.246167 37.088388,32 37.088388,32 L 22.160133,31.978069 C 22.160133,31.978069 26.997745,27.140456 26.997745,27.140456 C 18.528582,18.264221 13.291696,25.230495 11.500037,31.436501 z"
             style="fill:#404040;"/>
          </a>
         </g>
        </svg>
</svg>
