<?xml version="1.0" encoding="UTF-8" standalone="no"?>
<!DOCTYPE svg PUBLIC "-//W3C//DTD SVG 1.1//EN"
 "http://www.w3.org/Graphics/SVG/1.1/DTD/svg11.dtd">
<!-- Generated by graphviz version 2.43.0 (0)
 -->
<!-- Title: QuantConnect.Time.DateTimeRange Pages: 1 -->
<svg width="660pt" height="198pt"
 viewBox="0.00 0.00 660.00 198.00" xmlns="http://www.w3.org/2000/svg" xmlns:xlink="http://www.w3.org/1999/xlink">
<g id="graph0" class="graph" transform="scale(1 1) rotate(0) translate(4 194)">
<title>QuantConnect.Time.DateTimeRange</title>
<polygon fill="white" stroke="transparent" points="-4,4 -4,-194 656,-194 656,4 -4,4"/>
<!-- Node1 -->
<g id="node1" class="node">
<title>Node1</title>
<g id="a_node1"><a xlink:title="Define an enumerable date time range using the given time step">
<polygon fill="#bfbfbf" stroke="black" points="488,-60.5 488,-90.5 652,-90.5 652,-60.5 488,-60.5"/>
<text text-anchor="start" x="496" y="-78.5" font-family="Helvetica,sans-Serif" font-size="10.00">QuantConnect.Time.DateTime</text>
<text text-anchor="middle" x="570" y="-67.5" font-family="Helvetica,sans-Serif" font-size="10.00">Range</text>
</a>
</g>
</g>
<!-- Node2 -->
<g id="node2" class="node">
<title>Node2</title>
<g id="a_node2"><a xlink:href="classQuantConnect_1_1Time.html#acac0502b1a038835956ff94c6407673e" target="_top" xlink:title="Define an enumerable date range and return each date as a datetime object in the date range">
<polygon fill="white" stroke="black" points="254.5,-88 254.5,-107 413.5,-107 413.5,-88 254.5,-88"/>
<text text-anchor="middle" x="334" y="-95" font-family="Helvetica,sans-Serif" font-size="10.00">QuantConnect.Time.EachDay</text>
</a>
</g>
</g>
<!-- Node1&#45;&gt;Node2 -->
<g id="edge1" class="edge">
<title>Node1&#45;&gt;Node2</title>
<path fill="none" stroke="midnightblue" d="M477.85,-84.07C456.66,-86.06 434.27,-88.17 413.67,-90.1"/>
<polygon fill="midnightblue" stroke="midnightblue" points="478.19,-87.55 487.81,-83.13 477.53,-80.58 478.19,-87.55"/>
</g>
<!-- Node7 -->
<g id="node7" class="node">
<title>Node7</title>
<g id="a_node7"><a xlink:href="classQuantConnect_1_1Lean_1_1Engine_1_1RealTime_1_1LiveTradingRealTimeHandler.html#a1b3eae56614996b86125cbd7c28cbe42" target="_top" xlink:title="Initializes the real time handler for the specified algorithm and job">
<polygon fill="white" stroke="black" points="216,-38.5 216,-68.5 452,-68.5 452,-38.5 216,-38.5"/>
<text text-anchor="start" x="224" y="-56.5" font-family="Helvetica,sans-Serif" font-size="10.00">QuantConnect.Lean.Engine.</text>
<text text-anchor="middle" x="334" y="-45.5" font-family="Helvetica,sans-Serif" font-size="10.00">RealTime.LiveTradingRealTimeHandler.Setup</text>
</a>
</g>
</g>
<!-- Node1&#45;&gt;Node7 -->
<g id="edge6" class="edge">
<title>Node1&#45;&gt;Node7</title>
<path fill="none" stroke="midnightblue" d="M477.74,-66.92C469.4,-66.14 460.87,-65.33 452.34,-64.53"/>
<polygon fill="midnightblue" stroke="midnightblue" points="477.53,-70.42 487.81,-67.87 478.19,-63.45 477.53,-70.42"/>
</g>
<!-- Node3 -->
<g id="node3" class="node">
<title>Node3</title>
<g id="a_node3"><a xlink:href="classQuantConnect_1_1Scheduling_1_1DateRules.html#a96da1217828682719aa151331ee10137" target="_top" xlink:title="Specifies an event should fire on each of the specified days of week">
<polygon fill="white" stroke="black" points="17.5,-159.5 17.5,-189.5 162.5,-189.5 162.5,-159.5 17.5,-159.5"/>
<text text-anchor="start" x="25.5" y="-177.5" font-family="Helvetica,sans-Serif" font-size="10.00">QuantConnect.Scheduling.</text>
<text text-anchor="middle" x="90" y="-166.5" font-family="Helvetica,sans-Serif" font-size="10.00">DateRules.Every</text>
</a>
</g>
</g>
<!-- Node2&#45;&gt;Node3 -->
<g id="edge2" class="edge">
<title>Node2&#45;&gt;Node3</title>
<path fill="none" stroke="midnightblue" d="M297.74,-110.5C266.87,-121.7 220.73,-137.97 180,-150.5 170.06,-153.56 159.43,-156.61 149.1,-159.46"/>
<polygon fill="midnightblue" stroke="midnightblue" points="298.99,-113.77 307.19,-107.06 296.6,-107.19 298.99,-113.77"/>
</g>
<!-- Node4 -->
<g id="node4" class="node">
<title>Node4</title>
<g id="a_node4"><a xlink:href="classQuantConnect_1_1Scheduling_1_1DateRules.html#a50ef0351aa84d629ccb3d6f850f8b2f8" target="_top" xlink:title="Specifies an event should fire every day">
<polygon fill="white" stroke="black" points="17.5,-110.5 17.5,-140.5 162.5,-140.5 162.5,-110.5 17.5,-110.5"/>
<text text-anchor="start" x="25.5" y="-128.5" font-family="Helvetica,sans-Serif" font-size="10.00">QuantConnect.Scheduling.</text>
<text text-anchor="middle" x="90" y="-117.5" font-family="Helvetica,sans-Serif" font-size="10.00">DateRules.EveryDay</text>
</a>
</g>
</g>
<!-- Node2&#45;&gt;Node4 -->
<g id="edge3" class="edge">
<title>Node2&#45;&gt;Node4</title>
<path fill="none" stroke="midnightblue" d="M244.26,-107.77C217.39,-110.88 188.23,-114.25 162.63,-117.21"/>
<polygon fill="midnightblue" stroke="midnightblue" points="244.9,-111.22 254.43,-106.59 244.09,-104.26 244.9,-111.22"/>
</g>
<!-- Node5 -->
<g id="node5" class="node">
<title>Node5</title>
<g id="a_node5"><a xlink:href="classQuantConnect_1_1Data_1_1RiskFreeInterestRateModelExtensions.html#a488707333bf1b3fc664ae1ad9c67480f" target="_top" xlink:title="Gets the average risk free annual return rate">
<polygon fill="white" stroke="black" points="0,-50 0,-91 180,-91 180,-50 0,-50"/>
<text text-anchor="start" x="8" y="-79" font-family="Helvetica,sans-Serif" font-size="10.00">QuantConnect.Data.RiskFree</text>
<text text-anchor="start" x="8" y="-68" font-family="Helvetica,sans-Serif" font-size="10.00">InterestRateModelExtensions.Get</text>
<text text-anchor="middle" x="90" y="-57" font-family="Helvetica,sans-Serif" font-size="10.00">RiskFreeRate</text>
</a>
</g>
</g>
<!-- Node2&#45;&gt;Node5 -->
<g id="edge4" class="edge">
<title>Node2&#45;&gt;Node5</title>
<path fill="none" stroke="midnightblue" d="M244.28,-87.6C223.35,-85.27 201.03,-82.78 180.09,-80.44"/>
<polygon fill="midnightblue" stroke="midnightblue" points="244.1,-91.1 254.43,-88.73 244.88,-84.15 244.1,-91.1"/>
</g>
<!-- Node6 -->
<g id="node6" class="node">
<title>Node6</title>
<g id="a_node6"><a xlink:href="classQuantConnect_1_1Time.html#a5d72b5ccc603db0d8cf79df21b2f28bf" target="_top" xlink:title="Could of the number of tradeable dates within this period.">
<polygon fill="white" stroke="black" points="8,-0.5 8,-30.5 172,-30.5 172,-0.5 8,-0.5"/>
<text text-anchor="start" x="16" y="-18.5" font-family="Helvetica,sans-Serif" font-size="10.00">QuantConnect.Time.Tradeable</text>
<text text-anchor="middle" x="90" y="-7.5" font-family="Helvetica,sans-Serif" font-size="10.00">Dates</text>
</a>
</g>
</g>
<!-- Node2&#45;&gt;Node6 -->
<g id="edge5" class="edge">
<title>Node2&#45;&gt;Node6</title>
<path fill="none" stroke="midnightblue" d="M244.32,-89.47C234.45,-86.73 224.8,-83.16 216,-78.5 195.44,-67.62 199.92,-52.52 180,-40.5 173.68,-36.68 166.76,-33.43 159.65,-30.67"/>
<polygon fill="midnightblue" stroke="midnightblue" points="243.68,-92.92 254.23,-91.93 245.37,-86.12 243.68,-92.92"/>
</g>
</g>
</svg>
