<?xml version="1.0" encoding="UTF-8" standalone="no"?>
<!DOCTYPE svg PUBLIC "-//W3C//DTD SVG 1.1//EN"
 "http://www.w3.org/Graphics/SVG/1.1/DTD/svg11.dtd">
<!-- Generated by graphviz version 2.43.0 (0)
 -->
<!-- Title: QuantConnect.Api.BacktestSummary Pages: 1 -->
<svg width="158pt" height="207pt"
 viewBox="0.00 0.00 158.00 207.00" xmlns="http://www.w3.org/2000/svg" xmlns:xlink="http://www.w3.org/1999/xlink">
<g id="graph0" class="graph" transform="scale(1 1) rotate(0) translate(4 203)">
<title>QuantConnect.Api.BacktestSummary</title>
<polygon fill="white" stroke="transparent" points="-4,4 -4,-203 154,-203 154,4 -4,4"/>
<!-- Node1 -->
<g id="node1" class="node">
<title>Node1</title>
<g id="a_node1"><a xlink:title="Result object class for the List Backtest response from the API">
<polygon fill="#bfbfbf" stroke="black" points="0,-0.5 0,-30.5 150,-30.5 150,-0.5 0,-0.5"/>
<text text-anchor="start" x="8" y="-18.5" font-family="Helvetica,sans-Serif" font-size="10.00">QuantConnect.Api.Backtest</text>
<text text-anchor="middle" x="75" y="-7.5" font-family="Helvetica,sans-Serif" font-size="10.00">Summary</text>
</a>
</g>
</g>
<!-- Node2 -->
<g id="node2" class="node">
<title>Node2</title>
<g id="a_node2"><a xlink:href="classQuantConnect_1_1Api_1_1BasicBacktest.html" target="_top" xlink:title="Base class for backtest result object response">
<polygon fill="white" stroke="black" points="32,-67.5 32,-86.5 118,-86.5 118,-67.5 32,-67.5"/>
<text text-anchor="middle" x="75" y="-74.5" font-family="Helvetica,sans-Serif" font-size="10.00">BasicBacktest</text>
</a>
</g>
</g>
<!-- Node2&#45;&gt;Node1 -->
<g id="edge1" class="edge">
<title>Node2&#45;&gt;Node1</title>
<path fill="none" stroke="midnightblue" d="M75,-57.23C75,-48.59 75,-38.5 75,-30.52"/>
<polygon fill="midnightblue" stroke="midnightblue" points="71.5,-57.48 75,-67.48 78.5,-57.48 71.5,-57.48"/>
</g>
<!-- Node3 -->
<g id="node3" class="node">
<title>Node3</title>
<g id="a_node3"><a xlink:href="classQuantConnect_1_1Api_1_1RestResponse.html" target="_top" xlink:title="Base API response class for the QuantConnect API.">
<polygon fill="white" stroke="black" points="32,-123.5 32,-142.5 118,-142.5 118,-123.5 32,-123.5"/>
<text text-anchor="middle" x="75" y="-130.5" font-family="Helvetica,sans-Serif" font-size="10.00">RestResponse</text>
</a>
</g>
</g>
<!-- Node3&#45;&gt;Node2 -->
<g id="edge2" class="edge">
<title>Node3&#45;&gt;Node2</title>
<path fill="none" stroke="midnightblue" d="M75,-112.8C75,-103.91 75,-93.78 75,-86.75"/>
<polygon fill="midnightblue" stroke="midnightblue" points="71.5,-113.08 75,-123.08 78.5,-113.08 71.5,-113.08"/>
</g>
<!-- Node4 -->
<g id="node4" class="node">
<title>Node4</title>
<g id="a_node4"><a xlink:href="classQuantConnect_1_1Api_1_1StringRepresentation.html" target="_top" xlink:title="Class to return the string representation of an API response class">
<polygon fill="white" stroke="black" points="15.5,-179.5 15.5,-198.5 134.5,-198.5 134.5,-179.5 15.5,-179.5"/>
<text text-anchor="middle" x="75" y="-186.5" font-family="Helvetica,sans-Serif" font-size="10.00">StringRepresentation</text>
</a>
</g>
</g>
<!-- Node4&#45;&gt;Node3 -->
<g id="edge3" class="edge">
<title>Node4&#45;&gt;Node3</title>
<path fill="none" stroke="midnightblue" d="M75,-168.8C75,-159.91 75,-149.78 75,-142.75"/>
<polygon fill="midnightblue" stroke="midnightblue" points="71.5,-169.08 75,-179.08 78.5,-169.08 71.5,-169.08"/>
</g>
</g>
</svg>
