<?xml version="1.0" encoding="UTF-8" standalone="no"?>
<!DOCTYPE svg PUBLIC "-//W3C//DTD SVG 1.1//EN"
 "http://www.w3.org/Graphics/SVG/1.1/DTD/svg11.dtd">
<!-- Generated by graphviz version 2.43.0 (0)
 -->
<!-- Title: QuantConnect.Messages.PythonWrapper.InterfaceNotFullyImplemented Pages: 1 -->
<svg width="431pt" height="50pt"
 viewBox="0.00 0.00 431.00 50.00" xmlns="http://www.w3.org/2000/svg" xmlns:xlink="http://www.w3.org/1999/xlink">
<g id="graph0" class="graph" transform="scale(1 1) rotate(0) translate(4 46)">
<title>QuantConnect.Messages.PythonWrapper.InterfaceNotFullyImplemented</title>
<polygon fill="white" stroke="transparent" points="-4,4 -4,-46 427,-46 427,4 -4,4"/>
<!-- Node1 -->
<g id="node1" class="node">
<title>Node1</title>
<g id="a_node1"><a xlink:title="Returns a string message saying the given interface must be fully implemented. It also advises the us...">
<polygon fill="#bfbfbf" stroke="black" points="214,-6 214,-36 423,-36 423,-6 214,-6"/>
<text text-anchor="start" x="222" y="-24" font-family="Helvetica,sans-Serif" font-size="10.00">QuantConnect.Messages.Python</text>
<text text-anchor="middle" x="318.5" y="-13" font-family="Helvetica,sans-Serif" font-size="10.00">Wrapper.InterfaceNotFullyImplemented</text>
</a>
</g>
</g>
<!-- Node2 -->
<g id="node2" class="node">
<title>Node2</title>
<g id="a_node2"><a xlink:href="classQuantConnect_1_1Python_1_1PythonWrapper.html#a005379f98dc888facc6c238dd015e26a" target="_top" xlink:title="Validates that the specified PyObject completely implements the provided interface type">
<polygon fill="white" stroke="black" points="0,-0.5 0,-41.5 178,-41.5 178,-0.5 0,-0.5"/>
<text text-anchor="start" x="8" y="-29.5" font-family="Helvetica,sans-Serif" font-size="10.00">QuantConnect.Python.Python</text>
<text text-anchor="start" x="8" y="-18.5" font-family="Helvetica,sans-Serif" font-size="10.00">Wrapper.ValidateImplementation</text>
<text text-anchor="middle" x="89" y="-7.5" font-family="Helvetica,sans-Serif" font-size="10.00">Of&lt; TInterface &gt;</text>
</a>
</g>
</g>
<!-- Node1&#45;&gt;Node2 -->
<g id="edge1" class="edge">
<title>Node1&#45;&gt;Node2</title>
<path fill="none" stroke="midnightblue" d="M203.73,-21C195.19,-21 186.65,-21 178.31,-21"/>
<polygon fill="midnightblue" stroke="midnightblue" points="203.74,-24.5 213.74,-21 203.74,-17.5 203.74,-24.5"/>
</g>
</g>
</svg>
