<?xml version="1.0" encoding="UTF-8" standalone="no"?>
<!DOCTYPE svg PUBLIC "-//W3C//DTD SVG 1.1//EN"
 "http://www.w3.org/Graphics/SVG/1.1/DTD/svg11.dtd">
<!-- Generated by graphviz version 2.43.0 (0)
 -->
<!-- Title: QuantConnect.Currencies.GetCurrencySymbol Pages: 1 -->
<svg width="762pt" height="570pt"
 viewBox="0.00 0.00 762.00 570.00" xmlns="http://www.w3.org/2000/svg" xmlns:xlink="http://www.w3.org/1999/xlink">
<g id="graph0" class="graph" transform="scale(1 1) rotate(0) translate(4 566)">
<title>QuantConnect.Currencies.GetCurrencySymbol</title>
<polygon fill="white" stroke="transparent" points="-4,4 -4,-566 758,-566 758,4 -4,4"/>
<!-- Node1 -->
<g id="node1" class="node">
<title>Node1</title>
<g id="a_node1"><a xlink:title="Gets the currency symbol for the specified currency code">
<polygon fill="#bfbfbf" stroke="black" points="611,-257.5 611,-287.5 754,-287.5 754,-257.5 611,-257.5"/>
<text text-anchor="start" x="619" y="-275.5" font-family="Helvetica,sans-Serif" font-size="10.00">QuantConnect.Currencies.</text>
<text text-anchor="middle" x="682.5" y="-264.5" font-family="Helvetica,sans-Serif" font-size="10.00">GetCurrencySymbol</text>
</a>
</g>
</g>
<!-- Node2 -->
<g id="node2" class="node">
<title>Node2</title>
<g id="a_node2"><a xlink:href="classQuantConnect_1_1Securities_1_1Cash.html#a2aa111689a480307cc3926c6aaa358cd" target="_top" xlink:title="Initializes a new instance of the Cash class">
<polygon fill="white" stroke="black" points="412.5,-531.5 412.5,-561.5 552.5,-561.5 552.5,-531.5 412.5,-531.5"/>
<text text-anchor="start" x="420.5" y="-549.5" font-family="Helvetica,sans-Serif" font-size="10.00">QuantConnect.Securities.</text>
<text text-anchor="middle" x="482.5" y="-538.5" font-family="Helvetica,sans-Serif" font-size="10.00">Cash.Cash</text>
</a>
</g>
</g>
<!-- Node1&#45;&gt;Node2 -->
<g id="edge1" class="edge">
<title>Node1&#45;&gt;Node2</title>
<path fill="none" stroke="midnightblue" d="M678.04,-297.78C669.78,-348.12 644.19,-461.22 575,-521.5 568.54,-527.12 560.93,-531.5 552.91,-534.89"/>
<polygon fill="midnightblue" stroke="midnightblue" points="681.52,-298.17 679.59,-287.76 674.6,-297.11 681.52,-298.17"/>
</g>
<!-- Node3 -->
<g id="node3" class="node">
<title>Node3</title>
<g id="a_node3"><a xlink:href="classQuantConnect_1_1Holding.html#a2d74ab2463d9dbf428deeb0737af7fb5" target="_top" xlink:title="Create a simple JSON holdings from a Security holding class.">
<polygon fill="white" stroke="black" points="399,-493 399,-512 566,-512 566,-493 399,-493"/>
<text text-anchor="middle" x="482.5" y="-500" font-family="Helvetica,sans-Serif" font-size="10.00">QuantConnect.Holding.Holding</text>
</a>
</g>
</g>
<!-- Node1&#45;&gt;Node3 -->
<g id="edge2" class="edge">
<title>Node1&#45;&gt;Node3</title>
<path fill="none" stroke="midnightblue" d="M676.37,-297.38C665.78,-342.12 637.11,-435.89 575,-483.5 569.98,-487.35 564.36,-490.47 558.45,-492.99"/>
<polygon fill="midnightblue" stroke="midnightblue" points="679.79,-298.14 678.58,-287.62 672.96,-296.6 679.79,-298.14"/>
</g>
<!-- Node4 -->
<g id="node4" class="node">
<title>Node4</title>
<g id="a_node4"><a xlink:href="classQuantConnect_1_1Lean_1_1Engine_1_1Results_1_1BacktestingResultHandler.html#a187cf964394ce96cafca9a1048e9b143" target="_top" xlink:title="Set the Algorithm instance for ths result.">
<polygon fill="white" stroke="black" points="390,-433 390,-474 575,-474 575,-433 390,-433"/>
<text text-anchor="start" x="398" y="-462" font-family="Helvetica,sans-Serif" font-size="10.00">QuantConnect.Lean.Engine.</text>
<text text-anchor="start" x="398" y="-451" font-family="Helvetica,sans-Serif" font-size="10.00">Results.BacktestingResultHandler.</text>
<text text-anchor="middle" x="482.5" y="-440" font-family="Helvetica,sans-Serif" font-size="10.00">SetAlgorithm</text>
</a>
</g>
</g>
<!-- Node1&#45;&gt;Node4 -->
<g id="edge3" class="edge">
<title>Node1&#45;&gt;Node4</title>
<path fill="none" stroke="midnightblue" d="M670.51,-296.85C654.27,-330.16 620.78,-389.65 575,-423.5 570.3,-426.98 565.17,-430.07 559.82,-432.81"/>
<polygon fill="midnightblue" stroke="midnightblue" points="673.68,-298.33 674.81,-287.8 667.36,-295.33 673.68,-298.33"/>
</g>
<!-- Node5 -->
<g id="node5" class="node">
<title>Node5</title>
<g id="a_node5"><a xlink:href="classQuantConnect_1_1Lean_1_1Engine_1_1Results_1_1LiveTradingResultHandler.html#afc6bdfeeb94a6a5f8dbebd730153d16e" target="_top" xlink:title="Set the algorithm of the result handler after its been initialized.">
<polygon fill="white" stroke="black" points="391.5,-373 391.5,-414 573.5,-414 573.5,-373 391.5,-373"/>
<text text-anchor="start" x="399.5" y="-402" font-family="Helvetica,sans-Serif" font-size="10.00">QuantConnect.Lean.Engine.</text>
<text text-anchor="start" x="399.5" y="-391" font-family="Helvetica,sans-Serif" font-size="10.00">Results.LiveTradingResultHandler.</text>
<text text-anchor="middle" x="482.5" y="-380" font-family="Helvetica,sans-Serif" font-size="10.00">SetAlgorithm</text>
</a>
</g>
</g>
<!-- Node1&#45;&gt;Node5 -->
<g id="edge4" class="edge">
<title>Node1&#45;&gt;Node5</title>
<path fill="none" stroke="midnightblue" d="M660.26,-295.12C640.05,-315.5 607.9,-345.01 575,-363.5 568.88,-366.94 562.3,-370.06 555.59,-372.87"/>
<polygon fill="midnightblue" stroke="midnightblue" points="662.93,-297.41 667.4,-287.8 657.92,-292.52 662.93,-297.41"/>
</g>
<!-- Node6 -->
<g id="node6" class="node">
<title>Node6</title>
<g id="a_node6"><a xlink:href="classQuantConnect_1_1Messages_1_1OrderEvent.html#a7dba5af6f586a90efa4b0d60acbbc5f4" target="_top" xlink:title="Parses the given order event into a string message which summarizes the basic information about it">
<polygon fill="white" stroke="black" points="187,-267.5 187,-297.5 354,-297.5 354,-267.5 187,-267.5"/>
<text text-anchor="start" x="195" y="-285.5" font-family="Helvetica,sans-Serif" font-size="10.00">QuantConnect.Messages.Order</text>
<text text-anchor="middle" x="270.5" y="-274.5" font-family="Helvetica,sans-Serif" font-size="10.00">Event.ShortToString</text>
</a>
</g>
</g>
<!-- Node1&#45;&gt;Node6 -->
<g id="edge5" class="edge">
<title>Node1&#45;&gt;Node6</title>
<path fill="none" stroke="midnightblue" d="M600.63,-274.82C591.98,-275.06 583.31,-275.29 575,-275.5 500.32,-277.41 415.29,-279.35 354.27,-280.7"/>
<polygon fill="midnightblue" stroke="midnightblue" points="600.85,-278.32 610.75,-274.54 600.66,-271.32 600.85,-278.32"/>
</g>
<!-- Node8 -->
<g id="node8" class="node">
<title>Node8</title>
<g id="a_node8"><a xlink:href="classQuantConnect_1_1Messages_1_1LimitIfTouchedOrder.html#a5b4b3f4b1c854a1596ba1ec31734718c" target="_top" xlink:title="Parses the given LimitIfTouched order to a string message containing basic information about it">
<polygon fill="white" stroke="black" points="400,-323.5 400,-353.5 565,-353.5 565,-323.5 400,-323.5"/>
<text text-anchor="start" x="408" y="-341.5" font-family="Helvetica,sans-Serif" font-size="10.00">QuantConnect.Messages.Limit</text>
<text text-anchor="middle" x="482.5" y="-330.5" font-family="Helvetica,sans-Serif" font-size="10.00">IfTouchedOrder.ToString</text>
</a>
</g>
</g>
<!-- Node1&#45;&gt;Node8 -->
<g id="edge7" class="edge">
<title>Node1&#45;&gt;Node8</title>
<path fill="none" stroke="midnightblue" d="M627.56,-290.84C610.73,-296.53 592.11,-302.8 575,-308.5 560.25,-313.41 544.14,-318.71 529.61,-323.47"/>
<polygon fill="midnightblue" stroke="midnightblue" points="628.88,-294.09 637.23,-287.57 626.63,-287.46 628.88,-294.09"/>
</g>
<!-- Node10 -->
<g id="node10" class="node">
<title>Node10</title>
<g id="a_node10"><a xlink:href="classQuantConnect_1_1Messages_1_1LimitOrder.html#a052b06dbd95da9ae9fc58079dbf3ce7a" target="_top" xlink:title="Parses a Limit order to a string message with basic information about it">
<polygon fill="white" stroke="black" points="400,-147.5 400,-177.5 565,-177.5 565,-147.5 400,-147.5"/>
<text text-anchor="start" x="408" y="-165.5" font-family="Helvetica,sans-Serif" font-size="10.00">QuantConnect.Messages.Limit</text>
<text text-anchor="middle" x="482.5" y="-154.5" font-family="Helvetica,sans-Serif" font-size="10.00">Order.ToString</text>
</a>
</g>
</g>
<!-- Node1&#45;&gt;Node10 -->
<g id="edge9" class="edge">
<title>Node1&#45;&gt;Node10</title>
<path fill="none" stroke="midnightblue" d="M657.33,-250.67C636.7,-232.98 605.59,-208.45 575,-192.5 563.88,-186.7 551.42,-181.73 539.37,-177.59"/>
<polygon fill="midnightblue" stroke="midnightblue" points="655.13,-253.39 664.97,-257.32 659.72,-248.11 655.13,-253.39"/>
</g>
<!-- Node12 -->
<g id="node12" class="node">
<title>Node12</title>
<g id="a_node12"><a xlink:href="classQuantConnect_1_1Messages_1_1OrderEvent.html#adf2f5d2b6f2cf4db7284f0bc13a470f6" target="_top" xlink:title="Parses the given order event into a string message containing basic information about it">
<polygon fill="white" stroke="black" points="187,-204.5 187,-234.5 354,-234.5 354,-204.5 187,-204.5"/>
<text text-anchor="start" x="195" y="-222.5" font-family="Helvetica,sans-Serif" font-size="10.00">QuantConnect.Messages.Order</text>
<text text-anchor="middle" x="270.5" y="-211.5" font-family="Helvetica,sans-Serif" font-size="10.00">Event.ToString</text>
</a>
</g>
</g>
<!-- Node1&#45;&gt;Node12 -->
<g id="edge11" class="edge">
<title>Node1&#45;&gt;Node12</title>
<path fill="none" stroke="midnightblue" d="M645.37,-252.75C625.28,-242.85 599.46,-231.85 575,-226.5 501.63,-210.45 415.9,-210.1 354.31,-212.94"/>
<polygon fill="midnightblue" stroke="midnightblue" points="643.95,-255.96 654.45,-257.35 647.11,-249.71 643.95,-255.96"/>
</g>
<!-- Node14 -->
<g id="node14" class="node">
<title>Node14</title>
<g id="a_node14"><a xlink:href="classQuantConnect_1_1Messages_1_1StopLimitOrder.html#a0daa388ca615db37c168b2232e111436" target="_top" xlink:title="Parses the given StopLimitOrder object into a string message">
<polygon fill="white" stroke="black" points="401.5,-98.5 401.5,-128.5 563.5,-128.5 563.5,-98.5 401.5,-98.5"/>
<text text-anchor="start" x="409.5" y="-116.5" font-family="Helvetica,sans-Serif" font-size="10.00">QuantConnect.Messages.Stop</text>
<text text-anchor="middle" x="482.5" y="-105.5" font-family="Helvetica,sans-Serif" font-size="10.00">LimitOrder.ToString</text>
</a>
</g>
</g>
<!-- Node1&#45;&gt;Node14 -->
<g id="edge13" class="edge">
<title>Node1&#45;&gt;Node14</title>
<path fill="none" stroke="midnightblue" d="M668.78,-248.43C651.56,-218.2 617.98,-166.84 575,-138.5 569.09,-134.6 562.58,-131.31 555.85,-128.52"/>
<polygon fill="midnightblue" stroke="midnightblue" points="665.88,-250.41 673.79,-257.45 672,-247.01 665.88,-250.41"/>
</g>
<!-- Node16 -->
<g id="node16" class="node">
<title>Node16</title>
<g id="a_node16"><a xlink:href="classQuantConnect_1_1Messages_1_1StopMarketOrder.html#a3e6f53599169498cf0eefac4a2dba6ee" target="_top" xlink:title="Parses a given StopMarketOrder object into a string message">
<polygon fill="white" stroke="black" points="401.5,-49.5 401.5,-79.5 563.5,-79.5 563.5,-49.5 401.5,-49.5"/>
<text text-anchor="start" x="409.5" y="-67.5" font-family="Helvetica,sans-Serif" font-size="10.00">QuantConnect.Messages.Stop</text>
<text text-anchor="middle" x="482.5" y="-56.5" font-family="Helvetica,sans-Serif" font-size="10.00">MarketOrder.ToString</text>
</a>
</g>
</g>
<!-- Node1&#45;&gt;Node16 -->
<g id="edge15" class="edge">
<title>Node1&#45;&gt;Node16</title>
<path fill="none" stroke="midnightblue" d="M673.9,-247.62C660.52,-208.03 628.91,-130.93 575,-89.5 569.91,-85.59 564.24,-82.29 558.3,-79.5"/>
<polygon fill="midnightblue" stroke="midnightblue" points="670.63,-248.87 677.06,-257.29 677.28,-246.69 670.63,-248.87"/>
</g>
<!-- Node18 -->
<g id="node18" class="node">
<title>Node18</title>
<g id="a_node18"><a xlink:href="classQuantConnect_1_1Messages_1_1TrailingStopOrder.html#af95304fd1641aaa40dff52fcda79fa8e" target="_top" xlink:title="Parses a TrailingStopOrder into a string">
<polygon fill="white" stroke="black" points="394.5,-0.5 394.5,-30.5 570.5,-30.5 570.5,-0.5 394.5,-0.5"/>
<text text-anchor="start" x="402.5" y="-18.5" font-family="Helvetica,sans-Serif" font-size="10.00">QuantConnect.Messages.Trailing</text>
<text text-anchor="middle" x="482.5" y="-7.5" font-family="Helvetica,sans-Serif" font-size="10.00">StopOrder.ToString</text>
</a>
</g>
</g>
<!-- Node1&#45;&gt;Node18 -->
<g id="edge17" class="edge">
<title>Node1&#45;&gt;Node18</title>
<path fill="none" stroke="midnightblue" d="M677.32,-247.43C667.97,-199.53 640.82,-94.86 575,-39.5 570.98,-36.12 566.53,-33.21 561.83,-30.7"/>
<polygon fill="midnightblue" stroke="midnightblue" points="673.88,-248.08 679.14,-257.28 680.76,-246.81 673.88,-248.08"/>
</g>
<!-- Node20 -->
<g id="node20" class="node">
<title>Node20</title>
<g id="a_node20"><a xlink:href="classQuantConnect_1_1Messages_1_1TrailingStopOrder.html#a57af95588c344800d240911558955fa1" target="_top" xlink:title="Returns a TrailingAmount string representation for the given TrailingStopOrder">
<polygon fill="white" stroke="black" points="394.5,-235.5 394.5,-265.5 570.5,-265.5 570.5,-235.5 394.5,-235.5"/>
<text text-anchor="start" x="402.5" y="-253.5" font-family="Helvetica,sans-Serif" font-size="10.00">QuantConnect.Messages.Trailing</text>
<text text-anchor="middle" x="482.5" y="-242.5" font-family="Helvetica,sans-Serif" font-size="10.00">StopOrder.TrailingAmount</text>
</a>
</g>
</g>
<!-- Node1&#45;&gt;Node20 -->
<g id="edge19" class="edge">
<title>Node1&#45;&gt;Node20</title>
<path fill="none" stroke="midnightblue" d="M600.68,-263.52C590.81,-262.42 580.7,-261.3 570.74,-260.19"/>
<polygon fill="midnightblue" stroke="midnightblue" points="600.53,-267.02 610.86,-264.65 601.3,-260.07 600.53,-267.02"/>
</g>
<!-- Node7 -->
<g id="node7" class="node">
<title>Node7</title>
<g id="a_node7"><a xlink:href="classQuantConnect_1_1Orders_1_1OrderEvent.html#a5e1d456251e1463c2940ef39741f83eb" target="_top" xlink:title="Returns a short string that represents the current object.">
<polygon fill="white" stroke="black" points="0,-267.5 0,-297.5 151,-297.5 151,-267.5 0,-267.5"/>
<text text-anchor="start" x="8" y="-285.5" font-family="Helvetica,sans-Serif" font-size="10.00">QuantConnect.Orders.Order</text>
<text text-anchor="middle" x="75.5" y="-274.5" font-family="Helvetica,sans-Serif" font-size="10.00">Event.ShortToString</text>
</a>
</g>
</g>
<!-- Node6&#45;&gt;Node7 -->
<g id="edge6" class="edge">
<title>Node6&#45;&gt;Node7</title>
<path fill="none" stroke="midnightblue" d="M176.75,-282.5C168.14,-282.5 159.5,-282.5 151.09,-282.5"/>
<polygon fill="midnightblue" stroke="midnightblue" points="176.81,-286 186.81,-282.5 176.81,-279 176.81,-286"/>
</g>
<!-- Node9 -->
<g id="node9" class="node">
<title>Node9</title>
<g id="a_node9"><a xlink:href="classQuantConnect_1_1Orders_1_1LimitIfTouchedOrder.html#a2e4d3ceef56f0bd927e066826d2e731e" target="_top" xlink:title="Returns a string that represents the current object.">
<polygon fill="white" stroke="black" points="196,-323.5 196,-353.5 345,-353.5 345,-323.5 196,-323.5"/>
<text text-anchor="start" x="204" y="-341.5" font-family="Helvetica,sans-Serif" font-size="10.00">QuantConnect.Orders.Limit</text>
<text text-anchor="middle" x="270.5" y="-330.5" font-family="Helvetica,sans-Serif" font-size="10.00">IfTouchedOrder.ToString</text>
</a>
</g>
</g>
<!-- Node8&#45;&gt;Node9 -->
<g id="edge8" class="edge">
<title>Node8&#45;&gt;Node9</title>
<path fill="none" stroke="midnightblue" d="M389.52,-338.5C374.69,-338.5 359.52,-338.5 345.2,-338.5"/>
<polygon fill="midnightblue" stroke="midnightblue" points="389.71,-342 399.71,-338.5 389.71,-335 389.71,-342"/>
</g>
<!-- Node11 -->
<g id="node11" class="node">
<title>Node11</title>
<g id="a_node11"><a xlink:href="classQuantConnect_1_1Orders_1_1LimitOrder.html#a5be8e266befd9899efeda7cdd29acb3f" target="_top" xlink:title="Returns a string that represents the current object.">
<polygon fill="white" stroke="black" points="196,-147.5 196,-177.5 345,-177.5 345,-147.5 196,-147.5"/>
<text text-anchor="start" x="204" y="-165.5" font-family="Helvetica,sans-Serif" font-size="10.00">QuantConnect.Orders.Limit</text>
<text text-anchor="middle" x="270.5" y="-154.5" font-family="Helvetica,sans-Serif" font-size="10.00">Order.ToString</text>
</a>
</g>
</g>
<!-- Node10&#45;&gt;Node11 -->
<g id="edge10" class="edge">
<title>Node10&#45;&gt;Node11</title>
<path fill="none" stroke="midnightblue" d="M389.52,-162.5C374.69,-162.5 359.52,-162.5 345.2,-162.5"/>
<polygon fill="midnightblue" stroke="midnightblue" points="389.71,-166 399.71,-162.5 389.71,-159 389.71,-166"/>
</g>
<!-- Node13 -->
<g id="node13" class="node">
<title>Node13</title>
<g id="a_node13"><a xlink:href="classQuantConnect_1_1Orders_1_1OrderEvent.html#a1b496c436eb7de7bb499b8e53c71555f" target="_top" xlink:title="Returns a string that represents the current object.">
<polygon fill="white" stroke="black" points="0,-204.5 0,-234.5 151,-234.5 151,-204.5 0,-204.5"/>
<text text-anchor="start" x="8" y="-222.5" font-family="Helvetica,sans-Serif" font-size="10.00">QuantConnect.Orders.Order</text>
<text text-anchor="middle" x="75.5" y="-211.5" font-family="Helvetica,sans-Serif" font-size="10.00">Event.ToString</text>
</a>
</g>
</g>
<!-- Node12&#45;&gt;Node13 -->
<g id="edge12" class="edge">
<title>Node12&#45;&gt;Node13</title>
<path fill="none" stroke="midnightblue" d="M176.75,-219.5C168.14,-219.5 159.5,-219.5 151.09,-219.5"/>
<polygon fill="midnightblue" stroke="midnightblue" points="176.81,-223 186.81,-219.5 176.81,-216 176.81,-223"/>
</g>
<!-- Node15 -->
<g id="node15" class="node">
<title>Node15</title>
<g id="a_node15"><a xlink:href="classQuantConnect_1_1Orders_1_1StopLimitOrder.html#a34270af16a9a5abfd50a0e57f026daae" target="_top" xlink:title="Returns a string that represents the current object.">
<polygon fill="white" stroke="black" points="197.5,-98.5 197.5,-128.5 343.5,-128.5 343.5,-98.5 197.5,-98.5"/>
<text text-anchor="start" x="205.5" y="-116.5" font-family="Helvetica,sans-Serif" font-size="10.00">QuantConnect.Orders.Stop</text>
<text text-anchor="middle" x="270.5" y="-105.5" font-family="Helvetica,sans-Serif" font-size="10.00">LimitOrder.ToString</text>
</a>
</g>
</g>
<!-- Node14&#45;&gt;Node15 -->
<g id="edge14" class="edge">
<title>Node14&#45;&gt;Node15</title>
<path fill="none" stroke="midnightblue" d="M390.94,-113.5C375.2,-113.5 359.01,-113.5 343.83,-113.5"/>
<polygon fill="midnightblue" stroke="midnightblue" points="391.21,-117 401.21,-113.5 391.21,-110 391.21,-117"/>
</g>
<!-- Node17 -->
<g id="node17" class="node">
<title>Node17</title>
<g id="a_node17"><a xlink:href="classQuantConnect_1_1Orders_1_1StopMarketOrder.html#a1745d6ace7d01f0d3fe30535aead9544" target="_top" xlink:title="Returns a string that represents the current object.">
<polygon fill="white" stroke="black" points="197.5,-49.5 197.5,-79.5 343.5,-79.5 343.5,-49.5 197.5,-49.5"/>
<text text-anchor="start" x="205.5" y="-67.5" font-family="Helvetica,sans-Serif" font-size="10.00">QuantConnect.Orders.Stop</text>
<text text-anchor="middle" x="270.5" y="-56.5" font-family="Helvetica,sans-Serif" font-size="10.00">MarketOrder.ToString</text>
</a>
</g>
</g>
<!-- Node16&#45;&gt;Node17 -->
<g id="edge16" class="edge">
<title>Node16&#45;&gt;Node17</title>
<path fill="none" stroke="midnightblue" d="M390.94,-64.5C375.2,-64.5 359.01,-64.5 343.83,-64.5"/>
<polygon fill="midnightblue" stroke="midnightblue" points="391.21,-68 401.21,-64.5 391.21,-61 391.21,-68"/>
</g>
<!-- Node19 -->
<g id="node19" class="node">
<title>Node19</title>
<g id="a_node19"><a xlink:href="classQuantConnect_1_1Orders_1_1TrailingStopOrder.html#aa2f63e3225e17cf067b1fb3516734cc6" target="_top" xlink:title="Returns a string that represents the current object.">
<polygon fill="white" stroke="black" points="191,-0.5 191,-30.5 350,-30.5 350,-0.5 191,-0.5"/>
<text text-anchor="start" x="199" y="-18.5" font-family="Helvetica,sans-Serif" font-size="10.00">QuantConnect.Orders.Trailing</text>
<text text-anchor="middle" x="270.5" y="-7.5" font-family="Helvetica,sans-Serif" font-size="10.00">StopOrder.ToString</text>
</a>
</g>
</g>
<!-- Node18&#45;&gt;Node19 -->
<g id="edge18" class="edge">
<title>Node18&#45;&gt;Node19</title>
<path fill="none" stroke="midnightblue" d="M384.25,-15.5C372.8,-15.5 361.23,-15.5 350.08,-15.5"/>
<polygon fill="midnightblue" stroke="midnightblue" points="384.27,-19 394.27,-15.5 384.27,-12 384.27,-19"/>
</g>
<!-- Node20&#45;&gt;Node6 -->
<g id="edge20" class="edge">
<title>Node20&#45;&gt;Node6</title>
<path fill="none" stroke="midnightblue" d="M384.23,-265.32C374.15,-266.86 363.98,-268.41 354.09,-269.92"/>
<polygon fill="midnightblue" stroke="midnightblue" points="384.91,-268.76 394.27,-263.79 383.85,-261.84 384.91,-268.76"/>
</g>
<!-- Node20&#45;&gt;Node12 -->
<g id="edge21" class="edge">
<title>Node20&#45;&gt;Node12</title>
<path fill="none" stroke="midnightblue" d="M384.23,-236.14C374.15,-234.65 363.98,-233.15 354.09,-231.69"/>
<polygon fill="midnightblue" stroke="midnightblue" points="383.86,-239.62 394.27,-237.62 384.88,-232.7 383.86,-239.62"/>
</g>
</g>
</svg>
