<?xml version="1.0" encoding="UTF-8" standalone="no"?>
<!DOCTYPE svg PUBLIC "-//W3C//DTD SVG 1.1//EN"
 "http://www.w3.org/Graphics/SVG/1.1/DTD/svg11.dtd">
<!-- Generated by graphviz version 2.43.0 (0)
 -->
<!-- Title: QuantConnect.Securities.Option.OptionSymbol.IsStandard Pages: 1 -->
<!--zoomable 270 -->
<svg id="main" version="1.1" xmlns="http://www.w3.org/2000/svg" xmlns:xlink="http://www.w3.org/1999/xlink" xml:space="preserve" onload="init(evt)">
<style type="text/css"><![CDATA[
.edge:hover path { stroke: red; }
.edge:hover polygon { stroke: red; fill: red; }
]]></style>
<script type="text/javascript"><![CDATA[
var edges = document.getElementsByTagName('g');
if (edges && edges.length) {
  for (var i=0;i<edges.length;i++) {
    if (edges[i].id.substr(0,4)=='edge') {
      edges[i].setAttribute('class','edge');
    }
  }
}
]]></script>
        <defs>
                <circle id="rim" cx="0" cy="0" r="7"/>
                <circle id="rim2" cx="0" cy="0" r="3.5"/>
                <g id="zoomPlus">
                        <use xlink:href="#rim" fill="#404040">
                                <set attributeName="fill" to="#808080" begin="zoomplus.mouseover" end="zoomplus.mouseout"/>
                        </use>
                        <path d="M-4,0h8M0,-4v8" fill="none" stroke="white" stroke-width="1.5" pointer-events="none"/>
                </g>
                <g id="zoomMin">
                        <use xlink:href="#rim" fill="#404040">
                                <set attributeName="fill" to="#808080" begin="zoomminus.mouseover" end="zoomminus.mouseout"/>
                        </use>
                        <path d="M-4,0h8" fill="none" stroke="white" stroke-width="1.5" pointer-events="none"/>
                </g>
                <g id="dirArrow">
                        <path fill="none" stroke="white" stroke-width="1.5" d="M0,-3.0v7 M-2.5,-0.5L0,-3.0L2.5,-0.5"/>
                </g>
               <g id="resetDef">
                       <use xlink:href="#rim2" fill="#404040">
                               <set attributeName="fill" to="#808080" begin="reset.mouseover" end="reset.mouseout"/>
                       </use>
               </g>
        </defs>

<script type="text/javascript">
var viewWidth = 596;
var viewHeight = 270;
var sectionId = 'dynsection-1';
</script>
<script xlink:href="svgpan.js"/>
<svg id="graph" class="graph">
<g id="viewport">
<title>QuantConnect.Securities.Option.OptionSymbol.IsStandard</title>
<polygon fill="white" stroke="transparent" points="-4,4 -4,-265.5 592,-265.5 592,4 -4,4"/>
<!-- Node1 -->
<g id="node1" class="node">
<title>Node1</title>
<g id="a_node1"><a xlink:title="Returns true if the option is a standard contract that expires 3rd Friday of the month">
<polygon fill="#bfbfbf" stroke="black" points="412,-110.5 412,-140.5 588,-140.5 588,-110.5 412,-110.5"/>
<text text-anchor="start" x="420" y="-128.5" font-family="Helvetica,sans-Serif" font-size="10.00">QuantConnect.Securities.</text>
<text text-anchor="middle" x="500" y="-117.5" font-family="Helvetica,sans-Serif" font-size="10.00">Option.OptionSymbol.IsStandard</text>
</a>
</g>
</g>
<!-- Node2 -->
<g id="node2" class="node">
<title>Node2</title>
<g id="a_node2"><a xlink:href="classQuantConnect_1_1Securities_1_1Option_1_1OptionSymbol.html#a75217e30f16bc69188675c474bb703b0" target="_top" xlink:title="Returns the last trading date for the option contract">
<polygon fill="white" stroke="black" points="188,-220 188,-261 369,-261 369,-220 188,-220"/>
<text text-anchor="start" x="196" y="-249" font-family="Helvetica,sans-Serif" font-size="10.00">QuantConnect.Securities.</text>
<text text-anchor="start" x="196" y="-238" font-family="Helvetica,sans-Serif" font-size="10.00">Option.OptionSymbol.GetLastDay</text>
<text text-anchor="middle" x="278.5" y="-227" font-family="Helvetica,sans-Serif" font-size="10.00">OfTrading</text>
</a>
</g>
</g>
<!-- Node1&#45;&gt;Node2 -->
<g id="edge1" class="edge">
<title>Node1&#45;&gt;Node2</title>
<path fill="none" stroke="midnightblue" d="M473.03,-146.95C449.08,-165.85 411.91,-193.02 376,-210.5 368.9,-213.96 361.32,-217.12 353.64,-220"/>
<polygon fill="midnightblue" stroke="midnightblue" points="475.3,-149.61 480.93,-140.64 470.93,-144.15 475.3,-149.61"/>
</g>
<!-- Node4 -->
<g id="node4" class="node">
<title>Node4</title>
<g id="a_node4"><a xlink:href="classQuantConnect_1_1Securities_1_1Option_1_1OptionSymbol.html#ade0fec32933ccfe29a37c3cfda2563fe" target="_top" xlink:title="Returns the settlement date time of the option contract.">
<polygon fill="white" stroke="black" points="181,-160 181,-201 376,-201 376,-160 181,-160"/>
<text text-anchor="start" x="189" y="-189" font-family="Helvetica,sans-Serif" font-size="10.00">QuantConnect.Securities.</text>
<text text-anchor="start" x="189" y="-178" font-family="Helvetica,sans-Serif" font-size="10.00">Option.OptionSymbol.GetSettlement</text>
<text text-anchor="middle" x="278.5" y="-167" font-family="Helvetica,sans-Serif" font-size="10.00">DateTime</text>
</a>
</g>
</g>
<!-- Node1&#45;&gt;Node4 -->
<g id="edge3" class="edge">
<title>Node1&#45;&gt;Node4</title>
<path fill="none" stroke="midnightblue" d="M429.32,-142.96C407.8,-148.35 383.9,-154.34 361.62,-159.92"/>
<polygon fill="midnightblue" stroke="midnightblue" points="430.17,-146.35 439.02,-140.53 428.47,-139.56 430.17,-146.35"/>
</g>
<!-- Node5 -->
<g id="node5" class="node">
<title>Node5</title>
<g id="a_node5"><a xlink:href="classQuantConnect_1_1Securities_1_1OptionFilterUniverse.html#a954c7f72326b4a248dd5a8be194cc971" target="_top" xlink:title="Determine if the given Option contract symbol is standard">
<polygon fill="white" stroke="black" points="192.5,-110.5 192.5,-140.5 364.5,-140.5 364.5,-110.5 192.5,-110.5"/>
<text text-anchor="start" x="200.5" y="-128.5" font-family="Helvetica,sans-Serif" font-size="10.00">QuantConnect.Securities.</text>
<text text-anchor="middle" x="278.5" y="-117.5" font-family="Helvetica,sans-Serif" font-size="10.00">OptionFilterUniverse.IsStandard</text>
</a>
</g>
</g>
<!-- Node1&#45;&gt;Node5 -->
<g id="edge4" class="edge">
<title>Node1&#45;&gt;Node5</title>
<path fill="none" stroke="midnightblue" d="M401.64,-125.5C389.32,-125.5 376.78,-125.5 364.67,-125.5"/>
<polygon fill="midnightblue" stroke="midnightblue" points="401.93,-129 411.93,-125.5 401.93,-122 401.93,-129"/>
</g>
<!-- Node6 -->
<g id="node6" class="node">
<title>Node6</title>
<g id="a_node6"><a xlink:href="classQuantConnect_1_1Securities_1_1Option_1_1OptionSymbol.html#a111001806cbc9bd5c096d716de9cc622" target="_top" xlink:title="Returns true if the option is a standard contract that expires 3rd Friday of the month">
<polygon fill="white" stroke="black" points="190.5,-50 190.5,-91 366.5,-91 366.5,-50 190.5,-50"/>
<text text-anchor="start" x="198.5" y="-79" font-family="Helvetica,sans-Serif" font-size="10.00">QuantConnect.Securities.</text>
<text text-anchor="start" x="198.5" y="-68" font-family="Helvetica,sans-Serif" font-size="10.00">Option.OptionSymbol.IsStandard</text>
<text text-anchor="middle" x="278.5" y="-57" font-family="Helvetica,sans-Serif" font-size="10.00">Contract</text>
</a>
</g>
</g>
<!-- Node1&#45;&gt;Node6 -->
<g id="edge5" class="edge">
<title>Node1&#45;&gt;Node6</title>
<path fill="none" stroke="midnightblue" d="M429.32,-108.04C407.8,-102.65 383.9,-96.66 361.62,-91.08"/>
<polygon fill="midnightblue" stroke="midnightblue" points="428.47,-111.44 439.02,-110.47 430.17,-104.65 428.47,-111.44"/>
</g>
<!-- Node7 -->
<g id="node7" class="node">
<title>Node7</title>
<g id="a_node7"><a xlink:href="classQuantConnect_1_1Securities_1_1Option_1_1OptionSymbol.html#a1fb22470f1ace3a13ddf091ec0832fe4" target="_top" xlink:title="Returns true if the option is a weekly contract that expires on Friday , except 3rd Friday of the mon...">
<polygon fill="white" stroke="black" points="194.5,-0.5 194.5,-30.5 362.5,-30.5 362.5,-0.5 194.5,-0.5"/>
<text text-anchor="start" x="202.5" y="-18.5" font-family="Helvetica,sans-Serif" font-size="10.00">QuantConnect.Securities.</text>
<text text-anchor="middle" x="278.5" y="-7.5" font-family="Helvetica,sans-Serif" font-size="10.00">Option.OptionSymbol.IsWeekly</text>
</a>
</g>
</g>
<!-- Node1&#45;&gt;Node7 -->
<g id="edge6" class="edge">
<title>Node1&#45;&gt;Node7</title>
<path fill="none" stroke="midnightblue" d="M473.64,-103.97C449.84,-84.78 412.53,-57.21 376,-40.5 367.66,-36.68 358.64,-33.38 349.57,-30.53"/>
<polygon fill="midnightblue" stroke="midnightblue" points="471.52,-106.76 481.47,-110.38 475.95,-101.34 471.52,-106.76"/>
</g>
<!-- Node3 -->
<g id="node3" class="node">
<title>Node3</title>
<g id="a_node3"><a xlink:href="classQuantConnect_1_1Extensions.html#a0ffdbe5701923c4217f90dd5fbe87641" target="_top" xlink:title="Gets the delisting date for the provided Symbol">
<polygon fill="white" stroke="black" points="0,-225.5 0,-255.5 145,-255.5 145,-225.5 0,-225.5"/>
<text text-anchor="start" x="8" y="-243.5" font-family="Helvetica,sans-Serif" font-size="10.00">QuantConnect.Extensions.</text>
<text text-anchor="middle" x="72.5" y="-232.5" font-family="Helvetica,sans-Serif" font-size="10.00">GetDelistingDate</text>
</a>
</g>
</g>
<!-- Node2&#45;&gt;Node3 -->
<g id="edge2" class="edge">
<title>Node2&#45;&gt;Node3</title>
<path fill="none" stroke="midnightblue" d="M177.69,-240.5C166.74,-240.5 155.75,-240.5 145.24,-240.5"/>
<polygon fill="midnightblue" stroke="midnightblue" points="177.73,-244 187.73,-240.5 177.73,-237 177.73,-244"/>
</g>
</g>
</svg>
        <g id="navigator" transform="translate(0 0)" fill="#404254">
                <rect fill="#f2f5e9" fill-opacity="0.5" stroke="#606060" stroke-width=".5" x="0" y="0" width="60" height="60"/>
                <use id="zoomplus" xlink:href="#zoomPlus" x="17" y="9" onmousedown="handleZoom(evt,'in')"/>
                <use id="zoomminus" xlink:href="#zoomMin" x="42" y="9" onmousedown="handleZoom(evt,'out')"/>
                <use id="reset" xlink:href="#resetDef" x="30" y="36" onmousedown="handleReset()"/>
                <g id="arrowUp" xlink:href="#dirArrow" transform="translate(30 24)" onmousedown="handlePan(0,-1)">
                  <use xlink:href="#rim" fill="#404040">
                        <set attributeName="fill" to="#808080" begin="arrowUp.mouseover" end="arrowUp.mouseout"/>
                  </use>
                  <path fill="none" stroke="white" stroke-width="1.5" d="M0,-3.0v7 M-2.5,-0.5L0,-3.0L2.5,-0.5"/>
                </g>
                <g id="arrowRight" xlink:href="#dirArrow" transform="rotate(90) translate(36 -43)" onmousedown="handlePan(1,0)">
                  <use xlink:href="#rim" fill="#404040">
                        <set attributeName="fill" to="#808080" begin="arrowRight.mouseover" end="arrowRight.mouseout"/>
                  </use>
                  <path fill="none" stroke="white" stroke-width="1.5" d="M0,-3.0v7 M-2.5,-0.5L0,-3.0L2.5,-0.5"/>
                </g>
                <g id="arrowDown" xlink:href="#dirArrow" transform="rotate(180) translate(-30 -48)" onmousedown="handlePan(0,1)">
                  <use xlink:href="#rim" fill="#404040">
                        <set attributeName="fill" to="#808080" begin="arrowDown.mouseover" end="arrowDown.mouseout"/>
                  </use>
                  <path fill="none" stroke="white" stroke-width="1.5" d="M0,-3.0v7 M-2.5,-0.5L0,-3.0L2.5,-0.5"/>
                </g>
                <g id="arrowLeft" xlink:href="#dirArrow" transform="rotate(270) translate(-36 17)" onmousedown="handlePan(-1,0)">
                  <use xlink:href="#rim" fill="#404040">
                        <set attributeName="fill" to="#808080" begin="arrowLeft.mouseover" end="arrowLeft.mouseout"/>
                  </use>
                  <path fill="none" stroke="white" stroke-width="1.5" d="M0,-3.0v7 M-2.5,-0.5L0,-3.0L2.5,-0.5"/>
                </g>
        </g>
        <svg viewBox="0 0 15 15" width="100%" height="30px" preserveAspectRatio="xMaxYMin meet">
         <g id="arrow_out" transform="scale(0.3 0.3)">
          <a xlink:href="classQuantConnect_1_1Securities_1_1Option_1_1OptionSymbol_a67479caa555c9b1c103efabf3e7e038c_icgraph_org.svg" target="_base">
           <rect id="button" ry="5" rx="5" y="6" x="6" height="38" width="38"
                fill="#f2f5e9" fill-opacity="0.5" stroke="#606060" stroke-width="1.0"/>
           <path id="arrow"
             d="M 11.500037,31.436501 C 11.940474,20.09759 22.043105,11.32322 32.158766,21.979434 L 37.068811,17.246167 C 37.068811,17.246167 37.088388,32 37.088388,32 L 22.160133,31.978069 C 22.160133,31.978069 26.997745,27.140456 26.997745,27.140456 C 18.528582,18.264221 13.291696,25.230495 11.500037,31.436501 z"
             style="fill:#404040;"/>
          </a>
         </g>
        </svg>
</svg>
