<?xml version="1.0" encoding="UTF-8" standalone="no"?>
<!DOCTYPE svg PUBLIC "-//W3C//DTD SVG 1.1//EN"
 "http://www.w3.org/Graphics/SVG/1.1/DTD/svg11.dtd">
<!-- Generated by graphviz version 2.43.0 (0)
 -->
<!-- Title: QuantConnect.Python.SecurityInitializerPythonWrapper Pages: 1 -->
<svg width="256pt" height="106pt"
 viewBox="0.00 0.00 255.50 106.00" xmlns="http://www.w3.org/2000/svg" xmlns:xlink="http://www.w3.org/1999/xlink">
<g id="graph0" class="graph" transform="scale(1 1) rotate(0) translate(4 102)">
<title>QuantConnect.Python.SecurityInitializerPythonWrapper</title>
<polygon fill="white" stroke="transparent" points="-4,4 -4,-102 251.5,-102 251.5,4 -4,4"/>
<!-- Node1 -->
<g id="node1" class="node">
<title>Node1</title>
<g id="a_node1"><a xlink:title="Wraps a PyObject object that represents a type capable of initializing a new security">
<polygon fill="#bfbfbf" stroke="black" points="45.5,-0.5 45.5,-30.5 210.5,-30.5 210.5,-0.5 45.5,-0.5"/>
<text text-anchor="start" x="53.5" y="-18.5" font-family="Helvetica,sans-Serif" font-size="10.00">QuantConnect.Python.Security</text>
<text text-anchor="middle" x="128" y="-7.5" font-family="Helvetica,sans-Serif" font-size="10.00">InitializerPythonWrapper</text>
</a>
</g>
</g>
<!-- Node2 -->
<g id="node2" class="node">
<title>Node2</title>
<g id="a_node2"><a xlink:href="classQuantConnect_1_1Python_1_1BasePythonWrapper.html" target="_top" xlink:title=" ">
<polygon fill="white" stroke="black" points="0,-67.5 0,-97.5 124,-97.5 124,-67.5 0,-67.5"/>
<text text-anchor="start" x="8" y="-85.5" font-family="Helvetica,sans-Serif" font-size="10.00">BasePythonWrapper&lt;</text>
<text text-anchor="middle" x="62" y="-74.5" font-family="Helvetica,sans-Serif" font-size="10.00"> ISecurityInitializer &gt;</text>
</a>
</g>
</g>
<!-- Node2&#45;&gt;Node1 -->
<g id="edge1" class="edge">
<title>Node2&#45;&gt;Node1</title>
<path fill="none" stroke="midnightblue" d="M83.51,-60.31C93.41,-50.56 104.89,-39.26 113.71,-30.58"/>
<polygon fill="midnightblue" stroke="midnightblue" points="80.99,-57.89 76.32,-67.4 85.9,-62.87 80.99,-57.89"/>
</g>
<!-- Node3 -->
<g id="node3" class="node">
<title>Node3</title>
<g id="a_node3"><a xlink:href="interfaceQuantConnect_1_1Securities_1_1ISecurityInitializer.html" target="_top" xlink:title="Represents a type capable of initializing a new security">
<polygon fill="white" stroke="black" points="142.5,-73 142.5,-92 247.5,-92 247.5,-73 142.5,-73"/>
<text text-anchor="middle" x="195" y="-80" font-family="Helvetica,sans-Serif" font-size="10.00">ISecurityInitializer</text>
</a>
</g>
</g>
<!-- Node3&#45;&gt;Node1 -->
<g id="edge2" class="edge">
<title>Node3&#45;&gt;Node1</title>
<path fill="none" stroke="midnightblue" d="M178.63,-65.62C167.59,-54.91 153.15,-40.9 142.52,-30.59"/>
<polygon fill="midnightblue" stroke="midnightblue" points="176.35,-68.28 185.96,-72.73 181.22,-63.26 176.35,-68.28"/>
</g>
</g>
</svg>
