<?xml version="1.0" encoding="UTF-8" standalone="no"?>
<!DOCTYPE svg PUBLIC "-//W3C//DTD SVG 1.1//EN"
 "http://www.w3.org/Graphics/SVG/1.1/DTD/svg11.dtd">
<!-- Generated by graphviz version 2.43.0 (0)
 -->
<!-- Title: QuantConnect.Securities.Option.OptionStrategies.ShortIronButterfly Pages: 1 -->
<svg width="552pt" height="50pt"
 viewBox="0.00 0.00 552.00 50.00" xmlns="http://www.w3.org/2000/svg" xmlns:xlink="http://www.w3.org/1999/xlink">
<g id="graph0" class="graph" transform="scale(1 1) rotate(0) translate(4 46)">
<title>QuantConnect.Securities.Option.OptionStrategies.ShortIronButterfly</title>
<polygon fill="white" stroke="transparent" points="-4,4 -4,-46 548,-46 548,4 -4,4"/>
<!-- Node1 -->
<g id="node1" class="node">
<title>Node1</title>
<g id="a_node1"><a xlink:title="Creates a new Short Iron Butterfly strategy which consists of a long ATM call, a long ATM put,...">
<polygon fill="#bfbfbf" stroke="black" points="0,-0.5 0,-41.5 162,-41.5 162,-0.5 0,-0.5"/>
<text text-anchor="start" x="8" y="-29.5" font-family="Helvetica,sans-Serif" font-size="10.00">QuantConnect.Securities.</text>
<text text-anchor="start" x="8" y="-18.5" font-family="Helvetica,sans-Serif" font-size="10.00">Option.OptionStrategies.Short</text>
<text text-anchor="middle" x="81" y="-7.5" font-family="Helvetica,sans-Serif" font-size="10.00">IronButterfly</text>
</a>
</g>
</g>
<!-- Node2 -->
<g id="node2" class="node">
<title>Node2</title>
<g id="a_node2"><a xlink:href="classQuantConnect_1_1Securities_1_1Option_1_1OptionStrategies.html#a4fe41809168469e594bc899cf667e46e" target="_top" xlink:title="Creates a new Iron Butterfly strategy which consists of a short ATM call, a short ATM put,...">
<polygon fill="white" stroke="black" points="198,-0.5 198,-41.5 353,-41.5 353,-0.5 198,-0.5"/>
<text text-anchor="start" x="206" y="-29.5" font-family="Helvetica,sans-Serif" font-size="10.00">QuantConnect.Securities.</text>
<text text-anchor="start" x="206" y="-18.5" font-family="Helvetica,sans-Serif" font-size="10.00">Option.OptionStrategies.Iron</text>
<text text-anchor="middle" x="275.5" y="-7.5" font-family="Helvetica,sans-Serif" font-size="10.00">Butterfly</text>
</a>
</g>
</g>
<!-- Node1&#45;&gt;Node2 -->
<g id="edge1" class="edge">
<title>Node1&#45;&gt;Node2</title>
<path fill="none" stroke="midnightblue" d="M162.24,-21C170.6,-21 179.13,-21 187.56,-21"/>
<polygon fill="midnightblue" stroke="midnightblue" points="187.78,-24.5 197.78,-21 187.78,-17.5 187.78,-24.5"/>
</g>
<!-- Node3 -->
<g id="node3" class="node">
<title>Node3</title>
<g id="a_node3"><a xlink:href="classQuantConnect_1_1Securities_1_1Option_1_1OptionStrategies.html#ac23da9a3ad6e609c0b1fa2960bf9321c" target="_top" xlink:title="Creates a new Iron Condor strategy which consists of a long put, a short put, a short call and a long...">
<polygon fill="white" stroke="black" points="389,-0.5 389,-41.5 544,-41.5 544,-0.5 389,-0.5"/>
<text text-anchor="start" x="397" y="-29.5" font-family="Helvetica,sans-Serif" font-size="10.00">QuantConnect.Securities.</text>
<text text-anchor="start" x="397" y="-18.5" font-family="Helvetica,sans-Serif" font-size="10.00">Option.OptionStrategies.Iron</text>
<text text-anchor="middle" x="466.5" y="-7.5" font-family="Helvetica,sans-Serif" font-size="10.00">Condor</text>
</a>
</g>
</g>
<!-- Node2&#45;&gt;Node3 -->
<g id="edge2" class="edge">
<title>Node2&#45;&gt;Node3</title>
<path fill="none" stroke="midnightblue" d="M353.1,-21C361.56,-21 370.22,-21 378.79,-21"/>
<polygon fill="midnightblue" stroke="midnightblue" points="378.79,-24.5 388.79,-21 378.79,-17.5 378.79,-24.5"/>
</g>
</g>
</svg>
