<?xml version="1.0" encoding="UTF-8" standalone="no"?>
<!DOCTYPE svg PUBLIC "-//W3C//DTD SVG 1.1//EN"
 "http://www.w3.org/Graphics/SVG/1.1/DTD/svg11.dtd">
<!-- Generated by graphviz version 2.43.0 (0)
 -->
<!-- Title: QuantConnect.Securities.SecurityPortfolioManager.LogMarginInformation Pages: 1 -->
<svg width="633pt" height="281pt"
 viewBox="0.00 0.00 633.00 280.50" xmlns="http://www.w3.org/2000/svg" xmlns:xlink="http://www.w3.org/1999/xlink">
<g id="graph0" class="graph" transform="scale(1 1) rotate(0) translate(4 276.5)">
<title>QuantConnect.Securities.SecurityPortfolioManager.LogMarginInformation</title>
<polygon fill="white" stroke="transparent" points="-4,4 -4,-276.5 629,-276.5 629,4 -4,4"/>
<!-- Node1 -->
<g id="node1" class="node">
<title>Node1</title>
<g id="a_node1"><a xlink:title="Logs margin information for debugging">
<polygon fill="#bfbfbf" stroke="black" points="0,-99 0,-140 160,-140 160,-99 0,-99"/>
<text text-anchor="start" x="8" y="-128" font-family="Helvetica,sans-Serif" font-size="10.00">QuantConnect.Securities.</text>
<text text-anchor="start" x="8" y="-117" font-family="Helvetica,sans-Serif" font-size="10.00">SecurityPortfolioManager.Log</text>
<text text-anchor="middle" x="80" y="-106" font-family="Helvetica,sans-Serif" font-size="10.00">MarginInformation</text>
</a>
</g>
</g>
<!-- Node2 -->
<g id="node2" class="node">
<title>Node2</title>
<g id="a_node2"><a xlink:href="classQuantConnect_1_1Securities_1_1Positions_1_1SecurityPositionGroupModel.html#ab38609d426f6ebc69ed07a547e13b933" target="_top" xlink:title="Gets or creates the default position group for the specified security">
<polygon fill="white" stroke="black" points="218.5,-231 218.5,-272 394.5,-272 394.5,-231 218.5,-231"/>
<text text-anchor="start" x="226.5" y="-260" font-family="Helvetica,sans-Serif" font-size="10.00">QuantConnect.Securities.</text>
<text text-anchor="start" x="226.5" y="-249" font-family="Helvetica,sans-Serif" font-size="10.00">Positions.SecurityPositionGroup</text>
<text text-anchor="middle" x="306.5" y="-238" font-family="Helvetica,sans-Serif" font-size="10.00">Model.GetOrCreateDefaultGroup</text>
</a>
</g>
</g>
<!-- Node1&#45;&gt;Node2 -->
<g id="edge1" class="edge">
<title>Node1&#45;&gt;Node2</title>
<path fill="none" stroke="midnightblue" d="M98.83,-140.22C119.81,-163.33 156.81,-200.27 196,-221.5 200.17,-223.76 204.52,-225.86 208.98,-227.81"/>
<polygon fill="midnightblue" stroke="midnightblue" points="207.7,-231.06 218.28,-231.6 210.34,-224.58 207.7,-231.06"/>
</g>
<!-- Node4 -->
<g id="node4" class="node">
<title>Node4</title>
<g id="a_node4"><a xlink:href="interfaceQuantConnect_1_1Securities_1_1Positions_1_1IPositionGroupBuyingPowerModel.html#a9c767ae84e3cee14b9593e38bc1635be" target="_top" xlink:title="Computes the amount of buying power reserved by the provided position group">
<polygon fill="white" stroke="black" points="196,-159.5 196,-211.5 417,-211.5 417,-159.5 196,-159.5"/>
<text text-anchor="start" x="204" y="-199.5" font-family="Helvetica,sans-Serif" font-size="10.00">QuantConnect.Securities.</text>
<text text-anchor="start" x="204" y="-188.5" font-family="Helvetica,sans-Serif" font-size="10.00">Positions.IPositionGroupBuying</text>
<text text-anchor="start" x="204" y="-177.5" font-family="Helvetica,sans-Serif" font-size="10.00">PowerModel.GetReservedBuyingPowerFor</text>
<text text-anchor="middle" x="306.5" y="-166.5" font-family="Helvetica,sans-Serif" font-size="10.00">PositionGroup</text>
</a>
</g>
</g>
<!-- Node1&#45;&gt;Node4 -->
<g id="edge3" class="edge">
<title>Node1&#45;&gt;Node4</title>
<path fill="none" stroke="midnightblue" d="M150.8,-140.02C168.56,-145.24 187.98,-150.95 206.87,-156.51"/>
<polygon fill="midnightblue" stroke="midnightblue" points="206.11,-159.93 216.7,-159.39 208.09,-153.21 206.11,-159.93"/>
</g>
<!-- Node5 -->
<g id="node5" class="node">
<title>Node5</title>
<g id="a_node5"><a xlink:href="classQuantConnect_1_1Messages_1_1SecurityPortfolioManager.html#af8fa8cb531c89c8eb38bb9c366c0ec89" target="_top" xlink:title="Returns a string message saying the order request margin information, this is, the margin used and th...">
<polygon fill="white" stroke="black" points="205,-99 205,-140 408,-140 408,-99 205,-99"/>
<text text-anchor="start" x="213" y="-128" font-family="Helvetica,sans-Serif" font-size="10.00">QuantConnect.Messages.Security</text>
<text text-anchor="start" x="213" y="-117" font-family="Helvetica,sans-Serif" font-size="10.00">PortfolioManager.OrderRequestMargin</text>
<text text-anchor="middle" x="306.5" y="-106" font-family="Helvetica,sans-Serif" font-size="10.00">Information</text>
</a>
</g>
</g>
<!-- Node1&#45;&gt;Node5 -->
<g id="edge4" class="edge">
<title>Node1&#45;&gt;Node5</title>
<path fill="none" stroke="midnightblue" d="M160.15,-119.5C171.28,-119.5 182.89,-119.5 194.48,-119.5"/>
<polygon fill="midnightblue" stroke="midnightblue" points="194.65,-123 204.65,-119.5 194.65,-116 194.65,-123"/>
</g>
<!-- Node6 -->
<g id="node6" class="node">
<title>Node6</title>
<g id="a_node6"><a xlink:href="classQuantConnect_1_1Messages_1_1SecurityPortfolioManager.html#ac2e9147f06aa3e5a1f5cecb0d516f51c" target="_top" xlink:title="Returns a string message saying the total margin information, this is, the total margin used as well ...">
<polygon fill="white" stroke="black" points="198,-49.5 198,-79.5 415,-79.5 415,-49.5 198,-49.5"/>
<text text-anchor="start" x="206" y="-67.5" font-family="Helvetica,sans-Serif" font-size="10.00">QuantConnect.Messages.Security</text>
<text text-anchor="middle" x="306.5" y="-56.5" font-family="Helvetica,sans-Serif" font-size="10.00">PortfolioManager.TotalMarginInformation</text>
</a>
</g>
</g>
<!-- Node1&#45;&gt;Node6 -->
<g id="edge5" class="edge">
<title>Node1&#45;&gt;Node6</title>
<path fill="none" stroke="midnightblue" d="M158.55,-98.92C171.06,-95.7 183.87,-92.47 196,-89.5 206.44,-86.95 217.46,-84.33 228.33,-81.81"/>
<polygon fill="midnightblue" stroke="midnightblue" points="229.29,-85.18 238.25,-79.51 227.72,-78.36 229.29,-85.18"/>
</g>
<!-- Node7 -->
<g id="node7" class="node">
<title>Node7</title>
<g id="a_node7"><a xlink:href="classQuantConnect_1_1Logging_1_1Log.html#a4e55477fbc790846b74550a57198cea9" target="_top" xlink:title="Log trace">
<polygon fill="white" stroke="black" points="231.5,-0.5 231.5,-30.5 381.5,-30.5 381.5,-0.5 231.5,-0.5"/>
<text text-anchor="start" x="239.5" y="-18.5" font-family="Helvetica,sans-Serif" font-size="10.00">QuantConnect.Logging.Log.</text>
<text text-anchor="middle" x="306.5" y="-7.5" font-family="Helvetica,sans-Serif" font-size="10.00">Trace</text>
</a>
</g>
</g>
<!-- Node1&#45;&gt;Node7 -->
<g id="edge6" class="edge">
<title>Node1&#45;&gt;Node7</title>
<path fill="none" stroke="midnightblue" d="M104.87,-98.66C127.03,-80.4 161.68,-54.49 196,-39.5 204.19,-35.92 212.96,-32.86 221.84,-30.24"/>
<polygon fill="midnightblue" stroke="midnightblue" points="222.8,-33.6 231.5,-27.56 220.93,-26.86 222.8,-33.6"/>
</g>
<!-- Node3 -->
<g id="node3" class="node">
<title>Node3</title>
<g id="a_node3"><a xlink:href="classQuantConnect_1_1Securities_1_1Positions_1_1SecurityPositionGroupModel.html#aa11cb32493bfdcda2a5cee4b34c725e6" target="_top" xlink:title="Creates a PositionGroupKey for the security&#39;s default position group">
<polygon fill="white" stroke="black" points="453,-231 453,-272 625,-272 625,-231 453,-231"/>
<text text-anchor="start" x="461" y="-260" font-family="Helvetica,sans-Serif" font-size="10.00">QuantConnect.Securities.</text>
<text text-anchor="start" x="461" y="-249" font-family="Helvetica,sans-Serif" font-size="10.00">Positions.SecurityPositionGroup</text>
<text text-anchor="middle" x="539" y="-238" font-family="Helvetica,sans-Serif" font-size="10.00">Model.CreateDefaultKey</text>
</a>
</g>
</g>
<!-- Node2&#45;&gt;Node3 -->
<g id="edge2" class="edge">
<title>Node2&#45;&gt;Node3</title>
<path fill="none" stroke="midnightblue" d="M394.64,-251.5C410.22,-251.5 426.54,-251.5 442.34,-251.5"/>
<polygon fill="midnightblue" stroke="midnightblue" points="442.64,-255 452.64,-251.5 442.64,-248 442.64,-255"/>
</g>
<!-- Node8 -->
<g id="node8" class="node">
<title>Node8</title>
<g id="a_node8"><a xlink:href="interfaceQuantConnect_1_1Logging_1_1ILogHandler.html#a3fb71a33ac66129240b63f12b6fcda3b" target="_top" xlink:title="Write debug message to log">
<polygon fill="white" stroke="black" points="464,-0.5 464,-30.5 614,-30.5 614,-0.5 464,-0.5"/>
<text text-anchor="start" x="472" y="-18.5" font-family="Helvetica,sans-Serif" font-size="10.00">QuantConnect.Logging.ILog</text>
<text text-anchor="middle" x="539" y="-7.5" font-family="Helvetica,sans-Serif" font-size="10.00">Handler.Trace</text>
</a>
</g>
</g>
<!-- Node7&#45;&gt;Node8 -->
<g id="edge7" class="edge">
<title>Node7&#45;&gt;Node8</title>
<path fill="none" stroke="midnightblue" d="M381.7,-15.5C404.73,-15.5 430.28,-15.5 453.93,-15.5"/>
<polygon fill="midnightblue" stroke="midnightblue" points="453.94,-19 463.94,-15.5 453.94,-12 453.94,-19"/>
</g>
</g>
</svg>
