<?xml version="1.0" encoding="UTF-8" standalone="no"?>
<!DOCTYPE svg PUBLIC "-//W3C//DTD SVG 1.1//EN"
 "http://www.w3.org/Graphics/SVG/1.1/DTD/svg11.dtd">
<!-- Generated by graphviz version 2.43.0 (0)
 -->
<!-- Title: QuantConnect.Algorithm.QCAlgorithm.Order Pages: 1 -->
<svg width="473pt" height="165pt"
 viewBox="0.00 0.00 473.00 165.00" xmlns="http://www.w3.org/2000/svg" xmlns:xlink="http://www.w3.org/1999/xlink">
<g id="graph0" class="graph" transform="scale(1 1) rotate(0) translate(4 161)">
<title>QuantConnect.Algorithm.QCAlgorithm.Order</title>
<polygon fill="white" stroke="transparent" points="-4,4 -4,-161 469,-161 469,4 -4,4"/>
<!-- Node1 -->
<g id="node1" class="node">
<title>Node1</title>
<g id="a_node1"><a xlink:title="Issue an order/trade for asset: Alias wrapper for Order(string, int);">
<polygon fill="#bfbfbf" stroke="black" points="260,-63 260,-93 465,-93 465,-63 260,-63"/>
<text text-anchor="start" x="268" y="-81" font-family="Helvetica,sans-Serif" font-size="10.00">QuantConnect.Algorithm.QCAlgorithm.</text>
<text text-anchor="middle" x="362.5" y="-70" font-family="Helvetica,sans-Serif" font-size="10.00">Order</text>
</a>
</g>
</g>
<!-- Node2 -->
<g id="node2" class="node">
<title>Node2</title>
<g id="a_node2"><a xlink:href="classQuantConnect_1_1Algorithm_1_1QCAlgorithm.html#aa95a656133ec59ac77183930253b93d1" target="_top" xlink:title="Buy Stock (Alias of Order)">
<polygon fill="white" stroke="black" points="0,-137.5 0,-156.5 224,-156.5 224,-137.5 0,-137.5"/>
<text text-anchor="middle" x="112" y="-144.5" font-family="Helvetica,sans-Serif" font-size="10.00">QuantConnect.Algorithm.QCAlgorithm.Buy</text>
</a>
</g>
</g>
<!-- Node1&#45;&gt;Node2 -->
<g id="edge1" class="edge">
<title>Node1&#45;&gt;Node2</title>
<path fill="none" stroke="midnightblue" d="M316.2,-96.8C289.7,-107.21 255.38,-119.68 224,-128 210.02,-131.71 194.84,-134.86 180.33,-137.47"/>
<polygon fill="midnightblue" stroke="midnightblue" points="317.59,-100.01 325.59,-93.07 315,-93.51 317.59,-100.01"/>
</g>
<!-- Node3 -->
<g id="node3" class="node">
<title>Node3</title>
<g id="a_node3"><a xlink:href="classQuantConnect_1_1Algorithm_1_1QCAlgorithm.html#a5904e7c2ffd71a165c6f1afd3f5f68c2" target="_top" xlink:title="Liquidate your portfolio holdings">
<polygon fill="white" stroke="black" points="9.5,-88 9.5,-118 214.5,-118 214.5,-88 9.5,-88"/>
<text text-anchor="start" x="17.5" y="-106" font-family="Helvetica,sans-Serif" font-size="10.00">QuantConnect.Algorithm.QCAlgorithm.</text>
<text text-anchor="middle" x="112" y="-95" font-family="Helvetica,sans-Serif" font-size="10.00">Liquidate</text>
</a>
</g>
</g>
<!-- Node1&#45;&gt;Node3 -->
<g id="edge2" class="edge">
<title>Node1&#45;&gt;Node3</title>
<path fill="none" stroke="midnightblue" d="M249.54,-89.26C237.91,-90.43 226.14,-91.62 214.63,-92.78"/>
<polygon fill="midnightblue" stroke="midnightblue" points="250.11,-92.72 259.71,-88.24 249.41,-85.76 250.11,-92.72"/>
</g>
<!-- Node4 -->
<g id="node4" class="node">
<title>Node4</title>
<g id="a_node4"><a xlink:href="classQuantConnect_1_1Algorithm_1_1QCAlgorithm.html#a465c6ccd8a19bedd5da694714e0c0c8c" target="_top" xlink:title="Obsolete implementation of Order method accepting a OrderType. This was deprecated since it was impos...">
<polygon fill="white" stroke="black" points="9.5,-39 9.5,-69 214.5,-69 214.5,-39 9.5,-39"/>
<text text-anchor="start" x="17.5" y="-57" font-family="Helvetica,sans-Serif" font-size="10.00">QuantConnect.Algorithm.QCAlgorithm.</text>
<text text-anchor="middle" x="112" y="-46" font-family="Helvetica,sans-Serif" font-size="10.00">Order</text>
</a>
</g>
</g>
<!-- Node1&#45;&gt;Node4 -->
<g id="edge3" class="edge">
<title>Node1&#45;&gt;Node4</title>
<path fill="none" stroke="midnightblue" d="M249.54,-67.19C237.91,-66.06 226.14,-64.93 214.63,-63.82"/>
<polygon fill="midnightblue" stroke="midnightblue" points="249.42,-70.69 259.71,-68.17 250.09,-63.72 249.42,-70.69"/>
</g>
<!-- Node5 -->
<g id="node5" class="node">
<title>Node5</title>
<g id="a_node5"><a xlink:href="classQuantConnect_1_1Algorithm_1_1QCAlgorithm.html#ae1ee8100fccbae33a71105588325d3c7" target="_top" xlink:title="Sell stock (alias of Order)">
<polygon fill="white" stroke="black" points="0.5,-0.5 0.5,-19.5 223.5,-19.5 223.5,-0.5 0.5,-0.5"/>
<text text-anchor="middle" x="112" y="-7.5" font-family="Helvetica,sans-Serif" font-size="10.00">QuantConnect.Algorithm.QCAlgorithm.Sell</text>
</a>
</g>
</g>
<!-- Node1&#45;&gt;Node5 -->
<g id="edge4" class="edge">
<title>Node1&#45;&gt;Node5</title>
<path fill="none" stroke="midnightblue" d="M313.8,-59.27C287.61,-49.51 254.36,-37.98 224,-30 208.47,-25.92 191.5,-22.4 175.61,-19.5"/>
<polygon fill="midnightblue" stroke="midnightblue" points="312.89,-62.66 323.48,-62.91 315.35,-56.11 312.89,-62.66"/>
</g>
</g>
</svg>
