<?xml version="1.0" encoding="UTF-8" standalone="no"?>
<!DOCTYPE svg PUBLIC "-//W3C//DTD SVG 1.1//EN"
 "http://www.w3.org/Graphics/SVG/1.1/DTD/svg11.dtd">
<!-- Generated by graphviz version 2.43.0 (0)
 -->
<!-- Title: QuantConnect.Algorithm.QCAlgorithm.RDV Pages: 1 -->
<svg width="1177pt" height="112pt"
 viewBox="0.00 0.00 1177.00 112.00" xmlns="http://www.w3.org/2000/svg" xmlns:xlink="http://www.w3.org/1999/xlink">
<g id="graph0" class="graph" transform="scale(1 1) rotate(0) translate(4 108)">
<title>QuantConnect.Algorithm.QCAlgorithm.RDV</title>
<polygon fill="white" stroke="transparent" points="-4,4 -4,-108 1173,-108 1173,4 -4,4"/>
<!-- Node1 -->
<g id="node1" class="node">
<title>Node1</title>
<g id="a_node1"><a xlink:title="Creates an RelativeDailyVolume indicator for the symbol. The indicator will be automatically updated ...">
<polygon fill="#bfbfbf" stroke="black" points="0,-54 0,-73 226,-73 226,-54 0,-54"/>
<text text-anchor="middle" x="113" y="-61" font-family="Helvetica,sans-Serif" font-size="10.00">QuantConnect.Algorithm.QCAlgorithm.RDV</text>
</a>
</g>
</g>
<!-- Node2 -->
<g id="node2" class="node">
<title>Node2</title>
<g id="a_node2"><a xlink:href="classQuantConnect_1_1Algorithm_1_1QCAlgorithm.html#a46d89a30b7e0513cf7a4ac77f3ca3fe5" target="_top" xlink:title="Creates a new name for an indicator created with the convenience functions (SMA, EMA,...">
<polygon fill="white" stroke="black" points="262,-73.5 262,-103.5 467,-103.5 467,-73.5 262,-73.5"/>
<text text-anchor="start" x="270" y="-91.5" font-family="Helvetica,sans-Serif" font-size="10.00">QuantConnect.Algorithm.QCAlgorithm.</text>
<text text-anchor="middle" x="364.5" y="-80.5" font-family="Helvetica,sans-Serif" font-size="10.00">CreateIndicatorName</text>
</a>
</g>
</g>
<!-- Node1&#45;&gt;Node2 -->
<g id="edge1" class="edge">
<title>Node1&#45;&gt;Node2</title>
<path fill="none" stroke="midnightblue" d="M209.04,-73.02C222.89,-74.41 237.26,-75.85 251.41,-77.27"/>
<polygon fill="midnightblue" stroke="midnightblue" points="251.37,-80.78 261.67,-78.3 252.06,-73.82 251.37,-80.78"/>
</g>
<!-- Node3 -->
<g id="node3" class="node">
<title>Node3</title>
<g id="a_node3"><a xlink:href="classQuantConnect_1_1Algorithm_1_1QCAlgorithm.html#a918f318ce76cdc3ed9efad235ff7481e" target="_top" xlink:title="Creates and registers a new consolidator to receive automatic updates at the specified resolution as ...">
<polygon fill="white" stroke="black" points="262,-24.5 262,-54.5 467,-54.5 467,-24.5 262,-24.5"/>
<text text-anchor="start" x="270" y="-42.5" font-family="Helvetica,sans-Serif" font-size="10.00">QuantConnect.Algorithm.QCAlgorithm.</text>
<text text-anchor="middle" x="364.5" y="-31.5" font-family="Helvetica,sans-Serif" font-size="10.00">RegisterIndicator</text>
</a>
</g>
</g>
<!-- Node1&#45;&gt;Node3 -->
<g id="edge2" class="edge">
<title>Node1&#45;&gt;Node3</title>
<path fill="none" stroke="midnightblue" d="M212.97,-53.98C225.64,-52.76 238.67,-51.51 251.53,-50.27"/>
<polygon fill="midnightblue" stroke="midnightblue" points="252.17,-53.73 261.79,-49.28 251.5,-46.76 252.17,-53.73"/>
</g>
<!-- Node4 -->
<g id="node4" class="node">
<title>Node4</title>
<g id="a_node4"><a xlink:href="classQuantConnect_1_1Algorithm_1_1QCAlgorithm.html#ade17e71e20d320dc9a1efa3ddf8aa3cd" target="_top" xlink:title="Gets the default consolidator for the specified symbol and resolution">
<polygon fill="white" stroke="black" points="503,-24.5 503,-54.5 708,-54.5 708,-24.5 503,-24.5"/>
<text text-anchor="start" x="511" y="-42.5" font-family="Helvetica,sans-Serif" font-size="10.00">QuantConnect.Algorithm.QCAlgorithm.</text>
<text text-anchor="middle" x="605.5" y="-31.5" font-family="Helvetica,sans-Serif" font-size="10.00">ResolveConsolidator</text>
</a>
</g>
</g>
<!-- Node3&#45;&gt;Node4 -->
<g id="edge3" class="edge">
<title>Node3&#45;&gt;Node4</title>
<path fill="none" stroke="midnightblue" d="M467.2,-39.5C475.7,-39.5 484.31,-39.5 492.87,-39.5"/>
<polygon fill="midnightblue" stroke="midnightblue" points="492.89,-43 502.89,-39.5 492.89,-36 492.89,-43"/>
</g>
<!-- Node5 -->
<g id="node5" class="node">
<title>Node5</title>
<g id="a_node5"><a xlink:href="classQuantConnect_1_1Algorithm_1_1QCAlgorithm.html#a656b1f8da059abe31170845a61834a09" target="_top" xlink:title="Creates a new consolidator for the specified period, generating the requested output type.">
<polygon fill="white" stroke="black" points="757,-49.5 757,-79.5 962,-79.5 962,-49.5 757,-49.5"/>
<text text-anchor="start" x="765" y="-67.5" font-family="Helvetica,sans-Serif" font-size="10.00">QuantConnect.Algorithm.QCAlgorithm.</text>
<text text-anchor="middle" x="859.5" y="-56.5" font-family="Helvetica,sans-Serif" font-size="10.00">CreateConsolidator</text>
</a>
</g>
</g>
<!-- Node4&#45;&gt;Node5 -->
<g id="edge4" class="edge">
<title>Node4&#45;&gt;Node5</title>
<path fill="none" stroke="midnightblue" d="M708.27,-49.6C720.88,-50.85 733.83,-52.13 746.58,-53.4"/>
<polygon fill="midnightblue" stroke="midnightblue" points="746.46,-56.9 756.76,-54.41 747.15,-49.94 746.46,-56.9"/>
</g>
<!-- Node6 -->
<g id="node6" class="node">
<title>Node6</title>
<g id="a_node6"><a xlink:href="classQuantConnect_1_1Util_1_1LeanData.html#adf1799b921849e0643385e6794ec2471" target="_top" xlink:title="Get the TickType for common Lean data types. If not a Lean common data type, return a TickType of Tra...">
<polygon fill="white" stroke="black" points="744,-0.5 744,-30.5 975,-30.5 975,-0.5 744,-0.5"/>
<text text-anchor="start" x="752" y="-18.5" font-family="Helvetica,sans-Serif" font-size="10.00">QuantConnect.Util.LeanData.</text>
<text text-anchor="middle" x="859.5" y="-7.5" font-family="Helvetica,sans-Serif" font-size="10.00">GetCommonTickTypeForCommonDataTypes</text>
</a>
</g>
</g>
<!-- Node4&#45;&gt;Node6 -->
<g id="edge5" class="edge">
<title>Node4&#45;&gt;Node6</title>
<path fill="none" stroke="midnightblue" d="M708.27,-29.81C716.72,-29 725.31,-28.18 733.9,-27.37"/>
<polygon fill="midnightblue" stroke="midnightblue" points="734.34,-30.84 743.96,-26.41 733.67,-23.87 734.34,-30.84"/>
</g>
<!-- Node7 -->
<g id="node7" class="node">
<title>Node7</title>
<g id="a_node7"><a xlink:href="classQuantConnect_1_1Util_1_1LeanData.html#a24869ac4b029b3f2d468596baab6d72d" target="_top" xlink:title="Gets the tick type most commonly associated with the specified security type">
<polygon fill="white" stroke="black" points="1011,-0.5 1011,-30.5 1169,-30.5 1169,-0.5 1011,-0.5"/>
<text text-anchor="start" x="1019" y="-18.5" font-family="Helvetica,sans-Serif" font-size="10.00">QuantConnect.Util.LeanData.</text>
<text text-anchor="middle" x="1090" y="-7.5" font-family="Helvetica,sans-Serif" font-size="10.00">GetCommonTickType</text>
</a>
</g>
</g>
<!-- Node6&#45;&gt;Node7 -->
<g id="edge6" class="edge">
<title>Node6&#45;&gt;Node7</title>
<path fill="none" stroke="midnightblue" d="M975.08,-15.5C983.71,-15.5 992.34,-15.5 1000.77,-15.5"/>
<polygon fill="midnightblue" stroke="midnightblue" points="1000.93,-19 1010.93,-15.5 1000.93,-12 1000.93,-19"/>
</g>
</g>
</svg>
