<?xml version="1.0" encoding="UTF-8" standalone="no"?>
<!DOCTYPE svg PUBLIC "-//W3C//DTD SVG 1.1//EN"
 "http://www.w3.org/Graphics/SVG/1.1/DTD/svg11.dtd">
<!-- Generated by graphviz version 2.43.0 (0)
 -->
<!-- Title: QuantConnect.Brokerages.FxcmBrokerageModel.CanUpdateOrder Pages: 1 -->
<svg width="452pt" height="50pt"
 viewBox="0.00 0.00 452.00 50.00" xmlns="http://www.w3.org/2000/svg" xmlns:xlink="http://www.w3.org/1999/xlink">
<g id="graph0" class="graph" transform="scale(1 1) rotate(0) translate(4 46)">
<title>QuantConnect.Brokerages.FxcmBrokerageModel.CanUpdateOrder</title>
<polygon fill="white" stroke="transparent" points="-4,4 -4,-46 448,-46 448,4 -4,4"/>
<!-- Node1 -->
<g id="node1" class="node">
<title>Node1</title>
<g id="a_node1"><a xlink:title="Returns true if the brokerage would allow updating the order as specified by the request">
<polygon fill="#bfbfbf" stroke="black" points="0,-6 0,-36 207,-36 207,-6 0,-6"/>
<text text-anchor="start" x="8" y="-24" font-family="Helvetica,sans-Serif" font-size="10.00">QuantConnect.Brokerages.</text>
<text text-anchor="middle" x="103.5" y="-13" font-family="Helvetica,sans-Serif" font-size="10.00">FxcmBrokerageModel.CanUpdateOrder</text>
</a>
</g>
</g>
<!-- Node2 -->
<g id="node2" class="node">
<title>Node2</title>
<g id="a_node2"><a xlink:href="classQuantConnect_1_1Messages_1_1FxcmBrokerageModel.html#a5bddcb7c8bc8cafcc5976ac845306eda" target="_top" xlink:title="Returns a string message saying the order quantity must be a multiple of LotSize. It also contains th...">
<polygon fill="white" stroke="black" points="243,-0.5 243,-41.5 444,-41.5 444,-0.5 243,-0.5"/>
<text text-anchor="start" x="251" y="-29.5" font-family="Helvetica,sans-Serif" font-size="10.00">QuantConnect.Messages.Fxcm</text>
<text text-anchor="start" x="251" y="-18.5" font-family="Helvetica,sans-Serif" font-size="10.00">BrokerageModel.InvalidOrderQuantity</text>
<text text-anchor="middle" x="343.5" y="-7.5" font-family="Helvetica,sans-Serif" font-size="10.00">ForLotSize</text>
</a>
</g>
</g>
<!-- Node1&#45;&gt;Node2 -->
<g id="edge1" class="edge">
<title>Node1&#45;&gt;Node2</title>
<path fill="none" stroke="midnightblue" d="M207.16,-21C215.57,-21 224.09,-21 232.54,-21"/>
<polygon fill="midnightblue" stroke="midnightblue" points="232.82,-24.5 242.82,-21 232.82,-17.5 232.82,-24.5"/>
</g>
</g>
</svg>
