<?xml version="1.0" encoding="UTF-8" standalone="no"?>
<!DOCTYPE svg PUBLIC "-//W3C//DTD SVG 1.1//EN"
 "http://www.w3.org/Graphics/SVG/1.1/DTD/svg11.dtd">
<!-- Generated by graphviz version 2.43.0 (0)
 -->
<!-- Title: QuantConnect.Orders.OrderJsonConverter.ReadJson Pages: 1 -->
<svg width="1802pt" height="708pt"
 viewBox="0.00 0.00 1802.00 707.59" xmlns="http://www.w3.org/2000/svg" xmlns:xlink="http://www.w3.org/1999/xlink">
<g id="graph0" class="graph" transform="scale(1 1) rotate(0) translate(4 703.59)">
<title>QuantConnect.Orders.OrderJsonConverter.ReadJson</title>
<polygon fill="white" stroke="transparent" points="-4,4 -4,-703.59 1798,-703.59 1798,4 -4,4"/>
<!-- Node1 -->
<g id="node1" class="node">
<title>Node1</title>
<g id="a_node1"><a xlink:title="Reads the JSON representation of the object.">
<polygon fill="#bfbfbf" stroke="black" points="0,-88 0,-118 151,-118 151,-88 0,-88"/>
<text text-anchor="start" x="8" y="-106" font-family="Helvetica,sans-Serif" font-size="10.00">QuantConnect.Orders.Order</text>
<text text-anchor="middle" x="75.5" y="-95" font-family="Helvetica,sans-Serif" font-size="10.00">JsonConverter.ReadJson</text>
</a>
</g>
</g>
<!-- Node2 -->
<g id="node2" class="node">
<title>Node2</title>
<g id="a_node2"><a xlink:href="classQuantConnect_1_1Orders_1_1OrderJsonConverter.html#ae7718abf2cec0c8473eee7cdec4b4b15" target="_top" xlink:title="Create an order from a simple JObject">
<polygon fill="white" stroke="black" points="187,-88 187,-118 393,-118 393,-88 187,-88"/>
<text text-anchor="start" x="195" y="-106" font-family="Helvetica,sans-Serif" font-size="10.00">QuantConnect.Orders.Order</text>
<text text-anchor="middle" x="290" y="-95" font-family="Helvetica,sans-Serif" font-size="10.00">JsonConverter.CreateOrderFromJObject</text>
</a>
</g>
</g>
<!-- Node1&#45;&gt;Node2 -->
<g id="edge1" class="edge">
<title>Node1&#45;&gt;Node2</title>
<path fill="none" stroke="midnightblue" d="M151.12,-103C159.46,-103 168.08,-103 176.76,-103"/>
<polygon fill="midnightblue" stroke="midnightblue" points="176.96,-106.5 186.96,-103 176.96,-99.5 176.96,-106.5"/>
</g>
<!-- Node3 -->
<g id="node3" class="node">
<title>Node3</title>
<g id="a_node3"><a xlink:href="classQuantConnect_1_1Symbol.html#a350b9a625cf7bad95da82894be3cd0a8" target="_top" xlink:title="Provides a convenience method for creating a Symbol for most security types. This method currently do...">
<polygon fill="white" stroke="black" points="437,-418.5 437,-437.5 598,-437.5 598,-418.5 437,-418.5"/>
<text text-anchor="middle" x="517.5" y="-425.5" font-family="Helvetica,sans-Serif" font-size="10.00">QuantConnect.Symbol.Create</text>
</a>
</g>
</g>
<!-- Node2&#45;&gt;Node3 -->
<g id="edge2" class="edge">
<title>Node2&#45;&gt;Node3</title>
<path fill="none" stroke="midnightblue" d="M301.57,-118.24C338.77,-171.85 463.53,-351.66 503.83,-409.74"/>
<polygon fill="midnightblue" stroke="midnightblue" points="501.17,-412.05 509.75,-418.27 506.92,-408.06 501.17,-412.05"/>
</g>
<!-- Node21 -->
<g id="node21" class="node">
<title>Node21</title>
<g id="a_node21"><a xlink:href="classQuantConnect_1_1Securities_1_1SymbolPropertiesDatabase.html#aee26fb588793fd311c44eb8b2909cc33" target="_top" xlink:title="Gets the instance of the SymbolPropertiesDatabase class produced by reading in the symbol properties ...">
<polygon fill="white" stroke="black" points="429,-110.5 429,-151.5 606,-151.5 606,-110.5 429,-110.5"/>
<text text-anchor="start" x="437" y="-139.5" font-family="Helvetica,sans-Serif" font-size="10.00">QuantConnect.Securities.</text>
<text text-anchor="start" x="437" y="-128.5" font-family="Helvetica,sans-Serif" font-size="10.00">SymbolPropertiesDatabase.From</text>
<text text-anchor="middle" x="517.5" y="-117.5" font-family="Helvetica,sans-Serif" font-size="10.00">DataFolder</text>
</a>
</g>
</g>
<!-- Node2&#45;&gt;Node21 -->
<g id="edge22" class="edge">
<title>Node2&#45;&gt;Node21</title>
<path fill="none" stroke="midnightblue" d="M393.19,-115.69C401.64,-116.74 410.17,-117.8 418.59,-118.84"/>
<polygon fill="midnightblue" stroke="midnightblue" points="418.44,-122.35 428.79,-120.11 419.3,-115.4 418.44,-122.35"/>
</g>
<!-- Node25 -->
<g id="node25" class="node">
<title>Node25</title>
<g id="a_node25"><a xlink:href="classQuantConnect_1_1SecurityIdentifier.html#a89ccb2161613f17d18ca3dc1e9eb3872" target="_top" xlink:title="Parses the specified string into a SecurityIdentifier The string must be a 40 digit number....">
<polygon fill="white" stroke="black" points="430.5,-61 430.5,-91 604.5,-91 604.5,-61 430.5,-61"/>
<text text-anchor="start" x="438.5" y="-79" font-family="Helvetica,sans-Serif" font-size="10.00">QuantConnect.SecurityIdentifier.</text>
<text text-anchor="middle" x="517.5" y="-68" font-family="Helvetica,sans-Serif" font-size="10.00">Parse</text>
</a>
</g>
</g>
<!-- Node2&#45;&gt;Node25 -->
<g id="edge26" class="edge">
<title>Node2&#45;&gt;Node25</title>
<path fill="none" stroke="midnightblue" d="M393.19,-90.76C402.17,-89.69 411.23,-88.6 420.16,-87.54"/>
<polygon fill="midnightblue" stroke="midnightblue" points="420.65,-91 430.16,-86.34 419.82,-84.05 420.65,-91"/>
</g>
<!-- Node27 -->
<g id="node27" class="node">
<title>Node27</title>
<g id="a_node27"><a xlink:href="classQuantConnect_1_1Securities_1_1SymbolPropertiesDatabase.html#a5a7baeddd03bfc7fb60cef8ab2e6834b" target="_top" xlink:title="Tries to get the market for the provided symbol/security type">
<polygon fill="white" stroke="black" points="434,-0.5 434,-41.5 601,-41.5 601,-0.5 434,-0.5"/>
<text text-anchor="start" x="442" y="-29.5" font-family="Helvetica,sans-Serif" font-size="10.00">QuantConnect.Securities.</text>
<text text-anchor="start" x="442" y="-18.5" font-family="Helvetica,sans-Serif" font-size="10.00">SymbolPropertiesDatabase.Try</text>
<text text-anchor="middle" x="517.5" y="-7.5" font-family="Helvetica,sans-Serif" font-size="10.00">GetMarket</text>
</a>
</g>
</g>
<!-- Node2&#45;&gt;Node27 -->
<g id="edge28" class="edge">
<title>Node2&#45;&gt;Node27</title>
<path fill="none" stroke="midnightblue" d="M330.14,-87.89C357.71,-77.34 395.51,-63.05 429,-51 434.52,-49.01 440.24,-46.99 446,-44.97"/>
<polygon fill="midnightblue" stroke="midnightblue" points="447.41,-48.18 455.7,-41.58 445.1,-41.57 447.41,-48.18"/>
</g>
<!-- Node4 -->
<g id="node4" class="node">
<title>Node4</title>
<g id="a_node4"><a xlink:href="classQuantConnect_1_1Symbol.html#a7518a1932d1babbff128f2ba9666a78b" target="_top" xlink:title="Provides a convenience method for creating an option Symbol.">
<polygon fill="white" stroke="black" points="656,-624 656,-654 817,-654 817,-624 656,-624"/>
<text text-anchor="start" x="664" y="-642" font-family="Helvetica,sans-Serif" font-size="10.00">QuantConnect.Symbol.Create</text>
<text text-anchor="middle" x="736.5" y="-631" font-family="Helvetica,sans-Serif" font-size="10.00">Option</text>
</a>
</g>
</g>
<!-- Node3&#45;&gt;Node4 -->
<g id="edge3" class="edge">
<title>Node3&#45;&gt;Node4</title>
<path fill="none" stroke="midnightblue" d="M522.29,-437.5C534.69,-467.41 577.07,-560.53 642,-609 647.51,-613.11 653.6,-616.67 659.95,-619.75"/>
<polygon fill="midnightblue" stroke="midnightblue" points="658.85,-623.09 669.41,-623.93 661.68,-616.69 658.85,-623.09"/>
</g>
<!-- Node5 -->
<g id="node5" class="node">
<title>Node5</title>
<g id="a_node5"><a xlink:href="classQuantConnect_1_1SecurityIdentifier.html#a0c21d7880c9fdd260883d11ea0c99a00" target="_top" xlink:title="Helper overload that will search the mapfiles to resolve the first date. This implementation uses the...">
<polygon fill="white" stroke="black" points="870,-657 870,-687 1044,-687 1044,-657 870,-657"/>
<text text-anchor="start" x="878" y="-675" font-family="Helvetica,sans-Serif" font-size="10.00">QuantConnect.SecurityIdentifier.</text>
<text text-anchor="middle" x="957" y="-664" font-family="Helvetica,sans-Serif" font-size="10.00">GenerateEquity</text>
</a>
</g>
</g>
<!-- Node3&#45;&gt;Node5 -->
<g id="edge16" class="edge">
<title>Node3&#45;&gt;Node5</title>
<path fill="none" stroke="midnightblue" d="M520.06,-437.75C526.64,-475.2 555.84,-610.33 642,-664 715.85,-710 819.63,-701.77 887.33,-689.04"/>
<polygon fill="midnightblue" stroke="midnightblue" points="888.33,-692.41 897.46,-687.05 886.98,-685.54 888.33,-692.41"/>
</g>
<!-- Node6 -->
<g id="node6" class="node">
<title>Node6</title>
<g id="a_node6"><a xlink:href="classQuantConnect_1_1Symbol.html#a59158f74116be3dad0ea0f3f3f134416" target="_top" xlink:title="Initializes a new instance of the Symbol class">
<polygon fill="white" stroke="black" points="874.5,-596.5 874.5,-615.5 1039.5,-615.5 1039.5,-596.5 874.5,-596.5"/>
<text text-anchor="middle" x="957" y="-603.5" font-family="Helvetica,sans-Serif" font-size="10.00">QuantConnect.Symbol.Symbol</text>
</a>
</g>
</g>
<!-- Node3&#45;&gt;Node6 -->
<g id="edge21" class="edge">
<title>Node3&#45;&gt;Node6</title>
<path fill="none" stroke="midnightblue" d="M523.2,-437.83C536.97,-465.37 580.13,-543.37 642,-576 679.32,-595.68 785.46,-602.54 864.07,-604.88"/>
<polygon fill="midnightblue" stroke="midnightblue" points="864.39,-608.39 874.48,-605.17 864.58,-601.39 864.39,-608.39"/>
</g>
<!-- Node12 -->
<g id="node12" class="node">
<title>Node12</title>
<g id="a_node12"><a xlink:href="classQuantConnect_1_1SecurityIdentifier.html#a02ca750115844561c001c2346fbafc00" target="_top" xlink:title="Generates a new SecurityIdentifier for a custom security with the option of providing the first date">
<polygon fill="white" stroke="black" points="649.5,-536 649.5,-566 823.5,-566 823.5,-536 649.5,-536"/>
<text text-anchor="start" x="657.5" y="-554" font-family="Helvetica,sans-Serif" font-size="10.00">QuantConnect.SecurityIdentifier.</text>
<text text-anchor="middle" x="736.5" y="-543" font-family="Helvetica,sans-Serif" font-size="10.00">GenerateBase</text>
</a>
</g>
</g>
<!-- Node3&#45;&gt;Node12 -->
<g id="edge11" class="edge">
<title>Node3&#45;&gt;Node12</title>
<path fill="none" stroke="midnightblue" d="M527.73,-437.8C547.02,-457.68 593.82,-502.92 642,-527 645.79,-528.9 649.75,-530.65 653.81,-532.28"/>
<polygon fill="midnightblue" stroke="midnightblue" points="652.81,-535.64 663.4,-535.84 655.24,-529.08 652.81,-535.64"/>
</g>
<!-- Node14 -->
<g id="node14" class="node">
<title>Node14</title>
<g id="a_node14"><a xlink:href="classQuantConnect_1_1SecurityIdentifier.html#a53953b18d814c5445e4ecdcb3b555080" target="_top" xlink:title="Generates a new SecurityIdentifier for a CFD security">
<polygon fill="white" stroke="black" points="649.5,-487 649.5,-517 823.5,-517 823.5,-487 649.5,-487"/>
<text text-anchor="start" x="657.5" y="-505" font-family="Helvetica,sans-Serif" font-size="10.00">QuantConnect.SecurityIdentifier.</text>
<text text-anchor="middle" x="736.5" y="-494" font-family="Helvetica,sans-Serif" font-size="10.00">GenerateCfd</text>
</a>
</g>
</g>
<!-- Node3&#45;&gt;Node14 -->
<g id="edge13" class="edge">
<title>Node3&#45;&gt;Node14</title>
<path fill="none" stroke="midnightblue" d="M539.6,-437.55C563.93,-448.32 605.31,-465.92 642,-478 648.47,-480.13 655.24,-482.19 662.06,-484.14"/>
<polygon fill="midnightblue" stroke="midnightblue" points="661.48,-487.61 672.05,-486.93 663.36,-480.87 661.48,-487.61"/>
</g>
<!-- Node15 -->
<g id="node15" class="node">
<title>Node15</title>
<g id="a_node15"><a xlink:href="classQuantConnect_1_1SecurityIdentifier.html#a5889a95a36ce927dd0a109cbfbcbe663" target="_top" xlink:title="Generates a new SecurityIdentifier for a Crypto pair">
<polygon fill="white" stroke="black" points="649.5,-438 649.5,-468 823.5,-468 823.5,-438 649.5,-438"/>
<text text-anchor="start" x="657.5" y="-456" font-family="Helvetica,sans-Serif" font-size="10.00">QuantConnect.SecurityIdentifier.</text>
<text text-anchor="middle" x="736.5" y="-445" font-family="Helvetica,sans-Serif" font-size="10.00">GenerateCrypto</text>
</a>
</g>
</g>
<!-- Node3&#45;&gt;Node15 -->
<g id="edge14" class="edge">
<title>Node3&#45;&gt;Node15</title>
<path fill="none" stroke="midnightblue" d="M598.07,-437.17C611.5,-438.71 625.57,-440.34 639.37,-441.93"/>
<polygon fill="midnightblue" stroke="midnightblue" points="639.03,-445.41 649.36,-443.08 639.83,-438.45 639.03,-445.41"/>
</g>
<!-- Node16 -->
<g id="node16" class="node">
<title>Node16</title>
<g id="a_node16"><a xlink:href="classQuantConnect_1_1SecurityIdentifier.html#ac665665a16d5449872fed3427b95a260" target="_top" xlink:title="Generates a new SecurityIdentifier for a CryptoFuture pair">
<polygon fill="white" stroke="black" points="649.5,-389 649.5,-419 823.5,-419 823.5,-389 649.5,-389"/>
<text text-anchor="start" x="657.5" y="-407" font-family="Helvetica,sans-Serif" font-size="10.00">QuantConnect.SecurityIdentifier.</text>
<text text-anchor="middle" x="736.5" y="-396" font-family="Helvetica,sans-Serif" font-size="10.00">GenerateCryptoFuture</text>
</a>
</g>
</g>
<!-- Node3&#45;&gt;Node16 -->
<g id="edge15" class="edge">
<title>Node3&#45;&gt;Node16</title>
<path fill="none" stroke="midnightblue" d="M598.07,-419.2C611.5,-417.71 625.57,-416.16 639.37,-414.63"/>
<polygon fill="midnightblue" stroke="midnightblue" points="639.81,-418.11 649.36,-413.53 639.04,-411.15 639.81,-418.11"/>
</g>
<!-- Node17 -->
<g id="node17" class="node">
<title>Node17</title>
<g id="a_node17"><a xlink:href="classQuantConnect_1_1SecurityIdentifier.html#a9cf0d3b208a5171e6112516ce441f18d" target="_top" xlink:title="Generates a new SecurityIdentifier for a forex pair">
<polygon fill="white" stroke="black" points="649.5,-340 649.5,-370 823.5,-370 823.5,-340 649.5,-340"/>
<text text-anchor="start" x="657.5" y="-358" font-family="Helvetica,sans-Serif" font-size="10.00">QuantConnect.SecurityIdentifier.</text>
<text text-anchor="middle" x="736.5" y="-347" font-family="Helvetica,sans-Serif" font-size="10.00">GenerateForex</text>
</a>
</g>
</g>
<!-- Node3&#45;&gt;Node17 -->
<g id="edge17" class="edge">
<title>Node3&#45;&gt;Node17</title>
<path fill="none" stroke="midnightblue" d="M540.99,-418.4C565.54,-408.13 606.14,-391.72 642,-380 649.61,-377.51 657.62,-375.09 665.63,-372.78"/>
<polygon fill="midnightblue" stroke="midnightblue" points="666.68,-376.12 675.36,-370.04 664.78,-369.38 666.68,-376.12"/>
</g>
<!-- Node18 -->
<g id="node18" class="node">
<title>Node18</title>
<g id="a_node18"><a xlink:href="classQuantConnect_1_1SecurityIdentifier.html#ad50a891c97cb0c084a9e2aa43607ed66" target="_top" xlink:title="Generates a new SecurityIdentifier for a future">
<polygon fill="white" stroke="black" points="649.5,-291 649.5,-321 823.5,-321 823.5,-291 649.5,-291"/>
<text text-anchor="start" x="657.5" y="-309" font-family="Helvetica,sans-Serif" font-size="10.00">QuantConnect.SecurityIdentifier.</text>
<text text-anchor="middle" x="736.5" y="-298" font-family="Helvetica,sans-Serif" font-size="10.00">GenerateFuture</text>
</a>
</g>
</g>
<!-- Node3&#45;&gt;Node18 -->
<g id="edge18" class="edge">
<title>Node3&#45;&gt;Node18</title>
<path fill="none" stroke="midnightblue" d="M527.8,-418.45C547.2,-399.06 594.2,-354.89 642,-331 646.67,-328.67 651.59,-326.53 656.62,-324.58"/>
<polygon fill="midnightblue" stroke="midnightblue" points="658.18,-327.73 666.4,-321.05 655.81,-321.15 658.18,-327.73"/>
</g>
<!-- Node19 -->
<g id="node19" class="node">
<title>Node19</title>
<g id="a_node19"><a xlink:href="classQuantConnect_1_1SecurityIdentifier.html#ade05a8e57b041ab484cf585be8d05699" target="_top" xlink:title="Generates a new SecurityIdentifier for a INDEX security">
<polygon fill="white" stroke="black" points="649.5,-242 649.5,-272 823.5,-272 823.5,-242 649.5,-242"/>
<text text-anchor="start" x="657.5" y="-260" font-family="Helvetica,sans-Serif" font-size="10.00">QuantConnect.SecurityIdentifier.</text>
<text text-anchor="middle" x="736.5" y="-249" font-family="Helvetica,sans-Serif" font-size="10.00">GenerateIndex</text>
</a>
</g>
</g>
<!-- Node3&#45;&gt;Node19 -->
<g id="edge19" class="edge">
<title>Node3&#45;&gt;Node19</title>
<path fill="none" stroke="midnightblue" d="M523.75,-418.43C538.6,-392.25 583.68,-318.97 642,-282 645.34,-279.88 648.85,-277.95 652.48,-276.17"/>
<polygon fill="midnightblue" stroke="midnightblue" points="653.98,-279.34 661.7,-272.09 651.14,-272.94 653.98,-279.34"/>
</g>
<!-- Node20 -->
<g id="node20" class="node">
<title>Node20</title>
<g id="a_node20"><a xlink:href="classQuantConnect_1_1Messages_1_1Symbol.html#ab801bef52a308b8ba7ba6d42e1ef1988" target="_top" xlink:title="Returns a string message saying the given security type has not been implemented yet">
<polygon fill="white" stroke="black" points="646.5,-193 646.5,-223 826.5,-223 826.5,-193 646.5,-193"/>
<text text-anchor="start" x="654.5" y="-211" font-family="Helvetica,sans-Serif" font-size="10.00">QuantConnect.Messages.Symbol.</text>
<text text-anchor="middle" x="736.5" y="-200" font-family="Helvetica,sans-Serif" font-size="10.00">SecurityTypeNotImplementedYet</text>
</a>
</g>
</g>
<!-- Node3&#45;&gt;Node20 -->
<g id="edge20" class="edge">
<title>Node3&#45;&gt;Node20</title>
<path fill="none" stroke="midnightblue" d="M521.8,-418.08C533.02,-385.93 572.9,-283.78 642,-233 644.64,-231.06 647.42,-229.27 650.31,-227.62"/>
<polygon fill="midnightblue" stroke="midnightblue" points="651.91,-230.73 659.23,-223.07 648.73,-224.49 651.91,-230.73"/>
</g>
<!-- Node4&#45;&gt;Node5 -->
<g id="edge4" class="edge">
<title>Node4&#45;&gt;Node5</title>
<path fill="none" stroke="midnightblue" d="M817,-651.01C830.85,-653.1 845.38,-655.29 859.62,-657.44"/>
<polygon fill="midnightblue" stroke="midnightblue" points="859.51,-660.97 869.92,-659 860.56,-654.05 859.51,-660.97"/>
</g>
<!-- Node4&#45;&gt;Node6 -->
<g id="edge5" class="edge">
<title>Node4&#45;&gt;Node6</title>
<path fill="none" stroke="midnightblue" d="M817,-626.99C838.6,-623.73 861.87,-620.22 883.08,-617.01"/>
<polygon fill="midnightblue" stroke="midnightblue" points="883.62,-620.47 892.99,-615.52 882.58,-613.55 883.62,-620.47"/>
</g>
<!-- Node7 -->
<g id="node7" class="node">
<title>Node7</title>
<g id="a_node7"><a xlink:href="classQuantConnect_1_1Symbol.html#a59b0795fa21f46c306deb5576fa03bb9" target="_top" xlink:title="Centralized helper method to resolve alias for a symbol">
<polygon fill="white" stroke="black" points="1083,-596.5 1083,-615.5 1253,-615.5 1253,-596.5 1083,-596.5"/>
<text text-anchor="middle" x="1168" y="-603.5" font-family="Helvetica,sans-Serif" font-size="10.00">QuantConnect.Symbol.GetAlias</text>
</a>
</g>
</g>
<!-- Node6&#45;&gt;Node7 -->
<g id="edge6" class="edge">
<title>Node6&#45;&gt;Node7</title>
<path fill="none" stroke="midnightblue" d="M1039.7,-606C1050.57,-606 1061.79,-606 1072.85,-606"/>
<polygon fill="midnightblue" stroke="midnightblue" points="1072.94,-609.5 1082.94,-606 1072.94,-602.5 1072.94,-609.5"/>
</g>
<!-- Node8 -->
<g id="node8" class="node">
<title>Node8</title>
<g id="a_node8"><a xlink:href="classQuantConnect_1_1SymbolRepresentation.html#ad43ac907f6c19083821f58f21c6de017" target="_top" xlink:title="Returns future symbol ticker from underlying and expiration date. Function can generate tickers of tw...">
<polygon fill="white" stroke="black" points="1289,-619 1289,-649 1492,-649 1492,-619 1289,-619"/>
<text text-anchor="start" x="1297" y="-637" font-family="Helvetica,sans-Serif" font-size="10.00">QuantConnect.SymbolRepresentation.</text>
<text text-anchor="middle" x="1390.5" y="-626" font-family="Helvetica,sans-Serif" font-size="10.00">GenerateFutureTicker</text>
</a>
</g>
</g>
<!-- Node7&#45;&gt;Node8 -->
<g id="edge7" class="edge">
<title>Node7&#45;&gt;Node8</title>
<path fill="none" stroke="midnightblue" d="M1243.96,-615.52C1255.27,-616.96 1267.14,-618.46 1279.01,-619.97"/>
<polygon fill="midnightblue" stroke="midnightblue" points="1278.62,-623.45 1288.98,-621.24 1279.5,-616.5 1278.62,-623.45"/>
</g>
<!-- Node10 -->
<g id="node10" class="node">
<title>Node10</title>
<g id="a_node10"><a xlink:href="classQuantConnect_1_1SymbolRepresentation.html#ab133044f5cf8c16e700190a2202b215e" target="_top" xlink:title="Returns option symbol ticker in accordance with OSI symbology More information can be found at http:/...">
<polygon fill="white" stroke="black" points="1289,-567 1289,-597 1492,-597 1492,-567 1289,-567"/>
<text text-anchor="start" x="1297" y="-585" font-family="Helvetica,sans-Serif" font-size="10.00">QuantConnect.SymbolRepresentation.</text>
<text text-anchor="middle" x="1390.5" y="-574" font-family="Helvetica,sans-Serif" font-size="10.00">GenerateOptionTickerOSI</text>
</a>
</g>
</g>
<!-- Node7&#45;&gt;Node10 -->
<g id="edge9" class="edge">
<title>Node7&#45;&gt;Node10</title>
<path fill="none" stroke="midnightblue" d="M1253.31,-596.82C1261.69,-595.91 1270.3,-594.97 1278.9,-594.04"/>
<polygon fill="midnightblue" stroke="midnightblue" points="1279.43,-597.5 1288.99,-592.94 1278.67,-590.54 1279.43,-597.5"/>
</g>
<!-- Node9 -->
<g id="node9" class="node">
<title>Node9</title>
<g id="a_node9"><a xlink:href="classQuantConnect_1_1Securities_1_1Future_1_1FuturesExpiryUtilityFunctions.html#a4ccb1e2f2fe40ff09785a74a02f26df1" target="_top" xlink:title="Gets the number of months between the contract month and the expiry date.">
<polygon fill="white" stroke="black" points="1528,-616.5 1528,-657.5 1794,-657.5 1794,-616.5 1528,-616.5"/>
<text text-anchor="start" x="1536" y="-645.5" font-family="Helvetica,sans-Serif" font-size="10.00">QuantConnect.Securities.</text>
<text text-anchor="start" x="1536" y="-634.5" font-family="Helvetica,sans-Serif" font-size="10.00">Future.FuturesExpiryUtilityFunctions.</text>
<text text-anchor="middle" x="1661" y="-623.5" font-family="Helvetica,sans-Serif" font-size="10.00">GetDeltaBetweenContractMonthAndContractExpiry</text>
</a>
</g>
</g>
<!-- Node8&#45;&gt;Node9 -->
<g id="edge8" class="edge">
<title>Node8&#45;&gt;Node9</title>
<path fill="none" stroke="midnightblue" d="M1492.24,-635.13C1500.59,-635.22 1509.11,-635.31 1517.68,-635.41"/>
<polygon fill="midnightblue" stroke="midnightblue" points="1517.72,-638.91 1527.76,-635.52 1517.8,-631.91 1517.72,-638.91"/>
</g>
<!-- Node11 -->
<g id="node11" class="node">
<title>Node11</title>
<g id="a_node11"><a xlink:href="classQuantConnect_1_1Messages_1_1SymbolRepresentation.html#a2c514157d8055cfa271ea3a7ca1ccde7" target="_top" xlink:title="Returns a string message saying an unexpected security type was received by the given method name">
<polygon fill="white" stroke="black" points="1565,-556.5 1565,-597.5 1757,-597.5 1757,-556.5 1565,-556.5"/>
<text text-anchor="start" x="1573" y="-585.5" font-family="Helvetica,sans-Serif" font-size="10.00">QuantConnect.Messages.Symbol</text>
<text text-anchor="start" x="1573" y="-574.5" font-family="Helvetica,sans-Serif" font-size="10.00">Representation.UnexpectedSecurity</text>
<text text-anchor="middle" x="1661" y="-563.5" font-family="Helvetica,sans-Serif" font-size="10.00">TypeForMethod</text>
</a>
</g>
</g>
<!-- Node10&#45;&gt;Node11 -->
<g id="edge10" class="edge">
<title>Node10&#45;&gt;Node11</title>
<path fill="none" stroke="midnightblue" d="M1492.24,-580.12C1512.7,-579.74 1534.27,-579.34 1554.88,-578.96"/>
<polygon fill="midnightblue" stroke="midnightblue" points="1554.98,-582.46 1564.91,-578.77 1554.85,-575.46 1554.98,-582.46"/>
</g>
<!-- Node13 -->
<g id="node13" class="node">
<title>Node13</title>
<g id="a_node13"><a xlink:href="classQuantConnect_1_1SecurityIdentifier.html#a19e1f9da410608020d74ed9e7d283575" target="_top" xlink:title="Generates the Symbol property for QuantConnect.SecurityType.Base security identifiers">
<polygon fill="white" stroke="black" points="870,-536 870,-566 1044,-566 1044,-536 870,-536"/>
<text text-anchor="start" x="878" y="-554" font-family="Helvetica,sans-Serif" font-size="10.00">QuantConnect.SecurityIdentifier.</text>
<text text-anchor="middle" x="957" y="-543" font-family="Helvetica,sans-Serif" font-size="10.00">GenerateBaseSymbol</text>
</a>
</g>
</g>
<!-- Node12&#45;&gt;Node13 -->
<g id="edge12" class="edge">
<title>Node12&#45;&gt;Node13</title>
<path fill="none" stroke="midnightblue" d="M823.54,-551C835.39,-551 847.62,-551 859.64,-551"/>
<polygon fill="midnightblue" stroke="midnightblue" points="859.68,-554.5 869.68,-551 859.68,-547.5 859.68,-554.5"/>
</g>
<!-- Node22 -->
<g id="node22" class="node">
<title>Node22</title>
<g id="a_node22"><a xlink:href="classQuantConnect_1_1Globals.html#ae01b5c94ef475a21ab1a62fe1b04ea5c" target="_top" xlink:title="Helper method that will build a data folder path checking if it exists on the cache folder else will ...">
<polygon fill="white" stroke="black" points="663.5,-144 663.5,-174 809.5,-174 809.5,-144 663.5,-144"/>
<text text-anchor="start" x="671.5" y="-162" font-family="Helvetica,sans-Serif" font-size="10.00">QuantConnect.Globals.Get</text>
<text text-anchor="middle" x="736.5" y="-151" font-family="Helvetica,sans-Serif" font-size="10.00">DataFolderPath</text>
</a>
</g>
</g>
<!-- Node21&#45;&gt;Node22 -->
<g id="edge23" class="edge">
<title>Node21&#45;&gt;Node22</title>
<path fill="none" stroke="midnightblue" d="M606.14,-142.31C621.67,-144.31 637.8,-146.39 653.18,-148.38"/>
<polygon fill="midnightblue" stroke="midnightblue" points="652.8,-151.86 663.17,-149.67 653.7,-144.92 652.8,-151.86"/>
</g>
<!-- Node23 -->
<g id="node23" class="node">
<title>Node23</title>
<g id="a_node23"><a xlink:href="classQuantConnect_1_1Securities_1_1SymbolPropertiesDatabase.html#a1658f93bf0dce7022bb7584e1a95cc7a" target="_top" xlink:title="Initialize a new instance of SymbolPropertiesDatabase using the given file">
<polygon fill="white" stroke="black" points="642,-83.5 642,-124.5 831,-124.5 831,-83.5 642,-83.5"/>
<text text-anchor="start" x="650" y="-112.5" font-family="Helvetica,sans-Serif" font-size="10.00">QuantConnect.Securities.</text>
<text text-anchor="start" x="650" y="-101.5" font-family="Helvetica,sans-Serif" font-size="10.00">SymbolPropertiesDatabase.Symbol</text>
<text text-anchor="middle" x="736.5" y="-90.5" font-family="Helvetica,sans-Serif" font-size="10.00">PropertiesDatabase</text>
</a>
</g>
</g>
<!-- Node21&#45;&gt;Node23 -->
<g id="edge24" class="edge">
<title>Node21&#45;&gt;Node23</title>
<path fill="none" stroke="midnightblue" d="M606.14,-120.1C614.59,-119.04 623.22,-117.97 631.81,-116.9"/>
<polygon fill="midnightblue" stroke="midnightblue" points="632.37,-120.36 641.86,-115.65 631.51,-113.41 632.37,-120.36"/>
</g>
<!-- Node24 -->
<g id="node24" class="node">
<title>Node24</title>
<g id="a_node24"><a xlink:href="classQuantConnect_1_1Messages_1_1SymbolPropertiesDatabase.html#a6abceae517a349a28223bfc2dc9106d7" target="_top" xlink:title="Returns a string saying a duplicated key was found while processing the given file">
<polygon fill="white" stroke="black" points="867,-83.5 867,-124.5 1047,-124.5 1047,-83.5 867,-83.5"/>
<text text-anchor="start" x="875" y="-112.5" font-family="Helvetica,sans-Serif" font-size="10.00">QuantConnect.Messages.Symbol</text>
<text text-anchor="start" x="875" y="-101.5" font-family="Helvetica,sans-Serif" font-size="10.00">PropertiesDatabase.DuplicateKey</text>
<text text-anchor="middle" x="957" y="-90.5" font-family="Helvetica,sans-Serif" font-size="10.00">InFile</text>
</a>
</g>
</g>
<!-- Node23&#45;&gt;Node24 -->
<g id="edge25" class="edge">
<title>Node23&#45;&gt;Node24</title>
<path fill="none" stroke="midnightblue" d="M831.11,-104C839.51,-104 848.04,-104 856.49,-104"/>
<polygon fill="midnightblue" stroke="midnightblue" points="856.74,-107.5 866.74,-104 856.74,-100.5 856.74,-107.5"/>
</g>
<!-- Node26 -->
<g id="node26" class="node">
<title>Node26</title>
<g id="a_node26"><a xlink:href="classQuantConnect_1_1SecurityIdentifier.html#a59bd74be4ec55a0e4631af9e10f65d7c" target="_top" xlink:title="Attempts to parse the specified &#160;as a SecurityIdentifier.">
<polygon fill="white" stroke="black" points="649.5,-34 649.5,-64 823.5,-64 823.5,-34 649.5,-34"/>
<text text-anchor="start" x="657.5" y="-52" font-family="Helvetica,sans-Serif" font-size="10.00">QuantConnect.SecurityIdentifier.</text>
<text text-anchor="middle" x="736.5" y="-41" font-family="Helvetica,sans-Serif" font-size="10.00">TryParse</text>
</a>
</g>
</g>
<!-- Node25&#45;&gt;Node26 -->
<g id="edge27" class="edge">
<title>Node25&#45;&gt;Node26</title>
<path fill="none" stroke="midnightblue" d="M604.58,-65.29C615.92,-63.88 627.62,-62.42 639.12,-60.99"/>
<polygon fill="midnightblue" stroke="midnightblue" points="639.68,-64.45 649.17,-59.74 638.82,-57.5 639.68,-64.45"/>
</g>
</g>
</svg>
