<?xml version="1.0" encoding="UTF-8" standalone="no"?>
<!DOCTYPE svg PUBLIC "-//W3C//DTD SVG 1.1//EN"
 "http://www.w3.org/Graphics/SVG/1.1/DTD/svg11.dtd">
<!-- Generated by graphviz version 2.43.0 (0)
 -->
<!-- Title: QuantConnect.Report.PortfolioLooper.Dispose Pages: 1 -->
<!--zoomable 118 -->
<svg id="main" version="1.1" xmlns="http://www.w3.org/2000/svg" xmlns:xlink="http://www.w3.org/1999/xlink" xml:space="preserve" onload="init(evt)">
<style type="text/css"><![CDATA[
.edge:hover path { stroke: red; }
.edge:hover polygon { stroke: red; fill: red; }
]]></style>
<script type="text/javascript"><![CDATA[
var edges = document.getElementsByTagName('g');
if (edges && edges.length) {
  for (var i=0;i<edges.length;i++) {
    if (edges[i].id.substr(0,4)=='edge') {
      edges[i].setAttribute('class','edge');
    }
  }
}
]]></script>
        <defs>
                <circle id="rim" cx="0" cy="0" r="7"/>
                <circle id="rim2" cx="0" cy="0" r="3.5"/>
                <g id="zoomPlus">
                        <use xlink:href="#rim" fill="#404040">
                                <set attributeName="fill" to="#808080" begin="zoomplus.mouseover" end="zoomplus.mouseout"/>
                        </use>
                        <path d="M-4,0h8M0,-4v8" fill="none" stroke="white" stroke-width="1.5" pointer-events="none"/>
                </g>
                <g id="zoomMin">
                        <use xlink:href="#rim" fill="#404040">
                                <set attributeName="fill" to="#808080" begin="zoomminus.mouseover" end="zoomminus.mouseout"/>
                        </use>
                        <path d="M-4,0h8" fill="none" stroke="white" stroke-width="1.5" pointer-events="none"/>
                </g>
                <g id="dirArrow">
                        <path fill="none" stroke="white" stroke-width="1.5" d="M0,-3.0v7 M-2.5,-0.5L0,-3.0L2.5,-0.5"/>
                </g>
               <g id="resetDef">
                       <use xlink:href="#rim2" fill="#404040">
                               <set attributeName="fill" to="#808080" begin="reset.mouseover" end="reset.mouseout"/>
                       </use>
               </g>
        </defs>

<script type="text/javascript">
var viewWidth = 864;
var viewHeight = 118;
var sectionId = 'dynsection-1';
</script>
<script xlink:href="svgpan.js"/>
<svg id="graph" class="graph">
<g id="viewport">
<title>QuantConnect.Report.PortfolioLooper.Dispose</title>
<polygon fill="white" stroke="transparent" points="-4,4 -4,-114 860,-114 860,4 -4,4"/>
<!-- Node1 -->
<g id="node1" class="node">
<title>Node1</title>
<g id="a_node1"><a xlink:title="Performs application&#45;defined tasks associated with freeing, releasing, or resetting unmanaged resourc...">
<polygon fill="#bfbfbf" stroke="black" points="0,-51.5 0,-81.5 165,-81.5 165,-51.5 0,-51.5"/>
<text text-anchor="start" x="8" y="-69.5" font-family="Helvetica,sans-Serif" font-size="10.00">QuantConnect.Report.Portfolio</text>
<text text-anchor="middle" x="82.5" y="-58.5" font-family="Helvetica,sans-Serif" font-size="10.00">Looper.Dispose</text>
</a>
</g>
</g>
<!-- Node2 -->
<g id="node2" class="node">
<title>Node2</title>
<g id="a_node2"><a xlink:href="interfaceQuantConnect_1_1Lean_1_1Engine_1_1Results_1_1IResultHandler.html#ad1244d1f2278c28a60982dfee20065bc" target="_top" xlink:title="Terminate the result thread and apply any required exit procedures like sending final results.">
<polygon fill="white" stroke="black" points="222,-79.5 222,-109.5 373,-109.5 373,-79.5 222,-79.5"/>
<text text-anchor="start" x="230" y="-97.5" font-family="Helvetica,sans-Serif" font-size="10.00">QuantConnect.Lean.Engine.</text>
<text text-anchor="middle" x="297.5" y="-86.5" font-family="Helvetica,sans-Serif" font-size="10.00">Results.IResultHandler.Exit</text>
</a>
</g>
</g>
<!-- Node1&#45;&gt;Node2 -->
<g id="edge1" class="edge">
<title>Node1&#45;&gt;Node2</title>
<path fill="none" stroke="midnightblue" d="M165.24,-77.25C180.54,-79.26 196.57,-81.36 211.95,-83.39"/>
<polygon fill="midnightblue" stroke="midnightblue" points="211.59,-86.87 221.96,-84.7 212.5,-79.93 211.59,-86.87"/>
</g>
<!-- Node3 -->
<g id="node3" class="node">
<title>Node3</title>
<g id="a_node3"><a xlink:href="classQuantConnect_1_1Lean_1_1Engine_1_1DataFeeds_1_1DataManager.html#acc57c2bcef3f6e091e59f71f1fdd596c" target="_top" xlink:title="Will remove all current Subscription">
<polygon fill="white" stroke="black" points="201,-19 201,-60 394,-60 394,-19 201,-19"/>
<text text-anchor="start" x="209" y="-48" font-family="Helvetica,sans-Serif" font-size="10.00">QuantConnect.Lean.Engine.</text>
<text text-anchor="start" x="209" y="-37" font-family="Helvetica,sans-Serif" font-size="10.00">DataFeeds.DataManager.RemoveAll</text>
<text text-anchor="middle" x="297.5" y="-26" font-family="Helvetica,sans-Serif" font-size="10.00">Subscriptions</text>
</a>
</g>
</g>
<!-- Node1&#45;&gt;Node3 -->
<g id="edge2" class="edge">
<title>Node1&#45;&gt;Node3</title>
<path fill="none" stroke="midnightblue" d="M165.24,-56.14C173.59,-55.08 182.15,-53.99 190.71,-52.91"/>
<polygon fill="midnightblue" stroke="midnightblue" points="191.26,-56.37 200.74,-51.64 190.38,-49.42 191.26,-56.37"/>
</g>
<!-- Node4 -->
<g id="node4" class="node">
<title>Node4</title>
<g id="a_node4"><a xlink:href="classQuantConnect_1_1Logging_1_1Log.html#af0e7955911bc7664b37661b2a303a9e3" target="_top" xlink:title="Log error">
<polygon fill="white" stroke="black" points="475,-49.5 475,-79.5 625,-79.5 625,-49.5 475,-49.5"/>
<text text-anchor="start" x="483" y="-67.5" font-family="Helvetica,sans-Serif" font-size="10.00">QuantConnect.Logging.Log.</text>
<text text-anchor="middle" x="550" y="-56.5" font-family="Helvetica,sans-Serif" font-size="10.00">Error</text>
</a>
</g>
</g>
<!-- Node3&#45;&gt;Node4 -->
<g id="edge3" class="edge">
<title>Node3&#45;&gt;Node4</title>
<path fill="none" stroke="midnightblue" d="M394.28,-49.06C417.39,-51.37 441.93,-53.81 464.49,-56.07"/>
<polygon fill="midnightblue" stroke="midnightblue" points="464.4,-59.57 474.7,-57.08 465.1,-52.61 464.4,-59.57"/>
</g>
<!-- Node6 -->
<g id="node6" class="node">
<title>Node6</title>
<g id="a_node6"><a xlink:href="classQuantConnect_1_1Lean_1_1Engine_1_1DataFeeds_1_1DataManager.html#a86d11e0545c1c3fae6b78dc3db8347ed" target="_top" xlink:title="Removes the Subscription, if it exists">
<polygon fill="white" stroke="black" points="430,-0.5 430,-30.5 670,-30.5 670,-0.5 430,-0.5"/>
<text text-anchor="start" x="438" y="-18.5" font-family="Helvetica,sans-Serif" font-size="10.00">QuantConnect.Lean.Engine.</text>
<text text-anchor="middle" x="550" y="-7.5" font-family="Helvetica,sans-Serif" font-size="10.00">DataFeeds.DataManager.RemoveSubscription</text>
</a>
</g>
</g>
<!-- Node3&#45;&gt;Node6 -->
<g id="edge5" class="edge">
<title>Node3&#45;&gt;Node6</title>
<path fill="none" stroke="midnightblue" d="M394.28,-30.32C402.61,-29.52 411.14,-28.71 419.69,-27.89"/>
<polygon fill="midnightblue" stroke="midnightblue" points="420.1,-31.37 429.73,-26.93 419.44,-24.4 420.1,-31.37"/>
</g>
<!-- Node5 -->
<g id="node5" class="node">
<title>Node5</title>
<g id="a_node5"><a xlink:href="interfaceQuantConnect_1_1Logging_1_1ILogHandler.html#a35373a0c5d76031fa5ccf5dc39e5c25d" target="_top" xlink:title="Write error message to log">
<polygon fill="white" stroke="black" points="706,-49.5 706,-79.5 856,-79.5 856,-49.5 706,-49.5"/>
<text text-anchor="start" x="714" y="-67.5" font-family="Helvetica,sans-Serif" font-size="10.00">QuantConnect.Logging.ILog</text>
<text text-anchor="middle" x="781" y="-56.5" font-family="Helvetica,sans-Serif" font-size="10.00">Handler.Error</text>
</a>
</g>
</g>
<!-- Node4&#45;&gt;Node5 -->
<g id="edge4" class="edge">
<title>Node4&#45;&gt;Node5</title>
<path fill="none" stroke="midnightblue" d="M625.03,-64.5C647.57,-64.5 672.51,-64.5 695.68,-64.5"/>
<polygon fill="midnightblue" stroke="midnightblue" points="695.83,-68 705.83,-64.5 695.83,-61 695.83,-68"/>
</g>
</g>
</svg>
        <g id="navigator" transform="translate(0 0)" fill="#404254">
                <rect fill="#f2f5e9" fill-opacity="0.5" stroke="#606060" stroke-width=".5" x="0" y="0" width="60" height="60"/>
                <use id="zoomplus" xlink:href="#zoomPlus" x="17" y="9" onmousedown="handleZoom(evt,'in')"/>
                <use id="zoomminus" xlink:href="#zoomMin" x="42" y="9" onmousedown="handleZoom(evt,'out')"/>
                <use id="reset" xlink:href="#resetDef" x="30" y="36" onmousedown="handleReset()"/>
                <g id="arrowUp" xlink:href="#dirArrow" transform="translate(30 24)" onmousedown="handlePan(0,-1)">
                  <use xlink:href="#rim" fill="#404040">
                        <set attributeName="fill" to="#808080" begin="arrowUp.mouseover" end="arrowUp.mouseout"/>
                  </use>
                  <path fill="none" stroke="white" stroke-width="1.5" d="M0,-3.0v7 M-2.5,-0.5L0,-3.0L2.5,-0.5"/>
                </g>
                <g id="arrowRight" xlink:href="#dirArrow" transform="rotate(90) translate(36 -43)" onmousedown="handlePan(1,0)">
                  <use xlink:href="#rim" fill="#404040">
                        <set attributeName="fill" to="#808080" begin="arrowRight.mouseover" end="arrowRight.mouseout"/>
                  </use>
                  <path fill="none" stroke="white" stroke-width="1.5" d="M0,-3.0v7 M-2.5,-0.5L0,-3.0L2.5,-0.5"/>
                </g>
                <g id="arrowDown" xlink:href="#dirArrow" transform="rotate(180) translate(-30 -48)" onmousedown="handlePan(0,1)">
                  <use xlink:href="#rim" fill="#404040">
                        <set attributeName="fill" to="#808080" begin="arrowDown.mouseover" end="arrowDown.mouseout"/>
                  </use>
                  <path fill="none" stroke="white" stroke-width="1.5" d="M0,-3.0v7 M-2.5,-0.5L0,-3.0L2.5,-0.5"/>
                </g>
                <g id="arrowLeft" xlink:href="#dirArrow" transform="rotate(270) translate(-36 17)" onmousedown="handlePan(-1,0)">
                  <use xlink:href="#rim" fill="#404040">
                        <set attributeName="fill" to="#808080" begin="arrowLeft.mouseover" end="arrowLeft.mouseout"/>
                  </use>
                  <path fill="none" stroke="white" stroke-width="1.5" d="M0,-3.0v7 M-2.5,-0.5L0,-3.0L2.5,-0.5"/>
                </g>
        </g>
        <svg viewBox="0 0 15 15" width="100%" height="30px" preserveAspectRatio="xMaxYMin meet">
         <g id="arrow_out" transform="scale(0.3 0.3)">
          <a xlink:href="classQuantConnect_1_1Report_1_1PortfolioLooper_a90007a98bf0f9dae1c45a9b99ffe3c34_cgraph_org.svg" target="_base">
           <rect id="button" ry="5" rx="5" y="6" x="6" height="38" width="38"
                fill="#f2f5e9" fill-opacity="0.5" stroke="#606060" stroke-width="1.0"/>
           <path id="arrow"
             d="M 11.500037,31.436501 C 11.940474,20.09759 22.043105,11.32322 32.158766,21.979434 L 37.068811,17.246167 C 37.068811,17.246167 37.088388,32 37.088388,32 L 22.160133,31.978069 C 22.160133,31.978069 26.997745,27.140456 26.997745,27.140456 C 18.528582,18.264221 13.291696,25.230495 11.500037,31.436501 z"
             style="fill:#404040;"/>
          </a>
         </g>
        </svg>
</svg>
