<?xml version="1.0" encoding="UTF-8" standalone="no"?>
<!DOCTYPE svg PUBLIC "-//W3C//DTD SVG 1.1//EN"
 "http://www.w3.org/Graphics/SVG/1.1/DTD/svg11.dtd">
<!-- Generated by graphviz version 2.43.0 (0)
 -->
<!-- Title: QuantConnect.Optimizer.Parameters.OptimizationStepParameter.OptimizationStepParameter Pages: 1 -->
<svg width="464pt" height="50pt"
 viewBox="0.00 0.00 464.00 50.00" xmlns="http://www.w3.org/2000/svg" xmlns:xlink="http://www.w3.org/1999/xlink">
<g id="graph0" class="graph" transform="scale(1 1) rotate(0) translate(4 46)">
<title>QuantConnect.Optimizer.Parameters.OptimizationStepParameter.OptimizationStepParameter</title>
<polygon fill="white" stroke="transparent" points="-4,4 -4,-46 460,-46 460,4 -4,4"/>
<!-- Node1 -->
<g id="node1" class="node">
<title>Node1</title>
<g id="a_node1"><a xlink:title="Create an instance of OptimizationParameter based on configuration">
<polygon fill="#bfbfbf" stroke="black" points="0,-0.5 0,-41.5 217,-41.5 217,-0.5 0,-0.5"/>
<text text-anchor="start" x="8" y="-29.5" font-family="Helvetica,sans-Serif" font-size="10.00">QuantConnect.Optimizer.Parameters.</text>
<text text-anchor="start" x="8" y="-18.5" font-family="Helvetica,sans-Serif" font-size="10.00">OptimizationStepParameter.Optimization</text>
<text text-anchor="middle" x="108.5" y="-7.5" font-family="Helvetica,sans-Serif" font-size="10.00">StepParameter</text>
</a>
</g>
</g>
<!-- Node2 -->
<g id="node2" class="node">
<title>Node2</title>
<g id="a_node2"><a xlink:href="classQuantConnect_1_1Messages_1_1OptimizationStepParameter.html#a7ffcb1f7184fc1f7f749bf2f8e1bf1e3" target="_top" xlink:title="Returns a string message saying the step should be positive value">
<polygon fill="white" stroke="black" points="253,-6 253,-36 456,-36 456,-6 253,-6"/>
<text text-anchor="start" x="261" y="-24" font-family="Helvetica,sans-Serif" font-size="10.00">QuantConnect.Messages.Optimization</text>
<text text-anchor="middle" x="354.5" y="-13" font-family="Helvetica,sans-Serif" font-size="10.00">StepParameter.NonPositiveStepValue</text>
</a>
</g>
</g>
<!-- Node1&#45;&gt;Node2 -->
<g id="edge1" class="edge">
<title>Node1&#45;&gt;Node2</title>
<path fill="none" stroke="midnightblue" d="M217.23,-21C225.67,-21 234.21,-21 242.67,-21"/>
<polygon fill="midnightblue" stroke="midnightblue" points="242.94,-24.5 252.94,-21 242.94,-17.5 242.94,-24.5"/>
</g>
</g>
</svg>
