<?xml version="1.0" encoding="UTF-8" standalone="no"?>
<!DOCTYPE svg PUBLIC "-//W3C//DTD SVG 1.1//EN"
 "http://www.w3.org/Graphics/SVG/1.1/DTD/svg11.dtd">
<!-- Generated by graphviz version 2.43.0 (0)
 -->
<!-- Title: QuantConnect.Orders.Fees.ExanteFeeModel.GetOrderFee Pages: 1 -->
<svg width="380pt" height="39pt"
 viewBox="0.00 0.00 380.00 39.00" xmlns="http://www.w3.org/2000/svg" xmlns:xlink="http://www.w3.org/1999/xlink">
<g id="graph0" class="graph" transform="scale(1 1) rotate(0) translate(4 35)">
<title>QuantConnect.Orders.Fees.ExanteFeeModel.GetOrderFee</title>
<polygon fill="white" stroke="transparent" points="-4,4 -4,-35 376,-35 376,4 -4,4"/>
<!-- Node1 -->
<g id="node1" class="node">
<title>Node1</title>
<g id="a_node1"><a xlink:title="Gets the order fee associated with the specified order.">
<polygon fill="#bfbfbf" stroke="black" points="0,-0.5 0,-30.5 162,-30.5 162,-0.5 0,-0.5"/>
<text text-anchor="start" x="8" y="-18.5" font-family="Helvetica,sans-Serif" font-size="10.00">QuantConnect.Orders.Fees.</text>
<text text-anchor="middle" x="81" y="-7.5" font-family="Helvetica,sans-Serif" font-size="10.00">ExanteFeeModel.GetOrderFee</text>
</a>
</g>
</g>
<!-- Node2 -->
<g id="node2" class="node">
<title>Node2</title>
<g id="a_node2"><a xlink:href="classQuantConnect_1_1Messages_1_1FeeModel.html#a72db7d0812a3cb2351eeb5ee7e9d7dc0" target="_top" xlink:title="Returns a string message saying the type of the given security is unsupported">
<polygon fill="white" stroke="black" points="198,-0.5 198,-30.5 372,-30.5 372,-0.5 198,-0.5"/>
<text text-anchor="start" x="206" y="-18.5" font-family="Helvetica,sans-Serif" font-size="10.00">QuantConnect.Messages.Fee</text>
<text text-anchor="middle" x="285" y="-7.5" font-family="Helvetica,sans-Serif" font-size="10.00">Model.UnsupportedSecurityType</text>
</a>
</g>
</g>
<!-- Node1&#45;&gt;Node2 -->
<g id="edge1" class="edge">
<title>Node1&#45;&gt;Node2</title>
<path fill="none" stroke="midnightblue" d="M162.13,-15.5C170.6,-15.5 179.27,-15.5 187.9,-15.5"/>
<polygon fill="midnightblue" stroke="midnightblue" points="187.99,-19 197.99,-15.5 187.99,-12 187.99,-19"/>
</g>
</g>
</svg>
