<?xml version="1.0" encoding="UTF-8" standalone="no"?>
<!DOCTYPE svg PUBLIC "-//W3C//DTD SVG 1.1//EN"
 "http://www.w3.org/Graphics/SVG/1.1/DTD/svg11.dtd">
<!-- Generated by graphviz version 2.43.0 (0)
 -->
<!-- Title: QuantConnect.Lean.Engine.Results.BacktestingResultHandler.ProcessSynchronousEvents Pages: 1 -->
<svg width="1608pt" height="731pt"
 viewBox="0.00 0.00 1608.00 731.00" xmlns="http://www.w3.org/2000/svg" xmlns:xlink="http://www.w3.org/1999/xlink">
<g id="graph0" class="graph" transform="scale(1 1) rotate(0) translate(4 727)">
<title>QuantConnect.Lean.Engine.Results.BacktestingResultHandler.ProcessSynchronousEvents</title>
<polygon fill="white" stroke="transparent" points="-4,4 -4,-727 1604,-727 1604,4 -4,4"/>
<!-- Node1 -->
<g id="node1" class="node">
<title>Node1</title>
<g id="a_node1"><a xlink:title="Process the synchronous result events, sampling and message reading. This method is triggered from th...">
<polygon fill="#bfbfbf" stroke="black" points="0,-220.5 0,-261.5 185,-261.5 185,-220.5 0,-220.5"/>
<text text-anchor="start" x="8" y="-249.5" font-family="Helvetica,sans-Serif" font-size="10.00">QuantConnect.Lean.Engine.</text>
<text text-anchor="start" x="8" y="-238.5" font-family="Helvetica,sans-Serif" font-size="10.00">Results.BacktestingResultHandler.</text>
<text text-anchor="middle" x="92.5" y="-227.5" font-family="Helvetica,sans-Serif" font-size="10.00">ProcessSynchronousEvents</text>
</a>
</g>
</g>
<!-- Node2 -->
<g id="node2" class="node">
<title>Node2</title>
<g id="a_node2"><a xlink:href="interfaceQuantConnect_1_1Interfaces_1_1IAlgorithm.html#a8b47d80df68d3d77d98f159c3ea65e47" target="_top" xlink:title="Get the chart updates since the last request:">
<polygon fill="white" stroke="black" points="240.5,-431 240.5,-461 395.5,-461 395.5,-431 240.5,-431"/>
<text text-anchor="start" x="248.5" y="-449" font-family="Helvetica,sans-Serif" font-size="10.00">QuantConnect.Interfaces.</text>
<text text-anchor="middle" x="318" y="-438" font-family="Helvetica,sans-Serif" font-size="10.00">IAlgorithm.GetChartUpdates</text>
</a>
</g>
</g>
<!-- Node1&#45;&gt;Node2 -->
<g id="edge1" class="edge">
<title>Node1&#45;&gt;Node2</title>
<path fill="none" stroke="midnightblue" d="M102.21,-261.58C119.25,-299.27 160.67,-379.31 221,-421 224.25,-423.25 227.7,-425.3 231.27,-427.16"/>
<polygon fill="midnightblue" stroke="midnightblue" points="229.84,-430.35 240.38,-431.42 232.8,-424.01 229.84,-430.35"/>
</g>
<!-- Node3 -->
<g id="node3" class="node">
<title>Node3</title>
<g id="a_node3"><a xlink:href="classQuantConnect_1_1Lean_1_1Engine_1_1Results_1_1BacktestProgressMonitor.html#ac0fb8acb39e3ec6823372f912b7e641c" target="_top" xlink:title="Invalidates the processed days count value so it gets recalculated next time it is needed">
<polygon fill="white" stroke="black" points="228,-370.5 228,-411.5 408,-411.5 408,-370.5 228,-370.5"/>
<text text-anchor="start" x="236" y="-399.5" font-family="Helvetica,sans-Serif" font-size="10.00">QuantConnect.Lean.Engine.</text>
<text text-anchor="start" x="236" y="-388.5" font-family="Helvetica,sans-Serif" font-size="10.00">Results.BacktestProgressMonitor.</text>
<text text-anchor="middle" x="318" y="-377.5" font-family="Helvetica,sans-Serif" font-size="10.00">InvalidateProcessedDays</text>
</a>
</g>
</g>
<!-- Node1&#45;&gt;Node3 -->
<g id="edge2" class="edge">
<title>Node1&#45;&gt;Node3</title>
<path fill="none" stroke="midnightblue" d="M110.31,-261.83C132.85,-288.46 175.34,-334.31 221,-361 224.2,-362.87 227.54,-364.64 230.96,-366.31"/>
<polygon fill="midnightblue" stroke="midnightblue" points="229.62,-369.55 240.18,-370.5 232.52,-363.18 229.62,-369.55"/>
</g>
<!-- Node4 -->
<g id="node4" class="node">
<title>Node4</title>
<g id="a_node4"><a xlink:href="classQuantConnect_1_1Lean_1_1Engine_1_1Results_1_1BaseResultsHandler.html#a76a13b0ea569666287a2197758797d7f" target="_top" xlink:title="Processes algorithm logs. Logs of the same type are batched together one per line and are sent out">
<polygon fill="white" stroke="black" points="221,-310.5 221,-351.5 415,-351.5 415,-310.5 221,-310.5"/>
<text text-anchor="start" x="229" y="-339.5" font-family="Helvetica,sans-Serif" font-size="10.00">QuantConnect.Lean.Engine.</text>
<text text-anchor="start" x="229" y="-328.5" font-family="Helvetica,sans-Serif" font-size="10.00">Results.BaseResultsHandler.Process</text>
<text text-anchor="middle" x="318" y="-317.5" font-family="Helvetica,sans-Serif" font-size="10.00">AlgorithmLogs</text>
</a>
</g>
</g>
<!-- Node1&#45;&gt;Node4 -->
<g id="edge3" class="edge">
<title>Node1&#45;&gt;Node4</title>
<path fill="none" stroke="midnightblue" d="M133.65,-261.63C158.45,-273.93 191.14,-289.37 221,-301 226.42,-303.11 232.06,-305.18 237.76,-307.18"/>
<polygon fill="midnightblue" stroke="midnightblue" points="236.8,-310.55 247.39,-310.49 239.07,-303.93 236.8,-310.55"/>
</g>
<!-- Node5 -->
<g id="node5" class="node">
<title>Node5</title>
<g id="a_node5"><a xlink:href="classQuantConnect_1_1Lean_1_1Engine_1_1Results_1_1BacktestingResultHandler.html#ac694b4964d93ee103eaaa77f4bc20de6" target="_top" xlink:title="Set the current runtime statistics of the algorithm. These are banner/title statistics which show at ...">
<polygon fill="white" stroke="black" points="225.5,-250.5 225.5,-291.5 410.5,-291.5 410.5,-250.5 225.5,-250.5"/>
<text text-anchor="start" x="233.5" y="-279.5" font-family="Helvetica,sans-Serif" font-size="10.00">QuantConnect.Lean.Engine.</text>
<text text-anchor="start" x="233.5" y="-268.5" font-family="Helvetica,sans-Serif" font-size="10.00">Results.BacktestingResultHandler.</text>
<text text-anchor="middle" x="318" y="-257.5" font-family="Helvetica,sans-Serif" font-size="10.00">RuntimeStatistic</text>
</a>
</g>
</g>
<!-- Node1&#45;&gt;Node5 -->
<g id="edge4" class="edge">
<title>Node1&#45;&gt;Node5</title>
<path fill="none" stroke="midnightblue" d="M185.05,-253.29C195,-254.62 205.16,-255.99 215.22,-257.34"/>
<polygon fill="midnightblue" stroke="midnightblue" points="214.85,-260.82 225.23,-258.68 215.78,-253.88 214.85,-260.82"/>
</g>
<!-- Node6 -->
<g id="node6" class="node">
<title>Node6</title>
<g id="a_node6"><a xlink:href="classQuantConnect_1_1Lean_1_1Engine_1_1Results_1_1BaseResultsHandler.html#ab78c5551037c1960edcff390a59e62ea" target="_top" xlink:title="Sample the current equity of the strategy directly with time and using the current algorithm equity v...">
<polygon fill="white" stroke="black" points="221.5,-190.5 221.5,-231.5 414.5,-231.5 414.5,-190.5 221.5,-190.5"/>
<text text-anchor="start" x="229.5" y="-219.5" font-family="Helvetica,sans-Serif" font-size="10.00">QuantConnect.Lean.Engine.</text>
<text text-anchor="start" x="229.5" y="-208.5" font-family="Helvetica,sans-Serif" font-size="10.00">Results.BaseResultsHandler.Sample</text>
<text text-anchor="middle" x="318" y="-197.5" font-family="Helvetica,sans-Serif" font-size="10.00">Equity</text>
</a>
</g>
</g>
<!-- Node1&#45;&gt;Node6 -->
<g id="edge5" class="edge">
<title>Node1&#45;&gt;Node6</title>
<path fill="none" stroke="midnightblue" d="M185.05,-228.71C193.63,-227.56 202.37,-226.39 211.07,-225.22"/>
<polygon fill="midnightblue" stroke="midnightblue" points="211.79,-228.65 221.24,-223.85 210.86,-221.72 211.79,-228.65"/>
</g>
<!-- Node23 -->
<g id="node23" class="node">
<title>Node23</title>
<g id="a_node23"><a xlink:href="classQuantConnect_1_1Lean_1_1Engine_1_1Results_1_1BaseResultsHandler.html#a35f8b15d21ab96b77f56996cbbfc95b5" target="_top" xlink:title="Updates the current equity bar with the current equity value from GetPortfolioValue">
<polygon fill="white" stroke="black" points="681,-141.5 681,-182.5 872,-182.5 872,-141.5 681,-141.5"/>
<text text-anchor="start" x="689" y="-170.5" font-family="Helvetica,sans-Serif" font-size="10.00">QuantConnect.Lean.Engine.</text>
<text text-anchor="start" x="689" y="-159.5" font-family="Helvetica,sans-Serif" font-size="10.00">Results.BaseResultsHandler.Update</text>
<text text-anchor="middle" x="776.5" y="-148.5" font-family="Helvetica,sans-Serif" font-size="10.00">AlgorithmEquity</text>
</a>
</g>
</g>
<!-- Node1&#45;&gt;Node23 -->
<g id="edge32" class="edge">
<title>Node1&#45;&gt;Node23</title>
<path fill="none" stroke="midnightblue" d="M127.27,-220.46C152.2,-206.48 187.47,-189.1 221,-181 374.14,-144 557.95,-146.53 670.72,-153.17"/>
<polygon fill="midnightblue" stroke="midnightblue" points="670.54,-156.67 680.74,-153.78 670.97,-149.68 670.54,-156.67"/>
</g>
<!-- Node24 -->
<g id="node24" class="node">
<title>Node24</title>
<g id="a_node24"><a xlink:href="classQuantConnect_1_1Lean_1_1Engine_1_1Results_1_1BacktestingResultHandler.html#ac0973737c200034b15681480db53a1e2" target="_top" xlink:title="Add a range of samples from the users algorithms to the end of our current list.">
<polygon fill="white" stroke="black" points="225.5,-91.5 225.5,-132.5 410.5,-132.5 410.5,-91.5 225.5,-91.5"/>
<text text-anchor="start" x="233.5" y="-120.5" font-family="Helvetica,sans-Serif" font-size="10.00">QuantConnect.Lean.Engine.</text>
<text text-anchor="start" x="233.5" y="-109.5" font-family="Helvetica,sans-Serif" font-size="10.00">Results.BacktestingResultHandler.</text>
<text text-anchor="middle" x="318" y="-98.5" font-family="Helvetica,sans-Serif" font-size="10.00">SampleRange</text>
</a>
</g>
</g>
<!-- Node1&#45;&gt;Node24 -->
<g id="edge29" class="edge">
<title>Node1&#45;&gt;Node24</title>
<path fill="none" stroke="midnightblue" d="M117.56,-220.35C142.26,-199.93 182.41,-168.8 221,-148 228.68,-143.86 236.95,-139.98 245.29,-136.42"/>
<polygon fill="midnightblue" stroke="midnightblue" points="246.79,-139.58 254.7,-132.54 244.13,-133.11 246.79,-139.58"/>
</g>
<!-- Node27 -->
<g id="node27" class="node">
<title>Node27</title>
<g id="a_node27"><a xlink:href="classQuantConnect_1_1CapacityEstimate.html#a5065e60f7f7b581a6cd01daaaf514290" target="_top" xlink:title="Updates the market capacity for any Symbols that require a market update. Sometimes,...">
<polygon fill="white" stroke="black" points="229,-40 229,-70 407,-70 407,-40 229,-40"/>
<text text-anchor="start" x="237" y="-58" font-family="Helvetica,sans-Serif" font-size="10.00">QuantConnect.CapacityEstimate.</text>
<text text-anchor="middle" x="318" y="-47" font-family="Helvetica,sans-Serif" font-size="10.00">UpdateMarketCapacity</text>
</a>
</g>
</g>
<!-- Node1&#45;&gt;Node27 -->
<g id="edge33" class="edge">
<title>Node1&#45;&gt;Node27</title>
<path fill="none" stroke="midnightblue" d="M104.42,-220.26C123.45,-186.16 165.97,-118.41 221,-82 225.51,-79.01 230.35,-76.36 235.38,-73.99"/>
<polygon fill="midnightblue" stroke="midnightblue" points="236.77,-77.2 244.58,-70.03 234.01,-70.77 236.77,-77.2"/>
</g>
<!-- Node7 -->
<g id="node7" class="node">
<title>Node7</title>
<g id="a_node7"><a xlink:href="classQuantConnect_1_1Lean_1_1Engine_1_1Results_1_1BaseResultsHandler.html#aa2e1ad39cc891714b6d3bb5da14b7afa" target="_top" xlink:title="Samples portfolio equity, benchmark, and daily performance Called by scheduled event every night at m...">
<polygon fill="white" stroke="black" points="451,-327 451,-357 644,-357 644,-327 451,-327"/>
<text text-anchor="start" x="459" y="-345" font-family="Helvetica,sans-Serif" font-size="10.00">QuantConnect.Lean.Engine.</text>
<text text-anchor="middle" x="547.5" y="-334" font-family="Helvetica,sans-Serif" font-size="10.00">Results.BaseResultsHandler.Sample</text>
</a>
</g>
</g>
<!-- Node6&#45;&gt;Node7 -->
<g id="edge6" class="edge">
<title>Node6&#45;&gt;Node7</title>
<path fill="none" stroke="midnightblue" d="M414.07,-231.52C414.38,-231.68 414.69,-231.84 415,-232 459.95,-255.34 505.23,-294.31 529.16,-319.32"/>
<polygon fill="midnightblue" stroke="midnightblue" points="526.8,-321.93 536.15,-326.91 531.95,-317.19 526.8,-321.93"/>
</g>
<!-- Node7&#45;&gt;Node6 -->
<g id="edge17" class="edge">
<title>Node7&#45;&gt;Node6</title>
<path fill="none" stroke="midnightblue" d="M523.53,-326.93C498.57,-306.66 456.64,-271.62 415,-250 403.75,-244.16 391.16,-239.22 378.9,-234.93"/>
<polygon fill="midnightblue" stroke="midnightblue" points="379.76,-231.53 369.16,-231.63 377.51,-238.16 379.76,-231.53"/>
</g>
<!-- Node8 -->
<g id="node8" class="node">
<title>Node8</title>
<g id="a_node8"><a xlink:href="classQuantConnect_1_1Lean_1_1Engine_1_1Results_1_1BaseResultsHandler.html#ab2d5d2dbe6abd63cb480c45e6e046f98" target="_top" xlink:title="Gets the current benchmark value">
<polygon fill="white" stroke="black" points="690,-681.5 690,-722.5 863,-722.5 863,-681.5 690,-681.5"/>
<text text-anchor="start" x="698" y="-710.5" font-family="Helvetica,sans-Serif" font-size="10.00">QuantConnect.Lean.Engine.</text>
<text text-anchor="start" x="698" y="-699.5" font-family="Helvetica,sans-Serif" font-size="10.00">Results.BaseResultsHandler.Get</text>
<text text-anchor="middle" x="776.5" y="-688.5" font-family="Helvetica,sans-Serif" font-size="10.00">BenchmarkValue</text>
</a>
</g>
</g>
<!-- Node7&#45;&gt;Node8 -->
<g id="edge7" class="edge">
<title>Node7&#45;&gt;Node8</title>
<path fill="none" stroke="midnightblue" d="M549.98,-357.02C555.87,-408.75 582.35,-581.39 680,-672 681.31,-673.22 682.68,-674.39 684.08,-675.51"/>
<polygon fill="midnightblue" stroke="midnightblue" points="682.36,-678.58 692.56,-681.43 686.37,-672.84 682.36,-678.58"/>
</g>
<!-- Node9 -->
<g id="node9" class="node">
<title>Node9</title>
<g id="a_node9"><a xlink:href="classQuantConnect_1_1Lean_1_1Engine_1_1Results_1_1BaseResultsHandler.html#ad29219c5dbb0e37b63b329de77e5a912" target="_top" xlink:title="Gets the current portfolio value">
<polygon fill="white" stroke="black" points="690,-621.5 690,-662.5 863,-662.5 863,-621.5 690,-621.5"/>
<text text-anchor="start" x="698" y="-650.5" font-family="Helvetica,sans-Serif" font-size="10.00">QuantConnect.Lean.Engine.</text>
<text text-anchor="start" x="698" y="-639.5" font-family="Helvetica,sans-Serif" font-size="10.00">Results.BaseResultsHandler.Get</text>
<text text-anchor="middle" x="776.5" y="-628.5" font-family="Helvetica,sans-Serif" font-size="10.00">PortfolioValue</text>
</a>
</g>
</g>
<!-- Node7&#45;&gt;Node9 -->
<g id="edge8" class="edge">
<title>Node7&#45;&gt;Node9</title>
<path fill="none" stroke="midnightblue" d="M551.46,-357.12C561.19,-402.69 596.44,-540.04 680,-612 681.53,-613.32 683.12,-614.58 684.76,-615.78"/>
<polygon fill="midnightblue" stroke="midnightblue" points="683.03,-618.84 693.32,-621.36 686.85,-612.97 683.03,-618.84"/>
</g>
<!-- Node10 -->
<g id="node10" class="node">
<title>Node10</title>
<g id="a_node10"><a xlink:href="classQuantConnect_1_1Lean_1_1Engine_1_1Results_1_1BaseResultsHandler.html#a765a5931719ed6121e36b8bed38945cd" target="_top" xlink:title="Sample the current benchmark performance directly with a time&#45;value pair.">
<polygon fill="white" stroke="black" points="680,-561.5 680,-602.5 873,-602.5 873,-561.5 680,-561.5"/>
<text text-anchor="start" x="688" y="-590.5" font-family="Helvetica,sans-Serif" font-size="10.00">QuantConnect.Lean.Engine.</text>
<text text-anchor="start" x="688" y="-579.5" font-family="Helvetica,sans-Serif" font-size="10.00">Results.BaseResultsHandler.Sample</text>
<text text-anchor="middle" x="776.5" y="-568.5" font-family="Helvetica,sans-Serif" font-size="10.00">Benchmark</text>
</a>
</g>
</g>
<!-- Node7&#45;&gt;Node10 -->
<g id="edge9" class="edge">
<title>Node7&#45;&gt;Node10</title>
<path fill="none" stroke="midnightblue" d="M555.55,-357.17C571.22,-394.76 612.94,-491.19 680,-543 687.74,-548.98 696.68,-553.78 705.93,-557.72"/>
<polygon fill="midnightblue" stroke="midnightblue" points="704.67,-560.98 715.26,-561.39 707.23,-554.47 704.67,-560.98"/>
</g>
<!-- Node11 -->
<g id="node11" class="node">
<title>Node11</title>
<g id="a_node11"><a xlink:href="classQuantConnect_1_1Lean_1_1Engine_1_1Results_1_1BaseResultsHandler.html#a59b399ab38b4989196e0e41b001bbf0e" target="_top" xlink:title="Sample estimated strategy capacity">
<polygon fill="white" stroke="black" points="680,-501.5 680,-542.5 873,-542.5 873,-501.5 680,-501.5"/>
<text text-anchor="start" x="688" y="-530.5" font-family="Helvetica,sans-Serif" font-size="10.00">QuantConnect.Lean.Engine.</text>
<text text-anchor="start" x="688" y="-519.5" font-family="Helvetica,sans-Serif" font-size="10.00">Results.BaseResultsHandler.Sample</text>
<text text-anchor="middle" x="776.5" y="-508.5" font-family="Helvetica,sans-Serif" font-size="10.00">Capacity</text>
</a>
</g>
</g>
<!-- Node7&#45;&gt;Node11 -->
<g id="edge11" class="edge">
<title>Node7&#45;&gt;Node11</title>
<path fill="none" stroke="midnightblue" d="M557.7,-357.21C576.74,-387.39 623.43,-455.12 680,-492 682.61,-493.7 685.32,-495.31 688.11,-496.83"/>
<polygon fill="midnightblue" stroke="midnightblue" points="686.73,-500.06 697.23,-501.41 689.86,-493.8 686.73,-500.06"/>
</g>
<!-- Node12 -->
<g id="node12" class="node">
<title>Node12</title>
<g id="a_node12"><a xlink:href="classQuantConnect_1_1Lean_1_1Engine_1_1Results_1_1BaseResultsHandler.html#ad4341aadd09144100f5b12cd22359740" target="_top" xlink:title="Sample drawdown of equity of the strategy">
<polygon fill="white" stroke="black" points="680,-441.5 680,-482.5 873,-482.5 873,-441.5 680,-441.5"/>
<text text-anchor="start" x="688" y="-470.5" font-family="Helvetica,sans-Serif" font-size="10.00">QuantConnect.Lean.Engine.</text>
<text text-anchor="start" x="688" y="-459.5" font-family="Helvetica,sans-Serif" font-size="10.00">Results.BaseResultsHandler.Sample</text>
<text text-anchor="middle" x="776.5" y="-448.5" font-family="Helvetica,sans-Serif" font-size="10.00">Drawdown</text>
</a>
</g>
</g>
<!-- Node7&#45;&gt;Node12 -->
<g id="edge12" class="edge">
<title>Node7&#45;&gt;Node12</title>
<path fill="none" stroke="midnightblue" d="M575.74,-357.22C601.36,-375.22 641.43,-404.26 680,-423 691.83,-428.75 705.02,-433.72 717.72,-438.11"/>
<polygon fill="midnightblue" stroke="midnightblue" points="716.72,-441.46 727.31,-441.35 718.96,-434.83 716.72,-441.46"/>
</g>
<!-- Node16 -->
<g id="node16" class="node">
<title>Node16</title>
<g id="a_node16"><a xlink:href="classQuantConnect_1_1Lean_1_1Engine_1_1Results_1_1BaseResultsHandler.html#a8b37f89b0f4b07e96d11ecf140ef71b3" target="_top" xlink:title="Sample portfolio exposure long/short ratios by security type">
<polygon fill="white" stroke="black" points="680,-381.5 680,-422.5 873,-422.5 873,-381.5 680,-381.5"/>
<text text-anchor="start" x="688" y="-410.5" font-family="Helvetica,sans-Serif" font-size="10.00">QuantConnect.Lean.Engine.</text>
<text text-anchor="start" x="688" y="-399.5" font-family="Helvetica,sans-Serif" font-size="10.00">Results.BaseResultsHandler.Sample</text>
<text text-anchor="middle" x="776.5" y="-388.5" font-family="Helvetica,sans-Serif" font-size="10.00">Exposure</text>
</a>
</g>
</g>
<!-- Node7&#45;&gt;Node16 -->
<g id="edge18" class="edge">
<title>Node7&#45;&gt;Node16</title>
<path fill="none" stroke="midnightblue" d="M605.49,-357.06C630.51,-363.68 660.46,-371.59 688.19,-378.92"/>
<polygon fill="midnightblue" stroke="midnightblue" points="687.34,-382.32 697.9,-381.49 689.12,-375.55 687.34,-382.32"/>
</g>
<!-- Node17 -->
<g id="node17" class="node">
<title>Node17</title>
<g id="a_node17"><a xlink:href="classQuantConnect_1_1Lean_1_1Engine_1_1Results_1_1BaseResultsHandler.html#a467c5ebe0c2b5d4de0741dd6c69c5103" target="_top" xlink:title="Sample the current daily performance directly with a time&#45;value pair.">
<polygon fill="white" stroke="black" points="680,-321.5 680,-362.5 873,-362.5 873,-321.5 680,-321.5"/>
<text text-anchor="start" x="688" y="-350.5" font-family="Helvetica,sans-Serif" font-size="10.00">QuantConnect.Lean.Engine.</text>
<text text-anchor="start" x="688" y="-339.5" font-family="Helvetica,sans-Serif" font-size="10.00">Results.BaseResultsHandler.Sample</text>
<text text-anchor="middle" x="776.5" y="-328.5" font-family="Helvetica,sans-Serif" font-size="10.00">Performance</text>
</a>
</g>
</g>
<!-- Node7&#45;&gt;Node17 -->
<g id="edge19" class="edge">
<title>Node7&#45;&gt;Node17</title>
<path fill="none" stroke="midnightblue" d="M644.11,-335.33C652.65,-335.25 661.32,-335.23 669.93,-335.26"/>
<polygon fill="midnightblue" stroke="midnightblue" points="669.98,-338.76 680,-335.33 670.02,-331.77 669.98,-338.76"/>
</g>
<!-- Node20 -->
<g id="node20" class="node">
<title>Node20</title>
<g id="a_node20"><a xlink:href="classQuantConnect_1_1Lean_1_1Engine_1_1Results_1_1BaseResultsHandler.html#a873939086dd92a0f526d55b3c4781765" target="_top" xlink:title="Sample portfolio turn over of the strategy">
<polygon fill="white" stroke="black" points="680,-261.5 680,-302.5 873,-302.5 873,-261.5 680,-261.5"/>
<text text-anchor="start" x="688" y="-290.5" font-family="Helvetica,sans-Serif" font-size="10.00">QuantConnect.Lean.Engine.</text>
<text text-anchor="start" x="688" y="-279.5" font-family="Helvetica,sans-Serif" font-size="10.00">Results.BaseResultsHandler.Sample</text>
<text text-anchor="middle" x="776.5" y="-268.5" font-family="Helvetica,sans-Serif" font-size="10.00">PortfolioTurnover</text>
</a>
</g>
</g>
<!-- Node7&#45;&gt;Node20 -->
<g id="edge23" class="edge">
<title>Node7&#45;&gt;Node20</title>
<path fill="none" stroke="midnightblue" d="M585.98,-326.93C609.05,-319.67 639.87,-311 669.94,-303.17"/>
<polygon fill="midnightblue" stroke="midnightblue" points="670.86,-306.54 679.67,-300.65 669.11,-299.77 670.86,-306.54"/>
</g>
<!-- Node22 -->
<g id="node22" class="node">
<title>Node22</title>
<g id="a_node22"><a xlink:href="classQuantConnect_1_1Lean_1_1Engine_1_1Results_1_1BaseResultsHandler.html#a1f0c128ff05275d192e04c8941e2b8c2" target="_top" xlink:title="Sample assets sales volume">
<polygon fill="white" stroke="black" points="680,-201.5 680,-242.5 873,-242.5 873,-201.5 680,-201.5"/>
<text text-anchor="start" x="688" y="-230.5" font-family="Helvetica,sans-Serif" font-size="10.00">QuantConnect.Lean.Engine.</text>
<text text-anchor="start" x="688" y="-219.5" font-family="Helvetica,sans-Serif" font-size="10.00">Results.BaseResultsHandler.Sample</text>
<text text-anchor="middle" x="776.5" y="-208.5" font-family="Helvetica,sans-Serif" font-size="10.00">SalesVolume</text>
</a>
</g>
</g>
<!-- Node7&#45;&gt;Node22 -->
<g id="edge26" class="edge">
<title>Node7&#45;&gt;Node22</title>
<path fill="none" stroke="midnightblue" d="M560.44,-326.74C581.28,-306.2 626.35,-270.87 671.84,-247.13"/>
<polygon fill="midnightblue" stroke="midnightblue" points="673.59,-250.17 680.94,-242.55 670.44,-243.92 673.59,-250.17"/>
</g>
<!-- Node7&#45;&gt;Node23 -->
<g id="edge28" class="edge">
<title>Node7&#45;&gt;Node23</title>
<path fill="none" stroke="midnightblue" d="M557.7,-326.79C576.74,-296.61 623.43,-228.88 680,-192 682.61,-190.3 685.32,-188.69 688.11,-187.17"/>
<polygon fill="midnightblue" stroke="midnightblue" points="689.86,-190.2 697.23,-182.59 686.73,-183.94 689.86,-190.2"/>
</g>
<!-- Node10&#45;&gt;Node7 -->
<g id="edge10" class="edge">
<title>Node10&#45;&gt;Node7</title>
<path fill="none" stroke="midnightblue" d="M680.41,-561.32C680.28,-561.21 680.14,-561.11 680,-561 612.89,-509.15 571.16,-412.62 555.52,-366.86"/>
<polygon fill="midnightblue" stroke="midnightblue" points="558.77,-365.56 552.33,-357.14 552.12,-367.73 558.77,-365.56"/>
</g>
<!-- Node12&#45;&gt;Node7 -->
<g id="edge16" class="edge">
<title>Node12&#45;&gt;Node7</title>
<path fill="none" stroke="midnightblue" d="M680.94,-441.45C680.63,-441.3 680.31,-441.15 680,-441 637.11,-420.16 592.37,-386.59 567.71,-364.13"/>
<polygon fill="midnightblue" stroke="midnightblue" points="570.11,-361.58 560.44,-357.26 565.3,-366.67 570.11,-361.58"/>
</g>
<!-- Node13 -->
<g id="node13" class="node">
<title>Node13</title>
<g id="a_node13"><a xlink:href="classQuantConnect_1_1Statistics_1_1Statistics.html#a40ec6432be1b7d5db21e2dfbeff52e7a" target="_top" xlink:title="Drawdown maximum percentage.">
<polygon fill="white" stroke="black" points="934,-447 934,-477 1087,-477 1087,-447 934,-447"/>
<text text-anchor="start" x="942" y="-465" font-family="Helvetica,sans-Serif" font-size="10.00">QuantConnect.Statistics.</text>
<text text-anchor="middle" x="1010.5" y="-454" font-family="Helvetica,sans-Serif" font-size="10.00">Statistics.DrawdownPercent</text>
</a>
</g>
</g>
<!-- Node12&#45;&gt;Node13 -->
<g id="edge13" class="edge">
<title>Node12&#45;&gt;Node13</title>
<path fill="none" stroke="midnightblue" d="M873.2,-462C889.95,-462 907.28,-462 923.73,-462"/>
<polygon fill="midnightblue" stroke="midnightblue" points="923.85,-465.5 933.85,-462 923.85,-458.5 923.85,-465.5"/>
</g>
<!-- Node14 -->
<g id="node14" class="node">
<title>Node14</title>
<g id="a_node14"><a xlink:href="classQuantConnect_1_1Logging_1_1Log.html#af0e7955911bc7664b37661b2a303a9e3" target="_top" xlink:title="Log error">
<polygon fill="white" stroke="black" points="1206,-447 1206,-477 1356,-477 1356,-447 1206,-447"/>
<text text-anchor="start" x="1214" y="-465" font-family="Helvetica,sans-Serif" font-size="10.00">QuantConnect.Logging.Log.</text>
<text text-anchor="middle" x="1281" y="-454" font-family="Helvetica,sans-Serif" font-size="10.00">Error</text>
</a>
</g>
</g>
<!-- Node13&#45;&gt;Node14 -->
<g id="edge14" class="edge">
<title>Node13&#45;&gt;Node14</title>
<path fill="none" stroke="midnightblue" d="M1087.01,-462C1120.89,-462 1160.99,-462 1195.83,-462"/>
<polygon fill="midnightblue" stroke="midnightblue" points="1195.99,-465.5 1205.99,-462 1195.99,-458.5 1195.99,-465.5"/>
</g>
<!-- Node15 -->
<g id="node15" class="node">
<title>Node15</title>
<g id="a_node15"><a xlink:href="interfaceQuantConnect_1_1Logging_1_1ILogHandler.html#a35373a0c5d76031fa5ccf5dc39e5c25d" target="_top" xlink:title="Write error message to log">
<polygon fill="white" stroke="black" points="1450,-447 1450,-477 1600,-477 1600,-447 1450,-447"/>
<text text-anchor="start" x="1458" y="-465" font-family="Helvetica,sans-Serif" font-size="10.00">QuantConnect.Logging.ILog</text>
<text text-anchor="middle" x="1525" y="-454" font-family="Helvetica,sans-Serif" font-size="10.00">Handler.Error</text>
</a>
</g>
</g>
<!-- Node14&#45;&gt;Node15 -->
<g id="edge15" class="edge">
<title>Node14&#45;&gt;Node15</title>
<path fill="none" stroke="midnightblue" d="M1356.25,-462C1382.62,-462 1412.48,-462 1439.63,-462"/>
<polygon fill="midnightblue" stroke="midnightblue" points="1439.89,-465.5 1449.89,-462 1439.89,-458.5 1439.89,-465.5"/>
</g>
<!-- Node17&#45;&gt;Node7 -->
<g id="edge22" class="edge">
<title>Node17&#45;&gt;Node7</title>
<path fill="none" stroke="midnightblue" d="M680,-348.67C671.47,-348.75 662.79,-348.77 654.18,-348.74"/>
<polygon fill="midnightblue" stroke="midnightblue" points="654.13,-345.24 644.11,-348.67 654.09,-352.24 654.13,-345.24"/>
</g>
<!-- Node18 -->
<g id="node18" class="node">
<title>Node18</title>
<g id="a_node18"><a xlink:href="classQuantConnect_1_1Logging_1_1Log.html#ad908daef9d61532d7d60c9dcfb9a3e0c" target="_top" xlink:title="Output to the console">
<polygon fill="white" stroke="black" points="935.5,-327 935.5,-357 1085.5,-357 1085.5,-327 935.5,-327"/>
<text text-anchor="start" x="943.5" y="-345" font-family="Helvetica,sans-Serif" font-size="10.00">QuantConnect.Logging.Log.</text>
<text text-anchor="middle" x="1010.5" y="-334" font-family="Helvetica,sans-Serif" font-size="10.00">Debug</text>
</a>
</g>
</g>
<!-- Node17&#45;&gt;Node18 -->
<g id="edge20" class="edge">
<title>Node17&#45;&gt;Node18</title>
<path fill="none" stroke="midnightblue" d="M873.2,-342C890.36,-342 908.13,-342 924.95,-342"/>
<polygon fill="midnightblue" stroke="midnightblue" points="925.28,-345.5 935.28,-342 925.28,-338.5 925.28,-345.5"/>
</g>
<!-- Node19 -->
<g id="node19" class="node">
<title>Node19</title>
<g id="a_node19"><a xlink:href="interfaceQuantConnect_1_1Logging_1_1ILogHandler.html#a2c738b8e78dd5b54244bc68b969ba91d" target="_top" xlink:title="Write debug message to log">
<polygon fill="white" stroke="black" points="1206,-327 1206,-357 1356,-357 1356,-327 1206,-327"/>
<text text-anchor="start" x="1214" y="-345" font-family="Helvetica,sans-Serif" font-size="10.00">QuantConnect.Logging.ILog</text>
<text text-anchor="middle" x="1281" y="-334" font-family="Helvetica,sans-Serif" font-size="10.00">Handler.Debug</text>
</a>
</g>
</g>
<!-- Node18&#45;&gt;Node19 -->
<g id="edge21" class="edge">
<title>Node18&#45;&gt;Node19</title>
<path fill="none" stroke="midnightblue" d="M1085.58,-342C1119.63,-342 1160.19,-342 1195.43,-342"/>
<polygon fill="midnightblue" stroke="midnightblue" points="1195.7,-345.5 1205.7,-342 1195.7,-338.5 1195.7,-345.5"/>
</g>
<!-- Node20&#45;&gt;Node7 -->
<g id="edge25" class="edge">
<title>Node20&#45;&gt;Node7</title>
<path fill="none" stroke="midnightblue" d="M720.12,-302.53C696.03,-309.68 667.16,-317.56 640.04,-324.44"/>
<polygon fill="midnightblue" stroke="midnightblue" points="638.98,-321.1 630.13,-326.93 640.68,-327.89 638.98,-321.1"/>
</g>
<!-- Node21 -->
<g id="node21" class="node">
<title>Node21</title>
<g id="a_node21"><a xlink:href="classQuantConnect_1_1Indicators_1_1RollingWindow.html#aeda810a70ae103ede4f753b6704cd1e9" target="_top" xlink:title="Adds an item to this window and shifts all other elements">
<polygon fill="white" stroke="black" points="940.5,-267 940.5,-297 1080.5,-297 1080.5,-267 940.5,-267"/>
<text text-anchor="start" x="948.5" y="-285" font-family="Helvetica,sans-Serif" font-size="10.00">QuantConnect.Indicators.</text>
<text text-anchor="middle" x="1010.5" y="-274" font-family="Helvetica,sans-Serif" font-size="10.00">RollingWindow.Add</text>
</a>
</g>
</g>
<!-- Node20&#45;&gt;Node21 -->
<g id="edge24" class="edge">
<title>Node20&#45;&gt;Node21</title>
<path fill="none" stroke="midnightblue" d="M873.2,-282C892.16,-282 911.86,-282 930.2,-282"/>
<polygon fill="midnightblue" stroke="midnightblue" points="930.24,-285.5 940.24,-282 930.24,-278.5 930.24,-285.5"/>
</g>
<!-- Node22&#45;&gt;Node7 -->
<g id="edge27" class="edge">
<title>Node22&#45;&gt;Node7</title>
<path fill="none" stroke="midnightblue" d="M727.31,-242.65C711.83,-247.79 694.85,-253.78 680,-261 645.35,-277.84 609.48,-302.99 583.98,-320.98"/>
<polygon fill="midnightblue" stroke="midnightblue" points="581.9,-318.16 575.74,-326.78 585.93,-323.88 581.9,-318.16"/>
</g>
<!-- Node25 -->
<g id="node25" class="node">
<title>Node25</title>
<g id="a_node25"><a xlink:href="classQuantConnect_1_1Lean_1_1Engine_1_1Results_1_1BacktestingResultHandler.html#a93b2dc50a85c7686c9f6a4f525c15d7d" target="_top" xlink:title="Send a debug message back to the browser console.">
<polygon fill="white" stroke="black" points="455,-82.5 455,-123.5 640,-123.5 640,-82.5 455,-82.5"/>
<text text-anchor="start" x="463" y="-111.5" font-family="Helvetica,sans-Serif" font-size="10.00">QuantConnect.Lean.Engine.</text>
<text text-anchor="start" x="463" y="-100.5" font-family="Helvetica,sans-Serif" font-size="10.00">Results.BacktestingResultHandler.</text>
<text text-anchor="middle" x="547.5" y="-89.5" font-family="Helvetica,sans-Serif" font-size="10.00">DebugMessage</text>
</a>
</g>
</g>
<!-- Node24&#45;&gt;Node25 -->
<g id="edge30" class="edge">
<title>Node24&#45;&gt;Node25</title>
<path fill="none" stroke="midnightblue" d="M410.55,-108.38C421.7,-107.94 433.16,-107.48 444.45,-107.04"/>
<polygon fill="midnightblue" stroke="midnightblue" points="444.91,-110.52 454.77,-106.63 444.64,-103.53 444.91,-110.52"/>
</g>
<!-- Node26 -->
<g id="node26" class="node">
<title>Node26</title>
<g id="a_node26"><a xlink:href="classQuantConnect_1_1Lean_1_1Engine_1_1Results_1_1BacktestingResultHandler.html#a5ebe559276f84e3bb13746e26be6a312" target="_top" xlink:title="Add message to LogStore">
<polygon fill="white" stroke="black" points="684,-81.5 684,-122.5 869,-122.5 869,-81.5 684,-81.5"/>
<text text-anchor="start" x="692" y="-110.5" font-family="Helvetica,sans-Serif" font-size="10.00">QuantConnect.Lean.Engine.</text>
<text text-anchor="start" x="692" y="-99.5" font-family="Helvetica,sans-Serif" font-size="10.00">Results.BacktestingResultHandler.</text>
<text text-anchor="middle" x="776.5" y="-88.5" font-family="Helvetica,sans-Serif" font-size="10.00">AddToLogStore</text>
</a>
</g>
</g>
<!-- Node25&#45;&gt;Node26 -->
<g id="edge31" class="edge">
<title>Node25&#45;&gt;Node26</title>
<path fill="none" stroke="midnightblue" d="M640.18,-102.6C651.2,-102.55 662.51,-102.5 673.66,-102.45"/>
<polygon fill="midnightblue" stroke="midnightblue" points="673.87,-105.95 683.85,-102.4 673.84,-98.95 673.87,-105.95"/>
</g>
<!-- Node28 -->
<g id="node28" class="node">
<title>Node28</title>
<g id="a_node28"><a xlink:href="classQuantConnect_1_1Symbol.html#a59158f74116be3dad0ea0f3f3f134416" target="_top" xlink:title="Initializes a new instance of the Symbol class">
<polygon fill="white" stroke="black" points="465,-44.5 465,-63.5 630,-63.5 630,-44.5 465,-44.5"/>
<text text-anchor="middle" x="547.5" y="-51.5" font-family="Helvetica,sans-Serif" font-size="10.00">QuantConnect.Symbol.Symbol</text>
</a>
</g>
</g>
<!-- Node27&#45;&gt;Node28 -->
<g id="edge34" class="edge">
<title>Node27&#45;&gt;Node28</title>
<path fill="none" stroke="midnightblue" d="M407.28,-54.61C422.86,-54.54 439.1,-54.47 454.77,-54.4"/>
<polygon fill="midnightblue" stroke="midnightblue" points="454.98,-57.9 464.96,-54.36 454.95,-50.9 454.98,-57.9"/>
</g>
<!-- Node29 -->
<g id="node29" class="node">
<title>Node29</title>
<g id="a_node29"><a xlink:href="classQuantConnect_1_1Symbol.html#a59b0795fa21f46c306deb5576fa03bb9" target="_top" xlink:title="Centralized helper method to resolve alias for a symbol">
<polygon fill="white" stroke="black" points="691.5,-43.5 691.5,-62.5 861.5,-62.5 861.5,-43.5 691.5,-43.5"/>
<text text-anchor="middle" x="776.5" y="-50.5" font-family="Helvetica,sans-Serif" font-size="10.00">QuantConnect.Symbol.GetAlias</text>
</a>
</g>
</g>
<!-- Node28&#45;&gt;Node29 -->
<g id="edge35" class="edge">
<title>Node28&#45;&gt;Node29</title>
<path fill="none" stroke="midnightblue" d="M630.13,-53.64C646.55,-53.57 663.94,-53.49 680.76,-53.42"/>
<polygon fill="midnightblue" stroke="midnightblue" points="681.17,-56.92 691.15,-53.37 681.14,-49.92 681.17,-56.92"/>
</g>
<!-- Node30 -->
<g id="node30" class="node">
<title>Node30</title>
<g id="a_node30"><a xlink:href="classQuantConnect_1_1SymbolRepresentation.html#ad43ac907f6c19083821f58f21c6de017" target="_top" xlink:title="Returns future symbol ticker from underlying and expiration date. Function can generate tickers of tw...">
<polygon fill="white" stroke="black" points="909,-63 909,-93 1112,-93 1112,-63 909,-63"/>
<text text-anchor="start" x="917" y="-81" font-family="Helvetica,sans-Serif" font-size="10.00">QuantConnect.SymbolRepresentation.</text>
<text text-anchor="middle" x="1010.5" y="-70" font-family="Helvetica,sans-Serif" font-size="10.00">GenerateFutureTicker</text>
</a>
</g>
</g>
<!-- Node29&#45;&gt;Node30 -->
<g id="edge36" class="edge">
<title>Node29&#45;&gt;Node30</title>
<path fill="none" stroke="midnightblue" d="M861.59,-62.06C873.66,-63.36 886.23,-64.72 898.73,-66.06"/>
<polygon fill="midnightblue" stroke="midnightblue" points="898.4,-69.55 908.72,-67.14 899.15,-62.59 898.4,-69.55"/>
</g>
<!-- Node32 -->
<g id="node32" class="node">
<title>Node32</title>
<g id="a_node32"><a xlink:href="classQuantConnect_1_1SymbolRepresentation.html#ab133044f5cf8c16e700190a2202b215e" target="_top" xlink:title="Returns option symbol ticker in accordance with OSI symbology More information can be found at http:/...">
<polygon fill="white" stroke="black" points="909,-11 909,-41 1112,-41 1112,-11 909,-11"/>
<text text-anchor="start" x="917" y="-29" font-family="Helvetica,sans-Serif" font-size="10.00">QuantConnect.SymbolRepresentation.</text>
<text text-anchor="middle" x="1010.5" y="-18" font-family="Helvetica,sans-Serif" font-size="10.00">GenerateOptionTickerOSI</text>
</a>
</g>
</g>
<!-- Node29&#45;&gt;Node32 -->
<g id="edge38" class="edge">
<title>Node29&#45;&gt;Node32</title>
<path fill="none" stroke="midnightblue" d="M859.29,-43.48C872.08,-41.99 885.48,-40.43 898.78,-38.89"/>
<polygon fill="midnightblue" stroke="midnightblue" points="899.4,-42.34 908.92,-37.71 898.59,-35.38 899.4,-42.34"/>
</g>
<!-- Node31 -->
<g id="node31" class="node">
<title>Node31</title>
<g id="a_node31"><a xlink:href="classQuantConnect_1_1Securities_1_1Future_1_1FuturesExpiryUtilityFunctions.html#a4ccb1e2f2fe40ff09785a74a02f26df1" target="_top" xlink:title="Gets the number of months between the contract month and the expiry date.">
<polygon fill="white" stroke="black" points="1148,-60.5 1148,-101.5 1414,-101.5 1414,-60.5 1148,-60.5"/>
<text text-anchor="start" x="1156" y="-89.5" font-family="Helvetica,sans-Serif" font-size="10.00">QuantConnect.Securities.</text>
<text text-anchor="start" x="1156" y="-78.5" font-family="Helvetica,sans-Serif" font-size="10.00">Future.FuturesExpiryUtilityFunctions.</text>
<text text-anchor="middle" x="1281" y="-67.5" font-family="Helvetica,sans-Serif" font-size="10.00">GetDeltaBetweenContractMonthAndContractExpiry</text>
</a>
</g>
</g>
<!-- Node30&#45;&gt;Node31 -->
<g id="edge37" class="edge">
<title>Node30&#45;&gt;Node31</title>
<path fill="none" stroke="midnightblue" d="M1112.24,-79.13C1120.59,-79.22 1129.11,-79.31 1137.68,-79.41"/>
<polygon fill="midnightblue" stroke="midnightblue" points="1137.72,-82.91 1147.76,-79.52 1137.8,-75.91 1137.72,-82.91"/>
</g>
<!-- Node33 -->
<g id="node33" class="node">
<title>Node33</title>
<g id="a_node33"><a xlink:href="classQuantConnect_1_1Messages_1_1SymbolRepresentation.html#a2c514157d8055cfa271ea3a7ca1ccde7" target="_top" xlink:title="Returns a string message saying an unexpected security type was received by the given method name">
<polygon fill="white" stroke="black" points="1185,-0.5 1185,-41.5 1377,-41.5 1377,-0.5 1185,-0.5"/>
<text text-anchor="start" x="1193" y="-29.5" font-family="Helvetica,sans-Serif" font-size="10.00">QuantConnect.Messages.Symbol</text>
<text text-anchor="start" x="1193" y="-18.5" font-family="Helvetica,sans-Serif" font-size="10.00">Representation.UnexpectedSecurity</text>
<text text-anchor="middle" x="1281" y="-7.5" font-family="Helvetica,sans-Serif" font-size="10.00">TypeForMethod</text>
</a>
</g>
</g>
<!-- Node32&#45;&gt;Node33 -->
<g id="edge39" class="edge">
<title>Node32&#45;&gt;Node33</title>
<path fill="none" stroke="midnightblue" d="M1112.24,-24.12C1132.7,-23.74 1154.27,-23.34 1174.88,-22.96"/>
<polygon fill="midnightblue" stroke="midnightblue" points="1174.98,-26.46 1184.91,-22.77 1174.85,-19.46 1174.98,-26.46"/>
</g>
</g>
</svg>
