<?xml version="1.0" encoding="UTF-8" standalone="no"?>
<!DOCTYPE svg PUBLIC "-//W3C//DTD SVG 1.1//EN"
 "http://www.w3.org/Graphics/SVG/1.1/DTD/svg11.dtd">
<!-- Generated by graphviz version 2.43.0 (0)
 -->
<!-- Title: QuantConnect.Report.PortfolioLooperAlgorithm.Initialize Pages: 1 -->
<svg width="1868pt" height="717pt"
 viewBox="0.00 0.00 1868.00 716.50" xmlns="http://www.w3.org/2000/svg" xmlns:xlink="http://www.w3.org/1999/xlink">
<g id="graph0" class="graph" transform="scale(1 1) rotate(0) translate(4 712.5)">
<title>QuantConnect.Report.PortfolioLooperAlgorithm.Initialize</title>
<polygon fill="white" stroke="transparent" points="-4,4 -4,-712.5 1864,-712.5 1864,4 -4,4"/>
<!-- Node1 -->
<g id="node1" class="node">
<title>Node1</title>
<g id="a_node1"><a xlink:title="Initialize this algorithm">
<polygon fill="#bfbfbf" stroke="black" points="0,-320.5 0,-350.5 165,-350.5 165,-320.5 0,-320.5"/>
<text text-anchor="start" x="8" y="-338.5" font-family="Helvetica,sans-Serif" font-size="10.00">QuantConnect.Report.Portfolio</text>
<text text-anchor="middle" x="82.5" y="-327.5" font-family="Helvetica,sans-Serif" font-size="10.00">LooperAlgorithm.Initialize</text>
</a>
</g>
</g>
<!-- Node2 -->
<g id="node2" class="node">
<title>Node2</title>
<g id="a_node2"><a xlink:href="classQuantConnect_1_1Algorithm_1_1QCAlgorithm.html#af4b96ace7454948c54ea98e863b8b0e1" target="_top" xlink:title="Sets the account currency cash symbol this algorithm is to manage, as well as the starting cash in th...">
<polygon fill="white" stroke="black" points="201,-568.5 201,-598.5 406,-598.5 406,-568.5 201,-568.5"/>
<text text-anchor="start" x="209" y="-586.5" font-family="Helvetica,sans-Serif" font-size="10.00">QuantConnect.Algorithm.QCAlgorithm.</text>
<text text-anchor="middle" x="303.5" y="-575.5" font-family="Helvetica,sans-Serif" font-size="10.00">SetAccountCurrency</text>
</a>
</g>
</g>
<!-- Node1&#45;&gt;Node2 -->
<g id="edge1" class="edge">
<title>Node1&#45;&gt;Node2</title>
<path fill="none" stroke="midnightblue" d="M96.87,-350.64C133.91,-392.58 238,-510.46 282.22,-560.53"/>
<polygon fill="midnightblue" stroke="midnightblue" points="279.78,-563.06 289.03,-568.24 285.03,-558.43 279.78,-563.06"/>
</g>
<!-- Node11 -->
<g id="node11" class="node">
<title>Node11</title>
<g id="a_node11"><a xlink:href="classQuantConnect_1_1Algorithm_1_1QCAlgorithm.html#a25bdfa22d01e042f92b3e421675dba39" target="_top" xlink:title="Sets the benchmark used for computing statistics of the algorithm to the specified symbol">
<polygon fill="white" stroke="black" points="201,-394.5 201,-424.5 406,-424.5 406,-394.5 201,-394.5"/>
<text text-anchor="start" x="209" y="-412.5" font-family="Helvetica,sans-Serif" font-size="10.00">QuantConnect.Algorithm.QCAlgorithm.</text>
<text text-anchor="middle" x="303.5" y="-401.5" font-family="Helvetica,sans-Serif" font-size="10.00">SetBenchmark</text>
</a>
</g>
</g>
<!-- Node1&#45;&gt;Node11 -->
<g id="edge10" class="edge">
<title>Node1&#45;&gt;Node11</title>
<path fill="none" stroke="midnightblue" d="M115.91,-350.6C139.23,-361.07 171.61,-374.82 201,-384.5 208.87,-387.09 217.15,-389.55 225.46,-391.85"/>
<polygon fill="midnightblue" stroke="midnightblue" points="224.64,-395.25 235.2,-394.47 226.45,-388.49 224.64,-395.25"/>
</g>
<!-- Node30 -->
<g id="node30" class="node">
<title>Node30</title>
<g id="a_node30"><a xlink:href="classQuantConnect_1_1Algorithm_1_1QCAlgorithm.html#a79a78cd3e1909759aa56c1af63b0b63f" target="_top" xlink:title="Sets the brokerage to emulate in backtesting or paper trading. This can be used for brokerages that h...">
<polygon fill="white" stroke="black" points="201,-345.5 201,-375.5 406,-375.5 406,-345.5 201,-345.5"/>
<text text-anchor="start" x="209" y="-363.5" font-family="Helvetica,sans-Serif" font-size="10.00">QuantConnect.Algorithm.QCAlgorithm.</text>
<text text-anchor="middle" x="303.5" y="-352.5" font-family="Helvetica,sans-Serif" font-size="10.00">SetBrokerageModel</text>
</a>
</g>
</g>
<!-- Node1&#45;&gt;Node30 -->
<g id="edge31" class="edge">
<title>Node1&#45;&gt;Node30</title>
<path fill="none" stroke="midnightblue" d="M165.05,-344.81C173.44,-345.77 182.06,-346.75 190.71,-347.74"/>
<polygon fill="midnightblue" stroke="midnightblue" points="190.52,-351.24 200.85,-348.9 191.32,-344.28 190.52,-351.24"/>
</g>
<!-- Node31 -->
<g id="node31" class="node">
<title>Node31</title>
<g id="a_node31"><a xlink:href="classQuantConnect_1_1Algorithm_1_1QCAlgorithm.html#aaafe91e352e82764602f1d70478a2324" target="_top" xlink:title="Set initial cash for the strategy while backtesting. During live mode this value is ignored and repla...">
<polygon fill="white" stroke="black" points="201,-296.5 201,-326.5 406,-326.5 406,-296.5 201,-296.5"/>
<text text-anchor="start" x="209" y="-314.5" font-family="Helvetica,sans-Serif" font-size="10.00">QuantConnect.Algorithm.QCAlgorithm.</text>
<text text-anchor="middle" x="303.5" y="-303.5" font-family="Helvetica,sans-Serif" font-size="10.00">SetCash</text>
</a>
</g>
</g>
<!-- Node1&#45;&gt;Node31 -->
<g id="edge32" class="edge">
<title>Node1&#45;&gt;Node31</title>
<path fill="none" stroke="midnightblue" d="M165.05,-326.56C173.44,-325.64 182.06,-324.7 190.71,-323.75"/>
<polygon fill="midnightblue" stroke="midnightblue" points="191.29,-327.21 200.85,-322.64 190.53,-320.25 191.29,-327.21"/>
</g>
<!-- Node32 -->
<g id="node32" class="node">
<title>Node32</title>
<g id="a_node32"><a xlink:href="classQuantConnect_1_1Algorithm_1_1QCAlgorithm.html#a943d15c5639b738612e96a146fde7fce" target="_top" xlink:title="Set the end date for a backtest run">
<polygon fill="white" stroke="black" points="201,-247.5 201,-277.5 406,-277.5 406,-247.5 201,-247.5"/>
<text text-anchor="start" x="209" y="-265.5" font-family="Helvetica,sans-Serif" font-size="10.00">QuantConnect.Algorithm.QCAlgorithm.</text>
<text text-anchor="middle" x="303.5" y="-254.5" font-family="Helvetica,sans-Serif" font-size="10.00">SetEndDate</text>
</a>
</g>
</g>
<!-- Node1&#45;&gt;Node32 -->
<g id="edge33" class="edge">
<title>Node1&#45;&gt;Node32</title>
<path fill="none" stroke="midnightblue" d="M115.88,-320.32C139.19,-309.81 171.57,-296.05 201,-286.5 207.87,-284.27 215.06,-282.16 222.31,-280.17"/>
<polygon fill="midnightblue" stroke="midnightblue" points="223.43,-283.49 232.2,-277.55 221.63,-276.73 223.43,-283.49"/>
</g>
<!-- Node33 -->
<g id="node33" class="node">
<title>Node33</title>
<g id="a_node33"><a xlink:href="classQuantConnect_1_1Algorithm_1_1QCAlgorithm.html#a6a75c840c3180f42f4888649d51cb092" target="_top" xlink:title="Set the start date for backtest.">
<polygon fill="white" stroke="black" points="201,-198.5 201,-228.5 406,-228.5 406,-198.5 201,-198.5"/>
<text text-anchor="start" x="209" y="-216.5" font-family="Helvetica,sans-Serif" font-size="10.00">QuantConnect.Algorithm.QCAlgorithm.</text>
<text text-anchor="middle" x="303.5" y="-205.5" font-family="Helvetica,sans-Serif" font-size="10.00">SetStartDate</text>
</a>
</g>
</g>
<!-- Node1&#45;&gt;Node33 -->
<g id="edge34" class="edge">
<title>Node1&#45;&gt;Node33</title>
<path fill="none" stroke="midnightblue" d="M97.11,-320.37C117.52,-298.65 158.23,-258.88 201,-237.5 204.98,-235.51 209.13,-233.68 213.38,-232"/>
<polygon fill="midnightblue" stroke="midnightblue" points="214.63,-235.27 222.83,-228.55 212.23,-228.69 214.63,-235.27"/>
</g>
<!-- Node3 -->
<g id="node3" class="node">
<title>Node3</title>
<g id="a_node3"><a xlink:href="classQuantConnect_1_1Algorithm_1_1QCAlgorithm.html#a16bd52d937ab647c889e8d5f6577f744" target="_top" xlink:title="Send a debug message to the web console:">
<polygon fill="white" stroke="black" points="442,-623.5 442,-653.5 647,-653.5 647,-623.5 442,-623.5"/>
<text text-anchor="start" x="450" y="-641.5" font-family="Helvetica,sans-Serif" font-size="10.00">QuantConnect.Algorithm.QCAlgorithm.</text>
<text text-anchor="middle" x="544.5" y="-630.5" font-family="Helvetica,sans-Serif" font-size="10.00">Debug</text>
</a>
</g>
</g>
<!-- Node2&#45;&gt;Node3 -->
<g id="edge2" class="edge">
<title>Node2&#45;&gt;Node3</title>
<path fill="none" stroke="midnightblue" d="M369.81,-598.53C400.24,-605.53 436.62,-613.9 468.2,-621.17"/>
<polygon fill="midnightblue" stroke="midnightblue" points="467.74,-624.66 478.27,-623.49 469.31,-617.84 467.74,-624.66"/>
</g>
<!-- Node4 -->
<g id="node4" class="node">
<title>Node4</title>
<g id="a_node4"><a xlink:href="classQuantConnect_1_1Securities_1_1SecurityPortfolioManager.html#ace04c1c80ebeef4a75f6fc0bdb7aa215" target="_top" xlink:title="Sets the account currency cash symbol this algorithm is to manage, as well as the starting cash in th...">
<polygon fill="white" stroke="black" points="465.5,-563 465.5,-604 623.5,-604 623.5,-563 465.5,-563"/>
<text text-anchor="start" x="473.5" y="-592" font-family="Helvetica,sans-Serif" font-size="10.00">QuantConnect.Securities.</text>
<text text-anchor="start" x="473.5" y="-581" font-family="Helvetica,sans-Serif" font-size="10.00">SecurityPortfolioManager.Set</text>
<text text-anchor="middle" x="544.5" y="-570" font-family="Helvetica,sans-Serif" font-size="10.00">AccountCurrency</text>
</a>
</g>
</g>
<!-- Node2&#45;&gt;Node4 -->
<g id="edge3" class="edge">
<title>Node2&#45;&gt;Node4</title>
<path fill="none" stroke="midnightblue" d="M406.2,-583.5C422.46,-583.5 439.17,-583.5 455.09,-583.5"/>
<polygon fill="midnightblue" stroke="midnightblue" points="455.42,-587 465.42,-583.5 455.42,-580 455.42,-587"/>
</g>
<!-- Node5 -->
<g id="node5" class="node">
<title>Node5</title>
<g id="a_node5"><a xlink:href="classQuantConnect_1_1Messages_1_1SecurityPortfolioManager.html#a06dfacaaac00cd6aaeea5c5ac216c8b7" target="_top" xlink:title="Returns a string message saying the AccountCurrency has already been set and that the new value for t...">
<polygon fill="white" stroke="black" points="700.5,-667 700.5,-708 885.5,-708 885.5,-667 700.5,-667"/>
<text text-anchor="start" x="708.5" y="-696" font-family="Helvetica,sans-Serif" font-size="10.00">QuantConnect.Messages.Security</text>
<text text-anchor="start" x="708.5" y="-685" font-family="Helvetica,sans-Serif" font-size="10.00">PortfolioManager.AccountCurrency</text>
<text text-anchor="middle" x="793" y="-674" font-family="Helvetica,sans-Serif" font-size="10.00">AlreadySet</text>
</a>
</g>
</g>
<!-- Node4&#45;&gt;Node5 -->
<g id="edge4" class="edge">
<title>Node4&#45;&gt;Node5</title>
<path fill="none" stroke="midnightblue" d="M623.56,-602.19C631.79,-605.65 639.78,-609.72 647,-614.5 667.78,-628.27 662.03,-644.03 683,-657.5 685.77,-659.28 688.64,-660.95 691.59,-662.53"/>
<polygon fill="midnightblue" stroke="midnightblue" points="690.13,-665.71 700.65,-666.96 693.2,-659.42 690.13,-665.71"/>
</g>
<!-- Node6 -->
<g id="node6" class="node">
<title>Node6</title>
<g id="a_node6"><a xlink:href="classQuantConnect_1_1Securities_1_1SecurityPortfolioManager.html#acac8f78a9d4193124aa4b735832fa1f6" target="_top" xlink:title="Set the account currency cash this algorithm is to manage.">
<polygon fill="white" stroke="black" points="702,-617.5 702,-647.5 884,-647.5 884,-617.5 702,-617.5"/>
<text text-anchor="start" x="710" y="-635.5" font-family="Helvetica,sans-Serif" font-size="10.00">QuantConnect.Securities.</text>
<text text-anchor="middle" x="793" y="-624.5" font-family="Helvetica,sans-Serif" font-size="10.00">SecurityPortfolioManager.SetCash</text>
</a>
</g>
</g>
<!-- Node4&#45;&gt;Node6 -->
<g id="edge5" class="edge">
<title>Node4&#45;&gt;Node6</title>
<path fill="none" stroke="midnightblue" d="M623.83,-599.07C650.08,-604.29 679.48,-610.13 706.27,-615.46"/>
<polygon fill="midnightblue" stroke="midnightblue" points="705.91,-618.95 716.4,-617.47 707.27,-612.09 705.91,-618.95"/>
</g>
<!-- Node8 -->
<g id="node8" class="node">
<title>Node8</title>
<g id="a_node8"><a xlink:href="classQuantConnect_1_1Messages_1_1SecurityPortfolioManager.html#a842a7fb0e84105cf0cb74c80fe64195a" target="_top" xlink:title="Returns a string message saying the AccountCurrency is being set to the given account currency">
<polygon fill="white" stroke="black" points="683,-568.5 683,-598.5 903,-598.5 903,-568.5 683,-568.5"/>
<text text-anchor="start" x="691" y="-586.5" font-family="Helvetica,sans-Serif" font-size="10.00">QuantConnect.Messages.Security</text>
<text text-anchor="middle" x="793" y="-575.5" font-family="Helvetica,sans-Serif" font-size="10.00">PortfolioManager.SettingAccountCurrency</text>
</a>
</g>
</g>
<!-- Node4&#45;&gt;Node8 -->
<g id="edge7" class="edge">
<title>Node4&#45;&gt;Node8</title>
<path fill="none" stroke="midnightblue" d="M623.83,-583.5C639.36,-583.5 655.99,-583.5 672.53,-583.5"/>
<polygon fill="midnightblue" stroke="midnightblue" points="672.8,-587 682.8,-583.5 672.8,-580 672.8,-587"/>
</g>
<!-- Node9 -->
<g id="node9" class="node">
<title>Node9</title>
<g id="a_node9"><a xlink:href="classQuantConnect_1_1Logging_1_1Log.html#a4e55477fbc790846b74550a57198cea9" target="_top" xlink:title="Log trace">
<polygon fill="white" stroke="black" points="718,-519.5 718,-549.5 868,-549.5 868,-519.5 718,-519.5"/>
<text text-anchor="start" x="726" y="-537.5" font-family="Helvetica,sans-Serif" font-size="10.00">QuantConnect.Logging.Log.</text>
<text text-anchor="middle" x="793" y="-526.5" font-family="Helvetica,sans-Serif" font-size="10.00">Trace</text>
</a>
</g>
</g>
<!-- Node4&#45;&gt;Node9 -->
<g id="edge8" class="edge">
<title>Node4&#45;&gt;Node9</title>
<path fill="none" stroke="midnightblue" d="M623.83,-567.93C650.58,-562.61 680.59,-556.65 707.77,-551.24"/>
<polygon fill="midnightblue" stroke="midnightblue" points="708.53,-554.66 717.65,-549.28 707.16,-547.8 708.53,-554.66"/>
</g>
<!-- Node7 -->
<g id="node7" class="node">
<title>Node7</title>
<g id="a_node7"><a xlink:href="classQuantConnect_1_1Securities_1_1Cash.html#a10f484f2c0fa7902c2c1db937a929978" target="_top" xlink:title="Sets the Quantity to the specified amount">
<polygon fill="white" stroke="black" points="956,-617.5 956,-647.5 1096,-647.5 1096,-617.5 956,-617.5"/>
<text text-anchor="start" x="964" y="-635.5" font-family="Helvetica,sans-Serif" font-size="10.00">QuantConnect.Securities.</text>
<text text-anchor="middle" x="1026" y="-624.5" font-family="Helvetica,sans-Serif" font-size="10.00">Cash.SetAmount</text>
</a>
</g>
</g>
<!-- Node6&#45;&gt;Node7 -->
<g id="edge6" class="edge">
<title>Node6&#45;&gt;Node7</title>
<path fill="none" stroke="midnightblue" d="M884.3,-632.5C904.56,-632.5 925.91,-632.5 945.68,-632.5"/>
<polygon fill="midnightblue" stroke="midnightblue" points="945.86,-636 955.86,-632.5 945.86,-629 945.86,-636"/>
</g>
<!-- Node10 -->
<g id="node10" class="node">
<title>Node10</title>
<g id="a_node10"><a xlink:href="interfaceQuantConnect_1_1Logging_1_1ILogHandler.html#a3fb71a33ac66129240b63f12b6fcda3b" target="_top" xlink:title="Write debug message to log">
<polygon fill="white" stroke="black" points="951,-519.5 951,-549.5 1101,-549.5 1101,-519.5 951,-519.5"/>
<text text-anchor="start" x="959" y="-537.5" font-family="Helvetica,sans-Serif" font-size="10.00">QuantConnect.Logging.ILog</text>
<text text-anchor="middle" x="1026" y="-526.5" font-family="Helvetica,sans-Serif" font-size="10.00">Handler.Trace</text>
</a>
</g>
</g>
<!-- Node9&#45;&gt;Node10 -->
<g id="edge9" class="edge">
<title>Node9&#45;&gt;Node10</title>
<path fill="none" stroke="midnightblue" d="M868.04,-534.5C891.25,-534.5 917.04,-534.5 940.89,-534.5"/>
<polygon fill="midnightblue" stroke="midnightblue" points="940.98,-538 950.98,-534.5 940.98,-531 940.98,-538"/>
</g>
<!-- Node12 -->
<g id="node12" class="node">
<title>Node12</title>
<g id="a_node12"><a xlink:href="classQuantConnect_1_1Symbol.html#a350b9a625cf7bad95da82894be3cd0a8" target="_top" xlink:title="Provides a convenience method for creating a Symbol for most security types. This method currently do...">
<polygon fill="white" stroke="black" points="464,-276 464,-295 625,-295 625,-276 464,-276"/>
<text text-anchor="middle" x="544.5" y="-283" font-family="Helvetica,sans-Serif" font-size="10.00">QuantConnect.Symbol.Create</text>
</a>
</g>
</g>
<!-- Node11&#45;&gt;Node12 -->
<g id="edge11" class="edge">
<title>Node11&#45;&gt;Node12</title>
<path fill="none" stroke="midnightblue" d="M379.63,-394.46C388.69,-391.64 397.68,-388.34 406,-384.5 453.02,-362.78 500.41,-324.1 525.42,-302.07"/>
<polygon fill="midnightblue" stroke="midnightblue" points="527.88,-304.56 533.01,-295.28 523.22,-299.34 527.88,-304.56"/>
</g>
<!-- Node13 -->
<g id="node13" class="node">
<title>Node13</title>
<g id="a_node13"><a xlink:href="classQuantConnect_1_1Symbol.html#a7518a1932d1babbff128f2ba9666a78b" target="_top" xlink:title="Provides a convenience method for creating an option Symbol.">
<polygon fill="white" stroke="black" points="712.5,-431.5 712.5,-461.5 873.5,-461.5 873.5,-431.5 712.5,-431.5"/>
<text text-anchor="start" x="720.5" y="-449.5" font-family="Helvetica,sans-Serif" font-size="10.00">QuantConnect.Symbol.Create</text>
<text text-anchor="middle" x="793" y="-438.5" font-family="Helvetica,sans-Serif" font-size="10.00">Option</text>
</a>
</g>
</g>
<!-- Node12&#45;&gt;Node13 -->
<g id="edge12" class="edge">
<title>Node12&#45;&gt;Node13</title>
<path fill="none" stroke="midnightblue" d="M552.69,-295.06C571.39,-319.23 624.17,-383.22 683,-416.5 690.9,-420.97 699.51,-424.81 708.31,-428.09"/>
<polygon fill="midnightblue" stroke="midnightblue" points="707.31,-431.45 717.91,-431.44 709.62,-424.84 707.31,-431.45"/>
</g>
<!-- Node14 -->
<g id="node14" class="node">
<title>Node14</title>
<g id="a_node14"><a xlink:href="classQuantConnect_1_1SecurityIdentifier.html#a0c21d7880c9fdd260883d11ea0c99a00" target="_top" xlink:title="Helper overload that will search the mapfiles to resolve the first date. This implementation uses the...">
<polygon fill="white" stroke="black" points="939,-460.5 939,-490.5 1113,-490.5 1113,-460.5 939,-460.5"/>
<text text-anchor="start" x="947" y="-478.5" font-family="Helvetica,sans-Serif" font-size="10.00">QuantConnect.SecurityIdentifier.</text>
<text text-anchor="middle" x="1026" y="-467.5" font-family="Helvetica,sans-Serif" font-size="10.00">GenerateEquity</text>
</a>
</g>
</g>
<!-- Node12&#45;&gt;Node14 -->
<g id="edge25" class="edge">
<title>Node12&#45;&gt;Node14</title>
<path fill="none" stroke="midnightblue" d="M549.04,-295.26C561.4,-327.71 606.14,-432.17 683,-471.5 767.82,-514.9 880.66,-505.47 953.08,-492.38"/>
<polygon fill="midnightblue" stroke="midnightblue" points="953.85,-495.8 963.03,-490.52 952.55,-488.92 953.85,-495.8"/>
</g>
<!-- Node15 -->
<g id="node15" class="node">
<title>Node15</title>
<g id="a_node15"><a xlink:href="classQuantConnect_1_1Symbol.html#a59158f74116be3dad0ea0f3f3f134416" target="_top" xlink:title="Initializes a new instance of the Symbol class">
<polygon fill="white" stroke="black" points="943.5,-403 943.5,-422 1108.5,-422 1108.5,-403 943.5,-403"/>
<text text-anchor="middle" x="1026" y="-410" font-family="Helvetica,sans-Serif" font-size="10.00">QuantConnect.Symbol.Symbol</text>
</a>
</g>
</g>
<!-- Node12&#45;&gt;Node15 -->
<g id="edge30" class="edge">
<title>Node12&#45;&gt;Node15</title>
<path fill="none" stroke="midnightblue" d="M555.11,-295.12C576.13,-315.46 628.68,-362.61 683,-382.5 763.95,-412.14 862.6,-417.86 933.11,-417.23"/>
<polygon fill="midnightblue" stroke="midnightblue" points="933.35,-420.73 943.3,-417.1 933.26,-413.73 933.35,-420.73"/>
</g>
<!-- Node21 -->
<g id="node21" class="node">
<title>Node21</title>
<g id="a_node21"><a xlink:href="classQuantConnect_1_1SecurityIdentifier.html#a02ca750115844561c001c2346fbafc00" target="_top" xlink:title="Generates a new SecurityIdentifier for a custom security with the option of providing the first date">
<polygon fill="white" stroke="black" points="706,-343.5 706,-373.5 880,-373.5 880,-343.5 706,-343.5"/>
<text text-anchor="start" x="714" y="-361.5" font-family="Helvetica,sans-Serif" font-size="10.00">QuantConnect.SecurityIdentifier.</text>
<text text-anchor="middle" x="793" y="-350.5" font-family="Helvetica,sans-Serif" font-size="10.00">GenerateBase</text>
</a>
</g>
</g>
<!-- Node12&#45;&gt;Node21 -->
<g id="edge20" class="edge">
<title>Node12&#45;&gt;Node21</title>
<path fill="none" stroke="midnightblue" d="M570.07,-295C597.38,-305.34 642.91,-321.94 683,-333.5 692.14,-336.13 701.77,-338.68 711.37,-341.06"/>
<polygon fill="midnightblue" stroke="midnightblue" points="710.8,-344.53 721.35,-343.49 712.46,-337.73 710.8,-344.53"/>
</g>
<!-- Node23 -->
<g id="node23" class="node">
<title>Node23</title>
<g id="a_node23"><a xlink:href="classQuantConnect_1_1SecurityIdentifier.html#a53953b18d814c5445e4ecdcb3b555080" target="_top" xlink:title="Generates a new SecurityIdentifier for a CFD security">
<polygon fill="white" stroke="black" points="706,-294.5 706,-324.5 880,-324.5 880,-294.5 706,-294.5"/>
<text text-anchor="start" x="714" y="-312.5" font-family="Helvetica,sans-Serif" font-size="10.00">QuantConnect.SecurityIdentifier.</text>
<text text-anchor="middle" x="793" y="-301.5" font-family="Helvetica,sans-Serif" font-size="10.00">GenerateCfd</text>
</a>
</g>
</g>
<!-- Node12&#45;&gt;Node23 -->
<g id="edge22" class="edge">
<title>Node12&#45;&gt;Node23</title>
<path fill="none" stroke="midnightblue" d="M625.19,-293.26C647.61,-295.44 672.24,-297.84 695.53,-300.11"/>
<polygon fill="midnightblue" stroke="midnightblue" points="695.48,-303.62 705.77,-301.1 696.16,-296.65 695.48,-303.62"/>
</g>
<!-- Node24 -->
<g id="node24" class="node">
<title>Node24</title>
<g id="a_node24"><a xlink:href="classQuantConnect_1_1SecurityIdentifier.html#a5889a95a36ce927dd0a109cbfbcbe663" target="_top" xlink:title="Generates a new SecurityIdentifier for a Crypto pair">
<polygon fill="white" stroke="black" points="706,-245.5 706,-275.5 880,-275.5 880,-245.5 706,-245.5"/>
<text text-anchor="start" x="714" y="-263.5" font-family="Helvetica,sans-Serif" font-size="10.00">QuantConnect.SecurityIdentifier.</text>
<text text-anchor="middle" x="793" y="-252.5" font-family="Helvetica,sans-Serif" font-size="10.00">GenerateCrypto</text>
</a>
</g>
</g>
<!-- Node12&#45;&gt;Node24 -->
<g id="edge23" class="edge">
<title>Node12&#45;&gt;Node24</title>
<path fill="none" stroke="midnightblue" d="M625.19,-277.42C647.61,-275.14 672.24,-272.65 695.53,-270.28"/>
<polygon fill="midnightblue" stroke="midnightblue" points="696.18,-273.74 705.77,-269.25 695.47,-266.77 696.18,-273.74"/>
</g>
<!-- Node25 -->
<g id="node25" class="node">
<title>Node25</title>
<g id="a_node25"><a xlink:href="classQuantConnect_1_1SecurityIdentifier.html#ac665665a16d5449872fed3427b95a260" target="_top" xlink:title="Generates a new SecurityIdentifier for a CryptoFuture pair">
<polygon fill="white" stroke="black" points="706,-196.5 706,-226.5 880,-226.5 880,-196.5 706,-196.5"/>
<text text-anchor="start" x="714" y="-214.5" font-family="Helvetica,sans-Serif" font-size="10.00">QuantConnect.SecurityIdentifier.</text>
<text text-anchor="middle" x="793" y="-203.5" font-family="Helvetica,sans-Serif" font-size="10.00">GenerateCryptoFuture</text>
</a>
</g>
</g>
<!-- Node12&#45;&gt;Node25 -->
<g id="edge24" class="edge">
<title>Node12&#45;&gt;Node25</title>
<path fill="none" stroke="midnightblue" d="M569.03,-275.86C596.16,-265.01 642.26,-247.33 683,-235.5 690.96,-233.19 699.3,-230.98 707.67,-228.9"/>
<polygon fill="midnightblue" stroke="midnightblue" points="708.6,-232.28 717.5,-226.53 706.95,-225.48 708.6,-232.28"/>
</g>
<!-- Node26 -->
<g id="node26" class="node">
<title>Node26</title>
<g id="a_node26"><a xlink:href="classQuantConnect_1_1SecurityIdentifier.html#a9cf0d3b208a5171e6112516ce441f18d" target="_top" xlink:title="Generates a new SecurityIdentifier for a forex pair">
<polygon fill="white" stroke="black" points="706,-147.5 706,-177.5 880,-177.5 880,-147.5 706,-147.5"/>
<text text-anchor="start" x="714" y="-165.5" font-family="Helvetica,sans-Serif" font-size="10.00">QuantConnect.SecurityIdentifier.</text>
<text text-anchor="middle" x="793" y="-154.5" font-family="Helvetica,sans-Serif" font-size="10.00">GenerateForex</text>
</a>
</g>
</g>
<!-- Node12&#45;&gt;Node26 -->
<g id="edge26" class="edge">
<title>Node12&#45;&gt;Node26</title>
<path fill="none" stroke="midnightblue" d="M555.61,-275.92C577.19,-256.03 630.1,-210.15 683,-186.5 687.69,-184.4 692.58,-182.48 697.57,-180.73"/>
<polygon fill="midnightblue" stroke="midnightblue" points="698.87,-183.99 707.28,-177.55 696.69,-177.33 698.87,-183.99"/>
</g>
<!-- Node27 -->
<g id="node27" class="node">
<title>Node27</title>
<g id="a_node27"><a xlink:href="classQuantConnect_1_1SecurityIdentifier.html#ad50a891c97cb0c084a9e2aa43607ed66" target="_top" xlink:title="Generates a new SecurityIdentifier for a future">
<polygon fill="white" stroke="black" points="706,-98.5 706,-128.5 880,-128.5 880,-98.5 706,-98.5"/>
<text text-anchor="start" x="714" y="-116.5" font-family="Helvetica,sans-Serif" font-size="10.00">QuantConnect.SecurityIdentifier.</text>
<text text-anchor="middle" x="793" y="-105.5" font-family="Helvetica,sans-Serif" font-size="10.00">GenerateFuture</text>
</a>
</g>
</g>
<!-- Node12&#45;&gt;Node27 -->
<g id="edge27" class="edge">
<title>Node12&#45;&gt;Node27</title>
<path fill="none" stroke="midnightblue" d="M551.51,-275.66C568.48,-248.78 619.67,-173.71 683,-137.5 687.24,-135.07 691.71,-132.89 696.32,-130.93"/>
<polygon fill="midnightblue" stroke="midnightblue" points="697.87,-134.08 705.93,-127.21 695.34,-127.55 697.87,-134.08"/>
</g>
<!-- Node28 -->
<g id="node28" class="node">
<title>Node28</title>
<g id="a_node28"><a xlink:href="classQuantConnect_1_1SecurityIdentifier.html#ade05a8e57b041ab484cf585be8d05699" target="_top" xlink:title="Generates a new SecurityIdentifier for a INDEX security">
<polygon fill="white" stroke="black" points="706,-49.5 706,-79.5 880,-79.5 880,-49.5 706,-49.5"/>
<text text-anchor="start" x="714" y="-67.5" font-family="Helvetica,sans-Serif" font-size="10.00">QuantConnect.SecurityIdentifier.</text>
<text text-anchor="middle" x="793" y="-56.5" font-family="Helvetica,sans-Serif" font-size="10.00">GenerateIndex</text>
</a>
</g>
</g>
<!-- Node12&#45;&gt;Node28 -->
<g id="edge28" class="edge">
<title>Node12&#45;&gt;Node28</title>
<path fill="none" stroke="midnightblue" d="M549.21,-275.79C562.13,-243.41 608.44,-138.32 683,-88.5 687.27,-85.65 691.83,-83.13 696.56,-80.9"/>
<polygon fill="midnightblue" stroke="midnightblue" points="698.01,-84.09 705.86,-76.98 695.28,-77.64 698.01,-84.09"/>
</g>
<!-- Node29 -->
<g id="node29" class="node">
<title>Node29</title>
<g id="a_node29"><a xlink:href="classQuantConnect_1_1Messages_1_1Symbol.html#ab801bef52a308b8ba7ba6d42e1ef1988" target="_top" xlink:title="Returns a string message saying the given security type has not been implemented yet">
<polygon fill="white" stroke="black" points="703,-0.5 703,-30.5 883,-30.5 883,-0.5 703,-0.5"/>
<text text-anchor="start" x="711" y="-18.5" font-family="Helvetica,sans-Serif" font-size="10.00">QuantConnect.Messages.Symbol.</text>
<text text-anchor="middle" x="793" y="-7.5" font-family="Helvetica,sans-Serif" font-size="10.00">SecurityTypeNotImplementedYet</text>
</a>
</g>
</g>
<!-- Node12&#45;&gt;Node29 -->
<g id="edge29" class="edge">
<title>Node12&#45;&gt;Node29</title>
<path fill="none" stroke="midnightblue" d="M547.83,-275.83C557.33,-238.61 596.79,-103.54 683,-39.5 686.41,-36.97 690.04,-34.69 693.82,-32.64"/>
<polygon fill="midnightblue" stroke="midnightblue" points="695.4,-35.77 702.89,-28.28 692.37,-29.46 695.4,-35.77"/>
</g>
<!-- Node13&#45;&gt;Node14 -->
<g id="edge13" class="edge">
<title>Node13&#45;&gt;Node14</title>
<path fill="none" stroke="midnightblue" d="M873.82,-456.52C891.54,-458.74 910.49,-461.12 928.79,-463.42"/>
<polygon fill="midnightblue" stroke="midnightblue" points="928.51,-466.91 938.87,-464.69 929.38,-459.97 928.51,-466.91"/>
</g>
<!-- Node13&#45;&gt;Node15 -->
<g id="edge14" class="edge">
<title>Node13&#45;&gt;Node15</title>
<path fill="none" stroke="midnightblue" d="M873.82,-434.75C898.69,-431.09 926.01,-427.07 950.51,-423.46"/>
<polygon fill="midnightblue" stroke="midnightblue" points="951.07,-426.92 960.45,-422 950.05,-419.99 951.07,-426.92"/>
</g>
<!-- Node16 -->
<g id="node16" class="node">
<title>Node16</title>
<g id="a_node16"><a xlink:href="classQuantConnect_1_1Symbol.html#a59b0795fa21f46c306deb5576fa03bb9" target="_top" xlink:title="Centralized helper method to resolve alias for a symbol">
<polygon fill="white" stroke="black" points="1149,-403 1149,-422 1319,-422 1319,-403 1149,-403"/>
<text text-anchor="middle" x="1234" y="-410" font-family="Helvetica,sans-Serif" font-size="10.00">QuantConnect.Symbol.GetAlias</text>
</a>
</g>
</g>
<!-- Node15&#45;&gt;Node16 -->
<g id="edge15" class="edge">
<title>Node15&#45;&gt;Node16</title>
<path fill="none" stroke="midnightblue" d="M1108.71,-412.5C1118.47,-412.5 1128.49,-412.5 1138.4,-412.5"/>
<polygon fill="midnightblue" stroke="midnightblue" points="1138.68,-416 1148.68,-412.5 1138.68,-409 1138.68,-416"/>
</g>
<!-- Node17 -->
<g id="node17" class="node">
<title>Node17</title>
<g id="a_node17"><a xlink:href="classQuantConnect_1_1SymbolRepresentation.html#ad43ac907f6c19083821f58f21c6de017" target="_top" xlink:title="Returns future symbol ticker from underlying and expiration date. Function can generate tickers of tw...">
<polygon fill="white" stroke="black" points="1355,-425.5 1355,-455.5 1558,-455.5 1558,-425.5 1355,-425.5"/>
<text text-anchor="start" x="1363" y="-443.5" font-family="Helvetica,sans-Serif" font-size="10.00">QuantConnect.SymbolRepresentation.</text>
<text text-anchor="middle" x="1456.5" y="-432.5" font-family="Helvetica,sans-Serif" font-size="10.00">GenerateFutureTicker</text>
</a>
</g>
</g>
<!-- Node16&#45;&gt;Node17 -->
<g id="edge16" class="edge">
<title>Node16&#45;&gt;Node17</title>
<path fill="none" stroke="midnightblue" d="M1309.96,-422.02C1321.27,-423.46 1333.14,-424.96 1345.01,-426.47"/>
<polygon fill="midnightblue" stroke="midnightblue" points="1344.62,-429.95 1354.98,-427.74 1345.5,-423 1344.62,-429.95"/>
</g>
<!-- Node19 -->
<g id="node19" class="node">
<title>Node19</title>
<g id="a_node19"><a xlink:href="classQuantConnect_1_1SymbolRepresentation.html#ab133044f5cf8c16e700190a2202b215e" target="_top" xlink:title="Returns option symbol ticker in accordance with OSI symbology More information can be found at http:/...">
<polygon fill="white" stroke="black" points="1355,-373.5 1355,-403.5 1558,-403.5 1558,-373.5 1355,-373.5"/>
<text text-anchor="start" x="1363" y="-391.5" font-family="Helvetica,sans-Serif" font-size="10.00">QuantConnect.SymbolRepresentation.</text>
<text text-anchor="middle" x="1456.5" y="-380.5" font-family="Helvetica,sans-Serif" font-size="10.00">GenerateOptionTickerOSI</text>
</a>
</g>
</g>
<!-- Node16&#45;&gt;Node19 -->
<g id="edge18" class="edge">
<title>Node16&#45;&gt;Node19</title>
<path fill="none" stroke="midnightblue" d="M1319.31,-403.32C1327.69,-402.41 1336.3,-401.47 1344.9,-400.54"/>
<polygon fill="midnightblue" stroke="midnightblue" points="1345.43,-404 1354.99,-399.44 1344.67,-397.04 1345.43,-404"/>
</g>
<!-- Node18 -->
<g id="node18" class="node">
<title>Node18</title>
<g id="a_node18"><a xlink:href="classQuantConnect_1_1Securities_1_1Future_1_1FuturesExpiryUtilityFunctions.html#a4ccb1e2f2fe40ff09785a74a02f26df1" target="_top" xlink:title="Gets the number of months between the contract month and the expiry date.">
<polygon fill="white" stroke="black" points="1594,-423 1594,-464 1860,-464 1860,-423 1594,-423"/>
<text text-anchor="start" x="1602" y="-452" font-family="Helvetica,sans-Serif" font-size="10.00">QuantConnect.Securities.</text>
<text text-anchor="start" x="1602" y="-441" font-family="Helvetica,sans-Serif" font-size="10.00">Future.FuturesExpiryUtilityFunctions.</text>
<text text-anchor="middle" x="1727" y="-430" font-family="Helvetica,sans-Serif" font-size="10.00">GetDeltaBetweenContractMonthAndContractExpiry</text>
</a>
</g>
</g>
<!-- Node17&#45;&gt;Node18 -->
<g id="edge17" class="edge">
<title>Node17&#45;&gt;Node18</title>
<path fill="none" stroke="midnightblue" d="M1558.24,-441.63C1566.59,-441.72 1575.11,-441.81 1583.68,-441.91"/>
<polygon fill="midnightblue" stroke="midnightblue" points="1583.72,-445.41 1593.76,-442.02 1583.8,-438.41 1583.72,-445.41"/>
</g>
<!-- Node20 -->
<g id="node20" class="node">
<title>Node20</title>
<g id="a_node20"><a xlink:href="classQuantConnect_1_1Messages_1_1SymbolRepresentation.html#a2c514157d8055cfa271ea3a7ca1ccde7" target="_top" xlink:title="Returns a string message saying an unexpected security type was received by the given method name">
<polygon fill="white" stroke="black" points="1631,-363 1631,-404 1823,-404 1823,-363 1631,-363"/>
<text text-anchor="start" x="1639" y="-392" font-family="Helvetica,sans-Serif" font-size="10.00">QuantConnect.Messages.Symbol</text>
<text text-anchor="start" x="1639" y="-381" font-family="Helvetica,sans-Serif" font-size="10.00">Representation.UnexpectedSecurity</text>
<text text-anchor="middle" x="1727" y="-370" font-family="Helvetica,sans-Serif" font-size="10.00">TypeForMethod</text>
</a>
</g>
</g>
<!-- Node19&#45;&gt;Node20 -->
<g id="edge19" class="edge">
<title>Node19&#45;&gt;Node20</title>
<path fill="none" stroke="midnightblue" d="M1558.24,-386.62C1578.7,-386.24 1600.27,-385.84 1620.88,-385.46"/>
<polygon fill="midnightblue" stroke="midnightblue" points="1620.98,-388.96 1630.91,-385.27 1620.85,-381.96 1620.98,-388.96"/>
</g>
<!-- Node22 -->
<g id="node22" class="node">
<title>Node22</title>
<g id="a_node22"><a xlink:href="classQuantConnect_1_1SecurityIdentifier.html#a19e1f9da410608020d74ed9e7d283575" target="_top" xlink:title="Generates the Symbol property for QuantConnect.SecurityType.Base security identifiers">
<polygon fill="white" stroke="black" points="939,-343.5 939,-373.5 1113,-373.5 1113,-343.5 939,-343.5"/>
<text text-anchor="start" x="947" y="-361.5" font-family="Helvetica,sans-Serif" font-size="10.00">QuantConnect.SecurityIdentifier.</text>
<text text-anchor="middle" x="1026" y="-350.5" font-family="Helvetica,sans-Serif" font-size="10.00">GenerateBaseSymbol</text>
</a>
</g>
</g>
<!-- Node21&#45;&gt;Node22 -->
<g id="edge21" class="edge">
<title>Node21&#45;&gt;Node22</title>
<path fill="none" stroke="midnightblue" d="M880.02,-358.5C895.95,-358.5 912.69,-358.5 928.9,-358.5"/>
<polygon fill="midnightblue" stroke="midnightblue" points="928.91,-362 938.91,-358.5 928.91,-355 928.91,-362"/>
</g>
</g>
</svg>
