<?xml version="1.0" encoding="UTF-8" standalone="no"?>
<!DOCTYPE svg PUBLIC "-//W3C//DTD SVG 1.1//EN"
 "http://www.w3.org/Graphics/SVG/1.1/DTD/svg11.dtd">
<!-- Generated by graphviz version 2.43.0 (0)
 -->
<!-- Title: QuantConnect.Configuration.Config.Reset Pages: 1 -->
<svg width="527pt" height="100pt"
 viewBox="0.00 0.00 527.00 99.50" xmlns="http://www.w3.org/2000/svg" xmlns:xlink="http://www.w3.org/1999/xlink">
<g id="graph0" class="graph" transform="scale(1 1) rotate(0) translate(4 95.5)">
<title>QuantConnect.Configuration.Config.Reset</title>
<polygon fill="white" stroke="transparent" points="-4,4 -4,-95.5 523,-95.5 523,4 -4,4"/>
<!-- Node1 -->
<g id="node1" class="node">
<title>Node1</title>
<g id="a_node1"><a xlink:title="Resets the config settings to their default values. Called in regression tests where multiple algorit...">
<polygon fill="#bfbfbf" stroke="black" points="362,-27.5 362,-57.5 519,-57.5 519,-27.5 362,-27.5"/>
<text text-anchor="start" x="370" y="-45.5" font-family="Helvetica,sans-Serif" font-size="10.00">QuantConnect.Configuration.</text>
<text text-anchor="middle" x="440.5" y="-34.5" font-family="Helvetica,sans-Serif" font-size="10.00">Config.Reset</text>
</a>
</g>
</g>
<!-- Node2 -->
<g id="node2" class="node">
<title>Node2</title>
<g id="a_node2"><a xlink:href="classQuantConnect_1_1Configuration_1_1Config.html#a0e4793a3679d8f215ebfdbece7d87304" target="_top" xlink:title="Merge CLI arguments with configuration file + load custom config file via CLI arg">
<polygon fill="white" stroke="black" points="121,-50 121,-91 326,-91 326,-50 121,-50"/>
<text text-anchor="start" x="129" y="-79" font-family="Helvetica,sans-Serif" font-size="10.00">QuantConnect.Configuration.</text>
<text text-anchor="start" x="129" y="-68" font-family="Helvetica,sans-Serif" font-size="10.00">Config.MergeCommandLineArguments</text>
<text text-anchor="middle" x="223.5" y="-57" font-family="Helvetica,sans-Serif" font-size="10.00">WithConfiguration</text>
</a>
</g>
</g>
<!-- Node1&#45;&gt;Node2 -->
<g id="edge1" class="edge">
<title>Node1&#45;&gt;Node2</title>
<path fill="none" stroke="midnightblue" d="M351.76,-53.93C343.38,-55.02 334.83,-56.13 326.33,-57.24"/>
<polygon fill="midnightblue" stroke="midnightblue" points="352.42,-57.37 361.88,-52.61 351.51,-50.43 352.42,-57.37"/>
</g>
<!-- Node4 -->
<g id="node4" class="node">
<title>Node4</title>
<g id="a_node4"><a xlink:href="classQuantConnect_1_1Research_1_1QuantBook.html#a239bcca3c726a8cc25b9a6a3cd0c244f" target="_top" xlink:title="QuantBook constructor. Provides access to data for quantitative analysis">
<polygon fill="white" stroke="black" points="140.5,-0.5 140.5,-30.5 306.5,-30.5 306.5,-0.5 140.5,-0.5"/>
<text text-anchor="start" x="148.5" y="-18.5" font-family="Helvetica,sans-Serif" font-size="10.00">QuantConnect.Research.Quant</text>
<text text-anchor="middle" x="223.5" y="-7.5" font-family="Helvetica,sans-Serif" font-size="10.00">Book.QuantBook</text>
</a>
</g>
</g>
<!-- Node1&#45;&gt;Node4 -->
<g id="edge3" class="edge">
<title>Node1&#45;&gt;Node4</title>
<path fill="none" stroke="midnightblue" d="M351.69,-31.47C336.82,-29.61 321.44,-27.67 306.72,-25.83"/>
<polygon fill="midnightblue" stroke="midnightblue" points="351.52,-34.98 361.88,-32.75 352.39,-28.03 351.52,-34.98"/>
</g>
<!-- Node3 -->
<g id="node3" class="node">
<title>Node3</title>
<g id="a_node3"><a xlink:href="classProgram.html#ada72f8d1518f89bc2e6ad807d5059564" target="_top" xlink:title="The main entry point for the application.">
<polygon fill="white" stroke="black" points="0,-61 0,-80 85,-80 85,-61 0,-61"/>
<text text-anchor="middle" x="42.5" y="-68" font-family="Helvetica,sans-Serif" font-size="10.00">Program.Main</text>
</a>
</g>
</g>
<!-- Node2&#45;&gt;Node3 -->
<g id="edge2" class="edge">
<title>Node2&#45;&gt;Node3</title>
<path fill="none" stroke="midnightblue" d="M110.71,-70.5C101.72,-70.5 93.05,-70.5 85.1,-70.5"/>
<polygon fill="midnightblue" stroke="midnightblue" points="110.97,-74 120.97,-70.5 110.97,-67 110.97,-74"/>
</g>
</g>
</svg>
