<?xml version="1.0" encoding="UTF-8" standalone="no"?>
<!DOCTYPE svg PUBLIC "-//W3C//DTD SVG 1.1//EN"
 "http://www.w3.org/Graphics/SVG/1.1/DTD/svg11.dtd">
<!-- Generated by graphviz version 2.43.0 (0)
 -->
<!-- Title: QuantConnect.Securities.DelayedSettlementModel.GetUnsettledCash Pages: 1 -->
<svg width="857pt" height="39pt"
 viewBox="0.00 0.00 857.00 39.00" xmlns="http://www.w3.org/2000/svg" xmlns:xlink="http://www.w3.org/1999/xlink">
<g id="graph0" class="graph" transform="scale(1 1) rotate(0) translate(4 35)">
<title>QuantConnect.Securities.DelayedSettlementModel.GetUnsettledCash</title>
<polygon fill="white" stroke="transparent" points="-4,4 -4,-35 853,-35 853,4 -4,4"/>
<!-- Node1 -->
<g id="node1" class="node">
<title>Node1</title>
<g id="a_node1"><a xlink:title="Gets the unsettled cash amount for the security">
<polygon fill="#bfbfbf" stroke="black" points="0,-0.5 0,-30.5 233,-30.5 233,-0.5 0,-0.5"/>
<text text-anchor="start" x="8" y="-18.5" font-family="Helvetica,sans-Serif" font-size="10.00">QuantConnect.Securities.</text>
<text text-anchor="middle" x="116.5" y="-7.5" font-family="Helvetica,sans-Serif" font-size="10.00">DelayedSettlementModel.GetUnsettledCash</text>
</a>
</g>
</g>
<!-- Node2 -->
<g id="node2" class="node">
<title>Node2</title>
<g id="a_node2"><a xlink:href="classQuantConnect_1_1Securities_1_1CashBook.html#a439b770734d62b9b60bd06a56fbdbb1c" target="_top" xlink:title="Converts a quantity of source currency units into the account currency">
<polygon fill="white" stroke="black" points="269,-0.5 269,-30.5 469,-30.5 469,-0.5 269,-0.5"/>
<text text-anchor="start" x="277" y="-18.5" font-family="Helvetica,sans-Serif" font-size="10.00">QuantConnect.Securities.</text>
<text text-anchor="middle" x="369" y="-7.5" font-family="Helvetica,sans-Serif" font-size="10.00">CashBook.ConvertToAccountCurrency</text>
</a>
</g>
</g>
<!-- Node1&#45;&gt;Node2 -->
<g id="edge1" class="edge">
<title>Node1&#45;&gt;Node2</title>
<path fill="none" stroke="midnightblue" d="M233.22,-15.5C241.69,-15.5 250.23,-15.5 258.66,-15.5"/>
<polygon fill="midnightblue" stroke="midnightblue" points="258.9,-19 268.9,-15.5 258.9,-12 258.9,-19"/>
</g>
<!-- Node3 -->
<g id="node3" class="node">
<title>Node3</title>
<g id="a_node3"><a xlink:href="classQuantConnect_1_1Securities_1_1CashBook.html#a3a2cfc4aac92b0740a9bad6c94b42d3b" target="_top" xlink:title="Converts a quantity of source currency units into the specified destination currency">
<polygon fill="white" stroke="black" points="505,-0.5 505,-30.5 645,-30.5 645,-0.5 505,-0.5"/>
<text text-anchor="start" x="513" y="-18.5" font-family="Helvetica,sans-Serif" font-size="10.00">QuantConnect.Securities.</text>
<text text-anchor="middle" x="575" y="-7.5" font-family="Helvetica,sans-Serif" font-size="10.00">CashBook.Convert</text>
</a>
</g>
</g>
<!-- Node2&#45;&gt;Node3 -->
<g id="edge2" class="edge">
<title>Node2&#45;&gt;Node3</title>
<path fill="none" stroke="midnightblue" d="M469.01,-15.5C477.6,-15.5 486.22,-15.5 494.62,-15.5"/>
<polygon fill="midnightblue" stroke="midnightblue" points="494.74,-19 504.74,-15.5 494.74,-12 494.74,-19"/>
</g>
<!-- Node4 -->
<g id="node4" class="node">
<title>Node4</title>
<g id="a_node4"><a xlink:href="classQuantConnect_1_1Messages_1_1CashBook.html#a7668ed1e406e2948a4dc01b7b1049e20" target="_top" xlink:title="Returns a string message saying the conversion rate for the given currency is not available">
<polygon fill="white" stroke="black" points="681,-0.5 681,-30.5 849,-30.5 849,-0.5 681,-0.5"/>
<text text-anchor="start" x="689" y="-18.5" font-family="Helvetica,sans-Serif" font-size="10.00">QuantConnect.Messages.Cash</text>
<text text-anchor="middle" x="765" y="-7.5" font-family="Helvetica,sans-Serif" font-size="10.00">Book.ConversionRateNotFound</text>
</a>
</g>
</g>
<!-- Node3&#45;&gt;Node4 -->
<g id="edge3" class="edge">
<title>Node3&#45;&gt;Node4</title>
<path fill="none" stroke="midnightblue" d="M645.2,-15.5C653.56,-15.5 662.19,-15.5 670.82,-15.5"/>
<polygon fill="midnightblue" stroke="midnightblue" points="670.92,-19 680.92,-15.5 670.92,-12 670.92,-19"/>
</g>
</g>
</svg>
