<?xml version="1.0" encoding="UTF-8" standalone="no"?>
<!DOCTYPE svg PUBLIC "-//W3C//DTD SVG 1.1//EN"
 "http://www.w3.org/Graphics/SVG/1.1/DTD/svg11.dtd">
<!-- Generated by graphviz version 2.43.0 (0)
 -->
<!-- Title: QuantConnect.Securities.Forex.ForexHolding.TotalCloseProfitPips Pages: 1 -->
<svg width="785pt" height="88pt"
 viewBox="0.00 0.00 785.00 88.00" xmlns="http://www.w3.org/2000/svg" xmlns:xlink="http://www.w3.org/1999/xlink">
<g id="graph0" class="graph" transform="scale(1 1) rotate(0) translate(4 84)">
<title>QuantConnect.Securities.Forex.ForexHolding.TotalCloseProfitPips</title>
<polygon fill="white" stroke="transparent" points="-4,4 -4,-84 781,-84 781,4 -4,4"/>
<!-- Node1 -->
<g id="node1" class="node">
<title>Node1</title>
<g id="a_node1"><a xlink:title="Profit in pips if we closed the holdings right now including the approximate fees">
<polygon fill="#bfbfbf" stroke="black" points="0,-19 0,-60 164,-60 164,-19 0,-19"/>
<text text-anchor="start" x="8" y="-48" font-family="Helvetica,sans-Serif" font-size="10.00">QuantConnect.Securities.</text>
<text text-anchor="start" x="8" y="-37" font-family="Helvetica,sans-Serif" font-size="10.00">Forex.ForexHolding.TotalClose</text>
<text text-anchor="middle" x="82" y="-26" font-family="Helvetica,sans-Serif" font-size="10.00">ProfitPips</text>
</a>
</g>
</g>
<!-- Node2 -->
<g id="node2" class="node">
<title>Node2</title>
<g id="a_node2"><a xlink:href="classQuantConnect_1_1Securities_1_1SecurityHolding.html#a4bc70d2b17f24b1f755183e2eeec7674" target="_top" xlink:title="Profit if we closed the holdings right now including the approximate fees in units of the account&#39;s c...">
<polygon fill="white" stroke="black" points="200,-24.5 200,-54.5 373,-54.5 373,-24.5 200,-24.5"/>
<text text-anchor="start" x="208" y="-42.5" font-family="Helvetica,sans-Serif" font-size="10.00">QuantConnect.Securities.</text>
<text text-anchor="middle" x="286.5" y="-31.5" font-family="Helvetica,sans-Serif" font-size="10.00">SecurityHolding.TotalCloseProfit</text>
</a>
</g>
</g>
<!-- Node1&#45;&gt;Node2 -->
<g id="edge1" class="edge">
<title>Node1&#45;&gt;Node2</title>
<path fill="none" stroke="midnightblue" d="M164.2,-39.5C172.66,-39.5 181.32,-39.5 189.92,-39.5"/>
<polygon fill="midnightblue" stroke="midnightblue" points="189.98,-43 199.98,-39.5 189.98,-36 189.98,-43"/>
</g>
<!-- Node3 -->
<g id="node3" class="node">
<title>Node3</title>
<g id="a_node3"><a xlink:href="classQuantConnect_1_1Extensions.html#a3a13bce5beb2126e8a5a89b65b46599f" target="_top" xlink:title="Returns the amount of fee&#39;s charged by executing a market order with the given arguments">
<polygon fill="white" stroke="black" points="428,-49.5 428,-79.5 573,-79.5 573,-49.5 428,-49.5"/>
<text text-anchor="start" x="436" y="-67.5" font-family="Helvetica,sans-Serif" font-size="10.00">QuantConnect.Extensions.</text>
<text text-anchor="middle" x="500.5" y="-56.5" font-family="Helvetica,sans-Serif" font-size="10.00">GetMarketOrderFees</text>
</a>
</g>
</g>
<!-- Node2&#45;&gt;Node3 -->
<g id="edge2" class="edge">
<title>Node2&#45;&gt;Node3</title>
<path fill="none" stroke="midnightblue" d="M373.12,-49.6C387.87,-51.34 403.17,-53.14 417.82,-54.87"/>
<polygon fill="midnightblue" stroke="midnightblue" points="417.49,-58.35 427.84,-56.05 418.31,-51.4 417.49,-58.35"/>
</g>
<!-- Node5 -->
<g id="node5" class="node">
<title>Node5</title>
<g id="a_node5"><a xlink:href="classQuantConnect_1_1Securities_1_1SecurityHolding.html#a88902e4d2b5e59fd73934daa215efb0e" target="_top" xlink:title="Gets the total value of the specified quantity &#160;of shares of this security in the account currency">
<polygon fill="white" stroke="black" points="409,-0.5 409,-30.5 592,-30.5 592,-0.5 409,-0.5"/>
<text text-anchor="start" x="417" y="-18.5" font-family="Helvetica,sans-Serif" font-size="10.00">QuantConnect.Securities.</text>
<text text-anchor="middle" x="500.5" y="-7.5" font-family="Helvetica,sans-Serif" font-size="10.00">SecurityHolding.GetQuantityValue</text>
</a>
</g>
</g>
<!-- Node2&#45;&gt;Node5 -->
<g id="edge4" class="edge">
<title>Node2&#45;&gt;Node5</title>
<path fill="none" stroke="midnightblue" d="M373.12,-29.81C381.54,-28.85 390.15,-27.88 398.7,-26.91"/>
<polygon fill="midnightblue" stroke="midnightblue" points="399.17,-30.38 408.72,-25.78 398.39,-23.42 399.17,-30.38"/>
</g>
<!-- Node4 -->
<g id="node4" class="node">
<title>Node4</title>
<g id="a_node4"><a xlink:href="interfaceQuantConnect_1_1Orders_1_1Fees_1_1IFeeModel.html#ab0bf50e204c8c07f1d37fd7680f23e59" target="_top" xlink:title="Gets the order fee associated with the specified order.">
<polygon fill="white" stroke="black" points="628,-49.5 628,-79.5 777,-79.5 777,-49.5 628,-49.5"/>
<text text-anchor="start" x="636" y="-67.5" font-family="Helvetica,sans-Serif" font-size="10.00">QuantConnect.Orders.Fees.</text>
<text text-anchor="middle" x="702.5" y="-56.5" font-family="Helvetica,sans-Serif" font-size="10.00">IFeeModel.GetOrderFee</text>
</a>
</g>
</g>
<!-- Node3&#45;&gt;Node4 -->
<g id="edge3" class="edge">
<title>Node3&#45;&gt;Node4</title>
<path fill="none" stroke="midnightblue" d="M573.14,-64.5C587.53,-64.5 602.77,-64.5 617.54,-64.5"/>
<polygon fill="midnightblue" stroke="midnightblue" points="617.66,-68 627.66,-64.5 617.66,-61 617.66,-68"/>
</g>
</g>
</svg>
