<?xml version="1.0" encoding="UTF-8" standalone="no"?>
<!DOCTYPE svg PUBLIC "-//W3C//DTD SVG 1.1//EN"
 "http://www.w3.org/Graphics/SVG/1.1/DTD/svg11.dtd">
<!-- Generated by graphviz version 2.43.0 (0)
 -->
<!-- Title: QuantConnect.Brokerages.RBIBrokerageModel.CanSubmitOrder Pages: 1 -->
<svg width="701pt" height="149pt"
 viewBox="0.00 0.00 701.00 148.50" xmlns="http://www.w3.org/2000/svg" xmlns:xlink="http://www.w3.org/1999/xlink">
<g id="graph0" class="graph" transform="scale(1 1) rotate(0) translate(4 144.5)">
<title>QuantConnect.Brokerages.RBIBrokerageModel.CanSubmitOrder</title>
<polygon fill="white" stroke="transparent" points="-4,4 -4,-144.5 697,-144.5 697,4 -4,4"/>
<!-- Node1 -->
<g id="node1" class="node">
<title>Node1</title>
<g id="a_node1"><a xlink:title="Returns true if the brokerage could accept this order. This takes into account order type,...">
<polygon fill="#bfbfbf" stroke="black" points="0,-49.5 0,-79.5 196,-79.5 196,-49.5 0,-49.5"/>
<text text-anchor="start" x="8" y="-67.5" font-family="Helvetica,sans-Serif" font-size="10.00">QuantConnect.Brokerages.</text>
<text text-anchor="middle" x="98" y="-56.5" font-family="Helvetica,sans-Serif" font-size="10.00">RBIBrokerageModel.CanSubmitOrder</text>
</a>
</g>
</g>
<!-- Node2 -->
<g id="node2" class="node">
<title>Node2</title>
<g id="a_node2"><a xlink:href="classQuantConnect_1_1Brokerages_1_1DefaultBrokerageModel.html#aab045cb269fc0ddda72e6c05c280c2d3" target="_top" xlink:title="Checks if the order quantity is valid, it means, the order size is bigger than the minimum size allow...">
<polygon fill="white" stroke="black" points="260.5,-99 260.5,-140 427.5,-140 427.5,-99 260.5,-99"/>
<text text-anchor="start" x="268.5" y="-128" font-family="Helvetica,sans-Serif" font-size="10.00">QuantConnect.Brokerages.</text>
<text text-anchor="start" x="268.5" y="-117" font-family="Helvetica,sans-Serif" font-size="10.00">DefaultBrokerageModel.IsValid</text>
<text text-anchor="middle" x="344" y="-106" font-family="Helvetica,sans-Serif" font-size="10.00">OrderSize</text>
</a>
</g>
</g>
<!-- Node1&#45;&gt;Node2 -->
<g id="edge1" class="edge">
<title>Node1&#45;&gt;Node2</title>
<path fill="none" stroke="midnightblue" d="M165.67,-79.53C191.8,-85.42 222.22,-92.28 250.42,-98.63"/>
<polygon fill="midnightblue" stroke="midnightblue" points="249.76,-102.07 260.29,-100.86 251.3,-95.24 249.76,-102.07"/>
</g>
<!-- Node4 -->
<g id="node4" class="node">
<title>Node4</title>
<g id="a_node4"><a xlink:href="classQuantConnect_1_1Messages_1_1RBIBrokerageModel.html#a27e1bc035234715a4679ee1674e40a07" target="_top" xlink:title="Returns a message for an unsupported order type in RBI Brokerage Model">
<polygon fill="white" stroke="black" points="241,-49.5 241,-79.5 447,-79.5 447,-49.5 241,-49.5"/>
<text text-anchor="start" x="249" y="-67.5" font-family="Helvetica,sans-Serif" font-size="10.00">QuantConnect.Messages.RBIBrokerage</text>
<text text-anchor="middle" x="344" y="-56.5" font-family="Helvetica,sans-Serif" font-size="10.00">Model.UnsupportedOrderType</text>
</a>
</g>
</g>
<!-- Node1&#45;&gt;Node4 -->
<g id="edge3" class="edge">
<title>Node1&#45;&gt;Node4</title>
<path fill="none" stroke="midnightblue" d="M196.14,-64.5C207.55,-64.5 219.26,-64.5 230.85,-64.5"/>
<polygon fill="midnightblue" stroke="midnightblue" points="231,-68 241,-64.5 231,-61 231,-68"/>
</g>
<!-- Node5 -->
<g id="node5" class="node">
<title>Node5</title>
<g id="a_node5"><a xlink:href="classQuantConnect_1_1Messages_1_1DefaultBrokerageModel.html#a1b9fa7f8e1c87b388c646fcef6cdb389" target="_top" xlink:title="Retunrns a string message saying the type of the given security is not supported by the given brokera...">
<polygon fill="white" stroke="black" points="232,-0.5 232,-30.5 456,-30.5 456,-0.5 232,-0.5"/>
<text text-anchor="start" x="240" y="-18.5" font-family="Helvetica,sans-Serif" font-size="10.00">QuantConnect.Messages.Default</text>
<text text-anchor="middle" x="344" y="-7.5" font-family="Helvetica,sans-Serif" font-size="10.00">BrokerageModel.UnsupportedSecurityType</text>
</a>
</g>
</g>
<!-- Node1&#45;&gt;Node5 -->
<g id="edge4" class="edge">
<title>Node1&#45;&gt;Node5</title>
<path fill="none" stroke="midnightblue" d="M173.87,-49.47C200.57,-44.1 230.83,-38.03 258.29,-32.51"/>
<polygon fill="midnightblue" stroke="midnightblue" points="259.16,-35.91 268.28,-30.51 257.78,-29.04 259.16,-35.91"/>
</g>
<!-- Node3 -->
<g id="node3" class="node">
<title>Node3</title>
<g id="a_node3"><a xlink:href="classQuantConnect_1_1Messages_1_1DefaultBrokerageModel.html#ad5fe70a9d5974d5c9fb72a7cf4b0cdb0" target="_top" xlink:title="Returns a string message saying the quantity given was invalid for the given security">
<polygon fill="white" stroke="black" points="492,-104.5 492,-134.5 693,-134.5 693,-104.5 492,-104.5"/>
<text text-anchor="start" x="500" y="-122.5" font-family="Helvetica,sans-Serif" font-size="10.00">QuantConnect.Messages.Default</text>
<text text-anchor="middle" x="592.5" y="-111.5" font-family="Helvetica,sans-Serif" font-size="10.00">BrokerageModel.InvalidOrderQuantity</text>
</a>
</g>
</g>
<!-- Node2&#45;&gt;Node3 -->
<g id="edge2" class="edge">
<title>Node2&#45;&gt;Node3</title>
<path fill="none" stroke="midnightblue" d="M427.77,-119.5C445.11,-119.5 463.67,-119.5 481.82,-119.5"/>
<polygon fill="midnightblue" stroke="midnightblue" points="481.85,-123 491.85,-119.5 481.85,-116 481.85,-123"/>
</g>
</g>
</svg>
