<?xml version="1.0" encoding="UTF-8" standalone="no"?>
<!DOCTYPE svg PUBLIC "-//W3C//DTD SVG 1.1//EN"
 "http://www.w3.org/Graphics/SVG/1.1/DTD/svg11.dtd">
<!-- Generated by graphviz version 2.43.0 (0)
 -->
<!-- Title: QuantConnect.Util.ObjectActivator.AddActivator Pages: 1 -->
<svg width="590pt" height="78pt"
 viewBox="0.00 0.00 590.00 77.50" xmlns="http://www.w3.org/2000/svg" xmlns:xlink="http://www.w3.org/1999/xlink">
<g id="graph0" class="graph" transform="scale(1 1) rotate(0) translate(4 73.5)">
<title>QuantConnect.Util.ObjectActivator.AddActivator</title>
<polygon fill="white" stroke="transparent" points="-4,4 -4,-73.5 586,-73.5 586,4 -4,4"/>
<!-- Node1 -->
<g id="node1" class="node">
<title>Node1</title>
<g id="a_node1"><a xlink:title="Adds method to return an instance of object">
<polygon fill="#bfbfbf" stroke="black" points="442,-17 442,-47 582,-47 582,-17 442,-17"/>
<text text-anchor="start" x="450" y="-35" font-family="Helvetica,sans-Serif" font-size="10.00">QuantConnect.Util.Object</text>
<text text-anchor="middle" x="512" y="-24" font-family="Helvetica,sans-Serif" font-size="10.00">Activator.AddActivator</text>
</a>
</g>
</g>
<!-- Node2 -->
<g id="node2" class="node">
<title>Node2</title>
<g id="a_node2"><a xlink:href="classQuantConnect_1_1Extensions.html#addaac2d24d103331d55443b8306cc8ba" target="_top" xlink:title="Creates a type with a given name, if PyObject is not a CLR type. Otherwise, convert it.">
<polygon fill="white" stroke="black" points="261,-17 261,-47 406,-47 406,-17 261,-17"/>
<text text-anchor="start" x="269" y="-35" font-family="Helvetica,sans-Serif" font-size="10.00">QuantConnect.Extensions.</text>
<text text-anchor="middle" x="333.5" y="-24" font-family="Helvetica,sans-Serif" font-size="10.00">CreateType</text>
</a>
</g>
</g>
<!-- Node1&#45;&gt;Node2 -->
<g id="edge1" class="edge">
<title>Node1&#45;&gt;Node2</title>
<path fill="none" stroke="midnightblue" d="M431.52,-32C423.07,-32 414.52,-32 406.17,-32"/>
<polygon fill="midnightblue" stroke="midnightblue" points="431.75,-35.5 441.75,-32 431.75,-28.5 431.75,-35.5"/>
</g>
<!-- Node3 -->
<g id="node3" class="node">
<title>Node3</title>
<g id="a_node3"><a xlink:href="classQuantConnect_1_1Algorithm_1_1QCAlgorithm.html#aa0786dcef0defab6dce7221106134479" target="_top" xlink:title="Register a command type to be used">
<polygon fill="white" stroke="black" points="10,-39 10,-69 215,-69 215,-39 10,-39"/>
<text text-anchor="start" x="18" y="-57" font-family="Helvetica,sans-Serif" font-size="10.00">QuantConnect.Algorithm.QCAlgorithm.</text>
<text text-anchor="middle" x="112.5" y="-46" font-family="Helvetica,sans-Serif" font-size="10.00">AddCommand</text>
</a>
</g>
</g>
<!-- Node2&#45;&gt;Node3 -->
<g id="edge2" class="edge">
<title>Node2&#45;&gt;Node3</title>
<path fill="none" stroke="midnightblue" d="M250.73,-40.21C239.13,-41.38 227.09,-42.59 215.17,-43.79"/>
<polygon fill="midnightblue" stroke="midnightblue" points="251.19,-43.69 260.79,-39.2 250.49,-36.72 251.19,-43.69"/>
</g>
<!-- Node4 -->
<g id="node4" class="node">
<title>Node4</title>
<g id="a_node4"><a xlink:href="classQuantConnect_1_1Algorithm_1_1QCAlgorithm.html#a1b504c54c75177db916ce20481477eb9" target="_top" xlink:title="Get an authenticated link to execute the given command instance">
<polygon fill="white" stroke="black" points="0,-0.5 0,-19.5 225,-19.5 225,-0.5 0,-0.5"/>
<text text-anchor="middle" x="112.5" y="-7.5" font-family="Helvetica,sans-Serif" font-size="10.00">QuantConnect.Algorithm.QCAlgorithm.Link</text>
</a>
</g>
</g>
<!-- Node2&#45;&gt;Node4 -->
<g id="edge3" class="edge">
<title>Node2&#45;&gt;Node4</title>
<path fill="none" stroke="midnightblue" d="M250.78,-23.79C236.86,-22.39 222.3,-20.93 208.08,-19.5"/>
<polygon fill="midnightblue" stroke="midnightblue" points="250.49,-27.28 260.79,-24.8 251.19,-20.31 250.49,-27.28"/>
</g>
</g>
</svg>
