<?xml version="1.0" encoding="UTF-8" standalone="no"?>
<!DOCTYPE svg PUBLIC "-//W3C//DTD SVG 1.1//EN"
 "http://www.w3.org/Graphics/SVG/1.1/DTD/svg11.dtd">
<!-- Generated by graphviz version 2.43.0 (0)
 -->
<!-- Title: QuantConnect.Configuration.Config.GetBool Pages: 1 -->
<!--zoomable 345 -->
<svg id="main" version="1.1" xmlns="http://www.w3.org/2000/svg" xmlns:xlink="http://www.w3.org/1999/xlink" xml:space="preserve" onload="init(evt)">
<style type="text/css"><![CDATA[
.edge:hover path { stroke: red; }
.edge:hover polygon { stroke: red; fill: red; }
]]></style>
<script type="text/javascript"><![CDATA[
var edges = document.getElementsByTagName('g');
if (edges && edges.length) {
  for (var i=0;i<edges.length;i++) {
    if (edges[i].id.substr(0,4)=='edge') {
      edges[i].setAttribute('class','edge');
    }
  }
}
]]></script>
        <defs>
                <circle id="rim" cx="0" cy="0" r="7"/>
                <circle id="rim2" cx="0" cy="0" r="3.5"/>
                <g id="zoomPlus">
                        <use xlink:href="#rim" fill="#404040">
                                <set attributeName="fill" to="#808080" begin="zoomplus.mouseover" end="zoomplus.mouseout"/>
                        </use>
                        <path d="M-4,0h8M0,-4v8" fill="none" stroke="white" stroke-width="1.5" pointer-events="none"/>
                </g>
                <g id="zoomMin">
                        <use xlink:href="#rim" fill="#404040">
                                <set attributeName="fill" to="#808080" begin="zoomminus.mouseover" end="zoomminus.mouseout"/>
                        </use>
                        <path d="M-4,0h8" fill="none" stroke="white" stroke-width="1.5" pointer-events="none"/>
                </g>
                <g id="dirArrow">
                        <path fill="none" stroke="white" stroke-width="1.5" d="M0,-3.0v7 M-2.5,-0.5L0,-3.0L2.5,-0.5"/>
                </g>
               <g id="resetDef">
                       <use xlink:href="#rim2" fill="#404040">
                               <set attributeName="fill" to="#808080" begin="reset.mouseover" end="reset.mouseout"/>
                       </use>
               </g>
        </defs>

<script type="text/javascript">
var viewWidth = 607;
var viewHeight = 345;
var sectionId = 'dynsection-9';
</script>
<script xlink:href="svgpan.js"/>
<svg id="graph" class="graph">
<g id="viewport">
<title>QuantConnect.Configuration.Config.GetBool</title>
<polygon fill="white" stroke="transparent" points="-4,4 -4,-341 603,-341 603,4 -4,4"/>
<!-- Node1 -->
<g id="node1" class="node">
<title>Node1</title>
<g id="a_node1"><a xlink:title="Get a boolean value configuration setting by a configuration key.">
<polygon fill="#bfbfbf" stroke="black" points="442,-131.5 442,-161.5 599,-161.5 599,-131.5 442,-131.5"/>
<text text-anchor="start" x="450" y="-149.5" font-family="Helvetica,sans-Serif" font-size="10.00">QuantConnect.Configuration.</text>
<text text-anchor="middle" x="520.5" y="-138.5" font-family="Helvetica,sans-Serif" font-size="10.00">Config.GetBool</text>
</a>
</g>
</g>
<!-- Node2 -->
<g id="node2" class="node">
<title>Node2</title>
<g id="a_node2"><a xlink:href="classQuantConnect_1_1Queues_1_1JobQueue.html#a567de7b1f71a467b86bcd2639c70c659" target="_top" xlink:title="Desktop/Local acknowledge the task processed. Nothing to do.">
<polygon fill="white" stroke="black" points="224.5,-306.5 224.5,-336.5 402.5,-336.5 402.5,-306.5 224.5,-306.5"/>
<text text-anchor="start" x="232.5" y="-324.5" font-family="Helvetica,sans-Serif" font-size="10.00">QuantConnect.Queues.JobQueue.</text>
<text text-anchor="middle" x="313.5" y="-313.5" font-family="Helvetica,sans-Serif" font-size="10.00">AcknowledgeJob</text>
</a>
</g>
</g>
<!-- Node1&#45;&gt;Node2 -->
<g id="edge1" class="edge">
<title>Node1&#45;&gt;Node2</title>
<path fill="none" stroke="midnightblue" d="M507.56,-171.01C490,-204.48 454,-264.02 406,-296.5 400.27,-300.38 393.96,-303.65 387.41,-306.42"/>
<polygon fill="midnightblue" stroke="midnightblue" points="510.78,-172.41 512.22,-161.91 504.55,-169.22 510.78,-172.41"/>
</g>
<!-- Node3 -->
<g id="node3" class="node">
<title>Node3</title>
<g id="a_node3"><a xlink:href="classQuantConnect_1_1Lean_1_1Engine_1_1Results_1_1RegressionResultHandler.html#ade656801b5499dab8c205dd6a57cf236" target="_top" xlink:title="We want to make algorithm messages end up in both the standard regression log file {algorithm}....">
<polygon fill="white" stroke="black" points="223,-246 223,-287 404,-287 404,-246 223,-246"/>
<text text-anchor="start" x="231" y="-275" font-family="Helvetica,sans-Serif" font-size="10.00">QuantConnect.Lean.Engine.</text>
<text text-anchor="start" x="231" y="-264" font-family="Helvetica,sans-Serif" font-size="10.00">Results.RegressionResultHandler.</text>
<text text-anchor="middle" x="313.5" y="-253" font-family="Helvetica,sans-Serif" font-size="10.00">ConfigureConsoleTextWriter</text>
</a>
</g>
</g>
<!-- Node1&#45;&gt;Node3 -->
<g id="edge2" class="edge">
<title>Node1&#45;&gt;Node3</title>
<path fill="none" stroke="midnightblue" d="M496.83,-168.52C475.07,-188.61 440.52,-217.93 406,-236.5 399.67,-239.91 392.88,-243.01 385.98,-245.83"/>
<polygon fill="midnightblue" stroke="midnightblue" points="499.34,-170.96 504.24,-161.57 494.55,-165.85 499.34,-170.96"/>
</g>
<!-- Node4 -->
<g id="node4" class="node">
<title>Node4</title>
<g id="a_node4"><a xlink:href="classQuantConnect_1_1Lean_1_1Engine_1_1Results_1_1BacktestingResultHandler.html#a3d67960a346455c56df5a6bc8aca0d9d" target="_top" xlink:title="Configures the Console.Out and Console.Error TextWriter instances. By default, we forward Console....">
<polygon fill="white" stroke="black" points="221,-186 221,-227 406,-227 406,-186 221,-186"/>
<text text-anchor="start" x="229" y="-215" font-family="Helvetica,sans-Serif" font-size="10.00">QuantConnect.Lean.Engine.</text>
<text text-anchor="start" x="229" y="-204" font-family="Helvetica,sans-Serif" font-size="10.00">Results.BacktestingResultHandler.</text>
<text text-anchor="middle" x="313.5" y="-193" font-family="Helvetica,sans-Serif" font-size="10.00">ConfigureConsoleTextWriter</text>
</a>
</g>
</g>
<!-- Node1&#45;&gt;Node4 -->
<g id="edge3" class="edge">
<title>Node1&#45;&gt;Node4</title>
<path fill="none" stroke="midnightblue" d="M458.32,-164.41C435.12,-171.2 408.53,-178.98 384.58,-185.99"/>
<polygon fill="midnightblue" stroke="midnightblue" points="459.42,-167.73 468.03,-161.56 457.45,-161.01 459.42,-167.73"/>
</g>
<!-- Node6 -->
<g id="node6" class="node">
<title>Node6</title>
<g id="a_node6"><a xlink:href="classQuantConnect_1_1Lean_1_1Engine_1_1Setup_1_1BacktestingSetupHandler.html#abf6f082a6ab52726b44468da7ca26d96" target="_top" xlink:title="Create a new instance of an algorithm from a physical dll path.">
<polygon fill="white" stroke="black" points="227,-126 227,-167 400,-167 400,-126 227,-126"/>
<text text-anchor="start" x="235" y="-155" font-family="Helvetica,sans-Serif" font-size="10.00">QuantConnect.Lean.Engine.</text>
<text text-anchor="start" x="235" y="-144" font-family="Helvetica,sans-Serif" font-size="10.00">Setup.BacktestingSetupHandler.</text>
<text text-anchor="middle" x="313.5" y="-133" font-family="Helvetica,sans-Serif" font-size="10.00">CreateAlgorithmInstance</text>
</a>
</g>
</g>
<!-- Node1&#45;&gt;Node6 -->
<g id="edge5" class="edge">
<title>Node1&#45;&gt;Node6</title>
<path fill="none" stroke="midnightblue" d="M431.69,-146.5C421.3,-146.5 410.71,-146.5 400.34,-146.5"/>
<polygon fill="midnightblue" stroke="midnightblue" points="432,-150 442,-146.5 432,-143 432,-150"/>
</g>
<!-- Node7 -->
<g id="node7" class="node">
<title>Node7</title>
<g id="a_node7"><a xlink:href="classProgram.html#a9fcf1ef5c265aa471a7b8d45bc0fb193" target="_top" xlink:title="Initializes various configurations for the application. This method sets up logging,...">
<polygon fill="white" stroke="black" points="227,-88 227,-107 400,-107 400,-88 227,-88"/>
<text text-anchor="middle" x="313.5" y="-95" font-family="Helvetica,sans-Serif" font-size="10.00">Program.InitializeConfigurations</text>
</a>
</g>
</g>
<!-- Node1&#45;&gt;Node7 -->
<g id="edge6" class="edge">
<title>Node1&#45;&gt;Node7</title>
<path fill="none" stroke="midnightblue" d="M455.27,-128.88C439.22,-124.66 422.02,-120.28 406,-116.5 392.1,-113.22 376.95,-109.95 363.04,-107.07"/>
<polygon fill="midnightblue" stroke="midnightblue" points="454.53,-132.31 465.09,-131.49 456.32,-125.54 454.53,-132.31"/>
</g>
<!-- Node9 -->
<g id="node9" class="node">
<title>Node9</title>
<g id="a_node9"><a xlink:href="classQuantConnect_1_1Globals.html#a2aae16e1ae5048f0db1dcc7d9a1e9b46" target="_top" xlink:title="Resets global values with the Config data.">
<polygon fill="white" stroke="black" points="235.5,-50 235.5,-69 391.5,-69 391.5,-50 235.5,-50"/>
<text text-anchor="middle" x="313.5" y="-57" font-family="Helvetica,sans-Serif" font-size="10.00">QuantConnect.Globals.Reset</text>
</a>
</g>
</g>
<!-- Node1&#45;&gt;Node9 -->
<g id="edge8" class="edge">
<title>Node1&#45;&gt;Node9</title>
<path fill="none" stroke="midnightblue" d="M490.98,-125.72C468.83,-110.51 436.79,-90.52 406,-78.5 396.18,-74.66 385.44,-71.55 374.89,-69.04"/>
<polygon fill="midnightblue" stroke="midnightblue" points="489.05,-128.64 499.26,-131.49 493.06,-122.9 489.05,-128.64"/>
</g>
<!-- Node10 -->
<g id="node10" class="node">
<title>Node10</title>
<g id="a_node10"><a xlink:href="classQuantConnect_1_1Lean_1_1Engine_1_1Initializer.html#a9bf25f03ea7c7f01843b04ca0845a2e5" target="_top" xlink:title="Basic common Lean initialization">
<polygon fill="white" stroke="black" points="238,-0.5 238,-30.5 389,-30.5 389,-0.5 238,-0.5"/>
<text text-anchor="start" x="246" y="-18.5" font-family="Helvetica,sans-Serif" font-size="10.00">QuantConnect.Lean.Engine.</text>
<text text-anchor="middle" x="313.5" y="-7.5" font-family="Helvetica,sans-Serif" font-size="10.00">Initializer.Start</text>
</a>
</g>
</g>
<!-- Node1&#45;&gt;Node10 -->
<g id="edge9" class="edge">
<title>Node1&#45;&gt;Node10</title>
<path fill="none" stroke="midnightblue" d="M500.91,-123.49C480.2,-99.35 444.54,-62.01 406,-40.5 399.1,-36.65 391.57,-33.36 383.89,-30.56"/>
<polygon fill="midnightblue" stroke="midnightblue" points="498.47,-126.03 507.59,-131.42 503.83,-121.52 498.47,-126.03"/>
</g>
<!-- Node5 -->
<g id="node5" class="node">
<title>Node5</title>
<g id="a_node5"><a xlink:href="classQuantConnect_1_1Lean_1_1Engine_1_1Results_1_1BacktestingResultHandler.html#a187cf964394ce96cafca9a1048e9b143" target="_top" xlink:title="Set the Algorithm instance for ths result.">
<polygon fill="white" stroke="black" points="0,-186 0,-227 185,-227 185,-186 0,-186"/>
<text text-anchor="start" x="8" y="-215" font-family="Helvetica,sans-Serif" font-size="10.00">QuantConnect.Lean.Engine.</text>
<text text-anchor="start" x="8" y="-204" font-family="Helvetica,sans-Serif" font-size="10.00">Results.BacktestingResultHandler.</text>
<text text-anchor="middle" x="92.5" y="-193" font-family="Helvetica,sans-Serif" font-size="10.00">SetAlgorithm</text>
</a>
</g>
</g>
<!-- Node4&#45;&gt;Node5 -->
<g id="edge4" class="edge">
<title>Node4&#45;&gt;Node5</title>
<path fill="none" stroke="midnightblue" d="M210.85,-206.5C202.26,-206.5 193.6,-206.5 185.09,-206.5"/>
<polygon fill="midnightblue" stroke="midnightblue" points="210.89,-210 220.89,-206.5 210.89,-203 210.89,-210"/>
</g>
<!-- Node8 -->
<g id="node8" class="node">
<title>Node8</title>
<g id="a_node8"><a xlink:href="classProgram.html#ada72f8d1518f89bc2e6ad807d5059564" target="_top" xlink:title="The main entry point for the application.">
<polygon fill="white" stroke="black" points="50,-88 50,-107 135,-107 135,-88 50,-88"/>
<text text-anchor="middle" x="92.5" y="-95" font-family="Helvetica,sans-Serif" font-size="10.00">Program.Main</text>
</a>
</g>
</g>
<!-- Node7&#45;&gt;Node8 -->
<g id="edge7" class="edge">
<title>Node7&#45;&gt;Node8</title>
<path fill="none" stroke="midnightblue" d="M216.83,-97.5C188.19,-97.5 158.27,-97.5 135.07,-97.5"/>
<polygon fill="midnightblue" stroke="midnightblue" points="216.89,-101 226.89,-97.5 216.89,-94 216.89,-101"/>
</g>
</g>
</svg>
        <g id="navigator" transform="translate(0 0)" fill="#404254">
                <rect fill="#f2f5e9" fill-opacity="0.5" stroke="#606060" stroke-width=".5" x="0" y="0" width="60" height="60"/>
                <use id="zoomplus" xlink:href="#zoomPlus" x="17" y="9" onmousedown="handleZoom(evt,'in')"/>
                <use id="zoomminus" xlink:href="#zoomMin" x="42" y="9" onmousedown="handleZoom(evt,'out')"/>
                <use id="reset" xlink:href="#resetDef" x="30" y="36" onmousedown="handleReset()"/>
                <g id="arrowUp" xlink:href="#dirArrow" transform="translate(30 24)" onmousedown="handlePan(0,-1)">
                  <use xlink:href="#rim" fill="#404040">
                        <set attributeName="fill" to="#808080" begin="arrowUp.mouseover" end="arrowUp.mouseout"/>
                  </use>
                  <path fill="none" stroke="white" stroke-width="1.5" d="M0,-3.0v7 M-2.5,-0.5L0,-3.0L2.5,-0.5"/>
                </g>
                <g id="arrowRight" xlink:href="#dirArrow" transform="rotate(90) translate(36 -43)" onmousedown="handlePan(1,0)">
                  <use xlink:href="#rim" fill="#404040">
                        <set attributeName="fill" to="#808080" begin="arrowRight.mouseover" end="arrowRight.mouseout"/>
                  </use>
                  <path fill="none" stroke="white" stroke-width="1.5" d="M0,-3.0v7 M-2.5,-0.5L0,-3.0L2.5,-0.5"/>
                </g>
                <g id="arrowDown" xlink:href="#dirArrow" transform="rotate(180) translate(-30 -48)" onmousedown="handlePan(0,1)">
                  <use xlink:href="#rim" fill="#404040">
                        <set attributeName="fill" to="#808080" begin="arrowDown.mouseover" end="arrowDown.mouseout"/>
                  </use>
                  <path fill="none" stroke="white" stroke-width="1.5" d="M0,-3.0v7 M-2.5,-0.5L0,-3.0L2.5,-0.5"/>
                </g>
                <g id="arrowLeft" xlink:href="#dirArrow" transform="rotate(270) translate(-36 17)" onmousedown="handlePan(-1,0)">
                  <use xlink:href="#rim" fill="#404040">
                        <set attributeName="fill" to="#808080" begin="arrowLeft.mouseover" end="arrowLeft.mouseout"/>
                  </use>
                  <path fill="none" stroke="white" stroke-width="1.5" d="M0,-3.0v7 M-2.5,-0.5L0,-3.0L2.5,-0.5"/>
                </g>
        </g>
        <svg viewBox="0 0 15 15" width="100%" height="30px" preserveAspectRatio="xMaxYMin meet">
         <g id="arrow_out" transform="scale(0.3 0.3)">
          <a xlink:href="classQuantConnect_1_1Configuration_1_1Config_a1b3f6bb930cb6c34d2ce7dffcdd2605c_icgraph_org.svg" target="_base">
           <rect id="button" ry="5" rx="5" y="6" x="6" height="38" width="38"
                fill="#f2f5e9" fill-opacity="0.5" stroke="#606060" stroke-width="1.0"/>
           <path id="arrow"
             d="M 11.500037,31.436501 C 11.940474,20.09759 22.043105,11.32322 32.158766,21.979434 L 37.068811,17.246167 C 37.068811,17.246167 37.088388,32 37.088388,32 L 22.160133,31.978069 C 22.160133,31.978069 26.997745,27.140456 26.997745,27.140456 C 18.528582,18.264221 13.291696,25.230495 11.500037,31.436501 z"
             style="fill:#404040;"/>
          </a>
         </g>
        </svg>
</svg>
