<?xml version="1.0" encoding="UTF-8" standalone="no"?>
<!DOCTYPE svg PUBLIC "-//W3C//DTD SVG 1.1//EN"
 "http://www.w3.org/Graphics/SVG/1.1/DTD/svg11.dtd">
<!-- Generated by graphviz version 2.43.0 (0)
 -->
<!-- Title: QuantConnect.Securities.Option.OptionStrategies.BoxSpread Pages: 1 -->
<svg width="395pt" height="50pt"
 viewBox="0.00 0.00 395.00 50.00" xmlns="http://www.w3.org/2000/svg" xmlns:xlink="http://www.w3.org/1999/xlink">
<g id="graph0" class="graph" transform="scale(1 1) rotate(0) translate(4 46)">
<title>QuantConnect.Securities.Option.OptionStrategies.BoxSpread</title>
<polygon fill="white" stroke="transparent" points="-4,4 -4,-46 391,-46 391,4 -4,4"/>
<!-- Node1 -->
<g id="node1" class="node">
<title>Node1</title>
<g id="a_node1"><a xlink:title="Creates a Box Spread strategy which consists of a long call and a short put (buy side) of the same st...">
<polygon fill="#bfbfbf" stroke="black" points="198,-6 198,-36 387,-36 387,-6 198,-6"/>
<text text-anchor="start" x="206" y="-24" font-family="Helvetica,sans-Serif" font-size="10.00">QuantConnect.Securities.</text>
<text text-anchor="middle" x="292.5" y="-13" font-family="Helvetica,sans-Serif" font-size="10.00">Option.OptionStrategies.BoxSpread</text>
</a>
</g>
</g>
<!-- Node2 -->
<g id="node2" class="node">
<title>Node2</title>
<g id="a_node2"><a xlink:href="classQuantConnect_1_1Securities_1_1Option_1_1OptionStrategies.html#a72e08a8355fae19062d7c5708368efff" target="_top" xlink:title="Creates a Short Box Spread strategy which consists of a long call and a short put (buy side) of the s...">
<polygon fill="white" stroke="black" points="0,-0.5 0,-41.5 162,-41.5 162,-0.5 0,-0.5"/>
<text text-anchor="start" x="8" y="-29.5" font-family="Helvetica,sans-Serif" font-size="10.00">QuantConnect.Securities.</text>
<text text-anchor="start" x="8" y="-18.5" font-family="Helvetica,sans-Serif" font-size="10.00">Option.OptionStrategies.Short</text>
<text text-anchor="middle" x="81" y="-7.5" font-family="Helvetica,sans-Serif" font-size="10.00">BoxSpread</text>
</a>
</g>
</g>
<!-- Node1&#45;&gt;Node2 -->
<g id="edge1" class="edge">
<title>Node1&#45;&gt;Node2</title>
<path fill="none" stroke="midnightblue" d="M187.73,-21C179.15,-21 170.56,-21 162.2,-21"/>
<polygon fill="midnightblue" stroke="midnightblue" points="187.78,-24.5 197.78,-21 187.78,-17.5 187.78,-24.5"/>
</g>
</g>
</svg>
