<?xml version="1.0" encoding="UTF-8" standalone="no"?>
<!DOCTYPE svg PUBLIC "-//W3C//DTD SVG 1.1//EN"
 "http://www.w3.org/Graphics/SVG/1.1/DTD/svg11.dtd">
<!-- Generated by graphviz version 2.43.0 (0)
 -->
<!-- Title: QuantConnect.Lean.Engine.DataFeeds.SubscriptionUtils.CreateAndScheduleWorker Pages: 1 -->
<!--zoomable 370 -->
<svg id="main" version="1.1" xmlns="http://www.w3.org/2000/svg" xmlns:xlink="http://www.w3.org/1999/xlink" xml:space="preserve" onload="init(evt)">
<style type="text/css"><![CDATA[
.edge:hover path { stroke: red; }
.edge:hover polygon { stroke: red; fill: red; }
]]></style>
<script type="text/javascript"><![CDATA[
var edges = document.getElementsByTagName('g');
if (edges && edges.length) {
  for (var i=0;i<edges.length;i++) {
    if (edges[i].id.substr(0,4)=='edge') {
      edges[i].setAttribute('class','edge');
    }
  }
}
]]></script>
        <defs>
                <circle id="rim" cx="0" cy="0" r="7"/>
                <circle id="rim2" cx="0" cy="0" r="3.5"/>
                <g id="zoomPlus">
                        <use xlink:href="#rim" fill="#404040">
                                <set attributeName="fill" to="#808080" begin="zoomplus.mouseover" end="zoomplus.mouseout"/>
                        </use>
                        <path d="M-4,0h8M0,-4v8" fill="none" stroke="white" stroke-width="1.5" pointer-events="none"/>
                </g>
                <g id="zoomMin">
                        <use xlink:href="#rim" fill="#404040">
                                <set attributeName="fill" to="#808080" begin="zoomminus.mouseover" end="zoomminus.mouseout"/>
                        </use>
                        <path d="M-4,0h8" fill="none" stroke="white" stroke-width="1.5" pointer-events="none"/>
                </g>
                <g id="dirArrow">
                        <path fill="none" stroke="white" stroke-width="1.5" d="M0,-3.0v7 M-2.5,-0.5L0,-3.0L2.5,-0.5"/>
                </g>
               <g id="resetDef">
                       <use xlink:href="#rim2" fill="#404040">
                               <set attributeName="fill" to="#808080" begin="reset.mouseover" end="reset.mouseout"/>
                       </use>
               </g>
        </defs>

<script type="text/javascript">
var viewWidth = 1087;
var viewHeight = 370;
var sectionId = 'dynsection-1';
</script>
<script xlink:href="svgpan.js"/>
<svg id="graph" class="graph">
<g id="viewport">
<title>QuantConnect.Lean.Engine.DataFeeds.SubscriptionUtils.CreateAndScheduleWorker</title>
<polygon fill="white" stroke="transparent" points="-4,4 -4,-365.5 1083,-365.5 1083,4 -4,4"/>
<!-- Node1 -->
<g id="node1" class="node">
<title>Node1</title>
<g id="a_node1"><a xlink:title="Setups a new Subscription which will consume a blocking EnqueueableEnumerator&lt;T&gt; that will be feed by...">
<polygon fill="#bfbfbf" stroke="black" points="0,-79.5 0,-120.5 189,-120.5 189,-79.5 0,-79.5"/>
<text text-anchor="start" x="8" y="-108.5" font-family="Helvetica,sans-Serif" font-size="10.00">QuantConnect.Lean.Engine.</text>
<text text-anchor="start" x="8" y="-97.5" font-family="Helvetica,sans-Serif" font-size="10.00">DataFeeds.SubscriptionUtils.Create</text>
<text text-anchor="middle" x="94.5" y="-86.5" font-family="Helvetica,sans-Serif" font-size="10.00">AndScheduleWorker</text>
</a>
</g>
</g>
<!-- Node2 -->
<g id="node2" class="node">
<title>Node2</title>
<g id="a_node2"><a xlink:href="classQuantConnect_1_1Lean_1_1Engine_1_1DataFeeds_1_1SubscriptionData.html#ad92a6b0d165cc21e6186648e74db9614" target="_top" xlink:title="Clones the data, computes the utc emit time and performs exchange round down behavior,...">
<polygon fill="white" stroke="black" points="229,-208 229,-238 419,-238 419,-208 229,-208"/>
<text text-anchor="start" x="237" y="-226" font-family="Helvetica,sans-Serif" font-size="10.00">QuantConnect.Lean.Engine.</text>
<text text-anchor="middle" x="324" y="-215" font-family="Helvetica,sans-Serif" font-size="10.00">DataFeeds.SubscriptionData.Create</text>
</a>
</g>
</g>
<!-- Node1&#45;&gt;Node2 -->
<g id="edge1" class="edge">
<title>Node1&#45;&gt;Node2</title>
<path fill="none" stroke="midnightblue" d="M133.58,-120.59C176.03,-143.54 244.22,-180.41 286.16,-203.08"/>
<polygon fill="midnightblue" stroke="midnightblue" points="284.75,-206.3 295.21,-207.97 288.07,-200.14 284.75,-206.3"/>
</g>
<!-- Node11 -->
<g id="node11" class="node">
<title>Node11</title>
<g id="a_node11"><a xlink:href="classQuantConnect_1_1Logging_1_1Log.html#af0e7955911bc7664b37661b2a303a9e3" target="_top" xlink:title="Log error">
<polygon fill="white" stroke="black" points="249,-110 249,-140 399,-140 399,-110 249,-110"/>
<text text-anchor="start" x="257" y="-128" font-family="Helvetica,sans-Serif" font-size="10.00">QuantConnect.Logging.Log.</text>
<text text-anchor="middle" x="324" y="-117" font-family="Helvetica,sans-Serif" font-size="10.00">Error</text>
</a>
</g>
</g>
<!-- Node1&#45;&gt;Node11 -->
<g id="edge10" class="edge">
<title>Node1&#45;&gt;Node11</title>
<path fill="none" stroke="midnightblue" d="M189.02,-110.28C205.56,-112.09 222.69,-113.98 238.96,-115.76"/>
<polygon fill="midnightblue" stroke="midnightblue" points="238.63,-119.25 248.95,-116.86 239.4,-112.29 238.63,-119.25"/>
</g>
<!-- Node13 -->
<g id="node13" class="node">
<title>Node13</title>
<g id="a_node13"><a xlink:href="interfaceQuantConnect_1_1Interfaces_1_1IFactorFileProvider.html#abb71d95ca43dceef129a4c55e255fff7" target="_top" xlink:title="Gets a FactorFile&lt;T&gt; instance for the specified symbol, or null if not found">
<polygon fill="white" stroke="black" points="254,-61 254,-91 394,-91 394,-61 254,-61"/>
<text text-anchor="start" x="262" y="-79" font-family="Helvetica,sans-Serif" font-size="10.00">QuantConnect.Interfaces.</text>
<text text-anchor="middle" x="324" y="-68" font-family="Helvetica,sans-Serif" font-size="10.00">IFactorFileProvider.Get</text>
</a>
</g>
</g>
<!-- Node1&#45;&gt;Node13 -->
<g id="edge12" class="edge">
<title>Node1&#45;&gt;Node13</title>
<path fill="none" stroke="midnightblue" d="M189.02,-90.13C207.15,-88.22 225.99,-86.23 243.62,-84.37"/>
<polygon fill="midnightblue" stroke="midnightblue" points="244.27,-87.83 253.84,-83.3 243.53,-80.86 244.27,-87.83"/>
</g>
<!-- Node14 -->
<g id="node14" class="node">
<title>Node14</title>
<g id="a_node14"><a xlink:href="classQuantConnect_1_1Lean_1_1Engine_1_1DataFeeds_1_1WorkScheduling_1_1WeightedWorkScheduler.html#a774828e91208c56770b999f6c20f3654" target="_top" xlink:title="Add a new work item to the queue">
<polygon fill="white" stroke="black" points="225,-0.5 225,-41.5 423,-41.5 423,-0.5 225,-0.5"/>
<text text-anchor="start" x="233" y="-29.5" font-family="Helvetica,sans-Serif" font-size="10.00">QuantConnect.Lean.Engine.</text>
<text text-anchor="start" x="233" y="-18.5" font-family="Helvetica,sans-Serif" font-size="10.00">DataFeeds.WorkScheduling.Weighted</text>
<text text-anchor="middle" x="324" y="-7.5" font-family="Helvetica,sans-Serif" font-size="10.00">WorkScheduler.QueueWork</text>
</a>
</g>
</g>
<!-- Node1&#45;&gt;Node14 -->
<g id="edge13" class="edge">
<title>Node1&#45;&gt;Node14</title>
<path fill="none" stroke="midnightblue" d="M147.52,-79.44C171.05,-70.36 199.3,-59.79 225,-51 231.28,-48.85 237.81,-46.7 244.38,-44.58"/>
<polygon fill="midnightblue" stroke="midnightblue" points="245.55,-47.88 254.02,-41.5 243.43,-41.21 245.55,-47.88"/>
</g>
<!-- Node3 -->
<g id="node3" class="node">
<title>Node3</title>
<g id="a_node3"><a xlink:href="classQuantConnect_1_1Data_1_1BaseData.html#af8622cdfef34470fda9fd08d2f4c02b7" target="_top" xlink:title="Return a new instance clone of this object, used in fill forward">
<polygon fill="white" stroke="black" points="497,-331 497,-361 662,-361 662,-331 497,-331"/>
<text text-anchor="start" x="505" y="-349" font-family="Helvetica,sans-Serif" font-size="10.00">QuantConnect.Data.BaseData.</text>
<text text-anchor="middle" x="579.5" y="-338" font-family="Helvetica,sans-Serif" font-size="10.00">Clone</text>
</a>
</g>
</g>
<!-- Node2&#45;&gt;Node3 -->
<g id="edge2" class="edge">
<title>Node2&#45;&gt;Node3</title>
<path fill="none" stroke="midnightblue" d="M340.44,-238.05C363.97,-260.08 411.14,-300.78 459,-322 467.92,-325.96 477.51,-329.26 487.23,-332.03"/>
<polygon fill="midnightblue" stroke="midnightblue" points="486.42,-335.44 496.98,-334.62 488.21,-328.67 486.42,-335.44"/>
</g>
<!-- Node6 -->
<g id="node6" class="node">
<title>Node6</title>
<g id="a_node6"><a xlink:href="classQuantConnect_1_1TimeZoneOffsetProvider.html#a9d630077c5043b0ed30219686cf60338" target="_top" xlink:title="Converts the specified local time to UTC. This function will advance this offset provider">
<polygon fill="white" stroke="black" points="496,-282 496,-312 663,-312 663,-282 496,-282"/>
<text text-anchor="start" x="504" y="-300" font-family="Helvetica,sans-Serif" font-size="10.00">QuantConnect.TimeZoneOffset</text>
<text text-anchor="middle" x="579.5" y="-289" font-family="Helvetica,sans-Serif" font-size="10.00">Provider.ConvertToUtc</text>
</a>
</g>
</g>
<!-- Node2&#45;&gt;Node6 -->
<g id="edge5" class="edge">
<title>Node2&#45;&gt;Node6</title>
<path fill="none" stroke="midnightblue" d="M361.78,-238.08C388.44,-248.61 425.54,-262.44 459,-272 468.55,-274.73 478.61,-277.3 488.68,-279.67"/>
<polygon fill="midnightblue" stroke="midnightblue" points="488.19,-283.15 498.72,-281.98 489.76,-276.33 488.19,-283.15"/>
</g>
<!-- Node8 -->
<g id="node8" class="node">
<title>Node8</title>
<g id="a_node8"><a xlink:href="classQuantConnect_1_1Util_1_1LeanData.html#a333e4bd6d612caca6773226d353cec49" target="_top" xlink:title="Helper method to return the start time and period of a bar the given point time should be part of">
<polygon fill="white" stroke="black" points="500.5,-233 500.5,-263 658.5,-263 658.5,-233 500.5,-233"/>
<text text-anchor="start" x="508.5" y="-251" font-family="Helvetica,sans-Serif" font-size="10.00">QuantConnect.Util.LeanData.</text>
<text text-anchor="middle" x="579.5" y="-240" font-family="Helvetica,sans-Serif" font-size="10.00">GetDailyCalendar</text>
</a>
</g>
</g>
<!-- Node2&#45;&gt;Node8 -->
<g id="edge7" class="edge">
<title>Node2&#45;&gt;Node8</title>
<path fill="none" stroke="midnightblue" d="M419.03,-232.27C442.35,-234.57 467.26,-237.03 490.29,-239.3"/>
<polygon fill="midnightblue" stroke="midnightblue" points="490.09,-242.8 500.38,-240.3 490.77,-235.83 490.09,-242.8"/>
</g>
<!-- Node9 -->
<g id="node9" class="node">
<title>Node9</title>
<g id="a_node9"><a xlink:href="classQuantConnect_1_1Lean_1_1Engine_1_1DataFeeds_1_1SubscriptionData.html#a37b6b43caa475f27a3775a3b3241a8de" target="_top" xlink:title="Initializes a new instance of the SubscriptionData class">
<polygon fill="white" stroke="black" points="459,-184 459,-214 700,-214 700,-184 459,-184"/>
<text text-anchor="start" x="467" y="-202" font-family="Helvetica,sans-Serif" font-size="10.00">QuantConnect.Lean.Engine.</text>
<text text-anchor="middle" x="579.5" y="-191" font-family="Helvetica,sans-Serif" font-size="10.00">DataFeeds.SubscriptionData.SubscriptionData</text>
</a>
</g>
</g>
<!-- Node2&#45;&gt;Node9 -->
<g id="edge8" class="edge">
<title>Node2&#45;&gt;Node9</title>
<path fill="none" stroke="midnightblue" d="M419.03,-214.1C428.76,-213.18 438.75,-212.23 448.78,-211.28"/>
<polygon fill="midnightblue" stroke="midnightblue" points="449.17,-214.76 458.8,-210.33 448.51,-207.79 449.17,-214.76"/>
</g>
<!-- Node10 -->
<g id="node10" class="node">
<title>Node10</title>
<g id="a_node10"><a xlink:href="classQuantConnect_1_1Util_1_1LeanData.html#a45d5455942a1261f332547548a7682d9" target="_top" xlink:title="Helper method to determine if we should use strict end time">
<polygon fill="white" stroke="black" points="500.5,-135 500.5,-165 658.5,-165 658.5,-135 500.5,-135"/>
<text text-anchor="start" x="508.5" y="-153" font-family="Helvetica,sans-Serif" font-size="10.00">QuantConnect.Util.LeanData.</text>
<text text-anchor="middle" x="579.5" y="-142" font-family="Helvetica,sans-Serif" font-size="10.00">UseDailyStrictEndTimes</text>
</a>
</g>
</g>
<!-- Node2&#45;&gt;Node10 -->
<g id="edge9" class="edge">
<title>Node2&#45;&gt;Node10</title>
<path fill="none" stroke="midnightblue" d="M361.47,-207.95C388.14,-197.37 425.38,-183.46 459,-174 469.14,-171.15 479.85,-168.5 490.53,-166.08"/>
<polygon fill="midnightblue" stroke="midnightblue" points="491.3,-169.49 500.31,-163.92 489.79,-162.65 491.3,-169.49"/>
</g>
<!-- Node4 -->
<g id="node4" class="node">
<title>Node4</title>
<g id="a_node4"><a xlink:href="classQuantConnect_1_1Data_1_1BaseData.html#af973f9d8b7c0726fed42fa03ccd5f963" target="_top" xlink:title="Return a new instance clone of this object, used in fill forward">
<polygon fill="white" stroke="black" points="737,-331 737,-361 902,-361 902,-331 737,-331"/>
<text text-anchor="start" x="745" y="-349" font-family="Helvetica,sans-Serif" font-size="10.00">QuantConnect.Data.BaseData.</text>
<text text-anchor="middle" x="819.5" y="-338" font-family="Helvetica,sans-Serif" font-size="10.00">Clone</text>
</a>
</g>
</g>
<!-- Node3&#45;&gt;Node4 -->
<g id="edge3" class="edge">
<title>Node3&#45;&gt;Node4</title>
<path fill="none" stroke="midnightblue" d="M662.07,-346C682.87,-346 705.36,-346 726.63,-346"/>
<polygon fill="midnightblue" stroke="midnightblue" points="726.63,-349.5 736.63,-346 726.63,-342.5 726.63,-349.5"/>
</g>
<!-- Node5 -->
<g id="node5" class="node">
<title>Node5</title>
<g id="a_node5"><a xlink:href="classQuantConnect_1_1Util_1_1ObjectActivator.html#abcd1c91f67b9d78743601743d663cd10" target="_top" xlink:title="Clones the specified instance using reflection">
<polygon fill="white" stroke="black" points="939,-331 939,-361 1079,-361 1079,-331 939,-331"/>
<text text-anchor="start" x="947" y="-349" font-family="Helvetica,sans-Serif" font-size="10.00">QuantConnect.Util.Object</text>
<text text-anchor="middle" x="1009" y="-338" font-family="Helvetica,sans-Serif" font-size="10.00">Activator.Clone</text>
</a>
</g>
</g>
<!-- Node4&#45;&gt;Node5 -->
<g id="edge4" class="edge">
<title>Node4&#45;&gt;Node5</title>
<path fill="none" stroke="midnightblue" d="M902.19,-346C910.99,-346 919.93,-346 928.7,-346"/>
<polygon fill="midnightblue" stroke="midnightblue" points="928.89,-349.5 938.89,-346 928.89,-342.5 928.89,-349.5"/>
</g>
<!-- Node7 -->
<g id="node7" class="node">
<title>Node7</title>
<g id="a_node7"><a xlink:href="classQuantConnect_1_1TimeZoneOffsetProvider.html#a0fa8c04313b1edd87eb5908e7cca1b5a" target="_top" xlink:title="Gets the offset in ticks from this time zone to UTC, such that UTC time + offset = local time">
<polygon fill="white" stroke="black" points="736,-282 736,-312 903,-312 903,-282 736,-282"/>
<text text-anchor="start" x="744" y="-300" font-family="Helvetica,sans-Serif" font-size="10.00">QuantConnect.TimeZoneOffset</text>
<text text-anchor="middle" x="819.5" y="-289" font-family="Helvetica,sans-Serif" font-size="10.00">Provider.GetOffsetTicks</text>
</a>
</g>
</g>
<!-- Node6&#45;&gt;Node7 -->
<g id="edge6" class="edge">
<title>Node6&#45;&gt;Node7</title>
<path fill="none" stroke="midnightblue" d="M663.07,-297C683.26,-297 705,-297 725.64,-297"/>
<polygon fill="midnightblue" stroke="midnightblue" points="725.67,-300.5 735.67,-297 725.67,-293.5 725.67,-300.5"/>
</g>
<!-- Node12 -->
<g id="node12" class="node">
<title>Node12</title>
<g id="a_node12"><a xlink:href="interfaceQuantConnect_1_1Logging_1_1ILogHandler.html#a35373a0c5d76031fa5ccf5dc39e5c25d" target="_top" xlink:title="Write error message to log">
<polygon fill="white" stroke="black" points="504.5,-86 504.5,-116 654.5,-116 654.5,-86 504.5,-86"/>
<text text-anchor="start" x="512.5" y="-104" font-family="Helvetica,sans-Serif" font-size="10.00">QuantConnect.Logging.ILog</text>
<text text-anchor="middle" x="579.5" y="-93" font-family="Helvetica,sans-Serif" font-size="10.00">Handler.Error</text>
</a>
</g>
</g>
<!-- Node11&#45;&gt;Node12 -->
<g id="edge11" class="edge">
<title>Node11&#45;&gt;Node12</title>
<path fill="none" stroke="midnightblue" d="M399,-117.99C428.81,-115.17 463.35,-111.9 494.12,-108.99"/>
<polygon fill="midnightblue" stroke="midnightblue" points="494.78,-112.44 504.4,-108.02 494.12,-105.47 494.78,-112.44"/>
</g>
</g>
</svg>
        <g id="navigator" transform="translate(0 0)" fill="#404254">
                <rect fill="#f2f5e9" fill-opacity="0.5" stroke="#606060" stroke-width=".5" x="0" y="0" width="60" height="60"/>
                <use id="zoomplus" xlink:href="#zoomPlus" x="17" y="9" onmousedown="handleZoom(evt,'in')"/>
                <use id="zoomminus" xlink:href="#zoomMin" x="42" y="9" onmousedown="handleZoom(evt,'out')"/>
                <use id="reset" xlink:href="#resetDef" x="30" y="36" onmousedown="handleReset()"/>
                <g id="arrowUp" xlink:href="#dirArrow" transform="translate(30 24)" onmousedown="handlePan(0,-1)">
                  <use xlink:href="#rim" fill="#404040">
                        <set attributeName="fill" to="#808080" begin="arrowUp.mouseover" end="arrowUp.mouseout"/>
                  </use>
                  <path fill="none" stroke="white" stroke-width="1.5" d="M0,-3.0v7 M-2.5,-0.5L0,-3.0L2.5,-0.5"/>
                </g>
                <g id="arrowRight" xlink:href="#dirArrow" transform="rotate(90) translate(36 -43)" onmousedown="handlePan(1,0)">
                  <use xlink:href="#rim" fill="#404040">
                        <set attributeName="fill" to="#808080" begin="arrowRight.mouseover" end="arrowRight.mouseout"/>
                  </use>
                  <path fill="none" stroke="white" stroke-width="1.5" d="M0,-3.0v7 M-2.5,-0.5L0,-3.0L2.5,-0.5"/>
                </g>
                <g id="arrowDown" xlink:href="#dirArrow" transform="rotate(180) translate(-30 -48)" onmousedown="handlePan(0,1)">
                  <use xlink:href="#rim" fill="#404040">
                        <set attributeName="fill" to="#808080" begin="arrowDown.mouseover" end="arrowDown.mouseout"/>
                  </use>
                  <path fill="none" stroke="white" stroke-width="1.5" d="M0,-3.0v7 M-2.5,-0.5L0,-3.0L2.5,-0.5"/>
                </g>
                <g id="arrowLeft" xlink:href="#dirArrow" transform="rotate(270) translate(-36 17)" onmousedown="handlePan(-1,0)">
                  <use xlink:href="#rim" fill="#404040">
                        <set attributeName="fill" to="#808080" begin="arrowLeft.mouseover" end="arrowLeft.mouseout"/>
                  </use>
                  <path fill="none" stroke="white" stroke-width="1.5" d="M0,-3.0v7 M-2.5,-0.5L0,-3.0L2.5,-0.5"/>
                </g>
        </g>
        <svg viewBox="0 0 15 15" width="100%" height="30px" preserveAspectRatio="xMaxYMin meet">
         <g id="arrow_out" transform="scale(0.3 0.3)">
          <a xlink:href="classQuantConnect_1_1Lean_1_1Engine_1_1DataFeeds_1_1SubscriptionUtils_a1730082b174a831b7b6ae6f090a35cdb_cgraph_org.svg" target="_base">
           <rect id="button" ry="5" rx="5" y="6" x="6" height="38" width="38"
                fill="#f2f5e9" fill-opacity="0.5" stroke="#606060" stroke-width="1.0"/>
           <path id="arrow"
             d="M 11.500037,31.436501 C 11.940474,20.09759 22.043105,11.32322 32.158766,21.979434 L 37.068811,17.246167 C 37.068811,17.246167 37.088388,32 37.088388,32 L 22.160133,31.978069 C 22.160133,31.978069 26.997745,27.140456 26.997745,27.140456 C 18.528582,18.264221 13.291696,25.230495 11.500037,31.436501 z"
             style="fill:#404040;"/>
          </a>
         </g>
        </svg>
</svg>
