<?xml version="1.0" encoding="UTF-8" standalone="no"?>
<!DOCTYPE svg PUBLIC "-//W3C//DTD SVG 1.1//EN"
 "http://www.w3.org/Graphics/SVG/1.1/DTD/svg11.dtd">
<!-- Generated by graphviz version 2.43.0 (0)
 -->
<!-- Title: QuantConnect.Market.Add Pages: 1 -->
<svg width="395pt" height="149pt"
 viewBox="0.00 0.00 395.00 148.50" xmlns="http://www.w3.org/2000/svg" xmlns:xlink="http://www.w3.org/1999/xlink">
<g id="graph0" class="graph" transform="scale(1 1) rotate(0) translate(4 144.5)">
<title>QuantConnect.Market.Add</title>
<polygon fill="white" stroke="transparent" points="-4,4 -4,-144.5 391,-144.5 391,4 -4,4"/>
<!-- Node1 -->
<g id="node1" class="node">
<title>Node1</title>
<g id="a_node1"><a xlink:title="Adds the specified market to the map of available markets with the specified identifier.">
<polygon fill="#bfbfbf" stroke="black" points="0,-66.5 0,-85.5 144,-85.5 144,-66.5 0,-66.5"/>
<text text-anchor="middle" x="72" y="-73.5" font-family="Helvetica,sans-Serif" font-size="10.00">QuantConnect.Market.Add</text>
</a>
</g>
</g>
<!-- Node2 -->
<g id="node2" class="node">
<title>Node2</title>
<g id="a_node2"><a xlink:href="classQuantConnect_1_1Messages_1_1Market.html#a49a0f1ef875dbc73a679aec6d0354a97" target="_top" xlink:title="Returns a string message saying the market identifier is limited to positive values less than the giv...">
<polygon fill="white" stroke="black" points="195,-110 195,-140 372,-140 372,-110 195,-110"/>
<text text-anchor="start" x="203" y="-128" font-family="Helvetica,sans-Serif" font-size="10.00">QuantConnect.Messages.Market.</text>
<text text-anchor="middle" x="283.5" y="-117" font-family="Helvetica,sans-Serif" font-size="10.00">InvalidMarketIdentifier</text>
</a>
</g>
</g>
<!-- Node1&#45;&gt;Node2 -->
<g id="edge1" class="edge">
<title>Node1&#45;&gt;Node2</title>
<path fill="none" stroke="midnightblue" d="M113.89,-85.56C140.65,-91.82 176.39,-100.18 208.08,-107.59"/>
<polygon fill="midnightblue" stroke="midnightblue" points="207.67,-111.09 218.21,-109.96 209.27,-104.28 207.67,-111.09"/>
</g>
<!-- Node3 -->
<g id="node3" class="node">
<title>Node3</title>
<g id="a_node3"><a xlink:href="classQuantConnect_1_1Messages_1_1Market.html#ab52797a86bd31f9d006a1193f430e97e" target="_top" xlink:title="Returns a string message saying it was attempted to add a market identifier that is already in use">
<polygon fill="white" stroke="black" points="191,-61 191,-91 376,-91 376,-61 191,-61"/>
<text text-anchor="start" x="199" y="-79" font-family="Helvetica,sans-Serif" font-size="10.00">QuantConnect.Messages.Market.</text>
<text text-anchor="middle" x="283.5" y="-68" font-family="Helvetica,sans-Serif" font-size="10.00">TriedToAddExistingMarketIdentifier</text>
</a>
</g>
</g>
<!-- Node1&#45;&gt;Node3 -->
<g id="edge2" class="edge">
<title>Node1&#45;&gt;Node3</title>
<path fill="none" stroke="midnightblue" d="M144.22,-76C155.9,-76 168.19,-76 180.44,-76"/>
<polygon fill="midnightblue" stroke="midnightblue" points="180.71,-79.5 190.71,-76 180.71,-72.5 180.71,-79.5"/>
</g>
<!-- Node4 -->
<g id="node4" class="node">
<title>Node4</title>
<g id="a_node4"><a xlink:href="classQuantConnect_1_1Messages_1_1Market.html#aaafe0d4071f2445ae82619b24d56905e" target="_top" xlink:title="Returns a string message saying it was attempted to add an already added market with a different iden...">
<polygon fill="white" stroke="black" points="180,-0.5 180,-41.5 387,-41.5 387,-0.5 180,-0.5"/>
<text text-anchor="start" x="188" y="-29.5" font-family="Helvetica,sans-Serif" font-size="10.00">QuantConnect.Messages.Market.</text>
<text text-anchor="start" x="188" y="-18.5" font-family="Helvetica,sans-Serif" font-size="10.00">TriedToAddExistingMarketWithDifferent</text>
<text text-anchor="middle" x="283.5" y="-7.5" font-family="Helvetica,sans-Serif" font-size="10.00">Identifier</text>
</a>
</g>
</g>
<!-- Node1&#45;&gt;Node4 -->
<g id="edge3" class="edge">
<title>Node1&#45;&gt;Node4</title>
<path fill="none" stroke="midnightblue" d="M109.49,-66.42C132.98,-60.25 164.58,-51.96 194.34,-44.14"/>
<polygon fill="midnightblue" stroke="midnightblue" points="195.57,-47.44 204.35,-41.52 193.79,-40.67 195.57,-47.44"/>
</g>
</g>
</svg>
