<?xml version="1.0" encoding="UTF-8" standalone="no"?>
<!DOCTYPE svg PUBLIC "-//W3C//DTD SVG 1.1//EN"
 "http://www.w3.org/Graphics/SVG/1.1/DTD/svg11.dtd">
<!-- Generated by graphviz version 2.43.0 (0)
 -->
<!-- Title: QuantConnect.Algorithm.QCAlgorithm.AddSecurity Pages: 1 -->
<svg width="1868pt" height="520pt"
 viewBox="0.00 0.00 1868.00 519.80" xmlns="http://www.w3.org/2000/svg" xmlns:xlink="http://www.w3.org/1999/xlink">
<g id="graph0" class="graph" transform="scale(1 1) rotate(0) translate(4 515.8)">
<title>QuantConnect.Algorithm.QCAlgorithm.AddSecurity</title>
<polygon fill="white" stroke="transparent" points="-4,4 -4,-515.8 1864,-515.8 1864,4 -4,4"/>
<!-- Node1 -->
<g id="node1" class="node">
<title>Node1</title>
<g id="a_node1"><a xlink:title="Set a required SecurityType&#45;symbol and resolution for algorithm">
<polygon fill="#bfbfbf" stroke="black" points="0,-223.5 0,-253.5 205,-253.5 205,-223.5 0,-223.5"/>
<text text-anchor="start" x="8" y="-241.5" font-family="Helvetica,sans-Serif" font-size="10.00">QuantConnect.Algorithm.QCAlgorithm.</text>
<text text-anchor="middle" x="102.5" y="-230.5" font-family="Helvetica,sans-Serif" font-size="10.00">AddSecurity</text>
</a>
</g>
</g>
<!-- Node2 -->
<g id="node2" class="node">
<title>Node2</title>
<g id="a_node2"><a xlink:href="classQuantConnect_1_1Algorithm_1_1QCAlgorithm.html#ae40bde218ca98e593a076fd671837bd4" target="_top" xlink:title="Creates and adds a new Future security to the algorithm">
<polygon fill="white" stroke="black" points="241,-289.5 241,-319.5 446,-319.5 446,-289.5 241,-289.5"/>
<text text-anchor="start" x="249" y="-307.5" font-family="Helvetica,sans-Serif" font-size="10.00">QuantConnect.Algorithm.QCAlgorithm.</text>
<text text-anchor="middle" x="343.5" y="-296.5" font-family="Helvetica,sans-Serif" font-size="10.00">AddFuture</text>
</a>
</g>
</g>
<!-- Node1&#45;&gt;Node2 -->
<g id="edge1" class="edge">
<title>Node1&#45;&gt;Node2</title>
<path fill="none" stroke="midnightblue" d="M158.03,-253.56C193.7,-263.41 240.45,-276.32 277.97,-286.68"/>
<polygon fill="midnightblue" stroke="midnightblue" points="277.22,-290.1 287.79,-289.39 279.08,-283.36 277.22,-290.1"/>
</g>
<!-- Node3 -->
<g id="node3" class="node">
<title>Node3</title>
<g id="a_node3"><a xlink:href="classQuantConnect_1_1Algorithm_1_1QCAlgorithm.html#a101da8582e6819d82780f37a3b3162e0" target="_top" xlink:title="Add specified data to our data subscriptions. QuantConnect will funnel this data to the handle data r...">
<polygon fill="white" stroke="black" points="482,-311.5 482,-341.5 687,-341.5 687,-311.5 482,-311.5"/>
<text text-anchor="start" x="490" y="-329.5" font-family="Helvetica,sans-Serif" font-size="10.00">QuantConnect.Algorithm.QCAlgorithm.</text>
<text text-anchor="middle" x="584.5" y="-318.5" font-family="Helvetica,sans-Serif" font-size="10.00">AddSecurity</text>
</a>
</g>
</g>
<!-- Node1&#45;&gt;Node3 -->
<g id="edge26" class="edge">
<title>Node1&#45;&gt;Node3</title>
<path fill="none" stroke="midnightblue" d="M119.65,-253.71C143.8,-275.29 191.79,-313.83 241,-328.5 318.67,-351.66 410.72,-349.59 479.82,-342.59"/>
<polygon fill="midnightblue" stroke="midnightblue" points="480.27,-346.06 489.85,-341.53 479.53,-339.1 480.27,-346.06"/>
</g>
<!-- Node4 -->
<g id="node4" class="node">
<title>Node4</title>
<g id="a_node4"><a xlink:href="classQuantConnect_1_1Symbol.html#a350b9a625cf7bad95da82894be3cd0a8" target="_top" xlink:title="Provides a convenience method for creating a Symbol for most security types. This method currently do...">
<polygon fill="white" stroke="black" points="504,-251 504,-270 665,-270 665,-251 504,-251"/>
<text text-anchor="middle" x="584.5" y="-258" font-family="Helvetica,sans-Serif" font-size="10.00">QuantConnect.Symbol.Create</text>
</a>
</g>
</g>
<!-- Node1&#45;&gt;Node4 -->
<g id="edge27" class="edge">
<title>Node1&#45;&gt;Node4</title>
<path fill="none" stroke="midnightblue" d="M205,-243.15C290.57,-247.07 411.86,-252.63 493.88,-256.39"/>
<polygon fill="midnightblue" stroke="midnightblue" points="493.79,-259.89 503.94,-256.85 494.11,-252.9 493.79,-259.89"/>
</g>
<!-- Node22 -->
<g id="node22" class="node">
<title>Node22</title>
<g id="a_node22"><a xlink:href="classQuantConnect_1_1SymbolCache.html#a131a5bb015b9a603328d0eddfe90c610" target="_top" xlink:title="Gets the Symbol object that is mapped to the specified string ticker symbol">
<polygon fill="white" stroke="black" points="505.5,-179.5 505.5,-209.5 663.5,-209.5 663.5,-179.5 505.5,-179.5"/>
<text text-anchor="start" x="513.5" y="-197.5" font-family="Helvetica,sans-Serif" font-size="10.00">QuantConnect.SymbolCache.</text>
<text text-anchor="middle" x="584.5" y="-186.5" font-family="Helvetica,sans-Serif" font-size="10.00">TryGetSymbol</text>
</a>
</g>
</g>
<!-- Node1&#45;&gt;Node22 -->
<g id="edge29" class="edge">
<title>Node1&#45;&gt;Node22</title>
<path fill="none" stroke="midnightblue" d="M137.44,-223.38C164.78,-212.08 204.54,-197.56 241,-191.5 326.54,-177.28 425.77,-180.24 495.33,-185.41"/>
<polygon fill="midnightblue" stroke="midnightblue" points="495.13,-188.91 505.37,-186.19 495.67,-181.93 495.13,-188.91"/>
</g>
<!-- Node23 -->
<g id="node23" class="node">
<title>Node23</title>
<g id="a_node23"><a xlink:href="classQuantConnect_1_1Algorithm_1_1QCAlgorithm.html#aed2d974226aa0e08da9abc1da610c45b" target="_top" xlink:title="Creates and adds a new equity Option security to the algorithm">
<polygon fill="white" stroke="black" points="241,-201.5 241,-231.5 446,-231.5 446,-201.5 241,-201.5"/>
<text text-anchor="start" x="249" y="-219.5" font-family="Helvetica,sans-Serif" font-size="10.00">QuantConnect.Algorithm.QCAlgorithm.</text>
<text text-anchor="middle" x="343.5" y="-208.5" font-family="Helvetica,sans-Serif" font-size="10.00">AddOption</text>
</a>
</g>
</g>
<!-- Node1&#45;&gt;Node23 -->
<g id="edge24" class="edge">
<title>Node1&#45;&gt;Node23</title>
<path fill="none" stroke="midnightblue" d="M205.2,-229.14C213.7,-228.36 222.31,-227.56 230.87,-226.78"/>
<polygon fill="midnightblue" stroke="midnightblue" points="231.25,-230.26 240.89,-225.85 230.61,-223.28 231.25,-230.26"/>
</g>
<!-- Node24 -->
<g id="node24" class="node">
<title>Node24</title>
<g id="a_node24"><a xlink:href="classQuantConnect_1_1Algorithm_1_1QCAlgorithm.html#a7bdcfe7bf87e4688620dfc0cbac212aa" target="_top" xlink:title="Send a string error message to the Console.">
<polygon fill="white" stroke="black" points="241,-113.5 241,-143.5 446,-143.5 446,-113.5 241,-113.5"/>
<text text-anchor="start" x="249" y="-131.5" font-family="Helvetica,sans-Serif" font-size="10.00">QuantConnect.Algorithm.QCAlgorithm.</text>
<text text-anchor="middle" x="343.5" y="-120.5" font-family="Helvetica,sans-Serif" font-size="10.00">Error</text>
</a>
</g>
</g>
<!-- Node1&#45;&gt;Node24 -->
<g id="edge28" class="edge">
<title>Node1&#45;&gt;Node24</title>
<path fill="none" stroke="midnightblue" d="M125.5,-223.47C151.95,-205.93 198.14,-176.98 241,-158.5 251.24,-154.08 262.34,-150.07 273.3,-146.53"/>
<polygon fill="midnightblue" stroke="midnightblue" points="274.38,-149.86 282.88,-143.53 272.29,-143.17 274.38,-149.86"/>
</g>
<!-- Node2&#45;&gt;Node3 -->
<g id="edge2" class="edge">
<title>Node2&#45;&gt;Node3</title>
<path fill="none" stroke="midnightblue" d="M446.2,-313.86C454.7,-314.64 463.31,-315.44 471.87,-316.22"/>
<polygon fill="midnightblue" stroke="midnightblue" points="471.61,-319.72 481.89,-317.15 472.25,-312.74 471.61,-319.72"/>
</g>
<!-- Node2&#45;&gt;Node4 -->
<g id="edge3" class="edge">
<title>Node2&#45;&gt;Node4</title>
<path fill="none" stroke="midnightblue" d="M426.08,-289.48C457.41,-283.71 492.62,-277.23 521.78,-271.86"/>
<polygon fill="midnightblue" stroke="midnightblue" points="522.63,-275.27 531.83,-270.01 521.36,-268.38 522.63,-275.27"/>
</g>
<!-- Node2&#45;&gt;Node22 -->
<g id="edge23" class="edge">
<title>Node2&#45;&gt;Node22</title>
<path fill="none" stroke="midnightblue" d="M377.23,-289.44C419.93,-269.78 494.69,-235.37 541.52,-213.82"/>
<polygon fill="midnightblue" stroke="midnightblue" points="543.16,-216.92 550.78,-209.56 540.23,-210.56 543.16,-216.92"/>
</g>
<!-- Node5 -->
<g id="node5" class="node">
<title>Node5</title>
<g id="a_node5"><a xlink:href="classQuantConnect_1_1Symbol.html#a7518a1932d1babbff128f2ba9666a78b" target="_top" xlink:title="Provides a convenience method for creating an option Symbol.">
<polygon fill="white" stroke="black" points="732.5,-431.5 732.5,-461.5 893.5,-461.5 893.5,-431.5 732.5,-431.5"/>
<text text-anchor="start" x="740.5" y="-449.5" font-family="Helvetica,sans-Serif" font-size="10.00">QuantConnect.Symbol.Create</text>
<text text-anchor="middle" x="813" y="-438.5" font-family="Helvetica,sans-Serif" font-size="10.00">Option</text>
</a>
</g>
</g>
<!-- Node4&#45;&gt;Node5 -->
<g id="edge4" class="edge">
<title>Node4&#45;&gt;Node5</title>
<path fill="none" stroke="midnightblue" d="M632.27,-270.06C651.52,-276.14 672.63,-285.93 687,-301.5 723.32,-340.86 685.54,-378.22 723,-416.5 726.68,-420.26 730.85,-423.56 735.33,-426.43"/>
<polygon fill="midnightblue" stroke="midnightblue" points="733.84,-429.61 744.27,-431.48 737.28,-423.51 733.84,-429.61"/>
</g>
<!-- Node6 -->
<g id="node6" class="node">
<title>Node6</title>
<g id="a_node6"><a xlink:href="classQuantConnect_1_1SecurityIdentifier.html#a0c21d7880c9fdd260883d11ea0c99a00" target="_top" xlink:title="Helper overload that will search the mapfiles to resolve the first date. This implementation uses the...">
<polygon fill="white" stroke="black" points="939,-464.5 939,-494.5 1113,-494.5 1113,-464.5 939,-464.5"/>
<text text-anchor="start" x="947" y="-482.5" font-family="Helvetica,sans-Serif" font-size="10.00">QuantConnect.SecurityIdentifier.</text>
<text text-anchor="middle" x="1026" y="-471.5" font-family="Helvetica,sans-Serif" font-size="10.00">GenerateEquity</text>
</a>
</g>
</g>
<!-- Node4&#45;&gt;Node6 -->
<g id="edge17" class="edge">
<title>Node4&#45;&gt;Node6</title>
<path fill="none" stroke="midnightblue" d="M634.81,-270C653.68,-276.03 673.8,-285.78 687,-301.5 736.38,-360.32 664.03,-421.3 723,-470.5 790.71,-527 899.73,-513.17 966.61,-497.02"/>
<polygon fill="midnightblue" stroke="midnightblue" points="967.71,-500.35 976.56,-494.52 966.01,-493.56 967.71,-500.35"/>
</g>
<!-- Node7 -->
<g id="node7" class="node">
<title>Node7</title>
<g id="a_node7"><a xlink:href="classQuantConnect_1_1Symbol.html#a59158f74116be3dad0ea0f3f3f134416" target="_top" xlink:title="Initializes a new instance of the Symbol class">
<polygon fill="white" stroke="black" points="943.5,-404 943.5,-423 1108.5,-423 1108.5,-404 943.5,-404"/>
<text text-anchor="middle" x="1026" y="-411" font-family="Helvetica,sans-Serif" font-size="10.00">QuantConnect.Symbol.Symbol</text>
</a>
</g>
</g>
<!-- Node4&#45;&gt;Node7 -->
<g id="edge22" class="edge">
<title>Node4&#45;&gt;Node7</title>
<path fill="none" stroke="midnightblue" d="M628.89,-270.05C648.63,-276.24 671.08,-286.12 687,-301.5 715.33,-328.87 691.11,-359.37 723,-382.5 755.62,-406.15 856.99,-412.61 933.36,-413.98"/>
<polygon fill="midnightblue" stroke="midnightblue" points="933.43,-417.48 943.48,-414.13 933.54,-410.48 933.43,-417.48"/>
</g>
<!-- Node13 -->
<g id="node13" class="node">
<title>Node13</title>
<g id="a_node13"><a xlink:href="classQuantConnect_1_1SecurityIdentifier.html#a02ca750115844561c001c2346fbafc00" target="_top" xlink:title="Generates a new SecurityIdentifier for a custom security with the option of providing the first date">
<polygon fill="white" stroke="black" points="726,-343.5 726,-373.5 900,-373.5 900,-343.5 726,-343.5"/>
<text text-anchor="start" x="734" y="-361.5" font-family="Helvetica,sans-Serif" font-size="10.00">QuantConnect.SecurityIdentifier.</text>
<text text-anchor="middle" x="813" y="-350.5" font-family="Helvetica,sans-Serif" font-size="10.00">GenerateBase</text>
</a>
</g>
</g>
<!-- Node4&#45;&gt;Node13 -->
<g id="edge12" class="edge">
<title>Node4&#45;&gt;Node13</title>
<path fill="none" stroke="midnightblue" d="M617.02,-270.1C637.76,-277.15 665.04,-287.87 687,-301.5 705.19,-312.79 704.22,-323.23 723,-333.5 727.18,-335.79 731.59,-337.88 736.12,-339.79"/>
<polygon fill="midnightblue" stroke="midnightblue" points="734.95,-343.09 745.54,-343.47 737.49,-336.57 734.95,-343.09"/>
</g>
<!-- Node15 -->
<g id="node15" class="node">
<title>Node15</title>
<g id="a_node15"><a xlink:href="classQuantConnect_1_1SecurityIdentifier.html#a53953b18d814c5445e4ecdcb3b555080" target="_top" xlink:title="Generates a new SecurityIdentifier for a CFD security">
<polygon fill="white" stroke="black" points="726,-294.5 726,-324.5 900,-324.5 900,-294.5 726,-294.5"/>
<text text-anchor="start" x="734" y="-312.5" font-family="Helvetica,sans-Serif" font-size="10.00">QuantConnect.SecurityIdentifier.</text>
<text text-anchor="middle" x="813" y="-301.5" font-family="Helvetica,sans-Serif" font-size="10.00">GenerateCfd</text>
</a>
</g>
</g>
<!-- Node4&#45;&gt;Node15 -->
<g id="edge14" class="edge">
<title>Node4&#45;&gt;Node15</title>
<path fill="none" stroke="midnightblue" d="M629.44,-270.01C658.6,-276.31 697.71,-284.77 732.25,-292.25"/>
<polygon fill="midnightblue" stroke="midnightblue" points="731.82,-295.74 742.33,-294.43 733.3,-288.89 731.82,-295.74"/>
</g>
<!-- Node16 -->
<g id="node16" class="node">
<title>Node16</title>
<g id="a_node16"><a xlink:href="classQuantConnect_1_1SecurityIdentifier.html#a5889a95a36ce927dd0a109cbfbcbe663" target="_top" xlink:title="Generates a new SecurityIdentifier for a Crypto pair">
<polygon fill="white" stroke="black" points="726,-245.5 726,-275.5 900,-275.5 900,-245.5 726,-245.5"/>
<text text-anchor="start" x="734" y="-263.5" font-family="Helvetica,sans-Serif" font-size="10.00">QuantConnect.SecurityIdentifier.</text>
<text text-anchor="middle" x="813" y="-252.5" font-family="Helvetica,sans-Serif" font-size="10.00">GenerateCrypto</text>
</a>
</g>
</g>
<!-- Node4&#45;&gt;Node16 -->
<g id="edge15" class="edge">
<title>Node4&#45;&gt;Node16</title>
<path fill="none" stroke="midnightblue" d="M665.04,-260.5C681.29,-260.5 698.57,-260.5 715.35,-260.5"/>
<polygon fill="midnightblue" stroke="midnightblue" points="715.72,-264 725.72,-260.5 715.72,-257 715.72,-264"/>
</g>
<!-- Node17 -->
<g id="node17" class="node">
<title>Node17</title>
<g id="a_node17"><a xlink:href="classQuantConnect_1_1SecurityIdentifier.html#ac665665a16d5449872fed3427b95a260" target="_top" xlink:title="Generates a new SecurityIdentifier for a CryptoFuture pair">
<polygon fill="white" stroke="black" points="726,-196.5 726,-226.5 900,-226.5 900,-196.5 726,-196.5"/>
<text text-anchor="start" x="734" y="-214.5" font-family="Helvetica,sans-Serif" font-size="10.00">QuantConnect.SecurityIdentifier.</text>
<text text-anchor="middle" x="813" y="-203.5" font-family="Helvetica,sans-Serif" font-size="10.00">GenerateCryptoFuture</text>
</a>
</g>
</g>
<!-- Node4&#45;&gt;Node17 -->
<g id="edge16" class="edge">
<title>Node4&#45;&gt;Node17</title>
<path fill="none" stroke="midnightblue" d="M629.44,-250.99C658.6,-244.69 697.71,-236.23 732.25,-228.75"/>
<polygon fill="midnightblue" stroke="midnightblue" points="733.3,-232.11 742.33,-226.57 731.82,-225.26 733.3,-232.11"/>
</g>
<!-- Node18 -->
<g id="node18" class="node">
<title>Node18</title>
<g id="a_node18"><a xlink:href="classQuantConnect_1_1SecurityIdentifier.html#a9cf0d3b208a5171e6112516ce441f18d" target="_top" xlink:title="Generates a new SecurityIdentifier for a forex pair">
<polygon fill="white" stroke="black" points="726,-147.5 726,-177.5 900,-177.5 900,-147.5 726,-147.5"/>
<text text-anchor="start" x="734" y="-165.5" font-family="Helvetica,sans-Serif" font-size="10.00">QuantConnect.SecurityIdentifier.</text>
<text text-anchor="middle" x="813" y="-154.5" font-family="Helvetica,sans-Serif" font-size="10.00">GenerateForex</text>
</a>
</g>
</g>
<!-- Node4&#45;&gt;Node18 -->
<g id="edge18" class="edge">
<title>Node4&#45;&gt;Node18</title>
<path fill="none" stroke="midnightblue" d="M616.1,-250.86C636.94,-243.58 664.7,-232.47 687,-218.5 705.14,-207.14 704.16,-196.67 723,-186.5 726.47,-184.63 730.09,-182.9 733.8,-181.29"/>
<polygon fill="midnightblue" stroke="midnightblue" points="735.19,-184.51 743.2,-177.56 732.61,-178 735.19,-184.51"/>
</g>
<!-- Node19 -->
<g id="node19" class="node">
<title>Node19</title>
<g id="a_node19"><a xlink:href="classQuantConnect_1_1SecurityIdentifier.html#ad50a891c97cb0c084a9e2aa43607ed66" target="_top" xlink:title="Generates a new SecurityIdentifier for a future">
<polygon fill="white" stroke="black" points="726,-98.5 726,-128.5 900,-128.5 900,-98.5 726,-98.5"/>
<text text-anchor="start" x="734" y="-116.5" font-family="Helvetica,sans-Serif" font-size="10.00">QuantConnect.SecurityIdentifier.</text>
<text text-anchor="middle" x="813" y="-105.5" font-family="Helvetica,sans-Serif" font-size="10.00">GenerateFuture</text>
</a>
</g>
</g>
<!-- Node4&#45;&gt;Node19 -->
<g id="edge19" class="edge">
<title>Node4&#45;&gt;Node19</title>
<path fill="none" stroke="midnightblue" d="M627.38,-250.98C647.48,-244.61 670.68,-234.4 687,-218.5 715.21,-191.01 693.07,-163.12 723,-137.5 724.38,-136.32 725.81,-135.2 727.29,-134.13"/>
<polygon fill="midnightblue" stroke="midnightblue" points="729.55,-136.84 736.19,-128.59 725.85,-130.9 729.55,-136.84"/>
</g>
<!-- Node20 -->
<g id="node20" class="node">
<title>Node20</title>
<g id="a_node20"><a xlink:href="classQuantConnect_1_1SecurityIdentifier.html#ade05a8e57b041ab484cf585be8d05699" target="_top" xlink:title="Generates a new SecurityIdentifier for a INDEX security">
<polygon fill="white" stroke="black" points="726,-49.5 726,-79.5 900,-79.5 900,-49.5 726,-49.5"/>
<text text-anchor="start" x="734" y="-67.5" font-family="Helvetica,sans-Serif" font-size="10.00">QuantConnect.SecurityIdentifier.</text>
<text text-anchor="middle" x="813" y="-56.5" font-family="Helvetica,sans-Serif" font-size="10.00">GenerateIndex</text>
</a>
</g>
</g>
<!-- Node4&#45;&gt;Node20 -->
<g id="edge20" class="edge">
<title>Node4&#45;&gt;Node20</title>
<path fill="none" stroke="midnightblue" d="M631.76,-250.93C651.27,-244.71 672.72,-234.64 687,-218.5 726.73,-173.6 680.46,-130.75 723,-88.5 723.96,-87.55 724.95,-86.63 725.97,-85.75"/>
<polygon fill="midnightblue" stroke="midnightblue" points="728.31,-88.38 734.34,-79.68 724.2,-82.72 728.31,-88.38"/>
</g>
<!-- Node21 -->
<g id="node21" class="node">
<title>Node21</title>
<g id="a_node21"><a xlink:href="classQuantConnect_1_1Messages_1_1Symbol.html#ab801bef52a308b8ba7ba6d42e1ef1988" target="_top" xlink:title="Returns a string message saying the given security type has not been implemented yet">
<polygon fill="white" stroke="black" points="723,-0.5 723,-30.5 903,-30.5 903,-0.5 723,-0.5"/>
<text text-anchor="start" x="731" y="-18.5" font-family="Helvetica,sans-Serif" font-size="10.00">QuantConnect.Messages.Symbol.</text>
<text text-anchor="middle" x="813" y="-7.5" font-family="Helvetica,sans-Serif" font-size="10.00">SecurityTypeNotImplementedYet</text>
</a>
</g>
</g>
<!-- Node4&#45;&gt;Node21 -->
<g id="edge21" class="edge">
<title>Node4&#45;&gt;Node21</title>
<path fill="none" stroke="midnightblue" d="M633.62,-250.99C652.87,-244.82 673.61,-234.77 687,-218.5 738.56,-155.84 667.51,-98.71 723,-39.5 723.79,-38.65 724.61,-37.84 725.46,-37.05"/>
<polygon fill="midnightblue" stroke="midnightblue" points="727.92,-39.57 733.65,-30.66 723.61,-34.04 727.92,-39.57"/>
</g>
<!-- Node5&#45;&gt;Node6 -->
<g id="edge5" class="edge">
<title>Node5&#45;&gt;Node6</title>
<path fill="none" stroke="midnightblue" d="M893.77,-458.98C905.14,-460.75 916.94,-462.6 928.59,-464.42"/>
<polygon fill="midnightblue" stroke="midnightblue" points="928.35,-467.93 938.77,-466.01 929.43,-461.01 928.35,-467.93"/>
</g>
<!-- Node5&#45;&gt;Node7 -->
<g id="edge6" class="edge">
<title>Node5&#45;&gt;Node7</title>
<path fill="none" stroke="midnightblue" d="M893.77,-434.02C913.65,-430.92 934.82,-427.6 954.23,-424.57"/>
<polygon fill="midnightblue" stroke="midnightblue" points="954.86,-428.01 964.2,-423.01 953.78,-421.1 954.86,-428.01"/>
</g>
<!-- Node8 -->
<g id="node8" class="node">
<title>Node8</title>
<g id="a_node8"><a xlink:href="classQuantConnect_1_1Symbol.html#a59b0795fa21f46c306deb5576fa03bb9" target="_top" xlink:title="Centralized helper method to resolve alias for a symbol">
<polygon fill="white" stroke="black" points="1149,-404 1149,-423 1319,-423 1319,-404 1149,-404"/>
<text text-anchor="middle" x="1234" y="-411" font-family="Helvetica,sans-Serif" font-size="10.00">QuantConnect.Symbol.GetAlias</text>
</a>
</g>
</g>
<!-- Node7&#45;&gt;Node8 -->
<g id="edge7" class="edge">
<title>Node7&#45;&gt;Node8</title>
<path fill="none" stroke="midnightblue" d="M1108.71,-413.5C1118.47,-413.5 1128.49,-413.5 1138.4,-413.5"/>
<polygon fill="midnightblue" stroke="midnightblue" points="1138.68,-417 1148.68,-413.5 1138.68,-410 1138.68,-417"/>
</g>
<!-- Node9 -->
<g id="node9" class="node">
<title>Node9</title>
<g id="a_node9"><a xlink:href="classQuantConnect_1_1SymbolRepresentation.html#ad43ac907f6c19083821f58f21c6de017" target="_top" xlink:title="Returns future symbol ticker from underlying and expiration date. Function can generate tickers of tw...">
<polygon fill="white" stroke="black" points="1355,-426.5 1355,-456.5 1558,-456.5 1558,-426.5 1355,-426.5"/>
<text text-anchor="start" x="1363" y="-444.5" font-family="Helvetica,sans-Serif" font-size="10.00">QuantConnect.SymbolRepresentation.</text>
<text text-anchor="middle" x="1456.5" y="-433.5" font-family="Helvetica,sans-Serif" font-size="10.00">GenerateFutureTicker</text>
</a>
</g>
</g>
<!-- Node8&#45;&gt;Node9 -->
<g id="edge8" class="edge">
<title>Node8&#45;&gt;Node9</title>
<path fill="none" stroke="midnightblue" d="M1309.96,-423.02C1321.27,-424.46 1333.14,-425.96 1345.01,-427.47"/>
<polygon fill="midnightblue" stroke="midnightblue" points="1344.62,-430.95 1354.98,-428.74 1345.5,-424 1344.62,-430.95"/>
</g>
<!-- Node11 -->
<g id="node11" class="node">
<title>Node11</title>
<g id="a_node11"><a xlink:href="classQuantConnect_1_1SymbolRepresentation.html#ab133044f5cf8c16e700190a2202b215e" target="_top" xlink:title="Returns option symbol ticker in accordance with OSI symbology More information can be found at http:/...">
<polygon fill="white" stroke="black" points="1355,-374.5 1355,-404.5 1558,-404.5 1558,-374.5 1355,-374.5"/>
<text text-anchor="start" x="1363" y="-392.5" font-family="Helvetica,sans-Serif" font-size="10.00">QuantConnect.SymbolRepresentation.</text>
<text text-anchor="middle" x="1456.5" y="-381.5" font-family="Helvetica,sans-Serif" font-size="10.00">GenerateOptionTickerOSI</text>
</a>
</g>
</g>
<!-- Node8&#45;&gt;Node11 -->
<g id="edge10" class="edge">
<title>Node8&#45;&gt;Node11</title>
<path fill="none" stroke="midnightblue" d="M1319.31,-404.32C1327.69,-403.41 1336.3,-402.47 1344.9,-401.54"/>
<polygon fill="midnightblue" stroke="midnightblue" points="1345.43,-405 1354.99,-400.44 1344.67,-398.04 1345.43,-405"/>
</g>
<!-- Node10 -->
<g id="node10" class="node">
<title>Node10</title>
<g id="a_node10"><a xlink:href="classQuantConnect_1_1Securities_1_1Future_1_1FuturesExpiryUtilityFunctions.html#a4ccb1e2f2fe40ff09785a74a02f26df1" target="_top" xlink:title="Gets the number of months between the contract month and the expiry date.">
<polygon fill="white" stroke="black" points="1594,-424 1594,-465 1860,-465 1860,-424 1594,-424"/>
<text text-anchor="start" x="1602" y="-453" font-family="Helvetica,sans-Serif" font-size="10.00">QuantConnect.Securities.</text>
<text text-anchor="start" x="1602" y="-442" font-family="Helvetica,sans-Serif" font-size="10.00">Future.FuturesExpiryUtilityFunctions.</text>
<text text-anchor="middle" x="1727" y="-431" font-family="Helvetica,sans-Serif" font-size="10.00">GetDeltaBetweenContractMonthAndContractExpiry</text>
</a>
</g>
</g>
<!-- Node9&#45;&gt;Node10 -->
<g id="edge9" class="edge">
<title>Node9&#45;&gt;Node10</title>
<path fill="none" stroke="midnightblue" d="M1558.24,-442.63C1566.59,-442.72 1575.11,-442.81 1583.68,-442.91"/>
<polygon fill="midnightblue" stroke="midnightblue" points="1583.72,-446.41 1593.76,-443.02 1583.8,-439.41 1583.72,-446.41"/>
</g>
<!-- Node12 -->
<g id="node12" class="node">
<title>Node12</title>
<g id="a_node12"><a xlink:href="classQuantConnect_1_1Messages_1_1SymbolRepresentation.html#a2c514157d8055cfa271ea3a7ca1ccde7" target="_top" xlink:title="Returns a string message saying an unexpected security type was received by the given method name">
<polygon fill="white" stroke="black" points="1631,-364 1631,-405 1823,-405 1823,-364 1631,-364"/>
<text text-anchor="start" x="1639" y="-393" font-family="Helvetica,sans-Serif" font-size="10.00">QuantConnect.Messages.Symbol</text>
<text text-anchor="start" x="1639" y="-382" font-family="Helvetica,sans-Serif" font-size="10.00">Representation.UnexpectedSecurity</text>
<text text-anchor="middle" x="1727" y="-371" font-family="Helvetica,sans-Serif" font-size="10.00">TypeForMethod</text>
</a>
</g>
</g>
<!-- Node11&#45;&gt;Node12 -->
<g id="edge11" class="edge">
<title>Node11&#45;&gt;Node12</title>
<path fill="none" stroke="midnightblue" d="M1558.24,-387.62C1578.7,-387.24 1600.27,-386.84 1620.88,-386.46"/>
<polygon fill="midnightblue" stroke="midnightblue" points="1620.98,-389.96 1630.91,-386.27 1620.85,-382.96 1620.98,-389.96"/>
</g>
<!-- Node14 -->
<g id="node14" class="node">
<title>Node14</title>
<g id="a_node14"><a xlink:href="classQuantConnect_1_1SecurityIdentifier.html#a19e1f9da410608020d74ed9e7d283575" target="_top" xlink:title="Generates the Symbol property for QuantConnect.SecurityType.Base security identifiers">
<polygon fill="white" stroke="black" points="939,-343.5 939,-373.5 1113,-373.5 1113,-343.5 939,-343.5"/>
<text text-anchor="start" x="947" y="-361.5" font-family="Helvetica,sans-Serif" font-size="10.00">QuantConnect.SecurityIdentifier.</text>
<text text-anchor="middle" x="1026" y="-350.5" font-family="Helvetica,sans-Serif" font-size="10.00">GenerateBaseSymbol</text>
</a>
</g>
</g>
<!-- Node13&#45;&gt;Node14 -->
<g id="edge13" class="edge">
<title>Node13&#45;&gt;Node14</title>
<path fill="none" stroke="midnightblue" d="M900.13,-358.5C909.5,-358.5 919.08,-358.5 928.57,-358.5"/>
<polygon fill="midnightblue" stroke="midnightblue" points="928.81,-362 938.81,-358.5 928.81,-355 928.81,-362"/>
</g>
<!-- Node23&#45;&gt;Node4 -->
<g id="edge25" class="edge">
<title>Node23&#45;&gt;Node4</title>
<path fill="none" stroke="midnightblue" d="M426.08,-231.52C457.41,-237.29 492.62,-243.77 521.78,-249.14"/>
<polygon fill="midnightblue" stroke="midnightblue" points="521.36,-252.62 531.83,-250.99 522.63,-245.73 521.36,-252.62"/>
</g>
</g>
</svg>
