<?xml version="1.0" encoding="UTF-8" standalone="no"?>
<!DOCTYPE svg PUBLIC "-//W3C//DTD SVG 1.1//EN"
 "http://www.w3.org/Graphics/SVG/1.1/DTD/svg11.dtd">
<!-- Generated by graphviz version 2.43.0 (0)
 -->
<!-- Title: QuantConnect.AlgorithmFactory.Python.Wrappers.AlgorithmPythonWrapper.AlgorithmPythonWrapper Pages: 1 -->
<!--zoomable 270 -->
<svg id="main" version="1.1" xmlns="http://www.w3.org/2000/svg" xmlns:xlink="http://www.w3.org/1999/xlink" xml:space="preserve" onload="init(evt)">
<style type="text/css"><![CDATA[
.edge:hover path { stroke: red; }
.edge:hover polygon { stroke: red; fill: red; }
]]></style>
<script type="text/javascript"><![CDATA[
var edges = document.getElementsByTagName('g');
if (edges && edges.length) {
  for (var i=0;i<edges.length;i++) {
    if (edges[i].id.substr(0,4)=='edge') {
      edges[i].setAttribute('class','edge');
    }
  }
}
]]></script>
        <defs>
                <circle id="rim" cx="0" cy="0" r="7"/>
                <circle id="rim2" cx="0" cy="0" r="3.5"/>
                <g id="zoomPlus">
                        <use xlink:href="#rim" fill="#404040">
                                <set attributeName="fill" to="#808080" begin="zoomplus.mouseover" end="zoomplus.mouseout"/>
                        </use>
                        <path d="M-4,0h8M0,-4v8" fill="none" stroke="white" stroke-width="1.5" pointer-events="none"/>
                </g>
                <g id="zoomMin">
                        <use xlink:href="#rim" fill="#404040">
                                <set attributeName="fill" to="#808080" begin="zoomminus.mouseover" end="zoomminus.mouseout"/>
                        </use>
                        <path d="M-4,0h8" fill="none" stroke="white" stroke-width="1.5" pointer-events="none"/>
                </g>
                <g id="dirArrow">
                        <path fill="none" stroke="white" stroke-width="1.5" d="M0,-3.0v7 M-2.5,-0.5L0,-3.0L2.5,-0.5"/>
                </g>
               <g id="resetDef">
                       <use xlink:href="#rim2" fill="#404040">
                               <set attributeName="fill" to="#808080" begin="reset.mouseover" end="reset.mouseout"/>
                       </use>
               </g>
        </defs>

<script type="text/javascript">
var viewWidth = 884;
var viewHeight = 270;
var sectionId = 'dynsection-1';
</script>
<script xlink:href="svgpan.js"/>
<svg id="graph" class="graph">
<g id="viewport">
<title>QuantConnect.AlgorithmFactory.Python.Wrappers.AlgorithmPythonWrapper.AlgorithmPythonWrapper</title>
<polygon fill="white" stroke="transparent" points="-4,4 -4,-265.5 880,-265.5 880,4 -4,4"/>
<!-- Node1 -->
<g id="node1" class="node">
<title>Node1</title>
<g id="a_node1"><a xlink:title="AlgorithmPythonWrapper constructor. Creates and wraps the algorithm written in python.">
<polygon fill="#bfbfbf" stroke="black" points="0,-55.5 0,-96.5 228,-96.5 228,-55.5 0,-55.5"/>
<text text-anchor="start" x="8" y="-84.5" font-family="Helvetica,sans-Serif" font-size="10.00">QuantConnect.AlgorithmFactory.</text>
<text text-anchor="start" x="8" y="-73.5" font-family="Helvetica,sans-Serif" font-size="10.00">Python.Wrappers.AlgorithmPythonWrapper.</text>
<text text-anchor="middle" x="114" y="-62.5" font-family="Helvetica,sans-Serif" font-size="10.00">AlgorithmPythonWrapper</text>
</a>
</g>
</g>
<!-- Node2 -->
<g id="node2" class="node">
<title>Node2</title>
<g id="a_node2"><a xlink:href="classQuantConnect_1_1Exceptions_1_1StackExceptionInterpreter.html#a921c0014f3619855026760f77afead7a" target="_top" xlink:title="Creates a new StackExceptionInterpreter by loading implementations with default constructors from the...">
<polygon fill="white" stroke="black" points="269,-140.5 269,-181.5 447,-181.5 447,-140.5 269,-140.5"/>
<text text-anchor="start" x="277" y="-169.5" font-family="Helvetica,sans-Serif" font-size="10.00">QuantConnect.Exceptions.</text>
<text text-anchor="start" x="277" y="-158.5" font-family="Helvetica,sans-Serif" font-size="10.00">StackExceptionInterpreter.Create</text>
<text text-anchor="middle" x="358" y="-147.5" font-family="Helvetica,sans-Serif" font-size="10.00">FromAssemblies</text>
</a>
</g>
</g>
<!-- Node1&#45;&gt;Node2 -->
<g id="edge1" class="edge">
<title>Node1&#45;&gt;Node2</title>
<path fill="none" stroke="midnightblue" d="M173.58,-96.58C208.38,-108.8 252.66,-124.35 289,-137.12"/>
<polygon fill="midnightblue" stroke="midnightblue" points="287.94,-140.45 298.54,-140.47 290.26,-133.85 287.94,-140.45"/>
</g>
<!-- Node7 -->
<g id="node7" class="node">
<title>Node7</title>
<g id="a_node7"><a xlink:href="classQuantConnect_1_1Exceptions_1_1StackExceptionInterpreter.html#ab0447cd73f68361f38c80387d5159d7d" target="_top" xlink:title="Interprets the specified exception into a new exception">
<polygon fill="white" stroke="black" points="264,-61 264,-91 452,-91 452,-61 264,-61"/>
<text text-anchor="start" x="272" y="-79" font-family="Helvetica,sans-Serif" font-size="10.00">QuantConnect.Exceptions.</text>
<text text-anchor="middle" x="358" y="-68" font-family="Helvetica,sans-Serif" font-size="10.00">StackExceptionInterpreter.Interpret</text>
</a>
</g>
</g>
<!-- Node1&#45;&gt;Node7 -->
<g id="edge6" class="edge">
<title>Node1&#45;&gt;Node7</title>
<path fill="none" stroke="midnightblue" d="M228.21,-76C236.69,-76 245.22,-76 253.64,-76"/>
<polygon fill="midnightblue" stroke="midnightblue" points="253.84,-79.5 263.84,-76 253.84,-72.5 253.84,-79.5"/>
</g>
<!-- Node10 -->
<g id="node10" class="node">
<title>Node10</title>
<g id="a_node10"><a xlink:href="classQuantConnect_1_1Python_1_1BasePythonWrapper.html#aa67b6a34c0d4b3e6706132fe702eefe0" target="_top" xlink:title="Sets the python instance">
<polygon fill="white" stroke="black" points="281,-0.5 281,-41.5 435,-41.5 435,-0.5 281,-0.5"/>
<text text-anchor="start" x="289" y="-29.5" font-family="Helvetica,sans-Serif" font-size="10.00">QuantConnect.Python.Base</text>
<text text-anchor="start" x="289" y="-18.5" font-family="Helvetica,sans-Serif" font-size="10.00">PythonWrapper&lt; IAlgorithm</text>
<text text-anchor="middle" x="358" y="-7.5" font-family="Helvetica,sans-Serif" font-size="10.00"> &gt;::SetPythonInstance</text>
</a>
</g>
</g>
<!-- Node1&#45;&gt;Node10 -->
<g id="edge9" class="edge">
<title>Node1&#45;&gt;Node10</title>
<path fill="none" stroke="midnightblue" d="M205.46,-55.44C226.9,-50.57 249.71,-45.38 270.95,-40.56"/>
<polygon fill="midnightblue" stroke="midnightblue" points="271.93,-43.92 280.91,-38.29 270.38,-37.1 271.93,-43.92"/>
</g>
<!-- Node3 -->
<g id="node3" class="node">
<title>Node3</title>
<g id="a_node3"><a xlink:href="classQuantConnect_1_1Logging_1_1Log.html#ad908daef9d61532d7d60c9dcfb9a3e0c" target="_top" xlink:title="Output to the console">
<polygon fill="white" stroke="black" points="514,-231 514,-261 664,-261 664,-231 514,-231"/>
<text text-anchor="start" x="522" y="-249" font-family="Helvetica,sans-Serif" font-size="10.00">QuantConnect.Logging.Log.</text>
<text text-anchor="middle" x="589" y="-238" font-family="Helvetica,sans-Serif" font-size="10.00">Debug</text>
</a>
</g>
</g>
<!-- Node2&#45;&gt;Node3 -->
<g id="edge2" class="edge">
<title>Node2&#45;&gt;Node3</title>
<path fill="none" stroke="midnightblue" d="M397.99,-181.51C423.17,-194.15 456.92,-210 488,-221 495.29,-223.58 502.98,-226 510.71,-228.25"/>
<polygon fill="midnightblue" stroke="midnightblue" points="509.93,-231.67 520.51,-230.99 511.82,-224.93 509.93,-231.67"/>
</g>
<!-- Node5 -->
<g id="node5" class="node">
<title>Node5</title>
<g id="a_node5"><a xlink:href="classQuantConnect_1_1Messages_1_1StackExceptionInterpreter.html#a10d960de7b95d979642f9d2f791406d3" target="_top" xlink:title="Returns a message for a Loaded Exception Interpreter">
<polygon fill="white" stroke="black" points="488,-170.5 488,-211.5 690,-211.5 690,-170.5 488,-170.5"/>
<text text-anchor="start" x="496" y="-199.5" font-family="Helvetica,sans-Serif" font-size="10.00">QuantConnect.Messages.Stack</text>
<text text-anchor="start" x="496" y="-188.5" font-family="Helvetica,sans-Serif" font-size="10.00">ExceptionInterpreter.LoadedException</text>
<text text-anchor="middle" x="589" y="-177.5" font-family="Helvetica,sans-Serif" font-size="10.00">Interpreter</text>
</a>
</g>
</g>
<!-- Node2&#45;&gt;Node5 -->
<g id="edge4" class="edge">
<title>Node2&#45;&gt;Node5</title>
<path fill="none" stroke="midnightblue" d="M447.21,-172.56C457.13,-173.86 467.33,-175.19 477.49,-176.52"/>
<polygon fill="midnightblue" stroke="midnightblue" points="477.25,-180.02 487.62,-177.85 478.16,-173.08 477.25,-180.02"/>
</g>
<!-- Node6 -->
<g id="node6" class="node">
<title>Node6</title>
<g id="a_node6"><a xlink:href="classQuantConnect_1_1Exceptions_1_1StackExceptionInterpreter.html#af3c1cd3b0571051db4b382a0276edf7c" target="_top" xlink:title="Initializes a new instance of the StackExceptionInterpreter class">
<polygon fill="white" stroke="black" points="502.5,-110.5 502.5,-151.5 675.5,-151.5 675.5,-110.5 502.5,-110.5"/>
<text text-anchor="start" x="510.5" y="-139.5" font-family="Helvetica,sans-Serif" font-size="10.00">QuantConnect.Exceptions.</text>
<text text-anchor="start" x="510.5" y="-128.5" font-family="Helvetica,sans-Serif" font-size="10.00">StackExceptionInterpreter.Stack</text>
<text text-anchor="middle" x="589" y="-117.5" font-family="Helvetica,sans-Serif" font-size="10.00">ExceptionInterpreter</text>
</a>
</g>
</g>
<!-- Node2&#45;&gt;Node6 -->
<g id="edge5" class="edge">
<title>Node2&#45;&gt;Node6</title>
<path fill="none" stroke="midnightblue" d="M447.21,-149.44C461.95,-147.51 477.31,-145.5 492.23,-143.55"/>
<polygon fill="midnightblue" stroke="midnightblue" points="493.01,-146.97 502.47,-142.2 492.1,-140.03 493.01,-146.97"/>
</g>
<!-- Node4 -->
<g id="node4" class="node">
<title>Node4</title>
<g id="a_node4"><a xlink:href="interfaceQuantConnect_1_1Logging_1_1ILogHandler.html#a2c738b8e78dd5b54244bc68b969ba91d" target="_top" xlink:title="Write debug message to log">
<polygon fill="white" stroke="black" points="726,-231 726,-261 876,-261 876,-231 726,-231"/>
<text text-anchor="start" x="734" y="-249" font-family="Helvetica,sans-Serif" font-size="10.00">QuantConnect.Logging.ILog</text>
<text text-anchor="middle" x="801" y="-238" font-family="Helvetica,sans-Serif" font-size="10.00">Handler.Debug</text>
</a>
</g>
</g>
<!-- Node3&#45;&gt;Node4 -->
<g id="edge3" class="edge">
<title>Node3&#45;&gt;Node4</title>
<path fill="none" stroke="midnightblue" d="M664.04,-246C680.82,-246 698.76,-246 715.92,-246"/>
<polygon fill="midnightblue" stroke="midnightblue" points="715.92,-249.5 725.92,-246 715.92,-242.5 715.92,-249.5"/>
</g>
<!-- Node8 -->
<g id="node8" class="node">
<title>Node8</title>
<g id="a_node8"><a xlink:href="classQuantConnect_1_1Logging_1_1Log.html#af0e7955911bc7664b37661b2a303a9e3" target="_top" xlink:title="Log error">
<polygon fill="white" stroke="black" points="514,-61 514,-91 664,-91 664,-61 514,-61"/>
<text text-anchor="start" x="522" y="-79" font-family="Helvetica,sans-Serif" font-size="10.00">QuantConnect.Logging.Log.</text>
<text text-anchor="middle" x="589" y="-68" font-family="Helvetica,sans-Serif" font-size="10.00">Error</text>
</a>
</g>
</g>
<!-- Node7&#45;&gt;Node8 -->
<g id="edge7" class="edge">
<title>Node7&#45;&gt;Node8</title>
<path fill="none" stroke="midnightblue" d="M452.14,-76C469.17,-76 486.84,-76 503.59,-76"/>
<polygon fill="midnightblue" stroke="midnightblue" points="503.89,-79.5 513.89,-76 503.89,-72.5 503.89,-79.5"/>
</g>
<!-- Node9 -->
<g id="node9" class="node">
<title>Node9</title>
<g id="a_node9"><a xlink:href="interfaceQuantConnect_1_1Logging_1_1ILogHandler.html#a35373a0c5d76031fa5ccf5dc39e5c25d" target="_top" xlink:title="Write error message to log">
<polygon fill="white" stroke="black" points="726,-61 726,-91 876,-91 876,-61 726,-61"/>
<text text-anchor="start" x="734" y="-79" font-family="Helvetica,sans-Serif" font-size="10.00">QuantConnect.Logging.ILog</text>
<text text-anchor="middle" x="801" y="-68" font-family="Helvetica,sans-Serif" font-size="10.00">Handler.Error</text>
</a>
</g>
</g>
<!-- Node8&#45;&gt;Node9 -->
<g id="edge8" class="edge">
<title>Node8&#45;&gt;Node9</title>
<path fill="none" stroke="midnightblue" d="M664.04,-76C680.82,-76 698.76,-76 715.92,-76"/>
<polygon fill="midnightblue" stroke="midnightblue" points="715.92,-79.5 725.92,-76 715.92,-72.5 715.92,-79.5"/>
</g>
</g>
</svg>
        <g id="navigator" transform="translate(0 0)" fill="#404254">
                <rect fill="#f2f5e9" fill-opacity="0.5" stroke="#606060" stroke-width=".5" x="0" y="0" width="60" height="60"/>
                <use id="zoomplus" xlink:href="#zoomPlus" x="17" y="9" onmousedown="handleZoom(evt,'in')"/>
                <use id="zoomminus" xlink:href="#zoomMin" x="42" y="9" onmousedown="handleZoom(evt,'out')"/>
                <use id="reset" xlink:href="#resetDef" x="30" y="36" onmousedown="handleReset()"/>
                <g id="arrowUp" xlink:href="#dirArrow" transform="translate(30 24)" onmousedown="handlePan(0,-1)">
                  <use xlink:href="#rim" fill="#404040">
                        <set attributeName="fill" to="#808080" begin="arrowUp.mouseover" end="arrowUp.mouseout"/>
                  </use>
                  <path fill="none" stroke="white" stroke-width="1.5" d="M0,-3.0v7 M-2.5,-0.5L0,-3.0L2.5,-0.5"/>
                </g>
                <g id="arrowRight" xlink:href="#dirArrow" transform="rotate(90) translate(36 -43)" onmousedown="handlePan(1,0)">
                  <use xlink:href="#rim" fill="#404040">
                        <set attributeName="fill" to="#808080" begin="arrowRight.mouseover" end="arrowRight.mouseout"/>
                  </use>
                  <path fill="none" stroke="white" stroke-width="1.5" d="M0,-3.0v7 M-2.5,-0.5L0,-3.0L2.5,-0.5"/>
                </g>
                <g id="arrowDown" xlink:href="#dirArrow" transform="rotate(180) translate(-30 -48)" onmousedown="handlePan(0,1)">
                  <use xlink:href="#rim" fill="#404040">
                        <set attributeName="fill" to="#808080" begin="arrowDown.mouseover" end="arrowDown.mouseout"/>
                  </use>
                  <path fill="none" stroke="white" stroke-width="1.5" d="M0,-3.0v7 M-2.5,-0.5L0,-3.0L2.5,-0.5"/>
                </g>
                <g id="arrowLeft" xlink:href="#dirArrow" transform="rotate(270) translate(-36 17)" onmousedown="handlePan(-1,0)">
                  <use xlink:href="#rim" fill="#404040">
                        <set attributeName="fill" to="#808080" begin="arrowLeft.mouseover" end="arrowLeft.mouseout"/>
                  </use>
                  <path fill="none" stroke="white" stroke-width="1.5" d="M0,-3.0v7 M-2.5,-0.5L0,-3.0L2.5,-0.5"/>
                </g>
        </g>
        <svg viewBox="0 0 15 15" width="100%" height="30px" preserveAspectRatio="xMaxYMin meet">
         <g id="arrow_out" transform="scale(0.3 0.3)">
          <a xlink:href="classQuantConnect_1_1AlgorithmFactory_1_1Python_1_1Wrappers_1_1AlgorithmPythonWrapper_afed905ab2f0a474c9a3b48cef697b942_cgraph_org.svg" target="_base">
           <rect id="button" ry="5" rx="5" y="6" x="6" height="38" width="38"
                fill="#f2f5e9" fill-opacity="0.5" stroke="#606060" stroke-width="1.0"/>
           <path id="arrow"
             d="M 11.500037,31.436501 C 11.940474,20.09759 22.043105,11.32322 32.158766,21.979434 L 37.068811,17.246167 C 37.068811,17.246167 37.088388,32 37.088388,32 L 22.160133,31.978069 C 22.160133,31.978069 26.997745,27.140456 26.997745,27.140456 C 18.528582,18.264221 13.291696,25.230495 11.500037,31.436501 z"
             style="fill:#404040;"/>
          </a>
         </g>
        </svg>
</svg>
