<?xml version="1.0" encoding="UTF-8" standalone="no"?>
<!DOCTYPE svg PUBLIC "-//W3C//DTD SVG 1.1//EN"
 "http://www.w3.org/Graphics/SVG/1.1/DTD/svg11.dtd">
<!-- Generated by graphviz version 2.43.0 (0)
 -->
<!-- Title: QuantConnect.Securities.Option.OptionPortfolioModel.ProcessCloseTradeProfit Pages: 1 -->
<svg width="365pt" height="50pt"
 viewBox="0.00 0.00 365.00 50.00" xmlns="http://www.w3.org/2000/svg" xmlns:xlink="http://www.w3.org/1999/xlink">
<g id="graph0" class="graph" transform="scale(1 1) rotate(0) translate(4 46)">
<title>QuantConnect.Securities.Option.OptionPortfolioModel.ProcessCloseTradeProfit</title>
<polygon fill="white" stroke="transparent" points="-4,4 -4,-46 361,-46 361,4 -4,4"/>
<!-- Node1 -->
<g id="node1" class="node">
<title>Node1</title>
<g id="a_node1"><a xlink:title="Helper method to determine the close trade profit">
<polygon fill="#bfbfbf" stroke="black" points="0,-0.5 0,-41.5 158,-41.5 158,-0.5 0,-0.5"/>
<text text-anchor="start" x="8" y="-29.5" font-family="Helvetica,sans-Serif" font-size="10.00">QuantConnect.Securities.</text>
<text text-anchor="start" x="8" y="-18.5" font-family="Helvetica,sans-Serif" font-size="10.00">Option.OptionPortfolioModel.</text>
<text text-anchor="middle" x="79" y="-7.5" font-family="Helvetica,sans-Serif" font-size="10.00">ProcessCloseTradeProfit</text>
</a>
</g>
</g>
<!-- Node2 -->
<g id="node2" class="node">
<title>Node2</title>
<g id="a_node2"><a xlink:href="interfaceQuantConnect_1_1Securities_1_1ISettlementModel.html#a47c4b0baf53d207f28de2059cdadd02e" target="_top" xlink:title="Applies cash settlement rules">
<polygon fill="white" stroke="black" points="194,-6 194,-36 357,-36 357,-6 194,-6"/>
<text text-anchor="start" x="202" y="-24" font-family="Helvetica,sans-Serif" font-size="10.00">QuantConnect.Securities.</text>
<text text-anchor="middle" x="275.5" y="-13" font-family="Helvetica,sans-Serif" font-size="10.00">ISettlementModel.ApplyFunds</text>
</a>
</g>
</g>
<!-- Node1&#45;&gt;Node2 -->
<g id="edge1" class="edge">
<title>Node1&#45;&gt;Node2</title>
<path fill="none" stroke="midnightblue" d="M158.27,-21C166.6,-21 175.12,-21 183.58,-21"/>
<polygon fill="midnightblue" stroke="midnightblue" points="183.85,-24.5 193.85,-21 183.85,-17.5 183.85,-24.5"/>
</g>
</g>
</svg>
