<?xml version="1.0" encoding="UTF-8" standalone="no"?>
<!DOCTYPE svg PUBLIC "-//W3C//DTD SVG 1.1//EN"
 "http://www.w3.org/Graphics/SVG/1.1/DTD/svg11.dtd">
<!-- Generated by graphviz version 2.43.0 (0)
 -->
<!-- Title: QuantConnect.Packets.AlgorithmNodePacket Pages: 1 -->
<svg width="849pt" height="137pt"
 viewBox="0.00 0.00 849.00 137.00" xmlns="http://www.w3.org/2000/svg" xmlns:xlink="http://www.w3.org/1999/xlink">
<g id="graph0" class="graph" transform="scale(1 1) rotate(0) translate(4 133)">
<title>QuantConnect.Packets.AlgorithmNodePacket</title>
<polygon fill="white" stroke="transparent" points="-4,4 -4,-133 845,-133 845,4 -4,4"/>
<!-- Node1 -->
<g id="node1" class="node">
<title>Node1</title>
<g id="a_node1"><a xlink:title="Algorithm Node Packet is a work task for the Lean Engine">
<polygon fill="#bfbfbf" stroke="black" points="264,-49.5 264,-79.5 440,-79.5 440,-49.5 264,-49.5"/>
<text text-anchor="start" x="272" y="-67.5" font-family="Helvetica,sans-Serif" font-size="10.00">QuantConnect.Packets.Algorithm</text>
<text text-anchor="middle" x="352" y="-56.5" font-family="Helvetica,sans-Serif" font-size="10.00">NodePacket</text>
</a>
</g>
</g>
<!-- Node4 -->
<g id="node4" class="node">
<title>Node4</title>
<g id="a_node4"><a xlink:href="classQuantConnect_1_1Packets_1_1BacktestNodePacket.html" target="_top" xlink:title="Algorithm backtest task information packet.">
<polygon fill="white" stroke="black" points="477,-98.5 477,-128.5 648,-128.5 648,-98.5 477,-98.5"/>
<text text-anchor="start" x="485" y="-116.5" font-family="Helvetica,sans-Serif" font-size="10.00">QuantConnect.Packets.Backtest</text>
<text text-anchor="middle" x="562.5" y="-105.5" font-family="Helvetica,sans-Serif" font-size="10.00">NodePacket</text>
</a>
</g>
</g>
<!-- Node1&#45;&gt;Node4 -->
<g id="edge3" class="edge">
<title>Node1&#45;&gt;Node4</title>
<path fill="none" stroke="midnightblue" d="M426.74,-81.83C449.89,-87.27 475.24,-93.23 497.65,-98.49"/>
<polygon fill="midnightblue" stroke="midnightblue" points="427.51,-78.42 416.97,-79.53 425.91,-85.23 427.51,-78.42"/>
</g>
<!-- Node5 -->
<g id="node5" class="node">
<title>Node5</title>
<g id="a_node5"><a xlink:href="classQuantConnect_1_1Packets_1_1LiveNodePacket.html" target="_top" xlink:title="Live job task packet: container for any live specific job variables">
<polygon fill="white" stroke="black" points="488,-49.5 488,-79.5 637,-79.5 637,-49.5 488,-49.5"/>
<text text-anchor="start" x="496" y="-67.5" font-family="Helvetica,sans-Serif" font-size="10.00">QuantConnect.Packets.Live</text>
<text text-anchor="middle" x="562.5" y="-56.5" font-family="Helvetica,sans-Serif" font-size="10.00">NodePacket</text>
</a>
</g>
</g>
<!-- Node1&#45;&gt;Node5 -->
<g id="edge4" class="edge">
<title>Node1&#45;&gt;Node5</title>
<path fill="none" stroke="midnightblue" d="M450.3,-64.5C462.93,-64.5 475.7,-64.5 487.85,-64.5"/>
<polygon fill="midnightblue" stroke="midnightblue" points="450.21,-61 440.21,-64.5 450.21,-68 450.21,-61"/>
</g>
<!-- Node7 -->
<g id="node7" class="node">
<title>Node7</title>
<g id="a_node7"><a xlink:href="classQuantConnect_1_1Packets_1_1ResearchNodePacket.html" target="_top" xlink:title="Represents a research node packet">
<polygon fill="white" stroke="black" points="476,-0.5 476,-30.5 649,-30.5 649,-0.5 476,-0.5"/>
<text text-anchor="start" x="484" y="-18.5" font-family="Helvetica,sans-Serif" font-size="10.00">QuantConnect.Packets.Research</text>
<text text-anchor="middle" x="562.5" y="-7.5" font-family="Helvetica,sans-Serif" font-size="10.00">NodePacket</text>
</a>
</g>
</g>
<!-- Node1&#45;&gt;Node7 -->
<g id="edge6" class="edge">
<title>Node1&#45;&gt;Node7</title>
<path fill="none" stroke="midnightblue" d="M426.74,-47.17C449.89,-41.73 475.24,-35.77 497.65,-30.51"/>
<polygon fill="midnightblue" stroke="midnightblue" points="425.91,-43.77 416.97,-49.47 427.51,-50.58 425.91,-43.77"/>
</g>
<!-- Node2 -->
<g id="node2" class="node">
<title>Node2</title>
<g id="a_node2"><a xlink:href="classQuantConnect_1_1Packets_1_1PythonEnvironmentPacket.html" target="_top" xlink:title="Python Environment Packet is an abstract packet that contains a PythonVirtualEnvironment definition....">
<polygon fill="white" stroke="black" points="84,-55 84,-74 228,-74 228,-55 84,-55"/>
<text text-anchor="middle" x="156" y="-62" font-family="Helvetica,sans-Serif" font-size="10.00">PythonEnvironmentPacket</text>
</a>
</g>
</g>
<!-- Node2&#45;&gt;Node1 -->
<g id="edge1" class="edge">
<title>Node2&#45;&gt;Node1</title>
<path fill="none" stroke="midnightblue" d="M238.29,-64.5C246.69,-64.5 255.25,-64.5 263.71,-64.5"/>
<polygon fill="midnightblue" stroke="midnightblue" points="238.14,-61 228.14,-64.5 238.14,-68 238.14,-61"/>
</g>
<!-- Node3 -->
<g id="node3" class="node">
<title>Node3</title>
<g id="a_node3"><a xlink:href="classQuantConnect_1_1Packets_1_1Packet.html" target="_top" xlink:title="Base class for packet messaging system">
<polygon fill="white" stroke="black" points="0,-55 0,-74 48,-74 48,-55 0,-55"/>
<text text-anchor="middle" x="24" y="-62" font-family="Helvetica,sans-Serif" font-size="10.00">Packet</text>
</a>
</g>
</g>
<!-- Node3&#45;&gt;Node2 -->
<g id="edge2" class="edge">
<title>Node3&#45;&gt;Node2</title>
<path fill="none" stroke="midnightblue" d="M58.39,-64.5C66.24,-64.5 74.91,-64.5 83.74,-64.5"/>
<polygon fill="midnightblue" stroke="midnightblue" points="58.24,-61 48.24,-64.5 58.24,-68 58.24,-61"/>
</g>
<!-- Node6 -->
<g id="node6" class="node">
<title>Node6</title>
<g id="a_node6"><a xlink:href="classQuantConnect_1_1Packets_1_1AlphaNodePacket.html" target="_top" xlink:title="Alpha job packet">
<polygon fill="white" stroke="black" points="685,-49.5 685,-79.5 841,-79.5 841,-49.5 685,-49.5"/>
<text text-anchor="start" x="693" y="-67.5" font-family="Helvetica,sans-Serif" font-size="10.00">QuantConnect.Packets.Alpha</text>
<text text-anchor="middle" x="763" y="-56.5" font-family="Helvetica,sans-Serif" font-size="10.00">NodePacket</text>
</a>
</g>
</g>
<!-- Node5&#45;&gt;Node6 -->
<g id="edge5" class="edge">
<title>Node5&#45;&gt;Node6</title>
<path fill="none" stroke="midnightblue" d="M647.45,-64.5C659.85,-64.5 672.58,-64.5 684.83,-64.5"/>
<polygon fill="midnightblue" stroke="midnightblue" points="647.13,-61 637.13,-64.5 647.13,-68 647.13,-61"/>
</g>
</g>
</svg>
