<?xml version="1.0" encoding="UTF-8" standalone="no"?>
<!DOCTYPE svg PUBLIC "-//W3C//DTD SVG 1.1//EN"
 "http://www.w3.org/Graphics/SVG/1.1/DTD/svg11.dtd">
<!-- Generated by graphviz version 2.43.0 (0)
 -->
<!-- Title: QuantConnect.Orders.OrderTicket.InvalidUpdateOrderId Pages: 1 -->
<svg width="559pt" height="161pt"
 viewBox="0.00 0.00 559.00 161.00" xmlns="http://www.w3.org/2000/svg" xmlns:xlink="http://www.w3.org/1999/xlink">
<g id="graph0" class="graph" transform="scale(1 1) rotate(0) translate(4 157)">
<title>QuantConnect.Orders.OrderTicket.InvalidUpdateOrderId</title>
<polygon fill="white" stroke="transparent" points="-4,4 -4,-157 555,-157 555,4 -4,4"/>
<!-- Node1 -->
<g id="node1" class="node">
<title>Node1</title>
<g id="a_node1"><a xlink:title="Creates a new OrderTicket that represents trying to update an order for which no ticket exists">
<polygon fill="#bfbfbf" stroke="black" points="0,-73.5 0,-103.5 153,-103.5 153,-73.5 0,-73.5"/>
<text text-anchor="start" x="8" y="-91.5" font-family="Helvetica,sans-Serif" font-size="10.00">QuantConnect.Orders.Order</text>
<text text-anchor="middle" x="76.5" y="-80.5" font-family="Helvetica,sans-Serif" font-size="10.00">Ticket.InvalidUpdateOrderId</text>
</a>
</g>
</g>
<!-- Node2 -->
<g id="node2" class="node">
<title>Node2</title>
<g id="a_node2"><a xlink:href="classQuantConnect_1_1Orders_1_1OrderTicket.html#a98ce7c56ada5180837251daf129901be" target="_top" xlink:title="Initializes a new instance of the OrderTicket class">
<polygon fill="white" stroke="black" points="193,-122.5 193,-152.5 344,-152.5 344,-122.5 193,-122.5"/>
<text text-anchor="start" x="201" y="-140.5" font-family="Helvetica,sans-Serif" font-size="10.00">QuantConnect.Orders.Order</text>
<text text-anchor="middle" x="268.5" y="-129.5" font-family="Helvetica,sans-Serif" font-size="10.00">Ticket.OrderTicket</text>
</a>
</g>
</g>
<!-- Node1&#45;&gt;Node2 -->
<g id="edge1" class="edge">
<title>Node1&#45;&gt;Node2</title>
<path fill="none" stroke="midnightblue" d="M135.8,-103.53C155.95,-108.73 178.71,-114.6 199.56,-119.98"/>
<polygon fill="midnightblue" stroke="midnightblue" points="198.76,-123.39 209.31,-122.49 200.5,-116.61 198.76,-123.39"/>
</g>
<!-- Node3 -->
<g id="node3" class="node">
<title>Node3</title>
<g id="a_node3"><a xlink:href="classQuantConnect_1_1Orders_1_1OrderRequest.html#aed73f8f311c9224866211078cd6caef1" target="_top" xlink:title="Sets the Response for this request">
<polygon fill="white" stroke="black" points="193,-73.5 193,-103.5 344,-103.5 344,-73.5 193,-73.5"/>
<text text-anchor="start" x="201" y="-91.5" font-family="Helvetica,sans-Serif" font-size="10.00">QuantConnect.Orders.Order</text>
<text text-anchor="middle" x="268.5" y="-80.5" font-family="Helvetica,sans-Serif" font-size="10.00">Request.SetResponse</text>
</a>
</g>
</g>
<!-- Node1&#45;&gt;Node3 -->
<g id="edge2" class="edge">
<title>Node1&#45;&gt;Node3</title>
<path fill="none" stroke="midnightblue" d="M153.14,-88.5C162.82,-88.5 172.77,-88.5 182.59,-88.5"/>
<polygon fill="midnightblue" stroke="midnightblue" points="182.74,-92 192.74,-88.5 182.74,-85 182.74,-92"/>
</g>
<!-- Node4 -->
<g id="node4" class="node">
<title>Node4</title>
<g id="a_node4"><a xlink:href="classQuantConnect_1_1Orders_1_1OrderResponse.html#a1da35cb92d94723fc18b1937861860f7" target="_top" xlink:title="Helper method to create an error response due to a bad order id">
<polygon fill="white" stroke="black" points="189,-24.5 189,-54.5 348,-54.5 348,-24.5 189,-24.5"/>
<text text-anchor="start" x="197" y="-42.5" font-family="Helvetica,sans-Serif" font-size="10.00">QuantConnect.Orders.Order</text>
<text text-anchor="middle" x="268.5" y="-31.5" font-family="Helvetica,sans-Serif" font-size="10.00">Response.UnableToFindOrder</text>
</a>
</g>
</g>
<!-- Node1&#45;&gt;Node4 -->
<g id="edge3" class="edge">
<title>Node1&#45;&gt;Node4</title>
<path fill="none" stroke="midnightblue" d="M135.8,-73.47C155.95,-68.27 178.71,-62.4 199.56,-57.02"/>
<polygon fill="midnightblue" stroke="midnightblue" points="200.5,-60.39 209.31,-54.51 198.76,-53.61 200.5,-60.39"/>
</g>
<!-- Node5 -->
<g id="node5" class="node">
<title>Node5</title>
<g id="a_node5"><a xlink:href="classQuantConnect_1_1Orders_1_1OrderResponse.html#a14ded2753785926becc5e7f8e5a02a09" target="_top" xlink:title="Helper method to create an error response from a request">
<polygon fill="white" stroke="black" points="392,-49.5 392,-79.5 543,-79.5 543,-49.5 392,-49.5"/>
<text text-anchor="start" x="400" y="-67.5" font-family="Helvetica,sans-Serif" font-size="10.00">QuantConnect.Orders.Order</text>
<text text-anchor="middle" x="467.5" y="-56.5" font-family="Helvetica,sans-Serif" font-size="10.00">Response.Error</text>
</a>
</g>
</g>
<!-- Node4&#45;&gt;Node5 -->
<g id="edge4" class="edge">
<title>Node4&#45;&gt;Node5</title>
<path fill="none" stroke="midnightblue" d="M348.21,-49.49C359.2,-50.88 370.54,-52.32 381.65,-53.73"/>
<polygon fill="midnightblue" stroke="midnightblue" points="381.4,-57.23 391.76,-55.02 382.28,-50.28 381.4,-57.23"/>
</g>
<!-- Node6 -->
<g id="node6" class="node">
<title>Node6</title>
<g id="a_node6"><a xlink:href="classQuantConnect_1_1Messages_1_1OrderResponse.html#ab7056e16b77f50aeb52982d2600b50ec" target="_top" xlink:title="Returns a string message saying it was impossible to locate the order with the id from the given requ...">
<polygon fill="white" stroke="black" points="384,-0.5 384,-30.5 551,-30.5 551,-0.5 384,-0.5"/>
<text text-anchor="start" x="392" y="-18.5" font-family="Helvetica,sans-Serif" font-size="10.00">QuantConnect.Messages.Order</text>
<text text-anchor="middle" x="467.5" y="-7.5" font-family="Helvetica,sans-Serif" font-size="10.00">Response.UnableToFindOrder</text>
</a>
</g>
</g>
<!-- Node4&#45;&gt;Node6 -->
<g id="edge5" class="edge">
<title>Node4&#45;&gt;Node6</title>
<path fill="none" stroke="midnightblue" d="M348.21,-29.91C356.61,-28.89 365.2,-27.84 373.74,-26.8"/>
<polygon fill="midnightblue" stroke="midnightblue" points="374.22,-30.27 383.72,-25.58 373.37,-23.32 374.22,-30.27"/>
</g>
</g>
</svg>
