<?xml version="1.0" encoding="UTF-8" standalone="no"?>
<!DOCTYPE svg PUBLIC "-//W3C//DTD SVG 1.1//EN"
 "http://www.w3.org/Graphics/SVG/1.1/DTD/svg11.dtd">
<!-- Generated by graphviz version 2.43.0 (0)
 -->
<!-- Title: QuantConnect.Orders.Fees.FeeModel Pages: 1 -->
<!--zoomable 872 -->
<svg id="main" version="1.1" xmlns="http://www.w3.org/2000/svg" xmlns:xlink="http://www.w3.org/1999/xlink" xml:space="preserve" onload="init(evt)">
<style type="text/css"><![CDATA[
.edge:hover path { stroke: red; }
.edge:hover polygon { stroke: red; fill: red; }
]]></style>
<script type="text/javascript"><![CDATA[
var edges = document.getElementsByTagName('g');
if (edges && edges.length) {
  for (var i=0;i<edges.length;i++) {
    if (edges[i].id.substr(0,4)=='edge') {
      edges[i].setAttribute('class','edge');
    }
  }
}
]]></script>
        <defs>
                <circle id="rim" cx="0" cy="0" r="7"/>
                <circle id="rim2" cx="0" cy="0" r="3.5"/>
                <g id="zoomPlus">
                        <use xlink:href="#rim" fill="#404040">
                                <set attributeName="fill" to="#808080" begin="zoomplus.mouseover" end="zoomplus.mouseout"/>
                        </use>
                        <path d="M-4,0h8M0,-4v8" fill="none" stroke="white" stroke-width="1.5" pointer-events="none"/>
                </g>
                <g id="zoomMin">
                        <use xlink:href="#rim" fill="#404040">
                                <set attributeName="fill" to="#808080" begin="zoomminus.mouseover" end="zoomminus.mouseout"/>
                        </use>
                        <path d="M-4,0h8" fill="none" stroke="white" stroke-width="1.5" pointer-events="none"/>
                </g>
                <g id="dirArrow">
                        <path fill="none" stroke="white" stroke-width="1.5" d="M0,-3.0v7 M-2.5,-0.5L0,-3.0L2.5,-0.5"/>
                </g>
               <g id="resetDef">
                       <use xlink:href="#rim2" fill="#404040">
                               <set attributeName="fill" to="#808080" begin="reset.mouseover" end="reset.mouseout"/>
                       </use>
               </g>
        </defs>

<script type="text/javascript">
var viewWidth = 666;
var viewHeight = 872;
var sectionId = 'dynsection-0';
</script>
<script xlink:href="svgpan.js"/>
<svg id="graph" class="graph">
<g id="viewport">
<title>QuantConnect.Orders.Fees.FeeModel</title>
<polygon fill="white" stroke="transparent" points="-4,4 -4,-868 662,-868 662,4 -4,4"/>
<!-- Node1 -->
<g id="node1" class="node">
<title>Node1</title>
<g id="a_node1"><a xlink:title="Base class for any order fee model">
<polygon fill="#bfbfbf" stroke="black" points="103,-416.5 103,-446.5 252,-446.5 252,-416.5 103,-416.5"/>
<text text-anchor="start" x="111" y="-434.5" font-family="Helvetica,sans-Serif" font-size="10.00">QuantConnect.Orders.Fees.</text>
<text text-anchor="middle" x="177.5" y="-423.5" font-family="Helvetica,sans-Serif" font-size="10.00">FeeModel</text>
</a>
</g>
</g>
<!-- Node3 -->
<g id="node3" class="node">
<title>Node3</title>
<g id="a_node3"><a xlink:href="classQuantConnect_1_1Orders_1_1Fees_1_1AlpacaFeeModel.html" target="_top" xlink:title="Represents the fee model specific to Alpaca trading platform.">
<polygon fill="white" stroke="black" points="300,-833.5 300,-863.5 449,-863.5 449,-833.5 300,-833.5"/>
<text text-anchor="start" x="308" y="-851.5" font-family="Helvetica,sans-Serif" font-size="10.00">QuantConnect.Orders.Fees.</text>
<text text-anchor="middle" x="374.5" y="-840.5" font-family="Helvetica,sans-Serif" font-size="10.00">AlpacaFeeModel</text>
</a>
</g>
</g>
<!-- Node1&#45;&gt;Node3 -->
<g id="edge2" class="edge">
<title>Node1&#45;&gt;Node3</title>
<path fill="none" stroke="midnightblue" d="M177.7,-457.2C177.02,-526.53 184.98,-719.22 288,-823.5 291.8,-827.35 296.17,-830.62 300.86,-833.38"/>
<polygon fill="midnightblue" stroke="midnightblue" points="181.21,-456.86 177.89,-446.8 174.21,-456.74 181.21,-456.86"/>
</g>
<!-- Node4 -->
<g id="node4" class="node">
<title>Node4</title>
<g id="a_node4"><a xlink:href="classQuantConnect_1_1Orders_1_1Fees_1_1AlphaStreamsFeeModel.html" target="_top" xlink:title="Provides an implementation of FeeModel that models order fees that alpha stream clients pay/receive">
<polygon fill="white" stroke="black" points="300,-784.5 300,-814.5 449,-814.5 449,-784.5 300,-784.5"/>
<text text-anchor="start" x="308" y="-802.5" font-family="Helvetica,sans-Serif" font-size="10.00">QuantConnect.Orders.Fees.</text>
<text text-anchor="middle" x="374.5" y="-791.5" font-family="Helvetica,sans-Serif" font-size="10.00">AlphaStreamsFeeModel</text>
</a>
</g>
</g>
<!-- Node1&#45;&gt;Node4 -->
<g id="edge3" class="edge">
<title>Node1&#45;&gt;Node4</title>
<path fill="none" stroke="midnightblue" d="M178.91,-456.96C181.35,-520.13 196.62,-685.34 288,-774.5 291.98,-778.39 296.54,-781.68 301.43,-784.46"/>
<polygon fill="midnightblue" stroke="midnightblue" points="182.4,-456.62 178.6,-446.73 175.41,-456.83 182.4,-456.62"/>
</g>
<!-- Node5 -->
<g id="node5" class="node">
<title>Node5</title>
<g id="a_node5"><a xlink:href="classQuantConnect_1_1Orders_1_1Fees_1_1BinanceFeeModel.html" target="_top" xlink:title="Provides an implementation of FeeModel that models Binance order fees">
<polygon fill="white" stroke="black" points="300,-735.5 300,-765.5 449,-765.5 449,-735.5 300,-735.5"/>
<text text-anchor="start" x="308" y="-753.5" font-family="Helvetica,sans-Serif" font-size="10.00">QuantConnect.Orders.Fees.</text>
<text text-anchor="middle" x="374.5" y="-742.5" font-family="Helvetica,sans-Serif" font-size="10.00">BinanceFeeModel</text>
</a>
</g>
</g>
<!-- Node1&#45;&gt;Node5 -->
<g id="edge4" class="edge">
<title>Node1&#45;&gt;Node5</title>
<path fill="none" stroke="midnightblue" d="M180.46,-456.77C186.24,-513.38 208.18,-651.24 288,-725.5 292.19,-729.4 296.95,-732.69 302.04,-735.47"/>
<polygon fill="midnightblue" stroke="midnightblue" points="183.93,-456.2 179.51,-446.57 176.96,-456.85 183.93,-456.2"/>
</g>
<!-- Node8 -->
<g id="node8" class="node">
<title>Node8</title>
<g id="a_node8"><a xlink:href="classQuantConnect_1_1Orders_1_1Fees_1_1BitfinexFeeModel.html" target="_top" xlink:title="Provides an implementation of FeeModel that models Bitfinex order fees">
<polygon fill="white" stroke="black" points="300,-686.5 300,-716.5 449,-716.5 449,-686.5 300,-686.5"/>
<text text-anchor="start" x="308" y="-704.5" font-family="Helvetica,sans-Serif" font-size="10.00">QuantConnect.Orders.Fees.</text>
<text text-anchor="middle" x="374.5" y="-693.5" font-family="Helvetica,sans-Serif" font-size="10.00">BitfinexFeeModel</text>
</a>
</g>
</g>
<!-- Node1&#45;&gt;Node8 -->
<g id="edge7" class="edge">
<title>Node1&#45;&gt;Node8</title>
<path fill="none" stroke="midnightblue" d="M182.57,-456.65C191.93,-506.21 219.65,-616.86 288,-676.5 292.43,-680.36 297.43,-683.63 302.73,-686.39"/>
<polygon fill="midnightblue" stroke="midnightblue" points="186.01,-455.99 180.8,-446.77 179.12,-457.23 186.01,-455.99"/>
</g>
<!-- Node9 -->
<g id="node9" class="node">
<title>Node9</title>
<g id="a_node9"><a xlink:href="classQuantConnect_1_1Orders_1_1Fees_1_1CharlesSchwabFeeModel.html" target="_top" xlink:title="Represents a fee model specific to Charles Schwab.">
<polygon fill="white" stroke="black" points="300,-637.5 300,-667.5 449,-667.5 449,-637.5 300,-637.5"/>
<text text-anchor="start" x="308" y="-655.5" font-family="Helvetica,sans-Serif" font-size="10.00">QuantConnect.Orders.Fees.</text>
<text text-anchor="middle" x="374.5" y="-644.5" font-family="Helvetica,sans-Serif" font-size="10.00">CharlesSchwabFeeModel</text>
</a>
</g>
</g>
<!-- Node1&#45;&gt;Node9 -->
<g id="edge8" class="edge">
<title>Node1&#45;&gt;Node9</title>
<path fill="none" stroke="midnightblue" d="M185.53,-456.24C198.64,-497.89 230.82,-581.93 288,-627.5 292.84,-631.36 298.25,-634.62 303.94,-637.37"/>
<polygon fill="midnightblue" stroke="midnightblue" points="188.86,-455.16 182.6,-446.61 182.16,-457.2 188.86,-455.16"/>
</g>
<!-- Node10 -->
<g id="node10" class="node">
<title>Node10</title>
<g id="a_node10"><a xlink:href="classQuantConnect_1_1Orders_1_1Fees_1_1CoinbaseFeeModel.html" target="_top" xlink:title="Represents a fee model specific to Coinbase. This class extends the base fee model.">
<polygon fill="white" stroke="black" points="300,-588.5 300,-618.5 449,-618.5 449,-588.5 300,-588.5"/>
<text text-anchor="start" x="308" y="-606.5" font-family="Helvetica,sans-Serif" font-size="10.00">QuantConnect.Orders.Fees.</text>
<text text-anchor="middle" x="374.5" y="-595.5" font-family="Helvetica,sans-Serif" font-size="10.00">CoinbaseFeeModel</text>
</a>
</g>
</g>
<!-- Node1&#45;&gt;Node10 -->
<g id="edge9" class="edge">
<title>Node1&#45;&gt;Node10</title>
<path fill="none" stroke="midnightblue" d="M190.22,-455.83C207.22,-488.57 241.83,-546.4 288,-578.5 293.59,-582.38 299.78,-585.67 306.2,-588.45"/>
<polygon fill="midnightblue" stroke="midnightblue" points="193.15,-453.87 185.51,-446.53 186.9,-457.03 193.15,-453.87"/>
</g>
<!-- Node12 -->
<g id="node12" class="node">
<title>Node12</title>
<g id="a_node12"><a xlink:href="classQuantConnect_1_1Orders_1_1Fees_1_1ConstantFeeModel.html" target="_top" xlink:title="Provides an order fee model that always returns the same order fee.">
<polygon fill="white" stroke="black" points="300,-539.5 300,-569.5 449,-569.5 449,-539.5 300,-539.5"/>
<text text-anchor="start" x="308" y="-557.5" font-family="Helvetica,sans-Serif" font-size="10.00">QuantConnect.Orders.Fees.</text>
<text text-anchor="middle" x="374.5" y="-546.5" font-family="Helvetica,sans-Serif" font-size="10.00">ConstantFeeModel</text>
</a>
</g>
</g>
<!-- Node1&#45;&gt;Node12 -->
<g id="edge11" class="edge">
<title>Node1&#45;&gt;Node12</title>
<path fill="none" stroke="midnightblue" d="M198.32,-454.38C218.71,-476.59 252.45,-509.74 288,-529.5 294.89,-533.33 302.43,-536.63 310.09,-539.45"/>
<polygon fill="midnightblue" stroke="midnightblue" points="200.72,-451.83 191.43,-446.74 195.52,-456.51 200.72,-451.83"/>
</g>
<!-- Node13 -->
<g id="node13" class="node">
<title>Node13</title>
<g id="a_node13"><a xlink:href="classQuantConnect_1_1Orders_1_1Fees_1_1ExanteFeeModel.html" target="_top" xlink:title="Provides an implementation of FeeModel that models Exante order fees. According to: https://support....">
<polygon fill="white" stroke="black" points="300,-490.5 300,-520.5 449,-520.5 449,-490.5 300,-490.5"/>
<text text-anchor="start" x="308" y="-508.5" font-family="Helvetica,sans-Serif" font-size="10.00">QuantConnect.Orders.Fees.</text>
<text text-anchor="middle" x="374.5" y="-497.5" font-family="Helvetica,sans-Serif" font-size="10.00">ExanteFeeModel</text>
</a>
</g>
</g>
<!-- Node1&#45;&gt;Node13 -->
<g id="edge12" class="edge">
<title>Node1&#45;&gt;Node13</title>
<path fill="none" stroke="midnightblue" d="M218.24,-450.86C238.79,-460.46 264.44,-471.83 288,-480.5 297.58,-484.03 307.9,-487.39 317.95,-490.45"/>
<polygon fill="midnightblue" stroke="midnightblue" points="219.72,-447.69 209.19,-446.58 216.74,-454.02 219.72,-447.69"/>
</g>
<!-- Node14 -->
<g id="node14" class="node">
<title>Node14</title>
<g id="a_node14"><a xlink:href="classQuantConnect_1_1Orders_1_1Fees_1_1EzeFeeModel.html" target="_top" xlink:title="Eze fee model implementation">
<polygon fill="white" stroke="black" points="300,-441.5 300,-471.5 449,-471.5 449,-441.5 300,-441.5"/>
<text text-anchor="start" x="308" y="-459.5" font-family="Helvetica,sans-Serif" font-size="10.00">QuantConnect.Orders.Fees.</text>
<text text-anchor="middle" x="374.5" y="-448.5" font-family="Helvetica,sans-Serif" font-size="10.00">EzeFeeModel</text>
</a>
</g>
</g>
<!-- Node1&#45;&gt;Node14 -->
<g id="edge13" class="edge">
<title>Node1&#45;&gt;Node14</title>
<path fill="none" stroke="midnightblue" d="M262.22,-442.23C274.78,-443.84 287.66,-445.5 300,-447.08"/>
<polygon fill="midnightblue" stroke="midnightblue" points="262.59,-438.75 252.22,-440.95 261.69,-445.69 262.59,-438.75"/>
</g>
<!-- Node15 -->
<g id="node15" class="node">
<title>Node15</title>
<g id="a_node15"><a xlink:href="classQuantConnect_1_1Orders_1_1Fees_1_1FTXFeeModel.html" target="_top" xlink:title="Provides an implementation of FeeModel that models FTX order fees https://help.ftx....">
<polygon fill="white" stroke="black" points="300,-392.5 300,-422.5 449,-422.5 449,-392.5 300,-392.5"/>
<text text-anchor="start" x="308" y="-410.5" font-family="Helvetica,sans-Serif" font-size="10.00">QuantConnect.Orders.Fees.</text>
<text text-anchor="middle" x="374.5" y="-399.5" font-family="Helvetica,sans-Serif" font-size="10.00">FTXFeeModel</text>
</a>
</g>
</g>
<!-- Node1&#45;&gt;Node15 -->
<g id="edge14" class="edge">
<title>Node1&#45;&gt;Node15</title>
<path fill="none" stroke="midnightblue" d="M262.22,-421.2C274.78,-419.65 287.66,-418.06 300,-416.55"/>
<polygon fill="midnightblue" stroke="midnightblue" points="261.72,-417.73 252.22,-422.43 262.57,-424.68 261.72,-417.73"/>
</g>
<!-- Node17 -->
<g id="node17" class="node">
<title>Node17</title>
<g id="a_node17"><a xlink:href="classQuantConnect_1_1Orders_1_1Fees_1_1FxcmFeeModel.html" target="_top" xlink:title="Provides an implementation of FeeModel that models FXCM order fees">
<polygon fill="white" stroke="black" points="300,-343.5 300,-373.5 449,-373.5 449,-343.5 300,-343.5"/>
<text text-anchor="start" x="308" y="-361.5" font-family="Helvetica,sans-Serif" font-size="10.00">QuantConnect.Orders.Fees.</text>
<text text-anchor="middle" x="374.5" y="-350.5" font-family="Helvetica,sans-Serif" font-size="10.00">FxcmFeeModel</text>
</a>
</g>
</g>
<!-- Node1&#45;&gt;Node17 -->
<g id="edge16" class="edge">
<title>Node1&#45;&gt;Node17</title>
<path fill="none" stroke="midnightblue" d="M218.2,-412.04C238.74,-402.4 264.39,-391.04 288,-382.5 296.7,-379.35 306.02,-376.36 315.19,-373.63"/>
<polygon fill="midnightblue" stroke="midnightblue" points="216.69,-408.88 209.15,-416.32 219.69,-415.21 216.69,-408.88"/>
</g>
<!-- Node18 -->
<g id="node18" class="node">
<title>Node18</title>
<g id="a_node18"><a xlink:href="classQuantConnect_1_1Orders_1_1Fees_1_1InteractiveBrokersFeeModel.html" target="_top" xlink:title="Provides the default implementation of IFeeModel">
<polygon fill="white" stroke="black" points="298,-294.5 298,-324.5 451,-324.5 451,-294.5 298,-294.5"/>
<text text-anchor="start" x="306" y="-312.5" font-family="Helvetica,sans-Serif" font-size="10.00">QuantConnect.Orders.Fees.</text>
<text text-anchor="middle" x="374.5" y="-301.5" font-family="Helvetica,sans-Serif" font-size="10.00">InteractiveBrokersFeeModel</text>
</a>
</g>
</g>
<!-- Node1&#45;&gt;Node18 -->
<g id="edge17" class="edge">
<title>Node1&#45;&gt;Node18</title>
<path fill="none" stroke="midnightblue" d="M198.27,-408.53C218.63,-386.27 252.34,-353.07 288,-333.5 294.22,-330.09 300.96,-327.13 307.84,-324.57"/>
<polygon fill="midnightblue" stroke="midnightblue" points="195.47,-406.42 191.39,-416.2 200.68,-411.09 195.47,-406.42"/>
</g>
<!-- Node19 -->
<g id="node19" class="node">
<title>Node19</title>
<g id="a_node19"><a xlink:href="classQuantConnect_1_1Orders_1_1Fees_1_1KrakenFeeModel.html" target="_top" xlink:title="Provides an implementation of FeeModel that models Kraken order fees">
<polygon fill="white" stroke="black" points="300,-245.5 300,-275.5 449,-275.5 449,-245.5 300,-245.5"/>
<text text-anchor="start" x="308" y="-263.5" font-family="Helvetica,sans-Serif" font-size="10.00">QuantConnect.Orders.Fees.</text>
<text text-anchor="middle" x="374.5" y="-252.5" font-family="Helvetica,sans-Serif" font-size="10.00">KrakenFeeModel</text>
</a>
</g>
</g>
<!-- Node1&#45;&gt;Node19 -->
<g id="edge18" class="edge">
<title>Node1&#45;&gt;Node19</title>
<path fill="none" stroke="midnightblue" d="M190.17,-407.1C207.11,-374.28 241.65,-316.35 288,-284.5 292.96,-281.09 298.39,-278.17 304.03,-275.66"/>
<polygon fill="midnightblue" stroke="midnightblue" points="186.84,-405.92 185.48,-416.43 193.1,-409.06 186.84,-405.92"/>
</g>
<!-- Node20 -->
<g id="node20" class="node">
<title>Node20</title>
<g id="a_node20"><a xlink:href="classQuantConnect_1_1Orders_1_1Fees_1_1RBIFeeModel.html" target="_top" xlink:title="Provides an implementation of FeeModel that models RBI order fees">
<polygon fill="white" stroke="black" points="300,-196.5 300,-226.5 449,-226.5 449,-196.5 300,-196.5"/>
<text text-anchor="start" x="308" y="-214.5" font-family="Helvetica,sans-Serif" font-size="10.00">QuantConnect.Orders.Fees.</text>
<text text-anchor="middle" x="374.5" y="-203.5" font-family="Helvetica,sans-Serif" font-size="10.00">RBIFeeModel</text>
</a>
</g>
</g>
<!-- Node1&#45;&gt;Node20 -->
<g id="edge19" class="edge">
<title>Node1&#45;&gt;Node20</title>
<path fill="none" stroke="midnightblue" d="M185.47,-406.7C198.51,-364.94 230.57,-280.76 288,-235.5 292.36,-232.06 297.18,-229.12 302.25,-226.6"/>
<polygon fill="midnightblue" stroke="midnightblue" points="182.1,-405.76 182.57,-416.35 188.8,-407.78 182.1,-405.76"/>
</g>
<!-- Node21 -->
<g id="node21" class="node">
<title>Node21</title>
<g id="a_node21"><a xlink:href="classQuantConnect_1_1Orders_1_1Fees_1_1TDAmeritradeFeeModel.html" target="_top" xlink:title="Provides an implementation of FeeModel that models TDAmeritrade order fees">
<polygon fill="white" stroke="black" points="300,-147.5 300,-177.5 449,-177.5 449,-147.5 300,-147.5"/>
<text text-anchor="start" x="308" y="-165.5" font-family="Helvetica,sans-Serif" font-size="10.00">QuantConnect.Orders.Fees.</text>
<text text-anchor="middle" x="374.5" y="-154.5" font-family="Helvetica,sans-Serif" font-size="10.00">TDAmeritradeFeeModel</text>
</a>
</g>
</g>
<!-- Node1&#45;&gt;Node21 -->
<g id="edge20" class="edge">
<title>Node1&#45;&gt;Node21</title>
<path fill="none" stroke="midnightblue" d="M182.45,-406.64C191.64,-357.15 219.16,-245.92 288,-186.5 291.97,-183.07 296.39,-180.14 301.08,-177.62"/>
<polygon fill="midnightblue" stroke="midnightblue" points="179,-406.04 180.71,-416.5 185.89,-407.26 179,-406.04"/>
</g>
<!-- Node22 -->
<g id="node22" class="node">
<title>Node22</title>
<g id="a_node22"><a xlink:href="classQuantConnect_1_1Orders_1_1Fees_1_1TradeStationFeeModel.html" target="_top" xlink:title="Represents a fee model specific to TradeStation.">
<polygon fill="white" stroke="black" points="300,-98.5 300,-128.5 449,-128.5 449,-98.5 300,-98.5"/>
<text text-anchor="start" x="308" y="-116.5" font-family="Helvetica,sans-Serif" font-size="10.00">QuantConnect.Orders.Fees.</text>
<text text-anchor="middle" x="374.5" y="-105.5" font-family="Helvetica,sans-Serif" font-size="10.00">TradeStationFeeModel</text>
</a>
</g>
</g>
<!-- Node1&#45;&gt;Node22 -->
<g id="edge21" class="edge">
<title>Node1&#45;&gt;Node22</title>
<path fill="none" stroke="midnightblue" d="M180.41,-406.17C186.07,-349.43 207.78,-211.33 288,-137.5 291.74,-134.05 295.94,-131.1 300.42,-128.56"/>
<polygon fill="midnightblue" stroke="midnightblue" points="176.9,-406.12 179.48,-416.39 183.87,-406.75 176.9,-406.12"/>
</g>
<!-- Node23 -->
<g id="node23" class="node">
<title>Node23</title>
<g id="a_node23"><a xlink:href="classQuantConnect_1_1Orders_1_1Fees_1_1WolverineFeeModel.html" target="_top" xlink:title="Provides an implementation of FeeModel that models Wolverine order fees">
<polygon fill="white" stroke="black" points="300,-49.5 300,-79.5 449,-79.5 449,-49.5 300,-49.5"/>
<text text-anchor="start" x="308" y="-67.5" font-family="Helvetica,sans-Serif" font-size="10.00">QuantConnect.Orders.Fees.</text>
<text text-anchor="middle" x="374.5" y="-56.5" font-family="Helvetica,sans-Serif" font-size="10.00">WolverineFeeModel</text>
</a>
</g>
</g>
<!-- Node1&#45;&gt;Node23 -->
<g id="edge22" class="edge">
<title>Node1&#45;&gt;Node23</title>
<path fill="none" stroke="midnightblue" d="M178.85,-405.98C181.16,-342.67 196.14,-177.16 288,-88.5 291.55,-85.07 295.55,-82.13 299.83,-79.6"/>
<polygon fill="midnightblue" stroke="midnightblue" points="175.35,-406.14 178.56,-416.23 182.34,-406.34 175.35,-406.14"/>
</g>
<!-- Node24 -->
<g id="node24" class="node">
<title>Node24</title>
<g id="a_node24"><a xlink:href="classQuantConnect_1_1Python_1_1FeeModelPythonWrapper.html" target="_top" xlink:title="Provides an order fee model that wraps a PyObject object that represents a model that simulates order...">
<polygon fill="white" stroke="black" points="288,-0.5 288,-30.5 461,-30.5 461,-0.5 288,-0.5"/>
<text text-anchor="start" x="296" y="-18.5" font-family="Helvetica,sans-Serif" font-size="10.00">QuantConnect.Python.FeeModel</text>
<text text-anchor="middle" x="374.5" y="-7.5" font-family="Helvetica,sans-Serif" font-size="10.00">PythonWrapper</text>
</a>
</g>
</g>
<!-- Node1&#45;&gt;Node24 -->
<g id="edge23" class="edge">
<title>Node1&#45;&gt;Node24</title>
<path fill="none" stroke="midnightblue" d="M177.64,-405.74C176.8,-336.26 184.41,-143.22 288,-39.5 291.38,-36.12 295.19,-33.2 299.28,-30.69"/>
<polygon fill="midnightblue" stroke="midnightblue" points="174.15,-406.23 177.85,-416.16 181.15,-406.1 174.15,-406.23"/>
</g>
<!-- Node2 -->
<g id="node2" class="node">
<title>Node2</title>
<g id="a_node2"><a xlink:href="interfaceQuantConnect_1_1Orders_1_1Fees_1_1IFeeModel.html" target="_top" xlink:title="Represents a model the simulates order fees">
<polygon fill="white" stroke="black" points="0,-422 0,-441 67,-441 67,-422 0,-422"/>
<text text-anchor="middle" x="33.5" y="-429" font-family="Helvetica,sans-Serif" font-size="10.00">IFeeModel</text>
</a>
</g>
</g>
<!-- Node2&#45;&gt;Node1 -->
<g id="edge1" class="edge">
<title>Node2&#45;&gt;Node1</title>
<path fill="none" stroke="midnightblue" d="M77.3,-431.5C85.37,-431.5 94.02,-431.5 102.72,-431.5"/>
<polygon fill="midnightblue" stroke="midnightblue" points="77.08,-428 67.08,-431.5 77.08,-435 77.08,-428"/>
</g>
<!-- Node6 -->
<g id="node6" class="node">
<title>Node6</title>
<g id="a_node6"><a xlink:href="classQuantConnect_1_1Orders_1_1Fees_1_1BinanceCoinFuturesFeeModel.html" target="_top" xlink:title="Provides an implementation of FeeModel that models Binance Coin Futures order fees">
<polygon fill="white" stroke="black" points="497,-759.5 497,-789.5 658,-789.5 658,-759.5 497,-759.5"/>
<text text-anchor="start" x="505" y="-777.5" font-family="Helvetica,sans-Serif" font-size="10.00">QuantConnect.Orders.Fees.</text>
<text text-anchor="middle" x="577.5" y="-766.5" font-family="Helvetica,sans-Serif" font-size="10.00">BinanceCoinFuturesFeeModel</text>
</a>
</g>
</g>
<!-- Node5&#45;&gt;Node6 -->
<g id="edge5" class="edge">
<title>Node5&#45;&gt;Node6</title>
<path fill="none" stroke="midnightblue" d="M459.46,-760.53C471.8,-762 484.47,-763.51 496.71,-764.97"/>
<polygon fill="midnightblue" stroke="midnightblue" points="459.55,-757.01 449.2,-759.3 458.72,-763.96 459.55,-757.01"/>
</g>
<!-- Node7 -->
<g id="node7" class="node">
<title>Node7</title>
<g id="a_node7"><a xlink:href="classQuantConnect_1_1Orders_1_1Fees_1_1BinanceFuturesFeeModel.html" target="_top" xlink:title="Provides an implementation of FeeModel that models Binance Futures order fees">
<polygon fill="white" stroke="black" points="503,-710.5 503,-740.5 652,-740.5 652,-710.5 503,-710.5"/>
<text text-anchor="start" x="511" y="-728.5" font-family="Helvetica,sans-Serif" font-size="10.00">QuantConnect.Orders.Fees.</text>
<text text-anchor="middle" x="577.5" y="-717.5" font-family="Helvetica,sans-Serif" font-size="10.00">BinanceFuturesFeeModel</text>
</a>
</g>
</g>
<!-- Node5&#45;&gt;Node7 -->
<g id="edge6" class="edge">
<title>Node5&#45;&gt;Node7</title>
<path fill="none" stroke="midnightblue" d="M459.14,-740.1C473.63,-738.29 488.6,-736.43 502.81,-734.67"/>
<polygon fill="midnightblue" stroke="midnightblue" points="458.7,-736.63 449.2,-741.33 459.56,-743.57 458.7,-736.63"/>
</g>
<!-- Node11 -->
<g id="node11" class="node">
<title>Node11</title>
<g id="a_node11"><a xlink:href="classQuantConnect_1_1Orders_1_1Fees_1_1GDAXFeeModel.html" target="_top" xlink:title="Provides an implementation of FeeModel that models GDAX order fees">
<polygon fill="white" stroke="black" points="503,-588.5 503,-618.5 652,-618.5 652,-588.5 503,-588.5"/>
<text text-anchor="start" x="511" y="-606.5" font-family="Helvetica,sans-Serif" font-size="10.00">QuantConnect.Orders.Fees.</text>
<text text-anchor="middle" x="577.5" y="-595.5" font-family="Helvetica,sans-Serif" font-size="10.00">GDAXFeeModel</text>
</a>
</g>
</g>
<!-- Node10&#45;&gt;Node11 -->
<g id="edge10" class="edge">
<title>Node10&#45;&gt;Node11</title>
<path fill="none" stroke="midnightblue" d="M459.56,-603.5C473.92,-603.5 488.74,-603.5 502.81,-603.5"/>
<polygon fill="midnightblue" stroke="midnightblue" points="459.2,-600 449.2,-603.5 459.2,-607 459.2,-600"/>
</g>
<!-- Node16 -->
<g id="node16" class="node">
<title>Node16</title>
<g id="a_node16"><a xlink:href="classQuantConnect_1_1Orders_1_1Fees_1_1FTXUSFeeModel.html" target="_top" xlink:title="Provides an implementation of FeeModel that models FTX order fees https://help.ftx....">
<polygon fill="white" stroke="black" points="503,-392.5 503,-422.5 652,-422.5 652,-392.5 503,-392.5"/>
<text text-anchor="start" x="511" y="-410.5" font-family="Helvetica,sans-Serif" font-size="10.00">QuantConnect.Orders.Fees.</text>
<text text-anchor="middle" x="577.5" y="-399.5" font-family="Helvetica,sans-Serif" font-size="10.00">FTXUSFeeModel</text>
</a>
</g>
</g>
<!-- Node15&#45;&gt;Node16 -->
<g id="edge15" class="edge">
<title>Node15&#45;&gt;Node16</title>
<path fill="none" stroke="midnightblue" d="M459.56,-407.5C473.92,-407.5 488.74,-407.5 502.81,-407.5"/>
<polygon fill="midnightblue" stroke="midnightblue" points="459.2,-404 449.2,-407.5 459.2,-411 459.2,-404"/>
</g>
</g>
</svg>
        <g id="navigator" transform="translate(0 0)" fill="#404254">
                <rect fill="#f2f5e9" fill-opacity="0.5" stroke="#606060" stroke-width=".5" x="0" y="0" width="60" height="60"/>
                <use id="zoomplus" xlink:href="#zoomPlus" x="17" y="9" onmousedown="handleZoom(evt,'in')"/>
                <use id="zoomminus" xlink:href="#zoomMin" x="42" y="9" onmousedown="handleZoom(evt,'out')"/>
                <use id="reset" xlink:href="#resetDef" x="30" y="36" onmousedown="handleReset()"/>
                <g id="arrowUp" xlink:href="#dirArrow" transform="translate(30 24)" onmousedown="handlePan(0,-1)">
                  <use xlink:href="#rim" fill="#404040">
                        <set attributeName="fill" to="#808080" begin="arrowUp.mouseover" end="arrowUp.mouseout"/>
                  </use>
                  <path fill="none" stroke="white" stroke-width="1.5" d="M0,-3.0v7 M-2.5,-0.5L0,-3.0L2.5,-0.5"/>
                </g>
                <g id="arrowRight" xlink:href="#dirArrow" transform="rotate(90) translate(36 -43)" onmousedown="handlePan(1,0)">
                  <use xlink:href="#rim" fill="#404040">
                        <set attributeName="fill" to="#808080" begin="arrowRight.mouseover" end="arrowRight.mouseout"/>
                  </use>
                  <path fill="none" stroke="white" stroke-width="1.5" d="M0,-3.0v7 M-2.5,-0.5L0,-3.0L2.5,-0.5"/>
                </g>
                <g id="arrowDown" xlink:href="#dirArrow" transform="rotate(180) translate(-30 -48)" onmousedown="handlePan(0,1)">
                  <use xlink:href="#rim" fill="#404040">
                        <set attributeName="fill" to="#808080" begin="arrowDown.mouseover" end="arrowDown.mouseout"/>
                  </use>
                  <path fill="none" stroke="white" stroke-width="1.5" d="M0,-3.0v7 M-2.5,-0.5L0,-3.0L2.5,-0.5"/>
                </g>
                <g id="arrowLeft" xlink:href="#dirArrow" transform="rotate(270) translate(-36 17)" onmousedown="handlePan(-1,0)">
                  <use xlink:href="#rim" fill="#404040">
                        <set attributeName="fill" to="#808080" begin="arrowLeft.mouseover" end="arrowLeft.mouseout"/>
                  </use>
                  <path fill="none" stroke="white" stroke-width="1.5" d="M0,-3.0v7 M-2.5,-0.5L0,-3.0L2.5,-0.5"/>
                </g>
        </g>
        <svg viewBox="0 0 15 15" width="100%" height="30px" preserveAspectRatio="xMaxYMin meet">
         <g id="arrow_out" transform="scale(0.3 0.3)">
          <a xlink:href="classQuantConnect_1_1Orders_1_1Fees_1_1FeeModel__inherit__graph_org.svg" target="_base">
           <rect id="button" ry="5" rx="5" y="6" x="6" height="38" width="38"
                fill="#f2f5e9" fill-opacity="0.5" stroke="#606060" stroke-width="1.0"/>
           <path id="arrow"
             d="M 11.500037,31.436501 C 11.940474,20.09759 22.043105,11.32322 32.158766,21.979434 L 37.068811,17.246167 C 37.068811,17.246167 37.088388,32 37.088388,32 L 22.160133,31.978069 C 22.160133,31.978069 26.997745,27.140456 26.997745,27.140456 C 18.528582,18.264221 13.291696,25.230495 11.500037,31.436501 z"
             style="fill:#404040;"/>
          </a>
         </g>
        </svg>
</svg>
