<?xml version="1.0" encoding="UTF-8" standalone="no"?>
<!DOCTYPE svg PUBLIC "-//W3C//DTD SVG 1.1//EN"
 "http://www.w3.org/Graphics/SVG/1.1/DTD/svg11.dtd">
<!-- Generated by graphviz version 2.43.0 (0)
 -->
<!-- Title: QuantConnect.Securities.SecurityExchangeHours.GetPreviousMarketOpen Pages: 1 -->
<svg width="919pt" height="118pt"
 viewBox="0.00 0.00 919.00 118.00" xmlns="http://www.w3.org/2000/svg" xmlns:xlink="http://www.w3.org/1999/xlink">
<g id="graph0" class="graph" transform="scale(1 1) rotate(0) translate(4 114)">
<title>QuantConnect.Securities.SecurityExchangeHours.GetPreviousMarketOpen</title>
<polygon fill="white" stroke="transparent" points="-4,4 -4,-114 915,-114 915,4 -4,4"/>
<!-- Node1 -->
<g id="node1" class="node">
<title>Node1</title>
<g id="a_node1"><a xlink:title="Gets the local date time corresponding to the previous market open to the specified time">
<polygon fill="#bfbfbf" stroke="black" points="0,-50 0,-91 194,-91 194,-50 0,-50"/>
<text text-anchor="start" x="8" y="-79" font-family="Helvetica,sans-Serif" font-size="10.00">QuantConnect.Securities.</text>
<text text-anchor="start" x="8" y="-68" font-family="Helvetica,sans-Serif" font-size="10.00">SecurityExchangeHours.GetPrevious</text>
<text text-anchor="middle" x="97" y="-57" font-family="Helvetica,sans-Serif" font-size="10.00">MarketOpen</text>
</a>
</g>
</g>
<!-- Node2 -->
<g id="node2" class="node">
<title>Node2</title>
<g id="a_node2"><a xlink:href="classQuantConnect_1_1Securities_1_1SecurityExchangeHours.html#a106e2dd187ab76452e14ac6a28f929aa" target="_top" xlink:title="Helper to access the market hours field based on the day of week">
<polygon fill="white" stroke="black" points="487,-79.5 487,-109.5 702,-109.5 702,-79.5 487,-79.5"/>
<text text-anchor="start" x="495" y="-97.5" font-family="Helvetica,sans-Serif" font-size="10.00">QuantConnect.Securities.</text>
<text text-anchor="middle" x="594.5" y="-86.5" font-family="Helvetica,sans-Serif" font-size="10.00">SecurityExchangeHours.GetMarketHours</text>
</a>
</g>
</g>
<!-- Node1&#45;&gt;Node2 -->
<g id="edge1" class="edge">
<title>Node1&#45;&gt;Node2</title>
<path fill="none" stroke="midnightblue" d="M174.98,-91.03C192.91,-94.96 212.02,-98.48 230,-100.5 312.05,-109.71 405.16,-107.94 476.61,-104.01"/>
<polygon fill="midnightblue" stroke="midnightblue" points="477.2,-107.48 486.99,-103.41 476.8,-100.49 477.2,-107.48"/>
</g>
<!-- Node4 -->
<g id="node4" class="node">
<title>Node4</title>
<g id="a_node4"><a xlink:href="classQuantConnect_1_1Securities_1_1SecurityExchangeHours.html#a180c418cdce27edaa7d55170a225761e" target="_top" xlink:title="Gets the local date time corresponding to the next market open following the specified time">
<polygon fill="white" stroke="black" points="252.5,-50 252.5,-91 428.5,-91 428.5,-50 252.5,-50"/>
<text text-anchor="start" x="260.5" y="-79" font-family="Helvetica,sans-Serif" font-size="10.00">QuantConnect.Securities.</text>
<text text-anchor="start" x="260.5" y="-68" font-family="Helvetica,sans-Serif" font-size="10.00">SecurityExchangeHours.GetNext</text>
<text text-anchor="middle" x="340.5" y="-57" font-family="Helvetica,sans-Serif" font-size="10.00">MarketOpen</text>
</a>
</g>
</g>
<!-- Node1&#45;&gt;Node4 -->
<g id="edge3" class="edge">
<title>Node1&#45;&gt;Node4</title>
<path fill="none" stroke="midnightblue" d="M194.14,-70.5C209.89,-70.5 226.23,-70.5 242.02,-70.5"/>
<polygon fill="midnightblue" stroke="midnightblue" points="242.3,-74 252.3,-70.5 242.3,-67 242.3,-74"/>
</g>
<!-- Node5 -->
<g id="node5" class="node">
<title>Node5</title>
<g id="a_node5"><a xlink:href="classQuantConnect_1_1Messages_1_1SecurityExchangeHours.html#acd0e665098972f399315f1b9ece20700" target="_top" xlink:title="Returns a string message saying it did not find last market open for the given local date time....">
<polygon fill="white" stroke="black" points="230,-0.5 230,-30.5 451,-30.5 451,-0.5 230,-0.5"/>
<text text-anchor="start" x="238" y="-18.5" font-family="Helvetica,sans-Serif" font-size="10.00">QuantConnect.Messages.Security</text>
<text text-anchor="middle" x="340.5" y="-7.5" font-family="Helvetica,sans-Serif" font-size="10.00">ExchangeHours.LastMarketOpenNotFound</text>
</a>
</g>
</g>
<!-- Node1&#45;&gt;Node5 -->
<g id="edge5" class="edge">
<title>Node1&#45;&gt;Node5</title>
<path fill="none" stroke="midnightblue" d="M188.27,-49.94C213,-44.31 239.56,-38.26 263.42,-32.83"/>
<polygon fill="midnightblue" stroke="midnightblue" points="264.49,-36.17 273.46,-30.54 262.93,-29.35 264.49,-36.17"/>
</g>
<!-- Node3 -->
<g id="node3" class="node">
<title>Node3</title>
<g id="a_node3"><a xlink:href="classQuantConnect_1_1Securities_1_1LocalMarketHours.html#a1e9178f81413c7d1f032a003d74acecf" target="_top" xlink:title="Gets a LocalMarketHours instance that is always closed">
<polygon fill="white" stroke="black" points="738,-79.5 738,-109.5 911,-109.5 911,-79.5 738,-79.5"/>
<text text-anchor="start" x="746" y="-97.5" font-family="Helvetica,sans-Serif" font-size="10.00">QuantConnect.Securities.</text>
<text text-anchor="middle" x="824.5" y="-86.5" font-family="Helvetica,sans-Serif" font-size="10.00">LocalMarketHours.ClosedAllDay</text>
</a>
</g>
</g>
<!-- Node2&#45;&gt;Node3 -->
<g id="edge2" class="edge">
<title>Node2&#45;&gt;Node3</title>
<path fill="none" stroke="midnightblue" d="M702.16,-94.5C710.64,-94.5 719.18,-94.5 727.59,-94.5"/>
<polygon fill="midnightblue" stroke="midnightblue" points="727.77,-98 737.77,-94.5 727.77,-91 727.77,-98"/>
</g>
<!-- Node4&#45;&gt;Node2 -->
<g id="edge4" class="edge">
<title>Node4&#45;&gt;Node2</title>
<path fill="none" stroke="midnightblue" d="M428.58,-78.79C444.13,-80.27 460.56,-81.84 476.78,-83.38"/>
<polygon fill="midnightblue" stroke="midnightblue" points="476.56,-86.88 486.84,-84.34 477.22,-79.91 476.56,-86.88"/>
</g>
</g>
</svg>
