<?xml version="1.0" encoding="UTF-8" standalone="no"?>
<!DOCTYPE svg PUBLIC "-//W3C//DTD SVG 1.1//EN"
 "http://www.w3.org/Graphics/SVG/1.1/DTD/svg11.dtd">
<!-- Generated by graphviz version 2.43.0 (0)
 -->
<!-- Title: QuantConnect.Algorithm.QCAlgorithm.RegisterIndicator&lt; T &gt; Pages: 1 -->
<svg width="1162pt" height="119pt"
 viewBox="0.00 0.00 1162.00 118.50" xmlns="http://www.w3.org/2000/svg" xmlns:xlink="http://www.w3.org/1999/xlink">
<g id="graph0" class="graph" transform="scale(1 1) rotate(0) translate(4 114.5)">
<title>QuantConnect.Algorithm.QCAlgorithm.RegisterIndicator&lt; T &gt;</title>
<polygon fill="white" stroke="transparent" points="-4,4 -4,-114.5 1158,-114.5 1158,4 -4,4"/>
<!-- Node1 -->
<g id="node1" class="node">
<title>Node1</title>
<g id="a_node1"><a xlink:title="Registers the consolidator to receive automatic updates as well as configures the indicator to receiv...">
<polygon fill="#bfbfbf" stroke="black" points="0,-33 0,-63 205,-63 205,-33 0,-33"/>
<text text-anchor="start" x="8" y="-51" font-family="Helvetica,sans-Serif" font-size="10.00">QuantConnect.Algorithm.QCAlgorithm.</text>
<text text-anchor="middle" x="102.5" y="-40" font-family="Helvetica,sans-Serif" font-size="10.00">RegisterIndicator&lt; T &gt;</text>
</a>
</g>
</g>
<!-- Node2 -->
<g id="node2" class="node">
<title>Node2</title>
<g id="a_node2"><a xlink:href="classQuantConnect_1_1Algorithm_1_1QCAlgorithm.html#a918f318ce76cdc3ed9efad235ff7481e" target="_top" xlink:title="Creates and registers a new consolidator to receive automatic updates at the specified resolution as ...">
<polygon fill="white" stroke="black" points="244,-77 244,-107 449,-107 449,-77 244,-77"/>
<text text-anchor="start" x="252" y="-95" font-family="Helvetica,sans-Serif" font-size="10.00">QuantConnect.Algorithm.QCAlgorithm.</text>
<text text-anchor="middle" x="346.5" y="-84" font-family="Helvetica,sans-Serif" font-size="10.00">RegisterIndicator</text>
</a>
</g>
</g>
<!-- Node1&#45;&gt;Node2 -->
<g id="edge1" class="edge">
<title>Node1&#45;&gt;Node2</title>
<path fill="none" stroke="midnightblue" d="M186.11,-63.02C207.6,-66.93 230.89,-71.16 252.86,-75.16"/>
<polygon fill="midnightblue" stroke="midnightblue" points="252.39,-78.63 262.86,-76.97 253.64,-71.74 252.39,-78.63"/>
</g>
<!-- Node3 -->
<g id="node3" class="node">
<title>Node3</title>
<g id="a_node3"><a xlink:href="classQuantConnect_1_1Algorithm_1_1QCAlgorithm.html#ade17e71e20d320dc9a1efa3ddf8aa3cd" target="_top" xlink:title="Gets the default consolidator for the specified symbol and resolution">
<polygon fill="white" stroke="black" points="488,-55 488,-85 693,-85 693,-55 488,-55"/>
<text text-anchor="start" x="496" y="-73" font-family="Helvetica,sans-Serif" font-size="10.00">QuantConnect.Algorithm.QCAlgorithm.</text>
<text text-anchor="middle" x="590.5" y="-62" font-family="Helvetica,sans-Serif" font-size="10.00">ResolveConsolidator</text>
</a>
</g>
</g>
<!-- Node1&#45;&gt;Node3 -->
<g id="edge6" class="edge">
<title>Node1&#45;&gt;Node3</title>
<path fill="none" stroke="midnightblue" d="M205.09,-52.6C284.69,-56.2 395.34,-61.21 477.5,-64.93"/>
<polygon fill="midnightblue" stroke="midnightblue" points="477.48,-68.43 487.63,-65.39 477.8,-61.44 477.48,-68.43"/>
</g>
<!-- Node7 -->
<g id="node7" class="node">
<title>Node7</title>
<g id="a_node7"><a xlink:href="classQuantConnect_1_1Algorithm_1_1QCAlgorithm.html#a47eae84c2f0b8e98dbc61b555b645865" target="_top" xlink:title="Creates a new Theta indicator for the symbol The indicator will be automatically updated on the symbo...">
<polygon fill="white" stroke="black" points="241,-0.5 241,-19.5 452,-19.5 452,-0.5 241,-0.5"/>
<text text-anchor="middle" x="346.5" y="-7.5" font-family="Helvetica,sans-Serif" font-size="10.00">QuantConnect.Algorithm.QCAlgorithm.T</text>
</a>
</g>
</g>
<!-- Node1&#45;&gt;Node7 -->
<g id="edge7" class="edge">
<title>Node1&#45;&gt;Node7</title>
<path fill="none" stroke="midnightblue" d="M199.14,-32.98C224.46,-29.01 251.33,-24.79 275.04,-21.06"/>
<polygon fill="midnightblue" stroke="midnightblue" points="275.66,-24.51 284.99,-19.5 274.57,-17.59 275.66,-24.51"/>
</g>
<!-- Node2&#45;&gt;Node3 -->
<g id="edge2" class="edge">
<title>Node2&#45;&gt;Node3</title>
<path fill="none" stroke="midnightblue" d="M449.08,-82.77C458.48,-81.91 468.05,-81.04 477.54,-80.18"/>
<polygon fill="midnightblue" stroke="midnightblue" points="478.15,-83.64 487.79,-79.25 477.52,-76.67 478.15,-83.64"/>
</g>
<!-- Node4 -->
<g id="node4" class="node">
<title>Node4</title>
<g id="a_node4"><a xlink:href="classQuantConnect_1_1Algorithm_1_1QCAlgorithm.html#a656b1f8da059abe31170845a61834a09" target="_top" xlink:title="Creates a new consolidator for the specified period, generating the requested output type.">
<polygon fill="white" stroke="black" points="742,-80 742,-110 947,-110 947,-80 742,-80"/>
<text text-anchor="start" x="750" y="-98" font-family="Helvetica,sans-Serif" font-size="10.00">QuantConnect.Algorithm.QCAlgorithm.</text>
<text text-anchor="middle" x="844.5" y="-87" font-family="Helvetica,sans-Serif" font-size="10.00">CreateConsolidator</text>
</a>
</g>
</g>
<!-- Node3&#45;&gt;Node4 -->
<g id="edge3" class="edge">
<title>Node3&#45;&gt;Node4</title>
<path fill="none" stroke="midnightblue" d="M693.27,-80.1C705.88,-81.35 718.83,-82.63 731.58,-83.9"/>
<polygon fill="midnightblue" stroke="midnightblue" points="731.46,-87.4 741.76,-84.91 732.15,-80.44 731.46,-87.4"/>
</g>
<!-- Node5 -->
<g id="node5" class="node">
<title>Node5</title>
<g id="a_node5"><a xlink:href="classQuantConnect_1_1Util_1_1LeanData.html#adf1799b921849e0643385e6794ec2471" target="_top" xlink:title="Get the TickType for common Lean data types. If not a Lean common data type, return a TickType of Tra...">
<polygon fill="white" stroke="black" points="729,-31 729,-61 960,-61 960,-31 729,-31"/>
<text text-anchor="start" x="737" y="-49" font-family="Helvetica,sans-Serif" font-size="10.00">QuantConnect.Util.LeanData.</text>
<text text-anchor="middle" x="844.5" y="-38" font-family="Helvetica,sans-Serif" font-size="10.00">GetCommonTickTypeForCommonDataTypes</text>
</a>
</g>
</g>
<!-- Node3&#45;&gt;Node5 -->
<g id="edge4" class="edge">
<title>Node3&#45;&gt;Node5</title>
<path fill="none" stroke="midnightblue" d="M693.27,-60.31C701.72,-59.5 710.31,-58.68 718.9,-57.87"/>
<polygon fill="midnightblue" stroke="midnightblue" points="719.34,-61.34 728.96,-56.91 718.67,-54.37 719.34,-61.34"/>
</g>
<!-- Node6 -->
<g id="node6" class="node">
<title>Node6</title>
<g id="a_node6"><a xlink:href="classQuantConnect_1_1Util_1_1LeanData.html#a24869ac4b029b3f2d468596baab6d72d" target="_top" xlink:title="Gets the tick type most commonly associated with the specified security type">
<polygon fill="white" stroke="black" points="996,-31 996,-61 1154,-61 1154,-31 996,-31"/>
<text text-anchor="start" x="1004" y="-49" font-family="Helvetica,sans-Serif" font-size="10.00">QuantConnect.Util.LeanData.</text>
<text text-anchor="middle" x="1075" y="-38" font-family="Helvetica,sans-Serif" font-size="10.00">GetCommonTickType</text>
</a>
</g>
</g>
<!-- Node5&#45;&gt;Node6 -->
<g id="edge5" class="edge">
<title>Node5&#45;&gt;Node6</title>
<path fill="none" stroke="midnightblue" d="M960.08,-46C968.71,-46 977.34,-46 985.77,-46"/>
<polygon fill="midnightblue" stroke="midnightblue" points="985.93,-49.5 995.93,-46 985.93,-42.5 985.93,-49.5"/>
</g>
</g>
</svg>
