<?xml version="1.0" encoding="UTF-8" standalone="no"?>
<!DOCTYPE svg PUBLIC "-//W3C//DTD SVG 1.1//EN"
 "http://www.w3.org/Graphics/SVG/1.1/DTD/svg11.dtd">
<!-- Generated by graphviz version 2.43.0 (0)
 -->
<!-- Title: QuantConnect.Python.BasePythonWrapper.GetMethod Pages: 1 -->
<svg width="450pt" height="362pt"
 viewBox="0.00 0.00 450.00 362.00" xmlns="http://www.w3.org/2000/svg" xmlns:xlink="http://www.w3.org/1999/xlink">
<g id="graph0" class="graph" transform="scale(1 1) rotate(0) translate(4 358)">
<title>QuantConnect.Python.BasePythonWrapper.GetMethod</title>
<polygon fill="white" stroke="transparent" points="-4,4 -4,-358 446,-358 446,4 -4,4"/>
<!-- Node1 -->
<g id="node1" class="node">
<title>Node1</title>
<g id="a_node1"><a xlink:title="Gets the Python instances method with the specified name and caches it">
<polygon fill="#bfbfbf" stroke="black" points="293,-165 293,-195 442,-195 442,-165 293,-165"/>
<text text-anchor="start" x="301" y="-183" font-family="Helvetica,sans-Serif" font-size="10.00">QuantConnect.Python.Base</text>
<text text-anchor="middle" x="367.5" y="-172" font-family="Helvetica,sans-Serif" font-size="10.00">PythonWrapper.GetMethod</text>
</a>
</g>
</g>
<!-- Node2 -->
<g id="node2" class="node">
<title>Node2</title>
<g id="a_node2"><a xlink:href="classQuantConnect_1_1Python_1_1BasePythonWrapper.html#a05fa6adc417fbc2930f9bb95c91af17a" target="_top" xlink:title="Invokes the specified method with the specified arguments">
<polygon fill="white" stroke="black" points="39,-312.5 39,-353.5 218,-353.5 218,-312.5 39,-312.5"/>
<text text-anchor="start" x="47" y="-341.5" font-family="Helvetica,sans-Serif" font-size="10.00">QuantConnect.Python.Base</text>
<text text-anchor="start" x="47" y="-330.5" font-family="Helvetica,sans-Serif" font-size="10.00">PythonWrapper&lt; IOptionExercise</text>
<text text-anchor="middle" x="128.5" y="-319.5" font-family="Helvetica,sans-Serif" font-size="10.00">Model &gt;::InvokeMethod</text>
</a>
</g>
</g>
<!-- Node1&#45;&gt;Node2 -->
<g id="edge1" class="edge">
<title>Node1&#45;&gt;Node2</title>
<path fill="none" stroke="midnightblue" d="M352.04,-203.63C333.56,-231.75 298.89,-278.05 257,-303 245.18,-310.04 231.83,-315.43 218.32,-319.55"/>
<polygon fill="midnightblue" stroke="midnightblue" points="355.01,-205.49 357.46,-195.18 349.12,-201.71 355.01,-205.49"/>
</g>
<!-- Node3 -->
<g id="node3" class="node">
<title>Node3</title>
<g id="a_node3"><a xlink:href="classQuantConnect_1_1Python_1_1BasePythonWrapper.html#a86bbd0a69ec3954946b69c5d0c707ecd" target="_top" xlink:title="Invokes the specified method with the specified arguments">
<polygon fill="white" stroke="black" points="39,-252.5 39,-293.5 218,-293.5 218,-252.5 39,-252.5"/>
<text text-anchor="start" x="47" y="-281.5" font-family="Helvetica,sans-Serif" font-size="10.00">QuantConnect.Python.Base</text>
<text text-anchor="start" x="47" y="-270.5" font-family="Helvetica,sans-Serif" font-size="10.00">PythonWrapper&lt; IOptionExercise</text>
<text text-anchor="middle" x="128.5" y="-259.5" font-family="Helvetica,sans-Serif" font-size="10.00">Model &gt;::InvokeMethod&lt; T &gt;</text>
</a>
</g>
</g>
<!-- Node1&#45;&gt;Node3 -->
<g id="edge2" class="edge">
<title>Node1&#45;&gt;Node3</title>
<path fill="none" stroke="midnightblue" d="M336.21,-200.65C314.87,-214.37 285.2,-231.85 257,-243 244.74,-247.85 231.48,-252.04 218.32,-255.63"/>
<polygon fill="midnightblue" stroke="midnightblue" points="338.36,-203.43 344.81,-195.03 334.53,-197.57 338.36,-203.43"/>
</g>
<!-- Node4 -->
<g id="node4" class="node">
<title>Node4</title>
<g id="a_node4"><a xlink:href="classQuantConnect_1_1Python_1_1BasePythonWrapper.html#a18c5f7faba1dd61848633e36fda57028" target="_top" xlink:title="Invokes the specified method with the specified arguments and iterates over the returned values">
<polygon fill="white" stroke="black" points="12,-192.5 12,-233.5 245,-233.5 245,-192.5 12,-192.5"/>
<text text-anchor="start" x="20" y="-221.5" font-family="Helvetica,sans-Serif" font-size="10.00">QuantConnect.Python.Base</text>
<text text-anchor="start" x="20" y="-210.5" font-family="Helvetica,sans-Serif" font-size="10.00">PythonWrapper&lt; IOptionExercise</text>
<text text-anchor="middle" x="128.5" y="-199.5" font-family="Helvetica,sans-Serif" font-size="10.00">Model &gt;::InvokeMethodAndEnumerate&lt; T &gt;</text>
</a>
</g>
</g>
<!-- Node1&#45;&gt;Node4 -->
<g id="edge3" class="edge">
<title>Node1&#45;&gt;Node4</title>
<path fill="none" stroke="midnightblue" d="M282.76,-191.66C270.64,-193.35 257.98,-195.11 245.36,-196.87"/>
<polygon fill="midnightblue" stroke="midnightblue" points="283.39,-195.11 292.81,-190.26 282.42,-188.17 283.39,-195.11"/>
</g>
<!-- Node5 -->
<g id="node5" class="node">
<title>Node5</title>
<g id="a_node5"><a xlink:href="classQuantConnect_1_1Python_1_1BasePythonWrapper.html#a2ae68f46f18550d4715e689a4ca59cc4" target="_top" xlink:title="Invokes the specified method with the specified arguments and iterates over the returned values">
<polygon fill="white" stroke="black" points="19,-121 19,-173 238,-173 238,-121 19,-121"/>
<text text-anchor="start" x="27" y="-161" font-family="Helvetica,sans-Serif" font-size="10.00">QuantConnect.Python.Base</text>
<text text-anchor="start" x="27" y="-150" font-family="Helvetica,sans-Serif" font-size="10.00">PythonWrapper&lt; IOptionExercise</text>
<text text-anchor="start" x="27" y="-139" font-family="Helvetica,sans-Serif" font-size="10.00">Model &gt;::InvokeMethodAndGetDictionary</text>
<text text-anchor="middle" x="128.5" y="-128" font-family="Helvetica,sans-Serif" font-size="10.00">&lt; TKey, TValue &gt;</text>
</a>
</g>
</g>
<!-- Node1&#45;&gt;Node5 -->
<g id="edge4" class="edge">
<title>Node1&#45;&gt;Node5</title>
<path fill="none" stroke="midnightblue" d="M282.54,-168.31C268.24,-166.32 253.21,-164.23 238.38,-162.16"/>
<polygon fill="midnightblue" stroke="midnightblue" points="282.42,-171.83 292.81,-169.74 283.39,-164.89 282.42,-171.83"/>
</g>
<!-- Node6 -->
<g id="node6" class="node">
<title>Node6</title>
<g id="a_node6"><a xlink:href="classQuantConnect_1_1Python_1_1BasePythonWrapper.html#a4159383c139b03fe9297fbf012dc47ab" target="_top" xlink:title="Invokes the specified method with the specified arguments and wraps the result by calling the given f...">
<polygon fill="white" stroke="black" points="10.5,-60.5 10.5,-101.5 246.5,-101.5 246.5,-60.5 10.5,-60.5"/>
<text text-anchor="start" x="18.5" y="-89.5" font-family="Helvetica,sans-Serif" font-size="10.00">QuantConnect.Python.Base</text>
<text text-anchor="start" x="18.5" y="-78.5" font-family="Helvetica,sans-Serif" font-size="10.00">PythonWrapper&lt; IOptionExercise</text>
<text text-anchor="middle" x="128.5" y="-67.5" font-family="Helvetica,sans-Serif" font-size="10.00">Model &gt;::InvokeMethodAndWrapResult&lt; T &gt;</text>
</a>
</g>
</g>
<!-- Node1&#45;&gt;Node6 -->
<g id="edge5" class="edge">
<title>Node1&#45;&gt;Node6</title>
<path fill="none" stroke="midnightblue" d="M338.3,-158.99C316.95,-143.97 286.38,-124.32 257,-112 247.76,-108.12 237.92,-104.66 227.98,-101.59"/>
<polygon fill="midnightblue" stroke="midnightblue" points="336.4,-161.93 346.57,-164.9 340.47,-156.24 336.4,-161.93"/>
</g>
<!-- Node7 -->
<g id="node7" class="node">
<title>Node7</title>
<g id="a_node7"><a xlink:href="classQuantConnect_1_1Python_1_1BasePythonWrapper.html#a2c87ebcd848a9ef436cef00fe7493679" target="_top" xlink:title="Invokes the specified method with the specified arguments and out parameters">
<polygon fill="white" stroke="black" points="0,-0.5 0,-41.5 257,-41.5 257,-0.5 0,-0.5"/>
<text text-anchor="start" x="8" y="-29.5" font-family="Helvetica,sans-Serif" font-size="10.00">QuantConnect.Python.Base</text>
<text text-anchor="start" x="8" y="-18.5" font-family="Helvetica,sans-Serif" font-size="10.00">PythonWrapper&lt; IOptionExercise</text>
<text text-anchor="middle" x="128.5" y="-7.5" font-family="Helvetica,sans-Serif" font-size="10.00">Model &gt;::InvokeMethodWithOutParameters&lt; T &gt;</text>
</a>
</g>
</g>
<!-- Node1&#45;&gt;Node7 -->
<g id="edge6" class="edge">
<title>Node1&#45;&gt;Node7</title>
<path fill="none" stroke="midnightblue" d="M352.9,-156.14C334.86,-126.74 300.19,-77.42 257,-51 251.18,-47.44 244.97,-44.3 238.55,-41.54"/>
<polygon fill="midnightblue" stroke="midnightblue" points="350.02,-158.15 358.16,-164.94 356.03,-154.56 350.02,-158.15"/>
</g>
</g>
</svg>
