<?xml version="1.0" encoding="UTF-8" standalone="no"?>
<!DOCTYPE svg PUBLIC "-//W3C//DTD SVG 1.1//EN"
 "http://www.w3.org/Graphics/SVG/1.1/DTD/svg11.dtd">
<!-- Generated by graphviz version 2.43.0 (0)
 -->
<!-- Title: QuantConnect.Indicators.OptionGreekIndicatorsHelper.ForwardTreeTheoreticalPrice Pages: 1 -->
<svg width="345pt" height="235pt"
 viewBox="0.00 0.00 345.00 235.00" xmlns="http://www.w3.org/2000/svg" xmlns:xlink="http://www.w3.org/1999/xlink">
<g id="graph0" class="graph" transform="scale(1 1) rotate(0) translate(4 231)">
<title>QuantConnect.Indicators.OptionGreekIndicatorsHelper.ForwardTreeTheoreticalPrice</title>
<polygon fill="white" stroke="transparent" points="-4,4 -4,-231 341,-231 341,4 -4,4"/>
<!-- Node1 -->
<g id="node1" class="node">
<title>Node1</title>
<g id="a_node1"><a xlink:title="Creates the Forward Binomial Theoretical Price Tree from the given parameters">
<polygon fill="#bfbfbf" stroke="black" points="176,-93 176,-134 337,-134 337,-93 176,-93"/>
<text text-anchor="start" x="184" y="-122" font-family="Helvetica,sans-Serif" font-size="10.00">QuantConnect.Indicators.</text>
<text text-anchor="start" x="184" y="-111" font-family="Helvetica,sans-Serif" font-size="10.00">OptionGreekIndicatorsHelper.</text>
<text text-anchor="middle" x="256.5" y="-100" font-family="Helvetica,sans-Serif" font-size="10.00">ForwardTreeTheoreticalPrice</text>
</a>
</g>
</g>
<!-- Node2 -->
<g id="node2" class="node">
<title>Node2</title>
<g id="a_node2"><a xlink:href="classQuantConnect_1_1Indicators_1_1Delta.html#a98d75c0ef4a230aaeecbebe983e63e07" target="_top" xlink:title="Calculate the Delta of the option">
<polygon fill="white" stroke="black" points="0,-196.5 0,-226.5 140,-226.5 140,-196.5 0,-196.5"/>
<text text-anchor="start" x="8" y="-214.5" font-family="Helvetica,sans-Serif" font-size="10.00">QuantConnect.Indicators.</text>
<text text-anchor="middle" x="70" y="-203.5" font-family="Helvetica,sans-Serif" font-size="10.00">Delta.CalculateGreek</text>
</a>
</g>
</g>
<!-- Node1&#45;&gt;Node2 -->
<g id="edge1" class="edge">
<title>Node1&#45;&gt;Node2</title>
<path fill="none" stroke="midnightblue" d="M219.22,-139.88C197.09,-155.17 167.8,-173.99 140,-187.5 133.38,-190.71 126.22,-193.7 119.11,-196.41"/>
<polygon fill="midnightblue" stroke="midnightblue" points="221.45,-142.6 227.64,-134 217.44,-136.86 221.45,-142.6"/>
</g>
<!-- Node3 -->
<g id="node3" class="node">
<title>Node3</title>
<g id="a_node3"><a xlink:href="classQuantConnect_1_1Indicators_1_1Vega.html#ad4d500460d9ed27ea6e4a110ea688887" target="_top" xlink:title="Calculate the Vega of the option">
<polygon fill="white" stroke="black" points="0,-147.5 0,-177.5 140,-177.5 140,-147.5 0,-147.5"/>
<text text-anchor="start" x="8" y="-165.5" font-family="Helvetica,sans-Serif" font-size="10.00">QuantConnect.Indicators.</text>
<text text-anchor="middle" x="70" y="-154.5" font-family="Helvetica,sans-Serif" font-size="10.00">Vega.CalculateGreek</text>
</a>
</g>
</g>
<!-- Node1&#45;&gt;Node3 -->
<g id="edge2" class="edge">
<title>Node1&#45;&gt;Node3</title>
<path fill="none" stroke="midnightblue" d="M168.06,-136.72C154.27,-140.39 140.33,-144.09 127.49,-147.5"/>
<polygon fill="midnightblue" stroke="midnightblue" points="169.29,-140.02 178.06,-134.07 167.49,-133.25 169.29,-140.02"/>
</g>
<!-- Node4 -->
<g id="node4" class="node">
<title>Node4</title>
<g id="a_node4"><a xlink:href="classQuantConnect_1_1Indicators_1_1Theta.html#a15109c77da71f84fdb06d46ef8b4f518" target="_top" xlink:title="Calculate the Theta of the option">
<polygon fill="white" stroke="black" points="0,-98.5 0,-128.5 140,-128.5 140,-98.5 0,-98.5"/>
<text text-anchor="start" x="8" y="-116.5" font-family="Helvetica,sans-Serif" font-size="10.00">QuantConnect.Indicators.</text>
<text text-anchor="middle" x="70" y="-105.5" font-family="Helvetica,sans-Serif" font-size="10.00">Theta.CalculateGreek</text>
</a>
</g>
</g>
<!-- Node1&#45;&gt;Node4 -->
<g id="edge3" class="edge">
<title>Node1&#45;&gt;Node4</title>
<path fill="none" stroke="midnightblue" d="M165.83,-113.5C157.21,-113.5 148.55,-113.5 140.17,-113.5"/>
<polygon fill="midnightblue" stroke="midnightblue" points="165.92,-117 175.92,-113.5 165.92,-110 165.92,-117"/>
</g>
<!-- Node5 -->
<g id="node5" class="node">
<title>Node5</title>
<g id="a_node5"><a xlink:href="classQuantConnect_1_1Indicators_1_1Rho.html#a89fe0366d87191ed7865745ead3fd811" target="_top" xlink:title="Calculate the Rho of the option">
<polygon fill="white" stroke="black" points="0,-49.5 0,-79.5 140,-79.5 140,-49.5 0,-49.5"/>
<text text-anchor="start" x="8" y="-67.5" font-family="Helvetica,sans-Serif" font-size="10.00">QuantConnect.Indicators.</text>
<text text-anchor="middle" x="70" y="-56.5" font-family="Helvetica,sans-Serif" font-size="10.00">Rho.CalculateGreek</text>
</a>
</g>
</g>
<!-- Node1&#45;&gt;Node5 -->
<g id="edge4" class="edge">
<title>Node1&#45;&gt;Node5</title>
<path fill="none" stroke="midnightblue" d="M168.06,-90.28C154.27,-86.61 140.33,-82.91 127.49,-79.5"/>
<polygon fill="midnightblue" stroke="midnightblue" points="167.49,-93.75 178.06,-92.93 169.29,-86.98 167.49,-93.75"/>
</g>
<!-- Node6 -->
<g id="node6" class="node">
<title>Node6</title>
<g id="a_node6"><a xlink:href="classQuantConnect_1_1Indicators_1_1Gamma.html#adec286607371297b1c19513a9cb3f7ca" target="_top" xlink:title="Calculate the Gamma of the option">
<polygon fill="white" stroke="black" points="0,-0.5 0,-30.5 140,-30.5 140,-0.5 0,-0.5"/>
<text text-anchor="start" x="8" y="-18.5" font-family="Helvetica,sans-Serif" font-size="10.00">QuantConnect.Indicators.</text>
<text text-anchor="middle" x="70" y="-7.5" font-family="Helvetica,sans-Serif" font-size="10.00">Gamma.CalculateGreek</text>
</a>
</g>
</g>
<!-- Node1&#45;&gt;Node6 -->
<g id="edge5" class="edge">
<title>Node1&#45;&gt;Node6</title>
<path fill="none" stroke="midnightblue" d="M218.2,-87.02C196.14,-72.11 167.27,-53.86 140,-40.5 132.68,-36.91 124.7,-33.56 116.86,-30.54"/>
<polygon fill="midnightblue" stroke="midnightblue" points="216.38,-90.01 226.61,-92.77 220.33,-84.23 216.38,-90.01"/>
</g>
</g>
</svg>
