<?xml version="1.0" encoding="UTF-8" standalone="no"?>
<!DOCTYPE svg PUBLIC "-//W3C//DTD SVG 1.1//EN"
 "http://www.w3.org/Graphics/SVG/1.1/DTD/svg11.dtd">
<!-- Generated by graphviz version 2.43.0 (0)
 -->
<!-- Title: QuantConnect.Algorithm.QCAlgorithm.OptionChain Pages: 1 -->
<!--zoomable 160 -->
<svg id="main" version="1.1" xmlns="http://www.w3.org/2000/svg" xmlns:xlink="http://www.w3.org/1999/xlink" xml:space="preserve" onload="init(evt)">
<style type="text/css"><![CDATA[
.edge:hover path { stroke: red; }
.edge:hover polygon { stroke: red; fill: red; }
]]></style>
<script type="text/javascript"><![CDATA[
var edges = document.getElementsByTagName('g');
if (edges && edges.length) {
  for (var i=0;i<edges.length;i++) {
    if (edges[i].id.substr(0,4)=='edge') {
      edges[i].setAttribute('class','edge');
    }
  }
}
]]></script>
        <defs>
                <circle id="rim" cx="0" cy="0" r="7"/>
                <circle id="rim2" cx="0" cy="0" r="3.5"/>
                <g id="zoomPlus">
                        <use xlink:href="#rim" fill="#404040">
                                <set attributeName="fill" to="#808080" begin="zoomplus.mouseover" end="zoomplus.mouseout"/>
                        </use>
                        <path d="M-4,0h8M0,-4v8" fill="none" stroke="white" stroke-width="1.5" pointer-events="none"/>
                </g>
                <g id="zoomMin">
                        <use xlink:href="#rim" fill="#404040">
                                <set attributeName="fill" to="#808080" begin="zoomminus.mouseover" end="zoomminus.mouseout"/>
                        </use>
                        <path d="M-4,0h8" fill="none" stroke="white" stroke-width="1.5" pointer-events="none"/>
                </g>
                <g id="dirArrow">
                        <path fill="none" stroke="white" stroke-width="1.5" d="M0,-3.0v7 M-2.5,-0.5L0,-3.0L2.5,-0.5"/>
                </g>
               <g id="resetDef">
                       <use xlink:href="#rim2" fill="#404040">
                               <set attributeName="fill" to="#808080" begin="reset.mouseover" end="reset.mouseout"/>
                       </use>
               </g>
        </defs>

<script type="text/javascript">
var viewWidth = 1151;
var viewHeight = 160;
var sectionId = 'dynsection-106';
</script>
<script xlink:href="svgpan.js"/>
<svg id="graph" class="graph">
<g id="viewport">
<title>QuantConnect.Algorithm.QCAlgorithm.OptionChain</title>
<polygon fill="white" stroke="transparent" points="-4,4 -4,-155.5 1147,-155.5 1147,4 -4,4"/>
<!-- Node1 -->
<g id="node1" class="node">
<title>Node1</title>
<g id="a_node1"><a xlink:title="Get the option chain for the specified symbol at the current time (Time)">
<polygon fill="#bfbfbf" stroke="black" points="0,-55.5 0,-85.5 205,-85.5 205,-55.5 0,-55.5"/>
<text text-anchor="start" x="8" y="-73.5" font-family="Helvetica,sans-Serif" font-size="10.00">QuantConnect.Algorithm.QCAlgorithm.</text>
<text text-anchor="middle" x="102.5" y="-62.5" font-family="Helvetica,sans-Serif" font-size="10.00">OptionChain</text>
</a>
</g>
</g>
<!-- Node2 -->
<g id="node2" class="node">
<title>Node2</title>
<g id="a_node2"><a xlink:href="classQuantConnect_1_1Algorithm_1_1QCAlgorithm.html#ab0ce62f4aed3af8852c58a99cf3aa245" target="_top" xlink:title="Get the option chains for the specified symbols at the current time (Time)">
<polygon fill="white" stroke="black" points="241,-55.5 241,-85.5 446,-85.5 446,-55.5 241,-55.5"/>
<text text-anchor="start" x="249" y="-73.5" font-family="Helvetica,sans-Serif" font-size="10.00">QuantConnect.Algorithm.QCAlgorithm.</text>
<text text-anchor="middle" x="343.5" y="-62.5" font-family="Helvetica,sans-Serif" font-size="10.00">OptionChains</text>
</a>
</g>
</g>
<!-- Node1&#45;&gt;Node2 -->
<g id="edge1" class="edge">
<title>Node1&#45;&gt;Node2</title>
<path fill="none" stroke="midnightblue" d="M205.2,-63.82C213.7,-63.75 222.31,-63.73 230.87,-63.76"/>
<polygon fill="midnightblue" stroke="midnightblue" points="230.87,-67.26 240.89,-63.82 230.91,-60.26 230.87,-67.26"/>
</g>
<!-- Node2&#45;&gt;Node1 -->
<g id="edge8" class="edge">
<title>Node2&#45;&gt;Node1</title>
<path fill="none" stroke="midnightblue" d="M240.89,-77.18C232.4,-77.25 223.78,-77.27 215.22,-77.24"/>
<polygon fill="midnightblue" stroke="midnightblue" points="215.22,-73.74 205.2,-77.18 215.18,-80.74 215.22,-73.74"/>
</g>
<!-- Node3 -->
<g id="node3" class="node">
<title>Node3</title>
<g id="a_node3"><a xlink:href="interfaceQuantConnect_1_1Interfaces_1_1IOptionChainProvider.html#ae84aa4fcafd5bd9723724ffd4c8878ee" target="_top" xlink:title="Gets the list of option contracts for a given underlying symbol">
<polygon fill="white" stroke="black" points="498.5,-110 498.5,-151 670.5,-151 670.5,-110 498.5,-110"/>
<text text-anchor="start" x="506.5" y="-139" font-family="Helvetica,sans-Serif" font-size="10.00">QuantConnect.Interfaces.</text>
<text text-anchor="start" x="506.5" y="-128" font-family="Helvetica,sans-Serif" font-size="10.00">IOptionChainProvider.GetOption</text>
<text text-anchor="middle" x="584.5" y="-117" font-family="Helvetica,sans-Serif" font-size="10.00">ContractList</text>
</a>
</g>
</g>
<!-- Node2&#45;&gt;Node3 -->
<g id="edge2" class="edge">
<title>Node2&#45;&gt;Node3</title>
<path fill="none" stroke="midnightblue" d="M404.5,-85.56C430.96,-92.21 462.65,-100.16 491.96,-107.52"/>
<polygon fill="midnightblue" stroke="midnightblue" points="491.24,-110.95 501.8,-109.99 492.95,-104.16 491.24,-110.95"/>
</g>
<!-- Node4 -->
<g id="node4" class="node">
<title>Node4</title>
<g id="a_node4"><a xlink:href="classQuantConnect_1_1Securities_1_1SymbolPropertiesDatabase.html#a3ea48557a7a885c2c53529f8c4b75598" target="_top" xlink:title="Gets the symbol properties for the specified market/symbol/security&#45;type">
<polygon fill="white" stroke="black" points="499.5,-50 499.5,-91 669.5,-91 669.5,-50 499.5,-50"/>
<text text-anchor="start" x="507.5" y="-79" font-family="Helvetica,sans-Serif" font-size="10.00">QuantConnect.Securities.</text>
<text text-anchor="start" x="507.5" y="-68" font-family="Helvetica,sans-Serif" font-size="10.00">SymbolPropertiesDatabase.Get</text>
<text text-anchor="middle" x="584.5" y="-57" font-family="Helvetica,sans-Serif" font-size="10.00">SymbolProperties</text>
</a>
</g>
</g>
<!-- Node2&#45;&gt;Node4 -->
<g id="edge3" class="edge">
<title>Node2&#45;&gt;Node4</title>
<path fill="none" stroke="midnightblue" d="M446.2,-70.5C460.41,-70.5 474.97,-70.5 489.04,-70.5"/>
<polygon fill="midnightblue" stroke="midnightblue" points="489.19,-74 499.19,-70.5 489.19,-67 489.19,-74"/>
</g>
<!-- Node8 -->
<g id="node8" class="node">
<title>Node8</title>
<g id="a_node8"><a xlink:href="classQuantConnect_1_1Algorithm_1_1QCAlgorithm.html#a446a10e68319fdc3c0b2ed85d80f55f8" target="_top" xlink:title="Get the history for all configured securities over the requested span. This will use the resolution a...">
<polygon fill="white" stroke="black" points="482,-0.5 482,-30.5 687,-30.5 687,-0.5 482,-0.5"/>
<text text-anchor="start" x="490" y="-18.5" font-family="Helvetica,sans-Serif" font-size="10.00">QuantConnect.Algorithm.QCAlgorithm.</text>
<text text-anchor="middle" x="584.5" y="-7.5" font-family="Helvetica,sans-Serif" font-size="10.00">History</text>
</a>
</g>
</g>
<!-- Node2&#45;&gt;Node8 -->
<g id="edge7" class="edge">
<title>Node2&#45;&gt;Node8</title>
<path fill="none" stroke="midnightblue" d="M409.81,-55.47C440.24,-48.47 476.62,-40.1 508.2,-32.83"/>
<polygon fill="midnightblue" stroke="midnightblue" points="509.31,-36.16 518.27,-30.51 507.74,-29.34 509.31,-36.16"/>
</g>
<!-- Node5 -->
<g id="node5" class="node">
<title>Node5</title>
<g id="a_node5"><a xlink:href="classQuantConnect_1_1Securities_1_1MarketHoursDatabase.html#aa717adb9bb04be931913608ffd5a2733" target="_top" xlink:title="Gets the correct string symbol to use as a database key">
<polygon fill="white" stroke="black" points="723,-77 723,-118 915,-118 915,-77 723,-77"/>
<text text-anchor="start" x="731" y="-106" font-family="Helvetica,sans-Serif" font-size="10.00">QuantConnect.Securities.</text>
<text text-anchor="start" x="731" y="-95" font-family="Helvetica,sans-Serif" font-size="10.00">MarketHoursDatabase.GetDatabase</text>
<text text-anchor="middle" x="819" y="-84" font-family="Helvetica,sans-Serif" font-size="10.00">SymbolKey</text>
</a>
</g>
</g>
<!-- Node4&#45;&gt;Node5 -->
<g id="edge4" class="edge">
<title>Node4&#45;&gt;Node5</title>
<path fill="none" stroke="midnightblue" d="M669.77,-80.29C683.81,-81.92 698.53,-83.63 713.01,-85.31"/>
<polygon fill="midnightblue" stroke="midnightblue" points="712.65,-88.79 722.99,-86.47 713.46,-81.84 712.65,-88.79"/>
</g>
<!-- Node6 -->
<g id="node6" class="node">
<title>Node6</title>
<g id="a_node6"><a xlink:href="classQuantConnect_1_1Securities_1_1SymbolProperties.html#ad148190d1dfce7109d38d3107b7b8fbf" target="_top" xlink:title="Gets a default instance of the SymbolProperties class for the specified quoteCurrency">
<polygon fill="white" stroke="black" points="739.5,-27.5 739.5,-57.5 898.5,-57.5 898.5,-27.5 739.5,-27.5"/>
<text text-anchor="start" x="747.5" y="-45.5" font-family="Helvetica,sans-Serif" font-size="10.00">QuantConnect.Securities.</text>
<text text-anchor="middle" x="819" y="-34.5" font-family="Helvetica,sans-Serif" font-size="10.00">SymbolProperties.GetDefault</text>
</a>
</g>
</g>
<!-- Node4&#45;&gt;Node6 -->
<g id="edge5" class="edge">
<title>Node4&#45;&gt;Node6</title>
<path fill="none" stroke="midnightblue" d="M669.77,-60.35C689.13,-58.02 709.78,-55.53 729.33,-53.18"/>
<polygon fill="midnightblue" stroke="midnightblue" points="729.93,-56.63 739.44,-51.96 729.09,-49.68 729.93,-56.63"/>
</g>
<!-- Node7 -->
<g id="node7" class="node">
<title>Node7</title>
<g id="a_node7"><a xlink:href="classQuantConnect_1_1Securities_1_1SymbolProperties.html#a0f421617bcddd5b08a830689b1e2dcfa" target="_top" xlink:title="Creates an instance of the SymbolProperties class">
<polygon fill="white" stroke="black" points="951,-27.5 951,-57.5 1143,-57.5 1143,-27.5 951,-27.5"/>
<text text-anchor="start" x="959" y="-45.5" font-family="Helvetica,sans-Serif" font-size="10.00">QuantConnect.Securities.</text>
<text text-anchor="middle" x="1047" y="-34.5" font-family="Helvetica,sans-Serif" font-size="10.00">SymbolProperties.SymbolProperties</text>
</a>
</g>
</g>
<!-- Node6&#45;&gt;Node7 -->
<g id="edge6" class="edge">
<title>Node6&#45;&gt;Node7</title>
<path fill="none" stroke="midnightblue" d="M898.73,-42.5C912.26,-42.5 926.51,-42.5 940.61,-42.5"/>
<polygon fill="midnightblue" stroke="midnightblue" points="940.83,-46 950.83,-42.5 940.83,-39 940.83,-46"/>
</g>
</g>
</svg>
        <g id="navigator" transform="translate(0 0)" fill="#404254">
                <rect fill="#f2f5e9" fill-opacity="0.5" stroke="#606060" stroke-width=".5" x="0" y="0" width="60" height="60"/>
                <use id="zoomplus" xlink:href="#zoomPlus" x="17" y="9" onmousedown="handleZoom(evt,'in')"/>
                <use id="zoomminus" xlink:href="#zoomMin" x="42" y="9" onmousedown="handleZoom(evt,'out')"/>
                <use id="reset" xlink:href="#resetDef" x="30" y="36" onmousedown="handleReset()"/>
                <g id="arrowUp" xlink:href="#dirArrow" transform="translate(30 24)" onmousedown="handlePan(0,-1)">
                  <use xlink:href="#rim" fill="#404040">
                        <set attributeName="fill" to="#808080" begin="arrowUp.mouseover" end="arrowUp.mouseout"/>
                  </use>
                  <path fill="none" stroke="white" stroke-width="1.5" d="M0,-3.0v7 M-2.5,-0.5L0,-3.0L2.5,-0.5"/>
                </g>
                <g id="arrowRight" xlink:href="#dirArrow" transform="rotate(90) translate(36 -43)" onmousedown="handlePan(1,0)">
                  <use xlink:href="#rim" fill="#404040">
                        <set attributeName="fill" to="#808080" begin="arrowRight.mouseover" end="arrowRight.mouseout"/>
                  </use>
                  <path fill="none" stroke="white" stroke-width="1.5" d="M0,-3.0v7 M-2.5,-0.5L0,-3.0L2.5,-0.5"/>
                </g>
                <g id="arrowDown" xlink:href="#dirArrow" transform="rotate(180) translate(-30 -48)" onmousedown="handlePan(0,1)">
                  <use xlink:href="#rim" fill="#404040">
                        <set attributeName="fill" to="#808080" begin="arrowDown.mouseover" end="arrowDown.mouseout"/>
                  </use>
                  <path fill="none" stroke="white" stroke-width="1.5" d="M0,-3.0v7 M-2.5,-0.5L0,-3.0L2.5,-0.5"/>
                </g>
                <g id="arrowLeft" xlink:href="#dirArrow" transform="rotate(270) translate(-36 17)" onmousedown="handlePan(-1,0)">
                  <use xlink:href="#rim" fill="#404040">
                        <set attributeName="fill" to="#808080" begin="arrowLeft.mouseover" end="arrowLeft.mouseout"/>
                  </use>
                  <path fill="none" stroke="white" stroke-width="1.5" d="M0,-3.0v7 M-2.5,-0.5L0,-3.0L2.5,-0.5"/>
                </g>
        </g>
        <svg viewBox="0 0 15 15" width="100%" height="30px" preserveAspectRatio="xMaxYMin meet">
         <g id="arrow_out" transform="scale(0.3 0.3)">
          <a xlink:href="classQuantConnect_1_1Algorithm_1_1QCAlgorithm_aa259ba2e3bd6c96d4710fff0ccdd24e6_cgraph_org.svg" target="_base">
           <rect id="button" ry="5" rx="5" y="6" x="6" height="38" width="38"
                fill="#f2f5e9" fill-opacity="0.5" stroke="#606060" stroke-width="1.0"/>
           <path id="arrow"
             d="M 11.500037,31.436501 C 11.940474,20.09759 22.043105,11.32322 32.158766,21.979434 L 37.068811,17.246167 C 37.068811,17.246167 37.088388,32 37.088388,32 L 22.160133,31.978069 C 22.160133,31.978069 26.997745,27.140456 26.997745,27.140456 C 18.528582,18.264221 13.291696,25.230495 11.500037,31.436501 z"
             style="fill:#404040;"/>
          </a>
         </g>
        </svg>
</svg>
