<?xml version="1.0" encoding="UTF-8" standalone="no"?>
<!DOCTYPE svg PUBLIC "-//W3C//DTD SVG 1.1//EN"
 "http://www.w3.org/Graphics/SVG/1.1/DTD/svg11.dtd">
<!-- Generated by graphviz version 2.43.0 (0)
 -->
<!-- Title: QuantConnect.Algorithm.QCAlgorithm.History Pages: 1 -->
<svg width="1094pt" height="39pt"
 viewBox="0.00 0.00 1094.00 39.00" xmlns="http://www.w3.org/2000/svg" xmlns:xlink="http://www.w3.org/1999/xlink">
<g id="graph0" class="graph" transform="scale(1 1) rotate(0) translate(4 35)">
<title>QuantConnect.Algorithm.QCAlgorithm.History</title>
<polygon fill="white" stroke="transparent" points="-4,4 -4,-35 1090,-35 1090,4 -4,4"/>
<!-- Node1 -->
<g id="node1" class="node">
<title>Node1</title>
<g id="a_node1"><a xlink:title="Gets the historical data for the specified symbols between the specified dates. The symbols must exis...">
<polygon fill="#bfbfbf" stroke="black" points="0,-0.5 0,-30.5 205,-30.5 205,-0.5 0,-0.5"/>
<text text-anchor="start" x="8" y="-18.5" font-family="Helvetica,sans-Serif" font-size="10.00">QuantConnect.Algorithm.QCAlgorithm.</text>
<text text-anchor="middle" x="102.5" y="-7.5" font-family="Helvetica,sans-Serif" font-size="10.00">History</text>
</a>
</g>
</g>
<!-- Node2 -->
<g id="node2" class="node">
<title>Node2</title>
<g id="a_node2"><a xlink:href="classQuantConnect_1_1Algorithm_1_1QCAlgorithm.html#a3dbba29e9f318ae97e8b99a1eb19537c" target="_top" xlink:title="Helper method to create history requests from a date range">
<polygon fill="white" stroke="black" points="241,-0.5 241,-30.5 446,-30.5 446,-0.5 241,-0.5"/>
<text text-anchor="start" x="249" y="-18.5" font-family="Helvetica,sans-Serif" font-size="10.00">QuantConnect.Algorithm.QCAlgorithm.</text>
<text text-anchor="middle" x="343.5" y="-7.5" font-family="Helvetica,sans-Serif" font-size="10.00">CreateDateRangeHistoryRequests</text>
</a>
</g>
</g>
<!-- Node1&#45;&gt;Node2 -->
<g id="edge1" class="edge">
<title>Node1&#45;&gt;Node2</title>
<path fill="none" stroke="midnightblue" d="M205.2,-15.5C213.7,-15.5 222.31,-15.5 230.87,-15.5"/>
<polygon fill="midnightblue" stroke="midnightblue" points="230.89,-19 240.89,-15.5 230.89,-12 230.89,-19"/>
</g>
<!-- Node3 -->
<g id="node3" class="node">
<title>Node3</title>
<g id="a_node3"><a xlink:href="classQuantConnect_1_1Extensions.html#a4784f746909e2ee4cffea7538da5669a" target="_top" xlink:title="Retrieve a common custom data types from the given symbols if any">
<polygon fill="white" stroke="black" points="482,-0.5 482,-30.5 666,-30.5 666,-0.5 482,-0.5"/>
<text text-anchor="start" x="490" y="-18.5" font-family="Helvetica,sans-Serif" font-size="10.00">QuantConnect.Extensions.</text>
<text text-anchor="middle" x="574" y="-7.5" font-family="Helvetica,sans-Serif" font-size="10.00">GetCustomDataTypeFromSymbols</text>
</a>
</g>
</g>
<!-- Node2&#45;&gt;Node3 -->
<g id="edge2" class="edge">
<title>Node2&#45;&gt;Node3</title>
<path fill="none" stroke="midnightblue" d="M446.05,-15.5C454.53,-15.5 463.1,-15.5 471.57,-15.5"/>
<polygon fill="midnightblue" stroke="midnightblue" points="471.84,-19 481.84,-15.5 471.84,-12 471.84,-19"/>
</g>
<!-- Node4 -->
<g id="node4" class="node">
<title>Node4</title>
<g id="a_node4"><a xlink:href="classQuantConnect_1_1SecurityIdentifier.html#a2a52cbd8bce9ff527bc8021a3e3a0037" target="_top" xlink:title="Tries to fetch the custom data type associated with a symbol">
<polygon fill="white" stroke="black" points="702,-0.5 702,-30.5 876,-30.5 876,-0.5 702,-0.5"/>
<text text-anchor="start" x="710" y="-18.5" font-family="Helvetica,sans-Serif" font-size="10.00">QuantConnect.SecurityIdentifier.</text>
<text text-anchor="middle" x="789" y="-7.5" font-family="Helvetica,sans-Serif" font-size="10.00">TryGetCustomDataTypeInstance</text>
</a>
</g>
</g>
<!-- Node3&#45;&gt;Node4 -->
<g id="edge3" class="edge">
<title>Node3&#45;&gt;Node4</title>
<path fill="none" stroke="midnightblue" d="M666.26,-15.5C674.69,-15.5 683.25,-15.5 691.72,-15.5"/>
<polygon fill="midnightblue" stroke="midnightblue" points="691.99,-19 701.99,-15.5 691.99,-12 691.99,-19"/>
</g>
<!-- Node5 -->
<g id="node5" class="node">
<title>Node5</title>
<g id="a_node5"><a xlink:href="classQuantConnect_1_1SecurityIdentifier.html#a65051a4af9e25cab40451dc9ef12db6a" target="_top" xlink:title="Tries to fetch the custom data type associated with a symbol">
<polygon fill="white" stroke="black" points="912,-0.5 912,-30.5 1086,-30.5 1086,-0.5 912,-0.5"/>
<text text-anchor="start" x="920" y="-18.5" font-family="Helvetica,sans-Serif" font-size="10.00">QuantConnect.SecurityIdentifier.</text>
<text text-anchor="middle" x="999" y="-7.5" font-family="Helvetica,sans-Serif" font-size="10.00">TryGetCustomDataType</text>
</a>
</g>
</g>
<!-- Node4&#45;&gt;Node5 -->
<g id="edge4" class="edge">
<title>Node4&#45;&gt;Node5</title>
<path fill="none" stroke="midnightblue" d="M876.1,-15.5C884.62,-15.5 893.3,-15.5 901.91,-15.5"/>
<polygon fill="midnightblue" stroke="midnightblue" points="901.96,-19 911.96,-15.5 901.96,-12 901.96,-19"/>
</g>
</g>
</svg>
