<?xml version="1.0" encoding="UTF-8" standalone="no"?>
<!DOCTYPE svg PUBLIC "-//W3C//DTD SVG 1.1//EN"
 "http://www.w3.org/Graphics/SVG/1.1/DTD/svg11.dtd">
<!-- Generated by graphviz version 2.43.0 (0)
 -->
<!-- Title: QuantConnect.Orders.Slippage.VolumeShareSlippageModel.GetSlippageApproximation Pages: 1 -->
<svg width="663pt" height="269pt"
 viewBox="0.00 0.00 663.00 268.50" xmlns="http://www.w3.org/2000/svg" xmlns:xlink="http://www.w3.org/1999/xlink">
<g id="graph0" class="graph" transform="scale(1 1) rotate(0) translate(4 264.5)">
<title>QuantConnect.Orders.Slippage.VolumeShareSlippageModel.GetSlippageApproximation</title>
<polygon fill="white" stroke="transparent" points="-4,4 -4,-264.5 659,-264.5 659,4 -4,4"/>
<!-- Node1 -->
<g id="node1" class="node">
<title>Node1</title>
<g id="a_node1"><a xlink:title="Slippage Model. Return a decimal cash slippage approximation on the order.">
<polygon fill="#bfbfbf" stroke="black" points="0,-120.5 0,-161.5 215,-161.5 215,-120.5 0,-120.5"/>
<text text-anchor="start" x="8" y="-149.5" font-family="Helvetica,sans-Serif" font-size="10.00">QuantConnect.Orders.Slippage.</text>
<text text-anchor="start" x="8" y="-138.5" font-family="Helvetica,sans-Serif" font-size="10.00">VolumeShareSlippageModel.GetSlippage</text>
<text text-anchor="middle" x="107.5" y="-127.5" font-family="Helvetica,sans-Serif" font-size="10.00">Approximation</text>
</a>
</g>
</g>
<!-- Node2 -->
<g id="node2" class="node">
<title>Node2</title>
<g id="a_node2"><a xlink:href="classQuantConnect_1_1Logging_1_1Log.html#af0e7955911bc7664b37661b2a303a9e3" target="_top" xlink:title="Log error">
<polygon fill="white" stroke="black" points="285,-230 285,-260 435,-260 435,-230 285,-230"/>
<text text-anchor="start" x="293" y="-248" font-family="Helvetica,sans-Serif" font-size="10.00">QuantConnect.Logging.Log.</text>
<text text-anchor="middle" x="360" y="-237" font-family="Helvetica,sans-Serif" font-size="10.00">Error</text>
</a>
</g>
</g>
<!-- Node1&#45;&gt;Node2 -->
<g id="edge1" class="edge">
<title>Node1&#45;&gt;Node2</title>
<path fill="none" stroke="midnightblue" d="M138.9,-161.55C166.91,-179.62 210.19,-205.4 251,-221 258.74,-223.96 266.93,-226.6 275.21,-228.95"/>
<polygon fill="midnightblue" stroke="midnightblue" points="274.38,-232.35 284.95,-231.57 276.2,-225.59 274.38,-232.35"/>
</g>
<!-- Node4 -->
<g id="node4" class="node">
<title>Node4</title>
<g id="a_node4"><a xlink:href="classQuantConnect_1_1Securities_1_1Security.html#ab93a58a84a4aa1b19d0972faf6c056c4" target="_top" xlink:title="Get the last price update set to the security if any else null">
<polygon fill="white" stroke="black" points="290,-181 290,-211 430,-211 430,-181 290,-181"/>
<text text-anchor="start" x="298" y="-199" font-family="Helvetica,sans-Serif" font-size="10.00">QuantConnect.Securities.</text>
<text text-anchor="middle" x="360" y="-188" font-family="Helvetica,sans-Serif" font-size="10.00">Security.GetLastData</text>
</a>
</g>
</g>
<!-- Node1&#45;&gt;Node4 -->
<g id="edge3" class="edge">
<title>Node1&#45;&gt;Node4</title>
<path fill="none" stroke="midnightblue" d="M202.13,-161.56C227.9,-167.22 255.59,-173.29 280.41,-178.75"/>
<polygon fill="midnightblue" stroke="midnightblue" points="279.98,-182.23 290.5,-180.96 281.48,-175.4 279.98,-182.23"/>
</g>
<!-- Node5 -->
<g id="node5" class="node">
<title>Node5</title>
<g id="a_node5"><a xlink:href="classQuantConnect_1_1Messages_1_1VolumeShareSlippageModel.html#adf1b544fc64e2ff56d0a433f457f2465" target="_top" xlink:title="Returns a message for an invalid market data type in Volume Share Slippage Model">
<polygon fill="white" stroke="black" points="267,-120.5 267,-161.5 453,-161.5 453,-120.5 267,-120.5"/>
<text text-anchor="start" x="275" y="-149.5" font-family="Helvetica,sans-Serif" font-size="10.00">QuantConnect.Messages.Volume</text>
<text text-anchor="start" x="275" y="-138.5" font-family="Helvetica,sans-Serif" font-size="10.00">ShareSlippageModel.InvalidMarket</text>
<text text-anchor="middle" x="360" y="-127.5" font-family="Helvetica,sans-Serif" font-size="10.00">DataType</text>
</a>
</g>
</g>
<!-- Node1&#45;&gt;Node5 -->
<g id="edge4" class="edge">
<title>Node1&#45;&gt;Node5</title>
<path fill="none" stroke="midnightblue" d="M215.1,-141C228.79,-141 242.78,-141 256.4,-141"/>
<polygon fill="midnightblue" stroke="midnightblue" points="256.74,-144.5 266.74,-141 256.74,-137.5 256.74,-144.5"/>
</g>
<!-- Node6 -->
<g id="node6" class="node">
<title>Node6</title>
<g id="a_node6"><a xlink:href="classQuantConnect_1_1Messages_1_1VolumeShareSlippageModel.html#abc595b7a20083c824c9f46478fb2bf6d" target="_top" xlink:title="Returns a message for a negative or zero bar volume in Volume Share Slippage Model">
<polygon fill="white" stroke="black" points="261.5,-60.5 261.5,-101.5 458.5,-101.5 458.5,-60.5 261.5,-60.5"/>
<text text-anchor="start" x="269.5" y="-89.5" font-family="Helvetica,sans-Serif" font-size="10.00">QuantConnect.Messages.Volume</text>
<text text-anchor="start" x="269.5" y="-78.5" font-family="Helvetica,sans-Serif" font-size="10.00">ShareSlippageModel.NegativeOrZero</text>
<text text-anchor="middle" x="360" y="-67.5" font-family="Helvetica,sans-Serif" font-size="10.00">BarVolume</text>
</a>
</g>
</g>
<!-- Node1&#45;&gt;Node6 -->
<g id="edge5" class="edge">
<title>Node1&#45;&gt;Node6</title>
<path fill="none" stroke="midnightblue" d="M194.36,-120.44C216.56,-115.12 240.61,-109.36 263.29,-103.93"/>
<polygon fill="midnightblue" stroke="midnightblue" points="264.35,-107.27 273.25,-101.54 262.71,-100.46 264.35,-107.27"/>
</g>
<!-- Node7 -->
<g id="node7" class="node">
<title>Node7</title>
<g id="a_node7"><a xlink:href="classQuantConnect_1_1Messages_1_1VolumeShareSlippageModel.html#a93c7b493153f0d3319ea499218e95e99" target="_top" xlink:title="Returns a message for a volume not reported for market data type in Volume Share Slippage Model">
<polygon fill="white" stroke="black" points="251,-0.5 251,-41.5 469,-41.5 469,-0.5 251,-0.5"/>
<text text-anchor="start" x="259" y="-29.5" font-family="Helvetica,sans-Serif" font-size="10.00">QuantConnect.Messages.Volume</text>
<text text-anchor="start" x="259" y="-18.5" font-family="Helvetica,sans-Serif" font-size="10.00">ShareSlippageModel.VolumeNotReported</text>
<text text-anchor="middle" x="360" y="-7.5" font-family="Helvetica,sans-Serif" font-size="10.00">ForMarketDataType</text>
</a>
</g>
</g>
<!-- Node1&#45;&gt;Node7 -->
<g id="edge6" class="edge">
<title>Node1&#45;&gt;Node7</title>
<path fill="none" stroke="midnightblue" d="M135.79,-120.34C163.51,-100.19 208.33,-69.91 251,-51 255.77,-48.89 260.73,-46.89 265.78,-45"/>
<polygon fill="midnightblue" stroke="midnightblue" points="267.33,-48.16 275.58,-41.51 264.99,-41.57 267.33,-48.16"/>
</g>
<!-- Node3 -->
<g id="node3" class="node">
<title>Node3</title>
<g id="a_node3"><a xlink:href="interfaceQuantConnect_1_1Logging_1_1ILogHandler.html#a35373a0c5d76031fa5ccf5dc39e5c25d" target="_top" xlink:title="Write error message to log">
<polygon fill="white" stroke="black" points="505,-230 505,-260 655,-260 655,-230 505,-230"/>
<text text-anchor="start" x="513" y="-248" font-family="Helvetica,sans-Serif" font-size="10.00">QuantConnect.Logging.ILog</text>
<text text-anchor="middle" x="580" y="-237" font-family="Helvetica,sans-Serif" font-size="10.00">Handler.Error</text>
</a>
</g>
</g>
<!-- Node2&#45;&gt;Node3 -->
<g id="edge2" class="edge">
<title>Node2&#45;&gt;Node3</title>
<path fill="none" stroke="midnightblue" d="M435.11,-245C454.24,-245 474.97,-245 494.59,-245"/>
<polygon fill="midnightblue" stroke="midnightblue" points="494.73,-248.5 504.73,-245 494.73,-241.5 494.73,-248.5"/>
</g>
</g>
</svg>
