<?xml version="1.0" encoding="UTF-8" standalone="no"?>
<!DOCTYPE svg PUBLIC "-//W3C//DTD SVG 1.1//EN"
 "http://www.w3.org/Graphics/SVG/1.1/DTD/svg11.dtd">
<!-- Generated by graphviz version 2.43.0 (0)
 -->
<!-- Title: QuantConnect.ToolBox.RandomDataGenerator.DefaultSymbolGenerator.GenerateAsset Pages: 1 -->
<svg width="1930pt" height="646pt"
 viewBox="0.00 0.00 1930.00 645.95" xmlns="http://www.w3.org/2000/svg" xmlns:xlink="http://www.w3.org/1999/xlink">
<g id="graph0" class="graph" transform="scale(1 1) rotate(0) translate(4 641.95)">
<title>QuantConnect.ToolBox.RandomDataGenerator.DefaultSymbolGenerator.GenerateAsset</title>
<polygon fill="white" stroke="transparent" points="-4,4 -4,-641.95 1926,-641.95 1926,4 -4,4"/>
<!-- Node1 -->
<g id="node1" class="node">
<title>Node1</title>
<g id="a_node1"><a xlink:title="Generates a single&#45;item list at a time using base random implementation">
<polygon fill="#bfbfbf" stroke="black" points="0,-185.5 0,-226.5 215,-226.5 215,-185.5 0,-185.5"/>
<text text-anchor="start" x="8" y="-214.5" font-family="Helvetica,sans-Serif" font-size="10.00">QuantConnect.ToolBox.Random</text>
<text text-anchor="start" x="8" y="-203.5" font-family="Helvetica,sans-Serif" font-size="10.00">DataGenerator.DefaultSymbolGenerator.</text>
<text text-anchor="middle" x="107.5" y="-192.5" font-family="Helvetica,sans-Serif" font-size="10.00">GenerateAsset</text>
</a>
</g>
</g>
<!-- Node2 -->
<g id="node2" class="node">
<title>Node2</title>
<g id="a_node2"><a xlink:href="classQuantConnect_1_1ToolBox_1_1RandomDataGenerator_1_1BaseSymbolGenerator.html#a81261a4e15b1946f9da42203bc7e3aa6" target="_top" xlink:title="Generates random symbol, used further down for asset">
<polygon fill="white" stroke="black" points="251,-185.5 251,-226.5 454,-226.5 454,-185.5 251,-185.5"/>
<text text-anchor="start" x="259" y="-214.5" font-family="Helvetica,sans-Serif" font-size="10.00">QuantConnect.ToolBox.Random</text>
<text text-anchor="start" x="259" y="-203.5" font-family="Helvetica,sans-Serif" font-size="10.00">DataGenerator.BaseSymbolGenerator.</text>
<text text-anchor="middle" x="352.5" y="-192.5" font-family="Helvetica,sans-Serif" font-size="10.00">NextSymbol</text>
</a>
</g>
</g>
<!-- Node1&#45;&gt;Node2 -->
<g id="edge1" class="edge">
<title>Node1&#45;&gt;Node2</title>
<path fill="none" stroke="midnightblue" d="M215.08,-206C223.51,-206 232.04,-206 240.5,-206"/>
<polygon fill="midnightblue" stroke="midnightblue" points="240.78,-209.5 250.78,-206 240.78,-202.5 240.78,-209.5"/>
</g>
<!-- Node3 -->
<g id="node3" class="node">
<title>Node3</title>
<g id="a_node3"><a xlink:href="classQuantConnect_1_1Securities_1_1SymbolPropertiesDatabase.html#a3b4d0360c1a785aaaa3a440ce1e91204" target="_top" xlink:title="Check whether symbol properties exists for the specified market/symbol/security&#45;type">
<polygon fill="white" stroke="black" points="497,-361 497,-391 710,-391 710,-361 497,-361"/>
<text text-anchor="start" x="505" y="-379" font-family="Helvetica,sans-Serif" font-size="10.00">QuantConnect.Securities.</text>
<text text-anchor="middle" x="603.5" y="-368" font-family="Helvetica,sans-Serif" font-size="10.00">SymbolPropertiesDatabase.ContainsKey</text>
</a>
</g>
</g>
<!-- Node2&#45;&gt;Node3 -->
<g id="edge2" class="edge">
<title>Node2&#45;&gt;Node3</title>
<path fill="none" stroke="midnightblue" d="M366.87,-226.75C388.63,-258.73 434.85,-319.64 490,-351 493.97,-353.26 498.13,-355.31 502.41,-357.18"/>
<polygon fill="midnightblue" stroke="midnightblue" points="501.36,-360.53 511.95,-360.99 503.96,-354.03 501.36,-360.53"/>
</g>
<!-- Node4 -->
<g id="node4" class="node">
<title>Node4</title>
<g id="a_node4"><a xlink:href="classQuantConnect_1_1Symbol.html#a350b9a625cf7bad95da82894be3cd0a8" target="_top" xlink:title="Provides a convenience method for creating a Symbol for most security types. This method currently do...">
<polygon fill="white" stroke="black" points="523,-322.5 523,-341.5 684,-341.5 684,-322.5 523,-322.5"/>
<text text-anchor="middle" x="603.5" y="-329.5" font-family="Helvetica,sans-Serif" font-size="10.00">QuantConnect.Symbol.Create</text>
</a>
</g>
</g>
<!-- Node2&#45;&gt;Node4 -->
<g id="edge3" class="edge">
<title>Node2&#45;&gt;Node4</title>
<path fill="none" stroke="midnightblue" d="M394.06,-226.52C444.9,-252.25 530.7,-295.67 574.68,-317.92"/>
<polygon fill="midnightblue" stroke="midnightblue" points="573.15,-321.07 583.65,-322.46 576.31,-314.83 573.15,-321.07"/>
</g>
<!-- Node22 -->
<g id="node22" class="node">
<title>Node22</title>
<g id="a_node22"><a xlink:href="classQuantConnect_1_1ToolBox_1_1RandomDataGenerator_1_1BaseSymbolGenerator.html#aaa2b8cebd6792453b08e7aca486cc60a" target="_top" xlink:title="Return a Ticker matching an entry in the Symbol properties database">
<polygon fill="white" stroke="black" points="490,-60.5 490,-101.5 717,-101.5 717,-60.5 490,-60.5"/>
<text text-anchor="start" x="498" y="-89.5" font-family="Helvetica,sans-Serif" font-size="10.00">QuantConnect.ToolBox.Random</text>
<text text-anchor="start" x="498" y="-78.5" font-family="Helvetica,sans-Serif" font-size="10.00">DataGenerator.BaseSymbolGenerator.</text>
<text text-anchor="middle" x="603.5" y="-67.5" font-family="Helvetica,sans-Serif" font-size="10.00">NextTickerFromSymbolPropertiesDatabase</text>
</a>
</g>
</g>
<!-- Node2&#45;&gt;Node22 -->
<g id="edge23" class="edge">
<title>Node2&#45;&gt;Node22</title>
<path fill="none" stroke="midnightblue" d="M394.34,-185.5C437.67,-163.75 506.17,-129.36 552.65,-106.03"/>
<polygon fill="midnightblue" stroke="midnightblue" points="554.27,-109.13 561.64,-101.51 551.13,-102.87 554.27,-109.13"/>
</g>
<!-- Node25 -->
<g id="node25" class="node">
<title>Node25</title>
<g id="a_node25"><a xlink:href="classQuantConnect_1_1ToolBox_1_1RandomDataGenerator_1_1BaseSymbolGenerator.html#a92467b066fe4f00938ff6a0ae41ef6e9" target="_top" xlink:title="Generates a random string within the specified lengths.">
<polygon fill="white" stroke="black" points="502,-0.5 502,-41.5 705,-41.5 705,-0.5 502,-0.5"/>
<text text-anchor="start" x="510" y="-29.5" font-family="Helvetica,sans-Serif" font-size="10.00">QuantConnect.ToolBox.Random</text>
<text text-anchor="start" x="510" y="-18.5" font-family="Helvetica,sans-Serif" font-size="10.00">DataGenerator.BaseSymbolGenerator.</text>
<text text-anchor="middle" x="603.5" y="-7.5" font-family="Helvetica,sans-Serif" font-size="10.00">NextUpperCaseString</text>
</a>
</g>
</g>
<!-- Node2&#45;&gt;Node25 -->
<g id="edge26" class="edge">
<title>Node2&#45;&gt;Node25</title>
<path fill="none" stroke="midnightblue" d="M365.82,-185.45C386.94,-152.03 433.31,-86.13 490,-51 492.97,-49.16 496.05,-47.43 499.21,-45.81"/>
<polygon fill="midnightblue" stroke="midnightblue" points="500.77,-48.94 508.32,-41.51 497.78,-42.61 500.77,-48.94"/>
</g>
<!-- Node5 -->
<g id="node5" class="node">
<title>Node5</title>
<g id="a_node5"><a xlink:href="classQuantConnect_1_1Symbol.html#a7518a1932d1babbff128f2ba9666a78b" target="_top" xlink:title="Provides a convenience method for creating an option Symbol.">
<polygon fill="white" stroke="black" points="778.5,-552 778.5,-582 939.5,-582 939.5,-552 778.5,-552"/>
<text text-anchor="start" x="786.5" y="-570" font-family="Helvetica,sans-Serif" font-size="10.00">QuantConnect.Symbol.Create</text>
<text text-anchor="middle" x="859" y="-559" font-family="Helvetica,sans-Serif" font-size="10.00">Option</text>
</a>
</g>
</g>
<!-- Node4&#45;&gt;Node5 -->
<g id="edge4" class="edge">
<title>Node4&#45;&gt;Node5</title>
<path fill="none" stroke="midnightblue" d="M684.15,-333.85C696.39,-337.39 707.95,-343.1 717,-352 776.71,-410.75 696.37,-475.28 753,-537 757.74,-542.16 763.29,-546.46 769.33,-550.03"/>
<polygon fill="midnightblue" stroke="midnightblue" points="768,-553.29 778.49,-554.77 771.22,-547.07 768,-553.29"/>
</g>
<!-- Node6 -->
<g id="node6" class="node">
<title>Node6</title>
<g id="a_node6"><a xlink:href="classQuantConnect_1_1SecurityIdentifier.html#a0c21d7880c9fdd260883d11ea0c99a00" target="_top" xlink:title="Helper overload that will search the mapfiles to resolve the first date. This implementation uses the...">
<polygon fill="white" stroke="black" points="1001,-585 1001,-615 1175,-615 1175,-585 1001,-585"/>
<text text-anchor="start" x="1009" y="-603" font-family="Helvetica,sans-Serif" font-size="10.00">QuantConnect.SecurityIdentifier.</text>
<text text-anchor="middle" x="1088" y="-592" font-family="Helvetica,sans-Serif" font-size="10.00">GenerateEquity</text>
</a>
</g>
</g>
<!-- Node4&#45;&gt;Node6 -->
<g id="edge17" class="edge">
<title>Node4&#45;&gt;Node6</title>
<path fill="none" stroke="midnightblue" d="M684.19,-333.44C696.51,-337.01 708.08,-342.83 717,-352 792.23,-429.29 672.12,-520.64 753,-592 829.64,-659.62 959.02,-637.94 1032.23,-617.86"/>
<polygon fill="midnightblue" stroke="midnightblue" points="1033.5,-621.14 1042.17,-615.04 1031.6,-614.4 1033.5,-621.14"/>
</g>
<!-- Node7 -->
<g id="node7" class="node">
<title>Node7</title>
<g id="a_node7"><a xlink:href="classQuantConnect_1_1Symbol.html#a59158f74116be3dad0ea0f3f3f134416" target="_top" xlink:title="Initializes a new instance of the Symbol class">
<polygon fill="white" stroke="black" points="1005.5,-524.5 1005.5,-543.5 1170.5,-543.5 1170.5,-524.5 1005.5,-524.5"/>
<text text-anchor="middle" x="1088" y="-531.5" font-family="Helvetica,sans-Serif" font-size="10.00">QuantConnect.Symbol.Symbol</text>
</a>
</g>
</g>
<!-- Node4&#45;&gt;Node7 -->
<g id="edge22" class="edge">
<title>Node4&#45;&gt;Node7</title>
<path fill="none" stroke="midnightblue" d="M684.14,-334.24C696.31,-337.76 707.84,-343.35 717,-352 767.46,-399.68 700.53,-458.54 753,-504 788.08,-534.39 909.02,-538.56 995.26,-537.39"/>
<polygon fill="midnightblue" stroke="midnightblue" points="995.39,-540.88 1005.33,-537.22 995.28,-533.89 995.39,-540.88"/>
</g>
<!-- Node13 -->
<g id="node13" class="node">
<title>Node13</title>
<g id="a_node13"><a xlink:href="classQuantConnect_1_1SecurityIdentifier.html#a02ca750115844561c001c2346fbafc00" target="_top" xlink:title="Generates a new SecurityIdentifier for a custom security with the option of providing the first date">
<polygon fill="white" stroke="black" points="772,-464 772,-494 946,-494 946,-464 772,-464"/>
<text text-anchor="start" x="780" y="-482" font-family="Helvetica,sans-Serif" font-size="10.00">QuantConnect.SecurityIdentifier.</text>
<text text-anchor="middle" x="859" y="-471" font-family="Helvetica,sans-Serif" font-size="10.00">GenerateBase</text>
</a>
</g>
</g>
<!-- Node4&#45;&gt;Node13 -->
<g id="edge12" class="edge">
<title>Node4&#45;&gt;Node13</title>
<path fill="none" stroke="midnightblue" d="M684.27,-335.31C696.21,-338.74 707.63,-344.03 717,-352 753.93,-383.43 716.85,-422.67 753,-455 756.05,-457.73 759.34,-460.16 762.82,-462.34"/>
<polygon fill="midnightblue" stroke="midnightblue" points="761.34,-465.52 771.8,-467.22 764.69,-459.37 761.34,-465.52"/>
</g>
<!-- Node15 -->
<g id="node15" class="node">
<title>Node15</title>
<g id="a_node15"><a xlink:href="classQuantConnect_1_1SecurityIdentifier.html#a53953b18d814c5445e4ecdcb3b555080" target="_top" xlink:title="Generates a new SecurityIdentifier for a CFD security">
<polygon fill="white" stroke="black" points="772,-415 772,-445 946,-445 946,-415 772,-415"/>
<text text-anchor="start" x="780" y="-433" font-family="Helvetica,sans-Serif" font-size="10.00">QuantConnect.SecurityIdentifier.</text>
<text text-anchor="middle" x="859" y="-422" font-family="Helvetica,sans-Serif" font-size="10.00">GenerateCfd</text>
</a>
</g>
</g>
<!-- Node4&#45;&gt;Node15 -->
<g id="edge14" class="edge">
<title>Node4&#45;&gt;Node15</title>
<path fill="none" stroke="midnightblue" d="M684.14,-337.84C695.76,-341 707.12,-345.54 717,-352 741.14,-367.79 729.25,-389.62 753,-406 756.11,-408.14 759.38,-410.1 762.77,-411.88"/>
<polygon fill="midnightblue" stroke="midnightblue" points="761.44,-415.12 771.98,-416.21 764.42,-408.79 761.44,-415.12"/>
</g>
<!-- Node16 -->
<g id="node16" class="node">
<title>Node16</title>
<g id="a_node16"><a xlink:href="classQuantConnect_1_1SecurityIdentifier.html#a5889a95a36ce927dd0a109cbfbcbe663" target="_top" xlink:title="Generates a new SecurityIdentifier for a Crypto pair">
<polygon fill="white" stroke="black" points="772,-366 772,-396 946,-396 946,-366 772,-366"/>
<text text-anchor="start" x="780" y="-384" font-family="Helvetica,sans-Serif" font-size="10.00">QuantConnect.SecurityIdentifier.</text>
<text text-anchor="middle" x="859" y="-373" font-family="Helvetica,sans-Serif" font-size="10.00">GenerateCrypto</text>
</a>
</g>
</g>
<!-- Node4&#45;&gt;Node16 -->
<g id="edge15" class="edge">
<title>Node4&#45;&gt;Node16</title>
<path fill="none" stroke="midnightblue" d="M659.77,-341.52C678.01,-344.74 698.39,-348.43 717,-352 736.42,-355.72 757.31,-359.92 776.9,-363.93"/>
<polygon fill="midnightblue" stroke="midnightblue" points="776.21,-367.36 786.71,-365.95 777.62,-360.5 776.21,-367.36"/>
</g>
<!-- Node17 -->
<g id="node17" class="node">
<title>Node17</title>
<g id="a_node17"><a xlink:href="classQuantConnect_1_1SecurityIdentifier.html#ac665665a16d5449872fed3427b95a260" target="_top" xlink:title="Generates a new SecurityIdentifier for a CryptoFuture pair">
<polygon fill="white" stroke="black" points="772,-317 772,-347 946,-347 946,-317 772,-317"/>
<text text-anchor="start" x="780" y="-335" font-family="Helvetica,sans-Serif" font-size="10.00">QuantConnect.SecurityIdentifier.</text>
<text text-anchor="middle" x="859" y="-324" font-family="Helvetica,sans-Serif" font-size="10.00">GenerateCryptoFuture</text>
</a>
</g>
</g>
<!-- Node4&#45;&gt;Node17 -->
<g id="edge16" class="edge">
<title>Node4&#45;&gt;Node17</title>
<path fill="none" stroke="midnightblue" d="M684.01,-332C708.63,-332 736.01,-332 761.63,-332"/>
<polygon fill="midnightblue" stroke="midnightblue" points="761.73,-335.5 771.73,-332 761.73,-328.5 761.73,-335.5"/>
</g>
<!-- Node18 -->
<g id="node18" class="node">
<title>Node18</title>
<g id="a_node18"><a xlink:href="classQuantConnect_1_1SecurityIdentifier.html#a9cf0d3b208a5171e6112516ce441f18d" target="_top" xlink:title="Generates a new SecurityIdentifier for a forex pair">
<polygon fill="white" stroke="black" points="772,-268 772,-298 946,-298 946,-268 772,-268"/>
<text text-anchor="start" x="780" y="-286" font-family="Helvetica,sans-Serif" font-size="10.00">QuantConnect.SecurityIdentifier.</text>
<text text-anchor="middle" x="859" y="-275" font-family="Helvetica,sans-Serif" font-size="10.00">GenerateForex</text>
</a>
</g>
</g>
<!-- Node4&#45;&gt;Node18 -->
<g id="edge18" class="edge">
<title>Node4&#45;&gt;Node18</title>
<path fill="none" stroke="midnightblue" d="M653.68,-322.49C686.59,-316.13 730.84,-307.58 769.74,-300.06"/>
<polygon fill="midnightblue" stroke="midnightblue" points="770.88,-303.41 780.03,-298.07 769.55,-296.53 770.88,-303.41"/>
</g>
<!-- Node19 -->
<g id="node19" class="node">
<title>Node19</title>
<g id="a_node19"><a xlink:href="classQuantConnect_1_1SecurityIdentifier.html#ad50a891c97cb0c084a9e2aa43607ed66" target="_top" xlink:title="Generates a new SecurityIdentifier for a future">
<polygon fill="white" stroke="black" points="772,-219 772,-249 946,-249 946,-219 772,-219"/>
<text text-anchor="start" x="780" y="-237" font-family="Helvetica,sans-Serif" font-size="10.00">QuantConnect.SecurityIdentifier.</text>
<text text-anchor="middle" x="859" y="-226" font-family="Helvetica,sans-Serif" font-size="10.00">GenerateFuture</text>
</a>
</g>
</g>
<!-- Node4&#45;&gt;Node19 -->
<g id="edge19" class="edge">
<title>Node4&#45;&gt;Node19</title>
<path fill="none" stroke="midnightblue" d="M620.89,-322.42C647.71,-307.1 702.99,-276.99 753,-259 760.25,-256.39 767.89,-253.97 775.59,-251.76"/>
<polygon fill="midnightblue" stroke="midnightblue" points="776.66,-255.09 785.36,-249.05 774.79,-248.35 776.66,-255.09"/>
</g>
<!-- Node20 -->
<g id="node20" class="node">
<title>Node20</title>
<g id="a_node20"><a xlink:href="classQuantConnect_1_1SecurityIdentifier.html#ade05a8e57b041ab484cf585be8d05699" target="_top" xlink:title="Generates a new SecurityIdentifier for a INDEX security">
<polygon fill="white" stroke="black" points="772,-170 772,-200 946,-200 946,-170 772,-170"/>
<text text-anchor="start" x="780" y="-188" font-family="Helvetica,sans-Serif" font-size="10.00">QuantConnect.SecurityIdentifier.</text>
<text text-anchor="middle" x="859" y="-177" font-family="Helvetica,sans-Serif" font-size="10.00">GenerateIndex</text>
</a>
</g>
</g>
<!-- Node4&#45;&gt;Node20 -->
<g id="edge20" class="edge">
<title>Node4&#45;&gt;Node20</title>
<path fill="none" stroke="midnightblue" d="M613.16,-322.35C634.5,-299.18 692.33,-240.12 753,-210 757.88,-207.58 763,-205.38 768.25,-203.4"/>
<polygon fill="midnightblue" stroke="midnightblue" points="769.54,-206.66 777.82,-200.04 767.22,-200.05 769.54,-206.66"/>
</g>
<!-- Node21 -->
<g id="node21" class="node">
<title>Node21</title>
<g id="a_node21"><a xlink:href="classQuantConnect_1_1Messages_1_1Symbol.html#ab801bef52a308b8ba7ba6d42e1ef1988" target="_top" xlink:title="Returns a string message saying the given security type has not been implemented yet">
<polygon fill="white" stroke="black" points="769,-121 769,-151 949,-151 949,-121 769,-121"/>
<text text-anchor="start" x="777" y="-139" font-family="Helvetica,sans-Serif" font-size="10.00">QuantConnect.Messages.Symbol.</text>
<text text-anchor="middle" x="859" y="-128" font-family="Helvetica,sans-Serif" font-size="10.00">SecurityTypeNotImplementedYet</text>
</a>
</g>
</g>
<!-- Node4&#45;&gt;Node21 -->
<g id="edge21" class="edge">
<title>Node4&#45;&gt;Node21</title>
<path fill="none" stroke="midnightblue" d="M609.83,-322.41C626.65,-293.12 681.71,-204.19 753,-161 756.61,-158.82 760.39,-156.82 764.29,-155"/>
<polygon fill="midnightblue" stroke="midnightblue" points="765.74,-158.19 773.58,-151.06 763.01,-151.74 765.74,-158.19"/>
</g>
<!-- Node5&#45;&gt;Node6 -->
<g id="edge5" class="edge">
<title>Node5&#45;&gt;Node6</title>
<path fill="none" stroke="midnightblue" d="M939.71,-578.59C956.27,-580.99 973.87,-583.55 990.94,-586.04"/>
<polygon fill="midnightblue" stroke="midnightblue" points="990.52,-589.51 1000.92,-587.49 991.52,-582.58 990.52,-589.51"/>
</g>
<!-- Node5&#45;&gt;Node7 -->
<g id="edge6" class="edge">
<title>Node5&#45;&gt;Node7</title>
<path fill="none" stroke="midnightblue" d="M939.71,-555.41C962.97,-552.03 988.31,-548.35 1011.31,-545"/>
<polygon fill="midnightblue" stroke="midnightblue" points="1011.96,-548.45 1021.36,-543.54 1010.96,-541.52 1011.96,-548.45"/>
</g>
<!-- Node8 -->
<g id="node8" class="node">
<title>Node8</title>
<g id="a_node8"><a xlink:href="classQuantConnect_1_1Symbol.html#a59b0795fa21f46c306deb5576fa03bb9" target="_top" xlink:title="Centralized helper method to resolve alias for a symbol">
<polygon fill="white" stroke="black" points="1211,-524.5 1211,-543.5 1381,-543.5 1381,-524.5 1211,-524.5"/>
<text text-anchor="middle" x="1296" y="-531.5" font-family="Helvetica,sans-Serif" font-size="10.00">QuantConnect.Symbol.GetAlias</text>
</a>
</g>
</g>
<!-- Node7&#45;&gt;Node8 -->
<g id="edge7" class="edge">
<title>Node7&#45;&gt;Node8</title>
<path fill="none" stroke="midnightblue" d="M1170.71,-534C1180.47,-534 1190.49,-534 1200.4,-534"/>
<polygon fill="midnightblue" stroke="midnightblue" points="1200.68,-537.5 1210.68,-534 1200.68,-530.5 1200.68,-537.5"/>
</g>
<!-- Node9 -->
<g id="node9" class="node">
<title>Node9</title>
<g id="a_node9"><a xlink:href="classQuantConnect_1_1SymbolRepresentation.html#ad43ac907f6c19083821f58f21c6de017" target="_top" xlink:title="Returns future symbol ticker from underlying and expiration date. Function can generate tickers of tw...">
<polygon fill="white" stroke="black" points="1417,-547 1417,-577 1620,-577 1620,-547 1417,-547"/>
<text text-anchor="start" x="1425" y="-565" font-family="Helvetica,sans-Serif" font-size="10.00">QuantConnect.SymbolRepresentation.</text>
<text text-anchor="middle" x="1518.5" y="-554" font-family="Helvetica,sans-Serif" font-size="10.00">GenerateFutureTicker</text>
</a>
</g>
</g>
<!-- Node8&#45;&gt;Node9 -->
<g id="edge8" class="edge">
<title>Node8&#45;&gt;Node9</title>
<path fill="none" stroke="midnightblue" d="M1371.96,-543.52C1383.27,-544.96 1395.14,-546.46 1407.01,-547.97"/>
<polygon fill="midnightblue" stroke="midnightblue" points="1406.62,-551.45 1416.98,-549.24 1407.5,-544.5 1406.62,-551.45"/>
</g>
<!-- Node11 -->
<g id="node11" class="node">
<title>Node11</title>
<g id="a_node11"><a xlink:href="classQuantConnect_1_1SymbolRepresentation.html#ab133044f5cf8c16e700190a2202b215e" target="_top" xlink:title="Returns option symbol ticker in accordance with OSI symbology More information can be found at http:/...">
<polygon fill="white" stroke="black" points="1417,-495 1417,-525 1620,-525 1620,-495 1417,-495"/>
<text text-anchor="start" x="1425" y="-513" font-family="Helvetica,sans-Serif" font-size="10.00">QuantConnect.SymbolRepresentation.</text>
<text text-anchor="middle" x="1518.5" y="-502" font-family="Helvetica,sans-Serif" font-size="10.00">GenerateOptionTickerOSI</text>
</a>
</g>
</g>
<!-- Node8&#45;&gt;Node11 -->
<g id="edge10" class="edge">
<title>Node8&#45;&gt;Node11</title>
<path fill="none" stroke="midnightblue" d="M1381.31,-524.82C1389.69,-523.91 1398.3,-522.97 1406.9,-522.04"/>
<polygon fill="midnightblue" stroke="midnightblue" points="1407.43,-525.5 1416.99,-520.94 1406.67,-518.54 1407.43,-525.5"/>
</g>
<!-- Node10 -->
<g id="node10" class="node">
<title>Node10</title>
<g id="a_node10"><a xlink:href="classQuantConnect_1_1Securities_1_1Future_1_1FuturesExpiryUtilityFunctions.html#a4ccb1e2f2fe40ff09785a74a02f26df1" target="_top" xlink:title="Gets the number of months between the contract month and the expiry date.">
<polygon fill="white" stroke="black" points="1656,-544.5 1656,-585.5 1922,-585.5 1922,-544.5 1656,-544.5"/>
<text text-anchor="start" x="1664" y="-573.5" font-family="Helvetica,sans-Serif" font-size="10.00">QuantConnect.Securities.</text>
<text text-anchor="start" x="1664" y="-562.5" font-family="Helvetica,sans-Serif" font-size="10.00">Future.FuturesExpiryUtilityFunctions.</text>
<text text-anchor="middle" x="1789" y="-551.5" font-family="Helvetica,sans-Serif" font-size="10.00">GetDeltaBetweenContractMonthAndContractExpiry</text>
</a>
</g>
</g>
<!-- Node9&#45;&gt;Node10 -->
<g id="edge9" class="edge">
<title>Node9&#45;&gt;Node10</title>
<path fill="none" stroke="midnightblue" d="M1620.24,-563.13C1628.59,-563.22 1637.11,-563.31 1645.68,-563.41"/>
<polygon fill="midnightblue" stroke="midnightblue" points="1645.72,-566.91 1655.76,-563.52 1645.8,-559.91 1645.72,-566.91"/>
</g>
<!-- Node12 -->
<g id="node12" class="node">
<title>Node12</title>
<g id="a_node12"><a xlink:href="classQuantConnect_1_1Messages_1_1SymbolRepresentation.html#a2c514157d8055cfa271ea3a7ca1ccde7" target="_top" xlink:title="Returns a string message saying an unexpected security type was received by the given method name">
<polygon fill="white" stroke="black" points="1693,-484.5 1693,-525.5 1885,-525.5 1885,-484.5 1693,-484.5"/>
<text text-anchor="start" x="1701" y="-513.5" font-family="Helvetica,sans-Serif" font-size="10.00">QuantConnect.Messages.Symbol</text>
<text text-anchor="start" x="1701" y="-502.5" font-family="Helvetica,sans-Serif" font-size="10.00">Representation.UnexpectedSecurity</text>
<text text-anchor="middle" x="1789" y="-491.5" font-family="Helvetica,sans-Serif" font-size="10.00">TypeForMethod</text>
</a>
</g>
</g>
<!-- Node11&#45;&gt;Node12 -->
<g id="edge11" class="edge">
<title>Node11&#45;&gt;Node12</title>
<path fill="none" stroke="midnightblue" d="M1620.24,-508.12C1640.7,-507.74 1662.27,-507.34 1682.88,-506.96"/>
<polygon fill="midnightblue" stroke="midnightblue" points="1682.98,-510.46 1692.91,-506.77 1682.85,-503.46 1682.98,-510.46"/>
</g>
<!-- Node14 -->
<g id="node14" class="node">
<title>Node14</title>
<g id="a_node14"><a xlink:href="classQuantConnect_1_1SecurityIdentifier.html#a19e1f9da410608020d74ed9e7d283575" target="_top" xlink:title="Generates the Symbol property for QuantConnect.SecurityType.Base security identifiers">
<polygon fill="white" stroke="black" points="1001,-464 1001,-494 1175,-494 1175,-464 1001,-464"/>
<text text-anchor="start" x="1009" y="-482" font-family="Helvetica,sans-Serif" font-size="10.00">QuantConnect.SecurityIdentifier.</text>
<text text-anchor="middle" x="1088" y="-471" font-family="Helvetica,sans-Serif" font-size="10.00">GenerateBaseSymbol</text>
</a>
</g>
</g>
<!-- Node13&#45;&gt;Node14 -->
<g id="edge13" class="edge">
<title>Node13&#45;&gt;Node14</title>
<path fill="none" stroke="midnightblue" d="M946.14,-479C960.72,-479 975.93,-479 990.74,-479"/>
<polygon fill="midnightblue" stroke="midnightblue" points="990.92,-482.5 1000.92,-479 990.92,-475.5 990.92,-482.5"/>
</g>
<!-- Node23 -->
<g id="node23" class="node">
<title>Node23</title>
<g id="a_node23"><a xlink:href="classQuantConnect_1_1Securities_1_1SymbolPropertiesDatabase.html#a13409909230e8a82ee9d64fa2caa3b89" target="_top" xlink:title="Gets a list of symbol properties for the specified market/security&#45;type">
<polygon fill="white" stroke="black" points="774,-60.5 774,-101.5 944,-101.5 944,-60.5 774,-60.5"/>
<text text-anchor="start" x="782" y="-89.5" font-family="Helvetica,sans-Serif" font-size="10.00">QuantConnect.Securities.</text>
<text text-anchor="start" x="782" y="-78.5" font-family="Helvetica,sans-Serif" font-size="10.00">SymbolPropertiesDatabase.Get</text>
<text text-anchor="middle" x="859" y="-67.5" font-family="Helvetica,sans-Serif" font-size="10.00">SymbolPropertiesList</text>
</a>
</g>
</g>
<!-- Node22&#45;&gt;Node23 -->
<g id="edge24" class="edge">
<title>Node22&#45;&gt;Node23</title>
<path fill="none" stroke="midnightblue" d="M717.17,-81C732.64,-81 748.39,-81 763.49,-81"/>
<polygon fill="midnightblue" stroke="midnightblue" points="763.83,-84.5 773.83,-81 763.83,-77.5 763.83,-84.5"/>
</g>
<!-- Node24 -->
<g id="node24" class="node">
<title>Node24</title>
<g id="a_node24"><a xlink:href="interfaceQuantConnect_1_1ToolBox_1_1RandomDataGenerator_1_1IRandomValueGenerator.html#a615be809fb0e058c362a8575be83337e" target="_top" xlink:title="Returns a random integer that is within a specified range.">
<polygon fill="white" stroke="black" points="753,-0.5 753,-41.5 965,-41.5 965,-0.5 753,-0.5"/>
<text text-anchor="start" x="761" y="-29.5" font-family="Helvetica,sans-Serif" font-size="10.00">QuantConnect.ToolBox.Random</text>
<text text-anchor="start" x="761" y="-18.5" font-family="Helvetica,sans-Serif" font-size="10.00">DataGenerator.IRandomValueGenerator.</text>
<text text-anchor="middle" x="859" y="-7.5" font-family="Helvetica,sans-Serif" font-size="10.00">NextInt</text>
</a>
</g>
</g>
<!-- Node22&#45;&gt;Node24 -->
<g id="edge25" class="edge">
<title>Node22&#45;&gt;Node24</title>
<path fill="none" stroke="midnightblue" d="M691.39,-60.44C713.96,-55.09 738.41,-49.3 761.45,-43.85"/>
<polygon fill="midnightblue" stroke="midnightblue" points="762.3,-47.25 771.23,-41.54 760.69,-40.44 762.3,-47.25"/>
</g>
<!-- Node25&#45;&gt;Node24 -->
<g id="edge27" class="edge">
<title>Node25&#45;&gt;Node24</title>
<path fill="none" stroke="midnightblue" d="M705.05,-21C717.49,-21 730.27,-21 742.91,-21"/>
<polygon fill="midnightblue" stroke="midnightblue" points="742.99,-24.5 752.99,-21 742.99,-17.5 742.99,-24.5"/>
</g>
</g>
</svg>
