<?xml version="1.0" encoding="UTF-8" standalone="no"?>
<!DOCTYPE svg PUBLIC "-//W3C//DTD SVG 1.1//EN"
 "http://www.w3.org/Graphics/SVG/1.1/DTD/svg11.dtd">
<!-- Generated by graphviz version 2.43.0 (0)
 -->
<!-- Title: QuantConnect.Algorithm.QCAlgorithm.AddFutureOptionContract Pages: 1 -->
<svg width="2087pt" height="568pt"
 viewBox="0.00 0.00 2087.00 567.50" xmlns="http://www.w3.org/2000/svg" xmlns:xlink="http://www.w3.org/1999/xlink">
<g id="graph0" class="graph" transform="scale(1 1) rotate(0) translate(4 563.5)">
<title>QuantConnect.Algorithm.QCAlgorithm.AddFutureOptionContract</title>
<polygon fill="white" stroke="transparent" points="-4,4 -4,-563.5 2083,-563.5 2083,4 -4,4"/>
<!-- Node1 -->
<g id="node1" class="node">
<title>Node1</title>
<g id="a_node1"><a xlink:title="Adds a future option contract to the algorithm.">
<polygon fill="#bfbfbf" stroke="black" points="0,-250.5 0,-280.5 205,-280.5 205,-250.5 0,-250.5"/>
<text text-anchor="start" x="8" y="-268.5" font-family="Helvetica,sans-Serif" font-size="10.00">QuantConnect.Algorithm.QCAlgorithm.</text>
<text text-anchor="middle" x="102.5" y="-257.5" font-family="Helvetica,sans-Serif" font-size="10.00">AddFutureOptionContract</text>
</a>
</g>
</g>
<!-- Node2 -->
<g id="node2" class="node">
<title>Node2</title>
<g id="a_node2"><a xlink:href="classQuantConnect_1_1Algorithm_1_1QCAlgorithm.html#a0f7ec3a574e47b4ac26448590c4ef685" target="_top" xlink:title="Creates and adds a new single Option contract to the algorithm">
<polygon fill="white" stroke="black" points="241,-272.5 241,-302.5 446,-302.5 446,-272.5 241,-272.5"/>
<text text-anchor="start" x="249" y="-290.5" font-family="Helvetica,sans-Serif" font-size="10.00">QuantConnect.Algorithm.QCAlgorithm.</text>
<text text-anchor="middle" x="343.5" y="-279.5" font-family="Helvetica,sans-Serif" font-size="10.00">AddOptionContract</text>
</a>
</g>
</g>
<!-- Node1&#45;&gt;Node2 -->
<g id="edge1" class="edge">
<title>Node1&#45;&gt;Node2</title>
<path fill="none" stroke="midnightblue" d="M205.2,-274.86C213.7,-275.64 222.31,-276.44 230.87,-277.22"/>
<polygon fill="midnightblue" stroke="midnightblue" points="230.61,-280.72 240.89,-278.15 231.25,-273.74 230.61,-280.72"/>
</g>
<!-- Node37 -->
<g id="node37" class="node">
<title>Node37</title>
<g id="a_node37"><a xlink:href="classQuantConnect_1_1Symbol.html#a1f3c25223fd9a7b753a4f84ece6469ab" target="_top" xlink:title="Method returns true, if symbol is a derivative canonical symbol">
<polygon fill="white" stroke="black" points="251,-234 251,-253 436,-253 436,-234 251,-234"/>
<text text-anchor="middle" x="343.5" y="-241" font-family="Helvetica,sans-Serif" font-size="10.00">QuantConnect.Symbol.IsCanonical</text>
</a>
</g>
</g>
<!-- Node1&#45;&gt;Node37 -->
<g id="edge38" class="edge">
<title>Node1&#45;&gt;Node37</title>
<path fill="none" stroke="midnightblue" d="M205.2,-256.14C216.9,-255.06 228.82,-253.96 240.52,-252.89"/>
<polygon fill="midnightblue" stroke="midnightblue" points="241.09,-256.35 250.73,-251.95 240.45,-249.38 241.09,-256.35"/>
</g>
<!-- Node3 -->
<g id="node3" class="node">
<title>Node3</title>
<g id="a_node3"><a xlink:href="interfaceQuantConnect_1_1Interfaces_1_1ISubscriptionDataConfigService.html#a37d844a8ee78541da26b4732ed6a0a14" target="_top" xlink:title="Creates and adds a list of SubscriptionDataConfig for a given symbol and configuration....">
<polygon fill="white" stroke="black" points="489.5,-517.5 489.5,-547.5 680.5,-547.5 680.5,-517.5 489.5,-517.5"/>
<text text-anchor="start" x="497.5" y="-535.5" font-family="Helvetica,sans-Serif" font-size="10.00">QuantConnect.Interfaces.</text>
<text text-anchor="middle" x="585" y="-524.5" font-family="Helvetica,sans-Serif" font-size="10.00">ISubscriptionDataConfigService.Add</text>
</a>
</g>
</g>
<!-- Node2&#45;&gt;Node3 -->
<g id="edge2" class="edge">
<title>Node2&#45;&gt;Node3</title>
<path fill="none" stroke="midnightblue" d="M349.33,-302.69C363.01,-343.12 406.02,-453.95 482,-508.5 484.1,-510.01 486.28,-511.42 488.53,-512.75"/>
<polygon fill="midnightblue" stroke="midnightblue" points="487.01,-515.91 497.5,-517.45 490.26,-509.71 487.01,-515.91"/>
</g>
<!-- Node4 -->
<g id="node4" class="node">
<title>Node4</title>
<g id="a_node4"><a xlink:href="classQuantConnect_1_1Securities_1_1SecurityManager.html#a5511dc98ccb9ce95207c5173f8afe1be" target="_top" xlink:title="Add a new security with this symbol to the collection.">
<polygon fill="white" stroke="black" points="515,-468.5 515,-498.5 655,-498.5 655,-468.5 515,-468.5"/>
<text text-anchor="start" x="523" y="-486.5" font-family="Helvetica,sans-Serif" font-size="10.00">QuantConnect.Securities.</text>
<text text-anchor="middle" x="585" y="-475.5" font-family="Helvetica,sans-Serif" font-size="10.00">SecurityManager.Add</text>
</a>
</g>
</g>
<!-- Node2&#45;&gt;Node4 -->
<g id="edge3" class="edge">
<title>Node2&#45;&gt;Node4</title>
<path fill="none" stroke="midnightblue" d="M352.08,-302.73C369.8,-336.64 417.37,-418.64 482,-459.5 489.13,-464.01 497.02,-467.67 505.17,-470.64"/>
<polygon fill="midnightblue" stroke="midnightblue" points="504.22,-474.02 514.81,-473.83 506.41,-467.37 504.22,-474.02"/>
</g>
<!-- Node7 -->
<g id="node7" class="node">
<title>Node7</title>
<g id="a_node7"><a xlink:href="classQuantConnect_1_1Data_1_1UniverseSelection_1_1UserDefinedUniverse.html#af1f5f13dab0caee897b2c82bd51910d7" target="_top" xlink:title="Adds the specified Symbol to this universe">
<polygon fill="white" stroke="black" points="490,-419.5 490,-449.5 680,-449.5 680,-419.5 490,-419.5"/>
<text text-anchor="start" x="498" y="-437.5" font-family="Helvetica,sans-Serif" font-size="10.00">QuantConnect.Data.Universe</text>
<text text-anchor="middle" x="585" y="-426.5" font-family="Helvetica,sans-Serif" font-size="10.00">Selection.UserDefinedUniverse.Add</text>
</a>
</g>
</g>
<!-- Node2&#45;&gt;Node7 -->
<g id="edge6" class="edge">
<title>Node2&#45;&gt;Node7</title>
<path fill="none" stroke="midnightblue" d="M357.2,-302.85C379.62,-328.9 428.87,-381.63 482,-409.5 486.53,-411.87 491.28,-414.03 496.17,-415.98"/>
<polygon fill="midnightblue" stroke="midnightblue" points="495.1,-419.32 505.69,-419.5 497.52,-412.75 495.1,-419.32"/>
</g>
<!-- Node9 -->
<g id="node9" class="node">
<title>Node9</title>
<g id="a_node9"><a xlink:href="classQuantConnect_1_1Algorithm_1_1QCAlgorithm.html#a101da8582e6819d82780f37a3b3162e0" target="_top" xlink:title="Add specified data to our data subscriptions. QuantConnect will funnel this data to the handle data r...">
<polygon fill="white" stroke="black" points="482.5,-370.5 482.5,-400.5 687.5,-400.5 687.5,-370.5 482.5,-370.5"/>
<text text-anchor="start" x="490.5" y="-388.5" font-family="Helvetica,sans-Serif" font-size="10.00">QuantConnect.Algorithm.QCAlgorithm.</text>
<text text-anchor="middle" x="585" y="-377.5" font-family="Helvetica,sans-Serif" font-size="10.00">AddSecurity</text>
</a>
</g>
</g>
<!-- Node2&#45;&gt;Node9 -->
<g id="edge8" class="edge">
<title>Node2&#45;&gt;Node9</title>
<path fill="none" stroke="midnightblue" d="M368.47,-302.59C395.26,-318.88 440.33,-344.61 482,-360.5 488.73,-363.07 495.82,-365.44 502.99,-367.61"/>
<polygon fill="midnightblue" stroke="midnightblue" points="502.22,-371.03 512.79,-370.45 504.16,-364.31 502.22,-371.03"/>
</g>
<!-- Node10 -->
<g id="node10" class="node">
<title>Node10</title>
<g id="a_node10"><a xlink:href="classQuantConnect_1_1Algorithm_1_1QCAlgorithm.html#aeac560d821c1d05c6af8864ec7075a72" target="_top" xlink:title="Creates a new universe and adds it to the algorithm. This is for coarse fundamental US Equity data an...">
<polygon fill="white" stroke="black" points="482.5,-321.5 482.5,-351.5 687.5,-351.5 687.5,-321.5 482.5,-321.5"/>
<text text-anchor="start" x="490.5" y="-339.5" font-family="Helvetica,sans-Serif" font-size="10.00">QuantConnect.Algorithm.QCAlgorithm.</text>
<text text-anchor="middle" x="585" y="-328.5" font-family="Helvetica,sans-Serif" font-size="10.00">AddUniverse</text>
</a>
</g>
</g>
<!-- Node2&#45;&gt;Node10 -->
<g id="edge9" class="edge">
<title>Node2&#45;&gt;Node10</title>
<path fill="none" stroke="midnightblue" d="M417.99,-302.53C444.19,-307.9 473.89,-313.97 500.86,-319.49"/>
<polygon fill="midnightblue" stroke="midnightblue" points="500.15,-322.92 510.65,-321.49 501.56,-316.06 500.15,-322.92"/>
</g>
<!-- Node12 -->
<g id="node12" class="node">
<title>Node12</title>
<g id="a_node12"><a xlink:href="classQuantConnect_1_1Securities_1_1SecurityManager.html#a0aa9a5d066fcba5dfcc7ae10ac22b550" target="_top" xlink:title="Creates a new security">
<polygon fill="white" stroke="black" points="498.5,-272.5 498.5,-302.5 671.5,-302.5 671.5,-272.5 498.5,-272.5"/>
<text text-anchor="start" x="506.5" y="-290.5" font-family="Helvetica,sans-Serif" font-size="10.00">QuantConnect.Securities.</text>
<text text-anchor="middle" x="585" y="-279.5" font-family="Helvetica,sans-Serif" font-size="10.00">SecurityManager.CreateSecurity</text>
</a>
</g>
</g>
<!-- Node2&#45;&gt;Node12 -->
<g id="edge11" class="edge">
<title>Node2&#45;&gt;Node12</title>
<path fill="none" stroke="midnightblue" d="M446.07,-287.5C459.89,-287.5 474.03,-287.5 487.75,-287.5"/>
<polygon fill="midnightblue" stroke="midnightblue" points="488.15,-291 498.15,-287.5 488.15,-284 488.15,-291"/>
</g>
<!-- Node13 -->
<g id="node13" class="node">
<title>Node13</title>
<g id="a_node13"><a xlink:href="classQuantConnect_1_1Algorithm_1_1Selection_1_1OptionContractUniverse.html#a2eb2e862dec61e38139b90211b87b5a7" target="_top" xlink:title="Creates a user defined universe symbol">
<polygon fill="white" stroke="black" points="482,-223.5 482,-253.5 688,-253.5 688,-223.5 482,-223.5"/>
<text text-anchor="start" x="490" y="-241.5" font-family="Helvetica,sans-Serif" font-size="10.00">QuantConnect.Algorithm.Selection.</text>
<text text-anchor="middle" x="585" y="-230.5" font-family="Helvetica,sans-Serif" font-size="10.00">OptionContractUniverse.CreateSymbol</text>
</a>
</g>
</g>
<!-- Node2&#45;&gt;Node13 -->
<g id="edge12" class="edge">
<title>Node2&#45;&gt;Node13</title>
<path fill="none" stroke="midnightblue" d="M417.99,-272.47C444.19,-267.1 473.89,-261.03 500.86,-255.51"/>
<polygon fill="midnightblue" stroke="midnightblue" points="501.56,-258.94 510.65,-253.51 500.15,-252.08 501.56,-258.94"/>
</g>
<!-- Node33 -->
<g id="node33" class="node">
<title>Node33</title>
<g id="a_node33"><a xlink:href="interfaceQuantConnect_1_1Interfaces_1_1ISubscriptionDataConfigProvider.html#a29826b931901dd4e4b64515663a2073b" target="_top" xlink:title="Gets a list of all registered SubscriptionDataConfig for a given Symbol if any else will return the w...">
<polygon fill="white" stroke="black" points="497,-163 497,-204 673,-204 673,-163 497,-163"/>
<text text-anchor="start" x="505" y="-192" font-family="Helvetica,sans-Serif" font-size="10.00">QuantConnect.Interfaces.</text>
<text text-anchor="start" x="505" y="-181" font-family="Helvetica,sans-Serif" font-size="10.00">ISubscriptionDataConfigProvider.</text>
<text text-anchor="middle" x="585" y="-170" font-family="Helvetica,sans-Serif" font-size="10.00">GetSubscriptionDataConfigs</text>
</a>
</g>
</g>
<!-- Node2&#45;&gt;Node33 -->
<g id="edge34" class="edge">
<title>Node2&#45;&gt;Node33</title>
<path fill="none" stroke="midnightblue" d="M427.23,-272.44C433.83,-269.66 440.19,-266.38 446,-262.5 468.47,-247.48 459.88,-229.02 482,-213.5 484.37,-211.84 486.84,-210.26 489.38,-208.78"/>
<polygon fill="midnightblue" stroke="midnightblue" points="491.08,-211.84 498.26,-204.05 487.78,-205.66 491.08,-211.84"/>
</g>
<!-- Node34 -->
<g id="node34" class="node">
<title>Node34</title>
<g id="a_node34"><a xlink:href="classQuantConnect_1_1Securities_1_1Security.html#a6e220313d3ba00347b727bae4944eca8" target="_top" xlink:title="Sets the data normalization mode to be used by this security">
<polygon fill="white" stroke="black" points="488.5,-113.5 488.5,-143.5 681.5,-143.5 681.5,-113.5 488.5,-113.5"/>
<text text-anchor="start" x="496.5" y="-131.5" font-family="Helvetica,sans-Serif" font-size="10.00">QuantConnect.Securities.</text>
<text text-anchor="middle" x="585" y="-120.5" font-family="Helvetica,sans-Serif" font-size="10.00">Security.SetDataNormalizationMode</text>
</a>
</g>
</g>
<!-- Node2&#45;&gt;Node34 -->
<g id="edge35" class="edge">
<title>Node2&#45;&gt;Node34</title>
<path fill="none" stroke="midnightblue" d="M432.33,-272.37C437.25,-269.58 441.87,-266.32 446,-262.5 483.45,-227.85 444.53,-188.13 482,-153.5 483.69,-151.94 485.45,-150.48 487.29,-149.1"/>
<polygon fill="midnightblue" stroke="midnightblue" points="489.27,-151.98 495.74,-143.6 485.45,-146.12 489.27,-151.98"/>
</g>
<!-- Node35 -->
<g id="node35" class="node">
<title>Node35</title>
<g id="a_node35"><a xlink:href="classQuantConnect_1_1Securities_1_1UniverseManager.html#af60ce15a9fe3719dcca8f1cf5d346a2a" target="_top" xlink:title="Gets the value associated with the specified key.">
<polygon fill="white" stroke="black" points="503,-64.5 503,-94.5 667,-94.5 667,-64.5 503,-64.5"/>
<text text-anchor="start" x="511" y="-82.5" font-family="Helvetica,sans-Serif" font-size="10.00">QuantConnect.Securities.</text>
<text text-anchor="middle" x="585" y="-71.5" font-family="Helvetica,sans-Serif" font-size="10.00">UniverseManager.TryGetValue</text>
</a>
</g>
</g>
<!-- Node2&#45;&gt;Node35 -->
<g id="edge36" class="edge">
<title>Node2&#45;&gt;Node35</title>
<path fill="none" stroke="midnightblue" d="M433.69,-272.25C438.16,-269.48 442.31,-266.26 446,-262.5 496.75,-210.79 430.98,-154.95 482,-103.5 485.5,-99.97 489.41,-96.92 493.61,-94.29"/>
<polygon fill="midnightblue" stroke="midnightblue" points="495.45,-97.28 502.59,-89.46 492.13,-91.12 495.45,-97.28"/>
</g>
<!-- Node36 -->
<g id="node36" class="node">
<title>Node36</title>
<g id="a_node36"><a xlink:href="classQuantConnect_1_1Securities_1_1SecurityManager.html#af3ad97e370ceec706ac1afe70f7fbb42" target="_top" xlink:title="Try and get this security object with matching symbol and return true on success.">
<polygon fill="white" stroke="black" points="505,-15.5 505,-45.5 665,-45.5 665,-15.5 505,-15.5"/>
<text text-anchor="start" x="513" y="-33.5" font-family="Helvetica,sans-Serif" font-size="10.00">QuantConnect.Securities.</text>
<text text-anchor="middle" x="585" y="-22.5" font-family="Helvetica,sans-Serif" font-size="10.00">SecurityManager.TryGetValue</text>
</a>
</g>
</g>
<!-- Node2&#45;&gt;Node36 -->
<g id="edge37" class="edge">
<title>Node2&#45;&gt;Node36</title>
<path fill="none" stroke="midnightblue" d="M433.92,-272.47C438.33,-269.65 442.41,-266.35 446,-262.5 509.97,-193.88 417.67,-122.79 482,-54.5 485.98,-50.28 490.54,-46.74 495.49,-43.77"/>
<polygon fill="midnightblue" stroke="midnightblue" points="497.46,-46.7 504.77,-39.03 494.27,-40.46 497.46,-46.7"/>
</g>
<!-- Node5 -->
<g id="node5" class="node">
<title>Node5</title>
<g id="a_node5"><a xlink:href="classQuantConnect_1_1Securities_1_1SecurityManager.html#a0e4af6deb8b954b63bde12056f77e126" target="_top" xlink:title="Event invocator for the CollectionChanged event">
<polygon fill="white" stroke="black" points="733,-518 733,-559 897,-559 897,-518 733,-518"/>
<text text-anchor="start" x="741" y="-547" font-family="Helvetica,sans-Serif" font-size="10.00">QuantConnect.Securities.</text>
<text text-anchor="start" x="741" y="-536" font-family="Helvetica,sans-Serif" font-size="10.00">SecurityManager.OnCollection</text>
<text text-anchor="middle" x="815" y="-525" font-family="Helvetica,sans-Serif" font-size="10.00">Changed</text>
</a>
</g>
</g>
<!-- Node4&#45;&gt;Node5 -->
<g id="edge4" class="edge">
<title>Node4&#45;&gt;Node5</title>
<path fill="none" stroke="midnightblue" d="M648.3,-498.53C671.35,-504.09 697.97,-510.51 723.04,-516.56"/>
<polygon fill="midnightblue" stroke="midnightblue" points="722.39,-520 732.93,-518.94 724.03,-513.2 722.39,-520"/>
</g>
<!-- Node6 -->
<g id="node6" class="node">
<title>Node6</title>
<g id="a_node6"><a xlink:href="classQuantConnect_1_1Securities_1_1Security.html#a19452e0c096c670c9fecceb71d05f3e5" target="_top" xlink:title="Sets the LocalTimeKeeper to be used for this Security. This is the source of this instance&#39;s time.">
<polygon fill="white" stroke="black" points="736,-468.5 736,-498.5 894,-498.5 894,-468.5 736,-468.5"/>
<text text-anchor="start" x="744" y="-486.5" font-family="Helvetica,sans-Serif" font-size="10.00">QuantConnect.Securities.</text>
<text text-anchor="middle" x="815" y="-475.5" font-family="Helvetica,sans-Serif" font-size="10.00">Security.SetLocalTimeKeeper</text>
</a>
</g>
</g>
<!-- Node4&#45;&gt;Node6 -->
<g id="edge5" class="edge">
<title>Node4&#45;&gt;Node6</title>
<path fill="none" stroke="midnightblue" d="M655.03,-483.5C677.18,-483.5 702.02,-483.5 725.37,-483.5"/>
<polygon fill="midnightblue" stroke="midnightblue" points="725.63,-487 735.63,-483.5 725.63,-480 725.63,-487"/>
</g>
<!-- Node8 -->
<g id="node8" class="node">
<title>Node8</title>
<g id="a_node8"><a xlink:href="classQuantConnect_1_1Data_1_1UniverseSelection_1_1UserDefinedUniverse.html#a143d427b0db8ba8fec29f3612d72073a" target="_top" xlink:title="Event invocator for the CollectionChanged event">
<polygon fill="white" stroke="black" points="729.5,-408 729.5,-449 900.5,-449 900.5,-408 729.5,-408"/>
<text text-anchor="start" x="737.5" y="-437" font-family="Helvetica,sans-Serif" font-size="10.00">QuantConnect.Data.Universe</text>
<text text-anchor="start" x="737.5" y="-426" font-family="Helvetica,sans-Serif" font-size="10.00">Selection.UserDefinedUniverse.</text>
<text text-anchor="middle" x="815" y="-415" font-family="Helvetica,sans-Serif" font-size="10.00">OnCollectionChanged</text>
</a>
</g>
</g>
<!-- Node7&#45;&gt;Node8 -->
<g id="edge7" class="edge">
<title>Node7&#45;&gt;Node8</title>
<path fill="none" stroke="midnightblue" d="M680.05,-432.02C692.93,-431.69 706.15,-431.34 719.04,-431"/>
<polygon fill="midnightblue" stroke="midnightblue" points="719.39,-434.49 729.29,-430.73 719.2,-427.49 719.39,-434.49"/>
</g>
<!-- Node11 -->
<g id="node11" class="node">
<title>Node11</title>
<g id="a_node11"><a xlink:href="classQuantConnect_1_1Data_1_1Fundamental_1_1FundamentalUniverse.html#a311287571a6bdb1fdbdb0a9abe5b3aa8" target="_top" xlink:title="Creates a new fundamental universe for the USA market">
<polygon fill="white" stroke="black" points="724,-321.5 724,-351.5 906,-351.5 906,-321.5 724,-321.5"/>
<text text-anchor="start" x="732" y="-339.5" font-family="Helvetica,sans-Serif" font-size="10.00">QuantConnect.Data.Fundamental.</text>
<text text-anchor="middle" x="815" y="-328.5" font-family="Helvetica,sans-Serif" font-size="10.00">FundamentalUniverse.USA</text>
</a>
</g>
</g>
<!-- Node10&#45;&gt;Node11 -->
<g id="edge10" class="edge">
<title>Node10&#45;&gt;Node11</title>
<path fill="none" stroke="midnightblue" d="M687.66,-336.5C696.28,-336.5 705,-336.5 713.61,-336.5"/>
<polygon fill="midnightblue" stroke="midnightblue" points="713.66,-340 723.66,-336.5 713.66,-333 713.66,-340"/>
</g>
<!-- Node14 -->
<g id="node14" class="node">
<title>Node14</title>
<g id="a_node14"><a xlink:href="classQuantConnect_1_1Symbol.html#a350b9a625cf7bad95da82894be3cd0a8" target="_top" xlink:title="Provides a convenience method for creating a Symbol for most security types. This method currently do...">
<polygon fill="white" stroke="black" points="734.5,-251 734.5,-270 895.5,-270 895.5,-251 734.5,-251"/>
<text text-anchor="middle" x="815" y="-258" font-family="Helvetica,sans-Serif" font-size="10.00">QuantConnect.Symbol.Create</text>
</a>
</g>
</g>
<!-- Node13&#45;&gt;Node14 -->
<g id="edge13" class="edge">
<title>Node13&#45;&gt;Node14</title>
<path fill="none" stroke="midnightblue" d="M688.33,-248.37C700.23,-249.52 712.31,-250.69 724.03,-251.82"/>
<polygon fill="midnightblue" stroke="midnightblue" points="723.93,-255.33 734.22,-252.8 724.6,-248.36 723.93,-255.33"/>
</g>
<!-- Node32 -->
<g id="node32" class="node">
<title>Node32</title>
<g id="a_node32"><a xlink:href="classQuantConnect_1_1SecurityIdentifier.html#a58becf4433a3155807bc4959679ccca7" target="_top" xlink:title="Generates a new SecurityIdentifier for an option">
<polygon fill="white" stroke="black" points="728,-201.5 728,-231.5 902,-231.5 902,-201.5 728,-201.5"/>
<text text-anchor="start" x="736" y="-219.5" font-family="Helvetica,sans-Serif" font-size="10.00">QuantConnect.SecurityIdentifier.</text>
<text text-anchor="middle" x="815" y="-208.5" font-family="Helvetica,sans-Serif" font-size="10.00">GenerateOption</text>
</a>
</g>
</g>
<!-- Node13&#45;&gt;Node32 -->
<g id="edge33" class="edge">
<title>Node13&#45;&gt;Node32</title>
<path fill="none" stroke="midnightblue" d="M688.33,-228.63C698.08,-227.69 707.95,-226.73 717.64,-225.8"/>
<polygon fill="midnightblue" stroke="midnightblue" points="718.05,-229.27 727.67,-224.83 717.38,-222.31 718.05,-229.27"/>
</g>
<!-- Node15 -->
<g id="node15" class="node">
<title>Node15</title>
<g id="a_node15"><a xlink:href="classQuantConnect_1_1Symbol.html#a7518a1932d1babbff128f2ba9666a78b" target="_top" xlink:title="Provides a convenience method for creating an option Symbol.">
<polygon fill="white" stroke="black" points="951.5,-431.5 951.5,-461.5 1112.5,-461.5 1112.5,-431.5 951.5,-431.5"/>
<text text-anchor="start" x="959.5" y="-449.5" font-family="Helvetica,sans-Serif" font-size="10.00">QuantConnect.Symbol.Create</text>
<text text-anchor="middle" x="1032" y="-438.5" font-family="Helvetica,sans-Serif" font-size="10.00">Option</text>
</a>
</g>
</g>
<!-- Node14&#45;&gt;Node15 -->
<g id="edge14" class="edge">
<title>Node14&#45;&gt;Node15</title>
<path fill="none" stroke="midnightblue" d="M843.96,-270.16C863.8,-278.33 889.71,-291.88 906,-311.5 937.51,-349.46 907.03,-381.71 942,-416.5 945.73,-420.21 949.94,-423.47 954.44,-426.32"/>
<polygon fill="midnightblue" stroke="midnightblue" points="952.98,-429.51 963.42,-431.32 956.39,-423.4 952.98,-429.51"/>
</g>
<!-- Node16 -->
<g id="node16" class="node">
<title>Node16</title>
<g id="a_node16"><a xlink:href="classQuantConnect_1_1SecurityIdentifier.html#a0c21d7880c9fdd260883d11ea0c99a00" target="_top" xlink:title="Helper overload that will search the mapfiles to resolve the first date. This implementation uses the...">
<polygon fill="white" stroke="black" points="1158,-464.5 1158,-494.5 1332,-494.5 1332,-464.5 1158,-464.5"/>
<text text-anchor="start" x="1166" y="-482.5" font-family="Helvetica,sans-Serif" font-size="10.00">QuantConnect.SecurityIdentifier.</text>
<text text-anchor="middle" x="1245" y="-471.5" font-family="Helvetica,sans-Serif" font-size="10.00">GenerateEquity</text>
</a>
</g>
</g>
<!-- Node14&#45;&gt;Node16 -->
<g id="edge27" class="edge">
<title>Node14&#45;&gt;Node16</title>
<path fill="none" stroke="midnightblue" d="M845.89,-270.16C865.87,-278.14 891.13,-291.45 906,-311.5 949.43,-370.04 885.69,-425.22 942,-471.5 1010.22,-527.57 1119.32,-513.35 1186.03,-497.04"/>
<polygon fill="midnightblue" stroke="midnightblue" points="1187.13,-500.38 1195.96,-494.53 1185.41,-493.59 1187.13,-500.38"/>
</g>
<!-- Node17 -->
<g id="node17" class="node">
<title>Node17</title>
<g id="a_node17"><a xlink:href="classQuantConnect_1_1Symbol.html#a59158f74116be3dad0ea0f3f3f134416" target="_top" xlink:title="Initializes a new instance of the Symbol class">
<polygon fill="white" stroke="black" points="1162.5,-415 1162.5,-434 1327.5,-434 1327.5,-415 1162.5,-415"/>
<text text-anchor="middle" x="1245" y="-422" font-family="Helvetica,sans-Serif" font-size="10.00">QuantConnect.Symbol.Symbol</text>
</a>
</g>
</g>
<!-- Node14&#45;&gt;Node17 -->
<g id="edge32" class="edge">
<title>Node14&#45;&gt;Node17</title>
<path fill="none" stroke="midnightblue" d="M841.54,-270.15C861.17,-278.61 887.89,-292.54 906,-311.5 930.43,-337.09 913.2,-361.95 942,-382.5 974.89,-405.97 1075.93,-416.38 1152.15,-420.97"/>
<polygon fill="midnightblue" stroke="midnightblue" points="1152.08,-424.47 1162.26,-421.55 1152.48,-417.48 1152.08,-424.47"/>
</g>
<!-- Node23 -->
<g id="node23" class="node">
<title>Node23</title>
<g id="a_node23"><a xlink:href="classQuantConnect_1_1SecurityIdentifier.html#a02ca750115844561c001c2346fbafc00" target="_top" xlink:title="Generates a new SecurityIdentifier for a custom security with the option of providing the first date">
<polygon fill="white" stroke="black" points="945,-343.5 945,-373.5 1119,-373.5 1119,-343.5 945,-343.5"/>
<text text-anchor="start" x="953" y="-361.5" font-family="Helvetica,sans-Serif" font-size="10.00">QuantConnect.SecurityIdentifier.</text>
<text text-anchor="middle" x="1032" y="-350.5" font-family="Helvetica,sans-Serif" font-size="10.00">GenerateBase</text>
</a>
</g>
</g>
<!-- Node14&#45;&gt;Node23 -->
<g id="edge22" class="edge">
<title>Node14&#45;&gt;Node23</title>
<path fill="none" stroke="midnightblue" d="M833.35,-270.11C851.55,-280.24 880.93,-296.74 906,-311.5 922.16,-321.01 924.81,-326.01 942,-333.5 947.47,-335.88 953.22,-338.1 959.06,-340.15"/>
<polygon fill="midnightblue" stroke="midnightblue" points="958.35,-343.61 968.95,-343.45 960.57,-336.96 958.35,-343.61"/>
</g>
<!-- Node25 -->
<g id="node25" class="node">
<title>Node25</title>
<g id="a_node25"><a xlink:href="classQuantConnect_1_1SecurityIdentifier.html#a53953b18d814c5445e4ecdcb3b555080" target="_top" xlink:title="Generates a new SecurityIdentifier for a CFD security">
<polygon fill="white" stroke="black" points="945,-294.5 945,-324.5 1119,-324.5 1119,-294.5 945,-294.5"/>
<text text-anchor="start" x="953" y="-312.5" font-family="Helvetica,sans-Serif" font-size="10.00">QuantConnect.SecurityIdentifier.</text>
<text text-anchor="middle" x="1032" y="-301.5" font-family="Helvetica,sans-Serif" font-size="10.00">GenerateCfd</text>
</a>
</g>
</g>
<!-- Node14&#45;&gt;Node25 -->
<g id="edge24" class="edge">
<title>Node14&#45;&gt;Node25</title>
<path fill="none" stroke="midnightblue" d="M857.71,-270.01C885.27,-276.29 922.19,-284.7 954.88,-292.15"/>
<polygon fill="midnightblue" stroke="midnightblue" points="954.34,-295.62 964.87,-294.43 955.9,-288.79 954.34,-295.62"/>
</g>
<!-- Node26 -->
<g id="node26" class="node">
<title>Node26</title>
<g id="a_node26"><a xlink:href="classQuantConnect_1_1SecurityIdentifier.html#a5889a95a36ce927dd0a109cbfbcbe663" target="_top" xlink:title="Generates a new SecurityIdentifier for a Crypto pair">
<polygon fill="white" stroke="black" points="945,-245.5 945,-275.5 1119,-275.5 1119,-245.5 945,-245.5"/>
<text text-anchor="start" x="953" y="-263.5" font-family="Helvetica,sans-Serif" font-size="10.00">QuantConnect.SecurityIdentifier.</text>
<text text-anchor="middle" x="1032" y="-252.5" font-family="Helvetica,sans-Serif" font-size="10.00">GenerateCrypto</text>
</a>
</g>
</g>
<!-- Node14&#45;&gt;Node26 -->
<g id="edge25" class="edge">
<title>Node14&#45;&gt;Node26</title>
<path fill="none" stroke="midnightblue" d="M895.75,-260.5C908.39,-260.5 921.57,-260.5 934.54,-260.5"/>
<polygon fill="midnightblue" stroke="midnightblue" points="934.88,-264 944.88,-260.5 934.88,-257 934.88,-264"/>
</g>
<!-- Node27 -->
<g id="node27" class="node">
<title>Node27</title>
<g id="a_node27"><a xlink:href="classQuantConnect_1_1SecurityIdentifier.html#ac665665a16d5449872fed3427b95a260" target="_top" xlink:title="Generates a new SecurityIdentifier for a CryptoFuture pair">
<polygon fill="white" stroke="black" points="945,-196.5 945,-226.5 1119,-226.5 1119,-196.5 945,-196.5"/>
<text text-anchor="start" x="953" y="-214.5" font-family="Helvetica,sans-Serif" font-size="10.00">QuantConnect.SecurityIdentifier.</text>
<text text-anchor="middle" x="1032" y="-203.5" font-family="Helvetica,sans-Serif" font-size="10.00">GenerateCryptoFuture</text>
</a>
</g>
</g>
<!-- Node14&#45;&gt;Node27 -->
<g id="edge26" class="edge">
<title>Node14&#45;&gt;Node27</title>
<path fill="none" stroke="midnightblue" d="M859.51,-250.92C874.27,-247.64 890.86,-243.94 906,-240.5 922.53,-236.75 940.27,-232.66 957.04,-228.78"/>
<polygon fill="midnightblue" stroke="midnightblue" points="957.84,-232.19 966.79,-226.52 956.26,-225.37 957.84,-232.19"/>
</g>
<!-- Node28 -->
<g id="node28" class="node">
<title>Node28</title>
<g id="a_node28"><a xlink:href="classQuantConnect_1_1SecurityIdentifier.html#a9cf0d3b208a5171e6112516ce441f18d" target="_top" xlink:title="Generates a new SecurityIdentifier for a forex pair">
<polygon fill="white" stroke="black" points="945,-147.5 945,-177.5 1119,-177.5 1119,-147.5 945,-147.5"/>
<text text-anchor="start" x="953" y="-165.5" font-family="Helvetica,sans-Serif" font-size="10.00">QuantConnect.SecurityIdentifier.</text>
<text text-anchor="middle" x="1032" y="-154.5" font-family="Helvetica,sans-Serif" font-size="10.00">GenerateForex</text>
</a>
</g>
</g>
<!-- Node14&#45;&gt;Node28 -->
<g id="edge28" class="edge">
<title>Node14&#45;&gt;Node28</title>
<path fill="none" stroke="midnightblue" d="M885.14,-250.95C892.54,-248.26 899.66,-244.84 906,-240.5 929.79,-224.2 918.58,-203.33 942,-186.5 944.1,-184.99 946.3,-183.57 948.56,-182.24"/>
<polygon fill="midnightblue" stroke="midnightblue" points="950.33,-185.27 957.6,-177.55 947.11,-179.05 950.33,-185.27"/>
</g>
<!-- Node29 -->
<g id="node29" class="node">
<title>Node29</title>
<g id="a_node29"><a xlink:href="classQuantConnect_1_1SecurityIdentifier.html#ad50a891c97cb0c084a9e2aa43607ed66" target="_top" xlink:title="Generates a new SecurityIdentifier for a future">
<polygon fill="white" stroke="black" points="945,-98.5 945,-128.5 1119,-128.5 1119,-98.5 945,-98.5"/>
<text text-anchor="start" x="953" y="-116.5" font-family="Helvetica,sans-Serif" font-size="10.00">QuantConnect.SecurityIdentifier.</text>
<text text-anchor="middle" x="1032" y="-105.5" font-family="Helvetica,sans-Serif" font-size="10.00">GenerateFuture</text>
</a>
</g>
</g>
<!-- Node14&#45;&gt;Node29 -->
<g id="edge29" class="edge">
<title>Node14&#45;&gt;Node29</title>
<path fill="none" stroke="midnightblue" d="M889.87,-250.9C895.73,-248.17 901.21,-244.75 906,-240.5 942.25,-208.28 906.48,-170.52 942,-137.5 943.14,-136.44 944.31,-135.43 945.53,-134.47"/>
<polygon fill="midnightblue" stroke="midnightblue" points="947.71,-137.21 954.02,-128.7 943.78,-131.42 947.71,-137.21"/>
</g>
<!-- Node30 -->
<g id="node30" class="node">
<title>Node30</title>
<g id="a_node30"><a xlink:href="classQuantConnect_1_1SecurityIdentifier.html#ade05a8e57b041ab484cf585be8d05699" target="_top" xlink:title="Generates a new SecurityIdentifier for a INDEX security">
<polygon fill="white" stroke="black" points="945,-49.5 945,-79.5 1119,-79.5 1119,-49.5 945,-49.5"/>
<text text-anchor="start" x="953" y="-67.5" font-family="Helvetica,sans-Serif" font-size="10.00">QuantConnect.SecurityIdentifier.</text>
<text text-anchor="middle" x="1032" y="-56.5" font-family="Helvetica,sans-Serif" font-size="10.00">GenerateIndex</text>
</a>
</g>
</g>
<!-- Node14&#45;&gt;Node30 -->
<g id="edge30" class="edge">
<title>Node14&#45;&gt;Node30</title>
<path fill="none" stroke="midnightblue" d="M891.22,-250.98C896.64,-248.21 901.67,-244.77 906,-240.5 955.43,-191.75 893.67,-138.34 942,-88.5 942.94,-87.53 943.91,-86.6 944.92,-85.7"/>
<polygon fill="midnightblue" stroke="midnightblue" points="947.27,-88.32 953.19,-79.53 943.09,-82.71 947.27,-88.32"/>
</g>
<!-- Node31 -->
<g id="node31" class="node">
<title>Node31</title>
<g id="a_node31"><a xlink:href="classQuantConnect_1_1Messages_1_1Symbol.html#ab801bef52a308b8ba7ba6d42e1ef1988" target="_top" xlink:title="Returns a string message saying the given security type has not been implemented yet">
<polygon fill="white" stroke="black" points="942,-0.5 942,-30.5 1122,-30.5 1122,-0.5 942,-0.5"/>
<text text-anchor="start" x="950" y="-18.5" font-family="Helvetica,sans-Serif" font-size="10.00">QuantConnect.Messages.Symbol.</text>
<text text-anchor="middle" x="1032" y="-7.5" font-family="Helvetica,sans-Serif" font-size="10.00">SecurityTypeNotImplementedYet</text>
</a>
</g>
</g>
<!-- Node14&#45;&gt;Node31 -->
<g id="edge31" class="edge">
<title>Node14&#45;&gt;Node31</title>
<path fill="none" stroke="midnightblue" d="M892.32,-250.79C897.36,-248.04 902.01,-244.66 906,-240.5 968.83,-175.01 880.65,-106.38 942,-39.5 942.78,-38.65 943.6,-37.82 944.43,-37.02"/>
<polygon fill="midnightblue" stroke="midnightblue" points="946.9,-39.53 952.57,-30.58 942.56,-34.04 946.9,-39.53"/>
</g>
<!-- Node15&#45;&gt;Node16 -->
<g id="edge15" class="edge">
<title>Node15&#45;&gt;Node16</title>
<path fill="none" stroke="midnightblue" d="M1112.77,-458.98C1124.14,-460.75 1135.94,-462.6 1147.59,-464.42"/>
<polygon fill="midnightblue" stroke="midnightblue" points="1147.35,-467.93 1157.77,-466.01 1148.43,-461.01 1147.35,-467.93"/>
</g>
<!-- Node15&#45;&gt;Node17 -->
<g id="edge16" class="edge">
<title>Node15&#45;&gt;Node17</title>
<path fill="none" stroke="midnightblue" d="M1112.77,-438.18C1125.7,-436.83 1139.17,-435.43 1152.35,-434.06"/>
<polygon fill="midnightblue" stroke="midnightblue" points="1152.78,-437.53 1162.36,-433.01 1152.05,-430.57 1152.78,-437.53"/>
</g>
<!-- Node18 -->
<g id="node18" class="node">
<title>Node18</title>
<g id="a_node18"><a xlink:href="classQuantConnect_1_1Symbol.html#a59b0795fa21f46c306deb5576fa03bb9" target="_top" xlink:title="Centralized helper method to resolve alias for a symbol">
<polygon fill="white" stroke="black" points="1368,-415 1368,-434 1538,-434 1538,-415 1368,-415"/>
<text text-anchor="middle" x="1453" y="-422" font-family="Helvetica,sans-Serif" font-size="10.00">QuantConnect.Symbol.GetAlias</text>
</a>
</g>
</g>
<!-- Node17&#45;&gt;Node18 -->
<g id="edge17" class="edge">
<title>Node17&#45;&gt;Node18</title>
<path fill="none" stroke="midnightblue" d="M1327.71,-424.5C1337.47,-424.5 1347.49,-424.5 1357.4,-424.5"/>
<polygon fill="midnightblue" stroke="midnightblue" points="1357.68,-428 1367.68,-424.5 1357.68,-421 1357.68,-428"/>
</g>
<!-- Node19 -->
<g id="node19" class="node">
<title>Node19</title>
<g id="a_node19"><a xlink:href="classQuantConnect_1_1SymbolRepresentation.html#ad43ac907f6c19083821f58f21c6de017" target="_top" xlink:title="Returns future symbol ticker from underlying and expiration date. Function can generate tickers of tw...">
<polygon fill="white" stroke="black" points="1574,-437.5 1574,-467.5 1777,-467.5 1777,-437.5 1574,-437.5"/>
<text text-anchor="start" x="1582" y="-455.5" font-family="Helvetica,sans-Serif" font-size="10.00">QuantConnect.SymbolRepresentation.</text>
<text text-anchor="middle" x="1675.5" y="-444.5" font-family="Helvetica,sans-Serif" font-size="10.00">GenerateFutureTicker</text>
</a>
</g>
</g>
<!-- Node18&#45;&gt;Node19 -->
<g id="edge18" class="edge">
<title>Node18&#45;&gt;Node19</title>
<path fill="none" stroke="midnightblue" d="M1528.96,-434.02C1540.27,-435.46 1552.14,-436.96 1564.01,-438.47"/>
<polygon fill="midnightblue" stroke="midnightblue" points="1563.62,-441.95 1573.98,-439.74 1564.5,-435 1563.62,-441.95"/>
</g>
<!-- Node21 -->
<g id="node21" class="node">
<title>Node21</title>
<g id="a_node21"><a xlink:href="classQuantConnect_1_1SymbolRepresentation.html#ab133044f5cf8c16e700190a2202b215e" target="_top" xlink:title="Returns option symbol ticker in accordance with OSI symbology More information can be found at http:/...">
<polygon fill="white" stroke="black" points="1574,-385.5 1574,-415.5 1777,-415.5 1777,-385.5 1574,-385.5"/>
<text text-anchor="start" x="1582" y="-403.5" font-family="Helvetica,sans-Serif" font-size="10.00">QuantConnect.SymbolRepresentation.</text>
<text text-anchor="middle" x="1675.5" y="-392.5" font-family="Helvetica,sans-Serif" font-size="10.00">GenerateOptionTickerOSI</text>
</a>
</g>
</g>
<!-- Node18&#45;&gt;Node21 -->
<g id="edge20" class="edge">
<title>Node18&#45;&gt;Node21</title>
<path fill="none" stroke="midnightblue" d="M1538.31,-415.32C1546.69,-414.41 1555.3,-413.47 1563.9,-412.54"/>
<polygon fill="midnightblue" stroke="midnightblue" points="1564.43,-416 1573.99,-411.44 1563.67,-409.04 1564.43,-416"/>
</g>
<!-- Node20 -->
<g id="node20" class="node">
<title>Node20</title>
<g id="a_node20"><a xlink:href="classQuantConnect_1_1Securities_1_1Future_1_1FuturesExpiryUtilityFunctions.html#a4ccb1e2f2fe40ff09785a74a02f26df1" target="_top" xlink:title="Gets the number of months between the contract month and the expiry date.">
<polygon fill="white" stroke="black" points="1813,-435 1813,-476 2079,-476 2079,-435 1813,-435"/>
<text text-anchor="start" x="1821" y="-464" font-family="Helvetica,sans-Serif" font-size="10.00">QuantConnect.Securities.</text>
<text text-anchor="start" x="1821" y="-453" font-family="Helvetica,sans-Serif" font-size="10.00">Future.FuturesExpiryUtilityFunctions.</text>
<text text-anchor="middle" x="1946" y="-442" font-family="Helvetica,sans-Serif" font-size="10.00">GetDeltaBetweenContractMonthAndContractExpiry</text>
</a>
</g>
</g>
<!-- Node19&#45;&gt;Node20 -->
<g id="edge19" class="edge">
<title>Node19&#45;&gt;Node20</title>
<path fill="none" stroke="midnightblue" d="M1777.24,-453.63C1785.59,-453.72 1794.11,-453.81 1802.68,-453.91"/>
<polygon fill="midnightblue" stroke="midnightblue" points="1802.72,-457.41 1812.76,-454.02 1802.8,-450.41 1802.72,-457.41"/>
</g>
<!-- Node22 -->
<g id="node22" class="node">
<title>Node22</title>
<g id="a_node22"><a xlink:href="classQuantConnect_1_1Messages_1_1SymbolRepresentation.html#a2c514157d8055cfa271ea3a7ca1ccde7" target="_top" xlink:title="Returns a string message saying an unexpected security type was received by the given method name">
<polygon fill="white" stroke="black" points="1850,-375 1850,-416 2042,-416 2042,-375 1850,-375"/>
<text text-anchor="start" x="1858" y="-404" font-family="Helvetica,sans-Serif" font-size="10.00">QuantConnect.Messages.Symbol</text>
<text text-anchor="start" x="1858" y="-393" font-family="Helvetica,sans-Serif" font-size="10.00">Representation.UnexpectedSecurity</text>
<text text-anchor="middle" x="1946" y="-382" font-family="Helvetica,sans-Serif" font-size="10.00">TypeForMethod</text>
</a>
</g>
</g>
<!-- Node21&#45;&gt;Node22 -->
<g id="edge21" class="edge">
<title>Node21&#45;&gt;Node22</title>
<path fill="none" stroke="midnightblue" d="M1777.24,-398.62C1797.7,-398.24 1819.27,-397.84 1839.88,-397.46"/>
<polygon fill="midnightblue" stroke="midnightblue" points="1839.98,-400.96 1849.91,-397.27 1839.85,-393.96 1839.98,-400.96"/>
</g>
<!-- Node24 -->
<g id="node24" class="node">
<title>Node24</title>
<g id="a_node24"><a xlink:href="classQuantConnect_1_1SecurityIdentifier.html#a19e1f9da410608020d74ed9e7d283575" target="_top" xlink:title="Generates the Symbol property for QuantConnect.SecurityType.Base security identifiers">
<polygon fill="white" stroke="black" points="1158,-343.5 1158,-373.5 1332,-373.5 1332,-343.5 1158,-343.5"/>
<text text-anchor="start" x="1166" y="-361.5" font-family="Helvetica,sans-Serif" font-size="10.00">QuantConnect.SecurityIdentifier.</text>
<text text-anchor="middle" x="1245" y="-350.5" font-family="Helvetica,sans-Serif" font-size="10.00">GenerateBaseSymbol</text>
</a>
</g>
</g>
<!-- Node23&#45;&gt;Node24 -->
<g id="edge23" class="edge">
<title>Node23&#45;&gt;Node24</title>
<path fill="none" stroke="midnightblue" d="M1119.13,-358.5C1128.5,-358.5 1138.08,-358.5 1147.57,-358.5"/>
<polygon fill="midnightblue" stroke="midnightblue" points="1147.81,-362 1157.81,-358.5 1147.81,-355 1147.81,-362"/>
</g>
</g>
</svg>
