<?xml version="1.0" encoding="UTF-8" standalone="no"?>
<!DOCTYPE svg PUBLIC "-//W3C//DTD SVG 1.1//EN"
 "http://www.w3.org/Graphics/SVG/1.1/DTD/svg11.dtd">
<!-- Generated by graphviz version 2.43.0 (0)
 -->
<!-- Title: QuantConnect.Algorithm.QCAlgorithm.GetDataTypedHistory&lt; T &gt; Pages: 1 -->
<svg width="460pt" height="127pt"
 viewBox="0.00 0.00 460.00 126.50" xmlns="http://www.w3.org/2000/svg" xmlns:xlink="http://www.w3.org/1999/xlink">
<g id="graph0" class="graph" transform="scale(1 1) rotate(0) translate(4 122.5)">
<title>QuantConnect.Algorithm.QCAlgorithm.GetDataTypedHistory&lt; T &gt;</title>
<polygon fill="white" stroke="transparent" points="-4,4 -4,-122.5 456,-122.5 456,4 -4,4"/>
<!-- Node1 -->
<g id="node1" class="node">
<title>Node1</title>
<g id="a_node1"><a xlink:title="Centralized logic to get data typed history for a given list of requests.">
<polygon fill="#bfbfbf" stroke="black" points="0,-39 0,-69 205,-69 205,-39 0,-39"/>
<text text-anchor="start" x="8" y="-57" font-family="Helvetica,sans-Serif" font-size="10.00">QuantConnect.Algorithm.QCAlgorithm.</text>
<text text-anchor="middle" x="102.5" y="-46" font-family="Helvetica,sans-Serif" font-size="10.00">GetDataTypedHistory&lt; T &gt;</text>
</a>
</g>
</g>
<!-- Node2 -->
<g id="node2" class="node">
<title>Node2</title>
<g id="a_node2"><a xlink:href="classQuantConnect_1_1Algorithm_1_1QCAlgorithm.html#a16bd52d937ab647c889e8d5f6577f744" target="_top" xlink:title="Send a debug message to the web console:">
<polygon fill="white" stroke="black" points="244,-88 244,-118 449,-118 449,-88 244,-88"/>
<text text-anchor="start" x="252" y="-106" font-family="Helvetica,sans-Serif" font-size="10.00">QuantConnect.Algorithm.QCAlgorithm.</text>
<text text-anchor="middle" x="346.5" y="-95" font-family="Helvetica,sans-Serif" font-size="10.00">Debug</text>
</a>
</g>
</g>
<!-- Node1&#45;&gt;Node2 -->
<g id="edge1" class="edge">
<title>Node1&#45;&gt;Node2</title>
<path fill="none" stroke="midnightblue" d="M177.75,-69.03C204.23,-74.4 234.24,-80.47 261.49,-85.99"/>
<polygon fill="midnightblue" stroke="midnightblue" points="260.89,-89.44 271.39,-87.99 262.28,-82.58 260.89,-89.44"/>
</g>
<!-- Node3 -->
<g id="node3" class="node">
<title>Node3</title>
<g id="a_node3"><a xlink:href="classQuantConnect_1_1Algorithm_1_1QCAlgorithm.html#a446a10e68319fdc3c0b2ed85d80f55f8" target="_top" xlink:title="Get the history for all configured securities over the requested span. This will use the resolution a...">
<polygon fill="white" stroke="black" points="244,-39 244,-69 449,-69 449,-39 244,-39"/>
<text text-anchor="start" x="252" y="-57" font-family="Helvetica,sans-Serif" font-size="10.00">QuantConnect.Algorithm.QCAlgorithm.</text>
<text text-anchor="middle" x="346.5" y="-46" font-family="Helvetica,sans-Serif" font-size="10.00">History</text>
</a>
</g>
</g>
<!-- Node1&#45;&gt;Node3 -->
<g id="edge2" class="edge">
<title>Node1&#45;&gt;Node3</title>
<path fill="none" stroke="midnightblue" d="M205.08,-54C214.48,-54 224.05,-54 233.54,-54"/>
<polygon fill="midnightblue" stroke="midnightblue" points="233.79,-57.5 243.79,-54 233.79,-50.5 233.79,-57.5"/>
</g>
<!-- Node4 -->
<g id="node4" class="node">
<title>Node4</title>
<g id="a_node4"><a xlink:href="classQuantConnect_1_1Algorithm_1_1QCAlgorithm.html#a47eae84c2f0b8e98dbc61b555b645865" target="_top" xlink:title="Creates a new Theta indicator for the symbol The indicator will be automatically updated on the symbo...">
<polygon fill="white" stroke="black" points="241,-0.5 241,-19.5 452,-19.5 452,-0.5 241,-0.5"/>
<text text-anchor="middle" x="346.5" y="-7.5" font-family="Helvetica,sans-Serif" font-size="10.00">QuantConnect.Algorithm.QCAlgorithm.T</text>
</a>
</g>
</g>
<!-- Node1&#45;&gt;Node4 -->
<g id="edge3" class="edge">
<title>Node1&#45;&gt;Node4</title>
<path fill="none" stroke="midnightblue" d="M186.11,-38.98C217.83,-33.21 253.48,-26.73 283.01,-21.36"/>
<polygon fill="midnightblue" stroke="midnightblue" points="283.97,-24.74 293.18,-19.51 282.72,-17.86 283.97,-24.74"/>
</g>
</g>
</svg>
