<?xml version="1.0" encoding="UTF-8" standalone="no"?>
<!DOCTYPE svg PUBLIC "-//W3C//DTD SVG 1.1//EN"
 "http://www.w3.org/Graphics/SVG/1.1/DTD/svg11.dtd">
<!-- Generated by graphviz version 2.43.0 (0)
 -->
<!-- Title: QuantConnect.Orders.Fees.AlphaStreamsFeeModel.GetOrderFee Pages: 1 -->
<svg width="438pt" height="100pt"
 viewBox="0.00 0.00 438.00 99.50" xmlns="http://www.w3.org/2000/svg" xmlns:xlink="http://www.w3.org/1999/xlink">
<g id="graph0" class="graph" transform="scale(1 1) rotate(0) translate(4 95.5)">
<title>QuantConnect.Orders.Fees.AlphaStreamsFeeModel.GetOrderFee</title>
<polygon fill="white" stroke="transparent" points="-4,4 -4,-95.5 434,-95.5 434,4 -4,4"/>
<!-- Node1 -->
<g id="node1" class="node">
<title>Node1</title>
<g id="a_node1"><a xlink:title="Gets the order fee associated with the specified order. This returns the cost of the transaction in t...">
<polygon fill="#bfbfbf" stroke="black" points="0,-27.5 0,-57.5 197,-57.5 197,-27.5 0,-27.5"/>
<text text-anchor="start" x="8" y="-45.5" font-family="Helvetica,sans-Serif" font-size="10.00">QuantConnect.Orders.Fees.</text>
<text text-anchor="middle" x="98.5" y="-34.5" font-family="Helvetica,sans-Serif" font-size="10.00">AlphaStreamsFeeModel.GetOrderFee</text>
</a>
</g>
</g>
<!-- Node2 -->
<g id="node2" class="node">
<title>Node2</title>
<g id="a_node2"><a xlink:href="classQuantConnect_1_1Messages_1_1AlphaStreamsFeeModel.html#ab9b7c79b39c775534137c99412c23252" target="_top" xlink:title="Returns a string message saying the given market is unexpected">
<polygon fill="white" stroke="black" points="233,-50 233,-91 430,-91 430,-50 233,-50"/>
<text text-anchor="start" x="241" y="-79" font-family="Helvetica,sans-Serif" font-size="10.00">QuantConnect.Messages.Alpha</text>
<text text-anchor="start" x="241" y="-68" font-family="Helvetica,sans-Serif" font-size="10.00">StreamsFeeModel.UnexpectedEquity</text>
<text text-anchor="middle" x="331.5" y="-57" font-family="Helvetica,sans-Serif" font-size="10.00">Market</text>
</a>
</g>
</g>
<!-- Node1&#45;&gt;Node2 -->
<g id="edge1" class="edge">
<title>Node1&#45;&gt;Node2</title>
<path fill="none" stroke="midnightblue" d="M197.13,-54.33C205.63,-55.36 214.25,-56.41 222.83,-57.45"/>
<polygon fill="midnightblue" stroke="midnightblue" points="222.5,-60.93 232.85,-58.66 223.34,-53.99 222.5,-60.93"/>
</g>
<!-- Node3 -->
<g id="node3" class="node">
<title>Node3</title>
<g id="a_node3"><a xlink:href="classQuantConnect_1_1Messages_1_1FeeModel.html#a72db7d0812a3cb2351eeb5ee7e9d7dc0" target="_top" xlink:title="Returns a string message saying the type of the given security is unsupported">
<polygon fill="white" stroke="black" points="244.5,-0.5 244.5,-30.5 418.5,-30.5 418.5,-0.5 244.5,-0.5"/>
<text text-anchor="start" x="252.5" y="-18.5" font-family="Helvetica,sans-Serif" font-size="10.00">QuantConnect.Messages.Fee</text>
<text text-anchor="middle" x="331.5" y="-7.5" font-family="Helvetica,sans-Serif" font-size="10.00">Model.UnsupportedSecurityType</text>
</a>
</g>
</g>
<!-- Node1&#45;&gt;Node3 -->
<g id="edge2" class="edge">
<title>Node1&#45;&gt;Node3</title>
<path fill="none" stroke="midnightblue" d="M197.13,-31.09C209.35,-29.66 221.84,-28.2 234.04,-26.77"/>
<polygon fill="midnightblue" stroke="midnightblue" points="234.68,-30.22 244.2,-25.59 233.87,-23.27 234.68,-30.22"/>
</g>
</g>
</svg>
