<?xml version="1.0" encoding="UTF-8" standalone="no"?>
<!DOCTYPE svg PUBLIC "-//W3C//DTD SVG 1.1//EN"
 "http://www.w3.org/Graphics/SVG/1.1/DTD/svg11.dtd">
<!-- Generated by graphviz version 2.43.0 (0)
 -->
<!-- Title: QuantConnect.Securities.SecurityExchangeHours.GetNextTradingDay Pages: 1 -->
<svg width="420pt" height="149pt"
 viewBox="0.00 0.00 420.00 148.50" xmlns="http://www.w3.org/2000/svg" xmlns:xlink="http://www.w3.org/1999/xlink">
<g id="graph0" class="graph" transform="scale(1 1) rotate(0) translate(4 144.5)">
<title>QuantConnect.Securities.SecurityExchangeHours.GetNextTradingDay</title>
<polygon fill="white" stroke="transparent" points="-4,4 -4,-144.5 416,-144.5 416,4 -4,4"/>
<!-- Node1 -->
<g id="node1" class="node">
<title>Node1</title>
<g id="a_node1"><a xlink:title="Gets the next trading day">
<polygon fill="#bfbfbf" stroke="black" points="236,-44 236,-85 412,-85 412,-44 236,-44"/>
<text text-anchor="start" x="244" y="-73" font-family="Helvetica,sans-Serif" font-size="10.00">QuantConnect.Securities.</text>
<text text-anchor="start" x="244" y="-62" font-family="Helvetica,sans-Serif" font-size="10.00">SecurityExchangeHours.GetNext</text>
<text text-anchor="middle" x="324" y="-51" font-family="Helvetica,sans-Serif" font-size="10.00">TradingDay</text>
</a>
</g>
</g>
<!-- Node2 -->
<g id="node2" class="node">
<title>Node2</title>
<g id="a_node2"><a xlink:href="classQuantConnect_1_1Securities_1_1OptionFilterUniverse.html#a6b904ddd36b8b48bd39fee778ad67d5c" target="_top" xlink:title="Adjusts the date to the next trading day if the current date is not a trading day,...">
<polygon fill="white" stroke="black" points="0,-99 0,-140 200,-140 200,-99 0,-99"/>
<text text-anchor="start" x="8" y="-128" font-family="Helvetica,sans-Serif" font-size="10.00">QuantConnect.Securities.</text>
<text text-anchor="start" x="8" y="-117" font-family="Helvetica,sans-Serif" font-size="10.00">OptionFilterUniverse.AdjustExpiration</text>
<text text-anchor="middle" x="100" y="-106" font-family="Helvetica,sans-Serif" font-size="10.00">ReferenceDate</text>
</a>
</g>
</g>
<!-- Node1&#45;&gt;Node2 -->
<g id="edge1" class="edge">
<title>Node1&#45;&gt;Node2</title>
<path fill="none" stroke="midnightblue" d="M230.03,-87.53C214.72,-91.33 198.93,-95.24 183.88,-98.97"/>
<polygon fill="midnightblue" stroke="midnightblue" points="231.15,-90.86 240.02,-85.06 229.47,-84.07 231.15,-90.86"/>
</g>
<!-- Node3 -->
<g id="node3" class="node">
<title>Node3</title>
<g id="a_node3"><a xlink:href="classQuantConnect_1_1Data_1_1Auxiliary_1_1CorporateFactorRow.html#a3b2d4a4697bccb9066186effb98be9cd" target="_top" xlink:title="Creates a new dividend from this factor file row and the one chronologically in front of it This divi...">
<polygon fill="white" stroke="black" points="11,-49.5 11,-79.5 189,-79.5 189,-49.5 11,-49.5"/>
<text text-anchor="start" x="19" y="-67.5" font-family="Helvetica,sans-Serif" font-size="10.00">QuantConnect.Data.Auxiliary.</text>
<text text-anchor="middle" x="100" y="-56.5" font-family="Helvetica,sans-Serif" font-size="10.00">CorporateFactorRow.GetDividend</text>
</a>
</g>
</g>
<!-- Node1&#45;&gt;Node3 -->
<g id="edge2" class="edge">
<title>Node1&#45;&gt;Node3</title>
<path fill="none" stroke="midnightblue" d="M225.77,-64.5C213.65,-64.5 201.29,-64.5 189.31,-64.5"/>
<polygon fill="midnightblue" stroke="midnightblue" points="225.9,-68 235.9,-64.5 225.9,-61 225.9,-68"/>
</g>
<!-- Node4 -->
<g id="node4" class="node">
<title>Node4</title>
<g id="a_node4"><a xlink:href="classQuantConnect_1_1Data_1_1Auxiliary_1_1CorporateFactorRow.html#aa2adcb1cdf2ab4ad45af09d961677fe8" target="_top" xlink:title="Creates a new split from this factor file row and the one chronologically in front of it This split m...">
<polygon fill="white" stroke="black" points="20,-0.5 20,-30.5 180,-30.5 180,-0.5 20,-0.5"/>
<text text-anchor="start" x="28" y="-18.5" font-family="Helvetica,sans-Serif" font-size="10.00">QuantConnect.Data.Auxiliary.</text>
<text text-anchor="middle" x="100" y="-7.5" font-family="Helvetica,sans-Serif" font-size="10.00">CorporateFactorRow.GetSplit</text>
</a>
</g>
</g>
<!-- Node1&#45;&gt;Node4 -->
<g id="edge3" class="edge">
<title>Node1&#45;&gt;Node4</title>
<path fill="none" stroke="midnightblue" d="M225.92,-43.07C206.72,-38.84 186.96,-34.47 168.98,-30.5"/>
<polygon fill="midnightblue" stroke="midnightblue" points="225.38,-46.54 235.9,-45.27 226.89,-39.7 225.38,-46.54"/>
</g>
</g>
</svg>
