<?xml version="1.0" encoding="UTF-8" standalone="no"?>
<!DOCTYPE svg PUBLIC "-//W3C//DTD SVG 1.1//EN"
 "http://www.w3.org/Graphics/SVG/1.1/DTD/svg11.dtd">
<!-- Generated by graphviz version 2.43.0 (0)
 -->
<!-- Title: QuantConnect.Python.BenchmarkPythonWrapper Pages: 1 -->
<svg width="226pt" height="106pt"
 viewBox="0.00 0.00 225.50 106.00" xmlns="http://www.w3.org/2000/svg" xmlns:xlink="http://www.w3.org/1999/xlink">
<g id="graph0" class="graph" transform="scale(1 1) rotate(0) translate(4 102)">
<title>QuantConnect.Python.BenchmarkPythonWrapper</title>
<polygon fill="white" stroke="transparent" points="-4,4 -4,-102 221.5,-102 221.5,4 -4,4"/>
<!-- Node1 -->
<g id="node1" class="node">
<title>Node1</title>
<g id="a_node1"><a xlink:title="Provides an implementation of IBenchmark that wraps a PyObject object">
<polygon fill="#bfbfbf" stroke="black" points="30.5,-0.5 30.5,-30.5 211.5,-30.5 211.5,-0.5 30.5,-0.5"/>
<text text-anchor="start" x="38.5" y="-18.5" font-family="Helvetica,sans-Serif" font-size="10.00">QuantConnect.Python.Benchmark</text>
<text text-anchor="middle" x="121" y="-7.5" font-family="Helvetica,sans-Serif" font-size="10.00">PythonWrapper</text>
</a>
</g>
</g>
<!-- Node2 -->
<g id="node2" class="node">
<title>Node2</title>
<g id="a_node2"><a xlink:href="classQuantConnect_1_1Python_1_1BasePythonWrapper.html" target="_top" xlink:title=" ">
<polygon fill="white" stroke="black" points="0,-67.5 0,-97.5 124,-97.5 124,-67.5 0,-67.5"/>
<text text-anchor="start" x="8" y="-85.5" font-family="Helvetica,sans-Serif" font-size="10.00">BasePythonWrapper&lt;</text>
<text text-anchor="middle" x="62" y="-74.5" font-family="Helvetica,sans-Serif" font-size="10.00"> IBenchmark &gt;</text>
</a>
</g>
</g>
<!-- Node2&#45;&gt;Node1 -->
<g id="edge1" class="edge">
<title>Node2&#45;&gt;Node1</title>
<path fill="none" stroke="midnightblue" d="M81.75,-59.74C90.48,-50.12 100.5,-39.09 108.22,-30.58"/>
<polygon fill="midnightblue" stroke="midnightblue" points="78.93,-57.64 74.8,-67.4 84.11,-62.34 78.93,-57.64"/>
</g>
<!-- Node3 -->
<g id="node3" class="node">
<title>Node3</title>
<g id="a_node3"><a xlink:href="interfaceQuantConnect_1_1Benchmarks_1_1IBenchmark.html" target="_top" xlink:title="Specifies how to compute a benchmark for an algorithm">
<polygon fill="white" stroke="black" points="142.5,-73 142.5,-92 217.5,-92 217.5,-73 142.5,-73"/>
<text text-anchor="middle" x="180" y="-80" font-family="Helvetica,sans-Serif" font-size="10.00">IBenchmark</text>
</a>
</g>
</g>
<!-- Node3&#45;&gt;Node1 -->
<g id="edge2" class="edge">
<title>Node3&#45;&gt;Node1</title>
<path fill="none" stroke="midnightblue" d="M165.3,-65.3C155.61,-54.63 143.06,-40.8 133.79,-30.59"/>
<polygon fill="midnightblue" stroke="midnightblue" points="162.73,-67.68 172.04,-72.73 167.91,-62.98 162.73,-67.68"/>
</g>
</g>
</svg>
