<?xml version="1.0" encoding="UTF-8" standalone="no"?>
<!DOCTYPE svg PUBLIC "-//W3C//DTD SVG 1.1//EN"
 "http://www.w3.org/Graphics/SVG/1.1/DTD/svg11.dtd">
<!-- Generated by graphviz version 2.43.0 (0)
 -->
<!-- Title: QuantConnect.Api.BaseLiveAlgorithm Pages: 1 -->
<svg width="649pt" height="88pt"
 viewBox="0.00 0.00 649.00 88.00" xmlns="http://www.w3.org/2000/svg" xmlns:xlink="http://www.w3.org/1999/xlink">
<g id="graph0" class="graph" transform="scale(1 1) rotate(0) translate(4 84)">
<title>QuantConnect.Api.BaseLiveAlgorithm</title>
<polygon fill="white" stroke="transparent" points="-4,4 -4,-84 645,-84 645,4 -4,4"/>
<!-- Node1 -->
<g id="node1" class="node">
<title>Node1</title>
<g id="a_node1"><a xlink:title="Class representing the REST response from QC API when creating or reading a live algorithm">
<polygon fill="#bfbfbf" stroke="black" points="277,-24.5 277,-54.5 429,-54.5 429,-24.5 277,-24.5"/>
<text text-anchor="start" x="285" y="-42.5" font-family="Helvetica,sans-Serif" font-size="10.00">QuantConnect.Api.BaseLive</text>
<text text-anchor="middle" x="353" y="-31.5" font-family="Helvetica,sans-Serif" font-size="10.00">Algorithm</text>
</a>
</g>
</g>
<!-- Node4 -->
<g id="node4" class="node">
<title>Node4</title>
<g id="a_node4"><a xlink:href="classQuantConnect_1_1Api_1_1CreateLiveAlgorithmResponse.html" target="_top" xlink:title="Class representing the REST response from QC API when creating a live algorithm">
<polygon fill="white" stroke="black" points="473,-49.5 473,-79.5 633,-79.5 633,-49.5 473,-49.5"/>
<text text-anchor="start" x="481" y="-67.5" font-family="Helvetica,sans-Serif" font-size="10.00">QuantConnect.Api.CreateLive</text>
<text text-anchor="middle" x="553" y="-56.5" font-family="Helvetica,sans-Serif" font-size="10.00">AlgorithmResponse</text>
</a>
</g>
</g>
<!-- Node1&#45;&gt;Node4 -->
<g id="edge3" class="edge">
<title>Node1&#45;&gt;Node4</title>
<path fill="none" stroke="midnightblue" d="M439.31,-50.27C450.49,-51.68 461.9,-53.12 472.96,-54.52"/>
<polygon fill="midnightblue" stroke="midnightblue" points="439.5,-46.77 429.14,-48.99 438.62,-53.71 439.5,-46.77"/>
</g>
<!-- Node5 -->
<g id="node5" class="node">
<title>Node5</title>
<g id="a_node5"><a xlink:href="classQuantConnect_1_1Api_1_1LiveAlgorithmSummary.html" target="_top" xlink:title="Response from List Live Algorithms request to QuantConnect Rest API.">
<polygon fill="white" stroke="black" points="465,-0.5 465,-30.5 641,-30.5 641,-0.5 465,-0.5"/>
<text text-anchor="start" x="473" y="-18.5" font-family="Helvetica,sans-Serif" font-size="10.00">QuantConnect.Api.LiveAlgorithm</text>
<text text-anchor="middle" x="553" y="-7.5" font-family="Helvetica,sans-Serif" font-size="10.00">Summary</text>
</a>
</g>
</g>
<!-- Node1&#45;&gt;Node5 -->
<g id="edge4" class="edge">
<title>Node1&#45;&gt;Node5</title>
<path fill="none" stroke="midnightblue" d="M439.11,-29.18C447.68,-28.15 456.38,-27.09 464.97,-26.05"/>
<polygon fill="midnightblue" stroke="midnightblue" points="438.64,-25.71 429.14,-30.39 439.49,-32.66 438.64,-25.71"/>
</g>
<!-- Node2 -->
<g id="node2" class="node">
<title>Node2</title>
<g id="a_node2"><a xlink:href="classQuantConnect_1_1Api_1_1RestResponse.html" target="_top" xlink:title="Base API response class for the QuantConnect API.">
<polygon fill="white" stroke="black" points="155,-30 155,-49 241,-49 241,-30 155,-30"/>
<text text-anchor="middle" x="198" y="-37" font-family="Helvetica,sans-Serif" font-size="10.00">RestResponse</text>
</a>
</g>
</g>
<!-- Node2&#45;&gt;Node1 -->
<g id="edge1" class="edge">
<title>Node2&#45;&gt;Node1</title>
<path fill="none" stroke="midnightblue" d="M251.35,-39.5C259.55,-39.5 268.16,-39.5 276.75,-39.5"/>
<polygon fill="midnightblue" stroke="midnightblue" points="251.21,-36 241.21,-39.5 251.21,-43 251.21,-36"/>
</g>
<!-- Node3 -->
<g id="node3" class="node">
<title>Node3</title>
<g id="a_node3"><a xlink:href="classQuantConnect_1_1Api_1_1StringRepresentation.html" target="_top" xlink:title="Class to return the string representation of an API response class">
<polygon fill="white" stroke="black" points="0,-30 0,-49 119,-49 119,-30 0,-30"/>
<text text-anchor="middle" x="59.5" y="-37" font-family="Helvetica,sans-Serif" font-size="10.00">StringRepresentation</text>
</a>
</g>
</g>
<!-- Node3&#45;&gt;Node2 -->
<g id="edge2" class="edge">
<title>Node3&#45;&gt;Node2</title>
<path fill="none" stroke="midnightblue" d="M129.36,-39.5C138.06,-39.5 146.74,-39.5 154.85,-39.5"/>
<polygon fill="midnightblue" stroke="midnightblue" points="129.18,-36 119.18,-39.5 129.18,-43 129.18,-36"/>
</g>
</g>
</svg>
