<?xml version="1.0" encoding="UTF-8" standalone="no"?>
<!DOCTYPE svg PUBLIC "-//W3C//DTD SVG 1.1//EN"
 "http://www.w3.org/Graphics/SVG/1.1/DTD/svg11.dtd">
<!-- Generated by graphviz version 2.43.0 (0)
 -->
<!-- Title: QuantConnect.Securities.Option.OptionStrategies.CallCalendarSpread Pages: 1 -->
<svg width="573pt" height="105pt"
 viewBox="0.00 0.00 573.00 105.00" xmlns="http://www.w3.org/2000/svg" xmlns:xlink="http://www.w3.org/1999/xlink">
<g id="graph0" class="graph" transform="scale(1 1) rotate(0) translate(4 101)">
<title>QuantConnect.Securities.Option.OptionStrategies.CallCalendarSpread</title>
<polygon fill="white" stroke="transparent" points="-4,4 -4,-101 569,-101 569,4 -4,4"/>
<!-- Node1 -->
<g id="node1" class="node">
<title>Node1</title>
<g id="a_node1"><a xlink:title="Creates new Call Calendar Spread strategy which consists of a short and a long call with the same str...">
<polygon fill="#bfbfbf" stroke="black" points="410,-27.5 410,-68.5 565,-68.5 565,-27.5 410,-27.5"/>
<text text-anchor="start" x="418" y="-56.5" font-family="Helvetica,sans-Serif" font-size="10.00">QuantConnect.Securities.</text>
<text text-anchor="start" x="418" y="-45.5" font-family="Helvetica,sans-Serif" font-size="10.00">Option.OptionStrategies.Call</text>
<text text-anchor="middle" x="487.5" y="-34.5" font-family="Helvetica,sans-Serif" font-size="10.00">CalendarSpread</text>
</a>
</g>
</g>
<!-- Node2 -->
<g id="node2" class="node">
<title>Node2</title>
<g id="a_node2"><a xlink:href="classQuantConnect_1_1Securities_1_1Option_1_1OptionStrategies.html#aea9734281dbee8dff88bb0d66cb613d3" target="_top" xlink:title="Creates new Jelly Roll strategy which combines a long call calendar spread and a short put calendar s...">
<polygon fill="white" stroke="black" points="198,-61 198,-91 374,-91 374,-61 198,-61"/>
<text text-anchor="start" x="206" y="-79" font-family="Helvetica,sans-Serif" font-size="10.00">QuantConnect.Securities.</text>
<text text-anchor="middle" x="286" y="-68" font-family="Helvetica,sans-Serif" font-size="10.00">Option.OptionStrategies.JellyRoll</text>
</a>
</g>
</g>
<!-- Node1&#45;&gt;Node2 -->
<g id="edge1" class="edge">
<title>Node1&#45;&gt;Node2</title>
<path fill="none" stroke="midnightblue" d="M399.93,-60.15C391.33,-61.36 382.6,-62.58 374,-63.79"/>
<polygon fill="midnightblue" stroke="midnightblue" points="400.52,-63.6 409.94,-58.75 399.55,-56.67 400.52,-63.6"/>
</g>
<!-- Node4 -->
<g id="node4" class="node">
<title>Node4</title>
<g id="a_node4"><a xlink:href="classQuantConnect_1_1Securities_1_1Option_1_1OptionStrategies.html#a76bb630bf12109af8361b27b643b0a8b" target="_top" xlink:title="Creates new Short Call Calendar Spread strategy which consists of a short and a long call with the sa...">
<polygon fill="white" stroke="black" points="205,-0.5 205,-41.5 367,-41.5 367,-0.5 205,-0.5"/>
<text text-anchor="start" x="213" y="-29.5" font-family="Helvetica,sans-Serif" font-size="10.00">QuantConnect.Securities.</text>
<text text-anchor="start" x="213" y="-18.5" font-family="Helvetica,sans-Serif" font-size="10.00">Option.OptionStrategies.Short</text>
<text text-anchor="middle" x="286" y="-7.5" font-family="Helvetica,sans-Serif" font-size="10.00">CallCalendarSpread</text>
</a>
</g>
</g>
<!-- Node1&#45;&gt;Node4 -->
<g id="edge3" class="edge">
<title>Node1&#45;&gt;Node4</title>
<path fill="none" stroke="midnightblue" d="M399.7,-36.25C388.94,-34.8 377.98,-33.31 367.33,-31.87"/>
<polygon fill="midnightblue" stroke="midnightblue" points="399.56,-39.77 409.94,-37.64 400.5,-32.83 399.56,-39.77"/>
</g>
<!-- Node3 -->
<g id="node3" class="node">
<title>Node3</title>
<g id="a_node3"><a xlink:href="classQuantConnect_1_1Securities_1_1Option_1_1OptionStrategies.html#aeca4904d4ac08fdf672bb6a1e4af778b" target="_top" xlink:title="Creates new Short Jelly Roll strategy which combines a long call calendar spread and a short put cale...">
<polygon fill="white" stroke="black" points="0,-55.5 0,-96.5 162,-96.5 162,-55.5 0,-55.5"/>
<text text-anchor="start" x="8" y="-84.5" font-family="Helvetica,sans-Serif" font-size="10.00">QuantConnect.Securities.</text>
<text text-anchor="start" x="8" y="-73.5" font-family="Helvetica,sans-Serif" font-size="10.00">Option.OptionStrategies.Short</text>
<text text-anchor="middle" x="81" y="-62.5" font-family="Helvetica,sans-Serif" font-size="10.00">JellyRoll</text>
</a>
</g>
</g>
<!-- Node2&#45;&gt;Node3 -->
<g id="edge2" class="edge">
<title>Node2&#45;&gt;Node3</title>
<path fill="none" stroke="midnightblue" d="M187.71,-76C179.15,-76 170.54,-76 162.14,-76"/>
<polygon fill="midnightblue" stroke="midnightblue" points="187.73,-79.5 197.73,-76 187.73,-72.5 187.73,-79.5"/>
</g>
</g>
</svg>
