<?xml version="1.0" encoding="UTF-8" standalone="no"?>
<!DOCTYPE svg PUBLIC "-//W3C//DTD SVG 1.1//EN"
 "http://www.w3.org/Graphics/SVG/1.1/DTD/svg11.dtd">
<!-- Generated by graphviz version 2.43.0 (0)
 -->
<!-- Title: QuantConnect.Brokerages.DefaultBrokerageModel.GetBenchmark Pages: 1 -->
<svg width="1652pt" height="627pt"
 viewBox="0.00 0.00 1652.00 626.88" xmlns="http://www.w3.org/2000/svg" xmlns:xlink="http://www.w3.org/1999/xlink">
<g id="graph0" class="graph" transform="scale(1 1) rotate(0) translate(4 622.88)">
<title>QuantConnect.Brokerages.DefaultBrokerageModel.GetBenchmark</title>
<polygon fill="white" stroke="transparent" points="-4,4 -4,-622.88 1648,-622.88 1648,4 -4,4"/>
<!-- Node1 -->
<g id="node1" class="node">
<title>Node1</title>
<g id="a_node1"><a xlink:title="Get the benchmark for this model">
<polygon fill="#bfbfbf" stroke="black" points="0,-180.5 0,-210.5 208,-210.5 208,-180.5 0,-180.5"/>
<text text-anchor="start" x="8" y="-198.5" font-family="Helvetica,sans-Serif" font-size="10.00">QuantConnect.Brokerages.</text>
<text text-anchor="middle" x="104" y="-187.5" font-family="Helvetica,sans-Serif" font-size="10.00">DefaultBrokerageModel.GetBenchmark</text>
</a>
</g>
</g>
<!-- Node2 -->
<g id="node2" class="node">
<title>Node2</title>
<g id="a_node2"><a xlink:href="classQuantConnect_1_1Symbol.html#a350b9a625cf7bad95da82894be3cd0a8" target="_top" xlink:title="Provides a convenience method for creating a Symbol for most security types. This method currently do...">
<polygon fill="white" stroke="black" points="257.5,-336 257.5,-355 418.5,-355 418.5,-336 257.5,-336"/>
<text text-anchor="middle" x="338" y="-343" font-family="Helvetica,sans-Serif" font-size="10.00">QuantConnect.Symbol.Create</text>
</a>
</g>
</g>
<!-- Node1&#45;&gt;Node2 -->
<g id="edge1" class="edge">
<title>Node1&#45;&gt;Node2</title>
<path fill="none" stroke="midnightblue" d="M128.52,-210.71C173.05,-239.5 269.15,-301.63 313.59,-330.36"/>
<polygon fill="midnightblue" stroke="midnightblue" points="311.95,-333.47 322.25,-335.96 315.75,-327.6 311.95,-333.47"/>
</g>
<!-- Node20 -->
<g id="node20" class="node">
<title>Node20</title>
<g id="a_node20"><a xlink:href="classQuantConnect_1_1Benchmarks_1_1SecurityBenchmark.html#a40c97e12584a0fc70ffb48f9aead3287" target="_top" xlink:title="Helper function that will create a security with the given SecurityManager for a specific symbol and ...">
<polygon fill="white" stroke="black" points="244,-55.5 244,-85.5 432,-85.5 432,-55.5 244,-55.5"/>
<text text-anchor="start" x="252" y="-73.5" font-family="Helvetica,sans-Serif" font-size="10.00">QuantConnect.Benchmarks.</text>
<text text-anchor="middle" x="338" y="-62.5" font-family="Helvetica,sans-Serif" font-size="10.00">SecurityBenchmark.CreateInstance</text>
</a>
</g>
</g>
<!-- Node1&#45;&gt;Node20 -->
<g id="edge21" class="edge">
<title>Node1&#45;&gt;Node20</title>
<path fill="none" stroke="midnightblue" d="M132.98,-180.42C174.79,-157.9 253.59,-115.44 300.07,-90.4"/>
<polygon fill="midnightblue" stroke="midnightblue" points="301.77,-93.46 308.92,-85.63 298.45,-87.29 301.77,-93.46"/>
</g>
<!-- Node3 -->
<g id="node3" class="node">
<title>Node3</title>
<g id="a_node3"><a xlink:href="classQuantConnect_1_1Symbol.html#a7518a1932d1babbff128f2ba9666a78b" target="_top" xlink:title="Provides a convenience method for creating an option Symbol.">
<polygon fill="white" stroke="black" points="492.5,-541.5 492.5,-571.5 653.5,-571.5 653.5,-541.5 492.5,-541.5"/>
<text text-anchor="start" x="500.5" y="-559.5" font-family="Helvetica,sans-Serif" font-size="10.00">QuantConnect.Symbol.Create</text>
<text text-anchor="middle" x="573" y="-548.5" font-family="Helvetica,sans-Serif" font-size="10.00">Option</text>
</a>
</g>
</g>
<!-- Node2&#45;&gt;Node3 -->
<g id="edge2" class="edge">
<title>Node2&#45;&gt;Node3</title>
<path fill="none" stroke="midnightblue" d="M343.02,-355.08C356.16,-385.24 400.93,-479 468,-526.5 473.96,-530.72 480.5,-534.35 487.32,-537.47"/>
<polygon fill="midnightblue" stroke="midnightblue" points="486.17,-540.78 496.75,-541.42 488.88,-534.33 486.17,-540.78"/>
</g>
<!-- Node4 -->
<g id="node4" class="node">
<title>Node4</title>
<g id="a_node4"><a xlink:href="classQuantConnect_1_1SecurityIdentifier.html#a0c21d7880c9fdd260883d11ea0c99a00" target="_top" xlink:title="Helper overload that will search the mapfiles to resolve the first date. This implementation uses the...">
<polygon fill="white" stroke="black" points="718.5,-574.5 718.5,-604.5 892.5,-604.5 892.5,-574.5 718.5,-574.5"/>
<text text-anchor="start" x="726.5" y="-592.5" font-family="Helvetica,sans-Serif" font-size="10.00">QuantConnect.SecurityIdentifier.</text>
<text text-anchor="middle" x="805.5" y="-581.5" font-family="Helvetica,sans-Serif" font-size="10.00">GenerateEquity</text>
</a>
</g>
</g>
<!-- Node2&#45;&gt;Node4 -->
<g id="edge15" class="edge">
<title>Node2&#45;&gt;Node4</title>
<path fill="none" stroke="midnightblue" d="M340.73,-355.02C348.06,-392.18 380.27,-528.05 468,-581.5 549.74,-631.3 664.64,-620.65 736.8,-606.51"/>
<polygon fill="midnightblue" stroke="midnightblue" points="737.59,-609.93 746.69,-604.5 736.19,-603.07 737.59,-609.93"/>
</g>
<!-- Node5 -->
<g id="node5" class="node">
<title>Node5</title>
<g id="a_node5"><a xlink:href="classQuantConnect_1_1Symbol.html#a59158f74116be3dad0ea0f3f3f134416" target="_top" xlink:title="Initializes a new instance of the Symbol class">
<polygon fill="white" stroke="black" points="723,-514 723,-533 888,-533 888,-514 723,-514"/>
<text text-anchor="middle" x="805.5" y="-521" font-family="Helvetica,sans-Serif" font-size="10.00">QuantConnect.Symbol.Symbol</text>
</a>
</g>
</g>
<!-- Node2&#45;&gt;Node5 -->
<g id="edge20" class="edge">
<title>Node2&#45;&gt;Node5</title>
<path fill="none" stroke="midnightblue" d="M344.03,-355.36C358.71,-382.98 404.53,-461.15 468,-493.5 509.3,-514.55 627.9,-521.04 712.59,-522.93"/>
<polygon fill="midnightblue" stroke="midnightblue" points="712.67,-526.43 722.74,-523.14 712.81,-519.43 712.67,-526.43"/>
</g>
<!-- Node11 -->
<g id="node11" class="node">
<title>Node11</title>
<g id="a_node11"><a xlink:href="classQuantConnect_1_1SecurityIdentifier.html#a02ca750115844561c001c2346fbafc00" target="_top" xlink:title="Generates a new SecurityIdentifier for a custom security with the option of providing the first date">
<polygon fill="white" stroke="black" points="486,-453.5 486,-483.5 660,-483.5 660,-453.5 486,-453.5"/>
<text text-anchor="start" x="494" y="-471.5" font-family="Helvetica,sans-Serif" font-size="10.00">QuantConnect.SecurityIdentifier.</text>
<text text-anchor="middle" x="573" y="-460.5" font-family="Helvetica,sans-Serif" font-size="10.00">GenerateBase</text>
</a>
</g>
</g>
<!-- Node2&#45;&gt;Node11 -->
<g id="edge10" class="edge">
<title>Node2&#45;&gt;Node11</title>
<path fill="none" stroke="midnightblue" d="M348.38,-355.07C368.42,-374.94 417.7,-420.78 468,-444.5 472.33,-446.54 476.84,-448.42 481.46,-450.13"/>
<polygon fill="midnightblue" stroke="midnightblue" points="480.46,-453.49 491.06,-453.45 482.75,-446.88 480.46,-453.49"/>
</g>
<!-- Node13 -->
<g id="node13" class="node">
<title>Node13</title>
<g id="a_node13"><a xlink:href="classQuantConnect_1_1SecurityIdentifier.html#a53953b18d814c5445e4ecdcb3b555080" target="_top" xlink:title="Generates a new SecurityIdentifier for a CFD security">
<polygon fill="white" stroke="black" points="486,-404.5 486,-434.5 660,-434.5 660,-404.5 486,-404.5"/>
<text text-anchor="start" x="494" y="-422.5" font-family="Helvetica,sans-Serif" font-size="10.00">QuantConnect.SecurityIdentifier.</text>
<text text-anchor="middle" x="573" y="-411.5" font-family="Helvetica,sans-Serif" font-size="10.00">GenerateCfd</text>
</a>
</g>
</g>
<!-- Node2&#45;&gt;Node13 -->
<g id="edge12" class="edge">
<title>Node2&#45;&gt;Node13</title>
<path fill="none" stroke="midnightblue" d="M361.03,-355.15C386.44,-366.03 429.66,-383.71 468,-395.5 475.35,-397.76 483.04,-399.92 490.79,-401.95"/>
<polygon fill="midnightblue" stroke="midnightblue" points="490.04,-405.37 500.59,-404.44 491.77,-398.58 490.04,-405.37"/>
</g>
<!-- Node14 -->
<g id="node14" class="node">
<title>Node14</title>
<g id="a_node14"><a xlink:href="classQuantConnect_1_1SecurityIdentifier.html#a5889a95a36ce927dd0a109cbfbcbe663" target="_top" xlink:title="Generates a new SecurityIdentifier for a Crypto pair">
<polygon fill="white" stroke="black" points="486,-355.5 486,-385.5 660,-385.5 660,-355.5 486,-355.5"/>
<text text-anchor="start" x="494" y="-373.5" font-family="Helvetica,sans-Serif" font-size="10.00">QuantConnect.SecurityIdentifier.</text>
<text text-anchor="middle" x="573" y="-362.5" font-family="Helvetica,sans-Serif" font-size="10.00">GenerateCrypto</text>
</a>
</g>
</g>
<!-- Node2&#45;&gt;Node14 -->
<g id="edge13" class="edge">
<title>Node2&#45;&gt;Node14</title>
<path fill="none" stroke="midnightblue" d="M418.53,-354.03C436.86,-356 456.55,-358.11 475.51,-360.15"/>
<polygon fill="midnightblue" stroke="midnightblue" points="475.33,-363.65 485.65,-361.23 476.08,-356.69 475.33,-363.65"/>
</g>
<!-- Node15 -->
<g id="node15" class="node">
<title>Node15</title>
<g id="a_node15"><a xlink:href="classQuantConnect_1_1SecurityIdentifier.html#ac665665a16d5449872fed3427b95a260" target="_top" xlink:title="Generates a new SecurityIdentifier for a CryptoFuture pair">
<polygon fill="white" stroke="black" points="486,-306.5 486,-336.5 660,-336.5 660,-306.5 486,-306.5"/>
<text text-anchor="start" x="494" y="-324.5" font-family="Helvetica,sans-Serif" font-size="10.00">QuantConnect.SecurityIdentifier.</text>
<text text-anchor="middle" x="573" y="-313.5" font-family="Helvetica,sans-Serif" font-size="10.00">GenerateCryptoFuture</text>
</a>
</g>
</g>
<!-- Node2&#45;&gt;Node15 -->
<g id="edge14" class="edge">
<title>Node2&#45;&gt;Node15</title>
<path fill="none" stroke="midnightblue" d="M418.53,-337.31C436.86,-335.42 456.55,-333.39 475.51,-331.44"/>
<polygon fill="midnightblue" stroke="midnightblue" points="476.06,-334.9 485.65,-330.39 475.34,-327.94 476.06,-334.9"/>
</g>
<!-- Node16 -->
<g id="node16" class="node">
<title>Node16</title>
<g id="a_node16"><a xlink:href="classQuantConnect_1_1SecurityIdentifier.html#a9cf0d3b208a5171e6112516ce441f18d" target="_top" xlink:title="Generates a new SecurityIdentifier for a forex pair">
<polygon fill="white" stroke="black" points="486,-257.5 486,-287.5 660,-287.5 660,-257.5 486,-257.5"/>
<text text-anchor="start" x="494" y="-275.5" font-family="Helvetica,sans-Serif" font-size="10.00">QuantConnect.SecurityIdentifier.</text>
<text text-anchor="middle" x="573" y="-264.5" font-family="Helvetica,sans-Serif" font-size="10.00">GenerateForex</text>
</a>
</g>
</g>
<!-- Node2&#45;&gt;Node16 -->
<g id="edge16" class="edge">
<title>Node2&#45;&gt;Node16</title>
<path fill="none" stroke="midnightblue" d="M362.02,-335.98C387.6,-325.62 430.29,-309 468,-297.5 476.54,-294.89 485.55,-292.38 494.54,-290.03"/>
<polygon fill="midnightblue" stroke="midnightblue" points="495.45,-293.41 504.27,-287.53 493.71,-286.63 495.45,-293.41"/>
</g>
<!-- Node17 -->
<g id="node17" class="node">
<title>Node17</title>
<g id="a_node17"><a xlink:href="classQuantConnect_1_1SecurityIdentifier.html#ad50a891c97cb0c084a9e2aa43607ed66" target="_top" xlink:title="Generates a new SecurityIdentifier for a future">
<polygon fill="white" stroke="black" points="486,-208.5 486,-238.5 660,-238.5 660,-208.5 486,-208.5"/>
<text text-anchor="start" x="494" y="-226.5" font-family="Helvetica,sans-Serif" font-size="10.00">QuantConnect.SecurityIdentifier.</text>
<text text-anchor="middle" x="573" y="-215.5" font-family="Helvetica,sans-Serif" font-size="10.00">GenerateFuture</text>
</a>
</g>
</g>
<!-- Node2&#45;&gt;Node17 -->
<g id="edge17" class="edge">
<title>Node2&#45;&gt;Node17</title>
<path fill="none" stroke="midnightblue" d="M348.75,-335.87C369.09,-316.33 418.32,-271.91 468,-248.5 473.22,-246.04 478.7,-243.81 484.31,-241.79"/>
<polygon fill="midnightblue" stroke="midnightblue" points="485.48,-245.09 493.84,-238.58 483.25,-238.45 485.48,-245.09"/>
</g>
<!-- Node18 -->
<g id="node18" class="node">
<title>Node18</title>
<g id="a_node18"><a xlink:href="classQuantConnect_1_1SecurityIdentifier.html#ade05a8e57b041ab484cf585be8d05699" target="_top" xlink:title="Generates a new SecurityIdentifier for a INDEX security">
<polygon fill="white" stroke="black" points="486,-159.5 486,-189.5 660,-189.5 660,-159.5 486,-159.5"/>
<text text-anchor="start" x="494" y="-177.5" font-family="Helvetica,sans-Serif" font-size="10.00">QuantConnect.SecurityIdentifier.</text>
<text text-anchor="middle" x="573" y="-166.5" font-family="Helvetica,sans-Serif" font-size="10.00">GenerateIndex</text>
</a>
</g>
</g>
<!-- Node2&#45;&gt;Node18 -->
<g id="edge18" class="edge">
<title>Node2&#45;&gt;Node18</title>
<path fill="none" stroke="midnightblue" d="M344.55,-335.85C360.23,-309.48 407.71,-235.76 468,-199.5 471.63,-197.32 475.43,-195.33 479.35,-193.51"/>
<polygon fill="midnightblue" stroke="midnightblue" points="480.83,-196.69 488.69,-189.58 478.11,-190.24 480.83,-196.69"/>
</g>
<!-- Node19 -->
<g id="node19" class="node">
<title>Node19</title>
<g id="a_node19"><a xlink:href="classQuantConnect_1_1Messages_1_1Symbol.html#ab801bef52a308b8ba7ba6d42e1ef1988" target="_top" xlink:title="Returns a string message saying the given security type has not been implemented yet">
<polygon fill="white" stroke="black" points="483,-110.5 483,-140.5 663,-140.5 663,-110.5 483,-110.5"/>
<text text-anchor="start" x="491" y="-128.5" font-family="Helvetica,sans-Serif" font-size="10.00">QuantConnect.Messages.Symbol.</text>
<text text-anchor="middle" x="573" y="-117.5" font-family="Helvetica,sans-Serif" font-size="10.00">SecurityTypeNotImplementedYet</text>
</a>
</g>
</g>
<!-- Node2&#45;&gt;Node19 -->
<g id="edge19" class="edge">
<title>Node2&#45;&gt;Node19</title>
<path fill="none" stroke="midnightblue" d="M342.37,-335.95C354.12,-304.08 396.52,-200.58 468,-150.5 470.86,-148.49 473.87,-146.65 476.97,-144.95"/>
<polygon fill="midnightblue" stroke="midnightblue" points="478.54,-148.08 485.98,-140.54 475.46,-141.79 478.54,-148.08"/>
</g>
<!-- Node3&#45;&gt;Node4 -->
<g id="edge3" class="edge">
<title>Node3&#45;&gt;Node4</title>
<path fill="none" stroke="midnightblue" d="M653.65,-567.9C671.21,-570.42 690.01,-573.11 708.15,-575.71"/>
<polygon fill="midnightblue" stroke="midnightblue" points="707.76,-579.19 718.16,-577.14 708.76,-572.26 707.76,-579.19"/>
</g>
<!-- Node3&#45;&gt;Node5 -->
<g id="edge4" class="edge">
<title>Node3&#45;&gt;Node5</title>
<path fill="none" stroke="midnightblue" d="M653.65,-545.1C677.67,-541.66 703.99,-537.89 727.81,-534.48"/>
<polygon fill="midnightblue" stroke="midnightblue" points="728.46,-537.92 737.86,-533.04 727.46,-530.99 728.46,-537.92"/>
</g>
<!-- Node6 -->
<g id="node6" class="node">
<title>Node6</title>
<g id="a_node6"><a xlink:href="classQuantConnect_1_1Symbol.html#a59b0795fa21f46c306deb5576fa03bb9" target="_top" xlink:title="Centralized helper method to resolve alias for a symbol">
<polygon fill="white" stroke="black" points="933,-514 933,-533 1103,-533 1103,-514 933,-514"/>
<text text-anchor="middle" x="1018" y="-521" font-family="Helvetica,sans-Serif" font-size="10.00">QuantConnect.Symbol.GetAlias</text>
</a>
</g>
</g>
<!-- Node5&#45;&gt;Node6 -->
<g id="edge5" class="edge">
<title>Node5&#45;&gt;Node6</title>
<path fill="none" stroke="midnightblue" d="M888.19,-523.5C899.54,-523.5 911.27,-523.5 922.83,-523.5"/>
<polygon fill="midnightblue" stroke="midnightblue" points="922.93,-527 932.93,-523.5 922.93,-520 922.93,-527"/>
</g>
<!-- Node7 -->
<g id="node7" class="node">
<title>Node7</title>
<g id="a_node7"><a xlink:href="classQuantConnect_1_1SymbolRepresentation.html#ad43ac907f6c19083821f58f21c6de017" target="_top" xlink:title="Returns future symbol ticker from underlying and expiration date. Function can generate tickers of tw...">
<polygon fill="white" stroke="black" points="1139,-536.5 1139,-566.5 1342,-566.5 1342,-536.5 1139,-536.5"/>
<text text-anchor="start" x="1147" y="-554.5" font-family="Helvetica,sans-Serif" font-size="10.00">QuantConnect.SymbolRepresentation.</text>
<text text-anchor="middle" x="1240.5" y="-543.5" font-family="Helvetica,sans-Serif" font-size="10.00">GenerateFutureTicker</text>
</a>
</g>
</g>
<!-- Node6&#45;&gt;Node7 -->
<g id="edge6" class="edge">
<title>Node6&#45;&gt;Node7</title>
<path fill="none" stroke="midnightblue" d="M1093.96,-533.02C1105.27,-534.46 1117.14,-535.96 1129.01,-537.47"/>
<polygon fill="midnightblue" stroke="midnightblue" points="1128.62,-540.95 1138.98,-538.74 1129.5,-534 1128.62,-540.95"/>
</g>
<!-- Node9 -->
<g id="node9" class="node">
<title>Node9</title>
<g id="a_node9"><a xlink:href="classQuantConnect_1_1SymbolRepresentation.html#ab133044f5cf8c16e700190a2202b215e" target="_top" xlink:title="Returns option symbol ticker in accordance with OSI symbology More information can be found at http:/...">
<polygon fill="white" stroke="black" points="1139,-484.5 1139,-514.5 1342,-514.5 1342,-484.5 1139,-484.5"/>
<text text-anchor="start" x="1147" y="-502.5" font-family="Helvetica,sans-Serif" font-size="10.00">QuantConnect.SymbolRepresentation.</text>
<text text-anchor="middle" x="1240.5" y="-491.5" font-family="Helvetica,sans-Serif" font-size="10.00">GenerateOptionTickerOSI</text>
</a>
</g>
</g>
<!-- Node6&#45;&gt;Node9 -->
<g id="edge8" class="edge">
<title>Node6&#45;&gt;Node9</title>
<path fill="none" stroke="midnightblue" d="M1103.31,-514.32C1111.69,-513.41 1120.3,-512.47 1128.9,-511.54"/>
<polygon fill="midnightblue" stroke="midnightblue" points="1129.43,-515 1138.99,-510.44 1128.67,-508.04 1129.43,-515"/>
</g>
<!-- Node8 -->
<g id="node8" class="node">
<title>Node8</title>
<g id="a_node8"><a xlink:href="classQuantConnect_1_1Securities_1_1Future_1_1FuturesExpiryUtilityFunctions.html#a4ccb1e2f2fe40ff09785a74a02f26df1" target="_top" xlink:title="Gets the number of months between the contract month and the expiry date.">
<polygon fill="white" stroke="black" points="1378,-534 1378,-575 1644,-575 1644,-534 1378,-534"/>
<text text-anchor="start" x="1386" y="-563" font-family="Helvetica,sans-Serif" font-size="10.00">QuantConnect.Securities.</text>
<text text-anchor="start" x="1386" y="-552" font-family="Helvetica,sans-Serif" font-size="10.00">Future.FuturesExpiryUtilityFunctions.</text>
<text text-anchor="middle" x="1511" y="-541" font-family="Helvetica,sans-Serif" font-size="10.00">GetDeltaBetweenContractMonthAndContractExpiry</text>
</a>
</g>
</g>
<!-- Node7&#45;&gt;Node8 -->
<g id="edge7" class="edge">
<title>Node7&#45;&gt;Node8</title>
<path fill="none" stroke="midnightblue" d="M1342.24,-552.63C1350.59,-552.72 1359.11,-552.81 1367.68,-552.91"/>
<polygon fill="midnightblue" stroke="midnightblue" points="1367.72,-556.41 1377.76,-553.02 1367.8,-549.41 1367.72,-556.41"/>
</g>
<!-- Node10 -->
<g id="node10" class="node">
<title>Node10</title>
<g id="a_node10"><a xlink:href="classQuantConnect_1_1Messages_1_1SymbolRepresentation.html#a2c514157d8055cfa271ea3a7ca1ccde7" target="_top" xlink:title="Returns a string message saying an unexpected security type was received by the given method name">
<polygon fill="white" stroke="black" points="1415,-474 1415,-515 1607,-515 1607,-474 1415,-474"/>
<text text-anchor="start" x="1423" y="-503" font-family="Helvetica,sans-Serif" font-size="10.00">QuantConnect.Messages.Symbol</text>
<text text-anchor="start" x="1423" y="-492" font-family="Helvetica,sans-Serif" font-size="10.00">Representation.UnexpectedSecurity</text>
<text text-anchor="middle" x="1511" y="-481" font-family="Helvetica,sans-Serif" font-size="10.00">TypeForMethod</text>
</a>
</g>
</g>
<!-- Node9&#45;&gt;Node10 -->
<g id="edge9" class="edge">
<title>Node9&#45;&gt;Node10</title>
<path fill="none" stroke="midnightblue" d="M1342.24,-497.62C1362.7,-497.24 1384.27,-496.84 1404.88,-496.46"/>
<polygon fill="midnightblue" stroke="midnightblue" points="1404.98,-499.96 1414.91,-496.27 1404.85,-492.96 1404.98,-499.96"/>
</g>
<!-- Node12 -->
<g id="node12" class="node">
<title>Node12</title>
<g id="a_node12"><a xlink:href="classQuantConnect_1_1SecurityIdentifier.html#a19e1f9da410608020d74ed9e7d283575" target="_top" xlink:title="Generates the Symbol property for QuantConnect.SecurityType.Base security identifiers">
<polygon fill="white" stroke="black" points="718.5,-453.5 718.5,-483.5 892.5,-483.5 892.5,-453.5 718.5,-453.5"/>
<text text-anchor="start" x="726.5" y="-471.5" font-family="Helvetica,sans-Serif" font-size="10.00">QuantConnect.SecurityIdentifier.</text>
<text text-anchor="middle" x="805.5" y="-460.5" font-family="Helvetica,sans-Serif" font-size="10.00">GenerateBaseSymbol</text>
</a>
</g>
</g>
<!-- Node11&#45;&gt;Node12 -->
<g id="edge11" class="edge">
<title>Node11&#45;&gt;Node12</title>
<path fill="none" stroke="midnightblue" d="M660.16,-468.5C675.79,-468.5 692.18,-468.5 708.08,-468.5"/>
<polygon fill="midnightblue" stroke="midnightblue" points="708.45,-472 718.45,-468.5 708.45,-465 708.45,-472"/>
</g>
<!-- Node21 -->
<g id="node21" class="node">
<title>Node21</title>
<g id="a_node21"><a xlink:href="classQuantConnect_1_1Securities_1_1SecurityManager.html#a3ac388b31cf00c501b738b751427b883" target="_top" xlink:title="Creates a new benchmark security">
<polygon fill="white" stroke="black" points="478.5,-50 478.5,-91 667.5,-91 667.5,-50 478.5,-50"/>
<text text-anchor="start" x="486.5" y="-79" font-family="Helvetica,sans-Serif" font-size="10.00">QuantConnect.Securities.</text>
<text text-anchor="start" x="486.5" y="-68" font-family="Helvetica,sans-Serif" font-size="10.00">SecurityManager.CreateBenchmark</text>
<text text-anchor="middle" x="573" y="-57" font-family="Helvetica,sans-Serif" font-size="10.00">Security</text>
</a>
</g>
</g>
<!-- Node20&#45;&gt;Node21 -->
<g id="edge22" class="edge">
<title>Node20&#45;&gt;Node21</title>
<path fill="none" stroke="midnightblue" d="M432.09,-70.5C443.98,-70.5 456.2,-70.5 468.24,-70.5"/>
<polygon fill="midnightblue" stroke="midnightblue" points="468.29,-74 478.29,-70.5 468.29,-67 468.29,-74"/>
</g>
<!-- Node23 -->
<g id="node23" class="node">
<title>Node23</title>
<g id="a_node23"><a xlink:href="classQuantConnect_1_1Benchmarks_1_1SecurityBenchmark.html#a45a12b43bac87b210770258630e56622" target="_top" xlink:title="Initializes a new instance of the SecurityBenchmark class">
<polygon fill="white" stroke="black" points="468,-0.5 468,-30.5 678,-30.5 678,-0.5 468,-0.5"/>
<text text-anchor="start" x="476" y="-18.5" font-family="Helvetica,sans-Serif" font-size="10.00">QuantConnect.Benchmarks.</text>
<text text-anchor="middle" x="573" y="-7.5" font-family="Helvetica,sans-Serif" font-size="10.00">SecurityBenchmark.SecurityBenchmark</text>
</a>
</g>
</g>
<!-- Node20&#45;&gt;Node23 -->
<g id="edge24" class="edge">
<title>Node20&#45;&gt;Node23</title>
<path fill="none" stroke="midnightblue" d="M402.67,-55.47C432.33,-48.47 467.8,-40.1 498.59,-32.83"/>
<polygon fill="midnightblue" stroke="midnightblue" points="499.48,-36.21 508.41,-30.51 497.87,-29.4 499.48,-36.21"/>
</g>
<!-- Node22 -->
<g id="node22" class="node">
<title>Node22</title>
<g id="a_node22"><a xlink:href="classQuantConnect_1_1Securities_1_1SecurityService.html#aa449d8886d5728a00e44b9aea24ad036" target="_top" xlink:title="Creates a new security">
<polygon fill="white" stroke="black" points="714,-50 714,-91 897,-91 897,-50 714,-50"/>
<text text-anchor="start" x="722" y="-79" font-family="Helvetica,sans-Serif" font-size="10.00">QuantConnect.Securities.</text>
<text text-anchor="start" x="722" y="-68" font-family="Helvetica,sans-Serif" font-size="10.00">SecurityService.CreateBenchmark</text>
<text text-anchor="middle" x="805.5" y="-57" font-family="Helvetica,sans-Serif" font-size="10.00">Security</text>
</a>
</g>
</g>
<!-- Node21&#45;&gt;Node22 -->
<g id="edge23" class="edge">
<title>Node21&#45;&gt;Node22</title>
<path fill="none" stroke="midnightblue" d="M667.75,-70.5C679.63,-70.5 691.83,-70.5 703.81,-70.5"/>
<polygon fill="midnightblue" stroke="midnightblue" points="703.81,-74 713.81,-70.5 703.81,-67 703.81,-74"/>
</g>
</g>
</svg>
