<?xml version="1.0" encoding="UTF-8" standalone="no"?>
<!DOCTYPE svg PUBLIC "-//W3C//DTD SVG 1.1//EN"
 "http://www.w3.org/Graphics/SVG/1.1/DTD/svg11.dtd">
<!-- Generated by graphviz version 2.43.0 (0)
 -->
<!-- Title: QuantConnect.Securities.MarketHoursDatabase.GetEntry Pages: 1 -->
<!--zoomable 319 -->
<svg id="main" version="1.1" xmlns="http://www.w3.org/2000/svg" xmlns:xlink="http://www.w3.org/1999/xlink" xml:space="preserve" onload="init(evt)">
<style type="text/css"><![CDATA[
.edge:hover path { stroke: red; }
.edge:hover polygon { stroke: red; fill: red; }
]]></style>
<script type="text/javascript"><![CDATA[
var edges = document.getElementsByTagName('g');
if (edges && edges.length) {
  for (var i=0;i<edges.length;i++) {
    if (edges[i].id.substr(0,4)=='edge') {
      edges[i].setAttribute('class','edge');
    }
  }
}
]]></script>
        <defs>
                <circle id="rim" cx="0" cy="0" r="7"/>
                <circle id="rim2" cx="0" cy="0" r="3.5"/>
                <g id="zoomPlus">
                        <use xlink:href="#rim" fill="#404040">
                                <set attributeName="fill" to="#808080" begin="zoomplus.mouseover" end="zoomplus.mouseout"/>
                        </use>
                        <path d="M-4,0h8M0,-4v8" fill="none" stroke="white" stroke-width="1.5" pointer-events="none"/>
                </g>
                <g id="zoomMin">
                        <use xlink:href="#rim" fill="#404040">
                                <set attributeName="fill" to="#808080" begin="zoomminus.mouseover" end="zoomminus.mouseout"/>
                        </use>
                        <path d="M-4,0h8" fill="none" stroke="white" stroke-width="1.5" pointer-events="none"/>
                </g>
                <g id="dirArrow">
                        <path fill="none" stroke="white" stroke-width="1.5" d="M0,-3.0v7 M-2.5,-0.5L0,-3.0L2.5,-0.5"/>
                </g>
               <g id="resetDef">
                       <use xlink:href="#rim2" fill="#404040">
                               <set attributeName="fill" to="#808080" begin="reset.mouseover" end="reset.mouseout"/>
                       </use>
               </g>
        </defs>

<script type="text/javascript">
var viewWidth = 876;
var viewHeight = 319;
var sectionId = 'dynsection-10';
</script>
<script xlink:href="svgpan.js"/>
<svg id="graph" class="graph">
<g id="viewport">
<title>QuantConnect.Securities.MarketHoursDatabase.GetEntry</title>
<polygon fill="white" stroke="transparent" points="-4,4 -4,-314.5 872,-314.5 872,4 -4,4"/>
<!-- Node1 -->
<g id="node1" class="node">
<title>Node1</title>
<g id="a_node1"><a xlink:title="Gets the entry for the specified market/symbol/security&#45;type">
<polygon fill="#bfbfbf" stroke="black" points="0,-146 0,-176 171,-176 171,-146 0,-146"/>
<text text-anchor="start" x="8" y="-164" font-family="Helvetica,sans-Serif" font-size="10.00">QuantConnect.Securities.</text>
<text text-anchor="middle" x="85.5" y="-153" font-family="Helvetica,sans-Serif" font-size="10.00">MarketHoursDatabase.GetEntry</text>
</a>
</g>
</g>
<!-- Node2 -->
<g id="node2" class="node">
<title>Node2</title>
<g id="a_node2"><a xlink:href="classQuantConnect_1_1Logging_1_1Log.html#af0e7955911bc7664b37661b2a303a9e3" target="_top" xlink:title="Log error">
<polygon fill="white" stroke="black" points="240.5,-280 240.5,-310 390.5,-310 390.5,-280 240.5,-280"/>
<text text-anchor="start" x="248.5" y="-298" font-family="Helvetica,sans-Serif" font-size="10.00">QuantConnect.Logging.Log.</text>
<text text-anchor="middle" x="315.5" y="-287" font-family="Helvetica,sans-Serif" font-size="10.00">Error</text>
</a>
</g>
</g>
<!-- Node1&#45;&gt;Node2 -->
<g id="edge1" class="edge">
<title>Node1&#45;&gt;Node2</title>
<path fill="none" stroke="midnightblue" d="M98.44,-176.11C118.29,-200.14 160.51,-246.81 207,-271 214.44,-274.87 222.48,-278.12 230.7,-280.84"/>
<polygon fill="midnightblue" stroke="midnightblue" points="229.83,-284.24 240.41,-283.81 231.87,-277.54 229.83,-284.24"/>
</g>
<!-- Node4 -->
<g id="node4" class="node">
<title>Node4</title>
<g id="a_node4"><a xlink:href="classQuantConnect_1_1Messages_1_1MarketHoursDatabase.html#af07138844a7ebc1a342f8b56a6be9917" target="_top" xlink:title="Returns a string message saying it was impossible to locate exchange hours for the given key....">
<polygon fill="white" stroke="black" points="207,-231 207,-261 424,-261 424,-231 207,-231"/>
<text text-anchor="start" x="215" y="-249" font-family="Helvetica,sans-Serif" font-size="10.00">QuantConnect.Messages.Market</text>
<text text-anchor="middle" x="315.5" y="-238" font-family="Helvetica,sans-Serif" font-size="10.00">HoursDatabase.ExchangeHoursNotFound</text>
</a>
</g>
</g>
<!-- Node1&#45;&gt;Node4 -->
<g id="edge3" class="edge">
<title>Node1&#45;&gt;Node4</title>
<path fill="none" stroke="midnightblue" d="M112.52,-176.18C136.41,-189.58 173.13,-208.82 207,-221 214.29,-223.62 221.96,-226.04 229.7,-228.25"/>
<polygon fill="midnightblue" stroke="midnightblue" points="228.96,-231.68 239.53,-230.94 230.81,-224.93 228.96,-231.68"/>
</g>
<!-- Node5 -->
<g id="node5" class="node">
<title>Node5</title>
<g id="a_node5"><a xlink:href="classQuantConnect_1_1Securities_1_1SymbolPropertiesDatabase.html#aee26fb588793fd311c44eb8b2909cc33" target="_top" xlink:title="Gets the instance of the SymbolPropertiesDatabase class produced by reading in the symbol properties ...">
<polygon fill="white" stroke="black" points="227,-170.5 227,-211.5 404,-211.5 404,-170.5 227,-170.5"/>
<text text-anchor="start" x="235" y="-199.5" font-family="Helvetica,sans-Serif" font-size="10.00">QuantConnect.Securities.</text>
<text text-anchor="start" x="235" y="-188.5" font-family="Helvetica,sans-Serif" font-size="10.00">SymbolPropertiesDatabase.From</text>
<text text-anchor="middle" x="315.5" y="-177.5" font-family="Helvetica,sans-Serif" font-size="10.00">DataFolder</text>
</a>
</g>
</g>
<!-- Node1&#45;&gt;Node5 -->
<g id="edge4" class="edge">
<title>Node1&#45;&gt;Node5</title>
<path fill="none" stroke="midnightblue" d="M171.07,-172.13C185.8,-174.07 201.23,-176.1 216.28,-178.08"/>
<polygon fill="midnightblue" stroke="midnightblue" points="216.26,-181.6 226.63,-179.44 217.17,-174.66 216.26,-181.6"/>
</g>
<!-- Node9 -->
<g id="node9" class="node">
<title>Node9</title>
<g id="a_node9"><a xlink:href="classQuantConnect_1_1Messages_1_1MarketHoursDatabase.html#a656d4c4976d6c12d2d865ad34fb23c42" target="_top" xlink:title="Returns a string message that suggests the given market based on the provided ticker">
<polygon fill="white" stroke="black" points="211,-110.5 211,-151.5 420,-151.5 420,-110.5 211,-110.5"/>
<text text-anchor="start" x="219" y="-139.5" font-family="Helvetica,sans-Serif" font-size="10.00">QuantConnect.Messages.Market</text>
<text text-anchor="start" x="219" y="-128.5" font-family="Helvetica,sans-Serif" font-size="10.00">HoursDatabase.SuggestedMarketBased</text>
<text text-anchor="middle" x="315.5" y="-117.5" font-family="Helvetica,sans-Serif" font-size="10.00">OnTicker</text>
</a>
</g>
</g>
<!-- Node1&#45;&gt;Node9 -->
<g id="edge8" class="edge">
<title>Node1&#45;&gt;Node9</title>
<path fill="none" stroke="midnightblue" d="M171.07,-149.87C180.77,-148.6 190.77,-147.28 200.77,-145.96"/>
<polygon fill="midnightblue" stroke="midnightblue" points="201.29,-149.43 210.75,-144.65 200.38,-142.49 201.29,-149.43"/>
</g>
<!-- Node10 -->
<g id="node10" class="node">
<title>Node10</title>
<g id="a_node10"><a xlink:href="classQuantConnect_1_1Securities_1_1MarketHoursDatabase.html#a3eedd1459368e8f50da2cedfc7508006" target="_top" xlink:title="Tries to get the entry for the specified market/symbol/security&#45;type">
<polygon fill="white" stroke="black" points="223,-61 223,-91 408,-91 408,-61 223,-61"/>
<text text-anchor="start" x="231" y="-79" font-family="Helvetica,sans-Serif" font-size="10.00">QuantConnect.Securities.</text>
<text text-anchor="middle" x="315.5" y="-68" font-family="Helvetica,sans-Serif" font-size="10.00">MarketHoursDatabase.TryGetEntry</text>
</a>
</g>
</g>
<!-- Node1&#45;&gt;Node10 -->
<g id="edge9" class="edge">
<title>Node1&#45;&gt;Node10</title>
<path fill="none" stroke="midnightblue" d="M112.52,-145.82C136.41,-132.42 173.13,-113.18 207,-101 214.29,-98.38 221.96,-95.96 229.7,-93.75"/>
<polygon fill="midnightblue" stroke="midnightblue" points="230.81,-97.07 239.53,-91.06 228.96,-90.32 230.81,-97.07"/>
</g>
<!-- Node12 -->
<g id="node12" class="node">
<title>Node12</title>
<g id="a_node12"><a xlink:href="classQuantConnect_1_1Securities_1_1SymbolPropertiesDatabase.html#a5a7baeddd03bfc7fb60cef8ab2e6834b" target="_top" xlink:title="Tries to get the market for the provided symbol/security type">
<polygon fill="white" stroke="black" points="232,-0.5 232,-41.5 399,-41.5 399,-0.5 232,-0.5"/>
<text text-anchor="start" x="240" y="-29.5" font-family="Helvetica,sans-Serif" font-size="10.00">QuantConnect.Securities.</text>
<text text-anchor="start" x="240" y="-18.5" font-family="Helvetica,sans-Serif" font-size="10.00">SymbolPropertiesDatabase.Try</text>
<text text-anchor="middle" x="315.5" y="-7.5" font-family="Helvetica,sans-Serif" font-size="10.00">GetMarket</text>
</a>
</g>
</g>
<!-- Node1&#45;&gt;Node12 -->
<g id="edge11" class="edge">
<title>Node1&#45;&gt;Node12</title>
<path fill="none" stroke="midnightblue" d="M98.92,-145.79C119.11,-122.04 161.41,-76.26 207,-51 211.87,-48.3 217.01,-45.83 222.28,-43.57"/>
<polygon fill="midnightblue" stroke="midnightblue" points="223.92,-46.68 231.9,-39.72 221.32,-40.18 223.92,-46.68"/>
</g>
<!-- Node3 -->
<g id="node3" class="node">
<title>Node3</title>
<g id="a_node3"><a xlink:href="interfaceQuantConnect_1_1Logging_1_1ILogHandler.html#a35373a0c5d76031fa5ccf5dc39e5c25d" target="_top" xlink:title="Write error message to log">
<polygon fill="white" stroke="black" points="481,-280 481,-310 631,-310 631,-280 481,-280"/>
<text text-anchor="start" x="489" y="-298" font-family="Helvetica,sans-Serif" font-size="10.00">QuantConnect.Logging.ILog</text>
<text text-anchor="middle" x="556" y="-287" font-family="Helvetica,sans-Serif" font-size="10.00">Handler.Error</text>
</a>
</g>
</g>
<!-- Node2&#45;&gt;Node3 -->
<g id="edge2" class="edge">
<title>Node2&#45;&gt;Node3</title>
<path fill="none" stroke="midnightblue" d="M390.66,-295C416.01,-295 444.55,-295 470.64,-295"/>
<polygon fill="midnightblue" stroke="midnightblue" points="470.89,-298.5 480.89,-295 470.89,-291.5 470.89,-298.5"/>
</g>
<!-- Node6 -->
<g id="node6" class="node">
<title>Node6</title>
<g id="a_node6"><a xlink:href="classQuantConnect_1_1Globals.html#ae01b5c94ef475a21ab1a62fe1b04ea5c" target="_top" xlink:title="Helper method that will build a data folder path checking if it exists on the cache folder else will ...">
<polygon fill="white" stroke="black" points="483,-204 483,-234 629,-234 629,-204 483,-204"/>
<text text-anchor="start" x="491" y="-222" font-family="Helvetica,sans-Serif" font-size="10.00">QuantConnect.Globals.Get</text>
<text text-anchor="middle" x="556" y="-211" font-family="Helvetica,sans-Serif" font-size="10.00">DataFolderPath</text>
</a>
</g>
</g>
<!-- Node5&#45;&gt;Node6 -->
<g id="edge5" class="edge">
<title>Node5&#45;&gt;Node6</title>
<path fill="none" stroke="midnightblue" d="M404.29,-201.31C426.64,-203.93 450.57,-206.74 472.63,-209.33"/>
<polygon fill="midnightblue" stroke="midnightblue" points="472.29,-212.81 482.63,-210.5 473.1,-205.86 472.29,-212.81"/>
</g>
<!-- Node7 -->
<g id="node7" class="node">
<title>Node7</title>
<g id="a_node7"><a xlink:href="classQuantConnect_1_1Securities_1_1SymbolPropertiesDatabase.html#a1658f93bf0dce7022bb7584e1a95cc7a" target="_top" xlink:title="Initialize a new instance of SymbolPropertiesDatabase using the given file">
<polygon fill="white" stroke="black" points="461.5,-143.5 461.5,-184.5 650.5,-184.5 650.5,-143.5 461.5,-143.5"/>
<text text-anchor="start" x="469.5" y="-172.5" font-family="Helvetica,sans-Serif" font-size="10.00">QuantConnect.Securities.</text>
<text text-anchor="start" x="469.5" y="-161.5" font-family="Helvetica,sans-Serif" font-size="10.00">SymbolPropertiesDatabase.Symbol</text>
<text text-anchor="middle" x="556" y="-150.5" font-family="Helvetica,sans-Serif" font-size="10.00">PropertiesDatabase</text>
</a>
</g>
</g>
<!-- Node5&#45;&gt;Node7 -->
<g id="edge6" class="edge">
<title>Node5&#45;&gt;Node7</title>
<path fill="none" stroke="midnightblue" d="M404.29,-181.06C419.55,-179.33 435.54,-177.52 451.17,-175.75"/>
<polygon fill="midnightblue" stroke="midnightblue" points="451.84,-179.2 461.38,-174.6 451.05,-172.25 451.84,-179.2"/>
</g>
<!-- Node8 -->
<g id="node8" class="node">
<title>Node8</title>
<g id="a_node8"><a xlink:href="classQuantConnect_1_1Messages_1_1SymbolPropertiesDatabase.html#a6abceae517a349a28223bfc2dc9106d7" target="_top" xlink:title="Returns a string saying a duplicated key was found while processing the given file">
<polygon fill="white" stroke="black" points="688,-143.5 688,-184.5 868,-184.5 868,-143.5 688,-143.5"/>
<text text-anchor="start" x="696" y="-172.5" font-family="Helvetica,sans-Serif" font-size="10.00">QuantConnect.Messages.Symbol</text>
<text text-anchor="start" x="696" y="-161.5" font-family="Helvetica,sans-Serif" font-size="10.00">PropertiesDatabase.DuplicateKey</text>
<text text-anchor="middle" x="778" y="-150.5" font-family="Helvetica,sans-Serif" font-size="10.00">InFile</text>
</a>
</g>
</g>
<!-- Node7&#45;&gt;Node8 -->
<g id="edge7" class="edge">
<title>Node7&#45;&gt;Node8</title>
<path fill="none" stroke="midnightblue" d="M650.62,-164C659.54,-164 668.61,-164 677.58,-164"/>
<polygon fill="midnightblue" stroke="midnightblue" points="677.66,-167.5 687.66,-164 677.66,-160.5 677.66,-167.5"/>
</g>
<!-- Node11 -->
<g id="node11" class="node">
<title>Node11</title>
<g id="a_node11"><a xlink:href="classQuantConnect_1_1Securities_1_1MarketHoursDatabase.html#aa717adb9bb04be931913608ffd5a2733" target="_top" xlink:title="Gets the correct string symbol to use as a database key">
<polygon fill="white" stroke="black" points="460,-55.5 460,-96.5 652,-96.5 652,-55.5 460,-55.5"/>
<text text-anchor="start" x="468" y="-84.5" font-family="Helvetica,sans-Serif" font-size="10.00">QuantConnect.Securities.</text>
<text text-anchor="start" x="468" y="-73.5" font-family="Helvetica,sans-Serif" font-size="10.00">MarketHoursDatabase.GetDatabase</text>
<text text-anchor="middle" x="556" y="-62.5" font-family="Helvetica,sans-Serif" font-size="10.00">SymbolKey</text>
</a>
</g>
</g>
<!-- Node10&#45;&gt;Node11 -->
<g id="edge10" class="edge">
<title>Node10&#45;&gt;Node11</title>
<path fill="none" stroke="midnightblue" d="M408.03,-76C421.66,-76 435.81,-76 449.7,-76"/>
<polygon fill="midnightblue" stroke="midnightblue" points="449.76,-79.5 459.76,-76 449.76,-72.5 449.76,-79.5"/>
</g>
</g>
</svg>
        <g id="navigator" transform="translate(0 0)" fill="#404254">
                <rect fill="#f2f5e9" fill-opacity="0.5" stroke="#606060" stroke-width=".5" x="0" y="0" width="60" height="60"/>
                <use id="zoomplus" xlink:href="#zoomPlus" x="17" y="9" onmousedown="handleZoom(evt,'in')"/>
                <use id="zoomminus" xlink:href="#zoomMin" x="42" y="9" onmousedown="handleZoom(evt,'out')"/>
                <use id="reset" xlink:href="#resetDef" x="30" y="36" onmousedown="handleReset()"/>
                <g id="arrowUp" xlink:href="#dirArrow" transform="translate(30 24)" onmousedown="handlePan(0,-1)">
                  <use xlink:href="#rim" fill="#404040">
                        <set attributeName="fill" to="#808080" begin="arrowUp.mouseover" end="arrowUp.mouseout"/>
                  </use>
                  <path fill="none" stroke="white" stroke-width="1.5" d="M0,-3.0v7 M-2.5,-0.5L0,-3.0L2.5,-0.5"/>
                </g>
                <g id="arrowRight" xlink:href="#dirArrow" transform="rotate(90) translate(36 -43)" onmousedown="handlePan(1,0)">
                  <use xlink:href="#rim" fill="#404040">
                        <set attributeName="fill" to="#808080" begin="arrowRight.mouseover" end="arrowRight.mouseout"/>
                  </use>
                  <path fill="none" stroke="white" stroke-width="1.5" d="M0,-3.0v7 M-2.5,-0.5L0,-3.0L2.5,-0.5"/>
                </g>
                <g id="arrowDown" xlink:href="#dirArrow" transform="rotate(180) translate(-30 -48)" onmousedown="handlePan(0,1)">
                  <use xlink:href="#rim" fill="#404040">
                        <set attributeName="fill" to="#808080" begin="arrowDown.mouseover" end="arrowDown.mouseout"/>
                  </use>
                  <path fill="none" stroke="white" stroke-width="1.5" d="M0,-3.0v7 M-2.5,-0.5L0,-3.0L2.5,-0.5"/>
                </g>
                <g id="arrowLeft" xlink:href="#dirArrow" transform="rotate(270) translate(-36 17)" onmousedown="handlePan(-1,0)">
                  <use xlink:href="#rim" fill="#404040">
                        <set attributeName="fill" to="#808080" begin="arrowLeft.mouseover" end="arrowLeft.mouseout"/>
                  </use>
                  <path fill="none" stroke="white" stroke-width="1.5" d="M0,-3.0v7 M-2.5,-0.5L0,-3.0L2.5,-0.5"/>
                </g>
        </g>
        <svg viewBox="0 0 15 15" width="100%" height="30px" preserveAspectRatio="xMaxYMin meet">
         <g id="arrow_out" transform="scale(0.3 0.3)">
          <a xlink:href="classQuantConnect_1_1Securities_1_1MarketHoursDatabase_aeac6cf20dbffdbafd258f0d5f4473713_cgraph_org.svg" target="_base">
           <rect id="button" ry="5" rx="5" y="6" x="6" height="38" width="38"
                fill="#f2f5e9" fill-opacity="0.5" stroke="#606060" stroke-width="1.0"/>
           <path id="arrow"
             d="M 11.500037,31.436501 C 11.940474,20.09759 22.043105,11.32322 32.158766,21.979434 L 37.068811,17.246167 C 37.068811,17.246167 37.088388,32 37.088388,32 L 22.160133,31.978069 C 22.160133,31.978069 26.997745,27.140456 26.997745,27.140456 C 18.528582,18.264221 13.291696,25.230495 11.500037,31.436501 z"
             style="fill:#404040;"/>
          </a>
         </g>
        </svg>
</svg>
