<?xml version="1.0" encoding="UTF-8" standalone="no"?>
<!DOCTYPE svg PUBLIC "-//W3C//DTD SVG 1.1//EN"
 "http://www.w3.org/Graphics/SVG/1.1/DTD/svg11.dtd">
<!-- Generated by graphviz version 2.43.0 (0)
 -->
<!-- Title: QuantConnect.Securities.SymbolPropertiesDatabase.TryGetMarket Pages: 1 -->
<svg width="1403pt" height="765pt"
 viewBox="0.00 0.00 1403.00 764.50" xmlns="http://www.w3.org/2000/svg" xmlns:xlink="http://www.w3.org/1999/xlink">
<g id="graph0" class="graph" transform="scale(1 1) rotate(0) translate(4 760.5)">
<title>QuantConnect.Securities.SymbolPropertiesDatabase.TryGetMarket</title>
<polygon fill="white" stroke="transparent" points="-4,4 -4,-760.5 1399,-760.5 1399,4 -4,4"/>
<!-- Node1 -->
<g id="node1" class="node">
<title>Node1</title>
<g id="a_node1"><a xlink:title="Tries to get the market for the provided symbol/security type">
<polygon fill="#bfbfbf" stroke="black" points="1228,-425.5 1228,-466.5 1395,-466.5 1395,-425.5 1228,-425.5"/>
<text text-anchor="start" x="1236" y="-454.5" font-family="Helvetica,sans-Serif" font-size="10.00">QuantConnect.Securities.</text>
<text text-anchor="start" x="1236" y="-443.5" font-family="Helvetica,sans-Serif" font-size="10.00">SymbolPropertiesDatabase.Try</text>
<text text-anchor="middle" x="1311.5" y="-432.5" font-family="Helvetica,sans-Serif" font-size="10.00">GetMarket</text>
</a>
</g>
</g>
<!-- Node2 -->
<g id="node2" class="node">
<title>Node2</title>
<g id="a_node2"><a xlink:href="classQuantConnect_1_1Orders_1_1OrderJsonConverter.html#ae7718abf2cec0c8473eee7cdec4b4b15" target="_top" xlink:title="Create an order from a simple JObject">
<polygon fill="white" stroke="black" points="986,-677 986,-707 1192,-707 1192,-677 986,-677"/>
<text text-anchor="start" x="994" y="-695" font-family="Helvetica,sans-Serif" font-size="10.00">QuantConnect.Orders.Order</text>
<text text-anchor="middle" x="1089" y="-684" font-family="Helvetica,sans-Serif" font-size="10.00">JsonConverter.CreateOrderFromJObject</text>
</a>
</g>
</g>
<!-- Node1&#45;&gt;Node2 -->
<g id="edge1" class="edge">
<title>Node1&#45;&gt;Node2</title>
<path fill="none" stroke="midnightblue" d="M1285.3,-474.12C1238.5,-526.33 1139.65,-636.61 1103.56,-676.87"/>
<polygon fill="midnightblue" stroke="midnightblue" points="1288.01,-476.33 1292.08,-466.55 1282.8,-471.66 1288.01,-476.33"/>
</g>
<!-- Node5 -->
<g id="node5" class="node">
<title>Node5</title>
<g id="a_node5"><a xlink:href="classQuantConnect_1_1Securities_1_1MarketHoursDatabase.html#aeac6cf20dbffdbafd258f0d5f4473713" target="_top" xlink:title="Gets the entry for the specified market/symbol/security&#45;type">
<polygon fill="white" stroke="black" points="1003.5,-456 1003.5,-486 1174.5,-486 1174.5,-456 1003.5,-456"/>
<text text-anchor="start" x="1011.5" y="-474" font-family="Helvetica,sans-Serif" font-size="10.00">QuantConnect.Securities.</text>
<text text-anchor="middle" x="1089" y="-463" font-family="Helvetica,sans-Serif" font-size="10.00">MarketHoursDatabase.GetEntry</text>
</a>
</g>
</g>
<!-- Node1&#45;&gt;Node5 -->
<g id="edge4" class="edge">
<title>Node1&#45;&gt;Node5</title>
<path fill="none" stroke="midnightblue" d="M1217.5,-456.54C1203.29,-458.16 1188.69,-459.81 1174.67,-461.4"/>
<polygon fill="midnightblue" stroke="midnightblue" points="1218.22,-459.98 1227.77,-455.38 1217.44,-453.03 1218.22,-459.98"/>
</g>
<!-- Node32 -->
<g id="node32" class="node">
<title>Node32</title>
<g id="a_node32"><a xlink:href="classQuantConnect_1_1SymbolRepresentation.html#adae87b321b11822d3fa9b641c0b2c2ab" target="_top" xlink:title="Creates a future option Symbol from the provided ticker">
<polygon fill="white" stroke="black" points="987.5,-407 987.5,-437 1190.5,-437 1190.5,-407 987.5,-407"/>
<text text-anchor="start" x="995.5" y="-425" font-family="Helvetica,sans-Serif" font-size="10.00">QuantConnect.SymbolRepresentation.</text>
<text text-anchor="middle" x="1089" y="-414" font-family="Helvetica,sans-Serif" font-size="10.00">ParseFutureOptionSymbol</text>
</a>
</g>
</g>
<!-- Node1&#45;&gt;Node32 -->
<g id="edge31" class="edge">
<title>Node1&#45;&gt;Node32</title>
<path fill="none" stroke="midnightblue" d="M1217.75,-435.9C1208.81,-434.93 1199.71,-433.94 1190.69,-432.96"/>
<polygon fill="midnightblue" stroke="midnightblue" points="1217.45,-439.39 1227.77,-437 1218.2,-432.43 1217.45,-439.39"/>
</g>
<!-- Node33 -->
<g id="node33" class="node">
<title>Node33</title>
<g id="a_node33"><a xlink:href="classQuantConnect_1_1SymbolRepresentation.html#a66267400b44af2828d3622f28000eba5" target="_top" xlink:title="Helper method to parse and generate a future symbol from a given user friendly representation">
<polygon fill="white" stroke="black" points="987.5,-358 987.5,-388 1190.5,-388 1190.5,-358 987.5,-358"/>
<text text-anchor="start" x="995.5" y="-376" font-family="Helvetica,sans-Serif" font-size="10.00">QuantConnect.SymbolRepresentation.</text>
<text text-anchor="middle" x="1089" y="-365" font-family="Helvetica,sans-Serif" font-size="10.00">ParseFutureSymbol</text>
</a>
</g>
</g>
<!-- Node1&#45;&gt;Node33 -->
<g id="edge32" class="edge">
<title>Node1&#45;&gt;Node33</title>
<path fill="none" stroke="midnightblue" d="M1254.69,-421.46C1235.1,-413.36 1212.78,-404.72 1192,-398 1180.9,-394.41 1168.97,-391.05 1157.33,-388.04"/>
<polygon fill="midnightblue" stroke="midnightblue" points="1253.5,-424.76 1264.08,-425.38 1256.2,-418.3 1253.5,-424.76"/>
</g>
<!-- Node3 -->
<g id="node3" class="node">
<title>Node3</title>
<g id="a_node3"><a xlink:href="classQuantConnect_1_1Report_1_1OrderTypeNormalizingJsonConverter.html#a095a046916eb5872ed67ebc83a46d7a5" target="_top" xlink:title="Read Json and convert">
<polygon fill="white" stroke="black" points="732.5,-726 732.5,-756 946.5,-756 946.5,-726 732.5,-726"/>
<text text-anchor="start" x="740.5" y="-744" font-family="Helvetica,sans-Serif" font-size="10.00">QuantConnect.Report.Order</text>
<text text-anchor="middle" x="839.5" y="-733" font-family="Helvetica,sans-Serif" font-size="10.00">TypeNormalizingJsonConverter.ReadJson</text>
</a>
</g>
</g>
<!-- Node2&#45;&gt;Node3 -->
<g id="edge2" class="edge">
<title>Node2&#45;&gt;Node3</title>
<path fill="none" stroke="midnightblue" d="M1001.93,-709.04C974.06,-714.56 943.37,-720.63 916.3,-725.99"/>
<polygon fill="midnightblue" stroke="midnightblue" points="1002.93,-712.41 1012.06,-707.03 1001.57,-705.54 1002.93,-712.41"/>
</g>
<!-- Node4 -->
<g id="node4" class="node">
<title>Node4</title>
<g id="a_node4"><a xlink:href="classQuantConnect_1_1Orders_1_1OrderJsonConverter.html#abed44f89edc8905ac0d4b8af39a47802" target="_top" xlink:title="Reads the JSON representation of the object.">
<polygon fill="white" stroke="black" points="764,-677 764,-707 915,-707 915,-677 764,-677"/>
<text text-anchor="start" x="772" y="-695" font-family="Helvetica,sans-Serif" font-size="10.00">QuantConnect.Orders.Order</text>
<text text-anchor="middle" x="839.5" y="-684" font-family="Helvetica,sans-Serif" font-size="10.00">JsonConverter.ReadJson</text>
</a>
</g>
</g>
<!-- Node2&#45;&gt;Node4 -->
<g id="edge3" class="edge">
<title>Node2&#45;&gt;Node4</title>
<path fill="none" stroke="midnightblue" d="M975.85,-692C955.28,-692 934.27,-692 915.14,-692"/>
<polygon fill="midnightblue" stroke="midnightblue" points="975.9,-695.5 985.9,-692 975.9,-688.5 975.9,-695.5"/>
</g>
<!-- Node6 -->
<g id="node6" class="node">
<title>Node6</title>
<g id="a_node6"><a xlink:href="classQuantConnect_1_1Algorithm_1_1QCAlgorithm.html#a20fac1dead0a364d844f5f3179808706" target="_top" xlink:title="Creates a new user defined universe that will fire on the requested resolution during market hours.">
<polygon fill="white" stroke="black" points="737,-628 737,-658 942,-658 942,-628 737,-628"/>
<text text-anchor="start" x="745" y="-646" font-family="Helvetica,sans-Serif" font-size="10.00">QuantConnect.Algorithm.QCAlgorithm.</text>
<text text-anchor="middle" x="839.5" y="-635" font-family="Helvetica,sans-Serif" font-size="10.00">AddUniverse</text>
</a>
</g>
</g>
<!-- Node5&#45;&gt;Node6 -->
<g id="edge5" class="edge">
<title>Node5&#45;&gt;Node6</title>
<path fill="none" stroke="midnightblue" d="M1072.6,-495.09C1049.95,-528.42 1004.4,-587.99 950,-619 943.91,-622.47 937.37,-625.44 930.63,-627.98"/>
<polygon fill="midnightblue" stroke="midnightblue" points="1075.73,-496.69 1078.37,-486.43 1069.91,-492.81 1075.73,-496.69"/>
</g>
<!-- Node7 -->
<g id="node7" class="node">
<title>Node7</title>
<g id="a_node7"><a xlink:href="classQuantConnect_1_1Securities_1_1MarketHoursDatabase.html#a92534128098fef25ab73e8d2faf58793" target="_top" xlink:title="Performs a lookup using the specified information and returns the data&#39;s time zone if found,...">
<polygon fill="white" stroke="black" points="730.5,-579 730.5,-609 948.5,-609 948.5,-579 730.5,-579"/>
<text text-anchor="start" x="738.5" y="-597" font-family="Helvetica,sans-Serif" font-size="10.00">QuantConnect.Securities.</text>
<text text-anchor="middle" x="839.5" y="-586" font-family="Helvetica,sans-Serif" font-size="10.00">MarketHoursDatabase.GetDataTimeZone</text>
</a>
</g>
</g>
<!-- Node5&#45;&gt;Node7 -->
<g id="edge6" class="edge">
<title>Node5&#45;&gt;Node7</title>
<path fill="none" stroke="midnightblue" d="M1064.04,-492.91C1037.91,-515.6 993.94,-550.43 950,-570 942.27,-573.44 934,-576.41 925.6,-578.96"/>
<polygon fill="midnightblue" stroke="midnightblue" points="1066.36,-495.52 1071.55,-486.29 1061.74,-490.27 1066.36,-495.52"/>
</g>
<!-- Node10 -->
<g id="node10" class="node">
<title>Node10</title>
<g id="a_node10"><a xlink:href="classQuantConnect_1_1Extensions.html#a6e7b57a65d282b02a39d8232be71f4e0" target="_top" xlink:title="Helper method to get a market hours entry">
<polygon fill="white" stroke="black" points="767,-530 767,-560 912,-560 912,-530 767,-530"/>
<text text-anchor="start" x="775" y="-548" font-family="Helvetica,sans-Serif" font-size="10.00">QuantConnect.Extensions.</text>
<text text-anchor="middle" x="839.5" y="-537" font-family="Helvetica,sans-Serif" font-size="10.00">GetEntry</text>
</a>
</g>
</g>
<!-- Node5&#45;&gt;Node10 -->
<g id="edge9" class="edge">
<title>Node5&#45;&gt;Node10</title>
<path fill="none" stroke="midnightblue" d="M1041.26,-489.68C1014.77,-499.82 980.85,-512.07 950,-521 937.85,-524.52 924.81,-527.79 912.11,-530.73"/>
<polygon fill="midnightblue" stroke="midnightblue" points="1042.59,-492.91 1050.66,-486.04 1040.07,-486.38 1042.59,-492.91"/>
</g>
<!-- Node11 -->
<g id="node11" class="node">
<title>Node11</title>
<g id="a_node11"><a xlink:href="classQuantConnect_1_1Securities_1_1MarketHoursDatabase.html#a7ff5c3f3b78dc47dcfc2156a06882bbd" target="_top" xlink:title="Gets the entry for the specified market/symbol/security&#45;type">
<polygon fill="white" stroke="black" points="754,-481 754,-511 925,-511 925,-481 754,-481"/>
<text text-anchor="start" x="762" y="-499" font-family="Helvetica,sans-Serif" font-size="10.00">QuantConnect.Securities.</text>
<text text-anchor="middle" x="839.5" y="-488" font-family="Helvetica,sans-Serif" font-size="10.00">MarketHoursDatabase.GetEntry</text>
</a>
</g>
</g>
<!-- Node5&#45;&gt;Node11 -->
<g id="edge10" class="edge">
<title>Node5&#45;&gt;Node11</title>
<path fill="none" stroke="midnightblue" d="M993.02,-480.59C970.7,-482.85 947.06,-485.24 925.22,-487.44"/>
<polygon fill="midnightblue" stroke="midnightblue" points="993.57,-484.06 1003.17,-479.57 992.87,-477.09 993.57,-484.06"/>
</g>
<!-- Node12 -->
<g id="node12" class="node">
<title>Node12</title>
<g id="a_node12"><a xlink:href="classQuantConnect_1_1Securities_1_1MarketHoursDatabase.html#a5c7591a1165130392c4606037f2b916b" target="_top" xlink:title="Convenience method for retrieving exchange hours from market hours database using a subscription conf...">
<polygon fill="white" stroke="black" points="729,-432 729,-462 950,-462 950,-432 729,-432"/>
<text text-anchor="start" x="737" y="-450" font-family="Helvetica,sans-Serif" font-size="10.00">QuantConnect.Securities.</text>
<text text-anchor="middle" x="839.5" y="-439" font-family="Helvetica,sans-Serif" font-size="10.00">MarketHoursDatabase.GetExchangeHours</text>
</a>
</g>
</g>
<!-- Node5&#45;&gt;Node12 -->
<g id="edge11" class="edge">
<title>Node5&#45;&gt;Node12</title>
<path fill="none" stroke="midnightblue" d="M993.05,-461.79C979.02,-460.43 964.45,-459.02 950.15,-457.63"/>
<polygon fill="midnightblue" stroke="midnightblue" points="992.88,-465.29 1003.17,-462.77 993.56,-458.33 992.88,-465.29"/>
</g>
<!-- Node13 -->
<g id="node13" class="node">
<title>Node13</title>
<g id="a_node13"><a xlink:href="classQuantConnect_1_1Securities_1_1Future_1_1FuturesExpiryUtilityFunctions.html#a9aa543735102b14ff694b42d1ee142d4" target="_top" xlink:title="Get holiday list from the MHDB given the market and the symbol of the security">
<polygon fill="white" stroke="black" points="741,-371.5 741,-412.5 938,-412.5 938,-371.5 741,-371.5"/>
<text text-anchor="start" x="749" y="-400.5" font-family="Helvetica,sans-Serif" font-size="10.00">QuantConnect.Securities.</text>
<text text-anchor="start" x="749" y="-389.5" font-family="Helvetica,sans-Serif" font-size="10.00">Future.FuturesExpiryUtilityFunctions.</text>
<text text-anchor="middle" x="839.5" y="-378.5" font-family="Helvetica,sans-Serif" font-size="10.00">GetHolidays</text>
</a>
</g>
</g>
<!-- Node5&#45;&gt;Node13 -->
<g id="edge12" class="edge">
<title>Node5&#45;&gt;Node13</title>
<path fill="none" stroke="midnightblue" d="M1000.85,-452.74C995.77,-450.99 990.78,-449.07 986,-447 968.36,-439.34 967.46,-431.05 950,-423 941.66,-419.15 932.73,-415.68 923.71,-412.58"/>
<polygon fill="midnightblue" stroke="midnightblue" points="1000.14,-456.19 1010.73,-455.94 1002.3,-449.53 1000.14,-456.19"/>
</g>
<!-- Node14 -->
<g id="node14" class="node">
<title>Node14</title>
<g id="a_node14"><a xlink:href="classQuantConnect_1_1Securities_1_1Option_1_1OptionSymbol.html#a75217e30f16bc69188675c474bb703b0" target="_top" xlink:title="Returns the last trading date for the option contract">
<polygon fill="white" stroke="black" points="749,-311.5 749,-352.5 930,-352.5 930,-311.5 749,-311.5"/>
<text text-anchor="start" x="757" y="-340.5" font-family="Helvetica,sans-Serif" font-size="10.00">QuantConnect.Securities.</text>
<text text-anchor="start" x="757" y="-329.5" font-family="Helvetica,sans-Serif" font-size="10.00">Option.OptionSymbol.GetLastDay</text>
<text text-anchor="middle" x="839.5" y="-318.5" font-family="Helvetica,sans-Serif" font-size="10.00">OfTrading</text>
</a>
</g>
</g>
<!-- Node5&#45;&gt;Node14 -->
<g id="edge13" class="edge">
<title>Node5&#45;&gt;Node14</title>
<path fill="none" stroke="midnightblue" d="M994.16,-452.96C991.31,-451.15 988.57,-449.17 986,-447 954.64,-420.55 980.88,-389.01 950,-362 944.07,-356.81 937.31,-352.51 930.14,-348.94"/>
<polygon fill="midnightblue" stroke="midnightblue" points="992.63,-456.11 1003.07,-457.89 996.02,-449.98 992.63,-456.11"/>
</g>
<!-- Node16 -->
<g id="node16" class="node">
<title>Node16</title>
<g id="a_node16"><a xlink:href="classQuantConnect_1_1Scheduling_1_1BaseScheduleRules.html#a7f7f5459a775e24b528b7c58ebe6fe77" target="_top" xlink:title="Helper method to fetch the security exchange hours">
<polygon fill="white" stroke="black" points="753.5,-251.5 753.5,-292.5 925.5,-292.5 925.5,-251.5 753.5,-251.5"/>
<text text-anchor="start" x="761.5" y="-280.5" font-family="Helvetica,sans-Serif" font-size="10.00">QuantConnect.Scheduling.</text>
<text text-anchor="start" x="761.5" y="-269.5" font-family="Helvetica,sans-Serif" font-size="10.00">BaseScheduleRules.GetSecurity</text>
<text text-anchor="middle" x="839.5" y="-258.5" font-family="Helvetica,sans-Serif" font-size="10.00">ExchangeHours</text>
</a>
</g>
</g>
<!-- Node5&#45;&gt;Node16 -->
<g id="edge15" class="edge">
<title>Node5&#45;&gt;Node16</title>
<path fill="none" stroke="midnightblue" d="M994.42,-453.97C991.43,-451.89 988.6,-449.57 986,-447 938.76,-400.34 996.38,-349.51 950,-302 943.12,-294.95 934.74,-289.51 925.73,-285.31"/>
<polygon fill="midnightblue" stroke="midnightblue" points="992.88,-457.13 1003.26,-459.25 996.47,-451.12 992.88,-457.13"/>
</g>
<!-- Node28 -->
<g id="node28" class="node">
<title>Node28</title>
<g id="a_node28"><a xlink:href="classQuantConnect_1_1Lean_1_1Engine_1_1DataFeeds_1_1FileSystemDataFeed.html#a8b10a0ccb5a8884f80c527cf25c992f5" target="_top" xlink:title="If required will add a new enumerator for the underlying symbol">
<polygon fill="white" stroke="black" points="745,-96.5 745,-137.5 934,-137.5 934,-96.5 745,-96.5"/>
<text text-anchor="start" x="753" y="-125.5" font-family="Helvetica,sans-Serif" font-size="10.00">QuantConnect.Lean.Engine.</text>
<text text-anchor="start" x="753" y="-114.5" font-family="Helvetica,sans-Serif" font-size="10.00">DataFeeds.FileSystemDataFeed.Try</text>
<text text-anchor="middle" x="839.5" y="-103.5" font-family="Helvetica,sans-Serif" font-size="10.00">AppendUnderlyingEnumerator</text>
</a>
</g>
</g>
<!-- Node5&#45;&gt;Node28 -->
<g id="edge27" class="edge">
<title>Node5&#45;&gt;Node28</title>
<path fill="none" stroke="midnightblue" d="M994.69,-454.56C991.57,-452.32 988.65,-449.81 986,-447 922.49,-379.74 989.95,-325.43 950,-242 929.69,-199.59 890.85,-160.51 865.31,-137.71"/>
<polygon fill="midnightblue" stroke="midnightblue" points="993.01,-457.63 1003.36,-459.87 996.66,-451.67 993.01,-457.63"/>
</g>
<!-- Node8 -->
<g id="node8" class="node">
<title>Node8</title>
<g id="a_node8"><a xlink:href="classQuantConnect_1_1ToolBox_1_1LeanDataReader.html#ac23439fd286135eaf5c3047bf52eb517" target="_top" xlink:title="Initialize a instance of LeanDataReader from a path to a zipped data file. It also supports declaring...">
<polygon fill="white" stroke="black" points="510.5,-614 510.5,-644 668.5,-644 668.5,-614 510.5,-614"/>
<text text-anchor="start" x="518.5" y="-632" font-family="Helvetica,sans-Serif" font-size="10.00">QuantConnect.ToolBox.Lean</text>
<text text-anchor="middle" x="589.5" y="-621" font-family="Helvetica,sans-Serif" font-size="10.00">DataReader.LeanDataReader</text>
</a>
</g>
</g>
<!-- Node7&#45;&gt;Node8 -->
<g id="edge7" class="edge">
<title>Node7&#45;&gt;Node8</title>
<path fill="none" stroke="midnightblue" d="M721.88,-610.46C703.8,-613.01 685.52,-615.59 668.56,-617.98"/>
<polygon fill="midnightblue" stroke="midnightblue" points="722.47,-613.91 731.89,-609.05 721.5,-606.98 722.47,-613.91"/>
</g>
<!-- Node9 -->
<g id="node9" class="node">
<title>Node9</title>
<g id="a_node9"><a xlink:href="classQuantConnect_1_1Algorithm_1_1QCAlgorithm.html#ad8a5d8d6d6fd62a8a3962f0649567804" target="_top" xlink:title="Called by setup handlers after Initialize and allows the algorithm a chance to organize the data gath...">
<polygon fill="white" stroke="black" points="487,-565 487,-595 692,-595 692,-565 487,-565"/>
<text text-anchor="start" x="495" y="-583" font-family="Helvetica,sans-Serif" font-size="10.00">QuantConnect.Algorithm.QCAlgorithm.</text>
<text text-anchor="middle" x="589.5" y="-572" font-family="Helvetica,sans-Serif" font-size="10.00">PostInitialize</text>
</a>
</g>
</g>
<!-- Node7&#45;&gt;Node9 -->
<g id="edge8" class="edge">
<title>Node7&#45;&gt;Node9</title>
<path fill="none" stroke="midnightblue" d="M720.32,-587.33C710.96,-586.8 701.56,-586.27 692.32,-585.75"/>
<polygon fill="midnightblue" stroke="midnightblue" points="720.26,-590.83 730.45,-587.9 720.66,-583.84 720.26,-590.83"/>
</g>
<!-- Node15 -->
<g id="node15" class="node">
<title>Node15</title>
<g id="a_node15"><a xlink:href="classQuantConnect_1_1Extensions.html#a0ffdbe5701923c4217f90dd5fbe87641" target="_top" xlink:title="Gets the delisting date for the provided Symbol">
<polygon fill="white" stroke="black" points="517,-502 517,-532 662,-532 662,-502 517,-502"/>
<text text-anchor="start" x="525" y="-520" font-family="Helvetica,sans-Serif" font-size="10.00">QuantConnect.Extensions.</text>
<text text-anchor="middle" x="589.5" y="-509" font-family="Helvetica,sans-Serif" font-size="10.00">GetDelistingDate</text>
</a>
</g>
</g>
<!-- Node14&#45;&gt;Node15 -->
<g id="edge14" class="edge">
<title>Node14&#45;&gt;Node15</title>
<path fill="none" stroke="midnightblue" d="M740.27,-352.81C736.22,-355.52 732.44,-358.57 729,-362 686.29,-404.68 736.5,-451.13 693,-493 684.44,-501.24 673.62,-506.84 662.24,-510.61"/>
<polygon fill="midnightblue" stroke="midnightblue" points="742.06,-355.81 748.89,-347.71 738.5,-349.79 742.06,-355.81"/>
</g>
<!-- Node17 -->
<g id="node17" class="node">
<title>Node17</title>
<g id="a_node17"><a xlink:href="classQuantConnect_1_1Scheduling_1_1TimeRules.html#aacb20273a2690ca8196b2816f95fbae8" target="_top" xlink:title="Specifies an event should fire at market open +&#45; minutesAfterOpen">
<polygon fill="white" stroke="black" points="512.5,-453 512.5,-483 666.5,-483 666.5,-453 512.5,-453"/>
<text text-anchor="start" x="520.5" y="-471" font-family="Helvetica,sans-Serif" font-size="10.00">QuantConnect.Scheduling.</text>
<text text-anchor="middle" x="589.5" y="-460" font-family="Helvetica,sans-Serif" font-size="10.00">TimeRules.AfterMarketOpen</text>
</a>
</g>
</g>
<!-- Node16&#45;&gt;Node17 -->
<g id="edge16" class="edge">
<title>Node16&#45;&gt;Node17</title>
<path fill="none" stroke="midnightblue" d="M744.26,-290.12C738.7,-293.46 733.53,-297.38 729,-302 683.4,-348.48 739.46,-398.38 693,-444 685.57,-451.3 676.36,-456.54 666.54,-460.27"/>
<polygon fill="midnightblue" stroke="midnightblue" points="746.1,-293.11 753.31,-285.35 742.83,-286.92 746.1,-293.11"/>
</g>
<!-- Node19 -->
<g id="node19" class="node">
<title>Node19</title>
<g id="a_node19"><a xlink:href="classQuantConnect_1_1Scheduling_1_1TimeRules.html#a2deae02e63a372ec702f2bc8b1233506" target="_top" xlink:title="Specifies an event should fire at the market close +&#45; minutesBeforeClose">
<polygon fill="white" stroke="black" points="507.5,-404 507.5,-434 671.5,-434 671.5,-404 507.5,-404"/>
<text text-anchor="start" x="515.5" y="-422" font-family="Helvetica,sans-Serif" font-size="10.00">QuantConnect.Scheduling.</text>
<text text-anchor="middle" x="589.5" y="-411" font-family="Helvetica,sans-Serif" font-size="10.00">TimeRules.BeforeMarketClose</text>
</a>
</g>
</g>
<!-- Node16&#45;&gt;Node19 -->
<g id="edge18" class="edge">
<title>Node16&#45;&gt;Node19</title>
<path fill="none" stroke="midnightblue" d="M743.97,-291.28C738.6,-294.35 733.55,-297.9 729,-302 696.1,-331.7 726.45,-365.92 693,-395 686.72,-400.46 679.44,-404.73 671.71,-408.07"/>
<polygon fill="midnightblue" stroke="midnightblue" points="745.95,-294.2 753.29,-286.55 742.78,-287.95 745.95,-294.2"/>
</g>
<!-- Node21 -->
<g id="node21" class="node">
<title>Node21</title>
<g id="a_node21"><a xlink:href="classQuantConnect_1_1Scheduling_1_1DateRules.html#a23f8d3cbd970618eee50ab0d4b669450" target="_top" xlink:title="Specifies an event should fire every day the symbol is trading">
<polygon fill="white" stroke="black" points="517,-355 517,-385 662,-385 662,-355 517,-355"/>
<text text-anchor="start" x="525" y="-373" font-family="Helvetica,sans-Serif" font-size="10.00">QuantConnect.Scheduling.</text>
<text text-anchor="middle" x="589.5" y="-362" font-family="Helvetica,sans-Serif" font-size="10.00">DateRules.EveryDay</text>
</a>
</g>
</g>
<!-- Node16&#45;&gt;Node21 -->
<g id="edge20" class="edge">
<title>Node16&#45;&gt;Node21</title>
<path fill="none" stroke="midnightblue" d="M743.9,-293.73C738.71,-296.2 733.7,-298.95 729,-302 707.81,-315.77 714.44,-332.63 693,-346 683.62,-351.85 672.94,-356.28 662.12,-359.62"/>
<polygon fill="midnightblue" stroke="midnightblue" points="745.64,-296.79 753.4,-289.58 742.84,-290.38 745.64,-296.79"/>
</g>
<!-- Node22 -->
<g id="node22" class="node">
<title>Node22</title>
<g id="a_node22"><a xlink:href="classQuantConnect_1_1Scheduling_1_1DateRules.html#ae8eb573fd3b2b66f5f9d07e5fca15802" target="_top" xlink:title="Specifies an event should fire on the last tradable date &#45; offset for the specified symbol of each mo...">
<polygon fill="white" stroke="black" points="517,-306 517,-336 662,-336 662,-306 517,-306"/>
<text text-anchor="start" x="525" y="-324" font-family="Helvetica,sans-Serif" font-size="10.00">QuantConnect.Scheduling.</text>
<text text-anchor="middle" x="589.5" y="-313" font-family="Helvetica,sans-Serif" font-size="10.00">DateRules.MonthEnd</text>
</a>
</g>
</g>
<!-- Node16&#45;&gt;Node22 -->
<g id="edge21" class="edge">
<title>Node16&#45;&gt;Node22</title>
<path fill="none" stroke="midnightblue" d="M743.64,-290.74C716.6,-296.09 687.6,-301.82 662.19,-306.84"/>
<polygon fill="midnightblue" stroke="midnightblue" points="744.37,-294.17 753.5,-288.79 743.01,-287.3 744.37,-294.17"/>
</g>
<!-- Node23 -->
<g id="node23" class="node">
<title>Node23</title>
<g id="a_node23"><a xlink:href="classQuantConnect_1_1Scheduling_1_1DateRules.html#a8057a52286258fa4fd06ff306c5f2610" target="_top" xlink:title="Specifies an event should fire on the first tradable date + offset for the specified symbol of each m...">
<polygon fill="white" stroke="black" points="517,-257 517,-287 662,-287 662,-257 517,-257"/>
<text text-anchor="start" x="525" y="-275" font-family="Helvetica,sans-Serif" font-size="10.00">QuantConnect.Scheduling.</text>
<text text-anchor="middle" x="589.5" y="-264" font-family="Helvetica,sans-Serif" font-size="10.00">DateRules.MonthStart</text>
</a>
</g>
</g>
<!-- Node16&#45;&gt;Node23 -->
<g id="edge22" class="edge">
<title>Node16&#45;&gt;Node23</title>
<path fill="none" stroke="midnightblue" d="M743.28,-272C716.34,-272 687.49,-272 662.19,-272"/>
<polygon fill="midnightblue" stroke="midnightblue" points="743.5,-275.5 753.5,-272 743.5,-268.5 743.5,-275.5"/>
</g>
<!-- Node24 -->
<g id="node24" class="node">
<title>Node24</title>
<g id="a_node24"><a xlink:href="classQuantConnect_1_1Scheduling_1_1DateRules.html#ab00974a063d5415f5a754717807ab697" target="_top" xlink:title="Specifies an event should fire on the last &#45; offset tradable date for the specified symbol of each we...">
<polygon fill="white" stroke="black" points="517,-208 517,-238 662,-238 662,-208 517,-208"/>
<text text-anchor="start" x="525" y="-226" font-family="Helvetica,sans-Serif" font-size="10.00">QuantConnect.Scheduling.</text>
<text text-anchor="middle" x="589.5" y="-215" font-family="Helvetica,sans-Serif" font-size="10.00">DateRules.WeekEnd</text>
</a>
</g>
</g>
<!-- Node16&#45;&gt;Node24 -->
<g id="edge23" class="edge">
<title>Node16&#45;&gt;Node24</title>
<path fill="none" stroke="midnightblue" d="M743.64,-253.26C716.6,-247.91 687.6,-242.18 662.19,-237.16"/>
<polygon fill="midnightblue" stroke="midnightblue" points="743.01,-256.7 753.5,-255.21 744.37,-249.83 743.01,-256.7"/>
</g>
<!-- Node25 -->
<g id="node25" class="node">
<title>Node25</title>
<g id="a_node25"><a xlink:href="classQuantConnect_1_1Scheduling_1_1DateRules.html#a1d9c08be5770b6d7fe3f8d4e35529b40" target="_top" xlink:title="Specifies an event should fire on the first tradable date + offset for the specified symbol each week">
<polygon fill="white" stroke="black" points="517,-159 517,-189 662,-189 662,-159 517,-159"/>
<text text-anchor="start" x="525" y="-177" font-family="Helvetica,sans-Serif" font-size="10.00">QuantConnect.Scheduling.</text>
<text text-anchor="middle" x="589.5" y="-166" font-family="Helvetica,sans-Serif" font-size="10.00">DateRules.WeekStart</text>
</a>
</g>
</g>
<!-- Node16&#45;&gt;Node25 -->
<g id="edge24" class="edge">
<title>Node16&#45;&gt;Node25</title>
<path fill="none" stroke="midnightblue" d="M794.22,-246.49C765.97,-231.06 728.19,-211.93 693,-199 682.86,-195.27 671.94,-191.94 661.16,-189.01"/>
<polygon fill="midnightblue" stroke="midnightblue" points="792.59,-249.59 803.04,-251.36 795.97,-243.46 792.59,-249.59"/>
</g>
<!-- Node26 -->
<g id="node26" class="node">
<title>Node26</title>
<g id="a_node26"><a xlink:href="classQuantConnect_1_1Scheduling_1_1DateRules.html#a49400f109cc972bf0c5764cb372d4e24" target="_top" xlink:title="Specifies an event should fire on the last tradable date &#45; offset for the specified symbol of each ye...">
<polygon fill="white" stroke="black" points="517,-110 517,-140 662,-140 662,-110 517,-110"/>
<text text-anchor="start" x="525" y="-128" font-family="Helvetica,sans-Serif" font-size="10.00">QuantConnect.Scheduling.</text>
<text text-anchor="middle" x="589.5" y="-117" font-family="Helvetica,sans-Serif" font-size="10.00">DateRules.YearEnd</text>
</a>
</g>
</g>
<!-- Node16&#45;&gt;Node26 -->
<g id="edge25" class="edge">
<title>Node16&#45;&gt;Node26</title>
<path fill="none" stroke="midnightblue" d="M812.76,-243.9C785.62,-215.98 740.32,-173.95 693,-150 683.36,-145.12 672.72,-141.16 662.05,-137.96"/>
<polygon fill="midnightblue" stroke="midnightblue" points="810.48,-246.58 819.92,-251.38 815.53,-241.74 810.48,-246.58"/>
</g>
<!-- Node27 -->
<g id="node27" class="node">
<title>Node27</title>
<g id="a_node27"><a xlink:href="classQuantConnect_1_1Scheduling_1_1DateRules.html#a315790184739cc5b0a4e326a310da2a3" target="_top" xlink:title="Specifies an event should fire on the first tradable date + offset for the specified symbol of each y...">
<polygon fill="white" stroke="black" points="517,-61 517,-91 662,-91 662,-61 517,-61"/>
<text text-anchor="start" x="525" y="-79" font-family="Helvetica,sans-Serif" font-size="10.00">QuantConnect.Scheduling.</text>
<text text-anchor="middle" x="589.5" y="-68" font-family="Helvetica,sans-Serif" font-size="10.00">DateRules.YearStart</text>
</a>
</g>
</g>
<!-- Node16&#45;&gt;Node27 -->
<g id="edge26" class="edge">
<title>Node16&#45;&gt;Node27</title>
<path fill="none" stroke="midnightblue" d="M812.64,-243.39C790.15,-218.31 756.9,-180.68 729,-147 712.44,-127.01 714.81,-115.07 693,-101 683.69,-94.99 673.05,-90.43 662.24,-86.96"/>
<polygon fill="midnightblue" stroke="midnightblue" points="810.25,-245.98 819.54,-251.08 815.46,-241.3 810.25,-245.98"/>
</g>
<!-- Node18 -->
<g id="node18" class="node">
<title>Node18</title>
<g id="a_node18"><a xlink:href="classQuantConnect_1_1Scheduling_1_1TimeRules.html#a45b0c2d5ec0bc5e41dd6ddecd4131fac" target="_top" xlink:title="Specifies an event should fire at market open +&#45; minutesBeforeOpen">
<polygon fill="white" stroke="black" points="265,-453 265,-483 428,-483 428,-453 265,-453"/>
<text text-anchor="start" x="273" y="-471" font-family="Helvetica,sans-Serif" font-size="10.00">QuantConnect.Scheduling.</text>
<text text-anchor="middle" x="346.5" y="-460" font-family="Helvetica,sans-Serif" font-size="10.00">TimeRules.BeforeMarketOpen</text>
</a>
</g>
</g>
<!-- Node17&#45;&gt;Node18 -->
<g id="edge17" class="edge">
<title>Node17&#45;&gt;Node18</title>
<path fill="none" stroke="midnightblue" d="M502.07,-468C478.01,-468 451.97,-468 428.25,-468"/>
<polygon fill="midnightblue" stroke="midnightblue" points="502.25,-471.5 512.25,-468 502.25,-464.5 502.25,-471.5"/>
</g>
<!-- Node20 -->
<g id="node20" class="node">
<title>Node20</title>
<g id="a_node20"><a xlink:href="classQuantConnect_1_1Scheduling_1_1TimeRules.html#a7f695b64a51ca1d190e205f977e8e60d" target="_top" xlink:title="Specifies an event should fire at the market close +&#45; minutesAfterClose">
<polygon fill="white" stroke="black" points="269,-404 269,-434 424,-434 424,-404 269,-404"/>
<text text-anchor="start" x="277" y="-422" font-family="Helvetica,sans-Serif" font-size="10.00">QuantConnect.Scheduling.</text>
<text text-anchor="middle" x="346.5" y="-411" font-family="Helvetica,sans-Serif" font-size="10.00">TimeRules.AfterMarketClose</text>
</a>
</g>
</g>
<!-- Node19&#45;&gt;Node20 -->
<g id="edge19" class="edge">
<title>Node19&#45;&gt;Node20</title>
<path fill="none" stroke="midnightblue" d="M497.08,-419C473.09,-419 447.47,-419 424.33,-419"/>
<polygon fill="midnightblue" stroke="midnightblue" points="497.24,-422.5 507.24,-419 497.24,-415.5 497.24,-422.5"/>
</g>
<!-- Node29 -->
<g id="node29" class="node">
<title>Node29</title>
<g id="a_node29"><a xlink:href="classQuantConnect_1_1Lean_1_1Engine_1_1DataFeeds_1_1FileSystemDataFeed.html#a4fc952e85ac49efbfa28a11d095ddf7a" target="_top" xlink:title="Creates a universe enumerator from the Subscription request, the underlying enumerator func and the f...">
<polygon fill="white" stroke="black" points="486,-0.5 486,-41.5 693,-41.5 693,-0.5 486,-0.5"/>
<text text-anchor="start" x="494" y="-29.5" font-family="Helvetica,sans-Serif" font-size="10.00">QuantConnect.Lean.Engine.</text>
<text text-anchor="start" x="494" y="-18.5" font-family="Helvetica,sans-Serif" font-size="10.00">DataFeeds.FileSystemDataFeed.Create</text>
<text text-anchor="middle" x="589.5" y="-7.5" font-family="Helvetica,sans-Serif" font-size="10.00">UniverseEnumerator</text>
</a>
</g>
</g>
<!-- Node28&#45;&gt;Node29 -->
<g id="edge28" class="edge">
<title>Node28&#45;&gt;Node29</title>
<path fill="none" stroke="midnightblue" d="M788.35,-92.13C760.64,-78.93 725.36,-63.01 693,-51 684.13,-47.71 674.73,-44.54 665.36,-41.57"/>
<polygon fill="midnightblue" stroke="midnightblue" points="786.91,-95.33 797.44,-96.5 789.94,-89.02 786.91,-95.33"/>
</g>
<!-- Node30 -->
<g id="node30" class="node">
<title>Node30</title>
<g id="a_node30"><a xlink:href="classQuantConnect_1_1Lean_1_1Engine_1_1DataFeeds_1_1FileSystemDataFeed.html#ad1ce25d62c996f68cf78a6d6a4c53907" target="_top" xlink:title="Creates a file based data enumerator for the given subscription request">
<polygon fill="white" stroke="black" points="243,-0.5 243,-41.5 450,-41.5 450,-0.5 243,-0.5"/>
<text text-anchor="start" x="251" y="-29.5" font-family="Helvetica,sans-Serif" font-size="10.00">QuantConnect.Lean.Engine.</text>
<text text-anchor="start" x="251" y="-18.5" font-family="Helvetica,sans-Serif" font-size="10.00">DataFeeds.FileSystemDataFeed.Create</text>
<text text-anchor="middle" x="346.5" y="-7.5" font-family="Helvetica,sans-Serif" font-size="10.00">Enumerator</text>
</a>
</g>
</g>
<!-- Node29&#45;&gt;Node30 -->
<g id="edge29" class="edge">
<title>Node29&#45;&gt;Node30</title>
<path fill="none" stroke="midnightblue" d="M475.68,-21C467.23,-21 458.73,-21 450.35,-21"/>
<polygon fill="midnightblue" stroke="midnightblue" points="475.94,-24.5 485.94,-21 475.94,-17.5 475.94,-24.5"/>
</g>
<!-- Node31 -->
<g id="node31" class="node">
<title>Node31</title>
<g id="a_node31"><a xlink:href="classQuantConnect_1_1Lean_1_1Engine_1_1DataFeeds_1_1FileSystemDataFeed.html#ac148e78fc814fca88c70a1835be51a25" target="_top" xlink:title="Creates a new subscription to provide data for the specified security.">
<polygon fill="white" stroke="black" points="0,-0.5 0,-41.5 207,-41.5 207,-0.5 0,-0.5"/>
<text text-anchor="start" x="8" y="-29.5" font-family="Helvetica,sans-Serif" font-size="10.00">QuantConnect.Lean.Engine.</text>
<text text-anchor="start" x="8" y="-18.5" font-family="Helvetica,sans-Serif" font-size="10.00">DataFeeds.FileSystemDataFeed.Create</text>
<text text-anchor="middle" x="103.5" y="-7.5" font-family="Helvetica,sans-Serif" font-size="10.00">Subscription</text>
</a>
</g>
</g>
<!-- Node30&#45;&gt;Node31 -->
<g id="edge30" class="edge">
<title>Node30&#45;&gt;Node31</title>
<path fill="none" stroke="midnightblue" d="M232.68,-21C224.23,-21 215.73,-21 207.35,-21"/>
<polygon fill="midnightblue" stroke="midnightblue" points="232.94,-24.5 242.94,-21 232.94,-17.5 232.94,-24.5"/>
</g>
</g>
</svg>
