<?xml version="1.0" encoding="UTF-8" standalone="no"?>
<!DOCTYPE svg PUBLIC "-//W3C//DTD SVG 1.1//EN"
 "http://www.w3.org/Graphics/SVG/1.1/DTD/svg11.dtd">
<!-- Generated by graphviz version 2.43.0 (0)
 -->
<!-- Title: QuantConnect.SymbolRepresentation.ParseFutureOptionSymbol Pages: 1 -->
<svg width="2129pt" height="891pt"
 viewBox="0.00 0.00 2129.00 890.50" xmlns="http://www.w3.org/2000/svg" xmlns:xlink="http://www.w3.org/1999/xlink">
<g id="graph0" class="graph" transform="scale(1 1) rotate(0) translate(4 886.5)">
<title>QuantConnect.SymbolRepresentation.ParseFutureOptionSymbol</title>
<polygon fill="white" stroke="transparent" points="-4,4 -4,-886.5 2125,-886.5 2125,4 -4,4"/>
<!-- Node1 -->
<g id="node1" class="node">
<title>Node1</title>
<g id="a_node1"><a xlink:title="Creates a future option Symbol from the provided ticker">
<polygon fill="#bfbfbf" stroke="black" points="0,-253 0,-283 203,-283 203,-253 0,-253"/>
<text text-anchor="start" x="8" y="-271" font-family="Helvetica,sans-Serif" font-size="10.00">QuantConnect.SymbolRepresentation.</text>
<text text-anchor="middle" x="101.5" y="-260" font-family="Helvetica,sans-Serif" font-size="10.00">ParseFutureOptionSymbol</text>
</a>
</g>
</g>
<!-- Node2 -->
<g id="node2" class="node">
<title>Node2</title>
<g id="a_node2"><a xlink:href="classQuantConnect_1_1Symbol.html#a350b9a625cf7bad95da82894be3cd0a8" target="_top" xlink:title="Provides a convenience method for creating a Symbol for most security types. This method currently do...">
<polygon fill="white" stroke="black" points="775,-579.5 775,-598.5 936,-598.5 936,-579.5 775,-579.5"/>
<text text-anchor="middle" x="855.5" y="-586.5" font-family="Helvetica,sans-Serif" font-size="10.00">QuantConnect.Symbol.Create</text>
</a>
</g>
</g>
<!-- Node1&#45;&gt;Node2 -->
<g id="edge1" class="edge">
<title>Node1&#45;&gt;Node2</title>
<path fill="none" stroke="midnightblue" d="M107.15,-283.11C120.51,-323.87 162.96,-436.86 239,-494 396.27,-612.18 640.9,-610.36 769.27,-599.42"/>
<polygon fill="midnightblue" stroke="midnightblue" points="769.79,-602.89 779.44,-598.51 769.17,-595.91 769.79,-602.89"/>
</g>
<!-- Node3 -->
<g id="node3" class="node">
<title>Node3</title>
<g id="a_node3"><a xlink:href="classQuantConnect_1_1Symbol.html#a7518a1932d1babbff128f2ba9666a78b" target="_top" xlink:title="Provides a convenience method for creating an option Symbol.">
<polygon fill="white" stroke="black" points="993.5,-432 993.5,-462 1154.5,-462 1154.5,-432 993.5,-432"/>
<text text-anchor="start" x="1001.5" y="-450" font-family="Helvetica,sans-Serif" font-size="10.00">QuantConnect.Symbol.Create</text>
<text text-anchor="middle" x="1074" y="-439" font-family="Helvetica,sans-Serif" font-size="10.00">Option</text>
</a>
</g>
</g>
<!-- Node1&#45;&gt;Node3 -->
<g id="edge25" class="edge">
<title>Node1&#45;&gt;Node3</title>
<path fill="none" stroke="midnightblue" d="M158.3,-283.08C182.9,-289.32 212.24,-296.2 239,-301 317.08,-315.01 877.1,-349.41 948,-385 968.79,-395.44 964.02,-411.08 984,-423 986.98,-424.78 990.09,-426.42 993.29,-427.95"/>
<polygon fill="midnightblue" stroke="midnightblue" points="991.93,-431.18 1002.5,-431.95 994.72,-424.76 991.93,-431.18"/>
</g>
<!-- Node20 -->
<g id="node20" class="node">
<title>Node20</title>
<g id="a_node20"><a xlink:href="classQuantConnect_1_1Symbol.html#a484f4a4845d55c491201a7998f0d6ec4" target="_top" xlink:title="Provides a convenience method for creating a future Symbol.">
<polygon fill="white" stroke="black" points="775,-307 775,-337 936,-337 936,-307 775,-307"/>
<text text-anchor="start" x="783" y="-325" font-family="Helvetica,sans-Serif" font-size="10.00">QuantConnect.Symbol.Create</text>
<text text-anchor="middle" x="855.5" y="-314" font-family="Helvetica,sans-Serif" font-size="10.00">Future</text>
</a>
</g>
</g>
<!-- Node1&#45;&gt;Node20 -->
<g id="edge21" class="edge">
<title>Node1&#45;&gt;Node20</title>
<path fill="none" stroke="midnightblue" d="M203.14,-275.23C350.63,-285.82 623.26,-305.39 764.47,-315.53"/>
<polygon fill="midnightblue" stroke="midnightblue" points="764.59,-319.05 774.82,-316.28 765.1,-312.07 764.59,-319.05"/>
</g>
<!-- Node21 -->
<g id="node21" class="node">
<title>Node21</title>
<g id="a_node21"><a xlink:href="classQuantConnect_1_1Logging_1_1Log.html#ad908daef9d61532d7d60c9dcfb9a3e0c" target="_top" xlink:title="Output to the console">
<polygon fill="white" stroke="black" points="295.5,-231 295.5,-261 445.5,-261 445.5,-231 295.5,-231"/>
<text text-anchor="start" x="303.5" y="-249" font-family="Helvetica,sans-Serif" font-size="10.00">QuantConnect.Logging.Log.</text>
<text text-anchor="middle" x="370.5" y="-238" font-family="Helvetica,sans-Serif" font-size="10.00">Debug</text>
</a>
</g>
</g>
<!-- Node1&#45;&gt;Node21 -->
<g id="edge26" class="edge">
<title>Node1&#45;&gt;Node21</title>
<path fill="none" stroke="midnightblue" d="M203.06,-259.71C230.07,-257.49 259.01,-255.1 285.05,-252.96"/>
<polygon fill="midnightblue" stroke="midnightblue" points="285.58,-256.43 295.26,-252.12 285,-249.45 285.58,-256.43"/>
</g>
<!-- Node23 -->
<g id="node23" class="node">
<title>Node23</title>
<g id="a_node23"><a xlink:href="classQuantConnect_1_1Securities_1_1SymbolPropertiesDatabase.html#aee26fb588793fd311c44eb8b2909cc33" target="_top" xlink:title="Gets the instance of the SymbolPropertiesDatabase class produced by reading in the symbol properties ...">
<polygon fill="white" stroke="black" points="282,-170.5 282,-211.5 459,-211.5 459,-170.5 282,-170.5"/>
<text text-anchor="start" x="290" y="-199.5" font-family="Helvetica,sans-Serif" font-size="10.00">QuantConnect.Securities.</text>
<text text-anchor="start" x="290" y="-188.5" font-family="Helvetica,sans-Serif" font-size="10.00">SymbolPropertiesDatabase.From</text>
<text text-anchor="middle" x="370.5" y="-177.5" font-family="Helvetica,sans-Serif" font-size="10.00">DataFolder</text>
</a>
</g>
</g>
<!-- Node1&#45;&gt;Node23 -->
<g id="edge28" class="edge">
<title>Node1&#45;&gt;Node23</title>
<path fill="none" stroke="midnightblue" d="M144.01,-252.91C170.9,-243.4 206.79,-231.23 239,-222 249.65,-218.95 260.84,-215.96 272.02,-213.12"/>
<polygon fill="midnightblue" stroke="midnightblue" points="272.97,-216.49 281.82,-210.66 271.27,-209.7 272.97,-216.49"/>
</g>
<!-- Node27 -->
<g id="node27" class="node">
<title>Node27</title>
<g id="a_node27"><a xlink:href="classQuantConnect_1_1Securities_1_1Future_1_1FuturesExpiryFunctions.html#a0d6bb7f1fd71689f70b115ccb0f470e0" target="_top" xlink:title="Method to retrieve the Function for a specific future symbol">
<polygon fill="white" stroke="black" points="772,-394.5 772,-435.5 939,-435.5 939,-394.5 772,-394.5"/>
<text text-anchor="start" x="780" y="-423.5" font-family="Helvetica,sans-Serif" font-size="10.00">QuantConnect.Securities.</text>
<text text-anchor="start" x="780" y="-412.5" font-family="Helvetica,sans-Serif" font-size="10.00">Future.FuturesExpiryFunctions.</text>
<text text-anchor="middle" x="855.5" y="-401.5" font-family="Helvetica,sans-Serif" font-size="10.00">FuturesExpiryFunction</text>
</a>
</g>
</g>
<!-- Node1&#45;&gt;Node27 -->
<g id="edge32" class="edge">
<title>Node1&#45;&gt;Node27</title>
<path fill="none" stroke="midnightblue" d="M114.91,-283.08C136.86,-308.47 185.31,-359.05 239,-380 413.81,-448.2 637.87,-439.4 761.72,-427.08"/>
<polygon fill="midnightblue" stroke="midnightblue" points="762.34,-430.54 771.93,-426.04 761.62,-423.58 762.34,-430.54"/>
</g>
<!-- Node28 -->
<g id="node28" class="node">
<title>Node28</title>
<g id="a_node28"><a xlink:href="classQuantConnect_1_1Securities_1_1FutureOption_1_1FuturesOptionsExpiryFunctions.html#a08173ebcf831deb1418228595f284ecf" target="_top" xlink:title="Gets the Future Option&#39;s expiry from the Future Symbol provided">
<polygon fill="white" stroke="black" points="239,-443.5 239,-484.5 502,-484.5 502,-443.5 239,-443.5"/>
<text text-anchor="start" x="247" y="-472.5" font-family="Helvetica,sans-Serif" font-size="10.00">QuantConnect.Securities.</text>
<text text-anchor="start" x="247" y="-461.5" font-family="Helvetica,sans-Serif" font-size="10.00">FutureOption.FuturesOptionsExpiry</text>
<text text-anchor="middle" x="370.5" y="-450.5" font-family="Helvetica,sans-Serif" font-size="10.00">Functions.GetFutureOptionExpiryFromFutureExpiry</text>
</a>
</g>
</g>
<!-- Node1&#45;&gt;Node28 -->
<g id="edge33" class="edge">
<title>Node1&#45;&gt;Node28</title>
<path fill="none" stroke="midnightblue" d="M111.72,-283.37C131.23,-314.58 179.8,-385.66 239,-424 248.38,-430.08 258.74,-435.27 269.4,-439.71"/>
<polygon fill="midnightblue" stroke="midnightblue" points="268.23,-443.01 278.82,-443.41 270.79,-436.49 268.23,-443.01"/>
</g>
<!-- Node31 -->
<g id="node31" class="node">
<title>Node31</title>
<g id="a_node31"><a xlink:href="classQuantConnect_1_1Securities_1_1Future_1_1FuturesOptionsSymbolMappings.html#a739feea1e5e726c78e75fd6c58fa2d5e" target="_top" xlink:title="Maps a futures options ticker to its underlying future&#39;s ticker">
<polygon fill="white" stroke="black" points="265,-110.5 265,-151.5 476,-151.5 476,-110.5 265,-110.5"/>
<text text-anchor="start" x="273" y="-139.5" font-family="Helvetica,sans-Serif" font-size="10.00">QuantConnect.Securities.</text>
<text text-anchor="start" x="273" y="-128.5" font-family="Helvetica,sans-Serif" font-size="10.00">Future.FuturesOptionsSymbolMappings.</text>
<text text-anchor="middle" x="370.5" y="-117.5" font-family="Helvetica,sans-Serif" font-size="10.00">MapFromOption</text>
</a>
</g>
</g>
<!-- Node1&#45;&gt;Node31 -->
<g id="edge42" class="edge">
<title>Node1&#45;&gt;Node31</title>
<path fill="none" stroke="midnightblue" d="M117.34,-252.65C140.89,-229.22 189.27,-184.74 239,-161 244.24,-158.5 249.7,-156.2 255.29,-154.09"/>
<polygon fill="midnightblue" stroke="midnightblue" points="256.55,-157.35 264.8,-150.7 254.21,-150.76 256.55,-157.35"/>
</g>
<!-- Node32 -->
<g id="node32" class="node">
<title>Node32</title>
<g id="a_node32"><a xlink:href="classQuantConnect_1_1SymbolRepresentation.html#a97704117def1a70989e5de3619c933e2" target="_top" xlink:title="Function returns underlying name, expiration year, expiration month, expiration day for the future co...">
<polygon fill="white" stroke="black" points="269,-61 269,-91 472,-91 472,-61 269,-61"/>
<text text-anchor="start" x="277" y="-79" font-family="Helvetica,sans-Serif" font-size="10.00">QuantConnect.SymbolRepresentation.</text>
<text text-anchor="middle" x="370.5" y="-68" font-family="Helvetica,sans-Serif" font-size="10.00">ParseFutureTicker</text>
</a>
</g>
</g>
<!-- Node1&#45;&gt;Node32 -->
<g id="edge43" class="edge">
<title>Node1&#45;&gt;Node32</title>
<path fill="none" stroke="midnightblue" d="M110.13,-252.78C127.78,-219.3 174.83,-139.24 239,-101 245.34,-97.22 252.12,-94 259.15,-91.25"/>
<polygon fill="midnightblue" stroke="midnightblue" points="260.62,-94.45 268.87,-87.79 258.27,-87.85 260.62,-94.45"/>
</g>
<!-- Node33 -->
<g id="node33" class="node">
<title>Node33</title>
<g id="a_node33"><a xlink:href="classQuantConnect_1_1Securities_1_1SymbolPropertiesDatabase.html#a5a7baeddd03bfc7fb60cef8ab2e6834b" target="_top" xlink:title="Tries to get the market for the provided symbol/security type">
<polygon fill="white" stroke="black" points="287,-0.5 287,-41.5 454,-41.5 454,-0.5 287,-0.5"/>
<text text-anchor="start" x="295" y="-29.5" font-family="Helvetica,sans-Serif" font-size="10.00">QuantConnect.Securities.</text>
<text text-anchor="start" x="295" y="-18.5" font-family="Helvetica,sans-Serif" font-size="10.00">SymbolPropertiesDatabase.Try</text>
<text text-anchor="middle" x="370.5" y="-7.5" font-family="Helvetica,sans-Serif" font-size="10.00">GetMarket</text>
</a>
</g>
</g>
<!-- Node1&#45;&gt;Node33 -->
<g id="edge44" class="edge">
<title>Node1&#45;&gt;Node33</title>
<path fill="none" stroke="midnightblue" d="M107.43,-252.77C121.21,-212.78 164.07,-104.22 239,-51 250.29,-42.98 263.38,-37.07 276.84,-32.72"/>
<polygon fill="midnightblue" stroke="midnightblue" points="278.07,-36.01 286.67,-29.82 276.09,-29.29 278.07,-36.01"/>
</g>
<!-- Node2&#45;&gt;Node3 -->
<g id="edge2" class="edge">
<title>Node2&#45;&gt;Node3</title>
<path fill="none" stroke="midnightblue" d="M901.27,-579.38C917.52,-574.08 935.05,-566.05 948,-554 975.66,-528.27 955.83,-502.17 984,-477 988.36,-473.1 993.25,-469.71 998.43,-466.75"/>
<polygon fill="midnightblue" stroke="midnightblue" points="1000.07,-469.85 1007.38,-462.18 996.88,-463.61 1000.07,-469.85"/>
</g>
<!-- Node4 -->
<g id="node4" class="node">
<title>Node4</title>
<g id="a_node4"><a xlink:href="classQuantConnect_1_1SecurityIdentifier.html#a0c21d7880c9fdd260883d11ea0c99a00" target="_top" xlink:title="Helper overload that will search the mapfiles to resolve the first date. This implementation uses the...">
<polygon fill="white" stroke="black" points="1200,-466 1200,-496 1374,-496 1374,-466 1200,-466"/>
<text text-anchor="start" x="1208" y="-484" font-family="Helvetica,sans-Serif" font-size="10.00">QuantConnect.SecurityIdentifier.</text>
<text text-anchor="middle" x="1287" y="-473" font-family="Helvetica,sans-Serif" font-size="10.00">GenerateEquity</text>
</a>
</g>
</g>
<!-- Node2&#45;&gt;Node4 -->
<g id="edge15" class="edge">
<title>Node2&#45;&gt;Node4</title>
<path fill="none" stroke="midnightblue" d="M884.66,-579.43C910.37,-570.87 949.5,-558.28 984,-549 1056.88,-529.4 1140.68,-510.84 1201.49,-498.08"/>
<polygon fill="midnightblue" stroke="midnightblue" points="1202.35,-501.47 1211.43,-496 1200.92,-494.62 1202.35,-501.47"/>
</g>
<!-- Node5 -->
<g id="node5" class="node">
<title>Node5</title>
<g id="a_node5"><a xlink:href="classQuantConnect_1_1Symbol.html#a59158f74116be3dad0ea0f3f3f134416" target="_top" xlink:title="Initializes a new instance of the Symbol class">
<polygon fill="white" stroke="black" points="1204.5,-403.5 1204.5,-422.5 1369.5,-422.5 1369.5,-403.5 1204.5,-403.5"/>
<text text-anchor="middle" x="1287" y="-410.5" font-family="Helvetica,sans-Serif" font-size="10.00">QuantConnect.Symbol.Symbol</text>
</a>
</g>
</g>
<!-- Node2&#45;&gt;Node5 -->
<g id="edge20" class="edge">
<title>Node2&#45;&gt;Node5</title>
<path fill="none" stroke="midnightblue" d="M885.46,-579.4C904.38,-572.27 929.02,-561.32 948,-547 967.63,-532.19 962.69,-517.25 984,-505 1054.51,-464.46 1086.69,-497.27 1164,-472 1182.67,-465.9 1228.86,-442.67 1258.75,-427.24"/>
<polygon fill="midnightblue" stroke="midnightblue" points="1260.56,-430.25 1267.83,-422.54 1257.34,-424.03 1260.56,-430.25"/>
</g>
<!-- Node11 -->
<g id="node11" class="node">
<title>Node11</title>
<g id="a_node11"><a xlink:href="classQuantConnect_1_1SecurityIdentifier.html#a02ca750115844561c001c2346fbafc00" target="_top" xlink:title="Generates a new SecurityIdentifier for a custom security with the option of providing the first date">
<polygon fill="white" stroke="black" points="987,-852 987,-882 1161,-882 1161,-852 987,-852"/>
<text text-anchor="start" x="995" y="-870" font-family="Helvetica,sans-Serif" font-size="10.00">QuantConnect.SecurityIdentifier.</text>
<text text-anchor="middle" x="1074" y="-859" font-family="Helvetica,sans-Serif" font-size="10.00">GenerateBase</text>
</a>
</g>
</g>
<!-- Node2&#45;&gt;Node11 -->
<g id="edge10" class="edge">
<title>Node2&#45;&gt;Node11</title>
<path fill="none" stroke="midnightblue" d="M858.37,-598.58C866.19,-636.11 899.9,-774.37 984,-843 985.58,-844.29 987.22,-845.51 988.92,-846.67"/>
<polygon fill="midnightblue" stroke="midnightblue" points="987.41,-849.84 997.8,-851.92 990.98,-843.82 987.41,-849.84"/>
</g>
<!-- Node13 -->
<g id="node13" class="node">
<title>Node13</title>
<g id="a_node13"><a xlink:href="classQuantConnect_1_1SecurityIdentifier.html#a53953b18d814c5445e4ecdcb3b555080" target="_top" xlink:title="Generates a new SecurityIdentifier for a CFD security">
<polygon fill="white" stroke="black" points="987,-558 987,-588 1161,-588 1161,-558 987,-558"/>
<text text-anchor="start" x="995" y="-576" font-family="Helvetica,sans-Serif" font-size="10.00">QuantConnect.SecurityIdentifier.</text>
<text text-anchor="middle" x="1074" y="-565" font-family="Helvetica,sans-Serif" font-size="10.00">GenerateCfd</text>
</a>
</g>
</g>
<!-- Node2&#45;&gt;Node13 -->
<g id="edge12" class="edge">
<title>Node2&#45;&gt;Node13</title>
<path fill="none" stroke="midnightblue" d="M936.19,-583.11C949.36,-582.14 963.13,-581.12 976.65,-580.12"/>
<polygon fill="midnightblue" stroke="midnightblue" points="977.21,-583.59 986.92,-579.36 976.69,-576.61 977.21,-583.59"/>
</g>
<!-- Node14 -->
<g id="node14" class="node">
<title>Node14</title>
<g id="a_node14"><a xlink:href="classQuantConnect_1_1SecurityIdentifier.html#a5889a95a36ce927dd0a109cbfbcbe663" target="_top" xlink:title="Generates a new SecurityIdentifier for a Crypto pair">
<polygon fill="white" stroke="black" points="987,-803 987,-833 1161,-833 1161,-803 987,-803"/>
<text text-anchor="start" x="995" y="-821" font-family="Helvetica,sans-Serif" font-size="10.00">QuantConnect.SecurityIdentifier.</text>
<text text-anchor="middle" x="1074" y="-810" font-family="Helvetica,sans-Serif" font-size="10.00">GenerateCrypto</text>
</a>
</g>
</g>
<!-- Node2&#45;&gt;Node14 -->
<g id="edge13" class="edge">
<title>Node2&#45;&gt;Node14</title>
<path fill="none" stroke="midnightblue" d="M859.7,-598.96C870.9,-632.19 911.66,-740.27 984,-794 985.88,-795.4 987.83,-796.71 989.85,-797.95"/>
<polygon fill="midnightblue" stroke="midnightblue" points="988.57,-801.23 999.03,-802.9 991.89,-795.07 988.57,-801.23"/>
</g>
<!-- Node15 -->
<g id="node15" class="node">
<title>Node15</title>
<g id="a_node15"><a xlink:href="classQuantConnect_1_1SecurityIdentifier.html#ac665665a16d5449872fed3427b95a260" target="_top" xlink:title="Generates a new SecurityIdentifier for a CryptoFuture pair">
<polygon fill="white" stroke="black" points="987,-754 987,-784 1161,-784 1161,-754 987,-754"/>
<text text-anchor="start" x="995" y="-772" font-family="Helvetica,sans-Serif" font-size="10.00">QuantConnect.SecurityIdentifier.</text>
<text text-anchor="middle" x="1074" y="-761" font-family="Helvetica,sans-Serif" font-size="10.00">GenerateCryptoFuture</text>
</a>
</g>
</g>
<!-- Node2&#45;&gt;Node15 -->
<g id="edge14" class="edge">
<title>Node2&#45;&gt;Node15</title>
<path fill="none" stroke="midnightblue" d="M861.61,-598.83C876.48,-626.44 922.63,-705.27 984,-745 986.46,-746.59 989.02,-748.07 991.65,-749.46"/>
<polygon fill="midnightblue" stroke="midnightblue" points="990.32,-752.71 1000.86,-753.81 993.31,-746.38 990.32,-752.71"/>
</g>
<!-- Node16 -->
<g id="node16" class="node">
<title>Node16</title>
<g id="a_node16"><a xlink:href="classQuantConnect_1_1SecurityIdentifier.html#a9cf0d3b208a5171e6112516ce441f18d" target="_top" xlink:title="Generates a new SecurityIdentifier for a forex pair">
<polygon fill="white" stroke="black" points="987,-705 987,-735 1161,-735 1161,-705 987,-705"/>
<text text-anchor="start" x="995" y="-723" font-family="Helvetica,sans-Serif" font-size="10.00">QuantConnect.SecurityIdentifier.</text>
<text text-anchor="middle" x="1074" y="-712" font-family="Helvetica,sans-Serif" font-size="10.00">GenerateForex</text>
</a>
</g>
</g>
<!-- Node2&#45;&gt;Node16 -->
<g id="edge16" class="edge">
<title>Node2&#45;&gt;Node16</title>
<path fill="none" stroke="midnightblue" d="M865.06,-598.6C884.25,-619.5 933.01,-669.4 984,-696 987.57,-697.86 991.3,-699.59 995.12,-701.19"/>
<polygon fill="midnightblue" stroke="midnightblue" points="994.17,-704.58 1004.76,-704.92 996.7,-698.05 994.17,-704.58"/>
</g>
<!-- Node17 -->
<g id="node17" class="node">
<title>Node17</title>
<g id="a_node17"><a xlink:href="classQuantConnect_1_1SecurityIdentifier.html#ad50a891c97cb0c084a9e2aa43607ed66" target="_top" xlink:title="Generates a new SecurityIdentifier for a future">
<polygon fill="white" stroke="black" points="987,-383 987,-413 1161,-413 1161,-383 987,-383"/>
<text text-anchor="start" x="995" y="-401" font-family="Helvetica,sans-Serif" font-size="10.00">QuantConnect.SecurityIdentifier.</text>
<text text-anchor="middle" x="1074" y="-390" font-family="Helvetica,sans-Serif" font-size="10.00">GenerateFuture</text>
</a>
</g>
</g>
<!-- Node2&#45;&gt;Node17 -->
<g id="edge17" class="edge">
<title>Node2&#45;&gt;Node17</title>
<path fill="none" stroke="midnightblue" d="M875.18,-579.45C895.7,-568.1 928.33,-547.32 948,-521 975.78,-483.83 949.93,-454.5 984,-423 985.68,-421.45 987.44,-420 989.28,-418.63"/>
<polygon fill="midnightblue" stroke="midnightblue" points="991.22,-421.54 997.76,-413.2 987.45,-415.65 991.22,-421.54"/>
</g>
<!-- Node18 -->
<g id="node18" class="node">
<title>Node18</title>
<g id="a_node18"><a xlink:href="classQuantConnect_1_1SecurityIdentifier.html#ade05a8e57b041ab484cf585be8d05699" target="_top" xlink:title="Generates a new SecurityIdentifier for a INDEX security">
<polygon fill="white" stroke="black" points="987,-656 987,-686 1161,-686 1161,-656 987,-656"/>
<text text-anchor="start" x="995" y="-674" font-family="Helvetica,sans-Serif" font-size="10.00">QuantConnect.SecurityIdentifier.</text>
<text text-anchor="middle" x="1074" y="-663" font-family="Helvetica,sans-Serif" font-size="10.00">GenerateIndex</text>
</a>
</g>
</g>
<!-- Node2&#45;&gt;Node18 -->
<g id="edge18" class="edge">
<title>Node2&#45;&gt;Node18</title>
<path fill="none" stroke="midnightblue" d="M875.11,-598.63C899.59,-611.03 944.18,-632.68 984,-647 989.83,-649.1 995.93,-651.11 1002.09,-653.01"/>
<polygon fill="midnightblue" stroke="midnightblue" points="1001.2,-656.4 1011.79,-655.91 1003.21,-649.69 1001.2,-656.4"/>
</g>
<!-- Node19 -->
<g id="node19" class="node">
<title>Node19</title>
<g id="a_node19"><a xlink:href="classQuantConnect_1_1Messages_1_1Symbol.html#ab801bef52a308b8ba7ba6d42e1ef1988" target="_top" xlink:title="Returns a string message saying the given security type has not been implemented yet">
<polygon fill="white" stroke="black" points="984,-607 984,-637 1164,-637 1164,-607 984,-607"/>
<text text-anchor="start" x="992" y="-625" font-family="Helvetica,sans-Serif" font-size="10.00">QuantConnect.Messages.Symbol.</text>
<text text-anchor="middle" x="1074" y="-614" font-family="Helvetica,sans-Serif" font-size="10.00">SecurityTypeNotImplementedYet</text>
</a>
</g>
</g>
<!-- Node2&#45;&gt;Node19 -->
<g id="edge19" class="edge">
<title>Node2&#45;&gt;Node19</title>
<path fill="none" stroke="midnightblue" d="M918.83,-598.5C935.98,-601.12 955.03,-604.02 973.71,-606.87"/>
<polygon fill="midnightblue" stroke="midnightblue" points="973.32,-610.35 983.74,-608.39 974.38,-603.43 973.32,-610.35"/>
</g>
<!-- Node3&#45;&gt;Node4 -->
<g id="edge3" class="edge">
<title>Node3&#45;&gt;Node4</title>
<path fill="none" stroke="midnightblue" d="M1154.77,-459.85C1166.14,-461.69 1177.94,-463.59 1189.59,-465.46"/>
<polygon fill="midnightblue" stroke="midnightblue" points="1189.34,-468.97 1199.77,-467.11 1190.46,-462.06 1189.34,-468.97"/>
</g>
<!-- Node3&#45;&gt;Node5 -->
<g id="edge4" class="edge">
<title>Node3&#45;&gt;Node5</title>
<path fill="none" stroke="midnightblue" d="M1154.77,-434.15C1175.24,-430.85 1197.08,-427.33 1216.95,-424.13"/>
<polygon fill="midnightblue" stroke="midnightblue" points="1217.53,-427.58 1226.84,-422.53 1216.41,-420.67 1217.53,-427.58"/>
</g>
<!-- Node6 -->
<g id="node6" class="node">
<title>Node6</title>
<g id="a_node6"><a xlink:href="classQuantConnect_1_1Symbol.html#a59b0795fa21f46c306deb5576fa03bb9" target="_top" xlink:title="Centralized helper method to resolve alias for a symbol">
<polygon fill="white" stroke="black" points="1410,-336.5 1410,-355.5 1580,-355.5 1580,-336.5 1410,-336.5"/>
<text text-anchor="middle" x="1495" y="-343.5" font-family="Helvetica,sans-Serif" font-size="10.00">QuantConnect.Symbol.GetAlias</text>
</a>
</g>
</g>
<!-- Node5&#45;&gt;Node6 -->
<g id="edge5" class="edge">
<title>Node5&#45;&gt;Node6</title>
<path fill="none" stroke="midnightblue" d="M1317.51,-403.4C1353.62,-391.66 1414.85,-371.74 1454.85,-358.73"/>
<polygon fill="midnightblue" stroke="midnightblue" points="1456.11,-362 1464.54,-355.58 1453.95,-355.35 1456.11,-362"/>
</g>
<!-- Node7 -->
<g id="node7" class="node">
<title>Node7</title>
<g id="a_node7"><a xlink:href="classQuantConnect_1_1SymbolRepresentation.html#ad43ac907f6c19083821f58f21c6de017" target="_top" xlink:title="Returns future symbol ticker from underlying and expiration date. Function can generate tickers of tw...">
<polygon fill="white" stroke="black" points="1616,-307 1616,-337 1819,-337 1819,-307 1616,-307"/>
<text text-anchor="start" x="1624" y="-325" font-family="Helvetica,sans-Serif" font-size="10.00">QuantConnect.SymbolRepresentation.</text>
<text text-anchor="middle" x="1717.5" y="-314" font-family="Helvetica,sans-Serif" font-size="10.00">GenerateFutureTicker</text>
</a>
</g>
</g>
<!-- Node6&#45;&gt;Node7 -->
<g id="edge6" class="edge">
<title>Node6&#45;&gt;Node7</title>
<path fill="none" stroke="midnightblue" d="M1580.31,-336.82C1588.69,-335.91 1597.3,-334.97 1605.9,-334.04"/>
<polygon fill="midnightblue" stroke="midnightblue" points="1606.43,-337.5 1615.99,-332.94 1605.67,-330.54 1606.43,-337.5"/>
</g>
<!-- Node9 -->
<g id="node9" class="node">
<title>Node9</title>
<g id="a_node9"><a xlink:href="classQuantConnect_1_1SymbolRepresentation.html#ab133044f5cf8c16e700190a2202b215e" target="_top" xlink:title="Returns option symbol ticker in accordance with OSI symbology More information can be found at http:/...">
<polygon fill="white" stroke="black" points="1616,-356 1616,-386 1819,-386 1819,-356 1616,-356"/>
<text text-anchor="start" x="1624" y="-374" font-family="Helvetica,sans-Serif" font-size="10.00">QuantConnect.SymbolRepresentation.</text>
<text text-anchor="middle" x="1717.5" y="-363" font-family="Helvetica,sans-Serif" font-size="10.00">GenerateOptionTickerOSI</text>
</a>
</g>
</g>
<!-- Node6&#45;&gt;Node9 -->
<g id="edge8" class="edge">
<title>Node6&#45;&gt;Node9</title>
<path fill="none" stroke="midnightblue" d="M1579.99,-355.52C1588.39,-356.47 1597,-357.45 1605.62,-358.43"/>
<polygon fill="midnightblue" stroke="midnightblue" points="1605.4,-361.93 1615.73,-359.57 1606.19,-354.97 1605.4,-361.93"/>
</g>
<!-- Node8 -->
<g id="node8" class="node">
<title>Node8</title>
<g id="a_node8"><a xlink:href="classQuantConnect_1_1Securities_1_1Future_1_1FuturesExpiryUtilityFunctions.html#a4ccb1e2f2fe40ff09785a74a02f26df1" target="_top" xlink:title="Gets the number of months between the contract month and the expiry date.">
<polygon fill="white" stroke="black" points="1855,-274.5 1855,-315.5 2121,-315.5 2121,-274.5 1855,-274.5"/>
<text text-anchor="start" x="1863" y="-303.5" font-family="Helvetica,sans-Serif" font-size="10.00">QuantConnect.Securities.</text>
<text text-anchor="start" x="1863" y="-292.5" font-family="Helvetica,sans-Serif" font-size="10.00">Future.FuturesExpiryUtilityFunctions.</text>
<text text-anchor="middle" x="1988" y="-281.5" font-family="Helvetica,sans-Serif" font-size="10.00">GetDeltaBetweenContractMonthAndContractExpiry</text>
</a>
</g>
</g>
<!-- Node7&#45;&gt;Node8 -->
<g id="edge7" class="edge">
<title>Node7&#45;&gt;Node8</title>
<path fill="none" stroke="midnightblue" d="M1819.24,-311.87C1827.59,-311.03 1836.11,-310.17 1844.68,-309.31"/>
<polygon fill="midnightblue" stroke="midnightblue" points="1845.16,-312.78 1854.76,-308.3 1844.46,-305.82 1845.16,-312.78"/>
</g>
<!-- Node10 -->
<g id="node10" class="node">
<title>Node10</title>
<g id="a_node10"><a xlink:href="classQuantConnect_1_1Messages_1_1SymbolRepresentation.html#a2c514157d8055cfa271ea3a7ca1ccde7" target="_top" xlink:title="Returns a string message saying an unexpected security type was received by the given method name">
<polygon fill="white" stroke="black" points="1892,-350.5 1892,-391.5 2084,-391.5 2084,-350.5 1892,-350.5"/>
<text text-anchor="start" x="1900" y="-379.5" font-family="Helvetica,sans-Serif" font-size="10.00">QuantConnect.Messages.Symbol</text>
<text text-anchor="start" x="1900" y="-368.5" font-family="Helvetica,sans-Serif" font-size="10.00">Representation.UnexpectedSecurity</text>
<text text-anchor="middle" x="1988" y="-357.5" font-family="Helvetica,sans-Serif" font-size="10.00">TypeForMethod</text>
</a>
</g>
</g>
<!-- Node9&#45;&gt;Node10 -->
<g id="edge9" class="edge">
<title>Node9&#45;&gt;Node10</title>
<path fill="none" stroke="midnightblue" d="M1819.24,-371C1839.7,-371 1861.27,-371 1881.88,-371"/>
<polygon fill="midnightblue" stroke="midnightblue" points="1881.91,-374.5 1891.91,-371 1881.91,-367.5 1881.91,-374.5"/>
</g>
<!-- Node12 -->
<g id="node12" class="node">
<title>Node12</title>
<g id="a_node12"><a xlink:href="classQuantConnect_1_1SecurityIdentifier.html#a19e1f9da410608020d74ed9e7d283575" target="_top" xlink:title="Generates the Symbol property for QuantConnect.SecurityType.Base security identifiers">
<polygon fill="white" stroke="black" points="1200,-852 1200,-882 1374,-882 1374,-852 1200,-852"/>
<text text-anchor="start" x="1208" y="-870" font-family="Helvetica,sans-Serif" font-size="10.00">QuantConnect.SecurityIdentifier.</text>
<text text-anchor="middle" x="1287" y="-859" font-family="Helvetica,sans-Serif" font-size="10.00">GenerateBaseSymbol</text>
</a>
</g>
</g>
<!-- Node11&#45;&gt;Node12 -->
<g id="edge11" class="edge">
<title>Node11&#45;&gt;Node12</title>
<path fill="none" stroke="midnightblue" d="M1161.13,-867C1170.5,-867 1180.08,-867 1189.57,-867"/>
<polygon fill="midnightblue" stroke="midnightblue" points="1189.81,-870.5 1199.81,-867 1189.81,-863.5 1189.81,-870.5"/>
</g>
<!-- Node20&#45;&gt;Node5 -->
<g id="edge24" class="edge">
<title>Node20&#45;&gt;Node5</title>
<path fill="none" stroke="midnightblue" d="M936.13,-332.3C998.58,-341.14 1087.45,-355.39 1164,-374 1193.44,-381.16 1226.09,-391.74 1250.2,-400.08"/>
<polygon fill="midnightblue" stroke="midnightblue" points="1249.06,-403.38 1259.65,-403.38 1251.37,-396.78 1249.06,-403.38"/>
</g>
<!-- Node20&#45;&gt;Node6 -->
<g id="edge23" class="edge">
<title>Node20&#45;&gt;Node6</title>
<path fill="none" stroke="midnightblue" d="M936.27,-325C1053.99,-329.43 1273.82,-337.71 1399.47,-342.44"/>
<polygon fill="midnightblue" stroke="midnightblue" points="1399.71,-345.95 1409.84,-342.83 1399.97,-338.96 1399.71,-345.95"/>
</g>
<!-- Node20&#45;&gt;Node17 -->
<g id="edge22" class="edge">
<title>Node20&#45;&gt;Node17</title>
<path fill="none" stroke="midnightblue" d="M905.73,-337.13C919.51,-341.64 934.43,-346.77 948,-352 964.34,-358.29 967.69,-361.64 984,-368 994.24,-371.99 1005.25,-375.96 1015.92,-379.64"/>
<polygon fill="midnightblue" stroke="midnightblue" points="1015,-383.02 1025.59,-382.93 1017.25,-376.39 1015,-383.02"/>
</g>
<!-- Node22 -->
<g id="node22" class="node">
<title>Node22</title>
<g id="a_node22"><a xlink:href="interfaceQuantConnect_1_1Logging_1_1ILogHandler.html#a2c738b8e78dd5b54244bc68b969ba91d" target="_top" xlink:title="Write debug message to log">
<polygon fill="white" stroke="black" points="557.5,-231 557.5,-261 707.5,-261 707.5,-231 557.5,-231"/>
<text text-anchor="start" x="565.5" y="-249" font-family="Helvetica,sans-Serif" font-size="10.00">QuantConnect.Logging.ILog</text>
<text text-anchor="middle" x="632.5" y="-238" font-family="Helvetica,sans-Serif" font-size="10.00">Handler.Debug</text>
</a>
</g>
</g>
<!-- Node21&#45;&gt;Node22 -->
<g id="edge27" class="edge">
<title>Node21&#45;&gt;Node22</title>
<path fill="none" stroke="midnightblue" d="M445.66,-246C477.35,-246 514.51,-246 547.24,-246"/>
<polygon fill="midnightblue" stroke="midnightblue" points="547.24,-249.5 557.24,-246 547.24,-242.5 547.24,-249.5"/>
</g>
<!-- Node24 -->
<g id="node24" class="node">
<title>Node24</title>
<g id="a_node24"><a xlink:href="classQuantConnect_1_1Globals.html#ae01b5c94ef475a21ab1a62fe1b04ea5c" target="_top" xlink:title="Helper method that will build a data folder path checking if it exists on the cache folder else will ...">
<polygon fill="white" stroke="black" points="559.5,-121 559.5,-151 705.5,-151 705.5,-121 559.5,-121"/>
<text text-anchor="start" x="567.5" y="-139" font-family="Helvetica,sans-Serif" font-size="10.00">QuantConnect.Globals.Get</text>
<text text-anchor="middle" x="632.5" y="-128" font-family="Helvetica,sans-Serif" font-size="10.00">DataFolderPath</text>
</a>
</g>
</g>
<!-- Node23&#45;&gt;Node24 -->
<g id="edge29" class="edge">
<title>Node23&#45;&gt;Node24</title>
<path fill="none" stroke="midnightblue" d="M459.16,-172.46C488.57,-166.24 521.22,-159.33 550.13,-153.21"/>
<polygon fill="midnightblue" stroke="midnightblue" points="551.13,-156.58 560.18,-151.09 549.68,-149.73 551.13,-156.58"/>
</g>
<!-- Node25 -->
<g id="node25" class="node">
<title>Node25</title>
<g id="a_node25"><a xlink:href="classQuantConnect_1_1Securities_1_1SymbolPropertiesDatabase.html#a1658f93bf0dce7022bb7584e1a95cc7a" target="_top" xlink:title="Initialize a new instance of SymbolPropertiesDatabase using the given file">
<polygon fill="white" stroke="black" points="538,-170.5 538,-211.5 727,-211.5 727,-170.5 538,-170.5"/>
<text text-anchor="start" x="546" y="-199.5" font-family="Helvetica,sans-Serif" font-size="10.00">QuantConnect.Securities.</text>
<text text-anchor="start" x="546" y="-188.5" font-family="Helvetica,sans-Serif" font-size="10.00">SymbolPropertiesDatabase.Symbol</text>
<text text-anchor="middle" x="632.5" y="-177.5" font-family="Helvetica,sans-Serif" font-size="10.00">PropertiesDatabase</text>
</a>
</g>
</g>
<!-- Node23&#45;&gt;Node25 -->
<g id="edge30" class="edge">
<title>Node23&#45;&gt;Node25</title>
<path fill="none" stroke="midnightblue" d="M459.16,-191C481.25,-191 505.17,-191 527.96,-191"/>
<polygon fill="midnightblue" stroke="midnightblue" points="527.99,-194.5 537.99,-191 527.99,-187.5 527.99,-194.5"/>
</g>
<!-- Node26 -->
<g id="node26" class="node">
<title>Node26</title>
<g id="a_node26"><a xlink:href="classQuantConnect_1_1Messages_1_1SymbolPropertiesDatabase.html#a6abceae517a349a28223bfc2dc9106d7" target="_top" xlink:title="Returns a string saying a duplicated key was found while processing the given file">
<polygon fill="white" stroke="black" points="765.5,-170.5 765.5,-211.5 945.5,-211.5 945.5,-170.5 765.5,-170.5"/>
<text text-anchor="start" x="773.5" y="-199.5" font-family="Helvetica,sans-Serif" font-size="10.00">QuantConnect.Messages.Symbol</text>
<text text-anchor="start" x="773.5" y="-188.5" font-family="Helvetica,sans-Serif" font-size="10.00">PropertiesDatabase.DuplicateKey</text>
<text text-anchor="middle" x="855.5" y="-177.5" font-family="Helvetica,sans-Serif" font-size="10.00">InFile</text>
</a>
</g>
</g>
<!-- Node25&#45;&gt;Node26 -->
<g id="edge31" class="edge">
<title>Node25&#45;&gt;Node26</title>
<path fill="none" stroke="midnightblue" d="M727.22,-191C736.47,-191 745.87,-191 755.17,-191"/>
<polygon fill="midnightblue" stroke="midnightblue" points="755.21,-194.5 765.21,-191 755.21,-187.5 755.21,-194.5"/>
</g>
<!-- Node28&#45;&gt;Node2 -->
<g id="edge34" class="edge">
<title>Node28&#45;&gt;Node2</title>
<path fill="none" stroke="midnightblue" d="M406.95,-484.66C439.84,-502.88 490.68,-528.69 538,-543 612.54,-565.54 700.4,-577.19 764.61,-583.12"/>
<polygon fill="midnightblue" stroke="midnightblue" points="764.44,-586.62 774.71,-584.02 765.06,-579.64 764.44,-586.62"/>
</g>
<!-- Node28&#45;&gt;Node3 -->
<g id="edge35" class="edge">
<title>Node28&#45;&gt;Node3</title>
<path fill="none" stroke="midnightblue" d="M502.21,-460.83C642.36,-457.44 861.14,-452.13 983.11,-449.18"/>
<polygon fill="midnightblue" stroke="midnightblue" points="983.26,-452.68 993.17,-448.93 983.09,-445.68 983.26,-452.68"/>
</g>
<!-- Node28&#45;&gt;Node8 -->
<g id="edge41" class="edge">
<title>Node28&#45;&gt;Node8</title>
<path fill="none" stroke="midnightblue" d="M408.13,-443.47C475.79,-406.72 625.97,-330.48 763,-298 897.34,-266.16 934.94,-278 1073,-278 1073,-278 1073,-278 1496,-278 1613.49,-278 1746.71,-282.92 1844.7,-287.47"/>
<polygon fill="midnightblue" stroke="midnightblue" points="1844.82,-290.98 1854.97,-287.95 1845.15,-283.99 1844.82,-290.98"/>
</g>
<!-- Node29 -->
<g id="node29" class="node">
<title>Node29</title>
<g id="a_node29"><a xlink:href="classQuantConnect_1_1Securities_1_1FutureOption_1_1FuturesOptionsExpiryFunctions.html#af3cfd4b1910ae9ed1d89c96316ff341a" target="_top" xlink:title="Gets the Futures Options&#39; expiry for the given contract month.">
<polygon fill="white" stroke="black" points="539,-492.5 539,-533.5 726,-533.5 726,-492.5 539,-492.5"/>
<text text-anchor="start" x="547" y="-521.5" font-family="Helvetica,sans-Serif" font-size="10.00">QuantConnect.Securities.</text>
<text text-anchor="start" x="547" y="-510.5" font-family="Helvetica,sans-Serif" font-size="10.00">FutureOption.FuturesOptionsExpiry</text>
<text text-anchor="middle" x="632.5" y="-499.5" font-family="Helvetica,sans-Serif" font-size="10.00">Functions.FuturesOptionExpiry</text>
</a>
</g>
</g>
<!-- Node28&#45;&gt;Node29 -->
<g id="edge36" class="edge">
<title>Node28&#45;&gt;Node29</title>
<path fill="none" stroke="midnightblue" d="M480.63,-484.57C496.48,-487.55 512.75,-490.62 528.47,-493.58"/>
<polygon fill="midnightblue" stroke="midnightblue" points="528.23,-497.1 538.71,-495.51 529.53,-490.22 528.23,-497.1"/>
</g>
<!-- Node29&#45;&gt;Node2 -->
<g id="edge37" class="edge">
<title>Node29&#45;&gt;Node2</title>
<path fill="none" stroke="midnightblue" d="M693.31,-533.57C732.86,-547.17 783.49,-564.58 817.35,-576.22"/>
<polygon fill="midnightblue" stroke="midnightblue" points="816.27,-579.55 826.86,-579.5 818.54,-572.93 816.27,-579.55"/>
</g>
<!-- Node29&#45;&gt;Node3 -->
<g id="edge38" class="edge">
<title>Node29&#45;&gt;Node3</title>
<path fill="none" stroke="midnightblue" d="M710.22,-533.56C776.49,-547.1 873.1,-556.49 948,-521 970.83,-510.18 963.22,-491.37 984,-477 989.99,-472.86 996.61,-469.24 1003.44,-466.1"/>
<polygon fill="midnightblue" stroke="midnightblue" points="1005.02,-469.24 1012.86,-462.11 1002.28,-462.79 1005.02,-469.24"/>
</g>
<!-- Node29&#45;&gt;Node27 -->
<g id="edge39" class="edge">
<title>Node29&#45;&gt;Node27</title>
<path fill="none" stroke="midnightblue" d="M679.83,-492.46C714.45,-477.1 761.94,-456.04 798.66,-439.76"/>
<polygon fill="midnightblue" stroke="midnightblue" points="800.51,-442.77 808.23,-435.52 797.67,-436.37 800.51,-442.77"/>
</g>
<!-- Node30 -->
<g id="node30" class="node">
<title>Node30</title>
<g id="a_node30"><a xlink:href="classQuantConnect_1_1Symbol.html#a1f3c25223fd9a7b753a4f84ece6469ab" target="_top" xlink:title="Method returns true, if symbol is a derivative canonical symbol">
<polygon fill="white" stroke="black" points="763,-492.5 763,-511.5 948,-511.5 948,-492.5 763,-492.5"/>
<text text-anchor="middle" x="855.5" y="-499.5" font-family="Helvetica,sans-Serif" font-size="10.00">QuantConnect.Symbol.IsCanonical</text>
</a>
</g>
</g>
<!-- Node29&#45;&gt;Node30 -->
<g id="edge40" class="edge">
<title>Node29&#45;&gt;Node30</title>
<path fill="none" stroke="midnightblue" d="M726.26,-508.38C734.92,-507.95 743.73,-507.51 752.47,-507.08"/>
<polygon fill="midnightblue" stroke="midnightblue" points="752.87,-510.56 762.68,-506.57 752.52,-503.57 752.87,-510.56"/>
</g>
</g>
</svg>
