<?xml version="1.0" encoding="UTF-8" standalone="no"?>
<!DOCTYPE svg PUBLIC "-//W3C//DTD SVG 1.1//EN"
 "http://www.w3.org/Graphics/SVG/1.1/DTD/svg11.dtd">
<!-- Generated by graphviz version 2.43.0 (0)
 -->
<!-- Title: QuantConnect.Securities.FutureOption.FuturesOptionsExpiryFunctions.GetFutureOptionExpiryFromFutureExpiry Pages: 1 -->
<!--zoomable 538 -->
<svg id="main" version="1.1" xmlns="http://www.w3.org/2000/svg" xmlns:xlink="http://www.w3.org/1999/xlink" xml:space="preserve" onload="init(evt)">
<style type="text/css"><![CDATA[
.edge:hover path { stroke: red; }
.edge:hover polygon { stroke: red; fill: red; }
]]></style>
<script type="text/javascript"><![CDATA[
var edges = document.getElementsByTagName('g');
if (edges && edges.length) {
  for (var i=0;i<edges.length;i++) {
    if (edges[i].id.substr(0,4)=='edge') {
      edges[i].setAttribute('class','edge');
    }
  }
}
]]></script>
        <defs>
                <circle id="rim" cx="0" cy="0" r="7"/>
                <circle id="rim2" cx="0" cy="0" r="3.5"/>
                <g id="zoomPlus">
                        <use xlink:href="#rim" fill="#404040">
                                <set attributeName="fill" to="#808080" begin="zoomplus.mouseover" end="zoomplus.mouseout"/>
                        </use>
                        <path d="M-4,0h8M0,-4v8" fill="none" stroke="white" stroke-width="1.5" pointer-events="none"/>
                </g>
                <g id="zoomMin">
                        <use xlink:href="#rim" fill="#404040">
                                <set attributeName="fill" to="#808080" begin="zoomminus.mouseover" end="zoomminus.mouseout"/>
                        </use>
                        <path d="M-4,0h8" fill="none" stroke="white" stroke-width="1.5" pointer-events="none"/>
                </g>
                <g id="dirArrow">
                        <path fill="none" stroke="white" stroke-width="1.5" d="M0,-3.0v7 M-2.5,-0.5L0,-3.0L2.5,-0.5"/>
                </g>
               <g id="resetDef">
                       <use xlink:href="#rim2" fill="#404040">
                               <set attributeName="fill" to="#808080" begin="reset.mouseover" end="reset.mouseout"/>
                       </use>
               </g>
        </defs>

<script type="text/javascript">
var viewWidth = 1888;
var viewHeight = 538;
var sectionId = 'dynsection-2';
</script>
<script xlink:href="svgpan.js"/>
<svg id="graph" class="graph">
<g id="viewport">
<title>QuantConnect.Securities.FutureOption.FuturesOptionsExpiryFunctions.GetFutureOptionExpiryFromFutureExpiry</title>
<polygon fill="white" stroke="transparent" points="-4,4 -4,-533.5 1884,-533.5 1884,4 -4,4"/>
<!-- Node1 -->
<g id="node1" class="node">
<title>Node1</title>
<g id="a_node1"><a xlink:title="Gets the Future Option&#39;s expiry from the Future Symbol provided">
<polygon fill="#bfbfbf" stroke="black" points="0,-290.5 0,-331.5 263,-331.5 263,-290.5 0,-290.5"/>
<text text-anchor="start" x="8" y="-319.5" font-family="Helvetica,sans-Serif" font-size="10.00">QuantConnect.Securities.</text>
<text text-anchor="start" x="8" y="-308.5" font-family="Helvetica,sans-Serif" font-size="10.00">FutureOption.FuturesOptionsExpiry</text>
<text text-anchor="middle" x="131.5" y="-297.5" font-family="Helvetica,sans-Serif" font-size="10.00">Functions.GetFutureOptionExpiryFromFutureExpiry</text>
</a>
</g>
</g>
<!-- Node2 -->
<g id="node2" class="node">
<title>Node2</title>
<g id="a_node2"><a xlink:href="classQuantConnect_1_1Symbol.html#a350b9a625cf7bad95da82894be3cd0a8" target="_top" xlink:title="Provides a convenience method for creating a Symbol for most security types. This method currently do...">
<polygon fill="white" stroke="black" points="534,-277.5 534,-296.5 695,-296.5 695,-277.5 534,-277.5"/>
<text text-anchor="middle" x="614.5" y="-284.5" font-family="Helvetica,sans-Serif" font-size="10.00">QuantConnect.Symbol.Create</text>
</a>
</g>
</g>
<!-- Node1&#45;&gt;Node2 -->
<g id="edge1" class="edge">
<title>Node1&#45;&gt;Node2</title>
<path fill="none" stroke="midnightblue" d="M263.3,-304.47C345.93,-300.35 450.55,-295.13 523.83,-291.47"/>
<polygon fill="midnightblue" stroke="midnightblue" points="524.15,-294.96 533.96,-290.97 523.8,-287.97 524.15,-294.96"/>
</g>
<!-- Node3 -->
<g id="node3" class="node">
<title>Node3</title>
<g id="a_node3"><a xlink:href="classQuantConnect_1_1Symbol.html#a7518a1932d1babbff128f2ba9666a78b" target="_top" xlink:title="Provides a convenience method for creating an option Symbol.">
<polygon fill="white" stroke="black" points="752.5,-499 752.5,-529 913.5,-529 913.5,-499 752.5,-499"/>
<text text-anchor="start" x="760.5" y="-517" font-family="Helvetica,sans-Serif" font-size="10.00">QuantConnect.Symbol.Create</text>
<text text-anchor="middle" x="833" y="-506" font-family="Helvetica,sans-Serif" font-size="10.00">Option</text>
</a>
</g>
</g>
<!-- Node1&#45;&gt;Node3 -->
<g id="edge21" class="edge">
<title>Node1&#45;&gt;Node3</title>
<path fill="none" stroke="midnightblue" d="M182.47,-331.6C255.87,-361.25 397.61,-416.2 522,-451 595.15,-471.46 679.74,-488.2 742.06,-499.27"/>
<polygon fill="midnightblue" stroke="midnightblue" points="741.79,-502.78 752.25,-501.07 743.01,-495.88 741.79,-502.78"/>
</g>
<!-- Node8 -->
<g id="node8" class="node">
<title>Node8</title>
<g id="a_node8"><a xlink:href="classQuantConnect_1_1Securities_1_1Future_1_1FuturesExpiryUtilityFunctions.html#a4ccb1e2f2fe40ff09785a74a02f26df1" target="_top" xlink:title="Gets the number of months between the contract month and the expiry date.">
<polygon fill="white" stroke="black" points="1614,-55.5 1614,-96.5 1880,-96.5 1880,-55.5 1614,-55.5"/>
<text text-anchor="start" x="1622" y="-84.5" font-family="Helvetica,sans-Serif" font-size="10.00">QuantConnect.Securities.</text>
<text text-anchor="start" x="1622" y="-73.5" font-family="Helvetica,sans-Serif" font-size="10.00">Future.FuturesExpiryUtilityFunctions.</text>
<text text-anchor="middle" x="1747" y="-62.5" font-family="Helvetica,sans-Serif" font-size="10.00">GetDeltaBetweenContractMonthAndContractExpiry</text>
</a>
</g>
</g>
<!-- Node1&#45;&gt;Node8 -->
<g id="edge27" class="edge">
<title>Node1&#45;&gt;Node8</title>
<path fill="none" stroke="midnightblue" d="M148.72,-290.11C204.85,-220.38 399.2,0 613.5,0 613.5,0 613.5,0 1255,0 1395.52,0 1556.03,-30.78 1654.18,-53.16"/>
<polygon fill="midnightblue" stroke="midnightblue" points="1653.54,-56.6 1664.07,-55.43 1655.11,-49.78 1653.54,-56.6"/>
</g>
<!-- Node20 -->
<g id="node20" class="node">
<title>Node20</title>
<g id="a_node20"><a xlink:href="classQuantConnect_1_1Securities_1_1FutureOption_1_1FuturesOptionsExpiryFunctions.html#af3cfd4b1910ae9ed1d89c96316ff341a" target="_top" xlink:title="Gets the Futures Options&#39; expiry for the given contract month.">
<polygon fill="white" stroke="black" points="299,-315.5 299,-356.5 486,-356.5 486,-315.5 299,-315.5"/>
<text text-anchor="start" x="307" y="-344.5" font-family="Helvetica,sans-Serif" font-size="10.00">QuantConnect.Securities.</text>
<text text-anchor="start" x="307" y="-333.5" font-family="Helvetica,sans-Serif" font-size="10.00">FutureOption.FuturesOptionsExpiry</text>
<text text-anchor="middle" x="392.5" y="-322.5" font-family="Helvetica,sans-Serif" font-size="10.00">Functions.FuturesOptionExpiry</text>
</a>
</g>
</g>
<!-- Node1&#45;&gt;Node20 -->
<g id="edge22" class="edge">
<title>Node1&#45;&gt;Node20</title>
<path fill="none" stroke="midnightblue" d="M263.14,-323.61C271.72,-324.44 280.29,-325.27 288.71,-326.08"/>
<polygon fill="midnightblue" stroke="midnightblue" points="288.6,-329.58 298.89,-327.06 289.27,-322.62 288.6,-329.58"/>
</g>
<!-- Node2&#45;&gt;Node3 -->
<g id="edge2" class="edge">
<title>Node2&#45;&gt;Node3</title>
<path fill="none" stroke="midnightblue" d="M694.66,-296.73C699.16,-299.26 703.34,-302.32 707,-306 763.92,-363.22 689.62,-423.46 743,-484 746.12,-487.54 749.67,-490.65 753.51,-493.41"/>
<polygon fill="midnightblue" stroke="midnightblue" points="751.99,-496.58 762.33,-498.87 755.67,-490.63 751.99,-496.58"/>
</g>
<!-- Node4 -->
<g id="node4" class="node">
<title>Node4</title>
<g id="a_node4"><a xlink:href="classQuantConnect_1_1SecurityIdentifier.html#a0c21d7880c9fdd260883d11ea0c99a00" target="_top" xlink:title="Helper overload that will search the mapfiles to resolve the first date. This implementation uses the...">
<polygon fill="white" stroke="black" points="959,-477 959,-507 1133,-507 1133,-477 959,-477"/>
<text text-anchor="start" x="967" y="-495" font-family="Helvetica,sans-Serif" font-size="10.00">QuantConnect.SecurityIdentifier.</text>
<text text-anchor="middle" x="1046" y="-484" font-family="Helvetica,sans-Serif" font-size="10.00">GenerateEquity</text>
</a>
</g>
</g>
<!-- Node2&#45;&gt;Node4 -->
<g id="edge15" class="edge">
<title>Node2&#45;&gt;Node4</title>
<path fill="none" stroke="midnightblue" d="M694.05,-296.68C698.76,-299.22 703.14,-302.29 707,-306 754.85,-352.04 693.57,-406.66 743,-451 772.64,-477.59 871.8,-487.08 948.49,-490.4"/>
<polygon fill="midnightblue" stroke="midnightblue" points="948.55,-493.9 958.68,-490.81 948.83,-486.91 948.55,-493.9"/>
</g>
<!-- Node5 -->
<g id="node5" class="node">
<title>Node5</title>
<g id="a_node5"><a xlink:href="classQuantConnect_1_1Symbol.html#a59158f74116be3dad0ea0f3f3f134416" target="_top" xlink:title="Initializes a new instance of the Symbol class">
<polygon fill="white" stroke="black" points="963.5,-176.5 963.5,-195.5 1128.5,-195.5 1128.5,-176.5 963.5,-176.5"/>
<text text-anchor="middle" x="1046" y="-183.5" font-family="Helvetica,sans-Serif" font-size="10.00">QuantConnect.Symbol.Symbol</text>
</a>
</g>
</g>
<!-- Node2&#45;&gt;Node5 -->
<g id="edge20" class="edge">
<title>Node2&#45;&gt;Node5</title>
<path fill="none" stroke="midnightblue" d="M626.45,-277.28C647.35,-259.39 695.14,-221.65 743,-206 811.13,-183.72 892.39,-179.51 953.46,-180.43"/>
<polygon fill="midnightblue" stroke="midnightblue" points="953.39,-183.93 963.46,-180.63 953.53,-176.93 953.39,-183.93"/>
</g>
<!-- Node11 -->
<g id="node11" class="node">
<title>Node11</title>
<g id="a_node11"><a xlink:href="classQuantConnect_1_1SecurityIdentifier.html#a02ca750115844561c001c2346fbafc00" target="_top" xlink:title="Generates a new SecurityIdentifier for a custom security with the option of providing the first date">
<polygon fill="white" stroke="black" points="746,-127 746,-157 920,-157 920,-127 746,-127"/>
<text text-anchor="start" x="754" y="-145" font-family="Helvetica,sans-Serif" font-size="10.00">QuantConnect.SecurityIdentifier.</text>
<text text-anchor="middle" x="833" y="-134" font-family="Helvetica,sans-Serif" font-size="10.00">GenerateBase</text>
</a>
</g>
</g>
<!-- Node2&#45;&gt;Node11 -->
<g id="edge10" class="edge">
<title>Node2&#45;&gt;Node11</title>
<path fill="none" stroke="midnightblue" d="M623.75,-277.22C642.67,-255.37 691.55,-202.11 743,-172 750.28,-167.74 758.26,-163.97 766.35,-160.68"/>
<polygon fill="midnightblue" stroke="midnightblue" points="767.78,-163.88 775.86,-157.03 765.27,-157.34 767.78,-163.88"/>
</g>
<!-- Node13 -->
<g id="node13" class="node">
<title>Node13</title>
<g id="a_node13"><a xlink:href="classQuantConnect_1_1SecurityIdentifier.html#a53953b18d814c5445e4ecdcb3b555080" target="_top" xlink:title="Generates a new SecurityIdentifier for a CFD security">
<polygon fill="white" stroke="black" points="746,-78 746,-108 920,-108 920,-78 746,-78"/>
<text text-anchor="start" x="754" y="-96" font-family="Helvetica,sans-Serif" font-size="10.00">QuantConnect.SecurityIdentifier.</text>
<text text-anchor="middle" x="833" y="-85" font-family="Helvetica,sans-Serif" font-size="10.00">GenerateCfd</text>
</a>
</g>
</g>
<!-- Node2&#45;&gt;Node13 -->
<g id="edge12" class="edge">
<title>Node2&#45;&gt;Node13</title>
<path fill="none" stroke="midnightblue" d="M619.96,-277.13C633.73,-247.83 678.55,-160.65 743,-117 745.28,-115.45 747.66,-114.01 750.11,-112.66"/>
<polygon fill="midnightblue" stroke="midnightblue" points="751.83,-115.71 759.25,-108.15 748.74,-109.43 751.83,-115.71"/>
</g>
<!-- Node14 -->
<g id="node14" class="node">
<title>Node14</title>
<g id="a_node14"><a xlink:href="classQuantConnect_1_1SecurityIdentifier.html#a5889a95a36ce927dd0a109cbfbcbe663" target="_top" xlink:title="Generates a new SecurityIdentifier for a Crypto pair">
<polygon fill="white" stroke="black" points="746,-29 746,-59 920,-59 920,-29 746,-29"/>
<text text-anchor="start" x="754" y="-47" font-family="Helvetica,sans-Serif" font-size="10.00">QuantConnect.SecurityIdentifier.</text>
<text text-anchor="middle" x="833" y="-36" font-family="Helvetica,sans-Serif" font-size="10.00">GenerateCrypto</text>
</a>
</g>
</g>
<!-- Node2&#45;&gt;Node14 -->
<g id="edge13" class="edge">
<title>Node2&#45;&gt;Node14</title>
<path fill="none" stroke="midnightblue" d="M618.2,-277.34C628.29,-243.04 667.2,-126.04 743,-68 744.81,-66.62 746.69,-65.31 748.63,-64.08"/>
<polygon fill="midnightblue" stroke="midnightblue" points="750.44,-67.08 757.48,-59.16 747.04,-60.96 750.44,-67.08"/>
</g>
<!-- Node15 -->
<g id="node15" class="node">
<title>Node15</title>
<g id="a_node15"><a xlink:href="classQuantConnect_1_1SecurityIdentifier.html#ac665665a16d5449872fed3427b95a260" target="_top" xlink:title="Generates a new SecurityIdentifier for a CryptoFuture pair">
<polygon fill="white" stroke="black" points="746,-411 746,-441 920,-441 920,-411 746,-411"/>
<text text-anchor="start" x="754" y="-429" font-family="Helvetica,sans-Serif" font-size="10.00">QuantConnect.SecurityIdentifier.</text>
<text text-anchor="middle" x="833" y="-418" font-family="Helvetica,sans-Serif" font-size="10.00">GenerateCryptoFuture</text>
</a>
</g>
</g>
<!-- Node2&#45;&gt;Node15 -->
<g id="edge14" class="edge">
<title>Node2&#45;&gt;Node15</title>
<path fill="none" stroke="midnightblue" d="M692.25,-296.56C697.57,-299.09 702.56,-302.2 707,-306 741.61,-335.65 709.28,-371.35 743,-402 744.3,-403.18 745.66,-404.31 747.06,-405.38"/>
<polygon fill="midnightblue" stroke="midnightblue" points="745.25,-408.38 755.53,-410.94 749.09,-402.53 745.25,-408.38"/>
</g>
<!-- Node16 -->
<g id="node16" class="node">
<title>Node16</title>
<g id="a_node16"><a xlink:href="classQuantConnect_1_1SecurityIdentifier.html#a9cf0d3b208a5171e6112516ce441f18d" target="_top" xlink:title="Generates a new SecurityIdentifier for a forex pair">
<polygon fill="white" stroke="black" points="746,-362 746,-392 920,-392 920,-362 746,-362"/>
<text text-anchor="start" x="754" y="-380" font-family="Helvetica,sans-Serif" font-size="10.00">QuantConnect.SecurityIdentifier.</text>
<text text-anchor="middle" x="833" y="-369" font-family="Helvetica,sans-Serif" font-size="10.00">GenerateForex</text>
</a>
</g>
</g>
<!-- Node2&#45;&gt;Node16 -->
<g id="edge16" class="edge">
<title>Node2&#45;&gt;Node16</title>
<path fill="none" stroke="midnightblue" d="M686.91,-296.53C693.98,-299.01 700.82,-302.12 707,-306 729.28,-320 721.14,-338.35 743,-353 745.43,-354.63 747.97,-356.15 750.58,-357.56"/>
<polygon fill="midnightblue" stroke="midnightblue" points="749.22,-360.79 759.74,-361.99 752.26,-354.49 749.22,-360.79"/>
</g>
<!-- Node17 -->
<g id="node17" class="node">
<title>Node17</title>
<g id="a_node17"><a xlink:href="classQuantConnect_1_1SecurityIdentifier.html#ad50a891c97cb0c084a9e2aa43607ed66" target="_top" xlink:title="Generates a new SecurityIdentifier for a future">
<polygon fill="white" stroke="black" points="746,-313 746,-343 920,-343 920,-313 746,-313"/>
<text text-anchor="start" x="754" y="-331" font-family="Helvetica,sans-Serif" font-size="10.00">QuantConnect.SecurityIdentifier.</text>
<text text-anchor="middle" x="833" y="-320" font-family="Helvetica,sans-Serif" font-size="10.00">GenerateFuture</text>
</a>
</g>
</g>
<!-- Node2&#45;&gt;Node17 -->
<g id="edge17" class="edge">
<title>Node2&#45;&gt;Node17</title>
<path fill="none" stroke="midnightblue" d="M665.71,-296.51C688.53,-300.83 716.23,-306.08 742.43,-311.04"/>
<polygon fill="midnightblue" stroke="midnightblue" points="741.91,-314.5 752.38,-312.92 743.21,-307.62 741.91,-314.5"/>
</g>
<!-- Node18 -->
<g id="node18" class="node">
<title>Node18</title>
<g id="a_node18"><a xlink:href="classQuantConnect_1_1SecurityIdentifier.html#ade05a8e57b041ab484cf585be8d05699" target="_top" xlink:title="Generates a new SecurityIdentifier for a INDEX security">
<polygon fill="white" stroke="black" points="746,-264 746,-294 920,-294 920,-264 746,-264"/>
<text text-anchor="start" x="754" y="-282" font-family="Helvetica,sans-Serif" font-size="10.00">QuantConnect.SecurityIdentifier.</text>
<text text-anchor="middle" x="833" y="-271" font-family="Helvetica,sans-Serif" font-size="10.00">GenerateIndex</text>
</a>
</g>
</g>
<!-- Node2&#45;&gt;Node18 -->
<g id="edge18" class="edge">
<title>Node2&#45;&gt;Node18</title>
<path fill="none" stroke="midnightblue" d="M695.19,-284.06C708.36,-283.57 722.13,-283.06 735.65,-282.56"/>
<polygon fill="midnightblue" stroke="midnightblue" points="736.06,-286.05 745.92,-282.18 735.8,-279.05 736.06,-286.05"/>
</g>
<!-- Node19 -->
<g id="node19" class="node">
<title>Node19</title>
<g id="a_node19"><a xlink:href="classQuantConnect_1_1Messages_1_1Symbol.html#ab801bef52a308b8ba7ba6d42e1ef1988" target="_top" xlink:title="Returns a string message saying the given security type has not been implemented yet">
<polygon fill="white" stroke="black" points="743,-215 743,-245 923,-245 923,-215 743,-215"/>
<text text-anchor="start" x="751" y="-233" font-family="Helvetica,sans-Serif" font-size="10.00">QuantConnect.Messages.Symbol.</text>
<text text-anchor="middle" x="833" y="-222" font-family="Helvetica,sans-Serif" font-size="10.00">SecurityTypeNotImplementedYet</text>
</a>
</g>
</g>
<!-- Node2&#45;&gt;Node19 -->
<g id="edge19" class="edge">
<title>Node2&#45;&gt;Node19</title>
<path fill="none" stroke="midnightblue" d="M651.74,-277.46C682.57,-269.34 727.66,-257.47 765.03,-247.63"/>
<polygon fill="midnightblue" stroke="midnightblue" points="766.07,-250.98 774.85,-245.05 764.29,-244.21 766.07,-250.98"/>
</g>
<!-- Node3&#45;&gt;Node4 -->
<g id="edge3" class="edge">
<title>Node3&#45;&gt;Node4</title>
<path fill="none" stroke="midnightblue" d="M913.77,-505.68C925.14,-504.5 936.94,-503.27 948.59,-502.05"/>
<polygon fill="midnightblue" stroke="midnightblue" points="949.19,-505.51 958.77,-500.99 948.46,-498.55 949.19,-505.51"/>
</g>
<!-- Node3&#45;&gt;Node5 -->
<g id="edge4" class="edge">
<title>Node3&#45;&gt;Node5</title>
<path fill="none" stroke="midnightblue" d="M862.66,-498.99C881.75,-487.83 906.31,-471.1 923,-451 988.61,-372.01 1026.82,-251.92 1039.88,-205.38"/>
<polygon fill="midnightblue" stroke="midnightblue" points="1043.27,-206.23 1042.53,-195.66 1036.52,-204.38 1043.27,-206.23"/>
</g>
<!-- Node6 -->
<g id="node6" class="node">
<title>Node6</title>
<g id="a_node6"><a xlink:href="classQuantConnect_1_1Symbol.html#a59b0795fa21f46c306deb5576fa03bb9" target="_top" xlink:title="Centralized helper method to resolve alias for a symbol">
<polygon fill="white" stroke="black" points="1169,-142.5 1169,-161.5 1339,-161.5 1339,-142.5 1169,-142.5"/>
<text text-anchor="middle" x="1254" y="-149.5" font-family="Helvetica,sans-Serif" font-size="10.00">QuantConnect.Symbol.GetAlias</text>
</a>
</g>
</g>
<!-- Node5&#45;&gt;Node6 -->
<g id="edge5" class="edge">
<title>Node5&#45;&gt;Node6</title>
<path fill="none" stroke="midnightblue" d="M1104.66,-176.48C1129.67,-172.36 1159.13,-167.49 1185.18,-163.19"/>
<polygon fill="midnightblue" stroke="midnightblue" points="1186.06,-166.6 1195.36,-161.51 1184.92,-159.69 1186.06,-166.6"/>
</g>
<!-- Node7 -->
<g id="node7" class="node">
<title>Node7</title>
<g id="a_node7"><a xlink:href="classQuantConnect_1_1SymbolRepresentation.html#ad43ac907f6c19083821f58f21c6de017" target="_top" xlink:title="Returns future symbol ticker from underlying and expiration date. Function can generate tickers of tw...">
<polygon fill="white" stroke="black" points="1375,-75 1375,-105 1578,-105 1578,-75 1375,-75"/>
<text text-anchor="start" x="1383" y="-93" font-family="Helvetica,sans-Serif" font-size="10.00">QuantConnect.SymbolRepresentation.</text>
<text text-anchor="middle" x="1476.5" y="-82" font-family="Helvetica,sans-Serif" font-size="10.00">GenerateFutureTicker</text>
</a>
</g>
</g>
<!-- Node6&#45;&gt;Node7 -->
<g id="edge6" class="edge">
<title>Node6&#45;&gt;Node7</title>
<path fill="none" stroke="midnightblue" d="M1288.97,-142.45C1321.67,-133.25 1371.93,-119.12 1412.04,-107.84"/>
<polygon fill="midnightblue" stroke="midnightblue" points="1413.06,-111.19 1421.74,-105.12 1411.17,-104.45 1413.06,-111.19"/>
</g>
<!-- Node9 -->
<g id="node9" class="node">
<title>Node9</title>
<g id="a_node9"><a xlink:href="classQuantConnect_1_1SymbolRepresentation.html#ab133044f5cf8c16e700190a2202b215e" target="_top" xlink:title="Returns option symbol ticker in accordance with OSI symbology More information can be found at http:/...">
<polygon fill="white" stroke="black" points="1375,-137 1375,-167 1578,-167 1578,-137 1375,-137"/>
<text text-anchor="start" x="1383" y="-155" font-family="Helvetica,sans-Serif" font-size="10.00">QuantConnect.SymbolRepresentation.</text>
<text text-anchor="middle" x="1476.5" y="-144" font-family="Helvetica,sans-Serif" font-size="10.00">GenerateOptionTickerOSI</text>
</a>
</g>
</g>
<!-- Node6&#45;&gt;Node9 -->
<g id="edge8" class="edge">
<title>Node6&#45;&gt;Node9</title>
<path fill="none" stroke="midnightblue" d="M1339.31,-152C1347.69,-152 1356.3,-152 1364.9,-152"/>
<polygon fill="midnightblue" stroke="midnightblue" points="1364.99,-155.5 1374.99,-152 1364.99,-148.5 1364.99,-155.5"/>
</g>
<!-- Node7&#45;&gt;Node8 -->
<g id="edge7" class="edge">
<title>Node7&#45;&gt;Node8</title>
<path fill="none" stroke="midnightblue" d="M1578.24,-84.75C1586.59,-84.31 1595.11,-83.87 1603.68,-83.42"/>
<polygon fill="midnightblue" stroke="midnightblue" points="1603.95,-86.91 1613.76,-82.9 1603.59,-79.92 1603.95,-86.91"/>
</g>
<!-- Node10 -->
<g id="node10" class="node">
<title>Node10</title>
<g id="a_node10"><a xlink:href="classQuantConnect_1_1Messages_1_1SymbolRepresentation.html#a2c514157d8055cfa271ea3a7ca1ccde7" target="_top" xlink:title="Returns a string message saying an unexpected security type was received by the given method name">
<polygon fill="white" stroke="black" points="1651,-131.5 1651,-172.5 1843,-172.5 1843,-131.5 1651,-131.5"/>
<text text-anchor="start" x="1659" y="-160.5" font-family="Helvetica,sans-Serif" font-size="10.00">QuantConnect.Messages.Symbol</text>
<text text-anchor="start" x="1659" y="-149.5" font-family="Helvetica,sans-Serif" font-size="10.00">Representation.UnexpectedSecurity</text>
<text text-anchor="middle" x="1747" y="-138.5" font-family="Helvetica,sans-Serif" font-size="10.00">TypeForMethod</text>
</a>
</g>
</g>
<!-- Node9&#45;&gt;Node10 -->
<g id="edge9" class="edge">
<title>Node9&#45;&gt;Node10</title>
<path fill="none" stroke="midnightblue" d="M1578.24,-152C1598.7,-152 1620.27,-152 1640.88,-152"/>
<polygon fill="midnightblue" stroke="midnightblue" points="1640.91,-155.5 1650.91,-152 1640.91,-148.5 1640.91,-155.5"/>
</g>
<!-- Node12 -->
<g id="node12" class="node">
<title>Node12</title>
<g id="a_node12"><a xlink:href="classQuantConnect_1_1SecurityIdentifier.html#a19e1f9da410608020d74ed9e7d283575" target="_top" xlink:title="Generates the Symbol property for QuantConnect.SecurityType.Base security identifiers">
<polygon fill="white" stroke="black" points="959,-127 959,-157 1133,-157 1133,-127 959,-127"/>
<text text-anchor="start" x="967" y="-145" font-family="Helvetica,sans-Serif" font-size="10.00">QuantConnect.SecurityIdentifier.</text>
<text text-anchor="middle" x="1046" y="-134" font-family="Helvetica,sans-Serif" font-size="10.00">GenerateBaseSymbol</text>
</a>
</g>
</g>
<!-- Node11&#45;&gt;Node12 -->
<g id="edge11" class="edge">
<title>Node11&#45;&gt;Node12</title>
<path fill="none" stroke="midnightblue" d="M920.13,-142C929.5,-142 939.08,-142 948.57,-142"/>
<polygon fill="midnightblue" stroke="midnightblue" points="948.81,-145.5 958.81,-142 948.81,-138.5 948.81,-145.5"/>
</g>
<!-- Node20&#45;&gt;Node2 -->
<g id="edge23" class="edge">
<title>Node20&#45;&gt;Node2</title>
<path fill="none" stroke="midnightblue" d="M480.18,-315.46C494.15,-312.23 508.47,-308.98 522,-306 533.15,-303.54 545.09,-301 556.53,-298.6"/>
<polygon fill="midnightblue" stroke="midnightblue" points="557.36,-302.01 566.43,-296.54 555.93,-295.15 557.36,-302.01"/>
</g>
<!-- Node20&#45;&gt;Node3 -->
<g id="edge24" class="edge">
<title>Node20&#45;&gt;Node3</title>
<path fill="none" stroke="midnightblue" d="M429.11,-356.57C454.54,-370.83 489.81,-389.74 522,-404 617.51,-446.31 644.39,-449.54 743,-484 753.95,-487.83 765.69,-491.85 776.94,-495.65"/>
<polygon fill="midnightblue" stroke="midnightblue" points="776.06,-499.05 786.66,-498.93 778.3,-492.42 776.06,-499.05"/>
</g>
<!-- Node21 -->
<g id="node21" class="node">
<title>Node21</title>
<g id="a_node21"><a xlink:href="classQuantConnect_1_1Securities_1_1Future_1_1FuturesExpiryFunctions.html#a0d6bb7f1fd71689f70b115ccb0f470e0" target="_top" xlink:title="Method to retrieve the Function for a specific future symbol">
<polygon fill="white" stroke="black" points="531,-315.5 531,-356.5 698,-356.5 698,-315.5 531,-315.5"/>
<text text-anchor="start" x="539" y="-344.5" font-family="Helvetica,sans-Serif" font-size="10.00">QuantConnect.Securities.</text>
<text text-anchor="start" x="539" y="-333.5" font-family="Helvetica,sans-Serif" font-size="10.00">Future.FuturesExpiryFunctions.</text>
<text text-anchor="middle" x="614.5" y="-322.5" font-family="Helvetica,sans-Serif" font-size="10.00">FuturesExpiryFunction</text>
</a>
</g>
</g>
<!-- Node20&#45;&gt;Node21 -->
<g id="edge25" class="edge">
<title>Node20&#45;&gt;Node21</title>
<path fill="none" stroke="midnightblue" d="M486.16,-336C497.49,-336 509.07,-336 520.41,-336"/>
<polygon fill="midnightblue" stroke="midnightblue" points="520.73,-339.5 530.73,-336 520.73,-332.5 520.73,-339.5"/>
</g>
<!-- Node22 -->
<g id="node22" class="node">
<title>Node22</title>
<g id="a_node22"><a xlink:href="classQuantConnect_1_1Symbol.html#a1f3c25223fd9a7b753a4f84ece6469ab" target="_top" xlink:title="Method returns true, if symbol is a derivative canonical symbol">
<polygon fill="white" stroke="black" points="522,-375.5 522,-394.5 707,-394.5 707,-375.5 522,-375.5"/>
<text text-anchor="middle" x="614.5" y="-382.5" font-family="Helvetica,sans-Serif" font-size="10.00">QuantConnect.Symbol.IsCanonical</text>
</a>
</g>
</g>
<!-- Node20&#45;&gt;Node22 -->
<g id="edge26" class="edge">
<title>Node20&#45;&gt;Node22</title>
<path fill="none" stroke="midnightblue" d="M480.18,-356.54C494.15,-359.77 508.47,-363.02 522,-366 533.15,-368.46 545.09,-371 556.53,-373.4"/>
<polygon fill="midnightblue" stroke="midnightblue" points="555.93,-376.85 566.43,-375.46 557.36,-369.99 555.93,-376.85"/>
</g>
</g>
</svg>
        <g id="navigator" transform="translate(0 0)" fill="#404254">
                <rect fill="#f2f5e9" fill-opacity="0.5" stroke="#606060" stroke-width=".5" x="0" y="0" width="60" height="60"/>
                <use id="zoomplus" xlink:href="#zoomPlus" x="17" y="9" onmousedown="handleZoom(evt,'in')"/>
                <use id="zoomminus" xlink:href="#zoomMin" x="42" y="9" onmousedown="handleZoom(evt,'out')"/>
                <use id="reset" xlink:href="#resetDef" x="30" y="36" onmousedown="handleReset()"/>
                <g id="arrowUp" xlink:href="#dirArrow" transform="translate(30 24)" onmousedown="handlePan(0,-1)">
                  <use xlink:href="#rim" fill="#404040">
                        <set attributeName="fill" to="#808080" begin="arrowUp.mouseover" end="arrowUp.mouseout"/>
                  </use>
                  <path fill="none" stroke="white" stroke-width="1.5" d="M0,-3.0v7 M-2.5,-0.5L0,-3.0L2.5,-0.5"/>
                </g>
                <g id="arrowRight" xlink:href="#dirArrow" transform="rotate(90) translate(36 -43)" onmousedown="handlePan(1,0)">
                  <use xlink:href="#rim" fill="#404040">
                        <set attributeName="fill" to="#808080" begin="arrowRight.mouseover" end="arrowRight.mouseout"/>
                  </use>
                  <path fill="none" stroke="white" stroke-width="1.5" d="M0,-3.0v7 M-2.5,-0.5L0,-3.0L2.5,-0.5"/>
                </g>
                <g id="arrowDown" xlink:href="#dirArrow" transform="rotate(180) translate(-30 -48)" onmousedown="handlePan(0,1)">
                  <use xlink:href="#rim" fill="#404040">
                        <set attributeName="fill" to="#808080" begin="arrowDown.mouseover" end="arrowDown.mouseout"/>
                  </use>
                  <path fill="none" stroke="white" stroke-width="1.5" d="M0,-3.0v7 M-2.5,-0.5L0,-3.0L2.5,-0.5"/>
                </g>
                <g id="arrowLeft" xlink:href="#dirArrow" transform="rotate(270) translate(-36 17)" onmousedown="handlePan(-1,0)">
                  <use xlink:href="#rim" fill="#404040">
                        <set attributeName="fill" to="#808080" begin="arrowLeft.mouseover" end="arrowLeft.mouseout"/>
                  </use>
                  <path fill="none" stroke="white" stroke-width="1.5" d="M0,-3.0v7 M-2.5,-0.5L0,-3.0L2.5,-0.5"/>
                </g>
        </g>
        <svg viewBox="0 0 15 15" width="100%" height="30px" preserveAspectRatio="xMaxYMin meet">
         <g id="arrow_out" transform="scale(0.3 0.3)">
          <a xlink:href="classQuantConnect_1_1Securities_1_1FutureOption_1_1FuturesOptionsExpiryFunctions_a08173ebcf831deb1418228595f284ecf_cgraph_org.svg" target="_base">
           <rect id="button" ry="5" rx="5" y="6" x="6" height="38" width="38"
                fill="#f2f5e9" fill-opacity="0.5" stroke="#606060" stroke-width="1.0"/>
           <path id="arrow"
             d="M 11.500037,31.436501 C 11.940474,20.09759 22.043105,11.32322 32.158766,21.979434 L 37.068811,17.246167 C 37.068811,17.246167 37.088388,32 37.088388,32 L 22.160133,31.978069 C 22.160133,31.978069 26.997745,27.140456 26.997745,27.140456 C 18.528582,18.264221 13.291696,25.230495 11.500037,31.436501 z"
             style="fill:#404040;"/>
          </a>
         </g>
        </svg>
</svg>
