<?xml version="1.0" encoding="UTF-8" standalone="no"?>
<!DOCTYPE svg PUBLIC "-//W3C//DTD SVG 1.1//EN"
 "http://www.w3.org/Graphics/SVG/1.1/DTD/svg11.dtd">
<!-- Generated by graphviz version 2.43.0 (0)
 -->
<!-- Title: QuantConnect.Python.BasePythonWrapper.SetPythonInstance Pages: 1 -->
<svg width="408pt" height="50pt"
 viewBox="0.00 0.00 408.00 50.00" xmlns="http://www.w3.org/2000/svg" xmlns:xlink="http://www.w3.org/1999/xlink">
<g id="graph0" class="graph" transform="scale(1 1) rotate(0) translate(4 46)">
<title>QuantConnect.Python.BasePythonWrapper.SetPythonInstance</title>
<polygon fill="white" stroke="transparent" points="-4,4 -4,-46 404,-46 404,4 -4,4"/>
<!-- Node1 -->
<g id="node1" class="node">
<title>Node1</title>
<g id="a_node1"><a xlink:title="Sets the python instance">
<polygon fill="#bfbfbf" stroke="black" points="215,-6 215,-36 400,-36 400,-6 215,-6"/>
<text text-anchor="start" x="223" y="-24" font-family="Helvetica,sans-Serif" font-size="10.00">QuantConnect.Python.Base</text>
<text text-anchor="middle" x="307.5" y="-13" font-family="Helvetica,sans-Serif" font-size="10.00">PythonWrapper.SetPythonInstance</text>
</a>
</g>
</g>
<!-- Node2 -->
<g id="node2" class="node">
<title>Node2</title>
<g id="a_node2"><a xlink:href="classQuantConnect_1_1Python_1_1BasePythonWrapper.html#aa3b380209dcef35b2d563e3d31bedf01" target="_top" xlink:title="Creates a new instance of the BasePythonWrapper&lt;TInterface&gt; class with the specified instance">
<polygon fill="white" stroke="black" points="0,-0.5 0,-41.5 179,-41.5 179,-0.5 0,-0.5"/>
<text text-anchor="start" x="8" y="-29.5" font-family="Helvetica,sans-Serif" font-size="10.00">QuantConnect.Python.Base</text>
<text text-anchor="start" x="8" y="-18.5" font-family="Helvetica,sans-Serif" font-size="10.00">PythonWrapper&lt; IOptionExercise</text>
<text text-anchor="middle" x="89.5" y="-7.5" font-family="Helvetica,sans-Serif" font-size="10.00">Model &gt;::BasePythonWrapper</text>
</a>
</g>
</g>
<!-- Node1&#45;&gt;Node2 -->
<g id="edge1" class="edge">
<title>Node1&#45;&gt;Node2</title>
<path fill="none" stroke="midnightblue" d="M204.85,-21C196.27,-21 187.62,-21 179.15,-21"/>
<polygon fill="midnightblue" stroke="midnightblue" points="204.9,-24.5 214.9,-21 204.9,-17.5 204.9,-24.5"/>
</g>
</g>
</svg>
