<?xml version="1.0" encoding="UTF-8" standalone="no"?>
<!DOCTYPE svg PUBLIC "-//W3C//DTD SVG 1.1//EN"
 "http://www.w3.org/Graphics/SVG/1.1/DTD/svg11.dtd">
<!-- Generated by graphviz version 2.43.0 (0)
 -->
<!-- Title: QuantConnect.Securities.Option.OptionStrategies.CoveredPut Pages: 1 -->
<svg width="1100pt" height="50pt"
 viewBox="0.00 0.00 1100.00 50.00" xmlns="http://www.w3.org/2000/svg" xmlns:xlink="http://www.w3.org/1999/xlink">
<g id="graph0" class="graph" transform="scale(1 1) rotate(0) translate(4 46)">
<title>QuantConnect.Securities.Option.OptionStrategies.CoveredPut</title>
<polygon fill="white" stroke="transparent" points="-4,4 -4,-46 1096,-46 1096,4 -4,4"/>
<!-- Node1 -->
<g id="node1" class="node">
<title>Node1</title>
<g id="a_node1"><a xlink:title="Creates a Covered Put strategy that consists of selling 1 put contract and 1 lot of the underlying.">
<polygon fill="#bfbfbf" stroke="black" points="899,-6 899,-36 1092,-36 1092,-6 899,-6"/>
<text text-anchor="start" x="907" y="-24" font-family="Helvetica,sans-Serif" font-size="10.00">QuantConnect.Securities.</text>
<text text-anchor="middle" x="995.5" y="-13" font-family="Helvetica,sans-Serif" font-size="10.00">Option.OptionStrategies.CoveredPut</text>
</a>
</g>
</g>
<!-- Node2 -->
<g id="node2" class="node">
<title>Node2</title>
<g id="a_node2"><a xlink:href="classQuantConnect_1_1Securities_1_1Option_1_1OptionStrategies.html#afcfb6c6bdefd28c465c8c1ada3f170d6" target="_top" xlink:title="Creates a Protective Put strategy that consists of buying 1 put contract and 1 lot of the underlying.">
<polygon fill="white" stroke="black" points="661,-6 661,-36 863,-36 863,-6 661,-6"/>
<text text-anchor="start" x="669" y="-24" font-family="Helvetica,sans-Serif" font-size="10.00">QuantConnect.Securities.</text>
<text text-anchor="middle" x="762" y="-13" font-family="Helvetica,sans-Serif" font-size="10.00">Option.OptionStrategies.ProtectivePut</text>
</a>
</g>
</g>
<!-- Node1&#45;&gt;Node2 -->
<g id="edge1" class="edge">
<title>Node1&#45;&gt;Node2</title>
<path fill="none" stroke="midnightblue" d="M888.47,-21C880.07,-21 871.61,-21 863.25,-21"/>
<polygon fill="midnightblue" stroke="midnightblue" points="888.67,-24.5 898.67,-21 888.67,-17.5 888.67,-24.5"/>
</g>
<!-- Node3 -->
<g id="node3" class="node">
<title>Node3</title>
<g id="a_node3"><a xlink:href="classQuantConnect_1_1Securities_1_1Option_1_1OptionStrategies.html#a27e8afa95f66711aa32a2f3035c21381" target="_top" xlink:title="Creates a Protective Collar strategy that consists of buying 1 put contract and 1 lot of the underlyi...">
<polygon fill="white" stroke="black" points="439,-0.5 439,-41.5 625,-41.5 625,-0.5 439,-0.5"/>
<text text-anchor="start" x="447" y="-29.5" font-family="Helvetica,sans-Serif" font-size="10.00">QuantConnect.Securities.</text>
<text text-anchor="start" x="447" y="-18.5" font-family="Helvetica,sans-Serif" font-size="10.00">Option.OptionStrategies.Protective</text>
<text text-anchor="middle" x="532" y="-7.5" font-family="Helvetica,sans-Serif" font-size="10.00">Collar</text>
</a>
</g>
</g>
<!-- Node2&#45;&gt;Node3 -->
<g id="edge2" class="edge">
<title>Node2&#45;&gt;Node3</title>
<path fill="none" stroke="midnightblue" d="M650.86,-21C642.21,-21 633.53,-21 625.01,-21"/>
<polygon fill="midnightblue" stroke="midnightblue" points="651,-24.5 661,-21 651,-17.5 651,-24.5"/>
</g>
<!-- Node4 -->
<g id="node4" class="node">
<title>Node4</title>
<g id="a_node4"><a xlink:href="classQuantConnect_1_1Securities_1_1Option_1_1OptionStrategies.html#a74f983f63a2550b35c0686e8c1576aee" target="_top" xlink:title="Creates a Conversion strategy that consists of buying 1 put contract, 1 lot of the underlying and sel...">
<polygon fill="white" stroke="black" points="212,-6 212,-36 403,-36 403,-6 212,-6"/>
<text text-anchor="start" x="220" y="-24" font-family="Helvetica,sans-Serif" font-size="10.00">QuantConnect.Securities.</text>
<text text-anchor="middle" x="307.5" y="-13" font-family="Helvetica,sans-Serif" font-size="10.00">Option.OptionStrategies.Conversion</text>
</a>
</g>
</g>
<!-- Node3&#45;&gt;Node4 -->
<g id="edge3" class="edge">
<title>Node3&#45;&gt;Node4</title>
<path fill="none" stroke="midnightblue" d="M428.85,-21C420.25,-21 411.59,-21 403.05,-21"/>
<polygon fill="midnightblue" stroke="midnightblue" points="428.89,-24.5 438.89,-21 428.89,-17.5 428.89,-24.5"/>
</g>
<!-- Node5 -->
<g id="node5" class="node">
<title>Node5</title>
<g id="a_node5"><a xlink:href="classQuantConnect_1_1Securities_1_1Option_1_1OptionStrategies.html#a7abda820855dffc0a13bb43165163592" target="_top" xlink:title="Creates a Reverse Conversion strategy that consists of buying 1 put contract and 1 lot of the underly...">
<polygon fill="white" stroke="black" points="0,-0.5 0,-41.5 176,-41.5 176,-0.5 0,-0.5"/>
<text text-anchor="start" x="8" y="-29.5" font-family="Helvetica,sans-Serif" font-size="10.00">QuantConnect.Securities.</text>
<text text-anchor="start" x="8" y="-18.5" font-family="Helvetica,sans-Serif" font-size="10.00">Option.OptionStrategies.Reverse</text>
<text text-anchor="middle" x="88" y="-7.5" font-family="Helvetica,sans-Serif" font-size="10.00">Conversion</text>
</a>
</g>
</g>
<!-- Node4&#45;&gt;Node5 -->
<g id="edge4" class="edge">
<title>Node4&#45;&gt;Node5</title>
<path fill="none" stroke="midnightblue" d="M201.47,-21C193.03,-21 184.56,-21 176.26,-21"/>
<polygon fill="midnightblue" stroke="midnightblue" points="201.73,-24.5 211.73,-21 201.73,-17.5 201.73,-24.5"/>
</g>
</g>
</svg>
