<?xml version="1.0" encoding="UTF-8" standalone="no"?>
<!DOCTYPE svg PUBLIC "-//W3C//DTD SVG 1.1//EN"
 "http://www.w3.org/Graphics/SVG/1.1/DTD/svg11.dtd">
<!-- Generated by graphviz version 2.43.0 (0)
 -->
<!-- Title: QuantConnect.Data.UniverseSelection.OptionChainUniverse.SelectSymbols Pages: 1 -->
<svg width="1127pt" height="110pt"
 viewBox="0.00 0.00 1127.00 110.00" xmlns="http://www.w3.org/2000/svg" xmlns:xlink="http://www.w3.org/1999/xlink">
<g id="graph0" class="graph" transform="scale(1 1) rotate(0) translate(4 106)">
<title>QuantConnect.Data.UniverseSelection.OptionChainUniverse.SelectSymbols</title>
<polygon fill="white" stroke="transparent" points="-4,4 -4,-106 1123,-106 1123,4 -4,4"/>
<!-- Node1 -->
<g id="node1" class="node">
<title>Node1</title>
<g id="a_node1"><a xlink:title="Performs universe selection using the data specified">
<polygon fill="#bfbfbf" stroke="black" points="0,-29.5 0,-70.5 171,-70.5 171,-29.5 0,-29.5"/>
<text text-anchor="start" x="8" y="-58.5" font-family="Helvetica,sans-Serif" font-size="10.00">QuantConnect.Data.Universe</text>
<text text-anchor="start" x="8" y="-47.5" font-family="Helvetica,sans-Serif" font-size="10.00">Selection.OptionChainUniverse.</text>
<text text-anchor="middle" x="85.5" y="-36.5" font-family="Helvetica,sans-Serif" font-size="10.00">SelectSymbols</text>
</a>
</g>
</g>
<!-- Node2 -->
<g id="node2" class="node">
<title>Node2</title>
<g id="a_node2"><a xlink:href="classQuantConnect_1_1Symbol.html#a59158f74116be3dad0ea0f3f3f134416" target="_top" xlink:title="Initializes a new instance of the Symbol class">
<polygon fill="white" stroke="black" points="207,-40.5 207,-59.5 372,-59.5 372,-40.5 207,-40.5"/>
<text text-anchor="middle" x="289.5" y="-47.5" font-family="Helvetica,sans-Serif" font-size="10.00">QuantConnect.Symbol.Symbol</text>
</a>
</g>
</g>
<!-- Node1&#45;&gt;Node2 -->
<g id="edge1" class="edge">
<title>Node1&#45;&gt;Node2</title>
<path fill="none" stroke="midnightblue" d="M171.29,-50C179.65,-50 188.17,-50 196.61,-50"/>
<polygon fill="midnightblue" stroke="midnightblue" points="196.84,-53.5 206.84,-50 196.84,-46.5 196.84,-53.5"/>
</g>
<!-- Node3 -->
<g id="node3" class="node">
<title>Node3</title>
<g id="a_node3"><a xlink:href="classQuantConnect_1_1Symbol.html#a59b0795fa21f46c306deb5576fa03bb9" target="_top" xlink:title="Centralized helper method to resolve alias for a symbol">
<polygon fill="white" stroke="black" points="408,-40.5 408,-59.5 578,-59.5 578,-40.5 408,-40.5"/>
<text text-anchor="middle" x="493" y="-47.5" font-family="Helvetica,sans-Serif" font-size="10.00">QuantConnect.Symbol.GetAlias</text>
</a>
</g>
</g>
<!-- Node2&#45;&gt;Node3 -->
<g id="edge2" class="edge">
<title>Node2&#45;&gt;Node3</title>
<path fill="none" stroke="midnightblue" d="M372.17,-50C380.64,-50 389.29,-50 397.88,-50"/>
<polygon fill="midnightblue" stroke="midnightblue" points="397.92,-53.5 407.92,-50 397.92,-46.5 397.92,-53.5"/>
</g>
<!-- Node4 -->
<g id="node4" class="node">
<title>Node4</title>
<g id="a_node4"><a xlink:href="classQuantConnect_1_1SymbolRepresentation.html#ad43ac907f6c19083821f58f21c6de017" target="_top" xlink:title="Returns future symbol ticker from underlying and expiration date. Function can generate tickers of tw...">
<polygon fill="white" stroke="black" points="614,-63 614,-93 817,-93 817,-63 614,-63"/>
<text text-anchor="start" x="622" y="-81" font-family="Helvetica,sans-Serif" font-size="10.00">QuantConnect.SymbolRepresentation.</text>
<text text-anchor="middle" x="715.5" y="-70" font-family="Helvetica,sans-Serif" font-size="10.00">GenerateFutureTicker</text>
</a>
</g>
</g>
<!-- Node3&#45;&gt;Node4 -->
<g id="edge3" class="edge">
<title>Node3&#45;&gt;Node4</title>
<path fill="none" stroke="midnightblue" d="M568.96,-59.52C580.27,-60.96 592.14,-62.46 604.01,-63.97"/>
<polygon fill="midnightblue" stroke="midnightblue" points="603.62,-67.45 613.98,-65.24 604.5,-60.5 603.62,-67.45"/>
</g>
<!-- Node6 -->
<g id="node6" class="node">
<title>Node6</title>
<g id="a_node6"><a xlink:href="classQuantConnect_1_1SymbolRepresentation.html#ab133044f5cf8c16e700190a2202b215e" target="_top" xlink:title="Returns option symbol ticker in accordance with OSI symbology More information can be found at http:/...">
<polygon fill="white" stroke="black" points="614,-11 614,-41 817,-41 817,-11 614,-11"/>
<text text-anchor="start" x="622" y="-29" font-family="Helvetica,sans-Serif" font-size="10.00">QuantConnect.SymbolRepresentation.</text>
<text text-anchor="middle" x="715.5" y="-18" font-family="Helvetica,sans-Serif" font-size="10.00">GenerateOptionTickerOSI</text>
</a>
</g>
</g>
<!-- Node3&#45;&gt;Node6 -->
<g id="edge5" class="edge">
<title>Node3&#45;&gt;Node6</title>
<path fill="none" stroke="midnightblue" d="M578.31,-40.82C586.69,-39.91 595.3,-38.97 603.9,-38.04"/>
<polygon fill="midnightblue" stroke="midnightblue" points="604.43,-41.5 613.99,-36.94 603.67,-34.54 604.43,-41.5"/>
</g>
<!-- Node5 -->
<g id="node5" class="node">
<title>Node5</title>
<g id="a_node5"><a xlink:href="classQuantConnect_1_1Securities_1_1Future_1_1FuturesExpiryUtilityFunctions.html#a4ccb1e2f2fe40ff09785a74a02f26df1" target="_top" xlink:title="Gets the number of months between the contract month and the expiry date.">
<polygon fill="white" stroke="black" points="853,-60.5 853,-101.5 1119,-101.5 1119,-60.5 853,-60.5"/>
<text text-anchor="start" x="861" y="-89.5" font-family="Helvetica,sans-Serif" font-size="10.00">QuantConnect.Securities.</text>
<text text-anchor="start" x="861" y="-78.5" font-family="Helvetica,sans-Serif" font-size="10.00">Future.FuturesExpiryUtilityFunctions.</text>
<text text-anchor="middle" x="986" y="-67.5" font-family="Helvetica,sans-Serif" font-size="10.00">GetDeltaBetweenContractMonthAndContractExpiry</text>
</a>
</g>
</g>
<!-- Node4&#45;&gt;Node5 -->
<g id="edge4" class="edge">
<title>Node4&#45;&gt;Node5</title>
<path fill="none" stroke="midnightblue" d="M817.24,-79.13C825.59,-79.22 834.11,-79.31 842.68,-79.41"/>
<polygon fill="midnightblue" stroke="midnightblue" points="842.72,-82.91 852.76,-79.52 842.8,-75.91 842.72,-82.91"/>
</g>
<!-- Node7 -->
<g id="node7" class="node">
<title>Node7</title>
<g id="a_node7"><a xlink:href="classQuantConnect_1_1Messages_1_1SymbolRepresentation.html#a2c514157d8055cfa271ea3a7ca1ccde7" target="_top" xlink:title="Returns a string message saying an unexpected security type was received by the given method name">
<polygon fill="white" stroke="black" points="890,-0.5 890,-41.5 1082,-41.5 1082,-0.5 890,-0.5"/>
<text text-anchor="start" x="898" y="-29.5" font-family="Helvetica,sans-Serif" font-size="10.00">QuantConnect.Messages.Symbol</text>
<text text-anchor="start" x="898" y="-18.5" font-family="Helvetica,sans-Serif" font-size="10.00">Representation.UnexpectedSecurity</text>
<text text-anchor="middle" x="986" y="-7.5" font-family="Helvetica,sans-Serif" font-size="10.00">TypeForMethod</text>
</a>
</g>
</g>
<!-- Node6&#45;&gt;Node7 -->
<g id="edge6" class="edge">
<title>Node6&#45;&gt;Node7</title>
<path fill="none" stroke="midnightblue" d="M817.24,-24.12C837.7,-23.74 859.27,-23.34 879.88,-22.96"/>
<polygon fill="midnightblue" stroke="midnightblue" points="879.98,-26.46 889.91,-22.77 879.85,-19.46 879.98,-26.46"/>
</g>
</g>
</svg>
