<?xml version="1.0" encoding="UTF-8" standalone="no"?>
<!DOCTYPE svg PUBLIC "-//W3C//DTD SVG 1.1//EN"
 "http://www.w3.org/Graphics/SVG/1.1/DTD/svg11.dtd">
<!-- Generated by graphviz version 2.43.0 (0)
 -->
<!-- Title: QuantConnect.ToolBox.RandomDataGenerator.RandomDataGenerator.Run Pages: 1 -->
<!--zoomable 758 -->
<svg id="main" version="1.1" xmlns="http://www.w3.org/2000/svg" xmlns:xlink="http://www.w3.org/1999/xlink" xml:space="preserve" onload="init(evt)">
<style type="text/css"><![CDATA[
.edge:hover path { stroke: red; }
.edge:hover polygon { stroke: red; fill: red; }
]]></style>
<script type="text/javascript"><![CDATA[
var edges = document.getElementsByTagName('g');
if (edges && edges.length) {
  for (var i=0;i<edges.length;i++) {
    if (edges[i].id.substr(0,4)=='edge') {
      edges[i].setAttribute('class','edge');
    }
  }
}
]]></script>
        <defs>
                <circle id="rim" cx="0" cy="0" r="7"/>
                <circle id="rim2" cx="0" cy="0" r="3.5"/>
                <g id="zoomPlus">
                        <use xlink:href="#rim" fill="#404040">
                                <set attributeName="fill" to="#808080" begin="zoomplus.mouseover" end="zoomplus.mouseout"/>
                        </use>
                        <path d="M-4,0h8M0,-4v8" fill="none" stroke="white" stroke-width="1.5" pointer-events="none"/>
                </g>
                <g id="zoomMin">
                        <use xlink:href="#rim" fill="#404040">
                                <set attributeName="fill" to="#808080" begin="zoomminus.mouseover" end="zoomminus.mouseout"/>
                        </use>
                        <path d="M-4,0h8" fill="none" stroke="white" stroke-width="1.5" pointer-events="none"/>
                </g>
                <g id="dirArrow">
                        <path fill="none" stroke="white" stroke-width="1.5" d="M0,-3.0v7 M-2.5,-0.5L0,-3.0L2.5,-0.5"/>
                </g>
               <g id="resetDef">
                       <use xlink:href="#rim2" fill="#404040">
                               <set attributeName="fill" to="#808080" begin="reset.mouseover" end="reset.mouseout"/>
                       </use>
               </g>
        </defs>

<script type="text/javascript">
var viewWidth = 1644;
var viewHeight = 758;
var sectionId = 'dynsection-0';
</script>
<script xlink:href="svgpan.js"/>
<svg id="graph" class="graph">
<g id="viewport">
<title>QuantConnect.ToolBox.RandomDataGenerator.RandomDataGenerator.Run</title>
<polygon fill="white" stroke="transparent" points="-4,4 -4,-753.5 1640,-753.5 1640,4 -4,4"/>
<!-- Node1 -->
<g id="node1" class="node">
<title>Node1</title>
<g id="a_node1"><a xlink:title="Starts data generation">
<polygon fill="#bfbfbf" stroke="black" points="0,-208.5 0,-238.5 224,-238.5 224,-208.5 0,-208.5"/>
<text text-anchor="start" x="8" y="-226.5" font-family="Helvetica,sans-Serif" font-size="10.00">QuantConnect.ToolBox.Random</text>
<text text-anchor="middle" x="112" y="-215.5" font-family="Helvetica,sans-Serif" font-size="10.00">DataGenerator.RandomDataGenerator.Run</text>
</a>
</g>
</g>
<!-- Node2 -->
<g id="node2" class="node">
<title>Node2</title>
<g id="a_node2"><a xlink:href="classQuantConnect_1_1Securities_1_1SecurityManager.html#a5511dc98ccb9ce95207c5173f8afe1be" target="_top" xlink:title="Add a new security with this symbol to the collection.">
<polygon fill="white" stroke="black" points="291.5,-658.5 291.5,-688.5 431.5,-688.5 431.5,-658.5 291.5,-658.5"/>
<text text-anchor="start" x="299.5" y="-676.5" font-family="Helvetica,sans-Serif" font-size="10.00">QuantConnect.Securities.</text>
<text text-anchor="middle" x="361.5" y="-665.5" font-family="Helvetica,sans-Serif" font-size="10.00">SecurityManager.Add</text>
</a>
</g>
</g>
<!-- Node1&#45;&gt;Node2 -->
<g id="edge1" class="edge">
<title>Node1&#45;&gt;Node2</title>
<path fill="none" stroke="midnightblue" d="M121.38,-238.73C157.73,-304.82 302,-567.14 347.02,-648.98"/>
<polygon fill="midnightblue" stroke="midnightblue" points="344.11,-650.97 352,-658.04 350.25,-647.59 344.11,-650.97"/>
</g>
<!-- Node5 -->
<g id="node5" class="node">
<title>Node5</title>
<g id="a_node5"><a xlink:href="classQuantConnect_1_1Symbol.html#a350b9a625cf7bad95da82894be3cd0a8" target="_top" xlink:title="Provides a convenience method for creating a Symbol for most security types. This method currently do...">
<polygon fill="white" stroke="black" points="281,-375 281,-394 442,-394 442,-375 281,-375"/>
<text text-anchor="middle" x="361.5" y="-382" font-family="Helvetica,sans-Serif" font-size="10.00">QuantConnect.Symbol.Create</text>
</a>
</g>
</g>
<!-- Node1&#45;&gt;Node5 -->
<g id="edge4" class="edge">
<title>Node1&#45;&gt;Node5</title>
<path fill="none" stroke="midnightblue" d="M125.43,-238.9C148.79,-266.83 202.14,-325.83 260,-357.5 271.19,-363.63 283.86,-368.43 296.33,-372.17"/>
<polygon fill="midnightblue" stroke="midnightblue" points="295.69,-375.62 306.26,-374.95 297.57,-368.88 295.69,-375.62"/>
</g>
<!-- Node23 -->
<g id="node23" class="node">
<title>Node23</title>
<g id="a_node23"><a xlink:href="classQuantConnect_1_1ToolBox_1_1RandomDataGenerator_1_1BaseSymbolGenerator.html#ab76aba471df6f3614f991f5919f6bfb3" target="_top" xlink:title="Creates a ad&#45;hoc symbol generator depending on settings">
<polygon fill="white" stroke="black" points="260,-307 260,-348 463,-348 463,-307 260,-307"/>
<text text-anchor="start" x="268" y="-336" font-family="Helvetica,sans-Serif" font-size="10.00">QuantConnect.ToolBox.Random</text>
<text text-anchor="start" x="268" y="-325" font-family="Helvetica,sans-Serif" font-size="10.00">DataGenerator.BaseSymbolGenerator.</text>
<text text-anchor="middle" x="361.5" y="-314" font-family="Helvetica,sans-Serif" font-size="10.00">Create</text>
</a>
</g>
</g>
<!-- Node1&#45;&gt;Node23 -->
<g id="edge24" class="edge">
<title>Node1&#45;&gt;Node23</title>
<path fill="none" stroke="midnightblue" d="M139.44,-238.6C168.37,-254.69 216.45,-280.2 260,-297.5 265.37,-299.63 270.94,-301.7 276.6,-303.68"/>
<polygon fill="midnightblue" stroke="midnightblue" points="275.58,-307.03 286.17,-306.93 277.83,-300.4 275.58,-307.03"/>
</g>
<!-- Node24 -->
<g id="node24" class="node">
<title>Node24</title>
<g id="a_node24"><a xlink:href="classQuantConnect_1_1Securities_1_1SecurityManager.html#a0aa9a5d066fcba5dfcc7ae10ac22b550" target="_top" xlink:title="Creates a new security">
<polygon fill="white" stroke="black" points="275,-257.5 275,-287.5 448,-287.5 448,-257.5 275,-257.5"/>
<text text-anchor="start" x="283" y="-275.5" font-family="Helvetica,sans-Serif" font-size="10.00">QuantConnect.Securities.</text>
<text text-anchor="middle" x="361.5" y="-264.5" font-family="Helvetica,sans-Serif" font-size="10.00">SecurityManager.CreateSecurity</text>
</a>
</g>
</g>
<!-- Node1&#45;&gt;Node24 -->
<g id="edge25" class="edge">
<title>Node1&#45;&gt;Node24</title>
<path fill="none" stroke="midnightblue" d="M188.94,-238.53C216.02,-243.9 246.72,-249.97 274.58,-255.49"/>
<polygon fill="midnightblue" stroke="midnightblue" points="274.21,-258.98 284.7,-257.49 275.57,-252.12 274.21,-258.98"/>
</g>
<!-- Node25 -->
<g id="node25" class="node">
<title>Node25</title>
<g id="a_node25"><a xlink:href="classQuantConnect_1_1Data_1_1SubscriptionManager.html#a40bc120ef05e872a3cdfe43f33ede6e3" target="_top" xlink:title="Hard code the set of default available data feeds">
<polygon fill="white" stroke="black" points="274,-208.5 274,-238.5 449,-238.5 449,-208.5 274,-208.5"/>
<text text-anchor="start" x="282" y="-226.5" font-family="Helvetica,sans-Serif" font-size="10.00">QuantConnect.Data.Subscription</text>
<text text-anchor="middle" x="361.5" y="-215.5" font-family="Helvetica,sans-Serif" font-size="10.00">Manager.DefaultDataTypes</text>
</a>
</g>
</g>
<!-- Node1&#45;&gt;Node25 -->
<g id="edge26" class="edge">
<title>Node1&#45;&gt;Node25</title>
<path fill="none" stroke="midnightblue" d="M224.08,-223.5C237.26,-223.5 250.64,-223.5 263.6,-223.5"/>
<polygon fill="midnightblue" stroke="midnightblue" points="263.9,-227 273.9,-223.5 263.9,-220 263.9,-227"/>
</g>
<!-- Node26 -->
<g id="node26" class="node">
<title>Node26</title>
<g id="a_node26"><a xlink:href="classQuantConnect_1_1Logging_1_1Log.html#af0e7955911bc7664b37661b2a303a9e3" target="_top" xlink:title="Log error">
<polygon fill="white" stroke="black" points="286.5,-159.5 286.5,-189.5 436.5,-189.5 436.5,-159.5 286.5,-159.5"/>
<text text-anchor="start" x="294.5" y="-177.5" font-family="Helvetica,sans-Serif" font-size="10.00">QuantConnect.Logging.Log.</text>
<text text-anchor="middle" x="361.5" y="-166.5" font-family="Helvetica,sans-Serif" font-size="10.00">Error</text>
</a>
</g>
</g>
<!-- Node1&#45;&gt;Node26 -->
<g id="edge27" class="edge">
<title>Node1&#45;&gt;Node26</title>
<path fill="none" stroke="midnightblue" d="M188.94,-208.47C216.65,-202.98 248.14,-196.75 276.51,-191.13"/>
<polygon fill="midnightblue" stroke="midnightblue" points="277.27,-194.55 286.4,-189.17 275.91,-187.68 277.27,-194.55"/>
</g>
<!-- Node28 -->
<g id="node28" class="node">
<title>Node28</title>
<g id="a_node28"><a xlink:href="classQuantConnect_1_1ToolBox_1_1RandomDataGenerator_1_1BaseSymbolGenerator.html#a4167c47329c3e80eff82f648fe499d6c" target="_top" xlink:title="Returns the number of symbols with the specified parameters can be generated. Returns int....">
<polygon fill="white" stroke="black" points="260,-99 260,-140 463,-140 463,-99 260,-99"/>
<text text-anchor="start" x="268" y="-128" font-family="Helvetica,sans-Serif" font-size="10.00">QuantConnect.ToolBox.Random</text>
<text text-anchor="start" x="268" y="-117" font-family="Helvetica,sans-Serif" font-size="10.00">DataGenerator.BaseSymbolGenerator.</text>
<text text-anchor="middle" x="361.5" y="-106" font-family="Helvetica,sans-Serif" font-size="10.00">GetAvailableSymbolCount</text>
</a>
</g>
</g>
<!-- Node1&#45;&gt;Node28 -->
<g id="edge29" class="edge">
<title>Node1&#45;&gt;Node28</title>
<path fill="none" stroke="midnightblue" d="M140.03,-208.42C169.07,-192.61 216.87,-167.73 260,-150.5 266.21,-148.02 272.7,-145.61 279.26,-143.31"/>
<polygon fill="midnightblue" stroke="midnightblue" points="280.57,-146.57 288.9,-140.02 278.31,-139.94 280.57,-146.57"/>
</g>
<!-- Node29 -->
<g id="node29" class="node">
<title>Node29</title>
<g id="a_node29"><a xlink:href="classQuantConnect_1_1Logging_1_1Log.html#a4e55477fbc790846b74550a57198cea9" target="_top" xlink:title="Log trace">
<polygon fill="white" stroke="black" points="286.5,-49.5 286.5,-79.5 436.5,-79.5 436.5,-49.5 286.5,-49.5"/>
<text text-anchor="start" x="294.5" y="-67.5" font-family="Helvetica,sans-Serif" font-size="10.00">QuantConnect.Logging.Log.</text>
<text text-anchor="middle" x="361.5" y="-56.5" font-family="Helvetica,sans-Serif" font-size="10.00">Trace</text>
</a>
</g>
</g>
<!-- Node1&#45;&gt;Node29 -->
<g id="edge30" class="edge">
<title>Node1&#45;&gt;Node29</title>
<path fill="none" stroke="midnightblue" d="M125.01,-208.43C148.09,-180.52 201.55,-120.79 260,-89.5 265.28,-86.67 270.89,-84.16 276.65,-81.92"/>
<polygon fill="midnightblue" stroke="midnightblue" points="278.22,-85.08 286.46,-78.42 275.86,-78.49 278.22,-85.08"/>
</g>
<!-- Node31 -->
<g id="node31" class="node">
<title>Node31</title>
<g id="a_node31"><a xlink:href="classQuantConnect_1_1Securities_1_1SecurityManager.html#af3ad97e370ceec706ac1afe70f7fbb42" target="_top" xlink:title="Try and get this security object with matching symbol and return true on success.">
<polygon fill="white" stroke="black" points="281.5,-0.5 281.5,-30.5 441.5,-30.5 441.5,-0.5 281.5,-0.5"/>
<text text-anchor="start" x="289.5" y="-18.5" font-family="Helvetica,sans-Serif" font-size="10.00">QuantConnect.Securities.</text>
<text text-anchor="middle" x="361.5" y="-7.5" font-family="Helvetica,sans-Serif" font-size="10.00">SecurityManager.TryGetValue</text>
</a>
</g>
</g>
<!-- Node1&#45;&gt;Node31 -->
<g id="edge32" class="edge">
<title>Node1&#45;&gt;Node31</title>
<path fill="none" stroke="midnightblue" d="M120.55,-208.3C139.06,-172.73 190.27,-83.76 260,-39.5 263.81,-37.08 267.84,-34.91 272.01,-32.95"/>
<polygon fill="midnightblue" stroke="midnightblue" points="273.49,-36.13 281.34,-29.01 270.76,-29.68 273.49,-36.13"/>
</g>
<!-- Node3 -->
<g id="node3" class="node">
<title>Node3</title>
<g id="a_node3"><a xlink:href="classQuantConnect_1_1Securities_1_1SecurityManager.html#a0e4af6deb8b954b63bde12056f77e126" target="_top" xlink:title="Event invocator for the CollectionChanged event">
<polygon fill="white" stroke="black" points="507,-708 507,-749 671,-749 671,-708 507,-708"/>
<text text-anchor="start" x="515" y="-737" font-family="Helvetica,sans-Serif" font-size="10.00">QuantConnect.Securities.</text>
<text text-anchor="start" x="515" y="-726" font-family="Helvetica,sans-Serif" font-size="10.00">SecurityManager.OnCollection</text>
<text text-anchor="middle" x="589" y="-715" font-family="Helvetica,sans-Serif" font-size="10.00">Changed</text>
</a>
</g>
</g>
<!-- Node2&#45;&gt;Node3 -->
<g id="edge2" class="edge">
<title>Node2&#45;&gt;Node3</title>
<path fill="none" stroke="midnightblue" d="M424.12,-688.53C446.58,-694.01 472.48,-700.32 496.96,-706.3"/>
<polygon fill="midnightblue" stroke="midnightblue" points="496.44,-709.77 506.99,-708.74 498.1,-702.97 496.44,-709.77"/>
</g>
<!-- Node4 -->
<g id="node4" class="node">
<title>Node4</title>
<g id="a_node4"><a xlink:href="classQuantConnect_1_1Securities_1_1Security.html#a19452e0c096c670c9fecceb71d05f3e5" target="_top" xlink:title="Sets the LocalTimeKeeper to be used for this Security. This is the source of this instance&#39;s time.">
<polygon fill="white" stroke="black" points="510,-658.5 510,-688.5 668,-688.5 668,-658.5 510,-658.5"/>
<text text-anchor="start" x="518" y="-676.5" font-family="Helvetica,sans-Serif" font-size="10.00">QuantConnect.Securities.</text>
<text text-anchor="middle" x="589" y="-665.5" font-family="Helvetica,sans-Serif" font-size="10.00">Security.SetLocalTimeKeeper</text>
</a>
</g>
</g>
<!-- Node2&#45;&gt;Node4 -->
<g id="edge3" class="edge">
<title>Node2&#45;&gt;Node4</title>
<path fill="none" stroke="midnightblue" d="M431.69,-673.5C453.13,-673.5 477.06,-673.5 499.62,-673.5"/>
<polygon fill="midnightblue" stroke="midnightblue" points="499.88,-677 509.88,-673.5 499.88,-670 499.88,-677"/>
</g>
<!-- Node6 -->
<g id="node6" class="node">
<title>Node6</title>
<g id="a_node6"><a xlink:href="classQuantConnect_1_1Symbol.html#a7518a1932d1babbff128f2ba9666a78b" target="_top" xlink:title="Provides a convenience method for creating an option Symbol.">
<polygon fill="white" stroke="black" points="508.5,-570.5 508.5,-600.5 669.5,-600.5 669.5,-570.5 508.5,-570.5"/>
<text text-anchor="start" x="516.5" y="-588.5" font-family="Helvetica,sans-Serif" font-size="10.00">QuantConnect.Symbol.Create</text>
<text text-anchor="middle" x="589" y="-577.5" font-family="Helvetica,sans-Serif" font-size="10.00">Option</text>
</a>
</g>
</g>
<!-- Node5&#45;&gt;Node6 -->
<g id="edge5" class="edge">
<title>Node5&#45;&gt;Node6</title>
<path fill="none" stroke="midnightblue" d="M367.59,-394.23C383.19,-423.17 433.36,-509.51 499,-555.5 504.97,-559.68 511.56,-563.32 518.39,-566.47"/>
<polygon fill="midnightblue" stroke="midnightblue" points="517.22,-569.78 527.8,-570.48 519.97,-563.34 517.22,-569.78"/>
</g>
<!-- Node7 -->
<g id="node7" class="node">
<title>Node7</title>
<g id="a_node7"><a xlink:href="classQuantConnect_1_1SecurityIdentifier.html#a0c21d7880c9fdd260883d11ea0c99a00" target="_top" xlink:title="Helper overload that will search the mapfiles to resolve the first date. This implementation uses the...">
<polygon fill="white" stroke="black" points="715,-603.5 715,-633.5 889,-633.5 889,-603.5 715,-603.5"/>
<text text-anchor="start" x="723" y="-621.5" font-family="Helvetica,sans-Serif" font-size="10.00">QuantConnect.SecurityIdentifier.</text>
<text text-anchor="middle" x="802" y="-610.5" font-family="Helvetica,sans-Serif" font-size="10.00">GenerateEquity</text>
</a>
</g>
</g>
<!-- Node5&#45;&gt;Node7 -->
<g id="edge18" class="edge">
<title>Node5&#45;&gt;Node7</title>
<path fill="none" stroke="midnightblue" d="M364.79,-394.13C374.03,-430.51 412.23,-560.02 499,-610.5 568.39,-650.87 662.76,-645.83 727.44,-635.24"/>
<polygon fill="midnightblue" stroke="midnightblue" points="728.29,-638.65 737.55,-633.5 727.11,-631.75 728.29,-638.65"/>
</g>
<!-- Node8 -->
<g id="node8" class="node">
<title>Node8</title>
<g id="a_node8"><a xlink:href="classQuantConnect_1_1Symbol.html#a59158f74116be3dad0ea0f3f3f134416" target="_top" xlink:title="Initializes a new instance of the Symbol class">
<polygon fill="white" stroke="black" points="719.5,-543 719.5,-562 884.5,-562 884.5,-543 719.5,-543"/>
<text text-anchor="middle" x="802" y="-550" font-family="Helvetica,sans-Serif" font-size="10.00">QuantConnect.Symbol.Symbol</text>
</a>
</g>
</g>
<!-- Node5&#45;&gt;Node8 -->
<g id="edge23" class="edge">
<title>Node5&#45;&gt;Node8</title>
<path fill="none" stroke="midnightblue" d="M368.42,-394.05C385.16,-420.09 435.73,-492.33 499,-522.5 564.55,-553.76 647.05,-560.05 709.26,-559.2"/>
<polygon fill="midnightblue" stroke="midnightblue" points="709.52,-562.7 719.45,-559 709.38,-555.7 709.52,-562.7"/>
</g>
<!-- Node14 -->
<g id="node14" class="node">
<title>Node14</title>
<g id="a_node14"><a xlink:href="classQuantConnect_1_1SecurityIdentifier.html#a02ca750115844561c001c2346fbafc00" target="_top" xlink:title="Generates a new SecurityIdentifier for a custom security with the option of providing the first date">
<polygon fill="white" stroke="black" points="502,-482.5 502,-512.5 676,-512.5 676,-482.5 502,-482.5"/>
<text text-anchor="start" x="510" y="-500.5" font-family="Helvetica,sans-Serif" font-size="10.00">QuantConnect.SecurityIdentifier.</text>
<text text-anchor="middle" x="589" y="-489.5" font-family="Helvetica,sans-Serif" font-size="10.00">GenerateBase</text>
</a>
</g>
</g>
<!-- Node5&#45;&gt;Node14 -->
<g id="edge13" class="edge">
<title>Node5&#45;&gt;Node14</title>
<path fill="none" stroke="midnightblue" d="M374.53,-394.25C397.43,-412.35 449.42,-451.32 499,-473.5 503.42,-475.48 508.05,-477.32 512.76,-479.04"/>
<polygon fill="midnightblue" stroke="midnightblue" points="511.93,-482.46 522.52,-482.39 514.2,-475.84 511.93,-482.46"/>
</g>
<!-- Node16 -->
<g id="node16" class="node">
<title>Node16</title>
<g id="a_node16"><a xlink:href="classQuantConnect_1_1SecurityIdentifier.html#a53953b18d814c5445e4ecdcb3b555080" target="_top" xlink:title="Generates a new SecurityIdentifier for a CFD security">
<polygon fill="white" stroke="black" points="502,-433.5 502,-463.5 676,-463.5 676,-433.5 502,-433.5"/>
<text text-anchor="start" x="510" y="-451.5" font-family="Helvetica,sans-Serif" font-size="10.00">QuantConnect.SecurityIdentifier.</text>
<text text-anchor="middle" x="589" y="-440.5" font-family="Helvetica,sans-Serif" font-size="10.00">GenerateCfd</text>
</a>
</g>
</g>
<!-- Node5&#45;&gt;Node16 -->
<g id="edge15" class="edge">
<title>Node5&#45;&gt;Node16</title>
<path fill="none" stroke="midnightblue" d="M394.44,-394.07C422.06,-402.3 463.1,-414.4 499,-424.5 506.37,-426.57 514.08,-428.71 521.77,-430.81"/>
<polygon fill="midnightblue" stroke="midnightblue" points="520.88,-434.2 531.45,-433.45 522.72,-427.44 520.88,-434.2"/>
</g>
<!-- Node17 -->
<g id="node17" class="node">
<title>Node17</title>
<g id="a_node17"><a xlink:href="classQuantConnect_1_1SecurityIdentifier.html#a5889a95a36ce927dd0a109cbfbcbe663" target="_top" xlink:title="Generates a new SecurityIdentifier for a Crypto pair">
<polygon fill="white" stroke="black" points="502,-384.5 502,-414.5 676,-414.5 676,-384.5 502,-384.5"/>
<text text-anchor="start" x="510" y="-402.5" font-family="Helvetica,sans-Serif" font-size="10.00">QuantConnect.SecurityIdentifier.</text>
<text text-anchor="middle" x="589" y="-391.5" font-family="Helvetica,sans-Serif" font-size="10.00">GenerateCrypto</text>
</a>
</g>
</g>
<!-- Node5&#45;&gt;Node17 -->
<g id="edge16" class="edge">
<title>Node5&#45;&gt;Node17</title>
<path fill="none" stroke="midnightblue" d="M442,-389.79C458.07,-390.86 475.12,-391.99 491.7,-393.09"/>
<polygon fill="midnightblue" stroke="midnightblue" points="491.73,-396.6 501.94,-393.78 492.19,-389.62 491.73,-396.6"/>
</g>
<!-- Node18 -->
<g id="node18" class="node">
<title>Node18</title>
<g id="a_node18"><a xlink:href="classQuantConnect_1_1SecurityIdentifier.html#ac665665a16d5449872fed3427b95a260" target="_top" xlink:title="Generates a new SecurityIdentifier for a CryptoFuture pair">
<polygon fill="white" stroke="black" points="502,-335.5 502,-365.5 676,-365.5 676,-335.5 502,-335.5"/>
<text text-anchor="start" x="510" y="-353.5" font-family="Helvetica,sans-Serif" font-size="10.00">QuantConnect.SecurityIdentifier.</text>
<text text-anchor="middle" x="589" y="-342.5" font-family="Helvetica,sans-Serif" font-size="10.00">GenerateCryptoFuture</text>
</a>
</g>
</g>
<!-- Node5&#45;&gt;Node18 -->
<g id="edge17" class="edge">
<title>Node5&#45;&gt;Node18</title>
<path fill="none" stroke="midnightblue" d="M425.61,-374.98C446.07,-371.9 469.24,-368.41 491.54,-365.04"/>
<polygon fill="midnightblue" stroke="midnightblue" points="492.35,-368.46 501.72,-363.51 491.31,-361.54 492.35,-368.46"/>
</g>
<!-- Node19 -->
<g id="node19" class="node">
<title>Node19</title>
<g id="a_node19"><a xlink:href="classQuantConnect_1_1SecurityIdentifier.html#a9cf0d3b208a5171e6112516ce441f18d" target="_top" xlink:title="Generates a new SecurityIdentifier for a forex pair">
<polygon fill="white" stroke="black" points="502,-286.5 502,-316.5 676,-316.5 676,-286.5 502,-286.5"/>
<text text-anchor="start" x="510" y="-304.5" font-family="Helvetica,sans-Serif" font-size="10.00">QuantConnect.SecurityIdentifier.</text>
<text text-anchor="middle" x="589" y="-293.5" font-family="Helvetica,sans-Serif" font-size="10.00">GenerateForex</text>
</a>
</g>
</g>
<!-- Node5&#45;&gt;Node19 -->
<g id="edge19" class="edge">
<title>Node5&#45;&gt;Node19</title>
<path fill="none" stroke="midnightblue" d="M415.56,-374.96C431.38,-370.89 448.39,-365.23 463,-357.5 481.66,-347.62 480.39,-336.48 499,-326.5 503.2,-324.25 507.62,-322.18 512.16,-320.29"/>
<polygon fill="midnightblue" stroke="midnightblue" points="513.53,-323.51 521.6,-316.64 511.01,-316.98 513.53,-323.51"/>
</g>
<!-- Node20 -->
<g id="node20" class="node">
<title>Node20</title>
<g id="a_node20"><a xlink:href="classQuantConnect_1_1SecurityIdentifier.html#ad50a891c97cb0c084a9e2aa43607ed66" target="_top" xlink:title="Generates a new SecurityIdentifier for a future">
<polygon fill="white" stroke="black" points="502,-237.5 502,-267.5 676,-267.5 676,-237.5 502,-237.5"/>
<text text-anchor="start" x="510" y="-255.5" font-family="Helvetica,sans-Serif" font-size="10.00">QuantConnect.SecurityIdentifier.</text>
<text text-anchor="middle" x="589" y="-244.5" font-family="Helvetica,sans-Serif" font-size="10.00">GenerateFuture</text>
</a>
</g>
</g>
<!-- Node5&#45;&gt;Node20 -->
<g id="edge20" class="edge">
<title>Node5&#45;&gt;Node20</title>
<path fill="none" stroke="midnightblue" d="M430.62,-375C442.34,-371.02 453.71,-365.4 463,-357.5 492.69,-332.23 469.45,-302.94 499,-277.5 500.97,-275.8 503.04,-274.22 505.21,-272.75"/>
<polygon fill="midnightblue" stroke="midnightblue" points="507.11,-275.69 513.92,-267.58 503.53,-269.67 507.11,-275.69"/>
</g>
<!-- Node21 -->
<g id="node21" class="node">
<title>Node21</title>
<g id="a_node21"><a xlink:href="classQuantConnect_1_1SecurityIdentifier.html#ade05a8e57b041ab484cf585be8d05699" target="_top" xlink:title="Generates a new SecurityIdentifier for a INDEX security">
<polygon fill="white" stroke="black" points="502,-188.5 502,-218.5 676,-218.5 676,-188.5 502,-188.5"/>
<text text-anchor="start" x="510" y="-206.5" font-family="Helvetica,sans-Serif" font-size="10.00">QuantConnect.SecurityIdentifier.</text>
<text text-anchor="middle" x="589" y="-195.5" font-family="Helvetica,sans-Serif" font-size="10.00">GenerateIndex</text>
</a>
</g>
</g>
<!-- Node5&#45;&gt;Node21 -->
<g id="edge21" class="edge">
<title>Node5&#45;&gt;Node21</title>
<path fill="none" stroke="midnightblue" d="M434.72,-374.97C445.2,-370.94 455.11,-365.32 463,-357.5 505.29,-315.61 456.95,-270.63 499,-228.5 500.45,-227.05 501.97,-225.69 503.56,-224.4"/>
<polygon fill="midnightblue" stroke="midnightblue" points="505.74,-227.14 511.99,-218.58 501.77,-221.38 505.74,-227.14"/>
</g>
<!-- Node22 -->
<g id="node22" class="node">
<title>Node22</title>
<g id="a_node22"><a xlink:href="classQuantConnect_1_1Messages_1_1Symbol.html#ab801bef52a308b8ba7ba6d42e1ef1988" target="_top" xlink:title="Returns a string message saying the given security type has not been implemented yet">
<polygon fill="white" stroke="black" points="499,-139.5 499,-169.5 679,-169.5 679,-139.5 499,-139.5"/>
<text text-anchor="start" x="507" y="-157.5" font-family="Helvetica,sans-Serif" font-size="10.00">QuantConnect.Messages.Symbol.</text>
<text text-anchor="middle" x="589" y="-146.5" font-family="Helvetica,sans-Serif" font-size="10.00">SecurityTypeNotImplementedYet</text>
</a>
</g>
</g>
<!-- Node5&#45;&gt;Node22 -->
<g id="edge22" class="edge">
<title>Node5&#45;&gt;Node22</title>
<path fill="none" stroke="midnightblue" d="M436.48,-374.95C446.43,-370.89 455.7,-365.27 463,-357.5 518.25,-298.66 444.09,-238.65 499,-179.5 500.24,-178.17 501.54,-176.9 502.9,-175.7"/>
<polygon fill="midnightblue" stroke="midnightblue" points="505.3,-178.28 511.26,-169.52 501.14,-172.65 505.3,-178.28"/>
</g>
<!-- Node6&#45;&gt;Node7 -->
<g id="edge6" class="edge">
<title>Node6&#45;&gt;Node7</title>
<path fill="none" stroke="midnightblue" d="M669.77,-597.98C681.14,-599.75 692.94,-601.6 704.59,-603.42"/>
<polygon fill="midnightblue" stroke="midnightblue" points="704.35,-606.93 714.77,-605.01 705.43,-600.01 704.35,-606.93"/>
</g>
<!-- Node6&#45;&gt;Node8 -->
<g id="edge7" class="edge">
<title>Node6&#45;&gt;Node8</title>
<path fill="none" stroke="midnightblue" d="M669.77,-573.02C689.65,-569.92 710.82,-566.6 730.23,-563.57"/>
<polygon fill="midnightblue" stroke="midnightblue" points="730.86,-567.01 740.2,-562.01 729.78,-560.1 730.86,-567.01"/>
</g>
<!-- Node9 -->
<g id="node9" class="node">
<title>Node9</title>
<g id="a_node9"><a xlink:href="classQuantConnect_1_1Symbol.html#a59b0795fa21f46c306deb5576fa03bb9" target="_top" xlink:title="Centralized helper method to resolve alias for a symbol">
<polygon fill="white" stroke="black" points="925,-543 925,-562 1095,-562 1095,-543 925,-543"/>
<text text-anchor="middle" x="1010" y="-550" font-family="Helvetica,sans-Serif" font-size="10.00">QuantConnect.Symbol.GetAlias</text>
</a>
</g>
</g>
<!-- Node8&#45;&gt;Node9 -->
<g id="edge8" class="edge">
<title>Node8&#45;&gt;Node9</title>
<path fill="none" stroke="midnightblue" d="M884.71,-552.5C894.47,-552.5 904.49,-552.5 914.4,-552.5"/>
<polygon fill="midnightblue" stroke="midnightblue" points="914.68,-556 924.68,-552.5 914.68,-549 914.68,-556"/>
</g>
<!-- Node10 -->
<g id="node10" class="node">
<title>Node10</title>
<g id="a_node10"><a xlink:href="classQuantConnect_1_1SymbolRepresentation.html#ad43ac907f6c19083821f58f21c6de017" target="_top" xlink:title="Returns future symbol ticker from underlying and expiration date. Function can generate tickers of tw...">
<polygon fill="white" stroke="black" points="1131,-565.5 1131,-595.5 1334,-595.5 1334,-565.5 1131,-565.5"/>
<text text-anchor="start" x="1139" y="-583.5" font-family="Helvetica,sans-Serif" font-size="10.00">QuantConnect.SymbolRepresentation.</text>
<text text-anchor="middle" x="1232.5" y="-572.5" font-family="Helvetica,sans-Serif" font-size="10.00">GenerateFutureTicker</text>
</a>
</g>
</g>
<!-- Node9&#45;&gt;Node10 -->
<g id="edge9" class="edge">
<title>Node9&#45;&gt;Node10</title>
<path fill="none" stroke="midnightblue" d="M1085.96,-562.02C1097.27,-563.46 1109.14,-564.96 1121.01,-566.47"/>
<polygon fill="midnightblue" stroke="midnightblue" points="1120.62,-569.95 1130.98,-567.74 1121.5,-563 1120.62,-569.95"/>
</g>
<!-- Node12 -->
<g id="node12" class="node">
<title>Node12</title>
<g id="a_node12"><a xlink:href="classQuantConnect_1_1SymbolRepresentation.html#ab133044f5cf8c16e700190a2202b215e" target="_top" xlink:title="Returns option symbol ticker in accordance with OSI symbology More information can be found at http:/...">
<polygon fill="white" stroke="black" points="1131,-513.5 1131,-543.5 1334,-543.5 1334,-513.5 1131,-513.5"/>
<text text-anchor="start" x="1139" y="-531.5" font-family="Helvetica,sans-Serif" font-size="10.00">QuantConnect.SymbolRepresentation.</text>
<text text-anchor="middle" x="1232.5" y="-520.5" font-family="Helvetica,sans-Serif" font-size="10.00">GenerateOptionTickerOSI</text>
</a>
</g>
</g>
<!-- Node9&#45;&gt;Node12 -->
<g id="edge11" class="edge">
<title>Node9&#45;&gt;Node12</title>
<path fill="none" stroke="midnightblue" d="M1095.31,-543.32C1103.69,-542.41 1112.3,-541.47 1120.9,-540.54"/>
<polygon fill="midnightblue" stroke="midnightblue" points="1121.43,-544 1130.99,-539.44 1120.67,-537.04 1121.43,-544"/>
</g>
<!-- Node11 -->
<g id="node11" class="node">
<title>Node11</title>
<g id="a_node11"><a xlink:href="classQuantConnect_1_1Securities_1_1Future_1_1FuturesExpiryUtilityFunctions.html#a4ccb1e2f2fe40ff09785a74a02f26df1" target="_top" xlink:title="Gets the number of months between the contract month and the expiry date.">
<polygon fill="white" stroke="black" points="1370,-563 1370,-604 1636,-604 1636,-563 1370,-563"/>
<text text-anchor="start" x="1378" y="-592" font-family="Helvetica,sans-Serif" font-size="10.00">QuantConnect.Securities.</text>
<text text-anchor="start" x="1378" y="-581" font-family="Helvetica,sans-Serif" font-size="10.00">Future.FuturesExpiryUtilityFunctions.</text>
<text text-anchor="middle" x="1503" y="-570" font-family="Helvetica,sans-Serif" font-size="10.00">GetDeltaBetweenContractMonthAndContractExpiry</text>
</a>
</g>
</g>
<!-- Node10&#45;&gt;Node11 -->
<g id="edge10" class="edge">
<title>Node10&#45;&gt;Node11</title>
<path fill="none" stroke="midnightblue" d="M1334.24,-581.63C1342.59,-581.72 1351.11,-581.81 1359.68,-581.91"/>
<polygon fill="midnightblue" stroke="midnightblue" points="1359.72,-585.41 1369.76,-582.02 1359.8,-578.41 1359.72,-585.41"/>
</g>
<!-- Node13 -->
<g id="node13" class="node">
<title>Node13</title>
<g id="a_node13"><a xlink:href="classQuantConnect_1_1Messages_1_1SymbolRepresentation.html#a2c514157d8055cfa271ea3a7ca1ccde7" target="_top" xlink:title="Returns a string message saying an unexpected security type was received by the given method name">
<polygon fill="white" stroke="black" points="1407,-503 1407,-544 1599,-544 1599,-503 1407,-503"/>
<text text-anchor="start" x="1415" y="-532" font-family="Helvetica,sans-Serif" font-size="10.00">QuantConnect.Messages.Symbol</text>
<text text-anchor="start" x="1415" y="-521" font-family="Helvetica,sans-Serif" font-size="10.00">Representation.UnexpectedSecurity</text>
<text text-anchor="middle" x="1503" y="-510" font-family="Helvetica,sans-Serif" font-size="10.00">TypeForMethod</text>
</a>
</g>
</g>
<!-- Node12&#45;&gt;Node13 -->
<g id="edge12" class="edge">
<title>Node12&#45;&gt;Node13</title>
<path fill="none" stroke="midnightblue" d="M1334.24,-526.62C1354.7,-526.24 1376.27,-525.84 1396.88,-525.46"/>
<polygon fill="midnightblue" stroke="midnightblue" points="1396.98,-528.96 1406.91,-525.27 1396.85,-521.96 1396.98,-528.96"/>
</g>
<!-- Node15 -->
<g id="node15" class="node">
<title>Node15</title>
<g id="a_node15"><a xlink:href="classQuantConnect_1_1SecurityIdentifier.html#a19e1f9da410608020d74ed9e7d283575" target="_top" xlink:title="Generates the Symbol property for QuantConnect.SecurityType.Base security identifiers">
<polygon fill="white" stroke="black" points="715,-482.5 715,-512.5 889,-512.5 889,-482.5 715,-482.5"/>
<text text-anchor="start" x="723" y="-500.5" font-family="Helvetica,sans-Serif" font-size="10.00">QuantConnect.SecurityIdentifier.</text>
<text text-anchor="middle" x="802" y="-489.5" font-family="Helvetica,sans-Serif" font-size="10.00">GenerateBaseSymbol</text>
</a>
</g>
</g>
<!-- Node14&#45;&gt;Node15 -->
<g id="edge14" class="edge">
<title>Node14&#45;&gt;Node15</title>
<path fill="none" stroke="midnightblue" d="M676.13,-497.5C685.5,-497.5 695.08,-497.5 704.57,-497.5"/>
<polygon fill="midnightblue" stroke="midnightblue" points="704.81,-501 714.81,-497.5 704.81,-494 704.81,-501"/>
</g>
<!-- Node27 -->
<g id="node27" class="node">
<title>Node27</title>
<g id="a_node27"><a xlink:href="interfaceQuantConnect_1_1Logging_1_1ILogHandler.html#a35373a0c5d76031fa5ccf5dc39e5c25d" target="_top" xlink:title="Write error message to log">
<polygon fill="white" stroke="black" points="514,-90.5 514,-120.5 664,-120.5 664,-90.5 514,-90.5"/>
<text text-anchor="start" x="522" y="-108.5" font-family="Helvetica,sans-Serif" font-size="10.00">QuantConnect.Logging.ILog</text>
<text text-anchor="middle" x="589" y="-97.5" font-family="Helvetica,sans-Serif" font-size="10.00">Handler.Error</text>
</a>
</g>
</g>
<!-- Node26&#45;&gt;Node27 -->
<g id="edge28" class="edge">
<title>Node26&#45;&gt;Node27</title>
<path fill="none" stroke="midnightblue" d="M432.38,-159.44C442.77,-156.54 453.26,-153.22 463,-149.5 479.9,-143.05 482.2,-137.21 499,-130.5 505.11,-128.06 511.54,-125.76 518.04,-123.62"/>
<polygon fill="midnightblue" stroke="midnightblue" points="519.1,-126.96 527.58,-120.6 516.99,-120.29 519.1,-126.96"/>
</g>
<!-- Node30 -->
<g id="node30" class="node">
<title>Node30</title>
<g id="a_node30"><a xlink:href="interfaceQuantConnect_1_1Logging_1_1ILogHandler.html#a3fb71a33ac66129240b63f12b6fcda3b" target="_top" xlink:title="Write debug message to log">
<polygon fill="white" stroke="black" points="514,-41.5 514,-71.5 664,-71.5 664,-41.5 514,-41.5"/>
<text text-anchor="start" x="522" y="-59.5" font-family="Helvetica,sans-Serif" font-size="10.00">QuantConnect.Logging.ILog</text>
<text text-anchor="middle" x="589" y="-48.5" font-family="Helvetica,sans-Serif" font-size="10.00">Handler.Trace</text>
</a>
</g>
</g>
<!-- Node29&#45;&gt;Node30 -->
<g id="edge31" class="edge">
<title>Node29&#45;&gt;Node30</title>
<path fill="none" stroke="midnightblue" d="M436.65,-61.87C458.13,-61.11 481.75,-60.27 503.8,-59.49"/>
<polygon fill="midnightblue" stroke="midnightblue" points="503.94,-62.98 513.81,-59.13 503.69,-55.99 503.94,-62.98"/>
</g>
</g>
</svg>
        <g id="navigator" transform="translate(0 0)" fill="#404254">
                <rect fill="#f2f5e9" fill-opacity="0.5" stroke="#606060" stroke-width=".5" x="0" y="0" width="60" height="60"/>
                <use id="zoomplus" xlink:href="#zoomPlus" x="17" y="9" onmousedown="handleZoom(evt,'in')"/>
                <use id="zoomminus" xlink:href="#zoomMin" x="42" y="9" onmousedown="handleZoom(evt,'out')"/>
                <use id="reset" xlink:href="#resetDef" x="30" y="36" onmousedown="handleReset()"/>
                <g id="arrowUp" xlink:href="#dirArrow" transform="translate(30 24)" onmousedown="handlePan(0,-1)">
                  <use xlink:href="#rim" fill="#404040">
                        <set attributeName="fill" to="#808080" begin="arrowUp.mouseover" end="arrowUp.mouseout"/>
                  </use>
                  <path fill="none" stroke="white" stroke-width="1.5" d="M0,-3.0v7 M-2.5,-0.5L0,-3.0L2.5,-0.5"/>
                </g>
                <g id="arrowRight" xlink:href="#dirArrow" transform="rotate(90) translate(36 -43)" onmousedown="handlePan(1,0)">
                  <use xlink:href="#rim" fill="#404040">
                        <set attributeName="fill" to="#808080" begin="arrowRight.mouseover" end="arrowRight.mouseout"/>
                  </use>
                  <path fill="none" stroke="white" stroke-width="1.5" d="M0,-3.0v7 M-2.5,-0.5L0,-3.0L2.5,-0.5"/>
                </g>
                <g id="arrowDown" xlink:href="#dirArrow" transform="rotate(180) translate(-30 -48)" onmousedown="handlePan(0,1)">
                  <use xlink:href="#rim" fill="#404040">
                        <set attributeName="fill" to="#808080" begin="arrowDown.mouseover" end="arrowDown.mouseout"/>
                  </use>
                  <path fill="none" stroke="white" stroke-width="1.5" d="M0,-3.0v7 M-2.5,-0.5L0,-3.0L2.5,-0.5"/>
                </g>
                <g id="arrowLeft" xlink:href="#dirArrow" transform="rotate(270) translate(-36 17)" onmousedown="handlePan(-1,0)">
                  <use xlink:href="#rim" fill="#404040">
                        <set attributeName="fill" to="#808080" begin="arrowLeft.mouseover" end="arrowLeft.mouseout"/>
                  </use>
                  <path fill="none" stroke="white" stroke-width="1.5" d="M0,-3.0v7 M-2.5,-0.5L0,-3.0L2.5,-0.5"/>
                </g>
        </g>
        <svg viewBox="0 0 15 15" width="100%" height="30px" preserveAspectRatio="xMaxYMin meet">
         <g id="arrow_out" transform="scale(0.3 0.3)">
          <a xlink:href="classQuantConnect_1_1ToolBox_1_1RandomDataGenerator_1_1RandomDataGenerator_ada63eccf46a461c8a094c51c75eb0a28_cgraph_org.svg" target="_base">
           <rect id="button" ry="5" rx="5" y="6" x="6" height="38" width="38"
                fill="#f2f5e9" fill-opacity="0.5" stroke="#606060" stroke-width="1.0"/>
           <path id="arrow"
             d="M 11.500037,31.436501 C 11.940474,20.09759 22.043105,11.32322 32.158766,21.979434 L 37.068811,17.246167 C 37.068811,17.246167 37.088388,32 37.088388,32 L 22.160133,31.978069 C 22.160133,31.978069 26.997745,27.140456 26.997745,27.140456 C 18.528582,18.264221 13.291696,25.230495 11.500037,31.436501 z"
             style="fill:#404040;"/>
          </a>
         </g>
        </svg>
</svg>
