<?xml version="1.0" encoding="UTF-8" standalone="no"?>
<!DOCTYPE svg PUBLIC "-//W3C//DTD SVG 1.1//EN"
 "http://www.w3.org/Graphics/SVG/1.1/DTD/svg11.dtd">
<!-- Generated by graphviz version 2.43.0 (0)
 -->
<!-- Title: QuantConnect.Algorithm.QCAlgorithm.History Pages: 1 -->
<svg width="874pt" height="137pt"
 viewBox="0.00 0.00 874.00 137.00" xmlns="http://www.w3.org/2000/svg" xmlns:xlink="http://www.w3.org/1999/xlink">
<g id="graph0" class="graph" transform="scale(1 1) rotate(0) translate(4 133)">
<title>QuantConnect.Algorithm.QCAlgorithm.History</title>
<polygon fill="white" stroke="transparent" points="-4,4 -4,-133 870,-133 870,4 -4,4"/>
<!-- Node1 -->
<g id="node1" class="node">
<title>Node1</title>
<g id="a_node1"><a xlink:title="Gets the historical data for the specified symbol. The exact number of bars will be returned....">
<polygon fill="#bfbfbf" stroke="black" points="0,-49.5 0,-79.5 205,-79.5 205,-49.5 0,-49.5"/>
<text text-anchor="start" x="8" y="-67.5" font-family="Helvetica,sans-Serif" font-size="10.00">QuantConnect.Algorithm.QCAlgorithm.</text>
<text text-anchor="middle" x="102.5" y="-56.5" font-family="Helvetica,sans-Serif" font-size="10.00">History</text>
</a>
</g>
</g>
<!-- Node2 -->
<g id="node2" class="node">
<title>Node2</title>
<g id="a_node2"><a xlink:href="classQuantConnect_1_1Extensions.html#a4784f746909e2ee4cffea7538da5669a" target="_top" xlink:title="Retrieve a common custom data types from the given symbols if any">
<polygon fill="white" stroke="black" points="251.5,-98.5 251.5,-128.5 435.5,-128.5 435.5,-98.5 251.5,-98.5"/>
<text text-anchor="start" x="259.5" y="-116.5" font-family="Helvetica,sans-Serif" font-size="10.00">QuantConnect.Extensions.</text>
<text text-anchor="middle" x="343.5" y="-105.5" font-family="Helvetica,sans-Serif" font-size="10.00">GetCustomDataTypeFromSymbols</text>
</a>
</g>
</g>
<!-- Node1&#45;&gt;Node2 -->
<g id="edge1" class="edge">
<title>Node1&#45;&gt;Node2</title>
<path fill="none" stroke="midnightblue" d="M176.83,-79.53C202.87,-84.87 232.36,-90.92 259.18,-96.42"/>
<polygon fill="midnightblue" stroke="midnightblue" points="258.81,-99.91 269.31,-98.49 260.21,-93.06 258.81,-99.91"/>
</g>
<!-- Node5 -->
<g id="node5" class="node">
<title>Node5</title>
<g id="a_node5"><a xlink:href="classQuantConnect_1_1Algorithm_1_1QCAlgorithm.html#a45b1329e1d28dd2318222fe3f0fe526b" target="_top" xlink:title="Converts an enumerable of Slice into a Python Pandas data frame">
<polygon fill="white" stroke="black" points="241,-49.5 241,-79.5 446,-79.5 446,-49.5 241,-49.5"/>
<text text-anchor="start" x="249" y="-67.5" font-family="Helvetica,sans-Serif" font-size="10.00">QuantConnect.Algorithm.QCAlgorithm.</text>
<text text-anchor="middle" x="343.5" y="-56.5" font-family="Helvetica,sans-Serif" font-size="10.00">GetDataFrame</text>
</a>
</g>
</g>
<!-- Node1&#45;&gt;Node5 -->
<g id="edge4" class="edge">
<title>Node1&#45;&gt;Node5</title>
<path fill="none" stroke="midnightblue" d="M205.2,-64.5C213.7,-64.5 222.31,-64.5 230.87,-64.5"/>
<polygon fill="midnightblue" stroke="midnightblue" points="230.89,-68 240.89,-64.5 230.89,-61 230.89,-68"/>
</g>
<!-- Node7 -->
<g id="node7" class="node">
<title>Node7</title>
<g id="a_node7"><a xlink:href="classQuantConnect_1_1Algorithm_1_1QCAlgorithm.html#a446a10e68319fdc3c0b2ed85d80f55f8" target="_top" xlink:title="Get the history for all configured securities over the requested span. This will use the resolution a...">
<polygon fill="white" stroke="black" points="241,-0.5 241,-30.5 446,-30.5 446,-0.5 241,-0.5"/>
<text text-anchor="start" x="249" y="-18.5" font-family="Helvetica,sans-Serif" font-size="10.00">QuantConnect.Algorithm.QCAlgorithm.</text>
<text text-anchor="middle" x="343.5" y="-7.5" font-family="Helvetica,sans-Serif" font-size="10.00">History</text>
</a>
</g>
</g>
<!-- Node1&#45;&gt;Node7 -->
<g id="edge6" class="edge">
<title>Node1&#45;&gt;Node7</title>
<path fill="none" stroke="midnightblue" d="M176.83,-49.47C202.87,-44.13 232.36,-38.08 259.18,-32.58"/>
<polygon fill="midnightblue" stroke="midnightblue" points="260.21,-35.94 269.31,-30.51 258.81,-29.09 260.21,-35.94"/>
</g>
<!-- Node3 -->
<g id="node3" class="node">
<title>Node3</title>
<g id="a_node3"><a xlink:href="classQuantConnect_1_1SecurityIdentifier.html#a2a52cbd8bce9ff527bc8021a3e3a0037" target="_top" xlink:title="Tries to fetch the custom data type associated with a symbol">
<polygon fill="white" stroke="black" points="482,-98.5 482,-128.5 656,-128.5 656,-98.5 482,-98.5"/>
<text text-anchor="start" x="490" y="-116.5" font-family="Helvetica,sans-Serif" font-size="10.00">QuantConnect.SecurityIdentifier.</text>
<text text-anchor="middle" x="569" y="-105.5" font-family="Helvetica,sans-Serif" font-size="10.00">TryGetCustomDataTypeInstance</text>
</a>
</g>
</g>
<!-- Node2&#45;&gt;Node3 -->
<g id="edge2" class="edge">
<title>Node2&#45;&gt;Node3</title>
<path fill="none" stroke="midnightblue" d="M435.73,-113.5C447.49,-113.5 459.57,-113.5 471.41,-113.5"/>
<polygon fill="midnightblue" stroke="midnightblue" points="471.75,-117 481.75,-113.5 471.75,-110 471.75,-117"/>
</g>
<!-- Node4 -->
<g id="node4" class="node">
<title>Node4</title>
<g id="a_node4"><a xlink:href="classQuantConnect_1_1SecurityIdentifier.html#a65051a4af9e25cab40451dc9ef12db6a" target="_top" xlink:title="Tries to fetch the custom data type associated with a symbol">
<polygon fill="white" stroke="black" points="692,-98.5 692,-128.5 866,-128.5 866,-98.5 692,-98.5"/>
<text text-anchor="start" x="700" y="-116.5" font-family="Helvetica,sans-Serif" font-size="10.00">QuantConnect.SecurityIdentifier.</text>
<text text-anchor="middle" x="779" y="-105.5" font-family="Helvetica,sans-Serif" font-size="10.00">TryGetCustomDataType</text>
</a>
</g>
</g>
<!-- Node3&#45;&gt;Node4 -->
<g id="edge3" class="edge">
<title>Node3&#45;&gt;Node4</title>
<path fill="none" stroke="midnightblue" d="M656.1,-113.5C664.62,-113.5 673.3,-113.5 681.91,-113.5"/>
<polygon fill="midnightblue" stroke="midnightblue" points="681.96,-117 691.96,-113.5 681.96,-110 681.96,-117"/>
</g>
<!-- Node6 -->
<g id="node6" class="node">
<title>Node6</title>
<g id="a_node6"><a xlink:href="classQuantConnect_1_1Python_1_1PandasConverter.html#a6f3760d582f672fa35d523ec47a4c159" target="_top" xlink:title="Converts an enumerable of Slice in a pandas.DataFrame">
<polygon fill="white" stroke="black" points="489,-49.5 489,-79.5 649,-79.5 649,-49.5 489,-49.5"/>
<text text-anchor="start" x="497" y="-67.5" font-family="Helvetica,sans-Serif" font-size="10.00">QuantConnect.Python.Pandas</text>
<text text-anchor="middle" x="569" y="-56.5" font-family="Helvetica,sans-Serif" font-size="10.00">Converter.GetDataFrame</text>
</a>
</g>
</g>
<!-- Node5&#45;&gt;Node6 -->
<g id="edge5" class="edge">
<title>Node5&#45;&gt;Node6</title>
<path fill="none" stroke="midnightblue" d="M446.11,-64.5C456.95,-64.5 467.91,-64.5 478.59,-64.5"/>
<polygon fill="midnightblue" stroke="midnightblue" points="478.73,-68 488.73,-64.5 478.73,-61 478.73,-68"/>
</g>
</g>
</svg>
