<?xml version="1.0" encoding="UTF-8" standalone="no"?>
<!DOCTYPE svg PUBLIC "-//W3C//DTD SVG 1.1//EN"
 "http://www.w3.org/Graphics/SVG/1.1/DTD/svg11.dtd">
<!-- Generated by graphviz version 2.43.0 (0)
 -->
<!-- Title: QuantConnect.Api.BasicBacktest Pages: 1 -->
<svg width="326pt" height="207pt"
 viewBox="0.00 0.00 326.00 207.00" xmlns="http://www.w3.org/2000/svg" xmlns:xlink="http://www.w3.org/1999/xlink">
<g id="graph0" class="graph" transform="scale(1 1) rotate(0) translate(4 203)">
<title>QuantConnect.Api.BasicBacktest</title>
<polygon fill="white" stroke="transparent" points="-4,4 -4,-203 322,-203 322,4 -4,4"/>
<!-- Node1 -->
<g id="node1" class="node">
<title>Node1</title>
<g id="a_node1"><a xlink:title="Base class for backtest result object response">
<polygon fill="#bfbfbf" stroke="black" points="71,-67.5 71,-86.5 247,-86.5 247,-67.5 71,-67.5"/>
<text text-anchor="middle" x="159" y="-74.5" font-family="Helvetica,sans-Serif" font-size="10.00">QuantConnect.Api.BasicBacktest</text>
</a>
</g>
</g>
<!-- Node4 -->
<g id="node4" class="node">
<title>Node4</title>
<g id="a_node4"><a xlink:href="classQuantConnect_1_1Api_1_1Backtest.html" target="_top" xlink:title="Results object class. Results are exhaust from backtest or live algorithms running in LEAN">
<polygon fill="white" stroke="black" points="0,-6 0,-25 150,-25 150,-6 0,-6"/>
<text text-anchor="middle" x="75" y="-13" font-family="Helvetica,sans-Serif" font-size="10.00">QuantConnect.Api.Backtest</text>
</a>
</g>
</g>
<!-- Node1&#45;&gt;Node4 -->
<g id="edge3" class="edge">
<title>Node1&#45;&gt;Node4</title>
<path fill="none" stroke="midnightblue" d="M138.69,-61.61C122.53,-50.17 100.48,-34.55 87.01,-25.01"/>
<polygon fill="midnightblue" stroke="midnightblue" points="136.78,-64.55 146.96,-67.48 140.83,-58.84 136.78,-64.55"/>
</g>
<!-- Node5 -->
<g id="node5" class="node">
<title>Node5</title>
<g id="a_node5"><a xlink:href="classQuantConnect_1_1Api_1_1BacktestSummary.html" target="_top" xlink:title="Result object class for the List Backtest response from the API">
<polygon fill="white" stroke="black" points="168,-0.5 168,-30.5 318,-30.5 318,-0.5 168,-0.5"/>
<text text-anchor="start" x="176" y="-18.5" font-family="Helvetica,sans-Serif" font-size="10.00">QuantConnect.Api.Backtest</text>
<text text-anchor="middle" x="243" y="-7.5" font-family="Helvetica,sans-Serif" font-size="10.00">Summary</text>
</a>
</g>
</g>
<!-- Node1&#45;&gt;Node5 -->
<g id="edge4" class="edge">
<title>Node1&#45;&gt;Node5</title>
<path fill="none" stroke="midnightblue" d="M179.52,-61.47C192.82,-52.05 210.05,-39.84 223.2,-30.52"/>
<polygon fill="midnightblue" stroke="midnightblue" points="177.17,-58.84 171.04,-67.48 181.22,-64.55 177.17,-58.84"/>
</g>
<!-- Node2 -->
<g id="node2" class="node">
<title>Node2</title>
<g id="a_node2"><a xlink:href="classQuantConnect_1_1Api_1_1RestResponse.html" target="_top" xlink:title="Base API response class for the QuantConnect API.">
<polygon fill="white" stroke="black" points="116,-123.5 116,-142.5 202,-142.5 202,-123.5 116,-123.5"/>
<text text-anchor="middle" x="159" y="-130.5" font-family="Helvetica,sans-Serif" font-size="10.00">RestResponse</text>
</a>
</g>
</g>
<!-- Node2&#45;&gt;Node1 -->
<g id="edge1" class="edge">
<title>Node2&#45;&gt;Node1</title>
<path fill="none" stroke="midnightblue" d="M159,-112.8C159,-103.91 159,-93.78 159,-86.75"/>
<polygon fill="midnightblue" stroke="midnightblue" points="155.5,-113.08 159,-123.08 162.5,-113.08 155.5,-113.08"/>
</g>
<!-- Node3 -->
<g id="node3" class="node">
<title>Node3</title>
<g id="a_node3"><a xlink:href="classQuantConnect_1_1Api_1_1StringRepresentation.html" target="_top" xlink:title="Class to return the string representation of an API response class">
<polygon fill="white" stroke="black" points="99.5,-179.5 99.5,-198.5 218.5,-198.5 218.5,-179.5 99.5,-179.5"/>
<text text-anchor="middle" x="159" y="-186.5" font-family="Helvetica,sans-Serif" font-size="10.00">StringRepresentation</text>
</a>
</g>
</g>
<!-- Node3&#45;&gt;Node2 -->
<g id="edge2" class="edge">
<title>Node3&#45;&gt;Node2</title>
<path fill="none" stroke="midnightblue" d="M159,-168.8C159,-159.91 159,-149.78 159,-142.75"/>
<polygon fill="midnightblue" stroke="midnightblue" points="155.5,-169.08 159,-179.08 162.5,-169.08 155.5,-169.08"/>
</g>
</g>
</svg>
