<?xml version="1.0" encoding="UTF-8" standalone="no"?>
<!DOCTYPE svg PUBLIC "-//W3C//DTD SVG 1.1//EN"
 "http://www.w3.org/Graphics/SVG/1.1/DTD/svg11.dtd">
<!-- Generated by graphviz version 2.43.0 (0)
 -->
<!-- Title: QuantConnect.Exceptions.NoMethodMatchPythonExceptionInterpreter.Interpret Pages: 1 -->
<svg width="460pt" height="100pt"
 viewBox="0.00 0.00 460.00 99.50" xmlns="http://www.w3.org/2000/svg" xmlns:xlink="http://www.w3.org/1999/xlink">
<g id="graph0" class="graph" transform="scale(1 1) rotate(0) translate(4 95.5)">
<title>QuantConnect.Exceptions.NoMethodMatchPythonExceptionInterpreter.Interpret</title>
<polygon fill="white" stroke="transparent" points="-4,4 -4,-95.5 456,-95.5 456,4 -4,4"/>
<!-- Node1 -->
<g id="node1" class="node">
<title>Node1</title>
<g id="a_node1"><a xlink:title="Interprets the specified exception into a new exception">
<polygon fill="#bfbfbf" stroke="black" points="0,-22 0,-63 179,-63 179,-22 0,-22"/>
<text text-anchor="start" x="8" y="-51" font-family="Helvetica,sans-Serif" font-size="10.00">QuantConnect.Exceptions.</text>
<text text-anchor="start" x="8" y="-40" font-family="Helvetica,sans-Serif" font-size="10.00">NoMethodMatchPythonException</text>
<text text-anchor="middle" x="89.5" y="-29" font-family="Helvetica,sans-Serif" font-size="10.00">Interpreter.Interpret</text>
</a>
</g>
</g>
<!-- Node2 -->
<g id="node2" class="node">
<title>Node2</title>
<g id="a_node2"><a xlink:href="classQuantConnect_1_1Messages_1_1NoMethodMatchPythonExceptionInterpreter.html#a10df9c015034a2e403c58a49706b6355" target="_top" xlink:title="Returns a string message saying the given method does not exists. It also contains the exception thro...">
<polygon fill="white" stroke="black" points="215,-50 215,-91 452,-91 452,-50 215,-50"/>
<text text-anchor="start" x="223" y="-79" font-family="Helvetica,sans-Serif" font-size="10.00">QuantConnect.Messages.No</text>
<text text-anchor="start" x="223" y="-68" font-family="Helvetica,sans-Serif" font-size="10.00">MethodMatchPythonExceptionInterpreter.</text>
<text text-anchor="middle" x="333.5" y="-57" font-family="Helvetica,sans-Serif" font-size="10.00">AttemptedToAccessMethodThatDoesNotExist</text>
</a>
</g>
</g>
<!-- Node1&#45;&gt;Node2 -->
<g id="edge1" class="edge">
<title>Node1&#45;&gt;Node2</title>
<path fill="none" stroke="midnightblue" d="M179.24,-52.77C187.58,-53.73 196.13,-54.72 204.74,-55.72"/>
<polygon fill="midnightblue" stroke="midnightblue" points="204.51,-59.22 214.85,-56.89 205.32,-52.26 204.51,-59.22"/>
</g>
<!-- Node3 -->
<g id="node3" class="node">
<title>Node3</title>
<g id="a_node3"><a xlink:href="classQuantConnect_1_1Util_1_1PythonUtil.html#a092a2692ea8e8fd23fe5e3b3357c336f" target="_top" xlink:title="Parsers PythonException.StackTrace into a readable message">
<polygon fill="white" stroke="black" points="245.5,-0.5 245.5,-30.5 421.5,-30.5 421.5,-0.5 245.5,-0.5"/>
<text text-anchor="start" x="253.5" y="-18.5" font-family="Helvetica,sans-Serif" font-size="10.00">QuantConnect.Util.Python</text>
<text text-anchor="middle" x="333.5" y="-7.5" font-family="Helvetica,sans-Serif" font-size="10.00">Util.PythonExceptionStackParser</text>
</a>
</g>
</g>
<!-- Node1&#45;&gt;Node3 -->
<g id="edge2" class="edge">
<title>Node1&#45;&gt;Node3</title>
<path fill="none" stroke="midnightblue" d="M179.24,-32.6C197.45,-30.57 216.71,-28.42 235.21,-26.36"/>
<polygon fill="midnightblue" stroke="midnightblue" points="235.84,-29.81 245.39,-25.22 235.06,-22.85 235.84,-29.81"/>
</g>
</g>
</svg>
