<?xml version="1.0" encoding="UTF-8" standalone="no"?>
<!DOCTYPE svg PUBLIC "-//W3C//DTD SVG 1.1//EN"
 "http://www.w3.org/Graphics/SVG/1.1/DTD/svg11.dtd">
<!-- Generated by graphviz version 2.43.0 (0)
 -->
<!-- Title: QuantConnect.Lean.Engine.Server.LocalLeanManager.SetCommandHandler Pages: 1 -->
<svg width="483pt" height="50pt"
 viewBox="0.00 0.00 483.00 50.00" xmlns="http://www.w3.org/2000/svg" xmlns:xlink="http://www.w3.org/1999/xlink">
<g id="graph0" class="graph" transform="scale(1 1) rotate(0) translate(4 46)">
<title>QuantConnect.Lean.Engine.Server.LocalLeanManager.SetCommandHandler</title>
<polygon fill="white" stroke="transparent" points="-4,4 -4,-46 479,-46 479,4 -4,4"/>
<!-- Node1 -->
<g id="node1" class="node">
<title>Node1</title>
<g id="a_node1"><a xlink:title="Set the command handler to use, protected for testing purposes">
<polygon fill="#bfbfbf" stroke="black" points="265,-0.5 265,-41.5 475,-41.5 475,-0.5 265,-0.5"/>
<text text-anchor="start" x="273" y="-29.5" font-family="Helvetica,sans-Serif" font-size="10.00">QuantConnect.Lean.Engine.</text>
<text text-anchor="start" x="273" y="-18.5" font-family="Helvetica,sans-Serif" font-size="10.00">Server.LocalLeanManager.SetCommand</text>
<text text-anchor="middle" x="370" y="-7.5" font-family="Helvetica,sans-Serif" font-size="10.00">Handler</text>
</a>
</g>
</g>
<!-- Node2 -->
<g id="node2" class="node">
<title>Node2</title>
<g id="a_node2"><a xlink:href="classQuantConnect_1_1Lean_1_1Engine_1_1Server_1_1LocalLeanManager.html#ae286dde049e77cf50a112f355bddb124" target="_top" xlink:title="This method is called after algorithm initialization">
<polygon fill="white" stroke="black" points="0,-6 0,-36 229,-36 229,-6 0,-6"/>
<text text-anchor="start" x="8" y="-24" font-family="Helvetica,sans-Serif" font-size="10.00">QuantConnect.Lean.Engine.</text>
<text text-anchor="middle" x="114.5" y="-13" font-family="Helvetica,sans-Serif" font-size="10.00">Server.LocalLeanManager.OnAlgorithmStart</text>
</a>
</g>
</g>
<!-- Node1&#45;&gt;Node2 -->
<g id="edge1" class="edge">
<title>Node1&#45;&gt;Node2</title>
<path fill="none" stroke="midnightblue" d="M254.55,-21C246.12,-21 237.61,-21 229.18,-21"/>
<polygon fill="midnightblue" stroke="midnightblue" points="254.79,-24.5 264.79,-21 254.79,-17.5 254.79,-24.5"/>
</g>
</g>
</svg>
