<?xml version="1.0" encoding="UTF-8" standalone="no"?>
<!DOCTYPE svg PUBLIC "-//W3C//DTD SVG 1.1//EN"
 "http://www.w3.org/Graphics/SVG/1.1/DTD/svg11.dtd">
<!-- Generated by graphviz version 2.43.0 (0)
 -->
<!-- Title: QuantConnect.Securities.Option.OptionStrategies.ProtectiveCollar Pages: 1 -->
<svg width="1326pt" height="100pt"
 viewBox="0.00 0.00 1326.00 99.50" xmlns="http://www.w3.org/2000/svg" xmlns:xlink="http://www.w3.org/1999/xlink">
<g id="graph0" class="graph" transform="scale(1 1) rotate(0) translate(4 95.5)">
<title>QuantConnect.Securities.Option.OptionStrategies.ProtectiveCollar</title>
<polygon fill="white" stroke="transparent" points="-4,4 -4,-95.5 1322,-95.5 1322,4 -4,4"/>
<!-- Node1 -->
<g id="node1" class="node">
<title>Node1</title>
<g id="a_node1"><a xlink:title="Creates a Protective Collar strategy that consists of buying 1 put contract and 1 lot of the underlyi...">
<polygon fill="#bfbfbf" stroke="black" points="0,-22 0,-63 186,-63 186,-22 0,-22"/>
<text text-anchor="start" x="8" y="-51" font-family="Helvetica,sans-Serif" font-size="10.00">QuantConnect.Securities.</text>
<text text-anchor="start" x="8" y="-40" font-family="Helvetica,sans-Serif" font-size="10.00">Option.OptionStrategies.Protective</text>
<text text-anchor="middle" x="93" y="-29" font-family="Helvetica,sans-Serif" font-size="10.00">Collar</text>
</a>
</g>
</g>
<!-- Node2 -->
<g id="node2" class="node">
<title>Node2</title>
<g id="a_node2"><a xlink:href="classQuantConnect_1_1Securities_1_1Option_1_1OptionStrategies.html#af962e2a102203b581881d61b26f6e2b9" target="_top" xlink:title="Creates a Covered Call strategy that consists of selling one call contract and buying 1 lot of the un...">
<polygon fill="white" stroke="black" points="460,-52.5 460,-82.5 656,-82.5 656,-52.5 460,-52.5"/>
<text text-anchor="start" x="468" y="-70.5" font-family="Helvetica,sans-Serif" font-size="10.00">QuantConnect.Securities.</text>
<text text-anchor="middle" x="558" y="-59.5" font-family="Helvetica,sans-Serif" font-size="10.00">Option.OptionStrategies.CoveredCall</text>
</a>
</g>
</g>
<!-- Node1&#45;&gt;Node2 -->
<g id="edge1" class="edge">
<title>Node1&#45;&gt;Node2</title>
<path fill="none" stroke="midnightblue" d="M186.03,-47.47C262.03,-51.57 369.99,-57.4 449.87,-61.72"/>
<polygon fill="midnightblue" stroke="midnightblue" points="449.79,-65.22 459.96,-62.26 450.16,-58.23 449.79,-65.22"/>
</g>
<!-- Node7 -->
<g id="node7" class="node">
<title>Node7</title>
<g id="a_node7"><a xlink:href="classQuantConnect_1_1Securities_1_1Option_1_1OptionStrategies.html#afcfb6c6bdefd28c465c8c1ada3f170d6" target="_top" xlink:title="Creates a Protective Put strategy that consists of buying 1 put contract and 1 lot of the underlying.">
<polygon fill="white" stroke="black" points="222,-5.5 222,-35.5 424,-35.5 424,-5.5 222,-5.5"/>
<text text-anchor="start" x="230" y="-23.5" font-family="Helvetica,sans-Serif" font-size="10.00">QuantConnect.Securities.</text>
<text text-anchor="middle" x="323" y="-12.5" font-family="Helvetica,sans-Serif" font-size="10.00">Option.OptionStrategies.ProtectivePut</text>
</a>
</g>
</g>
<!-- Node1&#45;&gt;Node7 -->
<g id="edge6" class="edge">
<title>Node1&#45;&gt;Node7</title>
<path fill="none" stroke="midnightblue" d="M186.08,-33.62C194.52,-32.8 203.12,-31.97 211.7,-31.14"/>
<polygon fill="midnightblue" stroke="midnightblue" points="212.13,-34.62 221.75,-30.17 211.46,-27.65 212.13,-34.62"/>
</g>
<!-- Node3 -->
<g id="node3" class="node">
<title>Node3</title>
<g id="a_node3"><a xlink:href="classQuantConnect_1_1Securities_1_1SymbolPropertiesDatabase.html#a3ea48557a7a885c2c53529f8c4b75598" target="_top" xlink:title="Gets the symbol properties for the specified market/symbol/security&#45;type">
<polygon fill="white" stroke="black" points="692,-22 692,-63 862,-63 862,-22 692,-22"/>
<text text-anchor="start" x="700" y="-51" font-family="Helvetica,sans-Serif" font-size="10.00">QuantConnect.Securities.</text>
<text text-anchor="start" x="700" y="-40" font-family="Helvetica,sans-Serif" font-size="10.00">SymbolPropertiesDatabase.Get</text>
<text text-anchor="middle" x="777" y="-29" font-family="Helvetica,sans-Serif" font-size="10.00">SymbolProperties</text>
</a>
</g>
</g>
<!-- Node2&#45;&gt;Node3 -->
<g id="edge2" class="edge">
<title>Node2&#45;&gt;Node3</title>
<path fill="none" stroke="midnightblue" d="M656.08,-56.32C664.67,-55.33 673.37,-54.32 681.94,-53.34"/>
<polygon fill="midnightblue" stroke="midnightblue" points="682.4,-56.81 691.93,-52.19 681.6,-49.85 682.4,-56.81"/>
</g>
<!-- Node4 -->
<g id="node4" class="node">
<title>Node4</title>
<g id="a_node4"><a xlink:href="classQuantConnect_1_1Securities_1_1MarketHoursDatabase.html#aa717adb9bb04be931913608ffd5a2733" target="_top" xlink:title="Gets the correct string symbol to use as a database key">
<polygon fill="white" stroke="black" points="898,-50 898,-91 1090,-91 1090,-50 898,-50"/>
<text text-anchor="start" x="906" y="-79" font-family="Helvetica,sans-Serif" font-size="10.00">QuantConnect.Securities.</text>
<text text-anchor="start" x="906" y="-68" font-family="Helvetica,sans-Serif" font-size="10.00">MarketHoursDatabase.GetDatabase</text>
<text text-anchor="middle" x="994" y="-57" font-family="Helvetica,sans-Serif" font-size="10.00">SymbolKey</text>
</a>
</g>
</g>
<!-- Node3&#45;&gt;Node4 -->
<g id="edge3" class="edge">
<title>Node3&#45;&gt;Node4</title>
<path fill="none" stroke="midnightblue" d="M862.05,-53.45C870.51,-54.55 879.18,-55.68 887.83,-56.8"/>
<polygon fill="midnightblue" stroke="midnightblue" points="887.59,-60.3 897.96,-58.12 888.5,-53.36 887.59,-60.3"/>
</g>
<!-- Node5 -->
<g id="node5" class="node">
<title>Node5</title>
<g id="a_node5"><a xlink:href="classQuantConnect_1_1Securities_1_1SymbolProperties.html#ad148190d1dfce7109d38d3107b7b8fbf" target="_top" xlink:title="Gets a default instance of the SymbolProperties class for the specified quoteCurrency">
<polygon fill="white" stroke="black" points="914.5,-0.5 914.5,-30.5 1073.5,-30.5 1073.5,-0.5 914.5,-0.5"/>
<text text-anchor="start" x="922.5" y="-18.5" font-family="Helvetica,sans-Serif" font-size="10.00">QuantConnect.Securities.</text>
<text text-anchor="middle" x="994" y="-7.5" font-family="Helvetica,sans-Serif" font-size="10.00">SymbolProperties.GetDefault</text>
</a>
</g>
</g>
<!-- Node3&#45;&gt;Node5 -->
<g id="edge4" class="edge">
<title>Node3&#45;&gt;Node5</title>
<path fill="none" stroke="midnightblue" d="M862.05,-31.95C875.89,-30.21 890.27,-28.4 904.21,-26.65"/>
<polygon fill="midnightblue" stroke="midnightblue" points="904.79,-30.1 914.28,-25.39 903.92,-23.16 904.79,-30.1"/>
</g>
<!-- Node6 -->
<g id="node6" class="node">
<title>Node6</title>
<g id="a_node6"><a xlink:href="classQuantConnect_1_1Securities_1_1SymbolProperties.html#a0f421617bcddd5b08a830689b1e2dcfa" target="_top" xlink:title="Creates an instance of the SymbolProperties class">
<polygon fill="white" stroke="black" points="1126,-0.5 1126,-30.5 1318,-30.5 1318,-0.5 1126,-0.5"/>
<text text-anchor="start" x="1134" y="-18.5" font-family="Helvetica,sans-Serif" font-size="10.00">QuantConnect.Securities.</text>
<text text-anchor="middle" x="1222" y="-7.5" font-family="Helvetica,sans-Serif" font-size="10.00">SymbolProperties.SymbolProperties</text>
</a>
</g>
</g>
<!-- Node5&#45;&gt;Node6 -->
<g id="edge5" class="edge">
<title>Node5&#45;&gt;Node6</title>
<path fill="none" stroke="midnightblue" d="M1073.73,-15.5C1087.26,-15.5 1101.51,-15.5 1115.61,-15.5"/>
<polygon fill="midnightblue" stroke="midnightblue" points="1115.83,-19 1125.83,-15.5 1115.83,-12 1115.83,-19"/>
</g>
<!-- Node8 -->
<g id="node8" class="node">
<title>Node8</title>
<g id="a_node8"><a xlink:href="classQuantConnect_1_1Securities_1_1Option_1_1OptionStrategies.html#a4f753c3cf6890aad92052dada75760fb" target="_top" xlink:title="Creates a Covered Put strategy that consists of selling 1 put contract and 1 lot of the underlying.">
<polygon fill="white" stroke="black" points="461.5,-3.5 461.5,-33.5 654.5,-33.5 654.5,-3.5 461.5,-3.5"/>
<text text-anchor="start" x="469.5" y="-21.5" font-family="Helvetica,sans-Serif" font-size="10.00">QuantConnect.Securities.</text>
<text text-anchor="middle" x="558" y="-10.5" font-family="Helvetica,sans-Serif" font-size="10.00">Option.OptionStrategies.CoveredPut</text>
</a>
</g>
</g>
<!-- Node7&#45;&gt;Node8 -->
<g id="edge7" class="edge">
<title>Node7&#45;&gt;Node8</title>
<path fill="none" stroke="midnightblue" d="M424.17,-19.64C433.13,-19.56 442.22,-19.49 451.23,-19.41"/>
<polygon fill="midnightblue" stroke="midnightblue" points="451.38,-22.91 461.35,-19.32 451.32,-15.91 451.38,-22.91"/>
</g>
<!-- Node8&#45;&gt;Node3 -->
<g id="edge8" class="edge">
<title>Node8&#45;&gt;Node3</title>
<path fill="none" stroke="midnightblue" d="M654.81,-29.1C663.8,-30.09 672.91,-31.1 681.89,-32.09"/>
<polygon fill="midnightblue" stroke="midnightblue" points="681.63,-35.58 691.95,-33.2 682.4,-28.63 681.63,-35.58"/>
</g>
</g>
</svg>
