<?xml version="1.0" encoding="UTF-8" standalone="no"?>
<!DOCTYPE svg PUBLIC "-//W3C//DTD SVG 1.1//EN"
 "http://www.w3.org/Graphics/SVG/1.1/DTD/svg11.dtd">
<!-- Generated by graphviz version 2.43.0 (0)
 -->
<!-- Title: QuantConnect.Lean.Engine.TransactionHandlers.BrokerageTransactionHandler.CancelOrder Pages: 1 -->
<svg width="865pt" height="516pt"
 viewBox="0.00 0.00 865.00 516.11" xmlns="http://www.w3.org/2000/svg" xmlns:xlink="http://www.w3.org/1999/xlink">
<g id="graph0" class="graph" transform="scale(1 1) rotate(0) translate(4 512.11)">
<title>QuantConnect.Lean.Engine.TransactionHandlers.BrokerageTransactionHandler.CancelOrder</title>
<polygon fill="white" stroke="transparent" points="-4,4 -4,-512.11 861,-512.11 861,4 -4,4"/>
<!-- Node1 -->
<g id="node1" class="node">
<title>Node1</title>
<g id="a_node1"><a xlink:title="Remove this order from outstanding queue: user is requesting a cancel.">
<polygon fill="#bfbfbf" stroke="black" points="0,-217.11 0,-258.11 224,-258.11 224,-217.11 0,-217.11"/>
<text text-anchor="start" x="8" y="-246.11" font-family="Helvetica,sans-Serif" font-size="10.00">QuantConnect.Lean.Engine.</text>
<text text-anchor="start" x="8" y="-235.11" font-family="Helvetica,sans-Serif" font-size="10.00">TransactionHandlers.BrokerageTransaction</text>
<text text-anchor="middle" x="112" y="-224.11" font-family="Helvetica,sans-Serif" font-size="10.00">Handler.CancelOrder</text>
</a>
</g>
</g>
<!-- Node2 -->
<g id="node2" class="node">
<title>Node2</title>
<g id="a_node2"><a xlink:href="classQuantConnect_1_1Logging_1_1Log.html#af0e7955911bc7664b37661b2a303a9e3" target="_top" xlink:title="Log error">
<polygon fill="white" stroke="black" points="280.5,-470.61 280.5,-500.61 430.5,-500.61 430.5,-470.61 280.5,-470.61"/>
<text text-anchor="start" x="288.5" y="-488.61" font-family="Helvetica,sans-Serif" font-size="10.00">QuantConnect.Logging.Log.</text>
<text text-anchor="middle" x="355.5" y="-477.61" font-family="Helvetica,sans-Serif" font-size="10.00">Error</text>
</a>
</g>
</g>
<!-- Node1&#45;&gt;Node2 -->
<g id="edge1" class="edge">
<title>Node1&#45;&gt;Node2</title>
<path fill="none" stroke="midnightblue" d="M122.27,-258.33C141.88,-300.01 191.46,-394.56 260,-448.61 269.1,-455.78 279.75,-461.71 290.57,-466.56"/>
<polygon fill="midnightblue" stroke="midnightblue" points="289.5,-469.91 300.08,-470.55 292.21,-463.45 289.5,-469.91"/>
</g>
<!-- Node4 -->
<g id="node4" class="node">
<title>Node4</title>
<g id="a_node4"><a xlink:href="classQuantConnect_1_1Orders_1_1OrderResponse.html#a14ded2753785926becc5e7f8e5a02a09" target="_top" xlink:title="Helper method to create an error response from a request">
<polygon fill="white" stroke="black" points="698,-198.61 698,-228.61 849,-228.61 849,-198.61 698,-198.61"/>
<text text-anchor="start" x="706" y="-216.61" font-family="Helvetica,sans-Serif" font-size="10.00">QuantConnect.Orders.Order</text>
<text text-anchor="middle" x="773.5" y="-205.61" font-family="Helvetica,sans-Serif" font-size="10.00">Response.Error</text>
</a>
</g>
</g>
<!-- Node1&#45;&gt;Node4 -->
<g id="edge3" class="edge">
<title>Node1&#45;&gt;Node4</title>
<path fill="none" stroke="midnightblue" d="M170.46,-217.01C197.41,-207.82 230.11,-197.35 260,-189.61 284.87,-183.16 461.43,-148.06 487,-145.61 560.88,-138.51 582.28,-126.49 654,-145.61 687.94,-154.65 722.26,-175.99 745.17,-192.36"/>
<polygon fill="midnightblue" stroke="midnightblue" points="743.23,-195.28 753.37,-198.36 747.37,-189.63 743.23,-195.28"/>
</g>
<!-- Node5 -->
<g id="node5" class="node">
<title>Node5</title>
<g id="a_node5"><a xlink:href="classQuantConnect_1_1Orders_1_1OrderTicket.html#a2e38fdbc2be3fab72339de9ce4447818" target="_top" xlink:title="Creates a new OrderTicket that represents trying to cancel an order for which no ticket exists">
<polygon fill="white" stroke="black" points="280,-366.61 280,-396.61 431,-396.61 431,-366.61 280,-366.61"/>
<text text-anchor="start" x="288" y="-384.61" font-family="Helvetica,sans-Serif" font-size="10.00">QuantConnect.Orders.Order</text>
<text text-anchor="middle" x="355.5" y="-373.61" font-family="Helvetica,sans-Serif" font-size="10.00">Ticket.InvalidCancelOrderId</text>
</a>
</g>
</g>
<!-- Node1&#45;&gt;Node5 -->
<g id="edge4" class="edge">
<title>Node1&#45;&gt;Node5</title>
<path fill="none" stroke="midnightblue" d="M139.37,-258.18C168.05,-280.01 215.74,-314.71 260,-339.61 274.77,-347.92 291.5,-355.81 306.73,-362.46"/>
<polygon fill="midnightblue" stroke="midnightblue" points="305.42,-365.71 315.99,-366.44 308.19,-359.28 305.42,-365.71"/>
</g>
<!-- Node7 -->
<g id="node7" class="node">
<title>Node7</title>
<g id="a_node7"><a xlink:href="classQuantConnect_1_1Orders_1_1OrderRequest.html#aed73f8f311c9224866211078cd6caef1" target="_top" xlink:title="Sets the Response for this request">
<polygon fill="white" stroke="black" points="495,-330.61 495,-360.61 646,-360.61 646,-330.61 495,-330.61"/>
<text text-anchor="start" x="503" y="-348.61" font-family="Helvetica,sans-Serif" font-size="10.00">QuantConnect.Orders.Order</text>
<text text-anchor="middle" x="570.5" y="-337.61" font-family="Helvetica,sans-Serif" font-size="10.00">Request.SetResponse</text>
</a>
</g>
</g>
<!-- Node1&#45;&gt;Node7 -->
<g id="edge17" class="edge">
<title>Node1&#45;&gt;Node7</title>
<path fill="none" stroke="midnightblue" d="M167.23,-258.12C194.74,-267.99 228.84,-279.43 260,-287.61 335.01,-307.28 421.92,-322.96 484.51,-333.03"/>
<polygon fill="midnightblue" stroke="midnightblue" points="484.31,-336.54 494.73,-334.66 485.41,-329.63 484.31,-336.54"/>
</g>
<!-- Node8 -->
<g id="node8" class="node">
<title>Node8</title>
<g id="a_node8"><a xlink:href="classQuantConnect_1_1Orders_1_1OrderResponse.html#a1da35cb92d94723fc18b1937861860f7" target="_top" xlink:title="Helper method to create an error response due to a bad order id">
<polygon fill="white" stroke="black" points="491,-428.61 491,-458.61 650,-458.61 650,-428.61 491,-428.61"/>
<text text-anchor="start" x="499" y="-446.61" font-family="Helvetica,sans-Serif" font-size="10.00">QuantConnect.Orders.Order</text>
<text text-anchor="middle" x="570.5" y="-435.61" font-family="Helvetica,sans-Serif" font-size="10.00">Response.UnableToFindOrder</text>
</a>
</g>
</g>
<!-- Node1&#45;&gt;Node8 -->
<g id="edge19" class="edge">
<title>Node1&#45;&gt;Node8</title>
<path fill="none" stroke="midnightblue" d="M124.09,-258.33C145.1,-295.29 194.53,-371.94 260,-406.61 327.98,-442.6 415.89,-450.03 480.64,-449.52"/>
<polygon fill="midnightblue" stroke="midnightblue" points="480.88,-453.02 490.82,-449.37 480.77,-446.02 480.88,-453.02"/>
</g>
<!-- Node10 -->
<g id="node10" class="node">
<title>Node10</title>
<g id="a_node10"><a xlink:href="classQuantConnect_1_1Orders_1_1OrderResponse.html#a9861e49e902d763e9f79131a8646adac" target="_top" xlink:title="Helper method to create an error response due to the &quot;New&quot; order status">
<polygon fill="white" stroke="black" points="279.5,-247.61 279.5,-277.61 431.5,-277.61 431.5,-247.61 279.5,-247.61"/>
<text text-anchor="start" x="287.5" y="-265.61" font-family="Helvetica,sans-Serif" font-size="10.00">QuantConnect.Orders.Order</text>
<text text-anchor="middle" x="355.5" y="-254.61" font-family="Helvetica,sans-Serif" font-size="10.00">Response.InvalidNewStatus</text>
</a>
</g>
</g>
<!-- Node1&#45;&gt;Node10 -->
<g id="edge10" class="edge">
<title>Node1&#45;&gt;Node10</title>
<path fill="none" stroke="midnightblue" d="M224.21,-249.12C239.4,-250.69 254.79,-252.28 269.41,-253.8"/>
<polygon fill="midnightblue" stroke="midnightblue" points="269.09,-257.28 279.4,-254.83 269.81,-250.32 269.09,-257.28"/>
</g>
<!-- Node12 -->
<g id="node12" class="node">
<title>Node12</title>
<g id="a_node12"><a xlink:href="classQuantConnect_1_1Orders_1_1OrderResponse.html#a14f5d9f827bfd8e6cc821b52063dfe71" target="_top" xlink:title="Helper method to create an error response due to an invalid order status">
<polygon fill="white" stroke="black" points="280,-198.61 280,-228.61 431,-228.61 431,-198.61 280,-198.61"/>
<text text-anchor="start" x="288" y="-216.61" font-family="Helvetica,sans-Serif" font-size="10.00">QuantConnect.Orders.Order</text>
<text text-anchor="middle" x="355.5" y="-205.61" font-family="Helvetica,sans-Serif" font-size="10.00">Response.InvalidStatus</text>
</a>
</g>
</g>
<!-- Node1&#45;&gt;Node12 -->
<g id="edge13" class="edge">
<title>Node1&#45;&gt;Node12</title>
<path fill="none" stroke="midnightblue" d="M224.21,-226.55C239.5,-225.04 254.99,-223.5 269.7,-222.03"/>
<polygon fill="midnightblue" stroke="midnightblue" points="270.14,-225.51 279.75,-221.04 269.45,-218.54 270.14,-225.51"/>
</g>
<!-- Node14 -->
<g id="node14" class="node">
<title>Node14</title>
<g id="a_node14"><a xlink:href="classQuantConnect_1_1Lean_1_1Engine_1_1TransactionHandlers_1_1CancelPendingOrders.html#a7344f9958039adf031a478433b5c50a5" target="_top" xlink:title="Adds an order which will be canceled and we want to keep track of it Status in case of fallback">
<polygon fill="white" stroke="black" points="260,-100.11 260,-141.11 451,-141.11 451,-100.11 260,-100.11"/>
<text text-anchor="start" x="268" y="-129.11" font-family="Helvetica,sans-Serif" font-size="10.00">QuantConnect.Lean.Engine.</text>
<text text-anchor="start" x="268" y="-118.11" font-family="Helvetica,sans-Serif" font-size="10.00">TransactionHandlers.CancelPending</text>
<text text-anchor="middle" x="355.5" y="-107.11" font-family="Helvetica,sans-Serif" font-size="10.00">Orders.Set</text>
</a>
</g>
</g>
<!-- Node1&#45;&gt;Node14 -->
<g id="edge16" class="edge">
<title>Node1&#45;&gt;Node14</title>
<path fill="none" stroke="midnightblue" d="M146.39,-217.03C175.69,-199.45 219.79,-174.13 260,-155.61 268.11,-151.87 276.74,-148.23 285.37,-144.8"/>
<polygon fill="midnightblue" stroke="midnightblue" points="286.65,-148.06 294.7,-141.17 284.11,-141.54 286.65,-148.06"/>
</g>
<!-- Node15 -->
<g id="node15" class="node">
<title>Node15</title>
<g id="a_node15"><a xlink:href="classQuantConnect_1_1Orders_1_1OrderResponse.html#a1d69bcc60eb408bfe45cf6a5f628c721" target="_top" xlink:title="Helper method to create a successful response from a request">
<polygon fill="white" stroke="black" points="280,-50.61 280,-80.61 431,-80.61 431,-50.61 280,-50.61"/>
<text text-anchor="start" x="288" y="-68.61" font-family="Helvetica,sans-Serif" font-size="10.00">QuantConnect.Orders.Order</text>
<text text-anchor="middle" x="355.5" y="-57.61" font-family="Helvetica,sans-Serif" font-size="10.00">Response.Success</text>
</a>
</g>
</g>
<!-- Node1&#45;&gt;Node15 -->
<g id="edge18" class="edge">
<title>Node1&#45;&gt;Node15</title>
<path fill="none" stroke="midnightblue" d="M127.88,-216.86C151.96,-184.84 202.59,-123.63 260,-90.61 263.91,-88.36 268.03,-86.3 272.27,-84.43"/>
<polygon fill="midnightblue" stroke="midnightblue" points="273.76,-87.61 281.72,-80.62 271.13,-81.12 273.76,-87.61"/>
</g>
<!-- Node16 -->
<g id="node16" class="node">
<title>Node16</title>
<g id="a_node16"><a xlink:href="classQuantConnect_1_1Orders_1_1OrderResponse.html#af8bdc5b0fd7d8e5929a659099d1d939f" target="_top" xlink:title="Helper method to create an error response due to algorithm still in warmup mode">
<polygon fill="white" stroke="black" points="280,-1.61 280,-31.61 431,-31.61 431,-1.61 280,-1.61"/>
<text text-anchor="start" x="288" y="-19.61" font-family="Helvetica,sans-Serif" font-size="10.00">QuantConnect.Orders.Order</text>
<text text-anchor="middle" x="355.5" y="-8.61" font-family="Helvetica,sans-Serif" font-size="10.00">Response.WarmingUp</text>
</a>
</g>
</g>
<!-- Node1&#45;&gt;Node16 -->
<g id="edge20" class="edge">
<title>Node1&#45;&gt;Node16</title>
<path fill="none" stroke="midnightblue" d="M122.43,-216.95C141.99,-176.48 191,-86.73 260,-40.61 263.31,-38.39 266.81,-36.39 270.43,-34.56"/>
<polygon fill="midnightblue" stroke="midnightblue" points="271.99,-37.7 279.67,-30.4 269.12,-31.32 271.99,-37.7"/>
</g>
<!-- Node3 -->
<g id="node3" class="node">
<title>Node3</title>
<g id="a_node3"><a xlink:href="interfaceQuantConnect_1_1Logging_1_1ILogHandler.html#a35373a0c5d76031fa5ccf5dc39e5c25d" target="_top" xlink:title="Write error message to log">
<polygon fill="white" stroke="black" points="495.5,-477.61 495.5,-507.61 645.5,-507.61 645.5,-477.61 495.5,-477.61"/>
<text text-anchor="start" x="503.5" y="-495.61" font-family="Helvetica,sans-Serif" font-size="10.00">QuantConnect.Logging.ILog</text>
<text text-anchor="middle" x="570.5" y="-484.61" font-family="Helvetica,sans-Serif" font-size="10.00">Handler.Error</text>
</a>
</g>
</g>
<!-- Node2&#45;&gt;Node3 -->
<g id="edge2" class="edge">
<title>Node2&#45;&gt;Node3</title>
<path fill="none" stroke="midnightblue" d="M430.7,-488.04C448.24,-488.62 467.08,-489.24 485.04,-489.83"/>
<polygon fill="midnightblue" stroke="midnightblue" points="485.1,-493.33 495.21,-490.16 485.33,-486.34 485.1,-493.33"/>
</g>
<!-- Node6 -->
<g id="node6" class="node">
<title>Node6</title>
<g id="a_node6"><a xlink:href="classQuantConnect_1_1Orders_1_1OrderTicket.html#a98ce7c56ada5180837251daf129901be" target="_top" xlink:title="Initializes a new instance of the OrderTicket class">
<polygon fill="white" stroke="black" points="495,-379.61 495,-409.61 646,-409.61 646,-379.61 495,-379.61"/>
<text text-anchor="start" x="503" y="-397.61" font-family="Helvetica,sans-Serif" font-size="10.00">QuantConnect.Orders.Order</text>
<text text-anchor="middle" x="570.5" y="-386.61" font-family="Helvetica,sans-Serif" font-size="10.00">Ticket.OrderTicket</text>
</a>
</g>
</g>
<!-- Node5&#45;&gt;Node6 -->
<g id="edge5" class="edge">
<title>Node5&#45;&gt;Node6</title>
<path fill="none" stroke="midnightblue" d="M431.3,-386.17C448.53,-387.22 466.99,-388.35 484.61,-389.43"/>
<polygon fill="midnightblue" stroke="midnightblue" points="484.69,-392.94 494.88,-390.05 485.12,-385.95 484.69,-392.94"/>
</g>
<!-- Node5&#45;&gt;Node7 -->
<g id="edge6" class="edge">
<title>Node5&#45;&gt;Node7</title>
<path fill="none" stroke="midnightblue" d="M431.3,-368.96C448.53,-366.05 466.99,-362.93 484.61,-359.95"/>
<polygon fill="midnightblue" stroke="midnightblue" points="485.61,-363.34 494.88,-358.22 484.44,-356.43 485.61,-363.34"/>
</g>
<!-- Node5&#45;&gt;Node8 -->
<g id="edge7" class="edge">
<title>Node5&#45;&gt;Node8</title>
<path fill="none" stroke="midnightblue" d="M408.26,-396.68C432.22,-403.66 461.06,-412.06 487,-419.61 493.64,-421.54 500.58,-423.56 507.49,-425.57"/>
<polygon fill="midnightblue" stroke="midnightblue" points="506.99,-429.07 517.57,-428.5 508.94,-422.35 506.99,-429.07"/>
</g>
<!-- Node8&#45;&gt;Node4 -->
<g id="edge8" class="edge">
<title>Node8&#45;&gt;Node4</title>
<path fill="none" stroke="midnightblue" d="M639.8,-428.45C644.85,-425.94 649.66,-423.02 654,-419.61 715.44,-371.33 750.83,-281.74 765.09,-238.39"/>
<polygon fill="midnightblue" stroke="midnightblue" points="768.49,-239.24 768.18,-228.65 761.82,-237.12 768.49,-239.24"/>
</g>
<!-- Node9 -->
<g id="node9" class="node">
<title>Node9</title>
<g id="a_node9"><a xlink:href="classQuantConnect_1_1Messages_1_1OrderResponse.html#ab7056e16b77f50aeb52982d2600b50ec" target="_top" xlink:title="Returns a string message saying it was impossible to locate the order with the id from the given requ...">
<polygon fill="white" stroke="black" points="690,-428.61 690,-458.61 857,-458.61 857,-428.61 690,-428.61"/>
<text text-anchor="start" x="698" y="-446.61" font-family="Helvetica,sans-Serif" font-size="10.00">QuantConnect.Messages.Order</text>
<text text-anchor="middle" x="773.5" y="-435.61" font-family="Helvetica,sans-Serif" font-size="10.00">Response.UnableToFindOrder</text>
</a>
</g>
</g>
<!-- Node8&#45;&gt;Node9 -->
<g id="edge9" class="edge">
<title>Node8&#45;&gt;Node9</title>
<path fill="none" stroke="midnightblue" d="M650.08,-443.61C659.72,-443.61 669.64,-443.61 679.47,-443.61"/>
<polygon fill="midnightblue" stroke="midnightblue" points="679.67,-447.11 689.67,-443.61 679.67,-440.11 679.67,-447.11"/>
</g>
<!-- Node10&#45;&gt;Node4 -->
<g id="edge11" class="edge">
<title>Node10&#45;&gt;Node4</title>
<path fill="none" stroke="midnightblue" d="M414.91,-277.62C475.71,-290.69 573.16,-304.43 654,-282.61 688.24,-273.36 722.76,-251.51 745.63,-234.86"/>
<polygon fill="midnightblue" stroke="midnightblue" points="747.88,-237.55 753.81,-228.77 743.7,-231.94 747.88,-237.55"/>
</g>
<!-- Node11 -->
<g id="node11" class="node">
<title>Node11</title>
<g id="a_node11"><a xlink:href="classQuantConnect_1_1Messages_1_1OrderResponse.html#a474f52384b8fae5ed2340395878fe2ec" target="_top" xlink:title="Returns a string message saying it was impossible to update or cancel the order with the id from the ...">
<polygon fill="white" stroke="black" points="487,-242.61 487,-272.61 654,-272.61 654,-242.61 487,-242.61"/>
<text text-anchor="start" x="495" y="-260.61" font-family="Helvetica,sans-Serif" font-size="10.00">QuantConnect.Messages.Order</text>
<text text-anchor="middle" x="570.5" y="-249.61" font-family="Helvetica,sans-Serif" font-size="10.00">Response.InvalidNewStatus</text>
</a>
</g>
</g>
<!-- Node10&#45;&gt;Node11 -->
<g id="edge12" class="edge">
<title>Node10&#45;&gt;Node11</title>
<path fill="none" stroke="midnightblue" d="M431.6,-260.84C446.1,-260.5 461.45,-260.14 476.44,-259.79"/>
<polygon fill="midnightblue" stroke="midnightblue" points="476.83,-263.28 486.75,-259.55 476.67,-256.28 476.83,-263.28"/>
</g>
<!-- Node12&#45;&gt;Node4 -->
<g id="edge14" class="edge">
<title>Node12&#45;&gt;Node4</title>
<path fill="none" stroke="midnightblue" d="M431.35,-213.61C503.4,-213.61 612.23,-213.61 687.51,-213.61"/>
<polygon fill="midnightblue" stroke="midnightblue" points="687.9,-217.11 697.9,-213.61 687.9,-210.11 687.9,-217.11"/>
</g>
<!-- Node13 -->
<g id="node13" class="node">
<title>Node13</title>
<g id="a_node13"><a xlink:href="classQuantConnect_1_1Messages_1_1OrderResponse.html#a8ae7c0646a3b48d88c73a93859b3ec88" target="_top" xlink:title="Returns a string message saying it was impossible to udpate the order with the id from the given requ...">
<polygon fill="white" stroke="black" points="487,-154.61 487,-184.61 654,-184.61 654,-154.61 487,-154.61"/>
<text text-anchor="start" x="495" y="-172.61" font-family="Helvetica,sans-Serif" font-size="10.00">QuantConnect.Messages.Order</text>
<text text-anchor="middle" x="570.5" y="-161.61" font-family="Helvetica,sans-Serif" font-size="10.00">Response.InvalidStatus</text>
</a>
</g>
</g>
<!-- Node12&#45;&gt;Node13 -->
<g id="edge15" class="edge">
<title>Node12&#45;&gt;Node13</title>
<path fill="none" stroke="midnightblue" d="M429.21,-198.59C447.78,-194.75 467.89,-190.6 486.92,-186.67"/>
<polygon fill="midnightblue" stroke="midnightblue" points="487.67,-190.08 496.76,-184.63 486.26,-183.23 487.67,-190.08"/>
</g>
<!-- Node16&#45;&gt;Node4 -->
<g id="edge21" class="edge">
<title>Node16&#45;&gt;Node4</title>
<path fill="none" stroke="midnightblue" d="M431.12,-3.89C494.67,3.06 586.21,3.53 654,-35.61 713.89,-70.19 749.37,-148.69 764.25,-188.89"/>
<polygon fill="midnightblue" stroke="midnightblue" points="761.01,-190.22 767.67,-198.46 767.6,-187.86 761.01,-190.22"/>
</g>
<!-- Node17 -->
<g id="node17" class="node">
<title>Node17</title>
<g id="a_node17"><a xlink:href="classQuantConnect_1_1Messages_1_1OrderResponse.html#adf822bd611fdfdf041194a195b2d2150" target="_top" xlink:title="Returns a string message saying the given order request operation is not allowed in Initialize or dur...">
<polygon fill="white" stroke="black" points="487,-45.61 487,-75.61 654,-75.61 654,-45.61 487,-45.61"/>
<text text-anchor="start" x="495" y="-63.61" font-family="Helvetica,sans-Serif" font-size="10.00">QuantConnect.Messages.Order</text>
<text text-anchor="middle" x="570.5" y="-52.61" font-family="Helvetica,sans-Serif" font-size="10.00">Response.WarmingUp</text>
</a>
</g>
</g>
<!-- Node16&#45;&gt;Node17 -->
<g id="edge22" class="edge">
<title>Node16&#45;&gt;Node17</title>
<path fill="none" stroke="midnightblue" d="M429.21,-31.63C447.78,-35.46 467.89,-39.62 486.92,-43.55"/>
<polygon fill="midnightblue" stroke="midnightblue" points="486.26,-46.98 496.76,-45.58 487.67,-40.13 486.26,-46.98"/>
</g>
</g>
</svg>
