<?xml version="1.0" encoding="UTF-8" standalone="no"?>
<!DOCTYPE svg PUBLIC "-//W3C//DTD SVG 1.1//EN"
 "http://www.w3.org/Graphics/SVG/1.1/DTD/svg11.dtd">
<!-- Generated by graphviz version 2.43.0 (0)
 -->
<!-- Title: QuantConnect.ToolBox.KaikoDataConverter.KaikoDataConverterProgram.KaikoDataConverter Pages: 1 -->
<svg width="1571pt" height="612pt"
 viewBox="0.00 0.00 1571.00 612.32" xmlns="http://www.w3.org/2000/svg" xmlns:xlink="http://www.w3.org/1999/xlink">
<g id="graph0" class="graph" transform="scale(1 1) rotate(0) translate(4 608.32)">
<title>QuantConnect.ToolBox.KaikoDataConverter.KaikoDataConverterProgram.KaikoDataConverter</title>
<polygon fill="white" stroke="transparent" points="-4,4 -4,-608.32 1567,-608.32 1567,4 -4,4"/>
<!-- Node1 -->
<g id="node1" class="node">
<title>Node1</title>
<g id="a_node1"><a xlink:title="Kaiko data converter entry point.">
<polygon fill="#bfbfbf" stroke="black" points="0,-68 0,-109 188,-109 188,-68 0,-68"/>
<text text-anchor="start" x="8" y="-97" font-family="Helvetica,sans-Serif" font-size="10.00">QuantConnect.ToolBox.Kaiko</text>
<text text-anchor="start" x="8" y="-86" font-family="Helvetica,sans-Serif" font-size="10.00">DataConverter.KaikoDataConverter</text>
<text text-anchor="middle" x="94" y="-75" font-family="Helvetica,sans-Serif" font-size="10.00">Program.KaikoDataConverter</text>
</a>
</g>
</g>
<!-- Node2 -->
<g id="node2" class="node">
<title>Node2</title>
<g id="a_node2"><a xlink:href="classQuantConnect_1_1Symbol.html#a350b9a625cf7bad95da82894be3cd0a8" target="_top" xlink:title="Provides a convenience method for creating a Symbol for most security types. This method currently do...">
<polygon fill="white" stroke="black" points="226.5,-324 226.5,-343 387.5,-343 387.5,-324 226.5,-324"/>
<text text-anchor="middle" x="307" y="-331" font-family="Helvetica,sans-Serif" font-size="10.00">QuantConnect.Symbol.Create</text>
</a>
</g>
</g>
<!-- Node1&#45;&gt;Node2 -->
<g id="edge1" class="edge">
<title>Node1&#45;&gt;Node2</title>
<path fill="none" stroke="midnightblue" d="M112.99,-109.39C153.91,-156.91 253.34,-272.36 291.11,-316.21"/>
<polygon fill="midnightblue" stroke="midnightblue" points="288.63,-318.69 297.81,-323.98 293.93,-314.12 288.63,-318.69"/>
</g>
<!-- Node20 -->
<g id="node20" class="node">
<title>Node20</title>
<g id="a_node20"><a xlink:href="classQuantConnect_1_1Parse.html#a059d312ae5ffeb051e50a1464236116c" target="_top" xlink:title="Parses the provided value as a System.DateTime using System.DateTime.ParseExact(string,...">
<polygon fill="white" stroke="black" points="224,-98.5 224,-128.5 390,-128.5 390,-98.5 224,-98.5"/>
<text text-anchor="start" x="232" y="-116.5" font-family="Helvetica,sans-Serif" font-size="10.00">QuantConnect.Parse.DateTime</text>
<text text-anchor="middle" x="307" y="-105.5" font-family="Helvetica,sans-Serif" font-size="10.00">Exact</text>
</a>
</g>
</g>
<!-- Node1&#45;&gt;Node20 -->
<g id="edge21" class="edge">
<title>Node1&#45;&gt;Node20</title>
<path fill="none" stroke="midnightblue" d="M188.16,-99.54C196.73,-100.55 205.41,-101.58 213.97,-102.6"/>
<polygon fill="midnightblue" stroke="midnightblue" points="213.61,-106.08 223.95,-103.78 214.43,-99.13 213.61,-106.08"/>
</g>
<!-- Node21 -->
<g id="node21" class="node">
<title>Node21</title>
<g id="a_node21"><a xlink:href="classQuantConnect_1_1Logging_1_1Log.html#af0e7955911bc7664b37661b2a303a9e3" target="_top" xlink:title="Log error">
<polygon fill="white" stroke="black" points="232,-49.5 232,-79.5 382,-79.5 382,-49.5 232,-49.5"/>
<text text-anchor="start" x="240" y="-67.5" font-family="Helvetica,sans-Serif" font-size="10.00">QuantConnect.Logging.Log.</text>
<text text-anchor="middle" x="307" y="-56.5" font-family="Helvetica,sans-Serif" font-size="10.00">Error</text>
</a>
</g>
</g>
<!-- Node1&#45;&gt;Node21 -->
<g id="edge22" class="edge">
<title>Node1&#45;&gt;Node21</title>
<path fill="none" stroke="midnightblue" d="M188.16,-77.9C199.32,-76.63 210.66,-75.34 221.68,-74.09"/>
<polygon fill="midnightblue" stroke="midnightblue" points="222.16,-77.56 231.7,-72.95 221.37,-70.6 222.16,-77.56"/>
</g>
<!-- Node23 -->
<g id="node23" class="node">
<title>Node23</title>
<g id="a_node23"><a xlink:href="classQuantConnect_1_1Logging_1_1Log.html#a4e55477fbc790846b74550a57198cea9" target="_top" xlink:title="Log trace">
<polygon fill="white" stroke="black" points="232,-0.5 232,-30.5 382,-30.5 382,-0.5 232,-0.5"/>
<text text-anchor="start" x="240" y="-18.5" font-family="Helvetica,sans-Serif" font-size="10.00">QuantConnect.Logging.Log.</text>
<text text-anchor="middle" x="307" y="-7.5" font-family="Helvetica,sans-Serif" font-size="10.00">Trace</text>
</a>
</g>
</g>
<!-- Node1&#45;&gt;Node23 -->
<g id="edge24" class="edge">
<title>Node1&#45;&gt;Node23</title>
<path fill="none" stroke="midnightblue" d="M146.45,-67.9C169.95,-58.77 198.22,-48.15 224,-39.5 230,-37.49 236.27,-35.48 242.57,-33.53"/>
<polygon fill="midnightblue" stroke="midnightblue" points="243.89,-36.78 252.44,-30.52 241.85,-30.09 243.89,-36.78"/>
</g>
<!-- Node3 -->
<g id="node3" class="node">
<title>Node3</title>
<g id="a_node3"><a xlink:href="classQuantConnect_1_1Symbol.html#a7518a1932d1babbff128f2ba9666a78b" target="_top" xlink:title="Provides a convenience method for creating an option Symbol.">
<polygon fill="white" stroke="black" points="435.5,-529.5 435.5,-559.5 596.5,-559.5 596.5,-529.5 435.5,-529.5"/>
<text text-anchor="start" x="443.5" y="-547.5" font-family="Helvetica,sans-Serif" font-size="10.00">QuantConnect.Symbol.Create</text>
<text text-anchor="middle" x="516" y="-536.5" font-family="Helvetica,sans-Serif" font-size="10.00">Option</text>
</a>
</g>
</g>
<!-- Node2&#45;&gt;Node3 -->
<g id="edge2" class="edge">
<title>Node2&#45;&gt;Node3</title>
<path fill="none" stroke="midnightblue" d="M311.69,-343.39C323.47,-373.63 363.13,-465.8 426,-514.5 431.28,-518.59 437.16,-522.14 443.29,-525.22"/>
<polygon fill="midnightblue" stroke="midnightblue" points="441.89,-528.43 452.44,-529.4 444.8,-522.06 441.89,-528.43"/>
</g>
<!-- Node4 -->
<g id="node4" class="node">
<title>Node4</title>
<g id="a_node4"><a xlink:href="classQuantConnect_1_1SecurityIdentifier.html#a0c21d7880c9fdd260883d11ea0c99a00" target="_top" xlink:title="Helper overload that will search the mapfiles to resolve the first date. This implementation uses the...">
<polygon fill="white" stroke="black" points="642,-562.5 642,-592.5 816,-592.5 816,-562.5 642,-562.5"/>
<text text-anchor="start" x="650" y="-580.5" font-family="Helvetica,sans-Serif" font-size="10.00">QuantConnect.SecurityIdentifier.</text>
<text text-anchor="middle" x="729" y="-569.5" font-family="Helvetica,sans-Serif" font-size="10.00">GenerateEquity</text>
</a>
</g>
</g>
<!-- Node2&#45;&gt;Node4 -->
<g id="edge15" class="edge">
<title>Node2&#45;&gt;Node4</title>
<path fill="none" stroke="midnightblue" d="M309.34,-343.23C315.06,-380.6 341.18,-515.51 426,-569.5 495.82,-613.94 594.32,-606.63 659.61,-594.49"/>
<polygon fill="midnightblue" stroke="midnightblue" points="660.65,-597.85 669.79,-592.5 659.31,-590.98 660.65,-597.85"/>
</g>
<!-- Node5 -->
<g id="node5" class="node">
<title>Node5</title>
<g id="a_node5"><a xlink:href="classQuantConnect_1_1Symbol.html#a59158f74116be3dad0ea0f3f3f134416" target="_top" xlink:title="Initializes a new instance of the Symbol class">
<polygon fill="white" stroke="black" points="646.5,-502 646.5,-521 811.5,-521 811.5,-502 646.5,-502"/>
<text text-anchor="middle" x="729" y="-509" font-family="Helvetica,sans-Serif" font-size="10.00">QuantConnect.Symbol.Symbol</text>
</a>
</g>
</g>
<!-- Node2&#45;&gt;Node5 -->
<g id="edge20" class="edge">
<title>Node2&#45;&gt;Node5</title>
<path fill="none" stroke="midnightblue" d="M312.37,-343.31C325.2,-370.8 365.67,-448.67 426,-481.5 461.08,-500.59 560.54,-507.59 635.82,-510.13"/>
<polygon fill="midnightblue" stroke="midnightblue" points="636.16,-513.64 646.27,-510.46 636.39,-506.64 636.16,-513.64"/>
</g>
<!-- Node11 -->
<g id="node11" class="node">
<title>Node11</title>
<g id="a_node11"><a xlink:href="classQuantConnect_1_1SecurityIdentifier.html#a02ca750115844561c001c2346fbafc00" target="_top" xlink:title="Generates a new SecurityIdentifier for a custom security with the option of providing the first date">
<polygon fill="white" stroke="black" points="429,-441.5 429,-471.5 603,-471.5 603,-441.5 429,-441.5"/>
<text text-anchor="start" x="437" y="-459.5" font-family="Helvetica,sans-Serif" font-size="10.00">QuantConnect.SecurityIdentifier.</text>
<text text-anchor="middle" x="516" y="-448.5" font-family="Helvetica,sans-Serif" font-size="10.00">GenerateBase</text>
</a>
</g>
</g>
<!-- Node2&#45;&gt;Node11 -->
<g id="edge10" class="edge">
<title>Node2&#45;&gt;Node11</title>
<path fill="none" stroke="midnightblue" d="M316.75,-343.27C335.05,-363.11 379.53,-408.26 426,-432.5 429.57,-434.36 433.3,-436.09 437.12,-437.69"/>
<polygon fill="midnightblue" stroke="midnightblue" points="436.18,-441.08 446.76,-441.42 438.7,-434.55 436.18,-441.08"/>
</g>
<!-- Node13 -->
<g id="node13" class="node">
<title>Node13</title>
<g id="a_node13"><a xlink:href="classQuantConnect_1_1SecurityIdentifier.html#a53953b18d814c5445e4ecdcb3b555080" target="_top" xlink:title="Generates a new SecurityIdentifier for a CFD security">
<polygon fill="white" stroke="black" points="429,-392.5 429,-422.5 603,-422.5 603,-392.5 429,-392.5"/>
<text text-anchor="start" x="437" y="-410.5" font-family="Helvetica,sans-Serif" font-size="10.00">QuantConnect.SecurityIdentifier.</text>
<text text-anchor="middle" x="516" y="-399.5" font-family="Helvetica,sans-Serif" font-size="10.00">GenerateCfd</text>
</a>
</g>
</g>
<!-- Node2&#45;&gt;Node13 -->
<g id="edge12" class="edge">
<title>Node2&#45;&gt;Node13</title>
<path fill="none" stroke="midnightblue" d="M328.13,-343.04C351.36,-353.8 390.87,-371.39 426,-383.5 432.06,-385.59 438.39,-387.61 444.78,-389.54"/>
<polygon fill="midnightblue" stroke="midnightblue" points="444.23,-393.02 454.82,-392.48 446.2,-386.31 444.23,-393.02"/>
</g>
<!-- Node14 -->
<g id="node14" class="node">
<title>Node14</title>
<g id="a_node14"><a xlink:href="classQuantConnect_1_1SecurityIdentifier.html#a5889a95a36ce927dd0a109cbfbcbe663" target="_top" xlink:title="Generates a new SecurityIdentifier for a Crypto pair">
<polygon fill="white" stroke="black" points="429,-343.5 429,-373.5 603,-373.5 603,-343.5 429,-343.5"/>
<text text-anchor="start" x="437" y="-361.5" font-family="Helvetica,sans-Serif" font-size="10.00">QuantConnect.SecurityIdentifier.</text>
<text text-anchor="middle" x="516" y="-350.5" font-family="Helvetica,sans-Serif" font-size="10.00">GenerateCrypto</text>
</a>
</g>
</g>
<!-- Node2&#45;&gt;Node14 -->
<g id="edge13" class="edge">
<title>Node2&#45;&gt;Node14</title>
<path fill="none" stroke="midnightblue" d="M386.85,-343.02C397.24,-344.28 407.98,-345.57 418.62,-346.86"/>
<polygon fill="midnightblue" stroke="midnightblue" points="418.43,-350.36 428.78,-348.09 419.27,-343.41 418.43,-350.36"/>
</g>
<!-- Node15 -->
<g id="node15" class="node">
<title>Node15</title>
<g id="a_node15"><a xlink:href="classQuantConnect_1_1SecurityIdentifier.html#ac665665a16d5449872fed3427b95a260" target="_top" xlink:title="Generates a new SecurityIdentifier for a CryptoFuture pair">
<polygon fill="white" stroke="black" points="429,-294.5 429,-324.5 603,-324.5 603,-294.5 429,-294.5"/>
<text text-anchor="start" x="437" y="-312.5" font-family="Helvetica,sans-Serif" font-size="10.00">QuantConnect.SecurityIdentifier.</text>
<text text-anchor="middle" x="516" y="-301.5" font-family="Helvetica,sans-Serif" font-size="10.00">GenerateCryptoFuture</text>
</a>
</g>
</g>
<!-- Node2&#45;&gt;Node15 -->
<g id="edge14" class="edge">
<title>Node2&#45;&gt;Node15</title>
<path fill="none" stroke="midnightblue" d="M387.74,-324.26C397.92,-323.07 408.43,-321.86 418.84,-320.65"/>
<polygon fill="midnightblue" stroke="midnightblue" points="419.24,-324.13 428.77,-319.5 418.44,-317.17 419.24,-324.13"/>
</g>
<!-- Node16 -->
<g id="node16" class="node">
<title>Node16</title>
<g id="a_node16"><a xlink:href="classQuantConnect_1_1SecurityIdentifier.html#a9cf0d3b208a5171e6112516ce441f18d" target="_top" xlink:title="Generates a new SecurityIdentifier for a forex pair">
<polygon fill="white" stroke="black" points="429,-245.5 429,-275.5 603,-275.5 603,-245.5 429,-245.5"/>
<text text-anchor="start" x="437" y="-263.5" font-family="Helvetica,sans-Serif" font-size="10.00">QuantConnect.SecurityIdentifier.</text>
<text text-anchor="middle" x="516" y="-252.5" font-family="Helvetica,sans-Serif" font-size="10.00">GenerateForex</text>
</a>
</g>
</g>
<!-- Node2&#45;&gt;Node16 -->
<g id="edge16" class="edge">
<title>Node2&#45;&gt;Node16</title>
<path fill="none" stroke="midnightblue" d="M329.47,-323.91C352.91,-313.65 391.69,-297.26 426,-285.5 433.07,-283.08 440.52,-280.71 447.97,-278.45"/>
<polygon fill="midnightblue" stroke="midnightblue" points="449.14,-281.76 457.73,-275.56 447.15,-275.04 449.14,-281.76"/>
</g>
<!-- Node17 -->
<g id="node17" class="node">
<title>Node17</title>
<g id="a_node17"><a xlink:href="classQuantConnect_1_1SecurityIdentifier.html#ad50a891c97cb0c084a9e2aa43607ed66" target="_top" xlink:title="Generates a new SecurityIdentifier for a future">
<polygon fill="white" stroke="black" points="429,-196.5 429,-226.5 603,-226.5 603,-196.5 429,-196.5"/>
<text text-anchor="start" x="437" y="-214.5" font-family="Helvetica,sans-Serif" font-size="10.00">QuantConnect.SecurityIdentifier.</text>
<text text-anchor="middle" x="516" y="-203.5" font-family="Helvetica,sans-Serif" font-size="10.00">GenerateFuture</text>
</a>
</g>
</g>
<!-- Node2&#45;&gt;Node17 -->
<g id="edge17" class="edge">
<title>Node2&#45;&gt;Node17</title>
<path fill="none" stroke="midnightblue" d="M316.81,-323.98C335.23,-304.63 379.92,-260.55 426,-236.5 430.31,-234.25 434.84,-232.19 439.49,-230.29"/>
<polygon fill="midnightblue" stroke="midnightblue" points="441.04,-233.45 449.15,-226.63 438.56,-226.9 441.04,-233.45"/>
</g>
<!-- Node18 -->
<g id="node18" class="node">
<title>Node18</title>
<g id="a_node18"><a xlink:href="classQuantConnect_1_1SecurityIdentifier.html#ade05a8e57b041ab484cf585be8d05699" target="_top" xlink:title="Generates a new SecurityIdentifier for a INDEX security">
<polygon fill="white" stroke="black" points="429,-147.5 429,-177.5 603,-177.5 603,-147.5 429,-147.5"/>
<text text-anchor="start" x="437" y="-165.5" font-family="Helvetica,sans-Serif" font-size="10.00">QuantConnect.SecurityIdentifier.</text>
<text text-anchor="middle" x="516" y="-154.5" font-family="Helvetica,sans-Serif" font-size="10.00">GenerateIndex</text>
</a>
</g>
</g>
<!-- Node2&#45;&gt;Node18 -->
<g id="edge18" class="edge">
<title>Node2&#45;&gt;Node18</title>
<path fill="none" stroke="midnightblue" d="M312.92,-323.96C326.87,-297.87 369.39,-224.79 426,-187.5 429.13,-185.44 432.44,-183.54 435.85,-181.8"/>
<polygon fill="midnightblue" stroke="midnightblue" points="437.49,-184.9 445.12,-177.55 434.57,-178.54 437.49,-184.9"/>
</g>
<!-- Node19 -->
<g id="node19" class="node">
<title>Node19</title>
<g id="a_node19"><a xlink:href="classQuantConnect_1_1Messages_1_1Symbol.html#ab801bef52a308b8ba7ba6d42e1ef1988" target="_top" xlink:title="Returns a string message saying the given security type has not been implemented yet">
<polygon fill="white" stroke="black" points="426,-98.5 426,-128.5 606,-128.5 606,-98.5 426,-98.5"/>
<text text-anchor="start" x="434" y="-116.5" font-family="Helvetica,sans-Serif" font-size="10.00">QuantConnect.Messages.Symbol.</text>
<text text-anchor="middle" x="516" y="-105.5" font-family="Helvetica,sans-Serif" font-size="10.00">SecurityTypeNotImplementedYet</text>
</a>
</g>
</g>
<!-- Node2&#45;&gt;Node19 -->
<g id="edge19" class="edge">
<title>Node2&#45;&gt;Node19</title>
<path fill="none" stroke="midnightblue" d="M311.04,-323.62C321.43,-291.58 358.6,-189.76 426,-138.5 428.48,-136.62 431.09,-134.88 433.8,-133.27"/>
<polygon fill="midnightblue" stroke="midnightblue" points="435.53,-136.31 442.75,-128.56 432.27,-130.11 435.53,-136.31"/>
</g>
<!-- Node3&#45;&gt;Node4 -->
<g id="edge3" class="edge">
<title>Node3&#45;&gt;Node4</title>
<path fill="none" stroke="midnightblue" d="M596.77,-556.98C608.14,-558.75 619.94,-560.6 631.59,-562.42"/>
<polygon fill="midnightblue" stroke="midnightblue" points="631.35,-565.93 641.77,-564.01 632.43,-559.01 631.35,-565.93"/>
</g>
<!-- Node3&#45;&gt;Node5 -->
<g id="edge4" class="edge">
<title>Node3&#45;&gt;Node5</title>
<path fill="none" stroke="midnightblue" d="M596.77,-532.02C616.65,-528.92 637.82,-525.6 657.23,-522.57"/>
<polygon fill="midnightblue" stroke="midnightblue" points="657.86,-526.01 667.2,-521.01 656.78,-519.1 657.86,-526.01"/>
</g>
<!-- Node6 -->
<g id="node6" class="node">
<title>Node6</title>
<g id="a_node6"><a xlink:href="classQuantConnect_1_1Symbol.html#a59b0795fa21f46c306deb5576fa03bb9" target="_top" xlink:title="Centralized helper method to resolve alias for a symbol">
<polygon fill="white" stroke="black" points="852,-502 852,-521 1022,-521 1022,-502 852,-502"/>
<text text-anchor="middle" x="937" y="-509" font-family="Helvetica,sans-Serif" font-size="10.00">QuantConnect.Symbol.GetAlias</text>
</a>
</g>
</g>
<!-- Node5&#45;&gt;Node6 -->
<g id="edge5" class="edge">
<title>Node5&#45;&gt;Node6</title>
<path fill="none" stroke="midnightblue" d="M811.71,-511.5C821.47,-511.5 831.49,-511.5 841.4,-511.5"/>
<polygon fill="midnightblue" stroke="midnightblue" points="841.68,-515 851.68,-511.5 841.68,-508 841.68,-515"/>
</g>
<!-- Node7 -->
<g id="node7" class="node">
<title>Node7</title>
<g id="a_node7"><a xlink:href="classQuantConnect_1_1SymbolRepresentation.html#ad43ac907f6c19083821f58f21c6de017" target="_top" xlink:title="Returns future symbol ticker from underlying and expiration date. Function can generate tickers of tw...">
<polygon fill="white" stroke="black" points="1058,-524.5 1058,-554.5 1261,-554.5 1261,-524.5 1058,-524.5"/>
<text text-anchor="start" x="1066" y="-542.5" font-family="Helvetica,sans-Serif" font-size="10.00">QuantConnect.SymbolRepresentation.</text>
<text text-anchor="middle" x="1159.5" y="-531.5" font-family="Helvetica,sans-Serif" font-size="10.00">GenerateFutureTicker</text>
</a>
</g>
</g>
<!-- Node6&#45;&gt;Node7 -->
<g id="edge6" class="edge">
<title>Node6&#45;&gt;Node7</title>
<path fill="none" stroke="midnightblue" d="M1012.96,-521.02C1024.27,-522.46 1036.14,-523.96 1048.01,-525.47"/>
<polygon fill="midnightblue" stroke="midnightblue" points="1047.62,-528.95 1057.98,-526.74 1048.5,-522 1047.62,-528.95"/>
</g>
<!-- Node9 -->
<g id="node9" class="node">
<title>Node9</title>
<g id="a_node9"><a xlink:href="classQuantConnect_1_1SymbolRepresentation.html#ab133044f5cf8c16e700190a2202b215e" target="_top" xlink:title="Returns option symbol ticker in accordance with OSI symbology More information can be found at http:/...">
<polygon fill="white" stroke="black" points="1058,-472.5 1058,-502.5 1261,-502.5 1261,-472.5 1058,-472.5"/>
<text text-anchor="start" x="1066" y="-490.5" font-family="Helvetica,sans-Serif" font-size="10.00">QuantConnect.SymbolRepresentation.</text>
<text text-anchor="middle" x="1159.5" y="-479.5" font-family="Helvetica,sans-Serif" font-size="10.00">GenerateOptionTickerOSI</text>
</a>
</g>
</g>
<!-- Node6&#45;&gt;Node9 -->
<g id="edge8" class="edge">
<title>Node6&#45;&gt;Node9</title>
<path fill="none" stroke="midnightblue" d="M1022.31,-502.32C1030.69,-501.41 1039.3,-500.47 1047.9,-499.54"/>
<polygon fill="midnightblue" stroke="midnightblue" points="1048.43,-503 1057.99,-498.44 1047.67,-496.04 1048.43,-503"/>
</g>
<!-- Node8 -->
<g id="node8" class="node">
<title>Node8</title>
<g id="a_node8"><a xlink:href="classQuantConnect_1_1Securities_1_1Future_1_1FuturesExpiryUtilityFunctions.html#a4ccb1e2f2fe40ff09785a74a02f26df1" target="_top" xlink:title="Gets the number of months between the contract month and the expiry date.">
<polygon fill="white" stroke="black" points="1297,-522 1297,-563 1563,-563 1563,-522 1297,-522"/>
<text text-anchor="start" x="1305" y="-551" font-family="Helvetica,sans-Serif" font-size="10.00">QuantConnect.Securities.</text>
<text text-anchor="start" x="1305" y="-540" font-family="Helvetica,sans-Serif" font-size="10.00">Future.FuturesExpiryUtilityFunctions.</text>
<text text-anchor="middle" x="1430" y="-529" font-family="Helvetica,sans-Serif" font-size="10.00">GetDeltaBetweenContractMonthAndContractExpiry</text>
</a>
</g>
</g>
<!-- Node7&#45;&gt;Node8 -->
<g id="edge7" class="edge">
<title>Node7&#45;&gt;Node8</title>
<path fill="none" stroke="midnightblue" d="M1261.24,-540.63C1269.59,-540.72 1278.11,-540.81 1286.68,-540.91"/>
<polygon fill="midnightblue" stroke="midnightblue" points="1286.72,-544.41 1296.76,-541.02 1286.8,-537.41 1286.72,-544.41"/>
</g>
<!-- Node10 -->
<g id="node10" class="node">
<title>Node10</title>
<g id="a_node10"><a xlink:href="classQuantConnect_1_1Messages_1_1SymbolRepresentation.html#a2c514157d8055cfa271ea3a7ca1ccde7" target="_top" xlink:title="Returns a string message saying an unexpected security type was received by the given method name">
<polygon fill="white" stroke="black" points="1334,-462 1334,-503 1526,-503 1526,-462 1334,-462"/>
<text text-anchor="start" x="1342" y="-491" font-family="Helvetica,sans-Serif" font-size="10.00">QuantConnect.Messages.Symbol</text>
<text text-anchor="start" x="1342" y="-480" font-family="Helvetica,sans-Serif" font-size="10.00">Representation.UnexpectedSecurity</text>
<text text-anchor="middle" x="1430" y="-469" font-family="Helvetica,sans-Serif" font-size="10.00">TypeForMethod</text>
</a>
</g>
</g>
<!-- Node9&#45;&gt;Node10 -->
<g id="edge9" class="edge">
<title>Node9&#45;&gt;Node10</title>
<path fill="none" stroke="midnightblue" d="M1261.24,-485.62C1281.7,-485.24 1303.27,-484.84 1323.88,-484.46"/>
<polygon fill="midnightblue" stroke="midnightblue" points="1323.98,-487.96 1333.91,-484.27 1323.85,-480.96 1323.98,-487.96"/>
</g>
<!-- Node12 -->
<g id="node12" class="node">
<title>Node12</title>
<g id="a_node12"><a xlink:href="classQuantConnect_1_1SecurityIdentifier.html#a19e1f9da410608020d74ed9e7d283575" target="_top" xlink:title="Generates the Symbol property for QuantConnect.SecurityType.Base security identifiers">
<polygon fill="white" stroke="black" points="642,-441.5 642,-471.5 816,-471.5 816,-441.5 642,-441.5"/>
<text text-anchor="start" x="650" y="-459.5" font-family="Helvetica,sans-Serif" font-size="10.00">QuantConnect.SecurityIdentifier.</text>
<text text-anchor="middle" x="729" y="-448.5" font-family="Helvetica,sans-Serif" font-size="10.00">GenerateBaseSymbol</text>
</a>
</g>
</g>
<!-- Node11&#45;&gt;Node12 -->
<g id="edge11" class="edge">
<title>Node11&#45;&gt;Node12</title>
<path fill="none" stroke="midnightblue" d="M603.13,-456.5C612.5,-456.5 622.08,-456.5 631.57,-456.5"/>
<polygon fill="midnightblue" stroke="midnightblue" points="631.81,-460 641.81,-456.5 631.81,-453 631.81,-460"/>
</g>
<!-- Node22 -->
<g id="node22" class="node">
<title>Node22</title>
<g id="a_node22"><a xlink:href="interfaceQuantConnect_1_1Logging_1_1ILogHandler.html#a35373a0c5d76031fa5ccf5dc39e5c25d" target="_top" xlink:title="Write error message to log">
<polygon fill="white" stroke="black" points="441,-49.5 441,-79.5 591,-79.5 591,-49.5 441,-49.5"/>
<text text-anchor="start" x="449" y="-67.5" font-family="Helvetica,sans-Serif" font-size="10.00">QuantConnect.Logging.ILog</text>
<text text-anchor="middle" x="516" y="-56.5" font-family="Helvetica,sans-Serif" font-size="10.00">Handler.Error</text>
</a>
</g>
</g>
<!-- Node21&#45;&gt;Node22 -->
<g id="edge23" class="edge">
<title>Node21&#45;&gt;Node22</title>
<path fill="none" stroke="midnightblue" d="M382.15,-64.5C397.75,-64.5 414.33,-64.5 430.29,-64.5"/>
<polygon fill="midnightblue" stroke="midnightblue" points="430.67,-68 440.67,-64.5 430.67,-61 430.67,-68"/>
</g>
<!-- Node24 -->
<g id="node24" class="node">
<title>Node24</title>
<g id="a_node24"><a xlink:href="interfaceQuantConnect_1_1Logging_1_1ILogHandler.html#a3fb71a33ac66129240b63f12b6fcda3b" target="_top" xlink:title="Write debug message to log">
<polygon fill="white" stroke="black" points="441,-0.5 441,-30.5 591,-30.5 591,-0.5 441,-0.5"/>
<text text-anchor="start" x="449" y="-18.5" font-family="Helvetica,sans-Serif" font-size="10.00">QuantConnect.Logging.ILog</text>
<text text-anchor="middle" x="516" y="-7.5" font-family="Helvetica,sans-Serif" font-size="10.00">Handler.Trace</text>
</a>
</g>
</g>
<!-- Node23&#45;&gt;Node24 -->
<g id="edge25" class="edge">
<title>Node23&#45;&gt;Node24</title>
<path fill="none" stroke="midnightblue" d="M382.15,-15.5C397.75,-15.5 414.33,-15.5 430.29,-15.5"/>
<polygon fill="midnightblue" stroke="midnightblue" points="430.67,-19 440.67,-15.5 430.67,-12 430.67,-19"/>
</g>
</g>
</svg>
