<?xml version="1.0" encoding="UTF-8" standalone="no"?>
<!DOCTYPE svg PUBLIC "-//W3C//DTD SVG 1.1//EN"
 "http://www.w3.org/Graphics/SVG/1.1/DTD/svg11.dtd">
<!-- Generated by graphviz version 2.43.0 (0)
 -->
<!-- Title: QuantConnect.Exceptions.DllNotFoundPythonExceptionInterpreter.Interpret Pages: 1 -->
<svg width="455pt" height="50pt"
 viewBox="0.00 0.00 455.00 50.00" xmlns="http://www.w3.org/2000/svg" xmlns:xlink="http://www.w3.org/1999/xlink">
<g id="graph0" class="graph" transform="scale(1 1) rotate(0) translate(4 46)">
<title>QuantConnect.Exceptions.DllNotFoundPythonExceptionInterpreter.Interpret</title>
<polygon fill="white" stroke="transparent" points="-4,4 -4,-46 451,-46 451,4 -4,4"/>
<!-- Node1 -->
<g id="node1" class="node">
<title>Node1</title>
<g id="a_node1"><a xlink:title="Interprets the specified exception into a new exception">
<polygon fill="#bfbfbf" stroke="black" points="0,-0.5 0,-41.5 212,-41.5 212,-0.5 0,-0.5"/>
<text text-anchor="start" x="8" y="-29.5" font-family="Helvetica,sans-Serif" font-size="10.00">QuantConnect.Exceptions.</text>
<text text-anchor="start" x="8" y="-18.5" font-family="Helvetica,sans-Serif" font-size="10.00">DllNotFoundPythonExceptionInterpreter.</text>
<text text-anchor="middle" x="106" y="-7.5" font-family="Helvetica,sans-Serif" font-size="10.00">Interpret</text>
</a>
</g>
</g>
<!-- Node2 -->
<g id="node2" class="node">
<title>Node2</title>
<g id="a_node2"><a xlink:href="classQuantConnect_1_1Messages_1_1DllNotFoundPythonExceptionInterpreter.html#abc638c7fd016a1aca65f4b4cfe3228ca" target="_top" xlink:title="Returns a string message saying the given dynamic&#45;link library could not be found">
<polygon fill="white" stroke="black" points="248,-0.5 248,-41.5 447,-41.5 447,-0.5 248,-0.5"/>
<text text-anchor="start" x="256" y="-29.5" font-family="Helvetica,sans-Serif" font-size="10.00">QuantConnect.Messages.Dll</text>
<text text-anchor="start" x="256" y="-18.5" font-family="Helvetica,sans-Serif" font-size="10.00">NotFoundPythonExceptionInterpreter.</text>
<text text-anchor="middle" x="347.5" y="-7.5" font-family="Helvetica,sans-Serif" font-size="10.00">DynamicLinkLibraryNotFound</text>
</a>
</g>
</g>
<!-- Node1&#45;&gt;Node2 -->
<g id="edge1" class="edge">
<title>Node1&#45;&gt;Node2</title>
<path fill="none" stroke="midnightblue" d="M212.05,-21C220.63,-21 229.31,-21 237.92,-21"/>
<polygon fill="midnightblue" stroke="midnightblue" points="237.98,-24.5 247.98,-21 237.98,-17.5 237.98,-24.5"/>
</g>
</g>
</svg>
