<?xml version="1.0" encoding="UTF-8" standalone="no"?>
<!DOCTYPE svg PUBLIC "-//W3C//DTD SVG 1.1//EN"
 "http://www.w3.org/Graphics/SVG/1.1/DTD/svg11.dtd">
<!-- Generated by graphviz version 2.43.0 (0)
 -->
<!-- Title: QuantConnect.ToolBox.RandomDataGenerator.BaseSymbolGenerator.NextSymbol Pages: 1 -->
<svg width="1679pt" height="646pt"
 viewBox="0.00 0.00 1679.00 645.95" xmlns="http://www.w3.org/2000/svg" xmlns:xlink="http://www.w3.org/1999/xlink">
<g id="graph0" class="graph" transform="scale(1 1) rotate(0) translate(4 641.95)">
<title>QuantConnect.ToolBox.RandomDataGenerator.BaseSymbolGenerator.NextSymbol</title>
<polygon fill="white" stroke="transparent" points="-4,4 -4,-641.95 1675,-641.95 1675,4 -4,4"/>
<!-- Node1 -->
<g id="node1" class="node">
<title>Node1</title>
<g id="a_node1"><a xlink:title="Generates random symbol, used further down for asset">
<polygon fill="#bfbfbf" stroke="black" points="0,-185.5 0,-226.5 203,-226.5 203,-185.5 0,-185.5"/>
<text text-anchor="start" x="8" y="-214.5" font-family="Helvetica,sans-Serif" font-size="10.00">QuantConnect.ToolBox.Random</text>
<text text-anchor="start" x="8" y="-203.5" font-family="Helvetica,sans-Serif" font-size="10.00">DataGenerator.BaseSymbolGenerator.</text>
<text text-anchor="middle" x="101.5" y="-192.5" font-family="Helvetica,sans-Serif" font-size="10.00">NextSymbol</text>
</a>
</g>
</g>
<!-- Node2 -->
<g id="node2" class="node">
<title>Node2</title>
<g id="a_node2"><a xlink:href="classQuantConnect_1_1Securities_1_1SymbolPropertiesDatabase.html#a3b4d0360c1a785aaaa3a440ce1e91204" target="_top" xlink:title="Check whether symbol properties exists for the specified market/symbol/security&#45;type">
<polygon fill="white" stroke="black" points="246,-361 246,-391 459,-391 459,-361 246,-361"/>
<text text-anchor="start" x="254" y="-379" font-family="Helvetica,sans-Serif" font-size="10.00">QuantConnect.Securities.</text>
<text text-anchor="middle" x="352.5" y="-368" font-family="Helvetica,sans-Serif" font-size="10.00">SymbolPropertiesDatabase.ContainsKey</text>
</a>
</g>
</g>
<!-- Node1&#45;&gt;Node2 -->
<g id="edge1" class="edge">
<title>Node1&#45;&gt;Node2</title>
<path fill="none" stroke="midnightblue" d="M115.87,-226.75C137.63,-258.73 183.85,-319.64 239,-351 242.97,-353.26 247.13,-355.31 251.41,-357.18"/>
<polygon fill="midnightblue" stroke="midnightblue" points="250.36,-360.53 260.95,-360.99 252.96,-354.03 250.36,-360.53"/>
</g>
<!-- Node3 -->
<g id="node3" class="node">
<title>Node3</title>
<g id="a_node3"><a xlink:href="classQuantConnect_1_1Symbol.html#a350b9a625cf7bad95da82894be3cd0a8" target="_top" xlink:title="Provides a convenience method for creating a Symbol for most security types. This method currently do...">
<polygon fill="white" stroke="black" points="272,-322.5 272,-341.5 433,-341.5 433,-322.5 272,-322.5"/>
<text text-anchor="middle" x="352.5" y="-329.5" font-family="Helvetica,sans-Serif" font-size="10.00">QuantConnect.Symbol.Create</text>
</a>
</g>
</g>
<!-- Node1&#45;&gt;Node3 -->
<g id="edge2" class="edge">
<title>Node1&#45;&gt;Node3</title>
<path fill="none" stroke="midnightblue" d="M143.06,-226.52C193.9,-252.25 279.7,-295.67 323.68,-317.92"/>
<polygon fill="midnightblue" stroke="midnightblue" points="322.15,-321.07 332.65,-322.46 325.31,-314.83 322.15,-321.07"/>
</g>
<!-- Node21 -->
<g id="node21" class="node">
<title>Node21</title>
<g id="a_node21"><a xlink:href="classQuantConnect_1_1ToolBox_1_1RandomDataGenerator_1_1BaseSymbolGenerator.html#aaa2b8cebd6792453b08e7aca486cc60a" target="_top" xlink:title="Return a Ticker matching an entry in the Symbol properties database">
<polygon fill="white" stroke="black" points="239,-60.5 239,-101.5 466,-101.5 466,-60.5 239,-60.5"/>
<text text-anchor="start" x="247" y="-89.5" font-family="Helvetica,sans-Serif" font-size="10.00">QuantConnect.ToolBox.Random</text>
<text text-anchor="start" x="247" y="-78.5" font-family="Helvetica,sans-Serif" font-size="10.00">DataGenerator.BaseSymbolGenerator.</text>
<text text-anchor="middle" x="352.5" y="-67.5" font-family="Helvetica,sans-Serif" font-size="10.00">NextTickerFromSymbolPropertiesDatabase</text>
</a>
</g>
</g>
<!-- Node1&#45;&gt;Node21 -->
<g id="edge22" class="edge">
<title>Node1&#45;&gt;Node21</title>
<path fill="none" stroke="midnightblue" d="M143.34,-185.5C186.67,-163.75 255.17,-129.36 301.65,-106.03"/>
<polygon fill="midnightblue" stroke="midnightblue" points="303.27,-109.13 310.64,-101.51 300.13,-102.87 303.27,-109.13"/>
</g>
<!-- Node24 -->
<g id="node24" class="node">
<title>Node24</title>
<g id="a_node24"><a xlink:href="classQuantConnect_1_1ToolBox_1_1RandomDataGenerator_1_1BaseSymbolGenerator.html#a92467b066fe4f00938ff6a0ae41ef6e9" target="_top" xlink:title="Generates a random string within the specified lengths.">
<polygon fill="white" stroke="black" points="251,-0.5 251,-41.5 454,-41.5 454,-0.5 251,-0.5"/>
<text text-anchor="start" x="259" y="-29.5" font-family="Helvetica,sans-Serif" font-size="10.00">QuantConnect.ToolBox.Random</text>
<text text-anchor="start" x="259" y="-18.5" font-family="Helvetica,sans-Serif" font-size="10.00">DataGenerator.BaseSymbolGenerator.</text>
<text text-anchor="middle" x="352.5" y="-7.5" font-family="Helvetica,sans-Serif" font-size="10.00">NextUpperCaseString</text>
</a>
</g>
</g>
<!-- Node1&#45;&gt;Node24 -->
<g id="edge25" class="edge">
<title>Node1&#45;&gt;Node24</title>
<path fill="none" stroke="midnightblue" d="M114.82,-185.45C135.94,-152.03 182.31,-86.13 239,-51 241.97,-49.16 245.05,-47.43 248.21,-45.81"/>
<polygon fill="midnightblue" stroke="midnightblue" points="249.77,-48.94 257.32,-41.51 246.78,-42.61 249.77,-48.94"/>
</g>
<!-- Node4 -->
<g id="node4" class="node">
<title>Node4</title>
<g id="a_node4"><a xlink:href="classQuantConnect_1_1Symbol.html#a7518a1932d1babbff128f2ba9666a78b" target="_top" xlink:title="Provides a convenience method for creating an option Symbol.">
<polygon fill="white" stroke="black" points="527.5,-552 527.5,-582 688.5,-582 688.5,-552 527.5,-552"/>
<text text-anchor="start" x="535.5" y="-570" font-family="Helvetica,sans-Serif" font-size="10.00">QuantConnect.Symbol.Create</text>
<text text-anchor="middle" x="608" y="-559" font-family="Helvetica,sans-Serif" font-size="10.00">Option</text>
</a>
</g>
</g>
<!-- Node3&#45;&gt;Node4 -->
<g id="edge3" class="edge">
<title>Node3&#45;&gt;Node4</title>
<path fill="none" stroke="midnightblue" d="M433.15,-333.85C445.39,-337.39 456.95,-343.1 466,-352 525.71,-410.75 445.37,-475.28 502,-537 506.74,-542.16 512.29,-546.46 518.33,-550.03"/>
<polygon fill="midnightblue" stroke="midnightblue" points="517,-553.29 527.49,-554.77 520.22,-547.07 517,-553.29"/>
</g>
<!-- Node5 -->
<g id="node5" class="node">
<title>Node5</title>
<g id="a_node5"><a xlink:href="classQuantConnect_1_1SecurityIdentifier.html#a0c21d7880c9fdd260883d11ea0c99a00" target="_top" xlink:title="Helper overload that will search the mapfiles to resolve the first date. This implementation uses the...">
<polygon fill="white" stroke="black" points="750,-585 750,-615 924,-615 924,-585 750,-585"/>
<text text-anchor="start" x="758" y="-603" font-family="Helvetica,sans-Serif" font-size="10.00">QuantConnect.SecurityIdentifier.</text>
<text text-anchor="middle" x="837" y="-592" font-family="Helvetica,sans-Serif" font-size="10.00">GenerateEquity</text>
</a>
</g>
</g>
<!-- Node3&#45;&gt;Node5 -->
<g id="edge16" class="edge">
<title>Node3&#45;&gt;Node5</title>
<path fill="none" stroke="midnightblue" d="M433.19,-333.44C445.51,-337.01 457.08,-342.83 466,-352 541.23,-429.29 421.12,-520.64 502,-592 578.64,-659.62 708.02,-637.94 781.23,-617.86"/>
<polygon fill="midnightblue" stroke="midnightblue" points="782.5,-621.14 791.17,-615.04 780.6,-614.4 782.5,-621.14"/>
</g>
<!-- Node6 -->
<g id="node6" class="node">
<title>Node6</title>
<g id="a_node6"><a xlink:href="classQuantConnect_1_1Symbol.html#a59158f74116be3dad0ea0f3f3f134416" target="_top" xlink:title="Initializes a new instance of the Symbol class">
<polygon fill="white" stroke="black" points="754.5,-524.5 754.5,-543.5 919.5,-543.5 919.5,-524.5 754.5,-524.5"/>
<text text-anchor="middle" x="837" y="-531.5" font-family="Helvetica,sans-Serif" font-size="10.00">QuantConnect.Symbol.Symbol</text>
</a>
</g>
</g>
<!-- Node3&#45;&gt;Node6 -->
<g id="edge21" class="edge">
<title>Node3&#45;&gt;Node6</title>
<path fill="none" stroke="midnightblue" d="M433.14,-334.24C445.31,-337.76 456.84,-343.35 466,-352 516.46,-399.68 449.53,-458.54 502,-504 537.08,-534.39 658.02,-538.56 744.26,-537.39"/>
<polygon fill="midnightblue" stroke="midnightblue" points="744.39,-540.88 754.33,-537.22 744.28,-533.89 744.39,-540.88"/>
</g>
<!-- Node12 -->
<g id="node12" class="node">
<title>Node12</title>
<g id="a_node12"><a xlink:href="classQuantConnect_1_1SecurityIdentifier.html#a02ca750115844561c001c2346fbafc00" target="_top" xlink:title="Generates a new SecurityIdentifier for a custom security with the option of providing the first date">
<polygon fill="white" stroke="black" points="521,-464 521,-494 695,-494 695,-464 521,-464"/>
<text text-anchor="start" x="529" y="-482" font-family="Helvetica,sans-Serif" font-size="10.00">QuantConnect.SecurityIdentifier.</text>
<text text-anchor="middle" x="608" y="-471" font-family="Helvetica,sans-Serif" font-size="10.00">GenerateBase</text>
</a>
</g>
</g>
<!-- Node3&#45;&gt;Node12 -->
<g id="edge11" class="edge">
<title>Node3&#45;&gt;Node12</title>
<path fill="none" stroke="midnightblue" d="M433.27,-335.31C445.21,-338.74 456.63,-344.03 466,-352 502.93,-383.43 465.85,-422.67 502,-455 505.05,-457.73 508.34,-460.16 511.82,-462.34"/>
<polygon fill="midnightblue" stroke="midnightblue" points="510.34,-465.52 520.8,-467.22 513.69,-459.37 510.34,-465.52"/>
</g>
<!-- Node14 -->
<g id="node14" class="node">
<title>Node14</title>
<g id="a_node14"><a xlink:href="classQuantConnect_1_1SecurityIdentifier.html#a53953b18d814c5445e4ecdcb3b555080" target="_top" xlink:title="Generates a new SecurityIdentifier for a CFD security">
<polygon fill="white" stroke="black" points="521,-415 521,-445 695,-445 695,-415 521,-415"/>
<text text-anchor="start" x="529" y="-433" font-family="Helvetica,sans-Serif" font-size="10.00">QuantConnect.SecurityIdentifier.</text>
<text text-anchor="middle" x="608" y="-422" font-family="Helvetica,sans-Serif" font-size="10.00">GenerateCfd</text>
</a>
</g>
</g>
<!-- Node3&#45;&gt;Node14 -->
<g id="edge13" class="edge">
<title>Node3&#45;&gt;Node14</title>
<path fill="none" stroke="midnightblue" d="M433.14,-337.84C444.76,-341 456.12,-345.54 466,-352 490.14,-367.79 478.25,-389.62 502,-406 505.11,-408.14 508.38,-410.1 511.77,-411.88"/>
<polygon fill="midnightblue" stroke="midnightblue" points="510.44,-415.12 520.98,-416.21 513.42,-408.79 510.44,-415.12"/>
</g>
<!-- Node15 -->
<g id="node15" class="node">
<title>Node15</title>
<g id="a_node15"><a xlink:href="classQuantConnect_1_1SecurityIdentifier.html#a5889a95a36ce927dd0a109cbfbcbe663" target="_top" xlink:title="Generates a new SecurityIdentifier for a Crypto pair">
<polygon fill="white" stroke="black" points="521,-366 521,-396 695,-396 695,-366 521,-366"/>
<text text-anchor="start" x="529" y="-384" font-family="Helvetica,sans-Serif" font-size="10.00">QuantConnect.SecurityIdentifier.</text>
<text text-anchor="middle" x="608" y="-373" font-family="Helvetica,sans-Serif" font-size="10.00">GenerateCrypto</text>
</a>
</g>
</g>
<!-- Node3&#45;&gt;Node15 -->
<g id="edge14" class="edge">
<title>Node3&#45;&gt;Node15</title>
<path fill="none" stroke="midnightblue" d="M408.77,-341.52C427.01,-344.74 447.39,-348.43 466,-352 485.42,-355.72 506.31,-359.92 525.9,-363.93"/>
<polygon fill="midnightblue" stroke="midnightblue" points="525.21,-367.36 535.71,-365.95 526.62,-360.5 525.21,-367.36"/>
</g>
<!-- Node16 -->
<g id="node16" class="node">
<title>Node16</title>
<g id="a_node16"><a xlink:href="classQuantConnect_1_1SecurityIdentifier.html#ac665665a16d5449872fed3427b95a260" target="_top" xlink:title="Generates a new SecurityIdentifier for a CryptoFuture pair">
<polygon fill="white" stroke="black" points="521,-317 521,-347 695,-347 695,-317 521,-317"/>
<text text-anchor="start" x="529" y="-335" font-family="Helvetica,sans-Serif" font-size="10.00">QuantConnect.SecurityIdentifier.</text>
<text text-anchor="middle" x="608" y="-324" font-family="Helvetica,sans-Serif" font-size="10.00">GenerateCryptoFuture</text>
</a>
</g>
</g>
<!-- Node3&#45;&gt;Node16 -->
<g id="edge15" class="edge">
<title>Node3&#45;&gt;Node16</title>
<path fill="none" stroke="midnightblue" d="M433.01,-332C457.63,-332 485.01,-332 510.63,-332"/>
<polygon fill="midnightblue" stroke="midnightblue" points="510.73,-335.5 520.73,-332 510.73,-328.5 510.73,-335.5"/>
</g>
<!-- Node17 -->
<g id="node17" class="node">
<title>Node17</title>
<g id="a_node17"><a xlink:href="classQuantConnect_1_1SecurityIdentifier.html#a9cf0d3b208a5171e6112516ce441f18d" target="_top" xlink:title="Generates a new SecurityIdentifier for a forex pair">
<polygon fill="white" stroke="black" points="521,-268 521,-298 695,-298 695,-268 521,-268"/>
<text text-anchor="start" x="529" y="-286" font-family="Helvetica,sans-Serif" font-size="10.00">QuantConnect.SecurityIdentifier.</text>
<text text-anchor="middle" x="608" y="-275" font-family="Helvetica,sans-Serif" font-size="10.00">GenerateForex</text>
</a>
</g>
</g>
<!-- Node3&#45;&gt;Node17 -->
<g id="edge17" class="edge">
<title>Node3&#45;&gt;Node17</title>
<path fill="none" stroke="midnightblue" d="M402.68,-322.49C435.59,-316.13 479.84,-307.58 518.74,-300.06"/>
<polygon fill="midnightblue" stroke="midnightblue" points="519.88,-303.41 529.03,-298.07 518.55,-296.53 519.88,-303.41"/>
</g>
<!-- Node18 -->
<g id="node18" class="node">
<title>Node18</title>
<g id="a_node18"><a xlink:href="classQuantConnect_1_1SecurityIdentifier.html#ad50a891c97cb0c084a9e2aa43607ed66" target="_top" xlink:title="Generates a new SecurityIdentifier for a future">
<polygon fill="white" stroke="black" points="521,-219 521,-249 695,-249 695,-219 521,-219"/>
<text text-anchor="start" x="529" y="-237" font-family="Helvetica,sans-Serif" font-size="10.00">QuantConnect.SecurityIdentifier.</text>
<text text-anchor="middle" x="608" y="-226" font-family="Helvetica,sans-Serif" font-size="10.00">GenerateFuture</text>
</a>
</g>
</g>
<!-- Node3&#45;&gt;Node18 -->
<g id="edge18" class="edge">
<title>Node3&#45;&gt;Node18</title>
<path fill="none" stroke="midnightblue" d="M369.89,-322.42C396.71,-307.1 451.99,-276.99 502,-259 509.25,-256.39 516.89,-253.97 524.59,-251.76"/>
<polygon fill="midnightblue" stroke="midnightblue" points="525.66,-255.09 534.36,-249.05 523.79,-248.35 525.66,-255.09"/>
</g>
<!-- Node19 -->
<g id="node19" class="node">
<title>Node19</title>
<g id="a_node19"><a xlink:href="classQuantConnect_1_1SecurityIdentifier.html#ade05a8e57b041ab484cf585be8d05699" target="_top" xlink:title="Generates a new SecurityIdentifier for a INDEX security">
<polygon fill="white" stroke="black" points="521,-170 521,-200 695,-200 695,-170 521,-170"/>
<text text-anchor="start" x="529" y="-188" font-family="Helvetica,sans-Serif" font-size="10.00">QuantConnect.SecurityIdentifier.</text>
<text text-anchor="middle" x="608" y="-177" font-family="Helvetica,sans-Serif" font-size="10.00">GenerateIndex</text>
</a>
</g>
</g>
<!-- Node3&#45;&gt;Node19 -->
<g id="edge19" class="edge">
<title>Node3&#45;&gt;Node19</title>
<path fill="none" stroke="midnightblue" d="M362.16,-322.35C383.5,-299.18 441.33,-240.12 502,-210 506.88,-207.58 512,-205.38 517.25,-203.4"/>
<polygon fill="midnightblue" stroke="midnightblue" points="518.54,-206.66 526.82,-200.04 516.22,-200.05 518.54,-206.66"/>
</g>
<!-- Node20 -->
<g id="node20" class="node">
<title>Node20</title>
<g id="a_node20"><a xlink:href="classQuantConnect_1_1Messages_1_1Symbol.html#ab801bef52a308b8ba7ba6d42e1ef1988" target="_top" xlink:title="Returns a string message saying the given security type has not been implemented yet">
<polygon fill="white" stroke="black" points="518,-121 518,-151 698,-151 698,-121 518,-121"/>
<text text-anchor="start" x="526" y="-139" font-family="Helvetica,sans-Serif" font-size="10.00">QuantConnect.Messages.Symbol.</text>
<text text-anchor="middle" x="608" y="-128" font-family="Helvetica,sans-Serif" font-size="10.00">SecurityTypeNotImplementedYet</text>
</a>
</g>
</g>
<!-- Node3&#45;&gt;Node20 -->
<g id="edge20" class="edge">
<title>Node3&#45;&gt;Node20</title>
<path fill="none" stroke="midnightblue" d="M358.83,-322.41C375.65,-293.12 430.71,-204.19 502,-161 505.61,-158.82 509.39,-156.82 513.29,-155"/>
<polygon fill="midnightblue" stroke="midnightblue" points="514.74,-158.19 522.58,-151.06 512.01,-151.74 514.74,-158.19"/>
</g>
<!-- Node4&#45;&gt;Node5 -->
<g id="edge4" class="edge">
<title>Node4&#45;&gt;Node5</title>
<path fill="none" stroke="midnightblue" d="M688.71,-578.59C705.27,-580.99 722.87,-583.55 739.94,-586.04"/>
<polygon fill="midnightblue" stroke="midnightblue" points="739.52,-589.51 749.92,-587.49 740.52,-582.58 739.52,-589.51"/>
</g>
<!-- Node4&#45;&gt;Node6 -->
<g id="edge5" class="edge">
<title>Node4&#45;&gt;Node6</title>
<path fill="none" stroke="midnightblue" d="M688.71,-555.41C711.97,-552.03 737.31,-548.35 760.31,-545"/>
<polygon fill="midnightblue" stroke="midnightblue" points="760.96,-548.45 770.36,-543.54 759.96,-541.52 760.96,-548.45"/>
</g>
<!-- Node7 -->
<g id="node7" class="node">
<title>Node7</title>
<g id="a_node7"><a xlink:href="classQuantConnect_1_1Symbol.html#a59b0795fa21f46c306deb5576fa03bb9" target="_top" xlink:title="Centralized helper method to resolve alias for a symbol">
<polygon fill="white" stroke="black" points="960,-524.5 960,-543.5 1130,-543.5 1130,-524.5 960,-524.5"/>
<text text-anchor="middle" x="1045" y="-531.5" font-family="Helvetica,sans-Serif" font-size="10.00">QuantConnect.Symbol.GetAlias</text>
</a>
</g>
</g>
<!-- Node6&#45;&gt;Node7 -->
<g id="edge6" class="edge">
<title>Node6&#45;&gt;Node7</title>
<path fill="none" stroke="midnightblue" d="M919.71,-534C929.47,-534 939.49,-534 949.4,-534"/>
<polygon fill="midnightblue" stroke="midnightblue" points="949.68,-537.5 959.68,-534 949.68,-530.5 949.68,-537.5"/>
</g>
<!-- Node8 -->
<g id="node8" class="node">
<title>Node8</title>
<g id="a_node8"><a xlink:href="classQuantConnect_1_1SymbolRepresentation.html#ad43ac907f6c19083821f58f21c6de017" target="_top" xlink:title="Returns future symbol ticker from underlying and expiration date. Function can generate tickers of tw...">
<polygon fill="white" stroke="black" points="1166,-547 1166,-577 1369,-577 1369,-547 1166,-547"/>
<text text-anchor="start" x="1174" y="-565" font-family="Helvetica,sans-Serif" font-size="10.00">QuantConnect.SymbolRepresentation.</text>
<text text-anchor="middle" x="1267.5" y="-554" font-family="Helvetica,sans-Serif" font-size="10.00">GenerateFutureTicker</text>
</a>
</g>
</g>
<!-- Node7&#45;&gt;Node8 -->
<g id="edge7" class="edge">
<title>Node7&#45;&gt;Node8</title>
<path fill="none" stroke="midnightblue" d="M1120.96,-543.52C1132.27,-544.96 1144.14,-546.46 1156.01,-547.97"/>
<polygon fill="midnightblue" stroke="midnightblue" points="1155.62,-551.45 1165.98,-549.24 1156.5,-544.5 1155.62,-551.45"/>
</g>
<!-- Node10 -->
<g id="node10" class="node">
<title>Node10</title>
<g id="a_node10"><a xlink:href="classQuantConnect_1_1SymbolRepresentation.html#ab133044f5cf8c16e700190a2202b215e" target="_top" xlink:title="Returns option symbol ticker in accordance with OSI symbology More information can be found at http:/...">
<polygon fill="white" stroke="black" points="1166,-495 1166,-525 1369,-525 1369,-495 1166,-495"/>
<text text-anchor="start" x="1174" y="-513" font-family="Helvetica,sans-Serif" font-size="10.00">QuantConnect.SymbolRepresentation.</text>
<text text-anchor="middle" x="1267.5" y="-502" font-family="Helvetica,sans-Serif" font-size="10.00">GenerateOptionTickerOSI</text>
</a>
</g>
</g>
<!-- Node7&#45;&gt;Node10 -->
<g id="edge9" class="edge">
<title>Node7&#45;&gt;Node10</title>
<path fill="none" stroke="midnightblue" d="M1130.31,-524.82C1138.69,-523.91 1147.3,-522.97 1155.9,-522.04"/>
<polygon fill="midnightblue" stroke="midnightblue" points="1156.43,-525.5 1165.99,-520.94 1155.67,-518.54 1156.43,-525.5"/>
</g>
<!-- Node9 -->
<g id="node9" class="node">
<title>Node9</title>
<g id="a_node9"><a xlink:href="classQuantConnect_1_1Securities_1_1Future_1_1FuturesExpiryUtilityFunctions.html#a4ccb1e2f2fe40ff09785a74a02f26df1" target="_top" xlink:title="Gets the number of months between the contract month and the expiry date.">
<polygon fill="white" stroke="black" points="1405,-544.5 1405,-585.5 1671,-585.5 1671,-544.5 1405,-544.5"/>
<text text-anchor="start" x="1413" y="-573.5" font-family="Helvetica,sans-Serif" font-size="10.00">QuantConnect.Securities.</text>
<text text-anchor="start" x="1413" y="-562.5" font-family="Helvetica,sans-Serif" font-size="10.00">Future.FuturesExpiryUtilityFunctions.</text>
<text text-anchor="middle" x="1538" y="-551.5" font-family="Helvetica,sans-Serif" font-size="10.00">GetDeltaBetweenContractMonthAndContractExpiry</text>
</a>
</g>
</g>
<!-- Node8&#45;&gt;Node9 -->
<g id="edge8" class="edge">
<title>Node8&#45;&gt;Node9</title>
<path fill="none" stroke="midnightblue" d="M1369.24,-563.13C1377.59,-563.22 1386.11,-563.31 1394.68,-563.41"/>
<polygon fill="midnightblue" stroke="midnightblue" points="1394.72,-566.91 1404.76,-563.52 1394.8,-559.91 1394.72,-566.91"/>
</g>
<!-- Node11 -->
<g id="node11" class="node">
<title>Node11</title>
<g id="a_node11"><a xlink:href="classQuantConnect_1_1Messages_1_1SymbolRepresentation.html#a2c514157d8055cfa271ea3a7ca1ccde7" target="_top" xlink:title="Returns a string message saying an unexpected security type was received by the given method name">
<polygon fill="white" stroke="black" points="1442,-484.5 1442,-525.5 1634,-525.5 1634,-484.5 1442,-484.5"/>
<text text-anchor="start" x="1450" y="-513.5" font-family="Helvetica,sans-Serif" font-size="10.00">QuantConnect.Messages.Symbol</text>
<text text-anchor="start" x="1450" y="-502.5" font-family="Helvetica,sans-Serif" font-size="10.00">Representation.UnexpectedSecurity</text>
<text text-anchor="middle" x="1538" y="-491.5" font-family="Helvetica,sans-Serif" font-size="10.00">TypeForMethod</text>
</a>
</g>
</g>
<!-- Node10&#45;&gt;Node11 -->
<g id="edge10" class="edge">
<title>Node10&#45;&gt;Node11</title>
<path fill="none" stroke="midnightblue" d="M1369.24,-508.12C1389.7,-507.74 1411.27,-507.34 1431.88,-506.96"/>
<polygon fill="midnightblue" stroke="midnightblue" points="1431.98,-510.46 1441.91,-506.77 1431.85,-503.46 1431.98,-510.46"/>
</g>
<!-- Node13 -->
<g id="node13" class="node">
<title>Node13</title>
<g id="a_node13"><a xlink:href="classQuantConnect_1_1SecurityIdentifier.html#a19e1f9da410608020d74ed9e7d283575" target="_top" xlink:title="Generates the Symbol property for QuantConnect.SecurityType.Base security identifiers">
<polygon fill="white" stroke="black" points="750,-464 750,-494 924,-494 924,-464 750,-464"/>
<text text-anchor="start" x="758" y="-482" font-family="Helvetica,sans-Serif" font-size="10.00">QuantConnect.SecurityIdentifier.</text>
<text text-anchor="middle" x="837" y="-471" font-family="Helvetica,sans-Serif" font-size="10.00">GenerateBaseSymbol</text>
</a>
</g>
</g>
<!-- Node12&#45;&gt;Node13 -->
<g id="edge12" class="edge">
<title>Node12&#45;&gt;Node13</title>
<path fill="none" stroke="midnightblue" d="M695.14,-479C709.72,-479 724.93,-479 739.74,-479"/>
<polygon fill="midnightblue" stroke="midnightblue" points="739.92,-482.5 749.92,-479 739.92,-475.5 739.92,-482.5"/>
</g>
<!-- Node22 -->
<g id="node22" class="node">
<title>Node22</title>
<g id="a_node22"><a xlink:href="classQuantConnect_1_1Securities_1_1SymbolPropertiesDatabase.html#a13409909230e8a82ee9d64fa2caa3b89" target="_top" xlink:title="Gets a list of symbol properties for the specified market/security&#45;type">
<polygon fill="white" stroke="black" points="523,-60.5 523,-101.5 693,-101.5 693,-60.5 523,-60.5"/>
<text text-anchor="start" x="531" y="-89.5" font-family="Helvetica,sans-Serif" font-size="10.00">QuantConnect.Securities.</text>
<text text-anchor="start" x="531" y="-78.5" font-family="Helvetica,sans-Serif" font-size="10.00">SymbolPropertiesDatabase.Get</text>
<text text-anchor="middle" x="608" y="-67.5" font-family="Helvetica,sans-Serif" font-size="10.00">SymbolPropertiesList</text>
</a>
</g>
</g>
<!-- Node21&#45;&gt;Node22 -->
<g id="edge23" class="edge">
<title>Node21&#45;&gt;Node22</title>
<path fill="none" stroke="midnightblue" d="M466.17,-81C481.64,-81 497.39,-81 512.49,-81"/>
<polygon fill="midnightblue" stroke="midnightblue" points="512.83,-84.5 522.83,-81 512.83,-77.5 512.83,-84.5"/>
</g>
<!-- Node23 -->
<g id="node23" class="node">
<title>Node23</title>
<g id="a_node23"><a xlink:href="interfaceQuantConnect_1_1ToolBox_1_1RandomDataGenerator_1_1IRandomValueGenerator.html#a615be809fb0e058c362a8575be83337e" target="_top" xlink:title="Returns a random integer that is within a specified range.">
<polygon fill="white" stroke="black" points="502,-0.5 502,-41.5 714,-41.5 714,-0.5 502,-0.5"/>
<text text-anchor="start" x="510" y="-29.5" font-family="Helvetica,sans-Serif" font-size="10.00">QuantConnect.ToolBox.Random</text>
<text text-anchor="start" x="510" y="-18.5" font-family="Helvetica,sans-Serif" font-size="10.00">DataGenerator.IRandomValueGenerator.</text>
<text text-anchor="middle" x="608" y="-7.5" font-family="Helvetica,sans-Serif" font-size="10.00">NextInt</text>
</a>
</g>
</g>
<!-- Node21&#45;&gt;Node23 -->
<g id="edge24" class="edge">
<title>Node21&#45;&gt;Node23</title>
<path fill="none" stroke="midnightblue" d="M440.39,-60.44C462.96,-55.09 487.41,-49.3 510.45,-43.85"/>
<polygon fill="midnightblue" stroke="midnightblue" points="511.3,-47.25 520.23,-41.54 509.69,-40.44 511.3,-47.25"/>
</g>
<!-- Node24&#45;&gt;Node23 -->
<g id="edge26" class="edge">
<title>Node24&#45;&gt;Node23</title>
<path fill="none" stroke="midnightblue" d="M454.05,-21C466.49,-21 479.27,-21 491.91,-21"/>
<polygon fill="midnightblue" stroke="midnightblue" points="491.99,-24.5 501.99,-21 491.99,-17.5 491.99,-24.5"/>
</g>
</g>
</svg>
