<?xml version="1.0" encoding="UTF-8" standalone="no"?>
<!DOCTYPE svg PUBLIC "-//W3C//DTD SVG 1.1//EN"
 "http://www.w3.org/Graphics/SVG/1.1/DTD/svg11.dtd">
<!-- Generated by graphviz version 2.43.0 (0)
 -->
<!-- Title: QuantConnect.Indicators.DualSymbolIndicator.AddDataPoint Pages: 1 -->
<svg width="395pt" height="50pt"
 viewBox="0.00 0.00 395.00 50.00" xmlns="http://www.w3.org/2000/svg" xmlns:xlink="http://www.w3.org/1999/xlink">
<g id="graph0" class="graph" transform="scale(1 1) rotate(0) translate(4 46)">
<title>QuantConnect.Indicators.DualSymbolIndicator.AddDataPoint</title>
<polygon fill="white" stroke="transparent" points="-4,4 -4,-46 391,-46 391,4 -4,4"/>
<!-- Node1 -->
<g id="node1" class="node">
<title>Node1</title>
<g id="a_node1"><a xlink:title="Adds the closing price to the corresponding symbol&#39;s data set (target or reference)....">
<polygon fill="#bfbfbf" stroke="black" points="199,-6 199,-36 387,-36 387,-6 199,-6"/>
<text text-anchor="start" x="207" y="-24" font-family="Helvetica,sans-Serif" font-size="10.00">QuantConnect.Indicators.</text>
<text text-anchor="middle" x="293" y="-13" font-family="Helvetica,sans-Serif" font-size="10.00">DualSymbolIndicator.AddDataPoint</text>
</a>
</g>
</g>
<!-- Node2 -->
<g id="node2" class="node">
<title>Node2</title>
<g id="a_node2"><a xlink:href="classQuantConnect_1_1Indicators_1_1DualSymbolIndicator.html#af8d4dc5840b24cd9c2a156ad2412311d" target="_top" xlink:title="Checks and computes the indicator if the input data matches. This method ensures the input data point...">
<polygon fill="white" stroke="black" points="0,-0.5 0,-41.5 163,-41.5 163,-0.5 0,-0.5"/>
<text text-anchor="start" x="8" y="-29.5" font-family="Helvetica,sans-Serif" font-size="10.00">QuantConnect.Indicators.</text>
<text text-anchor="start" x="8" y="-18.5" font-family="Helvetica,sans-Serif" font-size="10.00">DualSymbolIndicator&lt; double</text>
<text text-anchor="middle" x="81.5" y="-7.5" font-family="Helvetica,sans-Serif" font-size="10.00"> &gt;::ComputeNextValue</text>
</a>
</g>
</g>
<!-- Node1&#45;&gt;Node2 -->
<g id="edge1" class="edge">
<title>Node1&#45;&gt;Node2</title>
<path fill="none" stroke="midnightblue" d="M188.81,-21C180.2,-21 171.58,-21 163.17,-21"/>
<polygon fill="midnightblue" stroke="midnightblue" points="188.89,-24.5 198.89,-21 188.89,-17.5 188.89,-24.5"/>
</g>
</g>
</svg>
