<?xml version="1.0" encoding="UTF-8" standalone="no"?>
<!DOCTYPE svg PUBLIC "-//W3C//DTD SVG 1.1//EN"
 "http://www.w3.org/Graphics/SVG/1.1/DTD/svg11.dtd">
<!-- Generated by graphviz version 2.43.0 (0)
 -->
<!-- Title: QuantConnect.Brokerages.DefaultBrokerageMessageHandler.HandleMessage Pages: 1 -->
<svg width="634pt" height="269pt"
 viewBox="0.00 0.00 634.00 269.00" xmlns="http://www.w3.org/2000/svg" xmlns:xlink="http://www.w3.org/1999/xlink">
<g id="graph0" class="graph" transform="scale(1 1) rotate(0) translate(4 265)">
<title>QuantConnect.Brokerages.DefaultBrokerageMessageHandler.HandleMessage</title>
<polygon fill="white" stroke="transparent" points="-4,4 -4,-265 630,-265 630,4 -4,4"/>
<!-- Node1 -->
<g id="node1" class="node">
<title>Node1</title>
<g id="a_node1"><a xlink:title="Handles the message">
<polygon fill="#bfbfbf" stroke="black" points="0,-110 0,-151 186,-151 186,-110 0,-110"/>
<text text-anchor="start" x="8" y="-139" font-family="Helvetica,sans-Serif" font-size="10.00">QuantConnect.Brokerages.</text>
<text text-anchor="start" x="8" y="-128" font-family="Helvetica,sans-Serif" font-size="10.00">DefaultBrokerageMessageHandler.</text>
<text text-anchor="middle" x="93" y="-117" font-family="Helvetica,sans-Serif" font-size="10.00">HandleMessage</text>
</a>
</g>
</g>
<!-- Node2 -->
<g id="node2" class="node">
<title>Node2</title>
<g id="a_node2"><a xlink:href="classQuantConnect_1_1Messages_1_1DefaultBrokerageMessageHandler.html#ad6a47337abf1bd9b4e77bdbafddb66be" target="_top" xlink:title="Returns a string message with basic information about the given message event">
<polygon fill="white" stroke="black" points="222,-230.5 222,-260.5 440,-260.5 440,-230.5 222,-230.5"/>
<text text-anchor="start" x="230" y="-248.5" font-family="Helvetica,sans-Serif" font-size="10.00">QuantConnect.Messages.Default</text>
<text text-anchor="middle" x="331" y="-237.5" font-family="Helvetica,sans-Serif" font-size="10.00">BrokerageMessageHandler.BrokerageInfo</text>
</a>
</g>
</g>
<!-- Node1&#45;&gt;Node2 -->
<g id="edge1" class="edge">
<title>Node1&#45;&gt;Node2</title>
<path fill="none" stroke="midnightblue" d="M117.3,-151.11C141.74,-171.66 182.07,-202.66 222,-220.5 227.65,-223.02 233.59,-225.31 239.64,-227.37"/>
<polygon fill="midnightblue" stroke="midnightblue" points="238.65,-230.73 249.24,-230.44 240.78,-224.06 238.65,-230.73"/>
</g>
<!-- Node3 -->
<g id="node3" class="node">
<title>Node3</title>
<g id="a_node3"><a xlink:href="classQuantConnect_1_1Messages_1_1DefaultBrokerageMessageHandler.html#abcdb54cd3927bdf2c39f74ba85c20535" target="_top" xlink:title="Returns a string message warning from the given message event">
<polygon fill="white" stroke="black" points="231,-170 231,-211 431,-211 431,-170 231,-170"/>
<text text-anchor="start" x="239" y="-199" font-family="Helvetica,sans-Serif" font-size="10.00">QuantConnect.Messages.Default</text>
<text text-anchor="start" x="239" y="-188" font-family="Helvetica,sans-Serif" font-size="10.00">BrokerageMessageHandler.Brokerage</text>
<text text-anchor="middle" x="331" y="-177" font-family="Helvetica,sans-Serif" font-size="10.00">Warning</text>
</a>
</g>
</g>
<!-- Node1&#45;&gt;Node3 -->
<g id="edge2" class="edge">
<title>Node1&#45;&gt;Node3</title>
<path fill="none" stroke="midnightblue" d="M174.89,-151.06C195.62,-156.34 218.06,-162.04 239.25,-167.43"/>
<polygon fill="midnightblue" stroke="midnightblue" points="238.66,-170.89 249.22,-169.96 240.39,-164.11 238.66,-170.89"/>
</g>
<!-- Node4 -->
<g id="node4" class="node">
<title>Node4</title>
<g id="a_node4"><a xlink:href="classQuantConnect_1_1Messages_1_1DefaultBrokerageMessageHandler.html#a582ec61a126e2848f569fc89de69754d" target="_top" xlink:title="Returns a string message saying the brokerage is disconnected when exchanges are open and that it&#39;s t...">
<polygon fill="white" stroke="black" points="223,-110 223,-151 439,-151 439,-110 223,-110"/>
<text text-anchor="start" x="231" y="-139" font-family="Helvetica,sans-Serif" font-size="10.00">QuantConnect.Messages.Default</text>
<text text-anchor="start" x="231" y="-128" font-family="Helvetica,sans-Serif" font-size="10.00">BrokerageMessageHandler.Disconnected</text>
<text text-anchor="middle" x="331" y="-117" font-family="Helvetica,sans-Serif" font-size="10.00">WhenExchangesAreOpen</text>
</a>
</g>
</g>
<!-- Node1&#45;&gt;Node4 -->
<g id="edge3" class="edge">
<title>Node1&#45;&gt;Node4</title>
<path fill="none" stroke="midnightblue" d="M186.26,-130.5C194.99,-130.5 203.93,-130.5 212.85,-130.5"/>
<polygon fill="midnightblue" stroke="midnightblue" points="212.92,-134 222.92,-130.5 212.92,-127 212.92,-134"/>
</g>
<!-- Node5 -->
<g id="node5" class="node">
<title>Node5</title>
<g id="a_node5"><a xlink:href="classQuantConnect_1_1Messages_1_1DefaultBrokerageMessageHandler.html#aa4bc9d32adde553e482884d4d3a36ba0" target="_top" xlink:title="Returns a string message with the time until the next market open">
<polygon fill="white" stroke="black" points="232,-50 232,-91 430,-91 430,-50 232,-50"/>
<text text-anchor="start" x="240" y="-79" font-family="Helvetica,sans-Serif" font-size="10.00">QuantConnect.Messages.Default</text>
<text text-anchor="start" x="240" y="-68" font-family="Helvetica,sans-Serif" font-size="10.00">BrokerageMessageHandler.TimeUntil</text>
<text text-anchor="middle" x="331" y="-57" font-family="Helvetica,sans-Serif" font-size="10.00">NextMarketOpen</text>
</a>
</g>
</g>
<!-- Node1&#45;&gt;Node5 -->
<g id="edge4" class="edge">
<title>Node1&#45;&gt;Node5</title>
<path fill="none" stroke="midnightblue" d="M174.89,-109.94C195.62,-104.66 218.06,-98.96 239.25,-93.57"/>
<polygon fill="midnightblue" stroke="midnightblue" points="240.39,-96.89 249.22,-91.04 238.66,-90.11 240.39,-96.89"/>
</g>
<!-- Node6 -->
<g id="node6" class="node">
<title>Node6</title>
<g id="a_node6"><a xlink:href="classQuantConnect_1_1Logging_1_1Log.html#a4e55477fbc790846b74550a57198cea9" target="_top" xlink:title="Log trace">
<polygon fill="white" stroke="black" points="256,-0.5 256,-30.5 406,-30.5 406,-0.5 256,-0.5"/>
<text text-anchor="start" x="264" y="-18.5" font-family="Helvetica,sans-Serif" font-size="10.00">QuantConnect.Logging.Log.</text>
<text text-anchor="middle" x="331" y="-7.5" font-family="Helvetica,sans-Serif" font-size="10.00">Trace</text>
</a>
</g>
</g>
<!-- Node1&#45;&gt;Node6 -->
<g id="edge5" class="edge">
<title>Node1&#45;&gt;Node6</title>
<path fill="none" stroke="midnightblue" d="M117.3,-109.89C141.74,-89.34 182.07,-58.34 222,-40.5 229.64,-37.09 237.8,-34.11 246.09,-31.52"/>
<polygon fill="midnightblue" stroke="midnightblue" points="247.23,-34.83 255.84,-28.66 245.26,-28.12 247.23,-34.83"/>
</g>
<!-- Node7 -->
<g id="node7" class="node">
<title>Node7</title>
<g id="a_node7"><a xlink:href="interfaceQuantConnect_1_1Logging_1_1ILogHandler.html#a3fb71a33ac66129240b63f12b6fcda3b" target="_top" xlink:title="Write debug message to log">
<polygon fill="white" stroke="black" points="476,-0.5 476,-30.5 626,-30.5 626,-0.5 476,-0.5"/>
<text text-anchor="start" x="484" y="-18.5" font-family="Helvetica,sans-Serif" font-size="10.00">QuantConnect.Logging.ILog</text>
<text text-anchor="middle" x="551" y="-7.5" font-family="Helvetica,sans-Serif" font-size="10.00">Handler.Trace</text>
</a>
</g>
</g>
<!-- Node6&#45;&gt;Node7 -->
<g id="edge6" class="edge">
<title>Node6&#45;&gt;Node7</title>
<path fill="none" stroke="midnightblue" d="M406.11,-15.5C425.24,-15.5 445.97,-15.5 465.59,-15.5"/>
<polygon fill="midnightblue" stroke="midnightblue" points="465.73,-19 475.73,-15.5 465.73,-12 465.73,-19"/>
</g>
</g>
</svg>
