<?xml version="1.0" encoding="UTF-8" standalone="no"?>
<!DOCTYPE svg PUBLIC "-//W3C//DTD SVG 1.1//EN"
 "http://www.w3.org/Graphics/SVG/1.1/DTD/svg11.dtd">
<!-- Generated by graphviz version 2.43.0 (0)
 -->
<!-- Title: QuantConnect.SecurityIdentifier.TryGetCustomDataType Pages: 1 -->
<!--zoomable 260 -->
<svg id="main" version="1.1" xmlns="http://www.w3.org/2000/svg" xmlns:xlink="http://www.w3.org/1999/xlink" xml:space="preserve" onload="init(evt)">
<style type="text/css"><![CDATA[
.edge:hover path { stroke: red; }
.edge:hover polygon { stroke: red; fill: red; }
]]></style>
<script type="text/javascript"><![CDATA[
var edges = document.getElementsByTagName('g');
if (edges && edges.length) {
  for (var i=0;i<edges.length;i++) {
    if (edges[i].id.substr(0,4)=='edge') {
      edges[i].setAttribute('class','edge');
    }
  }
}
]]></script>
        <defs>
                <circle id="rim" cx="0" cy="0" r="7"/>
                <circle id="rim2" cx="0" cy="0" r="3.5"/>
                <g id="zoomPlus">
                        <use xlink:href="#rim" fill="#404040">
                                <set attributeName="fill" to="#808080" begin="zoomplus.mouseover" end="zoomplus.mouseout"/>
                        </use>
                        <path d="M-4,0h8M0,-4v8" fill="none" stroke="white" stroke-width="1.5" pointer-events="none"/>
                </g>
                <g id="zoomMin">
                        <use xlink:href="#rim" fill="#404040">
                                <set attributeName="fill" to="#808080" begin="zoomminus.mouseover" end="zoomminus.mouseout"/>
                        </use>
                        <path d="M-4,0h8" fill="none" stroke="white" stroke-width="1.5" pointer-events="none"/>
                </g>
                <g id="dirArrow">
                        <path fill="none" stroke="white" stroke-width="1.5" d="M0,-3.0v7 M-2.5,-0.5L0,-3.0L2.5,-0.5"/>
                </g>
               <g id="resetDef">
                       <use xlink:href="#rim2" fill="#404040">
                               <set attributeName="fill" to="#808080" begin="reset.mouseover" end="reset.mouseout"/>
                       </use>
               </g>
        </defs>

<script type="text/javascript">
var viewWidth = 1112;
var viewHeight = 260;
var sectionId = 'dynsection-10';
</script>
<script xlink:href="svgpan.js"/>
<svg id="graph" class="graph">
<g id="viewport">
<title>QuantConnect.SecurityIdentifier.TryGetCustomDataType</title>
<polygon fill="white" stroke="transparent" points="-4,4 -4,-256 1108,-256 1108,4 -4,4"/>
<!-- Node1 -->
<g id="node1" class="node">
<title>Node1</title>
<g id="a_node1"><a xlink:title="Tries to fetch the custom data type associated with a symbol">
<polygon fill="#bfbfbf" stroke="black" points="930,-123.5 930,-153.5 1104,-153.5 1104,-123.5 930,-123.5"/>
<text text-anchor="start" x="938" y="-141.5" font-family="Helvetica,sans-Serif" font-size="10.00">QuantConnect.SecurityIdentifier.</text>
<text text-anchor="middle" x="1017" y="-130.5" font-family="Helvetica,sans-Serif" font-size="10.00">TryGetCustomDataType</text>
</a>
</g>
</g>
<!-- Node2 -->
<g id="node2" class="node">
<title>Node2</title>
<g id="a_node2"><a xlink:href="classQuantConnect_1_1Extensions.html#a6e7b57a65d282b02a39d8232be71f4e0" target="_top" xlink:title="Helper method to get a market hours entry">
<polygon fill="white" stroke="black" points="725.5,-221.5 725.5,-251.5 870.5,-251.5 870.5,-221.5 725.5,-221.5"/>
<text text-anchor="start" x="733.5" y="-239.5" font-family="Helvetica,sans-Serif" font-size="10.00">QuantConnect.Extensions.</text>
<text text-anchor="middle" x="798" y="-228.5" font-family="Helvetica,sans-Serif" font-size="10.00">GetEntry</text>
</a>
</g>
</g>
<!-- Node1&#45;&gt;Node2 -->
<g id="edge1" class="edge">
<title>Node1&#45;&gt;Node2</title>
<path fill="none" stroke="midnightblue" d="M987.16,-159.39C963.24,-175.87 927.79,-198.36 894,-212.5 885.92,-215.88 877.24,-218.87 868.54,-221.5"/>
<polygon fill="midnightblue" stroke="midnightblue" points="989.24,-162.22 995.43,-153.62 985.23,-156.48 989.24,-162.22"/>
</g>
<!-- Node3 -->
<g id="node3" class="node">
<title>Node3</title>
<g id="a_node3"><a xlink:href="classQuantConnect_1_1Extensions.html#a7ec934e1acf59275a1d30b42148be67d" target="_top" xlink:title="Helper method to determine if a given symbol is of custom data">
<polygon fill="white" stroke="black" points="725.5,-172.5 725.5,-202.5 870.5,-202.5 870.5,-172.5 725.5,-172.5"/>
<text text-anchor="start" x="733.5" y="-190.5" font-family="Helvetica,sans-Serif" font-size="10.00">QuantConnect.Extensions.</text>
<text text-anchor="middle" x="798" y="-179.5" font-family="Helvetica,sans-Serif" font-size="10.00">IsCustomDataType&lt; T &gt;</text>
</a>
</g>
</g>
<!-- Node1&#45;&gt;Node3 -->
<g id="edge2" class="edge">
<title>Node1&#45;&gt;Node3</title>
<path fill="none" stroke="midnightblue" d="M939.57,-155.76C915.39,-161.22 888.88,-167.21 865.46,-172.49"/>
<polygon fill="midnightblue" stroke="midnightblue" points="940.43,-159.15 949.42,-153.53 938.89,-152.32 940.43,-159.15"/>
</g>
<!-- Node4 -->
<g id="node4" class="node">
<title>Node4</title>
<g id="a_node4"><a xlink:href="classQuantConnect_1_1Data_1_1Auxiliary_1_1MappingExtensions.html#a46c0ef4d7d615640809706ef983cedae" target="_top" xlink:title="Helper method to resolve the mapping file to use.">
<polygon fill="white" stroke="black" points="702,-123.5 702,-153.5 894,-153.5 894,-123.5 702,-123.5"/>
<text text-anchor="start" x="710" y="-141.5" font-family="Helvetica,sans-Serif" font-size="10.00">QuantConnect.Data.Auxiliary.</text>
<text text-anchor="middle" x="798" y="-130.5" font-family="Helvetica,sans-Serif" font-size="10.00">MappingExtensions.ResolveMapFile</text>
</a>
</g>
</g>
<!-- Node1&#45;&gt;Node4 -->
<g id="edge3" class="edge">
<title>Node1&#45;&gt;Node4</title>
<path fill="none" stroke="midnightblue" d="M919.69,-138.5C911.24,-138.5 902.7,-138.5 894.27,-138.5"/>
<polygon fill="midnightblue" stroke="midnightblue" points="919.92,-142 929.92,-138.5 919.92,-135 919.92,-142"/>
</g>
<!-- Node5 -->
<g id="node5" class="node">
<title>Node5</title>
<g id="a_node5"><a xlink:href="classQuantConnect_1_1SecurityIdentifier.html#a2a52cbd8bce9ff527bc8021a3e3a0037" target="_top" xlink:title="Tries to fetch the custom data type associated with a symbol">
<polygon fill="white" stroke="black" points="711,-74.5 711,-104.5 885,-104.5 885,-74.5 711,-74.5"/>
<text text-anchor="start" x="719" y="-92.5" font-family="Helvetica,sans-Serif" font-size="10.00">QuantConnect.SecurityIdentifier.</text>
<text text-anchor="middle" x="798" y="-81.5" font-family="Helvetica,sans-Serif" font-size="10.00">TryGetCustomDataTypeInstance</text>
</a>
</g>
</g>
<!-- Node1&#45;&gt;Node5 -->
<g id="edge4" class="edge">
<title>Node1&#45;&gt;Node5</title>
<path fill="none" stroke="midnightblue" d="M939.57,-121.24C915.39,-115.78 888.88,-109.79 865.46,-104.51"/>
<polygon fill="midnightblue" stroke="midnightblue" points="938.89,-124.68 949.42,-123.47 940.43,-117.85 938.89,-124.68"/>
</g>
<!-- Node16 -->
<g id="node16" class="node">
<title>Node16</title>
<g id="a_node16"><a xlink:href="classQuantConnect_1_1Securities_1_1MarketHoursDatabase.html#a67b49ffdf1317fda8cbc895849478203" target="_top" xlink:title="Tries to get the entry for the specified market/symbol/security&#45;type">
<polygon fill="white" stroke="black" points="705.5,-25.5 705.5,-55.5 890.5,-55.5 890.5,-25.5 705.5,-25.5"/>
<text text-anchor="start" x="713.5" y="-43.5" font-family="Helvetica,sans-Serif" font-size="10.00">QuantConnect.Securities.</text>
<text text-anchor="middle" x="798" y="-32.5" font-family="Helvetica,sans-Serif" font-size="10.00">MarketHoursDatabase.TryGetEntry</text>
</a>
</g>
</g>
<!-- Node1&#45;&gt;Node16 -->
<g id="edge15" class="edge">
<title>Node1&#45;&gt;Node16</title>
<path fill="none" stroke="midnightblue" d="M986.65,-117.7C962.68,-101.54 927.43,-79.57 894,-65.5 885.12,-61.76 875.53,-58.46 865.98,-55.58"/>
<polygon fill="midnightblue" stroke="midnightblue" points="984.71,-120.62 994.94,-123.37 988.66,-114.84 984.71,-120.62"/>
</g>
<!-- Node6 -->
<g id="node6" class="node">
<title>Node6</title>
<g id="a_node6"><a xlink:href="classQuantConnect_1_1Lean_1_1Engine_1_1DataFeeds_1_1DataManager.html#ae3335b4baef65a2485d4c16a65067a2e" target="_top" xlink:title="Creates and adds a list of SubscriptionDataConfig for a given symbol and configuration....">
<polygon fill="white" stroke="black" points="495,-98.5 495,-128.5 653,-128.5 653,-98.5 495,-98.5"/>
<text text-anchor="start" x="503" y="-116.5" font-family="Helvetica,sans-Serif" font-size="10.00">QuantConnect.Lean.Engine.</text>
<text text-anchor="middle" x="574" y="-105.5" font-family="Helvetica,sans-Serif" font-size="10.00">DataFeeds.DataManager.Add</text>
</a>
</g>
</g>
<!-- Node5&#45;&gt;Node6 -->
<g id="edge5" class="edge">
<title>Node5&#45;&gt;Node6</title>
<path fill="none" stroke="midnightblue" d="M700.52,-99.93C684.68,-101.64 668.44,-103.4 653.12,-105.05"/>
<polygon fill="midnightblue" stroke="midnightblue" points="701.29,-103.37 710.85,-98.81 700.53,-96.41 701.29,-103.37"/>
</g>
<!-- Node7 -->
<g id="node7" class="node">
<title>Node7</title>
<g id="a_node7"><a xlink:href="classQuantConnect_1_1Extensions.html#a4784f746909e2ee4cffea7538da5669a" target="_top" xlink:title="Retrieve a common custom data types from the given symbols if any">
<polygon fill="white" stroke="black" points="482,-49.5 482,-79.5 666,-79.5 666,-49.5 482,-49.5"/>
<text text-anchor="start" x="490" y="-67.5" font-family="Helvetica,sans-Serif" font-size="10.00">QuantConnect.Extensions.</text>
<text text-anchor="middle" x="574" y="-56.5" font-family="Helvetica,sans-Serif" font-size="10.00">GetCustomDataTypeFromSymbols</text>
</a>
</g>
</g>
<!-- Node5&#45;&gt;Node7 -->
<g id="edge6" class="edge">
<title>Node5&#45;&gt;Node7</title>
<path fill="none" stroke="midnightblue" d="M700.83,-78.67C689.35,-77.38 677.65,-76.06 666.24,-74.77"/>
<polygon fill="midnightblue" stroke="midnightblue" points="700.52,-82.16 710.85,-79.8 701.31,-75.2 700.52,-82.16"/>
</g>
<!-- Node8 -->
<g id="node8" class="node">
<title>Node8</title>
<g id="a_node8"><a xlink:href="classQuantConnect_1_1Algorithm_1_1QCAlgorithm.html#a3dbba29e9f318ae97e8b99a1eb19537c" target="_top" xlink:title="Helper method to create history requests from a date range">
<polygon fill="white" stroke="black" points="241,-98.5 241,-128.5 446,-128.5 446,-98.5 241,-98.5"/>
<text text-anchor="start" x="249" y="-116.5" font-family="Helvetica,sans-Serif" font-size="10.00">QuantConnect.Algorithm.QCAlgorithm.</text>
<text text-anchor="middle" x="343.5" y="-105.5" font-family="Helvetica,sans-Serif" font-size="10.00">CreateDateRangeHistoryRequests</text>
</a>
</g>
</g>
<!-- Node7&#45;&gt;Node8 -->
<g id="edge7" class="edge">
<title>Node7&#45;&gt;Node8</title>
<path fill="none" stroke="midnightblue" d="M492.86,-81.69C467.31,-87.16 439.25,-93.18 414.48,-98.49"/>
<polygon fill="midnightblue" stroke="midnightblue" points="493.85,-85.05 502.89,-79.53 492.38,-78.21 493.85,-85.05"/>
</g>
<!-- Node13 -->
<g id="node13" class="node">
<title>Node13</title>
<g id="a_node13"><a xlink:href="classQuantConnect_1_1Algorithm_1_1QCAlgorithm.html#a80b86c4d204ee2a9b90628ddc9a765b9" target="_top" xlink:title="Gets the historical data for the specified symbol. The exact number of bars will be returned....">
<polygon fill="white" stroke="black" points="241,-49.5 241,-79.5 446,-79.5 446,-49.5 241,-49.5"/>
<text text-anchor="start" x="249" y="-67.5" font-family="Helvetica,sans-Serif" font-size="10.00">QuantConnect.Algorithm.QCAlgorithm.</text>
<text text-anchor="middle" x="343.5" y="-56.5" font-family="Helvetica,sans-Serif" font-size="10.00">History</text>
</a>
</g>
</g>
<!-- Node7&#45;&gt;Node13 -->
<g id="edge12" class="edge">
<title>Node7&#45;&gt;Node13</title>
<path fill="none" stroke="midnightblue" d="M471.5,-64.5C463.09,-64.5 454.58,-64.5 446.16,-64.5"/>
<polygon fill="midnightblue" stroke="midnightblue" points="471.71,-68 481.71,-64.5 471.71,-61 471.71,-68"/>
</g>
<!-- Node14 -->
<g id="node14" class="node">
<title>Node14</title>
<g id="a_node14"><a xlink:href="classQuantConnect_1_1Extensions.html#ae2a936226490b76f98ef2525a90f677d" target="_top" xlink:title="Determines if certain data type is custom">
<polygon fill="white" stroke="black" points="271,-0.5 271,-30.5 416,-30.5 416,-0.5 271,-0.5"/>
<text text-anchor="start" x="279" y="-18.5" font-family="Helvetica,sans-Serif" font-size="10.00">QuantConnect.Extensions.</text>
<text text-anchor="middle" x="343.5" y="-7.5" font-family="Helvetica,sans-Serif" font-size="10.00">IsCustomDataType</text>
</a>
</g>
</g>
<!-- Node7&#45;&gt;Node14 -->
<g id="edge13" class="edge">
<title>Node7&#45;&gt;Node14</title>
<path fill="none" stroke="midnightblue" d="M492.86,-47.31C467.31,-41.84 439.25,-35.82 414.48,-30.51"/>
<polygon fill="midnightblue" stroke="midnightblue" points="492.38,-50.79 502.89,-49.47 493.85,-43.95 492.38,-50.79"/>
</g>
<!-- Node9 -->
<g id="node9" class="node">
<title>Node9</title>
<g id="a_node9"><a xlink:href="classQuantConnect_1_1Algorithm_1_1QCAlgorithm.html#a4a081c1d52f73c2cf8d54ef5edb95cd1" target="_top" xlink:title="Gets the historical data for the specified symbols between the specified dates. The symbols must exis...">
<polygon fill="white" stroke="black" points="0,-196.5 0,-226.5 205,-226.5 205,-196.5 0,-196.5"/>
<text text-anchor="start" x="8" y="-214.5" font-family="Helvetica,sans-Serif" font-size="10.00">QuantConnect.Algorithm.QCAlgorithm.</text>
<text text-anchor="middle" x="102.5" y="-203.5" font-family="Helvetica,sans-Serif" font-size="10.00">History</text>
</a>
</g>
</g>
<!-- Node8&#45;&gt;Node9 -->
<g id="edge8" class="edge">
<title>Node8&#45;&gt;Node9</title>
<path fill="none" stroke="midnightblue" d="M310.38,-133.91C283.22,-150.4 242.8,-173.15 205,-187.5 196.2,-190.84 186.78,-193.82 177.37,-196.44"/>
<polygon fill="midnightblue" stroke="midnightblue" points="312.37,-136.8 319.06,-128.58 308.71,-130.83 312.37,-136.8"/>
</g>
<!-- Node10 -->
<g id="node10" class="node">
<title>Node10</title>
<g id="a_node10"><a xlink:href="classQuantConnect_1_1Algorithm_1_1QCAlgorithm.html#a28f42d241211c550e5be029478223f2c" target="_top" xlink:title="Gets the historical data for the specified symbols between the specified dates. The symbols must exis...">
<polygon fill="white" stroke="black" points="0,-147.5 0,-177.5 205,-177.5 205,-147.5 0,-147.5"/>
<text text-anchor="start" x="8" y="-165.5" font-family="Helvetica,sans-Serif" font-size="10.00">QuantConnect.Algorithm.QCAlgorithm.</text>
<text text-anchor="middle" x="102.5" y="-154.5" font-family="Helvetica,sans-Serif" font-size="10.00">History&lt; T &gt;</text>
</a>
</g>
</g>
<!-- Node8&#45;&gt;Node10 -->
<g id="edge9" class="edge">
<title>Node8&#45;&gt;Node10</title>
<path fill="none" stroke="midnightblue" d="M259.03,-130.61C232.21,-136.11 202.72,-142.16 176.69,-147.49"/>
<polygon fill="midnightblue" stroke="midnightblue" points="260.07,-133.97 269.17,-128.53 258.67,-127.11 260.07,-133.97"/>
</g>
<!-- Node11 -->
<g id="node11" class="node">
<title>Node11</title>
<g id="a_node11"><a xlink:href="classQuantConnect_1_1Research_1_1QuantBook.html#aec46e9c9aa3c06089616c69f4eb777b7" target="_top" xlink:title="Will return the universe selection data and will optionally perform selection">
<polygon fill="white" stroke="black" points="19.5,-98.5 19.5,-128.5 185.5,-128.5 185.5,-98.5 19.5,-98.5"/>
<text text-anchor="start" x="27.5" y="-116.5" font-family="Helvetica,sans-Serif" font-size="10.00">QuantConnect.Research.Quant</text>
<text text-anchor="middle" x="102.5" y="-105.5" font-family="Helvetica,sans-Serif" font-size="10.00">Book.UniverseHistory</text>
</a>
</g>
</g>
<!-- Node8&#45;&gt;Node11 -->
<g id="edge10" class="edge">
<title>Node8&#45;&gt;Node11</title>
<path fill="none" stroke="midnightblue" d="M230.38,-113.5C215.29,-113.5 200.04,-113.5 185.6,-113.5"/>
<polygon fill="midnightblue" stroke="midnightblue" points="230.8,-117 240.8,-113.5 230.8,-110 230.8,-117"/>
</g>
<!-- Node12 -->
<g id="node12" class="node">
<title>Node12</title>
<g id="a_node12"><a xlink:href="classQuantConnect_1_1Research_1_1QuantBook.html#a4a403e952b48e9fbcedaa5af4f6a27e9" target="_top" xlink:title="Will return the universe selection data and will optionally perform selection">
<polygon fill="white" stroke="black" points="14.5,-49.5 14.5,-79.5 190.5,-79.5 190.5,-49.5 14.5,-49.5"/>
<text text-anchor="start" x="22.5" y="-67.5" font-family="Helvetica,sans-Serif" font-size="10.00">QuantConnect.Research.Quant</text>
<text text-anchor="middle" x="102.5" y="-56.5" font-family="Helvetica,sans-Serif" font-size="10.00">Book.UniverseHistory&lt; T1, T2 &gt;</text>
</a>
</g>
</g>
<!-- Node8&#45;&gt;Node12 -->
<g id="edge11" class="edge">
<title>Node8&#45;&gt;Node12</title>
<path fill="none" stroke="midnightblue" d="M259.03,-96.39C232.21,-90.89 202.72,-84.84 176.69,-79.51"/>
<polygon fill="midnightblue" stroke="midnightblue" points="258.67,-99.89 269.17,-98.47 260.07,-93.03 258.67,-99.89"/>
</g>
<!-- Node15 -->
<g id="node15" class="node">
<title>Node15</title>
<g id="a_node15"><a xlink:href="classQuantConnect_1_1Python_1_1PandasData.html#a14224c3701553aa1e567379007479df7" target="_top" xlink:title="Initializes an instance of PandasData">
<polygon fill="white" stroke="black" points="22.5,-0.5 22.5,-30.5 182.5,-30.5 182.5,-0.5 22.5,-0.5"/>
<text text-anchor="start" x="30.5" y="-18.5" font-family="Helvetica,sans-Serif" font-size="10.00">QuantConnect.Python.Pandas</text>
<text text-anchor="middle" x="102.5" y="-7.5" font-family="Helvetica,sans-Serif" font-size="10.00">Data.PandasData</text>
</a>
</g>
</g>
<!-- Node14&#45;&gt;Node15 -->
<g id="edge14" class="edge">
<title>Node14&#45;&gt;Node15</title>
<path fill="none" stroke="midnightblue" d="M260.53,-15.5C235.34,-15.5 207.67,-15.5 182.67,-15.5"/>
<polygon fill="midnightblue" stroke="midnightblue" points="260.79,-19 270.79,-15.5 260.79,-12 260.79,-19"/>
</g>
</g>
</svg>
        <g id="navigator" transform="translate(0 0)" fill="#404254">
                <rect fill="#f2f5e9" fill-opacity="0.5" stroke="#606060" stroke-width=".5" x="0" y="0" width="60" height="60"/>
                <use id="zoomplus" xlink:href="#zoomPlus" x="17" y="9" onmousedown="handleZoom(evt,'in')"/>
                <use id="zoomminus" xlink:href="#zoomMin" x="42" y="9" onmousedown="handleZoom(evt,'out')"/>
                <use id="reset" xlink:href="#resetDef" x="30" y="36" onmousedown="handleReset()"/>
                <g id="arrowUp" xlink:href="#dirArrow" transform="translate(30 24)" onmousedown="handlePan(0,-1)">
                  <use xlink:href="#rim" fill="#404040">
                        <set attributeName="fill" to="#808080" begin="arrowUp.mouseover" end="arrowUp.mouseout"/>
                  </use>
                  <path fill="none" stroke="white" stroke-width="1.5" d="M0,-3.0v7 M-2.5,-0.5L0,-3.0L2.5,-0.5"/>
                </g>
                <g id="arrowRight" xlink:href="#dirArrow" transform="rotate(90) translate(36 -43)" onmousedown="handlePan(1,0)">
                  <use xlink:href="#rim" fill="#404040">
                        <set attributeName="fill" to="#808080" begin="arrowRight.mouseover" end="arrowRight.mouseout"/>
                  </use>
                  <path fill="none" stroke="white" stroke-width="1.5" d="M0,-3.0v7 M-2.5,-0.5L0,-3.0L2.5,-0.5"/>
                </g>
                <g id="arrowDown" xlink:href="#dirArrow" transform="rotate(180) translate(-30 -48)" onmousedown="handlePan(0,1)">
                  <use xlink:href="#rim" fill="#404040">
                        <set attributeName="fill" to="#808080" begin="arrowDown.mouseover" end="arrowDown.mouseout"/>
                  </use>
                  <path fill="none" stroke="white" stroke-width="1.5" d="M0,-3.0v7 M-2.5,-0.5L0,-3.0L2.5,-0.5"/>
                </g>
                <g id="arrowLeft" xlink:href="#dirArrow" transform="rotate(270) translate(-36 17)" onmousedown="handlePan(-1,0)">
                  <use xlink:href="#rim" fill="#404040">
                        <set attributeName="fill" to="#808080" begin="arrowLeft.mouseover" end="arrowLeft.mouseout"/>
                  </use>
                  <path fill="none" stroke="white" stroke-width="1.5" d="M0,-3.0v7 M-2.5,-0.5L0,-3.0L2.5,-0.5"/>
                </g>
        </g>
        <svg viewBox="0 0 15 15" width="100%" height="30px" preserveAspectRatio="xMaxYMin meet">
         <g id="arrow_out" transform="scale(0.3 0.3)">
          <a xlink:href="classQuantConnect_1_1SecurityIdentifier_a65051a4af9e25cab40451dc9ef12db6a_icgraph_org.svg" target="_base">
           <rect id="button" ry="5" rx="5" y="6" x="6" height="38" width="38"
                fill="#f2f5e9" fill-opacity="0.5" stroke="#606060" stroke-width="1.0"/>
           <path id="arrow"
             d="M 11.500037,31.436501 C 11.940474,20.09759 22.043105,11.32322 32.158766,21.979434 L 37.068811,17.246167 C 37.068811,17.246167 37.088388,32 37.088388,32 L 22.160133,31.978069 C 22.160133,31.978069 26.997745,27.140456 26.997745,27.140456 C 18.528582,18.264221 13.291696,25.230495 11.500037,31.436501 z"
             style="fill:#404040;"/>
          </a>
         </g>
        </svg>
</svg>
