<?xml version="1.0" encoding="UTF-8" standalone="no"?>
<!DOCTYPE svg PUBLIC "-//W3C//DTD SVG 1.1//EN"
 "http://www.w3.org/Graphics/SVG/1.1/DTD/svg11.dtd">
<!-- Generated by graphviz version 2.43.0 (0)
 -->
<!-- Title: QuantConnect.Orders.OptionExercise.OptionExerciseModelPythonWrapper Pages: 1 -->
<svg width="286pt" height="117pt"
 viewBox="0.00 0.00 285.50 117.00" xmlns="http://www.w3.org/2000/svg" xmlns:xlink="http://www.w3.org/1999/xlink">
<g id="graph0" class="graph" transform="scale(1 1) rotate(0) translate(4 113)">
<title>QuantConnect.Orders.OptionExercise.OptionExerciseModelPythonWrapper</title>
<polygon fill="white" stroke="transparent" points="-4,4 -4,-113 281.5,-113 281.5,4 -4,4"/>
<!-- Node1 -->
<g id="node1" class="node">
<title>Node1</title>
<g id="a_node1"><a xlink:title="Python wrapper for custom option exercise models">
<polygon fill="#bfbfbf" stroke="black" points="44,-0.5 44,-41.5 241,-41.5 241,-0.5 44,-0.5"/>
<text text-anchor="start" x="52" y="-29.5" font-family="Helvetica,sans-Serif" font-size="10.00">QuantConnect.Orders.Option</text>
<text text-anchor="start" x="52" y="-18.5" font-family="Helvetica,sans-Serif" font-size="10.00">Exercise.OptionExerciseModelPython</text>
<text text-anchor="middle" x="142.5" y="-7.5" font-family="Helvetica,sans-Serif" font-size="10.00">Wrapper</text>
</a>
</g>
</g>
<!-- Node2 -->
<g id="node2" class="node">
<title>Node2</title>
<g id="a_node2"><a xlink:href="classQuantConnect_1_1Python_1_1BasePythonWrapper.html" target="_top" xlink:title=" ">
<polygon fill="white" stroke="black" points="0,-78.5 0,-108.5 137,-108.5 137,-78.5 0,-78.5"/>
<text text-anchor="start" x="8" y="-96.5" font-family="Helvetica,sans-Serif" font-size="10.00">BasePythonWrapper&lt;</text>
<text text-anchor="middle" x="68.5" y="-85.5" font-family="Helvetica,sans-Serif" font-size="10.00"> IOptionExerciseModel &gt;</text>
</a>
</g>
</g>
<!-- Node2&#45;&gt;Node1 -->
<g id="edge1" class="edge">
<title>Node2&#45;&gt;Node1</title>
<path fill="none" stroke="midnightblue" d="M90.96,-71.1C100.82,-61.71 112.31,-50.76 121.94,-41.59"/>
<polygon fill="midnightblue" stroke="midnightblue" points="88.3,-68.8 83.48,-78.23 93.13,-73.87 88.3,-68.8"/>
</g>
<!-- Node3 -->
<g id="node3" class="node">
<title>Node3</title>
<g id="a_node3"><a xlink:href="interfaceQuantConnect_1_1Orders_1_1OptionExercise_1_1IOptionExerciseModel.html" target="_top" xlink:title="Represents a model that simulates option exercise and lapse events">
<polygon fill="white" stroke="black" points="155.5,-84 155.5,-103 277.5,-103 277.5,-84 155.5,-84"/>
<text text-anchor="middle" x="216.5" y="-91" font-family="Helvetica,sans-Serif" font-size="10.00">IOptionExerciseModel</text>
</a>
</g>
</g>
<!-- Node3&#45;&gt;Node1 -->
<g id="edge2" class="edge">
<title>Node3&#45;&gt;Node1</title>
<path fill="none" stroke="midnightblue" d="M199.88,-76.67C189.01,-66.31 174.73,-52.71 163.14,-41.66"/>
<polygon fill="midnightblue" stroke="midnightblue" points="197.77,-79.49 207.43,-83.86 202.6,-74.42 197.77,-79.49"/>
</g>
</g>
</svg>
