<?xml version="1.0" encoding="UTF-8" standalone="no"?>
<!DOCTYPE svg PUBLIC "-//W3C//DTD SVG 1.1//EN"
 "http://www.w3.org/Graphics/SVG/1.1/DTD/svg11.dtd">
<!-- Generated by graphviz version 2.43.0 (0)
 -->
<!-- Title: QuantConnect.DownloaderDataProvider.Launcher.Models.BrokerageDataDownloader.Get Pages: 1 -->
<svg width="396pt" height="88pt"
 viewBox="0.00 0.00 396.00 88.00" xmlns="http://www.w3.org/2000/svg" xmlns:xlink="http://www.w3.org/1999/xlink">
<g id="graph0" class="graph" transform="scale(1 1) rotate(0) translate(4 84)">
<title>QuantConnect.DownloaderDataProvider.Launcher.Models.BrokerageDataDownloader.Get</title>
<polygon fill="white" stroke="transparent" points="-4,4 -4,-84 392,-84 392,4 -4,4"/>
<!-- Node1 -->
<g id="node1" class="node">
<title>Node1</title>
<g id="a_node1"><a xlink:title="Get historical data enumerable for a single symbol, type and resolution given this start and end time...">
<polygon fill="#bfbfbf" stroke="black" points="0,-19 0,-60 194,-60 194,-19 0,-19"/>
<text text-anchor="start" x="8" y="-48" font-family="Helvetica,sans-Serif" font-size="10.00">QuantConnect.DownloaderData</text>
<text text-anchor="start" x="8" y="-37" font-family="Helvetica,sans-Serif" font-size="10.00">Provider.Launcher.Models.Brokerage</text>
<text text-anchor="middle" x="97" y="-26" font-family="Helvetica,sans-Serif" font-size="10.00">DataDownloader.Get</text>
</a>
</g>
</g>
<!-- Node2 -->
<g id="node2" class="node">
<title>Node2</title>
<g id="a_node2"><a xlink:href="classQuantConnect_1_1Util_1_1LeanData.html#a77cc921eacb5e88e8575272f1a87280d" target="_top" xlink:title="Gets the data type required for the specified combination of resolution and tick type">
<polygon fill="white" stroke="black" points="230,-49.5 230,-79.5 388,-79.5 388,-49.5 230,-49.5"/>
<text text-anchor="start" x="238" y="-67.5" font-family="Helvetica,sans-Serif" font-size="10.00">QuantConnect.Util.LeanData.</text>
<text text-anchor="middle" x="309" y="-56.5" font-family="Helvetica,sans-Serif" font-size="10.00">GetDataType</text>
</a>
</g>
</g>
<!-- Node1&#45;&gt;Node2 -->
<g id="edge1" class="edge">
<title>Node1&#45;&gt;Node2</title>
<path fill="none" stroke="midnightblue" d="M194.09,-50.94C202.7,-51.96 211.4,-53 219.95,-54.02"/>
<polygon fill="midnightblue" stroke="midnightblue" points="219.55,-57.49 229.89,-55.2 220.37,-50.54 219.55,-57.49"/>
</g>
<!-- Node3 -->
<g id="node3" class="node">
<title>Node3</title>
<g id="a_node3"><a xlink:href="interfaceQuantConnect_1_1Interfaces_1_1IBrokerage.html#a8eea81b28dedf461e3a63a0117305a71" target="_top" xlink:title="Gets the history for the requested security">
<polygon fill="white" stroke="black" points="239,-0.5 239,-30.5 379,-30.5 379,-0.5 239,-0.5"/>
<text text-anchor="start" x="247" y="-18.5" font-family="Helvetica,sans-Serif" font-size="10.00">QuantConnect.Interfaces.</text>
<text text-anchor="middle" x="309" y="-7.5" font-family="Helvetica,sans-Serif" font-size="10.00">IBrokerage.GetHistory</text>
</a>
</g>
</g>
<!-- Node1&#45;&gt;Node3 -->
<g id="edge2" class="edge">
<title>Node1&#45;&gt;Node3</title>
<path fill="none" stroke="midnightblue" d="M194.09,-28.52C205.66,-27.2 217.39,-25.86 228.69,-24.56"/>
<polygon fill="midnightblue" stroke="midnightblue" points="229.39,-28.01 238.93,-23.39 228.59,-21.05 229.39,-28.01"/>
</g>
</g>
</svg>
