<?xml version="1.0" encoding="UTF-8" standalone="no"?>
<!DOCTYPE svg PUBLIC "-//W3C//DTD SVG 1.1//EN"
 "http://www.w3.org/Graphics/SVG/1.1/DTD/svg11.dtd">
<!-- Generated by graphviz version 2.43.0 (0)
 -->
<!-- Title: QuantConnect.SymbolCache.GetTicker Pages: 1 -->
<svg width="610pt" height="286pt"
 viewBox="0.00 0.00 610.00 286.00" xmlns="http://www.w3.org/2000/svg" xmlns:xlink="http://www.w3.org/1999/xlink">
<g id="graph0" class="graph" transform="scale(1 1) rotate(0) translate(4 282)">
<title>QuantConnect.SymbolCache.GetTicker</title>
<polygon fill="white" stroke="transparent" points="-4,4 -4,-282 606,-282 606,4 -4,4"/>
<!-- Node1 -->
<g id="node1" class="node">
<title>Node1</title>
<g id="a_node1"><a xlink:title="Gets the string ticker symbol that is mapped to the specified Symbol">
<polygon fill="#bfbfbf" stroke="black" points="444,-112.5 444,-142.5 602,-142.5 602,-112.5 444,-112.5"/>
<text text-anchor="start" x="452" y="-130.5" font-family="Helvetica,sans-Serif" font-size="10.00">QuantConnect.SymbolCache.</text>
<text text-anchor="middle" x="523" y="-119.5" font-family="Helvetica,sans-Serif" font-size="10.00">GetTicker</text>
</a>
</g>
</g>
<!-- Node2 -->
<g id="node2" class="node">
<title>Node2</title>
<g id="a_node2"><a xlink:href="classQuantConnect_1_1Symbol.html#a3c54bbbf67e90444df99f3d80ed1c3a2" target="_top" xlink:title="Returns a string that represents the current object.">
<polygon fill="white" stroke="black" points="241,-118 241,-137 408,-137 408,-118 241,-118"/>
<text text-anchor="middle" x="324.5" y="-125" font-family="Helvetica,sans-Serif" font-size="10.00">QuantConnect.Symbol.ToString</text>
</a>
</g>
</g>
<!-- Node1&#45;&gt;Node2 -->
<g id="edge1" class="edge">
<title>Node1&#45;&gt;Node2</title>
<path fill="none" stroke="midnightblue" d="M433.58,-127.5C425.16,-127.5 416.65,-127.5 408.29,-127.5"/>
<polygon fill="midnightblue" stroke="midnightblue" points="433.77,-131 443.77,-127.5 433.77,-124 433.77,-131"/>
</g>
<!-- Node3 -->
<g id="node3" class="node">
<title>Node3</title>
<g id="a_node3"><a xlink:href="classQuantConnect_1_1Algorithm_1_1QCAlgorithm.html#a9c7ada35b14342f6e65d869d482af918" target="_top" xlink:title="Creates a new name for an indicator created with the convenience functions (SMA, EMA,...">
<polygon fill="white" stroke="black" points="0,-247.5 0,-277.5 205,-277.5 205,-247.5 0,-247.5"/>
<text text-anchor="start" x="8" y="-265.5" font-family="Helvetica,sans-Serif" font-size="10.00">QuantConnect.Algorithm.QCAlgorithm.</text>
<text text-anchor="middle" x="102.5" y="-254.5" font-family="Helvetica,sans-Serif" font-size="10.00">CreateIndicatorName</text>
</a>
</g>
</g>
<!-- Node2&#45;&gt;Node3 -->
<g id="edge2" class="edge">
<title>Node2&#45;&gt;Node3</title>
<path fill="none" stroke="midnightblue" d="M309.76,-144.93C289.49,-169.41 249.2,-213.65 205,-237.5 197.81,-241.38 190.02,-244.67 182.05,-247.45"/>
<polygon fill="midnightblue" stroke="midnightblue" points="312.48,-147.13 316.06,-137.16 307.04,-142.72 312.48,-147.13"/>
</g>
<!-- Node4 -->
<g id="node4" class="node">
<title>Node4</title>
<g id="a_node4"><a xlink:href="classQuantConnect_1_1Lean_1_1Engine_1_1RealTime_1_1ScheduledEventFactory.html#a2a548ebf5457bc6d9ae25dd28f2a3dcd" target="_top" xlink:title="Creates a new ScheduledEvent that will fire before market close by the specified time">
<polygon fill="white" stroke="black" points="12,-187 12,-228 193,-228 193,-187 12,-187"/>
<text text-anchor="start" x="20" y="-216" font-family="Helvetica,sans-Serif" font-size="10.00">QuantConnect.Lean.Engine.</text>
<text text-anchor="start" x="20" y="-205" font-family="Helvetica,sans-Serif" font-size="10.00">RealTime.ScheduledEventFactory.</text>
<text text-anchor="middle" x="102.5" y="-194" font-family="Helvetica,sans-Serif" font-size="10.00">EverySecurityEndOfDay</text>
</a>
</g>
</g>
<!-- Node2&#45;&gt;Node4 -->
<g id="edge3" class="edge">
<title>Node2&#45;&gt;Node4</title>
<path fill="none" stroke="midnightblue" d="M293.62,-141.2C269.88,-151.83 235.68,-166.53 205,-177.5 195.92,-180.75 186.29,-183.92 176.72,-186.92"/>
<polygon fill="midnightblue" stroke="midnightblue" points="295.12,-144.37 302.8,-137.07 292.25,-137.98 295.12,-144.37"/>
</g>
<!-- Node5 -->
<g id="node5" class="node">
<title>Node5</title>
<g id="a_node5"><a xlink:href="classQuantConnect_1_1Algorithm_1_1QCAlgorithm.html#a162e101f2df8722dbb5788b504ec562a" target="_top" xlink:title="End of a trading day event handler. This method is called at the end of the algorithm day (or multipl...">
<polygon fill="white" stroke="black" points="0,-137.5 0,-167.5 205,-167.5 205,-137.5 0,-137.5"/>
<text text-anchor="start" x="8" y="-155.5" font-family="Helvetica,sans-Serif" font-size="10.00">QuantConnect.Algorithm.QCAlgorithm.</text>
<text text-anchor="middle" x="102.5" y="-144.5" font-family="Helvetica,sans-Serif" font-size="10.00">OnEndOfDay</text>
</a>
</g>
</g>
<!-- Node2&#45;&gt;Node5 -->
<g id="edge4" class="edge">
<title>Node2&#45;&gt;Node5</title>
<path fill="none" stroke="midnightblue" d="M230.99,-138.01C222.43,-138.99 213.72,-139.97 205.09,-140.96"/>
<polygon fill="midnightblue" stroke="midnightblue" points="231.41,-141.49 240.95,-136.88 230.62,-134.53 231.41,-141.49"/>
</g>
<!-- Node6 -->
<g id="node6" class="node">
<title>Node6</title>
<g id="a_node6"><a xlink:href="classQuantConnect_1_1Symbol.html#a3105c014ff7c97c040d9af90a509cce0" target="_top" xlink:title="Returns the symbol&#39;s string ticker">
<polygon fill="white" stroke="black" points="17.5,-88.5 17.5,-118.5 187.5,-118.5 187.5,-88.5 17.5,-88.5"/>
<text text-anchor="start" x="25.5" y="-106.5" font-family="Helvetica,sans-Serif" font-size="10.00">QuantConnect.Symbol.operator</text>
<text text-anchor="middle" x="102.5" y="-95.5" font-family="Helvetica,sans-Serif" font-size="10.00"> string</text>
</a>
</g>
</g>
<!-- Node2&#45;&gt;Node6 -->
<g id="edge5" class="edge">
<title>Node2&#45;&gt;Node6</title>
<path fill="none" stroke="midnightblue" d="M230.64,-117.37C216.36,-115.81 201.68,-114.21 187.61,-112.68"/>
<polygon fill="midnightblue" stroke="midnightblue" points="230.63,-120.89 240.95,-118.5 231.39,-113.93 230.63,-120.89"/>
</g>
<!-- Node7 -->
<g id="node7" class="node">
<title>Node7</title>
<g id="a_node7"><a xlink:href="classQuantConnect_1_1Symbol.html#a57cd4801d0cbe4b260b9a47fdae295a1" target="_top" xlink:title="Equals operator">
<polygon fill="white" stroke="black" points="9.5,-50 9.5,-69 195.5,-69 195.5,-50 9.5,-50"/>
<text text-anchor="middle" x="102.5" y="-57" font-family="Helvetica,sans-Serif" font-size="10.00">QuantConnect.Symbol.operator==</text>
</a>
</g>
</g>
<!-- Node2&#45;&gt;Node7 -->
<g id="edge6" class="edge">
<title>Node2&#45;&gt;Node7</title>
<path fill="none" stroke="midnightblue" d="M294.24,-113.83C270.6,-103.22 236.22,-88.81 205,-79.5 191.23,-75.4 176.15,-71.9 161.93,-69.04"/>
<polygon fill="midnightblue" stroke="midnightblue" points="292.82,-117.02 303.37,-117.97 295.71,-110.65 292.82,-117.02"/>
</g>
<!-- Node8 -->
<g id="node8" class="node">
<title>Node8</title>
<g id="a_node8"><a xlink:href="classQuantConnect_1_1Securities_1_1Security.html#a9dfff4b4f8b5951f83589ede12d80c84" target="_top" xlink:title="Returns a string that represents the current object.">
<polygon fill="white" stroke="black" points="32.5,-0.5 32.5,-30.5 172.5,-30.5 172.5,-0.5 32.5,-0.5"/>
<text text-anchor="start" x="40.5" y="-18.5" font-family="Helvetica,sans-Serif" font-size="10.00">QuantConnect.Securities.</text>
<text text-anchor="middle" x="102.5" y="-7.5" font-family="Helvetica,sans-Serif" font-size="10.00">Security.ToString</text>
</a>
</g>
</g>
<!-- Node2&#45;&gt;Node8 -->
<g id="edge7" class="edge">
<title>Node2&#45;&gt;Node8</title>
<path fill="none" stroke="midnightblue" d="M305.77,-110.95C283.78,-91.31 244.36,-58.91 205,-40.5 194.89,-35.77 183.78,-31.87 172.73,-28.68"/>
<polygon fill="midnightblue" stroke="midnightblue" points="303.55,-113.67 313.31,-117.8 308.26,-108.48 303.55,-113.67"/>
</g>
</g>
</svg>
