<?xml version="1.0" encoding="UTF-8" standalone="no"?>
<!DOCTYPE svg PUBLIC "-//W3C//DTD SVG 1.1//EN"
 "http://www.w3.org/Graphics/SVG/1.1/DTD/svg11.dtd">
<!-- Generated by graphviz version 2.43.0 (0)
 -->
<!-- Title: QuantConnect.Data.Shortable.ShortableProviderPythonWrapper Pages: 1 -->
<svg width="258pt" height="106pt"
 viewBox="0.00 0.00 257.50 106.00" xmlns="http://www.w3.org/2000/svg" xmlns:xlink="http://www.w3.org/1999/xlink">
<g id="graph0" class="graph" transform="scale(1 1) rotate(0) translate(4 102)">
<title>QuantConnect.Data.Shortable.ShortableProviderPythonWrapper</title>
<polygon fill="white" stroke="transparent" points="-4,4 -4,-102 253.5,-102 253.5,4 -4,4"/>
<!-- Node1 -->
<g id="node1" class="node">
<title>Node1</title>
<g id="a_node1"><a xlink:title="Python wrapper for custom shortable providers">
<polygon fill="#bfbfbf" stroke="black" points="39.5,-0.5 39.5,-30.5 218.5,-30.5 218.5,-0.5 39.5,-0.5"/>
<text text-anchor="start" x="47.5" y="-18.5" font-family="Helvetica,sans-Serif" font-size="10.00">QuantConnect.Data.Shortable.</text>
<text text-anchor="middle" x="129" y="-7.5" font-family="Helvetica,sans-Serif" font-size="10.00">ShortableProviderPythonWrapper</text>
</a>
</g>
</g>
<!-- Node2 -->
<g id="node2" class="node">
<title>Node2</title>
<g id="a_node2"><a xlink:href="classQuantConnect_1_1Python_1_1BasePythonWrapper.html" target="_top" xlink:title=" ">
<polygon fill="white" stroke="black" points="0,-67.5 0,-97.5 124,-97.5 124,-67.5 0,-67.5"/>
<text text-anchor="start" x="8" y="-85.5" font-family="Helvetica,sans-Serif" font-size="10.00">BasePythonWrapper&lt;</text>
<text text-anchor="middle" x="62" y="-74.5" font-family="Helvetica,sans-Serif" font-size="10.00"> IShortableProvider &gt;</text>
</a>
</g>
</g>
<!-- Node2&#45;&gt;Node1 -->
<g id="edge1" class="edge">
<title>Node2&#45;&gt;Node1</title>
<path fill="none" stroke="midnightblue" d="M83.84,-60.31C93.89,-50.56 105.54,-39.26 114.49,-30.58"/>
<polygon fill="midnightblue" stroke="midnightblue" points="81.28,-57.92 76.54,-67.4 86.15,-62.94 81.28,-57.92"/>
</g>
<!-- Node3 -->
<g id="node3" class="node">
<title>Node3</title>
<g id="a_node3"><a xlink:href="interfaceQuantConnect_1_1Interfaces_1_1IShortableProvider.html" target="_top" xlink:title="Defines a short list/easy&#45;to&#45;borrow provider">
<polygon fill="white" stroke="black" points="142.5,-73 142.5,-92 249.5,-92 249.5,-73 142.5,-73"/>
<text text-anchor="middle" x="196" y="-80" font-family="Helvetica,sans-Serif" font-size="10.00">IShortableProvider</text>
</a>
</g>
</g>
<!-- Node3&#45;&gt;Node1 -->
<g id="edge2" class="edge">
<title>Node3&#45;&gt;Node1</title>
<path fill="none" stroke="midnightblue" d="M179.63,-65.62C168.59,-54.91 154.15,-40.9 143.52,-30.59"/>
<polygon fill="midnightblue" stroke="midnightblue" points="177.35,-68.28 186.96,-72.73 182.22,-63.26 177.35,-68.28"/>
</g>
</g>
</svg>
