<?xml version="1.0" encoding="UTF-8" standalone="no"?>
<!DOCTYPE svg PUBLIC "-//W3C//DTD SVG 1.1//EN"
 "http://www.w3.org/Graphics/SVG/1.1/DTD/svg11.dtd">
<!-- Generated by graphviz version 2.43.0 (0)
 -->
<!-- Title: QuantConnect.Data.UniverseSelection.Schedule.Get Pages: 1 -->
<svg width="639pt" height="50pt"
 viewBox="0.00 0.00 639.00 50.00" xmlns="http://www.w3.org/2000/svg" xmlns:xlink="http://www.w3.org/1999/xlink">
<g id="graph0" class="graph" transform="scale(1 1) rotate(0) translate(4 46)">
<title>QuantConnect.Data.UniverseSelection.Schedule.Get</title>
<polygon fill="white" stroke="transparent" points="-4,4 -4,-46 635,-46 635,4 -4,4"/>
<!-- Node1 -->
<g id="node1" class="node">
<title>Node1</title>
<g id="a_node1"><a xlink:title="Gets the current schedule for a given start time">
<polygon fill="#bfbfbf" stroke="black" points="473,-6 473,-36 631,-36 631,-6 473,-6"/>
<text text-anchor="start" x="481" y="-24" font-family="Helvetica,sans-Serif" font-size="10.00">QuantConnect.Data.Universe</text>
<text text-anchor="middle" x="552" y="-13" font-family="Helvetica,sans-Serif" font-size="10.00">Selection.Schedule.Get</text>
</a>
</g>
</g>
<!-- Node2 -->
<g id="node2" class="node">
<title>Node2</title>
<g id="a_node2"><a xlink:href="classQuantConnect_1_1Lean_1_1Engine_1_1DataFeeds_1_1FileSystemDataFeed.html#a8e5ed511f57facc6e1c2ac6b0e0a623a" target="_top" xlink:title="Returns a scheduled enumerator from the given arguments. It can also return the given underlying enum...">
<polygon fill="white" stroke="black" points="243,-0.5 243,-41.5 437,-41.5 437,-0.5 243,-0.5"/>
<text text-anchor="start" x="251" y="-29.5" font-family="Helvetica,sans-Serif" font-size="10.00">QuantConnect.Lean.Engine.</text>
<text text-anchor="start" x="251" y="-18.5" font-family="Helvetica,sans-Serif" font-size="10.00">DataFeeds.FileSystemDataFeed.Add</text>
<text text-anchor="middle" x="340" y="-7.5" font-family="Helvetica,sans-Serif" font-size="10.00">ScheduleWrapper</text>
</a>
</g>
</g>
<!-- Node1&#45;&gt;Node2 -->
<g id="edge1" class="edge">
<title>Node1&#45;&gt;Node2</title>
<path fill="none" stroke="midnightblue" d="M462.59,-21C454.14,-21 445.55,-21 437.03,-21"/>
<polygon fill="midnightblue" stroke="midnightblue" points="462.8,-24.5 472.8,-21 462.8,-17.5 462.8,-24.5"/>
</g>
<!-- Node3 -->
<g id="node3" class="node">
<title>Node3</title>
<g id="a_node3"><a xlink:href="classQuantConnect_1_1Lean_1_1Engine_1_1DataFeeds_1_1FileSystemDataFeed.html#ac148e78fc814fca88c70a1835be51a25" target="_top" xlink:title="Creates a new subscription to provide data for the specified security.">
<polygon fill="white" stroke="black" points="0,-0.5 0,-41.5 207,-41.5 207,-0.5 0,-0.5"/>
<text text-anchor="start" x="8" y="-29.5" font-family="Helvetica,sans-Serif" font-size="10.00">QuantConnect.Lean.Engine.</text>
<text text-anchor="start" x="8" y="-18.5" font-family="Helvetica,sans-Serif" font-size="10.00">DataFeeds.FileSystemDataFeed.Create</text>
<text text-anchor="middle" x="103.5" y="-7.5" font-family="Helvetica,sans-Serif" font-size="10.00">Subscription</text>
</a>
</g>
</g>
<!-- Node2&#45;&gt;Node3 -->
<g id="edge2" class="edge">
<title>Node2&#45;&gt;Node3</title>
<path fill="none" stroke="midnightblue" d="M232.68,-21C224.23,-21 215.7,-21 207.27,-21"/>
<polygon fill="midnightblue" stroke="midnightblue" points="232.94,-24.5 242.94,-21 232.94,-17.5 232.94,-24.5"/>
</g>
</g>
</svg>
