<?xml version="1.0" encoding="UTF-8" standalone="no"?>
<!DOCTYPE svg PUBLIC "-//W3C//DTD SVG 1.1//EN"
 "http://www.w3.org/Graphics/SVG/1.1/DTD/svg11.dtd">
<!-- Generated by graphviz version 2.43.0 (0)
 -->
<!-- Title: QuantConnect.Commands.BaseCommandHandler.TryGetCallbackCommand Pages: 1 -->
<svg width="650pt" height="88pt"
 viewBox="0.00 0.00 650.00 88.00" xmlns="http://www.w3.org/2000/svg" xmlns:xlink="http://www.w3.org/1999/xlink">
<g id="graph0" class="graph" transform="scale(1 1) rotate(0) translate(4 84)">
<title>QuantConnect.Commands.BaseCommandHandler.TryGetCallbackCommand</title>
<polygon fill="white" stroke="transparent" points="-4,4 -4,-84 646,-84 646,4 -4,4"/>
<!-- Node1 -->
<g id="node1" class="node">
<title>Node1</title>
<g id="a_node1"><a xlink:title="Helper method to create a callback command">
<polygon fill="#bfbfbf" stroke="black" points="0,-24.5 0,-54.5 231,-54.5 231,-24.5 0,-24.5"/>
<text text-anchor="start" x="8" y="-42.5" font-family="Helvetica,sans-Serif" font-size="10.00">QuantConnect.Commands.Base</text>
<text text-anchor="middle" x="115.5" y="-31.5" font-family="Helvetica,sans-Serif" font-size="10.00">CommandHandler.TryGetCallbackCommand</text>
</a>
</g>
</g>
<!-- Node2 -->
<g id="node2" class="node">
<title>Node2</title>
<g id="a_node2"><a xlink:href="classQuantConnect_1_1Logging_1_1Log.html#af0e7955911bc7664b37661b2a303a9e3" target="_top" xlink:title="Log error">
<polygon fill="white" stroke="black" points="286.5,-49.5 286.5,-79.5 436.5,-79.5 436.5,-49.5 286.5,-49.5"/>
<text text-anchor="start" x="294.5" y="-67.5" font-family="Helvetica,sans-Serif" font-size="10.00">QuantConnect.Logging.Log.</text>
<text text-anchor="middle" x="361.5" y="-56.5" font-family="Helvetica,sans-Serif" font-size="10.00">Error</text>
</a>
</g>
</g>
<!-- Node1&#45;&gt;Node2 -->
<g id="edge1" class="edge">
<title>Node1&#45;&gt;Node2</title>
<path fill="none" stroke="midnightblue" d="M231.36,-51.27C246.37,-52.81 261.54,-54.36 275.93,-55.84"/>
<polygon fill="midnightblue" stroke="midnightblue" points="275.96,-59.36 286.26,-56.89 276.67,-52.39 275.96,-59.36"/>
</g>
<!-- Node4 -->
<g id="node4" class="node">
<title>Node4</title>
<g id="a_node4"><a xlink:href="classQuantConnect_1_1Commands_1_1CallbackCommand.html#a1529a3b3b2eeadcf852bc08ddab46fd8" target="_top" xlink:title="The command string representation">
<polygon fill="white" stroke="black" points="267,-0.5 267,-30.5 456,-30.5 456,-0.5 267,-0.5"/>
<text text-anchor="start" x="275" y="-18.5" font-family="Helvetica,sans-Serif" font-size="10.00">QuantConnect.Commands.Callback</text>
<text text-anchor="middle" x="361.5" y="-7.5" font-family="Helvetica,sans-Serif" font-size="10.00">Command.ToString</text>
</a>
</g>
</g>
<!-- Node1&#45;&gt;Node4 -->
<g id="edge3" class="edge">
<title>Node1&#45;&gt;Node4</title>
<path fill="none" stroke="midnightblue" d="M231.36,-28.2C239.79,-27.37 248.27,-26.54 256.64,-25.72"/>
<polygon fill="midnightblue" stroke="midnightblue" points="257.16,-29.18 266.77,-24.72 256.48,-22.21 257.16,-29.18"/>
</g>
<!-- Node3 -->
<g id="node3" class="node">
<title>Node3</title>
<g id="a_node3"><a xlink:href="interfaceQuantConnect_1_1Logging_1_1ILogHandler.html#a35373a0c5d76031fa5ccf5dc39e5c25d" target="_top" xlink:title="Write error message to log">
<polygon fill="white" stroke="black" points="492,-49.5 492,-79.5 642,-79.5 642,-49.5 492,-49.5"/>
<text text-anchor="start" x="500" y="-67.5" font-family="Helvetica,sans-Serif" font-size="10.00">QuantConnect.Logging.ILog</text>
<text text-anchor="middle" x="567" y="-56.5" font-family="Helvetica,sans-Serif" font-size="10.00">Handler.Error</text>
</a>
</g>
</g>
<!-- Node2&#45;&gt;Node3 -->
<g id="edge2" class="edge">
<title>Node2&#45;&gt;Node3</title>
<path fill="none" stroke="midnightblue" d="M436.54,-64.5C451.13,-64.5 466.54,-64.5 481.45,-64.5"/>
<polygon fill="midnightblue" stroke="midnightblue" points="481.67,-68 491.67,-64.5 481.67,-61 481.67,-68"/>
</g>
</g>
</svg>
