<?xml version="1.0" encoding="UTF-8" standalone="no"?>
<!DOCTYPE svg PUBLIC "-//W3C//DTD SVG 1.1//EN"
 "http://www.w3.org/Graphics/SVG/1.1/DTD/svg11.dtd">
<!-- Generated by graphviz version 2.43.0 (0)
 -->
<!-- Title: QuantConnect.Algorithm.QCAlgorithm.SetBenchmark Pages: 1 -->
<svg width="902pt" height="100pt"
 viewBox="0.00 0.00 902.00 99.50" xmlns="http://www.w3.org/2000/svg" xmlns:xlink="http://www.w3.org/1999/xlink">
<g id="graph0" class="graph" transform="scale(1 1) rotate(0) translate(4 95.5)">
<title>QuantConnect.Algorithm.QCAlgorithm.SetBenchmark</title>
<polygon fill="white" stroke="transparent" points="-4,4 -4,-95.5 898,-95.5 898,4 -4,4"/>
<!-- Node1 -->
<g id="node1" class="node">
<title>Node1</title>
<g id="a_node1"><a xlink:title="Sets the benchmark used for computing statistics of the algorithm to the specified symbol">
<polygon fill="#bfbfbf" stroke="black" points="0,-27.5 0,-57.5 205,-57.5 205,-27.5 0,-27.5"/>
<text text-anchor="start" x="8" y="-45.5" font-family="Helvetica,sans-Serif" font-size="10.00">QuantConnect.Algorithm.QCAlgorithm.</text>
<text text-anchor="middle" x="102.5" y="-34.5" font-family="Helvetica,sans-Serif" font-size="10.00">SetBenchmark</text>
</a>
</g>
</g>
<!-- Node2 -->
<g id="node2" class="node">
<title>Node2</title>
<g id="a_node2"><a xlink:href="classQuantConnect_1_1Benchmarks_1_1SecurityBenchmark.html#a40c97e12584a0fc70ffb48f9aead3287" target="_top" xlink:title="Helper function that will create a security with the given SecurityManager for a specific symbol and ...">
<polygon fill="white" stroke="black" points="241,-27.5 241,-57.5 429,-57.5 429,-27.5 241,-27.5"/>
<text text-anchor="start" x="249" y="-45.5" font-family="Helvetica,sans-Serif" font-size="10.00">QuantConnect.Benchmarks.</text>
<text text-anchor="middle" x="335" y="-34.5" font-family="Helvetica,sans-Serif" font-size="10.00">SecurityBenchmark.CreateInstance</text>
</a>
</g>
</g>
<!-- Node1&#45;&gt;Node2 -->
<g id="edge1" class="edge">
<title>Node1&#45;&gt;Node2</title>
<path fill="none" stroke="midnightblue" d="M205.27,-42.5C213.67,-42.5 222.17,-42.5 230.59,-42.5"/>
<polygon fill="midnightblue" stroke="midnightblue" points="230.8,-46 240.8,-42.5 230.8,-39 230.8,-46"/>
</g>
<!-- Node3 -->
<g id="node3" class="node">
<title>Node3</title>
<g id="a_node3"><a xlink:href="classQuantConnect_1_1Securities_1_1SecurityManager.html#a3ac388b31cf00c501b738b751427b883" target="_top" xlink:title="Creates a new benchmark security">
<polygon fill="white" stroke="black" points="475.5,-50 475.5,-91 664.5,-91 664.5,-50 475.5,-50"/>
<text text-anchor="start" x="483.5" y="-79" font-family="Helvetica,sans-Serif" font-size="10.00">QuantConnect.Securities.</text>
<text text-anchor="start" x="483.5" y="-68" font-family="Helvetica,sans-Serif" font-size="10.00">SecurityManager.CreateBenchmark</text>
<text text-anchor="middle" x="570" y="-57" font-family="Helvetica,sans-Serif" font-size="10.00">Security</text>
</a>
</g>
</g>
<!-- Node2&#45;&gt;Node3 -->
<g id="edge2" class="edge">
<title>Node2&#45;&gt;Node3</title>
<path fill="none" stroke="midnightblue" d="M429.09,-53.69C440.98,-55.12 453.2,-56.58 465.24,-58.03"/>
<polygon fill="midnightblue" stroke="midnightblue" points="464.95,-61.52 475.29,-59.24 465.78,-54.57 464.95,-61.52"/>
</g>
<!-- Node5 -->
<g id="node5" class="node">
<title>Node5</title>
<g id="a_node5"><a xlink:href="classQuantConnect_1_1Benchmarks_1_1SecurityBenchmark.html#a45a12b43bac87b210770258630e56622" target="_top" xlink:title="Initializes a new instance of the SecurityBenchmark class">
<polygon fill="white" stroke="black" points="465,-0.5 465,-30.5 675,-30.5 675,-0.5 465,-0.5"/>
<text text-anchor="start" x="473" y="-18.5" font-family="Helvetica,sans-Serif" font-size="10.00">QuantConnect.Benchmarks.</text>
<text text-anchor="middle" x="570" y="-7.5" font-family="Helvetica,sans-Serif" font-size="10.00">SecurityBenchmark.SecurityBenchmark</text>
</a>
</g>
</g>
<!-- Node2&#45;&gt;Node5 -->
<g id="edge4" class="edge">
<title>Node2&#45;&gt;Node5</title>
<path fill="none" stroke="midnightblue" d="M429.09,-31.71C437.57,-30.73 446.21,-29.73 454.84,-28.73"/>
<polygon fill="midnightblue" stroke="midnightblue" points="455.42,-32.19 464.95,-27.56 454.61,-25.23 455.42,-32.19"/>
</g>
<!-- Node4 -->
<g id="node4" class="node">
<title>Node4</title>
<g id="a_node4"><a xlink:href="classQuantConnect_1_1Securities_1_1SecurityService.html#aa449d8886d5728a00e44b9aea24ad036" target="_top" xlink:title="Creates a new security">
<polygon fill="white" stroke="black" points="711,-50 711,-91 894,-91 894,-50 711,-50"/>
<text text-anchor="start" x="719" y="-79" font-family="Helvetica,sans-Serif" font-size="10.00">QuantConnect.Securities.</text>
<text text-anchor="start" x="719" y="-68" font-family="Helvetica,sans-Serif" font-size="10.00">SecurityService.CreateBenchmark</text>
<text text-anchor="middle" x="802.5" y="-57" font-family="Helvetica,sans-Serif" font-size="10.00">Security</text>
</a>
</g>
</g>
<!-- Node3&#45;&gt;Node4 -->
<g id="edge3" class="edge">
<title>Node3&#45;&gt;Node4</title>
<path fill="none" stroke="midnightblue" d="M664.75,-70.5C676.63,-70.5 688.83,-70.5 700.81,-70.5"/>
<polygon fill="midnightblue" stroke="midnightblue" points="700.81,-74 710.81,-70.5 700.81,-67 700.81,-74"/>
</g>
</g>
</svg>
