<?xml version="1.0" encoding="UTF-8" standalone="no"?>
<!DOCTYPE svg PUBLIC "-//W3C//DTD SVG 1.1//EN"
 "http://www.w3.org/Graphics/SVG/1.1/DTD/svg11.dtd">
<!-- Generated by graphviz version 2.43.0 (0)
 -->
<!-- Title: QuantConnect.Python.SlippageModelPythonWrapper Pages: 1 -->
<svg width="242pt" height="106pt"
 viewBox="0.00 0.00 242.00 106.00" xmlns="http://www.w3.org/2000/svg" xmlns:xlink="http://www.w3.org/1999/xlink">
<g id="graph0" class="graph" transform="scale(1 1) rotate(0) translate(4 102)">
<title>QuantConnect.Python.SlippageModelPythonWrapper</title>
<polygon fill="white" stroke="transparent" points="-4,4 -4,-102 238,-102 238,4 -4,4"/>
<!-- Node1 -->
<g id="node1" class="node">
<title>Node1</title>
<g id="a_node1"><a xlink:title="Wraps a PyObject object that represents a model that simulates market order slippage">
<polygon fill="#bfbfbf" stroke="black" points="41.5,-0.5 41.5,-30.5 208.5,-30.5 208.5,-0.5 41.5,-0.5"/>
<text text-anchor="start" x="49.5" y="-18.5" font-family="Helvetica,sans-Serif" font-size="10.00">QuantConnect.Python.Slippage</text>
<text text-anchor="middle" x="125" y="-7.5" font-family="Helvetica,sans-Serif" font-size="10.00">ModelPythonWrapper</text>
</a>
</g>
</g>
<!-- Node2 -->
<g id="node2" class="node">
<title>Node2</title>
<g id="a_node2"><a xlink:href="classQuantConnect_1_1Python_1_1BasePythonWrapper.html" target="_top" xlink:title=" ">
<polygon fill="white" stroke="black" points="0,-67.5 0,-97.5 124,-97.5 124,-67.5 0,-67.5"/>
<text text-anchor="start" x="8" y="-85.5" font-family="Helvetica,sans-Serif" font-size="10.00">BasePythonWrapper&lt;</text>
<text text-anchor="middle" x="62" y="-74.5" font-family="Helvetica,sans-Serif" font-size="10.00"> ISlippageModel &gt;</text>
</a>
</g>
</g>
<!-- Node2&#45;&gt;Node1 -->
<g id="edge1" class="edge">
<title>Node2&#45;&gt;Node1</title>
<path fill="none" stroke="midnightblue" d="M82.81,-60.02C92.2,-50.34 103.02,-39.17 111.36,-30.58"/>
<polygon fill="midnightblue" stroke="midnightblue" points="80.12,-57.78 75.67,-67.4 85.14,-62.65 80.12,-57.78"/>
</g>
<!-- Node3 -->
<g id="node3" class="node">
<title>Node3</title>
<g id="a_node3"><a xlink:href="interfaceQuantConnect_1_1Orders_1_1Slippage_1_1ISlippageModel.html" target="_top" xlink:title="Represents a model that simulates market order slippage">
<polygon fill="white" stroke="black" points="142,-73 142,-92 234,-92 234,-73 142,-73"/>
<text text-anchor="middle" x="188" y="-80" font-family="Helvetica,sans-Serif" font-size="10.00">ISlippageModel</text>
</a>
</g>
</g>
<!-- Node3&#45;&gt;Node1 -->
<g id="edge2" class="edge">
<title>Node3&#45;&gt;Node1</title>
<path fill="none" stroke="midnightblue" d="M172.3,-65.3C161.96,-54.63 148.55,-40.8 138.66,-30.59"/>
<polygon fill="midnightblue" stroke="midnightblue" points="170.03,-67.99 179.5,-72.73 175.06,-63.12 170.03,-67.99"/>
</g>
</g>
</svg>
