<?xml version="1.0" encoding="UTF-8" standalone="no"?>
<!DOCTYPE svg PUBLIC "-//W3C//DTD SVG 1.1//EN"
 "http://www.w3.org/Graphics/SVG/1.1/DTD/svg11.dtd">
<!-- Generated by graphviz version 2.43.0 (0)
 -->
<!-- Title: QuantConnect.Securities.SecurityPortfolioManager.SetAccountCurrency Pages: 1 -->
<svg width="608pt" height="198pt"
 viewBox="0.00 0.00 608.00 197.50" xmlns="http://www.w3.org/2000/svg" xmlns:xlink="http://www.w3.org/1999/xlink">
<g id="graph0" class="graph" transform="scale(1 1) rotate(0) translate(4 193.5)">
<title>QuantConnect.Securities.SecurityPortfolioManager.SetAccountCurrency</title>
<polygon fill="white" stroke="transparent" points="-4,4 -4,-193.5 604,-193.5 604,4 -4,4"/>
<!-- Node1 -->
<g id="node1" class="node">
<title>Node1</title>
<g id="a_node1"><a xlink:title="Sets the account currency cash symbol this algorithm is to manage, as well as the starting cash in th...">
<polygon fill="#bfbfbf" stroke="black" points="0,-68 0,-109 158,-109 158,-68 0,-68"/>
<text text-anchor="start" x="8" y="-97" font-family="Helvetica,sans-Serif" font-size="10.00">QuantConnect.Securities.</text>
<text text-anchor="start" x="8" y="-86" font-family="Helvetica,sans-Serif" font-size="10.00">SecurityPortfolioManager.Set</text>
<text text-anchor="middle" x="79" y="-75" font-family="Helvetica,sans-Serif" font-size="10.00">AccountCurrency</text>
</a>
</g>
</g>
<!-- Node2 -->
<g id="node2" class="node">
<title>Node2</title>
<g id="a_node2"><a xlink:href="classQuantConnect_1_1Messages_1_1SecurityPortfolioManager.html#a06dfacaaac00cd6aaeea5c5ac216c8b7" target="_top" xlink:title="Returns a string message saying the AccountCurrency has already been set and that the new value for t...">
<polygon fill="white" stroke="black" points="211.5,-148 211.5,-189 396.5,-189 396.5,-148 211.5,-148"/>
<text text-anchor="start" x="219.5" y="-177" font-family="Helvetica,sans-Serif" font-size="10.00">QuantConnect.Messages.Security</text>
<text text-anchor="start" x="219.5" y="-166" font-family="Helvetica,sans-Serif" font-size="10.00">PortfolioManager.AccountCurrency</text>
<text text-anchor="middle" x="304" y="-155" font-family="Helvetica,sans-Serif" font-size="10.00">AlreadySet</text>
</a>
</g>
</g>
<!-- Node1&#45;&gt;Node2 -->
<g id="edge1" class="edge">
<title>Node1&#45;&gt;Node2</title>
<path fill="none" stroke="midnightblue" d="M122.98,-109.11C144.09,-118.78 170.07,-130.01 194,-138.5 200.28,-140.73 206.8,-142.89 213.4,-144.97"/>
<polygon fill="midnightblue" stroke="midnightblue" points="212.52,-148.36 223.11,-147.95 214.58,-141.67 212.52,-148.36"/>
</g>
<!-- Node3 -->
<g id="node3" class="node">
<title>Node3</title>
<g id="a_node3"><a xlink:href="classQuantConnect_1_1Securities_1_1SecurityPortfolioManager.html#acac8f78a9d4193124aa4b735832fa1f6" target="_top" xlink:title="Set the account currency cash this algorithm is to manage.">
<polygon fill="white" stroke="black" points="213,-98.5 213,-128.5 395,-128.5 395,-98.5 213,-98.5"/>
<text text-anchor="start" x="221" y="-116.5" font-family="Helvetica,sans-Serif" font-size="10.00">QuantConnect.Securities.</text>
<text text-anchor="middle" x="304" y="-105.5" font-family="Helvetica,sans-Serif" font-size="10.00">SecurityPortfolioManager.SetCash</text>
</a>
</g>
</g>
<!-- Node1&#45;&gt;Node3 -->
<g id="edge2" class="edge">
<title>Node1&#45;&gt;Node3</title>
<path fill="none" stroke="midnightblue" d="M158.31,-97.28C172.58,-98.88 187.66,-100.57 202.47,-102.23"/>
<polygon fill="midnightblue" stroke="midnightblue" points="202.34,-105.74 212.67,-103.37 203.12,-98.78 202.34,-105.74"/>
</g>
<!-- Node5 -->
<g id="node5" class="node">
<title>Node5</title>
<g id="a_node5"><a xlink:href="classQuantConnect_1_1Messages_1_1SecurityPortfolioManager.html#a842a7fb0e84105cf0cb74c80fe64195a" target="_top" xlink:title="Returns a string message saying the AccountCurrency is being set to the given account currency">
<polygon fill="white" stroke="black" points="194,-49.5 194,-79.5 414,-79.5 414,-49.5 194,-49.5"/>
<text text-anchor="start" x="202" y="-67.5" font-family="Helvetica,sans-Serif" font-size="10.00">QuantConnect.Messages.Security</text>
<text text-anchor="middle" x="304" y="-56.5" font-family="Helvetica,sans-Serif" font-size="10.00">PortfolioManager.SettingAccountCurrency</text>
</a>
</g>
</g>
<!-- Node1&#45;&gt;Node5 -->
<g id="edge4" class="edge">
<title>Node1&#45;&gt;Node5</title>
<path fill="none" stroke="midnightblue" d="M158.31,-80.07C166.61,-79.18 175.17,-78.26 183.81,-77.33"/>
<polygon fill="midnightblue" stroke="midnightblue" points="184.38,-80.79 193.95,-76.24 183.64,-73.83 184.38,-80.79"/>
</g>
<!-- Node6 -->
<g id="node6" class="node">
<title>Node6</title>
<g id="a_node6"><a xlink:href="classQuantConnect_1_1Logging_1_1Log.html#a4e55477fbc790846b74550a57198cea9" target="_top" xlink:title="Log trace">
<polygon fill="white" stroke="black" points="229,-0.5 229,-30.5 379,-30.5 379,-0.5 229,-0.5"/>
<text text-anchor="start" x="237" y="-18.5" font-family="Helvetica,sans-Serif" font-size="10.00">QuantConnect.Logging.Log.</text>
<text text-anchor="middle" x="304" y="-7.5" font-family="Helvetica,sans-Serif" font-size="10.00">Trace</text>
</a>
</g>
</g>
<!-- Node1&#45;&gt;Node6 -->
<g id="edge5" class="edge">
<title>Node1&#45;&gt;Node6</title>
<path fill="none" stroke="midnightblue" d="M122.57,-67.92C143.69,-58.31 169.8,-47.29 194,-39.5 202.02,-36.92 210.46,-34.52 218.95,-32.32"/>
<polygon fill="midnightblue" stroke="midnightblue" points="220.06,-35.65 228.91,-29.83 218.36,-28.86 220.06,-35.65"/>
</g>
<!-- Node4 -->
<g id="node4" class="node">
<title>Node4</title>
<g id="a_node4"><a xlink:href="classQuantConnect_1_1Securities_1_1Cash.html#a10f484f2c0fa7902c2c1db937a929978" target="_top" xlink:title="Sets the Quantity to the specified amount">
<polygon fill="white" stroke="black" points="455,-98.5 455,-128.5 595,-128.5 595,-98.5 455,-98.5"/>
<text text-anchor="start" x="463" y="-116.5" font-family="Helvetica,sans-Serif" font-size="10.00">QuantConnect.Securities.</text>
<text text-anchor="middle" x="525" y="-105.5" font-family="Helvetica,sans-Serif" font-size="10.00">Cash.SetAmount</text>
</a>
</g>
</g>
<!-- Node3&#45;&gt;Node4 -->
<g id="edge3" class="edge">
<title>Node3&#45;&gt;Node4</title>
<path fill="none" stroke="midnightblue" d="M395.02,-113.5C411.38,-113.5 428.33,-113.5 444.36,-113.5"/>
<polygon fill="midnightblue" stroke="midnightblue" points="444.75,-117 454.75,-113.5 444.75,-110 444.75,-117"/>
</g>
<!-- Node7 -->
<g id="node7" class="node">
<title>Node7</title>
<g id="a_node7"><a xlink:href="interfaceQuantConnect_1_1Logging_1_1ILogHandler.html#a3fb71a33ac66129240b63f12b6fcda3b" target="_top" xlink:title="Write debug message to log">
<polygon fill="white" stroke="black" points="450,-0.5 450,-30.5 600,-30.5 600,-0.5 450,-0.5"/>
<text text-anchor="start" x="458" y="-18.5" font-family="Helvetica,sans-Serif" font-size="10.00">QuantConnect.Logging.ILog</text>
<text text-anchor="middle" x="525" y="-7.5" font-family="Helvetica,sans-Serif" font-size="10.00">Handler.Trace</text>
</a>
</g>
</g>
<!-- Node6&#45;&gt;Node7 -->
<g id="edge6" class="edge">
<title>Node6&#45;&gt;Node7</title>
<path fill="none" stroke="midnightblue" d="M379.14,-15.5C398.68,-15.5 419.89,-15.5 439.9,-15.5"/>
<polygon fill="midnightblue" stroke="midnightblue" points="439.93,-19 449.93,-15.5 439.93,-12 439.93,-19"/>
</g>
</g>
</svg>
