<?xml version="1.0" encoding="UTF-8" standalone="no"?>
<!DOCTYPE svg PUBLIC "-//W3C//DTD SVG 1.1//EN"
 "http://www.w3.org/Graphics/SVG/1.1/DTD/svg11.dtd">
<!-- Generated by graphviz version 2.43.0 (0)
 -->
<!-- Title: QuantConnect.AlgorithmFactory.Python.Wrappers.AlgorithmPythonWrapper Pages: 1 -->
<svg width="337pt" height="162pt"
 viewBox="0.00 0.00 336.50 162.00" xmlns="http://www.w3.org/2000/svg" xmlns:xlink="http://www.w3.org/1999/xlink">
<g id="graph0" class="graph" transform="scale(1 1) rotate(0) translate(4 158)">
<title>QuantConnect.AlgorithmFactory.Python.Wrappers.AlgorithmPythonWrapper</title>
<polygon fill="white" stroke="transparent" points="-4,4 -4,-158 332.5,-158 332.5,4 -4,4"/>
<!-- Node1 -->
<g id="node1" class="node">
<title>Node1</title>
<g id="a_node1"><a xlink:title="Creates and wraps the algorithm written in python.">
<polygon fill="#bfbfbf" stroke="black" points="6,-0.5 6,-30.5 232,-30.5 232,-0.5 6,-0.5"/>
<text text-anchor="start" x="14" y="-18.5" font-family="Helvetica,sans-Serif" font-size="10.00">QuantConnect.AlgorithmFactory.</text>
<text text-anchor="middle" x="119" y="-7.5" font-family="Helvetica,sans-Serif" font-size="10.00">Python.Wrappers.AlgorithmPythonWrapper</text>
</a>
</g>
</g>
<!-- Node2 -->
<g id="node2" class="node">
<title>Node2</title>
<g id="a_node2"><a xlink:href="classQuantConnect_1_1Python_1_1BasePythonWrapper.html" target="_top" xlink:title=" ">
<polygon fill="white" stroke="black" points="0,-67.5 0,-97.5 124,-97.5 124,-67.5 0,-67.5"/>
<text text-anchor="start" x="8" y="-85.5" font-family="Helvetica,sans-Serif" font-size="10.00">BasePythonWrapper&lt;</text>
<text text-anchor="middle" x="62" y="-74.5" font-family="Helvetica,sans-Serif" font-size="10.00"> IAlgorithm &gt;</text>
</a>
</g>
</g>
<!-- Node2&#45;&gt;Node1 -->
<g id="edge1" class="edge">
<title>Node2&#45;&gt;Node1</title>
<path fill="none" stroke="midnightblue" d="M81.09,-59.74C89.52,-50.12 99.19,-39.09 106.66,-30.58"/>
<polygon fill="midnightblue" stroke="midnightblue" points="78.33,-57.57 74.37,-67.4 83.59,-62.18 78.33,-57.57"/>
</g>
<!-- Node3 -->
<g id="node3" class="node">
<title>Node3</title>
<g id="a_node3"><a xlink:href="interfaceQuantConnect_1_1Interfaces_1_1IAlgorithm.html" target="_top" xlink:title="Interface for QuantConnect algorithm implementations. All algorithms must implement these basic membe...">
<polygon fill="white" stroke="black" points="142,-73 142,-92 210,-92 210,-73 142,-73"/>
<text text-anchor="middle" x="176" y="-80" font-family="Helvetica,sans-Serif" font-size="10.00">IAlgorithm</text>
</a>
</g>
</g>
<!-- Node3&#45;&gt;Node1 -->
<g id="edge2" class="edge">
<title>Node3&#45;&gt;Node1</title>
<path fill="none" stroke="midnightblue" d="M161.52,-64.99C152.2,-54.36 140.22,-40.7 131.35,-30.59"/>
<polygon fill="midnightblue" stroke="midnightblue" points="159.09,-67.52 168.31,-72.73 164.35,-62.91 159.09,-67.52"/>
</g>
<!-- Node4 -->
<g id="node4" class="node">
<title>Node4</title>
<g id="a_node4"><a xlink:href="interfaceQuantConnect_1_1Interfaces_1_1ISecurityInitializerProvider.html" target="_top" xlink:title="Reduced interface which provides an instance which implements ISecurityInitializer">
<polygon fill="white" stroke="black" points="21,-134.5 21,-153.5 167,-153.5 167,-134.5 21,-134.5"/>
<text text-anchor="middle" x="94" y="-141.5" font-family="Helvetica,sans-Serif" font-size="10.00">ISecurityInitializerProvider</text>
</a>
</g>
</g>
<!-- Node4&#45;&gt;Node3 -->
<g id="edge3" class="edge">
<title>Node4&#45;&gt;Node3</title>
<path fill="none" stroke="midnightblue" d="M114.27,-128.29C130,-116.88 151.25,-101.46 164.27,-92.01"/>
<polygon fill="midnightblue" stroke="midnightblue" points="111.79,-125.77 105.75,-134.48 115.9,-131.43 111.79,-125.77"/>
</g>
<!-- Node5 -->
<g id="node5" class="node">
<title>Node5</title>
<g id="a_node5"><a xlink:href="interfaceQuantConnect_1_1Interfaces_1_1IAccountCurrencyProvider.html" target="_top" xlink:title="A reduced interface for an account currency provider">
<polygon fill="white" stroke="black" points="185.5,-134.5 185.5,-153.5 328.5,-153.5 328.5,-134.5 185.5,-134.5"/>
<text text-anchor="middle" x="257" y="-141.5" font-family="Helvetica,sans-Serif" font-size="10.00">IAccountCurrencyProvider</text>
</a>
</g>
</g>
<!-- Node5&#45;&gt;Node3 -->
<g id="edge4" class="edge">
<title>Node5&#45;&gt;Node3</title>
<path fill="none" stroke="midnightblue" d="M236.98,-128.29C221.44,-116.88 200.45,-101.46 187.58,-92.01"/>
<polygon fill="midnightblue" stroke="midnightblue" points="235.26,-131.38 245.39,-134.48 239.41,-125.73 235.26,-131.38"/>
</g>
</g>
</svg>
