<?xml version="1.0" encoding="UTF-8" standalone="no"?>
<!DOCTYPE svg PUBLIC "-//W3C//DTD SVG 1.1//EN"
 "http://www.w3.org/Graphics/SVG/1.1/DTD/svg11.dtd">
<!-- Generated by graphviz version 2.43.0 (0)
 -->
<!-- Title: QuantConnect.Securities.SecurityManager.ContainsKey Pages: 1 -->
<svg width="411pt" height="186pt"
 viewBox="0.00 0.00 411.00 186.00" xmlns="http://www.w3.org/2000/svg" xmlns:xlink="http://www.w3.org/1999/xlink">
<g id="graph0" class="graph" transform="scale(1 1) rotate(0) translate(4 182)">
<title>QuantConnect.Securities.SecurityManager.ContainsKey</title>
<polygon fill="white" stroke="transparent" points="-4,4 -4,-182 407,-182 407,4 -4,4"/>
<!-- Node1 -->
<g id="node1" class="node">
<title>Node1</title>
<g id="a_node1"><a xlink:title="Check if this collection contains this symbol.">
<polygon fill="#bfbfbf" stroke="black" points="241,-73.5 241,-103.5 403,-103.5 403,-73.5 241,-73.5"/>
<text text-anchor="start" x="249" y="-91.5" font-family="Helvetica,sans-Serif" font-size="10.00">QuantConnect.Securities.</text>
<text text-anchor="middle" x="322" y="-80.5" font-family="Helvetica,sans-Serif" font-size="10.00">SecurityManager.ContainsKey</text>
</a>
</g>
</g>
<!-- Node2 -->
<g id="node2" class="node">
<title>Node2</title>
<g id="a_node2"><a xlink:href="classQuantConnect_1_1Securities_1_1SecurityPortfolioManager.html#ac50e645fe0a919b245c47b6aa7ea3701" target="_top" xlink:title="Check if the key&#45;value pair is in the portfolio.">
<polygon fill="white" stroke="black" points="10,-147.5 10,-177.5 195,-177.5 195,-147.5 10,-147.5"/>
<text text-anchor="start" x="18" y="-165.5" font-family="Helvetica,sans-Serif" font-size="10.00">QuantConnect.Securities.</text>
<text text-anchor="middle" x="102.5" y="-154.5" font-family="Helvetica,sans-Serif" font-size="10.00">SecurityPortfolioManager.Contains</text>
</a>
</g>
</g>
<!-- Node1&#45;&gt;Node2 -->
<g id="edge1" class="edge">
<title>Node1&#45;&gt;Node2</title>
<path fill="none" stroke="midnightblue" d="M280.71,-107.93C258.7,-118.02 230.75,-129.98 205,-138.5 195.12,-141.77 184.55,-144.78 174.11,-147.49"/>
<polygon fill="midnightblue" stroke="midnightblue" points="282.47,-110.98 290.07,-103.59 279.52,-104.63 282.47,-110.98"/>
</g>
<!-- Node3 -->
<g id="node3" class="node">
<title>Node3</title>
<g id="a_node3"><a xlink:href="classQuantConnect_1_1Securities_1_1SecurityPortfolioManager.html#ac683ba79af3d2a6e69714cb22acf7939" target="_top" xlink:title="Check if the portfolio contains this symbol string.">
<polygon fill="white" stroke="black" points="1,-98.5 1,-128.5 204,-128.5 204,-98.5 1,-98.5"/>
<text text-anchor="start" x="9" y="-116.5" font-family="Helvetica,sans-Serif" font-size="10.00">QuantConnect.Securities.</text>
<text text-anchor="middle" x="102.5" y="-105.5" font-family="Helvetica,sans-Serif" font-size="10.00">SecurityPortfolioManager.ContainsKey</text>
</a>
</g>
</g>
<!-- Node1&#45;&gt;Node3 -->
<g id="edge2" class="edge">
<title>Node1&#45;&gt;Node3</title>
<path fill="none" stroke="midnightblue" d="M231,-98.84C222.12,-99.86 213.08,-100.91 204.1,-101.94"/>
<polygon fill="midnightblue" stroke="midnightblue" points="231.4,-102.32 240.94,-97.7 230.6,-95.37 231.4,-102.32"/>
</g>
<!-- Node4 -->
<g id="node4" class="node">
<title>Node4</title>
<g id="a_node4"><a xlink:href="classQuantConnect_1_1Algorithm_1_1QCAlgorithm.html#a625229ca46ce9fa40ef45d0762e365db" target="_top" xlink:title="Liquidate your portfolio holdings">
<polygon fill="white" stroke="black" points="0,-49.5 0,-79.5 205,-79.5 205,-49.5 0,-49.5"/>
<text text-anchor="start" x="8" y="-67.5" font-family="Helvetica,sans-Serif" font-size="10.00">QuantConnect.Algorithm.QCAlgorithm.</text>
<text text-anchor="middle" x="102.5" y="-56.5" font-family="Helvetica,sans-Serif" font-size="10.00">Liquidate</text>
</a>
</g>
</g>
<!-- Node1&#45;&gt;Node4 -->
<g id="edge3" class="edge">
<title>Node1&#45;&gt;Node4</title>
<path fill="none" stroke="midnightblue" d="M230.75,-78.54C222.32,-77.61 213.75,-76.67 205.23,-75.72"/>
<polygon fill="midnightblue" stroke="midnightblue" points="230.61,-82.05 240.94,-79.67 231.38,-75.09 230.61,-82.05"/>
</g>
<!-- Node5 -->
<g id="node5" class="node">
<title>Node5</title>
<g id="a_node5"><a xlink:href="classQuantConnect_1_1Research_1_1QuantBook.html#a9c6829f944fce7f66a72fa0d9b64f7b8" target="_top" xlink:title="Gets OptionHistory object for a given symbol, date and resolution">
<polygon fill="white" stroke="black" points="19.5,-0.5 19.5,-30.5 185.5,-30.5 185.5,-0.5 19.5,-0.5"/>
<text text-anchor="start" x="27.5" y="-18.5" font-family="Helvetica,sans-Serif" font-size="10.00">QuantConnect.Research.Quant</text>
<text text-anchor="middle" x="102.5" y="-7.5" font-family="Helvetica,sans-Serif" font-size="10.00">Book.OptionHistory</text>
</a>
</g>
</g>
<!-- Node1&#45;&gt;Node5 -->
<g id="edge4" class="edge">
<title>Node1&#45;&gt;Node5</title>
<path fill="none" stroke="midnightblue" d="M278.73,-69.2C256.99,-59.75 229.9,-48.66 205,-40.5 194.05,-36.91 182.29,-33.56 170.79,-30.56"/>
<polygon fill="midnightblue" stroke="midnightblue" points="277.44,-72.46 288,-73.28 280.25,-66.05 277.44,-72.46"/>
</g>
</g>
</svg>
