<?xml version="1.0" encoding="UTF-8" standalone="no"?>
<!DOCTYPE svg PUBLIC "-//W3C//DTD SVG 1.1//EN"
 "http://www.w3.org/Graphics/SVG/1.1/DTD/svg11.dtd">
<!-- Generated by graphviz version 2.43.0 (0)
 -->
<!-- Title: QuantConnect.Lean.Engine.DataFeeds.SubscriptionCollection.UpdateAndGetFillForwardResolution Pages: 1 -->
<svg width="1637pt" height="74pt"
 viewBox="0.00 0.00 1637.00 74.00" xmlns="http://www.w3.org/2000/svg" xmlns:xlink="http://www.w3.org/1999/xlink">
<g id="graph0" class="graph" transform="scale(1 1) rotate(0) translate(4 70)">
<title>QuantConnect.Lean.Engine.DataFeeds.SubscriptionCollection.UpdateAndGetFillForwardResolution</title>
<polygon fill="white" stroke="transparent" points="-4,4 -4,-70 1633,-70 1633,4 -4,4"/>
<!-- Node1 -->
<g id="node1" class="node">
<title>Node1</title>
<g id="a_node1"><a xlink:title="Gets and updates the fill forward resolution by checking specified subscription configurations and se...">
<polygon fill="#bfbfbf" stroke="black" points="1436,-24.5 1436,-65.5 1629,-65.5 1629,-24.5 1436,-24.5"/>
<text text-anchor="start" x="1444" y="-53.5" font-family="Helvetica,sans-Serif" font-size="10.00">QuantConnect.Lean.Engine.</text>
<text text-anchor="start" x="1444" y="-42.5" font-family="Helvetica,sans-Serif" font-size="10.00">DataFeeds.SubscriptionCollection.</text>
<text text-anchor="middle" x="1532.5" y="-31.5" font-family="Helvetica,sans-Serif" font-size="10.00">UpdateAndGetFillForwardResolution</text>
</a>
</g>
</g>
<!-- Node2 -->
<g id="node2" class="node">
<title>Node2</title>
<g id="a_node2"><a xlink:href="classQuantConnect_1_1Lean_1_1Engine_1_1DataFeeds_1_1FileSystemDataFeed.html#a03afe9ed0b4f26f8e96d890fd0b17d1c" target="_top" xlink:title="Will add a fill forward enumerator if requested">
<polygon fill="white" stroke="black" points="1211,-24.5 1211,-65.5 1400,-65.5 1400,-24.5 1211,-24.5"/>
<text text-anchor="start" x="1219" y="-53.5" font-family="Helvetica,sans-Serif" font-size="10.00">QuantConnect.Lean.Engine.</text>
<text text-anchor="start" x="1219" y="-42.5" font-family="Helvetica,sans-Serif" font-size="10.00">DataFeeds.FileSystemDataFeed.Try</text>
<text text-anchor="middle" x="1305.5" y="-31.5" font-family="Helvetica,sans-Serif" font-size="10.00">AddFillForwardEnumerator</text>
</a>
</g>
</g>
<!-- Node1&#45;&gt;Node2 -->
<g id="edge1" class="edge">
<title>Node1&#45;&gt;Node2</title>
<path fill="none" stroke="midnightblue" d="M1425.71,-45C1417.13,-45 1408.5,-45 1400.01,-45"/>
<polygon fill="midnightblue" stroke="midnightblue" points="1425.75,-48.5 1435.75,-45 1425.75,-41.5 1425.75,-48.5"/>
</g>
<!-- Node3 -->
<g id="node3" class="node">
<title>Node3</title>
<g id="a_node3"><a xlink:href="classQuantConnect_1_1Lean_1_1Engine_1_1DataFeeds_1_1FileSystemDataFeed.html#a20c2620568ee71bc174cf83f0fb45ac1" target="_top" xlink:title="Configure the enumerator with aggregation/fill&#45;forward/filter behaviors. Returns new instance if re&#45;c...">
<polygon fill="white" stroke="black" points="954,-24.5 954,-65.5 1175,-65.5 1175,-24.5 954,-24.5"/>
<text text-anchor="start" x="962" y="-53.5" font-family="Helvetica,sans-Serif" font-size="10.00">QuantConnect.Lean.Engine.</text>
<text text-anchor="start" x="962" y="-42.5" font-family="Helvetica,sans-Serif" font-size="10.00">DataFeeds.FileSystemDataFeed.Configure</text>
<text text-anchor="middle" x="1064.5" y="-31.5" font-family="Helvetica,sans-Serif" font-size="10.00">Enumerator</text>
</a>
</g>
</g>
<!-- Node2&#45;&gt;Node3 -->
<g id="edge2" class="edge">
<title>Node2&#45;&gt;Node3</title>
<path fill="none" stroke="midnightblue" d="M1200.56,-45C1192.17,-45 1183.68,-45 1175.25,-45"/>
<polygon fill="midnightblue" stroke="midnightblue" points="1200.73,-48.5 1210.73,-45 1200.73,-41.5 1200.73,-48.5"/>
</g>
<!-- Node4 -->
<g id="node4" class="node">
<title>Node4</title>
<g id="a_node4"><a xlink:href="classQuantConnect_1_1Lean_1_1Engine_1_1DataFeeds_1_1FileSystemDataFeed.html#a4fc952e85ac49efbfa28a11d095ddf7a" target="_top" xlink:title="Creates a universe enumerator from the Subscription request, the underlying enumerator func and the f...">
<polygon fill="white" stroke="black" points="486,-24.5 486,-65.5 693,-65.5 693,-24.5 486,-24.5"/>
<text text-anchor="start" x="494" y="-53.5" font-family="Helvetica,sans-Serif" font-size="10.00">QuantConnect.Lean.Engine.</text>
<text text-anchor="start" x="494" y="-42.5" font-family="Helvetica,sans-Serif" font-size="10.00">DataFeeds.FileSystemDataFeed.Create</text>
<text text-anchor="middle" x="589.5" y="-31.5" font-family="Helvetica,sans-Serif" font-size="10.00">UniverseEnumerator</text>
</a>
</g>
</g>
<!-- Node3&#45;&gt;Node4 -->
<g id="edge3" class="edge">
<title>Node3&#45;&gt;Node4</title>
<path fill="none" stroke="midnightblue" d="M943.67,-50.33C934.98,-50.6 926.36,-50.83 918,-51 834.02,-52.73 812.98,-52.82 729,-51 717.45,-50.75 705.36,-50.38 693.34,-49.95"/>
<polygon fill="midnightblue" stroke="midnightblue" points="944,-53.83 953.88,-50 943.77,-46.83 944,-53.83"/>
</g>
<!-- Node7 -->
<g id="node7" class="node">
<title>Node7</title>
<g id="a_node7"><a xlink:href="classQuantConnect_1_1Lean_1_1Engine_1_1DataFeeds_1_1FileSystemDataFeed.html#a8b10a0ccb5a8884f80c527cf25c992f5" target="_top" xlink:title="If required will add a new enumerator for the underlying symbol">
<polygon fill="white" stroke="black" points="729,-0.5 729,-41.5 918,-41.5 918,-0.5 729,-0.5"/>
<text text-anchor="start" x="737" y="-29.5" font-family="Helvetica,sans-Serif" font-size="10.00">QuantConnect.Lean.Engine.</text>
<text text-anchor="start" x="737" y="-18.5" font-family="Helvetica,sans-Serif" font-size="10.00">DataFeeds.FileSystemDataFeed.Try</text>
<text text-anchor="middle" x="823.5" y="-7.5" font-family="Helvetica,sans-Serif" font-size="10.00">AppendUnderlyingEnumerator</text>
</a>
</g>
</g>
<!-- Node3&#45;&gt;Node7 -->
<g id="edge6" class="edge">
<title>Node3&#45;&gt;Node7</title>
<path fill="none" stroke="midnightblue" d="M943.73,-32.97C935.15,-32.11 926.57,-31.25 918.17,-30.41"/>
<polygon fill="midnightblue" stroke="midnightblue" points="943.49,-36.47 953.79,-33.98 944.19,-29.5 943.49,-36.47"/>
</g>
<!-- Node5 -->
<g id="node5" class="node">
<title>Node5</title>
<g id="a_node5"><a xlink:href="classQuantConnect_1_1Lean_1_1Engine_1_1DataFeeds_1_1FileSystemDataFeed.html#ad1ce25d62c996f68cf78a6d6a4c53907" target="_top" xlink:title="Creates a file based data enumerator for the given subscription request">
<polygon fill="white" stroke="black" points="243,-24.5 243,-65.5 450,-65.5 450,-24.5 243,-24.5"/>
<text text-anchor="start" x="251" y="-53.5" font-family="Helvetica,sans-Serif" font-size="10.00">QuantConnect.Lean.Engine.</text>
<text text-anchor="start" x="251" y="-42.5" font-family="Helvetica,sans-Serif" font-size="10.00">DataFeeds.FileSystemDataFeed.Create</text>
<text text-anchor="middle" x="346.5" y="-31.5" font-family="Helvetica,sans-Serif" font-size="10.00">Enumerator</text>
</a>
</g>
</g>
<!-- Node4&#45;&gt;Node5 -->
<g id="edge4" class="edge">
<title>Node4&#45;&gt;Node5</title>
<path fill="none" stroke="midnightblue" d="M475.68,-45C467.23,-45 458.73,-45 450.35,-45"/>
<polygon fill="midnightblue" stroke="midnightblue" points="475.94,-48.5 485.94,-45 475.94,-41.5 475.94,-48.5"/>
</g>
<!-- Node6 -->
<g id="node6" class="node">
<title>Node6</title>
<g id="a_node6"><a xlink:href="classQuantConnect_1_1Lean_1_1Engine_1_1DataFeeds_1_1FileSystemDataFeed.html#ac148e78fc814fca88c70a1835be51a25" target="_top" xlink:title="Creates a new subscription to provide data for the specified security.">
<polygon fill="white" stroke="black" points="0,-24.5 0,-65.5 207,-65.5 207,-24.5 0,-24.5"/>
<text text-anchor="start" x="8" y="-53.5" font-family="Helvetica,sans-Serif" font-size="10.00">QuantConnect.Lean.Engine.</text>
<text text-anchor="start" x="8" y="-42.5" font-family="Helvetica,sans-Serif" font-size="10.00">DataFeeds.FileSystemDataFeed.Create</text>
<text text-anchor="middle" x="103.5" y="-31.5" font-family="Helvetica,sans-Serif" font-size="10.00">Subscription</text>
</a>
</g>
</g>
<!-- Node5&#45;&gt;Node6 -->
<g id="edge5" class="edge">
<title>Node5&#45;&gt;Node6</title>
<path fill="none" stroke="midnightblue" d="M232.68,-45C224.23,-45 215.73,-45 207.35,-45"/>
<polygon fill="midnightblue" stroke="midnightblue" points="232.94,-48.5 242.94,-45 232.94,-41.5 232.94,-48.5"/>
</g>
<!-- Node7&#45;&gt;Node4 -->
<g id="edge7" class="edge">
<title>Node7&#45;&gt;Node4</title>
<path fill="none" stroke="midnightblue" d="M718.6,-31.75C710.18,-32.62 701.68,-33.5 693.28,-34.37"/>
<polygon fill="midnightblue" stroke="midnightblue" points="719.22,-35.2 728.81,-30.69 718.5,-28.24 719.22,-35.2"/>
</g>
</g>
</svg>
