<?xml version="1.0" encoding="UTF-8" standalone="no"?>
<!DOCTYPE svg PUBLIC "-//W3C//DTD SVG 1.1//EN"
 "http://www.w3.org/Graphics/SVG/1.1/DTD/svg11.dtd">
<!-- Generated by graphviz version 2.43.0 (0)
 -->
<!-- Title: QuantConnect.Python.BasePythonWrapper.HasAttr Pages: 1 -->
<svg width="555pt" height="39pt"
 viewBox="0.00 0.00 555.00 39.00" xmlns="http://www.w3.org/2000/svg" xmlns:xlink="http://www.w3.org/1999/xlink">
<g id="graph0" class="graph" transform="scale(1 1) rotate(0) translate(4 35)">
<title>QuantConnect.Python.BasePythonWrapper.HasAttr</title>
<polygon fill="white" stroke="transparent" points="-4,4 -4,-35 551,-35 551,4 -4,4"/>
<!-- Node1 -->
<g id="node1" class="node">
<title>Node1</title>
<g id="a_node1"><a xlink:title="Determines whether the Python instance has the specified attribute">
<polygon fill="#bfbfbf" stroke="black" points="398,-0.5 398,-30.5 547,-30.5 547,-0.5 398,-0.5"/>
<text text-anchor="start" x="406" y="-18.5" font-family="Helvetica,sans-Serif" font-size="10.00">QuantConnect.Python.Base</text>
<text text-anchor="middle" x="472.5" y="-7.5" font-family="Helvetica,sans-Serif" font-size="10.00">PythonWrapper.HasAttr</text>
</a>
</g>
</g>
<!-- Node2 -->
<g id="node2" class="node">
<title>Node2</title>
<g id="a_node2"><a xlink:href="classQuantConnect_1_1Indicators_1_1PythonIndicator.html#a542a2304679f5b100737bc590da148b5" target="_top" xlink:title="Sets the python implementation of the indicator">
<polygon fill="white" stroke="black" points="208,-0.5 208,-30.5 362,-30.5 362,-0.5 208,-0.5"/>
<text text-anchor="start" x="216" y="-18.5" font-family="Helvetica,sans-Serif" font-size="10.00">QuantConnect.Indicators.</text>
<text text-anchor="middle" x="285" y="-7.5" font-family="Helvetica,sans-Serif" font-size="10.00">PythonIndicator.SetIndicator</text>
</a>
</g>
</g>
<!-- Node1&#45;&gt;Node2 -->
<g id="edge1" class="edge">
<title>Node1&#45;&gt;Node2</title>
<path fill="none" stroke="midnightblue" d="M387.66,-15.5C379.19,-15.5 370.61,-15.5 362.23,-15.5"/>
<polygon fill="midnightblue" stroke="midnightblue" points="387.92,-19 397.92,-15.5 387.92,-12 387.92,-19"/>
</g>
<!-- Node3 -->
<g id="node3" class="node">
<title>Node3</title>
<g id="a_node3"><a xlink:href="classQuantConnect_1_1Indicators_1_1PythonIndicator.html#a47c06bfcffed60642613f148bf5a6461" target="_top" xlink:title="Initializes a new instance of the PythonIndicator class using the specified name.">
<polygon fill="white" stroke="black" points="0,-0.5 0,-30.5 172,-30.5 172,-0.5 0,-0.5"/>
<text text-anchor="start" x="8" y="-18.5" font-family="Helvetica,sans-Serif" font-size="10.00">QuantConnect.Indicators.</text>
<text text-anchor="middle" x="86" y="-7.5" font-family="Helvetica,sans-Serif" font-size="10.00">PythonIndicator.PythonIndicator</text>
</a>
</g>
</g>
<!-- Node2&#45;&gt;Node3 -->
<g id="edge2" class="edge">
<title>Node2&#45;&gt;Node3</title>
<path fill="none" stroke="midnightblue" d="M197.6,-15.5C189.15,-15.5 180.57,-15.5 172.13,-15.5"/>
<polygon fill="midnightblue" stroke="midnightblue" points="197.83,-19 207.83,-15.5 197.83,-12 197.83,-19"/>
</g>
</g>
</svg>
