<?xml version="1.0" encoding="UTF-8" standalone="no"?>
<!DOCTYPE svg PUBLIC "-//W3C//DTD SVG 1.1//EN"
 "http://www.w3.org/Graphics/SVG/1.1/DTD/svg11.dtd">
<!-- Generated by graphviz version 2.43.0 (0)
 -->
<!-- Title: QuantConnect.Securities.MarketHoursDatabase.GetDataTimeZone Pages: 1 -->
<svg width="1130pt" height="348pt"
 viewBox="0.00 0.00 1130.00 348.00" xmlns="http://www.w3.org/2000/svg" xmlns:xlink="http://www.w3.org/1999/xlink">
<g id="graph0" class="graph" transform="scale(1 1) rotate(0) translate(4 344)">
<title>QuantConnect.Securities.MarketHoursDatabase.GetDataTimeZone</title>
<polygon fill="white" stroke="transparent" points="-4,4 -4,-344 1126,-344 1126,4 -4,4"/>
<!-- Node1 -->
<g id="node1" class="node">
<title>Node1</title>
<g id="a_node1"><a xlink:title="Performs a lookup using the specified information and returns the data&#39;s time zone if found,...">
<polygon fill="#bfbfbf" stroke="black" points="0,-252 0,-282 218,-282 218,-252 0,-252"/>
<text text-anchor="start" x="8" y="-270" font-family="Helvetica,sans-Serif" font-size="10.00">QuantConnect.Securities.</text>
<text text-anchor="middle" x="109" y="-259" font-family="Helvetica,sans-Serif" font-size="10.00">MarketHoursDatabase.GetDataTimeZone</text>
</a>
</g>
</g>
<!-- Node2 -->
<g id="node2" class="node">
<title>Node2</title>
<g id="a_node2"><a xlink:href="classQuantConnect_1_1Securities_1_1MarketHoursDatabase.html#aa717adb9bb04be931913608ffd5a2733" target="_top" xlink:title="Gets the correct string symbol to use as a database key">
<polygon fill="white" stroke="black" points="714,-298.5 714,-339.5 906,-339.5 906,-298.5 714,-298.5"/>
<text text-anchor="start" x="722" y="-327.5" font-family="Helvetica,sans-Serif" font-size="10.00">QuantConnect.Securities.</text>
<text text-anchor="start" x="722" y="-316.5" font-family="Helvetica,sans-Serif" font-size="10.00">MarketHoursDatabase.GetDatabase</text>
<text text-anchor="middle" x="810" y="-305.5" font-family="Helvetica,sans-Serif" font-size="10.00">SymbolKey</text>
</a>
</g>
</g>
<!-- Node1&#45;&gt;Node2 -->
<g id="edge1" class="edge">
<title>Node1&#45;&gt;Node2</title>
<path fill="none" stroke="midnightblue" d="M188.74,-282.05C259.64,-294.8 366.85,-312.06 461,-319 542.41,-325 634.81,-324.66 703.94,-323.01"/>
<polygon fill="midnightblue" stroke="midnightblue" points="704.05,-326.51 713.96,-322.76 703.88,-319.51 704.05,-326.51"/>
</g>
<!-- Node3 -->
<g id="node3" class="node">
<title>Node3</title>
<g id="a_node3"><a xlink:href="classQuantConnect_1_1Securities_1_1MarketHoursDatabase.html#aeac6cf20dbffdbafd258f0d5f4473713" target="_top" xlink:title="Gets the entry for the specified market/symbol/security&#45;type">
<polygon fill="white" stroke="black" points="254,-181 254,-211 425,-211 425,-181 254,-181"/>
<text text-anchor="start" x="262" y="-199" font-family="Helvetica,sans-Serif" font-size="10.00">QuantConnect.Securities.</text>
<text text-anchor="middle" x="339.5" y="-188" font-family="Helvetica,sans-Serif" font-size="10.00">MarketHoursDatabase.GetEntry</text>
</a>
</g>
</g>
<!-- Node1&#45;&gt;Node3 -->
<g id="edge2" class="edge">
<title>Node1&#45;&gt;Node3</title>
<path fill="none" stroke="midnightblue" d="M158.46,-251.94C194.06,-240.88 242.58,-225.81 280.28,-214.09"/>
<polygon fill="midnightblue" stroke="midnightblue" points="281.6,-217.35 290.11,-211.04 279.52,-210.66 281.6,-217.35"/>
</g>
<!-- Node4 -->
<g id="node4" class="node">
<title>Node4</title>
<g id="a_node4"><a xlink:href="classQuantConnect_1_1Logging_1_1Log.html#af0e7955911bc7664b37661b2a303a9e3" target="_top" xlink:title="Log error">
<polygon fill="white" stroke="black" points="494.5,-230 494.5,-260 644.5,-260 644.5,-230 494.5,-230"/>
<text text-anchor="start" x="502.5" y="-248" font-family="Helvetica,sans-Serif" font-size="10.00">QuantConnect.Logging.Log.</text>
<text text-anchor="middle" x="569.5" y="-237" font-family="Helvetica,sans-Serif" font-size="10.00">Error</text>
</a>
</g>
</g>
<!-- Node3&#45;&gt;Node4 -->
<g id="edge3" class="edge">
<title>Node3&#45;&gt;Node4</title>
<path fill="none" stroke="midnightblue" d="M410.46,-211.03C435.19,-216.35 463.18,-222.37 488.67,-227.84"/>
<polygon fill="midnightblue" stroke="midnightblue" points="488.16,-231.31 498.68,-229.99 489.63,-224.47 488.16,-231.31"/>
</g>
<!-- Node6 -->
<g id="node6" class="node">
<title>Node6</title>
<g id="a_node6"><a xlink:href="classQuantConnect_1_1Messages_1_1MarketHoursDatabase.html#af07138844a7ebc1a342f8b56a6be9917" target="_top" xlink:title="Returns a string message saying it was impossible to locate exchange hours for the given key....">
<polygon fill="white" stroke="black" points="461,-181 461,-211 678,-211 678,-181 461,-181"/>
<text text-anchor="start" x="469" y="-199" font-family="Helvetica,sans-Serif" font-size="10.00">QuantConnect.Messages.Market</text>
<text text-anchor="middle" x="569.5" y="-188" font-family="Helvetica,sans-Serif" font-size="10.00">HoursDatabase.ExchangeHoursNotFound</text>
</a>
</g>
</g>
<!-- Node3&#45;&gt;Node6 -->
<g id="edge5" class="edge">
<title>Node3&#45;&gt;Node6</title>
<path fill="none" stroke="midnightblue" d="M425.07,-196C433.45,-196 442.06,-196 450.7,-196"/>
<polygon fill="midnightblue" stroke="midnightblue" points="450.84,-199.5 460.84,-196 450.84,-192.5 450.84,-199.5"/>
</g>
<!-- Node7 -->
<g id="node7" class="node">
<title>Node7</title>
<g id="a_node7"><a xlink:href="classQuantConnect_1_1Securities_1_1SymbolPropertiesDatabase.html#aee26fb588793fd311c44eb8b2909cc33" target="_top" xlink:title="Gets the instance of the SymbolPropertiesDatabase class produced by reading in the symbol properties ...">
<polygon fill="white" stroke="black" points="481,-120.5 481,-161.5 658,-161.5 658,-120.5 481,-120.5"/>
<text text-anchor="start" x="489" y="-149.5" font-family="Helvetica,sans-Serif" font-size="10.00">QuantConnect.Securities.</text>
<text text-anchor="start" x="489" y="-138.5" font-family="Helvetica,sans-Serif" font-size="10.00">SymbolPropertiesDatabase.From</text>
<text text-anchor="middle" x="569.5" y="-127.5" font-family="Helvetica,sans-Serif" font-size="10.00">DataFolder</text>
</a>
</g>
</g>
<!-- Node3&#45;&gt;Node7 -->
<g id="edge6" class="edge">
<title>Node3&#45;&gt;Node7</title>
<path fill="none" stroke="midnightblue" d="M402.8,-180.97C424.59,-175.72 449.57,-169.69 473.42,-163.94"/>
<polygon fill="midnightblue" stroke="midnightblue" points="474.3,-167.33 483.2,-161.58 472.65,-160.52 474.3,-167.33"/>
</g>
<!-- Node11 -->
<g id="node11" class="node">
<title>Node11</title>
<g id="a_node11"><a xlink:href="classQuantConnect_1_1Messages_1_1MarketHoursDatabase.html#a656d4c4976d6c12d2d865ad34fb23c42" target="_top" xlink:title="Returns a string message that suggests the given market based on the provided ticker">
<polygon fill="white" stroke="black" points="465,-60.5 465,-101.5 674,-101.5 674,-60.5 465,-60.5"/>
<text text-anchor="start" x="473" y="-89.5" font-family="Helvetica,sans-Serif" font-size="10.00">QuantConnect.Messages.Market</text>
<text text-anchor="start" x="473" y="-78.5" font-family="Helvetica,sans-Serif" font-size="10.00">HoursDatabase.SuggestedMarketBased</text>
<text text-anchor="middle" x="569.5" y="-67.5" font-family="Helvetica,sans-Serif" font-size="10.00">OnTicker</text>
</a>
</g>
</g>
<!-- Node3&#45;&gt;Node11 -->
<g id="edge10" class="edge">
<title>Node3&#45;&gt;Node11</title>
<path fill="none" stroke="midnightblue" d="M357.67,-180.98C380.03,-162.13 420.99,-129.99 461,-111 465.37,-108.93 469.9,-106.97 474.53,-105.14"/>
<polygon fill="midnightblue" stroke="midnightblue" points="476.01,-108.32 484.14,-101.53 473.55,-101.77 476.01,-108.32"/>
</g>
<!-- Node12 -->
<g id="node12" class="node">
<title>Node12</title>
<g id="a_node12"><a xlink:href="classQuantConnect_1_1Securities_1_1MarketHoursDatabase.html#a3eedd1459368e8f50da2cedfc7508006" target="_top" xlink:title="Tries to get the entry for the specified market/symbol/security&#45;type">
<polygon fill="white" stroke="black" points="477,-279 477,-309 662,-309 662,-279 477,-279"/>
<text text-anchor="start" x="485" y="-297" font-family="Helvetica,sans-Serif" font-size="10.00">QuantConnect.Securities.</text>
<text text-anchor="middle" x="569.5" y="-286" font-family="Helvetica,sans-Serif" font-size="10.00">MarketHoursDatabase.TryGetEntry</text>
</a>
</g>
</g>
<!-- Node3&#45;&gt;Node12 -->
<g id="edge11" class="edge">
<title>Node3&#45;&gt;Node12</title>
<path fill="none" stroke="midnightblue" d="M360.76,-211.05C383.89,-227.54 423.39,-253.69 461,-269 467.32,-271.57 473.96,-273.91 480.71,-276.04"/>
<polygon fill="midnightblue" stroke="midnightblue" points="480.08,-279.5 490.66,-278.99 482.07,-272.79 480.08,-279.5"/>
</g>
<!-- Node13 -->
<g id="node13" class="node">
<title>Node13</title>
<g id="a_node13"><a xlink:href="classQuantConnect_1_1Securities_1_1SymbolPropertiesDatabase.html#a5a7baeddd03bfc7fb60cef8ab2e6834b" target="_top" xlink:title="Tries to get the market for the provided symbol/security type">
<polygon fill="white" stroke="black" points="486,-0.5 486,-41.5 653,-41.5 653,-0.5 486,-0.5"/>
<text text-anchor="start" x="494" y="-29.5" font-family="Helvetica,sans-Serif" font-size="10.00">QuantConnect.Securities.</text>
<text text-anchor="start" x="494" y="-18.5" font-family="Helvetica,sans-Serif" font-size="10.00">SymbolPropertiesDatabase.Try</text>
<text text-anchor="middle" x="569.5" y="-7.5" font-family="Helvetica,sans-Serif" font-size="10.00">GetMarket</text>
</a>
</g>
</g>
<!-- Node3&#45;&gt;Node13 -->
<g id="edge13" class="edge">
<title>Node3&#45;&gt;Node13</title>
<path fill="none" stroke="midnightblue" d="M348.9,-180.68C365.98,-150.99 407.7,-85.52 461,-51 465.9,-47.83 471.13,-44.99 476.55,-42.44"/>
<polygon fill="midnightblue" stroke="midnightblue" points="478.03,-45.62 485.82,-38.44 475.26,-39.19 478.03,-45.62"/>
</g>
<!-- Node5 -->
<g id="node5" class="node">
<title>Node5</title>
<g id="a_node5"><a xlink:href="interfaceQuantConnect_1_1Logging_1_1ILogHandler.html#a35373a0c5d76031fa5ccf5dc39e5c25d" target="_top" xlink:title="Write error message to log">
<polygon fill="white" stroke="black" points="735,-230 735,-260 885,-260 885,-230 735,-230"/>
<text text-anchor="start" x="743" y="-248" font-family="Helvetica,sans-Serif" font-size="10.00">QuantConnect.Logging.ILog</text>
<text text-anchor="middle" x="810" y="-237" font-family="Helvetica,sans-Serif" font-size="10.00">Handler.Error</text>
</a>
</g>
</g>
<!-- Node4&#45;&gt;Node5 -->
<g id="edge4" class="edge">
<title>Node4&#45;&gt;Node5</title>
<path fill="none" stroke="midnightblue" d="M644.66,-245C670.01,-245 698.55,-245 724.64,-245"/>
<polygon fill="midnightblue" stroke="midnightblue" points="724.89,-248.5 734.89,-245 724.89,-241.5 724.89,-248.5"/>
</g>
<!-- Node8 -->
<g id="node8" class="node">
<title>Node8</title>
<g id="a_node8"><a xlink:href="classQuantConnect_1_1Globals.html#ae01b5c94ef475a21ab1a62fe1b04ea5c" target="_top" xlink:title="Helper method that will build a data folder path checking if it exists on the cache folder else will ...">
<polygon fill="white" stroke="black" points="737,-153 737,-183 883,-183 883,-153 737,-153"/>
<text text-anchor="start" x="745" y="-171" font-family="Helvetica,sans-Serif" font-size="10.00">QuantConnect.Globals.Get</text>
<text text-anchor="middle" x="810" y="-160" font-family="Helvetica,sans-Serif" font-size="10.00">DataFolderPath</text>
</a>
</g>
</g>
<!-- Node7&#45;&gt;Node8 -->
<g id="edge7" class="edge">
<title>Node7&#45;&gt;Node8</title>
<path fill="none" stroke="midnightblue" d="M658.29,-150.94C680.64,-153.47 704.57,-156.18 726.63,-158.68"/>
<polygon fill="midnightblue" stroke="midnightblue" points="726.3,-162.16 736.63,-159.81 727.08,-155.2 726.3,-162.16"/>
</g>
<!-- Node9 -->
<g id="node9" class="node">
<title>Node9</title>
<g id="a_node9"><a xlink:href="classQuantConnect_1_1Securities_1_1SymbolPropertiesDatabase.html#a1658f93bf0dce7022bb7584e1a95cc7a" target="_top" xlink:title="Initialize a new instance of SymbolPropertiesDatabase using the given file">
<polygon fill="white" stroke="black" points="715.5,-92.5 715.5,-133.5 904.5,-133.5 904.5,-92.5 715.5,-92.5"/>
<text text-anchor="start" x="723.5" y="-121.5" font-family="Helvetica,sans-Serif" font-size="10.00">QuantConnect.Securities.</text>
<text text-anchor="start" x="723.5" y="-110.5" font-family="Helvetica,sans-Serif" font-size="10.00">SymbolPropertiesDatabase.Symbol</text>
<text text-anchor="middle" x="810" y="-99.5" font-family="Helvetica,sans-Serif" font-size="10.00">PropertiesDatabase</text>
</a>
</g>
</g>
<!-- Node7&#45;&gt;Node9 -->
<g id="edge8" class="edge">
<title>Node7&#45;&gt;Node9</title>
<path fill="none" stroke="midnightblue" d="M658.29,-130.69C673.55,-128.9 689.54,-127.02 705.17,-125.19"/>
<polygon fill="midnightblue" stroke="midnightblue" points="705.86,-128.63 715.38,-123.99 705.04,-121.68 705.86,-128.63"/>
</g>
<!-- Node10 -->
<g id="node10" class="node">
<title>Node10</title>
<g id="a_node10"><a xlink:href="classQuantConnect_1_1Messages_1_1SymbolPropertiesDatabase.html#a6abceae517a349a28223bfc2dc9106d7" target="_top" xlink:title="Returns a string saying a duplicated key was found while processing the given file">
<polygon fill="white" stroke="black" points="942,-92.5 942,-133.5 1122,-133.5 1122,-92.5 942,-92.5"/>
<text text-anchor="start" x="950" y="-121.5" font-family="Helvetica,sans-Serif" font-size="10.00">QuantConnect.Messages.Symbol</text>
<text text-anchor="start" x="950" y="-110.5" font-family="Helvetica,sans-Serif" font-size="10.00">PropertiesDatabase.DuplicateKey</text>
<text text-anchor="middle" x="1032" y="-99.5" font-family="Helvetica,sans-Serif" font-size="10.00">InFile</text>
</a>
</g>
</g>
<!-- Node9&#45;&gt;Node10 -->
<g id="edge9" class="edge">
<title>Node9&#45;&gt;Node10</title>
<path fill="none" stroke="midnightblue" d="M904.62,-113C913.54,-113 922.61,-113 931.58,-113"/>
<polygon fill="midnightblue" stroke="midnightblue" points="931.66,-116.5 941.66,-113 931.66,-109.5 931.66,-116.5"/>
</g>
<!-- Node12&#45;&gt;Node2 -->
<g id="edge12" class="edge">
<title>Node12&#45;&gt;Node2</title>
<path fill="none" stroke="midnightblue" d="M662.03,-303.59C675.66,-305.02 689.81,-306.51 703.7,-307.96"/>
<polygon fill="midnightblue" stroke="midnightblue" points="703.45,-311.46 713.76,-309.02 704.18,-304.49 703.45,-311.46"/>
</g>
</g>
</svg>
