<?xml version="1.0" encoding="UTF-8" standalone="no"?>
<!DOCTYPE svg PUBLIC "-//W3C//DTD SVG 1.1//EN"
 "http://www.w3.org/Graphics/SVG/1.1/DTD/svg11.dtd">
<!-- Generated by graphviz version 2.43.0 (0)
 -->
<!-- Title: QuantConnect.Lean.Engine.DataFeeds.FileSystemDataFeed.CreateUniverseEnumerator Pages: 1 -->
<!--zoomable 500 -->
<svg id="main" version="1.1" xmlns="http://www.w3.org/2000/svg" xmlns:xlink="http://www.w3.org/1999/xlink" xml:space="preserve" onload="init(evt)">
<style type="text/css"><![CDATA[
.edge:hover path { stroke: red; }
.edge:hover polygon { stroke: red; fill: red; }
]]></style>
<script type="text/javascript"><![CDATA[
var edges = document.getElementsByTagName('g');
if (edges && edges.length) {
  for (var i=0;i<edges.length;i++) {
    if (edges[i].id.substr(0,4)=='edge') {
      edges[i].setAttribute('class','edge');
    }
  }
}
]]></script>
        <defs>
                <circle id="rim" cx="0" cy="0" r="7"/>
                <circle id="rim2" cx="0" cy="0" r="3.5"/>
                <g id="zoomPlus">
                        <use xlink:href="#rim" fill="#404040">
                                <set attributeName="fill" to="#808080" begin="zoomplus.mouseover" end="zoomplus.mouseout"/>
                        </use>
                        <path d="M-4,0h8M0,-4v8" fill="none" stroke="white" stroke-width="1.5" pointer-events="none"/>
                </g>
                <g id="zoomMin">
                        <use xlink:href="#rim" fill="#404040">
                                <set attributeName="fill" to="#808080" begin="zoomminus.mouseover" end="zoomminus.mouseout"/>
                        </use>
                        <path d="M-4,0h8" fill="none" stroke="white" stroke-width="1.5" pointer-events="none"/>
                </g>
                <g id="dirArrow">
                        <path fill="none" stroke="white" stroke-width="1.5" d="M0,-3.0v7 M-2.5,-0.5L0,-3.0L2.5,-0.5"/>
                </g>
               <g id="resetDef">
                       <use xlink:href="#rim2" fill="#404040">
                               <set attributeName="fill" to="#808080" begin="reset.mouseover" end="reset.mouseout"/>
                       </use>
               </g>
        </defs>

<script type="text/javascript">
var viewWidth = 1473;
var viewHeight = 500;
var sectionId = 'dynsection-5';
</script>
<script xlink:href="svgpan.js"/>
<svg id="graph" class="graph">
<g id="viewport">
<title>QuantConnect.Lean.Engine.DataFeeds.FileSystemDataFeed.CreateUniverseEnumerator</title>
<polygon fill="white" stroke="transparent" points="-4,4 -4,-496 1469,-496 1469,4 -4,4"/>
<!-- Node1 -->
<g id="node1" class="node">
<title>Node1</title>
<g id="a_node1"><a xlink:title="Creates a universe enumerator from the Subscription request, the underlying enumerator func and the f...">
<polygon fill="#bfbfbf" stroke="black" points="0,-343 0,-384 207,-384 207,-343 0,-343"/>
<text text-anchor="start" x="8" y="-372" font-family="Helvetica,sans-Serif" font-size="10.00">QuantConnect.Lean.Engine.</text>
<text text-anchor="start" x="8" y="-361" font-family="Helvetica,sans-Serif" font-size="10.00">DataFeeds.FileSystemDataFeed.Create</text>
<text text-anchor="middle" x="103.5" y="-350" font-family="Helvetica,sans-Serif" font-size="10.00">UniverseEnumerator</text>
</a>
</g>
</g>
<!-- Node2 -->
<g id="node2" class="node">
<title>Node2</title>
<g id="a_node2"><a xlink:href="classQuantConnect_1_1Lean_1_1Engine_1_1DataFeeds_1_1FileSystemDataFeed.html#a20c2620568ee71bc174cf83f0fb45ac1" target="_top" xlink:title="Configure the enumerator with aggregation/fill&#45;forward/filter behaviors. Returns new instance if re&#45;c...">
<polygon fill="white" stroke="black" points="497,-366 497,-407 718,-407 718,-366 497,-366"/>
<text text-anchor="start" x="505" y="-395" font-family="Helvetica,sans-Serif" font-size="10.00">QuantConnect.Lean.Engine.</text>
<text text-anchor="start" x="505" y="-384" font-family="Helvetica,sans-Serif" font-size="10.00">DataFeeds.FileSystemDataFeed.Configure</text>
<text text-anchor="middle" x="607.5" y="-373" font-family="Helvetica,sans-Serif" font-size="10.00">Enumerator</text>
</a>
</g>
</g>
<!-- Node1&#45;&gt;Node2 -->
<g id="edge1" class="edge">
<title>Node1&#45;&gt;Node2</title>
<path fill="none" stroke="midnightblue" d="M206.33,-384.01C218.64,-385.86 231.08,-387.43 243,-388.5 324.03,-395.75 415.63,-395.2 486.6,-392.85"/>
<polygon fill="midnightblue" stroke="midnightblue" points="487.04,-396.34 496.92,-392.5 486.8,-389.34 487.04,-396.34"/>
</g>
<!-- Node5 -->
<g id="node5" class="node">
<title>Node5</title>
<g id="a_node5"><a xlink:href="classQuantConnect_1_1Util_1_1LeanData.html#a45d5455942a1261f332547548a7682d9" target="_top" xlink:title="Helper method to determine if we should use strict end time">
<polygon fill="white" stroke="black" points="1049,-461.5 1049,-491.5 1207,-491.5 1207,-461.5 1049,-461.5"/>
<text text-anchor="start" x="1057" y="-479.5" font-family="Helvetica,sans-Serif" font-size="10.00">QuantConnect.Util.LeanData.</text>
<text text-anchor="middle" x="1128" y="-468.5" font-family="Helvetica,sans-Serif" font-size="10.00">UseDailyStrictEndTimes</text>
</a>
</g>
</g>
<!-- Node1&#45;&gt;Node5 -->
<g id="edge25" class="edge">
<title>Node1&#45;&gt;Node5</title>
<path fill="none" stroke="midnightblue" d="M164.9,-384.07C188.95,-391.55 217.04,-399.41 243,-404.5 530.21,-460.82 878.26,-473.2 1038.47,-475.84"/>
<polygon fill="midnightblue" stroke="midnightblue" points="1038.69,-479.34 1048.74,-476 1038.8,-472.34 1038.69,-479.34"/>
</g>
<!-- Node11 -->
<g id="node11" class="node">
<title>Node11</title>
<g id="a_node11"><a xlink:href="interfaceQuantConnect_1_1Data_1_1ISubscriptionEnumeratorFactory.html#a97aa4b46f0d1627863b644dfdbce5dac" target="_top" xlink:title="Creates an enumerator to read the specified request">
<polygon fill="white" stroke="black" points="252,-348.5 252,-378.5 452,-378.5 452,-348.5 252,-348.5"/>
<text text-anchor="start" x="260" y="-366.5" font-family="Helvetica,sans-Serif" font-size="10.00">QuantConnect.Data.ISubscription</text>
<text text-anchor="middle" x="352" y="-355.5" font-family="Helvetica,sans-Serif" font-size="10.00">EnumeratorFactory.CreateEnumerator</text>
</a>
</g>
</g>
<!-- Node1&#45;&gt;Node11 -->
<g id="edge10" class="edge">
<title>Node1&#45;&gt;Node11</title>
<path fill="none" stroke="midnightblue" d="M207.25,-363.5C218.7,-363.5 230.38,-363.5 241.9,-363.5"/>
<polygon fill="midnightblue" stroke="midnightblue" points="241.97,-367 251.97,-363.5 241.97,-360 241.97,-367"/>
</g>
<!-- Node12 -->
<g id="node12" class="node">
<title>Node12</title>
<g id="a_node12"><a xlink:href="classQuantConnect_1_1Lean_1_1Engine_1_1DataFeeds_1_1Enumerators_1_1Factories_1_1BaseDataSubscriptionEnumeratorFactory.html#a24f4d815218e8125f16d05a685ca1898" target="_top" xlink:title="Creates an enumerator to read the specified request">
<polygon fill="white" stroke="black" points="243,-277.5 243,-329.5 461,-329.5 461,-277.5 243,-277.5"/>
<text text-anchor="start" x="251" y="-317.5" font-family="Helvetica,sans-Serif" font-size="10.00">QuantConnect.Lean.Engine.</text>
<text text-anchor="start" x="251" y="-306.5" font-family="Helvetica,sans-Serif" font-size="10.00">DataFeeds.Enumerators.Factories.</text>
<text text-anchor="start" x="251" y="-295.5" font-family="Helvetica,sans-Serif" font-size="10.00">BaseDataSubscriptionEnumeratorFactory.</text>
<text text-anchor="middle" x="352" y="-284.5" font-family="Helvetica,sans-Serif" font-size="10.00">CreateEnumerator</text>
</a>
</g>
</g>
<!-- Node1&#45;&gt;Node12 -->
<g id="edge11" class="edge">
<title>Node1&#45;&gt;Node12</title>
<path fill="none" stroke="midnightblue" d="M188.99,-342.94C203.51,-339.4 218.82,-335.67 234.02,-331.97"/>
<polygon fill="midnightblue" stroke="midnightblue" points="235.08,-335.32 243.97,-329.55 233.43,-328.52 235.08,-335.32"/>
</g>
<!-- Node13 -->
<g id="node13" class="node">
<title>Node13</title>
<g id="a_node13"><a xlink:href="classQuantConnect_1_1Lean_1_1Engine_1_1DataFeeds_1_1FileSystemDataFeed.html#a8b10a0ccb5a8884f80c527cf25c992f5" target="_top" xlink:title="If required will add a new enumerator for the underlying symbol">
<polygon fill="white" stroke="black" points="257.5,-217 257.5,-258 446.5,-258 446.5,-217 257.5,-217"/>
<text text-anchor="start" x="265.5" y="-246" font-family="Helvetica,sans-Serif" font-size="10.00">QuantConnect.Lean.Engine.</text>
<text text-anchor="start" x="265.5" y="-235" font-family="Helvetica,sans-Serif" font-size="10.00">DataFeeds.FileSystemDataFeed.Try</text>
<text text-anchor="middle" x="352" y="-224" font-family="Helvetica,sans-Serif" font-size="10.00">AppendUnderlyingEnumerator</text>
</a>
</g>
</g>
<!-- Node1&#45;&gt;Node13 -->
<g id="edge12" class="edge">
<title>Node1&#45;&gt;Node13</title>
<path fill="none" stroke="midnightblue" d="M128.96,-342.71C155.48,-321.13 199.82,-287.75 243,-267.5 247.39,-265.44 251.96,-263.5 256.61,-261.67"/>
<polygon fill="midnightblue" stroke="midnightblue" points="258.13,-264.84 266.28,-258.07 255.69,-258.28 258.13,-264.84"/>
</g>
<!-- Node3 -->
<g id="node3" class="node">
<title>Node3</title>
<g id="a_node3"><a xlink:href="classQuantConnect_1_1Lean_1_1Engine_1_1DataFeeds_1_1FileSystemDataFeed.html#a03afe9ed0b4f26f8e96d890fd0b17d1c" target="_top" xlink:title="Will add a fill forward enumerator if requested">
<polygon fill="white" stroke="black" points="768,-405 768,-446 957,-446 957,-405 768,-405"/>
<text text-anchor="start" x="776" y="-434" font-family="Helvetica,sans-Serif" font-size="10.00">QuantConnect.Lean.Engine.</text>
<text text-anchor="start" x="776" y="-423" font-family="Helvetica,sans-Serif" font-size="10.00">DataFeeds.FileSystemDataFeed.Try</text>
<text text-anchor="middle" x="862.5" y="-412" font-family="Helvetica,sans-Serif" font-size="10.00">AddFillForwardEnumerator</text>
</a>
</g>
</g>
<!-- Node2&#45;&gt;Node3 -->
<g id="edge2" class="edge">
<title>Node2&#45;&gt;Node3</title>
<path fill="none" stroke="midnightblue" d="M718.37,-403.44C731.54,-405.47 744.96,-407.54 758.05,-409.55"/>
<polygon fill="midnightblue" stroke="midnightblue" points="757.56,-413.02 767.97,-411.08 758.62,-406.1 757.56,-413.02"/>
</g>
<!-- Node6 -->
<g id="node6" class="node">
<title>Node6</title>
<g id="a_node6"><a xlink:href="classQuantConnect_1_1Lean_1_1Engine_1_1DataFeeds_1_1Enumerators_1_1SubscriptionFilterEnumerator.html#a489162658ae5cb3ea3b12e66b104a3f2" target="_top" xlink:title="Convenience method to wrap the enumerator and attach the data filter event to log and alery users of ...">
<polygon fill="white" stroke="black" points="764,-345 764,-386 961,-386 961,-345 764,-345"/>
<text text-anchor="start" x="772" y="-374" font-family="Helvetica,sans-Serif" font-size="10.00">QuantConnect.Lean.Engine.</text>
<text text-anchor="start" x="772" y="-363" font-family="Helvetica,sans-Serif" font-size="10.00">DataFeeds.Enumerators.Subscription</text>
<text text-anchor="middle" x="862.5" y="-352" font-family="Helvetica,sans-Serif" font-size="10.00">FilterEnumerator.WrapForDataFeed</text>
</a>
</g>
</g>
<!-- Node2&#45;&gt;Node6 -->
<g id="edge5" class="edge">
<title>Node2&#45;&gt;Node6</title>
<path fill="none" stroke="midnightblue" d="M718.37,-377.38C730.02,-376.41 741.87,-375.43 753.5,-374.46"/>
<polygon fill="midnightblue" stroke="midnightblue" points="753.98,-377.94 763.66,-373.62 753.4,-370.96 753.98,-377.94"/>
</g>
<!-- Node4 -->
<g id="node4" class="node">
<title>Node4</title>
<g id="a_node4"><a xlink:href="classQuantConnect_1_1Lean_1_1Engine_1_1DataFeeds_1_1SubscriptionCollection.html#a003d18530854d890b5c0733ff10a6f35" target="_top" xlink:title="Gets and updates the fill forward resolution by checking specified subscription configurations and se...">
<polygon fill="white" stroke="black" points="1031.5,-401 1031.5,-442 1224.5,-442 1224.5,-401 1031.5,-401"/>
<text text-anchor="start" x="1039.5" y="-430" font-family="Helvetica,sans-Serif" font-size="10.00">QuantConnect.Lean.Engine.</text>
<text text-anchor="start" x="1039.5" y="-419" font-family="Helvetica,sans-Serif" font-size="10.00">DataFeeds.SubscriptionCollection.</text>
<text text-anchor="middle" x="1128" y="-408" font-family="Helvetica,sans-Serif" font-size="10.00">UpdateAndGetFillForwardResolution</text>
</a>
</g>
</g>
<!-- Node3&#45;&gt;Node4 -->
<g id="edge3" class="edge">
<title>Node3&#45;&gt;Node4</title>
<path fill="none" stroke="midnightblue" d="M957.14,-424.08C977.96,-423.76 1000.16,-423.43 1021.42,-423.1"/>
<polygon fill="midnightblue" stroke="midnightblue" points="1021.49,-426.6 1031.44,-422.95 1021.38,-419.6 1021.49,-426.6"/>
</g>
<!-- Node3&#45;&gt;Node5 -->
<g id="edge4" class="edge">
<title>Node3&#45;&gt;Node5</title>
<path fill="none" stroke="midnightblue" d="M957.14,-443.62C983.9,-448.8 1012.95,-454.43 1039.34,-459.53"/>
<polygon fill="midnightblue" stroke="midnightblue" points="1038.83,-463 1049.31,-461.46 1040.16,-456.13 1038.83,-463"/>
</g>
<!-- Node7 -->
<g id="node7" class="node">
<title>Node7</title>
<g id="a_node7"><a xlink:href="classQuantConnect_1_1Logging_1_1Log.html#af0e7955911bc7664b37661b2a303a9e3" target="_top" xlink:title="Log error">
<polygon fill="white" stroke="black" points="1053,-241.5 1053,-271.5 1203,-271.5 1203,-241.5 1053,-241.5"/>
<text text-anchor="start" x="1061" y="-259.5" font-family="Helvetica,sans-Serif" font-size="10.00">QuantConnect.Logging.Log.</text>
<text text-anchor="middle" x="1128" y="-248.5" font-family="Helvetica,sans-Serif" font-size="10.00">Error</text>
</a>
</g>
</g>
<!-- Node6&#45;&gt;Node7 -->
<g id="edge6" class="edge">
<title>Node6&#45;&gt;Node7</title>
<path fill="none" stroke="midnightblue" d="M955.38,-344.89C960.88,-342.14 966.14,-339.03 971,-335.5 994.35,-318.57 983.1,-297.65 1007,-281.5 1017.82,-274.19 1030.35,-268.95 1043.14,-265.2"/>
<polygon fill="midnightblue" stroke="midnightblue" points="1044.17,-268.55 1052.95,-262.62 1042.39,-261.78 1044.17,-268.55"/>
</g>
<!-- Node9 -->
<g id="node9" class="node">
<title>Node9</title>
<g id="a_node9"><a xlink:href="interfaceQuantConnect_1_1Lean_1_1Engine_1_1Results_1_1IResultHandler.html#a39001e16aa61bfdefb3f42503e46cf06" target="_top" xlink:title="Send a runtime error message back to the browser highlighted with in red">
<polygon fill="white" stroke="black" points="1031,-351.5 1031,-381.5 1225,-381.5 1225,-351.5 1031,-351.5"/>
<text text-anchor="start" x="1039" y="-369.5" font-family="Helvetica,sans-Serif" font-size="10.00">QuantConnect.Lean.Engine.</text>
<text text-anchor="middle" x="1128" y="-358.5" font-family="Helvetica,sans-Serif" font-size="10.00">Results.IResultHandler.RuntimeError</text>
</a>
</g>
</g>
<!-- Node6&#45;&gt;Node9 -->
<g id="edge8" class="edge">
<title>Node6&#45;&gt;Node9</title>
<path fill="none" stroke="midnightblue" d="M961.24,-365.87C980.58,-365.94 1000.96,-366.02 1020.56,-366.1"/>
<polygon fill="midnightblue" stroke="midnightblue" points="1020.72,-369.6 1030.73,-366.13 1020.74,-362.6 1020.72,-369.6"/>
</g>
<!-- Node10 -->
<g id="node10" class="node">
<title>Node10</title>
<g id="a_node10"><a xlink:href="classQuantConnect_1_1Lean_1_1Engine_1_1DataFeeds_1_1Enumerators_1_1SubscriptionFilterEnumerator.html#ab41f26d23f7f81622f4cb448eb9fdcee" target="_top" xlink:title="Initializes a new instance of the SubscriptionFilterEnumerator class">
<polygon fill="white" stroke="black" points="1007,-291 1007,-332 1249,-332 1249,-291 1007,-291"/>
<text text-anchor="start" x="1015" y="-320" font-family="Helvetica,sans-Serif" font-size="10.00">QuantConnect.Lean.Engine.</text>
<text text-anchor="start" x="1015" y="-309" font-family="Helvetica,sans-Serif" font-size="10.00">DataFeeds.Enumerators.Subscription</text>
<text text-anchor="middle" x="1128" y="-298" font-family="Helvetica,sans-Serif" font-size="10.00">FilterEnumerator.SubscriptionFilterEnumerator</text>
</a>
</g>
</g>
<!-- Node6&#45;&gt;Node10 -->
<g id="edge9" class="edge">
<title>Node6&#45;&gt;Node10</title>
<path fill="none" stroke="midnightblue" d="M961.24,-345.47C979.37,-341.75 998.42,-337.85 1016.88,-334.07"/>
<polygon fill="midnightblue" stroke="midnightblue" points="1017.68,-337.48 1026.77,-332.04 1016.27,-330.62 1017.68,-337.48"/>
</g>
<!-- Node8 -->
<g id="node8" class="node">
<title>Node8</title>
<g id="a_node8"><a xlink:href="interfaceQuantConnect_1_1Logging_1_1ILogHandler.html#a35373a0c5d76031fa5ccf5dc39e5c25d" target="_top" xlink:title="Write error message to log">
<polygon fill="white" stroke="black" points="1300,-241.5 1300,-271.5 1450,-271.5 1450,-241.5 1300,-241.5"/>
<text text-anchor="start" x="1308" y="-259.5" font-family="Helvetica,sans-Serif" font-size="10.00">QuantConnect.Logging.ILog</text>
<text text-anchor="middle" x="1375" y="-248.5" font-family="Helvetica,sans-Serif" font-size="10.00">Handler.Error</text>
</a>
</g>
</g>
<!-- Node7&#45;&gt;Node8 -->
<g id="edge7" class="edge">
<title>Node7&#45;&gt;Node8</title>
<path fill="none" stroke="midnightblue" d="M1203.17,-256.5C1230.39,-256.5 1261.4,-256.5 1289.46,-256.5"/>
<polygon fill="midnightblue" stroke="midnightblue" points="1289.66,-260 1299.66,-256.5 1289.66,-253 1289.66,-260"/>
</g>
<!-- Node13&#45;&gt;Node2 -->
<g id="edge13" class="edge">
<title>Node13&#45;&gt;Node2</title>
<path fill="none" stroke="midnightblue" d="M439.72,-258.09C447.07,-260.88 454.26,-264.01 461,-267.5 507.08,-291.39 552.06,-331.52 579.53,-358.5"/>
<polygon fill="midnightblue" stroke="midnightblue" points="577.24,-361.16 586.79,-365.74 582.18,-356.2 577.24,-361.16"/>
</g>
<!-- Node14 -->
<g id="node14" class="node">
<title>Node14</title>
<g id="a_node14"><a xlink:href="classQuantConnect_1_1Securities_1_1MarketHoursDatabase.html#aeac6cf20dbffdbafd258f0d5f4473713" target="_top" xlink:title="Gets the entry for the specified market/symbol/security&#45;type">
<polygon fill="white" stroke="black" points="522,-192.5 522,-222.5 693,-222.5 693,-192.5 522,-192.5"/>
<text text-anchor="start" x="530" y="-210.5" font-family="Helvetica,sans-Serif" font-size="10.00">QuantConnect.Securities.</text>
<text text-anchor="middle" x="607.5" y="-199.5" font-family="Helvetica,sans-Serif" font-size="10.00">MarketHoursDatabase.GetEntry</text>
</a>
</g>
</g>
<!-- Node13&#45;&gt;Node14 -->
<g id="edge14" class="edge">
<title>Node13&#45;&gt;Node14</title>
<path fill="none" stroke="midnightblue" d="M446.67,-226.41C467.86,-223.91 490.37,-221.24 511.61,-218.73"/>
<polygon fill="midnightblue" stroke="midnightblue" points="512.07,-222.2 521.59,-217.55 511.25,-215.25 512.07,-222.2"/>
</g>
<!-- Node14&#45;&gt;Node7 -->
<g id="edge15" class="edge">
<title>Node14&#45;&gt;Node7</title>
<path fill="none" stroke="midnightblue" d="M670.81,-222.52C696.44,-228.13 726.5,-233.99 754,-237.5 852.44,-250.08 966.5,-254.41 1042.31,-255.86"/>
<polygon fill="midnightblue" stroke="midnightblue" points="1042.69,-259.36 1052.75,-256.04 1042.81,-252.37 1042.69,-259.36"/>
</g>
<!-- Node15 -->
<g id="node15" class="node">
<title>Node15</title>
<g id="a_node15"><a xlink:href="classQuantConnect_1_1Messages_1_1MarketHoursDatabase.html#af07138844a7ebc1a342f8b56a6be9917" target="_top" xlink:title="Returns a string message saying it was impossible to locate exchange hours for the given key....">
<polygon fill="white" stroke="black" points="754,-88.5 754,-118.5 971,-118.5 971,-88.5 754,-88.5"/>
<text text-anchor="start" x="762" y="-106.5" font-family="Helvetica,sans-Serif" font-size="10.00">QuantConnect.Messages.Market</text>
<text text-anchor="middle" x="862.5" y="-95.5" font-family="Helvetica,sans-Serif" font-size="10.00">HoursDatabase.ExchangeHoursNotFound</text>
</a>
</g>
</g>
<!-- Node14&#45;&gt;Node15 -->
<g id="edge16" class="edge">
<title>Node14&#45;&gt;Node15</title>
<path fill="none" stroke="midnightblue" d="M631.21,-192.34C659.04,-174.41 708.16,-144.82 754,-127.5 759.87,-125.28 766,-123.24 772.23,-121.36"/>
<polygon fill="midnightblue" stroke="midnightblue" points="773.42,-124.66 782.08,-118.55 771.5,-117.93 773.42,-124.66"/>
</g>
<!-- Node16 -->
<g id="node16" class="node">
<title>Node16</title>
<g id="a_node16"><a xlink:href="classQuantConnect_1_1Securities_1_1SymbolPropertiesDatabase.html#aee26fb588793fd311c44eb8b2909cc33" target="_top" xlink:title="Gets the instance of the SymbolPropertiesDatabase class produced by reading in the symbol properties ...">
<polygon fill="white" stroke="black" points="774,-28 774,-69 951,-69 951,-28 774,-28"/>
<text text-anchor="start" x="782" y="-57" font-family="Helvetica,sans-Serif" font-size="10.00">QuantConnect.Securities.</text>
<text text-anchor="start" x="782" y="-46" font-family="Helvetica,sans-Serif" font-size="10.00">SymbolPropertiesDatabase.From</text>
<text text-anchor="middle" x="862.5" y="-35" font-family="Helvetica,sans-Serif" font-size="10.00">DataFolder</text>
</a>
</g>
</g>
<!-- Node14&#45;&gt;Node16 -->
<g id="edge17" class="edge">
<title>Node14&#45;&gt;Node16</title>
<path fill="none" stroke="midnightblue" d="M621.29,-192.32C644.81,-165.38 697.67,-109.18 754,-78.5 757.54,-76.57 761.21,-74.76 764.97,-73.06"/>
<polygon fill="midnightblue" stroke="midnightblue" points="766.62,-76.16 774.47,-69.05 763.9,-69.71 766.62,-76.16"/>
</g>
<!-- Node20 -->
<g id="node20" class="node">
<title>Node20</title>
<g id="a_node20"><a xlink:href="classQuantConnect_1_1Messages_1_1MarketHoursDatabase.html#a656d4c4976d6c12d2d865ad34fb23c42" target="_top" xlink:title="Returns a string message that suggests the given market based on the provided ticker">
<polygon fill="white" stroke="black" points="758,-285 758,-326 967,-326 967,-285 758,-285"/>
<text text-anchor="start" x="766" y="-314" font-family="Helvetica,sans-Serif" font-size="10.00">QuantConnect.Messages.Market</text>
<text text-anchor="start" x="766" y="-303" font-family="Helvetica,sans-Serif" font-size="10.00">HoursDatabase.SuggestedMarketBased</text>
<text text-anchor="middle" x="862.5" y="-292" font-family="Helvetica,sans-Serif" font-size="10.00">OnTicker</text>
</a>
</g>
</g>
<!-- Node14&#45;&gt;Node20 -->
<g id="edge21" class="edge">
<title>Node14&#45;&gt;Node20</title>
<path fill="none" stroke="midnightblue" d="M640.79,-222.52C670.04,-235.88 714.48,-255.55 754,-270.5 764.12,-274.33 774.87,-278.13 785.5,-281.74"/>
<polygon fill="midnightblue" stroke="midnightblue" points="784.62,-285.14 795.21,-285 786.84,-278.5 784.62,-285.14"/>
</g>
<!-- Node21 -->
<g id="node21" class="node">
<title>Node21</title>
<g id="a_node21"><a xlink:href="classQuantConnect_1_1Securities_1_1MarketHoursDatabase.html#a3eedd1459368e8f50da2cedfc7508006" target="_top" xlink:title="Tries to get the entry for the specified market/symbol/security&#45;type">
<polygon fill="white" stroke="black" points="770,-137.5 770,-167.5 955,-167.5 955,-137.5 770,-137.5"/>
<text text-anchor="start" x="778" y="-155.5" font-family="Helvetica,sans-Serif" font-size="10.00">QuantConnect.Securities.</text>
<text text-anchor="middle" x="862.5" y="-144.5" font-family="Helvetica,sans-Serif" font-size="10.00">MarketHoursDatabase.TryGetEntry</text>
</a>
</g>
</g>
<!-- Node14&#45;&gt;Node21 -->
<g id="edge22" class="edge">
<title>Node14&#45;&gt;Node21</title>
<path fill="none" stroke="midnightblue" d="M677.63,-192.47C710.12,-185.41 749.02,-176.95 782.66,-169.64"/>
<polygon fill="midnightblue" stroke="midnightblue" points="783.42,-173.06 792.45,-167.51 781.93,-166.22 783.42,-173.06"/>
</g>
<!-- Node23 -->
<g id="node23" class="node">
<title>Node23</title>
<g id="a_node23"><a xlink:href="classQuantConnect_1_1Securities_1_1SymbolPropertiesDatabase.html#a5a7baeddd03bfc7fb60cef8ab2e6834b" target="_top" xlink:title="Tries to get the market for the provided symbol/security type">
<polygon fill="white" stroke="black" points="779,-187 779,-228 946,-228 946,-187 779,-187"/>
<text text-anchor="start" x="787" y="-216" font-family="Helvetica,sans-Serif" font-size="10.00">QuantConnect.Securities.</text>
<text text-anchor="start" x="787" y="-205" font-family="Helvetica,sans-Serif" font-size="10.00">SymbolPropertiesDatabase.Try</text>
<text text-anchor="middle" x="862.5" y="-194" font-family="Helvetica,sans-Serif" font-size="10.00">GetMarket</text>
</a>
</g>
</g>
<!-- Node14&#45;&gt;Node23 -->
<g id="edge24" class="edge">
<title>Node14&#45;&gt;Node23</title>
<path fill="none" stroke="midnightblue" d="M693.1,-207.5C717.34,-207.5 743.89,-207.5 768.6,-207.5"/>
<polygon fill="midnightblue" stroke="midnightblue" points="768.7,-211 778.7,-207.5 768.7,-204 768.7,-211"/>
</g>
<!-- Node17 -->
<g id="node17" class="node">
<title>Node17</title>
<g id="a_node17"><a xlink:href="classQuantConnect_1_1Globals.html#ae01b5c94ef475a21ab1a62fe1b04ea5c" target="_top" xlink:title="Helper method that will build a data folder path checking if it exists on the cache folder else will ...">
<polygon fill="white" stroke="black" points="1055,-0.5 1055,-30.5 1201,-30.5 1201,-0.5 1055,-0.5"/>
<text text-anchor="start" x="1063" y="-18.5" font-family="Helvetica,sans-Serif" font-size="10.00">QuantConnect.Globals.Get</text>
<text text-anchor="middle" x="1128" y="-7.5" font-family="Helvetica,sans-Serif" font-size="10.00">DataFolderPath</text>
</a>
</g>
</g>
<!-- Node16&#45;&gt;Node17 -->
<g id="edge18" class="edge">
<title>Node16&#45;&gt;Node17</title>
<path fill="none" stroke="midnightblue" d="M951.24,-37.51C981.51,-33.72 1015.27,-29.49 1045.05,-25.76"/>
<polygon fill="midnightblue" stroke="midnightblue" points="1045.5,-29.23 1054.99,-24.52 1044.63,-22.29 1045.5,-29.23"/>
</g>
<!-- Node18 -->
<g id="node18" class="node">
<title>Node18</title>
<g id="a_node18"><a xlink:href="classQuantConnect_1_1Securities_1_1SymbolPropertiesDatabase.html#a1658f93bf0dce7022bb7584e1a95cc7a" target="_top" xlink:title="Initialize a new instance of SymbolPropertiesDatabase using the given file">
<polygon fill="white" stroke="black" points="1033.5,-50 1033.5,-91 1222.5,-91 1222.5,-50 1033.5,-50"/>
<text text-anchor="start" x="1041.5" y="-79" font-family="Helvetica,sans-Serif" font-size="10.00">QuantConnect.Securities.</text>
<text text-anchor="start" x="1041.5" y="-68" font-family="Helvetica,sans-Serif" font-size="10.00">SymbolPropertiesDatabase.Symbol</text>
<text text-anchor="middle" x="1128" y="-57" font-family="Helvetica,sans-Serif" font-size="10.00">PropertiesDatabase</text>
</a>
</g>
</g>
<!-- Node16&#45;&gt;Node18 -->
<g id="edge19" class="edge">
<title>Node16&#45;&gt;Node18</title>
<path fill="none" stroke="midnightblue" d="M951.24,-55.83C974.3,-57.75 999.38,-59.85 1023.19,-61.83"/>
<polygon fill="midnightblue" stroke="midnightblue" points="1023.05,-65.33 1033.31,-62.68 1023.64,-58.36 1023.05,-65.33"/>
</g>
<!-- Node19 -->
<g id="node19" class="node">
<title>Node19</title>
<g id="a_node19"><a xlink:href="classQuantConnect_1_1Messages_1_1SymbolPropertiesDatabase.html#a6abceae517a349a28223bfc2dc9106d7" target="_top" xlink:title="Returns a string saying a duplicated key was found while processing the given file">
<polygon fill="white" stroke="black" points="1285,-50 1285,-91 1465,-91 1465,-50 1285,-50"/>
<text text-anchor="start" x="1293" y="-79" font-family="Helvetica,sans-Serif" font-size="10.00">QuantConnect.Messages.Symbol</text>
<text text-anchor="start" x="1293" y="-68" font-family="Helvetica,sans-Serif" font-size="10.00">PropertiesDatabase.DuplicateKey</text>
<text text-anchor="middle" x="1375" y="-57" font-family="Helvetica,sans-Serif" font-size="10.00">InFile</text>
</a>
</g>
</g>
<!-- Node18&#45;&gt;Node19 -->
<g id="edge20" class="edge">
<title>Node18&#45;&gt;Node19</title>
<path fill="none" stroke="midnightblue" d="M1222.67,-70.5C1239.72,-70.5 1257.57,-70.5 1274.77,-70.5"/>
<polygon fill="midnightblue" stroke="midnightblue" points="1274.82,-74 1284.82,-70.5 1274.82,-67 1274.82,-74"/>
</g>
<!-- Node22 -->
<g id="node22" class="node">
<title>Node22</title>
<g id="a_node22"><a xlink:href="classQuantConnect_1_1Securities_1_1MarketHoursDatabase.html#aa717adb9bb04be931913608ffd5a2733" target="_top" xlink:title="Gets the correct string symbol to use as a database key">
<polygon fill="white" stroke="black" points="1032,-132 1032,-173 1224,-173 1224,-132 1032,-132"/>
<text text-anchor="start" x="1040" y="-161" font-family="Helvetica,sans-Serif" font-size="10.00">QuantConnect.Securities.</text>
<text text-anchor="start" x="1040" y="-150" font-family="Helvetica,sans-Serif" font-size="10.00">MarketHoursDatabase.GetDatabase</text>
<text text-anchor="middle" x="1128" y="-139" font-family="Helvetica,sans-Serif" font-size="10.00">SymbolKey</text>
</a>
</g>
</g>
<!-- Node21&#45;&gt;Node22 -->
<g id="edge23" class="edge">
<title>Node21&#45;&gt;Node22</title>
<path fill="none" stroke="midnightblue" d="M955.29,-152.5C976.8,-152.5 999.88,-152.5 1021.92,-152.5"/>
<polygon fill="midnightblue" stroke="midnightblue" points="1021.96,-156 1031.96,-152.5 1021.96,-149 1021.96,-156"/>
</g>
</g>
</svg>
        <g id="navigator" transform="translate(0 0)" fill="#404254">
                <rect fill="#f2f5e9" fill-opacity="0.5" stroke="#606060" stroke-width=".5" x="0" y="0" width="60" height="60"/>
                <use id="zoomplus" xlink:href="#zoomPlus" x="17" y="9" onmousedown="handleZoom(evt,'in')"/>
                <use id="zoomminus" xlink:href="#zoomMin" x="42" y="9" onmousedown="handleZoom(evt,'out')"/>
                <use id="reset" xlink:href="#resetDef" x="30" y="36" onmousedown="handleReset()"/>
                <g id="arrowUp" xlink:href="#dirArrow" transform="translate(30 24)" onmousedown="handlePan(0,-1)">
                  <use xlink:href="#rim" fill="#404040">
                        <set attributeName="fill" to="#808080" begin="arrowUp.mouseover" end="arrowUp.mouseout"/>
                  </use>
                  <path fill="none" stroke="white" stroke-width="1.5" d="M0,-3.0v7 M-2.5,-0.5L0,-3.0L2.5,-0.5"/>
                </g>
                <g id="arrowRight" xlink:href="#dirArrow" transform="rotate(90) translate(36 -43)" onmousedown="handlePan(1,0)">
                  <use xlink:href="#rim" fill="#404040">
                        <set attributeName="fill" to="#808080" begin="arrowRight.mouseover" end="arrowRight.mouseout"/>
                  </use>
                  <path fill="none" stroke="white" stroke-width="1.5" d="M0,-3.0v7 M-2.5,-0.5L0,-3.0L2.5,-0.5"/>
                </g>
                <g id="arrowDown" xlink:href="#dirArrow" transform="rotate(180) translate(-30 -48)" onmousedown="handlePan(0,1)">
                  <use xlink:href="#rim" fill="#404040">
                        <set attributeName="fill" to="#808080" begin="arrowDown.mouseover" end="arrowDown.mouseout"/>
                  </use>
                  <path fill="none" stroke="white" stroke-width="1.5" d="M0,-3.0v7 M-2.5,-0.5L0,-3.0L2.5,-0.5"/>
                </g>
                <g id="arrowLeft" xlink:href="#dirArrow" transform="rotate(270) translate(-36 17)" onmousedown="handlePan(-1,0)">
                  <use xlink:href="#rim" fill="#404040">
                        <set attributeName="fill" to="#808080" begin="arrowLeft.mouseover" end="arrowLeft.mouseout"/>
                  </use>
                  <path fill="none" stroke="white" stroke-width="1.5" d="M0,-3.0v7 M-2.5,-0.5L0,-3.0L2.5,-0.5"/>
                </g>
        </g>
        <svg viewBox="0 0 15 15" width="100%" height="30px" preserveAspectRatio="xMaxYMin meet">
         <g id="arrow_out" transform="scale(0.3 0.3)">
          <a xlink:href="classQuantConnect_1_1Lean_1_1Engine_1_1DataFeeds_1_1FileSystemDataFeed_a4fc952e85ac49efbfa28a11d095ddf7a_cgraph_org.svg" target="_base">
           <rect id="button" ry="5" rx="5" y="6" x="6" height="38" width="38"
                fill="#f2f5e9" fill-opacity="0.5" stroke="#606060" stroke-width="1.0"/>
           <path id="arrow"
             d="M 11.500037,31.436501 C 11.940474,20.09759 22.043105,11.32322 32.158766,21.979434 L 37.068811,17.246167 C 37.068811,17.246167 37.088388,32 37.088388,32 L 22.160133,31.978069 C 22.160133,31.978069 26.997745,27.140456 26.997745,27.140456 C 18.528582,18.264221 13.291696,25.230495 11.500037,31.436501 z"
             style="fill:#404040;"/>
          </a>
         </g>
        </svg>
</svg>
