<?xml version="1.0" encoding="UTF-8" standalone="no"?>
<!DOCTYPE svg PUBLIC "-//W3C//DTD SVG 1.1//EN"
 "http://www.w3.org/Graphics/SVG/1.1/DTD/svg11.dtd">
<!-- Generated by graphviz version 2.43.0 (0)
 -->
<!-- Title: QuantConnect.Orders.Fees.InteractiveBrokersFeeModel.GetOrderFee Pages: 1 -->
<svg width="445pt" height="247pt"
 viewBox="0.00 0.00 445.00 246.50" xmlns="http://www.w3.org/2000/svg" xmlns:xlink="http://www.w3.org/1999/xlink">
<g id="graph0" class="graph" transform="scale(1 1) rotate(0) translate(4 242.5)">
<title>QuantConnect.Orders.Fees.InteractiveBrokersFeeModel.GetOrderFee</title>
<polygon fill="white" stroke="transparent" points="-4,4 -4,-242.5 441,-242.5 441,4 -4,4"/>
<!-- Node1 -->
<g id="node1" class="node">
<title>Node1</title>
<g id="a_node1"><a xlink:title="Gets the order fee associated with the specified order. This returns the cost of the transaction in t...">
<polygon fill="#bfbfbf" stroke="black" points="0,-93 0,-134 173,-134 173,-93 0,-93"/>
<text text-anchor="start" x="8" y="-122" font-family="Helvetica,sans-Serif" font-size="10.00">QuantConnect.Orders.Fees.</text>
<text text-anchor="start" x="8" y="-111" font-family="Helvetica,sans-Serif" font-size="10.00">InteractiveBrokersFeeModel.Get</text>
<text text-anchor="middle" x="86.5" y="-100" font-family="Helvetica,sans-Serif" font-size="10.00">OrderFee</text>
</a>
</g>
</g>
<!-- Node2 -->
<g id="node2" class="node">
<title>Node2</title>
<g id="a_node2"><a xlink:href="classQuantConnect_1_1Orders_1_1Fees_1_1InteractiveBrokersFeeModel.html#a038aa271d43427181b941441fcdbaaef" target="_top" xlink:title="Approximates the order&#39;s price based on the order type">
<polygon fill="white" stroke="black" points="236.5,-197 236.5,-238 409.5,-238 409.5,-197 236.5,-197"/>
<text text-anchor="start" x="244.5" y="-226" font-family="Helvetica,sans-Serif" font-size="10.00">QuantConnect.Orders.Fees.</text>
<text text-anchor="start" x="244.5" y="-215" font-family="Helvetica,sans-Serif" font-size="10.00">InteractiveBrokersFeeModel.Get</text>
<text text-anchor="middle" x="323" y="-204" font-family="Helvetica,sans-Serif" font-size="10.00">PotentialOrderPrice</text>
</a>
</g>
</g>
<!-- Node1&#45;&gt;Node2 -->
<g id="edge1" class="edge">
<title>Node1&#45;&gt;Node2</title>
<path fill="none" stroke="midnightblue" d="M116.18,-134.24C140.02,-150.66 175.38,-173.16 209,-187.5 214.7,-189.93 220.64,-192.21 226.69,-194.33"/>
<polygon fill="midnightblue" stroke="midnightblue" points="225.68,-197.69 236.27,-197.55 227.91,-191.05 225.68,-197.69"/>
</g>
<!-- Node3 -->
<g id="node3" class="node">
<title>Node3</title>
<g id="a_node3"><a xlink:href="classQuantConnect_1_1Messages_1_1InteractiveBrokersFeeModel.html#a9beadbe7f48e80350049ec8433563856" target="_top" xlink:title="Returns a string message saying the given equity market was unexpected">
<polygon fill="white" stroke="black" points="209.5,-147.5 209.5,-177.5 436.5,-177.5 436.5,-147.5 209.5,-147.5"/>
<text text-anchor="start" x="217.5" y="-165.5" font-family="Helvetica,sans-Serif" font-size="10.00">QuantConnect.Messages.Interactive</text>
<text text-anchor="middle" x="323" y="-154.5" font-family="Helvetica,sans-Serif" font-size="10.00">BrokersFeeModel.UnexpectedEquityMarket</text>
</a>
</g>
</g>
<!-- Node1&#45;&gt;Node3 -->
<g id="edge2" class="edge">
<title>Node1&#45;&gt;Node3</title>
<path fill="none" stroke="midnightblue" d="M173.16,-131.4C195.05,-135.97 218.54,-140.88 240.24,-145.42"/>
<polygon fill="midnightblue" stroke="midnightblue" points="239.56,-148.85 250.07,-147.47 240.99,-142 239.56,-148.85"/>
</g>
<!-- Node4 -->
<g id="node4" class="node">
<title>Node4</title>
<g id="a_node4"><a xlink:href="classQuantConnect_1_1Messages_1_1InteractiveBrokersFeeModel.html#aa297cd92b505fcbdc03ef06f6ecf426b" target="_top" xlink:title="Returns a string message saying the given future market was unexpected">
<polygon fill="white" stroke="black" points="209.5,-98.5 209.5,-128.5 436.5,-128.5 436.5,-98.5 209.5,-98.5"/>
<text text-anchor="start" x="217.5" y="-116.5" font-family="Helvetica,sans-Serif" font-size="10.00">QuantConnect.Messages.Interactive</text>
<text text-anchor="middle" x="323" y="-105.5" font-family="Helvetica,sans-Serif" font-size="10.00">BrokersFeeModel.UnexpectedFutureMarket</text>
</a>
</g>
</g>
<!-- Node1&#45;&gt;Node4 -->
<g id="edge3" class="edge">
<title>Node1&#45;&gt;Node4</title>
<path fill="none" stroke="midnightblue" d="M173.16,-113.5C181.62,-113.5 190.32,-113.5 199.06,-113.5"/>
<polygon fill="midnightblue" stroke="midnightblue" points="199.33,-117 209.33,-113.5 199.33,-110 199.33,-117"/>
</g>
<!-- Node5 -->
<g id="node5" class="node">
<title>Node5</title>
<g id="a_node5"><a xlink:href="classQuantConnect_1_1Messages_1_1InteractiveBrokersFeeModel.html#a4bb24a1828fc43d0bfa2b91b70b0a258" target="_top" xlink:title="Returns a string message saying the given option market was unexpected">
<polygon fill="white" stroke="black" points="209,-49.5 209,-79.5 437,-79.5 437,-49.5 209,-49.5"/>
<text text-anchor="start" x="217" y="-67.5" font-family="Helvetica,sans-Serif" font-size="10.00">QuantConnect.Messages.Interactive</text>
<text text-anchor="middle" x="323" y="-56.5" font-family="Helvetica,sans-Serif" font-size="10.00">BrokersFeeModel.UnexpectedOptionMarket</text>
</a>
</g>
</g>
<!-- Node1&#45;&gt;Node5 -->
<g id="edge4" class="edge">
<title>Node1&#45;&gt;Node5</title>
<path fill="none" stroke="midnightblue" d="M173.16,-95.6C195.05,-91.03 218.54,-86.12 240.24,-81.58"/>
<polygon fill="midnightblue" stroke="midnightblue" points="240.99,-85 250.07,-79.53 239.56,-78.15 240.99,-85"/>
</g>
<!-- Node6 -->
<g id="node6" class="node">
<title>Node6</title>
<g id="a_node6"><a xlink:href="classQuantConnect_1_1Messages_1_1FeeModel.html#a72db7d0812a3cb2351eeb5ee7e9d7dc0" target="_top" xlink:title="Returns a string message saying the type of the given security is unsupported">
<polygon fill="white" stroke="black" points="236,-0.5 236,-30.5 410,-30.5 410,-0.5 236,-0.5"/>
<text text-anchor="start" x="244" y="-18.5" font-family="Helvetica,sans-Serif" font-size="10.00">QuantConnect.Messages.Fee</text>
<text text-anchor="middle" x="323" y="-7.5" font-family="Helvetica,sans-Serif" font-size="10.00">Model.UnsupportedSecurityType</text>
</a>
</g>
</g>
<!-- Node1&#45;&gt;Node6 -->
<g id="edge5" class="edge">
<title>Node1&#45;&gt;Node6</title>
<path fill="none" stroke="midnightblue" d="M116.06,-92.69C139.85,-76.28 175.17,-53.99 209,-40.5 215.61,-37.87 222.55,-35.48 229.61,-33.33"/>
<polygon fill="midnightblue" stroke="midnightblue" points="230.64,-36.67 239.28,-30.54 228.7,-29.95 230.64,-36.67"/>
</g>
</g>
</svg>
