<?xml version="1.0" encoding="UTF-8" standalone="no"?>
<!DOCTYPE svg PUBLIC "-//W3C//DTD SVG 1.1//EN"
 "http://www.w3.org/Graphics/SVG/1.1/DTD/svg11.dtd">
<!-- Generated by graphviz version 2.43.0 (0)
 -->
<!-- Title: QuantConnect.Securities.SecurityTransactionManager.RemoveOrder Pages: 1 -->
<svg width="726pt" height="39pt"
 viewBox="0.00 0.00 726.00 39.00" xmlns="http://www.w3.org/2000/svg" xmlns:xlink="http://www.w3.org/1999/xlink">
<g id="graph0" class="graph" transform="scale(1 1) rotate(0) translate(4 35)">
<title>QuantConnect.Securities.SecurityTransactionManager.RemoveOrder</title>
<polygon fill="white" stroke="transparent" points="-4,4 -4,-35 722,-35 722,4 -4,4"/>
<!-- Node1 -->
<g id="node1" class="node">
<title>Node1</title>
<g id="a_node1"><a xlink:title="Remove this order from outstanding queue: user is requesting a cancel.">
<polygon fill="#bfbfbf" stroke="black" points="494,-0.5 494,-30.5 718,-30.5 718,-0.5 494,-0.5"/>
<text text-anchor="start" x="502" y="-18.5" font-family="Helvetica,sans-Serif" font-size="10.00">QuantConnect.Securities.</text>
<text text-anchor="middle" x="606" y="-7.5" font-family="Helvetica,sans-Serif" font-size="10.00">SecurityTransactionManager.RemoveOrder</text>
</a>
</g>
</g>
<!-- Node2 -->
<g id="node2" class="node">
<title>Node2</title>
<g id="a_node2"><a xlink:href="classQuantConnect_1_1Securities_1_1SecurityTransactionManager.html#a55a9fd6793fffa2a3b897bb3e72d6674" target="_top" xlink:title="Added alias for RemoveOrder &#45;">
<polygon fill="white" stroke="black" points="241,-0.5 241,-30.5 458,-30.5 458,-0.5 241,-0.5"/>
<text text-anchor="start" x="249" y="-18.5" font-family="Helvetica,sans-Serif" font-size="10.00">QuantConnect.Securities.</text>
<text text-anchor="middle" x="349.5" y="-7.5" font-family="Helvetica,sans-Serif" font-size="10.00">SecurityTransactionManager.CancelOrder</text>
</a>
</g>
</g>
<!-- Node1&#45;&gt;Node2 -->
<g id="edge1" class="edge">
<title>Node1&#45;&gt;Node2</title>
<path fill="none" stroke="midnightblue" d="M483.5,-15.5C475.08,-15.5 466.63,-15.5 458.29,-15.5"/>
<polygon fill="midnightblue" stroke="midnightblue" points="483.74,-19 493.74,-15.5 483.74,-12 483.74,-19"/>
</g>
<!-- Node3 -->
<g id="node3" class="node">
<title>Node3</title>
<g id="a_node3"><a xlink:href="classQuantConnect_1_1Algorithm_1_1QCAlgorithm.html#a5904e7c2ffd71a165c6f1afd3f5f68c2" target="_top" xlink:title="Liquidate your portfolio holdings">
<polygon fill="white" stroke="black" points="0,-0.5 0,-30.5 205,-30.5 205,-0.5 0,-0.5"/>
<text text-anchor="start" x="8" y="-18.5" font-family="Helvetica,sans-Serif" font-size="10.00">QuantConnect.Algorithm.QCAlgorithm.</text>
<text text-anchor="middle" x="102.5" y="-7.5" font-family="Helvetica,sans-Serif" font-size="10.00">Liquidate</text>
</a>
</g>
</g>
<!-- Node2&#45;&gt;Node3 -->
<g id="edge2" class="edge">
<title>Node2&#45;&gt;Node3</title>
<path fill="none" stroke="midnightblue" d="M230.41,-15.5C221.96,-15.5 213.48,-15.5 205.14,-15.5"/>
<polygon fill="midnightblue" stroke="midnightblue" points="230.68,-19 240.68,-15.5 230.68,-12 230.68,-19"/>
</g>
</g>
</svg>
