<?xml version="1.0" encoding="UTF-8" standalone="no"?>
<!DOCTYPE svg PUBLIC "-//W3C//DTD SVG 1.1//EN"
 "http://www.w3.org/Graphics/SVG/1.1/DTD/svg11.dtd">
<!-- Generated by graphviz version 2.43.0 (0)
 -->
<!-- Title: QuantConnect.Algorithm.Framework.Portfolio.PortfolioTarget.Percent Pages: 1 -->
<svg width="724pt" height="526pt"
 viewBox="0.00 0.00 724.00 525.50" xmlns="http://www.w3.org/2000/svg" xmlns:xlink="http://www.w3.org/1999/xlink">
<g id="graph0" class="graph" transform="scale(1 1) rotate(0) translate(4 521.5)">
<title>QuantConnect.Algorithm.Framework.Portfolio.PortfolioTarget.Percent</title>
<polygon fill="white" stroke="transparent" points="-4,4 -4,-521.5 720,-521.5 720,4 -4,4"/>
<!-- Node1 -->
<g id="node1" class="node">
<title>Node1</title>
<g id="a_node1"><a xlink:title="Creates a new target for the specified percent">
<polygon fill="#bfbfbf" stroke="black" points="0,-246 0,-276 197,-276 197,-246 0,-246"/>
<text text-anchor="start" x="8" y="-264" font-family="Helvetica,sans-Serif" font-size="10.00">QuantConnect.Algorithm.Framework.</text>
<text text-anchor="middle" x="98.5" y="-253" font-family="Helvetica,sans-Serif" font-size="10.00">Portfolio.PortfolioTarget.Percent</text>
</a>
</g>
</g>
<!-- Node2 -->
<g id="node2" class="node">
<title>Node2</title>
<g id="a_node2"><a xlink:href="interfaceQuantConnect_1_1Interfaces_1_1IAlgorithm.html#a63cc959667fa0f4dfd13048a9b7dac94" target="_top" xlink:title="Send debug message">
<polygon fill="white" stroke="black" points="300.5,-487 300.5,-517 440.5,-517 440.5,-487 300.5,-487"/>
<text text-anchor="start" x="308.5" y="-505" font-family="Helvetica,sans-Serif" font-size="10.00">QuantConnect.Interfaces.</text>
<text text-anchor="middle" x="370.5" y="-494" font-family="Helvetica,sans-Serif" font-size="10.00">IAlgorithm.Debug</text>
</a>
</g>
</g>
<!-- Node1&#45;&gt;Node2 -->
<g id="edge1" class="edge">
<title>Node1&#45;&gt;Node2</title>
<path fill="none" stroke="midnightblue" d="M103.98,-276.15C116.72,-316.43 157.26,-426.55 233,-478 249.77,-489.39 270.29,-495.88 290.27,-499.47"/>
<polygon fill="midnightblue" stroke="midnightblue" points="289.91,-502.96 300.34,-501.05 291,-496.04 289.91,-502.96"/>
</g>
<!-- Node3 -->
<g id="node3" class="node">
<title>Node3</title>
<g id="a_node3"><a xlink:href="interfaceQuantConnect_1_1Interfaces_1_1IAlgorithm.html#a7b8af1af90d91f0702ae39686c073dce" target="_top" xlink:title="Send an error message for the algorithm">
<polygon fill="white" stroke="black" points="300.5,-438 300.5,-468 440.5,-468 440.5,-438 300.5,-438"/>
<text text-anchor="start" x="308.5" y="-456" font-family="Helvetica,sans-Serif" font-size="10.00">QuantConnect.Interfaces.</text>
<text text-anchor="middle" x="370.5" y="-445" font-family="Helvetica,sans-Serif" font-size="10.00">IAlgorithm.Error</text>
</a>
</g>
</g>
<!-- Node1&#45;&gt;Node3 -->
<g id="edge2" class="edge">
<title>Node1&#45;&gt;Node3</title>
<path fill="none" stroke="midnightblue" d="M106.68,-276.13C123.5,-309.79 168.97,-390.9 233,-429 250.16,-439.21 270.54,-445.32 290.24,-448.92"/>
<polygon fill="midnightblue" stroke="midnightblue" points="289.72,-452.38 300.15,-450.54 290.85,-445.47 289.72,-452.38"/>
</g>
<!-- Node4 -->
<g id="node4" class="node">
<title>Node4</title>
<g id="a_node4"><a xlink:href="interfaceQuantConnect_1_1Securities_1_1IBuyingPowerModel.html#a71a4a692ddcf85b3781a510cc3a3764f" target="_top" xlink:title="Gets the current leverage of the security">
<polygon fill="white" stroke="black" points="281,-389 281,-419 460,-419 460,-389 281,-389"/>
<text text-anchor="start" x="289" y="-407" font-family="Helvetica,sans-Serif" font-size="10.00">QuantConnect.Securities.</text>
<text text-anchor="middle" x="370.5" y="-396" font-family="Helvetica,sans-Serif" font-size="10.00">IBuyingPowerModel.GetLeverage</text>
</a>
</g>
</g>
<!-- Node1&#45;&gt;Node4 -->
<g id="edge3" class="edge">
<title>Node1&#45;&gt;Node4</title>
<path fill="none" stroke="midnightblue" d="M111.68,-276.17C133.22,-301.85 180.7,-353.57 233,-379 244.83,-384.75 257.82,-389.18 270.94,-392.6"/>
<polygon fill="midnightblue" stroke="midnightblue" points="270.43,-396.08 280.98,-395.02 272.07,-389.28 270.43,-396.08"/>
</g>
<!-- Node5 -->
<g id="node5" class="node">
<title>Node5</title>
<g id="a_node5"><a xlink:href="interfaceQuantConnect_1_1Securities_1_1Positions_1_1IPositionGroupBuyingPowerModel.html#ad9b3419d94d2c584a9706bfe14b7e260" target="_top" xlink:title="Get the maximum position group order quantity to obtain a position with a given buying power percenta...">
<polygon fill="white" stroke="black" points="233,-328.5 233,-369.5 508,-369.5 508,-328.5 233,-328.5"/>
<text text-anchor="start" x="241" y="-357.5" font-family="Helvetica,sans-Serif" font-size="10.00">QuantConnect.Securities.</text>
<text text-anchor="start" x="241" y="-346.5" font-family="Helvetica,sans-Serif" font-size="10.00">Positions.IPositionGroupBuying</text>
<text text-anchor="middle" x="370.5" y="-335.5" font-family="Helvetica,sans-Serif" font-size="10.00">PowerModel.GetMaximumLotsForTargetBuyingPower</text>
</a>
</g>
</g>
<!-- Node1&#45;&gt;Node5 -->
<g id="edge4" class="edge">
<title>Node1&#45;&gt;Node5</title>
<path fill="none" stroke="midnightblue" d="M129.6,-276.08C156.24,-288.94 196.46,-307.17 233,-319 240.55,-321.44 248.4,-323.75 256.34,-325.92"/>
<polygon fill="midnightblue" stroke="midnightblue" points="255.51,-329.32 266.07,-328.5 257.3,-322.56 255.51,-329.32"/>
</g>
<!-- Node6 -->
<g id="node6" class="node">
<title>Node6</title>
<g id="a_node6"><a xlink:href="classQuantConnect_1_1Securities_1_1Positions_1_1SecurityPositionGroupModel.html#ab38609d426f6ebc69ed07a547e13b933" target="_top" xlink:title="Gets or creates the default position group for the specified security">
<polygon fill="white" stroke="black" points="282.5,-268.5 282.5,-309.5 458.5,-309.5 458.5,-268.5 282.5,-268.5"/>
<text text-anchor="start" x="290.5" y="-297.5" font-family="Helvetica,sans-Serif" font-size="10.00">QuantConnect.Securities.</text>
<text text-anchor="start" x="290.5" y="-286.5" font-family="Helvetica,sans-Serif" font-size="10.00">Positions.SecurityPositionGroup</text>
<text text-anchor="middle" x="370.5" y="-275.5" font-family="Helvetica,sans-Serif" font-size="10.00">Model.GetOrCreateDefaultGroup</text>
</a>
</g>
</g>
<!-- Node1&#45;&gt;Node6 -->
<g id="edge5" class="edge">
<title>Node1&#45;&gt;Node6</title>
<path fill="none" stroke="midnightblue" d="M197.36,-271.15C221.76,-273.68 247.93,-276.39 272.3,-278.92"/>
<polygon fill="midnightblue" stroke="midnightblue" points="271.96,-282.4 282.26,-279.95 272.68,-275.44 271.96,-282.4"/>
</g>
<!-- Node8 -->
<g id="node8" class="node">
<title>Node8</title>
<g id="a_node8"><a xlink:href="classQuantConnect_1_1Messages_1_1PortfolioTarget.html#aaaef637469e2b1b58c036d253e903bbb" target="_top" xlink:title="Returns a string message saying the portfolio target percent is invalid">
<polygon fill="white" stroke="black" points="279.5,-219 279.5,-249 461.5,-249 461.5,-219 279.5,-219"/>
<text text-anchor="start" x="287.5" y="-237" font-family="Helvetica,sans-Serif" font-size="10.00">QuantConnect.Messages.Portfolio</text>
<text text-anchor="middle" x="370.5" y="-226" font-family="Helvetica,sans-Serif" font-size="10.00">Target.InvalidTargetPercent</text>
</a>
</g>
</g>
<!-- Node1&#45;&gt;Node8 -->
<g id="edge7" class="edge">
<title>Node1&#45;&gt;Node8</title>
<path fill="none" stroke="midnightblue" d="M197.36,-251.21C220.73,-248.88 245.72,-246.38 269.2,-244.03"/>
<polygon fill="midnightblue" stroke="midnightblue" points="269.56,-247.51 279.16,-243.03 268.86,-240.55 269.56,-247.51"/>
</g>
<!-- Node9 -->
<g id="node9" class="node">
<title>Node9</title>
<g id="a_node9"><a xlink:href="classQuantConnect_1_1Algorithm_1_1Framework_1_1Portfolio_1_1PortfolioTarget.html#aed7945d01df0aa8ae801f6fe2c950ae0" target="_top" xlink:title="Initializes a new instance of the PortfolioTarget class">
<polygon fill="white" stroke="black" points="267.5,-170 267.5,-200 473.5,-200 473.5,-170 267.5,-170"/>
<text text-anchor="start" x="275.5" y="-188" font-family="Helvetica,sans-Serif" font-size="10.00">QuantConnect.Algorithm.Framework.</text>
<text text-anchor="middle" x="370.5" y="-177" font-family="Helvetica,sans-Serif" font-size="10.00">Portfolio.PortfolioTarget.PortfolioTarget</text>
</a>
</g>
</g>
<!-- Node1&#45;&gt;Node9 -->
<g id="edge8" class="edge">
<title>Node1&#45;&gt;Node9</title>
<path fill="none" stroke="midnightblue" d="M133.77,-245.91C160.39,-234.67 198.48,-219.67 233,-210 243.21,-207.14 253.95,-204.52 264.73,-202.15"/>
<polygon fill="midnightblue" stroke="midnightblue" points="265.58,-205.55 274.63,-200.05 264.12,-198.71 265.58,-205.55"/>
</g>
<!-- Node10 -->
<g id="node10" class="node">
<title>Node10</title>
<g id="a_node10"><a xlink:href="classQuantConnect_1_1Messages_1_1PortfolioTarget.html#a82b3d1ff5ffb40426b24c63505db6f02" target="_top" xlink:title="Returns a string message saying the given symbol was not found in the portfolio">
<polygon fill="white" stroke="black" points="279.5,-121 279.5,-151 461.5,-151 461.5,-121 279.5,-121"/>
<text text-anchor="start" x="287.5" y="-139" font-family="Helvetica,sans-Serif" font-size="10.00">QuantConnect.Messages.Portfolio</text>
<text text-anchor="middle" x="370.5" y="-128" font-family="Helvetica,sans-Serif" font-size="10.00">Target.SymbolNotFound</text>
</a>
</g>
</g>
<!-- Node1&#45;&gt;Node10 -->
<g id="edge9" class="edge">
<title>Node1&#45;&gt;Node10</title>
<path fill="none" stroke="midnightblue" d="M114.79,-245.68C138.12,-223.29 184.97,-181.99 233,-161 244.41,-156.01 256.78,-152.02 269.25,-148.83"/>
<polygon fill="midnightblue" stroke="midnightblue" points="270.35,-152.16 279.26,-146.43 268.72,-145.35 270.35,-152.16"/>
</g>
<!-- Node11 -->
<g id="node11" class="node">
<title>Node11</title>
<g id="a_node11"><a xlink:href="classQuantConnect_1_1Messages_1_1BuyingPowerModel.html#a111c30b36e16907889efc1d44a265f67" target="_top" xlink:title="Returns a string message saying the given target order margin is less than the given minimum value">
<polygon fill="white" stroke="black" points="276.5,-60.5 276.5,-101.5 464.5,-101.5 464.5,-60.5 276.5,-60.5"/>
<text text-anchor="start" x="284.5" y="-89.5" font-family="Helvetica,sans-Serif" font-size="10.00">QuantConnect.Messages.Buying</text>
<text text-anchor="start" x="284.5" y="-78.5" font-family="Helvetica,sans-Serif" font-size="10.00">PowerModel.TargetOrderMarginNot</text>
<text text-anchor="middle" x="370.5" y="-67.5" font-family="Helvetica,sans-Serif" font-size="10.00">AboveMinimum</text>
</a>
</g>
</g>
<!-- Node1&#45;&gt;Node11 -->
<g id="edge10" class="edge">
<title>Node1&#45;&gt;Node11</title>
<path fill="none" stroke="midnightblue" d="M108.39,-245.97C127.24,-215.52 174.32,-146.52 233,-112 243.31,-105.94 254.7,-101.06 266.38,-97.13"/>
<polygon fill="midnightblue" stroke="midnightblue" points="267.73,-100.38 276.23,-94.05 265.64,-93.69 267.73,-100.38"/>
</g>
<!-- Node12 -->
<g id="node12" class="node">
<title>Node12</title>
<g id="a_node12"><a xlink:href="classQuantConnect_1_1Messages_1_1PortfolioTarget.html#a16c7af03d3fc19afa6e1c00ff8c2d249" target="_top" xlink:title="Returns a string message saying it was impossible to compute the order quantity of the given symbol....">
<polygon fill="white" stroke="black" points="266.5,-0.5 266.5,-41.5 474.5,-41.5 474.5,-0.5 266.5,-0.5"/>
<text text-anchor="start" x="274.5" y="-29.5" font-family="Helvetica,sans-Serif" font-size="10.00">QuantConnect.Messages.Portfolio</text>
<text text-anchor="start" x="274.5" y="-18.5" font-family="Helvetica,sans-Serif" font-size="10.00">Target.UnableToComputeOrderQuantity</text>
<text text-anchor="middle" x="370.5" y="-7.5" font-family="Helvetica,sans-Serif" font-size="10.00">DueToNullResult</text>
</a>
</g>
</g>
<!-- Node1&#45;&gt;Node12 -->
<g id="edge11" class="edge">
<title>Node1&#45;&gt;Node12</title>
<path fill="none" stroke="midnightblue" d="M104.44,-245.93C118.07,-206.91 160.08,-102.01 233,-51 240.29,-45.9 248.3,-41.64 256.67,-38.09"/>
<polygon fill="midnightblue" stroke="midnightblue" points="258.19,-41.26 266.25,-34.38 255.66,-34.73 258.19,-41.26"/>
</g>
<!-- Node7 -->
<g id="node7" class="node">
<title>Node7</title>
<g id="a_node7"><a xlink:href="classQuantConnect_1_1Securities_1_1Positions_1_1SecurityPositionGroupModel.html#aa11cb32493bfdcda2a5cee4b34c725e6" target="_top" xlink:title="Creates a PositionGroupKey for the security&#39;s default position group">
<polygon fill="white" stroke="black" points="544,-268.5 544,-309.5 716,-309.5 716,-268.5 544,-268.5"/>
<text text-anchor="start" x="552" y="-297.5" font-family="Helvetica,sans-Serif" font-size="10.00">QuantConnect.Securities.</text>
<text text-anchor="start" x="552" y="-286.5" font-family="Helvetica,sans-Serif" font-size="10.00">Positions.SecurityPositionGroup</text>
<text text-anchor="middle" x="630" y="-275.5" font-family="Helvetica,sans-Serif" font-size="10.00">Model.CreateDefaultKey</text>
</a>
</g>
</g>
<!-- Node6&#45;&gt;Node7 -->
<g id="edge6" class="edge">
<title>Node6&#45;&gt;Node7</title>
<path fill="none" stroke="midnightblue" d="M458.68,-289C482.79,-289 509.07,-289 533.62,-289"/>
<polygon fill="midnightblue" stroke="midnightblue" points="533.66,-292.5 543.66,-289 533.66,-285.5 533.66,-292.5"/>
</g>
</g>
</svg>
