<?xml version="1.0" encoding="UTF-8" standalone="no"?>
<!DOCTYPE svg PUBLIC "-//W3C//DTD SVG 1.1//EN"
 "http://www.w3.org/Graphics/SVG/1.1/DTD/svg11.dtd">
<!-- Generated by graphviz version 2.43.0 (0)
 -->
<!-- Title: QuantConnect.Indicators.Indicator Pages: 1 -->
<!--zoomable 911 -->
<svg id="main" version="1.1" xmlns="http://www.w3.org/2000/svg" xmlns:xlink="http://www.w3.org/1999/xlink" xml:space="preserve" onload="init(evt)">
<style type="text/css"><![CDATA[
.edge:hover path { stroke: red; }
.edge:hover polygon { stroke: red; fill: red; }
]]></style>
<script type="text/javascript"><![CDATA[
var edges = document.getElementsByTagName('g');
if (edges && edges.length) {
  for (var i=0;i<edges.length;i++) {
    if (edges[i].id.substr(0,4)=='edge') {
      edges[i].setAttribute('class','edge');
    }
  }
}
]]></script>
        <defs>
                <circle id="rim" cx="0" cy="0" r="7"/>
                <circle id="rim2" cx="0" cy="0" r="3.5"/>
                <g id="zoomPlus">
                        <use xlink:href="#rim" fill="#404040">
                                <set attributeName="fill" to="#808080" begin="zoomplus.mouseover" end="zoomplus.mouseout"/>
                        </use>
                        <path d="M-4,0h8M0,-4v8" fill="none" stroke="white" stroke-width="1.5" pointer-events="none"/>
                </g>
                <g id="zoomMin">
                        <use xlink:href="#rim" fill="#404040">
                                <set attributeName="fill" to="#808080" begin="zoomminus.mouseover" end="zoomminus.mouseout"/>
                        </use>
                        <path d="M-4,0h8" fill="none" stroke="white" stroke-width="1.5" pointer-events="none"/>
                </g>
                <g id="dirArrow">
                        <path fill="none" stroke="white" stroke-width="1.5" d="M0,-3.0v7 M-2.5,-0.5L0,-3.0L2.5,-0.5"/>
                </g>
               <g id="resetDef">
                       <use xlink:href="#rim2" fill="#404040">
                               <set attributeName="fill" to="#808080" begin="reset.mouseover" end="reset.mouseout"/>
                       </use>
               </g>
        </defs>

<script type="text/javascript">
var viewWidth = 923;
var viewHeight = 911;
var sectionId = 'dynsection-0';
</script>
<script xlink:href="svgpan.js"/>
<svg id="graph" class="graph">
<g id="viewport">
<title>QuantConnect.Indicators.Indicator</title>
<polygon fill="white" stroke="transparent" points="-4,4 -4,-907 919,-907 919,4 -4,4"/>
<!-- Node1 -->
<g id="node1" class="node">
<title>Node1</title>
<g id="a_node1"><a xlink:title="Represents a type capable of ingesting a piece of data and producing a new piece of data....">
<polygon fill="#bfbfbf" stroke="black" points="173,-431.5 173,-461.5 313,-461.5 313,-431.5 173,-431.5"/>
<text text-anchor="start" x="181" y="-449.5" font-family="Helvetica,sans-Serif" font-size="10.00">QuantConnect.Indicators.</text>
<text text-anchor="middle" x="243" y="-438.5" font-family="Helvetica,sans-Serif" font-size="10.00">Indicator</text>
</a>
</g>
</g>
<!-- Node3 -->
<g id="node3" class="node">
<title>Node3</title>
<g id="a_node3"><a xlink:href="classQuantConnect_1_1Indicators_1_1AugenPriceSpike.html" target="_top" xlink:title="The Augen Price Spike indicator is an indicator that measures price changes in terms of standard devi...">
<polygon fill="white" stroke="black" points="385,-872.5 385,-902.5 525,-902.5 525,-872.5 385,-872.5"/>
<text text-anchor="start" x="393" y="-890.5" font-family="Helvetica,sans-Serif" font-size="10.00">QuantConnect.Indicators.</text>
<text text-anchor="middle" x="455" y="-879.5" font-family="Helvetica,sans-Serif" font-size="10.00">AugenPriceSpike</text>
</a>
</g>
</g>
<!-- Node1&#45;&gt;Node3 -->
<g id="edge2" class="edge">
<title>Node1&#45;&gt;Node3</title>
<path fill="none" stroke="midnightblue" d="M246.98,-471.97C257.03,-553.58 292.28,-806.54 349,-862.5 358.8,-872.17 371.63,-878.35 384.94,-882.25"/>
<polygon fill="midnightblue" stroke="midnightblue" points="250.4,-471.14 245.73,-461.63 243.45,-471.98 250.4,-471.14"/>
</g>
<!-- Node4 -->
<g id="node4" class="node">
<title>Node4</title>
<g id="a_node4"><a xlink:href="classQuantConnect_1_1Indicators_1_1BollingerBands.html" target="_top" xlink:title="This indicator creates a moving average (middle band) with an upper band and lower band fixed at k st...">
<polygon fill="white" stroke="black" points="385,-823.5 385,-853.5 525,-853.5 525,-823.5 385,-823.5"/>
<text text-anchor="start" x="393" y="-841.5" font-family="Helvetica,sans-Serif" font-size="10.00">QuantConnect.Indicators.</text>
<text text-anchor="middle" x="455" y="-830.5" font-family="Helvetica,sans-Serif" font-size="10.00">BollingerBands</text>
</a>
</g>
</g>
<!-- Node1&#45;&gt;Node4 -->
<g id="edge3" class="edge">
<title>Node1&#45;&gt;Node4</title>
<path fill="none" stroke="midnightblue" d="M243.16,-472.16C242.46,-538.87 250.29,-719.12 349,-813.5 358.89,-822.95 371.67,-829.05 384.9,-832.93"/>
<polygon fill="midnightblue" stroke="midnightblue" points="246.67,-471.82 243.35,-461.76 239.67,-471.69 246.67,-471.82"/>
</g>
<!-- Node5 -->
<g id="node5" class="node">
<title>Node5</title>
<g id="a_node5"><a xlink:href="classQuantConnect_1_1Indicators_1_1ConnorsRelativeStrengthIndex.html" target="_top" xlink:title="Represents the Connors Relative Strength Index (CRSI), a combination of the traditional Relative Stre...">
<polygon fill="white" stroke="black" points="372.5,-774.5 372.5,-804.5 537.5,-804.5 537.5,-774.5 372.5,-774.5"/>
<text text-anchor="start" x="380.5" y="-792.5" font-family="Helvetica,sans-Serif" font-size="10.00">QuantConnect.Indicators.</text>
<text text-anchor="middle" x="455" y="-781.5" font-family="Helvetica,sans-Serif" font-size="10.00">ConnorsRelativeStrengthIndex</text>
</a>
</g>
</g>
<!-- Node1&#45;&gt;Node5 -->
<g id="edge4" class="edge">
<title>Node1&#45;&gt;Node5</title>
<path fill="none" stroke="midnightblue" d="M244.48,-472.01C247.07,-532.39 262.32,-684.91 349,-764.5 355.76,-770.71 363.78,-775.46 372.33,-779.08"/>
<polygon fill="midnightblue" stroke="midnightblue" points="247.97,-471.73 244.13,-461.85 240.98,-471.97 247.97,-471.73"/>
</g>
<!-- Node6 -->
<g id="node6" class="node">
<title>Node6</title>
<g id="a_node6"><a xlink:href="classQuantConnect_1_1Indicators_1_1DerivativeOscillator.html" target="_top" xlink:title="Represents the Derivative Oscillator Indicator, utilizing a moving average convergence&#45;divergence (MA...">
<polygon fill="white" stroke="black" points="385,-725.5 385,-755.5 525,-755.5 525,-725.5 385,-725.5"/>
<text text-anchor="start" x="393" y="-743.5" font-family="Helvetica,sans-Serif" font-size="10.00">QuantConnect.Indicators.</text>
<text text-anchor="middle" x="455" y="-732.5" font-family="Helvetica,sans-Serif" font-size="10.00">DerivativeOscillator</text>
</a>
</g>
</g>
<!-- Node1&#45;&gt;Node6 -->
<g id="edge5" class="edge">
<title>Node1&#45;&gt;Node6</title>
<path fill="none" stroke="midnightblue" d="M246.21,-471.74C252.29,-525.22 274.17,-650.37 349,-715.5 359.11,-724.3 371.76,-730.13 384.74,-733.97"/>
<polygon fill="midnightblue" stroke="midnightblue" points="249.69,-471.33 245.16,-461.75 242.72,-472.06 249.69,-471.33"/>
</g>
<!-- Node7 -->
<g id="node7" class="node">
<title>Node7</title>
<g id="a_node7"><a xlink:href="classQuantConnect_1_1Indicators_1_1ExponentialMovingAverage.html" target="_top" xlink:title="Represents the traditional exponential moving average indicator (EMA). When the indicator is ready,...">
<polygon fill="white" stroke="black" points="380,-676.5 380,-706.5 530,-706.5 530,-676.5 380,-676.5"/>
<text text-anchor="start" x="388" y="-694.5" font-family="Helvetica,sans-Serif" font-size="10.00">QuantConnect.Indicators.</text>
<text text-anchor="middle" x="455" y="-683.5" font-family="Helvetica,sans-Serif" font-size="10.00">ExponentialMovingAverage</text>
</a>
</g>
</g>
<!-- Node1&#45;&gt;Node7 -->
<g id="edge6" class="edge">
<title>Node1&#45;&gt;Node7</title>
<path fill="none" stroke="midnightblue" d="M248.61,-471.56C258.44,-517.59 285.92,-615.53 349,-666.5 357.96,-673.74 368.68,-678.95 379.79,-682.68"/>
<polygon fill="midnightblue" stroke="midnightblue" points="252,-470.65 246.58,-461.54 245.14,-472.04 252,-470.65"/>
</g>
<!-- Node8 -->
<g id="node8" class="node">
<title>Node8</title>
<g id="a_node8"><a xlink:href="classQuantConnect_1_1Indicators_1_1HurstExponent.html" target="_top" xlink:title="Represents the Hurst Exponent indicator, which is used to measure the long&#45;term memory of a time seri...">
<polygon fill="white" stroke="black" points="385,-627.5 385,-657.5 525,-657.5 525,-627.5 385,-627.5"/>
<text text-anchor="start" x="393" y="-645.5" font-family="Helvetica,sans-Serif" font-size="10.00">QuantConnect.Indicators.</text>
<text text-anchor="middle" x="455" y="-634.5" font-family="Helvetica,sans-Serif" font-size="10.00">HurstExponent</text>
</a>
</g>
</g>
<!-- Node1&#45;&gt;Node8 -->
<g id="edge7" class="edge">
<title>Node1&#45;&gt;Node8</title>
<path fill="none" stroke="midnightblue" d="M252.19,-471.28C265.96,-508.93 297.42,-580.14 349,-617.5 359.55,-625.14 372.11,-630.47 384.81,-634.19"/>
<polygon fill="midnightblue" stroke="midnightblue" points="255.41,-469.86 248.77,-461.6 248.81,-472.19 255.41,-469.86"/>
</g>
<!-- Node9 -->
<g id="node9" class="node">
<title>Node9</title>
<g id="a_node9"><a xlink:href="classQuantConnect_1_1Indicators_1_1Identity.html" target="_top" xlink:title="Represents an indicator that is a ready after ingesting a single sample and always returns the same v...">
<polygon fill="white" stroke="black" points="385,-578.5 385,-608.5 525,-608.5 525,-578.5 385,-578.5"/>
<text text-anchor="start" x="393" y="-596.5" font-family="Helvetica,sans-Serif" font-size="10.00">QuantConnect.Indicators.</text>
<text text-anchor="middle" x="455" y="-585.5" font-family="Helvetica,sans-Serif" font-size="10.00">Identity</text>
</a>
</g>
</g>
<!-- Node1&#45;&gt;Node9 -->
<g id="edge8" class="edge">
<title>Node1&#45;&gt;Node9</title>
<path fill="none" stroke="midnightblue" d="M257.91,-470.29C275.51,-498.21 308.47,-543.82 349,-568.5 359.88,-575.13 372.39,-580 384.9,-583.58"/>
<polygon fill="midnightblue" stroke="midnightblue" points="260.76,-468.24 252.54,-461.55 254.8,-471.9 260.76,-468.24"/>
</g>
<!-- Node10 -->
<g id="node10" class="node">
<title>Node10</title>
<g id="a_node10"><a xlink:href="classQuantConnect_1_1Indicators_1_1MovingAverageConvergenceDivergence.html" target="_top" xlink:title="This indicator creates two moving averages defined on a base indicator and produces the difference be...">
<polygon fill="white" stroke="black" points="349,-529.5 349,-559.5 561,-559.5 561,-529.5 349,-529.5"/>
<text text-anchor="start" x="357" y="-547.5" font-family="Helvetica,sans-Serif" font-size="10.00">QuantConnect.Indicators.</text>
<text text-anchor="middle" x="455" y="-536.5" font-family="Helvetica,sans-Serif" font-size="10.00">MovingAverageConvergenceDivergence</text>
</a>
</g>
</g>
<!-- Node1&#45;&gt;Node10 -->
<g id="edge9" class="edge">
<title>Node1&#45;&gt;Node10</title>
<path fill="none" stroke="midnightblue" d="M269.15,-468.05C289.46,-484.41 319.43,-506.27 349,-519.5 357.55,-523.33 366.77,-526.61 376.07,-529.42"/>
<polygon fill="midnightblue" stroke="midnightblue" points="271.29,-465.28 261.33,-461.64 266.85,-470.69 271.29,-465.28"/>
</g>
<!-- Node13 -->
<g id="node13" class="node">
<title>Node13</title>
<g id="a_node13"><a xlink:href="classQuantConnect_1_1Indicators_1_1RegressionChannel.html" target="_top" xlink:title="The Regression Channel indicator extends the LeastSquaresMovingAverage with the inclusion of two (upp...">
<polygon fill="white" stroke="black" points="385,-480.5 385,-510.5 525,-510.5 525,-480.5 385,-480.5"/>
<text text-anchor="start" x="393" y="-498.5" font-family="Helvetica,sans-Serif" font-size="10.00">QuantConnect.Indicators.</text>
<text text-anchor="middle" x="455" y="-487.5" font-family="Helvetica,sans-Serif" font-size="10.00">RegressionChannel</text>
</a>
</g>
</g>
<!-- Node1&#45;&gt;Node13 -->
<g id="edge12" class="edge">
<title>Node1&#45;&gt;Node13</title>
<path fill="none" stroke="midnightblue" d="M318.28,-463.83C341.59,-469.27 367.12,-475.23 389.69,-480.49"/>
<polygon fill="midnightblue" stroke="midnightblue" points="318.97,-460.4 308.43,-461.53 317.38,-467.22 318.97,-460.4"/>
</g>
<!-- Node14 -->
<g id="node14" class="node">
<title>Node14</title>
<g id="a_node14"><a xlink:href="classQuantConnect_1_1Indicators_1_1RelativeMovingAverage.html" target="_top" xlink:title="Represents the relative moving average indicator (RMA). RMA = SMA(3 x Period) &#45; SMA(2 x Period) + SMA...">
<polygon fill="white" stroke="black" points="385,-431.5 385,-461.5 525,-461.5 525,-431.5 385,-431.5"/>
<text text-anchor="start" x="393" y="-449.5" font-family="Helvetica,sans-Serif" font-size="10.00">QuantConnect.Indicators.</text>
<text text-anchor="middle" x="455" y="-438.5" font-family="Helvetica,sans-Serif" font-size="10.00">RelativeMovingAverage</text>
</a>
</g>
</g>
<!-- Node1&#45;&gt;Node14 -->
<g id="edge13" class="edge">
<title>Node1&#45;&gt;Node14</title>
<path fill="none" stroke="midnightblue" d="M323.21,-446.5C343.5,-446.5 365.17,-446.5 384.91,-446.5"/>
<polygon fill="midnightblue" stroke="midnightblue" points="323.05,-443 313.05,-446.5 323.05,-450 323.05,-443"/>
</g>
<!-- Node15 -->
<g id="node15" class="node">
<title>Node15</title>
<g id="a_node15"><a xlink:href="classQuantConnect_1_1Indicators_1_1RelativeStrengthIndex.html" target="_top" xlink:title="Represents the Relative Strength Index (RSI) developed by K. Welles Wilder. You can optionally specif...">
<polygon fill="white" stroke="black" points="385,-382.5 385,-412.5 525,-412.5 525,-382.5 385,-382.5"/>
<text text-anchor="start" x="393" y="-400.5" font-family="Helvetica,sans-Serif" font-size="10.00">QuantConnect.Indicators.</text>
<text text-anchor="middle" x="455" y="-389.5" font-family="Helvetica,sans-Serif" font-size="10.00">RelativeStrengthIndex</text>
</a>
</g>
</g>
<!-- Node1&#45;&gt;Node15 -->
<g id="edge14" class="edge">
<title>Node1&#45;&gt;Node15</title>
<path fill="none" stroke="midnightblue" d="M316.61,-429.12C327.46,-426.55 338.52,-423.94 349,-421.5 361.57,-418.57 374.98,-415.47 387.89,-412.52"/>
<polygon fill="midnightblue" stroke="midnightblue" points="315.64,-425.75 306.72,-431.47 317.26,-432.57 315.64,-425.75"/>
</g>
<!-- Node16 -->
<g id="node16" class="node">
<title>Node16</title>
<g id="a_node16"><a xlink:href="classQuantConnect_1_1Indicators_1_1RelativeVigorIndexSignal.html" target="_top" xlink:title="The signal for the Relative Vigor Index, itself an indicator.">
<polygon fill="white" stroke="black" points="385,-333.5 385,-363.5 525,-363.5 525,-333.5 385,-333.5"/>
<text text-anchor="start" x="393" y="-351.5" font-family="Helvetica,sans-Serif" font-size="10.00">QuantConnect.Indicators.</text>
<text text-anchor="middle" x="455" y="-340.5" font-family="Helvetica,sans-Serif" font-size="10.00">RelativeVigorIndexSignal</text>
</a>
</g>
</g>
<!-- Node1&#45;&gt;Node16 -->
<g id="edge15" class="edge">
<title>Node1&#45;&gt;Node16</title>
<path fill="none" stroke="midnightblue" d="M268.7,-424.86C288.97,-408.2 319.1,-385.83 349,-372.5 360.27,-367.48 372.71,-363.45 384.97,-360.23"/>
<polygon fill="midnightblue" stroke="midnightblue" points="266.33,-422.28 260.91,-431.38 270.83,-427.65 266.33,-422.28"/>
</g>
<!-- Node17 -->
<g id="node17" class="node">
<title>Node17</title>
<g id="a_node17"><a xlink:href="classQuantConnect_1_1Indicators_1_1SchaffTrendCycle.html" target="_top" xlink:title="This indicator creates the Schaff Trend Cycle">
<polygon fill="white" stroke="black" points="385,-284.5 385,-314.5 525,-314.5 525,-284.5 385,-284.5"/>
<text text-anchor="start" x="393" y="-302.5" font-family="Helvetica,sans-Serif" font-size="10.00">QuantConnect.Indicators.</text>
<text text-anchor="middle" x="455" y="-291.5" font-family="Helvetica,sans-Serif" font-size="10.00">SchaffTrendCycle</text>
</a>
</g>
</g>
<!-- Node1&#45;&gt;Node17 -->
<g id="edge16" class="edge">
<title>Node1&#45;&gt;Node17</title>
<path fill="none" stroke="midnightblue" d="M257.82,-422.46C275.34,-394.24 308.22,-348.19 349,-323.5 359.88,-316.91 372.38,-312.13 384.89,-308.66"/>
<polygon fill="midnightblue" stroke="midnightblue" points="254.67,-420.91 252.48,-431.28 260.66,-424.54 254.67,-420.91"/>
</g>
<!-- Node18 -->
<g id="node18" class="node">
<title>Node18</title>
<g id="a_node18"><a xlink:href="classQuantConnect_1_1Indicators_1_1StochasticRelativeStrengthIndex.html" target="_top" xlink:title="Stochastic RSI, or simply StochRSI, is a technical analysis indicator used to determine whether an as...">
<polygon fill="white" stroke="black" points="367,-235.5 367,-265.5 543,-265.5 543,-235.5 367,-235.5"/>
<text text-anchor="start" x="375" y="-253.5" font-family="Helvetica,sans-Serif" font-size="10.00">QuantConnect.Indicators.</text>
<text text-anchor="middle" x="455" y="-242.5" font-family="Helvetica,sans-Serif" font-size="10.00">StochasticRelativeStrengthIndex</text>
</a>
</g>
</g>
<!-- Node1&#45;&gt;Node18 -->
<g id="edge17" class="edge">
<title>Node1&#45;&gt;Node18</title>
<path fill="none" stroke="midnightblue" d="M252.11,-421.52C265.77,-383.57 297.08,-311.85 349,-274.5 354.46,-270.57 360.47,-267.27 366.75,-264.5"/>
<polygon fill="midnightblue" stroke="midnightblue" points="248.7,-420.68 248.72,-431.28 255.31,-422.98 248.7,-420.68"/>
</g>
<!-- Node19 -->
<g id="node19" class="node">
<title>Node19</title>
<g id="a_node19"><a xlink:href="classQuantConnect_1_1Indicators_1_1SwissArmyKnife.html" target="_top" xlink:title="Swiss Army Knife indicator by John Ehlers">
<polygon fill="white" stroke="black" points="385,-186.5 385,-216.5 525,-216.5 525,-186.5 385,-186.5"/>
<text text-anchor="start" x="393" y="-204.5" font-family="Helvetica,sans-Serif" font-size="10.00">QuantConnect.Indicators.</text>
<text text-anchor="middle" x="455" y="-193.5" font-family="Helvetica,sans-Serif" font-size="10.00">SwissArmyKnife</text>
</a>
</g>
</g>
<!-- Node1&#45;&gt;Node19 -->
<g id="edge18" class="edge">
<title>Node1&#45;&gt;Node19</title>
<path fill="none" stroke="midnightblue" d="M248.53,-421.27C258.23,-374.95 285.5,-276.43 349,-225.5 359.36,-217.19 372.05,-211.65 384.98,-207.97"/>
<polygon fill="midnightblue" stroke="midnightblue" points="245.04,-420.87 246.53,-431.36 251.91,-422.23 245.04,-420.87"/>
</g>
<!-- Node20 -->
<g id="node20" class="node">
<title>Node20</title>
<g id="a_node20"><a xlink:href="classQuantConnect_1_1Indicators_1_1TriangularMovingAverage.html" target="_top" xlink:title="This indicator computes the Triangular Moving Average (TRIMA). The Triangular Moving Average is calcu...">
<polygon fill="white" stroke="black" points="385,-137.5 385,-167.5 525,-167.5 525,-137.5 385,-137.5"/>
<text text-anchor="start" x="393" y="-155.5" font-family="Helvetica,sans-Serif" font-size="10.00">QuantConnect.Indicators.</text>
<text text-anchor="middle" x="455" y="-144.5" font-family="Helvetica,sans-Serif" font-size="10.00">TriangularMovingAverage</text>
</a>
</g>
</g>
<!-- Node1&#45;&gt;Node20 -->
<g id="edge19" class="edge">
<title>Node1&#45;&gt;Node20</title>
<path fill="none" stroke="midnightblue" d="M246.09,-421.5C251.96,-367.94 273.5,-241.7 349,-176.5 359.12,-167.76 371.78,-162.03 384.76,-158.31"/>
<polygon fill="midnightblue" stroke="midnightblue" points="242.6,-421.19 245.09,-431.49 249.57,-421.89 242.6,-421.19"/>
</g>
<!-- Node21 -->
<g id="node21" class="node">
<title>Node21</title>
<g id="a_node21"><a xlink:href="classQuantConnect_1_1Indicators_1_1Trix.html" target="_top" xlink:title="This indicator computes the TRIX (1&#45;period ROC of a Triple EMA) The TRIX is calculated as explained h...">
<polygon fill="white" stroke="black" points="376.5,-99 376.5,-118 533.5,-118 533.5,-99 376.5,-99"/>
<text text-anchor="middle" x="455" y="-106" font-family="Helvetica,sans-Serif" font-size="10.00">QuantConnect.Indicators.Trix</text>
</a>
</g>
</g>
<!-- Node1&#45;&gt;Node21 -->
<g id="edge20" class="edge">
<title>Node1&#45;&gt;Node21</title>
<path fill="none" stroke="midnightblue" d="M244.16,-421.02C246.02,-360.06 259.75,-205.13 349,-127.5 356.9,-120.63 366.42,-115.87 376.47,-112.62"/>
<polygon fill="midnightblue" stroke="midnightblue" points="240.65,-421.19 243.93,-431.27 247.65,-421.34 240.65,-421.19"/>
</g>
<!-- Node22 -->
<g id="node22" class="node">
<title>Node22</title>
<g id="a_node22"><a xlink:href="classQuantConnect_1_1Indicators_1_1TrueStrengthIndex.html" target="_top" xlink:title="This indicator computes the True Strength Index (TSI). The True Strength Index is calculated as expla...">
<polygon fill="white" stroke="black" points="385,-49.5 385,-79.5 525,-79.5 525,-49.5 385,-49.5"/>
<text text-anchor="start" x="393" y="-67.5" font-family="Helvetica,sans-Serif" font-size="10.00">QuantConnect.Indicators.</text>
<text text-anchor="middle" x="455" y="-56.5" font-family="Helvetica,sans-Serif" font-size="10.00">TrueStrengthIndex</text>
</a>
</g>
</g>
<!-- Node1&#45;&gt;Node22 -->
<g id="edge21" class="edge">
<title>Node1&#45;&gt;Node22</title>
<path fill="none" stroke="midnightblue" d="M243.4,-421.07C243.34,-355.78 252.65,-180.94 349,-89.5 358.92,-80.08 371.72,-74 384.96,-70.13"/>
<polygon fill="midnightblue" stroke="midnightblue" points="239.91,-421.3 243.49,-431.27 246.91,-421.24 239.91,-421.3"/>
</g>
<!-- Node23 -->
<g id="node23" class="node">
<title>Node23</title>
<g id="a_node23"><a xlink:href="classQuantConnect_1_1Indicators_1_1WilderMovingAverage.html" target="_top" xlink:title="Represents the moving average indicator defined by Welles Wilder in his book: New Concepts in Technic...">
<polygon fill="white" stroke="black" points="385,-0.5 385,-30.5 525,-30.5 525,-0.5 385,-0.5"/>
<text text-anchor="start" x="393" y="-18.5" font-family="Helvetica,sans-Serif" font-size="10.00">QuantConnect.Indicators.</text>
<text text-anchor="middle" x="455" y="-7.5" font-family="Helvetica,sans-Serif" font-size="10.00">WilderMovingAverage</text>
</a>
</g>
</g>
<!-- Node1&#45;&gt;Node23 -->
<g id="edge22" class="edge">
<title>Node1&#45;&gt;Node23</title>
<path fill="none" stroke="midnightblue" d="M247.11,-421.02C257.44,-340.52 293.17,-93.8 349,-39.5 358.79,-29.98 371.53,-23.94 384.75,-20.17"/>
<polygon fill="midnightblue" stroke="midnightblue" points="243.6,-420.88 245.82,-431.24 250.54,-421.75 243.6,-420.88"/>
</g>
<!-- Node2 -->
<g id="node2" class="node">
<title>Node2</title>
<g id="a_node2"><a xlink:href="classQuantConnect_1_1Indicators_1_1IndicatorBase.html" target="_top" xlink:title=" ">
<polygon fill="white" stroke="black" points="0,-431.5 0,-461.5 137,-461.5 137,-431.5 0,-431.5"/>
<text text-anchor="start" x="8" y="-449.5" font-family="Helvetica,sans-Serif" font-size="10.00">IndicatorBase&lt; Indicator</text>
<text text-anchor="middle" x="68.5" y="-438.5" font-family="Helvetica,sans-Serif" font-size="10.00">DataPoint &gt;</text>
</a>
</g>
</g>
<!-- Node2&#45;&gt;Node1 -->
<g id="edge1" class="edge">
<title>Node2&#45;&gt;Node1</title>
<path fill="none" stroke="midnightblue" d="M147.43,-446.5C155.89,-446.5 164.46,-446.5 172.81,-446.5"/>
<polygon fill="midnightblue" stroke="midnightblue" points="147.18,-443 137.18,-446.5 147.18,-450 147.18,-443"/>
</g>
<!-- Node11 -->
<g id="node11" class="node">
<title>Node11</title>
<g id="a_node11"><a xlink:href="classQuantConnect_1_1Indicators_1_1AbsolutePriceOscillator.html" target="_top" xlink:title="This indicator computes the Absolute Price Oscillator (APO) The Absolute Price Oscillator is calculat...">
<polygon fill="white" stroke="black" points="597,-529.5 597,-559.5 737,-559.5 737,-529.5 597,-529.5"/>
<text text-anchor="start" x="605" y="-547.5" font-family="Helvetica,sans-Serif" font-size="10.00">QuantConnect.Indicators.</text>
<text text-anchor="middle" x="667" y="-536.5" font-family="Helvetica,sans-Serif" font-size="10.00">AbsolutePriceOscillator</text>
</a>
</g>
</g>
<!-- Node10&#45;&gt;Node11 -->
<g id="edge10" class="edge">
<title>Node10&#45;&gt;Node11</title>
<path fill="none" stroke="midnightblue" d="M571.48,-544.5C580.12,-544.5 588.67,-544.5 596.88,-544.5"/>
<polygon fill="midnightblue" stroke="midnightblue" points="571.31,-541 561.31,-544.5 571.31,-548 571.31,-541"/>
</g>
<!-- Node12 -->
<g id="node12" class="node">
<title>Node12</title>
<g id="a_node12"><a xlink:href="classQuantConnect_1_1Indicators_1_1PercentagePriceOscillator.html" target="_top" xlink:title="This indicator computes the Percentage Price Oscillator (PPO) The Percentage Price Oscillator is calc...">
<polygon fill="white" stroke="black" points="773,-529.5 773,-559.5 915,-559.5 915,-529.5 773,-529.5"/>
<text text-anchor="start" x="781" y="-547.5" font-family="Helvetica,sans-Serif" font-size="10.00">QuantConnect.Indicators.</text>
<text text-anchor="middle" x="844" y="-536.5" font-family="Helvetica,sans-Serif" font-size="10.00">PercentagePriceOscillator</text>
</a>
</g>
</g>
<!-- Node11&#45;&gt;Node12 -->
<g id="edge11" class="edge">
<title>Node11&#45;&gt;Node12</title>
<path fill="none" stroke="midnightblue" d="M747.17,-544.5C755.75,-544.5 764.44,-544.5 772.9,-544.5"/>
<polygon fill="midnightblue" stroke="midnightblue" points="747.16,-541 737.16,-544.5 747.16,-548 747.16,-541"/>
</g>
</g>
</svg>
        <g id="navigator" transform="translate(0 0)" fill="#404254">
                <rect fill="#f2f5e9" fill-opacity="0.5" stroke="#606060" stroke-width=".5" x="0" y="0" width="60" height="60"/>
                <use id="zoomplus" xlink:href="#zoomPlus" x="17" y="9" onmousedown="handleZoom(evt,'in')"/>
                <use id="zoomminus" xlink:href="#zoomMin" x="42" y="9" onmousedown="handleZoom(evt,'out')"/>
                <use id="reset" xlink:href="#resetDef" x="30" y="36" onmousedown="handleReset()"/>
                <g id="arrowUp" xlink:href="#dirArrow" transform="translate(30 24)" onmousedown="handlePan(0,-1)">
                  <use xlink:href="#rim" fill="#404040">
                        <set attributeName="fill" to="#808080" begin="arrowUp.mouseover" end="arrowUp.mouseout"/>
                  </use>
                  <path fill="none" stroke="white" stroke-width="1.5" d="M0,-3.0v7 M-2.5,-0.5L0,-3.0L2.5,-0.5"/>
                </g>
                <g id="arrowRight" xlink:href="#dirArrow" transform="rotate(90) translate(36 -43)" onmousedown="handlePan(1,0)">
                  <use xlink:href="#rim" fill="#404040">
                        <set attributeName="fill" to="#808080" begin="arrowRight.mouseover" end="arrowRight.mouseout"/>
                  </use>
                  <path fill="none" stroke="white" stroke-width="1.5" d="M0,-3.0v7 M-2.5,-0.5L0,-3.0L2.5,-0.5"/>
                </g>
                <g id="arrowDown" xlink:href="#dirArrow" transform="rotate(180) translate(-30 -48)" onmousedown="handlePan(0,1)">
                  <use xlink:href="#rim" fill="#404040">
                        <set attributeName="fill" to="#808080" begin="arrowDown.mouseover" end="arrowDown.mouseout"/>
                  </use>
                  <path fill="none" stroke="white" stroke-width="1.5" d="M0,-3.0v7 M-2.5,-0.5L0,-3.0L2.5,-0.5"/>
                </g>
                <g id="arrowLeft" xlink:href="#dirArrow" transform="rotate(270) translate(-36 17)" onmousedown="handlePan(-1,0)">
                  <use xlink:href="#rim" fill="#404040">
                        <set attributeName="fill" to="#808080" begin="arrowLeft.mouseover" end="arrowLeft.mouseout"/>
                  </use>
                  <path fill="none" stroke="white" stroke-width="1.5" d="M0,-3.0v7 M-2.5,-0.5L0,-3.0L2.5,-0.5"/>
                </g>
        </g>
        <svg viewBox="0 0 15 15" width="100%" height="30px" preserveAspectRatio="xMaxYMin meet">
         <g id="arrow_out" transform="scale(0.3 0.3)">
          <a xlink:href="classQuantConnect_1_1Indicators_1_1Indicator__inherit__graph_org.svg" target="_base">
           <rect id="button" ry="5" rx="5" y="6" x="6" height="38" width="38"
                fill="#f2f5e9" fill-opacity="0.5" stroke="#606060" stroke-width="1.0"/>
           <path id="arrow"
             d="M 11.500037,31.436501 C 11.940474,20.09759 22.043105,11.32322 32.158766,21.979434 L 37.068811,17.246167 C 37.068811,17.246167 37.088388,32 37.088388,32 L 22.160133,31.978069 C 22.160133,31.978069 26.997745,27.140456 26.997745,27.140456 C 18.528582,18.264221 13.291696,25.230495 11.500037,31.436501 z"
             style="fill:#404040;"/>
          </a>
         </g>
        </svg>
</svg>
