<?xml version="1.0" encoding="UTF-8" standalone="no"?>
<!DOCTYPE svg PUBLIC "-//W3C//DTD SVG 1.1//EN"
 "http://www.w3.org/Graphics/SVG/1.1/DTD/svg11.dtd">
<!-- Generated by graphviz version 2.43.0 (0)
 -->
<!-- Title: QuantConnect.Messages.UnsupportedOperandPythonExceptionInterpreter.InvalidObjectTypesForOperation Pages: 1 -->
<svg width="473pt" height="50pt"
 viewBox="0.00 0.00 473.00 50.00" xmlns="http://www.w3.org/2000/svg" xmlns:xlink="http://www.w3.org/1999/xlink">
<g id="graph0" class="graph" transform="scale(1 1) rotate(0) translate(4 46)">
<title>QuantConnect.Messages.UnsupportedOperandPythonExceptionInterpreter.InvalidObjectTypesForOperation</title>
<polygon fill="white" stroke="transparent" points="-4,4 -4,-46 469,-46 469,4 -4,4"/>
<!-- Node1 -->
<g id="node1" class="node">
<title>Node1</title>
<g id="a_node1"><a xlink:title="Returns a message for invalid object types for operation">
<polygon fill="#bfbfbf" stroke="black" points="238,-0.5 238,-41.5 465,-41.5 465,-0.5 238,-0.5"/>
<text text-anchor="start" x="246" y="-29.5" font-family="Helvetica,sans-Serif" font-size="10.00">QuantConnect.Messages.Unsupported</text>
<text text-anchor="start" x="246" y="-18.5" font-family="Helvetica,sans-Serif" font-size="10.00">OperandPythonExceptionInterpreter.Invalid</text>
<text text-anchor="middle" x="351.5" y="-7.5" font-family="Helvetica,sans-Serif" font-size="10.00">ObjectTypesForOperation</text>
</a>
</g>
</g>
<!-- Node2 -->
<g id="node2" class="node">
<title>Node2</title>
<g id="a_node2"><a xlink:href="classQuantConnect_1_1Exceptions_1_1UnsupportedOperandPythonExceptionInterpreter.html#ac9e6430b5e7d2237ed6f8579e5a2eeab" target="_top" xlink:title="Interprets the specified exception into a new exception">
<polygon fill="white" stroke="black" points="0,-0.5 0,-41.5 202,-41.5 202,-0.5 0,-0.5"/>
<text text-anchor="start" x="8" y="-29.5" font-family="Helvetica,sans-Serif" font-size="10.00">QuantConnect.Exceptions.</text>
<text text-anchor="start" x="8" y="-18.5" font-family="Helvetica,sans-Serif" font-size="10.00">UnsupportedOperandPythonException</text>
<text text-anchor="middle" x="101" y="-7.5" font-family="Helvetica,sans-Serif" font-size="10.00">Interpreter.Interpret</text>
</a>
</g>
</g>
<!-- Node1&#45;&gt;Node2 -->
<g id="edge1" class="edge">
<title>Node1&#45;&gt;Node2</title>
<path fill="none" stroke="midnightblue" d="M227.78,-21C219.17,-21 210.54,-21 202.07,-21"/>
<polygon fill="midnightblue" stroke="midnightblue" points="227.88,-24.5 237.88,-21 227.88,-17.5 227.88,-24.5"/>
</g>
</g>
</svg>
