<?xml version="1.0" encoding="UTF-8" standalone="no"?>
<!DOCTYPE svg PUBLIC "-//W3C//DTD SVG 1.1//EN"
 "http://www.w3.org/Graphics/SVG/1.1/DTD/svg11.dtd">
<!-- Generated by graphviz version 2.43.0 (0)
 -->
<!-- Title: QuantConnect.Securities.SecurityExchangeHours.GetMarketHours Pages: 1 -->
<svg width="432pt" height="39pt"
 viewBox="0.00 0.00 432.00 39.00" xmlns="http://www.w3.org/2000/svg" xmlns:xlink="http://www.w3.org/1999/xlink">
<g id="graph0" class="graph" transform="scale(1 1) rotate(0) translate(4 35)">
<title>QuantConnect.Securities.SecurityExchangeHours.GetMarketHours</title>
<polygon fill="white" stroke="transparent" points="-4,4 -4,-35 428,-35 428,4 -4,4"/>
<!-- Node1 -->
<g id="node1" class="node">
<title>Node1</title>
<g id="a_node1"><a xlink:title="Helper to access the market hours field based on the day of week">
<polygon fill="#bfbfbf" stroke="black" points="0,-0.5 0,-30.5 215,-30.5 215,-0.5 0,-0.5"/>
<text text-anchor="start" x="8" y="-18.5" font-family="Helvetica,sans-Serif" font-size="10.00">QuantConnect.Securities.</text>
<text text-anchor="middle" x="107.5" y="-7.5" font-family="Helvetica,sans-Serif" font-size="10.00">SecurityExchangeHours.GetMarketHours</text>
</a>
</g>
</g>
<!-- Node2 -->
<g id="node2" class="node">
<title>Node2</title>
<g id="a_node2"><a xlink:href="classQuantConnect_1_1Securities_1_1LocalMarketHours.html#a1e9178f81413c7d1f032a003d74acecf" target="_top" xlink:title="Gets a LocalMarketHours instance that is always closed">
<polygon fill="white" stroke="black" points="251,-0.5 251,-30.5 424,-30.5 424,-0.5 251,-0.5"/>
<text text-anchor="start" x="259" y="-18.5" font-family="Helvetica,sans-Serif" font-size="10.00">QuantConnect.Securities.</text>
<text text-anchor="middle" x="337.5" y="-7.5" font-family="Helvetica,sans-Serif" font-size="10.00">LocalMarketHours.ClosedAllDay</text>
</a>
</g>
</g>
<!-- Node1&#45;&gt;Node2 -->
<g id="edge1" class="edge">
<title>Node1&#45;&gt;Node2</title>
<path fill="none" stroke="midnightblue" d="M215.16,-15.5C223.64,-15.5 232.18,-15.5 240.59,-15.5"/>
<polygon fill="midnightblue" stroke="midnightblue" points="240.77,-19 250.77,-15.5 240.77,-12 240.77,-19"/>
</g>
</g>
</svg>
