<?xml version="1.0" encoding="UTF-8" standalone="no"?>
<!DOCTYPE svg PUBLIC "-//W3C//DTD SVG 1.1//EN"
 "http://www.w3.org/Graphics/SVG/1.1/DTD/svg11.dtd">
<!-- Generated by graphviz version 2.43.0 (0)
 -->
<!-- Title: QuantConnect.Research.QuantBook.OptionHistory Pages: 1 -->
<!--zoomable 683 -->
<svg id="main" version="1.1" xmlns="http://www.w3.org/2000/svg" xmlns:xlink="http://www.w3.org/1999/xlink" xml:space="preserve" onload="init(evt)">
<style type="text/css"><![CDATA[
.edge:hover path { stroke: red; }
.edge:hover polygon { stroke: red; fill: red; }
]]></style>
<script type="text/javascript"><![CDATA[
var edges = document.getElementsByTagName('g');
if (edges && edges.length) {
  for (var i=0;i<edges.length;i++) {
    if (edges[i].id.substr(0,4)=='edge') {
      edges[i].setAttribute('class','edge');
    }
  }
}
]]></script>
        <defs>
                <circle id="rim" cx="0" cy="0" r="7"/>
                <circle id="rim2" cx="0" cy="0" r="3.5"/>
                <g id="zoomPlus">
                        <use xlink:href="#rim" fill="#404040">
                                <set attributeName="fill" to="#808080" begin="zoomplus.mouseover" end="zoomplus.mouseout"/>
                        </use>
                        <path d="M-4,0h8M0,-4v8" fill="none" stroke="white" stroke-width="1.5" pointer-events="none"/>
                </g>
                <g id="zoomMin">
                        <use xlink:href="#rim" fill="#404040">
                                <set attributeName="fill" to="#808080" begin="zoomminus.mouseover" end="zoomminus.mouseout"/>
                        </use>
                        <path d="M-4,0h8" fill="none" stroke="white" stroke-width="1.5" pointer-events="none"/>
                </g>
                <g id="dirArrow">
                        <path fill="none" stroke="white" stroke-width="1.5" d="M0,-3.0v7 M-2.5,-0.5L0,-3.0L2.5,-0.5"/>
                </g>
               <g id="resetDef">
                       <use xlink:href="#rim2" fill="#404040">
                               <set attributeName="fill" to="#808080" begin="reset.mouseover" end="reset.mouseout"/>
                       </use>
               </g>
        </defs>

<script type="text/javascript">
var viewWidth = 1829;
var viewHeight = 683;
var sectionId = 'dynsection-9';
</script>
<script xlink:href="svgpan.js"/>
<svg id="graph" class="graph">
<g id="viewport">
<title>QuantConnect.Research.QuantBook.OptionHistory</title>
<polygon fill="white" stroke="transparent" points="-4,4 -4,-678.88 1825,-678.88 1825,4 -4,4"/>
<!-- Node1 -->
<g id="node1" class="node">
<title>Node1</title>
<g id="a_node1"><a xlink:title="Gets OptionHistory object for a given symbol, date and resolution">
<polygon fill="#bfbfbf" stroke="black" points="0,-252.5 0,-282.5 166,-282.5 166,-252.5 0,-252.5"/>
<text text-anchor="start" x="8" y="-270.5" font-family="Helvetica,sans-Serif" font-size="10.00">QuantConnect.Research.Quant</text>
<text text-anchor="middle" x="83" y="-259.5" font-family="Helvetica,sans-Serif" font-size="10.00">Book.OptionHistory</text>
</a>
</g>
</g>
<!-- Node2 -->
<g id="node2" class="node">
<title>Node2</title>
<g id="a_node2"><a xlink:href="classQuantConnect_1_1Algorithm_1_1QCAlgorithm.html#aae4bbf25961344c2ad4ca7270966f90d" target="_top" xlink:title="Creates and adds a new Equity security to the algorithm">
<polygon fill="white" stroke="black" points="202,-503.5 202,-533.5 407,-533.5 407,-503.5 202,-503.5"/>
<text text-anchor="start" x="210" y="-521.5" font-family="Helvetica,sans-Serif" font-size="10.00">QuantConnect.Algorithm.QCAlgorithm.</text>
<text text-anchor="middle" x="304.5" y="-510.5" font-family="Helvetica,sans-Serif" font-size="10.00">AddEquity</text>
</a>
</g>
</g>
<!-- Node1&#45;&gt;Node2 -->
<g id="edge1" class="edge">
<title>Node1&#45;&gt;Node2</title>
<path fill="none" stroke="midnightblue" d="M87.32,-282.65C97.1,-323.53 129.76,-436.79 202,-493.5 204.12,-495.17 206.34,-496.72 208.64,-498.18"/>
<polygon fill="midnightblue" stroke="midnightblue" points="207.4,-501.5 217.85,-503.3 210.81,-495.38 207.4,-501.5"/>
</g>
<!-- Node3 -->
<g id="node3" class="node">
<title>Node3</title>
<g id="a_node3"><a xlink:href="classQuantConnect_1_1Algorithm_1_1QCAlgorithm.html#ae40bde218ca98e593a076fd671837bd4" target="_top" xlink:title="Creates and adds a new Future security to the algorithm">
<polygon fill="white" stroke="black" points="202,-405.5 202,-435.5 407,-435.5 407,-405.5 202,-405.5"/>
<text text-anchor="start" x="210" y="-423.5" font-family="Helvetica,sans-Serif" font-size="10.00">QuantConnect.Algorithm.QCAlgorithm.</text>
<text text-anchor="middle" x="304.5" y="-412.5" font-family="Helvetica,sans-Serif" font-size="10.00">AddFuture</text>
</a>
</g>
</g>
<!-- Node1&#45;&gt;Node3 -->
<g id="edge2" class="edge">
<title>Node1&#45;&gt;Node3</title>
<path fill="none" stroke="midnightblue" d="M93.63,-282.81C111.51,-309.93 152.56,-366.28 202,-395.5 205.69,-397.68 209.57,-399.67 213.56,-401.49"/>
<polygon fill="midnightblue" stroke="midnightblue" points="212.48,-404.83 223.06,-405.43 215.16,-398.37 212.48,-404.83"/>
</g>
<!-- Node24 -->
<g id="node24" class="node">
<title>Node24</title>
<g id="a_node24"><a xlink:href="classQuantConnect_1_1Algorithm_1_1QCAlgorithm.html#a896e634226bc3132055e766b03890992" target="_top" xlink:title="Creates and adds a new single Future contract to the algorithm">
<polygon fill="white" stroke="black" points="202,-454.5 202,-484.5 407,-484.5 407,-454.5 202,-454.5"/>
<text text-anchor="start" x="210" y="-472.5" font-family="Helvetica,sans-Serif" font-size="10.00">QuantConnect.Algorithm.QCAlgorithm.</text>
<text text-anchor="middle" x="304.5" y="-461.5" font-family="Helvetica,sans-Serif" font-size="10.00">AddFutureContract</text>
</a>
</g>
</g>
<!-- Node1&#45;&gt;Node24 -->
<g id="edge25" class="edge">
<title>Node1&#45;&gt;Node24</title>
<path fill="none" stroke="midnightblue" d="M89.59,-282.59C103.15,-317.06 141.25,-401.84 202,-444.5 204.87,-446.52 207.89,-448.37 211.01,-450.08"/>
<polygon fill="midnightblue" stroke="midnightblue" points="209.55,-453.26 220.07,-454.5 212.62,-446.97 209.55,-453.26"/>
</g>
<!-- Node25 -->
<g id="node25" class="node">
<title>Node25</title>
<g id="a_node25"><a xlink:href="classQuantConnect_1_1Algorithm_1_1QCAlgorithm.html#aa8ce9c6216eb415122a462f29c5a0932" target="_top" xlink:title="Creates and adds a new Index security to the algorithm">
<polygon fill="white" stroke="black" points="202,-356.5 202,-386.5 407,-386.5 407,-356.5 202,-356.5"/>
<text text-anchor="start" x="210" y="-374.5" font-family="Helvetica,sans-Serif" font-size="10.00">QuantConnect.Algorithm.QCAlgorithm.</text>
<text text-anchor="middle" x="304.5" y="-363.5" font-family="Helvetica,sans-Serif" font-size="10.00">AddIndex</text>
</a>
</g>
</g>
<!-- Node1&#45;&gt;Node25 -->
<g id="edge27" class="edge">
<title>Node1&#45;&gt;Node25</title>
<path fill="none" stroke="midnightblue" d="M102.02,-282.53C124.2,-300.29 163.66,-329.57 202,-346.5 207.67,-349 213.62,-351.28 219.7,-353.35"/>
<polygon fill="midnightblue" stroke="midnightblue" points="218.72,-356.71 229.31,-356.44 220.86,-350.05 218.72,-356.71"/>
</g>
<!-- Node26 -->
<g id="node26" class="node">
<title>Node26</title>
<g id="a_node26"><a xlink:href="classQuantConnect_1_1Securities_1_1SecurityManager.html#ac53ed019a68266ecfa144ab91162b6cb" target="_top" xlink:title="Check if this collection contains this symbol.">
<polygon fill="white" stroke="black" points="223.5,-307.5 223.5,-337.5 385.5,-337.5 385.5,-307.5 223.5,-307.5"/>
<text text-anchor="start" x="231.5" y="-325.5" font-family="Helvetica,sans-Serif" font-size="10.00">QuantConnect.Securities.</text>
<text text-anchor="middle" x="304.5" y="-314.5" font-family="Helvetica,sans-Serif" font-size="10.00">SecurityManager.ContainsKey</text>
</a>
</g>
</g>
<!-- Node1&#45;&gt;Node26 -->
<g id="edge28" class="edge">
<title>Node1&#45;&gt;Node26</title>
<path fill="none" stroke="midnightblue" d="M142.8,-282.54C161.7,-287.35 182.72,-292.68 202,-297.5 211.7,-299.93 221.94,-302.47 232.02,-304.96"/>
<polygon fill="midnightblue" stroke="midnightblue" points="231.48,-308.44 242.02,-307.44 233.16,-301.64 231.48,-308.44"/>
</g>
<!-- Node27 -->
<g id="node27" class="node">
<title>Node27</title>
<g id="a_node27"><a xlink:href="interfaceQuantConnect_1_1Interfaces_1_1IOptionChainProvider.html#ae84aa4fcafd5bd9723724ffd4c8878ee" target="_top" xlink:title="Gets the list of option contracts for a given underlying symbol">
<polygon fill="white" stroke="black" points="218.5,-247 218.5,-288 390.5,-288 390.5,-247 218.5,-247"/>
<text text-anchor="start" x="226.5" y="-276" font-family="Helvetica,sans-Serif" font-size="10.00">QuantConnect.Interfaces.</text>
<text text-anchor="start" x="226.5" y="-265" font-family="Helvetica,sans-Serif" font-size="10.00">IOptionChainProvider.GetOption</text>
<text text-anchor="middle" x="304.5" y="-254" font-family="Helvetica,sans-Serif" font-size="10.00">ContractList</text>
</a>
</g>
</g>
<!-- Node1&#45;&gt;Node27 -->
<g id="edge29" class="edge">
<title>Node1&#45;&gt;Node27</title>
<path fill="none" stroke="midnightblue" d="M166.05,-267.5C179.76,-267.5 194.1,-267.5 208.12,-267.5"/>
<polygon fill="midnightblue" stroke="midnightblue" points="208.26,-271 218.26,-267.5 208.26,-264 208.26,-271"/>
</g>
<!-- Node28 -->
<g id="node28" class="node">
<title>Node28</title>
<g id="a_node28"><a xlink:href="interfaceQuantConnect_1_1Interfaces_1_1ISubscriptionDataConfigProvider.html#a29826b931901dd4e4b64515663a2073b" target="_top" xlink:title="Gets a list of all registered SubscriptionDataConfig for a given Symbol if any else will return the w...">
<polygon fill="white" stroke="black" points="216.5,-187 216.5,-228 392.5,-228 392.5,-187 216.5,-187"/>
<text text-anchor="start" x="224.5" y="-216" font-family="Helvetica,sans-Serif" font-size="10.00">QuantConnect.Interfaces.</text>
<text text-anchor="start" x="224.5" y="-205" font-family="Helvetica,sans-Serif" font-size="10.00">ISubscriptionDataConfigProvider.</text>
<text text-anchor="middle" x="304.5" y="-194" font-family="Helvetica,sans-Serif" font-size="10.00">GetSubscriptionDataConfigs</text>
</a>
</g>
</g>
<!-- Node1&#45;&gt;Node28 -->
<g id="edge30" class="edge">
<title>Node1&#45;&gt;Node28</title>
<path fill="none" stroke="midnightblue" d="M139.11,-252.44C163.2,-245.85 192,-237.98 218.72,-230.67"/>
<polygon fill="midnightblue" stroke="midnightblue" points="219.74,-234.02 228.46,-228.01 217.89,-227.27 219.74,-234.02"/>
</g>
<!-- Node29 -->
<g id="node29" class="node">
<title>Node29</title>
<g id="a_node29"><a xlink:href="classQuantConnect_1_1Algorithm_1_1QCAlgorithm.html#a446a10e68319fdc3c0b2ed85d80f55f8" target="_top" xlink:title="Get the history for all configured securities over the requested span. This will use the resolution a...">
<polygon fill="white" stroke="black" points="202,-137.5 202,-167.5 407,-167.5 407,-137.5 202,-137.5"/>
<text text-anchor="start" x="210" y="-155.5" font-family="Helvetica,sans-Serif" font-size="10.00">QuantConnect.Algorithm.QCAlgorithm.</text>
<text text-anchor="middle" x="304.5" y="-144.5" font-family="Helvetica,sans-Serif" font-size="10.00">History</text>
</a>
</g>
</g>
<!-- Node1&#45;&gt;Node29 -->
<g id="edge31" class="edge">
<title>Node1&#45;&gt;Node29</title>
<path fill="none" stroke="midnightblue" d="M99.39,-252.36C120.66,-232.28 161.1,-197.08 202,-177.5 207.01,-175.1 212.28,-172.92 217.67,-170.93"/>
<polygon fill="midnightblue" stroke="midnightblue" points="219.14,-174.13 227.46,-167.57 216.87,-167.5 219.14,-174.13"/>
</g>
<!-- Node30 -->
<g id="node30" class="node">
<title>Node30</title>
<g id="a_node30"><a xlink:href="classQuantConnect_1_1Symbol.html#a1f3c25223fd9a7b753a4f84ece6469ab" target="_top" xlink:title="Method returns true, if symbol is a derivative canonical symbol">
<polygon fill="white" stroke="black" points="212,-99 212,-118 397,-118 397,-99 212,-99"/>
<text text-anchor="middle" x="304.5" y="-106" font-family="Helvetica,sans-Serif" font-size="10.00">QuantConnect.Symbol.IsCanonical</text>
</a>
</g>
</g>
<!-- Node1&#45;&gt;Node30 -->
<g id="edge32" class="edge">
<title>Node1&#45;&gt;Node30</title>
<path fill="none" stroke="midnightblue" d="M92.04,-252.31C108.43,-222.94 148.72,-158.56 202,-127.5 205.75,-125.32 209.69,-123.38 213.76,-121.65"/>
<polygon fill="midnightblue" stroke="midnightblue" points="215.33,-124.8 223.46,-118.01 212.87,-118.25 215.33,-124.8"/>
</g>
<!-- Node31 -->
<g id="node31" class="node">
<title>Node31</title>
<g id="a_node31"><a xlink:href="classQuantConnect_1_1Research_1_1QuantBook.html#af9587b46674a9a44236a5188e34a9128" target="_top" xlink:title="Gets OptionHistory object for a given symbol, date and resolution">
<polygon fill="white" stroke="black" points="221.5,-49.5 221.5,-79.5 387.5,-79.5 387.5,-49.5 221.5,-49.5"/>
<text text-anchor="start" x="229.5" y="-67.5" font-family="Helvetica,sans-Serif" font-size="10.00">QuantConnect.Research.Quant</text>
<text text-anchor="middle" x="304.5" y="-56.5" font-family="Helvetica,sans-Serif" font-size="10.00">Book.OptionHistory</text>
</a>
</g>
</g>
<!-- Node1&#45;&gt;Node31 -->
<g id="edge33" class="edge">
<title>Node1&#45;&gt;Node31</title>
<path fill="none" stroke="midnightblue" d="M89.56,-252.32C103.07,-217.67 141.06,-132.4 202,-89.5 205.25,-87.21 208.68,-85.14 212.24,-83.25"/>
<polygon fill="midnightblue" stroke="midnightblue" points="213.8,-86.38 221.34,-78.93 210.8,-80.06 213.8,-86.38"/>
</g>
<!-- Node32 -->
<g id="node32" class="node">
<title>Node32</title>
<g id="a_node32"><a xlink:href="classQuantConnect_1_1Securities_1_1UniverseManager.html#af60ce15a9fe3719dcca8f1cf5d346a2a" target="_top" xlink:title="Gets the value associated with the specified key.">
<polygon fill="white" stroke="black" points="222.5,-0.5 222.5,-30.5 386.5,-30.5 386.5,-0.5 222.5,-0.5"/>
<text text-anchor="start" x="230.5" y="-18.5" font-family="Helvetica,sans-Serif" font-size="10.00">QuantConnect.Securities.</text>
<text text-anchor="middle" x="304.5" y="-7.5" font-family="Helvetica,sans-Serif" font-size="10.00">UniverseManager.TryGetValue</text>
</a>
</g>
</g>
<!-- Node1&#45;&gt;Node32 -->
<g id="edge34" class="edge">
<title>Node1&#45;&gt;Node32</title>
<path fill="none" stroke="midnightblue" d="M87.18,-252.47C96.7,-211.4 128.92,-96.54 202,-39.5 205.55,-36.73 209.37,-34.27 213.36,-32.09"/>
<polygon fill="midnightblue" stroke="midnightblue" points="214.89,-35.24 222.38,-27.75 211.85,-28.94 214.89,-35.24"/>
</g>
<!-- Node4 -->
<g id="node4" class="node">
<title>Node4</title>
<g id="a_node4"><a xlink:href="classQuantConnect_1_1Algorithm_1_1QCAlgorithm.html#a101da8582e6819d82780f37a3b3162e0" target="_top" xlink:title="Add specified data to our data subscriptions. QuantConnect will funnel this data to the handle data r...">
<polygon fill="white" stroke="black" points="443,-453.5 443,-483.5 648,-483.5 648,-453.5 443,-453.5"/>
<text text-anchor="start" x="451" y="-471.5" font-family="Helvetica,sans-Serif" font-size="10.00">QuantConnect.Algorithm.QCAlgorithm.</text>
<text text-anchor="middle" x="545.5" y="-460.5" font-family="Helvetica,sans-Serif" font-size="10.00">AddSecurity</text>
</a>
</g>
</g>
<!-- Node3&#45;&gt;Node4 -->
<g id="edge3" class="edge">
<title>Node3&#45;&gt;Node4</title>
<path fill="none" stroke="midnightblue" d="M380.47,-435.56C405.71,-440.63 434.06,-446.32 459.99,-451.53"/>
<polygon fill="midnightblue" stroke="midnightblue" points="459.31,-454.96 469.8,-453.5 460.69,-448.1 459.31,-454.96"/>
</g>
<!-- Node5 -->
<g id="node5" class="node">
<title>Node5</title>
<g id="a_node5"><a xlink:href="classQuantConnect_1_1Symbol.html#a350b9a625cf7bad95da82894be3cd0a8" target="_top" xlink:title="Provides a convenience method for creating a Symbol for most security types. This method currently do...">
<polygon fill="white" stroke="black" points="465,-413 465,-432 626,-432 626,-413 465,-413"/>
<text text-anchor="middle" x="545.5" y="-420" font-family="Helvetica,sans-Serif" font-size="10.00">QuantConnect.Symbol.Create</text>
</a>
</g>
</g>
<!-- Node3&#45;&gt;Node5 -->
<g id="edge4" class="edge">
<title>Node3&#45;&gt;Node5</title>
<path fill="none" stroke="midnightblue" d="M407.2,-421.35C423.05,-421.48 439.31,-421.62 454.86,-421.75"/>
<polygon fill="midnightblue" stroke="midnightblue" points="454.93,-425.25 464.96,-421.83 454.99,-418.25 454.93,-425.25"/>
</g>
<!-- Node23 -->
<g id="node23" class="node">
<title>Node23</title>
<g id="a_node23"><a xlink:href="classQuantConnect_1_1SymbolCache.html#a131a5bb015b9a603328d0eddfe90c610" target="_top" xlink:title="Gets the Symbol object that is mapped to the specified string ticker symbol">
<polygon fill="white" stroke="black" points="466.5,-363.5 466.5,-393.5 624.5,-393.5 624.5,-363.5 466.5,-363.5"/>
<text text-anchor="start" x="474.5" y="-381.5" font-family="Helvetica,sans-Serif" font-size="10.00">QuantConnect.SymbolCache.</text>
<text text-anchor="middle" x="545.5" y="-370.5" font-family="Helvetica,sans-Serif" font-size="10.00">TryGetSymbol</text>
</a>
</g>
</g>
<!-- Node3&#45;&gt;Node23 -->
<g id="edge24" class="edge">
<title>Node3&#45;&gt;Node23</title>
<path fill="none" stroke="midnightblue" d="M391.11,-405.46C412.27,-401.74 434.98,-397.75 456.26,-394.01"/>
<polygon fill="midnightblue" stroke="midnightblue" points="457.01,-397.43 466.25,-392.25 455.8,-390.53 457.01,-397.43"/>
</g>
<!-- Node6 -->
<g id="node6" class="node">
<title>Node6</title>
<g id="a_node6"><a xlink:href="classQuantConnect_1_1Symbol.html#a7518a1932d1babbff128f2ba9666a78b" target="_top" xlink:title="Provides a convenience method for creating an option Symbol.">
<polygon fill="white" stroke="black" points="693.5,-593.5 693.5,-623.5 854.5,-623.5 854.5,-593.5 693.5,-593.5"/>
<text text-anchor="start" x="701.5" y="-611.5" font-family="Helvetica,sans-Serif" font-size="10.00">QuantConnect.Symbol.Create</text>
<text text-anchor="middle" x="774" y="-600.5" font-family="Helvetica,sans-Serif" font-size="10.00">Option</text>
</a>
</g>
</g>
<!-- Node5&#45;&gt;Node6 -->
<g id="edge5" class="edge">
<title>Node5&#45;&gt;Node6</title>
<path fill="none" stroke="midnightblue" d="M626.2,-429.81C634.23,-433.12 641.72,-437.57 648,-443.5 693.13,-486.15 641.53,-533.2 684,-578.5 687.53,-582.27 691.56,-585.57 695.89,-588.45"/>
<polygon fill="midnightblue" stroke="midnightblue" points="694.17,-591.49 704.57,-593.49 697.69,-585.44 694.17,-591.49"/>
</g>
<!-- Node7 -->
<g id="node7" class="node">
<title>Node7</title>
<g id="a_node7"><a xlink:href="classQuantConnect_1_1SecurityIdentifier.html#a0c21d7880c9fdd260883d11ea0c99a00" target="_top" xlink:title="Helper overload that will search the mapfiles to resolve the first date. This implementation uses the...">
<polygon fill="white" stroke="black" points="900,-626.5 900,-656.5 1074,-656.5 1074,-626.5 900,-626.5"/>
<text text-anchor="start" x="908" y="-644.5" font-family="Helvetica,sans-Serif" font-size="10.00">QuantConnect.SecurityIdentifier.</text>
<text text-anchor="middle" x="987" y="-633.5" font-family="Helvetica,sans-Serif" font-size="10.00">GenerateEquity</text>
</a>
</g>
</g>
<!-- Node5&#45;&gt;Node7 -->
<g id="edge18" class="edge">
<title>Node5&#45;&gt;Node7</title>
<path fill="none" stroke="midnightblue" d="M626.14,-429.15C634.28,-432.56 641.82,-437.21 648,-443.5 708.26,-504.78 618.54,-577.8 684,-633.5 751.63,-691.05 861.9,-675.97 928.83,-659.17"/>
<polygon fill="midnightblue" stroke="midnightblue" points="929.98,-662.48 938.78,-656.57 928.22,-655.71 929.98,-662.48"/>
</g>
<!-- Node8 -->
<g id="node8" class="node">
<title>Node8</title>
<g id="a_node8"><a xlink:href="classQuantConnect_1_1Symbol.html#a59158f74116be3dad0ea0f3f3f134416" target="_top" xlink:title="Initializes a new instance of the Symbol class">
<polygon fill="white" stroke="black" points="904.5,-577 904.5,-596 1069.5,-596 1069.5,-577 904.5,-577"/>
<text text-anchor="middle" x="987" y="-584" font-family="Helvetica,sans-Serif" font-size="10.00">QuantConnect.Symbol.Symbol</text>
</a>
</g>
</g>
<!-- Node5&#45;&gt;Node8 -->
<g id="edge23" class="edge">
<title>Node5&#45;&gt;Node8</title>
<path fill="none" stroke="midnightblue" d="M626.24,-430.53C634.16,-433.73 641.62,-437.95 648,-443.5 683.95,-474.79 647.04,-514.41 684,-544.5 715.43,-570.09 817.31,-580.09 894.12,-584"/>
<polygon fill="midnightblue" stroke="midnightblue" points="894.14,-587.51 904.3,-584.49 894.48,-580.51 894.14,-587.51"/>
</g>
<!-- Node14 -->
<g id="node14" class="node">
<title>Node14</title>
<g id="a_node14"><a xlink:href="classQuantConnect_1_1SecurityIdentifier.html#a02ca750115844561c001c2346fbafc00" target="_top" xlink:title="Generates a new SecurityIdentifier for a custom security with the option of providing the first date">
<polygon fill="white" stroke="black" points="687,-505.5 687,-535.5 861,-535.5 861,-505.5 687,-505.5"/>
<text text-anchor="start" x="695" y="-523.5" font-family="Helvetica,sans-Serif" font-size="10.00">QuantConnect.SecurityIdentifier.</text>
<text text-anchor="middle" x="774" y="-512.5" font-family="Helvetica,sans-Serif" font-size="10.00">GenerateBase</text>
</a>
</g>
</g>
<!-- Node5&#45;&gt;Node14 -->
<g id="edge13" class="edge">
<title>Node5&#45;&gt;Node14</title>
<path fill="none" stroke="midnightblue" d="M624.11,-432.03C632.56,-434.94 640.72,-438.68 648,-443.5 671.44,-459.01 661.12,-479.18 684,-495.5 686.68,-497.41 689.5,-499.18 692.42,-500.81"/>
<polygon fill="midnightblue" stroke="midnightblue" points="690.94,-503.98 701.45,-505.3 694.06,-497.71 690.94,-503.98"/>
</g>
<!-- Node16 -->
<g id="node16" class="node">
<title>Node16</title>
<g id="a_node16"><a xlink:href="classQuantConnect_1_1SecurityIdentifier.html#a53953b18d814c5445e4ecdcb3b555080" target="_top" xlink:title="Generates a new SecurityIdentifier for a CFD security">
<polygon fill="white" stroke="black" points="687,-456.5 687,-486.5 861,-486.5 861,-456.5 687,-456.5"/>
<text text-anchor="start" x="695" y="-474.5" font-family="Helvetica,sans-Serif" font-size="10.00">QuantConnect.SecurityIdentifier.</text>
<text text-anchor="middle" x="774" y="-463.5" font-family="Helvetica,sans-Serif" font-size="10.00">GenerateCfd</text>
</a>
</g>
</g>
<!-- Node5&#45;&gt;Node16 -->
<g id="edge15" class="edge">
<title>Node5&#45;&gt;Node16</title>
<path fill="none" stroke="midnightblue" d="M593.28,-432.01C610.49,-435.56 630.14,-439.65 648,-443.5 663.84,-446.91 680.8,-450.65 696.94,-454.25"/>
<polygon fill="midnightblue" stroke="midnightblue" points="696.35,-457.71 706.87,-456.48 697.88,-450.88 696.35,-457.71"/>
</g>
<!-- Node17 -->
<g id="node17" class="node">
<title>Node17</title>
<g id="a_node17"><a xlink:href="classQuantConnect_1_1SecurityIdentifier.html#a5889a95a36ce927dd0a109cbfbcbe663" target="_top" xlink:title="Generates a new SecurityIdentifier for a Crypto pair">
<polygon fill="white" stroke="black" points="687,-407.5 687,-437.5 861,-437.5 861,-407.5 687,-407.5"/>
<text text-anchor="start" x="695" y="-425.5" font-family="Helvetica,sans-Serif" font-size="10.00">QuantConnect.SecurityIdentifier.</text>
<text text-anchor="middle" x="774" y="-414.5" font-family="Helvetica,sans-Serif" font-size="10.00">GenerateCrypto</text>
</a>
</g>
</g>
<!-- Node5&#45;&gt;Node17 -->
<g id="edge16" class="edge">
<title>Node5&#45;&gt;Node17</title>
<path fill="none" stroke="midnightblue" d="M626.04,-422.5C642.29,-422.5 659.57,-422.5 676.35,-422.5"/>
<polygon fill="midnightblue" stroke="midnightblue" points="676.72,-426 686.72,-422.5 676.72,-419 676.72,-426"/>
</g>
<!-- Node18 -->
<g id="node18" class="node">
<title>Node18</title>
<g id="a_node18"><a xlink:href="classQuantConnect_1_1SecurityIdentifier.html#ac665665a16d5449872fed3427b95a260" target="_top" xlink:title="Generates a new SecurityIdentifier for a CryptoFuture pair">
<polygon fill="white" stroke="black" points="687,-358.5 687,-388.5 861,-388.5 861,-358.5 687,-358.5"/>
<text text-anchor="start" x="695" y="-376.5" font-family="Helvetica,sans-Serif" font-size="10.00">QuantConnect.SecurityIdentifier.</text>
<text text-anchor="middle" x="774" y="-365.5" font-family="Helvetica,sans-Serif" font-size="10.00">GenerateCryptoFuture</text>
</a>
</g>
</g>
<!-- Node5&#45;&gt;Node18 -->
<g id="edge17" class="edge">
<title>Node5&#45;&gt;Node18</title>
<path fill="none" stroke="midnightblue" d="M596.65,-412.96C613.04,-409.75 631.32,-406.08 648,-402.5 664.93,-398.87 683.11,-394.77 700.21,-390.82"/>
<polygon fill="midnightblue" stroke="midnightblue" points="701.19,-394.18 710.14,-388.52 699.61,-387.37 701.19,-394.18"/>
</g>
<!-- Node19 -->
<g id="node19" class="node">
<title>Node19</title>
<g id="a_node19"><a xlink:href="classQuantConnect_1_1SecurityIdentifier.html#a9cf0d3b208a5171e6112516ce441f18d" target="_top" xlink:title="Generates a new SecurityIdentifier for a forex pair">
<polygon fill="white" stroke="black" points="687,-309.5 687,-339.5 861,-339.5 861,-309.5 687,-309.5"/>
<text text-anchor="start" x="695" y="-327.5" font-family="Helvetica,sans-Serif" font-size="10.00">QuantConnect.SecurityIdentifier.</text>
<text text-anchor="middle" x="774" y="-316.5" font-family="Helvetica,sans-Serif" font-size="10.00">GenerateForex</text>
</a>
</g>
</g>
<!-- Node5&#45;&gt;Node19 -->
<g id="edge19" class="edge">
<title>Node5&#45;&gt;Node19</title>
<path fill="none" stroke="midnightblue" d="M626.25,-413.19C633.95,-410.44 641.35,-406.94 648,-402.5 671.99,-386.48 660.58,-365.33 684,-348.5 686.1,-346.99 688.3,-345.57 690.56,-344.24"/>
<polygon fill="midnightblue" stroke="midnightblue" points="692.33,-347.27 699.6,-339.55 689.11,-341.05 692.33,-347.27"/>
</g>
<!-- Node20 -->
<g id="node20" class="node">
<title>Node20</title>
<g id="a_node20"><a xlink:href="classQuantConnect_1_1SecurityIdentifier.html#ad50a891c97cb0c084a9e2aa43607ed66" target="_top" xlink:title="Generates a new SecurityIdentifier for a future">
<polygon fill="white" stroke="black" points="687,-260.5 687,-290.5 861,-290.5 861,-260.5 687,-260.5"/>
<text text-anchor="start" x="695" y="-278.5" font-family="Helvetica,sans-Serif" font-size="10.00">QuantConnect.SecurityIdentifier.</text>
<text text-anchor="middle" x="774" y="-267.5" font-family="Helvetica,sans-Serif" font-size="10.00">GenerateFuture</text>
</a>
</g>
</g>
<!-- Node5&#45;&gt;Node20 -->
<g id="edge20" class="edge">
<title>Node5&#45;&gt;Node20</title>
<path fill="none" stroke="midnightblue" d="M626.24,-415.34C634.17,-412.21 641.62,-408.03 648,-402.5 684.63,-370.72 648.48,-332.52 684,-299.5 685.14,-298.44 686.31,-297.43 687.53,-296.47"/>
<polygon fill="midnightblue" stroke="midnightblue" points="689.71,-299.21 696.02,-290.7 685.78,-293.42 689.71,-299.21"/>
</g>
<!-- Node21 -->
<g id="node21" class="node">
<title>Node21</title>
<g id="a_node21"><a xlink:href="classQuantConnect_1_1SecurityIdentifier.html#ade05a8e57b041ab484cf585be8d05699" target="_top" xlink:title="Generates a new SecurityIdentifier for a INDEX security">
<polygon fill="white" stroke="black" points="687,-211.5 687,-241.5 861,-241.5 861,-211.5 687,-211.5"/>
<text text-anchor="start" x="695" y="-229.5" font-family="Helvetica,sans-Serif" font-size="10.00">QuantConnect.SecurityIdentifier.</text>
<text text-anchor="middle" x="774" y="-218.5" font-family="Helvetica,sans-Serif" font-size="10.00">GenerateIndex</text>
</a>
</g>
</g>
<!-- Node5&#45;&gt;Node21 -->
<g id="edge21" class="edge">
<title>Node5&#45;&gt;Node21</title>
<path fill="none" stroke="midnightblue" d="M626.08,-416.29C634.18,-413.01 641.72,-408.54 648,-402.5 698.01,-354.35 635.67,-300.34 684,-250.5 684.94,-249.53 685.91,-248.6 686.92,-247.7"/>
<polygon fill="midnightblue" stroke="midnightblue" points="689.27,-250.32 695.19,-241.53 685.09,-244.71 689.27,-250.32"/>
</g>
<!-- Node22 -->
<g id="node22" class="node">
<title>Node22</title>
<g id="a_node22"><a xlink:href="classQuantConnect_1_1Messages_1_1Symbol.html#ab801bef52a308b8ba7ba6d42e1ef1988" target="_top" xlink:title="Returns a string message saying the given security type has not been implemented yet">
<polygon fill="white" stroke="black" points="684,-162.5 684,-192.5 864,-192.5 864,-162.5 684,-162.5"/>
<text text-anchor="start" x="692" y="-180.5" font-family="Helvetica,sans-Serif" font-size="10.00">QuantConnect.Messages.Symbol.</text>
<text text-anchor="middle" x="774" y="-169.5" font-family="Helvetica,sans-Serif" font-size="10.00">SecurityTypeNotImplementedYet</text>
</a>
</g>
</g>
<!-- Node5&#45;&gt;Node22 -->
<g id="edge22" class="edge">
<title>Node5&#45;&gt;Node22</title>
<path fill="none" stroke="midnightblue" d="M626.17,-416.73C634.31,-413.38 641.83,-408.78 648,-402.5 711.62,-337.77 622.65,-268.38 684,-201.5 684.78,-200.65 685.6,-199.82 686.43,-199.02"/>
<polygon fill="midnightblue" stroke="midnightblue" points="688.9,-201.53 694.57,-192.58 684.56,-196.04 688.9,-201.53"/>
</g>
<!-- Node6&#45;&gt;Node7 -->
<g id="edge6" class="edge">
<title>Node6&#45;&gt;Node7</title>
<path fill="none" stroke="midnightblue" d="M854.77,-620.98C866.14,-622.75 877.94,-624.6 889.59,-626.42"/>
<polygon fill="midnightblue" stroke="midnightblue" points="889.35,-629.93 899.77,-628.01 890.43,-623.01 889.35,-629.93"/>
</g>
<!-- Node6&#45;&gt;Node8 -->
<g id="edge7" class="edge">
<title>Node6&#45;&gt;Node8</title>
<path fill="none" stroke="midnightblue" d="M854.77,-600.18C867.7,-598.83 881.17,-597.43 894.35,-596.06"/>
<polygon fill="midnightblue" stroke="midnightblue" points="894.78,-599.53 904.36,-595.01 894.05,-592.57 894.78,-599.53"/>
</g>
<!-- Node9 -->
<g id="node9" class="node">
<title>Node9</title>
<g id="a_node9"><a xlink:href="classQuantConnect_1_1Symbol.html#a59b0795fa21f46c306deb5576fa03bb9" target="_top" xlink:title="Centralized helper method to resolve alias for a symbol">
<polygon fill="white" stroke="black" points="1110,-577 1110,-596 1280,-596 1280,-577 1110,-577"/>
<text text-anchor="middle" x="1195" y="-584" font-family="Helvetica,sans-Serif" font-size="10.00">QuantConnect.Symbol.GetAlias</text>
</a>
</g>
</g>
<!-- Node8&#45;&gt;Node9 -->
<g id="edge8" class="edge">
<title>Node8&#45;&gt;Node9</title>
<path fill="none" stroke="midnightblue" d="M1069.71,-586.5C1079.47,-586.5 1089.49,-586.5 1099.4,-586.5"/>
<polygon fill="midnightblue" stroke="midnightblue" points="1099.68,-590 1109.68,-586.5 1099.68,-583 1099.68,-590"/>
</g>
<!-- Node10 -->
<g id="node10" class="node">
<title>Node10</title>
<g id="a_node10"><a xlink:href="classQuantConnect_1_1SymbolRepresentation.html#ad43ac907f6c19083821f58f21c6de017" target="_top" xlink:title="Returns future symbol ticker from underlying and expiration date. Function can generate tickers of tw...">
<polygon fill="white" stroke="black" points="1316,-599.5 1316,-629.5 1519,-629.5 1519,-599.5 1316,-599.5"/>
<text text-anchor="start" x="1324" y="-617.5" font-family="Helvetica,sans-Serif" font-size="10.00">QuantConnect.SymbolRepresentation.</text>
<text text-anchor="middle" x="1417.5" y="-606.5" font-family="Helvetica,sans-Serif" font-size="10.00">GenerateFutureTicker</text>
</a>
</g>
</g>
<!-- Node9&#45;&gt;Node10 -->
<g id="edge9" class="edge">
<title>Node9&#45;&gt;Node10</title>
<path fill="none" stroke="midnightblue" d="M1270.96,-596.02C1282.27,-597.46 1294.14,-598.96 1306.01,-600.47"/>
<polygon fill="midnightblue" stroke="midnightblue" points="1305.62,-603.95 1315.98,-601.74 1306.5,-597 1305.62,-603.95"/>
</g>
<!-- Node12 -->
<g id="node12" class="node">
<title>Node12</title>
<g id="a_node12"><a xlink:href="classQuantConnect_1_1SymbolRepresentation.html#ab133044f5cf8c16e700190a2202b215e" target="_top" xlink:title="Returns option symbol ticker in accordance with OSI symbology More information can be found at http:/...">
<polygon fill="white" stroke="black" points="1316,-547.5 1316,-577.5 1519,-577.5 1519,-547.5 1316,-547.5"/>
<text text-anchor="start" x="1324" y="-565.5" font-family="Helvetica,sans-Serif" font-size="10.00">QuantConnect.SymbolRepresentation.</text>
<text text-anchor="middle" x="1417.5" y="-554.5" font-family="Helvetica,sans-Serif" font-size="10.00">GenerateOptionTickerOSI</text>
</a>
</g>
</g>
<!-- Node9&#45;&gt;Node12 -->
<g id="edge11" class="edge">
<title>Node9&#45;&gt;Node12</title>
<path fill="none" stroke="midnightblue" d="M1280.31,-577.32C1288.69,-576.41 1297.3,-575.47 1305.9,-574.54"/>
<polygon fill="midnightblue" stroke="midnightblue" points="1306.43,-578 1315.99,-573.44 1305.67,-571.04 1306.43,-578"/>
</g>
<!-- Node11 -->
<g id="node11" class="node">
<title>Node11</title>
<g id="a_node11"><a xlink:href="classQuantConnect_1_1Securities_1_1Future_1_1FuturesExpiryUtilityFunctions.html#a4ccb1e2f2fe40ff09785a74a02f26df1" target="_top" xlink:title="Gets the number of months between the contract month and the expiry date.">
<polygon fill="white" stroke="black" points="1555,-597 1555,-638 1821,-638 1821,-597 1555,-597"/>
<text text-anchor="start" x="1563" y="-626" font-family="Helvetica,sans-Serif" font-size="10.00">QuantConnect.Securities.</text>
<text text-anchor="start" x="1563" y="-615" font-family="Helvetica,sans-Serif" font-size="10.00">Future.FuturesExpiryUtilityFunctions.</text>
<text text-anchor="middle" x="1688" y="-604" font-family="Helvetica,sans-Serif" font-size="10.00">GetDeltaBetweenContractMonthAndContractExpiry</text>
</a>
</g>
</g>
<!-- Node10&#45;&gt;Node11 -->
<g id="edge10" class="edge">
<title>Node10&#45;&gt;Node11</title>
<path fill="none" stroke="midnightblue" d="M1519.24,-615.63C1527.59,-615.72 1536.11,-615.81 1544.68,-615.91"/>
<polygon fill="midnightblue" stroke="midnightblue" points="1544.72,-619.41 1554.76,-616.02 1544.8,-612.41 1544.72,-619.41"/>
</g>
<!-- Node13 -->
<g id="node13" class="node">
<title>Node13</title>
<g id="a_node13"><a xlink:href="classQuantConnect_1_1Messages_1_1SymbolRepresentation.html#a2c514157d8055cfa271ea3a7ca1ccde7" target="_top" xlink:title="Returns a string message saying an unexpected security type was received by the given method name">
<polygon fill="white" stroke="black" points="1592,-537 1592,-578 1784,-578 1784,-537 1592,-537"/>
<text text-anchor="start" x="1600" y="-566" font-family="Helvetica,sans-Serif" font-size="10.00">QuantConnect.Messages.Symbol</text>
<text text-anchor="start" x="1600" y="-555" font-family="Helvetica,sans-Serif" font-size="10.00">Representation.UnexpectedSecurity</text>
<text text-anchor="middle" x="1688" y="-544" font-family="Helvetica,sans-Serif" font-size="10.00">TypeForMethod</text>
</a>
</g>
</g>
<!-- Node12&#45;&gt;Node13 -->
<g id="edge12" class="edge">
<title>Node12&#45;&gt;Node13</title>
<path fill="none" stroke="midnightblue" d="M1519.24,-560.62C1539.7,-560.24 1561.27,-559.84 1581.88,-559.46"/>
<polygon fill="midnightblue" stroke="midnightblue" points="1581.98,-562.96 1591.91,-559.27 1581.85,-555.96 1581.98,-562.96"/>
</g>
<!-- Node15 -->
<g id="node15" class="node">
<title>Node15</title>
<g id="a_node15"><a xlink:href="classQuantConnect_1_1SecurityIdentifier.html#a19e1f9da410608020d74ed9e7d283575" target="_top" xlink:title="Generates the Symbol property for QuantConnect.SecurityType.Base security identifiers">
<polygon fill="white" stroke="black" points="900,-505.5 900,-535.5 1074,-535.5 1074,-505.5 900,-505.5"/>
<text text-anchor="start" x="908" y="-523.5" font-family="Helvetica,sans-Serif" font-size="10.00">QuantConnect.SecurityIdentifier.</text>
<text text-anchor="middle" x="987" y="-512.5" font-family="Helvetica,sans-Serif" font-size="10.00">GenerateBaseSymbol</text>
</a>
</g>
</g>
<!-- Node14&#45;&gt;Node15 -->
<g id="edge14" class="edge">
<title>Node14&#45;&gt;Node15</title>
<path fill="none" stroke="midnightblue" d="M861.13,-520.5C870.5,-520.5 880.08,-520.5 889.57,-520.5"/>
<polygon fill="midnightblue" stroke="midnightblue" points="889.81,-524 899.81,-520.5 889.81,-517 889.81,-524"/>
</g>
<!-- Node24&#45;&gt;Node4 -->
<g id="edge26" class="edge">
<title>Node24&#45;&gt;Node4</title>
<path fill="none" stroke="midnightblue" d="M407.2,-469.07C415.7,-469.04 424.31,-469 432.87,-468.97"/>
<polygon fill="midnightblue" stroke="midnightblue" points="432.9,-472.47 442.89,-468.93 432.87,-465.47 432.9,-472.47"/>
</g>
</g>
</svg>
        <g id="navigator" transform="translate(0 0)" fill="#404254">
                <rect fill="#f2f5e9" fill-opacity="0.5" stroke="#606060" stroke-width=".5" x="0" y="0" width="60" height="60"/>
                <use id="zoomplus" xlink:href="#zoomPlus" x="17" y="9" onmousedown="handleZoom(evt,'in')"/>
                <use id="zoomminus" xlink:href="#zoomMin" x="42" y="9" onmousedown="handleZoom(evt,'out')"/>
                <use id="reset" xlink:href="#resetDef" x="30" y="36" onmousedown="handleReset()"/>
                <g id="arrowUp" xlink:href="#dirArrow" transform="translate(30 24)" onmousedown="handlePan(0,-1)">
                  <use xlink:href="#rim" fill="#404040">
                        <set attributeName="fill" to="#808080" begin="arrowUp.mouseover" end="arrowUp.mouseout"/>
                  </use>
                  <path fill="none" stroke="white" stroke-width="1.5" d="M0,-3.0v7 M-2.5,-0.5L0,-3.0L2.5,-0.5"/>
                </g>
                <g id="arrowRight" xlink:href="#dirArrow" transform="rotate(90) translate(36 -43)" onmousedown="handlePan(1,0)">
                  <use xlink:href="#rim" fill="#404040">
                        <set attributeName="fill" to="#808080" begin="arrowRight.mouseover" end="arrowRight.mouseout"/>
                  </use>
                  <path fill="none" stroke="white" stroke-width="1.5" d="M0,-3.0v7 M-2.5,-0.5L0,-3.0L2.5,-0.5"/>
                </g>
                <g id="arrowDown" xlink:href="#dirArrow" transform="rotate(180) translate(-30 -48)" onmousedown="handlePan(0,1)">
                  <use xlink:href="#rim" fill="#404040">
                        <set attributeName="fill" to="#808080" begin="arrowDown.mouseover" end="arrowDown.mouseout"/>
                  </use>
                  <path fill="none" stroke="white" stroke-width="1.5" d="M0,-3.0v7 M-2.5,-0.5L0,-3.0L2.5,-0.5"/>
                </g>
                <g id="arrowLeft" xlink:href="#dirArrow" transform="rotate(270) translate(-36 17)" onmousedown="handlePan(-1,0)">
                  <use xlink:href="#rim" fill="#404040">
                        <set attributeName="fill" to="#808080" begin="arrowLeft.mouseover" end="arrowLeft.mouseout"/>
                  </use>
                  <path fill="none" stroke="white" stroke-width="1.5" d="M0,-3.0v7 M-2.5,-0.5L0,-3.0L2.5,-0.5"/>
                </g>
        </g>
        <svg viewBox="0 0 15 15" width="100%" height="30px" preserveAspectRatio="xMaxYMin meet">
         <g id="arrow_out" transform="scale(0.3 0.3)">
          <a xlink:href="classQuantConnect_1_1Research_1_1QuantBook_a9c6829f944fce7f66a72fa0d9b64f7b8_cgraph_org.svg" target="_base">
           <rect id="button" ry="5" rx="5" y="6" x="6" height="38" width="38"
                fill="#f2f5e9" fill-opacity="0.5" stroke="#606060" stroke-width="1.0"/>
           <path id="arrow"
             d="M 11.500037,31.436501 C 11.940474,20.09759 22.043105,11.32322 32.158766,21.979434 L 37.068811,17.246167 C 37.068811,17.246167 37.088388,32 37.088388,32 L 22.160133,31.978069 C 22.160133,31.978069 26.997745,27.140456 26.997745,27.140456 C 18.528582,18.264221 13.291696,25.230495 11.500037,31.436501 z"
             style="fill:#404040;"/>
          </a>
         </g>
        </svg>
</svg>
