<?xml version="1.0" encoding="UTF-8" standalone="no"?>
<!DOCTYPE svg PUBLIC "-//W3C//DTD SVG 1.1//EN"
 "http://www.w3.org/Graphics/SVG/1.1/DTD/svg11.dtd">
<!-- Generated by graphviz version 2.43.0 (0)
 -->
<!-- Title: QuantConnect.Parse.Decimal Pages: 1 -->
<svg width="869pt" height="424pt"
 viewBox="0.00 0.00 869.00 423.50" xmlns="http://www.w3.org/2000/svg" xmlns:xlink="http://www.w3.org/1999/xlink">
<g id="graph0" class="graph" transform="scale(1 1) rotate(0) translate(4 419.5)">
<title>QuantConnect.Parse.Decimal</title>
<polygon fill="white" stroke="transparent" points="-4,4 -4,-419.5 865,-419.5 865,4 -4,4"/>
<!-- Node1 -->
<g id="node1" class="node">
<title>Node1</title>
<g id="a_node1"><a xlink:title="Parses the provided value as a decimal using CultureInfo.InvariantCulture">
<polygon fill="#bfbfbf" stroke="black" points="703,-251 703,-270 861,-270 861,-251 703,-251"/>
<text text-anchor="middle" x="782" y="-258" font-family="Helvetica,sans-Serif" font-size="10.00">QuantConnect.Parse.Decimal</text>
</a>
</g>
</g>
<!-- Node2 -->
<g id="node2" class="node">
<title>Node2</title>
<g id="a_node2"><a xlink:href="classQuantConnect_1_1Data_1_1UniverseSelection_1_1ETFConstituentUniverse.html#a40b220bec099d556460cebbebbf07e7a" target="_top" xlink:title="Reader converts each line of the data source into BaseData objects. Each data type creates its own fa...">
<polygon fill="white" stroke="black" points="473,-295 473,-336 658,-336 658,-295 473,-295"/>
<text text-anchor="start" x="481" y="-324" font-family="Helvetica,sans-Serif" font-size="10.00">QuantConnect.Data.Universe</text>
<text text-anchor="start" x="481" y="-313" font-family="Helvetica,sans-Serif" font-size="10.00">Selection.ETFConstituentUniverse.</text>
<text text-anchor="middle" x="565.5" y="-302" font-family="Helvetica,sans-Serif" font-size="10.00">Reader</text>
</a>
</g>
</g>
<!-- Node1&#45;&gt;Node2 -->
<g id="edge1" class="edge">
<title>Node1&#45;&gt;Node2</title>
<path fill="none" stroke="midnightblue" d="M733.83,-272.6C708.24,-279.16 675.91,-287.45 646.51,-294.98"/>
<polygon fill="midnightblue" stroke="midnightblue" points="734.82,-275.95 743.64,-270.08 733.08,-269.17 734.82,-275.95"/>
</g>
<!-- Node3 -->
<g id="node3" class="node">
<title>Node3</title>
<g id="a_node3"><a xlink:href="classQuantConnect_1_1Util_1_1LeanData.html#a4b8de0cf279dc49a62d734fda97ed1ef" target="_top" xlink:title="Creates a symbol from the specified zip entry name">
<polygon fill="white" stroke="black" points="486.5,-245.5 486.5,-275.5 644.5,-275.5 644.5,-245.5 486.5,-245.5"/>
<text text-anchor="start" x="494.5" y="-263.5" font-family="Helvetica,sans-Serif" font-size="10.00">QuantConnect.Util.LeanData.</text>
<text text-anchor="middle" x="565.5" y="-252.5" font-family="Helvetica,sans-Serif" font-size="10.00">ReadSymbolFromZipEntry</text>
</a>
</g>
</g>
<!-- Node1&#45;&gt;Node3 -->
<g id="edge2" class="edge">
<title>Node1&#45;&gt;Node3</title>
<path fill="none" stroke="midnightblue" d="M692.64,-260.5C676.8,-260.5 660.38,-260.5 644.85,-260.5"/>
<polygon fill="midnightblue" stroke="midnightblue" points="692.95,-264 702.95,-260.5 692.95,-257 692.95,-264"/>
</g>
<!-- Node10 -->
<g id="node10" class="node">
<title>Node10</title>
<g id="a_node10"><a xlink:href="classQuantConnect_1_1SymbolRepresentation.html#a595675935788d53a5fa4130cc076615a" target="_top" xlink:title="Tries to decompose the specified OSI options ticker into its components">
<polygon fill="white" stroke="black" points="464,-98.5 464,-128.5 667,-128.5 667,-98.5 464,-98.5"/>
<text text-anchor="start" x="472" y="-116.5" font-family="Helvetica,sans-Serif" font-size="10.00">QuantConnect.SymbolRepresentation.</text>
<text text-anchor="middle" x="565.5" y="-105.5" font-family="Helvetica,sans-Serif" font-size="10.00">TryDecomposeOptionTickerOSI</text>
</a>
</g>
</g>
<!-- Node1&#45;&gt;Node10 -->
<g id="edge9" class="edge">
<title>Node1&#45;&gt;Node10</title>
<path fill="none" stroke="midnightblue" d="M758.63,-245.17C717.38,-216.9 629.8,-156.88 588.68,-128.7"/>
<polygon fill="midnightblue" stroke="midnightblue" points="756.7,-248.09 766.93,-250.85 760.66,-242.31 756.7,-248.09"/>
</g>
<!-- Node4 -->
<g id="node4" class="node">
<title>Node4</title>
<g id="a_node4"><a xlink:href="classQuantConnect_1_1Lean_1_1Engine_1_1DataFeeds_1_1BacktestingChainProvider.html#a903ec0b9ee074f1a7ee6d1eccc5f712b" target="_top" xlink:title="Get the contract symbols associated with the given canonical symbol and date">
<polygon fill="white" stroke="black" points="226.5,-344 226.5,-385 426.5,-385 426.5,-344 226.5,-344"/>
<text text-anchor="start" x="234.5" y="-373" font-family="Helvetica,sans-Serif" font-size="10.00">QuantConnect.Lean.Engine.</text>
<text text-anchor="start" x="234.5" y="-362" font-family="Helvetica,sans-Serif" font-size="10.00">DataFeeds.BacktestingChainProvider.</text>
<text text-anchor="middle" x="326.5" y="-351" font-family="Helvetica,sans-Serif" font-size="10.00">GetSymbols</text>
</a>
</g>
</g>
<!-- Node3&#45;&gt;Node4 -->
<g id="edge3" class="edge">
<title>Node3&#45;&gt;Node4</title>
<path fill="none" stroke="midnightblue" d="M476.95,-278.16C472.43,-280.33 468.08,-282.77 464,-285.5 441.55,-300.55 450.09,-318.94 428,-334.5 422.94,-338.06 417.45,-341.21 411.73,-343.99"/>
<polygon fill="midnightblue" stroke="midnightblue" points="478.64,-281.25 486.44,-274.07 475.87,-274.82 478.64,-281.25"/>
</g>
<!-- Node7 -->
<g id="node7" class="node">
<title>Node7</title>
<g id="a_node7"><a xlink:href="classQuantConnect_1_1ToolBox_1_1LeanDataReader.html#ac23439fd286135eaf5c3047bf52eb517" target="_top" xlink:title="Initialize a instance of LeanDataReader from a path to a zipped data file. It also supports declaring...">
<polygon fill="white" stroke="black" points="247.5,-294.5 247.5,-324.5 405.5,-324.5 405.5,-294.5 247.5,-294.5"/>
<text text-anchor="start" x="255.5" y="-312.5" font-family="Helvetica,sans-Serif" font-size="10.00">QuantConnect.ToolBox.Lean</text>
<text text-anchor="middle" x="326.5" y="-301.5" font-family="Helvetica,sans-Serif" font-size="10.00">DataReader.LeanDataReader</text>
</a>
</g>
</g>
<!-- Node3&#45;&gt;Node7 -->
<g id="edge6" class="edge">
<title>Node3&#45;&gt;Node7</title>
<path fill="none" stroke="midnightblue" d="M481.73,-277.61C455.13,-283.11 425.89,-289.16 400.08,-294.49"/>
<polygon fill="midnightblue" stroke="midnightblue" points="482.7,-280.99 491.78,-275.53 481.28,-274.13 482.7,-280.99"/>
</g>
<!-- Node8 -->
<g id="node8" class="node">
<title>Node8</title>
<g id="a_node8"><a xlink:href="classQuantConnect_1_1ToolBox_1_1LeanDataReader.html#acfe04bd1df4b418f463dcb012488d725" target="_top" xlink:title="Enumerate over the tick zip file and return a list of BaseData.">
<polygon fill="white" stroke="black" points="250,-245.5 250,-275.5 403,-275.5 403,-245.5 250,-245.5"/>
<text text-anchor="start" x="258" y="-263.5" font-family="Helvetica,sans-Serif" font-size="10.00">QuantConnect.ToolBox.Lean</text>
<text text-anchor="middle" x="326.5" y="-252.5" font-family="Helvetica,sans-Serif" font-size="10.00">DataReader.Parse</text>
</a>
</g>
</g>
<!-- Node3&#45;&gt;Node8 -->
<g id="edge7" class="edge">
<title>Node3&#45;&gt;Node8</title>
<path fill="none" stroke="midnightblue" d="M476.1,-260.5C452.15,-260.5 426.44,-260.5 403.26,-260.5"/>
<polygon fill="midnightblue" stroke="midnightblue" points="476.24,-264 486.24,-260.5 476.24,-257 476.24,-264"/>
</g>
<!-- Node9 -->
<g id="node9" class="node">
<title>Node9</title>
<g id="a_node9"><a xlink:href="classQuantConnect_1_1Data_1_1Auxiliary_1_1ZipEntryName.html#a2769296f026067a4aeddada62fe38972" target="_top" xlink:title="Reader converts each line of the data source into BaseData objects. Each data type creates its own fa...">
<polygon fill="white" stroke="black" points="246.5,-196.5 246.5,-226.5 406.5,-226.5 406.5,-196.5 246.5,-196.5"/>
<text text-anchor="start" x="254.5" y="-214.5" font-family="Helvetica,sans-Serif" font-size="10.00">QuantConnect.Data.Auxiliary.</text>
<text text-anchor="middle" x="326.5" y="-203.5" font-family="Helvetica,sans-Serif" font-size="10.00">ZipEntryName.Reader</text>
</a>
</g>
</g>
<!-- Node3&#45;&gt;Node9 -->
<g id="edge8" class="edge">
<title>Node3&#45;&gt;Node9</title>
<path fill="none" stroke="midnightblue" d="M481.73,-243.39C455.13,-237.89 425.89,-231.84 400.08,-226.51"/>
<polygon fill="midnightblue" stroke="midnightblue" points="481.28,-246.87 491.78,-245.47 482.7,-240.01 481.28,-246.87"/>
</g>
<!-- Node5 -->
<g id="node5" class="node">
<title>Node5</title>
<g id="a_node5"><a xlink:href="classQuantConnect_1_1Lean_1_1Engine_1_1DataFeeds_1_1BacktestingFutureChainProvider.html#ad95ac9ea6895b03fa51209aa7e9c2fb4" target="_top" xlink:title="Gets the list of future contracts for a given underlying symbol">
<polygon fill="white" stroke="black" points="0.5,-374 0.5,-415 188.5,-415 188.5,-374 0.5,-374"/>
<text text-anchor="start" x="8.5" y="-403" font-family="Helvetica,sans-Serif" font-size="10.00">QuantConnect.Lean.Engine.</text>
<text text-anchor="start" x="8.5" y="-392" font-family="Helvetica,sans-Serif" font-size="10.00">DataFeeds.BacktestingFutureChain</text>
<text text-anchor="middle" x="94.5" y="-381" font-family="Helvetica,sans-Serif" font-size="10.00">Provider.GetFutureContractList</text>
</a>
</g>
</g>
<!-- Node4&#45;&gt;Node5 -->
<g id="edge4" class="edge">
<title>Node4&#45;&gt;Node5</title>
<path fill="none" stroke="midnightblue" d="M216.27,-378.75C207,-379.96 197.69,-381.17 188.57,-382.36"/>
<polygon fill="midnightblue" stroke="midnightblue" points="216.83,-382.2 226.29,-377.44 215.92,-375.26 216.83,-382.2"/>
</g>
<!-- Node6 -->
<g id="node6" class="node">
<title>Node6</title>
<g id="a_node6"><a xlink:href="classQuantConnect_1_1Lean_1_1Engine_1_1DataFeeds_1_1BacktestingOptionChainProvider.html#a5b140615fad8e3c0f8d08597a7ca1509" target="_top" xlink:title="Gets the list of option contracts for a given underlying symbol">
<polygon fill="white" stroke="black" points="0,-314 0,-355 189,-355 189,-314 0,-314"/>
<text text-anchor="start" x="8" y="-343" font-family="Helvetica,sans-Serif" font-size="10.00">QuantConnect.Lean.Engine.</text>
<text text-anchor="start" x="8" y="-332" font-family="Helvetica,sans-Serif" font-size="10.00">DataFeeds.BacktestingOptionChain</text>
<text text-anchor="middle" x="94.5" y="-321" font-family="Helvetica,sans-Serif" font-size="10.00">Provider.GetOptionContractList</text>
</a>
</g>
</g>
<!-- Node4&#45;&gt;Node6 -->
<g id="edge5" class="edge">
<title>Node4&#45;&gt;Node6</title>
<path fill="none" stroke="midnightblue" d="M216.17,-350.24C207.19,-349.07 198.15,-347.89 189.29,-346.73"/>
<polygon fill="midnightblue" stroke="midnightblue" points="215.92,-353.74 226.29,-351.56 216.83,-346.8 215.92,-353.74"/>
</g>
<!-- Node11 -->
<g id="node11" class="node">
<title>Node11</title>
<g id="a_node11"><a xlink:href="classQuantConnect_1_1Symbol.html#acacd8a6cadeae009b6a87fa19fd54b03" target="_top" xlink:title="Provides a convenience method for creating an option Symbol from its SecurityIdentifier and alias.">
<polygon fill="white" stroke="black" points="246,-147.5 246,-177.5 407,-177.5 407,-147.5 246,-147.5"/>
<text text-anchor="start" x="254" y="-165.5" font-family="Helvetica,sans-Serif" font-size="10.00">QuantConnect.Symbol.Create</text>
<text text-anchor="middle" x="326.5" y="-154.5" font-family="Helvetica,sans-Serif" font-size="10.00">Option</text>
</a>
</g>
</g>
<!-- Node10&#45;&gt;Node11 -->
<g id="edge10" class="edge">
<title>Node10&#45;&gt;Node11</title>
<path fill="none" stroke="midnightblue" d="M481.73,-130.61C455.13,-136.11 425.89,-142.16 400.08,-147.49"/>
<polygon fill="midnightblue" stroke="midnightblue" points="482.7,-133.99 491.78,-128.53 481.28,-127.13 482.7,-133.99"/>
</g>
<!-- Node12 -->
<g id="node12" class="node">
<title>Node12</title>
<g id="a_node12"><a xlink:href="classQuantConnect_1_1SymbolRepresentation.html#a176a0a2bf45c68b4279ff806a295862a" target="_top" xlink:title="Parses the specified OSI options ticker into a Symbol object">
<polygon fill="white" stroke="black" points="225,-98.5 225,-128.5 428,-128.5 428,-98.5 225,-98.5"/>
<text text-anchor="start" x="233" y="-116.5" font-family="Helvetica,sans-Serif" font-size="10.00">QuantConnect.SymbolRepresentation.</text>
<text text-anchor="middle" x="326.5" y="-105.5" font-family="Helvetica,sans-Serif" font-size="10.00">ParseOptionTickerOSI</text>
</a>
</g>
</g>
<!-- Node10&#45;&gt;Node12 -->
<g id="edge11" class="edge">
<title>Node10&#45;&gt;Node12</title>
<path fill="none" stroke="midnightblue" d="M453.94,-113.5C445.34,-113.5 436.69,-113.5 428.17,-113.5"/>
<polygon fill="midnightblue" stroke="midnightblue" points="453.99,-117 463.99,-113.5 453.99,-110 453.99,-117"/>
</g>
<!-- Node13 -->
<g id="node13" class="node">
<title>Node13</title>
<g id="a_node13"><a xlink:href="classQuantConnect_1_1Data_1_1UniverseSelection_1_1OptionUniverse.html#a9c722865b50f2840c0cd33a88a0ef629" target="_top" xlink:title="Reader converts each line of the data source into BaseData objects. Each data type creates its own fa...">
<polygon fill="white" stroke="black" points="237.5,-49.5 237.5,-79.5 415.5,-79.5 415.5,-49.5 237.5,-49.5"/>
<text text-anchor="start" x="245.5" y="-67.5" font-family="Helvetica,sans-Serif" font-size="10.00">QuantConnect.Data.Universe</text>
<text text-anchor="middle" x="326.5" y="-56.5" font-family="Helvetica,sans-Serif" font-size="10.00">Selection.OptionUniverse.Reader</text>
</a>
</g>
</g>
<!-- Node10&#45;&gt;Node13 -->
<g id="edge12" class="edge">
<title>Node10&#45;&gt;Node13</title>
<path fill="none" stroke="midnightblue" d="M481.73,-96.39C455.13,-90.89 425.89,-84.84 400.08,-79.51"/>
<polygon fill="midnightblue" stroke="midnightblue" points="481.28,-99.87 491.78,-98.47 482.7,-93.01 481.28,-99.87"/>
</g>
<!-- Node14 -->
<g id="node14" class="node">
<title>Node14</title>
<g id="a_node14"><a xlink:href="classQuantConnect_1_1SymbolRepresentation.html#aada063db88f8a709b9b9433e8750b145" target="_top" xlink:title="Tries to decompose the specified OSI options ticker into its components">
<polygon fill="white" stroke="black" points="225,-0.5 225,-30.5 428,-30.5 428,-0.5 225,-0.5"/>
<text text-anchor="start" x="233" y="-18.5" font-family="Helvetica,sans-Serif" font-size="10.00">QuantConnect.SymbolRepresentation.</text>
<text text-anchor="middle" x="326.5" y="-7.5" font-family="Helvetica,sans-Serif" font-size="10.00">TryDecomposeOptionTickerOSI</text>
</a>
</g>
</g>
<!-- Node10&#45;&gt;Node14 -->
<g id="edge13" class="edge">
<title>Node10&#45;&gt;Node14</title>
<path fill="none" stroke="midnightblue" d="M532.63,-93.1C505.67,-76.61 465.55,-53.87 428,-39.5 419.2,-36.13 409.79,-33.14 400.38,-30.5"/>
<polygon fill="midnightblue" stroke="midnightblue" points="530.9,-96.14 541.25,-98.42 534.58,-90.19 530.9,-96.14"/>
</g>
</g>
</svg>
