<?xml version="1.0" encoding="UTF-8" standalone="no"?>
<!DOCTYPE svg PUBLIC "-//W3C//DTD SVG 1.1//EN"
 "http://www.w3.org/Graphics/SVG/1.1/DTD/svg11.dtd">
<!-- Generated by graphviz version 2.43.0 (0)
 -->
<!-- Title: QuantConnect.Messages.StackExceptionInterpreter.LoadedExceptionInterpreter Pages: 1 -->
<svg width="688pt" height="50pt"
 viewBox="0.00 0.00 688.00 50.00" xmlns="http://www.w3.org/2000/svg" xmlns:xlink="http://www.w3.org/1999/xlink">
<g id="graph0" class="graph" transform="scale(1 1) rotate(0) translate(4 46)">
<title>QuantConnect.Messages.StackExceptionInterpreter.LoadedExceptionInterpreter</title>
<polygon fill="white" stroke="transparent" points="-4,4 -4,-46 684,-46 684,4 -4,4"/>
<!-- Node1 -->
<g id="node1" class="node">
<title>Node1</title>
<g id="a_node1"><a xlink:title="Returns a message for a Loaded Exception Interpreter">
<polygon fill="#bfbfbf" stroke="black" points="478,-0.5 478,-41.5 680,-41.5 680,-0.5 478,-0.5"/>
<text text-anchor="start" x="486" y="-29.5" font-family="Helvetica,sans-Serif" font-size="10.00">QuantConnect.Messages.Stack</text>
<text text-anchor="start" x="486" y="-18.5" font-family="Helvetica,sans-Serif" font-size="10.00">ExceptionInterpreter.LoadedException</text>
<text text-anchor="middle" x="579" y="-7.5" font-family="Helvetica,sans-Serif" font-size="10.00">Interpreter</text>
</a>
</g>
</g>
<!-- Node2 -->
<g id="node2" class="node">
<title>Node2</title>
<g id="a_node2"><a xlink:href="classQuantConnect_1_1Exceptions_1_1StackExceptionInterpreter.html#a921c0014f3619855026760f77afead7a" target="_top" xlink:title="Creates a new StackExceptionInterpreter by loading implementations with default constructors from the...">
<polygon fill="white" stroke="black" points="264,-0.5 264,-41.5 442,-41.5 442,-0.5 264,-0.5"/>
<text text-anchor="start" x="272" y="-29.5" font-family="Helvetica,sans-Serif" font-size="10.00">QuantConnect.Exceptions.</text>
<text text-anchor="start" x="272" y="-18.5" font-family="Helvetica,sans-Serif" font-size="10.00">StackExceptionInterpreter.Create</text>
<text text-anchor="middle" x="353" y="-7.5" font-family="Helvetica,sans-Serif" font-size="10.00">FromAssemblies</text>
</a>
</g>
</g>
<!-- Node1&#45;&gt;Node2 -->
<g id="edge1" class="edge">
<title>Node1&#45;&gt;Node2</title>
<path fill="none" stroke="midnightblue" d="M467.74,-21C459.16,-21 450.56,-21 442.15,-21"/>
<polygon fill="midnightblue" stroke="midnightblue" points="467.79,-24.5 477.79,-21 467.79,-17.5 467.79,-24.5"/>
</g>
<!-- Node3 -->
<g id="node3" class="node">
<title>Node3</title>
<g id="a_node3"><a xlink:href="classQuantConnect_1_1AlgorithmFactory_1_1Python_1_1Wrappers_1_1AlgorithmPythonWrapper.html#afed905ab2f0a474c9a3b48cef697b942" target="_top" xlink:title="AlgorithmPythonWrapper constructor. Creates and wraps the algorithm written in python.">
<polygon fill="white" stroke="black" points="0,-0.5 0,-41.5 228,-41.5 228,-0.5 0,-0.5"/>
<text text-anchor="start" x="8" y="-29.5" font-family="Helvetica,sans-Serif" font-size="10.00">QuantConnect.AlgorithmFactory.</text>
<text text-anchor="start" x="8" y="-18.5" font-family="Helvetica,sans-Serif" font-size="10.00">Python.Wrappers.AlgorithmPythonWrapper.</text>
<text text-anchor="middle" x="114" y="-7.5" font-family="Helvetica,sans-Serif" font-size="10.00">AlgorithmPythonWrapper</text>
</a>
</g>
</g>
<!-- Node2&#45;&gt;Node3 -->
<g id="edge2" class="edge">
<title>Node2&#45;&gt;Node3</title>
<path fill="none" stroke="midnightblue" d="M253.61,-21C245.24,-21 236.73,-21 228.25,-21"/>
<polygon fill="midnightblue" stroke="midnightblue" points="253.75,-24.5 263.75,-21 253.75,-17.5 253.75,-24.5"/>
</g>
</g>
</svg>
