<?xml version="1.0" encoding="UTF-8" standalone="no"?>
<!DOCTYPE svg PUBLIC "-//W3C//DTD SVG 1.1//EN"
 "http://www.w3.org/Graphics/SVG/1.1/DTD/svg11.dtd">
<!-- Generated by graphviz version 2.43.0 (0)
 -->
<!-- Title: QuantConnect.Algorithm.UniverseDefinitions.Index Pages: 1 -->
<!--zoomable 513 -->
<svg id="main" version="1.1" xmlns="http://www.w3.org/2000/svg" xmlns:xlink="http://www.w3.org/1999/xlink" xml:space="preserve" onload="init(evt)">
<style type="text/css"><![CDATA[
.edge:hover path { stroke: red; }
.edge:hover polygon { stroke: red; fill: red; }
]]></style>
<script type="text/javascript"><![CDATA[
var edges = document.getElementsByTagName('g');
if (edges && edges.length) {
  for (var i=0;i<edges.length;i++) {
    if (edges[i].id.substr(0,4)=='edge') {
      edges[i].setAttribute('class','edge');
    }
  }
}
]]></script>
        <defs>
                <circle id="rim" cx="0" cy="0" r="7"/>
                <circle id="rim2" cx="0" cy="0" r="3.5"/>
                <g id="zoomPlus">
                        <use xlink:href="#rim" fill="#404040">
                                <set attributeName="fill" to="#808080" begin="zoomplus.mouseover" end="zoomplus.mouseout"/>
                        </use>
                        <path d="M-4,0h8M0,-4v8" fill="none" stroke="white" stroke-width="1.5" pointer-events="none"/>
                </g>
                <g id="zoomMin">
                        <use xlink:href="#rim" fill="#404040">
                                <set attributeName="fill" to="#808080" begin="zoomminus.mouseover" end="zoomminus.mouseout"/>
                        </use>
                        <path d="M-4,0h8" fill="none" stroke="white" stroke-width="1.5" pointer-events="none"/>
                </g>
                <g id="dirArrow">
                        <path fill="none" stroke="white" stroke-width="1.5" d="M0,-3.0v7 M-2.5,-0.5L0,-3.0L2.5,-0.5"/>
                </g>
               <g id="resetDef">
                       <use xlink:href="#rim2" fill="#404040">
                               <set attributeName="fill" to="#808080" begin="reset.mouseover" end="reset.mouseout"/>
                       </use>
               </g>
        </defs>

<script type="text/javascript">
var viewWidth = 1780;
var viewHeight = 513;
var sectionId = 'dynsection-18';
</script>
<script xlink:href="svgpan.js"/>
<svg id="graph" class="graph">
<g id="viewport">
<title>QuantConnect.Algorithm.UniverseDefinitions.Index</title>
<polygon fill="white" stroke="transparent" points="-4,4 -4,-509.35 1776,-509.35 1776,4 -4,4"/>
<!-- Node1 -->
<g id="node1" class="node">
<title>Node1</title>
<g id="a_node1"><a xlink:title="Creates a universe for the constituents of the provided indexSymbol">
<polygon fill="#bfbfbf" stroke="black" points="0,-245.5 0,-275.5 183,-275.5 183,-245.5 0,-245.5"/>
<text text-anchor="start" x="8" y="-263.5" font-family="Helvetica,sans-Serif" font-size="10.00">QuantConnect.Algorithm.Universe</text>
<text text-anchor="middle" x="91.5" y="-252.5" font-family="Helvetica,sans-Serif" font-size="10.00">Definitions.Index</text>
</a>
</g>
</g>
<!-- Node2 -->
<g id="node2" class="node">
<title>Node2</title>
<g id="a_node2"><a xlink:href="classQuantConnect_1_1Algorithm_1_1UniverseDefinitions.html#a04b83b993a4cd1e529f56c1bd276cb3b" target="_top" xlink:title="Creates a universe for the constituents of the provided indexTicker">
<polygon fill="white" stroke="black" points="219,-245.5 219,-275.5 402,-275.5 402,-245.5 219,-245.5"/>
<text text-anchor="start" x="227" y="-263.5" font-family="Helvetica,sans-Serif" font-size="10.00">QuantConnect.Algorithm.Universe</text>
<text text-anchor="middle" x="310.5" y="-252.5" font-family="Helvetica,sans-Serif" font-size="10.00">Definitions.Index</text>
</a>
</g>
</g>
<!-- Node1&#45;&gt;Node2 -->
<g id="edge1" class="edge">
<title>Node1&#45;&gt;Node2</title>
<path fill="none" stroke="midnightblue" d="M183.27,-260.5C191.61,-260.5 200.09,-260.5 208.51,-260.5"/>
<polygon fill="midnightblue" stroke="midnightblue" points="208.74,-264 218.74,-260.5 208.74,-257 208.74,-264"/>
</g>
<!-- Node3 -->
<g id="node3" class="node">
<title>Node3</title>
<g id="a_node3"><a xlink:href="classQuantConnect_1_1Symbol.html#a350b9a625cf7bad95da82894be3cd0a8" target="_top" xlink:title="Provides a convenience method for creating a Symbol for most security types. This method currently do...">
<polygon fill="white" stroke="black" points="438,-251 438,-270 599,-270 599,-251 438,-251"/>
<text text-anchor="middle" x="518.5" y="-258" font-family="Helvetica,sans-Serif" font-size="10.00">QuantConnect.Symbol.Create</text>
</a>
</g>
</g>
<!-- Node2&#45;&gt;Node3 -->
<g id="edge2" class="edge">
<title>Node2&#45;&gt;Node3</title>
<path fill="none" stroke="midnightblue" d="M402.15,-260.5C410.6,-260.5 419.15,-260.5 427.58,-260.5"/>
<polygon fill="midnightblue" stroke="midnightblue" points="427.8,-264 437.8,-260.5 427.8,-257 427.8,-264"/>
</g>
<!-- Node4 -->
<g id="node4" class="node">
<title>Node4</title>
<g id="a_node4"><a xlink:href="classQuantConnect_1_1Symbol.html#a7518a1932d1babbff128f2ba9666a78b" target="_top" xlink:title="Provides a convenience method for creating an option Symbol.">
<polygon fill="white" stroke="black" points="644.5,-431.5 644.5,-461.5 805.5,-461.5 805.5,-431.5 644.5,-431.5"/>
<text text-anchor="start" x="652.5" y="-449.5" font-family="Helvetica,sans-Serif" font-size="10.00">QuantConnect.Symbol.Create</text>
<text text-anchor="middle" x="725" y="-438.5" font-family="Helvetica,sans-Serif" font-size="10.00">Option</text>
</a>
</g>
</g>
<!-- Node3&#45;&gt;Node4 -->
<g id="edge3" class="edge">
<title>Node3&#45;&gt;Node4</title>
<path fill="none" stroke="midnightblue" d="M523.99,-270.15C537.11,-297.3 578.06,-375.05 635,-416.5 640.58,-420.56 646.75,-424.1 653.16,-427.18"/>
<polygon fill="midnightblue" stroke="midnightblue" points="652.11,-430.54 662.68,-431.37 654.93,-424.14 652.11,-430.54"/>
</g>
<!-- Node5 -->
<g id="node5" class="node">
<title>Node5</title>
<g id="a_node5"><a xlink:href="classQuantConnect_1_1SecurityIdentifier.html#a0c21d7880c9fdd260883d11ea0c99a00" target="_top" xlink:title="Helper overload that will search the mapfiles to resolve the first date. This implementation uses the...">
<polygon fill="white" stroke="black" points="851,-464.5 851,-494.5 1025,-494.5 1025,-464.5 851,-464.5"/>
<text text-anchor="start" x="859" y="-482.5" font-family="Helvetica,sans-Serif" font-size="10.00">QuantConnect.SecurityIdentifier.</text>
<text text-anchor="middle" x="938" y="-471.5" font-family="Helvetica,sans-Serif" font-size="10.00">GenerateEquity</text>
</a>
</g>
</g>
<!-- Node3&#45;&gt;Node5 -->
<g id="edge16" class="edge">
<title>Node3&#45;&gt;Node5</title>
<path fill="none" stroke="midnightblue" d="M521.34,-270.41C528.45,-305.5 557.66,-424.27 635,-471.5 704.68,-514.05 801.29,-507.81 866.31,-496.38"/>
<polygon fill="midnightblue" stroke="midnightblue" points="867.27,-499.77 876.47,-494.51 866,-492.88 867.27,-499.77"/>
</g>
<!-- Node6 -->
<g id="node6" class="node">
<title>Node6</title>
<g id="a_node6"><a xlink:href="classQuantConnect_1_1Symbol.html#a59158f74116be3dad0ea0f3f3f134416" target="_top" xlink:title="Initializes a new instance of the Symbol class">
<polygon fill="white" stroke="black" points="855.5,-415 855.5,-434 1020.5,-434 1020.5,-415 855.5,-415"/>
<text text-anchor="middle" x="938" y="-422" font-family="Helvetica,sans-Serif" font-size="10.00">QuantConnect.Symbol.Symbol</text>
</a>
</g>
</g>
<!-- Node3&#45;&gt;Node6 -->
<g id="edge21" class="edge">
<title>Node3&#45;&gt;Node6</title>
<path fill="none" stroke="midnightblue" d="M525.31,-270.18C540.17,-293.96 582.1,-355.26 635,-382.5 670.62,-400.84 769.72,-412.18 844.76,-418.38"/>
<polygon fill="midnightblue" stroke="midnightblue" points="844.93,-421.9 855.18,-419.22 845.49,-414.93 844.93,-421.9"/>
</g>
<!-- Node12 -->
<g id="node12" class="node">
<title>Node12</title>
<g id="a_node12"><a xlink:href="classQuantConnect_1_1SecurityIdentifier.html#a02ca750115844561c001c2346fbafc00" target="_top" xlink:title="Generates a new SecurityIdentifier for a custom security with the option of providing the first date">
<polygon fill="white" stroke="black" points="638,-343.5 638,-373.5 812,-373.5 812,-343.5 638,-343.5"/>
<text text-anchor="start" x="646" y="-361.5" font-family="Helvetica,sans-Serif" font-size="10.00">QuantConnect.SecurityIdentifier.</text>
<text text-anchor="middle" x="725" y="-350.5" font-family="Helvetica,sans-Serif" font-size="10.00">GenerateBase</text>
</a>
</g>
</g>
<!-- Node3&#45;&gt;Node12 -->
<g id="edge11" class="edge">
<title>Node3&#45;&gt;Node12</title>
<path fill="none" stroke="midnightblue" d="M531.97,-270.11C552.44,-285.48 594.91,-315.66 635,-333.5 640.35,-335.88 645.99,-338.09 651.72,-340.14"/>
<polygon fill="midnightblue" stroke="midnightblue" points="650.83,-343.53 661.42,-343.41 653.07,-336.9 650.83,-343.53"/>
</g>
<!-- Node14 -->
<g id="node14" class="node">
<title>Node14</title>
<g id="a_node14"><a xlink:href="classQuantConnect_1_1SecurityIdentifier.html#a53953b18d814c5445e4ecdcb3b555080" target="_top" xlink:title="Generates a new SecurityIdentifier for a CFD security">
<polygon fill="white" stroke="black" points="638,-294.5 638,-324.5 812,-324.5 812,-294.5 638,-294.5"/>
<text text-anchor="start" x="646" y="-312.5" font-family="Helvetica,sans-Serif" font-size="10.00">QuantConnect.SecurityIdentifier.</text>
<text text-anchor="middle" x="725" y="-301.5" font-family="Helvetica,sans-Serif" font-size="10.00">GenerateCfd</text>
</a>
</g>
</g>
<!-- Node3&#45;&gt;Node14 -->
<g id="edge13" class="edge">
<title>Node3&#45;&gt;Node14</title>
<path fill="none" stroke="midnightblue" d="M559.42,-270.06C585.53,-276.32 620.42,-284.68 651.36,-292.09"/>
<polygon fill="midnightblue" stroke="midnightblue" points="650.7,-295.54 661.24,-294.46 652.33,-288.73 650.7,-295.54"/>
</g>
<!-- Node15 -->
<g id="node15" class="node">
<title>Node15</title>
<g id="a_node15"><a xlink:href="classQuantConnect_1_1SecurityIdentifier.html#a5889a95a36ce927dd0a109cbfbcbe663" target="_top" xlink:title="Generates a new SecurityIdentifier for a Crypto pair">
<polygon fill="white" stroke="black" points="638,-245.5 638,-275.5 812,-275.5 812,-245.5 638,-245.5"/>
<text text-anchor="start" x="646" y="-263.5" font-family="Helvetica,sans-Serif" font-size="10.00">QuantConnect.SecurityIdentifier.</text>
<text text-anchor="middle" x="725" y="-252.5" font-family="Helvetica,sans-Serif" font-size="10.00">GenerateCrypto</text>
</a>
</g>
</g>
<!-- Node3&#45;&gt;Node15 -->
<g id="edge14" class="edge">
<title>Node3&#45;&gt;Node15</title>
<path fill="none" stroke="midnightblue" d="M599.15,-260.5C608.46,-260.5 618.03,-260.5 627.53,-260.5"/>
<polygon fill="midnightblue" stroke="midnightblue" points="627.8,-264 637.8,-260.5 627.8,-257 627.8,-264"/>
</g>
<!-- Node16 -->
<g id="node16" class="node">
<title>Node16</title>
<g id="a_node16"><a xlink:href="classQuantConnect_1_1SecurityIdentifier.html#ac665665a16d5449872fed3427b95a260" target="_top" xlink:title="Generates a new SecurityIdentifier for a CryptoFuture pair">
<polygon fill="white" stroke="black" points="638,-196.5 638,-226.5 812,-226.5 812,-196.5 638,-196.5"/>
<text text-anchor="start" x="646" y="-214.5" font-family="Helvetica,sans-Serif" font-size="10.00">QuantConnect.SecurityIdentifier.</text>
<text text-anchor="middle" x="725" y="-203.5" font-family="Helvetica,sans-Serif" font-size="10.00">GenerateCryptoFuture</text>
</a>
</g>
</g>
<!-- Node3&#45;&gt;Node16 -->
<g id="edge15" class="edge">
<title>Node3&#45;&gt;Node16</title>
<path fill="none" stroke="midnightblue" d="M559.42,-250.94C585.53,-244.68 620.42,-236.32 651.36,-228.91"/>
<polygon fill="midnightblue" stroke="midnightblue" points="652.33,-232.27 661.24,-226.54 650.7,-225.46 652.33,-232.27"/>
</g>
<!-- Node17 -->
<g id="node17" class="node">
<title>Node17</title>
<g id="a_node17"><a xlink:href="classQuantConnect_1_1SecurityIdentifier.html#a9cf0d3b208a5171e6112516ce441f18d" target="_top" xlink:title="Generates a new SecurityIdentifier for a forex pair">
<polygon fill="white" stroke="black" points="638,-147.5 638,-177.5 812,-177.5 812,-147.5 638,-147.5"/>
<text text-anchor="start" x="646" y="-165.5" font-family="Helvetica,sans-Serif" font-size="10.00">QuantConnect.SecurityIdentifier.</text>
<text text-anchor="middle" x="725" y="-154.5" font-family="Helvetica,sans-Serif" font-size="10.00">GenerateForex</text>
</a>
</g>
</g>
<!-- Node3&#45;&gt;Node17 -->
<g id="edge17" class="edge">
<title>Node3&#45;&gt;Node17</title>
<path fill="none" stroke="midnightblue" d="M531.6,-250.95C551.88,-235.37 594.49,-204.42 635,-186.5 639.64,-184.45 644.49,-182.54 649.43,-180.76"/>
<polygon fill="midnightblue" stroke="midnightblue" points="650.67,-184.04 659.02,-177.52 648.43,-177.41 650.67,-184.04"/>
</g>
<!-- Node18 -->
<g id="node18" class="node">
<title>Node18</title>
<g id="a_node18"><a xlink:href="classQuantConnect_1_1SecurityIdentifier.html#ad50a891c97cb0c084a9e2aa43607ed66" target="_top" xlink:title="Generates a new SecurityIdentifier for a future">
<polygon fill="white" stroke="black" points="638,-98.5 638,-128.5 812,-128.5 812,-98.5 638,-98.5"/>
<text text-anchor="start" x="646" y="-116.5" font-family="Helvetica,sans-Serif" font-size="10.00">QuantConnect.SecurityIdentifier.</text>
<text text-anchor="middle" x="725" y="-105.5" font-family="Helvetica,sans-Serif" font-size="10.00">GenerateFuture</text>
</a>
</g>
</g>
<!-- Node3&#45;&gt;Node18 -->
<g id="edge18" class="edge">
<title>Node3&#45;&gt;Node18</title>
<path fill="none" stroke="midnightblue" d="M525.74,-250.8C541.26,-227.5 584,-168.08 635,-137.5 637.97,-135.72 641.08,-134.07 644.28,-132.53"/>
<polygon fill="midnightblue" stroke="midnightblue" points="645.71,-135.73 653.49,-128.53 642.92,-129.31 645.71,-135.73"/>
</g>
<!-- Node19 -->
<g id="node19" class="node">
<title>Node19</title>
<g id="a_node19"><a xlink:href="classQuantConnect_1_1SecurityIdentifier.html#ade05a8e57b041ab484cf585be8d05699" target="_top" xlink:title="Generates a new SecurityIdentifier for a INDEX security">
<polygon fill="white" stroke="black" points="638,-49.5 638,-79.5 812,-79.5 812,-49.5 638,-49.5"/>
<text text-anchor="start" x="646" y="-67.5" font-family="Helvetica,sans-Serif" font-size="10.00">QuantConnect.SecurityIdentifier.</text>
<text text-anchor="middle" x="725" y="-56.5" font-family="Helvetica,sans-Serif" font-size="10.00">GenerateIndex</text>
</a>
</g>
</g>
<!-- Node3&#45;&gt;Node19 -->
<g id="edge19" class="edge">
<title>Node3&#45;&gt;Node19</title>
<path fill="none" stroke="midnightblue" d="M523.07,-250.94C534.48,-221.72 573,-132.89 635,-88.5 637.11,-86.99 639.3,-85.58 641.57,-84.25"/>
<polygon fill="midnightblue" stroke="midnightblue" points="643.34,-87.28 650.61,-79.57 640.12,-81.06 643.34,-87.28"/>
</g>
<!-- Node20 -->
<g id="node20" class="node">
<title>Node20</title>
<g id="a_node20"><a xlink:href="classQuantConnect_1_1Messages_1_1Symbol.html#ab801bef52a308b8ba7ba6d42e1ef1988" target="_top" xlink:title="Returns a string message saying the given security type has not been implemented yet">
<polygon fill="white" stroke="black" points="635,-0.5 635,-30.5 815,-30.5 815,-0.5 635,-0.5"/>
<text text-anchor="start" x="643" y="-18.5" font-family="Helvetica,sans-Serif" font-size="10.00">QuantConnect.Messages.Symbol.</text>
<text text-anchor="middle" x="725" y="-7.5" font-family="Helvetica,sans-Serif" font-size="10.00">SecurityTypeNotImplementedYet</text>
</a>
</g>
</g>
<!-- Node3&#45;&gt;Node20 -->
<g id="edge20" class="edge">
<title>Node3&#45;&gt;Node20</title>
<path fill="none" stroke="midnightblue" d="M521.62,-250.77C529.69,-216.21 561.73,-98.3 635,-39.5 636.59,-38.22 638.24,-37.01 639.95,-35.87"/>
<polygon fill="midnightblue" stroke="midnightblue" points="642,-38.73 648.87,-30.66 638.47,-32.68 642,-38.73"/>
</g>
<!-- Node4&#45;&gt;Node5 -->
<g id="edge4" class="edge">
<title>Node4&#45;&gt;Node5</title>
<path fill="none" stroke="midnightblue" d="M805.77,-458.98C817.14,-460.75 828.94,-462.6 840.59,-464.42"/>
<polygon fill="midnightblue" stroke="midnightblue" points="840.35,-467.93 850.77,-466.01 841.43,-461.01 840.35,-467.93"/>
</g>
<!-- Node4&#45;&gt;Node6 -->
<g id="edge5" class="edge">
<title>Node4&#45;&gt;Node6</title>
<path fill="none" stroke="midnightblue" d="M805.77,-438.18C818.7,-436.83 832.17,-435.43 845.35,-434.06"/>
<polygon fill="midnightblue" stroke="midnightblue" points="845.78,-437.53 855.36,-433.01 845.05,-430.57 845.78,-437.53"/>
</g>
<!-- Node7 -->
<g id="node7" class="node">
<title>Node7</title>
<g id="a_node7"><a xlink:href="classQuantConnect_1_1Symbol.html#a59b0795fa21f46c306deb5576fa03bb9" target="_top" xlink:title="Centralized helper method to resolve alias for a symbol">
<polygon fill="white" stroke="black" points="1061,-415 1061,-434 1231,-434 1231,-415 1061,-415"/>
<text text-anchor="middle" x="1146" y="-422" font-family="Helvetica,sans-Serif" font-size="10.00">QuantConnect.Symbol.GetAlias</text>
</a>
</g>
</g>
<!-- Node6&#45;&gt;Node7 -->
<g id="edge6" class="edge">
<title>Node6&#45;&gt;Node7</title>
<path fill="none" stroke="midnightblue" d="M1020.71,-424.5C1030.47,-424.5 1040.49,-424.5 1050.4,-424.5"/>
<polygon fill="midnightblue" stroke="midnightblue" points="1050.68,-428 1060.68,-424.5 1050.68,-421 1050.68,-428"/>
</g>
<!-- Node8 -->
<g id="node8" class="node">
<title>Node8</title>
<g id="a_node8"><a xlink:href="classQuantConnect_1_1SymbolRepresentation.html#ad43ac907f6c19083821f58f21c6de017" target="_top" xlink:title="Returns future symbol ticker from underlying and expiration date. Function can generate tickers of tw...">
<polygon fill="white" stroke="black" points="1267,-437.5 1267,-467.5 1470,-467.5 1470,-437.5 1267,-437.5"/>
<text text-anchor="start" x="1275" y="-455.5" font-family="Helvetica,sans-Serif" font-size="10.00">QuantConnect.SymbolRepresentation.</text>
<text text-anchor="middle" x="1368.5" y="-444.5" font-family="Helvetica,sans-Serif" font-size="10.00">GenerateFutureTicker</text>
</a>
</g>
</g>
<!-- Node7&#45;&gt;Node8 -->
<g id="edge7" class="edge">
<title>Node7&#45;&gt;Node8</title>
<path fill="none" stroke="midnightblue" d="M1221.96,-434.02C1233.27,-435.46 1245.14,-436.96 1257.01,-438.47"/>
<polygon fill="midnightblue" stroke="midnightblue" points="1256.62,-441.95 1266.98,-439.74 1257.5,-435 1256.62,-441.95"/>
</g>
<!-- Node10 -->
<g id="node10" class="node">
<title>Node10</title>
<g id="a_node10"><a xlink:href="classQuantConnect_1_1SymbolRepresentation.html#ab133044f5cf8c16e700190a2202b215e" target="_top" xlink:title="Returns option symbol ticker in accordance with OSI symbology More information can be found at http:/...">
<polygon fill="white" stroke="black" points="1267,-385.5 1267,-415.5 1470,-415.5 1470,-385.5 1267,-385.5"/>
<text text-anchor="start" x="1275" y="-403.5" font-family="Helvetica,sans-Serif" font-size="10.00">QuantConnect.SymbolRepresentation.</text>
<text text-anchor="middle" x="1368.5" y="-392.5" font-family="Helvetica,sans-Serif" font-size="10.00">GenerateOptionTickerOSI</text>
</a>
</g>
</g>
<!-- Node7&#45;&gt;Node10 -->
<g id="edge9" class="edge">
<title>Node7&#45;&gt;Node10</title>
<path fill="none" stroke="midnightblue" d="M1231.31,-415.32C1239.69,-414.41 1248.3,-413.47 1256.9,-412.54"/>
<polygon fill="midnightblue" stroke="midnightblue" points="1257.43,-416 1266.99,-411.44 1256.67,-409.04 1257.43,-416"/>
</g>
<!-- Node9 -->
<g id="node9" class="node">
<title>Node9</title>
<g id="a_node9"><a xlink:href="classQuantConnect_1_1Securities_1_1Future_1_1FuturesExpiryUtilityFunctions.html#a4ccb1e2f2fe40ff09785a74a02f26df1" target="_top" xlink:title="Gets the number of months between the contract month and the expiry date.">
<polygon fill="white" stroke="black" points="1506,-435 1506,-476 1772,-476 1772,-435 1506,-435"/>
<text text-anchor="start" x="1514" y="-464" font-family="Helvetica,sans-Serif" font-size="10.00">QuantConnect.Securities.</text>
<text text-anchor="start" x="1514" y="-453" font-family="Helvetica,sans-Serif" font-size="10.00">Future.FuturesExpiryUtilityFunctions.</text>
<text text-anchor="middle" x="1639" y="-442" font-family="Helvetica,sans-Serif" font-size="10.00">GetDeltaBetweenContractMonthAndContractExpiry</text>
</a>
</g>
</g>
<!-- Node8&#45;&gt;Node9 -->
<g id="edge8" class="edge">
<title>Node8&#45;&gt;Node9</title>
<path fill="none" stroke="midnightblue" d="M1470.24,-453.63C1478.59,-453.72 1487.11,-453.81 1495.68,-453.91"/>
<polygon fill="midnightblue" stroke="midnightblue" points="1495.72,-457.41 1505.76,-454.02 1495.8,-450.41 1495.72,-457.41"/>
</g>
<!-- Node11 -->
<g id="node11" class="node">
<title>Node11</title>
<g id="a_node11"><a xlink:href="classQuantConnect_1_1Messages_1_1SymbolRepresentation.html#a2c514157d8055cfa271ea3a7ca1ccde7" target="_top" xlink:title="Returns a string message saying an unexpected security type was received by the given method name">
<polygon fill="white" stroke="black" points="1543,-375 1543,-416 1735,-416 1735,-375 1543,-375"/>
<text text-anchor="start" x="1551" y="-404" font-family="Helvetica,sans-Serif" font-size="10.00">QuantConnect.Messages.Symbol</text>
<text text-anchor="start" x="1551" y="-393" font-family="Helvetica,sans-Serif" font-size="10.00">Representation.UnexpectedSecurity</text>
<text text-anchor="middle" x="1639" y="-382" font-family="Helvetica,sans-Serif" font-size="10.00">TypeForMethod</text>
</a>
</g>
</g>
<!-- Node10&#45;&gt;Node11 -->
<g id="edge10" class="edge">
<title>Node10&#45;&gt;Node11</title>
<path fill="none" stroke="midnightblue" d="M1470.24,-398.62C1490.7,-398.24 1512.27,-397.84 1532.88,-397.46"/>
<polygon fill="midnightblue" stroke="midnightblue" points="1532.98,-400.96 1542.91,-397.27 1532.85,-393.96 1532.98,-400.96"/>
</g>
<!-- Node13 -->
<g id="node13" class="node">
<title>Node13</title>
<g id="a_node13"><a xlink:href="classQuantConnect_1_1SecurityIdentifier.html#a19e1f9da410608020d74ed9e7d283575" target="_top" xlink:title="Generates the Symbol property for QuantConnect.SecurityType.Base security identifiers">
<polygon fill="white" stroke="black" points="851,-343.5 851,-373.5 1025,-373.5 1025,-343.5 851,-343.5"/>
<text text-anchor="start" x="859" y="-361.5" font-family="Helvetica,sans-Serif" font-size="10.00">QuantConnect.SecurityIdentifier.</text>
<text text-anchor="middle" x="938" y="-350.5" font-family="Helvetica,sans-Serif" font-size="10.00">GenerateBaseSymbol</text>
</a>
</g>
</g>
<!-- Node12&#45;&gt;Node13 -->
<g id="edge12" class="edge">
<title>Node12&#45;&gt;Node13</title>
<path fill="none" stroke="midnightblue" d="M812.13,-358.5C821.5,-358.5 831.08,-358.5 840.57,-358.5"/>
<polygon fill="midnightblue" stroke="midnightblue" points="840.81,-362 850.81,-358.5 840.81,-355 840.81,-362"/>
</g>
</g>
</svg>
        <g id="navigator" transform="translate(0 0)" fill="#404254">
                <rect fill="#f2f5e9" fill-opacity="0.5" stroke="#606060" stroke-width=".5" x="0" y="0" width="60" height="60"/>
                <use id="zoomplus" xlink:href="#zoomPlus" x="17" y="9" onmousedown="handleZoom(evt,'in')"/>
                <use id="zoomminus" xlink:href="#zoomMin" x="42" y="9" onmousedown="handleZoom(evt,'out')"/>
                <use id="reset" xlink:href="#resetDef" x="30" y="36" onmousedown="handleReset()"/>
                <g id="arrowUp" xlink:href="#dirArrow" transform="translate(30 24)" onmousedown="handlePan(0,-1)">
                  <use xlink:href="#rim" fill="#404040">
                        <set attributeName="fill" to="#808080" begin="arrowUp.mouseover" end="arrowUp.mouseout"/>
                  </use>
                  <path fill="none" stroke="white" stroke-width="1.5" d="M0,-3.0v7 M-2.5,-0.5L0,-3.0L2.5,-0.5"/>
                </g>
                <g id="arrowRight" xlink:href="#dirArrow" transform="rotate(90) translate(36 -43)" onmousedown="handlePan(1,0)">
                  <use xlink:href="#rim" fill="#404040">
                        <set attributeName="fill" to="#808080" begin="arrowRight.mouseover" end="arrowRight.mouseout"/>
                  </use>
                  <path fill="none" stroke="white" stroke-width="1.5" d="M0,-3.0v7 M-2.5,-0.5L0,-3.0L2.5,-0.5"/>
                </g>
                <g id="arrowDown" xlink:href="#dirArrow" transform="rotate(180) translate(-30 -48)" onmousedown="handlePan(0,1)">
                  <use xlink:href="#rim" fill="#404040">
                        <set attributeName="fill" to="#808080" begin="arrowDown.mouseover" end="arrowDown.mouseout"/>
                  </use>
                  <path fill="none" stroke="white" stroke-width="1.5" d="M0,-3.0v7 M-2.5,-0.5L0,-3.0L2.5,-0.5"/>
                </g>
                <g id="arrowLeft" xlink:href="#dirArrow" transform="rotate(270) translate(-36 17)" onmousedown="handlePan(-1,0)">
                  <use xlink:href="#rim" fill="#404040">
                        <set attributeName="fill" to="#808080" begin="arrowLeft.mouseover" end="arrowLeft.mouseout"/>
                  </use>
                  <path fill="none" stroke="white" stroke-width="1.5" d="M0,-3.0v7 M-2.5,-0.5L0,-3.0L2.5,-0.5"/>
                </g>
        </g>
        <svg viewBox="0 0 15 15" width="100%" height="30px" preserveAspectRatio="xMaxYMin meet">
         <g id="arrow_out" transform="scale(0.3 0.3)">
          <a xlink:href="classQuantConnect_1_1Algorithm_1_1UniverseDefinitions_a6a4094f938c753204072c211e340ac4c_cgraph_org.svg" target="_base">
           <rect id="button" ry="5" rx="5" y="6" x="6" height="38" width="38"
                fill="#f2f5e9" fill-opacity="0.5" stroke="#606060" stroke-width="1.0"/>
           <path id="arrow"
             d="M 11.500037,31.436501 C 11.940474,20.09759 22.043105,11.32322 32.158766,21.979434 L 37.068811,17.246167 C 37.068811,17.246167 37.088388,32 37.088388,32 L 22.160133,31.978069 C 22.160133,31.978069 26.997745,27.140456 26.997745,27.140456 C 18.528582,18.264221 13.291696,25.230495 11.500037,31.436501 z"
             style="fill:#404040;"/>
          </a>
         </g>
        </svg>
</svg>
