<?xml version="1.0" encoding="UTF-8" standalone="no"?>
<!DOCTYPE svg PUBLIC "-//W3C//DTD SVG 1.1//EN"
 "http://www.w3.org/Graphics/SVG/1.1/DTD/svg11.dtd">
<!-- Generated by graphviz version 2.43.0 (0)
 -->
<!-- Title: QuantConnect.Securities.Option.OptionStrategies.JellyRoll Pages: 1 -->
<svg width="614pt" height="110pt"
 viewBox="0.00 0.00 614.00 110.00" xmlns="http://www.w3.org/2000/svg" xmlns:xlink="http://www.w3.org/1999/xlink">
<g id="graph0" class="graph" transform="scale(1 1) rotate(0) translate(4 106)">
<title>QuantConnect.Securities.Option.OptionStrategies.JellyRoll</title>
<polygon fill="white" stroke="transparent" points="-4,4 -4,-106 610,-106 610,4 -4,4"/>
<!-- Node1 -->
<g id="node1" class="node">
<title>Node1</title>
<g id="a_node1"><a xlink:title="Creates new Jelly Roll strategy which combines a long call calendar spread and a short put calendar s...">
<polygon fill="#bfbfbf" stroke="black" points="0,-36 0,-66 176,-66 176,-36 0,-36"/>
<text text-anchor="start" x="8" y="-54" font-family="Helvetica,sans-Serif" font-size="10.00">QuantConnect.Securities.</text>
<text text-anchor="middle" x="88" y="-43" font-family="Helvetica,sans-Serif" font-size="10.00">Option.OptionStrategies.JellyRoll</text>
</a>
</g>
</g>
<!-- Node2 -->
<g id="node2" class="node">
<title>Node2</title>
<g id="a_node2"><a xlink:href="classQuantConnect_1_1Securities_1_1Option_1_1OptionStrategies.html#a3a95817e17db0ad052cfb383dc51cb4a" target="_top" xlink:title="Creates new Call Calendar Spread strategy which consists of a short and a long call with the same str...">
<polygon fill="white" stroke="black" points="215.5,-60.5 215.5,-101.5 370.5,-101.5 370.5,-60.5 215.5,-60.5"/>
<text text-anchor="start" x="223.5" y="-89.5" font-family="Helvetica,sans-Serif" font-size="10.00">QuantConnect.Securities.</text>
<text text-anchor="start" x="223.5" y="-78.5" font-family="Helvetica,sans-Serif" font-size="10.00">Option.OptionStrategies.Call</text>
<text text-anchor="middle" x="293" y="-67.5" font-family="Helvetica,sans-Serif" font-size="10.00">CalendarSpread</text>
</a>
</g>
</g>
<!-- Node1&#45;&gt;Node2 -->
<g id="edge1" class="edge">
<title>Node1&#45;&gt;Node2</title>
<path fill="none" stroke="midnightblue" d="M176.27,-63.9C185.92,-65.32 195.74,-66.78 205.39,-68.2"/>
<polygon fill="midnightblue" stroke="midnightblue" points="204.95,-71.67 215.35,-69.67 205.97,-64.75 204.95,-71.67"/>
</g>
<!-- Node3 -->
<g id="node3" class="node">
<title>Node3</title>
<g id="a_node3"><a xlink:href="classQuantConnect_1_1Securities_1_1Option_1_1OptionStrategies.html#a1e8a14739aac68ff9a709e028fa34f12" target="_top" xlink:title="Creates new Short Put Calendar Spread strategy which consists of a short and a long put with the same...">
<polygon fill="white" stroke="black" points="212,-0.5 212,-41.5 374,-41.5 374,-0.5 212,-0.5"/>
<text text-anchor="start" x="220" y="-29.5" font-family="Helvetica,sans-Serif" font-size="10.00">QuantConnect.Securities.</text>
<text text-anchor="start" x="220" y="-18.5" font-family="Helvetica,sans-Serif" font-size="10.00">Option.OptionStrategies.Short</text>
<text text-anchor="middle" x="293" y="-7.5" font-family="Helvetica,sans-Serif" font-size="10.00">PutCalendarSpread</text>
</a>
</g>
</g>
<!-- Node1&#45;&gt;Node3 -->
<g id="edge2" class="edge">
<title>Node1&#45;&gt;Node3</title>
<path fill="none" stroke="midnightblue" d="M176.27,-38.1C184.76,-36.85 193.4,-35.57 201.92,-34.31"/>
<polygon fill="midnightblue" stroke="midnightblue" points="202.48,-37.77 211.86,-32.84 201.46,-30.84 202.48,-37.77"/>
</g>
<!-- Node4 -->
<g id="node4" class="node">
<title>Node4</title>
<g id="a_node4"><a xlink:href="classQuantConnect_1_1Securities_1_1Option_1_1OptionStrategies.html#a38c4025416082f438ecc0d45ae254ade" target="_top" xlink:title="Creates new Put Calendar Spread strategy which consists of a short and a long put with the same strik...">
<polygon fill="white" stroke="black" points="410,-0.5 410,-41.5 606,-41.5 606,-0.5 410,-0.5"/>
<text text-anchor="start" x="418" y="-29.5" font-family="Helvetica,sans-Serif" font-size="10.00">QuantConnect.Securities.</text>
<text text-anchor="start" x="418" y="-18.5" font-family="Helvetica,sans-Serif" font-size="10.00">Option.OptionStrategies.PutCalendar</text>
<text text-anchor="middle" x="508" y="-7.5" font-family="Helvetica,sans-Serif" font-size="10.00">Spread</text>
</a>
</g>
</g>
<!-- Node3&#45;&gt;Node4 -->
<g id="edge3" class="edge">
<title>Node3&#45;&gt;Node4</title>
<path fill="none" stroke="midnightblue" d="M374.22,-21C382.61,-21 391.24,-21 399.87,-21"/>
<polygon fill="midnightblue" stroke="midnightblue" points="399.99,-24.5 409.99,-21 399.99,-17.5 399.99,-24.5"/>
</g>
</g>
</svg>
