<?xml version="1.0" encoding="UTF-8" standalone="no"?>
<!DOCTYPE svg PUBLIC "-//W3C//DTD SVG 1.1//EN"
 "http://www.w3.org/Graphics/SVG/1.1/DTD/svg11.dtd">
<!-- Generated by graphviz version 2.43.0 (0)
 -->
<!-- Title: QuantConnect.Algorithm.QCAlgorithm.History Pages: 1 -->
<svg width="454pt" height="88pt"
 viewBox="0.00 0.00 454.00 88.00" xmlns="http://www.w3.org/2000/svg" xmlns:xlink="http://www.w3.org/1999/xlink">
<g id="graph0" class="graph" transform="scale(1 1) rotate(0) translate(4 84)">
<title>QuantConnect.Algorithm.QCAlgorithm.History</title>
<polygon fill="white" stroke="transparent" points="-4,4 -4,-84 450,-84 450,4 -4,4"/>
<!-- Node1 -->
<g id="node1" class="node">
<title>Node1</title>
<g id="a_node1"><a xlink:title="Gets the historical data for the specified symbols. The exact number of bars will be returned for eac...">
<polygon fill="#bfbfbf" stroke="black" points="0,-24.5 0,-54.5 205,-54.5 205,-24.5 0,-24.5"/>
<text text-anchor="start" x="8" y="-42.5" font-family="Helvetica,sans-Serif" font-size="10.00">QuantConnect.Algorithm.QCAlgorithm.</text>
<text text-anchor="middle" x="102.5" y="-31.5" font-family="Helvetica,sans-Serif" font-size="10.00">History</text>
</a>
</g>
</g>
<!-- Node2 -->
<g id="node2" class="node">
<title>Node2</title>
<g id="a_node2"><a xlink:href="classQuantConnect_1_1Data_1_1HistoryRequestFactory.html#af2b0901e9a3e1c1c64bf24a2a734a74f" target="_top" xlink:title="Gets the start time required for the specified bar count in terms of the algorithm&#39;s time zone">
<polygon fill="white" stroke="black" points="248,-49.5 248,-79.5 439,-79.5 439,-49.5 248,-49.5"/>
<text text-anchor="start" x="256" y="-67.5" font-family="Helvetica,sans-Serif" font-size="10.00">QuantConnect.Data.History</text>
<text text-anchor="middle" x="343.5" y="-56.5" font-family="Helvetica,sans-Serif" font-size="10.00">RequestFactory.GetStartTimeAlgoTz</text>
</a>
</g>
</g>
<!-- Node1&#45;&gt;Node2 -->
<g id="edge1" class="edge">
<title>Node1&#45;&gt;Node2</title>
<path fill="none" stroke="midnightblue" d="M205.2,-50.14C215.89,-51.26 226.77,-52.39 237.5,-53.52"/>
<polygon fill="midnightblue" stroke="midnightblue" points="237.41,-57.03 247.72,-54.59 238.14,-50.06 237.41,-57.03"/>
</g>
<!-- Node3 -->
<g id="node3" class="node">
<title>Node3</title>
<g id="a_node3"><a xlink:href="classQuantConnect_1_1Algorithm_1_1QCAlgorithm.html#a446a10e68319fdc3c0b2ed85d80f55f8" target="_top" xlink:title="Get the history for all configured securities over the requested span. This will use the resolution a...">
<polygon fill="white" stroke="black" points="241,-0.5 241,-30.5 446,-30.5 446,-0.5 241,-0.5"/>
<text text-anchor="start" x="249" y="-18.5" font-family="Helvetica,sans-Serif" font-size="10.00">QuantConnect.Algorithm.QCAlgorithm.</text>
<text text-anchor="middle" x="343.5" y="-7.5" font-family="Helvetica,sans-Serif" font-size="10.00">History</text>
</a>
</g>
</g>
<!-- Node1&#45;&gt;Node3 -->
<g id="edge2" class="edge">
<title>Node1&#45;&gt;Node3</title>
<path fill="none" stroke="midnightblue" d="M205.2,-29.29C213.7,-28.43 222.31,-27.57 230.87,-26.71"/>
<polygon fill="midnightblue" stroke="midnightblue" points="231.29,-30.19 240.89,-25.7 230.59,-23.22 231.29,-30.19"/>
</g>
</g>
</svg>
