<?xml version="1.0" encoding="UTF-8" standalone="no"?>
<!DOCTYPE svg PUBLIC "-//W3C//DTD SVG 1.1//EN"
 "http://www.w3.org/Graphics/SVG/1.1/DTD/svg11.dtd">
<!-- Generated by graphviz version 2.43.0 (0)
 -->
<!-- Title: QuantConnect.Scheduling.DateRules.EveryDay Pages: 1 -->
<svg width="1309pt" height="319pt"
 viewBox="0.00 0.00 1309.00 318.50" xmlns="http://www.w3.org/2000/svg" xmlns:xlink="http://www.w3.org/1999/xlink">
<g id="graph0" class="graph" transform="scale(1 1) rotate(0) translate(4 314.5)">
<title>QuantConnect.Scheduling.DateRules.EveryDay</title>
<polygon fill="white" stroke="transparent" points="-4,4 -4,-314.5 1305,-314.5 1305,4 -4,4"/>
<!-- Node1 -->
<g id="node1" class="node">
<title>Node1</title>
<g id="a_node1"><a xlink:title="Specifies an event should fire every day the symbol is trading">
<polygon fill="#bfbfbf" stroke="black" points="0,-200 0,-230 145,-230 145,-200 0,-200"/>
<text text-anchor="start" x="8" y="-218" font-family="Helvetica,sans-Serif" font-size="10.00">QuantConnect.Scheduling.</text>
<text text-anchor="middle" x="72.5" y="-207" font-family="Helvetica,sans-Serif" font-size="10.00">DateRules.EveryDay</text>
</a>
</g>
</g>
<!-- Node2 -->
<g id="node2" class="node">
<title>Node2</title>
<g id="a_node2"><a xlink:href="classQuantConnect_1_1Time.html#a6e89a079e35522aa29df3cf30c7b6e39" target="_top" xlink:title="Define an enumerable date range of tradeable dates &#45; skip the holidays and weekends when securities i...">
<polygon fill="white" stroke="black" points="181,-244.5 181,-263.5 387,-263.5 387,-244.5 181,-244.5"/>
<text text-anchor="middle" x="284" y="-251.5" font-family="Helvetica,sans-Serif" font-size="10.00">QuantConnect.Time.EachTradeableDay</text>
</a>
</g>
</g>
<!-- Node1&#45;&gt;Node2 -->
<g id="edge1" class="edge">
<title>Node1&#45;&gt;Node2</title>
<path fill="none" stroke="midnightblue" d="M145.01,-228.31C170.01,-232.97 197.82,-238.14 221.89,-242.62"/>
<polygon fill="midnightblue" stroke="midnightblue" points="221.49,-246.11 231.96,-244.5 222.77,-239.23 221.49,-246.11"/>
</g>
<!-- Node6 -->
<g id="node6" class="node">
<title>Node6</title>
<g id="a_node6"><a xlink:href="classQuantConnect_1_1Scheduling_1_1BaseScheduleRules.html#a7f7f5459a775e24b528b7c58ebe6fe77" target="_top" xlink:title="Helper method to fetch the security exchange hours">
<polygon fill="white" stroke="black" points="198,-170.5 198,-211.5 370,-211.5 370,-170.5 198,-170.5"/>
<text text-anchor="start" x="206" y="-199.5" font-family="Helvetica,sans-Serif" font-size="10.00">QuantConnect.Scheduling.</text>
<text text-anchor="start" x="206" y="-188.5" font-family="Helvetica,sans-Serif" font-size="10.00">BaseScheduleRules.GetSecurity</text>
<text text-anchor="middle" x="284" y="-177.5" font-family="Helvetica,sans-Serif" font-size="10.00">ExchangeHours</text>
</a>
</g>
</g>
<!-- Node1&#45;&gt;Node6 -->
<g id="edge5" class="edge">
<title>Node1&#45;&gt;Node6</title>
<path fill="none" stroke="midnightblue" d="M145.01,-206.81C158.65,-205.25 173.13,-203.59 187.38,-201.95"/>
<polygon fill="midnightblue" stroke="midnightblue" points="188.17,-205.39 197.7,-200.77 187.37,-198.43 188.17,-205.39"/>
</g>
<!-- Node3 -->
<g id="node3" class="node">
<title>Node3</title>
<g id="a_node3"><a xlink:href="classQuantConnect_1_1Time.html#a8bf543d00ede64fe5180187ea6bfdaad" target="_top" xlink:title="Make sure this date is not a holiday, or weekend for the securities in this algorithm.">
<polygon fill="white" stroke="black" points="423,-271.5 423,-290.5 604,-290.5 604,-271.5 423,-271.5"/>
<text text-anchor="middle" x="513.5" y="-278.5" font-family="Helvetica,sans-Serif" font-size="10.00">QuantConnect.Time.TradableDate</text>
</a>
</g>
</g>
<!-- Node2&#45;&gt;Node3 -->
<g id="edge2" class="edge">
<title>Node2&#45;&gt;Node3</title>
<path fill="none" stroke="midnightblue" d="M365.21,-263.52C383.64,-265.71 403.37,-268.05 422.2,-270.28"/>
<polygon fill="midnightblue" stroke="midnightblue" points="421.91,-273.77 432.25,-271.48 422.73,-266.82 421.91,-273.77"/>
</g>
<!-- Node4 -->
<g id="node4" class="node">
<title>Node4</title>
<g id="a_node4"><a xlink:href="classQuantConnect_1_1Logging_1_1Log.html#af0e7955911bc7664b37661b2a303a9e3" target="_top" xlink:title="Log error">
<polygon fill="white" stroke="black" points="673.5,-280 673.5,-310 823.5,-310 823.5,-280 673.5,-280"/>
<text text-anchor="start" x="681.5" y="-298" font-family="Helvetica,sans-Serif" font-size="10.00">QuantConnect.Logging.Log.</text>
<text text-anchor="middle" x="748.5" y="-287" font-family="Helvetica,sans-Serif" font-size="10.00">Error</text>
</a>
</g>
</g>
<!-- Node3&#45;&gt;Node4 -->
<g id="edge3" class="edge">
<title>Node3&#45;&gt;Node4</title>
<path fill="none" stroke="midnightblue" d="M604.25,-286.39C623.59,-287.55 643.98,-288.78 663.11,-289.93"/>
<polygon fill="midnightblue" stroke="midnightblue" points="663.09,-293.43 673.29,-290.54 663.51,-286.45 663.09,-293.43"/>
</g>
<!-- Node5 -->
<g id="node5" class="node">
<title>Node5</title>
<g id="a_node5"><a xlink:href="interfaceQuantConnect_1_1Logging_1_1ILogHandler.html#a35373a0c5d76031fa5ccf5dc39e5c25d" target="_top" xlink:title="Write error message to log">
<polygon fill="white" stroke="black" points="914,-280 914,-310 1064,-310 1064,-280 914,-280"/>
<text text-anchor="start" x="922" y="-298" font-family="Helvetica,sans-Serif" font-size="10.00">QuantConnect.Logging.ILog</text>
<text text-anchor="middle" x="989" y="-287" font-family="Helvetica,sans-Serif" font-size="10.00">Handler.Error</text>
</a>
</g>
</g>
<!-- Node4&#45;&gt;Node5 -->
<g id="edge4" class="edge">
<title>Node4&#45;&gt;Node5</title>
<path fill="none" stroke="midnightblue" d="M823.66,-295C849.01,-295 877.55,-295 903.64,-295"/>
<polygon fill="midnightblue" stroke="midnightblue" points="903.89,-298.5 913.89,-295 903.89,-291.5 903.89,-298.5"/>
</g>
<!-- Node7 -->
<g id="node7" class="node">
<title>Node7</title>
<g id="a_node7"><a xlink:href="classQuantConnect_1_1Securities_1_1MarketHoursDatabase.html#aeac6cf20dbffdbafd258f0d5f4473713" target="_top" xlink:title="Gets the entry for the specified market/symbol/security&#45;type">
<polygon fill="white" stroke="black" points="428,-176 428,-206 599,-206 599,-176 428,-176"/>
<text text-anchor="start" x="436" y="-194" font-family="Helvetica,sans-Serif" font-size="10.00">QuantConnect.Securities.</text>
<text text-anchor="middle" x="513.5" y="-183" font-family="Helvetica,sans-Serif" font-size="10.00">MarketHoursDatabase.GetEntry</text>
</a>
</g>
</g>
<!-- Node6&#45;&gt;Node7 -->
<g id="edge6" class="edge">
<title>Node6&#45;&gt;Node7</title>
<path fill="none" stroke="midnightblue" d="M370.04,-191C385.57,-191 401.86,-191 417.65,-191"/>
<polygon fill="midnightblue" stroke="midnightblue" points="417.95,-194.5 427.95,-191 417.95,-187.5 417.95,-194.5"/>
</g>
<!-- Node17 -->
<g id="node17" class="node">
<title>Node17</title>
<g id="a_node17"><a xlink:href="classQuantConnect_1_1Securities_1_1SecurityManager.html#af3ad97e370ceec706ac1afe70f7fbb42" target="_top" xlink:title="Try and get this security object with matching symbol and return true on success.">
<polygon fill="white" stroke="black" points="433.5,-127 433.5,-157 593.5,-157 593.5,-127 433.5,-127"/>
<text text-anchor="start" x="441.5" y="-145" font-family="Helvetica,sans-Serif" font-size="10.00">QuantConnect.Securities.</text>
<text text-anchor="middle" x="513.5" y="-134" font-family="Helvetica,sans-Serif" font-size="10.00">SecurityManager.TryGetValue</text>
</a>
</g>
</g>
<!-- Node6&#45;&gt;Node17 -->
<g id="edge17" class="edge">
<title>Node6&#45;&gt;Node17</title>
<path fill="none" stroke="midnightblue" d="M370.04,-172.68C390.64,-168.25 412.6,-163.52 432.94,-159.14"/>
<polygon fill="midnightblue" stroke="midnightblue" points="433.75,-162.54 442.78,-157.02 432.27,-155.7 433.75,-162.54"/>
</g>
<!-- Node7&#45;&gt;Node4 -->
<g id="edge7" class="edge">
<title>Node7&#45;&gt;Node4</title>
<path fill="none" stroke="midnightblue" d="M533.74,-206.32C557.4,-224.4 599.43,-254.15 640,-271 647.47,-274.1 655.41,-276.83 663.45,-279.23"/>
<polygon fill="midnightblue" stroke="midnightblue" points="662.72,-282.66 673.3,-282 664.61,-275.93 662.72,-282.66"/>
</g>
<!-- Node8 -->
<g id="node8" class="node">
<title>Node8</title>
<g id="a_node8"><a xlink:href="classQuantConnect_1_1Messages_1_1MarketHoursDatabase.html#af07138844a7ebc1a342f8b56a6be9917" target="_top" xlink:title="Returns a string message saying it was impossible to locate exchange hours for the given key....">
<polygon fill="white" stroke="black" points="640,-231 640,-261 857,-261 857,-231 640,-231"/>
<text text-anchor="start" x="648" y="-249" font-family="Helvetica,sans-Serif" font-size="10.00">QuantConnect.Messages.Market</text>
<text text-anchor="middle" x="748.5" y="-238" font-family="Helvetica,sans-Serif" font-size="10.00">HoursDatabase.ExchangeHoursNotFound</text>
</a>
</g>
</g>
<!-- Node7&#45;&gt;Node8 -->
<g id="edge8" class="edge">
<title>Node7&#45;&gt;Node8</title>
<path fill="none" stroke="midnightblue" d="M577.04,-206.03C597.14,-210.84 619.5,-216.17 640,-221 650.57,-223.49 661.72,-226.1 672.69,-228.66"/>
<polygon fill="midnightblue" stroke="midnightblue" points="672.15,-232.13 682.68,-230.99 673.74,-225.31 672.15,-232.13"/>
</g>
<!-- Node9 -->
<g id="node9" class="node">
<title>Node9</title>
<g id="a_node9"><a xlink:href="classQuantConnect_1_1Securities_1_1SymbolPropertiesDatabase.html#aee26fb588793fd311c44eb8b2909cc33" target="_top" xlink:title="Gets the instance of the SymbolPropertiesDatabase class produced by reading in the symbol properties ...">
<polygon fill="white" stroke="black" points="660,-170.5 660,-211.5 837,-211.5 837,-170.5 660,-170.5"/>
<text text-anchor="start" x="668" y="-199.5" font-family="Helvetica,sans-Serif" font-size="10.00">QuantConnect.Securities.</text>
<text text-anchor="start" x="668" y="-188.5" font-family="Helvetica,sans-Serif" font-size="10.00">SymbolPropertiesDatabase.From</text>
<text text-anchor="middle" x="748.5" y="-177.5" font-family="Helvetica,sans-Serif" font-size="10.00">DataFolder</text>
</a>
</g>
</g>
<!-- Node7&#45;&gt;Node9 -->
<g id="edge9" class="edge">
<title>Node7&#45;&gt;Node9</title>
<path fill="none" stroke="midnightblue" d="M599.28,-191C615.55,-191 632.71,-191 649.36,-191"/>
<polygon fill="midnightblue" stroke="midnightblue" points="649.65,-194.5 659.65,-191 649.65,-187.5 649.65,-194.5"/>
</g>
<!-- Node13 -->
<g id="node13" class="node">
<title>Node13</title>
<g id="a_node13"><a xlink:href="classQuantConnect_1_1Messages_1_1MarketHoursDatabase.html#a656d4c4976d6c12d2d865ad34fb23c42" target="_top" xlink:title="Returns a string message that suggests the given market based on the provided ticker">
<polygon fill="white" stroke="black" points="644,-110.5 644,-151.5 853,-151.5 853,-110.5 644,-110.5"/>
<text text-anchor="start" x="652" y="-139.5" font-family="Helvetica,sans-Serif" font-size="10.00">QuantConnect.Messages.Market</text>
<text text-anchor="start" x="652" y="-128.5" font-family="Helvetica,sans-Serif" font-size="10.00">HoursDatabase.SuggestedMarketBased</text>
<text text-anchor="middle" x="748.5" y="-117.5" font-family="Helvetica,sans-Serif" font-size="10.00">OnTicker</text>
</a>
</g>
</g>
<!-- Node7&#45;&gt;Node13 -->
<g id="edge13" class="edge">
<title>Node7&#45;&gt;Node13</title>
<path fill="none" stroke="midnightblue" d="M572.99,-175.94C598.68,-169.32 629.41,-161.41 657.88,-154.08"/>
<polygon fill="midnightblue" stroke="midnightblue" points="659.04,-157.39 667.85,-151.51 657.29,-150.62 659.04,-157.39"/>
</g>
<!-- Node14 -->
<g id="node14" class="node">
<title>Node14</title>
<g id="a_node14"><a xlink:href="classQuantConnect_1_1Securities_1_1MarketHoursDatabase.html#a3eedd1459368e8f50da2cedfc7508006" target="_top" xlink:title="Tries to get the entry for the specified market/symbol/security&#45;type">
<polygon fill="white" stroke="black" points="656,-61 656,-91 841,-91 841,-61 656,-61"/>
<text text-anchor="start" x="664" y="-79" font-family="Helvetica,sans-Serif" font-size="10.00">QuantConnect.Securities.</text>
<text text-anchor="middle" x="748.5" y="-68" font-family="Helvetica,sans-Serif" font-size="10.00">MarketHoursDatabase.TryGetEntry</text>
</a>
</g>
</g>
<!-- Node7&#45;&gt;Node14 -->
<g id="edge14" class="edge">
<title>Node7&#45;&gt;Node14</title>
<path fill="none" stroke="midnightblue" d="M587.76,-175.97C593.55,-173.19 599.06,-169.9 604,-166 629.91,-145.53 613.65,-120.9 640,-101 642.48,-99.13 645.08,-97.39 647.77,-95.78"/>
<polygon fill="midnightblue" stroke="midnightblue" points="649.46,-98.85 656.65,-91.06 646.18,-92.66 649.46,-98.85"/>
</g>
<!-- Node16 -->
<g id="node16" class="node">
<title>Node16</title>
<g id="a_node16"><a xlink:href="classQuantConnect_1_1Securities_1_1SymbolPropertiesDatabase.html#a5a7baeddd03bfc7fb60cef8ab2e6834b" target="_top" xlink:title="Tries to get the market for the provided symbol/security type">
<polygon fill="white" stroke="black" points="665,-0.5 665,-41.5 832,-41.5 832,-0.5 665,-0.5"/>
<text text-anchor="start" x="673" y="-29.5" font-family="Helvetica,sans-Serif" font-size="10.00">QuantConnect.Securities.</text>
<text text-anchor="start" x="673" y="-18.5" font-family="Helvetica,sans-Serif" font-size="10.00">SymbolPropertiesDatabase.Try</text>
<text text-anchor="middle" x="748.5" y="-7.5" font-family="Helvetica,sans-Serif" font-size="10.00">GetMarket</text>
</a>
</g>
</g>
<!-- Node7&#45;&gt;Node16 -->
<g id="edge16" class="edge">
<title>Node7&#45;&gt;Node16</title>
<path fill="none" stroke="midnightblue" d="M590.8,-175.82C595.59,-173.06 600.06,-169.82 604,-166 642.45,-128.72 601.54,-88.27 640,-51 644.66,-46.49 649.93,-42.64 655.59,-39.36"/>
<polygon fill="midnightblue" stroke="midnightblue" points="657.45,-42.35 664.75,-34.67 654.25,-36.12 657.45,-42.35"/>
</g>
<!-- Node10 -->
<g id="node10" class="node">
<title>Node10</title>
<g id="a_node10"><a xlink:href="classQuantConnect_1_1Globals.html#ae01b5c94ef475a21ab1a62fe1b04ea5c" target="_top" xlink:title="Helper method that will build a data folder path checking if it exists on the cache folder else will ...">
<polygon fill="white" stroke="black" points="916,-204 916,-234 1062,-234 1062,-204 916,-204"/>
<text text-anchor="start" x="924" y="-222" font-family="Helvetica,sans-Serif" font-size="10.00">QuantConnect.Globals.Get</text>
<text text-anchor="middle" x="989" y="-211" font-family="Helvetica,sans-Serif" font-size="10.00">DataFolderPath</text>
</a>
</g>
</g>
<!-- Node9&#45;&gt;Node10 -->
<g id="edge10" class="edge">
<title>Node9&#45;&gt;Node10</title>
<path fill="none" stroke="midnightblue" d="M837.29,-201.31C859.64,-203.93 883.57,-206.74 905.63,-209.33"/>
<polygon fill="midnightblue" stroke="midnightblue" points="905.29,-212.81 915.63,-210.5 906.1,-205.86 905.29,-212.81"/>
</g>
<!-- Node11 -->
<g id="node11" class="node">
<title>Node11</title>
<g id="a_node11"><a xlink:href="classQuantConnect_1_1Securities_1_1SymbolPropertiesDatabase.html#a1658f93bf0dce7022bb7584e1a95cc7a" target="_top" xlink:title="Initialize a new instance of SymbolPropertiesDatabase using the given file">
<polygon fill="white" stroke="black" points="894.5,-143.5 894.5,-184.5 1083.5,-184.5 1083.5,-143.5 894.5,-143.5"/>
<text text-anchor="start" x="902.5" y="-172.5" font-family="Helvetica,sans-Serif" font-size="10.00">QuantConnect.Securities.</text>
<text text-anchor="start" x="902.5" y="-161.5" font-family="Helvetica,sans-Serif" font-size="10.00">SymbolPropertiesDatabase.Symbol</text>
<text text-anchor="middle" x="989" y="-150.5" font-family="Helvetica,sans-Serif" font-size="10.00">PropertiesDatabase</text>
</a>
</g>
</g>
<!-- Node9&#45;&gt;Node11 -->
<g id="edge11" class="edge">
<title>Node9&#45;&gt;Node11</title>
<path fill="none" stroke="midnightblue" d="M837.29,-181.06C852.55,-179.33 868.54,-177.52 884.17,-175.75"/>
<polygon fill="midnightblue" stroke="midnightblue" points="884.84,-179.2 894.38,-174.6 884.05,-172.25 884.84,-179.2"/>
</g>
<!-- Node12 -->
<g id="node12" class="node">
<title>Node12</title>
<g id="a_node12"><a xlink:href="classQuantConnect_1_1Messages_1_1SymbolPropertiesDatabase.html#a6abceae517a349a28223bfc2dc9106d7" target="_top" xlink:title="Returns a string saying a duplicated key was found while processing the given file">
<polygon fill="white" stroke="black" points="1121,-143.5 1121,-184.5 1301,-184.5 1301,-143.5 1121,-143.5"/>
<text text-anchor="start" x="1129" y="-172.5" font-family="Helvetica,sans-Serif" font-size="10.00">QuantConnect.Messages.Symbol</text>
<text text-anchor="start" x="1129" y="-161.5" font-family="Helvetica,sans-Serif" font-size="10.00">PropertiesDatabase.DuplicateKey</text>
<text text-anchor="middle" x="1211" y="-150.5" font-family="Helvetica,sans-Serif" font-size="10.00">InFile</text>
</a>
</g>
</g>
<!-- Node11&#45;&gt;Node12 -->
<g id="edge12" class="edge">
<title>Node11&#45;&gt;Node12</title>
<path fill="none" stroke="midnightblue" d="M1083.62,-164C1092.54,-164 1101.61,-164 1110.58,-164"/>
<polygon fill="midnightblue" stroke="midnightblue" points="1110.66,-167.5 1120.66,-164 1110.66,-160.5 1110.66,-167.5"/>
</g>
<!-- Node15 -->
<g id="node15" class="node">
<title>Node15</title>
<g id="a_node15"><a xlink:href="classQuantConnect_1_1Securities_1_1MarketHoursDatabase.html#aa717adb9bb04be931913608ffd5a2733" target="_top" xlink:title="Gets the correct string symbol to use as a database key">
<polygon fill="white" stroke="black" points="893,-55.5 893,-96.5 1085,-96.5 1085,-55.5 893,-55.5"/>
<text text-anchor="start" x="901" y="-84.5" font-family="Helvetica,sans-Serif" font-size="10.00">QuantConnect.Securities.</text>
<text text-anchor="start" x="901" y="-73.5" font-family="Helvetica,sans-Serif" font-size="10.00">MarketHoursDatabase.GetDatabase</text>
<text text-anchor="middle" x="989" y="-62.5" font-family="Helvetica,sans-Serif" font-size="10.00">SymbolKey</text>
</a>
</g>
</g>
<!-- Node14&#45;&gt;Node15 -->
<g id="edge15" class="edge">
<title>Node14&#45;&gt;Node15</title>
<path fill="none" stroke="midnightblue" d="M841.03,-76C854.66,-76 868.81,-76 882.7,-76"/>
<polygon fill="midnightblue" stroke="midnightblue" points="882.76,-79.5 892.76,-76 882.76,-72.5 882.76,-79.5"/>
</g>
</g>
</svg>
