<?xml version="1.0" encoding="UTF-8" standalone="no"?>
<!DOCTYPE svg PUBLIC "-//W3C//DTD SVG 1.1//EN"
 "http://www.w3.org/Graphics/SVG/1.1/DTD/svg11.dtd">
<!-- Generated by graphviz version 2.43.0 (0)
 -->
<!-- Title: QuantConnect.Python.PythonData.Reader Pages: 1 -->
<svg width="769pt" height="112pt"
 viewBox="0.00 0.00 769.00 112.00" xmlns="http://www.w3.org/2000/svg" xmlns:xlink="http://www.w3.org/1999/xlink">
<g id="graph0" class="graph" transform="scale(1 1) rotate(0) translate(4 108)">
<title>QuantConnect.Python.PythonData.Reader</title>
<polygon fill="white" stroke="transparent" points="-4,4 -4,-108 765,-108 765,4 -4,4"/>
<!-- Node1 -->
<g id="node1" class="node">
<title>Node1</title>
<g id="a_node1"><a xlink:title="Generic Reader Implementation for Python Custom Data.">
<polygon fill="#bfbfbf" stroke="black" points="0,-48.5 0,-78.5 159,-78.5 159,-48.5 0,-48.5"/>
<text text-anchor="start" x="8" y="-66.5" font-family="Helvetica,sans-Serif" font-size="10.00">QuantConnect.Python.Python</text>
<text text-anchor="middle" x="79.5" y="-55.5" font-family="Helvetica,sans-Serif" font-size="10.00">Data.Reader</text>
</a>
</g>
</g>
<!-- Node2 -->
<g id="node2" class="node">
<title>Node2</title>
<g id="a_node2"><a xlink:href="classQuantConnect_1_1Python_1_1PythonData.html#a535c288f57a8a212b0bd7b28fa4617a9" target="_top" xlink:title="Constructor for initializing the PythonData class">
<polygon fill="white" stroke="black" points="195,-73.5 195,-103.5 354,-103.5 354,-73.5 195,-73.5"/>
<text text-anchor="start" x="203" y="-91.5" font-family="Helvetica,sans-Serif" font-size="10.00">QuantConnect.Python.Python</text>
<text text-anchor="middle" x="274.5" y="-80.5" font-family="Helvetica,sans-Serif" font-size="10.00">Data.PythonData</text>
</a>
</g>
</g>
<!-- Node1&#45;&gt;Node2 -->
<g id="edge1" class="edge">
<title>Node1&#45;&gt;Node2</title>
<path fill="none" stroke="midnightblue" d="M159,-73.67C167.48,-74.77 176.14,-75.89 184.73,-77"/>
<polygon fill="midnightblue" stroke="midnightblue" points="184.39,-80.49 194.76,-78.3 185.29,-73.54 184.39,-80.49"/>
</g>
<!-- Node3 -->
<g id="node3" class="node">
<title>Node3</title>
<g id="a_node3"><a xlink:href="classQuantConnect_1_1Data_1_1DynamicData.html#ac37b26cff252702587c0c362e099f9ec" target="_top" xlink:title="Sets the property with the specified name to the value. This is a case&#45;insensitve search.">
<polygon fill="white" stroke="black" points="195.5,-24.5 195.5,-54.5 353.5,-54.5 353.5,-24.5 195.5,-24.5"/>
<text text-anchor="start" x="203.5" y="-42.5" font-family="Helvetica,sans-Serif" font-size="10.00">QuantConnect.Data.Dynamic</text>
<text text-anchor="middle" x="274.5" y="-31.5" font-family="Helvetica,sans-Serif" font-size="10.00">Data.SetProperty</text>
</a>
</g>
</g>
<!-- Node1&#45;&gt;Node3 -->
<g id="edge2" class="edge">
<title>Node1&#45;&gt;Node3</title>
<path fill="none" stroke="midnightblue" d="M159,-53.74C167.63,-52.67 176.45,-51.57 185.19,-50.48"/>
<polygon fill="midnightblue" stroke="midnightblue" points="185.89,-53.92 195.38,-49.21 185.03,-46.98 185.89,-53.92"/>
</g>
<!-- Node4 -->
<g id="node4" class="node">
<title>Node4</title>
<g id="a_node4"><a xlink:href="classQuantConnect_1_1SymbolCache.html#a16ba0efea4bf17d7a83e417a86beb1b5" target="_top" xlink:title="Gets the Symbol object that is mapped to the specified string ticker symbol">
<polygon fill="white" stroke="black" points="390,-24.5 390,-54.5 548,-54.5 548,-24.5 390,-24.5"/>
<text text-anchor="start" x="398" y="-42.5" font-family="Helvetica,sans-Serif" font-size="10.00">QuantConnect.SymbolCache.</text>
<text text-anchor="middle" x="469" y="-31.5" font-family="Helvetica,sans-Serif" font-size="10.00">GetSymbol</text>
</a>
</g>
</g>
<!-- Node3&#45;&gt;Node4 -->
<g id="edge3" class="edge">
<title>Node3&#45;&gt;Node4</title>
<path fill="none" stroke="midnightblue" d="M353.52,-39.5C362.13,-39.5 370.95,-39.5 379.68,-39.5"/>
<polygon fill="midnightblue" stroke="midnightblue" points="379.87,-43 389.87,-39.5 379.87,-36 379.87,-43"/>
</g>
<!-- Node5 -->
<g id="node5" class="node">
<title>Node5</title>
<g id="a_node5"><a xlink:href="classQuantConnect_1_1SymbolCache.html#a131a5bb015b9a603328d0eddfe90c610" target="_top" xlink:title="Gets the Symbol object that is mapped to the specified string ticker symbol">
<polygon fill="white" stroke="black" points="593.5,-49.5 593.5,-79.5 751.5,-79.5 751.5,-49.5 593.5,-49.5"/>
<text text-anchor="start" x="601.5" y="-67.5" font-family="Helvetica,sans-Serif" font-size="10.00">QuantConnect.SymbolCache.</text>
<text text-anchor="middle" x="672.5" y="-56.5" font-family="Helvetica,sans-Serif" font-size="10.00">TryGetSymbol</text>
</a>
</g>
</g>
<!-- Node4&#45;&gt;Node5 -->
<g id="edge4" class="edge">
<title>Node4&#45;&gt;Node5</title>
<path fill="none" stroke="midnightblue" d="M548.19,-49.2C559.66,-50.62 571.53,-52.1 583.19,-53.54"/>
<polygon fill="midnightblue" stroke="midnightblue" points="583,-57.05 593.35,-54.8 583.86,-50.1 583,-57.05"/>
</g>
<!-- Node6 -->
<g id="node6" class="node">
<title>Node6</title>
<g id="a_node6"><a xlink:href="classQuantConnect_1_1Messages_1_1SymbolCache.html#adb5f5ff865e0cfbd0810684f9811b3eb" target="_top" xlink:title="Returns a string message saying the given ticker could not be localized">
<polygon fill="white" stroke="black" points="584,-0.5 584,-30.5 761,-30.5 761,-0.5 584,-0.5"/>
<text text-anchor="start" x="592" y="-18.5" font-family="Helvetica,sans-Serif" font-size="10.00">QuantConnect.Messages.Symbol</text>
<text text-anchor="middle" x="672.5" y="-7.5" font-family="Helvetica,sans-Serif" font-size="10.00">Cache.UnableToLocateTicker</text>
</a>
</g>
</g>
<!-- Node4&#45;&gt;Node6 -->
<g id="edge5" class="edge">
<title>Node4&#45;&gt;Node6</title>
<path fill="none" stroke="midnightblue" d="M548.19,-30.19C556.62,-29.18 565.27,-28.15 573.89,-27.13"/>
<polygon fill="midnightblue" stroke="midnightblue" points="574.47,-30.58 583.98,-25.92 573.64,-23.63 574.47,-30.58"/>
</g>
</g>
</svg>
