<?xml version="1.0" encoding="UTF-8" standalone="no"?>
<!DOCTYPE svg PUBLIC "-//W3C//DTD SVG 1.1//EN"
 "http://www.w3.org/Graphics/SVG/1.1/DTD/svg11.dtd">
<!-- Generated by graphviz version 2.43.0 (0)
 -->
<!-- Title: QuantConnect.Brokerages.BitfinexBrokerageModel.GetLeverage Pages: 1 -->
<svg width="437pt" height="50pt"
 viewBox="0.00 0.00 437.00 50.00" xmlns="http://www.w3.org/2000/svg" xmlns:xlink="http://www.w3.org/1999/xlink">
<g id="graph0" class="graph" transform="scale(1 1) rotate(0) translate(4 46)">
<title>QuantConnect.Brokerages.BitfinexBrokerageModel.GetLeverage</title>
<polygon fill="white" stroke="transparent" points="-4,4 -4,-46 433,-46 433,4 -4,4"/>
<!-- Node1 -->
<g id="node1" class="node">
<title>Node1</title>
<g id="a_node1"><a xlink:title="Bitfinex global leverage rule">
<polygon fill="#bfbfbf" stroke="black" points="0,-6 0,-36 199,-36 199,-6 0,-6"/>
<text text-anchor="start" x="8" y="-24" font-family="Helvetica,sans-Serif" font-size="10.00">QuantConnect.Brokerages.</text>
<text text-anchor="middle" x="99.5" y="-13" font-family="Helvetica,sans-Serif" font-size="10.00">BitfinexBrokerageModel.GetLeverage</text>
</a>
</g>
</g>
<!-- Node2 -->
<g id="node2" class="node">
<title>Node2</title>
<g id="a_node2"><a xlink:href="classQuantConnect_1_1Messages_1_1DefaultBrokerageModel.html#acff8666f85c6f2e7801e861b6bd9dfeb" target="_top" xlink:title="Returns a string message saying the type of the given security is invalid">
<polygon fill="white" stroke="black" points="235,-0.5 235,-41.5 429,-41.5 429,-0.5 235,-0.5"/>
<text text-anchor="start" x="243" y="-29.5" font-family="Helvetica,sans-Serif" font-size="10.00">QuantConnect.Messages.Default</text>
<text text-anchor="start" x="243" y="-18.5" font-family="Helvetica,sans-Serif" font-size="10.00">BrokerageModel.InvalidSecurityType</text>
<text text-anchor="middle" x="332" y="-7.5" font-family="Helvetica,sans-Serif" font-size="10.00">ForLeverage</text>
</a>
</g>
</g>
<!-- Node1&#45;&gt;Node2 -->
<g id="edge1" class="edge">
<title>Node1&#45;&gt;Node2</title>
<path fill="none" stroke="midnightblue" d="M199.26,-21C207.6,-21 216.05,-21 224.45,-21"/>
<polygon fill="midnightblue" stroke="midnightblue" points="224.65,-24.5 234.65,-21 224.65,-17.5 224.65,-24.5"/>
</g>
</g>
</svg>
