<?xml version="1.0" encoding="UTF-8" standalone="no"?>
<!DOCTYPE svg PUBLIC "-//W3C//DTD SVG 1.1//EN"
 "http://www.w3.org/Graphics/SVG/1.1/DTD/svg11.dtd">
<!-- Generated by graphviz version 2.43.0 (0)
 -->
<!-- Title: QuantConnect.Securities.CashBuyingPowerModel.GetMaximumOrderQuantityForTargetBuyingPower Pages: 1 -->
<svg width="852pt" height="379pt"
 viewBox="0.00 0.00 852.00 379.00" xmlns="http://www.w3.org/2000/svg" xmlns:xlink="http://www.w3.org/1999/xlink">
<g id="graph0" class="graph" transform="scale(1 1) rotate(0) translate(4 375)">
<title>QuantConnect.Securities.CashBuyingPowerModel.GetMaximumOrderQuantityForTargetBuyingPower</title>
<polygon fill="white" stroke="transparent" points="-4,4 -4,-375 848,-375 848,4 -4,4"/>
<!-- Node1 -->
<g id="node1" class="node">
<title>Node1</title>
<g id="a_node1"><a xlink:title="Get the maximum market order quantity to obtain a position with a given buying power percentage....">
<polygon fill="#bfbfbf" stroke="black" points="0,-170 0,-211 204,-211 204,-170 0,-170"/>
<text text-anchor="start" x="8" y="-199" font-family="Helvetica,sans-Serif" font-size="10.00">QuantConnect.Securities.</text>
<text text-anchor="start" x="8" y="-188" font-family="Helvetica,sans-Serif" font-size="10.00">CashBuyingPowerModel.GetMaximum</text>
<text text-anchor="middle" x="102" y="-177" font-family="Helvetica,sans-Serif" font-size="10.00">OrderQuantityForTargetBuyingPower</text>
</a>
</g>
</g>
<!-- Node2 -->
<g id="node2" class="node">
<title>Node2</title>
<g id="a_node2"><a xlink:href="classQuantConnect_1_1Securities_1_1CashBook.html#a439b770734d62b9b60bd06a56fbdbb1c" target="_top" xlink:title="Converts a quantity of source currency units into the account currency">
<polygon fill="white" stroke="black" points="252,-340.5 252,-370.5 452,-370.5 452,-340.5 252,-340.5"/>
<text text-anchor="start" x="260" y="-358.5" font-family="Helvetica,sans-Serif" font-size="10.00">QuantConnect.Securities.</text>
<text text-anchor="middle" x="352" y="-347.5" font-family="Helvetica,sans-Serif" font-size="10.00">CashBook.ConvertToAccountCurrency</text>
</a>
</g>
</g>
<!-- Node1&#45;&gt;Node2 -->
<g id="edge1" class="edge">
<title>Node1&#45;&gt;Node2</title>
<path fill="none" stroke="midnightblue" d="M116.99,-211.02C139.25,-241.99 185.8,-300.26 240,-330.5 244.15,-332.81 248.5,-334.91 252.97,-336.82"/>
<polygon fill="midnightblue" stroke="midnightblue" points="251.72,-340.09 262.31,-340.47 254.27,-333.57 251.72,-340.09"/>
</g>
<!-- Node5 -->
<g id="node5" class="node">
<title>Node5</title>
<g id="a_node5"><a xlink:href="classQuantConnect_1_1Messages_1_1CashBuyingPowerModel.html#a272818de6eaa28bde059f66cf0b75350" target="_top" xlink:title="Returns a string message saying GetMaximumOrderQuantityForTargetBuyingPower failed to converge to the...">
<polygon fill="white" stroke="black" points="252.5,-280 252.5,-321 451.5,-321 451.5,-280 252.5,-280"/>
<text text-anchor="start" x="260.5" y="-309" font-family="Helvetica,sans-Serif" font-size="10.00">QuantConnect.Messages.Cash</text>
<text text-anchor="start" x="260.5" y="-298" font-family="Helvetica,sans-Serif" font-size="10.00">BuyingPowerModel.FailedToConverge</text>
<text text-anchor="middle" x="352" y="-287" font-family="Helvetica,sans-Serif" font-size="10.00">OnTargetOrderValue</text>
</a>
</g>
</g>
<!-- Node1&#45;&gt;Node5 -->
<g id="edge4" class="edge">
<title>Node1&#45;&gt;Node5</title>
<path fill="none" stroke="midnightblue" d="M132.81,-211.03C159.78,-228.84 201.12,-254.24 240,-270.5 245.12,-272.64 250.44,-274.67 255.85,-276.59"/>
<polygon fill="midnightblue" stroke="midnightblue" points="255.08,-280.03 265.68,-279.92 257.33,-273.4 255.08,-280.03"/>
</g>
<!-- Node6 -->
<g id="node6" class="node">
<title>Node6</title>
<g id="a_node6"><a xlink:href="interfaceQuantConnect_1_1Orders_1_1Fees_1_1IFeeModel.html#ab0bf50e204c8c07f1d37fd7680f23e59" target="_top" xlink:title="Gets the order fee associated with the specified order.">
<polygon fill="white" stroke="black" points="277.5,-230.5 277.5,-260.5 426.5,-260.5 426.5,-230.5 277.5,-230.5"/>
<text text-anchor="start" x="285.5" y="-248.5" font-family="Helvetica,sans-Serif" font-size="10.00">QuantConnect.Orders.Fees.</text>
<text text-anchor="middle" x="352" y="-237.5" font-family="Helvetica,sans-Serif" font-size="10.00">IFeeModel.GetOrderFee</text>
</a>
</g>
</g>
<!-- Node1&#45;&gt;Node6 -->
<g id="edge5" class="edge">
<title>Node1&#45;&gt;Node6</title>
<path fill="none" stroke="midnightblue" d="M195.7,-211.06C221.21,-216.72 248.62,-222.79 273.2,-228.25"/>
<polygon fill="midnightblue" stroke="midnightblue" points="272.66,-231.71 283.18,-230.46 274.18,-224.88 272.66,-231.71"/>
</g>
<!-- Node7 -->
<g id="node7" class="node">
<title>Node7</title>
<g id="a_node7"><a xlink:href="classQuantConnect_1_1Messages_1_1CashBuyingPowerModel.html#a1e1a104a7298d0b57e9f08fd36706aff" target="_top" xlink:title="Returns a string message saying the internal cash feed required for converting the quote currency,...">
<polygon fill="white" stroke="black" points="253.5,-170 253.5,-211 450.5,-211 450.5,-170 253.5,-170"/>
<text text-anchor="start" x="261.5" y="-199" font-family="Helvetica,sans-Serif" font-size="10.00">QuantConnect.Messages.Cash</text>
<text text-anchor="start" x="261.5" y="-188" font-family="Helvetica,sans-Serif" font-size="10.00">BuyingPowerModel.NoDataInInternal</text>
<text text-anchor="middle" x="352" y="-177" font-family="Helvetica,sans-Serif" font-size="10.00">CashFeedYet</text>
</a>
</g>
</g>
<!-- Node1&#45;&gt;Node7 -->
<g id="edge6" class="edge">
<title>Node1&#45;&gt;Node7</title>
<path fill="none" stroke="midnightblue" d="M204.23,-190.5C217.02,-190.5 230.14,-190.5 243.03,-190.5"/>
<polygon fill="midnightblue" stroke="midnightblue" points="243.3,-194 253.3,-190.5 243.3,-187 243.3,-194"/>
</g>
<!-- Node8 -->
<g id="node8" class="node">
<title>Node8</title>
<g id="a_node8"><a xlink:href="classQuantConnect_1_1Messages_1_1CashBuyingPowerModel.html#a28a92ab461ea2883b57f3ccf6ec2536d" target="_top" xlink:title="Returns a string message saying the order quantity is less than the lot size for the given security">
<polygon fill="white" stroke="black" points="261,-110 261,-151 443,-151 443,-110 261,-110"/>
<text text-anchor="start" x="269" y="-139" font-family="Helvetica,sans-Serif" font-size="10.00">QuantConnect.Messages.Cash</text>
<text text-anchor="start" x="269" y="-128" font-family="Helvetica,sans-Serif" font-size="10.00">BuyingPowerModel.OrderQuantity</text>
<text text-anchor="middle" x="352" y="-117" font-family="Helvetica,sans-Serif" font-size="10.00">LessThanLotSize</text>
</a>
</g>
</g>
<!-- Node1&#45;&gt;Node8 -->
<g id="edge7" class="edge">
<title>Node1&#45;&gt;Node8</title>
<path fill="none" stroke="midnightblue" d="M188,-169.94C209.99,-164.62 233.79,-158.86 256.24,-153.43"/>
<polygon fill="midnightblue" stroke="midnightblue" points="257.21,-156.79 266.11,-151.04 255.57,-149.99 257.21,-156.79"/>
</g>
<!-- Node9 -->
<g id="node9" class="node">
<title>Node9</title>
<g id="a_node9"><a xlink:href="classQuantConnect_1_1Messages_1_1CashBuyingPowerModel.html#a250d7aab24d9025b437c48181716ee5f" target="_top" xlink:title="Returns a string message containing information about the target order value, the order fees and the ...">
<polygon fill="white" stroke="black" points="261,-50 261,-91 443,-91 443,-50 261,-50"/>
<text text-anchor="start" x="269" y="-79" font-family="Helvetica,sans-Serif" font-size="10.00">QuantConnect.Messages.Cash</text>
<text text-anchor="start" x="269" y="-68" font-family="Helvetica,sans-Serif" font-size="10.00">BuyingPowerModel.OrderQuantity</text>
<text text-anchor="middle" x="352" y="-57" font-family="Helvetica,sans-Serif" font-size="10.00">LessThanLotSizeOrderDetails</text>
</a>
</g>
</g>
<!-- Node1&#45;&gt;Node9 -->
<g id="edge8" class="edge">
<title>Node1&#45;&gt;Node9</title>
<path fill="none" stroke="midnightblue" d="M128.83,-169.9C155.34,-149.66 198.47,-119.17 240,-100.5 244.72,-98.38 249.61,-96.38 254.61,-94.5"/>
<polygon fill="midnightblue" stroke="midnightblue" points="256.07,-97.7 264.31,-91.03 253.71,-91.1 256.07,-97.7"/>
</g>
<!-- Node10 -->
<g id="node10" class="node">
<title>Node10</title>
<g id="a_node10"><a xlink:href="classQuantConnect_1_1Messages_1_1CashBuyingPowerModel.html#a132ea1fdd818325079d6b437ef74bdaa" target="_top" xlink:title="Returns a string mesasge saying the contract multiplier for the given security is zero">
<polygon fill="white" stroke="black" points="240,-0.5 240,-30.5 464,-30.5 464,-0.5 240,-0.5"/>
<text text-anchor="start" x="248" y="-18.5" font-family="Helvetica,sans-Serif" font-size="10.00">QuantConnect.Messages.Cash</text>
<text text-anchor="middle" x="352" y="-7.5" font-family="Helvetica,sans-Serif" font-size="10.00">BuyingPowerModel.ZeroContractMultiplier</text>
</a>
</g>
</g>
<!-- Node1&#45;&gt;Node10 -->
<g id="edge9" class="edge">
<title>Node1&#45;&gt;Node10</title>
<path fill="none" stroke="midnightblue" d="M115.75,-169.85C137.16,-137.01 183.58,-73.26 240,-40.5 243.85,-38.26 247.89,-36.23 252.04,-34.37"/>
<polygon fill="midnightblue" stroke="midnightblue" points="253.36,-37.61 261.3,-30.6 250.72,-31.13 253.36,-37.61"/>
</g>
<!-- Node3 -->
<g id="node3" class="node">
<title>Node3</title>
<g id="a_node3"><a xlink:href="classQuantConnect_1_1Securities_1_1CashBook.html#a3a2cfc4aac92b0740a9bad6c94b42d3b" target="_top" xlink:title="Converts a quantity of source currency units into the specified destination currency">
<polygon fill="white" stroke="black" points="500,-340.5 500,-370.5 640,-370.5 640,-340.5 500,-340.5"/>
<text text-anchor="start" x="508" y="-358.5" font-family="Helvetica,sans-Serif" font-size="10.00">QuantConnect.Securities.</text>
<text text-anchor="middle" x="570" y="-347.5" font-family="Helvetica,sans-Serif" font-size="10.00">CashBook.Convert</text>
</a>
</g>
</g>
<!-- Node2&#45;&gt;Node3 -->
<g id="edge2" class="edge">
<title>Node2&#45;&gt;Node3</title>
<path fill="none" stroke="midnightblue" d="M452.15,-355.5C464.71,-355.5 477.44,-355.5 489.64,-355.5"/>
<polygon fill="midnightblue" stroke="midnightblue" points="489.74,-359 499.74,-355.5 489.74,-352 489.74,-359"/>
</g>
<!-- Node4 -->
<g id="node4" class="node">
<title>Node4</title>
<g id="a_node4"><a xlink:href="classQuantConnect_1_1Messages_1_1CashBook.html#a7668ed1e406e2948a4dc01b7b1049e20" target="_top" xlink:title="Returns a string message saying the conversion rate for the given currency is not available">
<polygon fill="white" stroke="black" points="676,-340.5 676,-370.5 844,-370.5 844,-340.5 676,-340.5"/>
<text text-anchor="start" x="684" y="-358.5" font-family="Helvetica,sans-Serif" font-size="10.00">QuantConnect.Messages.Cash</text>
<text text-anchor="middle" x="760" y="-347.5" font-family="Helvetica,sans-Serif" font-size="10.00">Book.ConversionRateNotFound</text>
</a>
</g>
</g>
<!-- Node3&#45;&gt;Node4 -->
<g id="edge3" class="edge">
<title>Node3&#45;&gt;Node4</title>
<path fill="none" stroke="midnightblue" d="M640.2,-355.5C648.56,-355.5 657.19,-355.5 665.82,-355.5"/>
<polygon fill="midnightblue" stroke="midnightblue" points="665.92,-359 675.92,-355.5 665.92,-352 665.92,-359"/>
</g>
</g>
</svg>
