<?xml version="1.0" encoding="UTF-8" standalone="no"?>
<!DOCTYPE svg PUBLIC "-//W3C//DTD SVG 1.1//EN"
 "http://www.w3.org/Graphics/SVG/1.1/DTD/svg11.dtd">
<!-- Generated by graphviz version 2.43.0 (0)
 -->
<!-- Title: QuantConnect.Brokerages.Brokerage.OnOrderEvents Pages: 1 -->
<!--zoomable 280 -->
<svg id="main" version="1.1" xmlns="http://www.w3.org/2000/svg" xmlns:xlink="http://www.w3.org/1999/xlink" xml:space="preserve" onload="init(evt)">
<style type="text/css"><![CDATA[
.edge:hover path { stroke: red; }
.edge:hover polygon { stroke: red; fill: red; }
]]></style>
<script type="text/javascript"><![CDATA[
var edges = document.getElementsByTagName('g');
if (edges && edges.length) {
  for (var i=0;i<edges.length;i++) {
    if (edges[i].id.substr(0,4)=='edge') {
      edges[i].setAttribute('class','edge');
    }
  }
}
]]></script>
        <defs>
                <circle id="rim" cx="0" cy="0" r="7"/>
                <circle id="rim2" cx="0" cy="0" r="3.5"/>
                <g id="zoomPlus">
                        <use xlink:href="#rim" fill="#404040">
                                <set attributeName="fill" to="#808080" begin="zoomplus.mouseover" end="zoomplus.mouseout"/>
                        </use>
                        <path d="M-4,0h8M0,-4v8" fill="none" stroke="white" stroke-width="1.5" pointer-events="none"/>
                </g>
                <g id="zoomMin">
                        <use xlink:href="#rim" fill="#404040">
                                <set attributeName="fill" to="#808080" begin="zoomminus.mouseover" end="zoomminus.mouseout"/>
                        </use>
                        <path d="M-4,0h8" fill="none" stroke="white" stroke-width="1.5" pointer-events="none"/>
                </g>
                <g id="dirArrow">
                        <path fill="none" stroke="white" stroke-width="1.5" d="M0,-3.0v7 M-2.5,-0.5L0,-3.0L2.5,-0.5"/>
                </g>
               <g id="resetDef">
                       <use xlink:href="#rim2" fill="#404040">
                               <set attributeName="fill" to="#808080" begin="reset.mouseover" end="reset.mouseout"/>
                       </use>
               </g>
        </defs>

<script type="text/javascript">
var viewWidth = 571;
var viewHeight = 280;
var sectionId = 'dynsection-2';
</script>
<script xlink:href="svgpan.js"/>
<svg id="graph" class="graph">
<g id="viewport">
<title>QuantConnect.Brokerages.Brokerage.OnOrderEvents</title>
<polygon fill="white" stroke="transparent" points="-4,4 -4,-276 567,-276 567,4 -4,4"/>
<!-- Node1 -->
<g id="node1" class="node">
<title>Node1</title>
<g id="a_node1"><a xlink:title="Event invocator for the OrderFilled event">
<polygon fill="#bfbfbf" stroke="black" points="417,-121 417,-151 563,-151 563,-121 417,-121"/>
<text text-anchor="start" x="425" y="-139" font-family="Helvetica,sans-Serif" font-size="10.00">QuantConnect.Brokerages.</text>
<text text-anchor="middle" x="490" y="-128" font-family="Helvetica,sans-Serif" font-size="10.00">Brokerage.OnOrderEvents</text>
</a>
</g>
</g>
<!-- Node2 -->
<g id="node2" class="node">
<title>Node2</title>
<g id="a_node2"><a xlink:href="classQuantConnect_1_1Brokerages_1_1Brokerage.html#a811fd60a40633f4e51fb7e8d85c98fef" target="_top" xlink:title="Event invocator for the OrderFilled event">
<polygon fill="white" stroke="black" points="235,-121 235,-151 381,-151 381,-121 235,-121"/>
<text text-anchor="start" x="243" y="-139" font-family="Helvetica,sans-Serif" font-size="10.00">QuantConnect.Brokerages.</text>
<text text-anchor="middle" x="308" y="-128" font-family="Helvetica,sans-Serif" font-size="10.00">Brokerage.OnOrderEvent</text>
</a>
</g>
</g>
<!-- Node1&#45;&gt;Node2 -->
<g id="edge1" class="edge">
<title>Node1&#45;&gt;Node2</title>
<path fill="none" stroke="midnightblue" d="M406.56,-136C398.09,-136 389.54,-136 381.19,-136"/>
<polygon fill="midnightblue" stroke="midnightblue" points="406.82,-139.5 416.82,-136 406.82,-132.5 406.82,-139.5"/>
</g>
<!-- Node3 -->
<g id="node3" class="node">
<title>Node3</title>
<g id="a_node3"><a xlink:href="classQuantConnect_1_1Brokerages_1_1Backtesting_1_1BacktestingBrokerage.html#ac70fc5a986e6c1b66cb018072904b147" target="_top" xlink:title="Cancels the order with the specified ID">
<polygon fill="white" stroke="black" points="5.5,-230.5 5.5,-271.5 193.5,-271.5 193.5,-230.5 5.5,-230.5"/>
<text text-anchor="start" x="13.5" y="-259.5" font-family="Helvetica,sans-Serif" font-size="10.00">QuantConnect.Brokerages.</text>
<text text-anchor="start" x="13.5" y="-248.5" font-family="Helvetica,sans-Serif" font-size="10.00">Backtesting.BacktestingBrokerage.</text>
<text text-anchor="middle" x="99.5" y="-237.5" font-family="Helvetica,sans-Serif" font-size="10.00">CancelOrder</text>
</a>
</g>
</g>
<!-- Node2&#45;&gt;Node3 -->
<g id="edge2" class="edge">
<title>Node2&#45;&gt;Node3</title>
<path fill="none" stroke="midnightblue" d="M284.14,-158.18C263.41,-177.21 231.26,-204.16 199,-221 192.34,-224.48 185.22,-227.62 177.96,-230.44"/>
<polygon fill="midnightblue" stroke="midnightblue" points="286.57,-160.7 291.5,-151.31 281.8,-155.58 286.57,-160.7"/>
</g>
<!-- Node4 -->
<g id="node4" class="node">
<title>Node4</title>
<g id="a_node4"><a xlink:href="classQuantConnect_1_1Brokerages_1_1Backtesting_1_1BacktestingBrokerage.html#afd1ca716ede181b3b29d8c6db6aa5277" target="_top" xlink:title="Places a new order and assigns a new broker ID to the order">
<polygon fill="white" stroke="black" points="5.5,-170.5 5.5,-211.5 193.5,-211.5 193.5,-170.5 5.5,-170.5"/>
<text text-anchor="start" x="13.5" y="-199.5" font-family="Helvetica,sans-Serif" font-size="10.00">QuantConnect.Brokerages.</text>
<text text-anchor="start" x="13.5" y="-188.5" font-family="Helvetica,sans-Serif" font-size="10.00">Backtesting.BacktestingBrokerage.</text>
<text text-anchor="middle" x="99.5" y="-177.5" font-family="Helvetica,sans-Serif" font-size="10.00">PlaceOrder</text>
</a>
</g>
</g>
<!-- Node2&#45;&gt;Node4 -->
<g id="edge3" class="edge">
<title>Node2&#45;&gt;Node4</title>
<path fill="none" stroke="midnightblue" d="M240.9,-153.61C220.8,-158.96 198.53,-164.89 177.76,-170.42"/>
<polygon fill="midnightblue" stroke="midnightblue" points="241.81,-156.98 250.57,-151.03 240.01,-150.22 241.81,-156.98"/>
</g>
<!-- Node5 -->
<g id="node5" class="node">
<title>Node5</title>
<g id="a_node5"><a xlink:href="classQuantConnect_1_1Brokerages_1_1Brokerage.html#a9250e91d61c33d7648b13df6853393cb" target="_top" xlink:title="Attempts to place an order that may cross the zero position. If the order needs to be split into two ...">
<polygon fill="white" stroke="black" points="0,-121 0,-151 199,-151 199,-121 0,-121"/>
<text text-anchor="start" x="8" y="-139" font-family="Helvetica,sans-Serif" font-size="10.00">QuantConnect.Brokerages.</text>
<text text-anchor="middle" x="99.5" y="-128" font-family="Helvetica,sans-Serif" font-size="10.00">Brokerage.TryCrossZeroPositionOrder</text>
</a>
</g>
</g>
<!-- Node2&#45;&gt;Node5 -->
<g id="edge4" class="edge">
<title>Node2&#45;&gt;Node5</title>
<path fill="none" stroke="midnightblue" d="M224.66,-136C216.28,-136 207.71,-136 199.18,-136"/>
<polygon fill="midnightblue" stroke="midnightblue" points="224.78,-139.5 234.78,-136 224.78,-132.5 224.78,-139.5"/>
</g>
<!-- Node6 -->
<g id="node6" class="node">
<title>Node6</title>
<g id="a_node6"><a xlink:href="classQuantConnect_1_1Brokerages_1_1Brokerage.html#af5619808bb527e226c7ad3ef2eecc150" target="_top" xlink:title="Attempts to handle any remaining orders that cross the zero boundary.">
<polygon fill="white" stroke="black" points="14.5,-60.5 14.5,-101.5 184.5,-101.5 184.5,-60.5 14.5,-60.5"/>
<text text-anchor="start" x="22.5" y="-89.5" font-family="Helvetica,sans-Serif" font-size="10.00">QuantConnect.Brokerages.</text>
<text text-anchor="start" x="22.5" y="-78.5" font-family="Helvetica,sans-Serif" font-size="10.00">Brokerage.TryHandleRemaining</text>
<text text-anchor="middle" x="99.5" y="-67.5" font-family="Helvetica,sans-Serif" font-size="10.00">CrossZeroOrder</text>
</a>
</g>
</g>
<!-- Node2&#45;&gt;Node6 -->
<g id="edge5" class="edge">
<title>Node2&#45;&gt;Node6</title>
<path fill="none" stroke="midnightblue" d="M240.9,-118.39C220.8,-113.04 198.53,-107.11 177.76,-101.58"/>
<polygon fill="midnightblue" stroke="midnightblue" points="240.01,-121.78 250.57,-120.97 241.81,-115.02 240.01,-121.78"/>
</g>
<!-- Node7 -->
<g id="node7" class="node">
<title>Node7</title>
<g id="a_node7"><a xlink:href="classQuantConnect_1_1Brokerages_1_1Backtesting_1_1BacktestingBrokerage.html#a5f716fe703d4cf191e52134d6ed1f822" target="_top" xlink:title="Updates the order with the same ID">
<polygon fill="white" stroke="black" points="5.5,-0.5 5.5,-41.5 193.5,-41.5 193.5,-0.5 5.5,-0.5"/>
<text text-anchor="start" x="13.5" y="-29.5" font-family="Helvetica,sans-Serif" font-size="10.00">QuantConnect.Brokerages.</text>
<text text-anchor="start" x="13.5" y="-18.5" font-family="Helvetica,sans-Serif" font-size="10.00">Backtesting.BacktestingBrokerage.</text>
<text text-anchor="middle" x="99.5" y="-7.5" font-family="Helvetica,sans-Serif" font-size="10.00">UpdateOrder</text>
</a>
</g>
</g>
<!-- Node2&#45;&gt;Node7 -->
<g id="edge6" class="edge">
<title>Node2&#45;&gt;Node7</title>
<path fill="none" stroke="midnightblue" d="M284.14,-113.82C263.41,-94.79 231.26,-67.84 199,-51 192.34,-47.52 185.22,-44.38 177.96,-41.56"/>
<polygon fill="midnightblue" stroke="midnightblue" points="281.8,-116.42 291.5,-120.69 286.57,-111.3 281.8,-116.42"/>
</g>
</g>
</svg>
        <g id="navigator" transform="translate(0 0)" fill="#404254">
                <rect fill="#f2f5e9" fill-opacity="0.5" stroke="#606060" stroke-width=".5" x="0" y="0" width="60" height="60"/>
                <use id="zoomplus" xlink:href="#zoomPlus" x="17" y="9" onmousedown="handleZoom(evt,'in')"/>
                <use id="zoomminus" xlink:href="#zoomMin" x="42" y="9" onmousedown="handleZoom(evt,'out')"/>
                <use id="reset" xlink:href="#resetDef" x="30" y="36" onmousedown="handleReset()"/>
                <g id="arrowUp" xlink:href="#dirArrow" transform="translate(30 24)" onmousedown="handlePan(0,-1)">
                  <use xlink:href="#rim" fill="#404040">
                        <set attributeName="fill" to="#808080" begin="arrowUp.mouseover" end="arrowUp.mouseout"/>
                  </use>
                  <path fill="none" stroke="white" stroke-width="1.5" d="M0,-3.0v7 M-2.5,-0.5L0,-3.0L2.5,-0.5"/>
                </g>
                <g id="arrowRight" xlink:href="#dirArrow" transform="rotate(90) translate(36 -43)" onmousedown="handlePan(1,0)">
                  <use xlink:href="#rim" fill="#404040">
                        <set attributeName="fill" to="#808080" begin="arrowRight.mouseover" end="arrowRight.mouseout"/>
                  </use>
                  <path fill="none" stroke="white" stroke-width="1.5" d="M0,-3.0v7 M-2.5,-0.5L0,-3.0L2.5,-0.5"/>
                </g>
                <g id="arrowDown" xlink:href="#dirArrow" transform="rotate(180) translate(-30 -48)" onmousedown="handlePan(0,1)">
                  <use xlink:href="#rim" fill="#404040">
                        <set attributeName="fill" to="#808080" begin="arrowDown.mouseover" end="arrowDown.mouseout"/>
                  </use>
                  <path fill="none" stroke="white" stroke-width="1.5" d="M0,-3.0v7 M-2.5,-0.5L0,-3.0L2.5,-0.5"/>
                </g>
                <g id="arrowLeft" xlink:href="#dirArrow" transform="rotate(270) translate(-36 17)" onmousedown="handlePan(-1,0)">
                  <use xlink:href="#rim" fill="#404040">
                        <set attributeName="fill" to="#808080" begin="arrowLeft.mouseover" end="arrowLeft.mouseout"/>
                  </use>
                  <path fill="none" stroke="white" stroke-width="1.5" d="M0,-3.0v7 M-2.5,-0.5L0,-3.0L2.5,-0.5"/>
                </g>
        </g>
        <svg viewBox="0 0 15 15" width="100%" height="30px" preserveAspectRatio="xMaxYMin meet">
         <g id="arrow_out" transform="scale(0.3 0.3)">
          <a xlink:href="classQuantConnect_1_1Brokerages_1_1Brokerage_ae7499c6cef985b52effb93373f5706fd_icgraph_org.svg" target="_base">
           <rect id="button" ry="5" rx="5" y="6" x="6" height="38" width="38"
                fill="#f2f5e9" fill-opacity="0.5" stroke="#606060" stroke-width="1.0"/>
           <path id="arrow"
             d="M 11.500037,31.436501 C 11.940474,20.09759 22.043105,11.32322 32.158766,21.979434 L 37.068811,17.246167 C 37.068811,17.246167 37.088388,32 37.088388,32 L 22.160133,31.978069 C 22.160133,31.978069 26.997745,27.140456 26.997745,27.140456 C 18.528582,18.264221 13.291696,25.230495 11.500037,31.436501 z"
             style="fill:#404040;"/>
          </a>
         </g>
        </svg>
</svg>
