<?xml version="1.0" encoding="UTF-8" standalone="no"?>
<!DOCTYPE svg PUBLIC "-//W3C//DTD SVG 1.1//EN"
 "http://www.w3.org/Graphics/SVG/1.1/DTD/svg11.dtd">
<!-- Generated by graphviz version 2.43.0 (0)
 -->
<!-- Title: QuantConnect.Commands.OrderCommand.ToString Pages: 1 -->
<svg width="1773pt" height="512pt"
 viewBox="0.00 0.00 1773.00 511.97" xmlns="http://www.w3.org/2000/svg" xmlns:xlink="http://www.w3.org/1999/xlink">
<g id="graph0" class="graph" transform="scale(1 1) rotate(0) translate(4 507.97)">
<title>QuantConnect.Commands.OrderCommand.ToString</title>
<polygon fill="white" stroke="transparent" points="-4,4 -4,-507.97 1769,-507.97 1769,4 -4,4"/>
<!-- Node1 -->
<g id="node1" class="node">
<title>Node1</title>
<g id="a_node1"><a xlink:title="Returns a string that represents the current object.">
<polygon fill="#bfbfbf" stroke="black" points="0,-220.5 0,-250.5 174,-250.5 174,-220.5 0,-220.5"/>
<text text-anchor="start" x="8" y="-238.5" font-family="Helvetica,sans-Serif" font-size="10.00">QuantConnect.Commands.Order</text>
<text text-anchor="middle" x="87" y="-227.5" font-family="Helvetica,sans-Serif" font-size="10.00">Command.ToString</text>
</a>
</g>
</g>
<!-- Node2 -->
<g id="node2" class="node">
<title>Node2</title>
<g id="a_node2"><a xlink:href="classQuantConnect_1_1Commands_1_1BaseCommand.html#a895549f6a86a5437e6f4fda97c0206b7" target="_top" xlink:title="Creats symbol using symbol properties.">
<polygon fill="white" stroke="black" points="210,-245.5 210,-275.5 381,-275.5 381,-245.5 210,-245.5"/>
<text text-anchor="start" x="218" y="-263.5" font-family="Helvetica,sans-Serif" font-size="10.00">QuantConnect.Commands.Base</text>
<text text-anchor="middle" x="295.5" y="-252.5" font-family="Helvetica,sans-Serif" font-size="10.00">Command.GetSymbol</text>
</a>
</g>
</g>
<!-- Node1&#45;&gt;Node2 -->
<g id="edge1" class="edge">
<title>Node1&#45;&gt;Node2</title>
<path fill="none" stroke="midnightblue" d="M174.08,-245.92C182.59,-246.95 191.26,-248 199.85,-249.04"/>
<polygon fill="midnightblue" stroke="midnightblue" points="199.54,-252.53 209.89,-250.26 200.38,-245.58 199.54,-252.53"/>
</g>
<!-- Node21 -->
<g id="node21" class="node">
<title>Node21</title>
<g id="a_node21"><a xlink:href="classQuantConnect_1_1Orders_1_1SubmitOrderRequest.html#a1abfd008d3da93a8d7b92d3c490e3769" target="_top" xlink:title="Returns a string that represents the current object.">
<polygon fill="white" stroke="black" points="216.5,-196.5 216.5,-226.5 374.5,-226.5 374.5,-196.5 216.5,-196.5"/>
<text text-anchor="start" x="224.5" y="-214.5" font-family="Helvetica,sans-Serif" font-size="10.00">QuantConnect.Orders.Submit</text>
<text text-anchor="middle" x="295.5" y="-203.5" font-family="Helvetica,sans-Serif" font-size="10.00">OrderRequest.ToString</text>
</a>
</g>
</g>
<!-- Node1&#45;&gt;Node21 -->
<g id="edge22" class="edge">
<title>Node1&#45;&gt;Node21</title>
<path fill="none" stroke="midnightblue" d="M174.08,-225.5C184.73,-224.26 195.63,-222.99 206.31,-221.75"/>
<polygon fill="midnightblue" stroke="midnightblue" points="206.94,-225.2 216.47,-220.57 206.13,-218.25 206.94,-225.2"/>
</g>
<!-- Node3 -->
<g id="node3" class="node">
<title>Node3</title>
<g id="a_node3"><a xlink:href="classQuantConnect_1_1Symbol.html#a350b9a625cf7bad95da82894be3cd0a8" target="_top" xlink:title="Provides a convenience method for creating a Symbol for most security types. This method currently do...">
<polygon fill="white" stroke="black" points="424,-251 424,-270 585,-270 585,-251 424,-251"/>
<text text-anchor="middle" x="504.5" y="-258" font-family="Helvetica,sans-Serif" font-size="10.00">QuantConnect.Symbol.Create</text>
</a>
</g>
</g>
<!-- Node2&#45;&gt;Node3 -->
<g id="edge2" class="edge">
<title>Node2&#45;&gt;Node3</title>
<path fill="none" stroke="midnightblue" d="M381.29,-260.5C391.95,-260.5 402.89,-260.5 413.62,-260.5"/>
<polygon fill="midnightblue" stroke="midnightblue" points="413.84,-264 423.84,-260.5 413.84,-257 413.84,-264"/>
</g>
<!-- Node4 -->
<g id="node4" class="node">
<title>Node4</title>
<g id="a_node4"><a xlink:href="classQuantConnect_1_1Symbol.html#a7518a1932d1babbff128f2ba9666a78b" target="_top" xlink:title="Provides a convenience method for creating an option Symbol.">
<polygon fill="white" stroke="black" points="637.5,-431.5 637.5,-461.5 798.5,-461.5 798.5,-431.5 637.5,-431.5"/>
<text text-anchor="start" x="645.5" y="-449.5" font-family="Helvetica,sans-Serif" font-size="10.00">QuantConnect.Symbol.Create</text>
<text text-anchor="middle" x="718" y="-438.5" font-family="Helvetica,sans-Serif" font-size="10.00">Option</text>
</a>
</g>
</g>
<!-- Node3&#45;&gt;Node4 -->
<g id="edge3" class="edge">
<title>Node3&#45;&gt;Node4</title>
<path fill="none" stroke="midnightblue" d="M510.43,-270.14C524.77,-297.27 569.22,-374.97 628,-416.5 633.86,-420.64 640.33,-424.24 647.04,-427.37"/>
<polygon fill="midnightblue" stroke="midnightblue" points="645.72,-430.61 656.29,-431.35 648.48,-424.18 645.72,-430.61"/>
</g>
<!-- Node5 -->
<g id="node5" class="node">
<title>Node5</title>
<g id="a_node5"><a xlink:href="classQuantConnect_1_1SecurityIdentifier.html#a0c21d7880c9fdd260883d11ea0c99a00" target="_top" xlink:title="Helper overload that will search the mapfiles to resolve the first date. This implementation uses the...">
<polygon fill="white" stroke="black" points="844,-464.5 844,-494.5 1018,-494.5 1018,-464.5 844,-464.5"/>
<text text-anchor="start" x="852" y="-482.5" font-family="Helvetica,sans-Serif" font-size="10.00">QuantConnect.SecurityIdentifier.</text>
<text text-anchor="middle" x="931" y="-471.5" font-family="Helvetica,sans-Serif" font-size="10.00">GenerateEquity</text>
</a>
</g>
</g>
<!-- Node3&#45;&gt;Node5 -->
<g id="edge16" class="edge">
<title>Node3&#45;&gt;Node5</title>
<path fill="none" stroke="midnightblue" d="M507.68,-270.38C515.99,-305.35 549.27,-423.7 628,-470.5 696.91,-511.46 791.17,-506.72 855.96,-496.25"/>
<polygon fill="midnightblue" stroke="midnightblue" points="856.82,-499.65 866.09,-494.53 855.65,-492.75 856.82,-499.65"/>
</g>
<!-- Node6 -->
<g id="node6" class="node">
<title>Node6</title>
<g id="a_node6"><a xlink:href="classQuantConnect_1_1Symbol.html#a59158f74116be3dad0ea0f3f3f134416" target="_top" xlink:title="Initializes a new instance of the Symbol class">
<polygon fill="white" stroke="black" points="848.5,-415 848.5,-434 1013.5,-434 1013.5,-415 848.5,-415"/>
<text text-anchor="middle" x="931" y="-422" font-family="Helvetica,sans-Serif" font-size="10.00">QuantConnect.Symbol.Symbol</text>
</a>
</g>
</g>
<!-- Node3&#45;&gt;Node6 -->
<g id="edge21" class="edge">
<title>Node3&#45;&gt;Node6</title>
<path fill="none" stroke="midnightblue" d="M511.82,-270.19C527.93,-293.97 573.15,-355.27 628,-382.5 663.89,-400.32 762.93,-411.75 837.89,-418.12"/>
<polygon fill="midnightblue" stroke="midnightblue" points="838.05,-421.64 848.3,-418.98 838.63,-414.66 838.05,-421.64"/>
</g>
<!-- Node12 -->
<g id="node12" class="node">
<title>Node12</title>
<g id="a_node12"><a xlink:href="classQuantConnect_1_1SecurityIdentifier.html#a02ca750115844561c001c2346fbafc00" target="_top" xlink:title="Generates a new SecurityIdentifier for a custom security with the option of providing the first date">
<polygon fill="white" stroke="black" points="631,-343.5 631,-373.5 805,-373.5 805,-343.5 631,-343.5"/>
<text text-anchor="start" x="639" y="-361.5" font-family="Helvetica,sans-Serif" font-size="10.00">QuantConnect.SecurityIdentifier.</text>
<text text-anchor="middle" x="718" y="-350.5" font-family="Helvetica,sans-Serif" font-size="10.00">GenerateBase</text>
</a>
</g>
</g>
<!-- Node3&#45;&gt;Node12 -->
<g id="edge11" class="edge">
<title>Node3&#45;&gt;Node12</title>
<path fill="none" stroke="midnightblue" d="M518.83,-270.06C540.68,-285.35 585.92,-315.43 628,-333.5 633.48,-335.85 639.24,-338.05 645.09,-340.09"/>
<polygon fill="midnightblue" stroke="midnightblue" points="644.39,-343.54 654.99,-343.36 646.59,-336.9 644.39,-343.54"/>
</g>
<!-- Node14 -->
<g id="node14" class="node">
<title>Node14</title>
<g id="a_node14"><a xlink:href="classQuantConnect_1_1SecurityIdentifier.html#a53953b18d814c5445e4ecdcb3b555080" target="_top" xlink:title="Generates a new SecurityIdentifier for a CFD security">
<polygon fill="white" stroke="black" points="631,-294.5 631,-324.5 805,-324.5 805,-294.5 631,-294.5"/>
<text text-anchor="start" x="639" y="-312.5" font-family="Helvetica,sans-Serif" font-size="10.00">QuantConnect.SecurityIdentifier.</text>
<text text-anchor="middle" x="718" y="-301.5" font-family="Helvetica,sans-Serif" font-size="10.00">GenerateCfd</text>
</a>
</g>
</g>
<!-- Node3&#45;&gt;Node14 -->
<g id="edge13" class="edge">
<title>Node3&#45;&gt;Node14</title>
<path fill="none" stroke="midnightblue" d="M546.53,-270.01C573.64,-276.29 609.96,-284.7 642.12,-292.15"/>
<polygon fill="midnightblue" stroke="midnightblue" points="641.42,-295.58 651.95,-294.43 643,-288.76 641.42,-295.58"/>
</g>
<!-- Node15 -->
<g id="node15" class="node">
<title>Node15</title>
<g id="a_node15"><a xlink:href="classQuantConnect_1_1SecurityIdentifier.html#a5889a95a36ce927dd0a109cbfbcbe663" target="_top" xlink:title="Generates a new SecurityIdentifier for a Crypto pair">
<polygon fill="white" stroke="black" points="631,-245.5 631,-275.5 805,-275.5 805,-245.5 631,-245.5"/>
<text text-anchor="start" x="639" y="-263.5" font-family="Helvetica,sans-Serif" font-size="10.00">QuantConnect.SecurityIdentifier.</text>
<text text-anchor="middle" x="718" y="-252.5" font-family="Helvetica,sans-Serif" font-size="10.00">GenerateCrypto</text>
</a>
</g>
</g>
<!-- Node3&#45;&gt;Node15 -->
<g id="edge14" class="edge">
<title>Node3&#45;&gt;Node15</title>
<path fill="none" stroke="midnightblue" d="M585.16,-260.5C596.66,-260.5 608.6,-260.5 620.39,-260.5"/>
<polygon fill="midnightblue" stroke="midnightblue" points="620.7,-264 630.7,-260.5 620.7,-257 620.7,-264"/>
</g>
<!-- Node16 -->
<g id="node16" class="node">
<title>Node16</title>
<g id="a_node16"><a xlink:href="classQuantConnect_1_1SecurityIdentifier.html#ac665665a16d5449872fed3427b95a260" target="_top" xlink:title="Generates a new SecurityIdentifier for a CryptoFuture pair">
<polygon fill="white" stroke="black" points="631,-196.5 631,-226.5 805,-226.5 805,-196.5 631,-196.5"/>
<text text-anchor="start" x="639" y="-214.5" font-family="Helvetica,sans-Serif" font-size="10.00">QuantConnect.SecurityIdentifier.</text>
<text text-anchor="middle" x="718" y="-203.5" font-family="Helvetica,sans-Serif" font-size="10.00">GenerateCryptoFuture</text>
</a>
</g>
</g>
<!-- Node3&#45;&gt;Node16 -->
<g id="edge15" class="edge">
<title>Node3&#45;&gt;Node16</title>
<path fill="none" stroke="midnightblue" d="M546.53,-250.99C573.64,-244.71 609.96,-236.3 642.12,-228.85"/>
<polygon fill="midnightblue" stroke="midnightblue" points="643,-232.24 651.95,-226.57 641.42,-225.42 643,-232.24"/>
</g>
<!-- Node17 -->
<g id="node17" class="node">
<title>Node17</title>
<g id="a_node17"><a xlink:href="classQuantConnect_1_1SecurityIdentifier.html#a9cf0d3b208a5171e6112516ce441f18d" target="_top" xlink:title="Generates a new SecurityIdentifier for a forex pair">
<polygon fill="white" stroke="black" points="631,-147.5 631,-177.5 805,-177.5 805,-147.5 631,-147.5"/>
<text text-anchor="start" x="639" y="-165.5" font-family="Helvetica,sans-Serif" font-size="10.00">QuantConnect.SecurityIdentifier.</text>
<text text-anchor="middle" x="718" y="-154.5" font-family="Helvetica,sans-Serif" font-size="10.00">GenerateForex</text>
</a>
</g>
</g>
<!-- Node3&#45;&gt;Node17 -->
<g id="edge17" class="edge">
<title>Node3&#45;&gt;Node17</title>
<path fill="none" stroke="midnightblue" d="M559.21,-250.89C570.68,-247.26 582.26,-242.3 592,-235.5 614.16,-220.04 605.7,-201.76 628,-186.5 630.27,-184.94 632.64,-183.49 635.09,-182.13"/>
<polygon fill="midnightblue" stroke="midnightblue" points="636.81,-185.18 644.22,-177.6 633.7,-178.91 636.81,-185.18"/>
</g>
<!-- Node18 -->
<g id="node18" class="node">
<title>Node18</title>
<g id="a_node18"><a xlink:href="classQuantConnect_1_1SecurityIdentifier.html#ad50a891c97cb0c084a9e2aa43607ed66" target="_top" xlink:title="Generates a new SecurityIdentifier for a future">
<polygon fill="white" stroke="black" points="631,-98.5 631,-128.5 805,-128.5 805,-98.5 631,-98.5"/>
<text text-anchor="start" x="639" y="-116.5" font-family="Helvetica,sans-Serif" font-size="10.00">QuantConnect.SecurityIdentifier.</text>
<text text-anchor="middle" x="718" y="-105.5" font-family="Helvetica,sans-Serif" font-size="10.00">GenerateFuture</text>
</a>
</g>
</g>
<!-- Node3&#45;&gt;Node18 -->
<g id="edge18" class="edge">
<title>Node3&#45;&gt;Node18</title>
<path fill="none" stroke="midnightblue" d="M566.13,-250.91C575.61,-247.29 584.68,-242.32 592,-235.5 625.95,-203.87 593.77,-168.82 628,-137.5 629.3,-136.31 630.65,-135.18 632.05,-134.11"/>
<polygon fill="midnightblue" stroke="midnightblue" points="634.08,-136.96 640.5,-128.53 630.23,-131.11 634.08,-136.96"/>
</g>
<!-- Node19 -->
<g id="node19" class="node">
<title>Node19</title>
<g id="a_node19"><a xlink:href="classQuantConnect_1_1SecurityIdentifier.html#ade05a8e57b041ab484cf585be8d05699" target="_top" xlink:title="Generates a new SecurityIdentifier for a INDEX security">
<polygon fill="white" stroke="black" points="631,-49.5 631,-79.5 805,-79.5 805,-49.5 631,-49.5"/>
<text text-anchor="start" x="639" y="-67.5" font-family="Helvetica,sans-Serif" font-size="10.00">QuantConnect.SecurityIdentifier.</text>
<text text-anchor="middle" x="718" y="-56.5" font-family="Helvetica,sans-Serif" font-size="10.00">GenerateIndex</text>
</a>
</g>
</g>
<!-- Node3&#45;&gt;Node19 -->
<g id="edge19" class="edge">
<title>Node3&#45;&gt;Node19</title>
<path fill="none" stroke="midnightblue" d="M568.55,-250.88C577.3,-247.24 585.51,-242.27 592,-235.5 638.57,-186.97 580.99,-136.61 628,-88.5 628.94,-87.53 629.92,-86.61 630.93,-85.71"/>
<polygon fill="midnightblue" stroke="midnightblue" points="633.28,-88.33 639.22,-79.56 629.11,-82.71 633.28,-88.33"/>
</g>
<!-- Node20 -->
<g id="node20" class="node">
<title>Node20</title>
<g id="a_node20"><a xlink:href="classQuantConnect_1_1Messages_1_1Symbol.html#ab801bef52a308b8ba7ba6d42e1ef1988" target="_top" xlink:title="Returns a string message saying the given security type has not been implemented yet">
<polygon fill="white" stroke="black" points="628,-0.5 628,-30.5 808,-30.5 808,-0.5 628,-0.5"/>
<text text-anchor="start" x="636" y="-18.5" font-family="Helvetica,sans-Serif" font-size="10.00">QuantConnect.Messages.Symbol.</text>
<text text-anchor="middle" x="718" y="-7.5" font-family="Helvetica,sans-Serif" font-size="10.00">SecurityTypeNotImplementedYet</text>
</a>
</g>
</g>
<!-- Node3&#45;&gt;Node20 -->
<g id="edge20" class="edge">
<title>Node3&#45;&gt;Node20</title>
<path fill="none" stroke="midnightblue" d="M569.77,-250.83C578.15,-247.18 585.92,-242.22 592,-235.5 651.43,-169.83 567.98,-104.63 628,-39.5 628.79,-38.65 629.6,-37.82 630.44,-37.03"/>
<polygon fill="midnightblue" stroke="midnightblue" points="632.9,-39.54 638.59,-30.6 628.57,-34.04 632.9,-39.54"/>
</g>
<!-- Node4&#45;&gt;Node5 -->
<g id="edge4" class="edge">
<title>Node4&#45;&gt;Node5</title>
<path fill="none" stroke="midnightblue" d="M798.77,-458.98C810.14,-460.75 821.94,-462.6 833.59,-464.42"/>
<polygon fill="midnightblue" stroke="midnightblue" points="833.35,-467.93 843.77,-466.01 834.43,-461.01 833.35,-467.93"/>
</g>
<!-- Node4&#45;&gt;Node6 -->
<g id="edge5" class="edge">
<title>Node4&#45;&gt;Node6</title>
<path fill="none" stroke="midnightblue" d="M798.77,-438.18C811.7,-436.83 825.17,-435.43 838.35,-434.06"/>
<polygon fill="midnightblue" stroke="midnightblue" points="838.78,-437.53 848.36,-433.01 838.05,-430.57 838.78,-437.53"/>
</g>
<!-- Node7 -->
<g id="node7" class="node">
<title>Node7</title>
<g id="a_node7"><a xlink:href="classQuantConnect_1_1Symbol.html#a59b0795fa21f46c306deb5576fa03bb9" target="_top" xlink:title="Centralized helper method to resolve alias for a symbol">
<polygon fill="white" stroke="black" points="1054,-415 1054,-434 1224,-434 1224,-415 1054,-415"/>
<text text-anchor="middle" x="1139" y="-422" font-family="Helvetica,sans-Serif" font-size="10.00">QuantConnect.Symbol.GetAlias</text>
</a>
</g>
</g>
<!-- Node6&#45;&gt;Node7 -->
<g id="edge6" class="edge">
<title>Node6&#45;&gt;Node7</title>
<path fill="none" stroke="midnightblue" d="M1013.71,-424.5C1023.47,-424.5 1033.49,-424.5 1043.4,-424.5"/>
<polygon fill="midnightblue" stroke="midnightblue" points="1043.68,-428 1053.68,-424.5 1043.68,-421 1043.68,-428"/>
</g>
<!-- Node8 -->
<g id="node8" class="node">
<title>Node8</title>
<g id="a_node8"><a xlink:href="classQuantConnect_1_1SymbolRepresentation.html#ad43ac907f6c19083821f58f21c6de017" target="_top" xlink:title="Returns future symbol ticker from underlying and expiration date. Function can generate tickers of tw...">
<polygon fill="white" stroke="black" points="1260,-437.5 1260,-467.5 1463,-467.5 1463,-437.5 1260,-437.5"/>
<text text-anchor="start" x="1268" y="-455.5" font-family="Helvetica,sans-Serif" font-size="10.00">QuantConnect.SymbolRepresentation.</text>
<text text-anchor="middle" x="1361.5" y="-444.5" font-family="Helvetica,sans-Serif" font-size="10.00">GenerateFutureTicker</text>
</a>
</g>
</g>
<!-- Node7&#45;&gt;Node8 -->
<g id="edge7" class="edge">
<title>Node7&#45;&gt;Node8</title>
<path fill="none" stroke="midnightblue" d="M1214.96,-434.02C1226.27,-435.46 1238.14,-436.96 1250.01,-438.47"/>
<polygon fill="midnightblue" stroke="midnightblue" points="1249.62,-441.95 1259.98,-439.74 1250.5,-435 1249.62,-441.95"/>
</g>
<!-- Node10 -->
<g id="node10" class="node">
<title>Node10</title>
<g id="a_node10"><a xlink:href="classQuantConnect_1_1SymbolRepresentation.html#ab133044f5cf8c16e700190a2202b215e" target="_top" xlink:title="Returns option symbol ticker in accordance with OSI symbology More information can be found at http:/...">
<polygon fill="white" stroke="black" points="1260,-385.5 1260,-415.5 1463,-415.5 1463,-385.5 1260,-385.5"/>
<text text-anchor="start" x="1268" y="-403.5" font-family="Helvetica,sans-Serif" font-size="10.00">QuantConnect.SymbolRepresentation.</text>
<text text-anchor="middle" x="1361.5" y="-392.5" font-family="Helvetica,sans-Serif" font-size="10.00">GenerateOptionTickerOSI</text>
</a>
</g>
</g>
<!-- Node7&#45;&gt;Node10 -->
<g id="edge9" class="edge">
<title>Node7&#45;&gt;Node10</title>
<path fill="none" stroke="midnightblue" d="M1224.31,-415.32C1232.69,-414.41 1241.3,-413.47 1249.9,-412.54"/>
<polygon fill="midnightblue" stroke="midnightblue" points="1250.43,-416 1259.99,-411.44 1249.67,-409.04 1250.43,-416"/>
</g>
<!-- Node9 -->
<g id="node9" class="node">
<title>Node9</title>
<g id="a_node9"><a xlink:href="classQuantConnect_1_1Securities_1_1Future_1_1FuturesExpiryUtilityFunctions.html#a4ccb1e2f2fe40ff09785a74a02f26df1" target="_top" xlink:title="Gets the number of months between the contract month and the expiry date.">
<polygon fill="white" stroke="black" points="1499,-435 1499,-476 1765,-476 1765,-435 1499,-435"/>
<text text-anchor="start" x="1507" y="-464" font-family="Helvetica,sans-Serif" font-size="10.00">QuantConnect.Securities.</text>
<text text-anchor="start" x="1507" y="-453" font-family="Helvetica,sans-Serif" font-size="10.00">Future.FuturesExpiryUtilityFunctions.</text>
<text text-anchor="middle" x="1632" y="-442" font-family="Helvetica,sans-Serif" font-size="10.00">GetDeltaBetweenContractMonthAndContractExpiry</text>
</a>
</g>
</g>
<!-- Node8&#45;&gt;Node9 -->
<g id="edge8" class="edge">
<title>Node8&#45;&gt;Node9</title>
<path fill="none" stroke="midnightblue" d="M1463.24,-453.63C1471.59,-453.72 1480.11,-453.81 1488.68,-453.91"/>
<polygon fill="midnightblue" stroke="midnightblue" points="1488.72,-457.41 1498.76,-454.02 1488.8,-450.41 1488.72,-457.41"/>
</g>
<!-- Node11 -->
<g id="node11" class="node">
<title>Node11</title>
<g id="a_node11"><a xlink:href="classQuantConnect_1_1Messages_1_1SymbolRepresentation.html#a2c514157d8055cfa271ea3a7ca1ccde7" target="_top" xlink:title="Returns a string message saying an unexpected security type was received by the given method name">
<polygon fill="white" stroke="black" points="1536,-375 1536,-416 1728,-416 1728,-375 1536,-375"/>
<text text-anchor="start" x="1544" y="-404" font-family="Helvetica,sans-Serif" font-size="10.00">QuantConnect.Messages.Symbol</text>
<text text-anchor="start" x="1544" y="-393" font-family="Helvetica,sans-Serif" font-size="10.00">Representation.UnexpectedSecurity</text>
<text text-anchor="middle" x="1632" y="-382" font-family="Helvetica,sans-Serif" font-size="10.00">TypeForMethod</text>
</a>
</g>
</g>
<!-- Node10&#45;&gt;Node11 -->
<g id="edge10" class="edge">
<title>Node10&#45;&gt;Node11</title>
<path fill="none" stroke="midnightblue" d="M1463.24,-398.62C1483.7,-398.24 1505.27,-397.84 1525.88,-397.46"/>
<polygon fill="midnightblue" stroke="midnightblue" points="1525.98,-400.96 1535.91,-397.27 1525.85,-393.96 1525.98,-400.96"/>
</g>
<!-- Node13 -->
<g id="node13" class="node">
<title>Node13</title>
<g id="a_node13"><a xlink:href="classQuantConnect_1_1SecurityIdentifier.html#a19e1f9da410608020d74ed9e7d283575" target="_top" xlink:title="Generates the Symbol property for QuantConnect.SecurityType.Base security identifiers">
<polygon fill="white" stroke="black" points="844,-343.5 844,-373.5 1018,-373.5 1018,-343.5 844,-343.5"/>
<text text-anchor="start" x="852" y="-361.5" font-family="Helvetica,sans-Serif" font-size="10.00">QuantConnect.SecurityIdentifier.</text>
<text text-anchor="middle" x="931" y="-350.5" font-family="Helvetica,sans-Serif" font-size="10.00">GenerateBaseSymbol</text>
</a>
</g>
</g>
<!-- Node12&#45;&gt;Node13 -->
<g id="edge12" class="edge">
<title>Node12&#45;&gt;Node13</title>
<path fill="none" stroke="midnightblue" d="M805.13,-358.5C814.5,-358.5 824.08,-358.5 833.57,-358.5"/>
<polygon fill="midnightblue" stroke="midnightblue" points="833.81,-362 843.81,-358.5 833.81,-355 833.81,-362"/>
</g>
<!-- Node22 -->
<g id="node22" class="node">
<title>Node22</title>
<g id="a_node22"><a xlink:href="classQuantConnect_1_1Messages_1_1SubmitOrderRequest.html#ab1af5459719a64d5b9f31f08e472eedb" target="_top" xlink:title="Parses a given SubmitOrderRequest object to a string message">
<polygon fill="white" stroke="black" points="417,-196.5 417,-226.5 592,-226.5 592,-196.5 417,-196.5"/>
<text text-anchor="start" x="425" y="-214.5" font-family="Helvetica,sans-Serif" font-size="10.00">QuantConnect.Messages.Submit</text>
<text text-anchor="middle" x="504.5" y="-203.5" font-family="Helvetica,sans-Serif" font-size="10.00">OrderRequest.ToString</text>
</a>
</g>
</g>
<!-- Node21&#45;&gt;Node22 -->
<g id="edge23" class="edge">
<title>Node21&#45;&gt;Node22</title>
<path fill="none" stroke="midnightblue" d="M374.76,-211.5C385.17,-211.5 395.94,-211.5 406.62,-211.5"/>
<polygon fill="midnightblue" stroke="midnightblue" points="406.82,-215 416.82,-211.5 406.82,-208 406.82,-215"/>
</g>
</g>
</svg>
