<?xml version="1.0" encoding="UTF-8" standalone="no"?>
<!DOCTYPE svg PUBLIC "-//W3C//DTD SVG 1.1//EN"
 "http://www.w3.org/Graphics/SVG/1.1/DTD/svg11.dtd">
<!-- Generated by graphviz version 2.43.0 (0)
 -->
<!-- Title: QuantConnect.Python.BrokerageModelPythonWrapper Pages: 1 -->
<svg width="250pt" height="106pt"
 viewBox="0.00 0.00 249.50 106.00" xmlns="http://www.w3.org/2000/svg" xmlns:xlink="http://www.w3.org/1999/xlink">
<g id="graph0" class="graph" transform="scale(1 1) rotate(0) translate(4 102)">
<title>QuantConnect.Python.BrokerageModelPythonWrapper</title>
<polygon fill="white" stroke="transparent" points="-4,4 -4,-102 245.5,-102 245.5,4 -4,4"/>
<!-- Node1 -->
<g id="node1" class="node">
<title>Node1</title>
<g id="a_node1"><a xlink:title="Provides an implementation of IBrokerageModel that wraps a PyObject object">
<polygon fill="#bfbfbf" stroke="black" points="39.5,-0.5 39.5,-30.5 214.5,-30.5 214.5,-0.5 39.5,-0.5"/>
<text text-anchor="start" x="47.5" y="-18.5" font-family="Helvetica,sans-Serif" font-size="10.00">QuantConnect.Python.Brokerage</text>
<text text-anchor="middle" x="127" y="-7.5" font-family="Helvetica,sans-Serif" font-size="10.00">ModelPythonWrapper</text>
</a>
</g>
</g>
<!-- Node2 -->
<g id="node2" class="node">
<title>Node2</title>
<g id="a_node2"><a xlink:href="classQuantConnect_1_1Python_1_1BasePythonWrapper.html" target="_top" xlink:title=" ">
<polygon fill="white" stroke="black" points="0,-67.5 0,-97.5 124,-97.5 124,-67.5 0,-67.5"/>
<text text-anchor="start" x="8" y="-85.5" font-family="Helvetica,sans-Serif" font-size="10.00">BasePythonWrapper&lt;</text>
<text text-anchor="middle" x="62" y="-74.5" font-family="Helvetica,sans-Serif" font-size="10.00"> IBrokerageModel &gt;</text>
</a>
</g>
</g>
<!-- Node2&#45;&gt;Node1 -->
<g id="edge1" class="edge">
<title>Node2&#45;&gt;Node1</title>
<path fill="none" stroke="midnightblue" d="M83.19,-60.31C92.94,-50.56 104.24,-39.26 112.92,-30.58"/>
<polygon fill="midnightblue" stroke="midnightblue" points="80.7,-57.85 76.1,-67.4 85.65,-62.8 80.7,-57.85"/>
</g>
<!-- Node3 -->
<g id="node3" class="node">
<title>Node3</title>
<g id="a_node3"><a xlink:href="interfaceQuantConnect_1_1Brokerages_1_1IBrokerageModel.html" target="_top" xlink:title="Models brokerage transactions, fees, and order">
<polygon fill="white" stroke="black" points="142.5,-73 142.5,-92 241.5,-92 241.5,-73 142.5,-73"/>
<text text-anchor="middle" x="192" y="-80" font-family="Helvetica,sans-Serif" font-size="10.00">IBrokerageModel</text>
</a>
</g>
</g>
<!-- Node3&#45;&gt;Node1 -->
<g id="edge2" class="edge">
<title>Node3&#45;&gt;Node1</title>
<path fill="none" stroke="midnightblue" d="M176.12,-65.62C165.41,-54.91 151.4,-40.9 141.09,-30.59"/>
<polygon fill="midnightblue" stroke="midnightblue" points="173.69,-68.14 183.23,-72.73 178.64,-63.19 173.69,-68.14"/>
</g>
</g>
</svg>
