<?xml version="1.0" encoding="UTF-8" standalone="no"?>
<!DOCTYPE svg PUBLIC "-//W3C//DTD SVG 1.1//EN"
 "http://www.w3.org/Graphics/SVG/1.1/DTD/svg11.dtd">
<!-- Generated by graphviz version 2.43.0 (0)
 -->
<!-- Title: QuantConnect.Algorithm.Framework.Portfolio.SignalExports.Collective2SignalExport.ConvertPercentageToQuantity Pages: 1 -->
<svg width="468pt" height="88pt"
 viewBox="0.00 0.00 468.00 88.00" xmlns="http://www.w3.org/2000/svg" xmlns:xlink="http://www.w3.org/1999/xlink">
<g id="graph0" class="graph" transform="scale(1 1) rotate(0) translate(4 84)">
<title>QuantConnect.Algorithm.Framework.Portfolio.SignalExports.Collective2SignalExport.ConvertPercentageToQuantity</title>
<polygon fill="white" stroke="transparent" points="-4,4 -4,-84 464,-84 464,4 -4,4"/>
<!-- Node1 -->
<g id="node1" class="node">
<title>Node1</title>
<g id="a_node1"><a xlink:title="Converts a given percentage of a position into the number of shares of it">
<polygon fill="#bfbfbf" stroke="black" points="0,-19 0,-60 227,-60 227,-19 0,-19"/>
<text text-anchor="start" x="8" y="-48" font-family="Helvetica,sans-Serif" font-size="10.00">QuantConnect.Algorithm.Framework.</text>
<text text-anchor="start" x="8" y="-37" font-family="Helvetica,sans-Serif" font-size="10.00">Portfolio.SignalExports.Collective2</text>
<text text-anchor="middle" x="113.5" y="-26" font-family="Helvetica,sans-Serif" font-size="10.00">SignalExport.ConvertPercentageToQuantity</text>
</a>
</g>
</g>
<!-- Node2 -->
<g id="node2" class="node">
<title>Node2</title>
<g id="a_node2"><a xlink:href="interfaceQuantConnect_1_1Interfaces_1_1IAlgorithm.html#a63cc959667fa0f4dfd13048a9b7dac94" target="_top" xlink:title="Send debug message">
<polygon fill="white" stroke="black" points="291.5,-49.5 291.5,-79.5 431.5,-79.5 431.5,-49.5 291.5,-49.5"/>
<text text-anchor="start" x="299.5" y="-67.5" font-family="Helvetica,sans-Serif" font-size="10.00">QuantConnect.Interfaces.</text>
<text text-anchor="middle" x="361.5" y="-56.5" font-family="Helvetica,sans-Serif" font-size="10.00">IAlgorithm.Debug</text>
</a>
</g>
</g>
<!-- Node1&#45;&gt;Node2 -->
<g id="edge1" class="edge">
<title>Node1&#45;&gt;Node2</title>
<path fill="none" stroke="midnightblue" d="M227.06,-50.94C245.36,-52.8 263.96,-54.69 281.24,-56.45"/>
<polygon fill="midnightblue" stroke="midnightblue" points="280.95,-59.93 291.25,-57.46 281.66,-52.97 280.95,-59.93"/>
</g>
<!-- Node3 -->
<g id="node3" class="node">
<title>Node3</title>
<g id="a_node3"><a xlink:href="classQuantConnect_1_1Algorithm_1_1Framework_1_1Portfolio_1_1PortfolioTarget.html#ae4839947af9044a228ce8bcd661c5d16" target="_top" xlink:title="Creates a new target for the specified percent">
<polygon fill="white" stroke="black" points="263,-0.5 263,-30.5 460,-30.5 460,-0.5 263,-0.5"/>
<text text-anchor="start" x="271" y="-18.5" font-family="Helvetica,sans-Serif" font-size="10.00">QuantConnect.Algorithm.Framework.</text>
<text text-anchor="middle" x="361.5" y="-7.5" font-family="Helvetica,sans-Serif" font-size="10.00">Portfolio.PortfolioTarget.Percent</text>
</a>
</g>
</g>
<!-- Node1&#45;&gt;Node3 -->
<g id="edge2" class="edge">
<title>Node1&#45;&gt;Node3</title>
<path fill="none" stroke="midnightblue" d="M227.06,-28.52C235.52,-27.69 244.04,-26.86 252.46,-26.04"/>
<polygon fill="midnightblue" stroke="midnightblue" points="253.07,-29.5 262.68,-25.04 252.39,-22.53 253.07,-29.5"/>
</g>
</g>
</svg>
