<?xml version="1.0" encoding="UTF-8" standalone="no"?>
<!DOCTYPE svg PUBLIC "-//W3C//DTD SVG 1.1//EN"
 "http://www.w3.org/Graphics/SVG/1.1/DTD/svg11.dtd">
<!-- Generated by graphviz version 2.43.0 (0)
 -->
<!-- Title: QuantConnect.Algorithm.Framework.Execution.VolumeWeightedAveragePriceExecutionModel.SymbolData.SymbolData Pages: 1 -->
<svg width="1171pt" height="134pt"
 viewBox="0.00 0.00 1171.00 134.00" xmlns="http://www.w3.org/2000/svg" xmlns:xlink="http://www.w3.org/1999/xlink">
<g id="graph0" class="graph" transform="scale(1 1) rotate(0) translate(4 130)">
<title>QuantConnect.Algorithm.Framework.Execution.VolumeWeightedAveragePriceExecutionModel.SymbolData.SymbolData</title>
<polygon fill="white" stroke="transparent" points="-4,4 -4,-130 1167,-130 1167,4 -4,4"/>
<!-- Node1 -->
<g id="node1" class="node">
<title>Node1</title>
<g id="a_node1"><a xlink:title="Initialize a new instance of SymbolData">
<polygon fill="#bfbfbf" stroke="black" points="0,-41 0,-82 220,-82 220,-41 0,-41"/>
<text text-anchor="start" x="8" y="-70" font-family="Helvetica,sans-Serif" font-size="10.00">QuantConnect.Algorithm.Framework.</text>
<text text-anchor="start" x="8" y="-59" font-family="Helvetica,sans-Serif" font-size="10.00">Execution.VolumeWeightedAveragePrice</text>
<text text-anchor="middle" x="110" y="-48" font-family="Helvetica,sans-Serif" font-size="10.00">ExecutionModel.SymbolData.SymbolData</text>
</a>
</g>
</g>
<!-- Node2 -->
<g id="node2" class="node">
<title>Node2</title>
<g id="a_node2"><a xlink:href="classQuantConnect_1_1Algorithm_1_1QCAlgorithm.html#a46d89a30b7e0513cf7a4ac77f3ca3fe5" target="_top" xlink:title="Creates a new name for an indicator created with the convenience functions (SMA, EMA,...">
<polygon fill="white" stroke="black" points="256,-95.5 256,-125.5 461,-125.5 461,-95.5 256,-95.5"/>
<text text-anchor="start" x="264" y="-113.5" font-family="Helvetica,sans-Serif" font-size="10.00">QuantConnect.Algorithm.QCAlgorithm.</text>
<text text-anchor="middle" x="358.5" y="-102.5" font-family="Helvetica,sans-Serif" font-size="10.00">CreateIndicatorName</text>
</a>
</g>
</g>
<!-- Node1&#45;&gt;Node2 -->
<g id="edge1" class="edge">
<title>Node1&#45;&gt;Node2</title>
<path fill="none" stroke="midnightblue" d="M214.47,-82.07C233.68,-85.89 253.54,-89.84 272.14,-93.53"/>
<polygon fill="midnightblue" stroke="midnightblue" points="271.54,-96.98 282.03,-95.5 272.9,-90.11 271.54,-96.98"/>
</g>
<!-- Node3 -->
<g id="node3" class="node">
<title>Node3</title>
<g id="a_node3"><a xlink:href="classQuantConnect_1_1Algorithm_1_1QCAlgorithm.html#a918f318ce76cdc3ed9efad235ff7481e" target="_top" xlink:title="Creates and registers a new consolidator to receive automatic updates at the specified resolution as ...">
<polygon fill="white" stroke="black" points="256,-46.5 256,-76.5 461,-76.5 461,-46.5 256,-46.5"/>
<text text-anchor="start" x="264" y="-64.5" font-family="Helvetica,sans-Serif" font-size="10.00">QuantConnect.Algorithm.QCAlgorithm.</text>
<text text-anchor="middle" x="358.5" y="-53.5" font-family="Helvetica,sans-Serif" font-size="10.00">RegisterIndicator</text>
</a>
</g>
</g>
<!-- Node1&#45;&gt;Node3 -->
<g id="edge2" class="edge">
<title>Node1&#45;&gt;Node3</title>
<path fill="none" stroke="midnightblue" d="M220.19,-61.5C228.62,-61.5 237.13,-61.5 245.57,-61.5"/>
<polygon fill="midnightblue" stroke="midnightblue" points="245.82,-65 255.82,-61.5 245.82,-58 245.82,-65"/>
</g>
<!-- Node4 -->
<g id="node4" class="node">
<title>Node4</title>
<g id="a_node4"><a xlink:href="classQuantConnect_1_1Algorithm_1_1QCAlgorithm.html#ade17e71e20d320dc9a1efa3ddf8aa3cd" target="_top" xlink:title="Gets the default consolidator for the specified symbol and resolution">
<polygon fill="white" stroke="black" points="497,-24.5 497,-54.5 702,-54.5 702,-24.5 497,-24.5"/>
<text text-anchor="start" x="505" y="-42.5" font-family="Helvetica,sans-Serif" font-size="10.00">QuantConnect.Algorithm.QCAlgorithm.</text>
<text text-anchor="middle" x="599.5" y="-31.5" font-family="Helvetica,sans-Serif" font-size="10.00">ResolveConsolidator</text>
</a>
</g>
</g>
<!-- Node1&#45;&gt;Node4 -->
<g id="edge7" class="edge">
<title>Node1&#45;&gt;Node4</title>
<path fill="none" stroke="midnightblue" d="M220.02,-41.49C232.13,-39.85 244.3,-38.46 256,-37.5 346.8,-30.04 369.89,-36.84 461,-37.5 469.32,-37.56 477.93,-37.64 486.58,-37.74"/>
<polygon fill="midnightblue" stroke="midnightblue" points="486.72,-41.24 496.76,-37.85 486.8,-34.24 486.72,-41.24"/>
</g>
<!-- Node3&#45;&gt;Node4 -->
<g id="edge3" class="edge">
<title>Node3&#45;&gt;Node4</title>
<path fill="none" stroke="midnightblue" d="M461.2,-52.14C469.7,-51.36 478.31,-50.56 486.87,-49.78"/>
<polygon fill="midnightblue" stroke="midnightblue" points="487.25,-53.26 496.89,-48.85 486.61,-46.28 487.25,-53.26"/>
</g>
<!-- Node5 -->
<g id="node5" class="node">
<title>Node5</title>
<g id="a_node5"><a xlink:href="classQuantConnect_1_1Algorithm_1_1QCAlgorithm.html#a656b1f8da059abe31170845a61834a09" target="_top" xlink:title="Creates a new consolidator for the specified period, generating the requested output type.">
<polygon fill="white" stroke="black" points="751,-49.5 751,-79.5 956,-79.5 956,-49.5 751,-49.5"/>
<text text-anchor="start" x="759" y="-67.5" font-family="Helvetica,sans-Serif" font-size="10.00">QuantConnect.Algorithm.QCAlgorithm.</text>
<text text-anchor="middle" x="853.5" y="-56.5" font-family="Helvetica,sans-Serif" font-size="10.00">CreateConsolidator</text>
</a>
</g>
</g>
<!-- Node4&#45;&gt;Node5 -->
<g id="edge4" class="edge">
<title>Node4&#45;&gt;Node5</title>
<path fill="none" stroke="midnightblue" d="M702.27,-49.6C714.88,-50.85 727.83,-52.13 740.58,-53.4"/>
<polygon fill="midnightblue" stroke="midnightblue" points="740.46,-56.9 750.76,-54.41 741.15,-49.94 740.46,-56.9"/>
</g>
<!-- Node6 -->
<g id="node6" class="node">
<title>Node6</title>
<g id="a_node6"><a xlink:href="classQuantConnect_1_1Util_1_1LeanData.html#adf1799b921849e0643385e6794ec2471" target="_top" xlink:title="Get the TickType for common Lean data types. If not a Lean common data type, return a TickType of Tra...">
<polygon fill="white" stroke="black" points="738,-0.5 738,-30.5 969,-30.5 969,-0.5 738,-0.5"/>
<text text-anchor="start" x="746" y="-18.5" font-family="Helvetica,sans-Serif" font-size="10.00">QuantConnect.Util.LeanData.</text>
<text text-anchor="middle" x="853.5" y="-7.5" font-family="Helvetica,sans-Serif" font-size="10.00">GetCommonTickTypeForCommonDataTypes</text>
</a>
</g>
</g>
<!-- Node4&#45;&gt;Node6 -->
<g id="edge5" class="edge">
<title>Node4&#45;&gt;Node6</title>
<path fill="none" stroke="midnightblue" d="M702.27,-29.81C710.72,-29 719.31,-28.18 727.9,-27.37"/>
<polygon fill="midnightblue" stroke="midnightblue" points="728.34,-30.84 737.96,-26.41 727.67,-23.87 728.34,-30.84"/>
</g>
<!-- Node7 -->
<g id="node7" class="node">
<title>Node7</title>
<g id="a_node7"><a xlink:href="classQuantConnect_1_1Util_1_1LeanData.html#a24869ac4b029b3f2d468596baab6d72d" target="_top" xlink:title="Gets the tick type most commonly associated with the specified security type">
<polygon fill="white" stroke="black" points="1005,-0.5 1005,-30.5 1163,-30.5 1163,-0.5 1005,-0.5"/>
<text text-anchor="start" x="1013" y="-18.5" font-family="Helvetica,sans-Serif" font-size="10.00">QuantConnect.Util.LeanData.</text>
<text text-anchor="middle" x="1084" y="-7.5" font-family="Helvetica,sans-Serif" font-size="10.00">GetCommonTickType</text>
</a>
</g>
</g>
<!-- Node6&#45;&gt;Node7 -->
<g id="edge6" class="edge">
<title>Node6&#45;&gt;Node7</title>
<path fill="none" stroke="midnightblue" d="M969.08,-15.5C977.71,-15.5 986.34,-15.5 994.77,-15.5"/>
<polygon fill="midnightblue" stroke="midnightblue" points="994.93,-19 1004.93,-15.5 994.93,-12 994.93,-19"/>
</g>
</g>
</svg>
