<?xml version="1.0" encoding="UTF-8" standalone="no"?>
<!DOCTYPE svg PUBLIC "-//W3C//DTD SVG 1.1//EN"
 "http://www.w3.org/Graphics/SVG/1.1/DTD/svg11.dtd">
<!-- Generated by graphviz version 2.43.0 (0)
 -->
<!-- Title: QuantConnect.Lean.Engine.Storage.LocalObjectStore.GetFilePath Pages: 1 -->
<!--zoomable 300 -->
<svg id="main" version="1.1" xmlns="http://www.w3.org/2000/svg" xmlns:xlink="http://www.w3.org/1999/xlink" xml:space="preserve" onload="init(evt)">
<style type="text/css"><![CDATA[
.edge:hover path { stroke: red; }
.edge:hover polygon { stroke: red; fill: red; }
]]></style>
<script type="text/javascript"><![CDATA[
var edges = document.getElementsByTagName('g');
if (edges && edges.length) {
  for (var i=0;i<edges.length;i++) {
    if (edges[i].id.substr(0,4)=='edge') {
      edges[i].setAttribute('class','edge');
    }
  }
}
]]></script>
        <defs>
                <circle id="rim" cx="0" cy="0" r="7"/>
                <circle id="rim2" cx="0" cy="0" r="3.5"/>
                <g id="zoomPlus">
                        <use xlink:href="#rim" fill="#404040">
                                <set attributeName="fill" to="#808080" begin="zoomplus.mouseover" end="zoomplus.mouseout"/>
                        </use>
                        <path d="M-4,0h8M0,-4v8" fill="none" stroke="white" stroke-width="1.5" pointer-events="none"/>
                </g>
                <g id="zoomMin">
                        <use xlink:href="#rim" fill="#404040">
                                <set attributeName="fill" to="#808080" begin="zoomminus.mouseover" end="zoomminus.mouseout"/>
                        </use>
                        <path d="M-4,0h8" fill="none" stroke="white" stroke-width="1.5" pointer-events="none"/>
                </g>
                <g id="dirArrow">
                        <path fill="none" stroke="white" stroke-width="1.5" d="M0,-3.0v7 M-2.5,-0.5L0,-3.0L2.5,-0.5"/>
                </g>
               <g id="resetDef">
                       <use xlink:href="#rim2" fill="#404040">
                               <set attributeName="fill" to="#808080" begin="reset.mouseover" end="reset.mouseout"/>
                       </use>
               </g>
        </defs>

<script type="text/javascript">
var viewWidth = 1298;
var viewHeight = 300;
var sectionId = 'dynsection-13';
</script>
<script xlink:href="svgpan.js"/>
<svg id="graph" class="graph">
<g id="viewport">
<title>QuantConnect.Lean.Engine.Storage.LocalObjectStore.GetFilePath</title>
<polygon fill="white" stroke="transparent" points="-4,4 -4,-295.5 1294,-295.5 1294,4 -4,4"/>
<!-- Node1 -->
<g id="node1" class="node">
<title>Node1</title>
<g id="a_node1"><a xlink:title="Returns the file path for the specified path">
<polygon fill="#bfbfbf" stroke="black" points="0,-135 0,-165 198,-165 198,-135 0,-135"/>
<text text-anchor="start" x="8" y="-153" font-family="Helvetica,sans-Serif" font-size="10.00">QuantConnect.Lean.Engine.</text>
<text text-anchor="middle" x="99" y="-142" font-family="Helvetica,sans-Serif" font-size="10.00">Storage.LocalObjectStore.GetFilePath</text>
</a>
</g>
</g>
<!-- Node2 -->
<g id="node2" class="node">
<title>Node2</title>
<g id="a_node2"><a xlink:href="classQuantConnect_1_1Lean_1_1Engine_1_1Storage_1_1LocalObjectStore.html#a52e8e88b7d73e2d4f088d3ff71a7c301" target="_top" xlink:title="Determines whether the store contains data for the specified path">
<polygon fill="white" stroke="black" points="234,-223 234,-253 437,-253 437,-223 234,-223"/>
<text text-anchor="start" x="242" y="-241" font-family="Helvetica,sans-Serif" font-size="10.00">QuantConnect.Lean.Engine.</text>
<text text-anchor="middle" x="335.5" y="-230" font-family="Helvetica,sans-Serif" font-size="10.00">Storage.LocalObjectStore.ContainsKey</text>
</a>
</g>
</g>
<!-- Node1&#45;&gt;Node2 -->
<g id="edge1" class="edge">
<title>Node1&#45;&gt;Node2</title>
<path fill="none" stroke="midnightblue" d="M131.79,-165.03C158.67,-177.43 198.39,-195.03 234,-208 245.61,-212.23 258.13,-216.32 270.25,-220.06"/>
<polygon fill="midnightblue" stroke="midnightblue" points="269.29,-223.42 279.87,-222.97 271.32,-216.72 269.29,-223.42"/>
</g>
<!-- Node4 -->
<g id="node4" class="node">
<title>Node4</title>
<g id="a_node4"><a xlink:href="classQuantConnect_1_1Lean_1_1Engine_1_1Storage_1_1LocalObjectStore.html#a401003a1ad65a8cb163d7aa1162e98c0" target="_top" xlink:title="Get&#39;s a file path for a given path. Internal use only because it does not guarantee the existence of ...">
<polygon fill="white" stroke="black" points="907,-179 907,-209 1104,-209 1104,-179 907,-179"/>
<text text-anchor="start" x="915" y="-197" font-family="Helvetica,sans-Serif" font-size="10.00">QuantConnect.Lean.Engine.</text>
<text text-anchor="middle" x="1005.5" y="-186" font-family="Helvetica,sans-Serif" font-size="10.00">Storage.LocalObjectStore.PathForKey</text>
</a>
</g>
</g>
<!-- Node1&#45;&gt;Node4 -->
<g id="edge6" class="edge">
<title>Node1&#45;&gt;Node4</title>
<path fill="none" stroke="midnightblue" d="M172.39,-165.03C192.28,-168.59 213.9,-171.95 234,-174 469.54,-198.01 747.55,-198.39 896.81,-196.33"/>
<polygon fill="midnightblue" stroke="midnightblue" points="896.95,-199.82 906.9,-196.18 896.85,-192.83 896.95,-199.82"/>
</g>
<!-- Node5 -->
<g id="node5" class="node">
<title>Node5</title>
<g id="a_node5"><a xlink:href="classQuantConnect_1_1Lean_1_1Engine_1_1Storage_1_1FileHandler.html#a29dd5ac902556340f99beb85648c9e12" target="_top" xlink:title="Create the requested directory path">
<polygon fill="white" stroke="black" points="239.5,-135 239.5,-165 431.5,-165 431.5,-135 239.5,-135"/>
<text text-anchor="start" x="247.5" y="-153" font-family="Helvetica,sans-Serif" font-size="10.00">QuantConnect.Lean.Engine.</text>
<text text-anchor="middle" x="335.5" y="-142" font-family="Helvetica,sans-Serif" font-size="10.00">Storage.FileHandler.CreateDirectory</text>
</a>
</g>
</g>
<!-- Node1&#45;&gt;Node5 -->
<g id="edge4" class="edge">
<title>Node1&#45;&gt;Node5</title>
<path fill="none" stroke="midnightblue" d="M198.09,-150C208.35,-150 218.81,-150 229.15,-150"/>
<polygon fill="midnightblue" stroke="midnightblue" points="229.43,-153.5 239.43,-150 229.43,-146.5 229.43,-153.5"/>
</g>
<!-- Node6 -->
<g id="node6" class="node">
<title>Node6</title>
<g id="a_node6"><a xlink:href="classQuantConnect_1_1Lean_1_1Engine_1_1Storage_1_1FileHandler.html#abce4d1ac31ea0570c4462902a59246b3" target="_top" xlink:title="True if the given directory exists">
<polygon fill="white" stroke="black" points="241,-86 241,-116 430,-116 430,-86 241,-86"/>
<text text-anchor="start" x="249" y="-104" font-family="Helvetica,sans-Serif" font-size="10.00">QuantConnect.Lean.Engine.</text>
<text text-anchor="middle" x="335.5" y="-93" font-family="Helvetica,sans-Serif" font-size="10.00">Storage.FileHandler.DirectoryExists</text>
</a>
</g>
</g>
<!-- Node1&#45;&gt;Node6 -->
<g id="edge5" class="edge">
<title>Node1&#45;&gt;Node6</title>
<path fill="none" stroke="midnightblue" d="M171.95,-134.97C197.5,-129.63 226.44,-123.58 252.74,-118.08"/>
<polygon fill="midnightblue" stroke="midnightblue" points="253.61,-121.48 262.68,-116.01 252.18,-114.63 253.61,-121.48"/>
</g>
<!-- Node7 -->
<g id="node7" class="node">
<title>Node7</title>
<g id="a_node7"><a xlink:href="classQuantConnect_1_1Lean_1_1Engine_1_1Storage_1_1LocalObjectStore.html#a0bae70bb60e5691f9d65f7e981d9c9b0" target="_top" xlink:title="Saves the object data for the specified path">
<polygon fill="white" stroke="black" points="238.5,-37 238.5,-67 432.5,-67 432.5,-37 238.5,-37"/>
<text text-anchor="start" x="246.5" y="-55" font-family="Helvetica,sans-Serif" font-size="10.00">QuantConnect.Lean.Engine.</text>
<text text-anchor="middle" x="335.5" y="-44" font-family="Helvetica,sans-Serif" font-size="10.00">Storage.LocalObjectStore.SaveBytes</text>
</a>
</g>
</g>
<!-- Node1&#45;&gt;Node7 -->
<g id="edge7" class="edge">
<title>Node1&#45;&gt;Node7</title>
<path fill="none" stroke="midnightblue" d="M122.79,-134.9C148.73,-118.32 192.86,-91.93 234,-76 239.57,-73.84 245.4,-71.84 251.31,-69.99"/>
<polygon fill="midnightblue" stroke="midnightblue" points="252.74,-73.22 261.33,-67.01 250.74,-66.51 252.74,-73.22"/>
</g>
<!-- Node3 -->
<g id="node3" class="node">
<title>Node3</title>
<g id="a_node3"><a xlink:href="classQuantConnect_1_1Lean_1_1Engine_1_1Storage_1_1FileHandler.html#ab15499e563b744ff777f29ffae0ef97f" target="_top" xlink:title="True if the given file path exists">
<polygon fill="white" stroke="black" points="487.5,-261 487.5,-291 638.5,-291 638.5,-261 487.5,-261"/>
<text text-anchor="start" x="495.5" y="-279" font-family="Helvetica,sans-Serif" font-size="10.00">QuantConnect.Lean.Engine.</text>
<text text-anchor="middle" x="563" y="-268" font-family="Helvetica,sans-Serif" font-size="10.00">Storage.FileHandler.Exists</text>
</a>
</g>
</g>
<!-- Node2&#45;&gt;Node3 -->
<g id="edge2" class="edge">
<title>Node2&#45;&gt;Node3</title>
<path fill="none" stroke="midnightblue" d="M425.62,-253.02C442.55,-255.87 460.21,-258.85 477.01,-261.68"/>
<polygon fill="midnightblue" stroke="midnightblue" points="476.89,-265.21 487.33,-263.42 478.05,-258.3 476.89,-265.21"/>
</g>
<!-- Node2&#45;&gt;Node4 -->
<g id="edge3" class="edge">
<title>Node2&#45;&gt;Node4</title>
<path fill="none" stroke="midnightblue" d="M437.08,-233.81C544.59,-228.99 719.99,-220.15 871,-208 879.35,-207.33 887.98,-206.57 896.66,-205.76"/>
<polygon fill="midnightblue" stroke="midnightblue" points="897.23,-209.22 906.85,-204.79 896.56,-202.25 897.23,-209.22"/>
</g>
<!-- Node8 -->
<g id="node8" class="node">
<title>Node8</title>
<g id="a_node8"><a xlink:href="classQuantConnect_1_1Lean_1_1Engine_1_1Storage_1_1LocalObjectStore.html#a093750ac2ce0b349d77f3a80f4d5e2e7" target="_top" xlink:title="Won&#39;t trigger persist nor will check storage write permissions, useful on initialization since it all...">
<polygon fill="white" stroke="black" points="473,-41.5 473,-82.5 653,-82.5 653,-41.5 473,-41.5"/>
<text text-anchor="start" x="481" y="-70.5" font-family="Helvetica,sans-Serif" font-size="10.00">QuantConnect.Lean.Engine.</text>
<text text-anchor="start" x="481" y="-59.5" font-family="Helvetica,sans-Serif" font-size="10.00">Storage.LocalObjectStore.Internal</text>
<text text-anchor="middle" x="563" y="-48.5" font-family="Helvetica,sans-Serif" font-size="10.00">SaveBytes</text>
</a>
</g>
</g>
<!-- Node7&#45;&gt;Node8 -->
<g id="edge8" class="edge">
<title>Node7&#45;&gt;Node8</title>
<path fill="none" stroke="midnightblue" d="M432.79,-56.27C442.65,-56.71 452.68,-57.15 462.58,-57.59"/>
<polygon fill="midnightblue" stroke="midnightblue" points="462.68,-61.1 472.82,-58.05 462.99,-54.11 462.68,-61.1"/>
</g>
<!-- Node9 -->
<g id="node9" class="node">
<title>Node9</title>
<g id="a_node9"><a xlink:href="classQuantConnect_1_1Lean_1_1Engine_1_1Storage_1_1LocalObjectStore.html#a97abc3229c26b0c287cdb79018ae4f89" target="_top" xlink:title="Validates storage limits are respected on a new save operation">
<polygon fill="white" stroke="black" points="689,-60.5 689,-101.5 871,-101.5 871,-60.5 689,-60.5"/>
<text text-anchor="start" x="697" y="-89.5" font-family="Helvetica,sans-Serif" font-size="10.00">QuantConnect.Lean.Engine.</text>
<text text-anchor="start" x="697" y="-78.5" font-family="Helvetica,sans-Serif" font-size="10.00">Storage.LocalObjectStore.IsWithin</text>
<text text-anchor="middle" x="780" y="-67.5" font-family="Helvetica,sans-Serif" font-size="10.00">StorageLimit</text>
</a>
</g>
</g>
<!-- Node8&#45;&gt;Node9 -->
<g id="edge9" class="edge">
<title>Node8&#45;&gt;Node9</title>
<path fill="none" stroke="midnightblue" d="M653,-69.87C661.47,-70.61 670.1,-71.38 678.66,-72.13"/>
<polygon fill="midnightblue" stroke="midnightblue" points="678.41,-75.62 688.68,-73.02 679.03,-68.65 678.41,-75.62"/>
</g>
<!-- Node9&#45;&gt;Node4 -->
<g id="edge13" class="edge">
<title>Node9&#45;&gt;Node4</title>
<path fill="none" stroke="midnightblue" d="M809.96,-101.79C834.83,-118.99 872.09,-143.23 907,-160 918.98,-165.75 932.19,-171.02 944.92,-175.61"/>
<polygon fill="midnightblue" stroke="midnightblue" points="943.94,-178.97 954.53,-178.98 946.25,-172.37 943.94,-178.97"/>
</g>
<!-- Node10 -->
<g id="node10" class="node">
<title>Node10</title>
<g id="a_node10"><a xlink:href="classQuantConnect_1_1Logging_1_1Log.html#af0e7955911bc7664b37661b2a303a9e3" target="_top" xlink:title="Log error">
<polygon fill="white" stroke="black" points="930.5,-121 930.5,-151 1080.5,-151 1080.5,-121 930.5,-121"/>
<text text-anchor="start" x="938.5" y="-139" font-family="Helvetica,sans-Serif" font-size="10.00">QuantConnect.Logging.Log.</text>
<text text-anchor="middle" x="1005.5" y="-128" font-family="Helvetica,sans-Serif" font-size="10.00">Error</text>
</a>
</g>
</g>
<!-- Node9&#45;&gt;Node10 -->
<g id="edge10" class="edge">
<title>Node9&#45;&gt;Node10</title>
<path fill="none" stroke="midnightblue" d="M864.54,-101.56C887.23,-107.14 911.57,-113.13 933.5,-118.53"/>
<polygon fill="midnightblue" stroke="midnightblue" points="932.84,-121.97 943.38,-120.96 934.51,-115.17 932.84,-121.97"/>
</g>
<!-- Node12 -->
<g id="node12" class="node">
<title>Node12</title>
<g id="a_node12"><a xlink:href="classQuantConnect_1_1Lean_1_1Engine_1_1Storage_1_1LocalObjectStore.html#afa028c51997b389b10f3d33ec455c74d" target="_top" xlink:title="Event invocator for the ErrorRaised event">
<polygon fill="white" stroke="black" points="916,-60.5 916,-101.5 1095,-101.5 1095,-60.5 916,-60.5"/>
<text text-anchor="start" x="924" y="-89.5" font-family="Helvetica,sans-Serif" font-size="10.00">QuantConnect.Lean.Engine.</text>
<text text-anchor="start" x="924" y="-78.5" font-family="Helvetica,sans-Serif" font-size="10.00">Storage.LocalObjectStore.OnError</text>
<text text-anchor="middle" x="1005.5" y="-67.5" font-family="Helvetica,sans-Serif" font-size="10.00">Raised</text>
</a>
</g>
</g>
<!-- Node9&#45;&gt;Node12 -->
<g id="edge12" class="edge">
<title>Node9&#45;&gt;Node12</title>
<path fill="none" stroke="midnightblue" d="M871.26,-81C882.6,-81 894.24,-81 905.71,-81"/>
<polygon fill="midnightblue" stroke="midnightblue" points="905.72,-84.5 915.72,-81 905.72,-77.5 905.72,-84.5"/>
</g>
<!-- Node13 -->
<g id="node13" class="node">
<title>Node13</title>
<g id="a_node13"><a xlink:href="classQuantConnect_1_1Lean_1_1Engine_1_1Storage_1_1FileHandler.html#abed98fbebe3d07969e4907d896a5ad2b" target="_top" xlink:title="Will try to fetch the given file length, will return 0 if it doesn&#39;t exist">
<polygon fill="white" stroke="black" points="923.5,-0.5 923.5,-41.5 1087.5,-41.5 1087.5,-0.5 923.5,-0.5"/>
<text text-anchor="start" x="931.5" y="-29.5" font-family="Helvetica,sans-Serif" font-size="10.00">QuantConnect.Lean.Engine.</text>
<text text-anchor="start" x="931.5" y="-18.5" font-family="Helvetica,sans-Serif" font-size="10.00">Storage.FileHandler.TryGetFile</text>
<text text-anchor="middle" x="1005.5" y="-7.5" font-family="Helvetica,sans-Serif" font-size="10.00">Length</text>
</a>
</g>
</g>
<!-- Node9&#45;&gt;Node13 -->
<g id="edge14" class="edge">
<title>Node9&#45;&gt;Node13</title>
<path fill="none" stroke="midnightblue" d="M857.6,-60.44C877.15,-55.19 898.29,-49.51 918.29,-44.14"/>
<polygon fill="midnightblue" stroke="midnightblue" points="919.25,-47.51 928,-41.54 917.43,-40.75 919.25,-47.51"/>
</g>
<!-- Node11 -->
<g id="node11" class="node">
<title>Node11</title>
<g id="a_node11"><a xlink:href="interfaceQuantConnect_1_1Logging_1_1ILogHandler.html#a35373a0c5d76031fa5ccf5dc39e5c25d" target="_top" xlink:title="Write error message to log">
<polygon fill="white" stroke="black" points="1140,-121 1140,-151 1290,-151 1290,-121 1140,-121"/>
<text text-anchor="start" x="1148" y="-139" font-family="Helvetica,sans-Serif" font-size="10.00">QuantConnect.Logging.ILog</text>
<text text-anchor="middle" x="1215" y="-128" font-family="Helvetica,sans-Serif" font-size="10.00">Handler.Error</text>
</a>
</g>
</g>
<!-- Node10&#45;&gt;Node11 -->
<g id="edge11" class="edge">
<title>Node10&#45;&gt;Node11</title>
<path fill="none" stroke="midnightblue" d="M1080.53,-136C1096.53,-136 1113.56,-136 1129.92,-136"/>
<polygon fill="midnightblue" stroke="midnightblue" points="1130,-139.5 1140,-136 1130,-132.5 1130,-139.5"/>
</g>
</g>
</svg>
        <g id="navigator" transform="translate(0 0)" fill="#404254">
                <rect fill="#f2f5e9" fill-opacity="0.5" stroke="#606060" stroke-width=".5" x="0" y="0" width="60" height="60"/>
                <use id="zoomplus" xlink:href="#zoomPlus" x="17" y="9" onmousedown="handleZoom(evt,'in')"/>
                <use id="zoomminus" xlink:href="#zoomMin" x="42" y="9" onmousedown="handleZoom(evt,'out')"/>
                <use id="reset" xlink:href="#resetDef" x="30" y="36" onmousedown="handleReset()"/>
                <g id="arrowUp" xlink:href="#dirArrow" transform="translate(30 24)" onmousedown="handlePan(0,-1)">
                  <use xlink:href="#rim" fill="#404040">
                        <set attributeName="fill" to="#808080" begin="arrowUp.mouseover" end="arrowUp.mouseout"/>
                  </use>
                  <path fill="none" stroke="white" stroke-width="1.5" d="M0,-3.0v7 M-2.5,-0.5L0,-3.0L2.5,-0.5"/>
                </g>
                <g id="arrowRight" xlink:href="#dirArrow" transform="rotate(90) translate(36 -43)" onmousedown="handlePan(1,0)">
                  <use xlink:href="#rim" fill="#404040">
                        <set attributeName="fill" to="#808080" begin="arrowRight.mouseover" end="arrowRight.mouseout"/>
                  </use>
                  <path fill="none" stroke="white" stroke-width="1.5" d="M0,-3.0v7 M-2.5,-0.5L0,-3.0L2.5,-0.5"/>
                </g>
                <g id="arrowDown" xlink:href="#dirArrow" transform="rotate(180) translate(-30 -48)" onmousedown="handlePan(0,1)">
                  <use xlink:href="#rim" fill="#404040">
                        <set attributeName="fill" to="#808080" begin="arrowDown.mouseover" end="arrowDown.mouseout"/>
                  </use>
                  <path fill="none" stroke="white" stroke-width="1.5" d="M0,-3.0v7 M-2.5,-0.5L0,-3.0L2.5,-0.5"/>
                </g>
                <g id="arrowLeft" xlink:href="#dirArrow" transform="rotate(270) translate(-36 17)" onmousedown="handlePan(-1,0)">
                  <use xlink:href="#rim" fill="#404040">
                        <set attributeName="fill" to="#808080" begin="arrowLeft.mouseover" end="arrowLeft.mouseout"/>
                  </use>
                  <path fill="none" stroke="white" stroke-width="1.5" d="M0,-3.0v7 M-2.5,-0.5L0,-3.0L2.5,-0.5"/>
                </g>
        </g>
        <svg viewBox="0 0 15 15" width="100%" height="30px" preserveAspectRatio="xMaxYMin meet">
         <g id="arrow_out" transform="scale(0.3 0.3)">
          <a xlink:href="classQuantConnect_1_1Lean_1_1Engine_1_1Storage_1_1LocalObjectStore_ad1b6b2c77674a74df56288750a0450ec_cgraph_org.svg" target="_base">
           <rect id="button" ry="5" rx="5" y="6" x="6" height="38" width="38"
                fill="#f2f5e9" fill-opacity="0.5" stroke="#606060" stroke-width="1.0"/>
           <path id="arrow"
             d="M 11.500037,31.436501 C 11.940474,20.09759 22.043105,11.32322 32.158766,21.979434 L 37.068811,17.246167 C 37.068811,17.246167 37.088388,32 37.088388,32 L 22.160133,31.978069 C 22.160133,31.978069 26.997745,27.140456 26.997745,27.140456 C 18.528582,18.264221 13.291696,25.230495 11.500037,31.436501 z"
             style="fill:#404040;"/>
          </a>
         </g>
        </svg>
</svg>
