<?xml version="1.0" encoding="UTF-8" standalone="no"?>
<!DOCTYPE svg PUBLIC "-//W3C//DTD SVG 1.1//EN"
 "http://www.w3.org/Graphics/SVG/1.1/DTD/svg11.dtd">
<!-- Generated by graphviz version 2.43.0 (0)
 -->
<!-- Title: QuantConnect.Data.Market.RangeBar Pages: 1 -->
<svg width="179pt" height="263pt"
 viewBox="0.00 0.00 179.00 263.00" xmlns="http://www.w3.org/2000/svg" xmlns:xlink="http://www.w3.org/1999/xlink">
<g id="graph0" class="graph" transform="scale(1 1) rotate(0) translate(4 259)">
<title>QuantConnect.Data.Market.RangeBar</title>
<polygon fill="white" stroke="transparent" points="-4,4 -4,-259 175,-259 175,4 -4,4"/>
<!-- Node1 -->
<g id="node1" class="node">
<title>Node1</title>
<g id="a_node1"><a xlink:title="Represents a bar sectioned not by time, but by some amount of movement in a value (for example,...">
<polygon fill="#bfbfbf" stroke="black" points="11.5,-0.5 11.5,-30.5 163.5,-30.5 163.5,-0.5 11.5,-0.5"/>
<text text-anchor="start" x="19.5" y="-18.5" font-family="Helvetica,sans-Serif" font-size="10.00">QuantConnect.Data.Market.</text>
<text text-anchor="middle" x="87.5" y="-7.5" font-family="Helvetica,sans-Serif" font-size="10.00">RangeBar</text>
</a>
</g>
</g>
<!-- Node2 -->
<g id="node2" class="node">
<title>Node2</title>
<g id="a_node2"><a xlink:href="classQuantConnect_1_1Data_1_1Market_1_1TradeBar.html" target="_top" xlink:title="TradeBar class for second and minute resolution data: An OHLC implementation of the QuantConnect Base...">
<polygon fill="white" stroke="black" points="58,-67.5 58,-86.5 117,-86.5 117,-67.5 58,-67.5"/>
<text text-anchor="middle" x="87.5" y="-74.5" font-family="Helvetica,sans-Serif" font-size="10.00">TradeBar</text>
</a>
</g>
</g>
<!-- Node2&#45;&gt;Node1 -->
<g id="edge1" class="edge">
<title>Node2&#45;&gt;Node1</title>
<path fill="none" stroke="midnightblue" d="M87.5,-57.23C87.5,-48.59 87.5,-38.5 87.5,-30.52"/>
<polygon fill="midnightblue" stroke="midnightblue" points="84,-57.48 87.5,-67.48 91,-57.48 84,-57.48"/>
</g>
<!-- Node3 -->
<g id="node3" class="node">
<title>Node3</title>
<g id="a_node3"><a xlink:href="classQuantConnect_1_1Data_1_1BaseData.html" target="_top" xlink:title="Abstract base data class of QuantConnect. It is intended to be extended to define generic user custom...">
<polygon fill="white" stroke="black" points="101.5,-123.5 101.5,-142.5 165.5,-142.5 165.5,-123.5 101.5,-123.5"/>
<text text-anchor="middle" x="133.5" y="-130.5" font-family="Helvetica,sans-Serif" font-size="10.00">BaseData</text>
</a>
</g>
</g>
<!-- Node3&#45;&gt;Node2 -->
<g id="edge2" class="edge">
<title>Node3&#45;&gt;Node2</title>
<path fill="none" stroke="midnightblue" d="M119.39,-115.43C111.32,-105.97 101.54,-94.48 94.95,-86.75"/>
<polygon fill="midnightblue" stroke="midnightblue" points="116.75,-117.74 125.9,-123.08 122.08,-113.2 116.75,-117.74"/>
</g>
<!-- Node4 -->
<g id="node4" class="node">
<title>Node4</title>
<g id="a_node4"><a xlink:href="interfaceQuantConnect_1_1Data_1_1IBaseData.html" target="_top" xlink:title="Base Data Class: Type, Timestamp, Key – Base Features.">
<polygon fill="white" stroke="black" points="89,-179.5 89,-198.5 156,-198.5 156,-179.5 89,-179.5"/>
<text text-anchor="middle" x="122.5" y="-186.5" font-family="Helvetica,sans-Serif" font-size="10.00">IBaseData</text>
</a>
</g>
</g>
<!-- Node4&#45;&gt;Node3 -->
<g id="edge3" class="edge">
<title>Node4&#45;&gt;Node3</title>
<path fill="none" stroke="midnightblue" d="M126.35,-169.1C128.18,-160.14 130.27,-149.86 131.72,-142.75"/>
<polygon fill="midnightblue" stroke="midnightblue" points="122.88,-168.59 124.32,-179.08 129.74,-169.98 122.88,-168.59"/>
</g>
<!-- Node6 -->
<g id="node6" class="node">
<title>Node6</title>
<g id="a_node6"><a xlink:href="interfaceQuantConnect_1_1Data_1_1Market_1_1IBaseDataBar.html" target="_top" xlink:title="Represents a type that is both a bar and base data">
<polygon fill="white" stroke="black" points="0,-123.5 0,-142.5 83,-142.5 83,-123.5 0,-123.5"/>
<text text-anchor="middle" x="41.5" y="-130.5" font-family="Helvetica,sans-Serif" font-size="10.00">IBaseDataBar</text>
</a>
</g>
</g>
<!-- Node4&#45;&gt;Node6 -->
<g id="edge6" class="edge">
<title>Node4&#45;&gt;Node6</title>
<path fill="none" stroke="midnightblue" d="M100.93,-173.62C86.14,-163.76 66.99,-150.99 54.48,-142.65"/>
<polygon fill="midnightblue" stroke="midnightblue" points="99.22,-176.69 109.49,-179.32 103.11,-170.86 99.22,-176.69"/>
</g>
<!-- Node5 -->
<g id="node5" class="node">
<title>Node5</title>
<g id="a_node5"><a xlink:href="interfaceQuantConnect_1_1Data_1_1ISymbolProvider.html" target="_top" xlink:title="Base data with a symbol">
<polygon fill="white" stroke="black" points="74,-235.5 74,-254.5 171,-254.5 171,-235.5 74,-235.5"/>
<text text-anchor="middle" x="122.5" y="-242.5" font-family="Helvetica,sans-Serif" font-size="10.00">ISymbolProvider</text>
</a>
</g>
</g>
<!-- Node5&#45;&gt;Node4 -->
<g id="edge4" class="edge">
<title>Node5&#45;&gt;Node4</title>
<path fill="none" stroke="midnightblue" d="M122.5,-224.8C122.5,-215.91 122.5,-205.78 122.5,-198.75"/>
<polygon fill="midnightblue" stroke="midnightblue" points="119,-225.08 122.5,-235.08 126,-225.08 119,-225.08"/>
</g>
<!-- Node6&#45;&gt;Node2 -->
<g id="edge5" class="edge">
<title>Node6&#45;&gt;Node2</title>
<path fill="none" stroke="midnightblue" d="M55.61,-115.43C63.68,-105.97 73.46,-94.48 80.05,-86.75"/>
<polygon fill="midnightblue" stroke="midnightblue" points="52.92,-113.2 49.1,-123.08 58.25,-117.74 52.92,-113.2"/>
</g>
<!-- Node7 -->
<g id="node7" class="node">
<title>Node7</title>
<g id="a_node7"><a xlink:href="interfaceQuantConnect_1_1Data_1_1Market_1_1IBar.html" target="_top" xlink:title="Generic bar interface with Open, High, Low and Close.">
<polygon fill="white" stroke="black" points="23.5,-179.5 23.5,-198.5 59.5,-198.5 59.5,-179.5 23.5,-179.5"/>
<text text-anchor="middle" x="41.5" y="-186.5" font-family="Helvetica,sans-Serif" font-size="10.00">IBar</text>
</a>
</g>
</g>
<!-- Node7&#45;&gt;Node6 -->
<g id="edge7" class="edge">
<title>Node7&#45;&gt;Node6</title>
<path fill="none" stroke="midnightblue" d="M41.5,-168.8C41.5,-159.91 41.5,-149.78 41.5,-142.75"/>
<polygon fill="midnightblue" stroke="midnightblue" points="38,-169.08 41.5,-179.08 45,-169.08 38,-169.08"/>
</g>
</g>
</svg>
