<?xml version="1.0" encoding="UTF-8" standalone="no"?>
<!DOCTYPE svg PUBLIC "-//W3C//DTD SVG 1.1//EN"
 "http://www.w3.org/Graphics/SVG/1.1/DTD/svg11.dtd">
<!-- Generated by graphviz version 2.43.0 (0)
 -->
<!-- Title: QuantConnect.Data.Market.TradeBar.ParseCfd&lt; T &gt; Pages: 1 -->
<svg width="1296pt" height="110pt"
 viewBox="0.00 0.00 1296.00 110.00" xmlns="http://www.w3.org/2000/svg" xmlns:xlink="http://www.w3.org/1999/xlink">
<g id="graph0" class="graph" transform="scale(1 1) rotate(0) translate(4 106)">
<title>QuantConnect.Data.Market.TradeBar.ParseCfd&lt; T &gt;</title>
<polygon fill="white" stroke="transparent" points="-4,4 -4,-106 1292,-106 1292,4 -4,4"/>
<!-- Node1 -->
<g id="node1" class="node">
<title>Node1</title>
<g id="a_node1"><a xlink:title="Parses CFD trade bar data into the specified tradebar type, useful for custom types with OHLCV data d...">
<polygon fill="#bfbfbf" stroke="black" points="0,-35 0,-65 152,-65 152,-35 0,-35"/>
<text text-anchor="start" x="8" y="-53" font-family="Helvetica,sans-Serif" font-size="10.00">QuantConnect.Data.Market.</text>
<text text-anchor="middle" x="76" y="-42" font-family="Helvetica,sans-Serif" font-size="10.00">TradeBar.ParseCfd&lt; T &gt;</text>
</a>
</g>
</g>
<!-- Node2 -->
<g id="node2" class="node">
<title>Node2</title>
<g id="a_node2"><a xlink:href="classQuantConnect_1_1Data_1_1Market_1_1TradeBar.html#ad327dd666a924930250c138f258c169d" target="_top" xlink:title="Parses forex trade bar data into the specified tradebar type, useful for custom types with OHLCV data...">
<polygon fill="white" stroke="black" points="188,-35 188,-65 340,-65 340,-35 188,-35"/>
<text text-anchor="start" x="196" y="-53" font-family="Helvetica,sans-Serif" font-size="10.00">QuantConnect.Data.Market.</text>
<text text-anchor="middle" x="264" y="-42" font-family="Helvetica,sans-Serif" font-size="10.00">TradeBar.ParseForex&lt; T &gt;</text>
</a>
</g>
</g>
<!-- Node1&#45;&gt;Node2 -->
<g id="edge1" class="edge">
<title>Node1&#45;&gt;Node2</title>
<path fill="none" stroke="midnightblue" d="M152.12,-50C160.6,-50 169.28,-50 177.87,-50"/>
<polygon fill="midnightblue" stroke="midnightblue" points="177.9,-53.5 187.9,-50 177.9,-46.5 177.9,-53.5"/>
</g>
<!-- Node3 -->
<g id="node3" class="node">
<title>Node3</title>
<g id="a_node3"><a xlink:href="classQuantConnect_1_1Symbol.html#a59158f74116be3dad0ea0f3f3f134416" target="_top" xlink:title="Initializes a new instance of the Symbol class">
<polygon fill="white" stroke="black" points="376,-40.5 376,-59.5 541,-59.5 541,-40.5 376,-40.5"/>
<text text-anchor="middle" x="458.5" y="-47.5" font-family="Helvetica,sans-Serif" font-size="10.00">QuantConnect.Symbol.Symbol</text>
</a>
</g>
</g>
<!-- Node2&#45;&gt;Node3 -->
<g id="edge2" class="edge">
<title>Node2&#45;&gt;Node3</title>
<path fill="none" stroke="midnightblue" d="M340.25,-50C348.67,-50 357.3,-50 365.89,-50"/>
<polygon fill="midnightblue" stroke="midnightblue" points="365.94,-53.5 375.94,-50 365.94,-46.5 365.94,-53.5"/>
</g>
<!-- Node4 -->
<g id="node4" class="node">
<title>Node4</title>
<g id="a_node4"><a xlink:href="classQuantConnect_1_1Symbol.html#a59b0795fa21f46c306deb5576fa03bb9" target="_top" xlink:title="Centralized helper method to resolve alias for a symbol">
<polygon fill="white" stroke="black" points="577,-40.5 577,-59.5 747,-59.5 747,-40.5 577,-40.5"/>
<text text-anchor="middle" x="662" y="-47.5" font-family="Helvetica,sans-Serif" font-size="10.00">QuantConnect.Symbol.GetAlias</text>
</a>
</g>
</g>
<!-- Node3&#45;&gt;Node4 -->
<g id="edge3" class="edge">
<title>Node3&#45;&gt;Node4</title>
<path fill="none" stroke="midnightblue" d="M541.17,-50C549.64,-50 558.29,-50 566.88,-50"/>
<polygon fill="midnightblue" stroke="midnightblue" points="566.92,-53.5 576.92,-50 566.92,-46.5 566.92,-53.5"/>
</g>
<!-- Node5 -->
<g id="node5" class="node">
<title>Node5</title>
<g id="a_node5"><a xlink:href="classQuantConnect_1_1SymbolRepresentation.html#ad43ac907f6c19083821f58f21c6de017" target="_top" xlink:title="Returns future symbol ticker from underlying and expiration date. Function can generate tickers of tw...">
<polygon fill="white" stroke="black" points="783,-63 783,-93 986,-93 986,-63 783,-63"/>
<text text-anchor="start" x="791" y="-81" font-family="Helvetica,sans-Serif" font-size="10.00">QuantConnect.SymbolRepresentation.</text>
<text text-anchor="middle" x="884.5" y="-70" font-family="Helvetica,sans-Serif" font-size="10.00">GenerateFutureTicker</text>
</a>
</g>
</g>
<!-- Node4&#45;&gt;Node5 -->
<g id="edge4" class="edge">
<title>Node4&#45;&gt;Node5</title>
<path fill="none" stroke="midnightblue" d="M737.96,-59.52C749.27,-60.96 761.14,-62.46 773.01,-63.97"/>
<polygon fill="midnightblue" stroke="midnightblue" points="772.62,-67.45 782.98,-65.24 773.5,-60.5 772.62,-67.45"/>
</g>
<!-- Node7 -->
<g id="node7" class="node">
<title>Node7</title>
<g id="a_node7"><a xlink:href="classQuantConnect_1_1SymbolRepresentation.html#ab133044f5cf8c16e700190a2202b215e" target="_top" xlink:title="Returns option symbol ticker in accordance with OSI symbology More information can be found at http:/...">
<polygon fill="white" stroke="black" points="783,-11 783,-41 986,-41 986,-11 783,-11"/>
<text text-anchor="start" x="791" y="-29" font-family="Helvetica,sans-Serif" font-size="10.00">QuantConnect.SymbolRepresentation.</text>
<text text-anchor="middle" x="884.5" y="-18" font-family="Helvetica,sans-Serif" font-size="10.00">GenerateOptionTickerOSI</text>
</a>
</g>
</g>
<!-- Node4&#45;&gt;Node7 -->
<g id="edge6" class="edge">
<title>Node4&#45;&gt;Node7</title>
<path fill="none" stroke="midnightblue" d="M747.31,-40.82C755.69,-39.91 764.3,-38.97 772.9,-38.04"/>
<polygon fill="midnightblue" stroke="midnightblue" points="773.43,-41.5 782.99,-36.94 772.67,-34.54 773.43,-41.5"/>
</g>
<!-- Node6 -->
<g id="node6" class="node">
<title>Node6</title>
<g id="a_node6"><a xlink:href="classQuantConnect_1_1Securities_1_1Future_1_1FuturesExpiryUtilityFunctions.html#a4ccb1e2f2fe40ff09785a74a02f26df1" target="_top" xlink:title="Gets the number of months between the contract month and the expiry date.">
<polygon fill="white" stroke="black" points="1022,-60.5 1022,-101.5 1288,-101.5 1288,-60.5 1022,-60.5"/>
<text text-anchor="start" x="1030" y="-89.5" font-family="Helvetica,sans-Serif" font-size="10.00">QuantConnect.Securities.</text>
<text text-anchor="start" x="1030" y="-78.5" font-family="Helvetica,sans-Serif" font-size="10.00">Future.FuturesExpiryUtilityFunctions.</text>
<text text-anchor="middle" x="1155" y="-67.5" font-family="Helvetica,sans-Serif" font-size="10.00">GetDeltaBetweenContractMonthAndContractExpiry</text>
</a>
</g>
</g>
<!-- Node5&#45;&gt;Node6 -->
<g id="edge5" class="edge">
<title>Node5&#45;&gt;Node6</title>
<path fill="none" stroke="midnightblue" d="M986.24,-79.13C994.59,-79.22 1003.11,-79.31 1011.68,-79.41"/>
<polygon fill="midnightblue" stroke="midnightblue" points="1011.72,-82.91 1021.76,-79.52 1011.8,-75.91 1011.72,-82.91"/>
</g>
<!-- Node8 -->
<g id="node8" class="node">
<title>Node8</title>
<g id="a_node8"><a xlink:href="classQuantConnect_1_1Messages_1_1SymbolRepresentation.html#a2c514157d8055cfa271ea3a7ca1ccde7" target="_top" xlink:title="Returns a string message saying an unexpected security type was received by the given method name">
<polygon fill="white" stroke="black" points="1059,-0.5 1059,-41.5 1251,-41.5 1251,-0.5 1059,-0.5"/>
<text text-anchor="start" x="1067" y="-29.5" font-family="Helvetica,sans-Serif" font-size="10.00">QuantConnect.Messages.Symbol</text>
<text text-anchor="start" x="1067" y="-18.5" font-family="Helvetica,sans-Serif" font-size="10.00">Representation.UnexpectedSecurity</text>
<text text-anchor="middle" x="1155" y="-7.5" font-family="Helvetica,sans-Serif" font-size="10.00">TypeForMethod</text>
</a>
</g>
</g>
<!-- Node7&#45;&gt;Node8 -->
<g id="edge7" class="edge">
<title>Node7&#45;&gt;Node8</title>
<path fill="none" stroke="midnightblue" d="M986.24,-24.12C1006.7,-23.74 1028.27,-23.34 1048.88,-22.96"/>
<polygon fill="midnightblue" stroke="midnightblue" points="1048.98,-26.46 1058.91,-22.77 1048.85,-19.46 1048.98,-26.46"/>
</g>
</g>
</svg>
