<?xml version="1.0" encoding="UTF-8" standalone="no"?>
<!DOCTYPE svg PUBLIC "-//W3C//DTD SVG 1.1//EN"
 "http://www.w3.org/Graphics/SVG/1.1/DTD/svg11.dtd">
<!-- Generated by graphviz version 2.43.0 (0)
 -->
<!-- Title: QuantConnect.Exceptions.UnsupportedOperandPythonExceptionInterpreter.Interpret Pages: 1 -->
<svg width="473pt" height="100pt"
 viewBox="0.00 0.00 473.00 99.50" xmlns="http://www.w3.org/2000/svg" xmlns:xlink="http://www.w3.org/1999/xlink">
<g id="graph0" class="graph" transform="scale(1 1) rotate(0) translate(4 95.5)">
<title>QuantConnect.Exceptions.UnsupportedOperandPythonExceptionInterpreter.Interpret</title>
<polygon fill="white" stroke="transparent" points="-4,4 -4,-95.5 469,-95.5 469,4 -4,4"/>
<!-- Node1 -->
<g id="node1" class="node">
<title>Node1</title>
<g id="a_node1"><a xlink:title="Interprets the specified exception into a new exception">
<polygon fill="#bfbfbf" stroke="black" points="0,-22 0,-63 202,-63 202,-22 0,-22"/>
<text text-anchor="start" x="8" y="-51" font-family="Helvetica,sans-Serif" font-size="10.00">QuantConnect.Exceptions.</text>
<text text-anchor="start" x="8" y="-40" font-family="Helvetica,sans-Serif" font-size="10.00">UnsupportedOperandPythonException</text>
<text text-anchor="middle" x="101" y="-29" font-family="Helvetica,sans-Serif" font-size="10.00">Interpreter.Interpret</text>
</a>
</g>
</g>
<!-- Node2 -->
<g id="node2" class="node">
<title>Node2</title>
<g id="a_node2"><a xlink:href="classQuantConnect_1_1Messages_1_1UnsupportedOperandPythonExceptionInterpreter.html#a46824c30bbdd0f5a981f4fcc6dbbf3af" target="_top" xlink:title="Returns a message for invalid object types for operation">
<polygon fill="white" stroke="black" points="238,-50 238,-91 465,-91 465,-50 238,-50"/>
<text text-anchor="start" x="246" y="-79" font-family="Helvetica,sans-Serif" font-size="10.00">QuantConnect.Messages.Unsupported</text>
<text text-anchor="start" x="246" y="-68" font-family="Helvetica,sans-Serif" font-size="10.00">OperandPythonExceptionInterpreter.Invalid</text>
<text text-anchor="middle" x="351.5" y="-57" font-family="Helvetica,sans-Serif" font-size="10.00">ObjectTypesForOperation</text>
</a>
</g>
</g>
<!-- Node1&#45;&gt;Node2 -->
<g id="edge1" class="edge">
<title>Node1&#45;&gt;Node2</title>
<path fill="none" stroke="midnightblue" d="M202,-53.77C210.43,-54.72 219.02,-55.69 227.6,-56.65"/>
<polygon fill="midnightblue" stroke="midnightblue" points="227.33,-60.14 237.66,-57.79 228.11,-53.19 227.33,-60.14"/>
</g>
<!-- Node3 -->
<g id="node3" class="node">
<title>Node3</title>
<g id="a_node3"><a xlink:href="classQuantConnect_1_1Util_1_1PythonUtil.html#a092a2692ea8e8fd23fe5e3b3357c336f" target="_top" xlink:title="Parsers PythonException.StackTrace into a readable message">
<polygon fill="white" stroke="black" points="263.5,-0.5 263.5,-30.5 439.5,-30.5 439.5,-0.5 263.5,-0.5"/>
<text text-anchor="start" x="271.5" y="-18.5" font-family="Helvetica,sans-Serif" font-size="10.00">QuantConnect.Util.Python</text>
<text text-anchor="middle" x="351.5" y="-7.5" font-family="Helvetica,sans-Serif" font-size="10.00">Util.PythonExceptionStackParser</text>
</a>
</g>
</g>
<!-- Node1&#45;&gt;Node3 -->
<g id="edge2" class="edge">
<title>Node1&#45;&gt;Node3</title>
<path fill="none" stroke="midnightblue" d="M202,-31.63C218.75,-29.81 236.12,-27.93 252.81,-26.11"/>
<polygon fill="midnightblue" stroke="midnightblue" points="253.54,-29.56 263.11,-25 252.79,-22.6 253.54,-29.56"/>
</g>
</g>
</svg>
