<?xml version="1.0" encoding="UTF-8" standalone="no"?>
<!DOCTYPE svg PUBLIC "-//W3C//DTD SVG 1.1//EN"
 "http://www.w3.org/Graphics/SVG/1.1/DTD/svg11.dtd">
<!-- Generated by graphviz version 2.43.0 (0)
 -->
<!-- Title: QuantConnect.Messages.OrderResponse.ZeroQuantity Pages: 1 -->
<svg width="882pt" height="50pt"
 viewBox="0.00 0.00 882.00 50.00" xmlns="http://www.w3.org/2000/svg" xmlns:xlink="http://www.w3.org/1999/xlink">
<g id="graph0" class="graph" transform="scale(1 1) rotate(0) translate(4 46)">
<title>QuantConnect.Messages.OrderResponse.ZeroQuantity</title>
<polygon fill="white" stroke="transparent" points="-4,4 -4,-46 878,-46 878,4 -4,4"/>
<!-- Node1 -->
<g id="node1" class="node">
<title>Node1</title>
<g id="a_node1"><a xlink:title="Returns a string message saying it was impossible to process the given order request that has zero qu...">
<polygon fill="#bfbfbf" stroke="black" points="707,-6 707,-36 874,-36 874,-6 707,-6"/>
<text text-anchor="start" x="715" y="-24" font-family="Helvetica,sans-Serif" font-size="10.00">QuantConnect.Messages.Order</text>
<text text-anchor="middle" x="790.5" y="-13" font-family="Helvetica,sans-Serif" font-size="10.00">Response.ZeroQuantity</text>
</a>
</g>
</g>
<!-- Node2 -->
<g id="node2" class="node">
<title>Node2</title>
<g id="a_node2"><a xlink:href="classQuantConnect_1_1Orders_1_1OrderResponse.html#a8ed637742188060da1c1420ceb0dc91e" target="_top" xlink:title="Helper method to create an error response due to a zero order quantity">
<polygon fill="white" stroke="black" points="520,-6 520,-36 671,-36 671,-6 520,-6"/>
<text text-anchor="start" x="528" y="-24" font-family="Helvetica,sans-Serif" font-size="10.00">QuantConnect.Orders.Order</text>
<text text-anchor="middle" x="595.5" y="-13" font-family="Helvetica,sans-Serif" font-size="10.00">Response.ZeroQuantity</text>
</a>
</g>
</g>
<!-- Node1&#45;&gt;Node2 -->
<g id="edge1" class="edge">
<title>Node1&#45;&gt;Node2</title>
<path fill="none" stroke="midnightblue" d="M696.75,-21C688.14,-21 679.5,-21 671.09,-21"/>
<polygon fill="midnightblue" stroke="midnightblue" points="696.81,-24.5 706.81,-21 696.81,-17.5 696.81,-24.5"/>
</g>
<!-- Node3 -->
<g id="node3" class="node">
<title>Node3</title>
<g id="a_node3"><a xlink:href="classQuantConnect_1_1Lean_1_1Engine_1_1TransactionHandlers_1_1BrokerageTransactionHandler.html#a1a38e71d6ea75fe654d365cb6b7501d2" target="_top" xlink:title="Update an order yet to be filled such as stop or limit orders.">
<polygon fill="white" stroke="black" points="260,-0.5 260,-41.5 484,-41.5 484,-0.5 260,-0.5"/>
<text text-anchor="start" x="268" y="-29.5" font-family="Helvetica,sans-Serif" font-size="10.00">QuantConnect.Lean.Engine.</text>
<text text-anchor="start" x="268" y="-18.5" font-family="Helvetica,sans-Serif" font-size="10.00">TransactionHandlers.BrokerageTransaction</text>
<text text-anchor="middle" x="372" y="-7.5" font-family="Helvetica,sans-Serif" font-size="10.00">Handler.UpdateOrder</text>
</a>
</g>
</g>
<!-- Node2&#45;&gt;Node3 -->
<g id="edge2" class="edge">
<title>Node2&#45;&gt;Node3</title>
<path fill="none" stroke="midnightblue" d="M509.78,-21C501.45,-21 492.91,-21 484.37,-21"/>
<polygon fill="midnightblue" stroke="midnightblue" points="509.82,-24.5 519.82,-21 509.82,-17.5 509.82,-24.5"/>
</g>
<!-- Node4 -->
<g id="node4" class="node">
<title>Node4</title>
<g id="a_node4"><a xlink:href="classQuantConnect_1_1Lean_1_1Engine_1_1TransactionHandlers_1_1BrokerageTransactionHandler.html#ad7914edfb9b6e24fcbcd637e2c468cd5" target="_top" xlink:title="Adds the specified order to be processed">
<polygon fill="white" stroke="black" points="0,-0.5 0,-41.5 224,-41.5 224,-0.5 0,-0.5"/>
<text text-anchor="start" x="8" y="-29.5" font-family="Helvetica,sans-Serif" font-size="10.00">QuantConnect.Lean.Engine.</text>
<text text-anchor="start" x="8" y="-18.5" font-family="Helvetica,sans-Serif" font-size="10.00">TransactionHandlers.BrokerageTransaction</text>
<text text-anchor="middle" x="112" y="-7.5" font-family="Helvetica,sans-Serif" font-size="10.00">Handler.Process</text>
</a>
</g>
</g>
<!-- Node3&#45;&gt;Node4 -->
<g id="edge3" class="edge">
<title>Node3&#45;&gt;Node4</title>
<path fill="none" stroke="midnightblue" d="M249.5,-21C241.1,-21 232.67,-21 224.33,-21"/>
<polygon fill="midnightblue" stroke="midnightblue" points="249.71,-24.5 259.71,-21 249.71,-17.5 249.71,-24.5"/>
</g>
</g>
</svg>
