<?xml version="1.0" encoding="UTF-8" standalone="no"?>
<!DOCTYPE svg PUBLIC "-//W3C//DTD SVG 1.1//EN"
 "http://www.w3.org/Graphics/SVG/1.1/DTD/svg11.dtd">
<!-- Generated by graphviz version 2.43.0 (0)
 -->
<!-- Title: QuantConnect.Brokerages.FxcmBrokerageModel.CanSubmitOrder Pages: 1 -->
<svg width="474pt" height="198pt"
 viewBox="0.00 0.00 474.00 197.50" xmlns="http://www.w3.org/2000/svg" xmlns:xlink="http://www.w3.org/1999/xlink">
<g id="graph0" class="graph" transform="scale(1 1) rotate(0) translate(4 193.5)">
<title>QuantConnect.Brokerages.FxcmBrokerageModel.CanSubmitOrder</title>
<polygon fill="white" stroke="transparent" points="-4,4 -4,-193.5 470,-193.5 470,4 -4,4"/>
<!-- Node1 -->
<g id="node1" class="node">
<title>Node1</title>
<g id="a_node1"><a xlink:title="Returns true if the brokerage could accept this order. This takes into account order type,...">
<polygon fill="#bfbfbf" stroke="black" points="0,-73.5 0,-103.5 206,-103.5 206,-73.5 0,-73.5"/>
<text text-anchor="start" x="8" y="-91.5" font-family="Helvetica,sans-Serif" font-size="10.00">QuantConnect.Brokerages.</text>
<text text-anchor="middle" x="103" y="-80.5" font-family="Helvetica,sans-Serif" font-size="10.00">FxcmBrokerageModel.CanSubmitOrder</text>
</a>
</g>
</g>
<!-- Node2 -->
<g id="node2" class="node">
<title>Node2</title>
<g id="a_node2"><a xlink:href="classQuantConnect_1_1Messages_1_1FxcmBrokerageModel.html#a5bddcb7c8bc8cafcc5976ac845306eda" target="_top" xlink:title="Returns a string message saying the order quantity must be a multiple of LotSize. It also contains th...">
<polygon fill="white" stroke="black" points="253.5,-148 253.5,-189 454.5,-189 454.5,-148 253.5,-148"/>
<text text-anchor="start" x="261.5" y="-177" font-family="Helvetica,sans-Serif" font-size="10.00">QuantConnect.Messages.Fxcm</text>
<text text-anchor="start" x="261.5" y="-166" font-family="Helvetica,sans-Serif" font-size="10.00">BrokerageModel.InvalidOrderQuantity</text>
<text text-anchor="middle" x="354" y="-155" font-family="Helvetica,sans-Serif" font-size="10.00">ForLotSize</text>
</a>
</g>
</g>
<!-- Node1&#45;&gt;Node2 -->
<g id="edge1" class="edge">
<title>Node1&#45;&gt;Node2</title>
<path fill="none" stroke="midnightblue" d="M142.96,-103.6C170.44,-114.01 208.22,-127.84 242,-138.5 249.08,-140.74 256.45,-142.95 263.87,-145.12"/>
<polygon fill="midnightblue" stroke="midnightblue" points="263.06,-148.52 273.63,-147.92 264.99,-141.8 263.06,-148.52"/>
</g>
<!-- Node3 -->
<g id="node3" class="node">
<title>Node3</title>
<g id="a_node3"><a xlink:href="classQuantConnect_1_1Messages_1_1DefaultBrokerageModel.html#a772b06f7270c604cc7386874e827dc84" target="_top" xlink:title="Returns a string message saying the type of the given order is unsupported by the given brokerage mod...">
<polygon fill="white" stroke="black" points="248.5,-98.5 248.5,-128.5 459.5,-128.5 459.5,-98.5 248.5,-98.5"/>
<text text-anchor="start" x="256.5" y="-116.5" font-family="Helvetica,sans-Serif" font-size="10.00">QuantConnect.Messages.Default</text>
<text text-anchor="middle" x="354" y="-105.5" font-family="Helvetica,sans-Serif" font-size="10.00">BrokerageModel.UnsupportedOrderType</text>
</a>
</g>
</g>
<!-- Node1&#45;&gt;Node3 -->
<g id="edge2" class="edge">
<title>Node1&#45;&gt;Node3</title>
<path fill="none" stroke="midnightblue" d="M206.36,-98.78C216.83,-99.83 227.51,-100.9 238.1,-101.96"/>
<polygon fill="midnightblue" stroke="midnightblue" points="237.92,-105.46 248.22,-102.98 238.62,-98.5 237.92,-105.46"/>
</g>
<!-- Node4 -->
<g id="node4" class="node">
<title>Node4</title>
<g id="a_node4"><a xlink:href="classQuantConnect_1_1Messages_1_1DefaultBrokerageModel.html#a1b9fa7f8e1c87b388c646fcef6cdb389" target="_top" xlink:title="Retunrns a string message saying the type of the given security is not supported by the given brokera...">
<polygon fill="white" stroke="black" points="242,-49.5 242,-79.5 466,-79.5 466,-49.5 242,-49.5"/>
<text text-anchor="start" x="250" y="-67.5" font-family="Helvetica,sans-Serif" font-size="10.00">QuantConnect.Messages.Default</text>
<text text-anchor="middle" x="354" y="-56.5" font-family="Helvetica,sans-Serif" font-size="10.00">BrokerageModel.UnsupportedSecurityType</text>
</a>
</g>
</g>
<!-- Node1&#45;&gt;Node4 -->
<g id="edge3" class="edge">
<title>Node1&#45;&gt;Node4</title>
<path fill="none" stroke="midnightblue" d="M206.36,-78.63C214.74,-77.83 223.27,-77 231.78,-76.18"/>
<polygon fill="midnightblue" stroke="midnightblue" points="232.12,-79.67 241.74,-75.22 231.45,-72.7 232.12,-79.67"/>
</g>
<!-- Node5 -->
<g id="node5" class="node">
<title>Node5</title>
<g id="a_node5"><a xlink:href="classQuantConnect_1_1Messages_1_1DefaultBrokerageModel.html#a99f68a9f346deb69c4e8d0b560d1ee73" target="_top" xlink:title="Returns a string message saying the Time In Force of the given order is unsupported by the given brok...">
<polygon fill="white" stroke="black" points="243.5,-0.5 243.5,-30.5 464.5,-30.5 464.5,-0.5 243.5,-0.5"/>
<text text-anchor="start" x="251.5" y="-18.5" font-family="Helvetica,sans-Serif" font-size="10.00">QuantConnect.Messages.Default</text>
<text text-anchor="middle" x="354" y="-7.5" font-family="Helvetica,sans-Serif" font-size="10.00">BrokerageModel.UnsupportedTimeInForce</text>
</a>
</g>
</g>
<!-- Node1&#45;&gt;Node5 -->
<g id="edge4" class="edge">
<title>Node1&#45;&gt;Node5</title>
<path fill="none" stroke="midnightblue" d="M143.48,-73.43C170.87,-63.31 208.34,-50.11 242,-40.5 251.33,-37.84 261.17,-35.27 270.97,-32.87"/>
<polygon fill="midnightblue" stroke="midnightblue" points="271.84,-36.26 280.75,-30.53 270.21,-29.46 271.84,-36.26"/>
</g>
</g>
</svg>
