<?xml version="1.0" encoding="UTF-8" standalone="no"?>
<!DOCTYPE svg PUBLIC "-//W3C//DTD SVG 1.1//EN"
 "http://www.w3.org/Graphics/SVG/1.1/DTD/svg11.dtd">
<!-- Generated by graphviz version 2.43.0 (0)
 -->
<!-- Title: QuantConnect.Lean.Engine.TransactionHandlers.BrokerageTransactionHandler.InitializeTransactionThread Pages: 1 -->
<svg width="939pt" height="160pt"
 viewBox="0.00 0.00 939.00 159.50" xmlns="http://www.w3.org/2000/svg" xmlns:xlink="http://www.w3.org/1999/xlink">
<g id="graph0" class="graph" transform="scale(1 1) rotate(0) translate(4 155.5)">
<title>QuantConnect.Lean.Engine.TransactionHandlers.BrokerageTransactionHandler.InitializeTransactionThread</title>
<polygon fill="white" stroke="transparent" points="-4,4 -4,-155.5 935,-155.5 935,4 -4,4"/>
<!-- Node1 -->
<g id="node1" class="node">
<title>Node1</title>
<g id="a_node1"><a xlink:title="Create and start the transaction thread, who will be in charge of processing the order requests">
<polygon fill="#bfbfbf" stroke="black" points="0,-50 0,-91 224,-91 224,-50 0,-50"/>
<text text-anchor="start" x="8" y="-79" font-family="Helvetica,sans-Serif" font-size="10.00">QuantConnect.Lean.Engine.</text>
<text text-anchor="start" x="8" y="-68" font-family="Helvetica,sans-Serif" font-size="10.00">TransactionHandlers.BrokerageTransaction</text>
<text text-anchor="middle" x="112" y="-57" font-family="Helvetica,sans-Serif" font-size="10.00">Handler.InitializeTransactionThread</text>
</a>
</g>
</g>
<!-- Node2 -->
<g id="node2" class="node">
<title>Node2</title>
<g id="a_node2"><a xlink:href="classQuantConnect_1_1Lean_1_1Engine_1_1TransactionHandlers_1_1BrokerageTransactionHandler.html#a477c8a3adb1be235898839e1cef7503e" target="_top" xlink:title="Primary thread entry point to launch the transaction thread.">
<polygon fill="white" stroke="black" points="260,-50 260,-91 484,-91 484,-50 260,-50"/>
<text text-anchor="start" x="268" y="-79" font-family="Helvetica,sans-Serif" font-size="10.00">QuantConnect.Lean.Engine.</text>
<text text-anchor="start" x="268" y="-68" font-family="Helvetica,sans-Serif" font-size="10.00">TransactionHandlers.BrokerageTransaction</text>
<text text-anchor="middle" x="372" y="-57" font-family="Helvetica,sans-Serif" font-size="10.00">Handler.Run</text>
</a>
</g>
</g>
<!-- Node1&#45;&gt;Node2 -->
<g id="edge1" class="edge">
<title>Node1&#45;&gt;Node2</title>
<path fill="none" stroke="midnightblue" d="M224.29,-70.5C232.63,-70.5 241.06,-70.5 249.46,-70.5"/>
<polygon fill="midnightblue" stroke="midnightblue" points="249.67,-74 259.67,-70.5 249.67,-67 249.67,-74"/>
</g>
<!-- Node3 -->
<g id="node3" class="node">
<title>Node3</title>
<g id="a_node3"><a xlink:href="classQuantConnect_1_1Lean_1_1Engine_1_1TransactionHandlers_1_1BrokerageTransactionHandler.html#aba770aab9844310dafb4fb7c7794adc9" target="_top" xlink:title="Handles a generic order request">
<polygon fill="white" stroke="black" points="520,-110 520,-151 744,-151 744,-110 520,-110"/>
<text text-anchor="start" x="528" y="-139" font-family="Helvetica,sans-Serif" font-size="10.00">QuantConnect.Lean.Engine.</text>
<text text-anchor="start" x="528" y="-128" font-family="Helvetica,sans-Serif" font-size="10.00">TransactionHandlers.BrokerageTransaction</text>
<text text-anchor="middle" x="632" y="-117" font-family="Helvetica,sans-Serif" font-size="10.00">Handler.HandleOrderRequest</text>
</a>
</g>
</g>
<!-- Node2&#45;&gt;Node3 -->
<g id="edge2" class="edge">
<title>Node2&#45;&gt;Node3</title>
<path fill="none" stroke="midnightblue" d="M461.43,-91.06C484.4,-96.41 509.29,-102.2 532.74,-107.65"/>
<polygon fill="midnightblue" stroke="midnightblue" points="532.15,-111.11 542.69,-109.96 533.74,-104.29 532.15,-111.11"/>
</g>
<!-- Node5 -->
<g id="node5" class="node">
<title>Node5</title>
<g id="a_node5"><a xlink:href="classQuantConnect_1_1Lean_1_1Engine_1_1TransactionHandlers_1_1BrokerageTransactionHandler.html#abd6ad9f599d8b799f22df59a1d6bd1c9" target="_top" xlink:title="Processes asynchronous events on the transaction handler&#39;s thread">
<polygon fill="white" stroke="black" points="520,-50 520,-91 744,-91 744,-50 520,-50"/>
<text text-anchor="start" x="528" y="-79" font-family="Helvetica,sans-Serif" font-size="10.00">QuantConnect.Lean.Engine.</text>
<text text-anchor="start" x="528" y="-68" font-family="Helvetica,sans-Serif" font-size="10.00">TransactionHandlers.BrokerageTransaction</text>
<text text-anchor="middle" x="632" y="-57" font-family="Helvetica,sans-Serif" font-size="10.00">Handler.ProcessAsynchronousEvents</text>
</a>
</g>
</g>
<!-- Node2&#45;&gt;Node5 -->
<g id="edge4" class="edge">
<title>Node2&#45;&gt;Node5</title>
<path fill="none" stroke="midnightblue" d="M484.29,-70.5C492.63,-70.5 501.06,-70.5 509.46,-70.5"/>
<polygon fill="midnightblue" stroke="midnightblue" points="509.67,-74 519.67,-70.5 509.67,-67 509.67,-74"/>
</g>
<!-- Node6 -->
<g id="node6" class="node">
<title>Node6</title>
<g id="a_node6"><a xlink:href="classQuantConnect_1_1Logging_1_1Log.html#a4e55477fbc790846b74550a57198cea9" target="_top" xlink:title="Log trace">
<polygon fill="white" stroke="black" points="557,-0.5 557,-30.5 707,-30.5 707,-0.5 557,-0.5"/>
<text text-anchor="start" x="565" y="-18.5" font-family="Helvetica,sans-Serif" font-size="10.00">QuantConnect.Logging.Log.</text>
<text text-anchor="middle" x="632" y="-7.5" font-family="Helvetica,sans-Serif" font-size="10.00">Trace</text>
</a>
</g>
</g>
<!-- Node2&#45;&gt;Node6 -->
<g id="edge5" class="edge">
<title>Node2&#45;&gt;Node6</title>
<path fill="none" stroke="midnightblue" d="M469.44,-49.94C496.1,-44.26 524.74,-38.15 550.4,-32.68"/>
<polygon fill="midnightblue" stroke="midnightblue" points="551.4,-36.05 560.45,-30.54 549.94,-29.2 551.4,-36.05"/>
</g>
<!-- Node4 -->
<g id="node4" class="node">
<title>Node4</title>
<g id="a_node4"><a xlink:href="classQuantConnect_1_1Orders_1_1OrderRequest.html#aed73f8f311c9224866211078cd6caef1" target="_top" xlink:title="Sets the Response for this request">
<polygon fill="white" stroke="black" points="780,-115.5 780,-145.5 931,-145.5 931,-115.5 780,-115.5"/>
<text text-anchor="start" x="788" y="-133.5" font-family="Helvetica,sans-Serif" font-size="10.00">QuantConnect.Orders.Order</text>
<text text-anchor="middle" x="855.5" y="-122.5" font-family="Helvetica,sans-Serif" font-size="10.00">Request.SetResponse</text>
</a>
</g>
</g>
<!-- Node3&#45;&gt;Node4 -->
<g id="edge3" class="edge">
<title>Node3&#45;&gt;Node4</title>
<path fill="none" stroke="midnightblue" d="M744.07,-130.5C752.67,-130.5 761.26,-130.5 769.64,-130.5"/>
<polygon fill="midnightblue" stroke="midnightblue" points="769.75,-134 779.75,-130.5 769.75,-127 769.75,-134"/>
</g>
<!-- Node7 -->
<g id="node7" class="node">
<title>Node7</title>
<g id="a_node7"><a xlink:href="interfaceQuantConnect_1_1Logging_1_1ILogHandler.html#a3fb71a33ac66129240b63f12b6fcda3b" target="_top" xlink:title="Write debug message to log">
<polygon fill="white" stroke="black" points="780.5,-0.5 780.5,-30.5 930.5,-30.5 930.5,-0.5 780.5,-0.5"/>
<text text-anchor="start" x="788.5" y="-18.5" font-family="Helvetica,sans-Serif" font-size="10.00">QuantConnect.Logging.ILog</text>
<text text-anchor="middle" x="855.5" y="-7.5" font-family="Helvetica,sans-Serif" font-size="10.00">Handler.Trace</text>
</a>
</g>
</g>
<!-- Node6&#45;&gt;Node7 -->
<g id="edge6" class="edge">
<title>Node6&#45;&gt;Node7</title>
<path fill="none" stroke="midnightblue" d="M707.06,-15.5C727.28,-15.5 749.32,-15.5 770.06,-15.5"/>
<polygon fill="midnightblue" stroke="midnightblue" points="770.13,-19 780.13,-15.5 770.13,-12 770.13,-19"/>
</g>
</g>
</svg>
