<?xml version="1.0" encoding="UTF-8" standalone="no"?>
<!DOCTYPE svg PUBLIC "-//W3C//DTD SVG 1.1//EN"
 "http://www.w3.org/Graphics/SVG/1.1/DTD/svg11.dtd">
<!-- Generated by graphviz version 2.43.0 (0)
 -->
<!-- Title: QuantConnect.Messages.DefaultBrokerageModel.UnsupportedOrderType Pages: 1 -->
<svg width="479pt" height="894pt"
 viewBox="0.00 0.00 479.00 893.50" xmlns="http://www.w3.org/2000/svg" xmlns:xlink="http://www.w3.org/1999/xlink">
<g id="graph0" class="graph" transform="scale(1 1) rotate(0) translate(4 889.5)">
<title>QuantConnect.Messages.DefaultBrokerageModel.UnsupportedOrderType</title>
<polygon fill="white" stroke="transparent" points="-4,4 -4,-889.5 475,-889.5 475,4 -4,4"/>
<!-- Node1 -->
<g id="node1" class="node">
<title>Node1</title>
<g id="a_node1"><a xlink:title="Returns a string message saying the type of the given order is unsupported by the given brokerage mod...">
<polygon fill="#bfbfbf" stroke="black" points="260,-427.5 260,-457.5 471,-457.5 471,-427.5 260,-427.5"/>
<text text-anchor="start" x="268" y="-445.5" font-family="Helvetica,sans-Serif" font-size="10.00">QuantConnect.Messages.Default</text>
<text text-anchor="middle" x="365.5" y="-434.5" font-family="Helvetica,sans-Serif" font-size="10.00">BrokerageModel.UnsupportedOrderType</text>
</a>
</g>
</g>
<!-- Node2 -->
<g id="node2" class="node">
<title>Node2</title>
<g id="a_node2"><a xlink:href="classQuantConnect_1_1Brokerages_1_1TDAmeritradeBrokerageModel.html#ab8d95519106607a7f184cbafeb10e2bd" target="_top" xlink:title="Returns true if the brokerage could accept this order. This takes into account order type,...">
<polygon fill="white" stroke="black" points="19,-844 19,-885 205,-885 205,-844 19,-844"/>
<text text-anchor="start" x="27" y="-873" font-family="Helvetica,sans-Serif" font-size="10.00">QuantConnect.Brokerages.</text>
<text text-anchor="start" x="27" y="-862" font-family="Helvetica,sans-Serif" font-size="10.00">TDAmeritradeBrokerageModel.Can</text>
<text text-anchor="middle" x="112" y="-851" font-family="Helvetica,sans-Serif" font-size="10.00">SubmitOrder</text>
</a>
</g>
</g>
<!-- Node1&#45;&gt;Node2 -->
<g id="edge1" class="edge">
<title>Node1&#45;&gt;Node2</title>
<path fill="none" stroke="midnightblue" d="M363.21,-467.57C358.27,-536.81 334.69,-732.34 224,-834.5 218.43,-839.64 212.06,-843.92 205.26,-847.48"/>
<polygon fill="midnightblue" stroke="midnightblue" points="366.71,-467.77 363.86,-457.57 359.72,-467.33 366.71,-467.77"/>
</g>
<!-- Node3 -->
<g id="node3" class="node">
<title>Node3</title>
<g id="a_node3"><a xlink:href="classQuantConnect_1_1Brokerages_1_1TradierBrokerageModel.html#a5cafb36dfeec2e93a72842cc12ee9ec3" target="_top" xlink:title="Returns true if the brokerage could accept this order. This takes into account order type,...">
<polygon fill="white" stroke="black" points="6,-794.5 6,-824.5 218,-824.5 218,-794.5 6,-794.5"/>
<text text-anchor="start" x="14" y="-812.5" font-family="Helvetica,sans-Serif" font-size="10.00">QuantConnect.Brokerages.</text>
<text text-anchor="middle" x="112" y="-801.5" font-family="Helvetica,sans-Serif" font-size="10.00">TradierBrokerageModel.CanSubmitOrder</text>
</a>
</g>
</g>
<!-- Node1&#45;&gt;Node3 -->
<g id="edge2" class="edge">
<title>Node1&#45;&gt;Node3</title>
<path fill="none" stroke="midnightblue" d="M362.05,-467.7C354.42,-531.57 325.18,-700.71 224,-785.5 219.92,-788.92 215.47,-791.88 210.76,-794.45"/>
<polygon fill="midnightblue" stroke="midnightblue" points="365.53,-468.04 363.16,-457.71 358.57,-467.26 365.53,-468.04"/>
</g>
<!-- Node4 -->
<g id="node4" class="node">
<title>Node4</title>
<g id="a_node4"><a xlink:href="classQuantConnect_1_1Brokerages_1_1AlpacaBrokerageModel.html#a04d501bf540777399b750bc427d0255e" target="_top" xlink:title="Returns true if the brokerage could accept this order. This takes into account order type,...">
<polygon fill="white" stroke="black" points="6,-745.5 6,-775.5 218,-775.5 218,-745.5 6,-745.5"/>
<text text-anchor="start" x="14" y="-763.5" font-family="Helvetica,sans-Serif" font-size="10.00">QuantConnect.Brokerages.</text>
<text text-anchor="middle" x="112" y="-752.5" font-family="Helvetica,sans-Serif" font-size="10.00">AlpacaBrokerageModel.CanSubmitOrder</text>
</a>
</g>
</g>
<!-- Node1&#45;&gt;Node4 -->
<g id="edge3" class="edge">
<title>Node1&#45;&gt;Node4</title>
<path fill="none" stroke="midnightblue" d="M360.19,-467.58C348.96,-524.9 313.22,-665.97 224,-736.5 219.67,-739.92 214.96,-742.89 210,-745.45"/>
<polygon fill="midnightblue" stroke="midnightblue" points="363.66,-468.05 362.06,-457.58 356.78,-466.76 363.66,-468.05"/>
</g>
<!-- Node5 -->
<g id="node5" class="node">
<title>Node5</title>
<g id="a_node5"><a xlink:href="classQuantConnect_1_1Brokerages_1_1FxcmBrokerageModel.html#a61af8db4afef0f9ffab92a44c87dc37a" target="_top" xlink:title="Returns true if the brokerage could accept this order. This takes into account order type,...">
<polygon fill="white" stroke="black" points="9,-696.5 9,-726.5 215,-726.5 215,-696.5 9,-696.5"/>
<text text-anchor="start" x="17" y="-714.5" font-family="Helvetica,sans-Serif" font-size="10.00">QuantConnect.Brokerages.</text>
<text text-anchor="middle" x="112" y="-703.5" font-family="Helvetica,sans-Serif" font-size="10.00">FxcmBrokerageModel.CanSubmitOrder</text>
</a>
</g>
</g>
<!-- Node1&#45;&gt;Node5 -->
<g id="edge4" class="edge">
<title>Node1&#45;&gt;Node5</title>
<path fill="none" stroke="midnightblue" d="M357.58,-467.38C342.34,-517.31 300.97,-629.79 224,-686.5 218.75,-690.37 213.01,-693.65 206.99,-696.44"/>
<polygon fill="midnightblue" stroke="midnightblue" points="360.96,-468.3 360.44,-457.71 354.25,-466.31 360.96,-468.3"/>
</g>
<!-- Node6 -->
<g id="node6" class="node">
<title>Node6</title>
<g id="a_node6"><a xlink:href="classQuantConnect_1_1Brokerages_1_1CharlesSchwabBrokerageModel.html#a60c473d233ed9d7a2b074abbe2b7eafd" target="_top" xlink:title="Returns true if the brokerage could accept this order. This takes into account order type,...">
<polygon fill="white" stroke="black" points="25.5,-636 25.5,-677 198.5,-677 198.5,-636 25.5,-636"/>
<text text-anchor="start" x="33.5" y="-665" font-family="Helvetica,sans-Serif" font-size="10.00">QuantConnect.Brokerages.</text>
<text text-anchor="start" x="33.5" y="-654" font-family="Helvetica,sans-Serif" font-size="10.00">CharlesSchwabBrokerageModel.</text>
<text text-anchor="middle" x="112" y="-643" font-family="Helvetica,sans-Serif" font-size="10.00">CanSubmitOrder</text>
</a>
</g>
</g>
<!-- Node1&#45;&gt;Node6 -->
<g id="edge5" class="edge">
<title>Node1&#45;&gt;Node6</title>
<path fill="none" stroke="midnightblue" d="M352.72,-466.76C332.22,-506.39 286.14,-584.78 224,-626.5 216.21,-631.73 207.54,-636.05 198.57,-639.62"/>
<polygon fill="midnightblue" stroke="midnightblue" points="355.98,-468.07 357.38,-457.57 349.74,-464.91 355.98,-468.07"/>
</g>
<!-- Node7 -->
<g id="node7" class="node">
<title>Node7</title>
<g id="a_node7"><a xlink:href="classQuantConnect_1_1Brokerages_1_1OandaBrokerageModel.html#a6ffa416d7e1d45b19cde345a92b77241" target="_top" xlink:title="Returns true if the brokerage could accept this order. This takes into account order type,...">
<polygon fill="white" stroke="black" points="6.5,-586.5 6.5,-616.5 217.5,-616.5 217.5,-586.5 6.5,-586.5"/>
<text text-anchor="start" x="14.5" y="-604.5" font-family="Helvetica,sans-Serif" font-size="10.00">QuantConnect.Brokerages.</text>
<text text-anchor="middle" x="112" y="-593.5" font-family="Helvetica,sans-Serif" font-size="10.00">OandaBrokerageModel.CanSubmitOrder</text>
</a>
</g>
</g>
<!-- Node1&#45;&gt;Node7 -->
<g id="edge6" class="edge">
<title>Node1&#45;&gt;Node7</title>
<path fill="none" stroke="midnightblue" d="M347.03,-465.63C322.83,-495.96 276.15,-548.57 224,-576.5 216.77,-580.37 208.97,-583.64 200.97,-586.41"/>
<polygon fill="midnightblue" stroke="midnightblue" points="349.83,-467.74 353.24,-457.71 344.32,-463.42 349.83,-467.74"/>
</g>
<!-- Node8 -->
<g id="node8" class="node">
<title>Node8</title>
<g id="a_node8"><a xlink:href="classQuantConnect_1_1Brokerages_1_1TradeStationBrokerageModel.html#a58602d464d2a71f7cfc88154f2b41e97" target="_top" xlink:title="Returns true if the brokerage could accept this order. This takes into account order type,...">
<polygon fill="white" stroke="black" points="22.5,-526 22.5,-567 201.5,-567 201.5,-526 22.5,-526"/>
<text text-anchor="start" x="30.5" y="-555" font-family="Helvetica,sans-Serif" font-size="10.00">QuantConnect.Brokerages.</text>
<text text-anchor="start" x="30.5" y="-544" font-family="Helvetica,sans-Serif" font-size="10.00">TradeStationBrokerageModel.Can</text>
<text text-anchor="middle" x="112" y="-533" font-family="Helvetica,sans-Serif" font-size="10.00">SubmitOrder</text>
</a>
</g>
</g>
<!-- Node1&#45;&gt;Node8 -->
<g id="edge7" class="edge">
<title>Node1&#45;&gt;Node8</title>
<path fill="none" stroke="midnightblue" d="M330.99,-462.85C303.14,-479.1 262.04,-501.56 224,-516.5 215.36,-519.89 206.2,-523.05 196.99,-525.93"/>
<polygon fill="midnightblue" stroke="midnightblue" points="333.07,-465.69 339.91,-457.6 329.52,-459.66 333.07,-465.69"/>
</g>
<!-- Node9 -->
<g id="node9" class="node">
<title>Node9</title>
<g id="a_node9"><a xlink:href="classQuantConnect_1_1Brokerages_1_1EzeBrokerageModel.html#a6035ac6b20a6f5696612aa7ef8be8618" target="_top" xlink:title="Returns true if the brokerage could accept this order. This takes into account order type,...">
<polygon fill="white" stroke="black" points="13.5,-476.5 13.5,-506.5 210.5,-506.5 210.5,-476.5 13.5,-476.5"/>
<text text-anchor="start" x="21.5" y="-494.5" font-family="Helvetica,sans-Serif" font-size="10.00">QuantConnect.Brokerages.</text>
<text text-anchor="middle" x="112" y="-483.5" font-family="Helvetica,sans-Serif" font-size="10.00">EzeBrokerageModel.CanSubmitOrder</text>
</a>
</g>
</g>
<!-- Node1&#45;&gt;Node9 -->
<g id="edge8" class="edge">
<title>Node1&#45;&gt;Node9</title>
<path fill="none" stroke="midnightblue" d="M277.41,-459.47C248.99,-465 217.65,-471.11 190.02,-476.49"/>
<polygon fill="midnightblue" stroke="midnightblue" points="278.19,-462.88 287.33,-457.53 276.85,-456.01 278.19,-462.88"/>
</g>
<!-- Node10 -->
<g id="node10" class="node">
<title>Node10</title>
<g id="a_node10"><a xlink:href="classQuantConnect_1_1Brokerages_1_1KrakenBrokerageModel.html#a37692d0d24f80c27c244a226333edbc5" target="_top" xlink:title="Returns true if the brokerage could accept this order. This takes into account order type,...">
<polygon fill="white" stroke="black" points="5.5,-427.5 5.5,-457.5 218.5,-457.5 218.5,-427.5 5.5,-427.5"/>
<text text-anchor="start" x="13.5" y="-445.5" font-family="Helvetica,sans-Serif" font-size="10.00">QuantConnect.Brokerages.</text>
<text text-anchor="middle" x="112" y="-434.5" font-family="Helvetica,sans-Serif" font-size="10.00">KrakenBrokerageModel.CanSubmitOrder</text>
</a>
</g>
</g>
<!-- Node1&#45;&gt;Node10 -->
<g id="edge9" class="edge">
<title>Node1&#45;&gt;Node10</title>
<path fill="none" stroke="midnightblue" d="M249.5,-442.5C239.3,-442.5 229,-442.5 218.88,-442.5"/>
<polygon fill="midnightblue" stroke="midnightblue" points="249.66,-446 259.66,-442.5 249.66,-439 249.66,-446"/>
</g>
<!-- Node11 -->
<g id="node11" class="node">
<title>Node11</title>
<g id="a_node11"><a xlink:href="classQuantConnect_1_1Brokerages_1_1ZerodhaBrokerageModel.html#a4eeb48a3011161153ca0823acba53188" target="_top" xlink:title="Returns true if the brokerage could accept this order. This takes into account order type,...">
<polygon fill="white" stroke="black" points="2,-378.5 2,-408.5 222,-408.5 222,-378.5 2,-378.5"/>
<text text-anchor="start" x="10" y="-396.5" font-family="Helvetica,sans-Serif" font-size="10.00">QuantConnect.Brokerages.</text>
<text text-anchor="middle" x="112" y="-385.5" font-family="Helvetica,sans-Serif" font-size="10.00">ZerodhaBrokerageModel.CanSubmitOrder</text>
</a>
</g>
</g>
<!-- Node1&#45;&gt;Node11 -->
<g id="edge10" class="edge">
<title>Node1&#45;&gt;Node11</title>
<path fill="none" stroke="midnightblue" d="M277.41,-425.53C248.99,-420 217.65,-413.89 190.02,-408.51"/>
<polygon fill="midnightblue" stroke="midnightblue" points="276.85,-428.99 287.33,-427.47 278.19,-422.12 276.85,-428.99"/>
</g>
<!-- Node12 -->
<g id="node12" class="node">
<title>Node12</title>
<g id="a_node12"><a xlink:href="classQuantConnect_1_1Brokerages_1_1SamcoBrokerageModel.html#a18b05ebe0505ed19f2e85c8519cdd161" target="_top" xlink:title="Returns true if the brokerage could accept this order. This takes into account order type,...">
<polygon fill="white" stroke="black" points="6,-329.5 6,-359.5 218,-359.5 218,-329.5 6,-329.5"/>
<text text-anchor="start" x="14" y="-347.5" font-family="Helvetica,sans-Serif" font-size="10.00">QuantConnect.Brokerages.</text>
<text text-anchor="middle" x="112" y="-336.5" font-family="Helvetica,sans-Serif" font-size="10.00">SamcoBrokerageModel.CanSubmitOrder</text>
</a>
</g>
</g>
<!-- Node1&#45;&gt;Node12 -->
<g id="edge11" class="edge">
<title>Node1&#45;&gt;Node12</title>
<path fill="none" stroke="midnightblue" d="M331.12,-422.02C303.33,-405.75 262.27,-383.49 224,-369.5 213.7,-365.74 202.65,-362.43 191.66,-359.56"/>
<polygon fill="midnightblue" stroke="midnightblue" points="329.62,-425.2 340.01,-427.29 333.19,-419.18 329.62,-425.2"/>
</g>
<!-- Node13 -->
<g id="node13" class="node">
<title>Node13</title>
<g id="a_node13"><a xlink:href="classQuantConnect_1_1Brokerages_1_1AxosClearingBrokerageModel.html#ac3bf891d05ac4d7c03d3516c4bdc8d25" target="_top" xlink:title="Returns true if the brokerage could accept this order.">
<polygon fill="white" stroke="black" points="21,-269 21,-310 203,-310 203,-269 21,-269"/>
<text text-anchor="start" x="29" y="-298" font-family="Helvetica,sans-Serif" font-size="10.00">QuantConnect.Brokerages.</text>
<text text-anchor="start" x="29" y="-287" font-family="Helvetica,sans-Serif" font-size="10.00">AxosClearingBrokerageModel.Can</text>
<text text-anchor="middle" x="112" y="-276" font-family="Helvetica,sans-Serif" font-size="10.00">SubmitOrder</text>
</a>
</g>
</g>
<!-- Node1&#45;&gt;Node13 -->
<g id="edge12" class="edge">
<title>Node1&#45;&gt;Node13</title>
<path fill="none" stroke="midnightblue" d="M344.46,-419.79C319.05,-392.38 272.68,-346.69 224,-320.5 216.69,-316.57 208.83,-313.09 200.79,-310.03"/>
<polygon fill="midnightblue" stroke="midnightblue" points="342.02,-422.32 351.35,-427.34 347.19,-417.6 342.02,-422.32"/>
</g>
<!-- Node14 -->
<g id="node14" class="node">
<title>Node14</title>
<g id="a_node14"><a xlink:href="classQuantConnect_1_1Brokerages_1_1TradingTechnologiesBrokerageModel.html#aa842463e6a482ed38c88e72f7e23deae" target="_top" xlink:title="Returns true if the brokerage could accept this order. This takes into account order type,...">
<polygon fill="white" stroke="black" points="30,-209 30,-250 194,-250 194,-209 30,-209"/>
<text text-anchor="start" x="38" y="-238" font-family="Helvetica,sans-Serif" font-size="10.00">QuantConnect.Brokerages.</text>
<text text-anchor="start" x="38" y="-227" font-family="Helvetica,sans-Serif" font-size="10.00">TradingTechnologiesBrokerage</text>
<text text-anchor="middle" x="112" y="-216" font-family="Helvetica,sans-Serif" font-size="10.00">Model.CanSubmitOrder</text>
</a>
</g>
</g>
<!-- Node1&#45;&gt;Node14 -->
<g id="edge13" class="edge">
<title>Node1&#45;&gt;Node14</title>
<path fill="none" stroke="midnightblue" d="M352.54,-418.08C331.9,-378.57 285.83,-300.9 224,-259.5 214.96,-253.45 204.74,-248.61 194.25,-244.75"/>
<polygon fill="midnightblue" stroke="midnightblue" points="349.56,-419.94 357.23,-427.25 355.79,-416.76 349.56,-419.94"/>
</g>
<!-- Node15 -->
<g id="node15" class="node">
<title>Node15</title>
<g id="a_node15"><a xlink:href="classQuantConnect_1_1Brokerages_1_1FTXBrokerageModel.html#a0986a3547ce500de8dd64cfecb1ee51a" target="_top" xlink:title="Returns true if the brokerage could accept this order. This takes into account order type,...">
<polygon fill="white" stroke="black" points="13.5,-159.5 13.5,-189.5 210.5,-189.5 210.5,-159.5 13.5,-159.5"/>
<text text-anchor="start" x="21.5" y="-177.5" font-family="Helvetica,sans-Serif" font-size="10.00">QuantConnect.Brokerages.</text>
<text text-anchor="middle" x="112" y="-166.5" font-family="Helvetica,sans-Serif" font-size="10.00">FTXBrokerageModel.CanSubmitOrder</text>
</a>
</g>
</g>
<!-- Node1&#45;&gt;Node15 -->
<g id="edge14" class="edge">
<title>Node1&#45;&gt;Node15</title>
<path fill="none" stroke="midnightblue" d="M357.55,-417.72C342.25,-367.99 300.79,-255.96 224,-199.5 218.75,-195.64 213.01,-192.36 206.99,-189.57"/>
<polygon fill="midnightblue" stroke="midnightblue" points="354.21,-418.76 360.42,-427.35 360.91,-416.76 354.21,-418.76"/>
</g>
<!-- Node16 -->
<g id="node16" class="node">
<title>Node16</title>
<g id="a_node16"><a xlink:href="classQuantConnect_1_1Brokerages_1_1BinanceBrokerageModel.html#af507b6758cdf1e40f10c71a2518d0ad7" target="_top" xlink:title="Returns true if the brokerage could accept this order. This takes into account order type,...">
<polygon fill="white" stroke="black" points="3,-110.5 3,-140.5 221,-140.5 221,-110.5 3,-110.5"/>
<text text-anchor="start" x="11" y="-128.5" font-family="Helvetica,sans-Serif" font-size="10.00">QuantConnect.Brokerages.</text>
<text text-anchor="middle" x="112" y="-117.5" font-family="Helvetica,sans-Serif" font-size="10.00">BinanceBrokerageModel.CanSubmitOrder</text>
</a>
</g>
</g>
<!-- Node1&#45;&gt;Node16 -->
<g id="edge15" class="edge">
<title>Node1&#45;&gt;Node16</title>
<path fill="none" stroke="midnightblue" d="M360.01,-417.24C348.49,-360.16 312.31,-220.74 224,-150.5 219.13,-146.63 213.78,-143.33 208.14,-140.52"/>
<polygon fill="midnightblue" stroke="midnightblue" points="356.61,-418.06 361.94,-427.21 363.48,-416.73 356.61,-418.06"/>
</g>
<!-- Node17 -->
<g id="node17" class="node">
<title>Node17</title>
<g id="a_node17"><a xlink:href="classQuantConnect_1_1Brokerages_1_1InteractiveBrokersBrokerageModel.html#af537682306a2e5b2ff66443057dd626a" target="_top" xlink:title="Returns true if the brokerage could accept this order. This takes into account order type,...">
<polygon fill="white" stroke="black" points="18,-50 18,-91 206,-91 206,-50 18,-50"/>
<text text-anchor="start" x="26" y="-79" font-family="Helvetica,sans-Serif" font-size="10.00">QuantConnect.Brokerages.</text>
<text text-anchor="start" x="26" y="-68" font-family="Helvetica,sans-Serif" font-size="10.00">InteractiveBrokersBrokerageModel.</text>
<text text-anchor="middle" x="112" y="-57" font-family="Helvetica,sans-Serif" font-size="10.00">CanSubmitOrder</text>
</a>
</g>
</g>
<!-- Node1&#45;&gt;Node17 -->
<g id="edge16" class="edge">
<title>Node1&#45;&gt;Node17</title>
<path fill="none" stroke="midnightblue" d="M361.58,-416.96C352.97,-353.66 321.78,-188.33 224,-101.5 218.61,-96.72 212.55,-92.67 206.1,-89.24"/>
<polygon fill="midnightblue" stroke="midnightblue" points="358.16,-417.75 362.9,-427.22 365.1,-416.86 358.16,-417.75"/>
</g>
<!-- Node18 -->
<g id="node18" class="node">
<title>Node18</title>
<g id="a_node18"><a xlink:href="classQuantConnect_1_1Brokerages_1_1CoinbaseBrokerageModel.html#a4733c3d643ca7eec26b1387e093bf1d4" target="_top" xlink:title="Evaluates whether exchange will accept order. Will reject order update">
<polygon fill="white" stroke="black" points="0,-0.5 0,-30.5 224,-30.5 224,-0.5 0,-0.5"/>
<text text-anchor="start" x="8" y="-18.5" font-family="Helvetica,sans-Serif" font-size="10.00">QuantConnect.Brokerages.</text>
<text text-anchor="middle" x="112" y="-7.5" font-family="Helvetica,sans-Serif" font-size="10.00">CoinbaseBrokerageModel.CanSubmitOrder</text>
</a>
</g>
</g>
<!-- Node1&#45;&gt;Node18 -->
<g id="edge17" class="edge">
<title>Node1&#45;&gt;Node18</title>
<path fill="none" stroke="midnightblue" d="M363.69,-417.05C359.96,-345.86 339.25,-143.23 224,-40.5 219.72,-36.69 214.99,-33.42 209.96,-30.62"/>
<polygon fill="midnightblue" stroke="midnightblue" points="360.2,-417.48 364.15,-427.31 367.19,-417.16 360.2,-417.48"/>
</g>
</g>
</svg>
