<?xml version="1.0" encoding="UTF-8" standalone="no"?>
<!DOCTYPE svg PUBLIC "-//W3C//DTD SVG 1.1//EN"
 "http://www.w3.org/Graphics/SVG/1.1/DTD/svg11.dtd">
<!-- Generated by graphviz version 2.43.0 (0)
 -->
<!-- Title: QuantConnect.Exceptions.KeyErrorPythonExceptionInterpreter.Interpret Pages: 1 -->
<svg width="414pt" height="100pt"
 viewBox="0.00 0.00 414.00 99.50" xmlns="http://www.w3.org/2000/svg" xmlns:xlink="http://www.w3.org/1999/xlink">
<g id="graph0" class="graph" transform="scale(1 1) rotate(0) translate(4 95.5)">
<title>QuantConnect.Exceptions.KeyErrorPythonExceptionInterpreter.Interpret</title>
<polygon fill="white" stroke="transparent" points="-4,4 -4,-95.5 410,-95.5 410,4 -4,4"/>
<!-- Node1 -->
<g id="node1" class="node">
<title>Node1</title>
<g id="a_node1"><a xlink:title="Interprets the specified exception into a new exception">
<polygon fill="#bfbfbf" stroke="black" points="0,-22 0,-63 194,-63 194,-22 0,-22"/>
<text text-anchor="start" x="8" y="-51" font-family="Helvetica,sans-Serif" font-size="10.00">QuantConnect.Exceptions.</text>
<text text-anchor="start" x="8" y="-40" font-family="Helvetica,sans-Serif" font-size="10.00">KeyErrorPythonExceptionInterpreter.</text>
<text text-anchor="middle" x="97" y="-29" font-family="Helvetica,sans-Serif" font-size="10.00">Interpret</text>
</a>
</g>
</g>
<!-- Node2 -->
<g id="node2" class="node">
<title>Node2</title>
<g id="a_node2"><a xlink:href="classQuantConnect_1_1Messages_1_1KeyErrorPythonExceptionInterpreter.html#abbe15e602a8b6f1c444b8326f6b44b94" target="_top" xlink:title="Returns a string message saying the given key does not exists in the collection and the exception tha...">
<polygon fill="white" stroke="black" points="230,-50 230,-91 406,-91 406,-50 230,-50"/>
<text text-anchor="start" x="238" y="-79" font-family="Helvetica,sans-Serif" font-size="10.00">QuantConnect.Messages.Key</text>
<text text-anchor="start" x="238" y="-68" font-family="Helvetica,sans-Serif" font-size="10.00">ErrorPythonExceptionInterpreter.</text>
<text text-anchor="middle" x="318" y="-57" font-family="Helvetica,sans-Serif" font-size="10.00">KeyNotFoundInCollection</text>
</a>
</g>
</g>
<!-- Node1&#45;&gt;Node2 -->
<g id="edge1" class="edge">
<title>Node1&#45;&gt;Node2</title>
<path fill="none" stroke="midnightblue" d="M194.06,-54.78C202.65,-55.88 211.35,-56.99 219.95,-58.09"/>
<polygon fill="midnightblue" stroke="midnightblue" points="219.62,-61.58 229.98,-59.37 220.51,-54.63 219.62,-61.58"/>
</g>
<!-- Node3 -->
<g id="node3" class="node">
<title>Node3</title>
<g id="a_node3"><a xlink:href="classQuantConnect_1_1Util_1_1PythonUtil.html#a092a2692ea8e8fd23fe5e3b3357c336f" target="_top" xlink:title="Parsers PythonException.StackTrace into a readable message">
<polygon fill="white" stroke="black" points="230,-0.5 230,-30.5 406,-30.5 406,-0.5 230,-0.5"/>
<text text-anchor="start" x="238" y="-18.5" font-family="Helvetica,sans-Serif" font-size="10.00">QuantConnect.Util.Python</text>
<text text-anchor="middle" x="318" y="-7.5" font-family="Helvetica,sans-Serif" font-size="10.00">Util.PythonExceptionStackParser</text>
</a>
</g>
</g>
<!-- Node1&#45;&gt;Node3 -->
<g id="edge2" class="edge">
<title>Node1&#45;&gt;Node3</title>
<path fill="none" stroke="midnightblue" d="M194.06,-30.66C202.65,-29.6 211.35,-28.53 219.95,-27.47"/>
<polygon fill="midnightblue" stroke="midnightblue" points="220.49,-30.93 229.98,-26.23 219.63,-23.98 220.49,-30.93"/>
</g>
</g>
</svg>
