<?xml version="1.0" encoding="UTF-8" standalone="no"?>
<!DOCTYPE svg PUBLIC "-//W3C//DTD SVG 1.1//EN"
 "http://www.w3.org/Graphics/SVG/1.1/DTD/svg11.dtd">
<!-- Generated by graphviz version 2.43.0 (0)
 -->
<!-- Title: QuantConnect.Orders.OrderEvent.ToString Pages: 1 -->
<svg width="753pt" height="61pt"
 viewBox="0.00 0.00 753.00 61.00" xmlns="http://www.w3.org/2000/svg" xmlns:xlink="http://www.w3.org/1999/xlink">
<g id="graph0" class="graph" transform="scale(1 1) rotate(0) translate(4 57)">
<title>QuantConnect.Orders.OrderEvent.ToString</title>
<polygon fill="white" stroke="transparent" points="-4,4 -4,-57 749,-57 749,4 -4,4"/>
<!-- Node1 -->
<g id="node1" class="node">
<title>Node1</title>
<g id="a_node1"><a xlink:title="Returns a string that represents the current object.">
<polygon fill="#bfbfbf" stroke="black" points="0,-22.5 0,-52.5 151,-52.5 151,-22.5 0,-22.5"/>
<text text-anchor="start" x="8" y="-40.5" font-family="Helvetica,sans-Serif" font-size="10.00">QuantConnect.Orders.Order</text>
<text text-anchor="middle" x="75.5" y="-29.5" font-family="Helvetica,sans-Serif" font-size="10.00">Event.ToString</text>
</a>
</g>
</g>
<!-- Node2 -->
<g id="node2" class="node">
<title>Node2</title>
<g id="a_node2"><a xlink:href="classQuantConnect_1_1Messages_1_1OrderEvent.html#adf2f5d2b6f2cf4db7284f0bc13a470f6" target="_top" xlink:title="Parses the given order event into a string message containing basic information about it">
<polygon fill="white" stroke="black" points="187,-22.5 187,-52.5 354,-52.5 354,-22.5 187,-22.5"/>
<text text-anchor="start" x="195" y="-40.5" font-family="Helvetica,sans-Serif" font-size="10.00">QuantConnect.Messages.Order</text>
<text text-anchor="middle" x="270.5" y="-29.5" font-family="Helvetica,sans-Serif" font-size="10.00">Event.ToString</text>
</a>
</g>
</g>
<!-- Node1&#45;&gt;Node2 -->
<g id="edge1" class="edge">
<title>Node1&#45;&gt;Node2</title>
<path fill="none" stroke="midnightblue" d="M151.12,-37.5C159.51,-37.5 168.12,-37.5 176.7,-37.5"/>
<polygon fill="midnightblue" stroke="midnightblue" points="176.74,-41 186.74,-37.5 176.74,-34 176.74,-41"/>
</g>
<!-- Node3 -->
<g id="node3" class="node">
<title>Node3</title>
<g id="a_node3"><a xlink:href="classQuantConnect_1_1Currencies.html#a2a7c85f9abe93db2a30c36612098e30e" target="_top" xlink:title="Gets the currency symbol for the specified currency code">
<polygon fill="white" stroke="black" points="602,-22.5 602,-52.5 745,-52.5 745,-22.5 602,-22.5"/>
<text text-anchor="start" x="610" y="-40.5" font-family="Helvetica,sans-Serif" font-size="10.00">QuantConnect.Currencies.</text>
<text text-anchor="middle" x="673.5" y="-29.5" font-family="Helvetica,sans-Serif" font-size="10.00">GetCurrencySymbol</text>
</a>
</g>
</g>
<!-- Node2&#45;&gt;Node3 -->
<g id="edge2" class="edge">
<title>Node2&#45;&gt;Node3</title>
<path fill="none" stroke="midnightblue" d="M354.05,-39.86C366.11,-40.12 378.37,-40.35 390,-40.5 468.22,-41.49 487.79,-41.6 566,-40.5 574.31,-40.38 582.98,-40.21 591.63,-40.02"/>
<polygon fill="midnightblue" stroke="midnightblue" points="591.84,-43.51 601.76,-39.77 591.67,-36.51 591.84,-43.51"/>
</g>
<!-- Node4 -->
<g id="node4" class="node">
<title>Node4</title>
<g id="a_node4"><a xlink:href="classQuantConnect_1_1Messages_1_1TrailingStopOrder.html#a57af95588c344800d240911558955fa1" target="_top" xlink:title="Returns a TrailingAmount string representation for the given TrailingStopOrder">
<polygon fill="white" stroke="black" points="390,-0.5 390,-30.5 566,-30.5 566,-0.5 390,-0.5"/>
<text text-anchor="start" x="398" y="-18.5" font-family="Helvetica,sans-Serif" font-size="10.00">QuantConnect.Messages.Trailing</text>
<text text-anchor="middle" x="478" y="-7.5" font-family="Helvetica,sans-Serif" font-size="10.00">StopOrder.TrailingAmount</text>
</a>
</g>
</g>
<!-- Node2&#45;&gt;Node4 -->
<g id="edge3" class="edge">
<title>Node2&#45;&gt;Node4</title>
<path fill="none" stroke="midnightblue" d="M354.2,-28.65C362.61,-27.75 371.22,-26.82 379.77,-25.91"/>
<polygon fill="midnightblue" stroke="midnightblue" points="380.2,-29.38 389.77,-24.84 379.46,-22.42 380.2,-29.38"/>
</g>
<!-- Node4&#45;&gt;Node3 -->
<g id="edge4" class="edge">
<title>Node4&#45;&gt;Node3</title>
<path fill="none" stroke="midnightblue" d="M566.13,-25.41C574.61,-26.37 583.2,-27.35 591.62,-28.3"/>
<polygon fill="midnightblue" stroke="midnightblue" points="591.46,-31.81 601.79,-29.46 592.25,-24.85 591.46,-31.81"/>
</g>
</g>
</svg>
