<?xml version="1.0" encoding="UTF-8" standalone="no"?>
<!DOCTYPE svg PUBLIC "-//W3C//DTD SVG 1.1//EN"
 "http://www.w3.org/Graphics/SVG/1.1/DTD/svg11.dtd">
<!-- Generated by graphviz version 2.43.0 (0)
 -->
<!-- Title: QuantConnect.Symbol.CreateBase Pages: 1 -->
<svg width="1154pt" height="118pt"
 viewBox="0.00 0.00 1154.00 117.50" xmlns="http://www.w3.org/2000/svg" xmlns:xlink="http://www.w3.org/1999/xlink">
<g id="graph0" class="graph" transform="scale(1 1) rotate(0) translate(4 113.5)">
<title>QuantConnect.Symbol.CreateBase</title>
<polygon fill="white" stroke="transparent" points="-4,4 -4,-113.5 1150,-113.5 1150,4 -4,4"/>
<!-- Node1 -->
<g id="node1" class="node">
<title>Node1</title>
<g id="a_node1"><a xlink:title="Creates a new Symbol for custom data. This method allows for the creation of a new Base Symbol using ...">
<polygon fill="#bfbfbf" stroke="black" points="0,-62.5 0,-81.5 185,-81.5 185,-62.5 0,-62.5"/>
<text text-anchor="middle" x="92.5" y="-69.5" font-family="Helvetica,sans-Serif" font-size="10.00">QuantConnect.Symbol.CreateBase</text>
</a>
</g>
</g>
<!-- Node2 -->
<g id="node2" class="node">
<title>Node2</title>
<g id="a_node2"><a xlink:href="classQuantConnect_1_1SecurityIdentifier.html#a02ca750115844561c001c2346fbafc00" target="_top" xlink:title="Generates a new SecurityIdentifier for a custom security with the option of providing the first date">
<polygon fill="white" stroke="black" points="221,-79 221,-109 395,-109 395,-79 221,-79"/>
<text text-anchor="start" x="229" y="-97" font-family="Helvetica,sans-Serif" font-size="10.00">QuantConnect.SecurityIdentifier.</text>
<text text-anchor="middle" x="308" y="-86" font-family="Helvetica,sans-Serif" font-size="10.00">GenerateBase</text>
</a>
</g>
</g>
<!-- Node1&#45;&gt;Node2 -->
<g id="edge1" class="edge">
<title>Node1&#45;&gt;Node2</title>
<path fill="none" stroke="midnightblue" d="M185.28,-81.46C193.64,-82.32 202.12,-83.19 210.52,-84.06"/>
<polygon fill="midnightblue" stroke="midnightblue" points="210.39,-87.56 220.7,-85.11 211.11,-80.6 210.39,-87.56"/>
</g>
<!-- Node4 -->
<g id="node4" class="node">
<title>Node4</title>
<g id="a_node4"><a xlink:href="classQuantConnect_1_1Symbol.html#a59158f74116be3dad0ea0f3f3f134416" target="_top" xlink:title="Initializes a new instance of the Symbol class">
<polygon fill="white" stroke="black" points="225.5,-40.5 225.5,-59.5 390.5,-59.5 390.5,-40.5 225.5,-40.5"/>
<text text-anchor="middle" x="308" y="-47.5" font-family="Helvetica,sans-Serif" font-size="10.00">QuantConnect.Symbol.Symbol</text>
</a>
</g>
</g>
<!-- Node1&#45;&gt;Node4 -->
<g id="edge3" class="edge">
<title>Node1&#45;&gt;Node4</title>
<path fill="none" stroke="midnightblue" d="M185.28,-62.54C195.18,-61.52 205.25,-60.48 215.15,-59.46"/>
<polygon fill="midnightblue" stroke="midnightblue" points="215.8,-62.92 225.39,-58.41 215.08,-55.95 215.8,-62.92"/>
</g>
<!-- Node3 -->
<g id="node3" class="node">
<title>Node3</title>
<g id="a_node3"><a xlink:href="classQuantConnect_1_1SecurityIdentifier.html#a19e1f9da410608020d74ed9e7d283575" target="_top" xlink:title="Generates the Symbol property for QuantConnect.SecurityType.Base security identifiers">
<polygon fill="white" stroke="black" points="431,-79 431,-109 605,-109 605,-79 431,-79"/>
<text text-anchor="start" x="439" y="-97" font-family="Helvetica,sans-Serif" font-size="10.00">QuantConnect.SecurityIdentifier.</text>
<text text-anchor="middle" x="518" y="-86" font-family="Helvetica,sans-Serif" font-size="10.00">GenerateBaseSymbol</text>
</a>
</g>
</g>
<!-- Node2&#45;&gt;Node3 -->
<g id="edge2" class="edge">
<title>Node2&#45;&gt;Node3</title>
<path fill="none" stroke="midnightblue" d="M395.1,-94C403.62,-94 412.3,-94 420.91,-94"/>
<polygon fill="midnightblue" stroke="midnightblue" points="420.96,-97.5 430.96,-94 420.96,-90.5 420.96,-97.5"/>
</g>
<!-- Node5 -->
<g id="node5" class="node">
<title>Node5</title>
<g id="a_node5"><a xlink:href="classQuantConnect_1_1Symbol.html#a59b0795fa21f46c306deb5576fa03bb9" target="_top" xlink:title="Centralized helper method to resolve alias for a symbol">
<polygon fill="white" stroke="black" points="433,-40.5 433,-59.5 603,-59.5 603,-40.5 433,-40.5"/>
<text text-anchor="middle" x="518" y="-47.5" font-family="Helvetica,sans-Serif" font-size="10.00">QuantConnect.Symbol.GetAlias</text>
</a>
</g>
</g>
<!-- Node4&#45;&gt;Node5 -->
<g id="edge4" class="edge">
<title>Node4&#45;&gt;Node5</title>
<path fill="none" stroke="midnightblue" d="M390.61,-50C401.13,-50 411.98,-50 422.68,-50"/>
<polygon fill="midnightblue" stroke="midnightblue" points="422.89,-53.5 432.89,-50 422.89,-46.5 422.89,-53.5"/>
</g>
<!-- Node6 -->
<g id="node6" class="node">
<title>Node6</title>
<g id="a_node6"><a xlink:href="classQuantConnect_1_1SymbolRepresentation.html#ad43ac907f6c19083821f58f21c6de017" target="_top" xlink:title="Returns future symbol ticker from underlying and expiration date. Function can generate tickers of tw...">
<polygon fill="white" stroke="black" points="641,-63 641,-93 844,-93 844,-63 641,-63"/>
<text text-anchor="start" x="649" y="-81" font-family="Helvetica,sans-Serif" font-size="10.00">QuantConnect.SymbolRepresentation.</text>
<text text-anchor="middle" x="742.5" y="-70" font-family="Helvetica,sans-Serif" font-size="10.00">GenerateFutureTicker</text>
</a>
</g>
</g>
<!-- Node5&#45;&gt;Node6 -->
<g id="edge5" class="edge">
<title>Node5&#45;&gt;Node6</title>
<path fill="none" stroke="midnightblue" d="M594.64,-59.52C606.25,-60.98 618.45,-62.51 630.63,-64.05"/>
<polygon fill="midnightblue" stroke="midnightblue" points="630.5,-67.56 640.86,-65.33 631.37,-60.61 630.5,-67.56"/>
</g>
<!-- Node8 -->
<g id="node8" class="node">
<title>Node8</title>
<g id="a_node8"><a xlink:href="classQuantConnect_1_1SymbolRepresentation.html#ab133044f5cf8c16e700190a2202b215e" target="_top" xlink:title="Returns option symbol ticker in accordance with OSI symbology More information can be found at http:/...">
<polygon fill="white" stroke="black" points="641,-11 641,-41 844,-41 844,-11 641,-11"/>
<text text-anchor="start" x="649" y="-29" font-family="Helvetica,sans-Serif" font-size="10.00">QuantConnect.SymbolRepresentation.</text>
<text text-anchor="middle" x="742.5" y="-18" font-family="Helvetica,sans-Serif" font-size="10.00">GenerateOptionTickerOSI</text>
</a>
</g>
</g>
<!-- Node5&#45;&gt;Node8 -->
<g id="edge7" class="edge">
<title>Node5&#45;&gt;Node8</title>
<path fill="none" stroke="midnightblue" d="M603.12,-40.93C612.16,-39.95 621.45,-38.95 630.73,-37.95"/>
<polygon fill="midnightblue" stroke="midnightblue" points="631.23,-41.41 640.8,-36.86 630.48,-34.45 631.23,-41.41"/>
</g>
<!-- Node7 -->
<g id="node7" class="node">
<title>Node7</title>
<g id="a_node7"><a xlink:href="classQuantConnect_1_1Securities_1_1Future_1_1FuturesExpiryUtilityFunctions.html#a4ccb1e2f2fe40ff09785a74a02f26df1" target="_top" xlink:title="Gets the number of months between the contract month and the expiry date.">
<polygon fill="white" stroke="black" points="880,-60.5 880,-101.5 1146,-101.5 1146,-60.5 880,-60.5"/>
<text text-anchor="start" x="888" y="-89.5" font-family="Helvetica,sans-Serif" font-size="10.00">QuantConnect.Securities.</text>
<text text-anchor="start" x="888" y="-78.5" font-family="Helvetica,sans-Serif" font-size="10.00">Future.FuturesExpiryUtilityFunctions.</text>
<text text-anchor="middle" x="1013" y="-67.5" font-family="Helvetica,sans-Serif" font-size="10.00">GetDeltaBetweenContractMonthAndContractExpiry</text>
</a>
</g>
</g>
<!-- Node6&#45;&gt;Node7 -->
<g id="edge6" class="edge">
<title>Node6&#45;&gt;Node7</title>
<path fill="none" stroke="midnightblue" d="M844.24,-79.13C852.59,-79.22 861.11,-79.31 869.68,-79.41"/>
<polygon fill="midnightblue" stroke="midnightblue" points="869.72,-82.91 879.76,-79.52 869.8,-75.91 869.72,-82.91"/>
</g>
<!-- Node9 -->
<g id="node9" class="node">
<title>Node9</title>
<g id="a_node9"><a xlink:href="classQuantConnect_1_1Messages_1_1SymbolRepresentation.html#a2c514157d8055cfa271ea3a7ca1ccde7" target="_top" xlink:title="Returns a string message saying an unexpected security type was received by the given method name">
<polygon fill="white" stroke="black" points="917,-0.5 917,-41.5 1109,-41.5 1109,-0.5 917,-0.5"/>
<text text-anchor="start" x="925" y="-29.5" font-family="Helvetica,sans-Serif" font-size="10.00">QuantConnect.Messages.Symbol</text>
<text text-anchor="start" x="925" y="-18.5" font-family="Helvetica,sans-Serif" font-size="10.00">Representation.UnexpectedSecurity</text>
<text text-anchor="middle" x="1013" y="-7.5" font-family="Helvetica,sans-Serif" font-size="10.00">TypeForMethod</text>
</a>
</g>
</g>
<!-- Node8&#45;&gt;Node9 -->
<g id="edge8" class="edge">
<title>Node8&#45;&gt;Node9</title>
<path fill="none" stroke="midnightblue" d="M844.24,-24.12C864.7,-23.74 886.27,-23.34 906.88,-22.96"/>
<polygon fill="midnightblue" stroke="midnightblue" points="906.98,-26.46 916.91,-22.77 906.85,-19.46 906.98,-26.46"/>
</g>
</g>
</svg>
