<?xml version="1.0" encoding="UTF-8" standalone="no"?>
<!DOCTYPE svg PUBLIC "-//W3C//DTD SVG 1.1//EN"
 "http://www.w3.org/Graphics/SVG/1.1/DTD/svg11.dtd">
<!-- Generated by graphviz version 2.43.0 (0)
 -->
<!-- Title: QuantConnect.Util.LeanData.TryParsePath Pages: 1 -->
<!--zoomable 761 -->
<svg id="main" version="1.1" xmlns="http://www.w3.org/2000/svg" xmlns:xlink="http://www.w3.org/1999/xlink" xml:space="preserve" onload="init(evt)">
<style type="text/css"><![CDATA[
.edge:hover path { stroke: red; }
.edge:hover polygon { stroke: red; fill: red; }
]]></style>
<script type="text/javascript"><![CDATA[
var edges = document.getElementsByTagName('g');
if (edges && edges.length) {
  for (var i=0;i<edges.length;i++) {
    if (edges[i].id.substr(0,4)=='edge') {
      edges[i].setAttribute('class','edge');
    }
  }
}
]]></script>
        <defs>
                <circle id="rim" cx="0" cy="0" r="7"/>
                <circle id="rim2" cx="0" cy="0" r="3.5"/>
                <g id="zoomPlus">
                        <use xlink:href="#rim" fill="#404040">
                                <set attributeName="fill" to="#808080" begin="zoomplus.mouseover" end="zoomplus.mouseout"/>
                        </use>
                        <path d="M-4,0h8M0,-4v8" fill="none" stroke="white" stroke-width="1.5" pointer-events="none"/>
                </g>
                <g id="zoomMin">
                        <use xlink:href="#rim" fill="#404040">
                                <set attributeName="fill" to="#808080" begin="zoomminus.mouseover" end="zoomminus.mouseout"/>
                        </use>
                        <path d="M-4,0h8" fill="none" stroke="white" stroke-width="1.5" pointer-events="none"/>
                </g>
                <g id="dirArrow">
                        <path fill="none" stroke="white" stroke-width="1.5" d="M0,-3.0v7 M-2.5,-0.5L0,-3.0L2.5,-0.5"/>
                </g>
               <g id="resetDef">
                       <use xlink:href="#rim2" fill="#404040">
                               <set attributeName="fill" to="#808080" begin="reset.mouseover" end="reset.mouseout"/>
                       </use>
               </g>
        </defs>

<script type="text/javascript">
var viewWidth = 1615;
var viewHeight = 761;
var sectionId = 'dynsection-29';
</script>
<script xlink:href="svgpan.js"/>
<svg id="graph" class="graph">
<g id="viewport">
<title>QuantConnect.Util.LeanData.TryParsePath</title>
<polygon fill="white" stroke="transparent" points="-4,4 -4,-756.5 1611,-756.5 1611,4 -4,4"/>
<!-- Node1 -->
<g id="node1" class="node">
<title>Node1</title>
<g id="a_node1"><a xlink:title="Parses file name into a Security and DateTime">
<polygon fill="#bfbfbf" stroke="black" points="0,-164 0,-194 158,-194 158,-164 0,-164"/>
<text text-anchor="start" x="8" y="-182" font-family="Helvetica,sans-Serif" font-size="10.00">QuantConnect.Util.LeanData.</text>
<text text-anchor="middle" x="79" y="-171" font-family="Helvetica,sans-Serif" font-size="10.00">TryParsePath</text>
</a>
</g>
</g>
<!-- Node2 -->
<g id="node2" class="node">
<title>Node2</title>
<g id="a_node2"><a xlink:href="classQuantConnect_1_1Symbol.html#a350b9a625cf7bad95da82894be3cd0a8" target="_top" xlink:title="Provides a convenience method for creating a Symbol for most security types. This method currently do...">
<polygon fill="white" stroke="black" points="218,-465.5 218,-484.5 379,-484.5 379,-465.5 218,-465.5"/>
<text text-anchor="middle" x="298.5" y="-472.5" font-family="Helvetica,sans-Serif" font-size="10.00">QuantConnect.Symbol.Create</text>
</a>
</g>
</g>
<!-- Node1&#45;&gt;Node2 -->
<g id="edge1" class="edge">
<title>Node1&#45;&gt;Node2</title>
<path fill="none" stroke="midnightblue" d="M91.08,-194.09C127.75,-243.98 244.98,-403.53 284.42,-457.19"/>
<polygon fill="midnightblue" stroke="midnightblue" points="281.71,-459.42 290.45,-465.4 287.35,-455.27 281.71,-459.42"/>
</g>
<!-- Node20 -->
<g id="node20" class="node">
<title>Node20</title>
<g id="a_node20"><a xlink:href="classQuantConnect_1_1Symbol.html#af65aa2b28fbdc943c979198070eb16a2" target="_top" xlink:title="Simple method to create the canonical option symbol for any given underlying symbol">
<polygon fill="white" stroke="black" points="218,-262 218,-292 379,-292 379,-262 218,-262"/>
<text text-anchor="start" x="226" y="-280" font-family="Helvetica,sans-Serif" font-size="10.00">QuantConnect.Symbol.Create</text>
<text text-anchor="middle" x="298.5" y="-269" font-family="Helvetica,sans-Serif" font-size="10.00">CanonicalOption</text>
</a>
</g>
</g>
<!-- Node1&#45;&gt;Node20 -->
<g id="edge21" class="edge">
<title>Node1&#45;&gt;Node20</title>
<path fill="none" stroke="midnightblue" d="M98.61,-194.03C120.27,-210.79 157.73,-237.59 194,-253 199.04,-255.14 204.3,-257.11 209.67,-258.91"/>
<polygon fill="midnightblue" stroke="midnightblue" points="208.82,-262.32 219.41,-261.99 210.93,-255.64 208.82,-262.32"/>
</g>
<!-- Node21 -->
<g id="node21" class="node">
<title>Node21</title>
<g id="a_node21"><a xlink:href="classQuantConnect_1_1Symbol.html#a484f4a4845d55c491201a7998f0d6ec4" target="_top" xlink:title="Provides a convenience method for creating a future Symbol.">
<polygon fill="white" stroke="black" points="218,-213 218,-243 379,-243 379,-213 218,-213"/>
<text text-anchor="start" x="226" y="-231" font-family="Helvetica,sans-Serif" font-size="10.00">QuantConnect.Symbol.Create</text>
<text text-anchor="middle" x="298.5" y="-220" font-family="Helvetica,sans-Serif" font-size="10.00">Future</text>
</a>
</g>
</g>
<!-- Node1&#45;&gt;Node21 -->
<g id="edge22" class="edge">
<title>Node1&#45;&gt;Node21</title>
<path fill="none" stroke="midnightblue" d="M146.74,-194.03C170.22,-199.33 196.8,-205.31 221.03,-210.77"/>
<polygon fill="midnightblue" stroke="midnightblue" points="220.37,-214.21 230.89,-212.99 221.9,-207.38 220.37,-214.21"/>
</g>
<!-- Node22 -->
<g id="node22" class="node">
<title>Node22</title>
<g id="a_node22"><a xlink:href="classQuantConnect_1_1Parse.html#a059d312ae5ffeb051e50a1464236116c" target="_top" xlink:title="Parses the provided value as a System.DateTime using System.DateTime.ParseExact(string,...">
<polygon fill="white" stroke="black" points="215.5,-164 215.5,-194 381.5,-194 381.5,-164 215.5,-164"/>
<text text-anchor="start" x="223.5" y="-182" font-family="Helvetica,sans-Serif" font-size="10.00">QuantConnect.Parse.DateTime</text>
<text text-anchor="middle" x="298.5" y="-171" font-family="Helvetica,sans-Serif" font-size="10.00">Exact</text>
</a>
</g>
</g>
<!-- Node1&#45;&gt;Node22 -->
<g id="edge26" class="edge">
<title>Node1&#45;&gt;Node22</title>
<path fill="none" stroke="midnightblue" d="M158.22,-179C173.4,-179 189.45,-179 205.04,-179"/>
<polygon fill="midnightblue" stroke="midnightblue" points="205.21,-182.5 215.21,-179 205.21,-175.5 205.21,-182.5"/>
</g>
<!-- Node23 -->
<g id="node23" class="node">
<title>Node23</title>
<g id="a_node23"><a xlink:href="classQuantConnect_1_1Logging_1_1Log.html#ad908daef9d61532d7d60c9dcfb9a3e0c" target="_top" xlink:title="Output to the console">
<polygon fill="white" stroke="black" points="223.5,-115 223.5,-145 373.5,-145 373.5,-115 223.5,-115"/>
<text text-anchor="start" x="231.5" y="-133" font-family="Helvetica,sans-Serif" font-size="10.00">QuantConnect.Logging.Log.</text>
<text text-anchor="middle" x="298.5" y="-122" font-family="Helvetica,sans-Serif" font-size="10.00">Debug</text>
</a>
</g>
</g>
<!-- Node1&#45;&gt;Node23 -->
<g id="edge27" class="edge">
<title>Node1&#45;&gt;Node23</title>
<path fill="none" stroke="midnightblue" d="M146.74,-163.97C170.22,-158.67 196.8,-152.69 221.03,-147.23"/>
<polygon fill="midnightblue" stroke="midnightblue" points="221.9,-150.62 230.89,-145.01 220.37,-143.79 221.9,-150.62"/>
</g>
<!-- Node25 -->
<g id="node25" class="node">
<title>Node25</title>
<g id="a_node25"><a xlink:href="classQuantConnect_1_1Securities_1_1Option_1_1OptionSymbol.html#a8cce1d52c1926fdaafbe5aa2e1ee4d29" target="_top" xlink:title="Maps the option ticker to it&#39;s underlying">
<polygon fill="white" stroke="black" points="194,-66 194,-96 403,-96 403,-66 194,-66"/>
<text text-anchor="start" x="202" y="-84" font-family="Helvetica,sans-Serif" font-size="10.00">QuantConnect.Securities.</text>
<text text-anchor="middle" x="298.5" y="-73" font-family="Helvetica,sans-Serif" font-size="10.00">Option.OptionSymbol.MapToUnderlying</text>
</a>
</g>
</g>
<!-- Node1&#45;&gt;Node25 -->
<g id="edge29" class="edge">
<title>Node1&#45;&gt;Node25</title>
<path fill="none" stroke="midnightblue" d="M99.06,-163.95C120.84,-147.46 158.12,-121.31 194,-106 199.86,-103.5 206.01,-101.22 212.28,-99.15"/>
<polygon fill="midnightblue" stroke="midnightblue" points="213.69,-102.37 222.2,-96.06 211.61,-95.69 213.69,-102.37"/>
</g>
<!-- Node28 -->
<g id="node28" class="node">
<title>Node28</title>
<g id="a_node28"><a xlink:href="classQuantConnect_1_1Util_1_1LeanData.html#a2fa1266f0243ee3d323c572c78291184" target="_top" xlink:title="Matches a data path security type with the SecurityType">
<polygon fill="white" stroke="black" points="219.5,-17 219.5,-47 377.5,-47 377.5,-17 219.5,-17"/>
<text text-anchor="start" x="227.5" y="-35" font-family="Helvetica,sans-Serif" font-size="10.00">QuantConnect.Util.LeanData.</text>
<text text-anchor="middle" x="298.5" y="-24" font-family="Helvetica,sans-Serif" font-size="10.00">ParseDataSecurityType</text>
</a>
</g>
</g>
<!-- Node1&#45;&gt;Node28 -->
<g id="edge32" class="edge">
<title>Node1&#45;&gt;Node28</title>
<path fill="none" stroke="midnightblue" d="M89.61,-163.98C107.09,-137.95 146.68,-84.61 194,-57 199.01,-54.08 204.35,-51.49 209.86,-49.21"/>
<polygon fill="midnightblue" stroke="midnightblue" points="211.16,-52.46 219.27,-45.65 208.68,-45.92 211.16,-52.46"/>
</g>
<!-- Node3 -->
<g id="node3" class="node">
<title>Node3</title>
<g id="a_node3"><a xlink:href="classQuantConnect_1_1Symbol.html#a7518a1932d1babbff128f2ba9666a78b" target="_top" xlink:title="Provides a convenience method for creating an option Symbol.">
<polygon fill="white" stroke="black" points="464,-340 464,-370 625,-370 625,-340 464,-340"/>
<text text-anchor="start" x="472" y="-358" font-family="Helvetica,sans-Serif" font-size="10.00">QuantConnect.Symbol.Create</text>
<text text-anchor="middle" x="544.5" y="-347" font-family="Helvetica,sans-Serif" font-size="10.00">Option</text>
</a>
</g>
</g>
<!-- Node2&#45;&gt;Node3 -->
<g id="edge2" class="edge">
<title>Node2&#45;&gt;Node3</title>
<path fill="none" stroke="midnightblue" d="M310.59,-465.32C333.16,-446.13 386.74,-403.11 439,-380 444.71,-377.48 450.71,-375.18 456.84,-373.11"/>
<polygon fill="midnightblue" stroke="midnightblue" points="458.06,-376.39 466.53,-370.02 455.94,-369.72 458.06,-376.39"/>
</g>
<!-- Node4 -->
<g id="node4" class="node">
<title>Node4</title>
<g id="a_node4"><a xlink:href="classQuantConnect_1_1SecurityIdentifier.html#a0c21d7880c9fdd260883d11ea0c99a00" target="_top" xlink:title="Helper overload that will search the mapfiles to resolve the first date. This implementation uses the...">
<polygon fill="white" stroke="black" points="686,-411 686,-441 860,-441 860,-411 686,-411"/>
<text text-anchor="start" x="694" y="-429" font-family="Helvetica,sans-Serif" font-size="10.00">QuantConnect.SecurityIdentifier.</text>
<text text-anchor="middle" x="773" y="-418" font-family="Helvetica,sans-Serif" font-size="10.00">GenerateEquity</text>
</a>
</g>
</g>
<!-- Node2&#45;&gt;Node4 -->
<g id="edge15" class="edge">
<title>Node2&#45;&gt;Node4</title>
<path fill="none" stroke="midnightblue" d="M373.53,-484.51C445.07,-491.62 556.09,-497.18 650,-478 680.47,-471.78 712.75,-457.65 736.45,-445.68"/>
<polygon fill="midnightblue" stroke="midnightblue" points="738.13,-448.75 745.41,-441.06 734.91,-442.53 738.13,-448.75"/>
</g>
<!-- Node5 -->
<g id="node5" class="node">
<title>Node5</title>
<g id="a_node5"><a xlink:href="classQuantConnect_1_1Symbol.html#a59158f74116be3dad0ea0f3f3f134416" target="_top" xlink:title="Initializes a new instance of the Symbol class">
<polygon fill="white" stroke="black" points="690.5,-257.5 690.5,-276.5 855.5,-276.5 855.5,-257.5 690.5,-257.5"/>
<text text-anchor="middle" x="773" y="-264.5" font-family="Helvetica,sans-Serif" font-size="10.00">QuantConnect.Symbol.Symbol</text>
</a>
</g>
</g>
<!-- Node2&#45;&gt;Node5 -->
<g id="edge20" class="edge">
<title>Node2&#45;&gt;Node5</title>
<path fill="none" stroke="midnightblue" d="M305.64,-465.32C322.98,-438.89 375.19,-365.2 439,-331 523.05,-285.95 556.39,-310.24 650,-292 671.79,-287.75 695.73,-282.89 716.59,-278.59"/>
<polygon fill="midnightblue" stroke="midnightblue" points="717.48,-281.98 726.56,-276.53 716.06,-275.13 717.48,-281.98"/>
</g>
<!-- Node11 -->
<g id="node11" class="node">
<title>Node11</title>
<g id="a_node11"><a xlink:href="classQuantConnect_1_1SecurityIdentifier.html#a02ca750115844561c001c2346fbafc00" target="_top" xlink:title="Generates a new SecurityIdentifier for a custom security with the option of providing the first date">
<polygon fill="white" stroke="black" points="457.5,-722 457.5,-752 631.5,-752 631.5,-722 457.5,-722"/>
<text text-anchor="start" x="465.5" y="-740" font-family="Helvetica,sans-Serif" font-size="10.00">QuantConnect.SecurityIdentifier.</text>
<text text-anchor="middle" x="544.5" y="-729" font-family="Helvetica,sans-Serif" font-size="10.00">GenerateBase</text>
</a>
</g>
</g>
<!-- Node2&#45;&gt;Node11 -->
<g id="edge10" class="edge">
<title>Node2&#45;&gt;Node11</title>
<path fill="none" stroke="midnightblue" d="M302.1,-484.59C312.47,-520.88 354.45,-650.94 439,-713 441.9,-715.13 444.96,-717.07 448.14,-718.85"/>
<polygon fill="midnightblue" stroke="midnightblue" points="446.85,-722.12 457.37,-723.42 449.96,-715.85 446.85,-722.12"/>
</g>
<!-- Node13 -->
<g id="node13" class="node">
<title>Node13</title>
<g id="a_node13"><a xlink:href="classQuantConnect_1_1SecurityIdentifier.html#a53953b18d814c5445e4ecdcb3b555080" target="_top" xlink:title="Generates a new SecurityIdentifier for a CFD security">
<polygon fill="white" stroke="black" points="457.5,-673 457.5,-703 631.5,-703 631.5,-673 457.5,-673"/>
<text text-anchor="start" x="465.5" y="-691" font-family="Helvetica,sans-Serif" font-size="10.00">QuantConnect.SecurityIdentifier.</text>
<text text-anchor="middle" x="544.5" y="-680" font-family="Helvetica,sans-Serif" font-size="10.00">GenerateCfd</text>
</a>
</g>
</g>
<!-- Node2&#45;&gt;Node13 -->
<g id="edge12" class="edge">
<title>Node2&#45;&gt;Node13</title>
<path fill="none" stroke="midnightblue" d="M303.64,-484.73C317.57,-516.23 366.02,-616.15 439,-664 441.93,-665.92 444.99,-667.69 448.16,-669.32"/>
<polygon fill="midnightblue" stroke="midnightblue" points="446.75,-672.52 457.3,-673.54 449.69,-666.17 446.75,-672.52"/>
</g>
<!-- Node14 -->
<g id="node14" class="node">
<title>Node14</title>
<g id="a_node14"><a xlink:href="classQuantConnect_1_1SecurityIdentifier.html#a5889a95a36ce927dd0a109cbfbcbe663" target="_top" xlink:title="Generates a new SecurityIdentifier for a Crypto pair">
<polygon fill="white" stroke="black" points="457.5,-624 457.5,-654 631.5,-654 631.5,-624 457.5,-624"/>
<text text-anchor="start" x="465.5" y="-642" font-family="Helvetica,sans-Serif" font-size="10.00">QuantConnect.SecurityIdentifier.</text>
<text text-anchor="middle" x="544.5" y="-631" font-family="Helvetica,sans-Serif" font-size="10.00">GenerateCrypto</text>
</a>
</g>
</g>
<!-- Node2&#45;&gt;Node14 -->
<g id="edge13" class="edge">
<title>Node2&#45;&gt;Node14</title>
<path fill="none" stroke="midnightblue" d="M306.05,-484.64C324.02,-510.28 376.89,-580.55 439,-615 442.43,-616.9 446,-618.65 449.66,-620.26"/>
<polygon fill="midnightblue" stroke="midnightblue" points="448.37,-623.51 458.95,-623.99 450.98,-617.02 448.37,-623.51"/>
</g>
<!-- Node15 -->
<g id="node15" class="node">
<title>Node15</title>
<g id="a_node15"><a xlink:href="classQuantConnect_1_1SecurityIdentifier.html#ac665665a16d5449872fed3427b95a260" target="_top" xlink:title="Generates a new SecurityIdentifier for a CryptoFuture pair">
<polygon fill="white" stroke="black" points="457.5,-575 457.5,-605 631.5,-605 631.5,-575 457.5,-575"/>
<text text-anchor="start" x="465.5" y="-593" font-family="Helvetica,sans-Serif" font-size="10.00">QuantConnect.SecurityIdentifier.</text>
<text text-anchor="middle" x="544.5" y="-582" font-family="Helvetica,sans-Serif" font-size="10.00">GenerateCryptoFuture</text>
</a>
</g>
</g>
<!-- Node2&#45;&gt;Node15 -->
<g id="edge14" class="edge">
<title>Node2&#45;&gt;Node15</title>
<path fill="none" stroke="midnightblue" d="M311,-484.57C333.88,-503.11 387.37,-544.06 439,-566 444.03,-568.14 449.29,-570.1 454.64,-571.9"/>
<polygon fill="midnightblue" stroke="midnightblue" points="453.78,-575.3 464.37,-574.97 455.89,-568.63 453.78,-575.3"/>
</g>
<!-- Node16 -->
<g id="node16" class="node">
<title>Node16</title>
<g id="a_node16"><a xlink:href="classQuantConnect_1_1SecurityIdentifier.html#a9cf0d3b208a5171e6112516ce441f18d" target="_top" xlink:title="Generates a new SecurityIdentifier for a forex pair">
<polygon fill="white" stroke="black" points="457.5,-526 457.5,-556 631.5,-556 631.5,-526 457.5,-526"/>
<text text-anchor="start" x="465.5" y="-544" font-family="Helvetica,sans-Serif" font-size="10.00">QuantConnect.SecurityIdentifier.</text>
<text text-anchor="middle" x="544.5" y="-533" font-family="Helvetica,sans-Serif" font-size="10.00">GenerateForex</text>
</a>
</g>
</g>
<!-- Node2&#45;&gt;Node16 -->
<g id="edge16" class="edge">
<title>Node2&#45;&gt;Node16</title>
<path fill="none" stroke="midnightblue" d="M334.72,-484.53C372.1,-494.64 432.01,-510.84 478.08,-523.31"/>
<polygon fill="midnightblue" stroke="midnightblue" points="477.42,-526.75 487.99,-525.98 479.25,-520 477.42,-526.75"/>
</g>
<!-- Node17 -->
<g id="node17" class="node">
<title>Node17</title>
<g id="a_node17"><a xlink:href="classQuantConnect_1_1SecurityIdentifier.html#ad50a891c97cb0c084a9e2aa43607ed66" target="_top" xlink:title="Generates a new SecurityIdentifier for a future">
<polygon fill="white" stroke="black" points="457.5,-252 457.5,-282 631.5,-282 631.5,-252 457.5,-252"/>
<text text-anchor="start" x="465.5" y="-270" font-family="Helvetica,sans-Serif" font-size="10.00">QuantConnect.SecurityIdentifier.</text>
<text text-anchor="middle" x="544.5" y="-259" font-family="Helvetica,sans-Serif" font-size="10.00">GenerateFuture</text>
</a>
</g>
</g>
<!-- Node2&#45;&gt;Node17 -->
<g id="edge17" class="edge">
<title>Node2&#45;&gt;Node17</title>
<path fill="none" stroke="midnightblue" d="M304.33,-465.15C319.6,-435.06 369.97,-343.5 439,-297 445.44,-292.66 452.51,-288.94 459.83,-285.76"/>
<polygon fill="midnightblue" stroke="midnightblue" points="461.24,-288.96 469.23,-282 458.64,-282.46 461.24,-288.96"/>
</g>
<!-- Node18 -->
<g id="node18" class="node">
<title>Node18</title>
<g id="a_node18"><a xlink:href="classQuantConnect_1_1SecurityIdentifier.html#ade05a8e57b041ab484cf585be8d05699" target="_top" xlink:title="Generates a new SecurityIdentifier for a INDEX security">
<polygon fill="white" stroke="black" points="457.5,-438 457.5,-468 631.5,-468 631.5,-438 457.5,-438"/>
<text text-anchor="start" x="465.5" y="-456" font-family="Helvetica,sans-Serif" font-size="10.00">QuantConnect.SecurityIdentifier.</text>
<text text-anchor="middle" x="544.5" y="-445" font-family="Helvetica,sans-Serif" font-size="10.00">GenerateIndex</text>
</a>
</g>
</g>
<!-- Node2&#45;&gt;Node18 -->
<g id="edge18" class="edge">
<title>Node2&#45;&gt;Node18</title>
<path fill="none" stroke="midnightblue" d="M379.06,-467.83C400.77,-465.87 424.52,-463.73 447.06,-461.7"/>
<polygon fill="midnightblue" stroke="midnightblue" points="447.67,-465.15 457.32,-460.77 447.04,-458.18 447.67,-465.15"/>
</g>
<!-- Node19 -->
<g id="node19" class="node">
<title>Node19</title>
<g id="a_node19"><a xlink:href="classQuantConnect_1_1Messages_1_1Symbol.html#ab801bef52a308b8ba7ba6d42e1ef1988" target="_top" xlink:title="Returns a string message saying the given security type has not been implemented yet">
<polygon fill="white" stroke="black" points="454.5,-389 454.5,-419 634.5,-419 634.5,-389 454.5,-389"/>
<text text-anchor="start" x="462.5" y="-407" font-family="Helvetica,sans-Serif" font-size="10.00">QuantConnect.Messages.Symbol.</text>
<text text-anchor="middle" x="544.5" y="-396" font-family="Helvetica,sans-Serif" font-size="10.00">SecurityTypeNotImplementedYet</text>
</a>
</g>
</g>
<!-- Node2&#45;&gt;Node19 -->
<g id="edge19" class="edge">
<title>Node2&#45;&gt;Node19</title>
<path fill="none" stroke="midnightblue" d="M326.3,-465.42C354.23,-455.61 399.38,-440.25 439,-429 448.06,-426.43 457.6,-423.9 467.1,-421.5"/>
<polygon fill="midnightblue" stroke="midnightblue" points="468.09,-424.85 476.95,-419.04 466.4,-418.06 468.09,-424.85"/>
</g>
<!-- Node3&#45;&gt;Node4 -->
<g id="edge3" class="edge">
<title>Node3&#45;&gt;Node4</title>
<path fill="none" stroke="midnightblue" d="M613.85,-370.04C625.97,-373.08 638.41,-376.44 650,-380 675.66,-387.87 703.72,-398.32 726.45,-407.27"/>
<polygon fill="midnightblue" stroke="midnightblue" points="725.26,-410.56 735.85,-411 727.84,-404.05 725.26,-410.56"/>
</g>
<!-- Node3&#45;&gt;Node5 -->
<g id="edge4" class="edge">
<title>Node3&#45;&gt;Node5</title>
<path fill="none" stroke="midnightblue" d="M604.37,-339.93C619.41,-335.58 635.44,-330.51 650,-325 683.69,-312.25 720.88,-293.92 745.23,-281.3"/>
<polygon fill="midnightblue" stroke="midnightblue" points="746.98,-284.33 754.22,-276.6 743.73,-278.13 746.98,-284.33"/>
</g>
<!-- Node6 -->
<g id="node6" class="node">
<title>Node6</title>
<g id="a_node6"><a xlink:href="classQuantConnect_1_1Symbol.html#a59b0795fa21f46c306deb5576fa03bb9" target="_top" xlink:title="Centralized helper method to resolve alias for a symbol">
<polygon fill="white" stroke="black" points="896,-194.5 896,-213.5 1066,-213.5 1066,-194.5 896,-194.5"/>
<text text-anchor="middle" x="981" y="-201.5" font-family="Helvetica,sans-Serif" font-size="10.00">QuantConnect.Symbol.GetAlias</text>
</a>
</g>
</g>
<!-- Node5&#45;&gt;Node6 -->
<g id="edge5" class="edge">
<title>Node5&#45;&gt;Node6</title>
<path fill="none" stroke="midnightblue" d="M805.29,-257.43C841.08,-246.48 899.82,-228.52 939.19,-216.48"/>
<polygon fill="midnightblue" stroke="midnightblue" points="940.22,-219.83 948.76,-213.55 938.17,-213.13 940.22,-219.83"/>
</g>
<!-- Node7 -->
<g id="node7" class="node">
<title>Node7</title>
<g id="a_node7"><a xlink:href="classQuantConnect_1_1SymbolRepresentation.html#ad43ac907f6c19083821f58f21c6de017" target="_top" xlink:title="Returns future symbol ticker from underlying and expiration date. Function can generate tickers of tw...">
<polygon fill="white" stroke="black" points="1102,-217 1102,-247 1305,-247 1305,-217 1102,-217"/>
<text text-anchor="start" x="1110" y="-235" font-family="Helvetica,sans-Serif" font-size="10.00">QuantConnect.SymbolRepresentation.</text>
<text text-anchor="middle" x="1203.5" y="-224" font-family="Helvetica,sans-Serif" font-size="10.00">GenerateFutureTicker</text>
</a>
</g>
</g>
<!-- Node6&#45;&gt;Node7 -->
<g id="edge6" class="edge">
<title>Node6&#45;&gt;Node7</title>
<path fill="none" stroke="midnightblue" d="M1056.96,-213.52C1068.27,-214.96 1080.14,-216.46 1092.01,-217.97"/>
<polygon fill="midnightblue" stroke="midnightblue" points="1091.62,-221.45 1101.98,-219.24 1092.5,-214.5 1091.62,-221.45"/>
</g>
<!-- Node9 -->
<g id="node9" class="node">
<title>Node9</title>
<g id="a_node9"><a xlink:href="classQuantConnect_1_1SymbolRepresentation.html#ab133044f5cf8c16e700190a2202b215e" target="_top" xlink:title="Returns option symbol ticker in accordance with OSI symbology More information can be found at http:/...">
<polygon fill="white" stroke="black" points="1102,-165 1102,-195 1305,-195 1305,-165 1102,-165"/>
<text text-anchor="start" x="1110" y="-183" font-family="Helvetica,sans-Serif" font-size="10.00">QuantConnect.SymbolRepresentation.</text>
<text text-anchor="middle" x="1203.5" y="-172" font-family="Helvetica,sans-Serif" font-size="10.00">GenerateOptionTickerOSI</text>
</a>
</g>
</g>
<!-- Node6&#45;&gt;Node9 -->
<g id="edge8" class="edge">
<title>Node6&#45;&gt;Node9</title>
<path fill="none" stroke="midnightblue" d="M1066.31,-194.82C1074.69,-193.91 1083.3,-192.97 1091.9,-192.04"/>
<polygon fill="midnightblue" stroke="midnightblue" points="1092.43,-195.5 1101.99,-190.94 1091.67,-188.54 1092.43,-195.5"/>
</g>
<!-- Node8 -->
<g id="node8" class="node">
<title>Node8</title>
<g id="a_node8"><a xlink:href="classQuantConnect_1_1Securities_1_1Future_1_1FuturesExpiryUtilityFunctions.html#a4ccb1e2f2fe40ff09785a74a02f26df1" target="_top" xlink:title="Gets the number of months between the contract month and the expiry date.">
<polygon fill="white" stroke="black" points="1341,-214.5 1341,-255.5 1607,-255.5 1607,-214.5 1341,-214.5"/>
<text text-anchor="start" x="1349" y="-243.5" font-family="Helvetica,sans-Serif" font-size="10.00">QuantConnect.Securities.</text>
<text text-anchor="start" x="1349" y="-232.5" font-family="Helvetica,sans-Serif" font-size="10.00">Future.FuturesExpiryUtilityFunctions.</text>
<text text-anchor="middle" x="1474" y="-221.5" font-family="Helvetica,sans-Serif" font-size="10.00">GetDeltaBetweenContractMonthAndContractExpiry</text>
</a>
</g>
</g>
<!-- Node7&#45;&gt;Node8 -->
<g id="edge7" class="edge">
<title>Node7&#45;&gt;Node8</title>
<path fill="none" stroke="midnightblue" d="M1305.24,-233.13C1313.59,-233.22 1322.11,-233.31 1330.68,-233.41"/>
<polygon fill="midnightblue" stroke="midnightblue" points="1330.72,-236.91 1340.76,-233.52 1330.8,-229.91 1330.72,-236.91"/>
</g>
<!-- Node10 -->
<g id="node10" class="node">
<title>Node10</title>
<g id="a_node10"><a xlink:href="classQuantConnect_1_1Messages_1_1SymbolRepresentation.html#a2c514157d8055cfa271ea3a7ca1ccde7" target="_top" xlink:title="Returns a string message saying an unexpected security type was received by the given method name">
<polygon fill="white" stroke="black" points="1378,-154.5 1378,-195.5 1570,-195.5 1570,-154.5 1378,-154.5"/>
<text text-anchor="start" x="1386" y="-183.5" font-family="Helvetica,sans-Serif" font-size="10.00">QuantConnect.Messages.Symbol</text>
<text text-anchor="start" x="1386" y="-172.5" font-family="Helvetica,sans-Serif" font-size="10.00">Representation.UnexpectedSecurity</text>
<text text-anchor="middle" x="1474" y="-161.5" font-family="Helvetica,sans-Serif" font-size="10.00">TypeForMethod</text>
</a>
</g>
</g>
<!-- Node9&#45;&gt;Node10 -->
<g id="edge9" class="edge">
<title>Node9&#45;&gt;Node10</title>
<path fill="none" stroke="midnightblue" d="M1305.24,-178.12C1325.7,-177.74 1347.27,-177.34 1367.88,-176.96"/>
<polygon fill="midnightblue" stroke="midnightblue" points="1367.98,-180.46 1377.91,-176.77 1367.85,-173.46 1367.98,-180.46"/>
</g>
<!-- Node12 -->
<g id="node12" class="node">
<title>Node12</title>
<g id="a_node12"><a xlink:href="classQuantConnect_1_1SecurityIdentifier.html#a19e1f9da410608020d74ed9e7d283575" target="_top" xlink:title="Generates the Symbol property for QuantConnect.SecurityType.Base security identifiers">
<polygon fill="white" stroke="black" points="686,-722 686,-752 860,-752 860,-722 686,-722"/>
<text text-anchor="start" x="694" y="-740" font-family="Helvetica,sans-Serif" font-size="10.00">QuantConnect.SecurityIdentifier.</text>
<text text-anchor="middle" x="773" y="-729" font-family="Helvetica,sans-Serif" font-size="10.00">GenerateBaseSymbol</text>
</a>
</g>
</g>
<!-- Node11&#45;&gt;Node12 -->
<g id="edge11" class="edge">
<title>Node11&#45;&gt;Node12</title>
<path fill="none" stroke="midnightblue" d="M631.78,-737C646.2,-737 661.24,-737 675.9,-737"/>
<polygon fill="midnightblue" stroke="midnightblue" points="675.96,-740.5 685.96,-737 675.96,-733.5 675.96,-740.5"/>
</g>
<!-- Node21&#45;&gt;Node5 -->
<g id="edge25" class="edge">
<title>Node21&#45;&gt;Node5</title>
<path fill="none" stroke="midnightblue" d="M379.12,-227.98C450.34,-228.78 557.47,-231.98 650,-243 673.69,-245.82 699.65,-250.68 721.52,-255.29"/>
<polygon fill="midnightblue" stroke="midnightblue" points="721.07,-258.77 731.58,-257.45 722.54,-251.93 721.07,-258.77"/>
</g>
<!-- Node21&#45;&gt;Node6 -->
<g id="edge24" class="edge">
<title>Node21&#45;&gt;Node6</title>
<path fill="none" stroke="midnightblue" d="M379.23,-225.19C505.45,-220.74 750.76,-212.08 885.58,-207.33"/>
<polygon fill="midnightblue" stroke="midnightblue" points="886.02,-210.82 895.89,-206.97 885.78,-203.82 886.02,-210.82"/>
</g>
<!-- Node21&#45;&gt;Node17 -->
<g id="edge23" class="edge">
<title>Node21&#45;&gt;Node17</title>
<path fill="none" stroke="midnightblue" d="M379.06,-240.72C400.86,-244.2 424.74,-248.02 447.36,-251.63"/>
<polygon fill="midnightblue" stroke="midnightblue" points="446.89,-255.1 457.32,-253.22 447.99,-248.19 446.89,-255.1"/>
</g>
<!-- Node24 -->
<g id="node24" class="node">
<title>Node24</title>
<g id="a_node24"><a xlink:href="interfaceQuantConnect_1_1Logging_1_1ILogHandler.html#a2c738b8e78dd5b54244bc68b969ba91d" target="_top" xlink:title="Write debug message to log">
<polygon fill="white" stroke="black" points="469.5,-121 469.5,-151 619.5,-151 619.5,-121 469.5,-121"/>
<text text-anchor="start" x="477.5" y="-139" font-family="Helvetica,sans-Serif" font-size="10.00">QuantConnect.Logging.ILog</text>
<text text-anchor="middle" x="544.5" y="-128" font-family="Helvetica,sans-Serif" font-size="10.00">Handler.Debug</text>
</a>
</g>
</g>
<!-- Node23&#45;&gt;Node24 -->
<g id="edge28" class="edge">
<title>Node23&#45;&gt;Node24</title>
<path fill="none" stroke="midnightblue" d="M373.7,-131.82C400.67,-132.49 431.35,-133.24 459.14,-133.93"/>
<polygon fill="midnightblue" stroke="midnightblue" points="459.15,-137.43 469.23,-134.17 459.32,-130.43 459.15,-137.43"/>
</g>
<!-- Node26 -->
<g id="node26" class="node">
<title>Node26</title>
<g id="a_node26"><a xlink:href="classQuantConnect_1_1Securities_1_1Future_1_1FuturesOptionsSymbolMappings.html#a739feea1e5e726c78e75fd6c58fa2d5e" target="_top" xlink:title="Maps a futures options ticker to its underlying future&#39;s ticker">
<polygon fill="white" stroke="black" points="439,-60.5 439,-101.5 650,-101.5 650,-60.5 439,-60.5"/>
<text text-anchor="start" x="447" y="-89.5" font-family="Helvetica,sans-Serif" font-size="10.00">QuantConnect.Securities.</text>
<text text-anchor="start" x="447" y="-78.5" font-family="Helvetica,sans-Serif" font-size="10.00">Future.FuturesOptionsSymbolMappings.</text>
<text text-anchor="middle" x="544.5" y="-67.5" font-family="Helvetica,sans-Serif" font-size="10.00">MapFromOption</text>
</a>
</g>
</g>
<!-- Node25&#45;&gt;Node26 -->
<g id="edge30" class="edge">
<title>Node25&#45;&gt;Node26</title>
<path fill="none" stroke="midnightblue" d="M403.33,-81C411.82,-81 420.42,-81 428.97,-81"/>
<polygon fill="midnightblue" stroke="midnightblue" points="428.98,-84.5 438.98,-81 428.98,-77.5 428.98,-84.5"/>
</g>
<!-- Node27 -->
<g id="node27" class="node">
<title>Node27</title>
<g id="a_node27"><a xlink:href="classQuantConnect_1_1Securities_1_1IndexOption_1_1IndexOptionSymbol.html#ac516ce6e5976b125793890b240532f0a" target="_top" xlink:title="Maps an index option ticker to its underlying index ticker">
<polygon fill="white" stroke="black" points="455.5,-0.5 455.5,-41.5 633.5,-41.5 633.5,-0.5 455.5,-0.5"/>
<text text-anchor="start" x="463.5" y="-29.5" font-family="Helvetica,sans-Serif" font-size="10.00">QuantConnect.Securities.</text>
<text text-anchor="start" x="463.5" y="-18.5" font-family="Helvetica,sans-Serif" font-size="10.00">IndexOption.IndexOptionSymbol.</text>
<text text-anchor="middle" x="544.5" y="-7.5" font-family="Helvetica,sans-Serif" font-size="10.00">MapToUnderlying</text>
</a>
</g>
</g>
<!-- Node25&#45;&gt;Node27 -->
<g id="edge31" class="edge">
<title>Node25&#45;&gt;Node27</title>
<path fill="none" stroke="midnightblue" d="M365.26,-65.99C377.8,-63.06 390.81,-59.97 403,-57 419.77,-52.91 437.63,-48.43 454.8,-44.06"/>
<polygon fill="midnightblue" stroke="midnightblue" points="455.99,-47.37 464.81,-41.5 454.26,-40.58 455.99,-47.37"/>
</g>
</g>
</svg>
        <g id="navigator" transform="translate(0 0)" fill="#404254">
                <rect fill="#f2f5e9" fill-opacity="0.5" stroke="#606060" stroke-width=".5" x="0" y="0" width="60" height="60"/>
                <use id="zoomplus" xlink:href="#zoomPlus" x="17" y="9" onmousedown="handleZoom(evt,'in')"/>
                <use id="zoomminus" xlink:href="#zoomMin" x="42" y="9" onmousedown="handleZoom(evt,'out')"/>
                <use id="reset" xlink:href="#resetDef" x="30" y="36" onmousedown="handleReset()"/>
                <g id="arrowUp" xlink:href="#dirArrow" transform="translate(30 24)" onmousedown="handlePan(0,-1)">
                  <use xlink:href="#rim" fill="#404040">
                        <set attributeName="fill" to="#808080" begin="arrowUp.mouseover" end="arrowUp.mouseout"/>
                  </use>
                  <path fill="none" stroke="white" stroke-width="1.5" d="M0,-3.0v7 M-2.5,-0.5L0,-3.0L2.5,-0.5"/>
                </g>
                <g id="arrowRight" xlink:href="#dirArrow" transform="rotate(90) translate(36 -43)" onmousedown="handlePan(1,0)">
                  <use xlink:href="#rim" fill="#404040">
                        <set attributeName="fill" to="#808080" begin="arrowRight.mouseover" end="arrowRight.mouseout"/>
                  </use>
                  <path fill="none" stroke="white" stroke-width="1.5" d="M0,-3.0v7 M-2.5,-0.5L0,-3.0L2.5,-0.5"/>
                </g>
                <g id="arrowDown" xlink:href="#dirArrow" transform="rotate(180) translate(-30 -48)" onmousedown="handlePan(0,1)">
                  <use xlink:href="#rim" fill="#404040">
                        <set attributeName="fill" to="#808080" begin="arrowDown.mouseover" end="arrowDown.mouseout"/>
                  </use>
                  <path fill="none" stroke="white" stroke-width="1.5" d="M0,-3.0v7 M-2.5,-0.5L0,-3.0L2.5,-0.5"/>
                </g>
                <g id="arrowLeft" xlink:href="#dirArrow" transform="rotate(270) translate(-36 17)" onmousedown="handlePan(-1,0)">
                  <use xlink:href="#rim" fill="#404040">
                        <set attributeName="fill" to="#808080" begin="arrowLeft.mouseover" end="arrowLeft.mouseout"/>
                  </use>
                  <path fill="none" stroke="white" stroke-width="1.5" d="M0,-3.0v7 M-2.5,-0.5L0,-3.0L2.5,-0.5"/>
                </g>
        </g>
        <svg viewBox="0 0 15 15" width="100%" height="30px" preserveAspectRatio="xMaxYMin meet">
         <g id="arrow_out" transform="scale(0.3 0.3)">
          <a xlink:href="classQuantConnect_1_1Util_1_1LeanData_a664e30720912250293070fd88716e7a5_cgraph_org.svg" target="_base">
           <rect id="button" ry="5" rx="5" y="6" x="6" height="38" width="38"
                fill="#f2f5e9" fill-opacity="0.5" stroke="#606060" stroke-width="1.0"/>
           <path id="arrow"
             d="M 11.500037,31.436501 C 11.940474,20.09759 22.043105,11.32322 32.158766,21.979434 L 37.068811,17.246167 C 37.068811,17.246167 37.088388,32 37.088388,32 L 22.160133,31.978069 C 22.160133,31.978069 26.997745,27.140456 26.997745,27.140456 C 18.528582,18.264221 13.291696,25.230495 11.500037,31.436501 z"
             style="fill:#404040;"/>
          </a>
         </g>
        </svg>
</svg>
