<?xml version="1.0" encoding="UTF-8" standalone="no"?>
<!DOCTYPE svg PUBLIC "-//W3C//DTD SVG 1.1//EN"
 "http://www.w3.org/Graphics/SVG/1.1/DTD/svg11.dtd">
<!-- Generated by graphviz version 2.43.0 (0)
 -->
<!-- Title: QuantConnect.Messages.CoinbaseBrokerageModel.StopMarketOrdersNoLongerSupported Pages: 1 -->
<svg width="468pt" height="50pt"
 viewBox="0.00 0.00 468.00 50.00" xmlns="http://www.w3.org/2000/svg" xmlns:xlink="http://www.w3.org/1999/xlink">
<g id="graph0" class="graph" transform="scale(1 1) rotate(0) translate(4 46)">
<title>QuantConnect.Messages.CoinbaseBrokerageModel.StopMarketOrdersNoLongerSupported</title>
<polygon fill="white" stroke="transparent" points="-4,4 -4,-46 464,-46 464,4 -4,4"/>
<!-- Node1 -->
<g id="node1" class="node">
<title>Node1</title>
<g id="a_node1"><a xlink:title="Returns a string message saying the Stop Market orders are no longer supported since the given end da...">
<polygon fill="#bfbfbf" stroke="black" points="260,-0.5 260,-41.5 460,-41.5 460,-0.5 260,-0.5"/>
<text text-anchor="start" x="268" y="-29.5" font-family="Helvetica,sans-Serif" font-size="10.00">QuantConnect.Messages.Coinbase</text>
<text text-anchor="start" x="268" y="-18.5" font-family="Helvetica,sans-Serif" font-size="10.00">BrokerageModel.StopMarketOrdersNo</text>
<text text-anchor="middle" x="360" y="-7.5" font-family="Helvetica,sans-Serif" font-size="10.00">LongerSupported</text>
</a>
</g>
</g>
<!-- Node2 -->
<g id="node2" class="node">
<title>Node2</title>
<g id="a_node2"><a xlink:href="classQuantConnect_1_1Brokerages_1_1CoinbaseBrokerageModel.html#a4733c3d643ca7eec26b1387e093bf1d4" target="_top" xlink:title="Evaluates whether exchange will accept order. Will reject order update">
<polygon fill="white" stroke="black" points="0,-6 0,-36 224,-36 224,-6 0,-6"/>
<text text-anchor="start" x="8" y="-24" font-family="Helvetica,sans-Serif" font-size="10.00">QuantConnect.Brokerages.</text>
<text text-anchor="middle" x="112" y="-13" font-family="Helvetica,sans-Serif" font-size="10.00">CoinbaseBrokerageModel.CanSubmitOrder</text>
</a>
</g>
</g>
<!-- Node1&#45;&gt;Node2 -->
<g id="edge1" class="edge">
<title>Node1&#45;&gt;Node2</title>
<path fill="none" stroke="midnightblue" d="M249.41,-21C240.97,-21 232.45,-21 224,-21"/>
<polygon fill="midnightblue" stroke="midnightblue" points="249.65,-24.5 259.65,-21 249.65,-17.5 249.65,-24.5"/>
</g>
</g>
</svg>
