<?xml version="1.0" encoding="UTF-8" standalone="no"?>
<!DOCTYPE svg PUBLIC "-//W3C//DTD SVG 1.1//EN"
 "http://www.w3.org/Graphics/SVG/1.1/DTD/svg11.dtd">
<!-- Generated by graphviz version 2.43.0 (0)
 -->
<!-- Title: QuantConnect.Data.Market.QuoteBar Pages: 1 -->
<svg width="179pt" height="207pt"
 viewBox="0.00 0.00 179.00 207.00" xmlns="http://www.w3.org/2000/svg" xmlns:xlink="http://www.w3.org/1999/xlink">
<g id="graph0" class="graph" transform="scale(1 1) rotate(0) translate(4 203)">
<title>QuantConnect.Data.Market.QuoteBar</title>
<polygon fill="white" stroke="transparent" points="-4,4 -4,-203 175,-203 175,4 -4,4"/>
<!-- Node1 -->
<g id="node1" class="node">
<title>Node1</title>
<g id="a_node1"><a xlink:title="QuoteBar class for second and minute resolution data: An OHLC implementation of the QuantConnect Base...">
<polygon fill="#bfbfbf" stroke="black" points="11.5,-0.5 11.5,-30.5 163.5,-30.5 163.5,-0.5 11.5,-0.5"/>
<text text-anchor="start" x="19.5" y="-18.5" font-family="Helvetica,sans-Serif" font-size="10.00">QuantConnect.Data.Market.</text>
<text text-anchor="middle" x="87.5" y="-7.5" font-family="Helvetica,sans-Serif" font-size="10.00">QuoteBar</text>
</a>
</g>
</g>
<!-- Node2 -->
<g id="node2" class="node">
<title>Node2</title>
<g id="a_node2"><a xlink:href="classQuantConnect_1_1Data_1_1BaseData.html" target="_top" xlink:title="Abstract base data class of QuantConnect. It is intended to be extended to define generic user custom...">
<polygon fill="white" stroke="black" points="101.5,-67.5 101.5,-86.5 165.5,-86.5 165.5,-67.5 101.5,-67.5"/>
<text text-anchor="middle" x="133.5" y="-74.5" font-family="Helvetica,sans-Serif" font-size="10.00">BaseData</text>
</a>
</g>
</g>
<!-- Node2&#45;&gt;Node1 -->
<g id="edge1" class="edge">
<title>Node2&#45;&gt;Node1</title>
<path fill="none" stroke="midnightblue" d="M120.77,-59.53C113.72,-50.42 105.06,-39.21 98.34,-30.52"/>
<polygon fill="midnightblue" stroke="midnightblue" points="118.02,-61.7 126.91,-67.48 123.56,-57.42 118.02,-61.7"/>
</g>
<!-- Node3 -->
<g id="node3" class="node">
<title>Node3</title>
<g id="a_node3"><a xlink:href="interfaceQuantConnect_1_1Data_1_1IBaseData.html" target="_top" xlink:title="Base Data Class: Type, Timestamp, Key – Base Features.">
<polygon fill="white" stroke="black" points="89,-123.5 89,-142.5 156,-142.5 156,-123.5 89,-123.5"/>
<text text-anchor="middle" x="122.5" y="-130.5" font-family="Helvetica,sans-Serif" font-size="10.00">IBaseData</text>
</a>
</g>
</g>
<!-- Node3&#45;&gt;Node2 -->
<g id="edge2" class="edge">
<title>Node3&#45;&gt;Node2</title>
<path fill="none" stroke="midnightblue" d="M126.35,-113.1C128.18,-104.14 130.27,-93.86 131.72,-86.75"/>
<polygon fill="midnightblue" stroke="midnightblue" points="122.88,-112.59 124.32,-123.08 129.74,-113.98 122.88,-112.59"/>
</g>
<!-- Node5 -->
<g id="node5" class="node">
<title>Node5</title>
<g id="a_node5"><a xlink:href="interfaceQuantConnect_1_1Data_1_1Market_1_1IBaseDataBar.html" target="_top" xlink:title="Represents a type that is both a bar and base data">
<polygon fill="white" stroke="black" points="0,-67.5 0,-86.5 83,-86.5 83,-67.5 0,-67.5"/>
<text text-anchor="middle" x="41.5" y="-74.5" font-family="Helvetica,sans-Serif" font-size="10.00">IBaseDataBar</text>
</a>
</g>
</g>
<!-- Node3&#45;&gt;Node5 -->
<g id="edge5" class="edge">
<title>Node3&#45;&gt;Node5</title>
<path fill="none" stroke="midnightblue" d="M100.93,-117.62C86.14,-107.76 66.99,-94.99 54.48,-86.65"/>
<polygon fill="midnightblue" stroke="midnightblue" points="99.22,-120.69 109.49,-123.32 103.11,-114.86 99.22,-120.69"/>
</g>
<!-- Node4 -->
<g id="node4" class="node">
<title>Node4</title>
<g id="a_node4"><a xlink:href="interfaceQuantConnect_1_1Data_1_1ISymbolProvider.html" target="_top" xlink:title="Base data with a symbol">
<polygon fill="white" stroke="black" points="74,-179.5 74,-198.5 171,-198.5 171,-179.5 74,-179.5"/>
<text text-anchor="middle" x="122.5" y="-186.5" font-family="Helvetica,sans-Serif" font-size="10.00">ISymbolProvider</text>
</a>
</g>
</g>
<!-- Node4&#45;&gt;Node3 -->
<g id="edge3" class="edge">
<title>Node4&#45;&gt;Node3</title>
<path fill="none" stroke="midnightblue" d="M122.5,-168.8C122.5,-159.91 122.5,-149.78 122.5,-142.75"/>
<polygon fill="midnightblue" stroke="midnightblue" points="119,-169.08 122.5,-179.08 126,-169.08 119,-169.08"/>
</g>
<!-- Node5&#45;&gt;Node1 -->
<g id="edge4" class="edge">
<title>Node5&#45;&gt;Node1</title>
<path fill="none" stroke="midnightblue" d="M54.23,-59.53C61.28,-50.42 69.94,-39.21 76.66,-30.52"/>
<polygon fill="midnightblue" stroke="midnightblue" points="51.44,-57.42 48.09,-67.48 56.98,-61.7 51.44,-57.42"/>
</g>
<!-- Node6 -->
<g id="node6" class="node">
<title>Node6</title>
<g id="a_node6"><a xlink:href="interfaceQuantConnect_1_1Data_1_1Market_1_1IBar.html" target="_top" xlink:title="Generic bar interface with Open, High, Low and Close.">
<polygon fill="white" stroke="black" points="23.5,-123.5 23.5,-142.5 59.5,-142.5 59.5,-123.5 23.5,-123.5"/>
<text text-anchor="middle" x="41.5" y="-130.5" font-family="Helvetica,sans-Serif" font-size="10.00">IBar</text>
</a>
</g>
</g>
<!-- Node6&#45;&gt;Node5 -->
<g id="edge6" class="edge">
<title>Node6&#45;&gt;Node5</title>
<path fill="none" stroke="midnightblue" d="M41.5,-112.8C41.5,-103.91 41.5,-93.78 41.5,-86.75"/>
<polygon fill="midnightblue" stroke="midnightblue" points="38,-113.08 41.5,-123.08 45,-113.08 38,-113.08"/>
</g>
</g>
</svg>
