<?xml version="1.0" encoding="UTF-8" standalone="no"?>
<!DOCTYPE svg PUBLIC "-//W3C//DTD SVG 1.1//EN"
 "http://www.w3.org/Graphics/SVG/1.1/DTD/svg11.dtd">
<!-- Generated by graphviz version 2.43.0 (0)
 -->
<!-- Title: QuantConnect.Python.BrokerageModelPythonWrapper.GetSettlementModel Pages: 1 -->
<svg width="494pt" height="39pt"
 viewBox="0.00 0.00 494.00 39.00" xmlns="http://www.w3.org/2000/svg" xmlns:xlink="http://www.w3.org/1999/xlink">
<g id="graph0" class="graph" transform="scale(1 1) rotate(0) translate(4 35)">
<title>QuantConnect.Python.BrokerageModelPythonWrapper.GetSettlementModel</title>
<polygon fill="white" stroke="transparent" points="-4,4 -4,-35 490,-35 490,4 -4,4"/>
<!-- Node1 -->
<g id="node1" class="node">
<title>Node1</title>
<g id="a_node1"><a xlink:title="Gets a new settlement model for the security">
<polygon fill="#bfbfbf" stroke="black" points="261,-0.5 261,-30.5 486,-30.5 486,-0.5 261,-0.5"/>
<text text-anchor="start" x="269" y="-18.5" font-family="Helvetica,sans-Serif" font-size="10.00">QuantConnect.Python.Brokerage</text>
<text text-anchor="middle" x="373.5" y="-7.5" font-family="Helvetica,sans-Serif" font-size="10.00">ModelPythonWrapper.GetSettlementModel</text>
</a>
</g>
</g>
<!-- Node2 -->
<g id="node2" class="node">
<title>Node2</title>
<g id="a_node2"><a xlink:href="classQuantConnect_1_1Python_1_1BrokerageModelPythonWrapper.html#a434f7f08a37444663722fa3dca0d0712" target="_top" xlink:title="Gets a new settlement model for the security">
<polygon fill="white" stroke="black" points="0,-0.5 0,-30.5 225,-30.5 225,-0.5 0,-0.5"/>
<text text-anchor="start" x="8" y="-18.5" font-family="Helvetica,sans-Serif" font-size="10.00">QuantConnect.Python.Brokerage</text>
<text text-anchor="middle" x="112.5" y="-7.5" font-family="Helvetica,sans-Serif" font-size="10.00">ModelPythonWrapper.GetSettlementModel</text>
</a>
</g>
</g>
<!-- Node1&#45;&gt;Node2 -->
<g id="edge1" class="edge">
<title>Node1&#45;&gt;Node2</title>
<path fill="none" stroke="midnightblue" d="M250.53,-15.5C242.1,-15.5 233.63,-15.5 225.26,-15.5"/>
<polygon fill="midnightblue" stroke="midnightblue" points="250.78,-19 260.78,-15.5 250.78,-12 250.78,-19"/>
</g>
</g>
</svg>
