<?xml version="1.0" encoding="UTF-8" standalone="no"?>
<!DOCTYPE svg PUBLIC "-//W3C//DTD SVG 1.1//EN"
 "http://www.w3.org/Graphics/SVG/1.1/DTD/svg11.dtd">
<!-- Generated by graphviz version 2.43.0 (0)
 -->
<!-- Title: QuantConnect.Securities.CashBuyingPowerModel.HasSufficientBuyingPowerForOrder Pages: 1 -->
<!--zoomable 477 -->
<svg id="main" version="1.1" xmlns="http://www.w3.org/2000/svg" xmlns:xlink="http://www.w3.org/1999/xlink" xml:space="preserve" onload="init(evt)">
<style type="text/css"><![CDATA[
.edge:hover path { stroke: red; }
.edge:hover polygon { stroke: red; fill: red; }
]]></style>
<script type="text/javascript"><![CDATA[
var edges = document.getElementsByTagName('g');
if (edges && edges.length) {
  for (var i=0;i<edges.length;i++) {
    if (edges[i].id.substr(0,4)=='edge') {
      edges[i].setAttribute('class','edge');
    }
  }
}
]]></script>
        <defs>
                <circle id="rim" cx="0" cy="0" r="7"/>
                <circle id="rim2" cx="0" cy="0" r="3.5"/>
                <g id="zoomPlus">
                        <use xlink:href="#rim" fill="#404040">
                                <set attributeName="fill" to="#808080" begin="zoomplus.mouseover" end="zoomplus.mouseout"/>
                        </use>
                        <path d="M-4,0h8M0,-4v8" fill="none" stroke="white" stroke-width="1.5" pointer-events="none"/>
                </g>
                <g id="zoomMin">
                        <use xlink:href="#rim" fill="#404040">
                                <set attributeName="fill" to="#808080" begin="zoomminus.mouseover" end="zoomminus.mouseout"/>
                        </use>
                        <path d="M-4,0h8" fill="none" stroke="white" stroke-width="1.5" pointer-events="none"/>
                </g>
                <g id="dirArrow">
                        <path fill="none" stroke="white" stroke-width="1.5" d="M0,-3.0v7 M-2.5,-0.5L0,-3.0L2.5,-0.5"/>
                </g>
               <g id="resetDef">
                       <use xlink:href="#rim2" fill="#404040">
                               <set attributeName="fill" to="#808080" begin="reset.mouseover" end="reset.mouseout"/>
                       </use>
               </g>
        </defs>

<script type="text/javascript">
var viewWidth = 1101;
var viewHeight = 477;
var sectionId = 'dynsection-1';
</script>
<script xlink:href="svgpan.js"/>
<svg id="graph" class="graph">
<g id="viewport">
<title>QuantConnect.Securities.CashBuyingPowerModel.HasSufficientBuyingPowerForOrder</title>
<polygon fill="white" stroke="transparent" points="-4,4 -4,-473 1097,-473 1097,4 -4,4"/>
<!-- Node1 -->
<g id="node1" class="node">
<title>Node1</title>
<g id="a_node1"><a xlink:title="Check if there is sufficient buying power to execute this order.">
<polygon fill="#bfbfbf" stroke="black" points="0,-236.5 0,-277.5 202,-277.5 202,-236.5 0,-236.5"/>
<text text-anchor="start" x="8" y="-265.5" font-family="Helvetica,sans-Serif" font-size="10.00">QuantConnect.Securities.</text>
<text text-anchor="start" x="8" y="-254.5" font-family="Helvetica,sans-Serif" font-size="10.00">CashBuyingPowerModel.HasSufficient</text>
<text text-anchor="middle" x="101" y="-243.5" font-family="Helvetica,sans-Serif" font-size="10.00">BuyingPowerForOrder</text>
</a>
</g>
</g>
<!-- Node2 -->
<g id="node2" class="node">
<title>Node2</title>
<g id="a_node2"><a xlink:href="classQuantConnect_1_1Messages_1_1CashBuyingPowerModel.html#a5837e704fc9670caf3320bdd7db00e4e" target="_top" xlink:title="Returns a string message containing the portfolio holdings, the buy order and the maximum buying powe...">
<polygon fill="white" stroke="black" points="245,-427.5 245,-468.5 446,-468.5 446,-427.5 245,-427.5"/>
<text text-anchor="start" x="253" y="-456.5" font-family="Helvetica,sans-Serif" font-size="10.00">QuantConnect.Messages.Cash</text>
<text text-anchor="start" x="253" y="-445.5" font-family="Helvetica,sans-Serif" font-size="10.00">BuyingPowerModel.BuyOrderQuantity</text>
<text text-anchor="middle" x="345.5" y="-434.5" font-family="Helvetica,sans-Serif" font-size="10.00">GreaterThanMaxForBuyingPower</text>
</a>
</g>
</g>
<!-- Node1&#45;&gt;Node2 -->
<g id="edge1" class="edge">
<title>Node1&#45;&gt;Node2</title>
<path fill="none" stroke="midnightblue" d="M114.62,-277.59C136,-310.8 182.46,-376.16 238,-413 243.67,-416.76 249.77,-420.14 256.09,-423.19"/>
<polygon fill="midnightblue" stroke="midnightblue" points="254.91,-426.49 265.46,-427.4 257.78,-420.11 254.91,-426.49"/>
</g>
<!-- Node3 -->
<g id="node3" class="node">
<title>Node3</title>
<g id="a_node3"><a xlink:href="classQuantConnect_1_1Securities_1_1CashBook.html#a3a2cfc4aac92b0740a9bad6c94b42d3b" target="_top" xlink:title="Converts a quantity of source currency units into the specified destination currency">
<polygon fill="white" stroke="black" points="749,-362 749,-392 889,-392 889,-362 749,-362"/>
<text text-anchor="start" x="757" y="-380" font-family="Helvetica,sans-Serif" font-size="10.00">QuantConnect.Securities.</text>
<text text-anchor="middle" x="819" y="-369" font-family="Helvetica,sans-Serif" font-size="10.00">CashBook.Convert</text>
</a>
</g>
</g>
<!-- Node1&#45;&gt;Node3 -->
<g id="edge2" class="edge">
<title>Node1&#45;&gt;Node3</title>
<path fill="none" stroke="midnightblue" d="M128.5,-277.53C154.8,-296.82 196.99,-324.89 238,-340 407.79,-402.56 624.33,-395.62 738.79,-385.86"/>
<polygon fill="midnightblue" stroke="midnightblue" points="739.22,-389.34 748.87,-384.97 738.6,-382.37 739.22,-389.34"/>
</g>
<!-- Node5 -->
<g id="node5" class="node">
<title>Node5</title>
<g id="a_node5"><a xlink:href="classQuantConnect_1_1Securities_1_1CashBook.html#a439b770734d62b9b60bd06a56fbdbb1c" target="_top" xlink:title="Converts a quantity of source currency units into the account currency">
<polygon fill="white" stroke="black" points="501,-340 501,-370 701,-370 701,-340 501,-340"/>
<text text-anchor="start" x="509" y="-358" font-family="Helvetica,sans-Serif" font-size="10.00">QuantConnect.Securities.</text>
<text text-anchor="middle" x="601" y="-347" font-family="Helvetica,sans-Serif" font-size="10.00">CashBook.ConvertToAccountCurrency</text>
</a>
</g>
</g>
<!-- Node1&#45;&gt;Node5 -->
<g id="edge4" class="edge">
<title>Node1&#45;&gt;Node5</title>
<path fill="none" stroke="midnightblue" d="M147.69,-277.61C173.68,-288.53 207.11,-301.25 238,-309 321.48,-329.94 418.31,-341.61 490.81,-347.95"/>
<polygon fill="midnightblue" stroke="midnightblue" points="490.61,-351.45 500.87,-348.81 491.21,-344.47 490.61,-351.45"/>
</g>
<!-- Node6 -->
<g id="node6" class="node">
<title>Node6</title>
<g id="a_node6"><a xlink:href="classQuantConnect_1_1Securities_1_1CashBuyingPowerModel.html#a3098b5ecbdc50ae031e8d5716f036724" target="_top" xlink:title="Get the maximum market order quantity to obtain a position with a given buying power percentage....">
<polygon fill="white" stroke="black" points="243.5,-236.5 243.5,-277.5 447.5,-277.5 447.5,-236.5 243.5,-236.5"/>
<text text-anchor="start" x="251.5" y="-265.5" font-family="Helvetica,sans-Serif" font-size="10.00">QuantConnect.Securities.</text>
<text text-anchor="start" x="251.5" y="-254.5" font-family="Helvetica,sans-Serif" font-size="10.00">CashBuyingPowerModel.GetMaximum</text>
<text text-anchor="middle" x="345.5" y="-243.5" font-family="Helvetica,sans-Serif" font-size="10.00">OrderQuantityForTargetBuyingPower</text>
</a>
</g>
</g>
<!-- Node1&#45;&gt;Node6 -->
<g id="edge6" class="edge">
<title>Node1&#45;&gt;Node6</title>
<path fill="none" stroke="midnightblue" d="M202.03,-257C212.21,-257 222.59,-257 232.88,-257"/>
<polygon fill="midnightblue" stroke="midnightblue" points="233.13,-260.5 243.13,-257 233.13,-253.5 233.13,-260.5"/>
</g>
<!-- Node8 -->
<g id="node8" class="node">
<title>Node8</title>
<g id="a_node8"><a xlink:href="interfaceQuantConnect_1_1Orders_1_1Fees_1_1IFeeModel.html#ab0bf50e204c8c07f1d37fd7680f23e59" target="_top" xlink:title="Gets the order fee associated with the specified order.">
<polygon fill="white" stroke="black" points="526.5,-291 526.5,-321 675.5,-321 675.5,-291 526.5,-291"/>
<text text-anchor="start" x="534.5" y="-309" font-family="Helvetica,sans-Serif" font-size="10.00">QuantConnect.Orders.Fees.</text>
<text text-anchor="middle" x="601" y="-298" font-family="Helvetica,sans-Serif" font-size="10.00">IFeeModel.GetOrderFee</text>
</a>
</g>
</g>
<!-- Node1&#45;&gt;Node8 -->
<g id="edge14" class="edge">
<title>Node1&#45;&gt;Node8</title>
<path fill="none" stroke="midnightblue" d="M184.68,-277.51C202.19,-281.22 220.63,-284.64 238,-287 332.7,-299.84 442.43,-304.13 516.04,-305.5"/>
<polygon fill="midnightblue" stroke="midnightblue" points="516.12,-309 526.18,-305.67 516.24,-302 516.12,-309"/>
</g>
<!-- Node13 -->
<g id="node13" class="node">
<title>Node13</title>
<g id="a_node13"><a xlink:href="classQuantConnect_1_1Securities_1_1HasSufficientBuyingPowerForOrderParameters.html#a94952b6ad33cd9c8fa3d0680661bb3ec" target="_top" xlink:title="Creates a new result indicating that there is insufficient buying power for the contemplated order">
<polygon fill="white" stroke="black" points="252,-176.5 252,-217.5 439,-217.5 439,-176.5 252,-176.5"/>
<text text-anchor="start" x="260" y="-205.5" font-family="Helvetica,sans-Serif" font-size="10.00">QuantConnect.Securities.</text>
<text text-anchor="start" x="260" y="-194.5" font-family="Helvetica,sans-Serif" font-size="10.00">HasSufficientBuyingPowerForOrder</text>
<text text-anchor="middle" x="345.5" y="-183.5" font-family="Helvetica,sans-Serif" font-size="10.00">Parameters.Insufficient</text>
</a>
</g>
</g>
<!-- Node1&#45;&gt;Node13 -->
<g id="edge15" class="edge">
<title>Node1&#45;&gt;Node13</title>
<path fill="none" stroke="midnightblue" d="M185.12,-236.44C206.52,-231.14 229.68,-225.41 251.55,-220"/>
<polygon fill="midnightblue" stroke="midnightblue" points="252.63,-223.34 261.49,-217.54 250.95,-216.54 252.63,-223.34"/>
</g>
<!-- Node14 -->
<g id="node14" class="node">
<title>Node14</title>
<g id="a_node14"><a xlink:href="classQuantConnect_1_1Messages_1_1CashBuyingPowerModel.html#a0783ab0e4bf6ad45d5bf809ea9c9ba6a" target="_top" xlink:title="Returns a string message saying Cash Modeling trading does not permit short holdings as well as portf...">
<polygon fill="white" stroke="black" points="253.5,-116.5 253.5,-157.5 437.5,-157.5 437.5,-116.5 253.5,-116.5"/>
<text text-anchor="start" x="261.5" y="-145.5" font-family="Helvetica,sans-Serif" font-size="10.00">QuantConnect.Messages.Cash</text>
<text text-anchor="start" x="261.5" y="-134.5" font-family="Helvetica,sans-Serif" font-size="10.00">BuyingPowerModel.SellOrderShort</text>
<text text-anchor="middle" x="345.5" y="-123.5" font-family="Helvetica,sans-Serif" font-size="10.00">HoldingsNotSupported</text>
</a>
</g>
</g>
<!-- Node1&#45;&gt;Node14 -->
<g id="edge16" class="edge">
<title>Node1&#45;&gt;Node14</title>
<path fill="none" stroke="midnightblue" d="M127.66,-236.48C153.99,-216.31 196.82,-185.87 238,-167 242.63,-164.88 247.44,-162.88 252.35,-160.99"/>
<polygon fill="midnightblue" stroke="midnightblue" points="253.69,-164.22 261.88,-157.5 251.29,-157.65 253.69,-164.22"/>
</g>
<!-- Node15 -->
<g id="node15" class="node">
<title>Node15</title>
<g id="a_node15"><a xlink:href="classQuantConnect_1_1Securities_1_1HasSufficientBuyingPowerForOrderParameters.html#a2b0dea2c9139dfc1d306246ead60b028" target="_top" xlink:title="Creates a new result indicating that there is sufficient buying power for the contemplated order">
<polygon fill="white" stroke="black" points="252,-56.5 252,-97.5 439,-97.5 439,-56.5 252,-56.5"/>
<text text-anchor="start" x="260" y="-85.5" font-family="Helvetica,sans-Serif" font-size="10.00">QuantConnect.Securities.</text>
<text text-anchor="start" x="260" y="-74.5" font-family="Helvetica,sans-Serif" font-size="10.00">HasSufficientBuyingPowerForOrder</text>
<text text-anchor="middle" x="345.5" y="-63.5" font-family="Helvetica,sans-Serif" font-size="10.00">Parameters.Sufficient</text>
</a>
</g>
</g>
<!-- Node1&#45;&gt;Node15 -->
<g id="edge17" class="edge">
<title>Node1&#45;&gt;Node15</title>
<path fill="none" stroke="midnightblue" d="M115,-236.42C136.56,-203.98 182.86,-141.14 238,-107 240.95,-105.17 244.01,-103.46 247.15,-101.84"/>
<polygon fill="midnightblue" stroke="midnightblue" points="248.67,-105 256.21,-97.56 245.67,-98.67 248.67,-105"/>
</g>
<!-- Node16 -->
<g id="node16" class="node">
<title>Node16</title>
<g id="a_node16"><a xlink:href="classQuantConnect_1_1Messages_1_1CashBuyingPowerModel.html#a58245a8ca0ca0d102edaf208202912b1" target="_top" xlink:title="Returns a string message saying: The security is not supported by this cash model....">
<polygon fill="white" stroke="black" points="238,-7 238,-37 453,-37 453,-7 238,-7"/>
<text text-anchor="start" x="246" y="-25" font-family="Helvetica,sans-Serif" font-size="10.00">QuantConnect.Messages.Cash</text>
<text text-anchor="middle" x="345.5" y="-14" font-family="Helvetica,sans-Serif" font-size="10.00">BuyingPowerModel.UnsupportedSecurity</text>
</a>
</g>
</g>
<!-- Node1&#45;&gt;Node16 -->
<g id="edge18" class="edge">
<title>Node1&#45;&gt;Node16</title>
<path fill="none" stroke="midnightblue" d="M109.31,-236.2C125.43,-193.56 168.2,-96.13 238,-47 240.76,-45.06 243.64,-43.27 246.63,-41.61"/>
<polygon fill="midnightblue" stroke="midnightblue" points="248.44,-44.62 255.85,-37.05 245.33,-38.35 248.44,-44.62"/>
</g>
<!-- Node4 -->
<g id="node4" class="node">
<title>Node4</title>
<g id="a_node4"><a xlink:href="classQuantConnect_1_1Messages_1_1CashBook.html#a7668ed1e406e2948a4dc01b7b1049e20" target="_top" xlink:title="Returns a string message saying the conversion rate for the given currency is not available">
<polygon fill="white" stroke="black" points="925,-362 925,-392 1093,-392 1093,-362 925,-362"/>
<text text-anchor="start" x="933" y="-380" font-family="Helvetica,sans-Serif" font-size="10.00">QuantConnect.Messages.Cash</text>
<text text-anchor="middle" x="1009" y="-369" font-family="Helvetica,sans-Serif" font-size="10.00">Book.ConversionRateNotFound</text>
</a>
</g>
</g>
<!-- Node3&#45;&gt;Node4 -->
<g id="edge3" class="edge">
<title>Node3&#45;&gt;Node4</title>
<path fill="none" stroke="midnightblue" d="M889.2,-377C897.56,-377 906.19,-377 914.82,-377"/>
<polygon fill="midnightblue" stroke="midnightblue" points="914.92,-380.5 924.92,-377 914.92,-373.5 914.92,-380.5"/>
</g>
<!-- Node5&#45;&gt;Node3 -->
<g id="edge5" class="edge">
<title>Node5&#45;&gt;Node3</title>
<path fill="none" stroke="midnightblue" d="M701.15,-365.1C713.71,-366.38 726.44,-367.67 738.64,-368.92"/>
<polygon fill="midnightblue" stroke="midnightblue" points="738.44,-372.41 748.74,-369.95 739.15,-365.45 738.44,-372.41"/>
</g>
<!-- Node6&#45;&gt;Node5 -->
<g id="edge7" class="edge">
<title>Node6&#45;&gt;Node5</title>
<path fill="none" stroke="midnightblue" d="M379.89,-277.59C408.06,-294.16 449.92,-316.92 489,-331 495.29,-333.27 501.87,-335.36 508.54,-337.27"/>
<polygon fill="midnightblue" stroke="midnightblue" points="507.79,-340.7 518.36,-339.96 509.64,-333.95 507.79,-340.7"/>
</g>
<!-- Node7 -->
<g id="node7" class="node">
<title>Node7</title>
<g id="a_node7"><a xlink:href="classQuantConnect_1_1Messages_1_1CashBuyingPowerModel.html#a272818de6eaa28bde059f66cf0b75350" target="_top" xlink:title="Returns a string message saying GetMaximumOrderQuantityForTargetBuyingPower failed to converge to the...">
<polygon fill="white" stroke="black" points="501.5,-0.5 501.5,-41.5 700.5,-41.5 700.5,-0.5 501.5,-0.5"/>
<text text-anchor="start" x="509.5" y="-29.5" font-family="Helvetica,sans-Serif" font-size="10.00">QuantConnect.Messages.Cash</text>
<text text-anchor="start" x="509.5" y="-18.5" font-family="Helvetica,sans-Serif" font-size="10.00">BuyingPowerModel.FailedToConverge</text>
<text text-anchor="middle" x="601" y="-7.5" font-family="Helvetica,sans-Serif" font-size="10.00">OnTargetOrderValue</text>
</a>
</g>
</g>
<!-- Node6&#45;&gt;Node7 -->
<g id="edge8" class="edge">
<title>Node6&#45;&gt;Node7</title>
<path fill="none" stroke="midnightblue" d="M442.16,-236.39C446.08,-233.63 449.73,-230.52 453,-227 507.36,-168.53 434.33,-109.18 489,-51 490.38,-49.53 491.83,-48.12 493.34,-46.79"/>
<polygon fill="midnightblue" stroke="midnightblue" points="495.52,-49.52 501.3,-40.64 491.25,-43.98 495.52,-49.52"/>
</g>
<!-- Node6&#45;&gt;Node8 -->
<g id="edge9" class="edge">
<title>Node6&#45;&gt;Node8</title>
<path fill="none" stroke="midnightblue" d="M447.78,-276.58C470.51,-280.97 494.37,-285.58 516.28,-289.82"/>
<polygon fill="midnightblue" stroke="midnightblue" points="515.72,-293.27 526.2,-291.74 517.05,-286.4 515.72,-293.27"/>
</g>
<!-- Node9 -->
<g id="node9" class="node">
<title>Node9</title>
<g id="a_node9"><a xlink:href="classQuantConnect_1_1Messages_1_1CashBuyingPowerModel.html#a1e1a104a7298d0b57e9f08fd36706aff" target="_top" xlink:title="Returns a string message saying the internal cash feed required for converting the quote currency,...">
<polygon fill="white" stroke="black" points="502.5,-230.5 502.5,-271.5 699.5,-271.5 699.5,-230.5 502.5,-230.5"/>
<text text-anchor="start" x="510.5" y="-259.5" font-family="Helvetica,sans-Serif" font-size="10.00">QuantConnect.Messages.Cash</text>
<text text-anchor="start" x="510.5" y="-248.5" font-family="Helvetica,sans-Serif" font-size="10.00">BuyingPowerModel.NoDataInInternal</text>
<text text-anchor="middle" x="601" y="-237.5" font-family="Helvetica,sans-Serif" font-size="10.00">CashFeedYet</text>
</a>
</g>
</g>
<!-- Node6&#45;&gt;Node9 -->
<g id="edge10" class="edge">
<title>Node6&#45;&gt;Node9</title>
<path fill="none" stroke="midnightblue" d="M447.78,-254.6C462.35,-254.26 477.38,-253.9 492.07,-253.55"/>
<polygon fill="midnightblue" stroke="midnightblue" points="492.26,-257.05 502.18,-253.32 492.1,-250.05 492.26,-257.05"/>
</g>
<!-- Node10 -->
<g id="node10" class="node">
<title>Node10</title>
<g id="a_node10"><a xlink:href="classQuantConnect_1_1Messages_1_1CashBuyingPowerModel.html#a28a92ab461ea2883b57f3ccf6ec2536d" target="_top" xlink:title="Returns a string message saying the order quantity is less than the lot size for the given security">
<polygon fill="white" stroke="black" points="510,-170.5 510,-211.5 692,-211.5 692,-170.5 510,-170.5"/>
<text text-anchor="start" x="518" y="-199.5" font-family="Helvetica,sans-Serif" font-size="10.00">QuantConnect.Messages.Cash</text>
<text text-anchor="start" x="518" y="-188.5" font-family="Helvetica,sans-Serif" font-size="10.00">BuyingPowerModel.OrderQuantity</text>
<text text-anchor="middle" x="601" y="-177.5" font-family="Helvetica,sans-Serif" font-size="10.00">LessThanLotSize</text>
</a>
</g>
</g>
<!-- Node6&#45;&gt;Node10 -->
<g id="edge11" class="edge">
<title>Node6&#45;&gt;Node10</title>
<path fill="none" stroke="midnightblue" d="M425.32,-236.48C452.62,-229.37 483.4,-221.36 511.44,-214.06"/>
<polygon fill="midnightblue" stroke="midnightblue" points="512.43,-217.42 521.23,-211.51 510.67,-210.64 512.43,-217.42"/>
</g>
<!-- Node11 -->
<g id="node11" class="node">
<title>Node11</title>
<g id="a_node11"><a xlink:href="classQuantConnect_1_1Messages_1_1CashBuyingPowerModel.html#a250d7aab24d9025b437c48181716ee5f" target="_top" xlink:title="Returns a string message containing information about the target order value, the order fees and the ...">
<polygon fill="white" stroke="black" points="510,-110.5 510,-151.5 692,-151.5 692,-110.5 510,-110.5"/>
<text text-anchor="start" x="518" y="-139.5" font-family="Helvetica,sans-Serif" font-size="10.00">QuantConnect.Messages.Cash</text>
<text text-anchor="start" x="518" y="-128.5" font-family="Helvetica,sans-Serif" font-size="10.00">BuyingPowerModel.OrderQuantity</text>
<text text-anchor="middle" x="601" y="-117.5" font-family="Helvetica,sans-Serif" font-size="10.00">LessThanLotSizeOrderDetails</text>
</a>
</g>
</g>
<!-- Node6&#45;&gt;Node11 -->
<g id="edge12" class="edge">
<title>Node6&#45;&gt;Node11</title>
<path fill="none" stroke="midnightblue" d="M438.68,-236.4C443.74,-233.65 448.57,-230.53 453,-227 479.13,-206.17 462.76,-181.69 489,-161 492.77,-158.03 496.81,-155.35 501.04,-152.94"/>
<polygon fill="midnightblue" stroke="midnightblue" points="502.66,-156.03 509.95,-148.34 499.46,-149.81 502.66,-156.03"/>
</g>
<!-- Node12 -->
<g id="node12" class="node">
<title>Node12</title>
<g id="a_node12"><a xlink:href="classQuantConnect_1_1Messages_1_1CashBuyingPowerModel.html#a132ea1fdd818325079d6b437ef74bdaa" target="_top" xlink:title="Returns a string mesasge saying the contract multiplier for the given security is zero">
<polygon fill="white" stroke="black" points="489,-61 489,-91 713,-91 713,-61 489,-61"/>
<text text-anchor="start" x="497" y="-79" font-family="Helvetica,sans-Serif" font-size="10.00">QuantConnect.Messages.Cash</text>
<text text-anchor="middle" x="601" y="-68" font-family="Helvetica,sans-Serif" font-size="10.00">BuyingPowerModel.ZeroContractMultiplier</text>
</a>
</g>
</g>
<!-- Node6&#45;&gt;Node12 -->
<g id="edge13" class="edge">
<title>Node6&#45;&gt;Node12</title>
<path fill="none" stroke="midnightblue" d="M441.36,-236.4C445.54,-233.64 449.46,-230.52 453,-227 494.26,-185.89 446.67,-141 489,-101 490.51,-99.58 492.08,-98.23 493.7,-96.95"/>
<polygon fill="midnightblue" stroke="midnightblue" points="495.96,-99.65 502.26,-91.13 492.02,-93.86 495.96,-99.65"/>
</g>
</g>
</svg>
        <g id="navigator" transform="translate(0 0)" fill="#404254">
                <rect fill="#f2f5e9" fill-opacity="0.5" stroke="#606060" stroke-width=".5" x="0" y="0" width="60" height="60"/>
                <use id="zoomplus" xlink:href="#zoomPlus" x="17" y="9" onmousedown="handleZoom(evt,'in')"/>
                <use id="zoomminus" xlink:href="#zoomMin" x="42" y="9" onmousedown="handleZoom(evt,'out')"/>
                <use id="reset" xlink:href="#resetDef" x="30" y="36" onmousedown="handleReset()"/>
                <g id="arrowUp" xlink:href="#dirArrow" transform="translate(30 24)" onmousedown="handlePan(0,-1)">
                  <use xlink:href="#rim" fill="#404040">
                        <set attributeName="fill" to="#808080" begin="arrowUp.mouseover" end="arrowUp.mouseout"/>
                  </use>
                  <path fill="none" stroke="white" stroke-width="1.5" d="M0,-3.0v7 M-2.5,-0.5L0,-3.0L2.5,-0.5"/>
                </g>
                <g id="arrowRight" xlink:href="#dirArrow" transform="rotate(90) translate(36 -43)" onmousedown="handlePan(1,0)">
                  <use xlink:href="#rim" fill="#404040">
                        <set attributeName="fill" to="#808080" begin="arrowRight.mouseover" end="arrowRight.mouseout"/>
                  </use>
                  <path fill="none" stroke="white" stroke-width="1.5" d="M0,-3.0v7 M-2.5,-0.5L0,-3.0L2.5,-0.5"/>
                </g>
                <g id="arrowDown" xlink:href="#dirArrow" transform="rotate(180) translate(-30 -48)" onmousedown="handlePan(0,1)">
                  <use xlink:href="#rim" fill="#404040">
                        <set attributeName="fill" to="#808080" begin="arrowDown.mouseover" end="arrowDown.mouseout"/>
                  </use>
                  <path fill="none" stroke="white" stroke-width="1.5" d="M0,-3.0v7 M-2.5,-0.5L0,-3.0L2.5,-0.5"/>
                </g>
                <g id="arrowLeft" xlink:href="#dirArrow" transform="rotate(270) translate(-36 17)" onmousedown="handlePan(-1,0)">
                  <use xlink:href="#rim" fill="#404040">
                        <set attributeName="fill" to="#808080" begin="arrowLeft.mouseover" end="arrowLeft.mouseout"/>
                  </use>
                  <path fill="none" stroke="white" stroke-width="1.5" d="M0,-3.0v7 M-2.5,-0.5L0,-3.0L2.5,-0.5"/>
                </g>
        </g>
        <svg viewBox="0 0 15 15" width="100%" height="30px" preserveAspectRatio="xMaxYMin meet">
         <g id="arrow_out" transform="scale(0.3 0.3)">
          <a xlink:href="classQuantConnect_1_1Securities_1_1CashBuyingPowerModel_ae2182361668bcb0b67727ea2e077423a_cgraph_org.svg" target="_base">
           <rect id="button" ry="5" rx="5" y="6" x="6" height="38" width="38"
                fill="#f2f5e9" fill-opacity="0.5" stroke="#606060" stroke-width="1.0"/>
           <path id="arrow"
             d="M 11.500037,31.436501 C 11.940474,20.09759 22.043105,11.32322 32.158766,21.979434 L 37.068811,17.246167 C 37.068811,17.246167 37.088388,32 37.088388,32 L 22.160133,31.978069 C 22.160133,31.978069 26.997745,27.140456 26.997745,27.140456 C 18.528582,18.264221 13.291696,25.230495 11.500037,31.436501 z"
             style="fill:#404040;"/>
          </a>
         </g>
        </svg>
</svg>
