<?xml version="1.0" encoding="UTF-8" standalone="no"?>
<!DOCTYPE svg PUBLIC "-//W3C//DTD SVG 1.1//EN"
 "http://www.w3.org/Graphics/SVG/1.1/DTD/svg11.dtd">
<!-- Generated by graphviz version 2.43.0 (0)
 -->
<!-- Title: QuantConnect.Messages.MarketHoursDatabase.SuggestedMarketBasedOnTicker Pages: 1 -->
<!--zoomable 667 -->
<svg id="main" version="1.1" xmlns="http://www.w3.org/2000/svg" xmlns:xlink="http://www.w3.org/1999/xlink" xml:space="preserve" onload="init(evt)">
<style type="text/css"><![CDATA[
.edge:hover path { stroke: red; }
.edge:hover polygon { stroke: red; fill: red; }
]]></style>
<script type="text/javascript"><![CDATA[
var edges = document.getElementsByTagName('g');
if (edges && edges.length) {
  for (var i=0;i<edges.length;i++) {
    if (edges[i].id.substr(0,4)=='edge') {
      edges[i].setAttribute('class','edge');
    }
  }
}
]]></script>
        <defs>
                <circle id="rim" cx="0" cy="0" r="7"/>
                <circle id="rim2" cx="0" cy="0" r="3.5"/>
                <g id="zoomPlus">
                        <use xlink:href="#rim" fill="#404040">
                                <set attributeName="fill" to="#808080" begin="zoomplus.mouseover" end="zoomplus.mouseout"/>
                        </use>
                        <path d="M-4,0h8M0,-4v8" fill="none" stroke="white" stroke-width="1.5" pointer-events="none"/>
                </g>
                <g id="zoomMin">
                        <use xlink:href="#rim" fill="#404040">
                                <set attributeName="fill" to="#808080" begin="zoomminus.mouseover" end="zoomminus.mouseout"/>
                        </use>
                        <path d="M-4,0h8" fill="none" stroke="white" stroke-width="1.5" pointer-events="none"/>
                </g>
                <g id="dirArrow">
                        <path fill="none" stroke="white" stroke-width="1.5" d="M0,-3.0v7 M-2.5,-0.5L0,-3.0L2.5,-0.5"/>
                </g>
               <g id="resetDef">
                       <use xlink:href="#rim2" fill="#404040">
                               <set attributeName="fill" to="#808080" begin="reset.mouseover" end="reset.mouseout"/>
                       </use>
               </g>
        </defs>

<script type="text/javascript">
var viewWidth = 1410;
var viewHeight = 667;
var sectionId = 'dynsection-1';
</script>
<script xlink:href="svgpan.js"/>
<svg id="graph" class="graph">
<g id="viewport">
<title>QuantConnect.Messages.MarketHoursDatabase.SuggestedMarketBasedOnTicker</title>
<polygon fill="white" stroke="transparent" points="-4,4 -4,-662.5 1406,-662.5 1406,4 -4,4"/>
<!-- Node1 -->
<g id="node1" class="node">
<title>Node1</title>
<g id="a_node1"><a xlink:title="Returns a string message that suggests the given market based on the provided ticker">
<polygon fill="#bfbfbf" stroke="black" points="1193,-426.5 1193,-467.5 1402,-467.5 1402,-426.5 1193,-426.5"/>
<text text-anchor="start" x="1201" y="-455.5" font-family="Helvetica,sans-Serif" font-size="10.00">QuantConnect.Messages.Market</text>
<text text-anchor="start" x="1201" y="-444.5" font-family="Helvetica,sans-Serif" font-size="10.00">HoursDatabase.SuggestedMarketBased</text>
<text text-anchor="middle" x="1297.5" y="-433.5" font-family="Helvetica,sans-Serif" font-size="10.00">OnTicker</text>
</a>
</g>
</g>
<!-- Node2 -->
<g id="node2" class="node">
<title>Node2</title>
<g id="a_node2"><a xlink:href="classQuantConnect_1_1Securities_1_1MarketHoursDatabase.html#aeac6cf20dbffdbafd258f0d5f4473713" target="_top" xlink:title="Gets the entry for the specified market/symbol/security&#45;type">
<polygon fill="white" stroke="black" points="986,-432 986,-462 1157,-462 1157,-432 986,-432"/>
<text text-anchor="start" x="994" y="-450" font-family="Helvetica,sans-Serif" font-size="10.00">QuantConnect.Securities.</text>
<text text-anchor="middle" x="1071.5" y="-439" font-family="Helvetica,sans-Serif" font-size="10.00">MarketHoursDatabase.GetEntry</text>
</a>
</g>
</g>
<!-- Node1&#45;&gt;Node2 -->
<g id="edge1" class="edge">
<title>Node1&#45;&gt;Node2</title>
<path fill="none" stroke="midnightblue" d="M1182.64,-447C1174.06,-447 1165.5,-447 1157.16,-447"/>
<polygon fill="midnightblue" stroke="midnightblue" points="1182.7,-450.5 1192.7,-447 1182.7,-443.5 1182.7,-450.5"/>
</g>
<!-- Node3 -->
<g id="node3" class="node">
<title>Node3</title>
<g id="a_node3"><a xlink:href="classQuantConnect_1_1Algorithm_1_1QCAlgorithm.html#a20fac1dead0a364d844f5f3179808706" target="_top" xlink:title="Creates a new user defined universe that will fire on the requested resolution during market hours.">
<polygon fill="white" stroke="black" points="737,-628 737,-658 942,-658 942,-628 737,-628"/>
<text text-anchor="start" x="745" y="-646" font-family="Helvetica,sans-Serif" font-size="10.00">QuantConnect.Algorithm.QCAlgorithm.</text>
<text text-anchor="middle" x="839.5" y="-635" font-family="Helvetica,sans-Serif" font-size="10.00">AddUniverse</text>
</a>
</g>
</g>
<!-- Node2&#45;&gt;Node3 -->
<g id="edge2" class="edge">
<title>Node2&#45;&gt;Node3</title>
<path fill="none" stroke="midnightblue" d="M1060.4,-471.59C1043.49,-509.54 1005.71,-581.88 950,-619 944.82,-622.45 939.22,-625.42 933.39,-627.96"/>
<polygon fill="midnightblue" stroke="midnightblue" points="1063.67,-472.85 1064.44,-462.29 1057.25,-470.07 1063.67,-472.85"/>
</g>
<!-- Node4 -->
<g id="node4" class="node">
<title>Node4</title>
<g id="a_node4"><a xlink:href="classQuantConnect_1_1Securities_1_1MarketHoursDatabase.html#a92534128098fef25ab73e8d2faf58793" target="_top" xlink:title="Performs a lookup using the specified information and returns the data&#39;s time zone if found,...">
<polygon fill="white" stroke="black" points="730.5,-579 730.5,-609 948.5,-609 948.5,-579 730.5,-579"/>
<text text-anchor="start" x="738.5" y="-597" font-family="Helvetica,sans-Serif" font-size="10.00">QuantConnect.Securities.</text>
<text text-anchor="middle" x="839.5" y="-586" font-family="Helvetica,sans-Serif" font-size="10.00">MarketHoursDatabase.GetDataTimeZone</text>
</a>
</g>
</g>
<!-- Node2&#45;&gt;Node4 -->
<g id="edge3" class="edge">
<title>Node2&#45;&gt;Node4</title>
<path fill="none" stroke="midnightblue" d="M1054.09,-470.71C1033.25,-498.92 994.6,-545.3 950,-570 943.79,-573.44 937.12,-576.39 930.25,-578.91"/>
<polygon fill="midnightblue" stroke="midnightblue" points="1057.19,-472.4 1060.22,-462.24 1051.52,-468.29 1057.19,-472.4"/>
</g>
<!-- Node7 -->
<g id="node7" class="node">
<title>Node7</title>
<g id="a_node7"><a xlink:href="classQuantConnect_1_1Extensions.html#a6e7b57a65d282b02a39d8232be71f4e0" target="_top" xlink:title="Helper method to get a market hours entry">
<polygon fill="white" stroke="black" points="767,-530 767,-560 912,-560 912,-530 767,-530"/>
<text text-anchor="start" x="775" y="-548" font-family="Helvetica,sans-Serif" font-size="10.00">QuantConnect.Extensions.</text>
<text text-anchor="middle" x="839.5" y="-537" font-family="Helvetica,sans-Serif" font-size="10.00">GetEntry</text>
</a>
</g>
</g>
<!-- Node2&#45;&gt;Node7 -->
<g id="edge6" class="edge">
<title>Node2&#45;&gt;Node7</title>
<path fill="none" stroke="midnightblue" d="M1042.6,-467.9C1019.05,-484.58 983.87,-507.35 950,-521 938.09,-525.8 925.04,-529.72 912.23,-532.9"/>
<polygon fill="midnightblue" stroke="midnightblue" points="1044.65,-470.73 1050.72,-462.05 1040.56,-465.05 1044.65,-470.73"/>
</g>
<!-- Node8 -->
<g id="node8" class="node">
<title>Node8</title>
<g id="a_node8"><a xlink:href="classQuantConnect_1_1Securities_1_1MarketHoursDatabase.html#a7ff5c3f3b78dc47dcfc2156a06882bbd" target="_top" xlink:title="Gets the entry for the specified market/symbol/security&#45;type">
<polygon fill="white" stroke="black" points="754,-481 754,-511 925,-511 925,-481 754,-481"/>
<text text-anchor="start" x="762" y="-499" font-family="Helvetica,sans-Serif" font-size="10.00">QuantConnect.Securities.</text>
<text text-anchor="middle" x="839.5" y="-488" font-family="Helvetica,sans-Serif" font-size="10.00">MarketHoursDatabase.GetEntry</text>
</a>
</g>
</g>
<!-- Node2&#45;&gt;Node8 -->
<g id="edge7" class="edge">
<title>Node2&#45;&gt;Node8</title>
<path fill="none" stroke="midnightblue" d="M989.83,-464.19C964.11,-469.66 935.87,-475.68 910.94,-480.99"/>
<polygon fill="midnightblue" stroke="midnightblue" points="990.88,-467.54 999.93,-462.03 989.42,-460.7 990.88,-467.54"/>
</g>
<!-- Node9 -->
<g id="node9" class="node">
<title>Node9</title>
<g id="a_node9"><a xlink:href="classQuantConnect_1_1Securities_1_1MarketHoursDatabase.html#a5c7591a1165130392c4606037f2b916b" target="_top" xlink:title="Convenience method for retrieving exchange hours from market hours database using a subscription conf...">
<polygon fill="white" stroke="black" points="729,-432 729,-462 950,-462 950,-432 729,-432"/>
<text text-anchor="start" x="737" y="-450" font-family="Helvetica,sans-Serif" font-size="10.00">QuantConnect.Securities.</text>
<text text-anchor="middle" x="839.5" y="-439" font-family="Helvetica,sans-Serif" font-size="10.00">MarketHoursDatabase.GetExchangeHours</text>
</a>
</g>
</g>
<!-- Node2&#45;&gt;Node9 -->
<g id="edge8" class="edge">
<title>Node2&#45;&gt;Node9</title>
<path fill="none" stroke="midnightblue" d="M975.63,-447C967.19,-447 958.6,-447 950.05,-447"/>
<polygon fill="midnightblue" stroke="midnightblue" points="975.84,-450.5 985.84,-447 975.84,-443.5 975.84,-450.5"/>
</g>
<!-- Node10 -->
<g id="node10" class="node">
<title>Node10</title>
<g id="a_node10"><a xlink:href="classQuantConnect_1_1Securities_1_1Future_1_1FuturesExpiryUtilityFunctions.html#a9aa543735102b14ff694b42d1ee142d4" target="_top" xlink:title="Get holiday list from the MHDB given the market and the symbol of the security">
<polygon fill="white" stroke="black" points="741,-371.5 741,-412.5 938,-412.5 938,-371.5 741,-371.5"/>
<text text-anchor="start" x="749" y="-400.5" font-family="Helvetica,sans-Serif" font-size="10.00">QuantConnect.Securities.</text>
<text text-anchor="start" x="749" y="-389.5" font-family="Helvetica,sans-Serif" font-size="10.00">Future.FuturesExpiryUtilityFunctions.</text>
<text text-anchor="middle" x="839.5" y="-378.5" font-family="Helvetica,sans-Serif" font-size="10.00">GetHolidays</text>
</a>
</g>
</g>
<!-- Node2&#45;&gt;Node10 -->
<g id="edge9" class="edge">
<title>Node2&#45;&gt;Node10</title>
<path fill="none" stroke="midnightblue" d="M997.79,-429.61C975.16,-424.2 950,-418.18 926.55,-412.58"/>
<polygon fill="midnightblue" stroke="midnightblue" points="997.11,-433.05 1007.65,-431.97 998.74,-426.24 997.11,-433.05"/>
</g>
<!-- Node11 -->
<g id="node11" class="node">
<title>Node11</title>
<g id="a_node11"><a xlink:href="classQuantConnect_1_1Securities_1_1Option_1_1OptionSymbol.html#a75217e30f16bc69188675c474bb703b0" target="_top" xlink:title="Returns the last trading date for the option contract">
<polygon fill="white" stroke="black" points="749,-311.5 749,-352.5 930,-352.5 930,-311.5 749,-311.5"/>
<text text-anchor="start" x="757" y="-340.5" font-family="Helvetica,sans-Serif" font-size="10.00">QuantConnect.Securities.</text>
<text text-anchor="start" x="757" y="-329.5" font-family="Helvetica,sans-Serif" font-size="10.00">Option.OptionSymbol.GetLastDay</text>
<text text-anchor="middle" x="839.5" y="-318.5" font-family="Helvetica,sans-Serif" font-size="10.00">OfTrading</text>
</a>
</g>
</g>
<!-- Node2&#45;&gt;Node11 -->
<g id="edge10" class="edge">
<title>Node2&#45;&gt;Node11</title>
<path fill="none" stroke="midnightblue" d="M1045.37,-425.31C1022.06,-406.19 985.67,-378.83 950,-362 942.6,-358.51 934.73,-355.36 926.72,-352.54"/>
<polygon fill="midnightblue" stroke="midnightblue" points="1043.42,-428.24 1053.34,-431.95 1047.9,-422.86 1043.42,-428.24"/>
</g>
<!-- Node13 -->
<g id="node13" class="node">
<title>Node13</title>
<g id="a_node13"><a xlink:href="classQuantConnect_1_1Scheduling_1_1BaseScheduleRules.html#a7f7f5459a775e24b528b7c58ebe6fe77" target="_top" xlink:title="Helper method to fetch the security exchange hours">
<polygon fill="white" stroke="black" points="753.5,-251.5 753.5,-292.5 925.5,-292.5 925.5,-251.5 753.5,-251.5"/>
<text text-anchor="start" x="761.5" y="-280.5" font-family="Helvetica,sans-Serif" font-size="10.00">QuantConnect.Scheduling.</text>
<text text-anchor="start" x="761.5" y="-269.5" font-family="Helvetica,sans-Serif" font-size="10.00">BaseScheduleRules.GetSecurity</text>
<text text-anchor="middle" x="839.5" y="-258.5" font-family="Helvetica,sans-Serif" font-size="10.00">ExchangeHours</text>
</a>
</g>
</g>
<!-- Node2&#45;&gt;Node13 -->
<g id="edge12" class="edge">
<title>Node2&#45;&gt;Node13</title>
<path fill="none" stroke="midnightblue" d="M1056.93,-422.83C1037.47,-390.41 998.58,-333.31 950,-302 942.46,-297.14 934.14,-293.06 925.56,-289.64"/>
<polygon fill="midnightblue" stroke="midnightblue" points="1054.03,-424.81 1062.11,-431.66 1060.07,-421.26 1054.03,-424.81"/>
</g>
<!-- Node25 -->
<g id="node25" class="node">
<title>Node25</title>
<g id="a_node25"><a xlink:href="classQuantConnect_1_1Lean_1_1Engine_1_1DataFeeds_1_1FileSystemDataFeed.html#a8b10a0ccb5a8884f80c527cf25c992f5" target="_top" xlink:title="If required will add a new enumerator for the underlying symbol">
<polygon fill="white" stroke="black" points="745,-96.5 745,-137.5 934,-137.5 934,-96.5 745,-96.5"/>
<text text-anchor="start" x="753" y="-125.5" font-family="Helvetica,sans-Serif" font-size="10.00">QuantConnect.Lean.Engine.</text>
<text text-anchor="start" x="753" y="-114.5" font-family="Helvetica,sans-Serif" font-size="10.00">DataFeeds.FileSystemDataFeed.Try</text>
<text text-anchor="middle" x="839.5" y="-103.5" font-family="Helvetica,sans-Serif" font-size="10.00">AppendUnderlyingEnumerator</text>
</a>
</g>
</g>
<!-- Node2&#45;&gt;Node25 -->
<g id="edge24" class="edge">
<title>Node2&#45;&gt;Node25</title>
<path fill="none" stroke="midnightblue" d="M1058.25,-422.92C1037.87,-383.66 994.78,-304.02 950,-242 921.79,-202.94 883.79,-161.65 860.77,-137.66"/>
<polygon fill="midnightblue" stroke="midnightblue" points="1055.24,-424.71 1062.93,-431.99 1061.46,-421.5 1055.24,-424.71"/>
</g>
<!-- Node5 -->
<g id="node5" class="node">
<title>Node5</title>
<g id="a_node5"><a xlink:href="classQuantConnect_1_1ToolBox_1_1LeanDataReader.html#ac23439fd286135eaf5c3047bf52eb517" target="_top" xlink:title="Initialize a instance of LeanDataReader from a path to a zipped data file. It also supports declaring...">
<polygon fill="white" stroke="black" points="510.5,-614 510.5,-644 668.5,-644 668.5,-614 510.5,-614"/>
<text text-anchor="start" x="518.5" y="-632" font-family="Helvetica,sans-Serif" font-size="10.00">QuantConnect.ToolBox.Lean</text>
<text text-anchor="middle" x="589.5" y="-621" font-family="Helvetica,sans-Serif" font-size="10.00">DataReader.LeanDataReader</text>
</a>
</g>
</g>
<!-- Node4&#45;&gt;Node5 -->
<g id="edge4" class="edge">
<title>Node4&#45;&gt;Node5</title>
<path fill="none" stroke="midnightblue" d="M721.88,-610.46C703.8,-613.01 685.52,-615.59 668.56,-617.98"/>
<polygon fill="midnightblue" stroke="midnightblue" points="722.47,-613.91 731.89,-609.05 721.5,-606.98 722.47,-613.91"/>
</g>
<!-- Node6 -->
<g id="node6" class="node">
<title>Node6</title>
<g id="a_node6"><a xlink:href="classQuantConnect_1_1Algorithm_1_1QCAlgorithm.html#ad8a5d8d6d6fd62a8a3962f0649567804" target="_top" xlink:title="Called by setup handlers after Initialize and allows the algorithm a chance to organize the data gath...">
<polygon fill="white" stroke="black" points="487,-565 487,-595 692,-595 692,-565 487,-565"/>
<text text-anchor="start" x="495" y="-583" font-family="Helvetica,sans-Serif" font-size="10.00">QuantConnect.Algorithm.QCAlgorithm.</text>
<text text-anchor="middle" x="589.5" y="-572" font-family="Helvetica,sans-Serif" font-size="10.00">PostInitialize</text>
</a>
</g>
</g>
<!-- Node4&#45;&gt;Node6 -->
<g id="edge5" class="edge">
<title>Node4&#45;&gt;Node6</title>
<path fill="none" stroke="midnightblue" d="M720.32,-587.33C710.96,-586.8 701.56,-586.27 692.32,-585.75"/>
<polygon fill="midnightblue" stroke="midnightblue" points="720.26,-590.83 730.45,-587.9 720.66,-583.84 720.26,-590.83"/>
</g>
<!-- Node12 -->
<g id="node12" class="node">
<title>Node12</title>
<g id="a_node12"><a xlink:href="classQuantConnect_1_1Extensions.html#a0ffdbe5701923c4217f90dd5fbe87641" target="_top" xlink:title="Gets the delisting date for the provided Symbol">
<polygon fill="white" stroke="black" points="517,-502 517,-532 662,-532 662,-502 517,-502"/>
<text text-anchor="start" x="525" y="-520" font-family="Helvetica,sans-Serif" font-size="10.00">QuantConnect.Extensions.</text>
<text text-anchor="middle" x="589.5" y="-509" font-family="Helvetica,sans-Serif" font-size="10.00">GetDelistingDate</text>
</a>
</g>
</g>
<!-- Node11&#45;&gt;Node12 -->
<g id="edge11" class="edge">
<title>Node11&#45;&gt;Node12</title>
<path fill="none" stroke="midnightblue" d="M740.27,-352.81C736.22,-355.52 732.44,-358.57 729,-362 686.29,-404.68 736.5,-451.13 693,-493 684.44,-501.24 673.62,-506.84 662.24,-510.61"/>
<polygon fill="midnightblue" stroke="midnightblue" points="742.06,-355.81 748.89,-347.71 738.5,-349.79 742.06,-355.81"/>
</g>
<!-- Node14 -->
<g id="node14" class="node">
<title>Node14</title>
<g id="a_node14"><a xlink:href="classQuantConnect_1_1Scheduling_1_1TimeRules.html#aacb20273a2690ca8196b2816f95fbae8" target="_top" xlink:title="Specifies an event should fire at market open +&#45; minutesAfterOpen">
<polygon fill="white" stroke="black" points="512.5,-453 512.5,-483 666.5,-483 666.5,-453 512.5,-453"/>
<text text-anchor="start" x="520.5" y="-471" font-family="Helvetica,sans-Serif" font-size="10.00">QuantConnect.Scheduling.</text>
<text text-anchor="middle" x="589.5" y="-460" font-family="Helvetica,sans-Serif" font-size="10.00">TimeRules.AfterMarketOpen</text>
</a>
</g>
</g>
<!-- Node13&#45;&gt;Node14 -->
<g id="edge13" class="edge">
<title>Node13&#45;&gt;Node14</title>
<path fill="none" stroke="midnightblue" d="M744.26,-290.12C738.7,-293.46 733.53,-297.38 729,-302 683.4,-348.48 739.46,-398.38 693,-444 685.57,-451.3 676.36,-456.54 666.54,-460.27"/>
<polygon fill="midnightblue" stroke="midnightblue" points="746.1,-293.11 753.31,-285.35 742.83,-286.92 746.1,-293.11"/>
</g>
<!-- Node16 -->
<g id="node16" class="node">
<title>Node16</title>
<g id="a_node16"><a xlink:href="classQuantConnect_1_1Scheduling_1_1TimeRules.html#a2deae02e63a372ec702f2bc8b1233506" target="_top" xlink:title="Specifies an event should fire at the market close +&#45; minutesBeforeClose">
<polygon fill="white" stroke="black" points="507.5,-404 507.5,-434 671.5,-434 671.5,-404 507.5,-404"/>
<text text-anchor="start" x="515.5" y="-422" font-family="Helvetica,sans-Serif" font-size="10.00">QuantConnect.Scheduling.</text>
<text text-anchor="middle" x="589.5" y="-411" font-family="Helvetica,sans-Serif" font-size="10.00">TimeRules.BeforeMarketClose</text>
</a>
</g>
</g>
<!-- Node13&#45;&gt;Node16 -->
<g id="edge15" class="edge">
<title>Node13&#45;&gt;Node16</title>
<path fill="none" stroke="midnightblue" d="M743.97,-291.28C738.6,-294.35 733.55,-297.9 729,-302 696.1,-331.7 726.45,-365.92 693,-395 686.72,-400.46 679.44,-404.73 671.71,-408.07"/>
<polygon fill="midnightblue" stroke="midnightblue" points="745.95,-294.2 753.29,-286.55 742.78,-287.95 745.95,-294.2"/>
</g>
<!-- Node18 -->
<g id="node18" class="node">
<title>Node18</title>
<g id="a_node18"><a xlink:href="classQuantConnect_1_1Scheduling_1_1DateRules.html#a23f8d3cbd970618eee50ab0d4b669450" target="_top" xlink:title="Specifies an event should fire every day the symbol is trading">
<polygon fill="white" stroke="black" points="517,-355 517,-385 662,-385 662,-355 517,-355"/>
<text text-anchor="start" x="525" y="-373" font-family="Helvetica,sans-Serif" font-size="10.00">QuantConnect.Scheduling.</text>
<text text-anchor="middle" x="589.5" y="-362" font-family="Helvetica,sans-Serif" font-size="10.00">DateRules.EveryDay</text>
</a>
</g>
</g>
<!-- Node13&#45;&gt;Node18 -->
<g id="edge17" class="edge">
<title>Node13&#45;&gt;Node18</title>
<path fill="none" stroke="midnightblue" d="M743.9,-293.73C738.71,-296.2 733.7,-298.95 729,-302 707.81,-315.77 714.44,-332.63 693,-346 683.62,-351.85 672.94,-356.28 662.12,-359.62"/>
<polygon fill="midnightblue" stroke="midnightblue" points="745.64,-296.79 753.4,-289.58 742.84,-290.38 745.64,-296.79"/>
</g>
<!-- Node19 -->
<g id="node19" class="node">
<title>Node19</title>
<g id="a_node19"><a xlink:href="classQuantConnect_1_1Scheduling_1_1DateRules.html#ae8eb573fd3b2b66f5f9d07e5fca15802" target="_top" xlink:title="Specifies an event should fire on the last tradable date &#45; offset for the specified symbol of each mo...">
<polygon fill="white" stroke="black" points="517,-306 517,-336 662,-336 662,-306 517,-306"/>
<text text-anchor="start" x="525" y="-324" font-family="Helvetica,sans-Serif" font-size="10.00">QuantConnect.Scheduling.</text>
<text text-anchor="middle" x="589.5" y="-313" font-family="Helvetica,sans-Serif" font-size="10.00">DateRules.MonthEnd</text>
</a>
</g>
</g>
<!-- Node13&#45;&gt;Node19 -->
<g id="edge18" class="edge">
<title>Node13&#45;&gt;Node19</title>
<path fill="none" stroke="midnightblue" d="M743.64,-290.74C716.6,-296.09 687.6,-301.82 662.19,-306.84"/>
<polygon fill="midnightblue" stroke="midnightblue" points="744.37,-294.17 753.5,-288.79 743.01,-287.3 744.37,-294.17"/>
</g>
<!-- Node20 -->
<g id="node20" class="node">
<title>Node20</title>
<g id="a_node20"><a xlink:href="classQuantConnect_1_1Scheduling_1_1DateRules.html#a8057a52286258fa4fd06ff306c5f2610" target="_top" xlink:title="Specifies an event should fire on the first tradable date + offset for the specified symbol of each m...">
<polygon fill="white" stroke="black" points="517,-257 517,-287 662,-287 662,-257 517,-257"/>
<text text-anchor="start" x="525" y="-275" font-family="Helvetica,sans-Serif" font-size="10.00">QuantConnect.Scheduling.</text>
<text text-anchor="middle" x="589.5" y="-264" font-family="Helvetica,sans-Serif" font-size="10.00">DateRules.MonthStart</text>
</a>
</g>
</g>
<!-- Node13&#45;&gt;Node20 -->
<g id="edge19" class="edge">
<title>Node13&#45;&gt;Node20</title>
<path fill="none" stroke="midnightblue" d="M743.28,-272C716.34,-272 687.49,-272 662.19,-272"/>
<polygon fill="midnightblue" stroke="midnightblue" points="743.5,-275.5 753.5,-272 743.5,-268.5 743.5,-275.5"/>
</g>
<!-- Node21 -->
<g id="node21" class="node">
<title>Node21</title>
<g id="a_node21"><a xlink:href="classQuantConnect_1_1Scheduling_1_1DateRules.html#ab00974a063d5415f5a754717807ab697" target="_top" xlink:title="Specifies an event should fire on the last &#45; offset tradable date for the specified symbol of each we...">
<polygon fill="white" stroke="black" points="517,-208 517,-238 662,-238 662,-208 517,-208"/>
<text text-anchor="start" x="525" y="-226" font-family="Helvetica,sans-Serif" font-size="10.00">QuantConnect.Scheduling.</text>
<text text-anchor="middle" x="589.5" y="-215" font-family="Helvetica,sans-Serif" font-size="10.00">DateRules.WeekEnd</text>
</a>
</g>
</g>
<!-- Node13&#45;&gt;Node21 -->
<g id="edge20" class="edge">
<title>Node13&#45;&gt;Node21</title>
<path fill="none" stroke="midnightblue" d="M743.64,-253.26C716.6,-247.91 687.6,-242.18 662.19,-237.16"/>
<polygon fill="midnightblue" stroke="midnightblue" points="743.01,-256.7 753.5,-255.21 744.37,-249.83 743.01,-256.7"/>
</g>
<!-- Node22 -->
<g id="node22" class="node">
<title>Node22</title>
<g id="a_node22"><a xlink:href="classQuantConnect_1_1Scheduling_1_1DateRules.html#a1d9c08be5770b6d7fe3f8d4e35529b40" target="_top" xlink:title="Specifies an event should fire on the first tradable date + offset for the specified symbol each week">
<polygon fill="white" stroke="black" points="517,-159 517,-189 662,-189 662,-159 517,-159"/>
<text text-anchor="start" x="525" y="-177" font-family="Helvetica,sans-Serif" font-size="10.00">QuantConnect.Scheduling.</text>
<text text-anchor="middle" x="589.5" y="-166" font-family="Helvetica,sans-Serif" font-size="10.00">DateRules.WeekStart</text>
</a>
</g>
</g>
<!-- Node13&#45;&gt;Node22 -->
<g id="edge21" class="edge">
<title>Node13&#45;&gt;Node22</title>
<path fill="none" stroke="midnightblue" d="M794.22,-246.49C765.97,-231.06 728.19,-211.93 693,-199 682.86,-195.27 671.94,-191.94 661.16,-189.01"/>
<polygon fill="midnightblue" stroke="midnightblue" points="792.59,-249.59 803.04,-251.36 795.97,-243.46 792.59,-249.59"/>
</g>
<!-- Node23 -->
<g id="node23" class="node">
<title>Node23</title>
<g id="a_node23"><a xlink:href="classQuantConnect_1_1Scheduling_1_1DateRules.html#a49400f109cc972bf0c5764cb372d4e24" target="_top" xlink:title="Specifies an event should fire on the last tradable date &#45; offset for the specified symbol of each ye...">
<polygon fill="white" stroke="black" points="517,-110 517,-140 662,-140 662,-110 517,-110"/>
<text text-anchor="start" x="525" y="-128" font-family="Helvetica,sans-Serif" font-size="10.00">QuantConnect.Scheduling.</text>
<text text-anchor="middle" x="589.5" y="-117" font-family="Helvetica,sans-Serif" font-size="10.00">DateRules.YearEnd</text>
</a>
</g>
</g>
<!-- Node13&#45;&gt;Node23 -->
<g id="edge22" class="edge">
<title>Node13&#45;&gt;Node23</title>
<path fill="none" stroke="midnightblue" d="M812.76,-243.9C785.62,-215.98 740.32,-173.95 693,-150 683.36,-145.12 672.72,-141.16 662.05,-137.96"/>
<polygon fill="midnightblue" stroke="midnightblue" points="810.48,-246.58 819.92,-251.38 815.53,-241.74 810.48,-246.58"/>
</g>
<!-- Node24 -->
<g id="node24" class="node">
<title>Node24</title>
<g id="a_node24"><a xlink:href="classQuantConnect_1_1Scheduling_1_1DateRules.html#a315790184739cc5b0a4e326a310da2a3" target="_top" xlink:title="Specifies an event should fire on the first tradable date + offset for the specified symbol of each y...">
<polygon fill="white" stroke="black" points="517,-61 517,-91 662,-91 662,-61 517,-61"/>
<text text-anchor="start" x="525" y="-79" font-family="Helvetica,sans-Serif" font-size="10.00">QuantConnect.Scheduling.</text>
<text text-anchor="middle" x="589.5" y="-68" font-family="Helvetica,sans-Serif" font-size="10.00">DateRules.YearStart</text>
</a>
</g>
</g>
<!-- Node13&#45;&gt;Node24 -->
<g id="edge23" class="edge">
<title>Node13&#45;&gt;Node24</title>
<path fill="none" stroke="midnightblue" d="M812.64,-243.39C790.15,-218.31 756.9,-180.68 729,-147 712.44,-127.01 714.81,-115.07 693,-101 683.69,-94.99 673.05,-90.43 662.24,-86.96"/>
<polygon fill="midnightblue" stroke="midnightblue" points="810.25,-245.98 819.54,-251.08 815.46,-241.3 810.25,-245.98"/>
</g>
<!-- Node15 -->
<g id="node15" class="node">
<title>Node15</title>
<g id="a_node15"><a xlink:href="classQuantConnect_1_1Scheduling_1_1TimeRules.html#a45b0c2d5ec0bc5e41dd6ddecd4131fac" target="_top" xlink:title="Specifies an event should fire at market open +&#45; minutesBeforeOpen">
<polygon fill="white" stroke="black" points="265,-453 265,-483 428,-483 428,-453 265,-453"/>
<text text-anchor="start" x="273" y="-471" font-family="Helvetica,sans-Serif" font-size="10.00">QuantConnect.Scheduling.</text>
<text text-anchor="middle" x="346.5" y="-460" font-family="Helvetica,sans-Serif" font-size="10.00">TimeRules.BeforeMarketOpen</text>
</a>
</g>
</g>
<!-- Node14&#45;&gt;Node15 -->
<g id="edge14" class="edge">
<title>Node14&#45;&gt;Node15</title>
<path fill="none" stroke="midnightblue" d="M502.07,-468C478.01,-468 451.97,-468 428.25,-468"/>
<polygon fill="midnightblue" stroke="midnightblue" points="502.25,-471.5 512.25,-468 502.25,-464.5 502.25,-471.5"/>
</g>
<!-- Node17 -->
<g id="node17" class="node">
<title>Node17</title>
<g id="a_node17"><a xlink:href="classQuantConnect_1_1Scheduling_1_1TimeRules.html#a7f695b64a51ca1d190e205f977e8e60d" target="_top" xlink:title="Specifies an event should fire at the market close +&#45; minutesAfterClose">
<polygon fill="white" stroke="black" points="269,-404 269,-434 424,-434 424,-404 269,-404"/>
<text text-anchor="start" x="277" y="-422" font-family="Helvetica,sans-Serif" font-size="10.00">QuantConnect.Scheduling.</text>
<text text-anchor="middle" x="346.5" y="-411" font-family="Helvetica,sans-Serif" font-size="10.00">TimeRules.AfterMarketClose</text>
</a>
</g>
</g>
<!-- Node16&#45;&gt;Node17 -->
<g id="edge16" class="edge">
<title>Node16&#45;&gt;Node17</title>
<path fill="none" stroke="midnightblue" d="M497.08,-419C473.09,-419 447.47,-419 424.33,-419"/>
<polygon fill="midnightblue" stroke="midnightblue" points="497.24,-422.5 507.24,-419 497.24,-415.5 497.24,-422.5"/>
</g>
<!-- Node26 -->
<g id="node26" class="node">
<title>Node26</title>
<g id="a_node26"><a xlink:href="classQuantConnect_1_1Lean_1_1Engine_1_1DataFeeds_1_1FileSystemDataFeed.html#a4fc952e85ac49efbfa28a11d095ddf7a" target="_top" xlink:title="Creates a universe enumerator from the Subscription request, the underlying enumerator func and the f...">
<polygon fill="white" stroke="black" points="486,-0.5 486,-41.5 693,-41.5 693,-0.5 486,-0.5"/>
<text text-anchor="start" x="494" y="-29.5" font-family="Helvetica,sans-Serif" font-size="10.00">QuantConnect.Lean.Engine.</text>
<text text-anchor="start" x="494" y="-18.5" font-family="Helvetica,sans-Serif" font-size="10.00">DataFeeds.FileSystemDataFeed.Create</text>
<text text-anchor="middle" x="589.5" y="-7.5" font-family="Helvetica,sans-Serif" font-size="10.00">UniverseEnumerator</text>
</a>
</g>
</g>
<!-- Node25&#45;&gt;Node26 -->
<g id="edge25" class="edge">
<title>Node25&#45;&gt;Node26</title>
<path fill="none" stroke="midnightblue" d="M788.35,-92.13C760.64,-78.93 725.36,-63.01 693,-51 684.13,-47.71 674.73,-44.54 665.36,-41.57"/>
<polygon fill="midnightblue" stroke="midnightblue" points="786.91,-95.33 797.44,-96.5 789.94,-89.02 786.91,-95.33"/>
</g>
<!-- Node27 -->
<g id="node27" class="node">
<title>Node27</title>
<g id="a_node27"><a xlink:href="classQuantConnect_1_1Lean_1_1Engine_1_1DataFeeds_1_1FileSystemDataFeed.html#ad1ce25d62c996f68cf78a6d6a4c53907" target="_top" xlink:title="Creates a file based data enumerator for the given subscription request">
<polygon fill="white" stroke="black" points="243,-0.5 243,-41.5 450,-41.5 450,-0.5 243,-0.5"/>
<text text-anchor="start" x="251" y="-29.5" font-family="Helvetica,sans-Serif" font-size="10.00">QuantConnect.Lean.Engine.</text>
<text text-anchor="start" x="251" y="-18.5" font-family="Helvetica,sans-Serif" font-size="10.00">DataFeeds.FileSystemDataFeed.Create</text>
<text text-anchor="middle" x="346.5" y="-7.5" font-family="Helvetica,sans-Serif" font-size="10.00">Enumerator</text>
</a>
</g>
</g>
<!-- Node26&#45;&gt;Node27 -->
<g id="edge26" class="edge">
<title>Node26&#45;&gt;Node27</title>
<path fill="none" stroke="midnightblue" d="M475.68,-21C467.23,-21 458.73,-21 450.35,-21"/>
<polygon fill="midnightblue" stroke="midnightblue" points="475.94,-24.5 485.94,-21 475.94,-17.5 475.94,-24.5"/>
</g>
<!-- Node28 -->
<g id="node28" class="node">
<title>Node28</title>
<g id="a_node28"><a xlink:href="classQuantConnect_1_1Lean_1_1Engine_1_1DataFeeds_1_1FileSystemDataFeed.html#ac148e78fc814fca88c70a1835be51a25" target="_top" xlink:title="Creates a new subscription to provide data for the specified security.">
<polygon fill="white" stroke="black" points="0,-0.5 0,-41.5 207,-41.5 207,-0.5 0,-0.5"/>
<text text-anchor="start" x="8" y="-29.5" font-family="Helvetica,sans-Serif" font-size="10.00">QuantConnect.Lean.Engine.</text>
<text text-anchor="start" x="8" y="-18.5" font-family="Helvetica,sans-Serif" font-size="10.00">DataFeeds.FileSystemDataFeed.Create</text>
<text text-anchor="middle" x="103.5" y="-7.5" font-family="Helvetica,sans-Serif" font-size="10.00">Subscription</text>
</a>
</g>
</g>
<!-- Node27&#45;&gt;Node28 -->
<g id="edge27" class="edge">
<title>Node27&#45;&gt;Node28</title>
<path fill="none" stroke="midnightblue" d="M232.68,-21C224.23,-21 215.73,-21 207.35,-21"/>
<polygon fill="midnightblue" stroke="midnightblue" points="232.94,-24.5 242.94,-21 232.94,-17.5 232.94,-24.5"/>
</g>
</g>
</svg>
        <g id="navigator" transform="translate(0 0)" fill="#404254">
                <rect fill="#f2f5e9" fill-opacity="0.5" stroke="#606060" stroke-width=".5" x="0" y="0" width="60" height="60"/>
                <use id="zoomplus" xlink:href="#zoomPlus" x="17" y="9" onmousedown="handleZoom(evt,'in')"/>
                <use id="zoomminus" xlink:href="#zoomMin" x="42" y="9" onmousedown="handleZoom(evt,'out')"/>
                <use id="reset" xlink:href="#resetDef" x="30" y="36" onmousedown="handleReset()"/>
                <g id="arrowUp" xlink:href="#dirArrow" transform="translate(30 24)" onmousedown="handlePan(0,-1)">
                  <use xlink:href="#rim" fill="#404040">
                        <set attributeName="fill" to="#808080" begin="arrowUp.mouseover" end="arrowUp.mouseout"/>
                  </use>
                  <path fill="none" stroke="white" stroke-width="1.5" d="M0,-3.0v7 M-2.5,-0.5L0,-3.0L2.5,-0.5"/>
                </g>
                <g id="arrowRight" xlink:href="#dirArrow" transform="rotate(90) translate(36 -43)" onmousedown="handlePan(1,0)">
                  <use xlink:href="#rim" fill="#404040">
                        <set attributeName="fill" to="#808080" begin="arrowRight.mouseover" end="arrowRight.mouseout"/>
                  </use>
                  <path fill="none" stroke="white" stroke-width="1.5" d="M0,-3.0v7 M-2.5,-0.5L0,-3.0L2.5,-0.5"/>
                </g>
                <g id="arrowDown" xlink:href="#dirArrow" transform="rotate(180) translate(-30 -48)" onmousedown="handlePan(0,1)">
                  <use xlink:href="#rim" fill="#404040">
                        <set attributeName="fill" to="#808080" begin="arrowDown.mouseover" end="arrowDown.mouseout"/>
                  </use>
                  <path fill="none" stroke="white" stroke-width="1.5" d="M0,-3.0v7 M-2.5,-0.5L0,-3.0L2.5,-0.5"/>
                </g>
                <g id="arrowLeft" xlink:href="#dirArrow" transform="rotate(270) translate(-36 17)" onmousedown="handlePan(-1,0)">
                  <use xlink:href="#rim" fill="#404040">
                        <set attributeName="fill" to="#808080" begin="arrowLeft.mouseover" end="arrowLeft.mouseout"/>
                  </use>
                  <path fill="none" stroke="white" stroke-width="1.5" d="M0,-3.0v7 M-2.5,-0.5L0,-3.0L2.5,-0.5"/>
                </g>
        </g>
        <svg viewBox="0 0 15 15" width="100%" height="30px" preserveAspectRatio="xMaxYMin meet">
         <g id="arrow_out" transform="scale(0.3 0.3)">
          <a xlink:href="classQuantConnect_1_1Messages_1_1MarketHoursDatabase_a656d4c4976d6c12d2d865ad34fb23c42_icgraph_org.svg" target="_base">
           <rect id="button" ry="5" rx="5" y="6" x="6" height="38" width="38"
                fill="#f2f5e9" fill-opacity="0.5" stroke="#606060" stroke-width="1.0"/>
           <path id="arrow"
             d="M 11.500037,31.436501 C 11.940474,20.09759 22.043105,11.32322 32.158766,21.979434 L 37.068811,17.246167 C 37.068811,17.246167 37.088388,32 37.088388,32 L 22.160133,31.978069 C 22.160133,31.978069 26.997745,27.140456 26.997745,27.140456 C 18.528582,18.264221 13.291696,25.230495 11.500037,31.436501 z"
             style="fill:#404040;"/>
          </a>
         </g>
        </svg>
</svg>
