<?xml version="1.0" encoding="UTF-8" standalone="no"?>
<!DOCTYPE svg PUBLIC "-//W3C//DTD SVG 1.1//EN"
 "http://www.w3.org/Graphics/SVG/1.1/DTD/svg11.dtd">
<!-- Generated by graphviz version 2.43.0 (0)
 -->
<!-- Title: QuantConnect.Data.SubscriptionManager.AddConsolidator Pages: 1 -->
<svg width="482pt" height="149pt"
 viewBox="0.00 0.00 482.00 149.00" xmlns="http://www.w3.org/2000/svg" xmlns:xlink="http://www.w3.org/1999/xlink">
<g id="graph0" class="graph" transform="scale(1 1) rotate(0) translate(4 145)">
<title>QuantConnect.Data.SubscriptionManager.AddConsolidator</title>
<polygon fill="white" stroke="transparent" points="-4,4 -4,-145 478,-145 478,4 -4,4"/>
<!-- Node1 -->
<g id="node1" class="node">
<title>Node1</title>
<g id="a_node1"><a xlink:title="Add a consolidator for the symbol">
<polygon fill="#bfbfbf" stroke="black" points="299,-55.5 299,-85.5 474,-85.5 474,-55.5 299,-55.5"/>
<text text-anchor="start" x="307" y="-73.5" font-family="Helvetica,sans-Serif" font-size="10.00">QuantConnect.Data.Subscription</text>
<text text-anchor="middle" x="386.5" y="-62.5" font-family="Helvetica,sans-Serif" font-size="10.00">Manager.AddConsolidator</text>
</a>
</g>
</g>
<!-- Node2 -->
<g id="node2" class="node">
<title>Node2</title>
<g id="a_node2"><a xlink:href="classQuantConnect_1_1Data_1_1SubscriptionManager.html#aa2034d1091ab4ad767a309464627d8fc" target="_top" xlink:title="Add a custom python consolidator for the symbol">
<polygon fill="white" stroke="black" points="44,-110.5 44,-140.5 219,-140.5 219,-110.5 44,-110.5"/>
<text text-anchor="start" x="52" y="-128.5" font-family="Helvetica,sans-Serif" font-size="10.00">QuantConnect.Data.Subscription</text>
<text text-anchor="middle" x="131.5" y="-117.5" font-family="Helvetica,sans-Serif" font-size="10.00">Manager.AddConsolidator</text>
</a>
</g>
</g>
<!-- Node1&#45;&gt;Node2 -->
<g id="edge1" class="edge">
<title>Node1&#45;&gt;Node2</title>
<path fill="none" stroke="midnightblue" d="M316.65,-88.01C299.19,-92.28 280.44,-96.7 263,-100.5 247.34,-103.92 230.56,-107.32 214.43,-110.47"/>
<polygon fill="midnightblue" stroke="midnightblue" points="317.88,-91.31 326.76,-85.53 316.21,-84.52 317.88,-91.31"/>
</g>
<!-- Node3 -->
<g id="node3" class="node">
<title>Node3</title>
<g id="a_node3"><a xlink:href="classQuantConnect_1_1Algorithm_1_1Framework_1_1Alphas_1_1EmaCrossAlphaModel_1_1SymbolData.html#afd6f27259aac1fc4e453aaab31e51823" target="_top" xlink:title="Initializes an instance of the class SymbolData with the given arguments">
<polygon fill="white" stroke="black" points="19,-50 19,-91 244,-91 244,-50 19,-50"/>
<text text-anchor="start" x="27" y="-79" font-family="Helvetica,sans-Serif" font-size="10.00">QuantConnect.Algorithm.Framework.</text>
<text text-anchor="start" x="27" y="-68" font-family="Helvetica,sans-Serif" font-size="10.00">Alphas.EmaCrossAlphaModel.SymbolData.</text>
<text text-anchor="middle" x="131.5" y="-57" font-family="Helvetica,sans-Serif" font-size="10.00">SymbolData</text>
</a>
</g>
</g>
<!-- Node1&#45;&gt;Node3 -->
<g id="edge2" class="edge">
<title>Node1&#45;&gt;Node3</title>
<path fill="none" stroke="midnightblue" d="M288.78,-70.5C274.18,-70.5 259.02,-70.5 244.14,-70.5"/>
<polygon fill="midnightblue" stroke="midnightblue" points="288.79,-74 298.79,-70.5 288.79,-67 288.79,-74"/>
</g>
<!-- Node4 -->
<g id="node4" class="node">
<title>Node4</title>
<g id="a_node4"><a xlink:href="classQuantConnect_1_1Algorithm_1_1Framework_1_1Alphas_1_1MacdAlphaModel_1_1SymbolData.html#ae7da29d45ecf4119217196c2b54f93de" target="_top" xlink:title="Initializes an instance of the SymbolData class with the given arguments">
<polygon fill="white" stroke="black" points="0,-0.5 0,-30.5 263,-30.5 263,-0.5 0,-0.5"/>
<text text-anchor="start" x="8" y="-18.5" font-family="Helvetica,sans-Serif" font-size="10.00">QuantConnect.Algorithm.Framework.</text>
<text text-anchor="middle" x="131.5" y="-7.5" font-family="Helvetica,sans-Serif" font-size="10.00">Alphas.MacdAlphaModel.SymbolData.SymbolData</text>
</a>
</g>
</g>
<!-- Node1&#45;&gt;Node4 -->
<g id="edge3" class="edge">
<title>Node1&#45;&gt;Node4</title>
<path fill="none" stroke="midnightblue" d="M316.65,-52.99C299.19,-48.72 280.44,-44.3 263,-40.5 247.34,-37.08 230.56,-33.68 214.43,-30.53"/>
<polygon fill="midnightblue" stroke="midnightblue" points="316.21,-56.48 326.76,-55.47 317.88,-49.69 316.21,-56.48"/>
</g>
</g>
</svg>
