<?xml version="1.0" encoding="UTF-8" standalone="no"?>
<!DOCTYPE svg PUBLIC "-//W3C//DTD SVG 1.1//EN"
 "http://www.w3.org/Graphics/SVG/1.1/DTD/svg11.dtd">
<!-- Generated by graphviz version 2.43.0 (0)
 -->
<!-- Title: QuantConnect.Brokerages.CoinbaseBrokerageModel.CanUpdateOrder Pages: 1 -->
<svg width="470pt" height="100pt"
 viewBox="0.00 0.00 470.00 99.50" xmlns="http://www.w3.org/2000/svg" xmlns:xlink="http://www.w3.org/1999/xlink">
<g id="graph0" class="graph" transform="scale(1 1) rotate(0) translate(4 95.5)">
<title>QuantConnect.Brokerages.CoinbaseBrokerageModel.CanUpdateOrder</title>
<polygon fill="white" stroke="transparent" points="-4,4 -4,-95.5 466,-95.5 466,4 -4,4"/>
<!-- Node1 -->
<g id="node1" class="node">
<title>Node1</title>
<g id="a_node1"><a xlink:title="Determines whether the brokerage supports updating an existing order for the specified security.">
<polygon fill="#bfbfbf" stroke="black" points="0,-33 0,-63 225,-63 225,-33 0,-33"/>
<text text-anchor="start" x="8" y="-51" font-family="Helvetica,sans-Serif" font-size="10.00">QuantConnect.Brokerages.</text>
<text text-anchor="middle" x="112.5" y="-40" font-family="Helvetica,sans-Serif" font-size="10.00">CoinbaseBrokerageModel.CanUpdateOrder</text>
</a>
</g>
</g>
<!-- Node2 -->
<g id="node2" class="node">
<title>Node2</title>
<g id="a_node2"><a xlink:href="classQuantConnect_1_1Messages_1_1DefaultBrokerageModel.html#ad5fe70a9d5974d5c9fb72a7cf4b0cdb0" target="_top" xlink:title="Returns a string message saying the quantity given was invalid for the given security">
<polygon fill="white" stroke="black" points="261,-61 261,-91 462,-91 462,-61 261,-61"/>
<text text-anchor="start" x="269" y="-79" font-family="Helvetica,sans-Serif" font-size="10.00">QuantConnect.Messages.Default</text>
<text text-anchor="middle" x="361.5" y="-68" font-family="Helvetica,sans-Serif" font-size="10.00">BrokerageModel.InvalidOrderQuantity</text>
</a>
</g>
</g>
<!-- Node1&#45;&gt;Node2 -->
<g id="edge1" class="edge">
<title>Node1&#45;&gt;Node2</title>
<path fill="none" stroke="midnightblue" d="M225.08,-60.65C233.62,-61.62 242.24,-62.59 250.78,-63.56"/>
<polygon fill="midnightblue" stroke="midnightblue" points="250.41,-67.04 260.75,-64.69 251.2,-60.09 250.41,-67.04"/>
</g>
<!-- Node3 -->
<g id="node3" class="node">
<title>Node3</title>
<g id="a_node3"><a xlink:href="classQuantConnect_1_1Brokerages_1_1CoinbaseBrokerageModel.html#a86711e9ac0e7d4e288e9453cde655661" target="_top" xlink:title="Returns true if the order size is large enough for the given security.">
<polygon fill="white" stroke="black" points="272,-0.5 272,-41.5 451,-41.5 451,-0.5 272,-0.5"/>
<text text-anchor="start" x="280" y="-29.5" font-family="Helvetica,sans-Serif" font-size="10.00">QuantConnect.Brokerages.</text>
<text text-anchor="start" x="280" y="-18.5" font-family="Helvetica,sans-Serif" font-size="10.00">CoinbaseBrokerageModel.IsOrder</text>
<text text-anchor="middle" x="361.5" y="-7.5" font-family="Helvetica,sans-Serif" font-size="10.00">SizeLargeEnough</text>
</a>
</g>
</g>
<!-- Node1&#45;&gt;Node3 -->
<g id="edge2" class="edge">
<title>Node1&#45;&gt;Node3</title>
<path fill="none" stroke="midnightblue" d="M225.08,-35.8C237.36,-34.46 249.81,-33.1 261.92,-31.78"/>
<polygon fill="midnightblue" stroke="midnightblue" points="262.44,-35.24 272,-30.67 261.68,-28.28 262.44,-35.24"/>
</g>
</g>
</svg>
