<?xml version="1.0" encoding="UTF-8" standalone="no"?>
<!DOCTYPE svg PUBLIC "-//W3C//DTD SVG 1.1//EN"
 "http://www.w3.org/Graphics/SVG/1.1/DTD/svg11.dtd">
<!-- Generated by graphviz version 2.43.0 (0)
 -->
<!-- Title: QuantConnect.Util.LeanData.GetDailyCalendar Pages: 1 -->
<svg width="605pt" height="110pt"
 viewBox="0.00 0.00 605.00 110.00" xmlns="http://www.w3.org/2000/svg" xmlns:xlink="http://www.w3.org/1999/xlink">
<g id="graph0" class="graph" transform="scale(1 1) rotate(0) translate(4 106)">
<title>QuantConnect.Util.LeanData.GetDailyCalendar</title>
<polygon fill="white" stroke="transparent" points="-4,4 -4,-106 601,-106 601,4 -4,4"/>
<!-- Node1 -->
<g id="node1" class="node">
<title>Node1</title>
<g id="a_node1"><a xlink:title="Helper method to return the start time and period of a bar the given point time should be part of">
<polygon fill="#bfbfbf" stroke="black" points="0,-36 0,-66 158,-66 158,-36 0,-36"/>
<text text-anchor="start" x="8" y="-54" font-family="Helvetica,sans-Serif" font-size="10.00">QuantConnect.Util.LeanData.</text>
<text text-anchor="middle" x="79" y="-43" font-family="Helvetica,sans-Serif" font-size="10.00">GetDailyCalendar</text>
</a>
</g>
</g>
<!-- Node2 -->
<g id="node2" class="node">
<title>Node2</title>
<g id="a_node2"><a xlink:href="classQuantConnect_1_1Securities_1_1SecurityExchangeHours.html#a39384c1878afb5672cc8c35af28b4b6e" target="_top" xlink:title="Gets the local date time corresponding to the first market open to the specified previous date">
<polygon fill="white" stroke="black" points="194,-60.5 194,-101.5 367,-101.5 367,-60.5 194,-60.5"/>
<text text-anchor="start" x="202" y="-89.5" font-family="Helvetica,sans-Serif" font-size="10.00">QuantConnect.Securities.</text>
<text text-anchor="start" x="202" y="-78.5" font-family="Helvetica,sans-Serif" font-size="10.00">SecurityExchangeHours.GetFirst</text>
<text text-anchor="middle" x="280.5" y="-67.5" font-family="Helvetica,sans-Serif" font-size="10.00">DailyMarketOpen</text>
</a>
</g>
</g>
<!-- Node1&#45;&gt;Node2 -->
<g id="edge1" class="edge">
<title>Node1&#45;&gt;Node2</title>
<path fill="none" stroke="midnightblue" d="M158.28,-62.77C166.67,-64.03 175.28,-65.33 183.85,-66.62"/>
<polygon fill="midnightblue" stroke="midnightblue" points="183.46,-70.1 193.87,-68.12 184.5,-63.18 183.46,-70.1"/>
</g>
<!-- Node4 -->
<g id="node4" class="node">
<title>Node4</title>
<g id="a_node4"><a xlink:href="classQuantConnect_1_1Securities_1_1SecurityExchangeHours.html#aa0dcf265a4e0cc5f9078c8f623258c7d" target="_top" xlink:title="Gets the local date time corresponding to the last market close following the specified date">
<polygon fill="white" stroke="black" points="194,-0.5 194,-41.5 367,-41.5 367,-0.5 194,-0.5"/>
<text text-anchor="start" x="202" y="-29.5" font-family="Helvetica,sans-Serif" font-size="10.00">QuantConnect.Securities.</text>
<text text-anchor="start" x="202" y="-18.5" font-family="Helvetica,sans-Serif" font-size="10.00">SecurityExchangeHours.GetLast</text>
<text text-anchor="middle" x="280.5" y="-7.5" font-family="Helvetica,sans-Serif" font-size="10.00">DailyMarketClose</text>
</a>
</g>
</g>
<!-- Node1&#45;&gt;Node4 -->
<g id="edge3" class="edge">
<title>Node1&#45;&gt;Node4</title>
<path fill="none" stroke="midnightblue" d="M158.28,-39.23C166.67,-37.97 175.28,-36.67 183.85,-35.38"/>
<polygon fill="midnightblue" stroke="midnightblue" points="184.5,-38.82 193.87,-33.88 183.46,-31.9 184.5,-38.82"/>
</g>
<!-- Node3 -->
<g id="node3" class="node">
<title>Node3</title>
<g id="a_node3"><a xlink:href="classQuantConnect_1_1Securities_1_1SecurityExchangeHours.html#ab853277c0165a7e13660548cf0f585e4" target="_top" xlink:title="Gets the local date time corresponding to the previous market open to the specified time">
<polygon fill="white" stroke="black" points="403,-60.5 403,-101.5 597,-101.5 597,-60.5 403,-60.5"/>
<text text-anchor="start" x="411" y="-89.5" font-family="Helvetica,sans-Serif" font-size="10.00">QuantConnect.Securities.</text>
<text text-anchor="start" x="411" y="-78.5" font-family="Helvetica,sans-Serif" font-size="10.00">SecurityExchangeHours.GetPrevious</text>
<text text-anchor="middle" x="500" y="-67.5" font-family="Helvetica,sans-Serif" font-size="10.00">MarketOpen</text>
</a>
</g>
</g>
<!-- Node2&#45;&gt;Node3 -->
<g id="edge2" class="edge">
<title>Node2&#45;&gt;Node3</title>
<path fill="none" stroke="midnightblue" d="M367.15,-81C375.52,-81 384.09,-81 392.63,-81"/>
<polygon fill="midnightblue" stroke="midnightblue" points="392.64,-84.5 402.64,-81 392.64,-77.5 392.64,-84.5"/>
</g>
<!-- Node5 -->
<g id="node5" class="node">
<title>Node5</title>
<g id="a_node5"><a xlink:href="classQuantConnect_1_1Securities_1_1SecurityExchangeHours.html#ae4d431df8172a13151fbc6dcad979492" target="_top" xlink:title="Gets the local date time corresponding to the next market close following the specified time">
<polygon fill="white" stroke="black" points="412,-0.5 412,-41.5 588,-41.5 588,-0.5 412,-0.5"/>
<text text-anchor="start" x="420" y="-29.5" font-family="Helvetica,sans-Serif" font-size="10.00">QuantConnect.Securities.</text>
<text text-anchor="start" x="420" y="-18.5" font-family="Helvetica,sans-Serif" font-size="10.00">SecurityExchangeHours.GetNext</text>
<text text-anchor="middle" x="500" y="-7.5" font-family="Helvetica,sans-Serif" font-size="10.00">MarketClose</text>
</a>
</g>
</g>
<!-- Node4&#45;&gt;Node5 -->
<g id="edge4" class="edge">
<title>Node4&#45;&gt;Node5</title>
<path fill="none" stroke="midnightblue" d="M367.15,-21C378.46,-21 390.12,-21 401.6,-21"/>
<polygon fill="midnightblue" stroke="midnightblue" points="401.64,-24.5 411.64,-21 401.64,-17.5 401.64,-24.5"/>
</g>
</g>
</svg>
