<?xml version="1.0" encoding="UTF-8" standalone="no"?>
<!DOCTYPE svg PUBLIC "-//W3C//DTD SVG 1.1//EN"
 "http://www.w3.org/Graphics/SVG/1.1/DTD/svg11.dtd">
<!-- Generated by graphviz version 2.43.0 (0)
 -->
<!-- Title: QuantConnect.Data.BaseData.Clone Pages: 1 -->
<!--zoomable 269 -->
<svg id="main" version="1.1" xmlns="http://www.w3.org/2000/svg" xmlns:xlink="http://www.w3.org/1999/xlink" xml:space="preserve" onload="init(evt)">
<style type="text/css"><![CDATA[
.edge:hover path { stroke: red; }
.edge:hover polygon { stroke: red; fill: red; }
]]></style>
<script type="text/javascript"><![CDATA[
var edges = document.getElementsByTagName('g');
if (edges && edges.length) {
  for (var i=0;i<edges.length;i++) {
    if (edges[i].id.substr(0,4)=='edge') {
      edges[i].setAttribute('class','edge');
    }
  }
}
]]></script>
        <defs>
                <circle id="rim" cx="0" cy="0" r="7"/>
                <circle id="rim2" cx="0" cy="0" r="3.5"/>
                <g id="zoomPlus">
                        <use xlink:href="#rim" fill="#404040">
                                <set attributeName="fill" to="#808080" begin="zoomplus.mouseover" end="zoomplus.mouseout"/>
                        </use>
                        <path d="M-4,0h8M0,-4v8" fill="none" stroke="white" stroke-width="1.5" pointer-events="none"/>
                </g>
                <g id="zoomMin">
                        <use xlink:href="#rim" fill="#404040">
                                <set attributeName="fill" to="#808080" begin="zoomminus.mouseover" end="zoomminus.mouseout"/>
                        </use>
                        <path d="M-4,0h8" fill="none" stroke="white" stroke-width="1.5" pointer-events="none"/>
                </g>
                <g id="dirArrow">
                        <path fill="none" stroke="white" stroke-width="1.5" d="M0,-3.0v7 M-2.5,-0.5L0,-3.0L2.5,-0.5"/>
                </g>
               <g id="resetDef">
                       <use xlink:href="#rim2" fill="#404040">
                               <set attributeName="fill" to="#808080" begin="reset.mouseover" end="reset.mouseout"/>
                       </use>
               </g>
        </defs>

<script type="text/javascript">
var viewWidth = 1103;
var viewHeight = 269;
var sectionId = 'dynsection-13';
</script>
<script xlink:href="svgpan.js"/>
<svg id="graph" class="graph">
<g id="viewport">
<title>QuantConnect.Data.BaseData.Clone</title>
<polygon fill="white" stroke="transparent" points="-4,4 -4,-264.5 1099,-264.5 1099,4 -4,4"/>
<!-- Node1 -->
<g id="node1" class="node">
<title>Node1</title>
<g id="a_node1"><a xlink:title="Return a new instance clone of this object, used in fill forward">
<polygon fill="#bfbfbf" stroke="black" points="930,-126 930,-156 1095,-156 1095,-126 930,-126"/>
<text text-anchor="start" x="938" y="-144" font-family="Helvetica,sans-Serif" font-size="10.00">QuantConnect.Data.BaseData.</text>
<text text-anchor="middle" x="1012.5" y="-133" font-family="Helvetica,sans-Serif" font-size="10.00">Clone</text>
</a>
</g>
</g>
<!-- Node2 -->
<g id="node2" class="node">
<title>Node2</title>
<g id="a_node2"><a xlink:href="classQuantConnect_1_1Data_1_1BaseData.html#af8622cdfef34470fda9fd08d2f4c02b7" target="_top" xlink:title="Return a new instance clone of this object, used in fill forward">
<polygon fill="white" stroke="black" points="729,-126 729,-156 894,-156 894,-126 729,-126"/>
<text text-anchor="start" x="737" y="-144" font-family="Helvetica,sans-Serif" font-size="10.00">QuantConnect.Data.BaseData.</text>
<text text-anchor="middle" x="811.5" y="-133" font-family="Helvetica,sans-Serif" font-size="10.00">Clone</text>
</a>
</g>
</g>
<!-- Node1&#45;&gt;Node2 -->
<g id="edge1" class="edge">
<title>Node1&#45;&gt;Node2</title>
<path fill="none" stroke="midnightblue" d="M919.96,-141C911.37,-141 902.7,-141 894.21,-141"/>
<polygon fill="midnightblue" stroke="midnightblue" points="919.98,-144.5 929.98,-141 919.98,-137.5 919.98,-144.5"/>
</g>
<!-- Node3 -->
<g id="node3" class="node">
<title>Node3</title>
<g id="a_node3"><a xlink:href="classQuantConnect_1_1Data_1_1Market_1_1TradeBar.html#a5b812a68eb9bbb94a3fb2d3da53843ee" target="_top" xlink:title="Return a new instance clone of this object, used in fill forward">
<polygon fill="white" stroke="black" points="508.5,-230 508.5,-260 660.5,-260 660.5,-230 508.5,-230"/>
<text text-anchor="start" x="516.5" y="-248" font-family="Helvetica,sans-Serif" font-size="10.00">QuantConnect.Data.Market.</text>
<text text-anchor="middle" x="584.5" y="-237" font-family="Helvetica,sans-Serif" font-size="10.00">TradeBar.Clone</text>
</a>
</g>
</g>
<!-- Node2&#45;&gt;Node3 -->
<g id="edge2" class="edge">
<title>Node2&#45;&gt;Node3</title>
<path fill="none" stroke="midnightblue" d="M785.26,-162.39C762.53,-180.58 727.49,-206.06 693,-221 682.82,-225.41 671.74,-229.05 660.68,-232.05"/>
<polygon fill="midnightblue" stroke="midnightblue" points="787.5,-165.08 793.05,-156.06 783.08,-159.65 787.5,-165.08"/>
</g>
<!-- Node4 -->
<g id="node4" class="node">
<title>Node4</title>
<g id="a_node4"><a xlink:href="classQuantConnect_1_1Lean_1_1Engine_1_1DataFeeds_1_1SubscriptionData.html#ad92a6b0d165cc21e6186648e74db9614" target="_top" xlink:title="Clones the data, computes the utc emit time and performs exchange round down behavior,...">
<polygon fill="white" stroke="black" points="489.5,-181 489.5,-211 679.5,-211 679.5,-181 489.5,-181"/>
<text text-anchor="start" x="497.5" y="-199" font-family="Helvetica,sans-Serif" font-size="10.00">QuantConnect.Lean.Engine.</text>
<text text-anchor="middle" x="584.5" y="-188" font-family="Helvetica,sans-Serif" font-size="10.00">DataFeeds.SubscriptionData.Create</text>
</a>
</g>
</g>
<!-- Node2&#45;&gt;Node4 -->
<g id="edge3" class="edge">
<title>Node2&#45;&gt;Node4</title>
<path fill="none" stroke="midnightblue" d="M742.63,-158.59C726.39,-162.73 709.09,-167.08 693,-171 679.5,-174.29 665.03,-177.72 651.21,-180.95"/>
<polygon fill="midnightblue" stroke="midnightblue" points="743.77,-161.91 752.59,-156.05 742.04,-155.13 743.77,-161.91"/>
</g>
<!-- Node8 -->
<g id="node8" class="node">
<title>Node8</title>
<g id="a_node8"><a xlink:href="classQuantConnect_1_1Lean_1_1Engine_1_1DataFeeds_1_1Enumerators_1_1StrictDailyEndTimesEnumerator.html#a3999ce01b214b32d39ed3043d6b0f8e5" target="_top" xlink:title="Move to the next date">
<polygon fill="white" stroke="black" points="490.5,-120.5 490.5,-161.5 678.5,-161.5 678.5,-120.5 490.5,-120.5"/>
<text text-anchor="start" x="498.5" y="-149.5" font-family="Helvetica,sans-Serif" font-size="10.00">QuantConnect.Lean.Engine.</text>
<text text-anchor="start" x="498.5" y="-138.5" font-family="Helvetica,sans-Serif" font-size="10.00">DataFeeds.Enumerators.StrictDaily</text>
<text text-anchor="middle" x="584.5" y="-127.5" font-family="Helvetica,sans-Serif" font-size="10.00">EndTimesEnumerator.MoveNext</text>
</a>
</g>
</g>
<!-- Node2&#45;&gt;Node8 -->
<g id="edge7" class="edge">
<title>Node2&#45;&gt;Node8</title>
<path fill="none" stroke="midnightblue" d="M718.88,-141C705.6,-141 691.91,-141 678.6,-141"/>
<polygon fill="midnightblue" stroke="midnightblue" points="718.95,-144.5 728.95,-141 718.95,-137.5 718.95,-144.5"/>
</g>
<!-- Node9 -->
<g id="node9" class="node">
<title>Node9</title>
<g id="a_node9"><a xlink:href="classQuantConnect_1_1Lean_1_1Engine_1_1DataFeeds_1_1Enumerators_1_1ScheduledEnumerator.html#ad5bf2a02e0b77e83d31bbcf6b840b233" target="_top" xlink:title="Advances the enumerator to the next element of the collection.">
<polygon fill="white" stroke="black" points="491,-60.5 491,-101.5 678,-101.5 678,-60.5 491,-60.5"/>
<text text-anchor="start" x="499" y="-89.5" font-family="Helvetica,sans-Serif" font-size="10.00">QuantConnect.Lean.Engine.</text>
<text text-anchor="start" x="499" y="-78.5" font-family="Helvetica,sans-Serif" font-size="10.00">DataFeeds.Enumerators.Scheduled</text>
<text text-anchor="middle" x="584.5" y="-67.5" font-family="Helvetica,sans-Serif" font-size="10.00">Enumerator.MoveNext</text>
</a>
</g>
</g>
<!-- Node2&#45;&gt;Node9 -->
<g id="edge8" class="edge">
<title>Node2&#45;&gt;Node9</title>
<path fill="none" stroke="midnightblue" d="M744.03,-123.27C718.41,-116.44 688.94,-108.58 662.42,-101.51"/>
<polygon fill="midnightblue" stroke="midnightblue" points="743.45,-126.74 754.01,-125.94 745.25,-119.98 743.45,-126.74"/>
</g>
<!-- Node10 -->
<g id="node10" class="node">
<title>Node10</title>
<g id="a_node10"><a xlink:href="classQuantConnect_1_1Lean_1_1Engine_1_1DataFeeds_1_1Enumerators_1_1LiveSubscriptionEnumerator.html#af4531dceccbb14e47e5df44a2c03c646" target="_top" xlink:title="Advances the enumerator to the next element.">
<polygon fill="white" stroke="black" points="476,-0.5 476,-41.5 693,-41.5 693,-0.5 476,-0.5"/>
<text text-anchor="start" x="484" y="-29.5" font-family="Helvetica,sans-Serif" font-size="10.00">QuantConnect.Lean.Engine.</text>
<text text-anchor="start" x="484" y="-18.5" font-family="Helvetica,sans-Serif" font-size="10.00">DataFeeds.Enumerators.LiveSubscription</text>
<text text-anchor="middle" x="584.5" y="-7.5" font-family="Helvetica,sans-Serif" font-size="10.00">Enumerator.MoveNext</text>
</a>
</g>
</g>
<!-- Node2&#45;&gt;Node10 -->
<g id="edge9" class="edge">
<title>Node2&#45;&gt;Node10</title>
<path fill="none" stroke="midnightblue" d="M787.37,-118.94C764.9,-98.61 728.99,-68.96 693,-51 685.98,-47.5 678.49,-44.35 670.85,-41.54"/>
<polygon fill="midnightblue" stroke="midnightblue" points="785.01,-121.51 794.74,-125.7 789.74,-116.36 785.01,-121.51"/>
</g>
<!-- Node5 -->
<g id="node5" class="node">
<title>Node5</title>
<g id="a_node5"><a xlink:href="classQuantConnect_1_1Lean_1_1Engine_1_1DataFeeds_1_1SubscriptionUtils.html#a1730082b174a831b7b6ae6f090a35cdb" target="_top" xlink:title="Setups a new Subscription which will consume a blocking EnqueueableEnumerator&lt;T&gt; that will be feed by...">
<polygon fill="white" stroke="black" points="247,-205.5 247,-246.5 436,-246.5 436,-205.5 247,-205.5"/>
<text text-anchor="start" x="255" y="-234.5" font-family="Helvetica,sans-Serif" font-size="10.00">QuantConnect.Lean.Engine.</text>
<text text-anchor="start" x="255" y="-223.5" font-family="Helvetica,sans-Serif" font-size="10.00">DataFeeds.SubscriptionUtils.Create</text>
<text text-anchor="middle" x="341.5" y="-212.5" font-family="Helvetica,sans-Serif" font-size="10.00">AndScheduleWorker</text>
</a>
</g>
</g>
<!-- Node4&#45;&gt;Node5 -->
<g id="edge4" class="edge">
<title>Node4&#45;&gt;Node5</title>
<path fill="none" stroke="midnightblue" d="M479,-209.01C464.78,-210.78 450.26,-212.59 436.25,-214.33"/>
<polygon fill="midnightblue" stroke="midnightblue" points="479.8,-212.44 489.29,-207.73 478.93,-205.49 479.8,-212.44"/>
</g>
<!-- Node7 -->
<g id="node7" class="node">
<title>Node7</title>
<g id="a_node7"><a xlink:href="classQuantConnect_1_1Lean_1_1Engine_1_1DataFeeds_1_1Enumerators_1_1SubscriptionDataEnumerator.html#a64fa7fd463f6b3c0575ccaba788a9e79" target="_top" xlink:title="Advances the enumerator to the next element of the collection.">
<polygon fill="white" stroke="black" points="243,-145.5 243,-186.5 440,-186.5 440,-145.5 243,-145.5"/>
<text text-anchor="start" x="251" y="-174.5" font-family="Helvetica,sans-Serif" font-size="10.00">QuantConnect.Lean.Engine.</text>
<text text-anchor="start" x="251" y="-163.5" font-family="Helvetica,sans-Serif" font-size="10.00">DataFeeds.Enumerators.Subscription</text>
<text text-anchor="middle" x="341.5" y="-152.5" font-family="Helvetica,sans-Serif" font-size="10.00">DataEnumerator.MoveNext</text>
</a>
</g>
</g>
<!-- Node4&#45;&gt;Node7 -->
<g id="edge6" class="edge">
<title>Node4&#45;&gt;Node7</title>
<path fill="none" stroke="midnightblue" d="M479.02,-182.99C466.13,-181.39 453,-179.76 440.22,-178.16"/>
<polygon fill="midnightblue" stroke="midnightblue" points="478.93,-186.51 489.29,-184.27 479.8,-179.56 478.93,-186.51"/>
</g>
<!-- Node6 -->
<g id="node6" class="node">
<title>Node6</title>
<g id="a_node6"><a xlink:href="classQuantConnect_1_1Lean_1_1Engine_1_1DataFeeds_1_1FileSystemDataFeed.html#ac148e78fc814fca88c70a1835be51a25" target="_top" xlink:title="Creates a new subscription to provide data for the specified security.">
<polygon fill="white" stroke="black" points="0,-205.5 0,-246.5 207,-246.5 207,-205.5 0,-205.5"/>
<text text-anchor="start" x="8" y="-234.5" font-family="Helvetica,sans-Serif" font-size="10.00">QuantConnect.Lean.Engine.</text>
<text text-anchor="start" x="8" y="-223.5" font-family="Helvetica,sans-Serif" font-size="10.00">DataFeeds.FileSystemDataFeed.Create</text>
<text text-anchor="middle" x="103.5" y="-212.5" font-family="Helvetica,sans-Serif" font-size="10.00">Subscription</text>
</a>
</g>
</g>
<!-- Node5&#45;&gt;Node6 -->
<g id="edge5" class="edge">
<title>Node5&#45;&gt;Node6</title>
<path fill="none" stroke="midnightblue" d="M236.76,-226C226.99,-226 217.09,-226 207.32,-226"/>
<polygon fill="midnightblue" stroke="midnightblue" points="236.89,-229.5 246.89,-226 236.89,-222.5 236.89,-229.5"/>
</g>
</g>
</svg>
        <g id="navigator" transform="translate(0 0)" fill="#404254">
                <rect fill="#f2f5e9" fill-opacity="0.5" stroke="#606060" stroke-width=".5" x="0" y="0" width="60" height="60"/>
                <use id="zoomplus" xlink:href="#zoomPlus" x="17" y="9" onmousedown="handleZoom(evt,'in')"/>
                <use id="zoomminus" xlink:href="#zoomMin" x="42" y="9" onmousedown="handleZoom(evt,'out')"/>
                <use id="reset" xlink:href="#resetDef" x="30" y="36" onmousedown="handleReset()"/>
                <g id="arrowUp" xlink:href="#dirArrow" transform="translate(30 24)" onmousedown="handlePan(0,-1)">
                  <use xlink:href="#rim" fill="#404040">
                        <set attributeName="fill" to="#808080" begin="arrowUp.mouseover" end="arrowUp.mouseout"/>
                  </use>
                  <path fill="none" stroke="white" stroke-width="1.5" d="M0,-3.0v7 M-2.5,-0.5L0,-3.0L2.5,-0.5"/>
                </g>
                <g id="arrowRight" xlink:href="#dirArrow" transform="rotate(90) translate(36 -43)" onmousedown="handlePan(1,0)">
                  <use xlink:href="#rim" fill="#404040">
                        <set attributeName="fill" to="#808080" begin="arrowRight.mouseover" end="arrowRight.mouseout"/>
                  </use>
                  <path fill="none" stroke="white" stroke-width="1.5" d="M0,-3.0v7 M-2.5,-0.5L0,-3.0L2.5,-0.5"/>
                </g>
                <g id="arrowDown" xlink:href="#dirArrow" transform="rotate(180) translate(-30 -48)" onmousedown="handlePan(0,1)">
                  <use xlink:href="#rim" fill="#404040">
                        <set attributeName="fill" to="#808080" begin="arrowDown.mouseover" end="arrowDown.mouseout"/>
                  </use>
                  <path fill="none" stroke="white" stroke-width="1.5" d="M0,-3.0v7 M-2.5,-0.5L0,-3.0L2.5,-0.5"/>
                </g>
                <g id="arrowLeft" xlink:href="#dirArrow" transform="rotate(270) translate(-36 17)" onmousedown="handlePan(-1,0)">
                  <use xlink:href="#rim" fill="#404040">
                        <set attributeName="fill" to="#808080" begin="arrowLeft.mouseover" end="arrowLeft.mouseout"/>
                  </use>
                  <path fill="none" stroke="white" stroke-width="1.5" d="M0,-3.0v7 M-2.5,-0.5L0,-3.0L2.5,-0.5"/>
                </g>
        </g>
        <svg viewBox="0 0 15 15" width="100%" height="30px" preserveAspectRatio="xMaxYMin meet">
         <g id="arrow_out" transform="scale(0.3 0.3)">
          <a xlink:href="classQuantConnect_1_1Data_1_1BaseData_af973f9d8b7c0726fed42fa03ccd5f963_icgraph_org.svg" target="_base">
           <rect id="button" ry="5" rx="5" y="6" x="6" height="38" width="38"
                fill="#f2f5e9" fill-opacity="0.5" stroke="#606060" stroke-width="1.0"/>
           <path id="arrow"
             d="M 11.500037,31.436501 C 11.940474,20.09759 22.043105,11.32322 32.158766,21.979434 L 37.068811,17.246167 C 37.068811,17.246167 37.088388,32 37.088388,32 L 22.160133,31.978069 C 22.160133,31.978069 26.997745,27.140456 26.997745,27.140456 C 18.528582,18.264221 13.291696,25.230495 11.500037,31.436501 z"
             style="fill:#404040;"/>
          </a>
         </g>
        </svg>
</svg>
