<?xml version="1.0" encoding="UTF-8" standalone="no"?>
<!DOCTYPE svg PUBLIC "-//W3C//DTD SVG 1.1//EN"
 "http://www.w3.org/Graphics/SVG/1.1/DTD/svg11.dtd">
<!-- Generated by graphviz version 2.43.0 (0)
 -->
<!-- Title: QuantConnect.Notifications.Notification Pages: 1 -->
<svg width="350pt" height="235pt"
 viewBox="0.00 0.00 350.00 235.00" xmlns="http://www.w3.org/2000/svg" xmlns:xlink="http://www.w3.org/1999/xlink">
<g id="graph0" class="graph" transform="scale(1 1) rotate(0) translate(4 231)">
<title>QuantConnect.Notifications.Notification</title>
<polygon fill="white" stroke="transparent" points="-4,4 -4,-231 346,-231 346,4 -4,4"/>
<!-- Node1 -->
<g id="node1" class="node">
<title>Node1</title>
<g id="a_node1"><a xlink:title="Local/desktop implementation of messaging system for Lean Engine.">
<polygon fill="#bfbfbf" stroke="black" points="0,-98.5 0,-128.5 153,-128.5 153,-98.5 0,-98.5"/>
<text text-anchor="start" x="8" y="-116.5" font-family="Helvetica,sans-Serif" font-size="10.00">QuantConnect.Notifications.</text>
<text text-anchor="middle" x="76.5" y="-105.5" font-family="Helvetica,sans-Serif" font-size="10.00">Notification</text>
</a>
</g>
</g>
<!-- Node2 -->
<g id="node2" class="node">
<title>Node2</title>
<g id="a_node2"><a xlink:href="classQuantConnect_1_1Notifications_1_1NotificationEmail.html" target="_top" xlink:title="Email notification data.">
<polygon fill="white" stroke="black" points="189,-196.5 189,-226.5 342,-226.5 342,-196.5 189,-196.5"/>
<text text-anchor="start" x="197" y="-214.5" font-family="Helvetica,sans-Serif" font-size="10.00">QuantConnect.Notifications.</text>
<text text-anchor="middle" x="265.5" y="-203.5" font-family="Helvetica,sans-Serif" font-size="10.00">NotificationEmail</text>
</a>
</g>
</g>
<!-- Node1&#45;&gt;Node2 -->
<g id="edge1" class="edge">
<title>Node1&#45;&gt;Node2</title>
<path fill="none" stroke="midnightblue" d="M104.78,-134.74C126.59,-150.94 158.48,-172.88 189,-187.5 195.82,-190.77 203.2,-193.74 210.57,-196.39"/>
<polygon fill="midnightblue" stroke="midnightblue" points="106.74,-131.84 96.65,-128.62 102.53,-137.43 106.74,-131.84"/>
</g>
<!-- Node3 -->
<g id="node3" class="node">
<title>Node3</title>
<g id="a_node3"><a xlink:href="classQuantConnect_1_1Notifications_1_1NotificationFtp.html" target="_top" xlink:title="FTP notification data">
<polygon fill="white" stroke="black" points="189,-147.5 189,-177.5 342,-177.5 342,-147.5 189,-147.5"/>
<text text-anchor="start" x="197" y="-165.5" font-family="Helvetica,sans-Serif" font-size="10.00">QuantConnect.Notifications.</text>
<text text-anchor="middle" x="265.5" y="-154.5" font-family="Helvetica,sans-Serif" font-size="10.00">NotificationFtp</text>
</a>
</g>
</g>
<!-- Node1&#45;&gt;Node3 -->
<g id="edge2" class="edge">
<title>Node1&#45;&gt;Node3</title>
<path fill="none" stroke="midnightblue" d="M144.75,-131.12C165.21,-136.48 187.5,-142.32 207.23,-147.49"/>
<polygon fill="midnightblue" stroke="midnightblue" points="145.44,-127.68 134.88,-128.53 143.66,-134.46 145.44,-127.68"/>
</g>
<!-- Node4 -->
<g id="node4" class="node">
<title>Node4</title>
<g id="a_node4"><a xlink:href="classQuantConnect_1_1Notifications_1_1NotificationSms.html" target="_top" xlink:title="Sms Notification Class">
<polygon fill="white" stroke="black" points="189,-98.5 189,-128.5 342,-128.5 342,-98.5 189,-98.5"/>
<text text-anchor="start" x="197" y="-116.5" font-family="Helvetica,sans-Serif" font-size="10.00">QuantConnect.Notifications.</text>
<text text-anchor="middle" x="265.5" y="-105.5" font-family="Helvetica,sans-Serif" font-size="10.00">NotificationSms</text>
</a>
</g>
</g>
<!-- Node1&#45;&gt;Node4 -->
<g id="edge3" class="edge">
<title>Node1&#45;&gt;Node4</title>
<path fill="none" stroke="midnightblue" d="M163.3,-113.5C171.77,-113.5 180.33,-113.5 188.7,-113.5"/>
<polygon fill="midnightblue" stroke="midnightblue" points="163.02,-110 153.02,-113.5 163.02,-117 163.02,-110"/>
</g>
<!-- Node5 -->
<g id="node5" class="node">
<title>Node5</title>
<g id="a_node5"><a xlink:href="classQuantConnect_1_1Notifications_1_1NotificationTelegram.html" target="_top" xlink:title="Telegram notification data">
<polygon fill="white" stroke="black" points="189,-49.5 189,-79.5 342,-79.5 342,-49.5 189,-49.5"/>
<text text-anchor="start" x="197" y="-67.5" font-family="Helvetica,sans-Serif" font-size="10.00">QuantConnect.Notifications.</text>
<text text-anchor="middle" x="265.5" y="-56.5" font-family="Helvetica,sans-Serif" font-size="10.00">NotificationTelegram</text>
</a>
</g>
</g>
<!-- Node1&#45;&gt;Node5 -->
<g id="edge4" class="edge">
<title>Node1&#45;&gt;Node5</title>
<path fill="none" stroke="midnightblue" d="M144.75,-95.88C165.21,-90.52 187.5,-84.68 207.23,-79.51"/>
<polygon fill="midnightblue" stroke="midnightblue" points="143.66,-92.54 134.88,-98.47 145.44,-99.32 143.66,-92.54"/>
</g>
<!-- Node6 -->
<g id="node6" class="node">
<title>Node6</title>
<g id="a_node6"><a xlink:href="classQuantConnect_1_1Notifications_1_1NotificationWeb.html" target="_top" xlink:title="Web Notification Class">
<polygon fill="white" stroke="black" points="189,-0.5 189,-30.5 342,-30.5 342,-0.5 189,-0.5"/>
<text text-anchor="start" x="197" y="-18.5" font-family="Helvetica,sans-Serif" font-size="10.00">QuantConnect.Notifications.</text>
<text text-anchor="middle" x="265.5" y="-7.5" font-family="Helvetica,sans-Serif" font-size="10.00">NotificationWeb</text>
</a>
</g>
</g>
<!-- Node1&#45;&gt;Node6 -->
<g id="edge5" class="edge">
<title>Node1&#45;&gt;Node6</title>
<path fill="none" stroke="midnightblue" d="M105.27,-92.38C127.12,-76.5 158.83,-55.06 189,-40.5 196.59,-36.84 204.84,-33.5 213.02,-30.54"/>
<polygon fill="midnightblue" stroke="midnightblue" points="103.09,-89.64 97.11,-98.38 107.24,-95.28 103.09,-89.64"/>
</g>
</g>
</svg>
