<?xml version="1.0" encoding="UTF-8" standalone="no"?>
<!DOCTYPE svg PUBLIC "-//W3C//DTD SVG 1.1//EN"
 "http://www.w3.org/Graphics/SVG/1.1/DTD/svg11.dtd">
<!-- Generated by graphviz version 2.43.0 (0)
 -->
<!-- Title: QuantConnect.Market.SupportedMarkets Pages: 1 -->
<svg width="646pt" height="105pt"
 viewBox="0.00 0.00 646.00 105.00" xmlns="http://www.w3.org/2000/svg" xmlns:xlink="http://www.w3.org/1999/xlink">
<g id="graph0" class="graph" transform="scale(1 1) rotate(0) translate(4 101)">
<title>QuantConnect.Market.SupportedMarkets</title>
<polygon fill="white" stroke="transparent" points="-4,4 -4,-101 642,-101 642,4 -4,4"/>
<!-- Node1 -->
<g id="node1" class="node">
<title>Node1</title>
<g id="a_node1"><a xlink:title="Returns a list of the supported markets">
<polygon fill="#bfbfbf" stroke="black" points="463,-33 463,-63 638,-63 638,-33 463,-33"/>
<text text-anchor="start" x="471" y="-51" font-family="Helvetica,sans-Serif" font-size="10.00">QuantConnect.Market.Supported</text>
<text text-anchor="middle" x="550.5" y="-40" font-family="Helvetica,sans-Serif" font-size="10.00">Markets</text>
</a>
</g>
</g>
<!-- Node2 -->
<g id="node2" class="node">
<title>Node2</title>
<g id="a_node2"><a xlink:href="structQuantConnect_1_1DownloaderDataProvider_1_1Launcher_1_1DataDownloadConfig.html#a57d8d34a6b29fb2b086ce297072670d3" target="_top" xlink:title="Initializes a new instance of the DataDownloadConfig struct.">
<polygon fill="white" stroke="black" points="215,-55.5 215,-96.5 427,-96.5 427,-55.5 215,-55.5"/>
<text text-anchor="start" x="223" y="-84.5" font-family="Helvetica,sans-Serif" font-size="10.00">QuantConnect.DownloaderData</text>
<text text-anchor="start" x="223" y="-73.5" font-family="Helvetica,sans-Serif" font-size="10.00">Provider.Launcher.DataDownloadConfig.</text>
<text text-anchor="middle" x="321" y="-62.5" font-family="Helvetica,sans-Serif" font-size="10.00">DataDownloadConfig</text>
</a>
</g>
</g>
<!-- Node1&#45;&gt;Node2 -->
<g id="edge1" class="edge">
<title>Node1&#45;&gt;Node2</title>
<path fill="none" stroke="midnightblue" d="M452.91,-59.89C444.38,-60.94 435.72,-62 427.13,-63.06"/>
<polygon fill="midnightblue" stroke="midnightblue" points="453.35,-63.36 462.84,-58.67 452.49,-56.41 453.35,-63.36"/>
</g>
<!-- Node3 -->
<g id="node3" class="node">
<title>Node3</title>
<g id="a_node3"><a xlink:href="classQuantConnect_1_1Util_1_1LeanData.html#acb196459d817160bd77b78d0409bcf8e" target="_top" xlink:title="Parses file name into a Security and DateTime">
<polygon fill="white" stroke="black" points="242,-6 242,-36 400,-36 400,-6 242,-6"/>
<text text-anchor="start" x="250" y="-24" font-family="Helvetica,sans-Serif" font-size="10.00">QuantConnect.Util.LeanData.</text>
<text text-anchor="middle" x="321" y="-13" font-family="Helvetica,sans-Serif" font-size="10.00">TryParseSecurityType</text>
</a>
</g>
</g>
<!-- Node1&#45;&gt;Node3 -->
<g id="edge2" class="edge">
<title>Node1&#45;&gt;Node3</title>
<path fill="none" stroke="midnightblue" d="M452.62,-36.5C435.12,-34.43 417.09,-32.28 400.21,-30.28"/>
<polygon fill="midnightblue" stroke="midnightblue" points="452.5,-40.01 462.84,-37.72 453.33,-33.06 452.5,-40.01"/>
</g>
<!-- Node4 -->
<g id="node4" class="node">
<title>Node4</title>
<g id="a_node4"><a xlink:href="classQuantConnect_1_1Lean_1_1Engine_1_1DataFeeds_1_1ApiDataProvider.html#a533885bcb39ac76411a2d07301d2475e" target="_top" xlink:title="Main filter to determine if this file needs to be downloaded">
<polygon fill="white" stroke="black" points="0,-0.5 0,-41.5 179,-41.5 179,-0.5 0,-0.5"/>
<text text-anchor="start" x="8" y="-29.5" font-family="Helvetica,sans-Serif" font-size="10.00">QuantConnect.Lean.Engine.</text>
<text text-anchor="start" x="8" y="-18.5" font-family="Helvetica,sans-Serif" font-size="10.00">DataFeeds.ApiDataProvider.Need</text>
<text text-anchor="middle" x="89.5" y="-7.5" font-family="Helvetica,sans-Serif" font-size="10.00">ToDownload</text>
</a>
</g>
</g>
<!-- Node3&#45;&gt;Node4 -->
<g id="edge3" class="edge">
<title>Node3&#45;&gt;Node4</title>
<path fill="none" stroke="midnightblue" d="M231.94,-21C214.71,-21 196.62,-21 179.36,-21"/>
<polygon fill="midnightblue" stroke="midnightblue" points="231.98,-24.5 241.98,-21 231.98,-17.5 231.98,-24.5"/>
</g>
</g>
</svg>
