<?xml version="1.0" encoding="UTF-8" standalone="no"?>
<!DOCTYPE svg PUBLIC "-//W3C//DTD SVG 1.1//EN"
 "http://www.w3.org/Graphics/SVG/1.1/DTD/svg11.dtd">
<!-- Generated by graphviz version 2.43.0 (0)
 -->
<!-- Title: QuantConnect.Data.Market.TradeBar.ParseFuture&lt; T &gt; Pages: 1 -->
<!--zoomable 110 -->
<svg id="main" version="1.1" xmlns="http://www.w3.org/2000/svg" xmlns:xlink="http://www.w3.org/1999/xlink" xml:space="preserve" onload="init(evt)">
<style type="text/css"><![CDATA[
.edge:hover path { stroke: red; }
.edge:hover polygon { stroke: red; fill: red; }
]]></style>
<script type="text/javascript"><![CDATA[
var edges = document.getElementsByTagName('g');
if (edges && edges.length) {
  for (var i=0;i<edges.length;i++) {
    if (edges[i].id.substr(0,4)=='edge') {
      edges[i].setAttribute('class','edge');
    }
  }
}
]]></script>
        <defs>
                <circle id="rim" cx="0" cy="0" r="7"/>
                <circle id="rim2" cx="0" cy="0" r="3.5"/>
                <g id="zoomPlus">
                        <use xlink:href="#rim" fill="#404040">
                                <set attributeName="fill" to="#808080" begin="zoomplus.mouseover" end="zoomplus.mouseout"/>
                        </use>
                        <path d="M-4,0h8M0,-4v8" fill="none" stroke="white" stroke-width="1.5" pointer-events="none"/>
                </g>
                <g id="zoomMin">
                        <use xlink:href="#rim" fill="#404040">
                                <set attributeName="fill" to="#808080" begin="zoomminus.mouseover" end="zoomminus.mouseout"/>
                        </use>
                        <path d="M-4,0h8" fill="none" stroke="white" stroke-width="1.5" pointer-events="none"/>
                </g>
                <g id="dirArrow">
                        <path fill="none" stroke="white" stroke-width="1.5" d="M0,-3.0v7 M-2.5,-0.5L0,-3.0L2.5,-0.5"/>
                </g>
               <g id="resetDef">
                       <use xlink:href="#rim2" fill="#404040">
                               <set attributeName="fill" to="#808080" begin="reset.mouseover" end="reset.mouseout"/>
                       </use>
               </g>
        </defs>

<script type="text/javascript">
var viewWidth = 1108;
var viewHeight = 110;
var sectionId = 'dynsection-19';
</script>
<script xlink:href="svgpan.js"/>
<svg id="graph" class="graph">
<g id="viewport">
<title>QuantConnect.Data.Market.TradeBar.ParseFuture&lt; T &gt;</title>
<polygon fill="white" stroke="transparent" points="-4,4 -4,-106 1104,-106 1104,4 -4,4"/>
<!-- Node1 -->
<g id="node1" class="node">
<title>Node1</title>
<g id="a_node1"><a xlink:title="Parses Future trade bar data into the specified tradebar type, useful for custom types with OHLCV dat...">
<polygon fill="#bfbfbf" stroke="black" points="0,-35 0,-65 152,-65 152,-35 0,-35"/>
<text text-anchor="start" x="8" y="-53" font-family="Helvetica,sans-Serif" font-size="10.00">QuantConnect.Data.Market.</text>
<text text-anchor="middle" x="76" y="-42" font-family="Helvetica,sans-Serif" font-size="10.00">TradeBar.ParseFuture&lt; T &gt;</text>
</a>
</g>
</g>
<!-- Node2 -->
<g id="node2" class="node">
<title>Node2</title>
<g id="a_node2"><a xlink:href="classQuantConnect_1_1Symbol.html#a59158f74116be3dad0ea0f3f3f134416" target="_top" xlink:title="Initializes a new instance of the Symbol class">
<polygon fill="white" stroke="black" points="188,-40.5 188,-59.5 353,-59.5 353,-40.5 188,-40.5"/>
<text text-anchor="middle" x="270.5" y="-47.5" font-family="Helvetica,sans-Serif" font-size="10.00">QuantConnect.Symbol.Symbol</text>
</a>
</g>
</g>
<!-- Node1&#45;&gt;Node2 -->
<g id="edge1" class="edge">
<title>Node1&#45;&gt;Node2</title>
<path fill="none" stroke="midnightblue" d="M152.25,-50C160.67,-50 169.3,-50 177.89,-50"/>
<polygon fill="midnightblue" stroke="midnightblue" points="177.94,-53.5 187.94,-50 177.94,-46.5 177.94,-53.5"/>
</g>
<!-- Node3 -->
<g id="node3" class="node">
<title>Node3</title>
<g id="a_node3"><a xlink:href="classQuantConnect_1_1Symbol.html#a59b0795fa21f46c306deb5576fa03bb9" target="_top" xlink:title="Centralized helper method to resolve alias for a symbol">
<polygon fill="white" stroke="black" points="389,-40.5 389,-59.5 559,-59.5 559,-40.5 389,-40.5"/>
<text text-anchor="middle" x="474" y="-47.5" font-family="Helvetica,sans-Serif" font-size="10.00">QuantConnect.Symbol.GetAlias</text>
</a>
</g>
</g>
<!-- Node2&#45;&gt;Node3 -->
<g id="edge2" class="edge">
<title>Node2&#45;&gt;Node3</title>
<path fill="none" stroke="midnightblue" d="M353.17,-50C361.64,-50 370.29,-50 378.88,-50"/>
<polygon fill="midnightblue" stroke="midnightblue" points="378.92,-53.5 388.92,-50 378.92,-46.5 378.92,-53.5"/>
</g>
<!-- Node4 -->
<g id="node4" class="node">
<title>Node4</title>
<g id="a_node4"><a xlink:href="classQuantConnect_1_1SymbolRepresentation.html#ad43ac907f6c19083821f58f21c6de017" target="_top" xlink:title="Returns future symbol ticker from underlying and expiration date. Function can generate tickers of tw...">
<polygon fill="white" stroke="black" points="595,-63 595,-93 798,-93 798,-63 595,-63"/>
<text text-anchor="start" x="603" y="-81" font-family="Helvetica,sans-Serif" font-size="10.00">QuantConnect.SymbolRepresentation.</text>
<text text-anchor="middle" x="696.5" y="-70" font-family="Helvetica,sans-Serif" font-size="10.00">GenerateFutureTicker</text>
</a>
</g>
</g>
<!-- Node3&#45;&gt;Node4 -->
<g id="edge3" class="edge">
<title>Node3&#45;&gt;Node4</title>
<path fill="none" stroke="midnightblue" d="M549.96,-59.52C561.27,-60.96 573.14,-62.46 585.01,-63.97"/>
<polygon fill="midnightblue" stroke="midnightblue" points="584.62,-67.45 594.98,-65.24 585.5,-60.5 584.62,-67.45"/>
</g>
<!-- Node6 -->
<g id="node6" class="node">
<title>Node6</title>
<g id="a_node6"><a xlink:href="classQuantConnect_1_1SymbolRepresentation.html#ab133044f5cf8c16e700190a2202b215e" target="_top" xlink:title="Returns option symbol ticker in accordance with OSI symbology More information can be found at http:/...">
<polygon fill="white" stroke="black" points="595,-11 595,-41 798,-41 798,-11 595,-11"/>
<text text-anchor="start" x="603" y="-29" font-family="Helvetica,sans-Serif" font-size="10.00">QuantConnect.SymbolRepresentation.</text>
<text text-anchor="middle" x="696.5" y="-18" font-family="Helvetica,sans-Serif" font-size="10.00">GenerateOptionTickerOSI</text>
</a>
</g>
</g>
<!-- Node3&#45;&gt;Node6 -->
<g id="edge5" class="edge">
<title>Node3&#45;&gt;Node6</title>
<path fill="none" stroke="midnightblue" d="M559.31,-40.82C567.69,-39.91 576.3,-38.97 584.9,-38.04"/>
<polygon fill="midnightblue" stroke="midnightblue" points="585.43,-41.5 594.99,-36.94 584.67,-34.54 585.43,-41.5"/>
</g>
<!-- Node5 -->
<g id="node5" class="node">
<title>Node5</title>
<g id="a_node5"><a xlink:href="classQuantConnect_1_1Securities_1_1Future_1_1FuturesExpiryUtilityFunctions.html#a4ccb1e2f2fe40ff09785a74a02f26df1" target="_top" xlink:title="Gets the number of months between the contract month and the expiry date.">
<polygon fill="white" stroke="black" points="834,-60.5 834,-101.5 1100,-101.5 1100,-60.5 834,-60.5"/>
<text text-anchor="start" x="842" y="-89.5" font-family="Helvetica,sans-Serif" font-size="10.00">QuantConnect.Securities.</text>
<text text-anchor="start" x="842" y="-78.5" font-family="Helvetica,sans-Serif" font-size="10.00">Future.FuturesExpiryUtilityFunctions.</text>
<text text-anchor="middle" x="967" y="-67.5" font-family="Helvetica,sans-Serif" font-size="10.00">GetDeltaBetweenContractMonthAndContractExpiry</text>
</a>
</g>
</g>
<!-- Node4&#45;&gt;Node5 -->
<g id="edge4" class="edge">
<title>Node4&#45;&gt;Node5</title>
<path fill="none" stroke="midnightblue" d="M798.24,-79.13C806.59,-79.22 815.11,-79.31 823.68,-79.41"/>
<polygon fill="midnightblue" stroke="midnightblue" points="823.72,-82.91 833.76,-79.52 823.8,-75.91 823.72,-82.91"/>
</g>
<!-- Node7 -->
<g id="node7" class="node">
<title>Node7</title>
<g id="a_node7"><a xlink:href="classQuantConnect_1_1Messages_1_1SymbolRepresentation.html#a2c514157d8055cfa271ea3a7ca1ccde7" target="_top" xlink:title="Returns a string message saying an unexpected security type was received by the given method name">
<polygon fill="white" stroke="black" points="871,-0.5 871,-41.5 1063,-41.5 1063,-0.5 871,-0.5"/>
<text text-anchor="start" x="879" y="-29.5" font-family="Helvetica,sans-Serif" font-size="10.00">QuantConnect.Messages.Symbol</text>
<text text-anchor="start" x="879" y="-18.5" font-family="Helvetica,sans-Serif" font-size="10.00">Representation.UnexpectedSecurity</text>
<text text-anchor="middle" x="967" y="-7.5" font-family="Helvetica,sans-Serif" font-size="10.00">TypeForMethod</text>
</a>
</g>
</g>
<!-- Node6&#45;&gt;Node7 -->
<g id="edge6" class="edge">
<title>Node6&#45;&gt;Node7</title>
<path fill="none" stroke="midnightblue" d="M798.24,-24.12C818.7,-23.74 840.27,-23.34 860.88,-22.96"/>
<polygon fill="midnightblue" stroke="midnightblue" points="860.98,-26.46 870.91,-22.77 860.85,-19.46 860.98,-26.46"/>
</g>
</g>
</svg>
        <g id="navigator" transform="translate(0 0)" fill="#404254">
                <rect fill="#f2f5e9" fill-opacity="0.5" stroke="#606060" stroke-width=".5" x="0" y="0" width="60" height="60"/>
                <use id="zoomplus" xlink:href="#zoomPlus" x="17" y="9" onmousedown="handleZoom(evt,'in')"/>
                <use id="zoomminus" xlink:href="#zoomMin" x="42" y="9" onmousedown="handleZoom(evt,'out')"/>
                <use id="reset" xlink:href="#resetDef" x="30" y="36" onmousedown="handleReset()"/>
                <g id="arrowUp" xlink:href="#dirArrow" transform="translate(30 24)" onmousedown="handlePan(0,-1)">
                  <use xlink:href="#rim" fill="#404040">
                        <set attributeName="fill" to="#808080" begin="arrowUp.mouseover" end="arrowUp.mouseout"/>
                  </use>
                  <path fill="none" stroke="white" stroke-width="1.5" d="M0,-3.0v7 M-2.5,-0.5L0,-3.0L2.5,-0.5"/>
                </g>
                <g id="arrowRight" xlink:href="#dirArrow" transform="rotate(90) translate(36 -43)" onmousedown="handlePan(1,0)">
                  <use xlink:href="#rim" fill="#404040">
                        <set attributeName="fill" to="#808080" begin="arrowRight.mouseover" end="arrowRight.mouseout"/>
                  </use>
                  <path fill="none" stroke="white" stroke-width="1.5" d="M0,-3.0v7 M-2.5,-0.5L0,-3.0L2.5,-0.5"/>
                </g>
                <g id="arrowDown" xlink:href="#dirArrow" transform="rotate(180) translate(-30 -48)" onmousedown="handlePan(0,1)">
                  <use xlink:href="#rim" fill="#404040">
                        <set attributeName="fill" to="#808080" begin="arrowDown.mouseover" end="arrowDown.mouseout"/>
                  </use>
                  <path fill="none" stroke="white" stroke-width="1.5" d="M0,-3.0v7 M-2.5,-0.5L0,-3.0L2.5,-0.5"/>
                </g>
                <g id="arrowLeft" xlink:href="#dirArrow" transform="rotate(270) translate(-36 17)" onmousedown="handlePan(-1,0)">
                  <use xlink:href="#rim" fill="#404040">
                        <set attributeName="fill" to="#808080" begin="arrowLeft.mouseover" end="arrowLeft.mouseout"/>
                  </use>
                  <path fill="none" stroke="white" stroke-width="1.5" d="M0,-3.0v7 M-2.5,-0.5L0,-3.0L2.5,-0.5"/>
                </g>
        </g>
        <svg viewBox="0 0 15 15" width="100%" height="30px" preserveAspectRatio="xMaxYMin meet">
         <g id="arrow_out" transform="scale(0.3 0.3)">
          <a xlink:href="classQuantConnect_1_1Data_1_1Market_1_1TradeBar_ab1ce37814a632992aa56a9683be3c9a1_cgraph_org.svg" target="_base">
           <rect id="button" ry="5" rx="5" y="6" x="6" height="38" width="38"
                fill="#f2f5e9" fill-opacity="0.5" stroke="#606060" stroke-width="1.0"/>
           <path id="arrow"
             d="M 11.500037,31.436501 C 11.940474,20.09759 22.043105,11.32322 32.158766,21.979434 L 37.068811,17.246167 C 37.068811,17.246167 37.088388,32 37.088388,32 L 22.160133,31.978069 C 22.160133,31.978069 26.997745,27.140456 26.997745,27.140456 C 18.528582,18.264221 13.291696,25.230495 11.500037,31.436501 z"
             style="fill:#404040;"/>
          </a>
         </g>
        </svg>
</svg>
