<?xml version="1.0" encoding="UTF-8" standalone="no"?>
<!DOCTYPE svg PUBLIC "-//W3C//DTD SVG 1.1//EN"
 "http://www.w3.org/Graphics/SVG/1.1/DTD/svg11.dtd">
<!-- Generated by graphviz version 2.43.0 (0)
 -->
<!-- Title: QuantConnect.Securities.Positions.PositionGroup.PositionGroup Pages: 1 -->
<svg width="426pt" height="39pt"
 viewBox="0.00 0.00 426.00 39.00" xmlns="http://www.w3.org/2000/svg" xmlns:xlink="http://www.w3.org/1999/xlink">
<g id="graph0" class="graph" transform="scale(1 1) rotate(0) translate(4 35)">
<title>QuantConnect.Securities.Positions.PositionGroup.PositionGroup</title>
<polygon fill="white" stroke="transparent" points="-4,4 -4,-35 422,-35 422,4 -4,4"/>
<!-- Node1 -->
<g id="node1" class="node">
<title>Node1</title>
<g id="a_node1"><a xlink:title="Initializes a new instance of the PositionGroup class">
<polygon fill="#bfbfbf" stroke="black" points="0,-0.5 0,-30.5 203,-30.5 203,-0.5 0,-0.5"/>
<text text-anchor="start" x="8" y="-18.5" font-family="Helvetica,sans-Serif" font-size="10.00">QuantConnect.Securities.</text>
<text text-anchor="middle" x="101.5" y="-7.5" font-family="Helvetica,sans-Serif" font-size="10.00">Positions.PositionGroup.PositionGroup</text>
</a>
</g>
</g>
<!-- Node2 -->
<g id="node2" class="node">
<title>Node2</title>
<g id="a_node2"><a xlink:href="classQuantConnect_1_1Messages_1_1PositionGroup.html#a67a87d35bfe2428302f23401ec21e3c2" target="_top" xlink:title="Returns a string message saying the given quantity is invalid. It also contains the quantities from t...">
<polygon fill="white" stroke="black" points="239,-0.5 239,-30.5 418,-30.5 418,-0.5 239,-0.5"/>
<text text-anchor="start" x="247" y="-18.5" font-family="Helvetica,sans-Serif" font-size="10.00">QuantConnect.Messages.Position</text>
<text text-anchor="middle" x="328.5" y="-7.5" font-family="Helvetica,sans-Serif" font-size="10.00">Group.InvalidQuantity</text>
</a>
</g>
</g>
<!-- Node1&#45;&gt;Node2 -->
<g id="edge1" class="edge">
<title>Node1&#45;&gt;Node2</title>
<path fill="none" stroke="midnightblue" d="M203.15,-15.5C211.64,-15.5 220.21,-15.5 228.69,-15.5"/>
<polygon fill="midnightblue" stroke="midnightblue" points="228.95,-19 238.95,-15.5 228.95,-12 228.95,-19"/>
</g>
</g>
</svg>
