<?xml version="1.0" encoding="UTF-8" standalone="no"?>
<!DOCTYPE svg PUBLIC "-//W3C//DTD SVG 1.1//EN"
 "http://www.w3.org/Graphics/SVG/1.1/DTD/svg11.dtd">
<!-- Generated by graphviz version 2.43.0 (0)
 -->
<!-- Title: QuantConnect.Data.Channel.Equals Pages: 1 -->
<svg width="573pt" height="39pt"
 viewBox="0.00 0.00 573.00 39.00" xmlns="http://www.w3.org/2000/svg" xmlns:xlink="http://www.w3.org/1999/xlink">
<g id="graph0" class="graph" transform="scale(1 1) rotate(0) translate(4 35)">
<title>QuantConnect.Data.Channel.Equals</title>
<polygon fill="white" stroke="transparent" points="-4,4 -4,-35 569,-35 569,4 -4,4"/>
<!-- Node1 -->
<g id="node1" class="node">
<title>Node1</title>
<g id="a_node1"><a xlink:title="Indicates whether the current object is equal to another object of the same type.">
<polygon fill="#bfbfbf" stroke="black" points="0,-0.5 0,-30.5 158,-30.5 158,-0.5 0,-0.5"/>
<text text-anchor="start" x="8" y="-18.5" font-family="Helvetica,sans-Serif" font-size="10.00">QuantConnect.Data.Channel.</text>
<text text-anchor="middle" x="79" y="-7.5" font-family="Helvetica,sans-Serif" font-size="10.00">Equals</text>
</a>
</g>
</g>
<!-- Node2 -->
<g id="node2" class="node">
<title>Node2</title>
<g id="a_node2"><a xlink:href="classQuantConnect_1_1Symbol.html#a7e35e01237b07491f85af730a04d7a16" target="_top" xlink:title="Determines whether the specified T:System.Object is equal to the current T:System....">
<polygon fill="white" stroke="black" points="194,-6 194,-25 355,-25 355,-6 194,-6"/>
<text text-anchor="middle" x="274.5" y="-13" font-family="Helvetica,sans-Serif" font-size="10.00">QuantConnect.Symbol.Equals</text>
</a>
</g>
</g>
<!-- Node1&#45;&gt;Node2 -->
<g id="edge1" class="edge">
<title>Node1&#45;&gt;Node2</title>
<path fill="none" stroke="midnightblue" d="M158.15,-15.5C166.59,-15.5 175.23,-15.5 183.8,-15.5"/>
<polygon fill="midnightblue" stroke="midnightblue" points="183.8,-19 193.8,-15.5 183.8,-12 183.8,-19"/>
</g>
<!-- Node3 -->
<g id="node3" class="node">
<title>Node3</title>
<g id="a_node3"><a xlink:href="classQuantConnect_1_1SecurityIdentifier.html#ab488583adab72515b2242de5bb81cddf" target="_top" xlink:title="Indicates whether the current object is equal to another object of the same type.">
<polygon fill="white" stroke="black" points="391,-0.5 391,-30.5 565,-30.5 565,-0.5 391,-0.5"/>
<text text-anchor="start" x="399" y="-18.5" font-family="Helvetica,sans-Serif" font-size="10.00">QuantConnect.SecurityIdentifier.</text>
<text text-anchor="middle" x="478" y="-7.5" font-family="Helvetica,sans-Serif" font-size="10.00">Equals</text>
</a>
</g>
</g>
<!-- Node2&#45;&gt;Node3 -->
<g id="edge2" class="edge">
<title>Node2&#45;&gt;Node3</title>
<path fill="none" stroke="midnightblue" d="M355.14,-15.5C363.6,-15.5 372.27,-15.5 380.89,-15.5"/>
<polygon fill="midnightblue" stroke="midnightblue" points="380.98,-19 390.98,-15.5 380.98,-12 380.98,-19"/>
</g>
</g>
</svg>
