<?xml version="1.0" encoding="UTF-8" standalone="no"?>
<!DOCTYPE svg PUBLIC "-//W3C//DTD SVG 1.1//EN"
 "http://www.w3.org/Graphics/SVG/1.1/DTD/svg11.dtd">
<!-- Generated by graphviz version 2.43.0 (0)
 -->
<!-- Title: QuantConnect.Python.BrokerageModelPythonWrapper.GetBuyingPowerModel Pages: 1 -->
<svg width="514pt" height="39pt"
 viewBox="0.00 0.00 514.00 39.00" xmlns="http://www.w3.org/2000/svg" xmlns:xlink="http://www.w3.org/1999/xlink">
<g id="graph0" class="graph" transform="scale(1 1) rotate(0) translate(4 35)">
<title>QuantConnect.Python.BrokerageModelPythonWrapper.GetBuyingPowerModel</title>
<polygon fill="white" stroke="transparent" points="-4,4 -4,-35 510,-35 510,4 -4,4"/>
<!-- Node1 -->
<g id="node1" class="node">
<title>Node1</title>
<g id="a_node1"><a xlink:title="Gets a new buying power model for the security, returning the default model with the security&#39;s confi...">
<polygon fill="#bfbfbf" stroke="black" points="271,-0.5 271,-30.5 506,-30.5 506,-0.5 271,-0.5"/>
<text text-anchor="start" x="279" y="-18.5" font-family="Helvetica,sans-Serif" font-size="10.00">QuantConnect.Python.Brokerage</text>
<text text-anchor="middle" x="388.5" y="-7.5" font-family="Helvetica,sans-Serif" font-size="10.00">ModelPythonWrapper.GetBuyingPowerModel</text>
</a>
</g>
</g>
<!-- Node2 -->
<g id="node2" class="node">
<title>Node2</title>
<g id="a_node2"><a xlink:href="classQuantConnect_1_1Python_1_1BrokerageModelPythonWrapper.html#aa38b7b3e9e38d0292e97053f62bb15f7" target="_top" xlink:title="Gets a new buying power model for the security">
<polygon fill="white" stroke="black" points="0,-0.5 0,-30.5 235,-30.5 235,-0.5 0,-0.5"/>
<text text-anchor="start" x="8" y="-18.5" font-family="Helvetica,sans-Serif" font-size="10.00">QuantConnect.Python.Brokerage</text>
<text text-anchor="middle" x="117.5" y="-7.5" font-family="Helvetica,sans-Serif" font-size="10.00">ModelPythonWrapper.GetBuyingPowerModel</text>
</a>
</g>
</g>
<!-- Node1&#45;&gt;Node2 -->
<g id="edge1" class="edge">
<title>Node1&#45;&gt;Node2</title>
<path fill="none" stroke="midnightblue" d="M260.44,-15.5C252.02,-15.5 243.56,-15.5 235.2,-15.5"/>
<polygon fill="midnightblue" stroke="midnightblue" points="260.69,-19 270.69,-15.5 260.69,-12 260.69,-19"/>
</g>
</g>
</svg>
