<?xml version="1.0" encoding="UTF-8" standalone="no"?>
<!DOCTYPE svg PUBLIC "-//W3C//DTD SVG 1.1//EN"
 "http://www.w3.org/Graphics/SVG/1.1/DTD/svg11.dtd">
<!-- Generated by graphviz version 2.43.0 (0)
 -->
<!-- Title: QuantConnect.Report.OrderTypeNormalizingJsonConverter.ReadJson Pages: 1 -->
<svg width="1865pt" height="708pt"
 viewBox="0.00 0.00 1865.00 707.59" xmlns="http://www.w3.org/2000/svg" xmlns:xlink="http://www.w3.org/1999/xlink">
<g id="graph0" class="graph" transform="scale(1 1) rotate(0) translate(4 703.59)">
<title>QuantConnect.Report.OrderTypeNormalizingJsonConverter.ReadJson</title>
<polygon fill="white" stroke="transparent" points="-4,4 -4,-703.59 1861,-703.59 1861,4 -4,4"/>
<!-- Node1 -->
<g id="node1" class="node">
<title>Node1</title>
<g id="a_node1"><a xlink:title="Read Json and convert">
<polygon fill="#bfbfbf" stroke="black" points="0,-88 0,-118 214,-118 214,-88 0,-88"/>
<text text-anchor="start" x="8" y="-106" font-family="Helvetica,sans-Serif" font-size="10.00">QuantConnect.Report.Order</text>
<text text-anchor="middle" x="107" y="-95" font-family="Helvetica,sans-Serif" font-size="10.00">TypeNormalizingJsonConverter.ReadJson</text>
</a>
</g>
</g>
<!-- Node2 -->
<g id="node2" class="node">
<title>Node2</title>
<g id="a_node2"><a xlink:href="classQuantConnect_1_1Orders_1_1OrderJsonConverter.html#ae7718abf2cec0c8473eee7cdec4b4b15" target="_top" xlink:title="Create an order from a simple JObject">
<polygon fill="white" stroke="black" points="250,-88 250,-118 456,-118 456,-88 250,-88"/>
<text text-anchor="start" x="258" y="-106" font-family="Helvetica,sans-Serif" font-size="10.00">QuantConnect.Orders.Order</text>
<text text-anchor="middle" x="353" y="-95" font-family="Helvetica,sans-Serif" font-size="10.00">JsonConverter.CreateOrderFromJObject</text>
</a>
</g>
</g>
<!-- Node1&#45;&gt;Node2 -->
<g id="edge1" class="edge">
<title>Node1&#45;&gt;Node2</title>
<path fill="none" stroke="midnightblue" d="M214.31,-103C222.71,-103 231.21,-103 239.65,-103"/>
<polygon fill="midnightblue" stroke="midnightblue" points="239.9,-106.5 249.9,-103 239.9,-99.5 239.9,-106.5"/>
</g>
<!-- Node3 -->
<g id="node3" class="node">
<title>Node3</title>
<g id="a_node3"><a xlink:href="classQuantConnect_1_1Symbol.html#a350b9a625cf7bad95da82894be3cd0a8" target="_top" xlink:title="Provides a convenience method for creating a Symbol for most security types. This method currently do...">
<polygon fill="white" stroke="black" points="500,-418.5 500,-437.5 661,-437.5 661,-418.5 500,-418.5"/>
<text text-anchor="middle" x="580.5" y="-425.5" font-family="Helvetica,sans-Serif" font-size="10.00">QuantConnect.Symbol.Create</text>
</a>
</g>
</g>
<!-- Node2&#45;&gt;Node3 -->
<g id="edge2" class="edge">
<title>Node2&#45;&gt;Node3</title>
<path fill="none" stroke="midnightblue" d="M364.57,-118.24C401.77,-171.85 526.53,-351.66 566.83,-409.74"/>
<polygon fill="midnightblue" stroke="midnightblue" points="564.17,-412.05 572.75,-418.27 569.92,-408.06 564.17,-412.05"/>
</g>
<!-- Node21 -->
<g id="node21" class="node">
<title>Node21</title>
<g id="a_node21"><a xlink:href="classQuantConnect_1_1Securities_1_1SymbolPropertiesDatabase.html#aee26fb588793fd311c44eb8b2909cc33" target="_top" xlink:title="Gets the instance of the SymbolPropertiesDatabase class produced by reading in the symbol properties ...">
<polygon fill="white" stroke="black" points="492,-110.5 492,-151.5 669,-151.5 669,-110.5 492,-110.5"/>
<text text-anchor="start" x="500" y="-139.5" font-family="Helvetica,sans-Serif" font-size="10.00">QuantConnect.Securities.</text>
<text text-anchor="start" x="500" y="-128.5" font-family="Helvetica,sans-Serif" font-size="10.00">SymbolPropertiesDatabase.From</text>
<text text-anchor="middle" x="580.5" y="-117.5" font-family="Helvetica,sans-Serif" font-size="10.00">DataFolder</text>
</a>
</g>
</g>
<!-- Node2&#45;&gt;Node21 -->
<g id="edge22" class="edge">
<title>Node2&#45;&gt;Node21</title>
<path fill="none" stroke="midnightblue" d="M456.19,-115.69C464.64,-116.74 473.17,-117.8 481.59,-118.84"/>
<polygon fill="midnightblue" stroke="midnightblue" points="481.44,-122.35 491.79,-120.11 482.3,-115.4 481.44,-122.35"/>
</g>
<!-- Node25 -->
<g id="node25" class="node">
<title>Node25</title>
<g id="a_node25"><a xlink:href="classQuantConnect_1_1SecurityIdentifier.html#a89ccb2161613f17d18ca3dc1e9eb3872" target="_top" xlink:title="Parses the specified string into a SecurityIdentifier The string must be a 40 digit number....">
<polygon fill="white" stroke="black" points="493.5,-61 493.5,-91 667.5,-91 667.5,-61 493.5,-61"/>
<text text-anchor="start" x="501.5" y="-79" font-family="Helvetica,sans-Serif" font-size="10.00">QuantConnect.SecurityIdentifier.</text>
<text text-anchor="middle" x="580.5" y="-68" font-family="Helvetica,sans-Serif" font-size="10.00">Parse</text>
</a>
</g>
</g>
<!-- Node2&#45;&gt;Node25 -->
<g id="edge26" class="edge">
<title>Node2&#45;&gt;Node25</title>
<path fill="none" stroke="midnightblue" d="M456.19,-90.76C465.17,-89.69 474.23,-88.6 483.16,-87.54"/>
<polygon fill="midnightblue" stroke="midnightblue" points="483.65,-91 493.16,-86.34 482.82,-84.05 483.65,-91"/>
</g>
<!-- Node27 -->
<g id="node27" class="node">
<title>Node27</title>
<g id="a_node27"><a xlink:href="classQuantConnect_1_1Securities_1_1SymbolPropertiesDatabase.html#a5a7baeddd03bfc7fb60cef8ab2e6834b" target="_top" xlink:title="Tries to get the market for the provided symbol/security type">
<polygon fill="white" stroke="black" points="497,-0.5 497,-41.5 664,-41.5 664,-0.5 497,-0.5"/>
<text text-anchor="start" x="505" y="-29.5" font-family="Helvetica,sans-Serif" font-size="10.00">QuantConnect.Securities.</text>
<text text-anchor="start" x="505" y="-18.5" font-family="Helvetica,sans-Serif" font-size="10.00">SymbolPropertiesDatabase.Try</text>
<text text-anchor="middle" x="580.5" y="-7.5" font-family="Helvetica,sans-Serif" font-size="10.00">GetMarket</text>
</a>
</g>
</g>
<!-- Node2&#45;&gt;Node27 -->
<g id="edge28" class="edge">
<title>Node2&#45;&gt;Node27</title>
<path fill="none" stroke="midnightblue" d="M393.14,-87.89C420.71,-77.34 458.51,-63.05 492,-51 497.52,-49.01 503.24,-46.99 509,-44.97"/>
<polygon fill="midnightblue" stroke="midnightblue" points="510.41,-48.18 518.7,-41.58 508.1,-41.57 510.41,-48.18"/>
</g>
<!-- Node4 -->
<g id="node4" class="node">
<title>Node4</title>
<g id="a_node4"><a xlink:href="classQuantConnect_1_1Symbol.html#a7518a1932d1babbff128f2ba9666a78b" target="_top" xlink:title="Provides a convenience method for creating an option Symbol.">
<polygon fill="white" stroke="black" points="719,-624 719,-654 880,-654 880,-624 719,-624"/>
<text text-anchor="start" x="727" y="-642" font-family="Helvetica,sans-Serif" font-size="10.00">QuantConnect.Symbol.Create</text>
<text text-anchor="middle" x="799.5" y="-631" font-family="Helvetica,sans-Serif" font-size="10.00">Option</text>
</a>
</g>
</g>
<!-- Node3&#45;&gt;Node4 -->
<g id="edge3" class="edge">
<title>Node3&#45;&gt;Node4</title>
<path fill="none" stroke="midnightblue" d="M585.29,-437.5C597.69,-467.41 640.07,-560.53 705,-609 710.51,-613.11 716.6,-616.67 722.95,-619.75"/>
<polygon fill="midnightblue" stroke="midnightblue" points="721.85,-623.09 732.41,-623.93 724.68,-616.69 721.85,-623.09"/>
</g>
<!-- Node5 -->
<g id="node5" class="node">
<title>Node5</title>
<g id="a_node5"><a xlink:href="classQuantConnect_1_1SecurityIdentifier.html#a0c21d7880c9fdd260883d11ea0c99a00" target="_top" xlink:title="Helper overload that will search the mapfiles to resolve the first date. This implementation uses the...">
<polygon fill="white" stroke="black" points="933,-657 933,-687 1107,-687 1107,-657 933,-657"/>
<text text-anchor="start" x="941" y="-675" font-family="Helvetica,sans-Serif" font-size="10.00">QuantConnect.SecurityIdentifier.</text>
<text text-anchor="middle" x="1020" y="-664" font-family="Helvetica,sans-Serif" font-size="10.00">GenerateEquity</text>
</a>
</g>
</g>
<!-- Node3&#45;&gt;Node5 -->
<g id="edge16" class="edge">
<title>Node3&#45;&gt;Node5</title>
<path fill="none" stroke="midnightblue" d="M583.06,-437.75C589.64,-475.2 618.84,-610.33 705,-664 778.85,-710 882.63,-701.77 950.33,-689.04"/>
<polygon fill="midnightblue" stroke="midnightblue" points="951.33,-692.41 960.46,-687.05 949.98,-685.54 951.33,-692.41"/>
</g>
<!-- Node6 -->
<g id="node6" class="node">
<title>Node6</title>
<g id="a_node6"><a xlink:href="classQuantConnect_1_1Symbol.html#a59158f74116be3dad0ea0f3f3f134416" target="_top" xlink:title="Initializes a new instance of the Symbol class">
<polygon fill="white" stroke="black" points="937.5,-596.5 937.5,-615.5 1102.5,-615.5 1102.5,-596.5 937.5,-596.5"/>
<text text-anchor="middle" x="1020" y="-603.5" font-family="Helvetica,sans-Serif" font-size="10.00">QuantConnect.Symbol.Symbol</text>
</a>
</g>
</g>
<!-- Node3&#45;&gt;Node6 -->
<g id="edge21" class="edge">
<title>Node3&#45;&gt;Node6</title>
<path fill="none" stroke="midnightblue" d="M586.2,-437.83C599.97,-465.37 643.13,-543.37 705,-576 742.32,-595.68 848.46,-602.54 927.07,-604.88"/>
<polygon fill="midnightblue" stroke="midnightblue" points="927.39,-608.39 937.48,-605.17 927.58,-601.39 927.39,-608.39"/>
</g>
<!-- Node12 -->
<g id="node12" class="node">
<title>Node12</title>
<g id="a_node12"><a xlink:href="classQuantConnect_1_1SecurityIdentifier.html#a02ca750115844561c001c2346fbafc00" target="_top" xlink:title="Generates a new SecurityIdentifier for a custom security with the option of providing the first date">
<polygon fill="white" stroke="black" points="712.5,-536 712.5,-566 886.5,-566 886.5,-536 712.5,-536"/>
<text text-anchor="start" x="720.5" y="-554" font-family="Helvetica,sans-Serif" font-size="10.00">QuantConnect.SecurityIdentifier.</text>
<text text-anchor="middle" x="799.5" y="-543" font-family="Helvetica,sans-Serif" font-size="10.00">GenerateBase</text>
</a>
</g>
</g>
<!-- Node3&#45;&gt;Node12 -->
<g id="edge11" class="edge">
<title>Node3&#45;&gt;Node12</title>
<path fill="none" stroke="midnightblue" d="M590.73,-437.8C610.02,-457.68 656.82,-502.92 705,-527 708.79,-528.9 712.75,-530.65 716.81,-532.28"/>
<polygon fill="midnightblue" stroke="midnightblue" points="715.81,-535.64 726.4,-535.84 718.24,-529.08 715.81,-535.64"/>
</g>
<!-- Node14 -->
<g id="node14" class="node">
<title>Node14</title>
<g id="a_node14"><a xlink:href="classQuantConnect_1_1SecurityIdentifier.html#a53953b18d814c5445e4ecdcb3b555080" target="_top" xlink:title="Generates a new SecurityIdentifier for a CFD security">
<polygon fill="white" stroke="black" points="712.5,-487 712.5,-517 886.5,-517 886.5,-487 712.5,-487"/>
<text text-anchor="start" x="720.5" y="-505" font-family="Helvetica,sans-Serif" font-size="10.00">QuantConnect.SecurityIdentifier.</text>
<text text-anchor="middle" x="799.5" y="-494" font-family="Helvetica,sans-Serif" font-size="10.00">GenerateCfd</text>
</a>
</g>
</g>
<!-- Node3&#45;&gt;Node14 -->
<g id="edge13" class="edge">
<title>Node3&#45;&gt;Node14</title>
<path fill="none" stroke="midnightblue" d="M602.6,-437.55C626.93,-448.32 668.31,-465.92 705,-478 711.47,-480.13 718.24,-482.19 725.06,-484.14"/>
<polygon fill="midnightblue" stroke="midnightblue" points="724.48,-487.61 735.05,-486.93 726.36,-480.87 724.48,-487.61"/>
</g>
<!-- Node15 -->
<g id="node15" class="node">
<title>Node15</title>
<g id="a_node15"><a xlink:href="classQuantConnect_1_1SecurityIdentifier.html#a5889a95a36ce927dd0a109cbfbcbe663" target="_top" xlink:title="Generates a new SecurityIdentifier for a Crypto pair">
<polygon fill="white" stroke="black" points="712.5,-438 712.5,-468 886.5,-468 886.5,-438 712.5,-438"/>
<text text-anchor="start" x="720.5" y="-456" font-family="Helvetica,sans-Serif" font-size="10.00">QuantConnect.SecurityIdentifier.</text>
<text text-anchor="middle" x="799.5" y="-445" font-family="Helvetica,sans-Serif" font-size="10.00">GenerateCrypto</text>
</a>
</g>
</g>
<!-- Node3&#45;&gt;Node15 -->
<g id="edge14" class="edge">
<title>Node3&#45;&gt;Node15</title>
<path fill="none" stroke="midnightblue" d="M661.07,-437.17C674.5,-438.71 688.57,-440.34 702.37,-441.93"/>
<polygon fill="midnightblue" stroke="midnightblue" points="702.03,-445.41 712.36,-443.08 702.83,-438.45 702.03,-445.41"/>
</g>
<!-- Node16 -->
<g id="node16" class="node">
<title>Node16</title>
<g id="a_node16"><a xlink:href="classQuantConnect_1_1SecurityIdentifier.html#ac665665a16d5449872fed3427b95a260" target="_top" xlink:title="Generates a new SecurityIdentifier for a CryptoFuture pair">
<polygon fill="white" stroke="black" points="712.5,-389 712.5,-419 886.5,-419 886.5,-389 712.5,-389"/>
<text text-anchor="start" x="720.5" y="-407" font-family="Helvetica,sans-Serif" font-size="10.00">QuantConnect.SecurityIdentifier.</text>
<text text-anchor="middle" x="799.5" y="-396" font-family="Helvetica,sans-Serif" font-size="10.00">GenerateCryptoFuture</text>
</a>
</g>
</g>
<!-- Node3&#45;&gt;Node16 -->
<g id="edge15" class="edge">
<title>Node3&#45;&gt;Node16</title>
<path fill="none" stroke="midnightblue" d="M661.07,-419.2C674.5,-417.71 688.57,-416.16 702.37,-414.63"/>
<polygon fill="midnightblue" stroke="midnightblue" points="702.81,-418.11 712.36,-413.53 702.04,-411.15 702.81,-418.11"/>
</g>
<!-- Node17 -->
<g id="node17" class="node">
<title>Node17</title>
<g id="a_node17"><a xlink:href="classQuantConnect_1_1SecurityIdentifier.html#a9cf0d3b208a5171e6112516ce441f18d" target="_top" xlink:title="Generates a new SecurityIdentifier for a forex pair">
<polygon fill="white" stroke="black" points="712.5,-340 712.5,-370 886.5,-370 886.5,-340 712.5,-340"/>
<text text-anchor="start" x="720.5" y="-358" font-family="Helvetica,sans-Serif" font-size="10.00">QuantConnect.SecurityIdentifier.</text>
<text text-anchor="middle" x="799.5" y="-347" font-family="Helvetica,sans-Serif" font-size="10.00">GenerateForex</text>
</a>
</g>
</g>
<!-- Node3&#45;&gt;Node17 -->
<g id="edge17" class="edge">
<title>Node3&#45;&gt;Node17</title>
<path fill="none" stroke="midnightblue" d="M603.99,-418.4C628.54,-408.13 669.14,-391.72 705,-380 712.61,-377.51 720.62,-375.09 728.63,-372.78"/>
<polygon fill="midnightblue" stroke="midnightblue" points="729.68,-376.12 738.36,-370.04 727.78,-369.38 729.68,-376.12"/>
</g>
<!-- Node18 -->
<g id="node18" class="node">
<title>Node18</title>
<g id="a_node18"><a xlink:href="classQuantConnect_1_1SecurityIdentifier.html#ad50a891c97cb0c084a9e2aa43607ed66" target="_top" xlink:title="Generates a new SecurityIdentifier for a future">
<polygon fill="white" stroke="black" points="712.5,-291 712.5,-321 886.5,-321 886.5,-291 712.5,-291"/>
<text text-anchor="start" x="720.5" y="-309" font-family="Helvetica,sans-Serif" font-size="10.00">QuantConnect.SecurityIdentifier.</text>
<text text-anchor="middle" x="799.5" y="-298" font-family="Helvetica,sans-Serif" font-size="10.00">GenerateFuture</text>
</a>
</g>
</g>
<!-- Node3&#45;&gt;Node18 -->
<g id="edge18" class="edge">
<title>Node3&#45;&gt;Node18</title>
<path fill="none" stroke="midnightblue" d="M590.8,-418.45C610.2,-399.06 657.2,-354.89 705,-331 709.67,-328.67 714.59,-326.53 719.62,-324.58"/>
<polygon fill="midnightblue" stroke="midnightblue" points="721.18,-327.73 729.4,-321.05 718.81,-321.15 721.18,-327.73"/>
</g>
<!-- Node19 -->
<g id="node19" class="node">
<title>Node19</title>
<g id="a_node19"><a xlink:href="classQuantConnect_1_1SecurityIdentifier.html#ade05a8e57b041ab484cf585be8d05699" target="_top" xlink:title="Generates a new SecurityIdentifier for a INDEX security">
<polygon fill="white" stroke="black" points="712.5,-242 712.5,-272 886.5,-272 886.5,-242 712.5,-242"/>
<text text-anchor="start" x="720.5" y="-260" font-family="Helvetica,sans-Serif" font-size="10.00">QuantConnect.SecurityIdentifier.</text>
<text text-anchor="middle" x="799.5" y="-249" font-family="Helvetica,sans-Serif" font-size="10.00">GenerateIndex</text>
</a>
</g>
</g>
<!-- Node3&#45;&gt;Node19 -->
<g id="edge19" class="edge">
<title>Node3&#45;&gt;Node19</title>
<path fill="none" stroke="midnightblue" d="M586.75,-418.43C601.6,-392.25 646.68,-318.97 705,-282 708.34,-279.88 711.85,-277.95 715.48,-276.17"/>
<polygon fill="midnightblue" stroke="midnightblue" points="716.98,-279.34 724.7,-272.09 714.14,-272.94 716.98,-279.34"/>
</g>
<!-- Node20 -->
<g id="node20" class="node">
<title>Node20</title>
<g id="a_node20"><a xlink:href="classQuantConnect_1_1Messages_1_1Symbol.html#ab801bef52a308b8ba7ba6d42e1ef1988" target="_top" xlink:title="Returns a string message saying the given security type has not been implemented yet">
<polygon fill="white" stroke="black" points="709.5,-193 709.5,-223 889.5,-223 889.5,-193 709.5,-193"/>
<text text-anchor="start" x="717.5" y="-211" font-family="Helvetica,sans-Serif" font-size="10.00">QuantConnect.Messages.Symbol.</text>
<text text-anchor="middle" x="799.5" y="-200" font-family="Helvetica,sans-Serif" font-size="10.00">SecurityTypeNotImplementedYet</text>
</a>
</g>
</g>
<!-- Node3&#45;&gt;Node20 -->
<g id="edge20" class="edge">
<title>Node3&#45;&gt;Node20</title>
<path fill="none" stroke="midnightblue" d="M584.8,-418.08C596.02,-385.93 635.9,-283.78 705,-233 707.64,-231.06 710.42,-229.27 713.31,-227.62"/>
<polygon fill="midnightblue" stroke="midnightblue" points="714.91,-230.73 722.23,-223.07 711.73,-224.49 714.91,-230.73"/>
</g>
<!-- Node4&#45;&gt;Node5 -->
<g id="edge4" class="edge">
<title>Node4&#45;&gt;Node5</title>
<path fill="none" stroke="midnightblue" d="M880,-651.01C893.85,-653.1 908.38,-655.29 922.62,-657.44"/>
<polygon fill="midnightblue" stroke="midnightblue" points="922.51,-660.97 932.92,-659 923.56,-654.05 922.51,-660.97"/>
</g>
<!-- Node4&#45;&gt;Node6 -->
<g id="edge5" class="edge">
<title>Node4&#45;&gt;Node6</title>
<path fill="none" stroke="midnightblue" d="M880,-626.99C901.6,-623.73 924.87,-620.22 946.08,-617.01"/>
<polygon fill="midnightblue" stroke="midnightblue" points="946.62,-620.47 955.99,-615.52 945.58,-613.55 946.62,-620.47"/>
</g>
<!-- Node7 -->
<g id="node7" class="node">
<title>Node7</title>
<g id="a_node7"><a xlink:href="classQuantConnect_1_1Symbol.html#a59b0795fa21f46c306deb5576fa03bb9" target="_top" xlink:title="Centralized helper method to resolve alias for a symbol">
<polygon fill="white" stroke="black" points="1146,-596.5 1146,-615.5 1316,-615.5 1316,-596.5 1146,-596.5"/>
<text text-anchor="middle" x="1231" y="-603.5" font-family="Helvetica,sans-Serif" font-size="10.00">QuantConnect.Symbol.GetAlias</text>
</a>
</g>
</g>
<!-- Node6&#45;&gt;Node7 -->
<g id="edge6" class="edge">
<title>Node6&#45;&gt;Node7</title>
<path fill="none" stroke="midnightblue" d="M1102.7,-606C1113.57,-606 1124.79,-606 1135.85,-606"/>
<polygon fill="midnightblue" stroke="midnightblue" points="1135.94,-609.5 1145.94,-606 1135.94,-602.5 1135.94,-609.5"/>
</g>
<!-- Node8 -->
<g id="node8" class="node">
<title>Node8</title>
<g id="a_node8"><a xlink:href="classQuantConnect_1_1SymbolRepresentation.html#ad43ac907f6c19083821f58f21c6de017" target="_top" xlink:title="Returns future symbol ticker from underlying and expiration date. Function can generate tickers of tw...">
<polygon fill="white" stroke="black" points="1352,-619 1352,-649 1555,-649 1555,-619 1352,-619"/>
<text text-anchor="start" x="1360" y="-637" font-family="Helvetica,sans-Serif" font-size="10.00">QuantConnect.SymbolRepresentation.</text>
<text text-anchor="middle" x="1453.5" y="-626" font-family="Helvetica,sans-Serif" font-size="10.00">GenerateFutureTicker</text>
</a>
</g>
</g>
<!-- Node7&#45;&gt;Node8 -->
<g id="edge7" class="edge">
<title>Node7&#45;&gt;Node8</title>
<path fill="none" stroke="midnightblue" d="M1306.96,-615.52C1318.27,-616.96 1330.14,-618.46 1342.01,-619.97"/>
<polygon fill="midnightblue" stroke="midnightblue" points="1341.62,-623.45 1351.98,-621.24 1342.5,-616.5 1341.62,-623.45"/>
</g>
<!-- Node10 -->
<g id="node10" class="node">
<title>Node10</title>
<g id="a_node10"><a xlink:href="classQuantConnect_1_1SymbolRepresentation.html#ab133044f5cf8c16e700190a2202b215e" target="_top" xlink:title="Returns option symbol ticker in accordance with OSI symbology More information can be found at http:/...">
<polygon fill="white" stroke="black" points="1352,-567 1352,-597 1555,-597 1555,-567 1352,-567"/>
<text text-anchor="start" x="1360" y="-585" font-family="Helvetica,sans-Serif" font-size="10.00">QuantConnect.SymbolRepresentation.</text>
<text text-anchor="middle" x="1453.5" y="-574" font-family="Helvetica,sans-Serif" font-size="10.00">GenerateOptionTickerOSI</text>
</a>
</g>
</g>
<!-- Node7&#45;&gt;Node10 -->
<g id="edge9" class="edge">
<title>Node7&#45;&gt;Node10</title>
<path fill="none" stroke="midnightblue" d="M1316.31,-596.82C1324.69,-595.91 1333.3,-594.97 1341.9,-594.04"/>
<polygon fill="midnightblue" stroke="midnightblue" points="1342.43,-597.5 1351.99,-592.94 1341.67,-590.54 1342.43,-597.5"/>
</g>
<!-- Node9 -->
<g id="node9" class="node">
<title>Node9</title>
<g id="a_node9"><a xlink:href="classQuantConnect_1_1Securities_1_1Future_1_1FuturesExpiryUtilityFunctions.html#a4ccb1e2f2fe40ff09785a74a02f26df1" target="_top" xlink:title="Gets the number of months between the contract month and the expiry date.">
<polygon fill="white" stroke="black" points="1591,-616.5 1591,-657.5 1857,-657.5 1857,-616.5 1591,-616.5"/>
<text text-anchor="start" x="1599" y="-645.5" font-family="Helvetica,sans-Serif" font-size="10.00">QuantConnect.Securities.</text>
<text text-anchor="start" x="1599" y="-634.5" font-family="Helvetica,sans-Serif" font-size="10.00">Future.FuturesExpiryUtilityFunctions.</text>
<text text-anchor="middle" x="1724" y="-623.5" font-family="Helvetica,sans-Serif" font-size="10.00">GetDeltaBetweenContractMonthAndContractExpiry</text>
</a>
</g>
</g>
<!-- Node8&#45;&gt;Node9 -->
<g id="edge8" class="edge">
<title>Node8&#45;&gt;Node9</title>
<path fill="none" stroke="midnightblue" d="M1555.24,-635.13C1563.59,-635.22 1572.11,-635.31 1580.68,-635.41"/>
<polygon fill="midnightblue" stroke="midnightblue" points="1580.72,-638.91 1590.76,-635.52 1580.8,-631.91 1580.72,-638.91"/>
</g>
<!-- Node11 -->
<g id="node11" class="node">
<title>Node11</title>
<g id="a_node11"><a xlink:href="classQuantConnect_1_1Messages_1_1SymbolRepresentation.html#a2c514157d8055cfa271ea3a7ca1ccde7" target="_top" xlink:title="Returns a string message saying an unexpected security type was received by the given method name">
<polygon fill="white" stroke="black" points="1628,-556.5 1628,-597.5 1820,-597.5 1820,-556.5 1628,-556.5"/>
<text text-anchor="start" x="1636" y="-585.5" font-family="Helvetica,sans-Serif" font-size="10.00">QuantConnect.Messages.Symbol</text>
<text text-anchor="start" x="1636" y="-574.5" font-family="Helvetica,sans-Serif" font-size="10.00">Representation.UnexpectedSecurity</text>
<text text-anchor="middle" x="1724" y="-563.5" font-family="Helvetica,sans-Serif" font-size="10.00">TypeForMethod</text>
</a>
</g>
</g>
<!-- Node10&#45;&gt;Node11 -->
<g id="edge10" class="edge">
<title>Node10&#45;&gt;Node11</title>
<path fill="none" stroke="midnightblue" d="M1555.24,-580.12C1575.7,-579.74 1597.27,-579.34 1617.88,-578.96"/>
<polygon fill="midnightblue" stroke="midnightblue" points="1617.98,-582.46 1627.91,-578.77 1617.85,-575.46 1617.98,-582.46"/>
</g>
<!-- Node13 -->
<g id="node13" class="node">
<title>Node13</title>
<g id="a_node13"><a xlink:href="classQuantConnect_1_1SecurityIdentifier.html#a19e1f9da410608020d74ed9e7d283575" target="_top" xlink:title="Generates the Symbol property for QuantConnect.SecurityType.Base security identifiers">
<polygon fill="white" stroke="black" points="933,-536 933,-566 1107,-566 1107,-536 933,-536"/>
<text text-anchor="start" x="941" y="-554" font-family="Helvetica,sans-Serif" font-size="10.00">QuantConnect.SecurityIdentifier.</text>
<text text-anchor="middle" x="1020" y="-543" font-family="Helvetica,sans-Serif" font-size="10.00">GenerateBaseSymbol</text>
</a>
</g>
</g>
<!-- Node12&#45;&gt;Node13 -->
<g id="edge12" class="edge">
<title>Node12&#45;&gt;Node13</title>
<path fill="none" stroke="midnightblue" d="M886.54,-551C898.39,-551 910.62,-551 922.64,-551"/>
<polygon fill="midnightblue" stroke="midnightblue" points="922.68,-554.5 932.68,-551 922.68,-547.5 922.68,-554.5"/>
</g>
<!-- Node22 -->
<g id="node22" class="node">
<title>Node22</title>
<g id="a_node22"><a xlink:href="classQuantConnect_1_1Globals.html#ae01b5c94ef475a21ab1a62fe1b04ea5c" target="_top" xlink:title="Helper method that will build a data folder path checking if it exists on the cache folder else will ...">
<polygon fill="white" stroke="black" points="726.5,-144 726.5,-174 872.5,-174 872.5,-144 726.5,-144"/>
<text text-anchor="start" x="734.5" y="-162" font-family="Helvetica,sans-Serif" font-size="10.00">QuantConnect.Globals.Get</text>
<text text-anchor="middle" x="799.5" y="-151" font-family="Helvetica,sans-Serif" font-size="10.00">DataFolderPath</text>
</a>
</g>
</g>
<!-- Node21&#45;&gt;Node22 -->
<g id="edge23" class="edge">
<title>Node21&#45;&gt;Node22</title>
<path fill="none" stroke="midnightblue" d="M669.14,-142.31C684.67,-144.31 700.8,-146.39 716.18,-148.38"/>
<polygon fill="midnightblue" stroke="midnightblue" points="715.8,-151.86 726.17,-149.67 716.7,-144.92 715.8,-151.86"/>
</g>
<!-- Node23 -->
<g id="node23" class="node">
<title>Node23</title>
<g id="a_node23"><a xlink:href="classQuantConnect_1_1Securities_1_1SymbolPropertiesDatabase.html#a1658f93bf0dce7022bb7584e1a95cc7a" target="_top" xlink:title="Initialize a new instance of SymbolPropertiesDatabase using the given file">
<polygon fill="white" stroke="black" points="705,-83.5 705,-124.5 894,-124.5 894,-83.5 705,-83.5"/>
<text text-anchor="start" x="713" y="-112.5" font-family="Helvetica,sans-Serif" font-size="10.00">QuantConnect.Securities.</text>
<text text-anchor="start" x="713" y="-101.5" font-family="Helvetica,sans-Serif" font-size="10.00">SymbolPropertiesDatabase.Symbol</text>
<text text-anchor="middle" x="799.5" y="-90.5" font-family="Helvetica,sans-Serif" font-size="10.00">PropertiesDatabase</text>
</a>
</g>
</g>
<!-- Node21&#45;&gt;Node23 -->
<g id="edge24" class="edge">
<title>Node21&#45;&gt;Node23</title>
<path fill="none" stroke="midnightblue" d="M669.14,-120.1C677.59,-119.04 686.22,-117.97 694.81,-116.9"/>
<polygon fill="midnightblue" stroke="midnightblue" points="695.37,-120.36 704.86,-115.65 694.51,-113.41 695.37,-120.36"/>
</g>
<!-- Node24 -->
<g id="node24" class="node">
<title>Node24</title>
<g id="a_node24"><a xlink:href="classQuantConnect_1_1Messages_1_1SymbolPropertiesDatabase.html#a6abceae517a349a28223bfc2dc9106d7" target="_top" xlink:title="Returns a string saying a duplicated key was found while processing the given file">
<polygon fill="white" stroke="black" points="930,-83.5 930,-124.5 1110,-124.5 1110,-83.5 930,-83.5"/>
<text text-anchor="start" x="938" y="-112.5" font-family="Helvetica,sans-Serif" font-size="10.00">QuantConnect.Messages.Symbol</text>
<text text-anchor="start" x="938" y="-101.5" font-family="Helvetica,sans-Serif" font-size="10.00">PropertiesDatabase.DuplicateKey</text>
<text text-anchor="middle" x="1020" y="-90.5" font-family="Helvetica,sans-Serif" font-size="10.00">InFile</text>
</a>
</g>
</g>
<!-- Node23&#45;&gt;Node24 -->
<g id="edge25" class="edge">
<title>Node23&#45;&gt;Node24</title>
<path fill="none" stroke="midnightblue" d="M894.11,-104C902.51,-104 911.04,-104 919.49,-104"/>
<polygon fill="midnightblue" stroke="midnightblue" points="919.74,-107.5 929.74,-104 919.74,-100.5 919.74,-107.5"/>
</g>
<!-- Node26 -->
<g id="node26" class="node">
<title>Node26</title>
<g id="a_node26"><a xlink:href="classQuantConnect_1_1SecurityIdentifier.html#a59bd74be4ec55a0e4631af9e10f65d7c" target="_top" xlink:title="Attempts to parse the specified &#160;as a SecurityIdentifier.">
<polygon fill="white" stroke="black" points="712.5,-34 712.5,-64 886.5,-64 886.5,-34 712.5,-34"/>
<text text-anchor="start" x="720.5" y="-52" font-family="Helvetica,sans-Serif" font-size="10.00">QuantConnect.SecurityIdentifier.</text>
<text text-anchor="middle" x="799.5" y="-41" font-family="Helvetica,sans-Serif" font-size="10.00">TryParse</text>
</a>
</g>
</g>
<!-- Node25&#45;&gt;Node26 -->
<g id="edge27" class="edge">
<title>Node25&#45;&gt;Node26</title>
<path fill="none" stroke="midnightblue" d="M667.58,-65.29C678.92,-63.88 690.62,-62.42 702.12,-60.99"/>
<polygon fill="midnightblue" stroke="midnightblue" points="702.68,-64.45 712.17,-59.74 701.82,-57.5 702.68,-64.45"/>
</g>
</g>
</svg>
