<?xml version="1.0" encoding="UTF-8" standalone="no"?>
<!DOCTYPE svg PUBLIC "-//W3C//DTD SVG 1.1//EN"
 "http://www.w3.org/Graphics/SVG/1.1/DTD/svg11.dtd">
<!-- Generated by graphviz version 2.43.0 (0)
 -->
<!-- Title: QuantConnect.Securities.Option.OptionStrategies.ShortPutCalendarSpread Pages: 1 -->
<svg width="580pt" height="50pt"
 viewBox="0.00 0.00 580.00 50.00" xmlns="http://www.w3.org/2000/svg" xmlns:xlink="http://www.w3.org/1999/xlink">
<g id="graph0" class="graph" transform="scale(1 1) rotate(0) translate(4 46)">
<title>QuantConnect.Securities.Option.OptionStrategies.ShortPutCalendarSpread</title>
<polygon fill="white" stroke="transparent" points="-4,4 -4,-46 576,-46 576,4 -4,4"/>
<!-- Node1 -->
<g id="node1" class="node">
<title>Node1</title>
<g id="a_node1"><a xlink:title="Creates new Short Put Calendar Spread strategy which consists of a short and a long put with the same...">
<polygon fill="#bfbfbf" stroke="black" points="410,-0.5 410,-41.5 572,-41.5 572,-0.5 410,-0.5"/>
<text text-anchor="start" x="418" y="-29.5" font-family="Helvetica,sans-Serif" font-size="10.00">QuantConnect.Securities.</text>
<text text-anchor="start" x="418" y="-18.5" font-family="Helvetica,sans-Serif" font-size="10.00">Option.OptionStrategies.Short</text>
<text text-anchor="middle" x="491" y="-7.5" font-family="Helvetica,sans-Serif" font-size="10.00">PutCalendarSpread</text>
</a>
</g>
</g>
<!-- Node2 -->
<g id="node2" class="node">
<title>Node2</title>
<g id="a_node2"><a xlink:href="classQuantConnect_1_1Securities_1_1Option_1_1OptionStrategies.html#aea9734281dbee8dff88bb0d66cb613d3" target="_top" xlink:title="Creates new Jelly Roll strategy which combines a long call calendar spread and a short put calendar s...">
<polygon fill="white" stroke="black" points="198,-6 198,-36 374,-36 374,-6 198,-6"/>
<text text-anchor="start" x="206" y="-24" font-family="Helvetica,sans-Serif" font-size="10.00">QuantConnect.Securities.</text>
<text text-anchor="middle" x="286" y="-13" font-family="Helvetica,sans-Serif" font-size="10.00">Option.OptionStrategies.JellyRoll</text>
</a>
</g>
</g>
<!-- Node1&#45;&gt;Node2 -->
<g id="edge1" class="edge">
<title>Node1&#45;&gt;Node2</title>
<path fill="none" stroke="midnightblue" d="M399.5,-21C391.02,-21 382.44,-21 374,-21"/>
<polygon fill="midnightblue" stroke="midnightblue" points="399.77,-24.5 409.77,-21 399.77,-17.5 399.77,-24.5"/>
</g>
<!-- Node3 -->
<g id="node3" class="node">
<title>Node3</title>
<g id="a_node3"><a xlink:href="classQuantConnect_1_1Securities_1_1Option_1_1OptionStrategies.html#aeca4904d4ac08fdf672bb6a1e4af778b" target="_top" xlink:title="Creates new Short Jelly Roll strategy which combines a long call calendar spread and a short put cale...">
<polygon fill="white" stroke="black" points="0,-0.5 0,-41.5 162,-41.5 162,-0.5 0,-0.5"/>
<text text-anchor="start" x="8" y="-29.5" font-family="Helvetica,sans-Serif" font-size="10.00">QuantConnect.Securities.</text>
<text text-anchor="start" x="8" y="-18.5" font-family="Helvetica,sans-Serif" font-size="10.00">Option.OptionStrategies.Short</text>
<text text-anchor="middle" x="81" y="-7.5" font-family="Helvetica,sans-Serif" font-size="10.00">JellyRoll</text>
</a>
</g>
</g>
<!-- Node2&#45;&gt;Node3 -->
<g id="edge2" class="edge">
<title>Node2&#45;&gt;Node3</title>
<path fill="none" stroke="midnightblue" d="M187.71,-21C179.15,-21 170.54,-21 162.14,-21"/>
<polygon fill="midnightblue" stroke="midnightblue" points="187.73,-24.5 197.73,-21 187.73,-17.5 187.73,-24.5"/>
</g>
</g>
</svg>
