<?xml version="1.0" encoding="UTF-8" standalone="no"?>
<!DOCTYPE svg PUBLIC "-//W3C//DTD SVG 1.1//EN"
 "http://www.w3.org/Graphics/SVG/1.1/DTD/svg11.dtd">
<!-- Generated by graphviz version 2.43.0 (0)
 -->
<!-- Title: QuantConnect.Indicators.OptionGreeksIndicatorBase.Calculate Pages: 1 -->
<svg width="471pt" height="137pt"
 viewBox="0.00 0.00 471.00 137.00" xmlns="http://www.w3.org/2000/svg" xmlns:xlink="http://www.w3.org/1999/xlink">
<g id="graph0" class="graph" transform="scale(1 1) rotate(0) translate(4 133)">
<title>QuantConnect.Indicators.OptionGreeksIndicatorBase.Calculate</title>
<polygon fill="white" stroke="transparent" points="-4,4 -4,-133 467,-133 467,4 -4,4"/>
<!-- Node1 -->
<g id="node1" class="node">
<title>Node1</title>
<g id="a_node1"><a xlink:title="Computes the next value of the option greek indicator">
<polygon fill="#bfbfbf" stroke="black" points="0,-49.5 0,-79.5 199,-79.5 199,-49.5 0,-49.5"/>
<text text-anchor="start" x="8" y="-67.5" font-family="Helvetica,sans-Serif" font-size="10.00">QuantConnect.Indicators.</text>
<text text-anchor="middle" x="99.5" y="-56.5" font-family="Helvetica,sans-Serif" font-size="10.00">OptionGreeksIndicatorBase.Calculate</text>
</a>
</g>
</g>
<!-- Node2 -->
<g id="node2" class="node">
<title>Node2</title>
<g id="a_node2"><a xlink:href="classQuantConnect_1_1Indicators_1_1OptionGreeksIndicatorBase.html#a3568bfff9e33d10a28ba505d6d6b327d" target="_top" xlink:title="Calculate the greek of the option">
<polygon fill="white" stroke="black" points="235,-98.5 235,-128.5 463,-128.5 463,-98.5 235,-98.5"/>
<text text-anchor="start" x="243" y="-116.5" font-family="Helvetica,sans-Serif" font-size="10.00">QuantConnect.Indicators.</text>
<text text-anchor="middle" x="349" y="-105.5" font-family="Helvetica,sans-Serif" font-size="10.00">OptionGreeksIndicatorBase.CalculateGreek</text>
</a>
</g>
</g>
<!-- Node1&#45;&gt;Node2 -->
<g id="edge1" class="edge">
<title>Node1&#45;&gt;Node2</title>
<path fill="none" stroke="midnightblue" d="M176.44,-79.53C203.52,-84.9 234.22,-90.97 262.08,-96.49"/>
<polygon fill="midnightblue" stroke="midnightblue" points="261.71,-99.98 272.2,-98.49 263.07,-93.12 261.71,-99.98"/>
</g>
<!-- Node3 -->
<g id="node3" class="node">
<title>Node3</title>
<g id="a_node3"><a xlink:href="interfaceQuantConnect_1_1Data_1_1IDividendYieldModel.html#acd84f1438fd20ae6501928f357adb725" target="_top" xlink:title="Get dividend yield by a given date of a given symbol">
<polygon fill="white" stroke="black" points="268.5,-49.5 268.5,-79.5 429.5,-79.5 429.5,-49.5 268.5,-49.5"/>
<text text-anchor="start" x="276.5" y="-67.5" font-family="Helvetica,sans-Serif" font-size="10.00">QuantConnect.Data.IDividend</text>
<text text-anchor="middle" x="349" y="-56.5" font-family="Helvetica,sans-Serif" font-size="10.00">YieldModel.GetDividendYield</text>
</a>
</g>
</g>
<!-- Node1&#45;&gt;Node3 -->
<g id="edge2" class="edge">
<title>Node1&#45;&gt;Node3</title>
<path fill="none" stroke="midnightblue" d="M199.03,-64.5C218.57,-64.5 238.99,-64.5 258.22,-64.5"/>
<polygon fill="midnightblue" stroke="midnightblue" points="258.46,-68 268.46,-64.5 258.46,-61 258.46,-68"/>
</g>
<!-- Node4 -->
<g id="node4" class="node">
<title>Node4</title>
<g id="a_node4"><a xlink:href="interfaceQuantConnect_1_1Data_1_1IRiskFreeInterestRateModel.html#aa7dfabf2595f0e70086b46c699983232" target="_top" xlink:title="Get interest rate by a given date">
<polygon fill="white" stroke="black" points="255.5,-0.5 255.5,-30.5 442.5,-30.5 442.5,-0.5 255.5,-0.5"/>
<text text-anchor="start" x="263.5" y="-18.5" font-family="Helvetica,sans-Serif" font-size="10.00">QuantConnect.Data.IRiskFree</text>
<text text-anchor="middle" x="349" y="-7.5" font-family="Helvetica,sans-Serif" font-size="10.00">InterestRateModel.GetInterestRate</text>
</a>
</g>
</g>
<!-- Node1&#45;&gt;Node4 -->
<g id="edge3" class="edge">
<title>Node1&#45;&gt;Node4</title>
<path fill="none" stroke="midnightblue" d="M176.44,-49.47C203.52,-44.1 234.22,-38.03 262.08,-32.51"/>
<polygon fill="midnightblue" stroke="midnightblue" points="263.07,-35.88 272.2,-30.51 261.71,-29.02 263.07,-35.88"/>
</g>
</g>
</svg>
