<?xml version="1.0" encoding="UTF-8" standalone="no"?>
<!DOCTYPE svg PUBLIC "-//W3C//DTD SVG 1.1//EN"
 "http://www.w3.org/Graphics/SVG/1.1/DTD/svg11.dtd">
<!-- Generated by graphviz version 2.43.0 (0)
 -->
<!-- Title: QuantConnect.Messages.SecurityExchangeHours.LastMarketOpenNotFound Pages: 1 -->
<svg width="459pt" height="50pt"
 viewBox="0.00 0.00 459.00 50.00" xmlns="http://www.w3.org/2000/svg" xmlns:xlink="http://www.w3.org/1999/xlink">
<g id="graph0" class="graph" transform="scale(1 1) rotate(0) translate(4 46)">
<title>QuantConnect.Messages.SecurityExchangeHours.LastMarketOpenNotFound</title>
<polygon fill="white" stroke="transparent" points="-4,4 -4,-46 455,-46 455,4 -4,4"/>
<!-- Node1 -->
<g id="node1" class="node">
<title>Node1</title>
<g id="a_node1"><a xlink:title="Returns a string message saying it did not find last market open for the given local date time....">
<polygon fill="#bfbfbf" stroke="black" points="230,-6 230,-36 451,-36 451,-6 230,-6"/>
<text text-anchor="start" x="238" y="-24" font-family="Helvetica,sans-Serif" font-size="10.00">QuantConnect.Messages.Security</text>
<text text-anchor="middle" x="340.5" y="-13" font-family="Helvetica,sans-Serif" font-size="10.00">ExchangeHours.LastMarketOpenNotFound</text>
</a>
</g>
</g>
<!-- Node2 -->
<g id="node2" class="node">
<title>Node2</title>
<g id="a_node2"><a xlink:href="classQuantConnect_1_1Securities_1_1SecurityExchangeHours.html#a7b750e8b832a93bcd107e56989a2a0d7" target="_top" xlink:title="Gets the local date time corresponding to the previous market open to the specified time">
<polygon fill="white" stroke="black" points="0,-0.5 0,-41.5 194,-41.5 194,-0.5 0,-0.5"/>
<text text-anchor="start" x="8" y="-29.5" font-family="Helvetica,sans-Serif" font-size="10.00">QuantConnect.Securities.</text>
<text text-anchor="start" x="8" y="-18.5" font-family="Helvetica,sans-Serif" font-size="10.00">SecurityExchangeHours.GetPrevious</text>
<text text-anchor="middle" x="97" y="-7.5" font-family="Helvetica,sans-Serif" font-size="10.00">MarketOpen</text>
</a>
</g>
</g>
<!-- Node1&#45;&gt;Node2 -->
<g id="edge1" class="edge">
<title>Node1&#45;&gt;Node2</title>
<path fill="none" stroke="midnightblue" d="M219.69,-21C211.15,-21 202.61,-21 194.23,-21"/>
<polygon fill="midnightblue" stroke="midnightblue" points="219.7,-24.5 229.7,-21 219.7,-17.5 219.7,-24.5"/>
</g>
</g>
</svg>
