<?xml version="1.0" encoding="UTF-8" standalone="no"?>
<!DOCTYPE svg PUBLIC "-//W3C//DTD SVG 1.1//EN"
 "http://www.w3.org/Graphics/SVG/1.1/DTD/svg11.dtd">
<!-- Generated by graphviz version 2.43.0 (0)
 -->
<!-- Title: QuantConnect.Brokerages.SamcoBrokerageModel.GetBenchmark Pages: 1 -->
<!--zoomable 627 -->
<svg id="main" version="1.1" xmlns="http://www.w3.org/2000/svg" xmlns:xlink="http://www.w3.org/1999/xlink" xml:space="preserve" onload="init(evt)">
<style type="text/css"><![CDATA[
.edge:hover path { stroke: red; }
.edge:hover polygon { stroke: red; fill: red; }
]]></style>
<script type="text/javascript"><![CDATA[
var edges = document.getElementsByTagName('g');
if (edges && edges.length) {
  for (var i=0;i<edges.length;i++) {
    if (edges[i].id.substr(0,4)=='edge') {
      edges[i].setAttribute('class','edge');
    }
  }
}
]]></script>
        <defs>
                <circle id="rim" cx="0" cy="0" r="7"/>
                <circle id="rim2" cx="0" cy="0" r="3.5"/>
                <g id="zoomPlus">
                        <use xlink:href="#rim" fill="#404040">
                                <set attributeName="fill" to="#808080" begin="zoomplus.mouseover" end="zoomplus.mouseout"/>
                        </use>
                        <path d="M-4,0h8M0,-4v8" fill="none" stroke="white" stroke-width="1.5" pointer-events="none"/>
                </g>
                <g id="zoomMin">
                        <use xlink:href="#rim" fill="#404040">
                                <set attributeName="fill" to="#808080" begin="zoomminus.mouseover" end="zoomminus.mouseout"/>
                        </use>
                        <path d="M-4,0h8" fill="none" stroke="white" stroke-width="1.5" pointer-events="none"/>
                </g>
                <g id="dirArrow">
                        <path fill="none" stroke="white" stroke-width="1.5" d="M0,-3.0v7 M-2.5,-0.5L0,-3.0L2.5,-0.5"/>
                </g>
               <g id="resetDef">
                       <use xlink:href="#rim2" fill="#404040">
                               <set attributeName="fill" to="#808080" begin="reset.mouseover" end="reset.mouseout"/>
                       </use>
               </g>
        </defs>

<script type="text/javascript">
var viewWidth = 1649;
var viewHeight = 627;
var sectionId = 'dynsection-3';
</script>
<script xlink:href="svgpan.js"/>
<svg id="graph" class="graph">
<g id="viewport">
<title>QuantConnect.Brokerages.SamcoBrokerageModel.GetBenchmark</title>
<polygon fill="white" stroke="transparent" points="-4,4 -4,-622.88 1645,-622.88 1645,4 -4,4"/>
<!-- Node1 -->
<g id="node1" class="node">
<title>Node1</title>
<g id="a_node1"><a xlink:title="Get the benchmark for this model">
<polygon fill="#bfbfbf" stroke="black" points="0,-180.5 0,-210.5 205,-210.5 205,-180.5 0,-180.5"/>
<text text-anchor="start" x="8" y="-198.5" font-family="Helvetica,sans-Serif" font-size="10.00">QuantConnect.Brokerages.</text>
<text text-anchor="middle" x="102.5" y="-187.5" font-family="Helvetica,sans-Serif" font-size="10.00">SamcoBrokerageModel.GetBenchmark</text>
</a>
</g>
</g>
<!-- Node2 -->
<g id="node2" class="node">
<title>Node2</title>
<g id="a_node2"><a xlink:href="classQuantConnect_1_1Symbol.html#a350b9a625cf7bad95da82894be3cd0a8" target="_top" xlink:title="Provides a convenience method for creating a Symbol for most security types. This method currently do...">
<polygon fill="white" stroke="black" points="254.5,-336 254.5,-355 415.5,-355 415.5,-336 254.5,-336"/>
<text text-anchor="middle" x="335" y="-343" font-family="Helvetica,sans-Serif" font-size="10.00">QuantConnect.Symbol.Create</text>
</a>
</g>
</g>
<!-- Node1&#45;&gt;Node2 -->
<g id="edge1" class="edge">
<title>Node1&#45;&gt;Node2</title>
<path fill="none" stroke="midnightblue" d="M126.87,-210.71C171.11,-239.5 266.59,-301.63 310.74,-330.36"/>
<polygon fill="midnightblue" stroke="midnightblue" points="309.06,-333.44 319.35,-335.96 312.87,-327.58 309.06,-333.44"/>
</g>
<!-- Node20 -->
<g id="node20" class="node">
<title>Node20</title>
<g id="a_node20"><a xlink:href="classQuantConnect_1_1Benchmarks_1_1SecurityBenchmark.html#a40c97e12584a0fc70ffb48f9aead3287" target="_top" xlink:title="Helper function that will create a security with the given SecurityManager for a specific symbol and ...">
<polygon fill="white" stroke="black" points="241,-55.5 241,-85.5 429,-85.5 429,-55.5 241,-55.5"/>
<text text-anchor="start" x="249" y="-73.5" font-family="Helvetica,sans-Serif" font-size="10.00">QuantConnect.Benchmarks.</text>
<text text-anchor="middle" x="335" y="-62.5" font-family="Helvetica,sans-Serif" font-size="10.00">SecurityBenchmark.CreateInstance</text>
</a>
</g>
</g>
<!-- Node1&#45;&gt;Node20 -->
<g id="edge21" class="edge">
<title>Node1&#45;&gt;Node20</title>
<path fill="none" stroke="midnightblue" d="M131.3,-180.42C172.75,-157.95 250.8,-115.62 297.02,-90.55"/>
<polygon fill="midnightblue" stroke="midnightblue" points="298.98,-93.48 306.1,-85.63 295.64,-87.32 298.98,-93.48"/>
</g>
<!-- Node3 -->
<g id="node3" class="node">
<title>Node3</title>
<g id="a_node3"><a xlink:href="classQuantConnect_1_1Symbol.html#a7518a1932d1babbff128f2ba9666a78b" target="_top" xlink:title="Provides a convenience method for creating an option Symbol.">
<polygon fill="white" stroke="black" points="489.5,-541.5 489.5,-571.5 650.5,-571.5 650.5,-541.5 489.5,-541.5"/>
<text text-anchor="start" x="497.5" y="-559.5" font-family="Helvetica,sans-Serif" font-size="10.00">QuantConnect.Symbol.Create</text>
<text text-anchor="middle" x="570" y="-548.5" font-family="Helvetica,sans-Serif" font-size="10.00">Option</text>
</a>
</g>
</g>
<!-- Node2&#45;&gt;Node3 -->
<g id="edge2" class="edge">
<title>Node2&#45;&gt;Node3</title>
<path fill="none" stroke="midnightblue" d="M340.02,-355.08C353.16,-385.24 397.93,-479 465,-526.5 470.96,-530.72 477.5,-534.35 484.32,-537.47"/>
<polygon fill="midnightblue" stroke="midnightblue" points="483.17,-540.78 493.75,-541.42 485.88,-534.33 483.17,-540.78"/>
</g>
<!-- Node4 -->
<g id="node4" class="node">
<title>Node4</title>
<g id="a_node4"><a xlink:href="classQuantConnect_1_1SecurityIdentifier.html#a0c21d7880c9fdd260883d11ea0c99a00" target="_top" xlink:title="Helper overload that will search the mapfiles to resolve the first date. This implementation uses the...">
<polygon fill="white" stroke="black" points="715.5,-574.5 715.5,-604.5 889.5,-604.5 889.5,-574.5 715.5,-574.5"/>
<text text-anchor="start" x="723.5" y="-592.5" font-family="Helvetica,sans-Serif" font-size="10.00">QuantConnect.SecurityIdentifier.</text>
<text text-anchor="middle" x="802.5" y="-581.5" font-family="Helvetica,sans-Serif" font-size="10.00">GenerateEquity</text>
</a>
</g>
</g>
<!-- Node2&#45;&gt;Node4 -->
<g id="edge15" class="edge">
<title>Node2&#45;&gt;Node4</title>
<path fill="none" stroke="midnightblue" d="M337.73,-355.02C345.06,-392.18 377.27,-528.05 465,-581.5 546.74,-631.3 661.64,-620.65 733.8,-606.51"/>
<polygon fill="midnightblue" stroke="midnightblue" points="734.59,-609.93 743.69,-604.5 733.19,-603.07 734.59,-609.93"/>
</g>
<!-- Node5 -->
<g id="node5" class="node">
<title>Node5</title>
<g id="a_node5"><a xlink:href="classQuantConnect_1_1Symbol.html#a59158f74116be3dad0ea0f3f3f134416" target="_top" xlink:title="Initializes a new instance of the Symbol class">
<polygon fill="white" stroke="black" points="720,-514 720,-533 885,-533 885,-514 720,-514"/>
<text text-anchor="middle" x="802.5" y="-521" font-family="Helvetica,sans-Serif" font-size="10.00">QuantConnect.Symbol.Symbol</text>
</a>
</g>
</g>
<!-- Node2&#45;&gt;Node5 -->
<g id="edge20" class="edge">
<title>Node2&#45;&gt;Node5</title>
<path fill="none" stroke="midnightblue" d="M341.03,-355.36C355.71,-382.98 401.53,-461.15 465,-493.5 506.3,-514.55 624.9,-521.04 709.59,-522.93"/>
<polygon fill="midnightblue" stroke="midnightblue" points="709.67,-526.43 719.74,-523.14 709.81,-519.43 709.67,-526.43"/>
</g>
<!-- Node11 -->
<g id="node11" class="node">
<title>Node11</title>
<g id="a_node11"><a xlink:href="classQuantConnect_1_1SecurityIdentifier.html#a02ca750115844561c001c2346fbafc00" target="_top" xlink:title="Generates a new SecurityIdentifier for a custom security with the option of providing the first date">
<polygon fill="white" stroke="black" points="483,-453.5 483,-483.5 657,-483.5 657,-453.5 483,-453.5"/>
<text text-anchor="start" x="491" y="-471.5" font-family="Helvetica,sans-Serif" font-size="10.00">QuantConnect.SecurityIdentifier.</text>
<text text-anchor="middle" x="570" y="-460.5" font-family="Helvetica,sans-Serif" font-size="10.00">GenerateBase</text>
</a>
</g>
</g>
<!-- Node2&#45;&gt;Node11 -->
<g id="edge10" class="edge">
<title>Node2&#45;&gt;Node11</title>
<path fill="none" stroke="midnightblue" d="M345.38,-355.07C365.42,-374.94 414.7,-420.78 465,-444.5 469.33,-446.54 473.84,-448.42 478.46,-450.13"/>
<polygon fill="midnightblue" stroke="midnightblue" points="477.46,-453.49 488.06,-453.45 479.75,-446.88 477.46,-453.49"/>
</g>
<!-- Node13 -->
<g id="node13" class="node">
<title>Node13</title>
<g id="a_node13"><a xlink:href="classQuantConnect_1_1SecurityIdentifier.html#a53953b18d814c5445e4ecdcb3b555080" target="_top" xlink:title="Generates a new SecurityIdentifier for a CFD security">
<polygon fill="white" stroke="black" points="483,-404.5 483,-434.5 657,-434.5 657,-404.5 483,-404.5"/>
<text text-anchor="start" x="491" y="-422.5" font-family="Helvetica,sans-Serif" font-size="10.00">QuantConnect.SecurityIdentifier.</text>
<text text-anchor="middle" x="570" y="-411.5" font-family="Helvetica,sans-Serif" font-size="10.00">GenerateCfd</text>
</a>
</g>
</g>
<!-- Node2&#45;&gt;Node13 -->
<g id="edge12" class="edge">
<title>Node2&#45;&gt;Node13</title>
<path fill="none" stroke="midnightblue" d="M358.03,-355.15C383.44,-366.03 426.66,-383.71 465,-395.5 472.35,-397.76 480.04,-399.92 487.79,-401.95"/>
<polygon fill="midnightblue" stroke="midnightblue" points="487.04,-405.37 497.59,-404.44 488.77,-398.58 487.04,-405.37"/>
</g>
<!-- Node14 -->
<g id="node14" class="node">
<title>Node14</title>
<g id="a_node14"><a xlink:href="classQuantConnect_1_1SecurityIdentifier.html#a5889a95a36ce927dd0a109cbfbcbe663" target="_top" xlink:title="Generates a new SecurityIdentifier for a Crypto pair">
<polygon fill="white" stroke="black" points="483,-355.5 483,-385.5 657,-385.5 657,-355.5 483,-355.5"/>
<text text-anchor="start" x="491" y="-373.5" font-family="Helvetica,sans-Serif" font-size="10.00">QuantConnect.SecurityIdentifier.</text>
<text text-anchor="middle" x="570" y="-362.5" font-family="Helvetica,sans-Serif" font-size="10.00">GenerateCrypto</text>
</a>
</g>
</g>
<!-- Node2&#45;&gt;Node14 -->
<g id="edge13" class="edge">
<title>Node2&#45;&gt;Node14</title>
<path fill="none" stroke="midnightblue" d="M415.53,-354.03C433.86,-356 453.55,-358.11 472.51,-360.15"/>
<polygon fill="midnightblue" stroke="midnightblue" points="472.33,-363.65 482.65,-361.23 473.08,-356.69 472.33,-363.65"/>
</g>
<!-- Node15 -->
<g id="node15" class="node">
<title>Node15</title>
<g id="a_node15"><a xlink:href="classQuantConnect_1_1SecurityIdentifier.html#ac665665a16d5449872fed3427b95a260" target="_top" xlink:title="Generates a new SecurityIdentifier for a CryptoFuture pair">
<polygon fill="white" stroke="black" points="483,-306.5 483,-336.5 657,-336.5 657,-306.5 483,-306.5"/>
<text text-anchor="start" x="491" y="-324.5" font-family="Helvetica,sans-Serif" font-size="10.00">QuantConnect.SecurityIdentifier.</text>
<text text-anchor="middle" x="570" y="-313.5" font-family="Helvetica,sans-Serif" font-size="10.00">GenerateCryptoFuture</text>
</a>
</g>
</g>
<!-- Node2&#45;&gt;Node15 -->
<g id="edge14" class="edge">
<title>Node2&#45;&gt;Node15</title>
<path fill="none" stroke="midnightblue" d="M415.53,-337.31C433.86,-335.42 453.55,-333.39 472.51,-331.44"/>
<polygon fill="midnightblue" stroke="midnightblue" points="473.06,-334.9 482.65,-330.39 472.34,-327.94 473.06,-334.9"/>
</g>
<!-- Node16 -->
<g id="node16" class="node">
<title>Node16</title>
<g id="a_node16"><a xlink:href="classQuantConnect_1_1SecurityIdentifier.html#a9cf0d3b208a5171e6112516ce441f18d" target="_top" xlink:title="Generates a new SecurityIdentifier for a forex pair">
<polygon fill="white" stroke="black" points="483,-257.5 483,-287.5 657,-287.5 657,-257.5 483,-257.5"/>
<text text-anchor="start" x="491" y="-275.5" font-family="Helvetica,sans-Serif" font-size="10.00">QuantConnect.SecurityIdentifier.</text>
<text text-anchor="middle" x="570" y="-264.5" font-family="Helvetica,sans-Serif" font-size="10.00">GenerateForex</text>
</a>
</g>
</g>
<!-- Node2&#45;&gt;Node16 -->
<g id="edge16" class="edge">
<title>Node2&#45;&gt;Node16</title>
<path fill="none" stroke="midnightblue" d="M359.02,-335.98C384.6,-325.62 427.29,-309 465,-297.5 473.54,-294.89 482.55,-292.38 491.54,-290.03"/>
<polygon fill="midnightblue" stroke="midnightblue" points="492.45,-293.41 501.27,-287.53 490.71,-286.63 492.45,-293.41"/>
</g>
<!-- Node17 -->
<g id="node17" class="node">
<title>Node17</title>
<g id="a_node17"><a xlink:href="classQuantConnect_1_1SecurityIdentifier.html#ad50a891c97cb0c084a9e2aa43607ed66" target="_top" xlink:title="Generates a new SecurityIdentifier for a future">
<polygon fill="white" stroke="black" points="483,-208.5 483,-238.5 657,-238.5 657,-208.5 483,-208.5"/>
<text text-anchor="start" x="491" y="-226.5" font-family="Helvetica,sans-Serif" font-size="10.00">QuantConnect.SecurityIdentifier.</text>
<text text-anchor="middle" x="570" y="-215.5" font-family="Helvetica,sans-Serif" font-size="10.00">GenerateFuture</text>
</a>
</g>
</g>
<!-- Node2&#45;&gt;Node17 -->
<g id="edge17" class="edge">
<title>Node2&#45;&gt;Node17</title>
<path fill="none" stroke="midnightblue" d="M345.75,-335.87C366.09,-316.33 415.32,-271.91 465,-248.5 470.22,-246.04 475.7,-243.81 481.31,-241.79"/>
<polygon fill="midnightblue" stroke="midnightblue" points="482.48,-245.09 490.84,-238.58 480.25,-238.45 482.48,-245.09"/>
</g>
<!-- Node18 -->
<g id="node18" class="node">
<title>Node18</title>
<g id="a_node18"><a xlink:href="classQuantConnect_1_1SecurityIdentifier.html#ade05a8e57b041ab484cf585be8d05699" target="_top" xlink:title="Generates a new SecurityIdentifier for a INDEX security">
<polygon fill="white" stroke="black" points="483,-159.5 483,-189.5 657,-189.5 657,-159.5 483,-159.5"/>
<text text-anchor="start" x="491" y="-177.5" font-family="Helvetica,sans-Serif" font-size="10.00">QuantConnect.SecurityIdentifier.</text>
<text text-anchor="middle" x="570" y="-166.5" font-family="Helvetica,sans-Serif" font-size="10.00">GenerateIndex</text>
</a>
</g>
</g>
<!-- Node2&#45;&gt;Node18 -->
<g id="edge18" class="edge">
<title>Node2&#45;&gt;Node18</title>
<path fill="none" stroke="midnightblue" d="M341.55,-335.85C357.23,-309.48 404.71,-235.76 465,-199.5 468.63,-197.32 472.43,-195.33 476.35,-193.51"/>
<polygon fill="midnightblue" stroke="midnightblue" points="477.83,-196.69 485.69,-189.58 475.11,-190.24 477.83,-196.69"/>
</g>
<!-- Node19 -->
<g id="node19" class="node">
<title>Node19</title>
<g id="a_node19"><a xlink:href="classQuantConnect_1_1Messages_1_1Symbol.html#ab801bef52a308b8ba7ba6d42e1ef1988" target="_top" xlink:title="Returns a string message saying the given security type has not been implemented yet">
<polygon fill="white" stroke="black" points="480,-110.5 480,-140.5 660,-140.5 660,-110.5 480,-110.5"/>
<text text-anchor="start" x="488" y="-128.5" font-family="Helvetica,sans-Serif" font-size="10.00">QuantConnect.Messages.Symbol.</text>
<text text-anchor="middle" x="570" y="-117.5" font-family="Helvetica,sans-Serif" font-size="10.00">SecurityTypeNotImplementedYet</text>
</a>
</g>
</g>
<!-- Node2&#45;&gt;Node19 -->
<g id="edge19" class="edge">
<title>Node2&#45;&gt;Node19</title>
<path fill="none" stroke="midnightblue" d="M339.37,-335.95C351.12,-304.08 393.52,-200.58 465,-150.5 467.86,-148.49 470.87,-146.65 473.97,-144.95"/>
<polygon fill="midnightblue" stroke="midnightblue" points="475.54,-148.08 482.98,-140.54 472.46,-141.79 475.54,-148.08"/>
</g>
<!-- Node3&#45;&gt;Node4 -->
<g id="edge3" class="edge">
<title>Node3&#45;&gt;Node4</title>
<path fill="none" stroke="midnightblue" d="M650.65,-567.9C668.21,-570.42 687.01,-573.11 705.15,-575.71"/>
<polygon fill="midnightblue" stroke="midnightblue" points="704.76,-579.19 715.16,-577.14 705.76,-572.26 704.76,-579.19"/>
</g>
<!-- Node3&#45;&gt;Node5 -->
<g id="edge4" class="edge">
<title>Node3&#45;&gt;Node5</title>
<path fill="none" stroke="midnightblue" d="M650.65,-545.1C674.67,-541.66 700.99,-537.89 724.81,-534.48"/>
<polygon fill="midnightblue" stroke="midnightblue" points="725.46,-537.92 734.86,-533.04 724.46,-530.99 725.46,-537.92"/>
</g>
<!-- Node6 -->
<g id="node6" class="node">
<title>Node6</title>
<g id="a_node6"><a xlink:href="classQuantConnect_1_1Symbol.html#a59b0795fa21f46c306deb5576fa03bb9" target="_top" xlink:title="Centralized helper method to resolve alias for a symbol">
<polygon fill="white" stroke="black" points="930,-514 930,-533 1100,-533 1100,-514 930,-514"/>
<text text-anchor="middle" x="1015" y="-521" font-family="Helvetica,sans-Serif" font-size="10.00">QuantConnect.Symbol.GetAlias</text>
</a>
</g>
</g>
<!-- Node5&#45;&gt;Node6 -->
<g id="edge5" class="edge">
<title>Node5&#45;&gt;Node6</title>
<path fill="none" stroke="midnightblue" d="M885.19,-523.5C896.54,-523.5 908.27,-523.5 919.83,-523.5"/>
<polygon fill="midnightblue" stroke="midnightblue" points="919.93,-527 929.93,-523.5 919.93,-520 919.93,-527"/>
</g>
<!-- Node7 -->
<g id="node7" class="node">
<title>Node7</title>
<g id="a_node7"><a xlink:href="classQuantConnect_1_1SymbolRepresentation.html#ad43ac907f6c19083821f58f21c6de017" target="_top" xlink:title="Returns future symbol ticker from underlying and expiration date. Function can generate tickers of tw...">
<polygon fill="white" stroke="black" points="1136,-536.5 1136,-566.5 1339,-566.5 1339,-536.5 1136,-536.5"/>
<text text-anchor="start" x="1144" y="-554.5" font-family="Helvetica,sans-Serif" font-size="10.00">QuantConnect.SymbolRepresentation.</text>
<text text-anchor="middle" x="1237.5" y="-543.5" font-family="Helvetica,sans-Serif" font-size="10.00">GenerateFutureTicker</text>
</a>
</g>
</g>
<!-- Node6&#45;&gt;Node7 -->
<g id="edge6" class="edge">
<title>Node6&#45;&gt;Node7</title>
<path fill="none" stroke="midnightblue" d="M1090.96,-533.02C1102.27,-534.46 1114.14,-535.96 1126.01,-537.47"/>
<polygon fill="midnightblue" stroke="midnightblue" points="1125.62,-540.95 1135.98,-538.74 1126.5,-534 1125.62,-540.95"/>
</g>
<!-- Node9 -->
<g id="node9" class="node">
<title>Node9</title>
<g id="a_node9"><a xlink:href="classQuantConnect_1_1SymbolRepresentation.html#ab133044f5cf8c16e700190a2202b215e" target="_top" xlink:title="Returns option symbol ticker in accordance with OSI symbology More information can be found at http:/...">
<polygon fill="white" stroke="black" points="1136,-484.5 1136,-514.5 1339,-514.5 1339,-484.5 1136,-484.5"/>
<text text-anchor="start" x="1144" y="-502.5" font-family="Helvetica,sans-Serif" font-size="10.00">QuantConnect.SymbolRepresentation.</text>
<text text-anchor="middle" x="1237.5" y="-491.5" font-family="Helvetica,sans-Serif" font-size="10.00">GenerateOptionTickerOSI</text>
</a>
</g>
</g>
<!-- Node6&#45;&gt;Node9 -->
<g id="edge8" class="edge">
<title>Node6&#45;&gt;Node9</title>
<path fill="none" stroke="midnightblue" d="M1100.31,-514.32C1108.69,-513.41 1117.3,-512.47 1125.9,-511.54"/>
<polygon fill="midnightblue" stroke="midnightblue" points="1126.43,-515 1135.99,-510.44 1125.67,-508.04 1126.43,-515"/>
</g>
<!-- Node8 -->
<g id="node8" class="node">
<title>Node8</title>
<g id="a_node8"><a xlink:href="classQuantConnect_1_1Securities_1_1Future_1_1FuturesExpiryUtilityFunctions.html#a4ccb1e2f2fe40ff09785a74a02f26df1" target="_top" xlink:title="Gets the number of months between the contract month and the expiry date.">
<polygon fill="white" stroke="black" points="1375,-534 1375,-575 1641,-575 1641,-534 1375,-534"/>
<text text-anchor="start" x="1383" y="-563" font-family="Helvetica,sans-Serif" font-size="10.00">QuantConnect.Securities.</text>
<text text-anchor="start" x="1383" y="-552" font-family="Helvetica,sans-Serif" font-size="10.00">Future.FuturesExpiryUtilityFunctions.</text>
<text text-anchor="middle" x="1508" y="-541" font-family="Helvetica,sans-Serif" font-size="10.00">GetDeltaBetweenContractMonthAndContractExpiry</text>
</a>
</g>
</g>
<!-- Node7&#45;&gt;Node8 -->
<g id="edge7" class="edge">
<title>Node7&#45;&gt;Node8</title>
<path fill="none" stroke="midnightblue" d="M1339.24,-552.63C1347.59,-552.72 1356.11,-552.81 1364.68,-552.91"/>
<polygon fill="midnightblue" stroke="midnightblue" points="1364.72,-556.41 1374.76,-553.02 1364.8,-549.41 1364.72,-556.41"/>
</g>
<!-- Node10 -->
<g id="node10" class="node">
<title>Node10</title>
<g id="a_node10"><a xlink:href="classQuantConnect_1_1Messages_1_1SymbolRepresentation.html#a2c514157d8055cfa271ea3a7ca1ccde7" target="_top" xlink:title="Returns a string message saying an unexpected security type was received by the given method name">
<polygon fill="white" stroke="black" points="1412,-474 1412,-515 1604,-515 1604,-474 1412,-474"/>
<text text-anchor="start" x="1420" y="-503" font-family="Helvetica,sans-Serif" font-size="10.00">QuantConnect.Messages.Symbol</text>
<text text-anchor="start" x="1420" y="-492" font-family="Helvetica,sans-Serif" font-size="10.00">Representation.UnexpectedSecurity</text>
<text text-anchor="middle" x="1508" y="-481" font-family="Helvetica,sans-Serif" font-size="10.00">TypeForMethod</text>
</a>
</g>
</g>
<!-- Node9&#45;&gt;Node10 -->
<g id="edge9" class="edge">
<title>Node9&#45;&gt;Node10</title>
<path fill="none" stroke="midnightblue" d="M1339.24,-497.62C1359.7,-497.24 1381.27,-496.84 1401.88,-496.46"/>
<polygon fill="midnightblue" stroke="midnightblue" points="1401.98,-499.96 1411.91,-496.27 1401.85,-492.96 1401.98,-499.96"/>
</g>
<!-- Node12 -->
<g id="node12" class="node">
<title>Node12</title>
<g id="a_node12"><a xlink:href="classQuantConnect_1_1SecurityIdentifier.html#a19e1f9da410608020d74ed9e7d283575" target="_top" xlink:title="Generates the Symbol property for QuantConnect.SecurityType.Base security identifiers">
<polygon fill="white" stroke="black" points="715.5,-453.5 715.5,-483.5 889.5,-483.5 889.5,-453.5 715.5,-453.5"/>
<text text-anchor="start" x="723.5" y="-471.5" font-family="Helvetica,sans-Serif" font-size="10.00">QuantConnect.SecurityIdentifier.</text>
<text text-anchor="middle" x="802.5" y="-460.5" font-family="Helvetica,sans-Serif" font-size="10.00">GenerateBaseSymbol</text>
</a>
</g>
</g>
<!-- Node11&#45;&gt;Node12 -->
<g id="edge11" class="edge">
<title>Node11&#45;&gt;Node12</title>
<path fill="none" stroke="midnightblue" d="M657.16,-468.5C672.79,-468.5 689.18,-468.5 705.08,-468.5"/>
<polygon fill="midnightblue" stroke="midnightblue" points="705.45,-472 715.45,-468.5 705.45,-465 705.45,-472"/>
</g>
<!-- Node21 -->
<g id="node21" class="node">
<title>Node21</title>
<g id="a_node21"><a xlink:href="classQuantConnect_1_1Securities_1_1SecurityManager.html#a3ac388b31cf00c501b738b751427b883" target="_top" xlink:title="Creates a new benchmark security">
<polygon fill="white" stroke="black" points="475.5,-50 475.5,-91 664.5,-91 664.5,-50 475.5,-50"/>
<text text-anchor="start" x="483.5" y="-79" font-family="Helvetica,sans-Serif" font-size="10.00">QuantConnect.Securities.</text>
<text text-anchor="start" x="483.5" y="-68" font-family="Helvetica,sans-Serif" font-size="10.00">SecurityManager.CreateBenchmark</text>
<text text-anchor="middle" x="570" y="-57" font-family="Helvetica,sans-Serif" font-size="10.00">Security</text>
</a>
</g>
</g>
<!-- Node20&#45;&gt;Node21 -->
<g id="edge22" class="edge">
<title>Node20&#45;&gt;Node21</title>
<path fill="none" stroke="midnightblue" d="M429.09,-70.5C440.98,-70.5 453.2,-70.5 465.24,-70.5"/>
<polygon fill="midnightblue" stroke="midnightblue" points="465.29,-74 475.29,-70.5 465.29,-67 465.29,-74"/>
</g>
<!-- Node23 -->
<g id="node23" class="node">
<title>Node23</title>
<g id="a_node23"><a xlink:href="classQuantConnect_1_1Benchmarks_1_1SecurityBenchmark.html#a45a12b43bac87b210770258630e56622" target="_top" xlink:title="Initializes a new instance of the SecurityBenchmark class">
<polygon fill="white" stroke="black" points="465,-0.5 465,-30.5 675,-30.5 675,-0.5 465,-0.5"/>
<text text-anchor="start" x="473" y="-18.5" font-family="Helvetica,sans-Serif" font-size="10.00">QuantConnect.Benchmarks.</text>
<text text-anchor="middle" x="570" y="-7.5" font-family="Helvetica,sans-Serif" font-size="10.00">SecurityBenchmark.SecurityBenchmark</text>
</a>
</g>
</g>
<!-- Node20&#45;&gt;Node23 -->
<g id="edge24" class="edge">
<title>Node20&#45;&gt;Node23</title>
<path fill="none" stroke="midnightblue" d="M399.67,-55.47C429.33,-48.47 464.8,-40.1 495.59,-32.83"/>
<polygon fill="midnightblue" stroke="midnightblue" points="496.48,-36.21 505.41,-30.51 494.87,-29.4 496.48,-36.21"/>
</g>
<!-- Node22 -->
<g id="node22" class="node">
<title>Node22</title>
<g id="a_node22"><a xlink:href="classQuantConnect_1_1Securities_1_1SecurityService.html#aa449d8886d5728a00e44b9aea24ad036" target="_top" xlink:title="Creates a new security">
<polygon fill="white" stroke="black" points="711,-50 711,-91 894,-91 894,-50 711,-50"/>
<text text-anchor="start" x="719" y="-79" font-family="Helvetica,sans-Serif" font-size="10.00">QuantConnect.Securities.</text>
<text text-anchor="start" x="719" y="-68" font-family="Helvetica,sans-Serif" font-size="10.00">SecurityService.CreateBenchmark</text>
<text text-anchor="middle" x="802.5" y="-57" font-family="Helvetica,sans-Serif" font-size="10.00">Security</text>
</a>
</g>
</g>
<!-- Node21&#45;&gt;Node22 -->
<g id="edge23" class="edge">
<title>Node21&#45;&gt;Node22</title>
<path fill="none" stroke="midnightblue" d="M664.75,-70.5C676.63,-70.5 688.83,-70.5 700.81,-70.5"/>
<polygon fill="midnightblue" stroke="midnightblue" points="700.81,-74 710.81,-70.5 700.81,-67 700.81,-74"/>
</g>
</g>
</svg>
        <g id="navigator" transform="translate(0 0)" fill="#404254">
                <rect fill="#f2f5e9" fill-opacity="0.5" stroke="#606060" stroke-width=".5" x="0" y="0" width="60" height="60"/>
                <use id="zoomplus" xlink:href="#zoomPlus" x="17" y="9" onmousedown="handleZoom(evt,'in')"/>
                <use id="zoomminus" xlink:href="#zoomMin" x="42" y="9" onmousedown="handleZoom(evt,'out')"/>
                <use id="reset" xlink:href="#resetDef" x="30" y="36" onmousedown="handleReset()"/>
                <g id="arrowUp" xlink:href="#dirArrow" transform="translate(30 24)" onmousedown="handlePan(0,-1)">
                  <use xlink:href="#rim" fill="#404040">
                        <set attributeName="fill" to="#808080" begin="arrowUp.mouseover" end="arrowUp.mouseout"/>
                  </use>
                  <path fill="none" stroke="white" stroke-width="1.5" d="M0,-3.0v7 M-2.5,-0.5L0,-3.0L2.5,-0.5"/>
                </g>
                <g id="arrowRight" xlink:href="#dirArrow" transform="rotate(90) translate(36 -43)" onmousedown="handlePan(1,0)">
                  <use xlink:href="#rim" fill="#404040">
                        <set attributeName="fill" to="#808080" begin="arrowRight.mouseover" end="arrowRight.mouseout"/>
                  </use>
                  <path fill="none" stroke="white" stroke-width="1.5" d="M0,-3.0v7 M-2.5,-0.5L0,-3.0L2.5,-0.5"/>
                </g>
                <g id="arrowDown" xlink:href="#dirArrow" transform="rotate(180) translate(-30 -48)" onmousedown="handlePan(0,1)">
                  <use xlink:href="#rim" fill="#404040">
                        <set attributeName="fill" to="#808080" begin="arrowDown.mouseover" end="arrowDown.mouseout"/>
                  </use>
                  <path fill="none" stroke="white" stroke-width="1.5" d="M0,-3.0v7 M-2.5,-0.5L0,-3.0L2.5,-0.5"/>
                </g>
                <g id="arrowLeft" xlink:href="#dirArrow" transform="rotate(270) translate(-36 17)" onmousedown="handlePan(-1,0)">
                  <use xlink:href="#rim" fill="#404040">
                        <set attributeName="fill" to="#808080" begin="arrowLeft.mouseover" end="arrowLeft.mouseout"/>
                  </use>
                  <path fill="none" stroke="white" stroke-width="1.5" d="M0,-3.0v7 M-2.5,-0.5L0,-3.0L2.5,-0.5"/>
                </g>
        </g>
        <svg viewBox="0 0 15 15" width="100%" height="30px" preserveAspectRatio="xMaxYMin meet">
         <g id="arrow_out" transform="scale(0.3 0.3)">
          <a xlink:href="classQuantConnect_1_1Brokerages_1_1SamcoBrokerageModel_a40db495005f47223a19c9d3e5d398f86_cgraph_org.svg" target="_base">
           <rect id="button" ry="5" rx="5" y="6" x="6" height="38" width="38"
                fill="#f2f5e9" fill-opacity="0.5" stroke="#606060" stroke-width="1.0"/>
           <path id="arrow"
             d="M 11.500037,31.436501 C 11.940474,20.09759 22.043105,11.32322 32.158766,21.979434 L 37.068811,17.246167 C 37.068811,17.246167 37.088388,32 37.088388,32 L 22.160133,31.978069 C 22.160133,31.978069 26.997745,27.140456 26.997745,27.140456 C 18.528582,18.264221 13.291696,25.230495 11.500037,31.436501 z"
             style="fill:#404040;"/>
          </a>
         </g>
        </svg>
</svg>
