<?xml version="1.0" encoding="UTF-8" standalone="no"?>
<!DOCTYPE svg PUBLIC "-//W3C//DTD SVG 1.1//EN"
 "http://www.w3.org/Graphics/SVG/1.1/DTD/svg11.dtd">
<!-- Generated by graphviz version 2.43.0 (0)
 -->
<!-- Title: QuantConnect.Data.Common.MarketHourAwareConsolidator.MarketHourAwareConsolidator Pages: 1 -->
<svg width="647pt" height="110pt"
 viewBox="0.00 0.00 647.00 110.00" xmlns="http://www.w3.org/2000/svg" xmlns:xlink="http://www.w3.org/1999/xlink">
<g id="graph0" class="graph" transform="scale(1 1) rotate(0) translate(4 106)">
<title>QuantConnect.Data.Common.MarketHourAwareConsolidator.MarketHourAwareConsolidator</title>
<polygon fill="white" stroke="transparent" points="-4,4 -4,-106 643,-106 643,4 -4,4"/>
<!-- Node1 -->
<g id="node1" class="node">
<title>Node1</title>
<g id="a_node1"><a xlink:title="Initializes a new instance of the MarketHourAwareConsolidator class.">
<polygon fill="#bfbfbf" stroke="black" points="0,-30.5 0,-71.5 202,-71.5 202,-30.5 0,-30.5"/>
<text text-anchor="start" x="8" y="-59.5" font-family="Helvetica,sans-Serif" font-size="10.00">QuantConnect.Data.Common.</text>
<text text-anchor="start" x="8" y="-48.5" font-family="Helvetica,sans-Serif" font-size="10.00">MarketHourAwareConsolidator.Market</text>
<text text-anchor="middle" x="101" y="-37.5" font-family="Helvetica,sans-Serif" font-size="10.00">HourAwareConsolidator</text>
</a>
</g>
</g>
<!-- Node2 -->
<g id="node2" class="node">
<title>Node2</title>
<g id="a_node2"><a xlink:href="classQuantConnect_1_1Data_1_1Common_1_1MarketHourAwareConsolidator.html#adf1097cc47d0d5dd84d2cb3988f50c2a" target="_top" xlink:title="Determines a bar start time and period">
<polygon fill="white" stroke="black" points="244.5,-60.5 244.5,-101.5 438.5,-101.5 438.5,-60.5 244.5,-60.5"/>
<text text-anchor="start" x="252.5" y="-89.5" font-family="Helvetica,sans-Serif" font-size="10.00">QuantConnect.Data.Common.</text>
<text text-anchor="start" x="252.5" y="-78.5" font-family="Helvetica,sans-Serif" font-size="10.00">MarketHourAwareConsolidator.Daily</text>
<text text-anchor="middle" x="341.5" y="-67.5" font-family="Helvetica,sans-Serif" font-size="10.00">StrictEndTime</text>
</a>
</g>
</g>
<!-- Node1&#45;&gt;Node2 -->
<g id="edge1" class="edge">
<title>Node1&#45;&gt;Node2</title>
<path fill="none" stroke="midnightblue" d="M202.11,-63.59C212.74,-64.93 223.57,-66.29 234.26,-67.64"/>
<polygon fill="midnightblue" stroke="midnightblue" points="234.1,-71.14 244.46,-68.92 234.98,-64.2 234.1,-71.14"/>
</g>
<!-- Node4 -->
<g id="node4" class="node">
<title>Node4</title>
<g id="a_node4"><a xlink:href="classQuantConnect_1_1Data_1_1Common_1_1MarketHourAwareConsolidator.html#a4e6165cde35cafe70a47b03ac2c4d123" target="_top" xlink:title="Will forward the underlying consolidated bar to consumers on this object">
<polygon fill="white" stroke="black" points="238,-0.5 238,-41.5 445,-41.5 445,-0.5 238,-0.5"/>
<text text-anchor="start" x="246" y="-29.5" font-family="Helvetica,sans-Serif" font-size="10.00">QuantConnect.Data.Common.</text>
<text text-anchor="start" x="246" y="-18.5" font-family="Helvetica,sans-Serif" font-size="10.00">MarketHourAwareConsolidator.Forward</text>
<text text-anchor="middle" x="341.5" y="-7.5" font-family="Helvetica,sans-Serif" font-size="10.00">ConsolidatedBar</text>
</a>
</g>
</g>
<!-- Node1&#45;&gt;Node4 -->
<g id="edge3" class="edge">
<title>Node1&#45;&gt;Node4</title>
<path fill="none" stroke="midnightblue" d="M202.11,-38.41C210.63,-37.34 219.28,-36.25 227.89,-35.16"/>
<polygon fill="midnightblue" stroke="midnightblue" points="228.48,-38.62 237.97,-33.9 227.61,-31.67 228.48,-38.62"/>
</g>
<!-- Node3 -->
<g id="node3" class="node">
<title>Node3</title>
<g id="a_node3"><a xlink:href="classQuantConnect_1_1Util_1_1LeanData.html#a333e4bd6d612caca6773226d353cec49" target="_top" xlink:title="Helper method to return the start time and period of a bar the given point time should be part of">
<polygon fill="white" stroke="black" points="481,-66 481,-96 639,-96 639,-66 481,-66"/>
<text text-anchor="start" x="489" y="-84" font-family="Helvetica,sans-Serif" font-size="10.00">QuantConnect.Util.LeanData.</text>
<text text-anchor="middle" x="560" y="-73" font-family="Helvetica,sans-Serif" font-size="10.00">GetDailyCalendar</text>
</a>
</g>
</g>
<!-- Node2&#45;&gt;Node3 -->
<g id="edge2" class="edge">
<title>Node2&#45;&gt;Node3</title>
<path fill="none" stroke="midnightblue" d="M438.72,-81C449.42,-81 460.28,-81 470.87,-81"/>
<polygon fill="midnightblue" stroke="midnightblue" points="470.92,-84.5 480.92,-81 470.92,-77.5 470.92,-84.5"/>
</g>
</g>
</svg>
