<?xml version="1.0" encoding="UTF-8" standalone="no"?>
<!DOCTYPE svg PUBLIC "-//W3C//DTD SVG 1.1//EN"
 "http://www.w3.org/Graphics/SVG/1.1/DTD/svg11.dtd">
<!-- Generated by graphviz version 2.43.0 (0)
 -->
<!-- Title: QuantConnect.Lean.Engine.Setup.BrokerageSetupHandler.LoadExistingHoldingsAndOrders Pages: 1 -->
<svg width="1150pt" height="323pt"
 viewBox="0.00 0.00 1150.00 323.00" xmlns="http://www.w3.org/2000/svg" xmlns:xlink="http://www.w3.org/1999/xlink">
<g id="graph0" class="graph" transform="scale(1 1) rotate(0) translate(4 319)">
<title>QuantConnect.Lean.Engine.Setup.BrokerageSetupHandler.LoadExistingHoldingsAndOrders</title>
<polygon fill="white" stroke="transparent" points="-4,4 -4,-319 1146,-319 1146,4 -4,4"/>
<!-- Node1 -->
<g id="node1" class="node">
<title>Node1</title>
<g id="a_node1"><a xlink:title="Loads existing holdings and orders">
<polygon fill="#bfbfbf" stroke="black" points="0,-132 0,-173 188,-173 188,-132 0,-132"/>
<text text-anchor="start" x="8" y="-161" font-family="Helvetica,sans-Serif" font-size="10.00">QuantConnect.Lean.Engine.</text>
<text text-anchor="start" x="8" y="-150" font-family="Helvetica,sans-Serif" font-size="10.00">Setup.BrokerageSetupHandler.Load</text>
<text text-anchor="middle" x="94" y="-139" font-family="Helvetica,sans-Serif" font-size="10.00">ExistingHoldingsAndOrders</text>
</a>
</g>
</g>
<!-- Node2 -->
<g id="node2" class="node">
<title>Node2</title>
<g id="a_node2"><a xlink:href="classQuantConnect_1_1Logging_1_1Log.html#af0e7955911bc7664b37661b2a303a9e3" target="_top" xlink:title="Log error">
<polygon fill="white" stroke="black" points="234.5,-284.5 234.5,-314.5 384.5,-314.5 384.5,-284.5 234.5,-284.5"/>
<text text-anchor="start" x="242.5" y="-302.5" font-family="Helvetica,sans-Serif" font-size="10.00">QuantConnect.Logging.Log.</text>
<text text-anchor="middle" x="309.5" y="-291.5" font-family="Helvetica,sans-Serif" font-size="10.00">Error</text>
</a>
</g>
</g>
<!-- Node1&#45;&gt;Node2 -->
<g id="edge1" class="edge">
<title>Node1&#45;&gt;Node2</title>
<path fill="none" stroke="midnightblue" d="M111.07,-173.11C133.47,-200.47 176.71,-248.48 224,-275.5 227.07,-277.26 230.28,-278.89 233.58,-280.41"/>
<polygon fill="midnightblue" stroke="midnightblue" points="232.48,-283.75 243.06,-284.4 235.2,-277.3 232.48,-283.75"/>
</g>
<!-- Node4 -->
<g id="node4" class="node">
<title>Node4</title>
<g id="a_node4"><a xlink:href="interfaceQuantConnect_1_1Interfaces_1_1IBrokerage.html#af112e17ef4c5005c9ab2416d98b1192b" target="_top" xlink:title="Gets all holdings for the account">
<polygon fill="white" stroke="black" points="224,-235.5 224,-265.5 395,-265.5 395,-235.5 224,-235.5"/>
<text text-anchor="start" x="232" y="-253.5" font-family="Helvetica,sans-Serif" font-size="10.00">QuantConnect.Interfaces.</text>
<text text-anchor="middle" x="309.5" y="-242.5" font-family="Helvetica,sans-Serif" font-size="10.00">IBrokerage.GetAccountHoldings</text>
</a>
</g>
</g>
<!-- Node1&#45;&gt;Node4 -->
<g id="edge3" class="edge">
<title>Node1&#45;&gt;Node4</title>
<path fill="none" stroke="midnightblue" d="M125.96,-173.14C151.43,-189.4 188.9,-211.71 224,-226.5 228.71,-228.48 233.64,-230.36 238.64,-232.12"/>
<polygon fill="midnightblue" stroke="midnightblue" points="237.73,-235.51 248.32,-235.37 239.95,-228.87 237.73,-235.51"/>
</g>
<!-- Node5 -->
<g id="node5" class="node">
<title>Node5</title>
<g id="a_node5"><a xlink:href="interfaceQuantConnect_1_1Interfaces_1_1IAlgorithm.html#aef2054f9e0d8b47362428225b6eeb57f" target="_top" xlink:title="Get the last known price using the history provider. Useful for seeding securities with the correct p...">
<polygon fill="white" stroke="black" points="227,-186.5 227,-216.5 392,-216.5 392,-186.5 227,-186.5"/>
<text text-anchor="start" x="235" y="-204.5" font-family="Helvetica,sans-Serif" font-size="10.00">QuantConnect.Interfaces.</text>
<text text-anchor="middle" x="309.5" y="-193.5" font-family="Helvetica,sans-Serif" font-size="10.00">IAlgorithm.GetLastKnownPrice</text>
</a>
</g>
</g>
<!-- Node1&#45;&gt;Node5 -->
<g id="edge4" class="edge">
<title>Node1&#45;&gt;Node5</title>
<path fill="none" stroke="midnightblue" d="M184.62,-173.07C200.72,-176.76 217.35,-180.58 233,-184.17"/>
<polygon fill="midnightblue" stroke="midnightblue" points="232.6,-187.67 243.13,-186.5 234.17,-180.85 232.6,-187.67"/>
</g>
<!-- Node6 -->
<g id="node6" class="node">
<title>Node6</title>
<g id="a_node6"><a xlink:href="classQuantConnect_1_1Securities_1_1SecurityHolding.html#a577d8ef814d6d8a1958453357ac2903d" target="_top" xlink:title="Set the quantity of holdings and their average price after processing a portfolio fill.">
<polygon fill="white" stroke="black" points="232,-137.5 232,-167.5 387,-167.5 387,-137.5 232,-137.5"/>
<text text-anchor="start" x="240" y="-155.5" font-family="Helvetica,sans-Serif" font-size="10.00">QuantConnect.Securities.</text>
<text text-anchor="middle" x="309.5" y="-144.5" font-family="Helvetica,sans-Serif" font-size="10.00">SecurityHolding.SetHoldings</text>
</a>
</g>
</g>
<!-- Node1&#45;&gt;Node6 -->
<g id="edge5" class="edge">
<title>Node1&#45;&gt;Node6</title>
<path fill="none" stroke="midnightblue" d="M188.02,-152.5C199.21,-152.5 210.6,-152.5 221.69,-152.5"/>
<polygon fill="midnightblue" stroke="midnightblue" points="221.78,-156 231.78,-152.5 221.78,-149 221.78,-156"/>
</g>
<!-- Node7 -->
<g id="node7" class="node">
<title>Node7</title>
<g id="a_node7"><a xlink:href="classQuantConnect_1_1Symbol.html#a59158f74116be3dad0ea0f3f3f134416" target="_top" xlink:title="Initializes a new instance of the Symbol class">
<polygon fill="white" stroke="black" points="227,-99 227,-118 392,-118 392,-99 227,-99"/>
<text text-anchor="middle" x="309.5" y="-106" font-family="Helvetica,sans-Serif" font-size="10.00">QuantConnect.Symbol.Symbol</text>
</a>
</g>
</g>
<!-- Node1&#45;&gt;Node7 -->
<g id="edge6" class="edge">
<title>Node1&#45;&gt;Node7</title>
<path fill="none" stroke="midnightblue" d="M188.02,-133.33C209.94,-128.81 232.63,-124.14 252.34,-120.07"/>
<polygon fill="midnightblue" stroke="midnightblue" points="253.26,-123.46 262.35,-118.01 251.85,-116.6 253.26,-123.46"/>
</g>
<!-- Node13 -->
<g id="node13" class="node">
<title>Node13</title>
<g id="a_node13"><a xlink:href="interfaceQuantConnect_1_1Interfaces_1_1IAlgorithm.html#a02804905423f5ada9758dbb92f4e1f10" target="_top" xlink:title="Converts the string &#39;ticker&#39; symbol into a full Symbol object This requires that the string &#39;ticker&#39; ...">
<polygon fill="white" stroke="black" points="239.5,-49.5 239.5,-79.5 379.5,-79.5 379.5,-49.5 239.5,-49.5"/>
<text text-anchor="start" x="247.5" y="-67.5" font-family="Helvetica,sans-Serif" font-size="10.00">QuantConnect.Interfaces.</text>
<text text-anchor="middle" x="309.5" y="-56.5" font-family="Helvetica,sans-Serif" font-size="10.00">IAlgorithm.Symbol</text>
</a>
</g>
</g>
<!-- Node1&#45;&gt;Node13 -->
<g id="edge12" class="edge">
<title>Node1&#45;&gt;Node13</title>
<path fill="none" stroke="midnightblue" d="M132.92,-131.9C158.23,-118.68 192.53,-101.74 224,-89.5 229.99,-87.17 236.29,-84.93 242.63,-82.82"/>
<polygon fill="midnightblue" stroke="midnightblue" points="244.16,-86 252.6,-79.6 242.01,-79.34 244.16,-86"/>
</g>
<!-- Node14 -->
<g id="node14" class="node">
<title>Node14</title>
<g id="a_node14"><a xlink:href="classQuantConnect_1_1Logging_1_1Log.html#a4e55477fbc790846b74550a57198cea9" target="_top" xlink:title="Log trace">
<polygon fill="white" stroke="black" points="234.5,-0.5 234.5,-30.5 384.5,-30.5 384.5,-0.5 234.5,-0.5"/>
<text text-anchor="start" x="242.5" y="-18.5" font-family="Helvetica,sans-Serif" font-size="10.00">QuantConnect.Logging.Log.</text>
<text text-anchor="middle" x="309.5" y="-7.5" font-family="Helvetica,sans-Serif" font-size="10.00">Trace</text>
</a>
</g>
</g>
<!-- Node1&#45;&gt;Node14 -->
<g id="edge13" class="edge">
<title>Node1&#45;&gt;Node14</title>
<path fill="none" stroke="midnightblue" d="M113.51,-131.72C136.91,-106.66 179.52,-64.87 224,-40.5 228.14,-38.23 232.51,-36.14 237,-34.23"/>
<polygon fill="midnightblue" stroke="midnightblue" points="238.32,-37.47 246.33,-30.54 235.75,-30.96 238.32,-37.47"/>
</g>
<!-- Node3 -->
<g id="node3" class="node">
<title>Node3</title>
<g id="a_node3"><a xlink:href="interfaceQuantConnect_1_1Logging_1_1ILogHandler.html#a35373a0c5d76031fa5ccf5dc39e5c25d" target="_top" xlink:title="Write error message to log">
<polygon fill="white" stroke="black" points="441,-284.5 441,-314.5 591,-314.5 591,-284.5 441,-284.5"/>
<text text-anchor="start" x="449" y="-302.5" font-family="Helvetica,sans-Serif" font-size="10.00">QuantConnect.Logging.ILog</text>
<text text-anchor="middle" x="516" y="-291.5" font-family="Helvetica,sans-Serif" font-size="10.00">Handler.Error</text>
</a>
</g>
</g>
<!-- Node2&#45;&gt;Node3 -->
<g id="edge2" class="edge">
<title>Node2&#45;&gt;Node3</title>
<path fill="none" stroke="midnightblue" d="M384.62,-299.5C399.48,-299.5 415.2,-299.5 430.38,-299.5"/>
<polygon fill="midnightblue" stroke="midnightblue" points="430.79,-303 440.79,-299.5 430.79,-296 430.79,-303"/>
</g>
<!-- Node8 -->
<g id="node8" class="node">
<title>Node8</title>
<g id="a_node8"><a xlink:href="classQuantConnect_1_1Symbol.html#a59b0795fa21f46c306deb5576fa03bb9" target="_top" xlink:title="Centralized helper method to resolve alias for a symbol">
<polygon fill="white" stroke="black" points="431,-99 431,-118 601,-118 601,-99 431,-99"/>
<text text-anchor="middle" x="516" y="-106" font-family="Helvetica,sans-Serif" font-size="10.00">QuantConnect.Symbol.GetAlias</text>
</a>
</g>
</g>
<!-- Node7&#45;&gt;Node8 -->
<g id="edge7" class="edge">
<title>Node7&#45;&gt;Node8</title>
<path fill="none" stroke="midnightblue" d="M392.21,-108.5C401.52,-108.5 411.07,-108.5 420.53,-108.5"/>
<polygon fill="midnightblue" stroke="midnightblue" points="420.75,-112 430.75,-108.5 420.75,-105 420.75,-112"/>
</g>
<!-- Node9 -->
<g id="node9" class="node">
<title>Node9</title>
<g id="a_node9"><a xlink:href="classQuantConnect_1_1SymbolRepresentation.html#ad43ac907f6c19083821f58f21c6de017" target="_top" xlink:title="Returns future symbol ticker from underlying and expiration date. Function can generate tickers of tw...">
<polygon fill="white" stroke="black" points="637,-119.5 637,-149.5 840,-149.5 840,-119.5 637,-119.5"/>
<text text-anchor="start" x="645" y="-137.5" font-family="Helvetica,sans-Serif" font-size="10.00">QuantConnect.SymbolRepresentation.</text>
<text text-anchor="middle" x="738.5" y="-126.5" font-family="Helvetica,sans-Serif" font-size="10.00">GenerateFutureTicker</text>
</a>
</g>
</g>
<!-- Node8&#45;&gt;Node9 -->
<g id="edge8" class="edge">
<title>Node8&#45;&gt;Node9</title>
<path fill="none" stroke="midnightblue" d="M597.85,-118.03C607.25,-119.14 616.95,-120.29 626.66,-121.43"/>
<polygon fill="midnightblue" stroke="midnightblue" points="626.43,-124.93 636.77,-122.62 627.25,-117.98 626.43,-124.93"/>
</g>
<!-- Node11 -->
<g id="node11" class="node">
<title>Node11</title>
<g id="a_node11"><a xlink:href="classQuantConnect_1_1SymbolRepresentation.html#ab133044f5cf8c16e700190a2202b215e" target="_top" xlink:title="Returns option symbol ticker in accordance with OSI symbology More information can be found at http:/...">
<polygon fill="white" stroke="black" points="637,-67.5 637,-97.5 840,-97.5 840,-67.5 637,-67.5"/>
<text text-anchor="start" x="645" y="-85.5" font-family="Helvetica,sans-Serif" font-size="10.00">QuantConnect.SymbolRepresentation.</text>
<text text-anchor="middle" x="738.5" y="-74.5" font-family="Helvetica,sans-Serif" font-size="10.00">GenerateOptionTickerOSI</text>
</a>
</g>
</g>
<!-- Node8&#45;&gt;Node11 -->
<g id="edge10" class="edge">
<title>Node8&#45;&gt;Node11</title>
<path fill="none" stroke="midnightblue" d="M597.85,-98.97C607.25,-97.86 616.95,-96.71 626.66,-95.57"/>
<polygon fill="midnightblue" stroke="midnightblue" points="627.25,-99.02 636.77,-94.38 626.43,-92.07 627.25,-99.02"/>
</g>
<!-- Node10 -->
<g id="node10" class="node">
<title>Node10</title>
<g id="a_node10"><a xlink:href="classQuantConnect_1_1Securities_1_1Future_1_1FuturesExpiryUtilityFunctions.html#a4ccb1e2f2fe40ff09785a74a02f26df1" target="_top" xlink:title="Gets the number of months between the contract month and the expiry date.">
<polygon fill="white" stroke="black" points="876,-117 876,-158 1142,-158 1142,-117 876,-117"/>
<text text-anchor="start" x="884" y="-146" font-family="Helvetica,sans-Serif" font-size="10.00">QuantConnect.Securities.</text>
<text text-anchor="start" x="884" y="-135" font-family="Helvetica,sans-Serif" font-size="10.00">Future.FuturesExpiryUtilityFunctions.</text>
<text text-anchor="middle" x="1009" y="-124" font-family="Helvetica,sans-Serif" font-size="10.00">GetDeltaBetweenContractMonthAndContractExpiry</text>
</a>
</g>
</g>
<!-- Node9&#45;&gt;Node10 -->
<g id="edge9" class="edge">
<title>Node9&#45;&gt;Node10</title>
<path fill="none" stroke="midnightblue" d="M840.24,-135.63C848.59,-135.72 857.11,-135.81 865.68,-135.91"/>
<polygon fill="midnightblue" stroke="midnightblue" points="865.72,-139.41 875.76,-136.02 865.8,-132.41 865.72,-139.41"/>
</g>
<!-- Node12 -->
<g id="node12" class="node">
<title>Node12</title>
<g id="a_node12"><a xlink:href="classQuantConnect_1_1Messages_1_1SymbolRepresentation.html#a2c514157d8055cfa271ea3a7ca1ccde7" target="_top" xlink:title="Returns a string message saying an unexpected security type was received by the given method name">
<polygon fill="white" stroke="black" points="913,-57 913,-98 1105,-98 1105,-57 913,-57"/>
<text text-anchor="start" x="921" y="-86" font-family="Helvetica,sans-Serif" font-size="10.00">QuantConnect.Messages.Symbol</text>
<text text-anchor="start" x="921" y="-75" font-family="Helvetica,sans-Serif" font-size="10.00">Representation.UnexpectedSecurity</text>
<text text-anchor="middle" x="1009" y="-64" font-family="Helvetica,sans-Serif" font-size="10.00">TypeForMethod</text>
</a>
</g>
</g>
<!-- Node11&#45;&gt;Node12 -->
<g id="edge11" class="edge">
<title>Node11&#45;&gt;Node12</title>
<path fill="none" stroke="midnightblue" d="M840.24,-80.62C860.7,-80.24 882.27,-79.84 902.88,-79.46"/>
<polygon fill="midnightblue" stroke="midnightblue" points="902.98,-82.96 912.91,-79.27 902.85,-75.96 902.98,-82.96"/>
</g>
<!-- Node15 -->
<g id="node15" class="node">
<title>Node15</title>
<g id="a_node15"><a xlink:href="interfaceQuantConnect_1_1Logging_1_1ILogHandler.html#a3fb71a33ac66129240b63f12b6fcda3b" target="_top" xlink:title="Write debug message to log">
<polygon fill="white" stroke="black" points="441,-0.5 441,-30.5 591,-30.5 591,-0.5 441,-0.5"/>
<text text-anchor="start" x="449" y="-18.5" font-family="Helvetica,sans-Serif" font-size="10.00">QuantConnect.Logging.ILog</text>
<text text-anchor="middle" x="516" y="-7.5" font-family="Helvetica,sans-Serif" font-size="10.00">Handler.Trace</text>
</a>
</g>
</g>
<!-- Node14&#45;&gt;Node15 -->
<g id="edge14" class="edge">
<title>Node14&#45;&gt;Node15</title>
<path fill="none" stroke="midnightblue" d="M384.62,-15.5C399.48,-15.5 415.2,-15.5 430.38,-15.5"/>
<polygon fill="midnightblue" stroke="midnightblue" points="430.79,-19 440.79,-15.5 430.79,-12 430.79,-19"/>
</g>
</g>
</svg>
