<?xml version="1.0" encoding="UTF-8" standalone="no"?>
<!DOCTYPE svg PUBLIC "-//W3C//DTD SVG 1.1//EN"
 "http://www.w3.org/Graphics/SVG/1.1/DTD/svg11.dtd">
<!-- Generated by graphviz version 2.43.0 (0)
 -->
<!-- Title: QuantConnect.Brokerages.TDAmeritradeBrokerageModel.CanSubmitOrder Pages: 1 -->
<svg width="691pt" height="149pt"
 viewBox="0.00 0.00 691.00 148.50" xmlns="http://www.w3.org/2000/svg" xmlns:xlink="http://www.w3.org/1999/xlink">
<g id="graph0" class="graph" transform="scale(1 1) rotate(0) translate(4 144.5)">
<title>QuantConnect.Brokerages.TDAmeritradeBrokerageModel.CanSubmitOrder</title>
<polygon fill="white" stroke="transparent" points="-4,4 -4,-144.5 687,-144.5 687,4 -4,4"/>
<!-- Node1 -->
<g id="node1" class="node">
<title>Node1</title>
<g id="a_node1"><a xlink:title="Returns true if the brokerage could accept this order. This takes into account order type,...">
<polygon fill="#bfbfbf" stroke="black" points="0,-44 0,-85 186,-85 186,-44 0,-44"/>
<text text-anchor="start" x="8" y="-73" font-family="Helvetica,sans-Serif" font-size="10.00">QuantConnect.Brokerages.</text>
<text text-anchor="start" x="8" y="-62" font-family="Helvetica,sans-Serif" font-size="10.00">TDAmeritradeBrokerageModel.Can</text>
<text text-anchor="middle" x="93" y="-51" font-family="Helvetica,sans-Serif" font-size="10.00">SubmitOrder</text>
</a>
</g>
</g>
<!-- Node2 -->
<g id="node2" class="node">
<title>Node2</title>
<g id="a_node2"><a xlink:href="classQuantConnect_1_1Brokerages_1_1DefaultBrokerageModel.html#aab045cb269fc0ddda72e6c05c280c2d3" target="_top" xlink:title="Checks if the order quantity is valid, it means, the order size is bigger than the minimum size allow...">
<polygon fill="white" stroke="black" points="250.5,-99 250.5,-140 417.5,-140 417.5,-99 250.5,-99"/>
<text text-anchor="start" x="258.5" y="-128" font-family="Helvetica,sans-Serif" font-size="10.00">QuantConnect.Brokerages.</text>
<text text-anchor="start" x="258.5" y="-117" font-family="Helvetica,sans-Serif" font-size="10.00">DefaultBrokerageModel.IsValid</text>
<text text-anchor="middle" x="334" y="-106" font-family="Helvetica,sans-Serif" font-size="10.00">OrderSize</text>
</a>
</g>
</g>
<!-- Node1&#45;&gt;Node2 -->
<g id="edge1" class="edge">
<title>Node1&#45;&gt;Node2</title>
<path fill="none" stroke="midnightblue" d="M183.33,-85.06C202.08,-89.37 221.88,-93.93 240.73,-98.27"/>
<polygon fill="midnightblue" stroke="midnightblue" points="239.95,-101.68 250.48,-100.51 241.52,-94.86 239.95,-101.68"/>
</g>
<!-- Node4 -->
<g id="node4" class="node">
<title>Node4</title>
<g id="a_node4"><a xlink:href="classQuantConnect_1_1Messages_1_1DefaultBrokerageModel.html#a772b06f7270c604cc7386874e827dc84" target="_top" xlink:title="Returns a string message saying the type of the given order is unsupported by the given brokerage mod...">
<polygon fill="white" stroke="black" points="228.5,-49.5 228.5,-79.5 439.5,-79.5 439.5,-49.5 228.5,-49.5"/>
<text text-anchor="start" x="236.5" y="-67.5" font-family="Helvetica,sans-Serif" font-size="10.00">QuantConnect.Messages.Default</text>
<text text-anchor="middle" x="334" y="-56.5" font-family="Helvetica,sans-Serif" font-size="10.00">BrokerageModel.UnsupportedOrderType</text>
</a>
</g>
</g>
<!-- Node1&#45;&gt;Node4 -->
<g id="edge3" class="edge">
<title>Node1&#45;&gt;Node4</title>
<path fill="none" stroke="midnightblue" d="M186.06,-64.5C196.53,-64.5 207.29,-64.5 218,-64.5"/>
<polygon fill="midnightblue" stroke="midnightblue" points="218.24,-68 228.24,-64.5 218.24,-61 218.24,-68"/>
</g>
<!-- Node5 -->
<g id="node5" class="node">
<title>Node5</title>
<g id="a_node5"><a xlink:href="classQuantConnect_1_1Messages_1_1DefaultBrokerageModel.html#a1b9fa7f8e1c87b388c646fcef6cdb389" target="_top" xlink:title="Retunrns a string message saying the type of the given security is not supported by the given brokera...">
<polygon fill="white" stroke="black" points="222,-0.5 222,-30.5 446,-30.5 446,-0.5 222,-0.5"/>
<text text-anchor="start" x="230" y="-18.5" font-family="Helvetica,sans-Serif" font-size="10.00">QuantConnect.Messages.Default</text>
<text text-anchor="middle" x="334" y="-7.5" font-family="Helvetica,sans-Serif" font-size="10.00">BrokerageModel.UnsupportedSecurityType</text>
</a>
</g>
</g>
<!-- Node1&#45;&gt;Node5 -->
<g id="edge4" class="edge">
<title>Node1&#45;&gt;Node5</title>
<path fill="none" stroke="midnightblue" d="M186.06,-45.63C206.97,-41.34 229.06,-36.81 249.58,-32.6"/>
<polygon fill="midnightblue" stroke="midnightblue" points="250.43,-36 259.52,-30.57 249.02,-29.14 250.43,-36"/>
</g>
<!-- Node3 -->
<g id="node3" class="node">
<title>Node3</title>
<g id="a_node3"><a xlink:href="classQuantConnect_1_1Messages_1_1DefaultBrokerageModel.html#ad5fe70a9d5974d5c9fb72a7cf4b0cdb0" target="_top" xlink:title="Returns a string message saying the quantity given was invalid for the given security">
<polygon fill="white" stroke="black" points="482,-104.5 482,-134.5 683,-134.5 683,-104.5 482,-104.5"/>
<text text-anchor="start" x="490" y="-122.5" font-family="Helvetica,sans-Serif" font-size="10.00">QuantConnect.Messages.Default</text>
<text text-anchor="middle" x="582.5" y="-111.5" font-family="Helvetica,sans-Serif" font-size="10.00">BrokerageModel.InvalidOrderQuantity</text>
</a>
</g>
</g>
<!-- Node2&#45;&gt;Node3 -->
<g id="edge2" class="edge">
<title>Node2&#45;&gt;Node3</title>
<path fill="none" stroke="midnightblue" d="M417.77,-119.5C435.11,-119.5 453.67,-119.5 471.82,-119.5"/>
<polygon fill="midnightblue" stroke="midnightblue" points="471.85,-123 481.85,-119.5 471.85,-116 471.85,-123"/>
</g>
</g>
</svg>
