<?xml version="1.0" encoding="UTF-8" standalone="no"?>
<!DOCTYPE svg PUBLIC "-//W3C//DTD SVG 1.1//EN"
 "http://www.w3.org/Graphics/SVG/1.1/DTD/svg11.dtd">
<!-- Generated by graphviz version 2.43.0 (0)
 -->
<!-- Title: QuantConnect.Algorithm.Framework.Alphas.InsightScoreFunctionPythonWrapper.Score Pages: 1 -->
<svg width="468pt" height="50pt"
 viewBox="0.00 0.00 468.00 50.00" xmlns="http://www.w3.org/2000/svg" xmlns:xlink="http://www.w3.org/1999/xlink">
<g id="graph0" class="graph" transform="scale(1 1) rotate(0) translate(4 46)">
<title>QuantConnect.Algorithm.Framework.Alphas.InsightScoreFunctionPythonWrapper.Score</title>
<polygon fill="white" stroke="transparent" points="-4,4 -4,-46 464,-46 464,4 -4,4"/>
<!-- Node1 -->
<g id="node1" class="node">
<title>Node1</title>
<g id="a_node1"><a xlink:title="Method to evaluate and score insights for each time step">
<polygon fill="#bfbfbf" stroke="black" points="0,-6 0,-36 258,-36 258,-6 0,-6"/>
<text text-anchor="start" x="8" y="-24" font-family="Helvetica,sans-Serif" font-size="10.00">QuantConnect.Algorithm.Framework.</text>
<text text-anchor="middle" x="129" y="-13" font-family="Helvetica,sans-Serif" font-size="10.00">Alphas.InsightScoreFunctionPythonWrapper.Score</text>
</a>
</g>
</g>
<!-- Node2 -->
<g id="node2" class="node">
<title>Node2</title>
<g id="a_node2"><a xlink:href="classQuantConnect_1_1Python_1_1BasePythonWrapper.html#a05fa6adc417fbc2930f9bb95c91af17a" target="_top" xlink:title="Invokes the specified method with the specified arguments">
<polygon fill="white" stroke="black" points="294,-0.5 294,-41.5 460,-41.5 460,-0.5 294,-0.5"/>
<text text-anchor="start" x="302" y="-29.5" font-family="Helvetica,sans-Serif" font-size="10.00">QuantConnect.Python.Base</text>
<text text-anchor="start" x="302" y="-18.5" font-family="Helvetica,sans-Serif" font-size="10.00">PythonWrapper&lt; IInsightScore</text>
<text text-anchor="middle" x="377" y="-7.5" font-family="Helvetica,sans-Serif" font-size="10.00">Function &gt;::InvokeMethod</text>
</a>
</g>
</g>
<!-- Node1&#45;&gt;Node2 -->
<g id="edge1" class="edge">
<title>Node1&#45;&gt;Node2</title>
<path fill="none" stroke="midnightblue" d="M258.04,-21C266.68,-21 275.27,-21 283.67,-21"/>
<polygon fill="midnightblue" stroke="midnightblue" points="283.8,-24.5 293.8,-21 283.8,-17.5 283.8,-24.5"/>
</g>
</g>
</svg>
