<?xml version="1.0" encoding="UTF-8" standalone="no"?>
<!DOCTYPE svg PUBLIC "-//W3C//DTD SVG 1.1//EN"
 "http://www.w3.org/Graphics/SVG/1.1/DTD/svg11.dtd">
<!-- Generated by graphviz version 2.43.0 (0)
 -->
<!-- Title: QuantConnect.Data.UniverseSelection.Schedule.Clone Pages: 1 -->
<svg width="396pt" height="50pt"
 viewBox="0.00 0.00 396.00 50.00" xmlns="http://www.w3.org/2000/svg" xmlns:xlink="http://www.w3.org/1999/xlink">
<g id="graph0" class="graph" transform="scale(1 1) rotate(0) translate(4 46)">
<title>QuantConnect.Data.UniverseSelection.Schedule.Clone</title>
<polygon fill="white" stroke="transparent" points="-4,4 -4,-46 392,-46 392,4 -4,4"/>
<!-- Node1 -->
<g id="node1" class="node">
<title>Node1</title>
<g id="a_node1"><a xlink:title="Creates a new instance holding the same schedule if any">
<polygon fill="#bfbfbf" stroke="black" points="230,-6 230,-36 388,-36 388,-6 230,-6"/>
<text text-anchor="start" x="238" y="-24" font-family="Helvetica,sans-Serif" font-size="10.00">QuantConnect.Data.Universe</text>
<text text-anchor="middle" x="309" y="-13" font-family="Helvetica,sans-Serif" font-size="10.00">Selection.Schedule.Clone</text>
</a>
</g>
</g>
<!-- Node2 -->
<g id="node2" class="node">
<title>Node2</title>
<g id="a_node2"><a xlink:href="classQuantConnect_1_1Data_1_1UniverseSelection_1_1UniverseSettings.html#ac3df66142c7949af1d069384140932c6" target="_top" xlink:title="Initializes a new instance of the UniverseSettings class">
<polygon fill="white" stroke="black" points="0,-0.5 0,-41.5 194,-41.5 194,-0.5 0,-0.5"/>
<text text-anchor="start" x="8" y="-29.5" font-family="Helvetica,sans-Serif" font-size="10.00">QuantConnect.Data.Universe</text>
<text text-anchor="start" x="8" y="-18.5" font-family="Helvetica,sans-Serif" font-size="10.00">Selection.UniverseSettings.Universe</text>
<text text-anchor="middle" x="97" y="-7.5" font-family="Helvetica,sans-Serif" font-size="10.00">Settings</text>
</a>
</g>
</g>
<!-- Node1&#45;&gt;Node2 -->
<g id="edge1" class="edge">
<title>Node1&#45;&gt;Node2</title>
<path fill="none" stroke="midnightblue" d="M219.59,-21C211.14,-21 202.55,-21 194.03,-21"/>
<polygon fill="midnightblue" stroke="midnightblue" points="219.8,-24.5 229.8,-21 219.8,-17.5 219.8,-24.5"/>
</g>
</g>
</svg>
