<?xml version="1.0" encoding="UTF-8" standalone="no"?>
<!DOCTYPE svg PUBLIC "-//W3C//DTD SVG 1.1//EN"
 "http://www.w3.org/Graphics/SVG/1.1/DTD/svg11.dtd">
<!-- Generated by graphviz version 2.43.0 (0)
 -->
<!-- Title: QuantConnect.Lean.Engine.RealTime.LiveTradingRealTimeHandler.UpdateSymbolProperties Pages: 1 -->
<svg width="879pt" height="100pt"
 viewBox="0.00 0.00 879.00 99.50" xmlns="http://www.w3.org/2000/svg" xmlns:xlink="http://www.w3.org/1999/xlink">
<g id="graph0" class="graph" transform="scale(1 1) rotate(0) translate(4 95.5)">
<title>QuantConnect.Lean.Engine.RealTime.LiveTradingRealTimeHandler.UpdateSymbolProperties</title>
<polygon fill="white" stroke="transparent" points="-4,4 -4,-95.5 875,-95.5 875,4 -4,4"/>
<!-- Node1 -->
<g id="node1" class="node">
<title>Node1</title>
<g id="a_node1"><a xlink:title="Updates the symbol properties for the specified security.">
<polygon fill="#bfbfbf" stroke="black" points="0,-22 0,-63 209,-63 209,-22 0,-22"/>
<text text-anchor="start" x="8" y="-51" font-family="Helvetica,sans-Serif" font-size="10.00">QuantConnect.Lean.Engine.</text>
<text text-anchor="start" x="8" y="-40" font-family="Helvetica,sans-Serif" font-size="10.00">RealTime.LiveTradingRealTimeHandler.</text>
<text text-anchor="middle" x="104.5" y="-29" font-family="Helvetica,sans-Serif" font-size="10.00">UpdateSymbolProperties</text>
</a>
</g>
</g>
<!-- Node2 -->
<g id="node2" class="node">
<title>Node2</title>
<g id="a_node2"><a xlink:href="classQuantConnect_1_1Securities_1_1SymbolPropertiesDatabase.html#a3ea48557a7a885c2c53529f8c4b75598" target="_top" xlink:title="Gets the symbol properties for the specified market/symbol/security&#45;type">
<polygon fill="white" stroke="black" points="245,-22 245,-63 415,-63 415,-22 245,-22"/>
<text text-anchor="start" x="253" y="-51" font-family="Helvetica,sans-Serif" font-size="10.00">QuantConnect.Securities.</text>
<text text-anchor="start" x="253" y="-40" font-family="Helvetica,sans-Serif" font-size="10.00">SymbolPropertiesDatabase.Get</text>
<text text-anchor="middle" x="330" y="-29" font-family="Helvetica,sans-Serif" font-size="10.00">SymbolProperties</text>
</a>
</g>
</g>
<!-- Node1&#45;&gt;Node2 -->
<g id="edge1" class="edge">
<title>Node1&#45;&gt;Node2</title>
<path fill="none" stroke="midnightblue" d="M209.07,-42.5C217.6,-42.5 226.18,-42.5 234.63,-42.5"/>
<polygon fill="midnightblue" stroke="midnightblue" points="234.86,-46 244.86,-42.5 234.86,-39 234.86,-46"/>
</g>
<!-- Node3 -->
<g id="node3" class="node">
<title>Node3</title>
<g id="a_node3"><a xlink:href="classQuantConnect_1_1Securities_1_1MarketHoursDatabase.html#aa717adb9bb04be931913608ffd5a2733" target="_top" xlink:title="Gets the correct string symbol to use as a database key">
<polygon fill="white" stroke="black" points="451,-50 451,-91 643,-91 643,-50 451,-50"/>
<text text-anchor="start" x="459" y="-79" font-family="Helvetica,sans-Serif" font-size="10.00">QuantConnect.Securities.</text>
<text text-anchor="start" x="459" y="-68" font-family="Helvetica,sans-Serif" font-size="10.00">MarketHoursDatabase.GetDatabase</text>
<text text-anchor="middle" x="547" y="-57" font-family="Helvetica,sans-Serif" font-size="10.00">SymbolKey</text>
</a>
</g>
</g>
<!-- Node2&#45;&gt;Node3 -->
<g id="edge2" class="edge">
<title>Node2&#45;&gt;Node3</title>
<path fill="none" stroke="midnightblue" d="M415.05,-53.45C423.51,-54.55 432.18,-55.68 440.83,-56.8"/>
<polygon fill="midnightblue" stroke="midnightblue" points="440.59,-60.3 450.96,-58.12 441.5,-53.36 440.59,-60.3"/>
</g>
<!-- Node4 -->
<g id="node4" class="node">
<title>Node4</title>
<g id="a_node4"><a xlink:href="classQuantConnect_1_1Securities_1_1SymbolProperties.html#ad148190d1dfce7109d38d3107b7b8fbf" target="_top" xlink:title="Gets a default instance of the SymbolProperties class for the specified quoteCurrency">
<polygon fill="white" stroke="black" points="467.5,-0.5 467.5,-30.5 626.5,-30.5 626.5,-0.5 467.5,-0.5"/>
<text text-anchor="start" x="475.5" y="-18.5" font-family="Helvetica,sans-Serif" font-size="10.00">QuantConnect.Securities.</text>
<text text-anchor="middle" x="547" y="-7.5" font-family="Helvetica,sans-Serif" font-size="10.00">SymbolProperties.GetDefault</text>
</a>
</g>
</g>
<!-- Node2&#45;&gt;Node4 -->
<g id="edge3" class="edge">
<title>Node2&#45;&gt;Node4</title>
<path fill="none" stroke="midnightblue" d="M415.05,-31.95C428.89,-30.21 443.27,-28.4 457.21,-26.65"/>
<polygon fill="midnightblue" stroke="midnightblue" points="457.79,-30.1 467.28,-25.39 456.92,-23.16 457.79,-30.1"/>
</g>
<!-- Node5 -->
<g id="node5" class="node">
<title>Node5</title>
<g id="a_node5"><a xlink:href="classQuantConnect_1_1Securities_1_1SymbolProperties.html#a0f421617bcddd5b08a830689b1e2dcfa" target="_top" xlink:title="Creates an instance of the SymbolProperties class">
<polygon fill="white" stroke="black" points="679,-0.5 679,-30.5 871,-30.5 871,-0.5 679,-0.5"/>
<text text-anchor="start" x="687" y="-18.5" font-family="Helvetica,sans-Serif" font-size="10.00">QuantConnect.Securities.</text>
<text text-anchor="middle" x="775" y="-7.5" font-family="Helvetica,sans-Serif" font-size="10.00">SymbolProperties.SymbolProperties</text>
</a>
</g>
</g>
<!-- Node4&#45;&gt;Node5 -->
<g id="edge4" class="edge">
<title>Node4&#45;&gt;Node5</title>
<path fill="none" stroke="midnightblue" d="M626.73,-15.5C640.26,-15.5 654.51,-15.5 668.61,-15.5"/>
<polygon fill="midnightblue" stroke="midnightblue" points="668.83,-19 678.83,-15.5 668.83,-12 668.83,-19"/>
</g>
</g>
</svg>
