<?xml version="1.0" encoding="UTF-8" standalone="no"?>
<!DOCTYPE svg PUBLIC "-//W3C//DTD SVG 1.1//EN"
 "http://www.w3.org/Graphics/SVG/1.1/DTD/svg11.dtd">
<!-- Generated by graphviz version 2.43.0 (0)
 -->
<!-- Title: QuantConnect.Brokerages.DefaultBrokerageMessageHandler.HandleMessage Pages: 1 -->
<!--zoomable 269 -->
<svg id="main" version="1.1" xmlns="http://www.w3.org/2000/svg" xmlns:xlink="http://www.w3.org/1999/xlink" xml:space="preserve" onload="init(evt)">
<style type="text/css"><![CDATA[
.edge:hover path { stroke: red; }
.edge:hover polygon { stroke: red; fill: red; }
]]></style>
<script type="text/javascript"><![CDATA[
var edges = document.getElementsByTagName('g');
if (edges && edges.length) {
  for (var i=0;i<edges.length;i++) {
    if (edges[i].id.substr(0,4)=='edge') {
      edges[i].setAttribute('class','edge');
    }
  }
}
]]></script>
        <defs>
                <circle id="rim" cx="0" cy="0" r="7"/>
                <circle id="rim2" cx="0" cy="0" r="3.5"/>
                <g id="zoomPlus">
                        <use xlink:href="#rim" fill="#404040">
                                <set attributeName="fill" to="#808080" begin="zoomplus.mouseover" end="zoomplus.mouseout"/>
                        </use>
                        <path d="M-4,0h8M0,-4v8" fill="none" stroke="white" stroke-width="1.5" pointer-events="none"/>
                </g>
                <g id="zoomMin">
                        <use xlink:href="#rim" fill="#404040">
                                <set attributeName="fill" to="#808080" begin="zoomminus.mouseover" end="zoomminus.mouseout"/>
                        </use>
                        <path d="M-4,0h8" fill="none" stroke="white" stroke-width="1.5" pointer-events="none"/>
                </g>
                <g id="dirArrow">
                        <path fill="none" stroke="white" stroke-width="1.5" d="M0,-3.0v7 M-2.5,-0.5L0,-3.0L2.5,-0.5"/>
                </g>
               <g id="resetDef">
                       <use xlink:href="#rim2" fill="#404040">
                               <set attributeName="fill" to="#808080" begin="reset.mouseover" end="reset.mouseout"/>
                       </use>
               </g>
        </defs>

<script type="text/javascript">
var viewWidth = 634;
var viewHeight = 269;
var sectionId = 'dynsection-1';
</script>
<script xlink:href="svgpan.js"/>
<svg id="graph" class="graph">
<g id="viewport">
<title>QuantConnect.Brokerages.DefaultBrokerageMessageHandler.HandleMessage</title>
<polygon fill="white" stroke="transparent" points="-4,4 -4,-265 630,-265 630,4 -4,4"/>
<!-- Node1 -->
<g id="node1" class="node">
<title>Node1</title>
<g id="a_node1"><a xlink:title="Handles the message">
<polygon fill="#bfbfbf" stroke="black" points="0,-110 0,-151 186,-151 186,-110 0,-110"/>
<text text-anchor="start" x="8" y="-139" font-family="Helvetica,sans-Serif" font-size="10.00">QuantConnect.Brokerages.</text>
<text text-anchor="start" x="8" y="-128" font-family="Helvetica,sans-Serif" font-size="10.00">DefaultBrokerageMessageHandler.</text>
<text text-anchor="middle" x="93" y="-117" font-family="Helvetica,sans-Serif" font-size="10.00">HandleMessage</text>
</a>
</g>
</g>
<!-- Node2 -->
<g id="node2" class="node">
<title>Node2</title>
<g id="a_node2"><a xlink:href="classQuantConnect_1_1Messages_1_1DefaultBrokerageMessageHandler.html#ad6a47337abf1bd9b4e77bdbafddb66be" target="_top" xlink:title="Returns a string message with basic information about the given message event">
<polygon fill="white" stroke="black" points="222,-230.5 222,-260.5 440,-260.5 440,-230.5 222,-230.5"/>
<text text-anchor="start" x="230" y="-248.5" font-family="Helvetica,sans-Serif" font-size="10.00">QuantConnect.Messages.Default</text>
<text text-anchor="middle" x="331" y="-237.5" font-family="Helvetica,sans-Serif" font-size="10.00">BrokerageMessageHandler.BrokerageInfo</text>
</a>
</g>
</g>
<!-- Node1&#45;&gt;Node2 -->
<g id="edge1" class="edge">
<title>Node1&#45;&gt;Node2</title>
<path fill="none" stroke="midnightblue" d="M117.3,-151.11C141.74,-171.66 182.07,-202.66 222,-220.5 227.65,-223.02 233.59,-225.31 239.64,-227.37"/>
<polygon fill="midnightblue" stroke="midnightblue" points="238.65,-230.73 249.24,-230.44 240.78,-224.06 238.65,-230.73"/>
</g>
<!-- Node3 -->
<g id="node3" class="node">
<title>Node3</title>
<g id="a_node3"><a xlink:href="classQuantConnect_1_1Messages_1_1DefaultBrokerageMessageHandler.html#abcdb54cd3927bdf2c39f74ba85c20535" target="_top" xlink:title="Returns a string message warning from the given message event">
<polygon fill="white" stroke="black" points="231,-170 231,-211 431,-211 431,-170 231,-170"/>
<text text-anchor="start" x="239" y="-199" font-family="Helvetica,sans-Serif" font-size="10.00">QuantConnect.Messages.Default</text>
<text text-anchor="start" x="239" y="-188" font-family="Helvetica,sans-Serif" font-size="10.00">BrokerageMessageHandler.Brokerage</text>
<text text-anchor="middle" x="331" y="-177" font-family="Helvetica,sans-Serif" font-size="10.00">Warning</text>
</a>
</g>
</g>
<!-- Node1&#45;&gt;Node3 -->
<g id="edge2" class="edge">
<title>Node1&#45;&gt;Node3</title>
<path fill="none" stroke="midnightblue" d="M174.89,-151.06C195.62,-156.34 218.06,-162.04 239.25,-167.43"/>
<polygon fill="midnightblue" stroke="midnightblue" points="238.66,-170.89 249.22,-169.96 240.39,-164.11 238.66,-170.89"/>
</g>
<!-- Node4 -->
<g id="node4" class="node">
<title>Node4</title>
<g id="a_node4"><a xlink:href="classQuantConnect_1_1Messages_1_1DefaultBrokerageMessageHandler.html#a582ec61a126e2848f569fc89de69754d" target="_top" xlink:title="Returns a string message saying the brokerage is disconnected when exchanges are open and that it&#39;s t...">
<polygon fill="white" stroke="black" points="223,-110 223,-151 439,-151 439,-110 223,-110"/>
<text text-anchor="start" x="231" y="-139" font-family="Helvetica,sans-Serif" font-size="10.00">QuantConnect.Messages.Default</text>
<text text-anchor="start" x="231" y="-128" font-family="Helvetica,sans-Serif" font-size="10.00">BrokerageMessageHandler.Disconnected</text>
<text text-anchor="middle" x="331" y="-117" font-family="Helvetica,sans-Serif" font-size="10.00">WhenExchangesAreOpen</text>
</a>
</g>
</g>
<!-- Node1&#45;&gt;Node4 -->
<g id="edge3" class="edge">
<title>Node1&#45;&gt;Node4</title>
<path fill="none" stroke="midnightblue" d="M186.26,-130.5C194.99,-130.5 203.93,-130.5 212.85,-130.5"/>
<polygon fill="midnightblue" stroke="midnightblue" points="212.92,-134 222.92,-130.5 212.92,-127 212.92,-134"/>
</g>
<!-- Node5 -->
<g id="node5" class="node">
<title>Node5</title>
<g id="a_node5"><a xlink:href="classQuantConnect_1_1Messages_1_1DefaultBrokerageMessageHandler.html#aa4bc9d32adde553e482884d4d3a36ba0" target="_top" xlink:title="Returns a string message with the time until the next market open">
<polygon fill="white" stroke="black" points="232,-50 232,-91 430,-91 430,-50 232,-50"/>
<text text-anchor="start" x="240" y="-79" font-family="Helvetica,sans-Serif" font-size="10.00">QuantConnect.Messages.Default</text>
<text text-anchor="start" x="240" y="-68" font-family="Helvetica,sans-Serif" font-size="10.00">BrokerageMessageHandler.TimeUntil</text>
<text text-anchor="middle" x="331" y="-57" font-family="Helvetica,sans-Serif" font-size="10.00">NextMarketOpen</text>
</a>
</g>
</g>
<!-- Node1&#45;&gt;Node5 -->
<g id="edge4" class="edge">
<title>Node1&#45;&gt;Node5</title>
<path fill="none" stroke="midnightblue" d="M174.89,-109.94C195.62,-104.66 218.06,-98.96 239.25,-93.57"/>
<polygon fill="midnightblue" stroke="midnightblue" points="240.39,-96.89 249.22,-91.04 238.66,-90.11 240.39,-96.89"/>
</g>
<!-- Node6 -->
<g id="node6" class="node">
<title>Node6</title>
<g id="a_node6"><a xlink:href="classQuantConnect_1_1Logging_1_1Log.html#a4e55477fbc790846b74550a57198cea9" target="_top" xlink:title="Log trace">
<polygon fill="white" stroke="black" points="256,-0.5 256,-30.5 406,-30.5 406,-0.5 256,-0.5"/>
<text text-anchor="start" x="264" y="-18.5" font-family="Helvetica,sans-Serif" font-size="10.00">QuantConnect.Logging.Log.</text>
<text text-anchor="middle" x="331" y="-7.5" font-family="Helvetica,sans-Serif" font-size="10.00">Trace</text>
</a>
</g>
</g>
<!-- Node1&#45;&gt;Node6 -->
<g id="edge5" class="edge">
<title>Node1&#45;&gt;Node6</title>
<path fill="none" stroke="midnightblue" d="M117.3,-109.89C141.74,-89.34 182.07,-58.34 222,-40.5 229.64,-37.09 237.8,-34.11 246.09,-31.52"/>
<polygon fill="midnightblue" stroke="midnightblue" points="247.23,-34.83 255.84,-28.66 245.26,-28.12 247.23,-34.83"/>
</g>
<!-- Node7 -->
<g id="node7" class="node">
<title>Node7</title>
<g id="a_node7"><a xlink:href="interfaceQuantConnect_1_1Logging_1_1ILogHandler.html#a3fb71a33ac66129240b63f12b6fcda3b" target="_top" xlink:title="Write debug message to log">
<polygon fill="white" stroke="black" points="476,-0.5 476,-30.5 626,-30.5 626,-0.5 476,-0.5"/>
<text text-anchor="start" x="484" y="-18.5" font-family="Helvetica,sans-Serif" font-size="10.00">QuantConnect.Logging.ILog</text>
<text text-anchor="middle" x="551" y="-7.5" font-family="Helvetica,sans-Serif" font-size="10.00">Handler.Trace</text>
</a>
</g>
</g>
<!-- Node6&#45;&gt;Node7 -->
<g id="edge6" class="edge">
<title>Node6&#45;&gt;Node7</title>
<path fill="none" stroke="midnightblue" d="M406.11,-15.5C425.24,-15.5 445.97,-15.5 465.59,-15.5"/>
<polygon fill="midnightblue" stroke="midnightblue" points="465.73,-19 475.73,-15.5 465.73,-12 465.73,-19"/>
</g>
</g>
</svg>
        <g id="navigator" transform="translate(0 0)" fill="#404254">
                <rect fill="#f2f5e9" fill-opacity="0.5" stroke="#606060" stroke-width=".5" x="0" y="0" width="60" height="60"/>
                <use id="zoomplus" xlink:href="#zoomPlus" x="17" y="9" onmousedown="handleZoom(evt,'in')"/>
                <use id="zoomminus" xlink:href="#zoomMin" x="42" y="9" onmousedown="handleZoom(evt,'out')"/>
                <use id="reset" xlink:href="#resetDef" x="30" y="36" onmousedown="handleReset()"/>
                <g id="arrowUp" xlink:href="#dirArrow" transform="translate(30 24)" onmousedown="handlePan(0,-1)">
                  <use xlink:href="#rim" fill="#404040">
                        <set attributeName="fill" to="#808080" begin="arrowUp.mouseover" end="arrowUp.mouseout"/>
                  </use>
                  <path fill="none" stroke="white" stroke-width="1.5" d="M0,-3.0v7 M-2.5,-0.5L0,-3.0L2.5,-0.5"/>
                </g>
                <g id="arrowRight" xlink:href="#dirArrow" transform="rotate(90) translate(36 -43)" onmousedown="handlePan(1,0)">
                  <use xlink:href="#rim" fill="#404040">
                        <set attributeName="fill" to="#808080" begin="arrowRight.mouseover" end="arrowRight.mouseout"/>
                  </use>
                  <path fill="none" stroke="white" stroke-width="1.5" d="M0,-3.0v7 M-2.5,-0.5L0,-3.0L2.5,-0.5"/>
                </g>
                <g id="arrowDown" xlink:href="#dirArrow" transform="rotate(180) translate(-30 -48)" onmousedown="handlePan(0,1)">
                  <use xlink:href="#rim" fill="#404040">
                        <set attributeName="fill" to="#808080" begin="arrowDown.mouseover" end="arrowDown.mouseout"/>
                  </use>
                  <path fill="none" stroke="white" stroke-width="1.5" d="M0,-3.0v7 M-2.5,-0.5L0,-3.0L2.5,-0.5"/>
                </g>
                <g id="arrowLeft" xlink:href="#dirArrow" transform="rotate(270) translate(-36 17)" onmousedown="handlePan(-1,0)">
                  <use xlink:href="#rim" fill="#404040">
                        <set attributeName="fill" to="#808080" begin="arrowLeft.mouseover" end="arrowLeft.mouseout"/>
                  </use>
                  <path fill="none" stroke="white" stroke-width="1.5" d="M0,-3.0v7 M-2.5,-0.5L0,-3.0L2.5,-0.5"/>
                </g>
        </g>
        <svg viewBox="0 0 15 15" width="100%" height="30px" preserveAspectRatio="xMaxYMin meet">
         <g id="arrow_out" transform="scale(0.3 0.3)">
          <a xlink:href="classQuantConnect_1_1Brokerages_1_1DefaultBrokerageMessageHandler_ad83d56fb469c9bd8947030a8fbe70922_cgraph_org.svg" target="_base">
           <rect id="button" ry="5" rx="5" y="6" x="6" height="38" width="38"
                fill="#f2f5e9" fill-opacity="0.5" stroke="#606060" stroke-width="1.0"/>
           <path id="arrow"
             d="M 11.500037,31.436501 C 11.940474,20.09759 22.043105,11.32322 32.158766,21.979434 L 37.068811,17.246167 C 37.068811,17.246167 37.088388,32 37.088388,32 L 22.160133,31.978069 C 22.160133,31.978069 26.997745,27.140456 26.997745,27.140456 C 18.528582,18.264221 13.291696,25.230495 11.500037,31.436501 z"
             style="fill:#404040;"/>
          </a>
         </g>
        </svg>
</svg>
