<?xml version="1.0" encoding="UTF-8" standalone="no"?>
<!DOCTYPE svg PUBLIC "-//W3C//DTD SVG 1.1//EN"
 "http://www.w3.org/Graphics/SVG/1.1/DTD/svg11.dtd">
<!-- Generated by graphviz version 2.43.0 (0)
 -->
<!-- Title: QuantConnect.Packets.AlgorithmNodePacket Pages: 1 -->
<!--zoomable 137 -->
<svg id="main" version="1.1" xmlns="http://www.w3.org/2000/svg" xmlns:xlink="http://www.w3.org/1999/xlink" xml:space="preserve" onload="init(evt)">
<style type="text/css"><![CDATA[
.edge:hover path { stroke: red; }
.edge:hover polygon { stroke: red; fill: red; }
]]></style>
<script type="text/javascript"><![CDATA[
var edges = document.getElementsByTagName('g');
if (edges && edges.length) {
  for (var i=0;i<edges.length;i++) {
    if (edges[i].id.substr(0,4)=='edge') {
      edges[i].setAttribute('class','edge');
    }
  }
}
]]></script>
        <defs>
                <circle id="rim" cx="0" cy="0" r="7"/>
                <circle id="rim2" cx="0" cy="0" r="3.5"/>
                <g id="zoomPlus">
                        <use xlink:href="#rim" fill="#404040">
                                <set attributeName="fill" to="#808080" begin="zoomplus.mouseover" end="zoomplus.mouseout"/>
                        </use>
                        <path d="M-4,0h8M0,-4v8" fill="none" stroke="white" stroke-width="1.5" pointer-events="none"/>
                </g>
                <g id="zoomMin">
                        <use xlink:href="#rim" fill="#404040">
                                <set attributeName="fill" to="#808080" begin="zoomminus.mouseover" end="zoomminus.mouseout"/>
                        </use>
                        <path d="M-4,0h8" fill="none" stroke="white" stroke-width="1.5" pointer-events="none"/>
                </g>
                <g id="dirArrow">
                        <path fill="none" stroke="white" stroke-width="1.5" d="M0,-3.0v7 M-2.5,-0.5L0,-3.0L2.5,-0.5"/>
                </g>
               <g id="resetDef">
                       <use xlink:href="#rim2" fill="#404040">
                               <set attributeName="fill" to="#808080" begin="reset.mouseover" end="reset.mouseout"/>
                       </use>
               </g>
        </defs>

<script type="text/javascript">
var viewWidth = 849;
var viewHeight = 137;
var sectionId = 'dynsection-0';
</script>
<script xlink:href="svgpan.js"/>
<svg id="graph" class="graph">
<g id="viewport">
<title>QuantConnect.Packets.AlgorithmNodePacket</title>
<polygon fill="white" stroke="transparent" points="-4,4 -4,-133 845,-133 845,4 -4,4"/>
<!-- Node1 -->
<g id="node1" class="node">
<title>Node1</title>
<g id="a_node1"><a xlink:title="Algorithm Node Packet is a work task for the Lean Engine">
<polygon fill="#bfbfbf" stroke="black" points="264,-49.5 264,-79.5 440,-79.5 440,-49.5 264,-49.5"/>
<text text-anchor="start" x="272" y="-67.5" font-family="Helvetica,sans-Serif" font-size="10.00">QuantConnect.Packets.Algorithm</text>
<text text-anchor="middle" x="352" y="-56.5" font-family="Helvetica,sans-Serif" font-size="10.00">NodePacket</text>
</a>
</g>
</g>
<!-- Node4 -->
<g id="node4" class="node">
<title>Node4</title>
<g id="a_node4"><a xlink:href="classQuantConnect_1_1Packets_1_1BacktestNodePacket.html" target="_top" xlink:title="Algorithm backtest task information packet.">
<polygon fill="white" stroke="black" points="477,-98.5 477,-128.5 648,-128.5 648,-98.5 477,-98.5"/>
<text text-anchor="start" x="485" y="-116.5" font-family="Helvetica,sans-Serif" font-size="10.00">QuantConnect.Packets.Backtest</text>
<text text-anchor="middle" x="562.5" y="-105.5" font-family="Helvetica,sans-Serif" font-size="10.00">NodePacket</text>
</a>
</g>
</g>
<!-- Node1&#45;&gt;Node4 -->
<g id="edge3" class="edge">
<title>Node1&#45;&gt;Node4</title>
<path fill="none" stroke="midnightblue" d="M426.74,-81.83C449.89,-87.27 475.24,-93.23 497.65,-98.49"/>
<polygon fill="midnightblue" stroke="midnightblue" points="427.51,-78.42 416.97,-79.53 425.91,-85.23 427.51,-78.42"/>
</g>
<!-- Node5 -->
<g id="node5" class="node">
<title>Node5</title>
<g id="a_node5"><a xlink:href="classQuantConnect_1_1Packets_1_1LiveNodePacket.html" target="_top" xlink:title="Live job task packet: container for any live specific job variables">
<polygon fill="white" stroke="black" points="488,-49.5 488,-79.5 637,-79.5 637,-49.5 488,-49.5"/>
<text text-anchor="start" x="496" y="-67.5" font-family="Helvetica,sans-Serif" font-size="10.00">QuantConnect.Packets.Live</text>
<text text-anchor="middle" x="562.5" y="-56.5" font-family="Helvetica,sans-Serif" font-size="10.00">NodePacket</text>
</a>
</g>
</g>
<!-- Node1&#45;&gt;Node5 -->
<g id="edge4" class="edge">
<title>Node1&#45;&gt;Node5</title>
<path fill="none" stroke="midnightblue" d="M450.3,-64.5C462.93,-64.5 475.7,-64.5 487.85,-64.5"/>
<polygon fill="midnightblue" stroke="midnightblue" points="450.21,-61 440.21,-64.5 450.21,-68 450.21,-61"/>
</g>
<!-- Node7 -->
<g id="node7" class="node">
<title>Node7</title>
<g id="a_node7"><a xlink:href="classQuantConnect_1_1Packets_1_1ResearchNodePacket.html" target="_top" xlink:title="Represents a research node packet">
<polygon fill="white" stroke="black" points="476,-0.5 476,-30.5 649,-30.5 649,-0.5 476,-0.5"/>
<text text-anchor="start" x="484" y="-18.5" font-family="Helvetica,sans-Serif" font-size="10.00">QuantConnect.Packets.Research</text>
<text text-anchor="middle" x="562.5" y="-7.5" font-family="Helvetica,sans-Serif" font-size="10.00">NodePacket</text>
</a>
</g>
</g>
<!-- Node1&#45;&gt;Node7 -->
<g id="edge6" class="edge">
<title>Node1&#45;&gt;Node7</title>
<path fill="none" stroke="midnightblue" d="M426.74,-47.17C449.89,-41.73 475.24,-35.77 497.65,-30.51"/>
<polygon fill="midnightblue" stroke="midnightblue" points="425.91,-43.77 416.97,-49.47 427.51,-50.58 425.91,-43.77"/>
</g>
<!-- Node2 -->
<g id="node2" class="node">
<title>Node2</title>
<g id="a_node2"><a xlink:href="classQuantConnect_1_1Packets_1_1PythonEnvironmentPacket.html" target="_top" xlink:title="Python Environment Packet is an abstract packet that contains a PythonVirtualEnvironment definition....">
<polygon fill="white" stroke="black" points="84,-55 84,-74 228,-74 228,-55 84,-55"/>
<text text-anchor="middle" x="156" y="-62" font-family="Helvetica,sans-Serif" font-size="10.00">PythonEnvironmentPacket</text>
</a>
</g>
</g>
<!-- Node2&#45;&gt;Node1 -->
<g id="edge1" class="edge">
<title>Node2&#45;&gt;Node1</title>
<path fill="none" stroke="midnightblue" d="M238.29,-64.5C246.69,-64.5 255.25,-64.5 263.71,-64.5"/>
<polygon fill="midnightblue" stroke="midnightblue" points="238.14,-61 228.14,-64.5 238.14,-68 238.14,-61"/>
</g>
<!-- Node3 -->
<g id="node3" class="node">
<title>Node3</title>
<g id="a_node3"><a xlink:href="classQuantConnect_1_1Packets_1_1Packet.html" target="_top" xlink:title="Base class for packet messaging system">
<polygon fill="white" stroke="black" points="0,-55 0,-74 48,-74 48,-55 0,-55"/>
<text text-anchor="middle" x="24" y="-62" font-family="Helvetica,sans-Serif" font-size="10.00">Packet</text>
</a>
</g>
</g>
<!-- Node3&#45;&gt;Node2 -->
<g id="edge2" class="edge">
<title>Node3&#45;&gt;Node2</title>
<path fill="none" stroke="midnightblue" d="M58.39,-64.5C66.24,-64.5 74.91,-64.5 83.74,-64.5"/>
<polygon fill="midnightblue" stroke="midnightblue" points="58.24,-61 48.24,-64.5 58.24,-68 58.24,-61"/>
</g>
<!-- Node6 -->
<g id="node6" class="node">
<title>Node6</title>
<g id="a_node6"><a xlink:href="classQuantConnect_1_1Packets_1_1AlphaNodePacket.html" target="_top" xlink:title="Alpha job packet">
<polygon fill="white" stroke="black" points="685,-49.5 685,-79.5 841,-79.5 841,-49.5 685,-49.5"/>
<text text-anchor="start" x="693" y="-67.5" font-family="Helvetica,sans-Serif" font-size="10.00">QuantConnect.Packets.Alpha</text>
<text text-anchor="middle" x="763" y="-56.5" font-family="Helvetica,sans-Serif" font-size="10.00">NodePacket</text>
</a>
</g>
</g>
<!-- Node5&#45;&gt;Node6 -->
<g id="edge5" class="edge">
<title>Node5&#45;&gt;Node6</title>
<path fill="none" stroke="midnightblue" d="M647.45,-64.5C659.85,-64.5 672.58,-64.5 684.83,-64.5"/>
<polygon fill="midnightblue" stroke="midnightblue" points="647.13,-61 637.13,-64.5 647.13,-68 647.13,-61"/>
</g>
</g>
</svg>
        <g id="navigator" transform="translate(0 0)" fill="#404254">
                <rect fill="#f2f5e9" fill-opacity="0.5" stroke="#606060" stroke-width=".5" x="0" y="0" width="60" height="60"/>
                <use id="zoomplus" xlink:href="#zoomPlus" x="17" y="9" onmousedown="handleZoom(evt,'in')"/>
                <use id="zoomminus" xlink:href="#zoomMin" x="42" y="9" onmousedown="handleZoom(evt,'out')"/>
                <use id="reset" xlink:href="#resetDef" x="30" y="36" onmousedown="handleReset()"/>
                <g id="arrowUp" xlink:href="#dirArrow" transform="translate(30 24)" onmousedown="handlePan(0,-1)">
                  <use xlink:href="#rim" fill="#404040">
                        <set attributeName="fill" to="#808080" begin="arrowUp.mouseover" end="arrowUp.mouseout"/>
                  </use>
                  <path fill="none" stroke="white" stroke-width="1.5" d="M0,-3.0v7 M-2.5,-0.5L0,-3.0L2.5,-0.5"/>
                </g>
                <g id="arrowRight" xlink:href="#dirArrow" transform="rotate(90) translate(36 -43)" onmousedown="handlePan(1,0)">
                  <use xlink:href="#rim" fill="#404040">
                        <set attributeName="fill" to="#808080" begin="arrowRight.mouseover" end="arrowRight.mouseout"/>
                  </use>
                  <path fill="none" stroke="white" stroke-width="1.5" d="M0,-3.0v7 M-2.5,-0.5L0,-3.0L2.5,-0.5"/>
                </g>
                <g id="arrowDown" xlink:href="#dirArrow" transform="rotate(180) translate(-30 -48)" onmousedown="handlePan(0,1)">
                  <use xlink:href="#rim" fill="#404040">
                        <set attributeName="fill" to="#808080" begin="arrowDown.mouseover" end="arrowDown.mouseout"/>
                  </use>
                  <path fill="none" stroke="white" stroke-width="1.5" d="M0,-3.0v7 M-2.5,-0.5L0,-3.0L2.5,-0.5"/>
                </g>
                <g id="arrowLeft" xlink:href="#dirArrow" transform="rotate(270) translate(-36 17)" onmousedown="handlePan(-1,0)">
                  <use xlink:href="#rim" fill="#404040">
                        <set attributeName="fill" to="#808080" begin="arrowLeft.mouseover" end="arrowLeft.mouseout"/>
                  </use>
                  <path fill="none" stroke="white" stroke-width="1.5" d="M0,-3.0v7 M-2.5,-0.5L0,-3.0L2.5,-0.5"/>
                </g>
        </g>
        <svg viewBox="0 0 15 15" width="100%" height="30px" preserveAspectRatio="xMaxYMin meet">
         <g id="arrow_out" transform="scale(0.3 0.3)">
          <a xlink:href="classQuantConnect_1_1Packets_1_1AlgorithmNodePacket__inherit__graph_org.svg" target="_base">
           <rect id="button" ry="5" rx="5" y="6" x="6" height="38" width="38"
                fill="#f2f5e9" fill-opacity="0.5" stroke="#606060" stroke-width="1.0"/>
           <path id="arrow"
             d="M 11.500037,31.436501 C 11.940474,20.09759 22.043105,11.32322 32.158766,21.979434 L 37.068811,17.246167 C 37.068811,17.246167 37.088388,32 37.088388,32 L 22.160133,31.978069 C 22.160133,31.978069 26.997745,27.140456 26.997745,27.140456 C 18.528582,18.264221 13.291696,25.230495 11.500037,31.436501 z"
             style="fill:#404040;"/>
          </a>
         </g>
        </svg>
</svg>
