<?xml version="1.0" encoding="UTF-8" standalone="no"?>
<!DOCTYPE svg PUBLIC "-//W3C//DTD SVG 1.1//EN"
 "http://www.w3.org/Graphics/SVG/1.1/DTD/svg11.dtd">
<!-- Generated by graphviz version 2.43.0 (0)
 -->
<!-- Title: QuantConnect.Data.SubscriptionManager.IsSubscriptionValidForConsolidator Pages: 1 -->
<!--zoomable 149 -->
<svg id="main" version="1.1" xmlns="http://www.w3.org/2000/svg" xmlns:xlink="http://www.w3.org/1999/xlink" xml:space="preserve" onload="init(evt)">
<style type="text/css"><![CDATA[
.edge:hover path { stroke: red; }
.edge:hover polygon { stroke: red; fill: red; }
]]></style>
<script type="text/javascript"><![CDATA[
var edges = document.getElementsByTagName('g');
if (edges && edges.length) {
  for (var i=0;i<edges.length;i++) {
    if (edges[i].id.substr(0,4)=='edge') {
      edges[i].setAttribute('class','edge');
    }
  }
}
]]></script>
        <defs>
                <circle id="rim" cx="0" cy="0" r="7"/>
                <circle id="rim2" cx="0" cy="0" r="3.5"/>
                <g id="zoomPlus">
                        <use xlink:href="#rim" fill="#404040">
                                <set attributeName="fill" to="#808080" begin="zoomplus.mouseover" end="zoomplus.mouseout"/>
                        </use>
                        <path d="M-4,0h8M0,-4v8" fill="none" stroke="white" stroke-width="1.5" pointer-events="none"/>
                </g>
                <g id="zoomMin">
                        <use xlink:href="#rim" fill="#404040">
                                <set attributeName="fill" to="#808080" begin="zoomminus.mouseover" end="zoomminus.mouseout"/>
                        </use>
                        <path d="M-4,0h8" fill="none" stroke="white" stroke-width="1.5" pointer-events="none"/>
                </g>
                <g id="dirArrow">
                        <path fill="none" stroke="white" stroke-width="1.5" d="M0,-3.0v7 M-2.5,-0.5L0,-3.0L2.5,-0.5"/>
                </g>
               <g id="resetDef">
                       <use xlink:href="#rim2" fill="#404040">
                               <set attributeName="fill" to="#808080" begin="reset.mouseover" end="reset.mouseout"/>
                       </use>
               </g>
        </defs>

<script type="text/javascript">
var viewWidth = 748;
var viewHeight = 149;
var sectionId = 'dynsection-14';
</script>
<script xlink:href="svgpan.js"/>
<svg id="graph" class="graph">
<g id="viewport">
<title>QuantConnect.Data.SubscriptionManager.IsSubscriptionValidForConsolidator</title>
<polygon fill="white" stroke="transparent" points="-4,4 -4,-145 744,-145 744,4 -4,4"/>
<!-- Node1 -->
<g id="node1" class="node">
<title>Node1</title>
<g id="a_node1"><a xlink:title="Checks if the subscription is valid for the consolidator">
<polygon fill="#bfbfbf" stroke="black" points="510,-55.5 510,-85.5 740,-85.5 740,-55.5 510,-55.5"/>
<text text-anchor="start" x="518" y="-73.5" font-family="Helvetica,sans-Serif" font-size="10.00">QuantConnect.Data.Subscription</text>
<text text-anchor="middle" x="625" y="-62.5" font-family="Helvetica,sans-Serif" font-size="10.00">Manager.IsSubscriptionValidForConsolidator</text>
</a>
</g>
</g>
<!-- Node2 -->
<g id="node2" class="node">
<title>Node2</title>
<g id="a_node2"><a xlink:href="classQuantConnect_1_1Data_1_1SubscriptionManager.html#a30124df669563657110c578275440472" target="_top" xlink:title="Add a consolidator for the symbol">
<polygon fill="white" stroke="black" points="299,-55.5 299,-85.5 474,-85.5 474,-55.5 299,-55.5"/>
<text text-anchor="start" x="307" y="-73.5" font-family="Helvetica,sans-Serif" font-size="10.00">QuantConnect.Data.Subscription</text>
<text text-anchor="middle" x="386.5" y="-62.5" font-family="Helvetica,sans-Serif" font-size="10.00">Manager.AddConsolidator</text>
</a>
</g>
</g>
<!-- Node1&#45;&gt;Node2 -->
<g id="edge1" class="edge">
<title>Node1&#45;&gt;Node2</title>
<path fill="none" stroke="midnightblue" d="M499.74,-70.5C491.08,-70.5 482.47,-70.5 474.09,-70.5"/>
<polygon fill="midnightblue" stroke="midnightblue" points="499.91,-74 509.91,-70.5 499.91,-67 499.91,-74"/>
</g>
<!-- Node3 -->
<g id="node3" class="node">
<title>Node3</title>
<g id="a_node3"><a xlink:href="classQuantConnect_1_1Data_1_1SubscriptionManager.html#aa2034d1091ab4ad767a309464627d8fc" target="_top" xlink:title="Add a custom python consolidator for the symbol">
<polygon fill="white" stroke="black" points="44,-110.5 44,-140.5 219,-140.5 219,-110.5 44,-110.5"/>
<text text-anchor="start" x="52" y="-128.5" font-family="Helvetica,sans-Serif" font-size="10.00">QuantConnect.Data.Subscription</text>
<text text-anchor="middle" x="131.5" y="-117.5" font-family="Helvetica,sans-Serif" font-size="10.00">Manager.AddConsolidator</text>
</a>
</g>
</g>
<!-- Node2&#45;&gt;Node3 -->
<g id="edge2" class="edge">
<title>Node2&#45;&gt;Node3</title>
<path fill="none" stroke="midnightblue" d="M316.65,-88.01C299.19,-92.28 280.44,-96.7 263,-100.5 247.34,-103.92 230.56,-107.32 214.43,-110.47"/>
<polygon fill="midnightblue" stroke="midnightblue" points="317.88,-91.31 326.76,-85.53 316.21,-84.52 317.88,-91.31"/>
</g>
<!-- Node4 -->
<g id="node4" class="node">
<title>Node4</title>
<g id="a_node4"><a xlink:href="classQuantConnect_1_1Algorithm_1_1Framework_1_1Alphas_1_1EmaCrossAlphaModel_1_1SymbolData.html#afd6f27259aac1fc4e453aaab31e51823" target="_top" xlink:title="Initializes an instance of the class SymbolData with the given arguments">
<polygon fill="white" stroke="black" points="19,-50 19,-91 244,-91 244,-50 19,-50"/>
<text text-anchor="start" x="27" y="-79" font-family="Helvetica,sans-Serif" font-size="10.00">QuantConnect.Algorithm.Framework.</text>
<text text-anchor="start" x="27" y="-68" font-family="Helvetica,sans-Serif" font-size="10.00">Alphas.EmaCrossAlphaModel.SymbolData.</text>
<text text-anchor="middle" x="131.5" y="-57" font-family="Helvetica,sans-Serif" font-size="10.00">SymbolData</text>
</a>
</g>
</g>
<!-- Node2&#45;&gt;Node4 -->
<g id="edge3" class="edge">
<title>Node2&#45;&gt;Node4</title>
<path fill="none" stroke="midnightblue" d="M288.78,-70.5C274.18,-70.5 259.02,-70.5 244.14,-70.5"/>
<polygon fill="midnightblue" stroke="midnightblue" points="288.79,-74 298.79,-70.5 288.79,-67 288.79,-74"/>
</g>
<!-- Node5 -->
<g id="node5" class="node">
<title>Node5</title>
<g id="a_node5"><a xlink:href="classQuantConnect_1_1Algorithm_1_1Framework_1_1Alphas_1_1MacdAlphaModel_1_1SymbolData.html#ae7da29d45ecf4119217196c2b54f93de" target="_top" xlink:title="Initializes an instance of the SymbolData class with the given arguments">
<polygon fill="white" stroke="black" points="0,-0.5 0,-30.5 263,-30.5 263,-0.5 0,-0.5"/>
<text text-anchor="start" x="8" y="-18.5" font-family="Helvetica,sans-Serif" font-size="10.00">QuantConnect.Algorithm.Framework.</text>
<text text-anchor="middle" x="131.5" y="-7.5" font-family="Helvetica,sans-Serif" font-size="10.00">Alphas.MacdAlphaModel.SymbolData.SymbolData</text>
</a>
</g>
</g>
<!-- Node2&#45;&gt;Node5 -->
<g id="edge4" class="edge">
<title>Node2&#45;&gt;Node5</title>
<path fill="none" stroke="midnightblue" d="M316.65,-52.99C299.19,-48.72 280.44,-44.3 263,-40.5 247.34,-37.08 230.56,-33.68 214.43,-30.53"/>
<polygon fill="midnightblue" stroke="midnightblue" points="316.21,-56.48 326.76,-55.47 317.88,-49.69 316.21,-56.48"/>
</g>
</g>
</svg>
        <g id="navigator" transform="translate(0 0)" fill="#404254">
                <rect fill="#f2f5e9" fill-opacity="0.5" stroke="#606060" stroke-width=".5" x="0" y="0" width="60" height="60"/>
                <use id="zoomplus" xlink:href="#zoomPlus" x="17" y="9" onmousedown="handleZoom(evt,'in')"/>
                <use id="zoomminus" xlink:href="#zoomMin" x="42" y="9" onmousedown="handleZoom(evt,'out')"/>
                <use id="reset" xlink:href="#resetDef" x="30" y="36" onmousedown="handleReset()"/>
                <g id="arrowUp" xlink:href="#dirArrow" transform="translate(30 24)" onmousedown="handlePan(0,-1)">
                  <use xlink:href="#rim" fill="#404040">
                        <set attributeName="fill" to="#808080" begin="arrowUp.mouseover" end="arrowUp.mouseout"/>
                  </use>
                  <path fill="none" stroke="white" stroke-width="1.5" d="M0,-3.0v7 M-2.5,-0.5L0,-3.0L2.5,-0.5"/>
                </g>
                <g id="arrowRight" xlink:href="#dirArrow" transform="rotate(90) translate(36 -43)" onmousedown="handlePan(1,0)">
                  <use xlink:href="#rim" fill="#404040">
                        <set attributeName="fill" to="#808080" begin="arrowRight.mouseover" end="arrowRight.mouseout"/>
                  </use>
                  <path fill="none" stroke="white" stroke-width="1.5" d="M0,-3.0v7 M-2.5,-0.5L0,-3.0L2.5,-0.5"/>
                </g>
                <g id="arrowDown" xlink:href="#dirArrow" transform="rotate(180) translate(-30 -48)" onmousedown="handlePan(0,1)">
                  <use xlink:href="#rim" fill="#404040">
                        <set attributeName="fill" to="#808080" begin="arrowDown.mouseover" end="arrowDown.mouseout"/>
                  </use>
                  <path fill="none" stroke="white" stroke-width="1.5" d="M0,-3.0v7 M-2.5,-0.5L0,-3.0L2.5,-0.5"/>
                </g>
                <g id="arrowLeft" xlink:href="#dirArrow" transform="rotate(270) translate(-36 17)" onmousedown="handlePan(-1,0)">
                  <use xlink:href="#rim" fill="#404040">
                        <set attributeName="fill" to="#808080" begin="arrowLeft.mouseover" end="arrowLeft.mouseout"/>
                  </use>
                  <path fill="none" stroke="white" stroke-width="1.5" d="M0,-3.0v7 M-2.5,-0.5L0,-3.0L2.5,-0.5"/>
                </g>
        </g>
        <svg viewBox="0 0 15 15" width="100%" height="30px" preserveAspectRatio="xMaxYMin meet">
         <g id="arrow_out" transform="scale(0.3 0.3)">
          <a xlink:href="classQuantConnect_1_1Data_1_1SubscriptionManager_a1916b5d3e1bcbaf683be29d68ead2682_icgraph_org.svg" target="_base">
           <rect id="button" ry="5" rx="5" y="6" x="6" height="38" width="38"
                fill="#f2f5e9" fill-opacity="0.5" stroke="#606060" stroke-width="1.0"/>
           <path id="arrow"
             d="M 11.500037,31.436501 C 11.940474,20.09759 22.043105,11.32322 32.158766,21.979434 L 37.068811,17.246167 C 37.068811,17.246167 37.088388,32 37.088388,32 L 22.160133,31.978069 C 22.160133,31.978069 26.997745,27.140456 26.997745,27.140456 C 18.528582,18.264221 13.291696,25.230495 11.500037,31.436501 z"
             style="fill:#404040;"/>
          </a>
         </g>
        </svg>
</svg>
