<?xml version="1.0" encoding="UTF-8" standalone="no"?>
<!DOCTYPE svg PUBLIC "-//W3C//DTD SVG 1.1//EN"
 "http://www.w3.org/Graphics/SVG/1.1/DTD/svg11.dtd">
<!-- Generated by graphviz version 2.43.0 (0)
 -->
<!-- Title: QuantConnect.Report.ReportElements.EstimatedCapacityReportElement.Render Pages: 1 -->
<svg width="608pt" height="88pt"
 viewBox="0.00 0.00 608.00 88.00" xmlns="http://www.w3.org/2000/svg" xmlns:xlink="http://www.w3.org/1999/xlink">
<g id="graph0" class="graph" transform="scale(1 1) rotate(0) translate(4 84)">
<title>QuantConnect.Report.ReportElements.EstimatedCapacityReportElement.Render</title>
<polygon fill="white" stroke="transparent" points="-4,4 -4,-84 604,-84 604,4 -4,4"/>
<!-- Node1 -->
<g id="node1" class="node">
<title>Node1</title>
<g id="a_node1"><a xlink:title="Render element">
<polygon fill="#bfbfbf" stroke="black" points="0,-19 0,-60 190,-60 190,-19 0,-19"/>
<text text-anchor="start" x="8" y="-48" font-family="Helvetica,sans-Serif" font-size="10.00">QuantConnect.Report.Report</text>
<text text-anchor="start" x="8" y="-37" font-family="Helvetica,sans-Serif" font-size="10.00">Elements.EstimatedCapacityReport</text>
<text text-anchor="middle" x="95" y="-26" font-family="Helvetica,sans-Serif" font-size="10.00">Element.Render</text>
</a>
</g>
</g>
<!-- Node2 -->
<g id="node2" class="node">
<title>Node2</title>
<g id="a_node2"><a xlink:href="classQuantConnect_1_1Currencies.html#ac25d70952411dac69aff50e16b2680f2" target="_top" xlink:title="Converts the string representation of number with currency in the format {currency}{value} to its dec...">
<polygon fill="white" stroke="black" points="226,-24.5 226,-54.5 369,-54.5 369,-24.5 226,-24.5"/>
<text text-anchor="start" x="234" y="-42.5" font-family="Helvetica,sans-Serif" font-size="10.00">QuantConnect.Currencies.</text>
<text text-anchor="middle" x="297.5" y="-31.5" font-family="Helvetica,sans-Serif" font-size="10.00">Parse</text>
</a>
</g>
</g>
<!-- Node1&#45;&gt;Node2 -->
<g id="edge1" class="edge">
<title>Node1&#45;&gt;Node2</title>
<path fill="none" stroke="midnightblue" d="M190.09,-39.5C198.62,-39.5 207.22,-39.5 215.62,-39.5"/>
<polygon fill="midnightblue" stroke="midnightblue" points="215.77,-43 225.77,-39.5 215.77,-36 215.77,-43"/>
</g>
<!-- Node3 -->
<g id="node3" class="node">
<title>Node3</title>
<g id="a_node3"><a xlink:href="classQuantConnect_1_1Messages_1_1Currencies.html#a5e45ee5893aa9cc61b02c5a1cb51cab5" target="_top" xlink:title="Returns a string message saying the given value cannot be converted to a decimal number">
<polygon fill="white" stroke="black" points="405,-49.5 405,-79.5 600,-79.5 600,-49.5 405,-49.5"/>
<text text-anchor="start" x="413" y="-67.5" font-family="Helvetica,sans-Serif" font-size="10.00">QuantConnect.Messages.Currencies.</text>
<text text-anchor="middle" x="502.5" y="-56.5" font-family="Helvetica,sans-Serif" font-size="10.00">FailedConversionToDecimal</text>
</a>
</g>
</g>
<!-- Node2&#45;&gt;Node3 -->
<g id="edge2" class="edge">
<title>Node2&#45;&gt;Node3</title>
<path fill="none" stroke="midnightblue" d="M369.21,-48.21C377.52,-49.23 386.13,-50.29 394.79,-51.36"/>
<polygon fill="midnightblue" stroke="midnightblue" points="394.62,-54.86 404.97,-52.61 395.47,-47.92 394.62,-54.86"/>
</g>
<!-- Node4 -->
<g id="node4" class="node">
<title>Node4</title>
<g id="a_node4"><a xlink:href="classQuantConnect_1_1Currencies.html#adfe5757a88698f504c556254db30a240" target="_top" xlink:title="Converts the string representation of number with currency in the format {currency}{value} to its dec...">
<polygon fill="white" stroke="black" points="431,-0.5 431,-30.5 574,-30.5 574,-0.5 431,-0.5"/>
<text text-anchor="start" x="439" y="-18.5" font-family="Helvetica,sans-Serif" font-size="10.00">QuantConnect.Currencies.</text>
<text text-anchor="middle" x="502.5" y="-7.5" font-family="Helvetica,sans-Serif" font-size="10.00">TryParse</text>
</a>
</g>
</g>
<!-- Node2&#45;&gt;Node4 -->
<g id="edge3" class="edge">
<title>Node2&#45;&gt;Node4</title>
<path fill="none" stroke="midnightblue" d="M369.21,-31.14C385.7,-29.19 403.39,-27.1 420.29,-25.1"/>
<polygon fill="midnightblue" stroke="midnightblue" points="421.18,-28.52 430.7,-23.87 420.35,-21.57 421.18,-28.52"/>
</g>
</g>
</svg>
