<?xml version="1.0" encoding="UTF-8" standalone="no"?>
<!DOCTYPE svg PUBLIC "-//W3C//DTD SVG 1.1//EN"
 "http://www.w3.org/Graphics/SVG/1.1/DTD/svg11.dtd">
<!-- Generated by graphviz version 2.43.0 (0)
 -->
<!-- Title: QuantConnect.Lean.Engine.Setup.BaseSetupHandler.Setup Pages: 1 -->
<svg width="412pt" height="88pt"
 viewBox="0.00 0.00 412.00 88.00" xmlns="http://www.w3.org/2000/svg" xmlns:xlink="http://www.w3.org/1999/xlink">
<g id="graph0" class="graph" transform="scale(1 1) rotate(0) translate(4 84)">
<title>QuantConnect.Lean.Engine.Setup.BaseSetupHandler.Setup</title>
<polygon fill="white" stroke="transparent" points="-4,4 -4,-84 408,-84 408,4 -4,4"/>
<!-- Node1 -->
<g id="node1" class="node">
<title>Node1</title>
<g id="a_node1"><a xlink:title="Primary entry point to setup a new algorithm">
<polygon fill="#bfbfbf" stroke="black" points="237,-24.5 237,-54.5 404,-54.5 404,-24.5 237,-24.5"/>
<text text-anchor="start" x="245" y="-42.5" font-family="Helvetica,sans-Serif" font-size="10.00">QuantConnect.Lean.Engine.</text>
<text text-anchor="middle" x="320.5" y="-31.5" font-family="Helvetica,sans-Serif" font-size="10.00">Setup.BaseSetupHandler.Setup</text>
</a>
</g>
</g>
<!-- Node2 -->
<g id="node2" class="node">
<title>Node2</title>
<g id="a_node2"><a xlink:href="classQuantConnect_1_1Lean_1_1Engine_1_1Setup_1_1BacktestingSetupHandler.html#ae58290be3e6429052ed3ff0064cf2ba0" target="_top" xlink:title="Setup the algorithm cash, dates and data subscriptions as desired.">
<polygon fill="white" stroke="black" points="0,-49.5 0,-79.5 201,-79.5 201,-49.5 0,-49.5"/>
<text text-anchor="start" x="8" y="-67.5" font-family="Helvetica,sans-Serif" font-size="10.00">QuantConnect.Lean.Engine.</text>
<text text-anchor="middle" x="100.5" y="-56.5" font-family="Helvetica,sans-Serif" font-size="10.00">Setup.BacktestingSetupHandler.Setup</text>
</a>
</g>
</g>
<!-- Node1&#45;&gt;Node2 -->
<g id="edge1" class="edge">
<title>Node1&#45;&gt;Node2</title>
<path fill="none" stroke="midnightblue" d="M226.83,-50.13C218.29,-51.11 209.61,-52.1 201.02,-53.09"/>
<polygon fill="midnightblue" stroke="midnightblue" points="227.24,-53.6 236.77,-48.99 226.44,-46.65 227.24,-53.6"/>
</g>
<!-- Node3 -->
<g id="node3" class="node">
<title>Node3</title>
<g id="a_node3"><a xlink:href="classQuantConnect_1_1Lean_1_1Engine_1_1Setup_1_1BrokerageSetupHandler.html#a31fba19179b2197553a8f0152885886b" target="_top" xlink:title="Primary entry point to setup a new algorithm">
<polygon fill="white" stroke="black" points="4,-0.5 4,-30.5 197,-30.5 197,-0.5 4,-0.5"/>
<text text-anchor="start" x="12" y="-18.5" font-family="Helvetica,sans-Serif" font-size="10.00">QuantConnect.Lean.Engine.</text>
<text text-anchor="middle" x="100.5" y="-7.5" font-family="Helvetica,sans-Serif" font-size="10.00">Setup.BrokerageSetupHandler.Setup</text>
</a>
</g>
</g>
<!-- Node1&#45;&gt;Node3 -->
<g id="edge2" class="edge">
<title>Node1&#45;&gt;Node3</title>
<path fill="none" stroke="midnightblue" d="M226.71,-29.29C216.99,-28.21 207.09,-27.12 197.33,-26.05"/>
<polygon fill="midnightblue" stroke="midnightblue" points="226.45,-32.78 236.77,-30.39 227.22,-25.82 226.45,-32.78"/>
</g>
</g>
</svg>
