<?xml version="1.0" encoding="UTF-8" standalone="no"?>
<!DOCTYPE svg PUBLIC "-//W3C//DTD SVG 1.1//EN"
 "http://www.w3.org/Graphics/SVG/1.1/DTD/svg11.dtd">
<!-- Generated by graphviz version 2.43.0 (0)
 -->
<!-- Title: QuantConnect.Algorithm.QCAlgorithm.SubmitOrderRequest Pages: 1 -->
<svg width="1101pt" height="247pt"
 viewBox="0.00 0.00 1101.00 247.00" xmlns="http://www.w3.org/2000/svg" xmlns:xlink="http://www.w3.org/1999/xlink">
<g id="graph0" class="graph" transform="scale(1 1) rotate(0) translate(4 243)">
<title>QuantConnect.Algorithm.QCAlgorithm.SubmitOrderRequest</title>
<polygon fill="white" stroke="transparent" points="-4,4 -4,-243 1097,-243 1097,4 -4,4"/>
<!-- Node1 -->
<g id="node1" class="node">
<title>Node1</title>
<g id="a_node1"><a xlink:title="Will submit an order request to the algorithm">
<polygon fill="#bfbfbf" stroke="black" points="0,-95.5 0,-125.5 205,-125.5 205,-95.5 0,-95.5"/>
<text text-anchor="start" x="8" y="-113.5" font-family="Helvetica,sans-Serif" font-size="10.00">QuantConnect.Algorithm.QCAlgorithm.</text>
<text text-anchor="middle" x="102.5" y="-102.5" font-family="Helvetica,sans-Serif" font-size="10.00">SubmitOrderRequest</text>
</a>
</g>
</g>
<!-- Node2 -->
<g id="node2" class="node">
<title>Node2</title>
<g id="a_node2"><a xlink:href="classQuantConnect_1_1Securities_1_1SecurityTransactionManager.html#a1be0501e49d4cce848dcc123183fed8f" target="_top" xlink:title="Add an order to collection and return the unique order id or negative if an error.">
<polygon fill="white" stroke="black" points="241,-123.5 241,-153.5 444,-153.5 444,-123.5 241,-123.5"/>
<text text-anchor="start" x="249" y="-141.5" font-family="Helvetica,sans-Serif" font-size="10.00">QuantConnect.Securities.</text>
<text text-anchor="middle" x="342.5" y="-130.5" font-family="Helvetica,sans-Serif" font-size="10.00">SecurityTransactionManager.AddOrder</text>
</a>
</g>
</g>
<!-- Node1&#45;&gt;Node2 -->
<g id="edge1" class="edge">
<title>Node1&#45;&gt;Node2</title>
<path fill="none" stroke="midnightblue" d="M205.12,-122.46C213.66,-123.46 222.32,-124.48 230.92,-125.49"/>
<polygon fill="midnightblue" stroke="midnightblue" points="230.63,-128.98 240.97,-126.67 231.45,-122.03 230.63,-128.98"/>
</g>
<!-- Node12 -->
<g id="node12" class="node">
<title>Node12</title>
<g id="a_node12"><a xlink:href="classQuantConnect_1_1Orders_1_1OrderTicket.html#a055eae7f324cb8a9a1589b36511d8d8b" target="_top" xlink:title="Creates a new OrderTicket that represents trying to submit a new order that had errors embodied in th...">
<polygon fill="white" stroke="black" points="264.5,-71.5 264.5,-101.5 420.5,-101.5 420.5,-71.5 264.5,-71.5"/>
<text text-anchor="start" x="272.5" y="-89.5" font-family="Helvetica,sans-Serif" font-size="10.00">QuantConnect.Orders.Order</text>
<text text-anchor="middle" x="342.5" y="-78.5" font-family="Helvetica,sans-Serif" font-size="10.00">Ticket.InvalidSubmitRequest</text>
</a>
</g>
</g>
<!-- Node1&#45;&gt;Node12 -->
<g id="edge11" class="edge">
<title>Node1&#45;&gt;Node12</title>
<path fill="none" stroke="midnightblue" d="M205.12,-100.25C221.4,-98.61 238.11,-96.93 254.02,-95.32"/>
<polygon fill="midnightblue" stroke="midnightblue" points="254.74,-98.77 264.34,-94.28 254.04,-91.8 254.74,-98.77"/>
</g>
<!-- Node3 -->
<g id="node3" class="node">
<title>Node3</title>
<g id="a_node3"><a xlink:href="classQuantConnect_1_1Securities_1_1SecurityTransactionManager.html#a136cdc31b644e087e48f4f986e8c064b" target="_top" xlink:title="Processes the order request">
<polygon fill="white" stroke="black" points="480,-121 480,-162 674,-162 674,-121 480,-121"/>
<text text-anchor="start" x="488" y="-150" font-family="Helvetica,sans-Serif" font-size="10.00">QuantConnect.Securities.</text>
<text text-anchor="start" x="488" y="-139" font-family="Helvetica,sans-Serif" font-size="10.00">SecurityTransactionManager.Process</text>
<text text-anchor="middle" x="577" y="-128" font-family="Helvetica,sans-Serif" font-size="10.00">Request</text>
</a>
</g>
</g>
<!-- Node2&#45;&gt;Node3 -->
<g id="edge2" class="edge">
<title>Node2&#45;&gt;Node3</title>
<path fill="none" stroke="midnightblue" d="M444.13,-139.8C452.68,-139.91 461.35,-140.02 469.95,-140.13"/>
<polygon fill="midnightblue" stroke="midnightblue" points="469.95,-143.63 480,-140.26 470.04,-136.63 469.95,-143.63"/>
</g>
<!-- Node4 -->
<g id="node4" class="node">
<title>Node4</title>
<g id="a_node4"><a xlink:href="interfaceQuantConnect_1_1Securities_1_1IOrderProcessor.html#a153e85c4defb70ea096de8e35c340f4e" target="_top" xlink:title="Adds the specified order to be processed">
<polygon fill="white" stroke="black" points="726.5,-208.5 726.5,-238.5 866.5,-238.5 866.5,-208.5 726.5,-208.5"/>
<text text-anchor="start" x="734.5" y="-226.5" font-family="Helvetica,sans-Serif" font-size="10.00">QuantConnect.Securities.</text>
<text text-anchor="middle" x="796.5" y="-215.5" font-family="Helvetica,sans-Serif" font-size="10.00">IOrderProcessor.Process</text>
</a>
</g>
</g>
<!-- Node3&#45;&gt;Node4 -->
<g id="edge3" class="edge">
<title>Node3&#45;&gt;Node4</title>
<path fill="none" stroke="midnightblue" d="M621.76,-162.01C647.2,-173.52 680.06,-187.7 710,-198.5 716.7,-200.92 723.76,-203.27 730.83,-205.51"/>
<polygon fill="midnightblue" stroke="midnightblue" points="729.86,-208.87 740.44,-208.49 731.92,-202.19 729.86,-208.87"/>
</g>
<!-- Node5 -->
<g id="node5" class="node">
<title>Node5</title>
<g id="a_node5"><a xlink:href="classQuantConnect_1_1Securities_1_1SecurityTransactionManager.html#acdba6b5b86c1de4968b5b21752292dd9" target="_top" xlink:title="Sets the order id for the specified submit request">
<polygon fill="white" stroke="black" points="710,-148 710,-189 883,-189 883,-148 710,-148"/>
<text text-anchor="start" x="718" y="-177" font-family="Helvetica,sans-Serif" font-size="10.00">QuantConnect.Securities.</text>
<text text-anchor="start" x="718" y="-166" font-family="Helvetica,sans-Serif" font-size="10.00">SecurityTransactionManager.Set</text>
<text text-anchor="middle" x="796.5" y="-155" font-family="Helvetica,sans-Serif" font-size="10.00">OrderId</text>
</a>
</g>
</g>
<!-- Node3&#45;&gt;Node5 -->
<g id="edge4" class="edge">
<title>Node3&#45;&gt;Node5</title>
<path fill="none" stroke="midnightblue" d="M674.03,-153.42C682.62,-154.49 691.32,-155.57 699.9,-156.63"/>
<polygon fill="midnightblue" stroke="midnightblue" points="699.56,-160.12 709.91,-157.88 700.42,-153.17 699.56,-160.12"/>
</g>
<!-- Node7 -->
<g id="node7" class="node">
<title>Node7</title>
<g id="a_node7"><a xlink:href="classQuantConnect_1_1Orders_1_1OrderResponse.html#aee85b2e31d5c1887ec0cfa15568777c9" target="_top" xlink:title="Returns a string that represents the current object.">
<polygon fill="white" stroke="black" points="721,-98.5 721,-128.5 872,-128.5 872,-98.5 721,-98.5"/>
<text text-anchor="start" x="729" y="-116.5" font-family="Helvetica,sans-Serif" font-size="10.00">QuantConnect.Orders.Order</text>
<text text-anchor="middle" x="796.5" y="-105.5" font-family="Helvetica,sans-Serif" font-size="10.00">Response.ToString</text>
</a>
</g>
</g>
<!-- Node3&#45;&gt;Node7 -->
<g id="edge6" class="edge">
<title>Node3&#45;&gt;Node7</title>
<path fill="none" stroke="midnightblue" d="M674.03,-129.14C686.3,-127.56 698.79,-125.95 710.86,-124.4"/>
<polygon fill="midnightblue" stroke="midnightblue" points="711.42,-127.85 720.89,-123.11 710.52,-120.91 711.42,-127.85"/>
</g>
<!-- Node9 -->
<g id="node9" class="node">
<title>Node9</title>
<g id="a_node9"><a xlink:href="classQuantConnect_1_1Orders_1_1OrderResponse.html#af8bdc5b0fd7d8e5929a659099d1d939f" target="_top" xlink:title="Helper method to create an error response due to algorithm still in warmup mode">
<polygon fill="white" stroke="black" points="721,-49.5 721,-79.5 872,-79.5 872,-49.5 721,-49.5"/>
<text text-anchor="start" x="729" y="-67.5" font-family="Helvetica,sans-Serif" font-size="10.00">QuantConnect.Orders.Order</text>
<text text-anchor="middle" x="796.5" y="-56.5" font-family="Helvetica,sans-Serif" font-size="10.00">Response.WarmingUp</text>
</a>
</g>
</g>
<!-- Node3&#45;&gt;Node9 -->
<g id="edge8" class="edge">
<title>Node3&#45;&gt;Node9</title>
<path fill="none" stroke="midnightblue" d="M650.54,-120.94C658.56,-118.05 666.53,-114.89 674,-111.5 691.08,-103.76 692.85,-97.09 710,-89.5 715.35,-87.14 720.98,-84.92 726.69,-82.87"/>
<polygon fill="midnightblue" stroke="midnightblue" points="728.02,-86.12 736.36,-79.57 725.76,-79.49 728.02,-86.12"/>
</g>
<!-- Node6 -->
<g id="node6" class="node">
<title>Node6</title>
<g id="a_node6"><a xlink:href="classQuantConnect_1_1Securities_1_1SecurityTransactionManager.html#a470623a731aa5e8e241518af157c9ffe" target="_top" xlink:title="Get a new order id, and increment the internal counter.">
<polygon fill="white" stroke="black" points="919,-148 919,-189 1093,-189 1093,-148 919,-148"/>
<text text-anchor="start" x="927" y="-177" font-family="Helvetica,sans-Serif" font-size="10.00">QuantConnect.Securities.</text>
<text text-anchor="start" x="927" y="-166" font-family="Helvetica,sans-Serif" font-size="10.00">SecurityTransactionManager.Get</text>
<text text-anchor="middle" x="1006" y="-155" font-family="Helvetica,sans-Serif" font-size="10.00">IncrementOrderId</text>
</a>
</g>
</g>
<!-- Node5&#45;&gt;Node6 -->
<g id="edge5" class="edge">
<title>Node5&#45;&gt;Node6</title>
<path fill="none" stroke="midnightblue" d="M883.1,-168.5C891.6,-168.5 900.27,-168.5 908.88,-168.5"/>
<polygon fill="midnightblue" stroke="midnightblue" points="908.93,-172 918.93,-168.5 908.93,-165 908.93,-172"/>
</g>
<!-- Node8 -->
<g id="node8" class="node">
<title>Node8</title>
<g id="a_node8"><a xlink:href="classQuantConnect_1_1Messages_1_1OrderResponse.html#aa0c4af569013ec9ebaed20d28708ed0d" target="_top" xlink:title="Parses the given order response into a string message containing basic information about it">
<polygon fill="white" stroke="black" points="922.5,-98.5 922.5,-128.5 1089.5,-128.5 1089.5,-98.5 922.5,-98.5"/>
<text text-anchor="start" x="930.5" y="-116.5" font-family="Helvetica,sans-Serif" font-size="10.00">QuantConnect.Messages.Order</text>
<text text-anchor="middle" x="1006" y="-105.5" font-family="Helvetica,sans-Serif" font-size="10.00">Response.ToString</text>
</a>
</g>
</g>
<!-- Node7&#45;&gt;Node8 -->
<g id="edge7" class="edge">
<title>Node7&#45;&gt;Node8</title>
<path fill="none" stroke="midnightblue" d="M872.12,-113.5C885.08,-113.5 898.7,-113.5 912.08,-113.5"/>
<polygon fill="midnightblue" stroke="midnightblue" points="912.25,-117 922.25,-113.5 912.25,-110 912.25,-117"/>
</g>
<!-- Node10 -->
<g id="node10" class="node">
<title>Node10</title>
<g id="a_node10"><a xlink:href="classQuantConnect_1_1Orders_1_1OrderResponse.html#a14ded2753785926becc5e7f8e5a02a09" target="_top" xlink:title="Helper method to create an error response from a request">
<polygon fill="white" stroke="black" points="930.5,-49.5 930.5,-79.5 1081.5,-79.5 1081.5,-49.5 930.5,-49.5"/>
<text text-anchor="start" x="938.5" y="-67.5" font-family="Helvetica,sans-Serif" font-size="10.00">QuantConnect.Orders.Order</text>
<text text-anchor="middle" x="1006" y="-56.5" font-family="Helvetica,sans-Serif" font-size="10.00">Response.Error</text>
</a>
</g>
</g>
<!-- Node9&#45;&gt;Node10 -->
<g id="edge9" class="edge">
<title>Node9&#45;&gt;Node10</title>
<path fill="none" stroke="midnightblue" d="M872.12,-64.5C887.65,-64.5 904.14,-64.5 920.02,-64.5"/>
<polygon fill="midnightblue" stroke="midnightblue" points="920.35,-68 930.35,-64.5 920.35,-61 920.35,-68"/>
</g>
<!-- Node11 -->
<g id="node11" class="node">
<title>Node11</title>
<g id="a_node11"><a xlink:href="classQuantConnect_1_1Messages_1_1OrderResponse.html#adf822bd611fdfdf041194a195b2d2150" target="_top" xlink:title="Returns a string message saying the given order request operation is not allowed in Initialize or dur...">
<polygon fill="white" stroke="black" points="922.5,-0.5 922.5,-30.5 1089.5,-30.5 1089.5,-0.5 922.5,-0.5"/>
<text text-anchor="start" x="930.5" y="-18.5" font-family="Helvetica,sans-Serif" font-size="10.00">QuantConnect.Messages.Order</text>
<text text-anchor="middle" x="1006" y="-7.5" font-family="Helvetica,sans-Serif" font-size="10.00">Response.WarmingUp</text>
</a>
</g>
</g>
<!-- Node9&#45;&gt;Node11 -->
<g id="edge10" class="edge">
<title>Node9&#45;&gt;Node11</title>
<path fill="none" stroke="midnightblue" d="M861.17,-49.47C883.37,-44.22 908.48,-38.29 931.42,-32.87"/>
<polygon fill="midnightblue" stroke="midnightblue" points="932.53,-36.21 941.45,-30.51 930.92,-29.4 932.53,-36.21"/>
</g>
<!-- Node13 -->
<g id="node13" class="node">
<title>Node13</title>
<g id="a_node13"><a xlink:href="classQuantConnect_1_1Orders_1_1OrderTicket.html#a98ce7c56ada5180837251daf129901be" target="_top" xlink:title="Initializes a new instance of the OrderTicket class">
<polygon fill="white" stroke="black" points="501.5,-71.5 501.5,-101.5 652.5,-101.5 652.5,-71.5 501.5,-71.5"/>
<text text-anchor="start" x="509.5" y="-89.5" font-family="Helvetica,sans-Serif" font-size="10.00">QuantConnect.Orders.Order</text>
<text text-anchor="middle" x="577" y="-78.5" font-family="Helvetica,sans-Serif" font-size="10.00">Ticket.OrderTicket</text>
</a>
</g>
</g>
<!-- Node12&#45;&gt;Node13 -->
<g id="edge12" class="edge">
<title>Node12&#45;&gt;Node13</title>
<path fill="none" stroke="midnightblue" d="M420.6,-86.5C443.28,-86.5 468.22,-86.5 491.35,-86.5"/>
<polygon fill="midnightblue" stroke="midnightblue" points="491.48,-90 501.48,-86.5 491.48,-83 491.48,-90"/>
</g>
<!-- Node14 -->
<g id="node14" class="node">
<title>Node14</title>
<g id="a_node14"><a xlink:href="classQuantConnect_1_1Orders_1_1OrderRequest.html#aed73f8f311c9224866211078cd6caef1" target="_top" xlink:title="Sets the Response for this request">
<polygon fill="white" stroke="black" points="501.5,-22.5 501.5,-52.5 652.5,-52.5 652.5,-22.5 501.5,-22.5"/>
<text text-anchor="start" x="509.5" y="-40.5" font-family="Helvetica,sans-Serif" font-size="10.00">QuantConnect.Orders.Order</text>
<text text-anchor="middle" x="577" y="-29.5" font-family="Helvetica,sans-Serif" font-size="10.00">Request.SetResponse</text>
</a>
</g>
</g>
<!-- Node12&#45;&gt;Node14 -->
<g id="edge13" class="edge">
<title>Node12&#45;&gt;Node14</title>
<path fill="none" stroke="midnightblue" d="M414.84,-71.47C440.17,-66.13 468.86,-60.08 494.94,-54.58"/>
<polygon fill="midnightblue" stroke="midnightblue" points="495.73,-57.99 504.8,-52.51 494.29,-51.14 495.73,-57.99"/>
</g>
</g>
</svg>
