<?xml version="1.0" encoding="UTF-8" standalone="no"?>
<!DOCTYPE svg PUBLIC "-//W3C//DTD SVG 1.1//EN"
 "http://www.w3.org/Graphics/SVG/1.1/DTD/svg11.dtd">
<!-- Generated by graphviz version 2.43.0 (0)
 -->
<!-- Title: QuantConnect.Algorithm.QCAlgorithm.Consolidate&lt; T &gt; Pages: 1 -->
<svg width="674pt" height="127pt"
 viewBox="0.00 0.00 674.00 126.50" xmlns="http://www.w3.org/2000/svg" xmlns:xlink="http://www.w3.org/1999/xlink">
<g id="graph0" class="graph" transform="scale(1 1) rotate(0) translate(4 122.5)">
<title>QuantConnect.Algorithm.QCAlgorithm.Consolidate&lt; T &gt;</title>
<polygon fill="white" stroke="transparent" points="-4,4 -4,-122.5 670,-122.5 670,4 -4,4"/>
<!-- Node1 -->
<g id="node1" class="node">
<title>Node1</title>
<g id="a_node1"><a xlink:title="Registers the handler &#160;to receive consolidated data for the specified symbol and tick type....">
<polygon fill="#bfbfbf" stroke="black" points="0,-39 0,-69 205,-69 205,-39 0,-39"/>
<text text-anchor="start" x="8" y="-57" font-family="Helvetica,sans-Serif" font-size="10.00">QuantConnect.Algorithm.QCAlgorithm.</text>
<text text-anchor="middle" x="102.5" y="-46" font-family="Helvetica,sans-Serif" font-size="10.00">Consolidate&lt; T &gt;</text>
</a>
</g>
</g>
<!-- Node2 -->
<g id="node2" class="node">
<title>Node2</title>
<g id="a_node2"><a xlink:href="classQuantConnect_1_1Algorithm_1_1QCAlgorithm.html#a62c84a05ee9e555916e3e3a3c32bf51c" target="_top" xlink:title="Registers the handler &#160;to receive consolidated data for the specified symbol">
<polygon fill="white" stroke="black" points="254,-88 254,-118 459,-118 459,-88 254,-88"/>
<text text-anchor="start" x="262" y="-106" font-family="Helvetica,sans-Serif" font-size="10.00">QuantConnect.Algorithm.QCAlgorithm.</text>
<text text-anchor="middle" x="356.5" y="-95" font-family="Helvetica,sans-Serif" font-size="10.00">Consolidate</text>
</a>
</g>
</g>
<!-- Node1&#45;&gt;Node2 -->
<g id="edge1" class="edge">
<title>Node1&#45;&gt;Node2</title>
<path fill="none" stroke="midnightblue" d="M180.82,-69.03C208.52,-74.42 239.92,-80.53 268.39,-86.06"/>
<polygon fill="midnightblue" stroke="midnightblue" points="267.84,-89.52 278.33,-87.99 269.18,-82.65 267.84,-89.52"/>
</g>
<!-- Node3 -->
<g id="node3" class="node">
<title>Node3</title>
<g id="a_node3"><a xlink:href="classQuantConnect_1_1Util_1_1LeanData.html#adf1799b921849e0643385e6794ec2471" target="_top" xlink:title="Get the TickType for common Lean data types. If not a Lean common data type, return a TickType of Tra...">
<polygon fill="white" stroke="black" points="241,-39 241,-69 472,-69 472,-39 241,-39"/>
<text text-anchor="start" x="249" y="-57" font-family="Helvetica,sans-Serif" font-size="10.00">QuantConnect.Util.LeanData.</text>
<text text-anchor="middle" x="356.5" y="-46" font-family="Helvetica,sans-Serif" font-size="10.00">GetCommonTickTypeForCommonDataTypes</text>
</a>
</g>
</g>
<!-- Node1&#45;&gt;Node3 -->
<g id="edge2" class="edge">
<title>Node1&#45;&gt;Node3</title>
<path fill="none" stroke="midnightblue" d="M205.27,-54C213.72,-54 222.31,-54 230.9,-54"/>
<polygon fill="midnightblue" stroke="midnightblue" points="230.96,-57.5 240.96,-54 230.96,-50.5 230.96,-57.5"/>
</g>
<!-- Node5 -->
<g id="node5" class="node">
<title>Node5</title>
<g id="a_node5"><a xlink:href="classQuantConnect_1_1Algorithm_1_1QCAlgorithm.html#a47eae84c2f0b8e98dbc61b555b645865" target="_top" xlink:title="Creates a new Theta indicator for the symbol The indicator will be automatically updated on the symbo...">
<polygon fill="white" stroke="black" points="251,-0.5 251,-19.5 462,-19.5 462,-0.5 251,-0.5"/>
<text text-anchor="middle" x="356.5" y="-7.5" font-family="Helvetica,sans-Serif" font-size="10.00">QuantConnect.Algorithm.QCAlgorithm.T</text>
</a>
</g>
</g>
<!-- Node1&#45;&gt;Node5 -->
<g id="edge4" class="edge">
<title>Node1&#45;&gt;Node5</title>
<path fill="none" stroke="midnightblue" d="M189.52,-38.98C222.7,-33.19 260,-26.67 290.83,-21.29"/>
<polygon fill="midnightblue" stroke="midnightblue" points="291.77,-24.68 301.02,-19.51 290.57,-17.78 291.77,-24.68"/>
</g>
<!-- Node4 -->
<g id="node4" class="node">
<title>Node4</title>
<g id="a_node4"><a xlink:href="classQuantConnect_1_1Util_1_1LeanData.html#a24869ac4b029b3f2d468596baab6d72d" target="_top" xlink:title="Gets the tick type most commonly associated with the specified security type">
<polygon fill="white" stroke="black" points="508,-39 508,-69 666,-69 666,-39 508,-39"/>
<text text-anchor="start" x="516" y="-57" font-family="Helvetica,sans-Serif" font-size="10.00">QuantConnect.Util.LeanData.</text>
<text text-anchor="middle" x="587" y="-46" font-family="Helvetica,sans-Serif" font-size="10.00">GetCommonTickType</text>
</a>
</g>
</g>
<!-- Node3&#45;&gt;Node4 -->
<g id="edge3" class="edge">
<title>Node3&#45;&gt;Node4</title>
<path fill="none" stroke="midnightblue" d="M472.08,-54C480.71,-54 489.34,-54 497.77,-54"/>
<polygon fill="midnightblue" stroke="midnightblue" points="497.93,-57.5 507.93,-54 497.93,-50.5 497.93,-57.5"/>
</g>
</g>
</svg>
