<?xml version="1.0" encoding="UTF-8" standalone="no"?>
<!DOCTYPE svg PUBLIC "-//W3C//DTD SVG 1.1//EN"
 "http://www.w3.org/Graphics/SVG/1.1/DTD/svg11.dtd">
<!-- Generated by graphviz version 2.43.0 (0)
 -->
<!-- Title: QuantConnect.Data.UniverseSelection.OptionUniverse.OptionUniverse Pages: 1 -->
<svg width="398pt" height="88pt"
 viewBox="0.00 0.00 398.00 88.00" xmlns="http://www.w3.org/2000/svg" xmlns:xlink="http://www.w3.org/1999/xlink">
<g id="graph0" class="graph" transform="scale(1 1) rotate(0) translate(4 84)">
<title>QuantConnect.Data.UniverseSelection.OptionUniverse.OptionUniverse</title>
<polygon fill="white" stroke="transparent" points="-4,4 -4,-84 394,-84 394,4 -4,4"/>
<!-- Node1 -->
<g id="node1" class="node">
<title>Node1</title>
<g id="a_node1"><a xlink:title="Creates a new instance of the OptionUniverse class">
<polygon fill="#bfbfbf" stroke="black" points="214,-19 214,-60 390,-60 390,-19 214,-19"/>
<text text-anchor="start" x="222" y="-48" font-family="Helvetica,sans-Serif" font-size="10.00">QuantConnect.Data.Universe</text>
<text text-anchor="start" x="222" y="-37" font-family="Helvetica,sans-Serif" font-size="10.00">Selection.OptionUniverse.Option</text>
<text text-anchor="middle" x="302" y="-26" font-family="Helvetica,sans-Serif" font-size="10.00">Universe</text>
</a>
</g>
</g>
<!-- Node2 -->
<g id="node2" class="node">
<title>Node2</title>
<g id="a_node2"><a xlink:href="classQuantConnect_1_1Data_1_1UniverseSelection_1_1OptionUniverse.html#afe301821e533129031a3a7f65eb610d7" target="_top" xlink:title="Creates a copy of the instance">
<polygon fill="white" stroke="black" points="3.5,-49.5 3.5,-79.5 174.5,-79.5 174.5,-49.5 3.5,-49.5"/>
<text text-anchor="start" x="11.5" y="-67.5" font-family="Helvetica,sans-Serif" font-size="10.00">QuantConnect.Data.Universe</text>
<text text-anchor="middle" x="89" y="-56.5" font-family="Helvetica,sans-Serif" font-size="10.00">Selection.OptionUniverse.Clone</text>
</a>
</g>
</g>
<!-- Node1&#45;&gt;Node2 -->
<g id="edge1" class="edge">
<title>Node1&#45;&gt;Node2</title>
<path fill="none" stroke="midnightblue" d="M203.89,-51.01C194.18,-52.16 184.37,-53.32 174.8,-54.45"/>
<polygon fill="midnightblue" stroke="midnightblue" points="204.44,-54.47 213.96,-49.81 203.62,-47.51 204.44,-54.47"/>
</g>
<!-- Node3 -->
<g id="node3" class="node">
<title>Node3</title>
<g id="a_node3"><a xlink:href="classQuantConnect_1_1Data_1_1UniverseSelection_1_1OptionUniverse.html#a9c722865b50f2840c0cd33a88a0ef629" target="_top" xlink:title="Reader converts each line of the data source into BaseData objects. Each data type creates its own fa...">
<polygon fill="white" stroke="black" points="0,-0.5 0,-30.5 178,-30.5 178,-0.5 0,-0.5"/>
<text text-anchor="start" x="8" y="-18.5" font-family="Helvetica,sans-Serif" font-size="10.00">QuantConnect.Data.Universe</text>
<text text-anchor="middle" x="89" y="-7.5" font-family="Helvetica,sans-Serif" font-size="10.00">Selection.OptionUniverse.Reader</text>
</a>
</g>
</g>
<!-- Node1&#45;&gt;Node3 -->
<g id="edge2" class="edge">
<title>Node1&#45;&gt;Node3</title>
<path fill="none" stroke="midnightblue" d="M203.94,-28.46C195.36,-27.48 186.7,-26.5 178.2,-25.53"/>
<polygon fill="midnightblue" stroke="midnightblue" points="203.63,-31.95 213.96,-29.6 204.42,-24.99 203.63,-31.95"/>
</g>
</g>
</svg>
