<?xml version="1.0" encoding="UTF-8" standalone="no"?>
<!DOCTYPE svg PUBLIC "-//W3C//DTD SVG 1.1//EN"
 "http://www.w3.org/Graphics/SVG/1.1/DTD/svg11.dtd">
<!-- Generated by graphviz version 2.43.0 (0)
 -->
<!-- Title: QuantConnect.Brokerages.OandaBrokerageModel.GetBenchmark Pages: 1 -->
<svg width="1647pt" height="627pt"
 viewBox="0.00 0.00 1647.00 626.88" xmlns="http://www.w3.org/2000/svg" xmlns:xlink="http://www.w3.org/1999/xlink">
<g id="graph0" class="graph" transform="scale(1 1) rotate(0) translate(4 622.88)">
<title>QuantConnect.Brokerages.OandaBrokerageModel.GetBenchmark</title>
<polygon fill="white" stroke="transparent" points="-4,4 -4,-622.88 1643,-622.88 1643,4 -4,4"/>
<!-- Node1 -->
<g id="node1" class="node">
<title>Node1</title>
<g id="a_node1"><a xlink:title="Get the benchmark for this model">
<polygon fill="#bfbfbf" stroke="black" points="0,-180.5 0,-210.5 203,-210.5 203,-180.5 0,-180.5"/>
<text text-anchor="start" x="8" y="-198.5" font-family="Helvetica,sans-Serif" font-size="10.00">QuantConnect.Brokerages.</text>
<text text-anchor="middle" x="101.5" y="-187.5" font-family="Helvetica,sans-Serif" font-size="10.00">OandaBrokerageModel.GetBenchmark</text>
</a>
</g>
</g>
<!-- Node2 -->
<g id="node2" class="node">
<title>Node2</title>
<g id="a_node2"><a xlink:href="classQuantConnect_1_1Symbol.html#a350b9a625cf7bad95da82894be3cd0a8" target="_top" xlink:title="Provides a convenience method for creating a Symbol for most security types. This method currently do...">
<polygon fill="white" stroke="black" points="252.5,-336 252.5,-355 413.5,-355 413.5,-336 252.5,-336"/>
<text text-anchor="middle" x="333" y="-343" font-family="Helvetica,sans-Serif" font-size="10.00">QuantConnect.Symbol.Create</text>
</a>
</g>
</g>
<!-- Node1&#45;&gt;Node2 -->
<g id="edge1" class="edge">
<title>Node1&#45;&gt;Node2</title>
<path fill="none" stroke="midnightblue" d="M125.77,-210.71C169.81,-239.5 264.88,-301.63 308.84,-330.36"/>
<polygon fill="midnightblue" stroke="midnightblue" points="307.13,-333.42 317.41,-335.96 310.96,-327.56 307.13,-333.42"/>
</g>
<!-- Node20 -->
<g id="node20" class="node">
<title>Node20</title>
<g id="a_node20"><a xlink:href="classQuantConnect_1_1Benchmarks_1_1SecurityBenchmark.html#a40c97e12584a0fc70ffb48f9aead3287" target="_top" xlink:title="Helper function that will create a security with the given SecurityManager for a specific symbol and ...">
<polygon fill="white" stroke="black" points="239,-55.5 239,-85.5 427,-85.5 427,-55.5 239,-55.5"/>
<text text-anchor="start" x="247" y="-73.5" font-family="Helvetica,sans-Serif" font-size="10.00">QuantConnect.Benchmarks.</text>
<text text-anchor="middle" x="333" y="-62.5" font-family="Helvetica,sans-Serif" font-size="10.00">SecurityBenchmark.CreateInstance</text>
</a>
</g>
</g>
<!-- Node1&#45;&gt;Node20 -->
<g id="edge21" class="edge">
<title>Node1&#45;&gt;Node20</title>
<path fill="none" stroke="midnightblue" d="M130.18,-180.42C171.45,-157.95 249.17,-115.62 295.18,-90.55"/>
<polygon fill="midnightblue" stroke="midnightblue" points="297.11,-93.49 304.22,-85.63 293.76,-87.34 297.11,-93.49"/>
</g>
<!-- Node3 -->
<g id="node3" class="node">
<title>Node3</title>
<g id="a_node3"><a xlink:href="classQuantConnect_1_1Symbol.html#a7518a1932d1babbff128f2ba9666a78b" target="_top" xlink:title="Provides a convenience method for creating an option Symbol.">
<polygon fill="white" stroke="black" points="487.5,-541.5 487.5,-571.5 648.5,-571.5 648.5,-541.5 487.5,-541.5"/>
<text text-anchor="start" x="495.5" y="-559.5" font-family="Helvetica,sans-Serif" font-size="10.00">QuantConnect.Symbol.Create</text>
<text text-anchor="middle" x="568" y="-548.5" font-family="Helvetica,sans-Serif" font-size="10.00">Option</text>
</a>
</g>
</g>
<!-- Node2&#45;&gt;Node3 -->
<g id="edge2" class="edge">
<title>Node2&#45;&gt;Node3</title>
<path fill="none" stroke="midnightblue" d="M338.02,-355.08C351.16,-385.24 395.93,-479 463,-526.5 468.96,-530.72 475.5,-534.35 482.32,-537.47"/>
<polygon fill="midnightblue" stroke="midnightblue" points="481.17,-540.78 491.75,-541.42 483.88,-534.33 481.17,-540.78"/>
</g>
<!-- Node4 -->
<g id="node4" class="node">
<title>Node4</title>
<g id="a_node4"><a xlink:href="classQuantConnect_1_1SecurityIdentifier.html#a0c21d7880c9fdd260883d11ea0c99a00" target="_top" xlink:title="Helper overload that will search the mapfiles to resolve the first date. This implementation uses the...">
<polygon fill="white" stroke="black" points="713.5,-574.5 713.5,-604.5 887.5,-604.5 887.5,-574.5 713.5,-574.5"/>
<text text-anchor="start" x="721.5" y="-592.5" font-family="Helvetica,sans-Serif" font-size="10.00">QuantConnect.SecurityIdentifier.</text>
<text text-anchor="middle" x="800.5" y="-581.5" font-family="Helvetica,sans-Serif" font-size="10.00">GenerateEquity</text>
</a>
</g>
</g>
<!-- Node2&#45;&gt;Node4 -->
<g id="edge15" class="edge">
<title>Node2&#45;&gt;Node4</title>
<path fill="none" stroke="midnightblue" d="M335.73,-355.02C343.06,-392.18 375.27,-528.05 463,-581.5 544.74,-631.3 659.64,-620.65 731.8,-606.51"/>
<polygon fill="midnightblue" stroke="midnightblue" points="732.59,-609.93 741.69,-604.5 731.19,-603.07 732.59,-609.93"/>
</g>
<!-- Node5 -->
<g id="node5" class="node">
<title>Node5</title>
<g id="a_node5"><a xlink:href="classQuantConnect_1_1Symbol.html#a59158f74116be3dad0ea0f3f3f134416" target="_top" xlink:title="Initializes a new instance of the Symbol class">
<polygon fill="white" stroke="black" points="718,-514 718,-533 883,-533 883,-514 718,-514"/>
<text text-anchor="middle" x="800.5" y="-521" font-family="Helvetica,sans-Serif" font-size="10.00">QuantConnect.Symbol.Symbol</text>
</a>
</g>
</g>
<!-- Node2&#45;&gt;Node5 -->
<g id="edge20" class="edge">
<title>Node2&#45;&gt;Node5</title>
<path fill="none" stroke="midnightblue" d="M339.03,-355.36C353.71,-382.98 399.53,-461.15 463,-493.5 504.3,-514.55 622.9,-521.04 707.59,-522.93"/>
<polygon fill="midnightblue" stroke="midnightblue" points="707.67,-526.43 717.74,-523.14 707.81,-519.43 707.67,-526.43"/>
</g>
<!-- Node11 -->
<g id="node11" class="node">
<title>Node11</title>
<g id="a_node11"><a xlink:href="classQuantConnect_1_1SecurityIdentifier.html#a02ca750115844561c001c2346fbafc00" target="_top" xlink:title="Generates a new SecurityIdentifier for a custom security with the option of providing the first date">
<polygon fill="white" stroke="black" points="481,-453.5 481,-483.5 655,-483.5 655,-453.5 481,-453.5"/>
<text text-anchor="start" x="489" y="-471.5" font-family="Helvetica,sans-Serif" font-size="10.00">QuantConnect.SecurityIdentifier.</text>
<text text-anchor="middle" x="568" y="-460.5" font-family="Helvetica,sans-Serif" font-size="10.00">GenerateBase</text>
</a>
</g>
</g>
<!-- Node2&#45;&gt;Node11 -->
<g id="edge10" class="edge">
<title>Node2&#45;&gt;Node11</title>
<path fill="none" stroke="midnightblue" d="M343.38,-355.07C363.42,-374.94 412.7,-420.78 463,-444.5 467.33,-446.54 471.84,-448.42 476.46,-450.13"/>
<polygon fill="midnightblue" stroke="midnightblue" points="475.46,-453.49 486.06,-453.45 477.75,-446.88 475.46,-453.49"/>
</g>
<!-- Node13 -->
<g id="node13" class="node">
<title>Node13</title>
<g id="a_node13"><a xlink:href="classQuantConnect_1_1SecurityIdentifier.html#a53953b18d814c5445e4ecdcb3b555080" target="_top" xlink:title="Generates a new SecurityIdentifier for a CFD security">
<polygon fill="white" stroke="black" points="481,-404.5 481,-434.5 655,-434.5 655,-404.5 481,-404.5"/>
<text text-anchor="start" x="489" y="-422.5" font-family="Helvetica,sans-Serif" font-size="10.00">QuantConnect.SecurityIdentifier.</text>
<text text-anchor="middle" x="568" y="-411.5" font-family="Helvetica,sans-Serif" font-size="10.00">GenerateCfd</text>
</a>
</g>
</g>
<!-- Node2&#45;&gt;Node13 -->
<g id="edge12" class="edge">
<title>Node2&#45;&gt;Node13</title>
<path fill="none" stroke="midnightblue" d="M356.03,-355.15C381.44,-366.03 424.66,-383.71 463,-395.5 470.35,-397.76 478.04,-399.92 485.79,-401.95"/>
<polygon fill="midnightblue" stroke="midnightblue" points="485.04,-405.37 495.59,-404.44 486.77,-398.58 485.04,-405.37"/>
</g>
<!-- Node14 -->
<g id="node14" class="node">
<title>Node14</title>
<g id="a_node14"><a xlink:href="classQuantConnect_1_1SecurityIdentifier.html#a5889a95a36ce927dd0a109cbfbcbe663" target="_top" xlink:title="Generates a new SecurityIdentifier for a Crypto pair">
<polygon fill="white" stroke="black" points="481,-355.5 481,-385.5 655,-385.5 655,-355.5 481,-355.5"/>
<text text-anchor="start" x="489" y="-373.5" font-family="Helvetica,sans-Serif" font-size="10.00">QuantConnect.SecurityIdentifier.</text>
<text text-anchor="middle" x="568" y="-362.5" font-family="Helvetica,sans-Serif" font-size="10.00">GenerateCrypto</text>
</a>
</g>
</g>
<!-- Node2&#45;&gt;Node14 -->
<g id="edge13" class="edge">
<title>Node2&#45;&gt;Node14</title>
<path fill="none" stroke="midnightblue" d="M413.53,-354.03C431.86,-356 451.55,-358.11 470.51,-360.15"/>
<polygon fill="midnightblue" stroke="midnightblue" points="470.33,-363.65 480.65,-361.23 471.08,-356.69 470.33,-363.65"/>
</g>
<!-- Node15 -->
<g id="node15" class="node">
<title>Node15</title>
<g id="a_node15"><a xlink:href="classQuantConnect_1_1SecurityIdentifier.html#ac665665a16d5449872fed3427b95a260" target="_top" xlink:title="Generates a new SecurityIdentifier for a CryptoFuture pair">
<polygon fill="white" stroke="black" points="481,-306.5 481,-336.5 655,-336.5 655,-306.5 481,-306.5"/>
<text text-anchor="start" x="489" y="-324.5" font-family="Helvetica,sans-Serif" font-size="10.00">QuantConnect.SecurityIdentifier.</text>
<text text-anchor="middle" x="568" y="-313.5" font-family="Helvetica,sans-Serif" font-size="10.00">GenerateCryptoFuture</text>
</a>
</g>
</g>
<!-- Node2&#45;&gt;Node15 -->
<g id="edge14" class="edge">
<title>Node2&#45;&gt;Node15</title>
<path fill="none" stroke="midnightblue" d="M413.53,-337.31C431.86,-335.42 451.55,-333.39 470.51,-331.44"/>
<polygon fill="midnightblue" stroke="midnightblue" points="471.06,-334.9 480.65,-330.39 470.34,-327.94 471.06,-334.9"/>
</g>
<!-- Node16 -->
<g id="node16" class="node">
<title>Node16</title>
<g id="a_node16"><a xlink:href="classQuantConnect_1_1SecurityIdentifier.html#a9cf0d3b208a5171e6112516ce441f18d" target="_top" xlink:title="Generates a new SecurityIdentifier for a forex pair">
<polygon fill="white" stroke="black" points="481,-257.5 481,-287.5 655,-287.5 655,-257.5 481,-257.5"/>
<text text-anchor="start" x="489" y="-275.5" font-family="Helvetica,sans-Serif" font-size="10.00">QuantConnect.SecurityIdentifier.</text>
<text text-anchor="middle" x="568" y="-264.5" font-family="Helvetica,sans-Serif" font-size="10.00">GenerateForex</text>
</a>
</g>
</g>
<!-- Node2&#45;&gt;Node16 -->
<g id="edge16" class="edge">
<title>Node2&#45;&gt;Node16</title>
<path fill="none" stroke="midnightblue" d="M357.02,-335.98C382.6,-325.62 425.29,-309 463,-297.5 471.54,-294.89 480.55,-292.38 489.54,-290.03"/>
<polygon fill="midnightblue" stroke="midnightblue" points="490.45,-293.41 499.27,-287.53 488.71,-286.63 490.45,-293.41"/>
</g>
<!-- Node17 -->
<g id="node17" class="node">
<title>Node17</title>
<g id="a_node17"><a xlink:href="classQuantConnect_1_1SecurityIdentifier.html#ad50a891c97cb0c084a9e2aa43607ed66" target="_top" xlink:title="Generates a new SecurityIdentifier for a future">
<polygon fill="white" stroke="black" points="481,-208.5 481,-238.5 655,-238.5 655,-208.5 481,-208.5"/>
<text text-anchor="start" x="489" y="-226.5" font-family="Helvetica,sans-Serif" font-size="10.00">QuantConnect.SecurityIdentifier.</text>
<text text-anchor="middle" x="568" y="-215.5" font-family="Helvetica,sans-Serif" font-size="10.00">GenerateFuture</text>
</a>
</g>
</g>
<!-- Node2&#45;&gt;Node17 -->
<g id="edge17" class="edge">
<title>Node2&#45;&gt;Node17</title>
<path fill="none" stroke="midnightblue" d="M343.75,-335.87C364.09,-316.33 413.32,-271.91 463,-248.5 468.22,-246.04 473.7,-243.81 479.31,-241.79"/>
<polygon fill="midnightblue" stroke="midnightblue" points="480.48,-245.09 488.84,-238.58 478.25,-238.45 480.48,-245.09"/>
</g>
<!-- Node18 -->
<g id="node18" class="node">
<title>Node18</title>
<g id="a_node18"><a xlink:href="classQuantConnect_1_1SecurityIdentifier.html#ade05a8e57b041ab484cf585be8d05699" target="_top" xlink:title="Generates a new SecurityIdentifier for a INDEX security">
<polygon fill="white" stroke="black" points="481,-159.5 481,-189.5 655,-189.5 655,-159.5 481,-159.5"/>
<text text-anchor="start" x="489" y="-177.5" font-family="Helvetica,sans-Serif" font-size="10.00">QuantConnect.SecurityIdentifier.</text>
<text text-anchor="middle" x="568" y="-166.5" font-family="Helvetica,sans-Serif" font-size="10.00">GenerateIndex</text>
</a>
</g>
</g>
<!-- Node2&#45;&gt;Node18 -->
<g id="edge18" class="edge">
<title>Node2&#45;&gt;Node18</title>
<path fill="none" stroke="midnightblue" d="M339.55,-335.85C355.23,-309.48 402.71,-235.76 463,-199.5 466.63,-197.32 470.43,-195.33 474.35,-193.51"/>
<polygon fill="midnightblue" stroke="midnightblue" points="475.83,-196.69 483.69,-189.58 473.11,-190.24 475.83,-196.69"/>
</g>
<!-- Node19 -->
<g id="node19" class="node">
<title>Node19</title>
<g id="a_node19"><a xlink:href="classQuantConnect_1_1Messages_1_1Symbol.html#ab801bef52a308b8ba7ba6d42e1ef1988" target="_top" xlink:title="Returns a string message saying the given security type has not been implemented yet">
<polygon fill="white" stroke="black" points="478,-110.5 478,-140.5 658,-140.5 658,-110.5 478,-110.5"/>
<text text-anchor="start" x="486" y="-128.5" font-family="Helvetica,sans-Serif" font-size="10.00">QuantConnect.Messages.Symbol.</text>
<text text-anchor="middle" x="568" y="-117.5" font-family="Helvetica,sans-Serif" font-size="10.00">SecurityTypeNotImplementedYet</text>
</a>
</g>
</g>
<!-- Node2&#45;&gt;Node19 -->
<g id="edge19" class="edge">
<title>Node2&#45;&gt;Node19</title>
<path fill="none" stroke="midnightblue" d="M337.37,-335.95C349.12,-304.08 391.52,-200.58 463,-150.5 465.86,-148.49 468.87,-146.65 471.97,-144.95"/>
<polygon fill="midnightblue" stroke="midnightblue" points="473.54,-148.08 480.98,-140.54 470.46,-141.79 473.54,-148.08"/>
</g>
<!-- Node3&#45;&gt;Node4 -->
<g id="edge3" class="edge">
<title>Node3&#45;&gt;Node4</title>
<path fill="none" stroke="midnightblue" d="M648.65,-567.9C666.21,-570.42 685.01,-573.11 703.15,-575.71"/>
<polygon fill="midnightblue" stroke="midnightblue" points="702.76,-579.19 713.16,-577.14 703.76,-572.26 702.76,-579.19"/>
</g>
<!-- Node3&#45;&gt;Node5 -->
<g id="edge4" class="edge">
<title>Node3&#45;&gt;Node5</title>
<path fill="none" stroke="midnightblue" d="M648.65,-545.1C672.67,-541.66 698.99,-537.89 722.81,-534.48"/>
<polygon fill="midnightblue" stroke="midnightblue" points="723.46,-537.92 732.86,-533.04 722.46,-530.99 723.46,-537.92"/>
</g>
<!-- Node6 -->
<g id="node6" class="node">
<title>Node6</title>
<g id="a_node6"><a xlink:href="classQuantConnect_1_1Symbol.html#a59b0795fa21f46c306deb5576fa03bb9" target="_top" xlink:title="Centralized helper method to resolve alias for a symbol">
<polygon fill="white" stroke="black" points="928,-514 928,-533 1098,-533 1098,-514 928,-514"/>
<text text-anchor="middle" x="1013" y="-521" font-family="Helvetica,sans-Serif" font-size="10.00">QuantConnect.Symbol.GetAlias</text>
</a>
</g>
</g>
<!-- Node5&#45;&gt;Node6 -->
<g id="edge5" class="edge">
<title>Node5&#45;&gt;Node6</title>
<path fill="none" stroke="midnightblue" d="M883.19,-523.5C894.54,-523.5 906.27,-523.5 917.83,-523.5"/>
<polygon fill="midnightblue" stroke="midnightblue" points="917.93,-527 927.93,-523.5 917.93,-520 917.93,-527"/>
</g>
<!-- Node7 -->
<g id="node7" class="node">
<title>Node7</title>
<g id="a_node7"><a xlink:href="classQuantConnect_1_1SymbolRepresentation.html#ad43ac907f6c19083821f58f21c6de017" target="_top" xlink:title="Returns future symbol ticker from underlying and expiration date. Function can generate tickers of tw...">
<polygon fill="white" stroke="black" points="1134,-536.5 1134,-566.5 1337,-566.5 1337,-536.5 1134,-536.5"/>
<text text-anchor="start" x="1142" y="-554.5" font-family="Helvetica,sans-Serif" font-size="10.00">QuantConnect.SymbolRepresentation.</text>
<text text-anchor="middle" x="1235.5" y="-543.5" font-family="Helvetica,sans-Serif" font-size="10.00">GenerateFutureTicker</text>
</a>
</g>
</g>
<!-- Node6&#45;&gt;Node7 -->
<g id="edge6" class="edge">
<title>Node6&#45;&gt;Node7</title>
<path fill="none" stroke="midnightblue" d="M1088.96,-533.02C1100.27,-534.46 1112.14,-535.96 1124.01,-537.47"/>
<polygon fill="midnightblue" stroke="midnightblue" points="1123.62,-540.95 1133.98,-538.74 1124.5,-534 1123.62,-540.95"/>
</g>
<!-- Node9 -->
<g id="node9" class="node">
<title>Node9</title>
<g id="a_node9"><a xlink:href="classQuantConnect_1_1SymbolRepresentation.html#ab133044f5cf8c16e700190a2202b215e" target="_top" xlink:title="Returns option symbol ticker in accordance with OSI symbology More information can be found at http:/...">
<polygon fill="white" stroke="black" points="1134,-484.5 1134,-514.5 1337,-514.5 1337,-484.5 1134,-484.5"/>
<text text-anchor="start" x="1142" y="-502.5" font-family="Helvetica,sans-Serif" font-size="10.00">QuantConnect.SymbolRepresentation.</text>
<text text-anchor="middle" x="1235.5" y="-491.5" font-family="Helvetica,sans-Serif" font-size="10.00">GenerateOptionTickerOSI</text>
</a>
</g>
</g>
<!-- Node6&#45;&gt;Node9 -->
<g id="edge8" class="edge">
<title>Node6&#45;&gt;Node9</title>
<path fill="none" stroke="midnightblue" d="M1098.31,-514.32C1106.69,-513.41 1115.3,-512.47 1123.9,-511.54"/>
<polygon fill="midnightblue" stroke="midnightblue" points="1124.43,-515 1133.99,-510.44 1123.67,-508.04 1124.43,-515"/>
</g>
<!-- Node8 -->
<g id="node8" class="node">
<title>Node8</title>
<g id="a_node8"><a xlink:href="classQuantConnect_1_1Securities_1_1Future_1_1FuturesExpiryUtilityFunctions.html#a4ccb1e2f2fe40ff09785a74a02f26df1" target="_top" xlink:title="Gets the number of months between the contract month and the expiry date.">
<polygon fill="white" stroke="black" points="1373,-534 1373,-575 1639,-575 1639,-534 1373,-534"/>
<text text-anchor="start" x="1381" y="-563" font-family="Helvetica,sans-Serif" font-size="10.00">QuantConnect.Securities.</text>
<text text-anchor="start" x="1381" y="-552" font-family="Helvetica,sans-Serif" font-size="10.00">Future.FuturesExpiryUtilityFunctions.</text>
<text text-anchor="middle" x="1506" y="-541" font-family="Helvetica,sans-Serif" font-size="10.00">GetDeltaBetweenContractMonthAndContractExpiry</text>
</a>
</g>
</g>
<!-- Node7&#45;&gt;Node8 -->
<g id="edge7" class="edge">
<title>Node7&#45;&gt;Node8</title>
<path fill="none" stroke="midnightblue" d="M1337.24,-552.63C1345.59,-552.72 1354.11,-552.81 1362.68,-552.91"/>
<polygon fill="midnightblue" stroke="midnightblue" points="1362.72,-556.41 1372.76,-553.02 1362.8,-549.41 1362.72,-556.41"/>
</g>
<!-- Node10 -->
<g id="node10" class="node">
<title>Node10</title>
<g id="a_node10"><a xlink:href="classQuantConnect_1_1Messages_1_1SymbolRepresentation.html#a2c514157d8055cfa271ea3a7ca1ccde7" target="_top" xlink:title="Returns a string message saying an unexpected security type was received by the given method name">
<polygon fill="white" stroke="black" points="1410,-474 1410,-515 1602,-515 1602,-474 1410,-474"/>
<text text-anchor="start" x="1418" y="-503" font-family="Helvetica,sans-Serif" font-size="10.00">QuantConnect.Messages.Symbol</text>
<text text-anchor="start" x="1418" y="-492" font-family="Helvetica,sans-Serif" font-size="10.00">Representation.UnexpectedSecurity</text>
<text text-anchor="middle" x="1506" y="-481" font-family="Helvetica,sans-Serif" font-size="10.00">TypeForMethod</text>
</a>
</g>
</g>
<!-- Node9&#45;&gt;Node10 -->
<g id="edge9" class="edge">
<title>Node9&#45;&gt;Node10</title>
<path fill="none" stroke="midnightblue" d="M1337.24,-497.62C1357.7,-497.24 1379.27,-496.84 1399.88,-496.46"/>
<polygon fill="midnightblue" stroke="midnightblue" points="1399.98,-499.96 1409.91,-496.27 1399.85,-492.96 1399.98,-499.96"/>
</g>
<!-- Node12 -->
<g id="node12" class="node">
<title>Node12</title>
<g id="a_node12"><a xlink:href="classQuantConnect_1_1SecurityIdentifier.html#a19e1f9da410608020d74ed9e7d283575" target="_top" xlink:title="Generates the Symbol property for QuantConnect.SecurityType.Base security identifiers">
<polygon fill="white" stroke="black" points="713.5,-453.5 713.5,-483.5 887.5,-483.5 887.5,-453.5 713.5,-453.5"/>
<text text-anchor="start" x="721.5" y="-471.5" font-family="Helvetica,sans-Serif" font-size="10.00">QuantConnect.SecurityIdentifier.</text>
<text text-anchor="middle" x="800.5" y="-460.5" font-family="Helvetica,sans-Serif" font-size="10.00">GenerateBaseSymbol</text>
</a>
</g>
</g>
<!-- Node11&#45;&gt;Node12 -->
<g id="edge11" class="edge">
<title>Node11&#45;&gt;Node12</title>
<path fill="none" stroke="midnightblue" d="M655.16,-468.5C670.79,-468.5 687.18,-468.5 703.08,-468.5"/>
<polygon fill="midnightblue" stroke="midnightblue" points="703.45,-472 713.45,-468.5 703.45,-465 703.45,-472"/>
</g>
<!-- Node21 -->
<g id="node21" class="node">
<title>Node21</title>
<g id="a_node21"><a xlink:href="classQuantConnect_1_1Securities_1_1SecurityManager.html#a3ac388b31cf00c501b738b751427b883" target="_top" xlink:title="Creates a new benchmark security">
<polygon fill="white" stroke="black" points="473.5,-50 473.5,-91 662.5,-91 662.5,-50 473.5,-50"/>
<text text-anchor="start" x="481.5" y="-79" font-family="Helvetica,sans-Serif" font-size="10.00">QuantConnect.Securities.</text>
<text text-anchor="start" x="481.5" y="-68" font-family="Helvetica,sans-Serif" font-size="10.00">SecurityManager.CreateBenchmark</text>
<text text-anchor="middle" x="568" y="-57" font-family="Helvetica,sans-Serif" font-size="10.00">Security</text>
</a>
</g>
</g>
<!-- Node20&#45;&gt;Node21 -->
<g id="edge22" class="edge">
<title>Node20&#45;&gt;Node21</title>
<path fill="none" stroke="midnightblue" d="M427.09,-70.5C438.98,-70.5 451.2,-70.5 463.24,-70.5"/>
<polygon fill="midnightblue" stroke="midnightblue" points="463.29,-74 473.29,-70.5 463.29,-67 463.29,-74"/>
</g>
<!-- Node23 -->
<g id="node23" class="node">
<title>Node23</title>
<g id="a_node23"><a xlink:href="classQuantConnect_1_1Benchmarks_1_1SecurityBenchmark.html#a45a12b43bac87b210770258630e56622" target="_top" xlink:title="Initializes a new instance of the SecurityBenchmark class">
<polygon fill="white" stroke="black" points="463,-0.5 463,-30.5 673,-30.5 673,-0.5 463,-0.5"/>
<text text-anchor="start" x="471" y="-18.5" font-family="Helvetica,sans-Serif" font-size="10.00">QuantConnect.Benchmarks.</text>
<text text-anchor="middle" x="568" y="-7.5" font-family="Helvetica,sans-Serif" font-size="10.00">SecurityBenchmark.SecurityBenchmark</text>
</a>
</g>
</g>
<!-- Node20&#45;&gt;Node23 -->
<g id="edge24" class="edge">
<title>Node20&#45;&gt;Node23</title>
<path fill="none" stroke="midnightblue" d="M397.67,-55.47C427.33,-48.47 462.8,-40.1 493.59,-32.83"/>
<polygon fill="midnightblue" stroke="midnightblue" points="494.48,-36.21 503.41,-30.51 492.87,-29.4 494.48,-36.21"/>
</g>
<!-- Node22 -->
<g id="node22" class="node">
<title>Node22</title>
<g id="a_node22"><a xlink:href="classQuantConnect_1_1Securities_1_1SecurityService.html#aa449d8886d5728a00e44b9aea24ad036" target="_top" xlink:title="Creates a new security">
<polygon fill="white" stroke="black" points="709,-50 709,-91 892,-91 892,-50 709,-50"/>
<text text-anchor="start" x="717" y="-79" font-family="Helvetica,sans-Serif" font-size="10.00">QuantConnect.Securities.</text>
<text text-anchor="start" x="717" y="-68" font-family="Helvetica,sans-Serif" font-size="10.00">SecurityService.CreateBenchmark</text>
<text text-anchor="middle" x="800.5" y="-57" font-family="Helvetica,sans-Serif" font-size="10.00">Security</text>
</a>
</g>
</g>
<!-- Node21&#45;&gt;Node22 -->
<g id="edge23" class="edge">
<title>Node21&#45;&gt;Node22</title>
<path fill="none" stroke="midnightblue" d="M662.75,-70.5C674.63,-70.5 686.83,-70.5 698.81,-70.5"/>
<polygon fill="midnightblue" stroke="midnightblue" points="698.81,-74 708.81,-70.5 698.81,-67 698.81,-74"/>
</g>
</g>
</svg>
