<?xml version="1.0" encoding="UTF-8" standalone="no"?>
<!DOCTYPE svg PUBLIC "-//W3C//DTD SVG 1.1//EN"
 "http://www.w3.org/Graphics/SVG/1.1/DTD/svg11.dtd">
<!-- Generated by graphviz version 2.43.0 (0)
 -->
<!-- Title: QuantConnect.Scheduling.BaseScheduleRules.GetSecurityExchangeHours Pages: 1 -->
<!--zoomable 431 -->
<svg id="main" version="1.1" xmlns="http://www.w3.org/2000/svg" xmlns:xlink="http://www.w3.org/1999/xlink" xml:space="preserve" onload="init(evt)">
<style type="text/css"><![CDATA[
.edge:hover path { stroke: red; }
.edge:hover polygon { stroke: red; fill: red; }
]]></style>
<script type="text/javascript"><![CDATA[
var edges = document.getElementsByTagName('g');
if (edges && edges.length) {
  for (var i=0;i<edges.length;i++) {
    if (edges[i].id.substr(0,4)=='edge') {
      edges[i].setAttribute('class','edge');
    }
  }
}
]]></script>
        <defs>
                <circle id="rim" cx="0" cy="0" r="7"/>
                <circle id="rim2" cx="0" cy="0" r="3.5"/>
                <g id="zoomPlus">
                        <use xlink:href="#rim" fill="#404040">
                                <set attributeName="fill" to="#808080" begin="zoomplus.mouseover" end="zoomplus.mouseout"/>
                        </use>
                        <path d="M-4,0h8M0,-4v8" fill="none" stroke="white" stroke-width="1.5" pointer-events="none"/>
                </g>
                <g id="zoomMin">
                        <use xlink:href="#rim" fill="#404040">
                                <set attributeName="fill" to="#808080" begin="zoomminus.mouseover" end="zoomminus.mouseout"/>
                        </use>
                        <path d="M-4,0h8" fill="none" stroke="white" stroke-width="1.5" pointer-events="none"/>
                </g>
                <g id="dirArrow">
                        <path fill="none" stroke="white" stroke-width="1.5" d="M0,-3.0v7 M-2.5,-0.5L0,-3.0L2.5,-0.5"/>
                </g>
               <g id="resetDef">
                       <use xlink:href="#rim2" fill="#404040">
                               <set attributeName="fill" to="#808080" begin="reset.mouseover" end="reset.mouseout"/>
                       </use>
               </g>
        </defs>

<script type="text/javascript">
var viewWidth = 579;
var viewHeight = 431;
var sectionId = 'dynsection-2';
</script>
<script xlink:href="svgpan.js"/>
<svg id="graph" class="graph">
<g id="viewport">
<title>QuantConnect.Scheduling.BaseScheduleRules.GetSecurityExchangeHours</title>
<polygon fill="white" stroke="transparent" points="-4,4 -4,-427 575,-427 575,4 -4,4"/>
<!-- Node1 -->
<g id="node1" class="node">
<title>Node1</title>
<g id="a_node1"><a xlink:title="Helper method to fetch the security exchange hours">
<polygon fill="#bfbfbf" stroke="black" points="399,-191 399,-232 571,-232 571,-191 399,-191"/>
<text text-anchor="start" x="407" y="-220" font-family="Helvetica,sans-Serif" font-size="10.00">QuantConnect.Scheduling.</text>
<text text-anchor="start" x="407" y="-209" font-family="Helvetica,sans-Serif" font-size="10.00">BaseScheduleRules.GetSecurity</text>
<text text-anchor="middle" x="485" y="-198" font-family="Helvetica,sans-Serif" font-size="10.00">ExchangeHours</text>
</a>
</g>
</g>
<!-- Node2 -->
<g id="node2" class="node">
<title>Node2</title>
<g id="a_node2"><a xlink:href="classQuantConnect_1_1Scheduling_1_1TimeRules.html#aacb20273a2690ca8196b2816f95fbae8" target="_top" xlink:title="Specifies an event should fire at market open +&#45; minutesAfterOpen">
<polygon fill="white" stroke="black" points="204,-392.5 204,-422.5 358,-422.5 358,-392.5 204,-392.5"/>
<text text-anchor="start" x="212" y="-410.5" font-family="Helvetica,sans-Serif" font-size="10.00">QuantConnect.Scheduling.</text>
<text text-anchor="middle" x="281" y="-399.5" font-family="Helvetica,sans-Serif" font-size="10.00">TimeRules.AfterMarketOpen</text>
</a>
</g>
</g>
<!-- Node1&#45;&gt;Node2 -->
<g id="edge1" class="edge">
<title>Node1&#45;&gt;Node2</title>
<path fill="none" stroke="midnightblue" d="M470.81,-241.27C452.25,-279.77 414.8,-346.29 363,-383.5 358.24,-386.92 352.98,-389.86 347.51,-392.38"/>
<polygon fill="midnightblue" stroke="midnightblue" points="474.03,-242.66 475.12,-232.12 467.7,-239.67 474.03,-242.66"/>
</g>
<!-- Node4 -->
<g id="node4" class="node">
<title>Node4</title>
<g id="a_node4"><a xlink:href="classQuantConnect_1_1Scheduling_1_1TimeRules.html#a2deae02e63a372ec702f2bc8b1233506" target="_top" xlink:title="Specifies an event should fire at the market close +&#45; minutesBeforeClose">
<polygon fill="white" stroke="black" points="199,-343.5 199,-373.5 363,-373.5 363,-343.5 199,-343.5"/>
<text text-anchor="start" x="207" y="-361.5" font-family="Helvetica,sans-Serif" font-size="10.00">QuantConnect.Scheduling.</text>
<text text-anchor="middle" x="281" y="-350.5" font-family="Helvetica,sans-Serif" font-size="10.00">TimeRules.BeforeMarketClose</text>
</a>
</g>
</g>
<!-- Node1&#45;&gt;Node4 -->
<g id="edge3" class="edge">
<title>Node1&#45;&gt;Node4</title>
<path fill="none" stroke="midnightblue" d="M462.84,-240.27C440.85,-268.21 403.96,-309.9 363,-334.5 357.34,-337.9 351.17,-340.84 344.84,-343.39"/>
<polygon fill="midnightblue" stroke="midnightblue" points="465.83,-242.13 469.18,-232.08 460.29,-237.85 465.83,-242.13"/>
</g>
<!-- Node6 -->
<g id="node6" class="node">
<title>Node6</title>
<g id="a_node6"><a xlink:href="classQuantConnect_1_1Scheduling_1_1DateRules.html#a23f8d3cbd970618eee50ab0d4b669450" target="_top" xlink:title="Specifies an event should fire every day the symbol is trading">
<polygon fill="white" stroke="black" points="208.5,-294.5 208.5,-324.5 353.5,-324.5 353.5,-294.5 208.5,-294.5"/>
<text text-anchor="start" x="216.5" y="-312.5" font-family="Helvetica,sans-Serif" font-size="10.00">QuantConnect.Scheduling.</text>
<text text-anchor="middle" x="281" y="-301.5" font-family="Helvetica,sans-Serif" font-size="10.00">DateRules.EveryDay</text>
</a>
</g>
</g>
<!-- Node1&#45;&gt;Node6 -->
<g id="edge5" class="edge">
<title>Node1&#45;&gt;Node6</title>
<path fill="none" stroke="midnightblue" d="M446.36,-238.06C423.16,-253.51 392.33,-272.46 363,-285.5 355.63,-288.78 347.69,-291.76 339.76,-294.41"/>
<polygon fill="midnightblue" stroke="midnightblue" points="448.53,-240.82 454.86,-232.32 444.61,-235.01 448.53,-240.82"/>
</g>
<!-- Node7 -->
<g id="node7" class="node">
<title>Node7</title>
<g id="a_node7"><a xlink:href="classQuantConnect_1_1Scheduling_1_1DateRules.html#ae8eb573fd3b2b66f5f9d07e5fca15802" target="_top" xlink:title="Specifies an event should fire on the last tradable date &#45; offset for the specified symbol of each mo...">
<polygon fill="white" stroke="black" points="208.5,-245.5 208.5,-275.5 353.5,-275.5 353.5,-245.5 208.5,-245.5"/>
<text text-anchor="start" x="216.5" y="-263.5" font-family="Helvetica,sans-Serif" font-size="10.00">QuantConnect.Scheduling.</text>
<text text-anchor="middle" x="281" y="-252.5" font-family="Helvetica,sans-Serif" font-size="10.00">DateRules.MonthEnd</text>
</a>
</g>
</g>
<!-- Node1&#45;&gt;Node7 -->
<g id="edge6" class="edge">
<title>Node1&#45;&gt;Node7</title>
<path fill="none" stroke="midnightblue" d="M389.14,-234.51C373.76,-238.24 358.18,-242.02 343.85,-245.5"/>
<polygon fill="midnightblue" stroke="midnightblue" points="390.32,-237.83 399.21,-232.07 388.67,-231.02 390.32,-237.83"/>
</g>
<!-- Node8 -->
<g id="node8" class="node">
<title>Node8</title>
<g id="a_node8"><a xlink:href="classQuantConnect_1_1Scheduling_1_1DateRules.html#a8057a52286258fa4fd06ff306c5f2610" target="_top" xlink:title="Specifies an event should fire on the first tradable date + offset for the specified symbol of each m...">
<polygon fill="white" stroke="black" points="208.5,-196.5 208.5,-226.5 353.5,-226.5 353.5,-196.5 208.5,-196.5"/>
<text text-anchor="start" x="216.5" y="-214.5" font-family="Helvetica,sans-Serif" font-size="10.00">QuantConnect.Scheduling.</text>
<text text-anchor="middle" x="281" y="-203.5" font-family="Helvetica,sans-Serif" font-size="10.00">DateRules.MonthStart</text>
</a>
</g>
</g>
<!-- Node1&#45;&gt;Node8 -->
<g id="edge7" class="edge">
<title>Node1&#45;&gt;Node8</title>
<path fill="none" stroke="midnightblue" d="M388.6,-211.5C376.81,-211.5 364.92,-211.5 353.57,-211.5"/>
<polygon fill="midnightblue" stroke="midnightblue" points="388.92,-215 398.92,-211.5 388.92,-208 388.92,-215"/>
</g>
<!-- Node9 -->
<g id="node9" class="node">
<title>Node9</title>
<g id="a_node9"><a xlink:href="classQuantConnect_1_1Scheduling_1_1DateRules.html#ab00974a063d5415f5a754717807ab697" target="_top" xlink:title="Specifies an event should fire on the last &#45; offset tradable date for the specified symbol of each we...">
<polygon fill="white" stroke="black" points="208.5,-147.5 208.5,-177.5 353.5,-177.5 353.5,-147.5 208.5,-147.5"/>
<text text-anchor="start" x="216.5" y="-165.5" font-family="Helvetica,sans-Serif" font-size="10.00">QuantConnect.Scheduling.</text>
<text text-anchor="middle" x="281" y="-154.5" font-family="Helvetica,sans-Serif" font-size="10.00">DateRules.WeekEnd</text>
</a>
</g>
</g>
<!-- Node1&#45;&gt;Node9 -->
<g id="edge8" class="edge">
<title>Node1&#45;&gt;Node9</title>
<path fill="none" stroke="midnightblue" d="M389.14,-188.49C373.76,-184.76 358.18,-180.98 343.85,-177.5"/>
<polygon fill="midnightblue" stroke="midnightblue" points="388.67,-191.98 399.21,-190.93 390.32,-185.17 388.67,-191.98"/>
</g>
<!-- Node10 -->
<g id="node10" class="node">
<title>Node10</title>
<g id="a_node10"><a xlink:href="classQuantConnect_1_1Scheduling_1_1DateRules.html#a1d9c08be5770b6d7fe3f8d4e35529b40" target="_top" xlink:title="Specifies an event should fire on the first tradable date + offset for the specified symbol each week">
<polygon fill="white" stroke="black" points="208.5,-98.5 208.5,-128.5 353.5,-128.5 353.5,-98.5 208.5,-98.5"/>
<text text-anchor="start" x="216.5" y="-116.5" font-family="Helvetica,sans-Serif" font-size="10.00">QuantConnect.Scheduling.</text>
<text text-anchor="middle" x="281" y="-105.5" font-family="Helvetica,sans-Serif" font-size="10.00">DateRules.WeekStart</text>
</a>
</g>
</g>
<!-- Node1&#45;&gt;Node10 -->
<g id="edge9" class="edge">
<title>Node1&#45;&gt;Node10</title>
<path fill="none" stroke="midnightblue" d="M445.78,-185.14C422.6,-170 391.99,-151.48 363,-138.5 354.81,-134.83 345.92,-131.49 337.13,-128.53"/>
<polygon fill="midnightblue" stroke="midnightblue" points="444.01,-188.17 454.28,-190.76 447.87,-182.33 444.01,-188.17"/>
</g>
<!-- Node11 -->
<g id="node11" class="node">
<title>Node11</title>
<g id="a_node11"><a xlink:href="classQuantConnect_1_1Scheduling_1_1DateRules.html#a49400f109cc972bf0c5764cb372d4e24" target="_top" xlink:title="Specifies an event should fire on the last tradable date &#45; offset for the specified symbol of each ye...">
<polygon fill="white" stroke="black" points="208.5,-49.5 208.5,-79.5 353.5,-79.5 353.5,-49.5 208.5,-49.5"/>
<text text-anchor="start" x="216.5" y="-67.5" font-family="Helvetica,sans-Serif" font-size="10.00">QuantConnect.Scheduling.</text>
<text text-anchor="middle" x="281" y="-56.5" font-family="Helvetica,sans-Serif" font-size="10.00">DateRules.YearEnd</text>
</a>
</g>
</g>
<!-- Node1&#45;&gt;Node11 -->
<g id="edge10" class="edge">
<title>Node1&#45;&gt;Node11</title>
<path fill="none" stroke="midnightblue" d="M462.35,-182.6C440.24,-154.97 403.47,-114 363,-89.5 356.71,-85.69 349.78,-82.41 342.71,-79.61"/>
<polygon fill="midnightblue" stroke="midnightblue" points="459.8,-185.01 468.74,-190.71 465.3,-180.69 459.8,-185.01"/>
</g>
<!-- Node12 -->
<g id="node12" class="node">
<title>Node12</title>
<g id="a_node12"><a xlink:href="classQuantConnect_1_1Scheduling_1_1DateRules.html#a315790184739cc5b0a4e326a310da2a3" target="_top" xlink:title="Specifies an event should fire on the first tradable date + offset for the specified symbol of each y...">
<polygon fill="white" stroke="black" points="208.5,-0.5 208.5,-30.5 353.5,-30.5 353.5,-0.5 208.5,-0.5"/>
<text text-anchor="start" x="216.5" y="-18.5" font-family="Helvetica,sans-Serif" font-size="10.00">QuantConnect.Scheduling.</text>
<text text-anchor="middle" x="281" y="-7.5" font-family="Helvetica,sans-Serif" font-size="10.00">DateRules.YearStart</text>
</a>
</g>
</g>
<!-- Node1&#45;&gt;Node12 -->
<g id="edge11" class="edge">
<title>Node1&#45;&gt;Node12</title>
<path fill="none" stroke="midnightblue" d="M470.56,-181.69C451.82,-143.47 414.31,-77.69 363,-40.5 357.64,-36.61 351.66,-33.32 345.44,-30.53"/>
<polygon fill="midnightblue" stroke="midnightblue" points="467.43,-183.27 474.91,-190.78 473.75,-180.25 467.43,-183.27"/>
</g>
<!-- Node3 -->
<g id="node3" class="node">
<title>Node3</title>
<g id="a_node3"><a xlink:href="classQuantConnect_1_1Scheduling_1_1TimeRules.html#a45b0c2d5ec0bc5e41dd6ddecd4131fac" target="_top" xlink:title="Specifies an event should fire at market open +&#45; minutesBeforeOpen">
<polygon fill="white" stroke="black" points="0,-392.5 0,-422.5 163,-422.5 163,-392.5 0,-392.5"/>
<text text-anchor="start" x="8" y="-410.5" font-family="Helvetica,sans-Serif" font-size="10.00">QuantConnect.Scheduling.</text>
<text text-anchor="middle" x="81.5" y="-399.5" font-family="Helvetica,sans-Serif" font-size="10.00">TimeRules.BeforeMarketOpen</text>
</a>
</g>
</g>
<!-- Node2&#45;&gt;Node3 -->
<g id="edge2" class="edge">
<title>Node2&#45;&gt;Node3</title>
<path fill="none" stroke="midnightblue" d="M193.81,-407.5C183.61,-407.5 173.24,-407.5 163.12,-407.5"/>
<polygon fill="midnightblue" stroke="midnightblue" points="193.92,-411 203.92,-407.5 193.92,-404 193.92,-411"/>
</g>
<!-- Node5 -->
<g id="node5" class="node">
<title>Node5</title>
<g id="a_node5"><a xlink:href="classQuantConnect_1_1Scheduling_1_1TimeRules.html#a7f695b64a51ca1d190e205f977e8e60d" target="_top" xlink:title="Specifies an event should fire at the market close +&#45; minutesAfterClose">
<polygon fill="white" stroke="black" points="4,-343.5 4,-373.5 159,-373.5 159,-343.5 4,-343.5"/>
<text text-anchor="start" x="12" y="-361.5" font-family="Helvetica,sans-Serif" font-size="10.00">QuantConnect.Scheduling.</text>
<text text-anchor="middle" x="81.5" y="-350.5" font-family="Helvetica,sans-Serif" font-size="10.00">TimeRules.AfterMarketClose</text>
</a>
</g>
</g>
<!-- Node4&#45;&gt;Node5 -->
<g id="edge4" class="edge">
<title>Node4&#45;&gt;Node5</title>
<path fill="none" stroke="midnightblue" d="M188.62,-358.5C178.8,-358.5 168.87,-358.5 159.24,-358.5"/>
<polygon fill="midnightblue" stroke="midnightblue" points="188.81,-362 198.81,-358.5 188.81,-355 188.81,-362"/>
</g>
</g>
</svg>
        <g id="navigator" transform="translate(0 0)" fill="#404254">
                <rect fill="#f2f5e9" fill-opacity="0.5" stroke="#606060" stroke-width=".5" x="0" y="0" width="60" height="60"/>
                <use id="zoomplus" xlink:href="#zoomPlus" x="17" y="9" onmousedown="handleZoom(evt,'in')"/>
                <use id="zoomminus" xlink:href="#zoomMin" x="42" y="9" onmousedown="handleZoom(evt,'out')"/>
                <use id="reset" xlink:href="#resetDef" x="30" y="36" onmousedown="handleReset()"/>
                <g id="arrowUp" xlink:href="#dirArrow" transform="translate(30 24)" onmousedown="handlePan(0,-1)">
                  <use xlink:href="#rim" fill="#404040">
                        <set attributeName="fill" to="#808080" begin="arrowUp.mouseover" end="arrowUp.mouseout"/>
                  </use>
                  <path fill="none" stroke="white" stroke-width="1.5" d="M0,-3.0v7 M-2.5,-0.5L0,-3.0L2.5,-0.5"/>
                </g>
                <g id="arrowRight" xlink:href="#dirArrow" transform="rotate(90) translate(36 -43)" onmousedown="handlePan(1,0)">
                  <use xlink:href="#rim" fill="#404040">
                        <set attributeName="fill" to="#808080" begin="arrowRight.mouseover" end="arrowRight.mouseout"/>
                  </use>
                  <path fill="none" stroke="white" stroke-width="1.5" d="M0,-3.0v7 M-2.5,-0.5L0,-3.0L2.5,-0.5"/>
                </g>
                <g id="arrowDown" xlink:href="#dirArrow" transform="rotate(180) translate(-30 -48)" onmousedown="handlePan(0,1)">
                  <use xlink:href="#rim" fill="#404040">
                        <set attributeName="fill" to="#808080" begin="arrowDown.mouseover" end="arrowDown.mouseout"/>
                  </use>
                  <path fill="none" stroke="white" stroke-width="1.5" d="M0,-3.0v7 M-2.5,-0.5L0,-3.0L2.5,-0.5"/>
                </g>
                <g id="arrowLeft" xlink:href="#dirArrow" transform="rotate(270) translate(-36 17)" onmousedown="handlePan(-1,0)">
                  <use xlink:href="#rim" fill="#404040">
                        <set attributeName="fill" to="#808080" begin="arrowLeft.mouseover" end="arrowLeft.mouseout"/>
                  </use>
                  <path fill="none" stroke="white" stroke-width="1.5" d="M0,-3.0v7 M-2.5,-0.5L0,-3.0L2.5,-0.5"/>
                </g>
        </g>
        <svg viewBox="0 0 15 15" width="100%" height="30px" preserveAspectRatio="xMaxYMin meet">
         <g id="arrow_out" transform="scale(0.3 0.3)">
          <a xlink:href="classQuantConnect_1_1Scheduling_1_1BaseScheduleRules_a7f7f5459a775e24b528b7c58ebe6fe77_icgraph_org.svg" target="_base">
           <rect id="button" ry="5" rx="5" y="6" x="6" height="38" width="38"
                fill="#f2f5e9" fill-opacity="0.5" stroke="#606060" stroke-width="1.0"/>
           <path id="arrow"
             d="M 11.500037,31.436501 C 11.940474,20.09759 22.043105,11.32322 32.158766,21.979434 L 37.068811,17.246167 C 37.068811,17.246167 37.088388,32 37.088388,32 L 22.160133,31.978069 C 22.160133,31.978069 26.997745,27.140456 26.997745,27.140456 C 18.528582,18.264221 13.291696,25.230495 11.500037,31.436501 z"
             style="fill:#404040;"/>
          </a>
         </g>
        </svg>
</svg>
