<?xml version="1.0" encoding="UTF-8" standalone="no"?>
<!DOCTYPE svg PUBLIC "-//W3C//DTD SVG 1.1//EN"
 "http://www.w3.org/Graphics/SVG/1.1/DTD/svg11.dtd">
<!-- Generated by graphviz version 2.43.0 (0)
 -->
<!-- Title: QuantConnect.Data.Market.OptionChain Pages: 1 -->
<svg width="281pt" height="207pt"
 viewBox="0.00 0.00 280.50 207.00" xmlns="http://www.w3.org/2000/svg" xmlns:xlink="http://www.w3.org/1999/xlink">
<g id="graph0" class="graph" transform="scale(1 1) rotate(0) translate(4 203)">
<title>QuantConnect.Data.Market.OptionChain</title>
<polygon fill="white" stroke="transparent" points="-4,4 -4,-203 276.5,-203 276.5,4 -4,4"/>
<!-- Node1 -->
<g id="node1" class="node">
<title>Node1</title>
<g id="a_node1"><a xlink:title="Represents an entire chain of option contracts for a single underying security. This type is IEnumera...">
<polygon fill="#bfbfbf" stroke="black" points="40.5,-0.5 40.5,-30.5 192.5,-30.5 192.5,-0.5 40.5,-0.5"/>
<text text-anchor="start" x="48.5" y="-18.5" font-family="Helvetica,sans-Serif" font-size="10.00">QuantConnect.Data.Market.</text>
<text text-anchor="middle" x="116.5" y="-7.5" font-family="Helvetica,sans-Serif" font-size="10.00">OptionChain</text>
</a>
</g>
</g>
<!-- Node2 -->
<g id="node2" class="node">
<title>Node2</title>
<g id="a_node2"><a xlink:href="classQuantConnect_1_1Data_1_1BaseData.html" target="_top" xlink:title="Abstract base data class of QuantConnect. It is intended to be extended to define generic user custom...">
<polygon fill="white" stroke="black" points="16.5,-67.5 16.5,-86.5 80.5,-86.5 80.5,-67.5 16.5,-67.5"/>
<text text-anchor="middle" x="48.5" y="-74.5" font-family="Helvetica,sans-Serif" font-size="10.00">BaseData</text>
</a>
</g>
</g>
<!-- Node2&#45;&gt;Node1 -->
<g id="edge1" class="edge">
<title>Node2&#45;&gt;Node1</title>
<path fill="none" stroke="midnightblue" d="M66.05,-60.65C76.68,-51.35 90.13,-39.57 100.47,-30.52"/>
<polygon fill="midnightblue" stroke="midnightblue" points="63.46,-58.26 58.24,-67.48 68.07,-63.52 63.46,-58.26"/>
</g>
<!-- Node3 -->
<g id="node3" class="node">
<title>Node3</title>
<g id="a_node3"><a xlink:href="interfaceQuantConnect_1_1Data_1_1IBaseData.html" target="_top" xlink:title="Base Data Class: Type, Timestamp, Key – Base Features.">
<polygon fill="white" stroke="black" points="15,-123.5 15,-142.5 82,-142.5 82,-123.5 15,-123.5"/>
<text text-anchor="middle" x="48.5" y="-130.5" font-family="Helvetica,sans-Serif" font-size="10.00">IBaseData</text>
</a>
</g>
</g>
<!-- Node3&#45;&gt;Node2 -->
<g id="edge2" class="edge">
<title>Node3&#45;&gt;Node2</title>
<path fill="none" stroke="midnightblue" d="M48.5,-112.8C48.5,-103.91 48.5,-93.78 48.5,-86.75"/>
<polygon fill="midnightblue" stroke="midnightblue" points="45,-113.08 48.5,-123.08 52,-113.08 45,-113.08"/>
</g>
<!-- Node4 -->
<g id="node4" class="node">
<title>Node4</title>
<g id="a_node4"><a xlink:href="interfaceQuantConnect_1_1Data_1_1ISymbolProvider.html" target="_top" xlink:title="Base data with a symbol">
<polygon fill="white" stroke="black" points="0,-179.5 0,-198.5 97,-198.5 97,-179.5 0,-179.5"/>
<text text-anchor="middle" x="48.5" y="-186.5" font-family="Helvetica,sans-Serif" font-size="10.00">ISymbolProvider</text>
</a>
</g>
</g>
<!-- Node4&#45;&gt;Node3 -->
<g id="edge3" class="edge">
<title>Node4&#45;&gt;Node3</title>
<path fill="none" stroke="midnightblue" d="M48.5,-168.8C48.5,-159.91 48.5,-149.78 48.5,-142.75"/>
<polygon fill="midnightblue" stroke="midnightblue" points="45,-169.08 48.5,-179.08 52,-169.08 45,-169.08"/>
</g>
<!-- Node5 -->
<g id="node5" class="node">
<title>Node5</title>
<g id="a_node5"><a xlink:title=" ">
<polygon fill="white" stroke="#bfbfbf" points="98.5,-67.5 98.5,-86.5 272.5,-86.5 272.5,-67.5 98.5,-67.5"/>
<text text-anchor="middle" x="185.5" y="-74.5" font-family="Helvetica,sans-Serif" font-size="10.00">IEnumerable&lt; OptionContract &gt;</text>
</a>
</g>
</g>
<!-- Node5&#45;&gt;Node1 -->
<g id="edge4" class="edge">
<title>Node5&#45;&gt;Node1</title>
<path fill="none" stroke="midnightblue" d="M168.01,-60.92C157.18,-51.58 143.36,-39.66 132.76,-30.52"/>
<polygon fill="midnightblue" stroke="midnightblue" points="165.76,-63.6 175.61,-67.48 170.33,-58.29 165.76,-63.6"/>
</g>
</g>
</svg>
