<?xml version="1.0" encoding="UTF-8" standalone="no"?>
<!DOCTYPE svg PUBLIC "-//W3C//DTD SVG 1.1//EN"
 "http://www.w3.org/Graphics/SVG/1.1/DTD/svg11.dtd">
<!-- Generated by graphviz version 2.43.0 (0)
 -->
<!-- Title: QuantConnect.Messages.Market.TriedToAddExistingMarketWithDifferentIdentifier Pages: 1 -->
<svg width="395pt" height="50pt"
 viewBox="0.00 0.00 395.00 50.00" xmlns="http://www.w3.org/2000/svg" xmlns:xlink="http://www.w3.org/1999/xlink">
<g id="graph0" class="graph" transform="scale(1 1) rotate(0) translate(4 46)">
<title>QuantConnect.Messages.Market.TriedToAddExistingMarketWithDifferentIdentifier</title>
<polygon fill="white" stroke="transparent" points="-4,4 -4,-46 391,-46 391,4 -4,4"/>
<!-- Node1 -->
<g id="node1" class="node">
<title>Node1</title>
<g id="a_node1"><a xlink:title="Returns a string message saying it was attempted to add an already added market with a different iden...">
<polygon fill="#bfbfbf" stroke="black" points="180,-0.5 180,-41.5 387,-41.5 387,-0.5 180,-0.5"/>
<text text-anchor="start" x="188" y="-29.5" font-family="Helvetica,sans-Serif" font-size="10.00">QuantConnect.Messages.Market.</text>
<text text-anchor="start" x="188" y="-18.5" font-family="Helvetica,sans-Serif" font-size="10.00">TriedToAddExistingMarketWithDifferent</text>
<text text-anchor="middle" x="283.5" y="-7.5" font-family="Helvetica,sans-Serif" font-size="10.00">Identifier</text>
</a>
</g>
</g>
<!-- Node2 -->
<g id="node2" class="node">
<title>Node2</title>
<g id="a_node2"><a xlink:href="classQuantConnect_1_1Market.html#a53b9368c7c41e7fdbbd2fa329220c8ed" target="_top" xlink:title="Adds the specified market to the map of available markets with the specified identifier.">
<polygon fill="white" stroke="black" points="0,-11.5 0,-30.5 144,-30.5 144,-11.5 0,-11.5"/>
<text text-anchor="middle" x="72" y="-18.5" font-family="Helvetica,sans-Serif" font-size="10.00">QuantConnect.Market.Add</text>
</a>
</g>
</g>
<!-- Node1&#45;&gt;Node2 -->
<g id="edge1" class="edge">
<title>Node1&#45;&gt;Node2</title>
<path fill="none" stroke="midnightblue" d="M169.67,-21C160.97,-21 152.35,-21 144.04,-21"/>
<polygon fill="midnightblue" stroke="midnightblue" points="169.9,-24.5 179.9,-21 169.9,-17.5 169.9,-24.5"/>
</g>
</g>
</svg>
