<?xml version="1.0" encoding="UTF-8" standalone="no"?>
<!DOCTYPE svg PUBLIC "-//W3C//DTD SVG 1.1//EN"
 "http://www.w3.org/Graphics/SVG/1.1/DTD/svg11.dtd">
<!-- Generated by graphviz version 2.43.0 (0)
 -->
<!-- Title: QuantConnect.Securities.Option.OptionStrategies.IronCondor Pages: 1 -->
<svg width="559pt" height="110pt"
 viewBox="0.00 0.00 559.00 110.00" xmlns="http://www.w3.org/2000/svg" xmlns:xlink="http://www.w3.org/1999/xlink">
<g id="graph0" class="graph" transform="scale(1 1) rotate(0) translate(4 106)">
<title>QuantConnect.Securities.Option.OptionStrategies.IronCondor</title>
<polygon fill="white" stroke="transparent" points="-4,4 -4,-106 555,-106 555,4 -4,4"/>
<!-- Node1 -->
<g id="node1" class="node">
<title>Node1</title>
<g id="a_node1"><a xlink:title="Creates a new Iron Condor strategy which consists of a long put, a short put, a short call and a long...">
<polygon fill="#bfbfbf" stroke="black" points="396,-30.5 396,-71.5 551,-71.5 551,-30.5 396,-30.5"/>
<text text-anchor="start" x="404" y="-59.5" font-family="Helvetica,sans-Serif" font-size="10.00">QuantConnect.Securities.</text>
<text text-anchor="start" x="404" y="-48.5" font-family="Helvetica,sans-Serif" font-size="10.00">Option.OptionStrategies.Iron</text>
<text text-anchor="middle" x="473.5" y="-37.5" font-family="Helvetica,sans-Serif" font-size="10.00">Condor</text>
</a>
</g>
</g>
<!-- Node2 -->
<g id="node2" class="node">
<title>Node2</title>
<g id="a_node2"><a xlink:href="classQuantConnect_1_1Securities_1_1Option_1_1OptionStrategies.html#a4fe41809168469e594bc899cf667e46e" target="_top" xlink:title="Creates a new Iron Butterfly strategy which consists of a short ATM call, a short ATM put,...">
<polygon fill="white" stroke="black" points="201.5,-60.5 201.5,-101.5 356.5,-101.5 356.5,-60.5 201.5,-60.5"/>
<text text-anchor="start" x="209.5" y="-89.5" font-family="Helvetica,sans-Serif" font-size="10.00">QuantConnect.Securities.</text>
<text text-anchor="start" x="209.5" y="-78.5" font-family="Helvetica,sans-Serif" font-size="10.00">Option.OptionStrategies.Iron</text>
<text text-anchor="middle" x="279" y="-67.5" font-family="Helvetica,sans-Serif" font-size="10.00">Butterfly</text>
</a>
</g>
</g>
<!-- Node1&#45;&gt;Node2 -->
<g id="edge1" class="edge">
<title>Node1&#45;&gt;Node2</title>
<path fill="none" stroke="midnightblue" d="M385.81,-64.51C376.1,-66.02 366.26,-67.56 356.69,-69.05"/>
<polygon fill="midnightblue" stroke="midnightblue" points="386.52,-67.94 395.87,-62.94 385.45,-61.02 386.52,-67.94"/>
</g>
<!-- Node4 -->
<g id="node4" class="node">
<title>Node4</title>
<g id="a_node4"><a xlink:href="classQuantConnect_1_1Securities_1_1Option_1_1OptionStrategies.html#a8c3bf0f93bc1f36dbae3f2211ac10fc6" target="_top" xlink:title="Creates a new Short Iron Condor strategy which consists of a short put, a long put,...">
<polygon fill="white" stroke="black" points="198,-0.5 198,-41.5 360,-41.5 360,-0.5 198,-0.5"/>
<text text-anchor="start" x="206" y="-29.5" font-family="Helvetica,sans-Serif" font-size="10.00">QuantConnect.Securities.</text>
<text text-anchor="start" x="206" y="-18.5" font-family="Helvetica,sans-Serif" font-size="10.00">Option.OptionStrategies.Short</text>
<text text-anchor="middle" x="279" y="-7.5" font-family="Helvetica,sans-Serif" font-size="10.00">IronCondor</text>
</a>
</g>
</g>
<!-- Node1&#45;&gt;Node4 -->
<g id="edge3" class="edge">
<title>Node1&#45;&gt;Node4</title>
<path fill="none" stroke="midnightblue" d="M385.88,-37.5C377.31,-36.17 368.65,-34.82 360.16,-33.49"/>
<polygon fill="midnightblue" stroke="midnightblue" points="385.45,-40.98 395.87,-39.06 386.52,-34.06 385.45,-40.98"/>
</g>
<!-- Node3 -->
<g id="node3" class="node">
<title>Node3</title>
<g id="a_node3"><a xlink:href="classQuantConnect_1_1Securities_1_1Option_1_1OptionStrategies.html#aa3bc14b9ca69aa9cc9b9b67e43bb56e0" target="_top" xlink:title="Creates a new Short Iron Butterfly strategy which consists of a long ATM call, a long ATM put,...">
<polygon fill="white" stroke="black" points="0,-60.5 0,-101.5 162,-101.5 162,-60.5 0,-60.5"/>
<text text-anchor="start" x="8" y="-89.5" font-family="Helvetica,sans-Serif" font-size="10.00">QuantConnect.Securities.</text>
<text text-anchor="start" x="8" y="-78.5" font-family="Helvetica,sans-Serif" font-size="10.00">Option.OptionStrategies.Short</text>
<text text-anchor="middle" x="81" y="-67.5" font-family="Helvetica,sans-Serif" font-size="10.00">IronButterfly</text>
</a>
</g>
</g>
<!-- Node2&#45;&gt;Node3 -->
<g id="edge2" class="edge">
<title>Node2&#45;&gt;Node3</title>
<path fill="none" stroke="midnightblue" d="M191.33,-81C181.61,-81 171.75,-81 162.12,-81"/>
<polygon fill="midnightblue" stroke="midnightblue" points="191.38,-84.5 201.38,-81 191.38,-77.5 191.38,-84.5"/>
</g>
</g>
</svg>
