<?xml version="1.0" encoding="UTF-8" standalone="no"?>
<!DOCTYPE svg PUBLIC "-//W3C//DTD SVG 1.1//EN"
 "http://www.w3.org/Graphics/SVG/1.1/DTD/svg11.dtd">
<!-- Generated by graphviz version 2.43.0 (0)
 -->
<!-- Title: QuantConnect.Data.IndexedBaseData Pages: 1 -->
<svg width="708pt" height="88pt"
 viewBox="0.00 0.00 708.00 88.00" xmlns="http://www.w3.org/2000/svg" xmlns:xlink="http://www.w3.org/1999/xlink">
<g id="graph0" class="graph" transform="scale(1 1) rotate(0) translate(4 84)">
<title>QuantConnect.Data.IndexedBaseData</title>
<polygon fill="white" stroke="transparent" points="-4,4 -4,-84 704,-84 704,4 -4,4"/>
<!-- Node1 -->
<g id="node1" class="node">
<title>Node1</title>
<g id="a_node1"><a xlink:title="Abstract indexed base data class of QuantConnect. It is intended to be extended to define customizabl...">
<polygon fill="#bfbfbf" stroke="black" points="336,-24.5 336,-54.5 489,-54.5 489,-24.5 336,-24.5"/>
<text text-anchor="start" x="344" y="-42.5" font-family="Helvetica,sans-Serif" font-size="10.00">QuantConnect.Data.Indexed</text>
<text text-anchor="middle" x="412.5" y="-31.5" font-family="Helvetica,sans-Serif" font-size="10.00">BaseData</text>
</a>
</g>
</g>
<!-- Node5 -->
<g id="node5" class="node">
<title>Node5</title>
<g id="a_node5"><a xlink:href="classQuantConnect_1_1Data_1_1Custom_1_1IconicTypes_1_1IndexedLinkedData.html" target="_top" xlink:title="Data type that is indexed, i.e. a file that points to another file containing the contents we&#39;re look...">
<polygon fill="white" stroke="black" points="528,-49.5 528,-79.5 697,-79.5 697,-49.5 528,-49.5"/>
<text text-anchor="start" x="536" y="-67.5" font-family="Helvetica,sans-Serif" font-size="10.00">QuantConnect.Data.Custom.</text>
<text text-anchor="middle" x="612.5" y="-56.5" font-family="Helvetica,sans-Serif" font-size="10.00">IconicTypes.IndexedLinkedData</text>
</a>
</g>
</g>
<!-- Node1&#45;&gt;Node5 -->
<g id="edge4" class="edge">
<title>Node1&#45;&gt;Node5</title>
<path fill="none" stroke="midnightblue" d="M499.39,-50.34C508.86,-51.54 518.48,-52.76 527.92,-53.95"/>
<polygon fill="midnightblue" stroke="midnightblue" points="499.56,-46.84 489.2,-49.06 498.69,-53.78 499.56,-46.84"/>
</g>
<!-- Node6 -->
<g id="node6" class="node">
<title>Node6</title>
<g id="a_node6"><a xlink:href="classQuantConnect_1_1Data_1_1Custom_1_1IconicTypes_1_1IndexedLinkedData2.html" target="_top" xlink:title="Data type that is indexed, i.e. a file that points to another file containing the contents we&#39;re look...">
<polygon fill="white" stroke="black" points="525,-0.5 525,-30.5 700,-30.5 700,-0.5 525,-0.5"/>
<text text-anchor="start" x="533" y="-18.5" font-family="Helvetica,sans-Serif" font-size="10.00">QuantConnect.Data.Custom.</text>
<text text-anchor="middle" x="612.5" y="-7.5" font-family="Helvetica,sans-Serif" font-size="10.00">IconicTypes.IndexedLinkedData2</text>
</a>
</g>
</g>
<!-- Node1&#45;&gt;Node6 -->
<g id="edge5" class="edge">
<title>Node1&#45;&gt;Node6</title>
<path fill="none" stroke="midnightblue" d="M499.15,-29.12C507.69,-28.08 516.37,-27.03 524.92,-25.99"/>
<polygon fill="midnightblue" stroke="midnightblue" points="498.71,-25.65 489.2,-30.32 499.55,-32.6 498.71,-25.65"/>
</g>
<!-- Node2 -->
<g id="node2" class="node">
<title>Node2</title>
<g id="a_node2"><a xlink:href="classQuantConnect_1_1Data_1_1BaseData.html" target="_top" xlink:title="Abstract base data class of QuantConnect. It is intended to be extended to define generic user custom...">
<polygon fill="white" stroke="black" points="236,-30 236,-49 300,-49 300,-30 236,-30"/>
<text text-anchor="middle" x="268" y="-37" font-family="Helvetica,sans-Serif" font-size="10.00">BaseData</text>
</a>
</g>
</g>
<!-- Node2&#45;&gt;Node1 -->
<g id="edge1" class="edge">
<title>Node2&#45;&gt;Node1</title>
<path fill="none" stroke="midnightblue" d="M310.45,-39.5C318.5,-39.5 327.17,-39.5 335.93,-39.5"/>
<polygon fill="midnightblue" stroke="midnightblue" points="310.27,-36 300.27,-39.5 310.27,-43 310.27,-36"/>
</g>
<!-- Node3 -->
<g id="node3" class="node">
<title>Node3</title>
<g id="a_node3"><a xlink:href="interfaceQuantConnect_1_1Data_1_1IBaseData.html" target="_top" xlink:title="Base Data Class: Type, Timestamp, Key – Base Features.">
<polygon fill="white" stroke="black" points="133,-30 133,-49 200,-49 200,-30 133,-30"/>
<text text-anchor="middle" x="166.5" y="-37" font-family="Helvetica,sans-Serif" font-size="10.00">IBaseData</text>
</a>
</g>
</g>
<!-- Node3&#45;&gt;Node2 -->
<g id="edge2" class="edge">
<title>Node3&#45;&gt;Node2</title>
<path fill="none" stroke="midnightblue" d="M210.29,-39.5C218.82,-39.5 227.64,-39.5 235.7,-39.5"/>
<polygon fill="midnightblue" stroke="midnightblue" points="210.08,-36 200.08,-39.5 210.08,-43 210.08,-36"/>
</g>
<!-- Node4 -->
<g id="node4" class="node">
<title>Node4</title>
<g id="a_node4"><a xlink:href="interfaceQuantConnect_1_1Data_1_1ISymbolProvider.html" target="_top" xlink:title="Base data with a symbol">
<polygon fill="white" stroke="black" points="0,-30 0,-49 97,-49 97,-30 0,-30"/>
<text text-anchor="middle" x="48.5" y="-37" font-family="Helvetica,sans-Serif" font-size="10.00">ISymbolProvider</text>
</a>
</g>
</g>
<!-- Node4&#45;&gt;Node3 -->
<g id="edge3" class="edge">
<title>Node4&#45;&gt;Node3</title>
<path fill="none" stroke="midnightblue" d="M107.25,-39.5C116.01,-39.5 124.79,-39.5 132.76,-39.5"/>
<polygon fill="midnightblue" stroke="midnightblue" points="107.02,-36 97.02,-39.5 107.02,-43 107.02,-36"/>
</g>
</g>
</svg>
