<?xml version="1.0" encoding="UTF-8" standalone="no"?>
<!DOCTYPE svg PUBLIC "-//W3C//DTD SVG 1.1//EN"
 "http://www.w3.org/Graphics/SVG/1.1/DTD/svg11.dtd">
<!-- Generated by graphviz version 2.43.0 (0)
 -->
<!-- Title: QuantConnect.Messages.SubmitOrderRequest.ToString Pages: 1 -->
<svg width="587pt" height="39pt"
 viewBox="0.00 0.00 587.00 39.00" xmlns="http://www.w3.org/2000/svg" xmlns:xlink="http://www.w3.org/1999/xlink">
<g id="graph0" class="graph" transform="scale(1 1) rotate(0) translate(4 35)">
<title>QuantConnect.Messages.SubmitOrderRequest.ToString</title>
<polygon fill="white" stroke="transparent" points="-4,4 -4,-35 583,-35 583,4 -4,4"/>
<!-- Node1 -->
<g id="node1" class="node">
<title>Node1</title>
<g id="a_node1"><a xlink:title="Parses a given SubmitOrderRequest object to a string message">
<polygon fill="#bfbfbf" stroke="black" points="404,-0.5 404,-30.5 579,-30.5 579,-0.5 404,-0.5"/>
<text text-anchor="start" x="412" y="-18.5" font-family="Helvetica,sans-Serif" font-size="10.00">QuantConnect.Messages.Submit</text>
<text text-anchor="middle" x="491.5" y="-7.5" font-family="Helvetica,sans-Serif" font-size="10.00">OrderRequest.ToString</text>
</a>
</g>
</g>
<!-- Node2 -->
<g id="node2" class="node">
<title>Node2</title>
<g id="a_node2"><a xlink:href="classQuantConnect_1_1Orders_1_1SubmitOrderRequest.html#a1abfd008d3da93a8d7b92d3c490e3769" target="_top" xlink:title="Returns a string that represents the current object.">
<polygon fill="white" stroke="black" points="210,-0.5 210,-30.5 368,-30.5 368,-0.5 210,-0.5"/>
<text text-anchor="start" x="218" y="-18.5" font-family="Helvetica,sans-Serif" font-size="10.00">QuantConnect.Orders.Submit</text>
<text text-anchor="middle" x="289" y="-7.5" font-family="Helvetica,sans-Serif" font-size="10.00">OrderRequest.ToString</text>
</a>
</g>
</g>
<!-- Node1&#45;&gt;Node2 -->
<g id="edge1" class="edge">
<title>Node1&#45;&gt;Node2</title>
<path fill="none" stroke="midnightblue" d="M393.68,-15.5C385.09,-15.5 376.47,-15.5 368.07,-15.5"/>
<polygon fill="midnightblue" stroke="midnightblue" points="393.72,-19 403.72,-15.5 393.72,-12 393.72,-19"/>
</g>
<!-- Node3 -->
<g id="node3" class="node">
<title>Node3</title>
<g id="a_node3"><a xlink:href="classQuantConnect_1_1Commands_1_1OrderCommand.html#a6f56bbd37fa44bc343c153f5c108d5b5" target="_top" xlink:title="Returns a string that represents the current object.">
<polygon fill="white" stroke="black" points="0,-0.5 0,-30.5 174,-30.5 174,-0.5 0,-0.5"/>
<text text-anchor="start" x="8" y="-18.5" font-family="Helvetica,sans-Serif" font-size="10.00">QuantConnect.Commands.Order</text>
<text text-anchor="middle" x="87" y="-7.5" font-family="Helvetica,sans-Serif" font-size="10.00">Command.ToString</text>
</a>
</g>
</g>
<!-- Node2&#45;&gt;Node3 -->
<g id="edge2" class="edge">
<title>Node2&#45;&gt;Node3</title>
<path fill="none" stroke="midnightblue" d="M199.56,-15.5C191.09,-15.5 182.52,-15.5 174.07,-15.5"/>
<polygon fill="midnightblue" stroke="midnightblue" points="199.82,-19 209.82,-15.5 199.82,-12 199.82,-19"/>
</g>
</g>
</svg>
