<?xml version="1.0" encoding="UTF-8" standalone="no"?>
<!DOCTYPE svg PUBLIC "-//W3C//DTD SVG 1.1//EN"
 "http://www.w3.org/Graphics/SVG/1.1/DTD/svg11.dtd">
<!-- Generated by graphviz version 2.43.0 (0)
 -->
<!-- Title: QuantConnect.Messages.OrderResponse.InvalidNewStatus Pages: 1 -->
<svg width="883pt" height="110pt"
 viewBox="0.00 0.00 883.00 110.00" xmlns="http://www.w3.org/2000/svg" xmlns:xlink="http://www.w3.org/1999/xlink">
<g id="graph0" class="graph" transform="scale(1 1) rotate(0) translate(4 106)">
<title>QuantConnect.Messages.OrderResponse.InvalidNewStatus</title>
<polygon fill="white" stroke="transparent" points="-4,4 -4,-106 879,-106 879,4 -4,4"/>
<!-- Node1 -->
<g id="node1" class="node">
<title>Node1</title>
<g id="a_node1"><a xlink:title="Returns a string message saying it was impossible to update or cancel the order with the id from the ...">
<polygon fill="#bfbfbf" stroke="black" points="708,-36 708,-66 875,-66 875,-36 708,-36"/>
<text text-anchor="start" x="716" y="-54" font-family="Helvetica,sans-Serif" font-size="10.00">QuantConnect.Messages.Order</text>
<text text-anchor="middle" x="791.5" y="-43" font-family="Helvetica,sans-Serif" font-size="10.00">Response.InvalidNewStatus</text>
</a>
</g>
</g>
<!-- Node2 -->
<g id="node2" class="node">
<title>Node2</title>
<g id="a_node2"><a xlink:href="classQuantConnect_1_1Orders_1_1OrderResponse.html#a9861e49e902d763e9f79131a8646adac" target="_top" xlink:title="Helper method to create an error response due to the &quot;New&quot; order status">
<polygon fill="white" stroke="black" points="520,-36 520,-66 672,-66 672,-36 520,-36"/>
<text text-anchor="start" x="528" y="-54" font-family="Helvetica,sans-Serif" font-size="10.00">QuantConnect.Orders.Order</text>
<text text-anchor="middle" x="596" y="-43" font-family="Helvetica,sans-Serif" font-size="10.00">Response.InvalidNewStatus</text>
</a>
</g>
</g>
<!-- Node1&#45;&gt;Node2 -->
<g id="edge1" class="edge">
<title>Node1&#45;&gt;Node2</title>
<path fill="none" stroke="midnightblue" d="M697.86,-51C689.29,-51 680.68,-51 672.3,-51"/>
<polygon fill="midnightblue" stroke="midnightblue" points="697.88,-54.5 707.88,-51 697.88,-47.5 697.88,-54.5"/>
</g>
<!-- Node3 -->
<g id="node3" class="node">
<title>Node3</title>
<g id="a_node3"><a xlink:href="classQuantConnect_1_1Lean_1_1Engine_1_1TransactionHandlers_1_1BrokerageTransactionHandler.html#afb049bcccdaba6992bd31bf91280d9a9" target="_top" xlink:title="Remove this order from outstanding queue: user is requesting a cancel.">
<polygon fill="white" stroke="black" points="260,-60.5 260,-101.5 484,-101.5 484,-60.5 260,-60.5"/>
<text text-anchor="start" x="268" y="-89.5" font-family="Helvetica,sans-Serif" font-size="10.00">QuantConnect.Lean.Engine.</text>
<text text-anchor="start" x="268" y="-78.5" font-family="Helvetica,sans-Serif" font-size="10.00">TransactionHandlers.BrokerageTransaction</text>
<text text-anchor="middle" x="372" y="-67.5" font-family="Helvetica,sans-Serif" font-size="10.00">Handler.CancelOrder</text>
</a>
</g>
</g>
<!-- Node2&#45;&gt;Node3 -->
<g id="edge2" class="edge">
<title>Node2&#45;&gt;Node3</title>
<path fill="none" stroke="midnightblue" d="M509.79,-62.52C501.45,-63.64 492.9,-64.8 484.36,-65.95"/>
<polygon fill="midnightblue" stroke="midnightblue" points="510.4,-65.96 519.84,-61.16 509.46,-59.03 510.4,-65.96"/>
</g>
<!-- Node5 -->
<g id="node5" class="node">
<title>Node5</title>
<g id="a_node5"><a xlink:href="classQuantConnect_1_1Lean_1_1Engine_1_1TransactionHandlers_1_1BrokerageTransactionHandler.html#a1a38e71d6ea75fe654d365cb6b7501d2" target="_top" xlink:title="Update an order yet to be filled such as stop or limit orders.">
<polygon fill="white" stroke="black" points="260,-0.5 260,-41.5 484,-41.5 484,-0.5 260,-0.5"/>
<text text-anchor="start" x="268" y="-29.5" font-family="Helvetica,sans-Serif" font-size="10.00">QuantConnect.Lean.Engine.</text>
<text text-anchor="start" x="268" y="-18.5" font-family="Helvetica,sans-Serif" font-size="10.00">TransactionHandlers.BrokerageTransaction</text>
<text text-anchor="middle" x="372" y="-7.5" font-family="Helvetica,sans-Serif" font-size="10.00">Handler.UpdateOrder</text>
</a>
</g>
</g>
<!-- Node2&#45;&gt;Node5 -->
<g id="edge4" class="edge">
<title>Node2&#45;&gt;Node5</title>
<path fill="none" stroke="midnightblue" d="M509.79,-39.48C501.45,-38.36 492.9,-37.2 484.36,-36.05"/>
<polygon fill="midnightblue" stroke="midnightblue" points="509.46,-42.97 519.84,-40.84 510.4,-36.04 509.46,-42.97"/>
</g>
<!-- Node4 -->
<g id="node4" class="node">
<title>Node4</title>
<g id="a_node4"><a xlink:href="classQuantConnect_1_1Lean_1_1Engine_1_1TransactionHandlers_1_1BrokerageTransactionHandler.html#ad7914edfb9b6e24fcbcd637e2c468cd5" target="_top" xlink:title="Adds the specified order to be processed">
<polygon fill="white" stroke="black" points="0,-30.5 0,-71.5 224,-71.5 224,-30.5 0,-30.5"/>
<text text-anchor="start" x="8" y="-59.5" font-family="Helvetica,sans-Serif" font-size="10.00">QuantConnect.Lean.Engine.</text>
<text text-anchor="start" x="8" y="-48.5" font-family="Helvetica,sans-Serif" font-size="10.00">TransactionHandlers.BrokerageTransaction</text>
<text text-anchor="middle" x="112" y="-37.5" font-family="Helvetica,sans-Serif" font-size="10.00">Handler.Process</text>
</a>
</g>
</g>
<!-- Node3&#45;&gt;Node4 -->
<g id="edge3" class="edge">
<title>Node3&#45;&gt;Node4</title>
<path fill="none" stroke="midnightblue" d="M249.78,-66.9C241.29,-65.92 232.76,-64.93 224.33,-63.94"/>
<polygon fill="midnightblue" stroke="midnightblue" points="249.38,-70.38 259.71,-68.06 250.18,-63.43 249.38,-70.38"/>
</g>
<!-- Node5&#45;&gt;Node4 -->
<g id="edge5" class="edge">
<title>Node5&#45;&gt;Node4</title>
<path fill="none" stroke="midnightblue" d="M249.78,-35.1C241.29,-36.08 232.76,-37.07 224.33,-38.06"/>
<polygon fill="midnightblue" stroke="midnightblue" points="250.18,-38.57 259.71,-33.94 249.38,-31.62 250.18,-38.57"/>
</g>
</g>
</svg>
