<?xml version="1.0" encoding="UTF-8" standalone="no"?>
<!DOCTYPE svg PUBLIC "-//W3C//DTD SVG 1.1//EN"
 "http://www.w3.org/Graphics/SVG/1.1/DTD/svg11.dtd">
<!-- Generated by graphviz version 2.43.0 (0)
 -->
<!-- Title: QuantConnect.Orders.OrderJsonConverter.CreateOrderFromJObject Pages: 1 -->
<svg width="1615pt" height="708pt"
 viewBox="0.00 0.00 1615.00 707.59" xmlns="http://www.w3.org/2000/svg" xmlns:xlink="http://www.w3.org/1999/xlink">
<g id="graph0" class="graph" transform="scale(1 1) rotate(0) translate(4 703.59)">
<title>QuantConnect.Orders.OrderJsonConverter.CreateOrderFromJObject</title>
<polygon fill="white" stroke="transparent" points="-4,4 -4,-703.59 1611,-703.59 1611,4 -4,4"/>
<!-- Node1 -->
<g id="node1" class="node">
<title>Node1</title>
<g id="a_node1"><a xlink:title="Create an order from a simple JObject">
<polygon fill="#bfbfbf" stroke="black" points="0,-88 0,-118 206,-118 206,-88 0,-88"/>
<text text-anchor="start" x="8" y="-106" font-family="Helvetica,sans-Serif" font-size="10.00">QuantConnect.Orders.Order</text>
<text text-anchor="middle" x="103" y="-95" font-family="Helvetica,sans-Serif" font-size="10.00">JsonConverter.CreateOrderFromJObject</text>
</a>
</g>
</g>
<!-- Node2 -->
<g id="node2" class="node">
<title>Node2</title>
<g id="a_node2"><a xlink:href="classQuantConnect_1_1Symbol.html#a350b9a625cf7bad95da82894be3cd0a8" target="_top" xlink:title="Provides a convenience method for creating a Symbol for most security types. This method currently do...">
<polygon fill="white" stroke="black" points="250,-418.5 250,-437.5 411,-437.5 411,-418.5 250,-418.5"/>
<text text-anchor="middle" x="330.5" y="-425.5" font-family="Helvetica,sans-Serif" font-size="10.00">QuantConnect.Symbol.Create</text>
</a>
</g>
</g>
<!-- Node1&#45;&gt;Node2 -->
<g id="edge1" class="edge">
<title>Node1&#45;&gt;Node2</title>
<path fill="none" stroke="midnightblue" d="M114.57,-118.24C151.77,-171.85 276.53,-351.66 316.83,-409.74"/>
<polygon fill="midnightblue" stroke="midnightblue" points="314.17,-412.05 322.75,-418.27 319.92,-408.06 314.17,-412.05"/>
</g>
<!-- Node20 -->
<g id="node20" class="node">
<title>Node20</title>
<g id="a_node20"><a xlink:href="classQuantConnect_1_1Securities_1_1SymbolPropertiesDatabase.html#aee26fb588793fd311c44eb8b2909cc33" target="_top" xlink:title="Gets the instance of the SymbolPropertiesDatabase class produced by reading in the symbol properties ...">
<polygon fill="white" stroke="black" points="242,-110.5 242,-151.5 419,-151.5 419,-110.5 242,-110.5"/>
<text text-anchor="start" x="250" y="-139.5" font-family="Helvetica,sans-Serif" font-size="10.00">QuantConnect.Securities.</text>
<text text-anchor="start" x="250" y="-128.5" font-family="Helvetica,sans-Serif" font-size="10.00">SymbolPropertiesDatabase.From</text>
<text text-anchor="middle" x="330.5" y="-117.5" font-family="Helvetica,sans-Serif" font-size="10.00">DataFolder</text>
</a>
</g>
</g>
<!-- Node1&#45;&gt;Node20 -->
<g id="edge21" class="edge">
<title>Node1&#45;&gt;Node20</title>
<path fill="none" stroke="midnightblue" d="M206.19,-115.69C214.64,-116.74 223.17,-117.8 231.59,-118.84"/>
<polygon fill="midnightblue" stroke="midnightblue" points="231.44,-122.35 241.79,-120.11 232.3,-115.4 231.44,-122.35"/>
</g>
<!-- Node24 -->
<g id="node24" class="node">
<title>Node24</title>
<g id="a_node24"><a xlink:href="classQuantConnect_1_1SecurityIdentifier.html#a89ccb2161613f17d18ca3dc1e9eb3872" target="_top" xlink:title="Parses the specified string into a SecurityIdentifier The string must be a 40 digit number....">
<polygon fill="white" stroke="black" points="243.5,-61 243.5,-91 417.5,-91 417.5,-61 243.5,-61"/>
<text text-anchor="start" x="251.5" y="-79" font-family="Helvetica,sans-Serif" font-size="10.00">QuantConnect.SecurityIdentifier.</text>
<text text-anchor="middle" x="330.5" y="-68" font-family="Helvetica,sans-Serif" font-size="10.00">Parse</text>
</a>
</g>
</g>
<!-- Node1&#45;&gt;Node24 -->
<g id="edge25" class="edge">
<title>Node1&#45;&gt;Node24</title>
<path fill="none" stroke="midnightblue" d="M206.19,-90.76C215.17,-89.69 224.23,-88.6 233.16,-87.54"/>
<polygon fill="midnightblue" stroke="midnightblue" points="233.65,-91 243.16,-86.34 232.82,-84.05 233.65,-91"/>
</g>
<!-- Node26 -->
<g id="node26" class="node">
<title>Node26</title>
<g id="a_node26"><a xlink:href="classQuantConnect_1_1Securities_1_1SymbolPropertiesDatabase.html#a5a7baeddd03bfc7fb60cef8ab2e6834b" target="_top" xlink:title="Tries to get the market for the provided symbol/security type">
<polygon fill="white" stroke="black" points="247,-0.5 247,-41.5 414,-41.5 414,-0.5 247,-0.5"/>
<text text-anchor="start" x="255" y="-29.5" font-family="Helvetica,sans-Serif" font-size="10.00">QuantConnect.Securities.</text>
<text text-anchor="start" x="255" y="-18.5" font-family="Helvetica,sans-Serif" font-size="10.00">SymbolPropertiesDatabase.Try</text>
<text text-anchor="middle" x="330.5" y="-7.5" font-family="Helvetica,sans-Serif" font-size="10.00">GetMarket</text>
</a>
</g>
</g>
<!-- Node1&#45;&gt;Node26 -->
<g id="edge27" class="edge">
<title>Node1&#45;&gt;Node26</title>
<path fill="none" stroke="midnightblue" d="M143.14,-87.89C170.71,-77.34 208.51,-63.05 242,-51 247.52,-49.01 253.24,-46.99 259,-44.97"/>
<polygon fill="midnightblue" stroke="midnightblue" points="260.41,-48.18 268.7,-41.58 258.1,-41.57 260.41,-48.18"/>
</g>
<!-- Node3 -->
<g id="node3" class="node">
<title>Node3</title>
<g id="a_node3"><a xlink:href="classQuantConnect_1_1Symbol.html#a7518a1932d1babbff128f2ba9666a78b" target="_top" xlink:title="Provides a convenience method for creating an option Symbol.">
<polygon fill="white" stroke="black" points="469,-624 469,-654 630,-654 630,-624 469,-624"/>
<text text-anchor="start" x="477" y="-642" font-family="Helvetica,sans-Serif" font-size="10.00">QuantConnect.Symbol.Create</text>
<text text-anchor="middle" x="549.5" y="-631" font-family="Helvetica,sans-Serif" font-size="10.00">Option</text>
</a>
</g>
</g>
<!-- Node2&#45;&gt;Node3 -->
<g id="edge2" class="edge">
<title>Node2&#45;&gt;Node3</title>
<path fill="none" stroke="midnightblue" d="M335.29,-437.5C347.69,-467.41 390.07,-560.53 455,-609 460.51,-613.11 466.6,-616.67 472.95,-619.75"/>
<polygon fill="midnightblue" stroke="midnightblue" points="471.85,-623.09 482.41,-623.93 474.68,-616.69 471.85,-623.09"/>
</g>
<!-- Node4 -->
<g id="node4" class="node">
<title>Node4</title>
<g id="a_node4"><a xlink:href="classQuantConnect_1_1SecurityIdentifier.html#a0c21d7880c9fdd260883d11ea0c99a00" target="_top" xlink:title="Helper overload that will search the mapfiles to resolve the first date. This implementation uses the...">
<polygon fill="white" stroke="black" points="683,-657 683,-687 857,-687 857,-657 683,-657"/>
<text text-anchor="start" x="691" y="-675" font-family="Helvetica,sans-Serif" font-size="10.00">QuantConnect.SecurityIdentifier.</text>
<text text-anchor="middle" x="770" y="-664" font-family="Helvetica,sans-Serif" font-size="10.00">GenerateEquity</text>
</a>
</g>
</g>
<!-- Node2&#45;&gt;Node4 -->
<g id="edge15" class="edge">
<title>Node2&#45;&gt;Node4</title>
<path fill="none" stroke="midnightblue" d="M333.06,-437.75C339.64,-475.2 368.84,-610.33 455,-664 528.85,-710 632.63,-701.77 700.33,-689.04"/>
<polygon fill="midnightblue" stroke="midnightblue" points="701.33,-692.41 710.46,-687.05 699.98,-685.54 701.33,-692.41"/>
</g>
<!-- Node5 -->
<g id="node5" class="node">
<title>Node5</title>
<g id="a_node5"><a xlink:href="classQuantConnect_1_1Symbol.html#a59158f74116be3dad0ea0f3f3f134416" target="_top" xlink:title="Initializes a new instance of the Symbol class">
<polygon fill="white" stroke="black" points="687.5,-596.5 687.5,-615.5 852.5,-615.5 852.5,-596.5 687.5,-596.5"/>
<text text-anchor="middle" x="770" y="-603.5" font-family="Helvetica,sans-Serif" font-size="10.00">QuantConnect.Symbol.Symbol</text>
</a>
</g>
</g>
<!-- Node2&#45;&gt;Node5 -->
<g id="edge20" class="edge">
<title>Node2&#45;&gt;Node5</title>
<path fill="none" stroke="midnightblue" d="M336.2,-437.83C349.97,-465.37 393.13,-543.37 455,-576 492.32,-595.68 598.46,-602.54 677.07,-604.88"/>
<polygon fill="midnightblue" stroke="midnightblue" points="677.39,-608.39 687.48,-605.17 677.58,-601.39 677.39,-608.39"/>
</g>
<!-- Node11 -->
<g id="node11" class="node">
<title>Node11</title>
<g id="a_node11"><a xlink:href="classQuantConnect_1_1SecurityIdentifier.html#a02ca750115844561c001c2346fbafc00" target="_top" xlink:title="Generates a new SecurityIdentifier for a custom security with the option of providing the first date">
<polygon fill="white" stroke="black" points="462.5,-536 462.5,-566 636.5,-566 636.5,-536 462.5,-536"/>
<text text-anchor="start" x="470.5" y="-554" font-family="Helvetica,sans-Serif" font-size="10.00">QuantConnect.SecurityIdentifier.</text>
<text text-anchor="middle" x="549.5" y="-543" font-family="Helvetica,sans-Serif" font-size="10.00">GenerateBase</text>
</a>
</g>
</g>
<!-- Node2&#45;&gt;Node11 -->
<g id="edge10" class="edge">
<title>Node2&#45;&gt;Node11</title>
<path fill="none" stroke="midnightblue" d="M340.73,-437.8C360.02,-457.68 406.82,-502.92 455,-527 458.79,-528.9 462.75,-530.65 466.81,-532.28"/>
<polygon fill="midnightblue" stroke="midnightblue" points="465.81,-535.64 476.4,-535.84 468.24,-529.08 465.81,-535.64"/>
</g>
<!-- Node13 -->
<g id="node13" class="node">
<title>Node13</title>
<g id="a_node13"><a xlink:href="classQuantConnect_1_1SecurityIdentifier.html#a53953b18d814c5445e4ecdcb3b555080" target="_top" xlink:title="Generates a new SecurityIdentifier for a CFD security">
<polygon fill="white" stroke="black" points="462.5,-487 462.5,-517 636.5,-517 636.5,-487 462.5,-487"/>
<text text-anchor="start" x="470.5" y="-505" font-family="Helvetica,sans-Serif" font-size="10.00">QuantConnect.SecurityIdentifier.</text>
<text text-anchor="middle" x="549.5" y="-494" font-family="Helvetica,sans-Serif" font-size="10.00">GenerateCfd</text>
</a>
</g>
</g>
<!-- Node2&#45;&gt;Node13 -->
<g id="edge12" class="edge">
<title>Node2&#45;&gt;Node13</title>
<path fill="none" stroke="midnightblue" d="M352.6,-437.55C376.93,-448.32 418.31,-465.92 455,-478 461.47,-480.13 468.24,-482.19 475.06,-484.14"/>
<polygon fill="midnightblue" stroke="midnightblue" points="474.48,-487.61 485.05,-486.93 476.36,-480.87 474.48,-487.61"/>
</g>
<!-- Node14 -->
<g id="node14" class="node">
<title>Node14</title>
<g id="a_node14"><a xlink:href="classQuantConnect_1_1SecurityIdentifier.html#a5889a95a36ce927dd0a109cbfbcbe663" target="_top" xlink:title="Generates a new SecurityIdentifier for a Crypto pair">
<polygon fill="white" stroke="black" points="462.5,-438 462.5,-468 636.5,-468 636.5,-438 462.5,-438"/>
<text text-anchor="start" x="470.5" y="-456" font-family="Helvetica,sans-Serif" font-size="10.00">QuantConnect.SecurityIdentifier.</text>
<text text-anchor="middle" x="549.5" y="-445" font-family="Helvetica,sans-Serif" font-size="10.00">GenerateCrypto</text>
</a>
</g>
</g>
<!-- Node2&#45;&gt;Node14 -->
<g id="edge13" class="edge">
<title>Node2&#45;&gt;Node14</title>
<path fill="none" stroke="midnightblue" d="M411.07,-437.17C424.5,-438.71 438.57,-440.34 452.37,-441.93"/>
<polygon fill="midnightblue" stroke="midnightblue" points="452.03,-445.41 462.36,-443.08 452.83,-438.45 452.03,-445.41"/>
</g>
<!-- Node15 -->
<g id="node15" class="node">
<title>Node15</title>
<g id="a_node15"><a xlink:href="classQuantConnect_1_1SecurityIdentifier.html#ac665665a16d5449872fed3427b95a260" target="_top" xlink:title="Generates a new SecurityIdentifier for a CryptoFuture pair">
<polygon fill="white" stroke="black" points="462.5,-389 462.5,-419 636.5,-419 636.5,-389 462.5,-389"/>
<text text-anchor="start" x="470.5" y="-407" font-family="Helvetica,sans-Serif" font-size="10.00">QuantConnect.SecurityIdentifier.</text>
<text text-anchor="middle" x="549.5" y="-396" font-family="Helvetica,sans-Serif" font-size="10.00">GenerateCryptoFuture</text>
</a>
</g>
</g>
<!-- Node2&#45;&gt;Node15 -->
<g id="edge14" class="edge">
<title>Node2&#45;&gt;Node15</title>
<path fill="none" stroke="midnightblue" d="M411.07,-419.2C424.5,-417.71 438.57,-416.16 452.37,-414.63"/>
<polygon fill="midnightblue" stroke="midnightblue" points="452.81,-418.11 462.36,-413.53 452.04,-411.15 452.81,-418.11"/>
</g>
<!-- Node16 -->
<g id="node16" class="node">
<title>Node16</title>
<g id="a_node16"><a xlink:href="classQuantConnect_1_1SecurityIdentifier.html#a9cf0d3b208a5171e6112516ce441f18d" target="_top" xlink:title="Generates a new SecurityIdentifier for a forex pair">
<polygon fill="white" stroke="black" points="462.5,-340 462.5,-370 636.5,-370 636.5,-340 462.5,-340"/>
<text text-anchor="start" x="470.5" y="-358" font-family="Helvetica,sans-Serif" font-size="10.00">QuantConnect.SecurityIdentifier.</text>
<text text-anchor="middle" x="549.5" y="-347" font-family="Helvetica,sans-Serif" font-size="10.00">GenerateForex</text>
</a>
</g>
</g>
<!-- Node2&#45;&gt;Node16 -->
<g id="edge16" class="edge">
<title>Node2&#45;&gt;Node16</title>
<path fill="none" stroke="midnightblue" d="M353.99,-418.4C378.54,-408.13 419.14,-391.72 455,-380 462.61,-377.51 470.62,-375.09 478.63,-372.78"/>
<polygon fill="midnightblue" stroke="midnightblue" points="479.68,-376.12 488.36,-370.04 477.78,-369.38 479.68,-376.12"/>
</g>
<!-- Node17 -->
<g id="node17" class="node">
<title>Node17</title>
<g id="a_node17"><a xlink:href="classQuantConnect_1_1SecurityIdentifier.html#ad50a891c97cb0c084a9e2aa43607ed66" target="_top" xlink:title="Generates a new SecurityIdentifier for a future">
<polygon fill="white" stroke="black" points="462.5,-291 462.5,-321 636.5,-321 636.5,-291 462.5,-291"/>
<text text-anchor="start" x="470.5" y="-309" font-family="Helvetica,sans-Serif" font-size="10.00">QuantConnect.SecurityIdentifier.</text>
<text text-anchor="middle" x="549.5" y="-298" font-family="Helvetica,sans-Serif" font-size="10.00">GenerateFuture</text>
</a>
</g>
</g>
<!-- Node2&#45;&gt;Node17 -->
<g id="edge17" class="edge">
<title>Node2&#45;&gt;Node17</title>
<path fill="none" stroke="midnightblue" d="M340.8,-418.45C360.2,-399.06 407.2,-354.89 455,-331 459.67,-328.67 464.59,-326.53 469.62,-324.58"/>
<polygon fill="midnightblue" stroke="midnightblue" points="471.18,-327.73 479.4,-321.05 468.81,-321.15 471.18,-327.73"/>
</g>
<!-- Node18 -->
<g id="node18" class="node">
<title>Node18</title>
<g id="a_node18"><a xlink:href="classQuantConnect_1_1SecurityIdentifier.html#ade05a8e57b041ab484cf585be8d05699" target="_top" xlink:title="Generates a new SecurityIdentifier for a INDEX security">
<polygon fill="white" stroke="black" points="462.5,-242 462.5,-272 636.5,-272 636.5,-242 462.5,-242"/>
<text text-anchor="start" x="470.5" y="-260" font-family="Helvetica,sans-Serif" font-size="10.00">QuantConnect.SecurityIdentifier.</text>
<text text-anchor="middle" x="549.5" y="-249" font-family="Helvetica,sans-Serif" font-size="10.00">GenerateIndex</text>
</a>
</g>
</g>
<!-- Node2&#45;&gt;Node18 -->
<g id="edge18" class="edge">
<title>Node2&#45;&gt;Node18</title>
<path fill="none" stroke="midnightblue" d="M336.75,-418.43C351.6,-392.25 396.68,-318.97 455,-282 458.34,-279.88 461.85,-277.95 465.48,-276.17"/>
<polygon fill="midnightblue" stroke="midnightblue" points="466.98,-279.34 474.7,-272.09 464.14,-272.94 466.98,-279.34"/>
</g>
<!-- Node19 -->
<g id="node19" class="node">
<title>Node19</title>
<g id="a_node19"><a xlink:href="classQuantConnect_1_1Messages_1_1Symbol.html#ab801bef52a308b8ba7ba6d42e1ef1988" target="_top" xlink:title="Returns a string message saying the given security type has not been implemented yet">
<polygon fill="white" stroke="black" points="459.5,-193 459.5,-223 639.5,-223 639.5,-193 459.5,-193"/>
<text text-anchor="start" x="467.5" y="-211" font-family="Helvetica,sans-Serif" font-size="10.00">QuantConnect.Messages.Symbol.</text>
<text text-anchor="middle" x="549.5" y="-200" font-family="Helvetica,sans-Serif" font-size="10.00">SecurityTypeNotImplementedYet</text>
</a>
</g>
</g>
<!-- Node2&#45;&gt;Node19 -->
<g id="edge19" class="edge">
<title>Node2&#45;&gt;Node19</title>
<path fill="none" stroke="midnightblue" d="M334.8,-418.08C346.02,-385.93 385.9,-283.78 455,-233 457.64,-231.06 460.42,-229.27 463.31,-227.62"/>
<polygon fill="midnightblue" stroke="midnightblue" points="464.91,-230.73 472.23,-223.07 461.73,-224.49 464.91,-230.73"/>
</g>
<!-- Node3&#45;&gt;Node4 -->
<g id="edge3" class="edge">
<title>Node3&#45;&gt;Node4</title>
<path fill="none" stroke="midnightblue" d="M630,-651.01C643.85,-653.1 658.38,-655.29 672.62,-657.44"/>
<polygon fill="midnightblue" stroke="midnightblue" points="672.51,-660.97 682.92,-659 673.56,-654.05 672.51,-660.97"/>
</g>
<!-- Node3&#45;&gt;Node5 -->
<g id="edge4" class="edge">
<title>Node3&#45;&gt;Node5</title>
<path fill="none" stroke="midnightblue" d="M630,-626.99C651.6,-623.73 674.87,-620.22 696.08,-617.01"/>
<polygon fill="midnightblue" stroke="midnightblue" points="696.62,-620.47 705.99,-615.52 695.58,-613.55 696.62,-620.47"/>
</g>
<!-- Node6 -->
<g id="node6" class="node">
<title>Node6</title>
<g id="a_node6"><a xlink:href="classQuantConnect_1_1Symbol.html#a59b0795fa21f46c306deb5576fa03bb9" target="_top" xlink:title="Centralized helper method to resolve alias for a symbol">
<polygon fill="white" stroke="black" points="896,-596.5 896,-615.5 1066,-615.5 1066,-596.5 896,-596.5"/>
<text text-anchor="middle" x="981" y="-603.5" font-family="Helvetica,sans-Serif" font-size="10.00">QuantConnect.Symbol.GetAlias</text>
</a>
</g>
</g>
<!-- Node5&#45;&gt;Node6 -->
<g id="edge5" class="edge">
<title>Node5&#45;&gt;Node6</title>
<path fill="none" stroke="midnightblue" d="M852.7,-606C863.57,-606 874.79,-606 885.85,-606"/>
<polygon fill="midnightblue" stroke="midnightblue" points="885.94,-609.5 895.94,-606 885.94,-602.5 885.94,-609.5"/>
</g>
<!-- Node7 -->
<g id="node7" class="node">
<title>Node7</title>
<g id="a_node7"><a xlink:href="classQuantConnect_1_1SymbolRepresentation.html#ad43ac907f6c19083821f58f21c6de017" target="_top" xlink:title="Returns future symbol ticker from underlying and expiration date. Function can generate tickers of tw...">
<polygon fill="white" stroke="black" points="1102,-619 1102,-649 1305,-649 1305,-619 1102,-619"/>
<text text-anchor="start" x="1110" y="-637" font-family="Helvetica,sans-Serif" font-size="10.00">QuantConnect.SymbolRepresentation.</text>
<text text-anchor="middle" x="1203.5" y="-626" font-family="Helvetica,sans-Serif" font-size="10.00">GenerateFutureTicker</text>
</a>
</g>
</g>
<!-- Node6&#45;&gt;Node7 -->
<g id="edge6" class="edge">
<title>Node6&#45;&gt;Node7</title>
<path fill="none" stroke="midnightblue" d="M1056.96,-615.52C1068.27,-616.96 1080.14,-618.46 1092.01,-619.97"/>
<polygon fill="midnightblue" stroke="midnightblue" points="1091.62,-623.45 1101.98,-621.24 1092.5,-616.5 1091.62,-623.45"/>
</g>
<!-- Node9 -->
<g id="node9" class="node">
<title>Node9</title>
<g id="a_node9"><a xlink:href="classQuantConnect_1_1SymbolRepresentation.html#ab133044f5cf8c16e700190a2202b215e" target="_top" xlink:title="Returns option symbol ticker in accordance with OSI symbology More information can be found at http:/...">
<polygon fill="white" stroke="black" points="1102,-567 1102,-597 1305,-597 1305,-567 1102,-567"/>
<text text-anchor="start" x="1110" y="-585" font-family="Helvetica,sans-Serif" font-size="10.00">QuantConnect.SymbolRepresentation.</text>
<text text-anchor="middle" x="1203.5" y="-574" font-family="Helvetica,sans-Serif" font-size="10.00">GenerateOptionTickerOSI</text>
</a>
</g>
</g>
<!-- Node6&#45;&gt;Node9 -->
<g id="edge8" class="edge">
<title>Node6&#45;&gt;Node9</title>
<path fill="none" stroke="midnightblue" d="M1066.31,-596.82C1074.69,-595.91 1083.3,-594.97 1091.9,-594.04"/>
<polygon fill="midnightblue" stroke="midnightblue" points="1092.43,-597.5 1101.99,-592.94 1091.67,-590.54 1092.43,-597.5"/>
</g>
<!-- Node8 -->
<g id="node8" class="node">
<title>Node8</title>
<g id="a_node8"><a xlink:href="classQuantConnect_1_1Securities_1_1Future_1_1FuturesExpiryUtilityFunctions.html#a4ccb1e2f2fe40ff09785a74a02f26df1" target="_top" xlink:title="Gets the number of months between the contract month and the expiry date.">
<polygon fill="white" stroke="black" points="1341,-616.5 1341,-657.5 1607,-657.5 1607,-616.5 1341,-616.5"/>
<text text-anchor="start" x="1349" y="-645.5" font-family="Helvetica,sans-Serif" font-size="10.00">QuantConnect.Securities.</text>
<text text-anchor="start" x="1349" y="-634.5" font-family="Helvetica,sans-Serif" font-size="10.00">Future.FuturesExpiryUtilityFunctions.</text>
<text text-anchor="middle" x="1474" y="-623.5" font-family="Helvetica,sans-Serif" font-size="10.00">GetDeltaBetweenContractMonthAndContractExpiry</text>
</a>
</g>
</g>
<!-- Node7&#45;&gt;Node8 -->
<g id="edge7" class="edge">
<title>Node7&#45;&gt;Node8</title>
<path fill="none" stroke="midnightblue" d="M1305.24,-635.13C1313.59,-635.22 1322.11,-635.31 1330.68,-635.41"/>
<polygon fill="midnightblue" stroke="midnightblue" points="1330.72,-638.91 1340.76,-635.52 1330.8,-631.91 1330.72,-638.91"/>
</g>
<!-- Node10 -->
<g id="node10" class="node">
<title>Node10</title>
<g id="a_node10"><a xlink:href="classQuantConnect_1_1Messages_1_1SymbolRepresentation.html#a2c514157d8055cfa271ea3a7ca1ccde7" target="_top" xlink:title="Returns a string message saying an unexpected security type was received by the given method name">
<polygon fill="white" stroke="black" points="1378,-556.5 1378,-597.5 1570,-597.5 1570,-556.5 1378,-556.5"/>
<text text-anchor="start" x="1386" y="-585.5" font-family="Helvetica,sans-Serif" font-size="10.00">QuantConnect.Messages.Symbol</text>
<text text-anchor="start" x="1386" y="-574.5" font-family="Helvetica,sans-Serif" font-size="10.00">Representation.UnexpectedSecurity</text>
<text text-anchor="middle" x="1474" y="-563.5" font-family="Helvetica,sans-Serif" font-size="10.00">TypeForMethod</text>
</a>
</g>
</g>
<!-- Node9&#45;&gt;Node10 -->
<g id="edge9" class="edge">
<title>Node9&#45;&gt;Node10</title>
<path fill="none" stroke="midnightblue" d="M1305.24,-580.12C1325.7,-579.74 1347.27,-579.34 1367.88,-578.96"/>
<polygon fill="midnightblue" stroke="midnightblue" points="1367.98,-582.46 1377.91,-578.77 1367.85,-575.46 1367.98,-582.46"/>
</g>
<!-- Node12 -->
<g id="node12" class="node">
<title>Node12</title>
<g id="a_node12"><a xlink:href="classQuantConnect_1_1SecurityIdentifier.html#a19e1f9da410608020d74ed9e7d283575" target="_top" xlink:title="Generates the Symbol property for QuantConnect.SecurityType.Base security identifiers">
<polygon fill="white" stroke="black" points="683,-536 683,-566 857,-566 857,-536 683,-536"/>
<text text-anchor="start" x="691" y="-554" font-family="Helvetica,sans-Serif" font-size="10.00">QuantConnect.SecurityIdentifier.</text>
<text text-anchor="middle" x="770" y="-543" font-family="Helvetica,sans-Serif" font-size="10.00">GenerateBaseSymbol</text>
</a>
</g>
</g>
<!-- Node11&#45;&gt;Node12 -->
<g id="edge11" class="edge">
<title>Node11&#45;&gt;Node12</title>
<path fill="none" stroke="midnightblue" d="M636.54,-551C648.39,-551 660.62,-551 672.64,-551"/>
<polygon fill="midnightblue" stroke="midnightblue" points="672.68,-554.5 682.68,-551 672.68,-547.5 672.68,-554.5"/>
</g>
<!-- Node21 -->
<g id="node21" class="node">
<title>Node21</title>
<g id="a_node21"><a xlink:href="classQuantConnect_1_1Globals.html#ae01b5c94ef475a21ab1a62fe1b04ea5c" target="_top" xlink:title="Helper method that will build a data folder path checking if it exists on the cache folder else will ...">
<polygon fill="white" stroke="black" points="476.5,-144 476.5,-174 622.5,-174 622.5,-144 476.5,-144"/>
<text text-anchor="start" x="484.5" y="-162" font-family="Helvetica,sans-Serif" font-size="10.00">QuantConnect.Globals.Get</text>
<text text-anchor="middle" x="549.5" y="-151" font-family="Helvetica,sans-Serif" font-size="10.00">DataFolderPath</text>
</a>
</g>
</g>
<!-- Node20&#45;&gt;Node21 -->
<g id="edge22" class="edge">
<title>Node20&#45;&gt;Node21</title>
<path fill="none" stroke="midnightblue" d="M419.14,-142.31C434.67,-144.31 450.8,-146.39 466.18,-148.38"/>
<polygon fill="midnightblue" stroke="midnightblue" points="465.8,-151.86 476.17,-149.67 466.7,-144.92 465.8,-151.86"/>
</g>
<!-- Node22 -->
<g id="node22" class="node">
<title>Node22</title>
<g id="a_node22"><a xlink:href="classQuantConnect_1_1Securities_1_1SymbolPropertiesDatabase.html#a1658f93bf0dce7022bb7584e1a95cc7a" target="_top" xlink:title="Initialize a new instance of SymbolPropertiesDatabase using the given file">
<polygon fill="white" stroke="black" points="455,-83.5 455,-124.5 644,-124.5 644,-83.5 455,-83.5"/>
<text text-anchor="start" x="463" y="-112.5" font-family="Helvetica,sans-Serif" font-size="10.00">QuantConnect.Securities.</text>
<text text-anchor="start" x="463" y="-101.5" font-family="Helvetica,sans-Serif" font-size="10.00">SymbolPropertiesDatabase.Symbol</text>
<text text-anchor="middle" x="549.5" y="-90.5" font-family="Helvetica,sans-Serif" font-size="10.00">PropertiesDatabase</text>
</a>
</g>
</g>
<!-- Node20&#45;&gt;Node22 -->
<g id="edge23" class="edge">
<title>Node20&#45;&gt;Node22</title>
<path fill="none" stroke="midnightblue" d="M419.14,-120.1C427.59,-119.04 436.22,-117.97 444.81,-116.9"/>
<polygon fill="midnightblue" stroke="midnightblue" points="445.37,-120.36 454.86,-115.65 444.51,-113.41 445.37,-120.36"/>
</g>
<!-- Node23 -->
<g id="node23" class="node">
<title>Node23</title>
<g id="a_node23"><a xlink:href="classQuantConnect_1_1Messages_1_1SymbolPropertiesDatabase.html#a6abceae517a349a28223bfc2dc9106d7" target="_top" xlink:title="Returns a string saying a duplicated key was found while processing the given file">
<polygon fill="white" stroke="black" points="680,-83.5 680,-124.5 860,-124.5 860,-83.5 680,-83.5"/>
<text text-anchor="start" x="688" y="-112.5" font-family="Helvetica,sans-Serif" font-size="10.00">QuantConnect.Messages.Symbol</text>
<text text-anchor="start" x="688" y="-101.5" font-family="Helvetica,sans-Serif" font-size="10.00">PropertiesDatabase.DuplicateKey</text>
<text text-anchor="middle" x="770" y="-90.5" font-family="Helvetica,sans-Serif" font-size="10.00">InFile</text>
</a>
</g>
</g>
<!-- Node22&#45;&gt;Node23 -->
<g id="edge24" class="edge">
<title>Node22&#45;&gt;Node23</title>
<path fill="none" stroke="midnightblue" d="M644.11,-104C652.51,-104 661.04,-104 669.49,-104"/>
<polygon fill="midnightblue" stroke="midnightblue" points="669.74,-107.5 679.74,-104 669.74,-100.5 669.74,-107.5"/>
</g>
<!-- Node25 -->
<g id="node25" class="node">
<title>Node25</title>
<g id="a_node25"><a xlink:href="classQuantConnect_1_1SecurityIdentifier.html#a59bd74be4ec55a0e4631af9e10f65d7c" target="_top" xlink:title="Attempts to parse the specified &#160;as a SecurityIdentifier.">
<polygon fill="white" stroke="black" points="462.5,-34 462.5,-64 636.5,-64 636.5,-34 462.5,-34"/>
<text text-anchor="start" x="470.5" y="-52" font-family="Helvetica,sans-Serif" font-size="10.00">QuantConnect.SecurityIdentifier.</text>
<text text-anchor="middle" x="549.5" y="-41" font-family="Helvetica,sans-Serif" font-size="10.00">TryParse</text>
</a>
</g>
</g>
<!-- Node24&#45;&gt;Node25 -->
<g id="edge26" class="edge">
<title>Node24&#45;&gt;Node25</title>
<path fill="none" stroke="midnightblue" d="M417.58,-65.29C428.92,-63.88 440.62,-62.42 452.12,-60.99"/>
<polygon fill="midnightblue" stroke="midnightblue" points="452.68,-64.45 462.17,-59.74 451.82,-57.5 452.68,-64.45"/>
</g>
</g>
</svg>
