<?xml version="1.0" encoding="UTF-8" standalone="no"?>
<!DOCTYPE svg PUBLIC "-//W3C//DTD SVG 1.1//EN"
 "http://www.w3.org/Graphics/SVG/1.1/DTD/svg11.dtd">
<!-- Generated by graphviz version 2.43.0 (0)
 -->
<!-- Title: QuantConnect.Messages.EquityPriceVariationModel.InvalidSecurityType Pages: 1 -->
<svg width="421pt" height="50pt"
 viewBox="0.00 0.00 421.00 50.00" xmlns="http://www.w3.org/2000/svg" xmlns:xlink="http://www.w3.org/1999/xlink">
<g id="graph0" class="graph" transform="scale(1 1) rotate(0) translate(4 46)">
<title>QuantConnect.Messages.EquityPriceVariationModel.InvalidSecurityType</title>
<polygon fill="white" stroke="transparent" points="-4,4 -4,-46 417,-46 417,4 -4,4"/>
<!-- Node1 -->
<g id="node1" class="node">
<title>Node1</title>
<g id="a_node1"><a xlink:title="Returns a string message saying the type of the given security was invalid">
<polygon fill="#bfbfbf" stroke="black" points="201,-6 201,-36 413,-36 413,-6 201,-6"/>
<text text-anchor="start" x="209" y="-24" font-family="Helvetica,sans-Serif" font-size="10.00">QuantConnect.Messages.Equity</text>
<text text-anchor="middle" x="307" y="-13" font-family="Helvetica,sans-Serif" font-size="10.00">PriceVariationModel.InvalidSecurityType</text>
</a>
</g>
</g>
<!-- Node2 -->
<g id="node2" class="node">
<title>Node2</title>
<g id="a_node2"><a xlink:href="classQuantConnect_1_1Securities_1_1EquityPriceVariationModel.html#a200a375aa4c0440a1569e768304fe658" target="_top" xlink:title="Get the minimum price variation from a security">
<polygon fill="white" stroke="black" points="0,-0.5 0,-41.5 165,-41.5 165,-0.5 0,-0.5"/>
<text text-anchor="start" x="8" y="-29.5" font-family="Helvetica,sans-Serif" font-size="10.00">QuantConnect.Securities.</text>
<text text-anchor="start" x="8" y="-18.5" font-family="Helvetica,sans-Serif" font-size="10.00">EquityPriceVariationModel.Get</text>
<text text-anchor="middle" x="82.5" y="-7.5" font-family="Helvetica,sans-Serif" font-size="10.00">MinimumPriceVariation</text>
</a>
</g>
</g>
<!-- Node1&#45;&gt;Node2 -->
<g id="edge1" class="edge">
<title>Node1&#45;&gt;Node2</title>
<path fill="none" stroke="midnightblue" d="M190.77,-21C182.11,-21 173.48,-21 165.1,-21"/>
<polygon fill="midnightblue" stroke="midnightblue" points="190.94,-24.5 200.94,-21 190.94,-17.5 190.94,-24.5"/>
</g>
</g>
</svg>
