<?xml version="1.0" encoding="UTF-8" standalone="no"?>
<!DOCTYPE svg PUBLIC "-//W3C//DTD SVG 1.1//EN"
 "http://www.w3.org/Graphics/SVG/1.1/DTD/svg11.dtd">
<!-- Generated by graphviz version 2.43.0 (0)
 -->
<!-- Title: QuantConnect.Messages.DefaultBrokerageMessageHandler.DisconnectedWhenExchangesAreOpen Pages: 1 -->
<svg width="446pt" height="50pt"
 viewBox="0.00 0.00 446.00 50.00" xmlns="http://www.w3.org/2000/svg" xmlns:xlink="http://www.w3.org/1999/xlink">
<g id="graph0" class="graph" transform="scale(1 1) rotate(0) translate(4 46)">
<title>QuantConnect.Messages.DefaultBrokerageMessageHandler.DisconnectedWhenExchangesAreOpen</title>
<polygon fill="white" stroke="transparent" points="-4,4 -4,-46 442,-46 442,4 -4,4"/>
<!-- Node1 -->
<g id="node1" class="node">
<title>Node1</title>
<g id="a_node1"><a xlink:title="Returns a string message saying the brokerage is disconnected when exchanges are open and that it&#39;s t...">
<polygon fill="#bfbfbf" stroke="black" points="222,-0.5 222,-41.5 438,-41.5 438,-0.5 222,-0.5"/>
<text text-anchor="start" x="230" y="-29.5" font-family="Helvetica,sans-Serif" font-size="10.00">QuantConnect.Messages.Default</text>
<text text-anchor="start" x="230" y="-18.5" font-family="Helvetica,sans-Serif" font-size="10.00">BrokerageMessageHandler.Disconnected</text>
<text text-anchor="middle" x="330" y="-7.5" font-family="Helvetica,sans-Serif" font-size="10.00">WhenExchangesAreOpen</text>
</a>
</g>
</g>
<!-- Node2 -->
<g id="node2" class="node">
<title>Node2</title>
<g id="a_node2"><a xlink:href="classQuantConnect_1_1Brokerages_1_1DefaultBrokerageMessageHandler.html#ad83d56fb469c9bd8947030a8fbe70922" target="_top" xlink:title="Handles the message">
<polygon fill="white" stroke="black" points="0,-0.5 0,-41.5 186,-41.5 186,-0.5 0,-0.5"/>
<text text-anchor="start" x="8" y="-29.5" font-family="Helvetica,sans-Serif" font-size="10.00">QuantConnect.Brokerages.</text>
<text text-anchor="start" x="8" y="-18.5" font-family="Helvetica,sans-Serif" font-size="10.00">DefaultBrokerageMessageHandler.</text>
<text text-anchor="middle" x="93" y="-7.5" font-family="Helvetica,sans-Serif" font-size="10.00">HandleMessage</text>
</a>
</g>
</g>
<!-- Node1&#45;&gt;Node2 -->
<g id="edge1" class="edge">
<title>Node1&#45;&gt;Node2</title>
<path fill="none" stroke="midnightblue" d="M211.78,-21C203.23,-21 194.67,-21 186.29,-21"/>
<polygon fill="midnightblue" stroke="midnightblue" points="211.82,-24.5 221.82,-21 211.82,-17.5 211.82,-24.5"/>
</g>
</g>
</svg>
