<?xml version="1.0" encoding="UTF-8" standalone="no"?>
<!DOCTYPE svg PUBLIC "-//W3C//DTD SVG 1.1//EN"
 "http://www.w3.org/Graphics/SVG/1.1/DTD/svg11.dtd">
<!-- Generated by graphviz version 2.43.0 (0)
 -->
<!-- Title: QuantConnect.Securities.Option.OptionSymbol.GetLastDayOfTrading Pages: 1 -->
<svg width="1098pt" height="410pt"
 viewBox="0.00 0.00 1098.00 409.50" xmlns="http://www.w3.org/2000/svg" xmlns:xlink="http://www.w3.org/1999/xlink">
<g id="graph0" class="graph" transform="scale(1 1) rotate(0) translate(4 405.5)">
<title>QuantConnect.Securities.Option.OptionSymbol.GetLastDayOfTrading</title>
<polygon fill="white" stroke="transparent" points="-4,4 -4,-405.5 1094,-405.5 1094,4 -4,4"/>
<!-- Node1 -->
<g id="node1" class="node">
<title>Node1</title>
<g id="a_node1"><a xlink:title="Returns the last trading date for the option contract">
<polygon fill="#bfbfbf" stroke="black" points="0,-165.5 0,-206.5 181,-206.5 181,-165.5 0,-165.5"/>
<text text-anchor="start" x="8" y="-194.5" font-family="Helvetica,sans-Serif" font-size="10.00">QuantConnect.Securities.</text>
<text text-anchor="start" x="8" y="-183.5" font-family="Helvetica,sans-Serif" font-size="10.00">Option.OptionSymbol.GetLastDay</text>
<text text-anchor="middle" x="90.5" y="-172.5" font-family="Helvetica,sans-Serif" font-size="10.00">OfTrading</text>
</a>
</g>
</g>
<!-- Node2 -->
<g id="node2" class="node">
<title>Node2</title>
<g id="a_node2"><a xlink:href="classQuantConnect_1_1Securities_1_1MarketHoursDatabase.html#aa01232d91c17c556b18ea8f1f7fabcd0" target="_top" xlink:title="Gets the instance of the MarketHoursDatabase class produced by reading in the market hours data found...">
<polygon fill="white" stroke="black" points="217,-321.5 217,-362.5 393,-362.5 393,-321.5 217,-321.5"/>
<text text-anchor="start" x="225" y="-350.5" font-family="Helvetica,sans-Serif" font-size="10.00">QuantConnect.Securities.</text>
<text text-anchor="start" x="225" y="-339.5" font-family="Helvetica,sans-Serif" font-size="10.00">MarketHoursDatabase.FromData</text>
<text text-anchor="middle" x="305" y="-328.5" font-family="Helvetica,sans-Serif" font-size="10.00">Folder</text>
</a>
</g>
</g>
<!-- Node1&#45;&gt;Node2 -->
<g id="edge1" class="edge">
<title>Node1&#45;&gt;Node2</title>
<path fill="none" stroke="midnightblue" d="M119.72,-206.72C157.85,-234.71 225.86,-284.63 267.74,-315.38"/>
<polygon fill="midnightblue" stroke="midnightblue" points="265.87,-318.35 276,-321.45 270.01,-312.71 265.87,-318.35"/>
</g>
<!-- Node5 -->
<g id="node5" class="node">
<title>Node5</title>
<g id="a_node5"><a xlink:href="classQuantConnect_1_1Securities_1_1MarketHoursDatabase.html#aeac6cf20dbffdbafd258f0d5f4473713" target="_top" xlink:title="Gets the entry for the specified market/symbol/security&#45;type">
<polygon fill="white" stroke="black" points="219.5,-171 219.5,-201 390.5,-201 390.5,-171 219.5,-171"/>
<text text-anchor="start" x="227.5" y="-189" font-family="Helvetica,sans-Serif" font-size="10.00">QuantConnect.Securities.</text>
<text text-anchor="middle" x="305" y="-178" font-family="Helvetica,sans-Serif" font-size="10.00">MarketHoursDatabase.GetEntry</text>
</a>
</g>
</g>
<!-- Node1&#45;&gt;Node5 -->
<g id="edge4" class="edge">
<title>Node1&#45;&gt;Node5</title>
<path fill="none" stroke="midnightblue" d="M181,-186C190.33,-186 199.84,-186 209.22,-186"/>
<polygon fill="midnightblue" stroke="midnightblue" points="209.35,-189.5 219.35,-186 209.35,-182.5 209.35,-189.5"/>
</g>
<!-- Node16 -->
<g id="node16" class="node">
<title>Node16</title>
<g id="a_node16"><a xlink:href="classQuantConnect_1_1Securities_1_1Option_1_1OptionSymbol.html#a67479caa555c9b1c103efabf3e7e038c" target="_top" xlink:title="Returns true if the option is a standard contract that expires 3rd Friday of the month">
<polygon fill="white" stroke="black" points="217,-122 217,-152 393,-152 393,-122 217,-122"/>
<text text-anchor="start" x="225" y="-140" font-family="Helvetica,sans-Serif" font-size="10.00">QuantConnect.Securities.</text>
<text text-anchor="middle" x="305" y="-129" font-family="Helvetica,sans-Serif" font-size="10.00">Option.OptionSymbol.IsStandard</text>
</a>
</g>
</g>
<!-- Node1&#45;&gt;Node16 -->
<g id="edge16" class="edge">
<title>Node1&#45;&gt;Node16</title>
<path fill="none" stroke="midnightblue" d="M180.7,-165.43C196.72,-161.74 213.28,-157.92 228.86,-154.33"/>
<polygon fill="midnightblue" stroke="midnightblue" points="229.98,-157.66 238.94,-152 228.41,-150.84 229.98,-157.66"/>
</g>
<!-- Node3 -->
<g id="node3" class="node">
<title>Node3</title>
<g id="a_node3"><a xlink:href="classQuantConnect_1_1Securities_1_1MarketHoursDatabase.html#a6fdcc5f6d09cc11743e258e570d0a9eb" target="_top" xlink:title="Reads the specified file as a market hours database instance">
<polygon fill="white" stroke="black" points="452.5,-371 452.5,-401 622.5,-401 622.5,-371 452.5,-371"/>
<text text-anchor="start" x="460.5" y="-389" font-family="Helvetica,sans-Serif" font-size="10.00">QuantConnect.Securities.</text>
<text text-anchor="middle" x="537.5" y="-378" font-family="Helvetica,sans-Serif" font-size="10.00">MarketHoursDatabase.FromFile</text>
</a>
</g>
</g>
<!-- Node2&#45;&gt;Node3 -->
<g id="edge2" class="edge">
<title>Node2&#45;&gt;Node3</title>
<path fill="none" stroke="midnightblue" d="M393.14,-358.63C411,-362.04 429.81,-365.63 447.73,-369.05"/>
<polygon fill="midnightblue" stroke="midnightblue" points="447.09,-372.5 457.57,-370.93 448.41,-365.62 447.09,-372.5"/>
</g>
<!-- Node4 -->
<g id="node4" class="node">
<title>Node4</title>
<g id="a_node4"><a xlink:href="classQuantConnect_1_1Globals.html#ae01b5c94ef475a21ab1a62fe1b04ea5c" target="_top" xlink:title="Helper method that will build a data folder path checking if it exists on the cache folder else will ...">
<polygon fill="white" stroke="black" points="705,-328 705,-358 851,-358 851,-328 705,-328"/>
<text text-anchor="start" x="713" y="-346" font-family="Helvetica,sans-Serif" font-size="10.00">QuantConnect.Globals.Get</text>
<text text-anchor="middle" x="778" y="-335" font-family="Helvetica,sans-Serif" font-size="10.00">DataFolderPath</text>
</a>
</g>
</g>
<!-- Node2&#45;&gt;Node4 -->
<g id="edge3" class="edge">
<title>Node2&#45;&gt;Node4</title>
<path fill="none" stroke="midnightblue" d="M393.21,-342.19C479.45,-342.37 610.43,-342.65 694.86,-342.83"/>
<polygon fill="midnightblue" stroke="midnightblue" points="694.91,-346.33 704.92,-342.85 694.93,-339.33 694.91,-346.33"/>
</g>
<!-- Node6 -->
<g id="node6" class="node">
<title>Node6</title>
<g id="a_node6"><a xlink:href="classQuantConnect_1_1Logging_1_1Log.html#af0e7955911bc7664b37661b2a303a9e3" target="_top" xlink:title="Log error">
<polygon fill="white" stroke="black" points="462.5,-220 462.5,-250 612.5,-250 612.5,-220 462.5,-220"/>
<text text-anchor="start" x="470.5" y="-238" font-family="Helvetica,sans-Serif" font-size="10.00">QuantConnect.Logging.Log.</text>
<text text-anchor="middle" x="537.5" y="-227" font-family="Helvetica,sans-Serif" font-size="10.00">Error</text>
</a>
</g>
</g>
<!-- Node5&#45;&gt;Node6 -->
<g id="edge5" class="edge">
<title>Node5&#45;&gt;Node6</title>
<path fill="none" stroke="midnightblue" d="M376.72,-201.03C401.73,-206.35 430.03,-212.37 455.8,-217.84"/>
<polygon fill="midnightblue" stroke="midnightblue" points="455.4,-221.34 465.91,-219.99 456.86,-214.49 455.4,-221.34"/>
</g>
<!-- Node8 -->
<g id="node8" class="node">
<title>Node8</title>
<g id="a_node8"><a xlink:href="classQuantConnect_1_1Messages_1_1MarketHoursDatabase.html#af07138844a7ebc1a342f8b56a6be9917" target="_top" xlink:title="Returns a string message saying it was impossible to locate exchange hours for the given key....">
<polygon fill="white" stroke="black" points="429,-171 429,-201 646,-201 646,-171 429,-171"/>
<text text-anchor="start" x="437" y="-189" font-family="Helvetica,sans-Serif" font-size="10.00">QuantConnect.Messages.Market</text>
<text text-anchor="middle" x="537.5" y="-178" font-family="Helvetica,sans-Serif" font-size="10.00">HoursDatabase.ExchangeHoursNotFound</text>
</a>
</g>
</g>
<!-- Node5&#45;&gt;Node8 -->
<g id="edge7" class="edge">
<title>Node5&#45;&gt;Node8</title>
<path fill="none" stroke="midnightblue" d="M390.52,-186C399.67,-186 409.1,-186 418.56,-186"/>
<polygon fill="midnightblue" stroke="midnightblue" points="418.82,-189.5 428.82,-186 418.82,-182.5 418.82,-189.5"/>
</g>
<!-- Node9 -->
<g id="node9" class="node">
<title>Node9</title>
<g id="a_node9"><a xlink:href="classQuantConnect_1_1Securities_1_1SymbolPropertiesDatabase.html#aee26fb588793fd311c44eb8b2909cc33" target="_top" xlink:title="Gets the instance of the SymbolPropertiesDatabase class produced by reading in the symbol properties ...">
<polygon fill="white" stroke="black" points="449,-269.5 449,-310.5 626,-310.5 626,-269.5 449,-269.5"/>
<text text-anchor="start" x="457" y="-298.5" font-family="Helvetica,sans-Serif" font-size="10.00">QuantConnect.Securities.</text>
<text text-anchor="start" x="457" y="-287.5" font-family="Helvetica,sans-Serif" font-size="10.00">SymbolPropertiesDatabase.From</text>
<text text-anchor="middle" x="537.5" y="-276.5" font-family="Helvetica,sans-Serif" font-size="10.00">DataFolder</text>
</a>
</g>
</g>
<!-- Node5&#45;&gt;Node9 -->
<g id="edge8" class="edge">
<title>Node5&#45;&gt;Node9</title>
<path fill="none" stroke="midnightblue" d="M327.26,-201.24C351.06,-217.69 391.24,-243.73 429,-260 434,-262.16 439.21,-264.2 444.5,-266.13"/>
<polygon fill="midnightblue" stroke="midnightblue" points="443.52,-269.5 454.12,-269.49 445.83,-262.89 443.52,-269.5"/>
</g>
<!-- Node12 -->
<g id="node12" class="node">
<title>Node12</title>
<g id="a_node12"><a xlink:href="classQuantConnect_1_1Messages_1_1MarketHoursDatabase.html#a656d4c4976d6c12d2d865ad34fb23c42" target="_top" xlink:title="Returns a string message that suggests the given market based on the provided ticker">
<polygon fill="white" stroke="black" points="433,-110.5 433,-151.5 642,-151.5 642,-110.5 433,-110.5"/>
<text text-anchor="start" x="441" y="-139.5" font-family="Helvetica,sans-Serif" font-size="10.00">QuantConnect.Messages.Market</text>
<text text-anchor="start" x="441" y="-128.5" font-family="Helvetica,sans-Serif" font-size="10.00">HoursDatabase.SuggestedMarketBased</text>
<text text-anchor="middle" x="537.5" y="-117.5" font-family="Helvetica,sans-Serif" font-size="10.00">OnTicker</text>
</a>
</g>
</g>
<!-- Node5&#45;&gt;Node12 -->
<g id="edge12" class="edge">
<title>Node5&#45;&gt;Node12</title>
<path fill="none" stroke="midnightblue" d="M368.99,-170.97C391.01,-165.72 416.27,-159.69 440.37,-153.94"/>
<polygon fill="midnightblue" stroke="midnightblue" points="441.35,-157.3 450.26,-151.58 439.72,-150.49 441.35,-157.3"/>
</g>
<!-- Node13 -->
<g id="node13" class="node">
<title>Node13</title>
<g id="a_node13"><a xlink:href="classQuantConnect_1_1Securities_1_1MarketHoursDatabase.html#a3eedd1459368e8f50da2cedfc7508006" target="_top" xlink:title="Tries to get the entry for the specified market/symbol/security&#45;type">
<polygon fill="white" stroke="black" points="445,-61 445,-91 630,-91 630,-61 445,-61"/>
<text text-anchor="start" x="453" y="-79" font-family="Helvetica,sans-Serif" font-size="10.00">QuantConnect.Securities.</text>
<text text-anchor="middle" x="537.5" y="-68" font-family="Helvetica,sans-Serif" font-size="10.00">MarketHoursDatabase.TryGetEntry</text>
</a>
</g>
</g>
<!-- Node5&#45;&gt;Node13 -->
<g id="edge13" class="edge">
<title>Node5&#45;&gt;Node13</title>
<path fill="none" stroke="midnightblue" d="M378.4,-170.89C383.58,-168.37 388.52,-165.43 393,-162 418,-142.86 403.62,-119.62 429,-101 431.54,-99.13 434.21,-97.4 436.96,-95.8"/>
<polygon fill="midnightblue" stroke="midnightblue" points="438.76,-98.81 446.03,-91.1 435.55,-92.59 438.76,-98.81"/>
</g>
<!-- Node15 -->
<g id="node15" class="node">
<title>Node15</title>
<g id="a_node15"><a xlink:href="classQuantConnect_1_1Securities_1_1SymbolPropertiesDatabase.html#a5a7baeddd03bfc7fb60cef8ab2e6834b" target="_top" xlink:title="Tries to get the market for the provided symbol/security type">
<polygon fill="white" stroke="black" points="454,-0.5 454,-41.5 621,-41.5 621,-0.5 454,-0.5"/>
<text text-anchor="start" x="462" y="-29.5" font-family="Helvetica,sans-Serif" font-size="10.00">QuantConnect.Securities.</text>
<text text-anchor="start" x="462" y="-18.5" font-family="Helvetica,sans-Serif" font-size="10.00">SymbolPropertiesDatabase.Try</text>
<text text-anchor="middle" x="537.5" y="-7.5" font-family="Helvetica,sans-Serif" font-size="10.00">GetMarket</text>
</a>
</g>
</g>
<!-- Node5&#45;&gt;Node15 -->
<g id="edge15" class="edge">
<title>Node5&#45;&gt;Node15</title>
<path fill="none" stroke="midnightblue" d="M380.94,-170.99C385.3,-168.44 389.38,-165.47 393,-162 430.48,-126.15 391.57,-86.9 429,-51 433.68,-46.51 438.97,-42.68 444.64,-39.42"/>
<polygon fill="midnightblue" stroke="midnightblue" points="446.5,-42.4 453.82,-34.74 443.32,-36.16 446.5,-42.4"/>
</g>
<!-- Node7 -->
<g id="node7" class="node">
<title>Node7</title>
<g id="a_node7"><a xlink:href="interfaceQuantConnect_1_1Logging_1_1ILogHandler.html#a35373a0c5d76031fa5ccf5dc39e5c25d" target="_top" xlink:title="Write error message to log">
<polygon fill="white" stroke="black" points="703,-218 703,-248 853,-248 853,-218 703,-218"/>
<text text-anchor="start" x="711" y="-236" font-family="Helvetica,sans-Serif" font-size="10.00">QuantConnect.Logging.ILog</text>
<text text-anchor="middle" x="778" y="-225" font-family="Helvetica,sans-Serif" font-size="10.00">Handler.Error</text>
</a>
</g>
</g>
<!-- Node6&#45;&gt;Node7 -->
<g id="edge6" class="edge">
<title>Node6&#45;&gt;Node7</title>
<path fill="none" stroke="midnightblue" d="M612.66,-234.38C638.01,-234.17 666.55,-233.93 692.64,-233.71"/>
<polygon fill="midnightblue" stroke="midnightblue" points="692.92,-237.21 702.89,-233.62 692.86,-230.21 692.92,-237.21"/>
</g>
<!-- Node9&#45;&gt;Node4 -->
<g id="edge9" class="edge">
<title>Node9&#45;&gt;Node4</title>
<path fill="none" stroke="midnightblue" d="M626.29,-309.51C650.23,-314.83 676,-320.55 699.33,-325.74"/>
<polygon fill="midnightblue" stroke="midnightblue" points="698.65,-329.17 709.17,-327.93 700.17,-322.34 698.65,-329.17"/>
</g>
<!-- Node10 -->
<g id="node10" class="node">
<title>Node10</title>
<g id="a_node10"><a xlink:href="classQuantConnect_1_1Securities_1_1SymbolPropertiesDatabase.html#a1658f93bf0dce7022bb7584e1a95cc7a" target="_top" xlink:title="Initialize a new instance of SymbolPropertiesDatabase using the given file">
<polygon fill="white" stroke="black" points="683.5,-267.5 683.5,-308.5 872.5,-308.5 872.5,-267.5 683.5,-267.5"/>
<text text-anchor="start" x="691.5" y="-296.5" font-family="Helvetica,sans-Serif" font-size="10.00">QuantConnect.Securities.</text>
<text text-anchor="start" x="691.5" y="-285.5" font-family="Helvetica,sans-Serif" font-size="10.00">SymbolPropertiesDatabase.Symbol</text>
<text text-anchor="middle" x="778" y="-274.5" font-family="Helvetica,sans-Serif" font-size="10.00">PropertiesDatabase</text>
</a>
</g>
</g>
<!-- Node9&#45;&gt;Node10 -->
<g id="edge10" class="edge">
<title>Node9&#45;&gt;Node10</title>
<path fill="none" stroke="midnightblue" d="M626.29,-289.26C641.55,-289.14 657.54,-289 673.17,-288.87"/>
<polygon fill="midnightblue" stroke="midnightblue" points="673.41,-292.37 683.38,-288.79 673.35,-285.37 673.41,-292.37"/>
</g>
<!-- Node11 -->
<g id="node11" class="node">
<title>Node11</title>
<g id="a_node11"><a xlink:href="classQuantConnect_1_1Messages_1_1SymbolPropertiesDatabase.html#a6abceae517a349a28223bfc2dc9106d7" target="_top" xlink:title="Returns a string saying a duplicated key was found while processing the given file">
<polygon fill="white" stroke="black" points="910,-267.5 910,-308.5 1090,-308.5 1090,-267.5 910,-267.5"/>
<text text-anchor="start" x="918" y="-296.5" font-family="Helvetica,sans-Serif" font-size="10.00">QuantConnect.Messages.Symbol</text>
<text text-anchor="start" x="918" y="-285.5" font-family="Helvetica,sans-Serif" font-size="10.00">PropertiesDatabase.DuplicateKey</text>
<text text-anchor="middle" x="1000" y="-274.5" font-family="Helvetica,sans-Serif" font-size="10.00">InFile</text>
</a>
</g>
</g>
<!-- Node10&#45;&gt;Node11 -->
<g id="edge11" class="edge">
<title>Node10&#45;&gt;Node11</title>
<path fill="none" stroke="midnightblue" d="M872.62,-288C881.54,-288 890.61,-288 899.58,-288"/>
<polygon fill="midnightblue" stroke="midnightblue" points="899.66,-291.5 909.66,-288 899.66,-284.5 899.66,-291.5"/>
</g>
<!-- Node14 -->
<g id="node14" class="node">
<title>Node14</title>
<g id="a_node14"><a xlink:href="classQuantConnect_1_1Securities_1_1MarketHoursDatabase.html#aa717adb9bb04be931913608ffd5a2733" target="_top" xlink:title="Gets the correct string symbol to use as a database key">
<polygon fill="white" stroke="black" points="682,-55.5 682,-96.5 874,-96.5 874,-55.5 682,-55.5"/>
<text text-anchor="start" x="690" y="-84.5" font-family="Helvetica,sans-Serif" font-size="10.00">QuantConnect.Securities.</text>
<text text-anchor="start" x="690" y="-73.5" font-family="Helvetica,sans-Serif" font-size="10.00">MarketHoursDatabase.GetDatabase</text>
<text text-anchor="middle" x="778" y="-62.5" font-family="Helvetica,sans-Serif" font-size="10.00">SymbolKey</text>
</a>
</g>
</g>
<!-- Node13&#45;&gt;Node14 -->
<g id="edge14" class="edge">
<title>Node13&#45;&gt;Node14</title>
<path fill="none" stroke="midnightblue" d="M630.03,-76C643.66,-76 657.81,-76 671.7,-76"/>
<polygon fill="midnightblue" stroke="midnightblue" points="671.76,-79.5 681.76,-76 671.76,-72.5 671.76,-79.5"/>
</g>
</g>
</svg>
