<?xml version="1.0" encoding="UTF-8" standalone="no"?>
<!DOCTYPE svg PUBLIC "-//W3C//DTD SVG 1.1//EN"
 "http://www.w3.org/Graphics/SVG/1.1/DTD/svg11.dtd">
<!-- Generated by graphviz version 2.43.0 (0)
 -->
<!-- Title: QuantConnect.Lean.Engine.DataFeeds.BaseSubscriptionDataSourceReader Pages: 1 -->
<svg width="888pt" height="230pt"
 viewBox="0.00 0.00 888.00 230.00" xmlns="http://www.w3.org/2000/svg" xmlns:xlink="http://www.w3.org/1999/xlink">
<g id="graph0" class="graph" transform="scale(1 1) rotate(0) translate(4 226)">
<title>QuantConnect.Lean.Engine.DataFeeds.BaseSubscriptionDataSourceReader</title>
<polygon fill="white" stroke="transparent" points="-4,4 -4,-226 884,-226 884,4 -4,4"/>
<!-- Node1 -->
<g id="node1" class="node">
<title>Node1</title>
<g id="a_node1"><a xlink:title="A base class for implementations of the ISubscriptionDataSourceReader">
<polygon fill="#bfbfbf" stroke="black" points="206,-90.5 206,-131.5 385,-131.5 385,-90.5 206,-90.5"/>
<text text-anchor="start" x="214" y="-119.5" font-family="Helvetica,sans-Serif" font-size="10.00">QuantConnect.Lean.Engine.</text>
<text text-anchor="start" x="214" y="-108.5" font-family="Helvetica,sans-Serif" font-size="10.00">DataFeeds.BaseSubscriptionData</text>
<text text-anchor="middle" x="295.5" y="-97.5" font-family="Helvetica,sans-Serif" font-size="10.00">SourceReader</text>
</a>
</g>
</g>
<!-- Node3 -->
<g id="node3" class="node">
<title>Node3</title>
<g id="a_node3"><a xlink:href="classQuantConnect_1_1Lean_1_1Engine_1_1DataFeeds_1_1CollectionSubscriptionDataSourceReader.html" target="_top" xlink:title="Collection Subscription Factory takes a BaseDataCollection from BaseData factories and yields it one ...">
<polygon fill="white" stroke="black" points="432,-180.5 432,-221.5 612,-221.5 612,-180.5 432,-180.5"/>
<text text-anchor="start" x="440" y="-209.5" font-family="Helvetica,sans-Serif" font-size="10.00">QuantConnect.Lean.Engine.</text>
<text text-anchor="start" x="440" y="-198.5" font-family="Helvetica,sans-Serif" font-size="10.00">DataFeeds.CollectionSubscription</text>
<text text-anchor="middle" x="522" y="-187.5" font-family="Helvetica,sans-Serif" font-size="10.00">DataSourceReader</text>
</a>
</g>
</g>
<!-- Node1&#45;&gt;Node3 -->
<g id="edge2" class="edge">
<title>Node1&#45;&gt;Node3</title>
<path fill="none" stroke="midnightblue" d="M344.19,-136.17C367.05,-147.66 395.05,-160.93 421,-171 429.53,-174.31 438.59,-177.49 447.63,-180.44"/>
<polygon fill="midnightblue" stroke="midnightblue" points="345.55,-132.93 335.05,-131.53 342.38,-139.17 345.55,-132.93"/>
</g>
<!-- Node4 -->
<g id="node4" class="node">
<title>Node4</title>
<g id="a_node4"><a xlink:href="classQuantConnect_1_1Lean_1_1Engine_1_1DataFeeds_1_1IndexSubscriptionDataSourceReader.html" target="_top" xlink:title="This ISubscriptionDataSourceReader implementation supports the FileFormat.Index and IndexedBaseData t...">
<polygon fill="white" stroke="black" points="431,-120.5 431,-161.5 613,-161.5 613,-120.5 431,-120.5"/>
<text text-anchor="start" x="439" y="-149.5" font-family="Helvetica,sans-Serif" font-size="10.00">QuantConnect.Lean.Engine.</text>
<text text-anchor="start" x="439" y="-138.5" font-family="Helvetica,sans-Serif" font-size="10.00">DataFeeds.IndexSubscriptionData</text>
<text text-anchor="middle" x="522" y="-127.5" font-family="Helvetica,sans-Serif" font-size="10.00">SourceReader</text>
</a>
</g>
</g>
<!-- Node1&#45;&gt;Node4 -->
<g id="edge3" class="edge">
<title>Node1&#45;&gt;Node4</title>
<path fill="none" stroke="midnightblue" d="M395.47,-124.23C407.19,-125.79 419.11,-127.38 430.71,-128.93"/>
<polygon fill="midnightblue" stroke="midnightblue" points="395.6,-120.71 385.23,-122.86 394.68,-127.65 395.6,-120.71"/>
</g>
<!-- Node5 -->
<g id="node5" class="node">
<title>Node5</title>
<g id="a_node5"><a xlink:href="classQuantConnect_1_1Lean_1_1Engine_1_1DataFeeds_1_1TextSubscriptionDataSourceReader.html" target="_top" xlink:title="Provides an implementations of ISubscriptionDataSourceReader that uses the BaseData....">
<polygon fill="white" stroke="black" points="434.5,-60.5 434.5,-101.5 609.5,-101.5 609.5,-60.5 434.5,-60.5"/>
<text text-anchor="start" x="442.5" y="-89.5" font-family="Helvetica,sans-Serif" font-size="10.00">QuantConnect.Lean.Engine.</text>
<text text-anchor="start" x="442.5" y="-78.5" font-family="Helvetica,sans-Serif" font-size="10.00">DataFeeds.TextSubscriptionData</text>
<text text-anchor="middle" x="522" y="-67.5" font-family="Helvetica,sans-Serif" font-size="10.00">SourceReader</text>
</a>
</g>
</g>
<!-- Node1&#45;&gt;Node5 -->
<g id="edge4" class="edge">
<title>Node1&#45;&gt;Node5</title>
<path fill="none" stroke="midnightblue" d="M395.16,-97.82C408.23,-96.07 421.54,-94.29 434.38,-92.57"/>
<polygon fill="midnightblue" stroke="midnightblue" points="394.68,-94.35 385.23,-99.14 395.6,-101.29 394.68,-94.35"/>
</g>
<!-- Node7 -->
<g id="node7" class="node">
<title>Node7</title>
<g id="a_node7"><a xlink:href="classQuantConnect_1_1Lean_1_1Engine_1_1DataFeeds_1_1ZipEntryNameSubscriptionDataSourceReader.html" target="_top" xlink:title="Provides an implementation of ISubscriptionDataSourceReader that reads zip entry names">
<polygon fill="white" stroke="black" points="421,-0.5 421,-41.5 623,-41.5 623,-0.5 421,-0.5"/>
<text text-anchor="start" x="429" y="-29.5" font-family="Helvetica,sans-Serif" font-size="10.00">QuantConnect.Lean.Engine.</text>
<text text-anchor="start" x="429" y="-18.5" font-family="Helvetica,sans-Serif" font-size="10.00">DataFeeds.ZipEntryNameSubscription</text>
<text text-anchor="middle" x="522" y="-7.5" font-family="Helvetica,sans-Serif" font-size="10.00">DataSourceReader</text>
</a>
</g>
</g>
<!-- Node1&#45;&gt;Node7 -->
<g id="edge6" class="edge">
<title>Node1&#45;&gt;Node7</title>
<path fill="none" stroke="midnightblue" d="M344.19,-85.83C367.05,-74.34 395.05,-61.07 421,-51 429.53,-47.69 438.59,-44.51 447.63,-41.56"/>
<polygon fill="midnightblue" stroke="midnightblue" points="342.38,-82.83 335.05,-90.47 345.55,-89.07 342.38,-82.83"/>
</g>
<!-- Node2 -->
<g id="node2" class="node">
<title>Node2</title>
<g id="a_node2"><a xlink:href="interfaceQuantConnect_1_1Lean_1_1Engine_1_1DataFeeds_1_1ISubscriptionDataSourceReader.html" target="_top" xlink:title="Represents a type responsible for accepting an input SubscriptionDataSource and returning an enumerab...">
<polygon fill="white" stroke="black" points="0,-101.5 0,-120.5 170,-120.5 170,-101.5 0,-101.5"/>
<text text-anchor="middle" x="85" y="-108.5" font-family="Helvetica,sans-Serif" font-size="10.00">ISubscriptionDataSourceReader</text>
</a>
</g>
</g>
<!-- Node2&#45;&gt;Node1 -->
<g id="edge1" class="edge">
<title>Node2&#45;&gt;Node1</title>
<path fill="none" stroke="midnightblue" d="M180.47,-111C188.93,-111 197.49,-111 205.9,-111"/>
<polygon fill="midnightblue" stroke="midnightblue" points="180.2,-107.5 170.2,-111 180.2,-114.5 180.2,-107.5"/>
</g>
<!-- Node6 -->
<g id="node6" class="node">
<title>Node6</title>
<g id="a_node6"><a xlink:href="classQuantConnect_1_1Lean_1_1Engine_1_1DataFeeds_1_1BaseDataCollectionAggregatorReader.html" target="_top" xlink:title="Data source reader that will aggregate data points into a base data collection">
<polygon fill="white" stroke="black" points="659,-60.5 659,-101.5 880,-101.5 880,-60.5 659,-60.5"/>
<text text-anchor="start" x="667" y="-89.5" font-family="Helvetica,sans-Serif" font-size="10.00">QuantConnect.Lean.Engine.</text>
<text text-anchor="start" x="667" y="-78.5" font-family="Helvetica,sans-Serif" font-size="10.00">DataFeeds.BaseDataCollectionAggregator</text>
<text text-anchor="middle" x="769.5" y="-67.5" font-family="Helvetica,sans-Serif" font-size="10.00">Reader</text>
</a>
</g>
</g>
<!-- Node5&#45;&gt;Node6 -->
<g id="edge5" class="edge">
<title>Node5&#45;&gt;Node6</title>
<path fill="none" stroke="midnightblue" d="M619.71,-81C632.49,-81 645.66,-81 658.64,-81"/>
<polygon fill="midnightblue" stroke="midnightblue" points="619.55,-77.5 609.55,-81 619.55,-84.5 619.55,-77.5"/>
</g>
</g>
</svg>
