<?xml version="1.0" encoding="UTF-8" standalone="no"?>
<!DOCTYPE svg PUBLIC "-//W3C//DTD SVG 1.1//EN"
 "http://www.w3.org/Graphics/SVG/1.1/DTD/svg11.dtd">
<!-- Generated by graphviz version 2.43.0 (0)
 -->
<!-- Title: QuantConnect.Algorithm.Framework.Selection.CustomUniverseSelectionModel.CustomUniverseSelectionModel Pages: 1 -->
<svg width="1602pt" height="513pt"
 viewBox="0.00 0.00 1602.00 513.35" xmlns="http://www.w3.org/2000/svg" xmlns:xlink="http://www.w3.org/1999/xlink">
<g id="graph0" class="graph" transform="scale(1 1) rotate(0) translate(4 509.35)">
<title>QuantConnect.Algorithm.Framework.Selection.CustomUniverseSelectionModel.CustomUniverseSelectionModel</title>
<polygon fill="white" stroke="transparent" points="-4,4 -4,-509.35 1598,-509.35 1598,4 -4,4"/>
<!-- Node1 -->
<g id="node1" class="node">
<title>Node1</title>
<g id="a_node1"><a xlink:title="Initializes a new instance of the CustomUniverseSelectionModel class">
<polygon fill="#bfbfbf" stroke="black" points="0,-240 0,-281 224,-281 224,-240 0,-240"/>
<text text-anchor="start" x="8" y="-269" font-family="Helvetica,sans-Serif" font-size="10.00">QuantConnect.Algorithm.Framework.</text>
<text text-anchor="start" x="8" y="-258" font-family="Helvetica,sans-Serif" font-size="10.00">Selection.CustomUniverseSelectionModel.</text>
<text text-anchor="middle" x="112" y="-247" font-family="Helvetica,sans-Serif" font-size="10.00">CustomUniverseSelectionModel</text>
</a>
</g>
</g>
<!-- Node2 -->
<g id="node2" class="node">
<title>Node2</title>
<g id="a_node2"><a xlink:href="classQuantConnect_1_1Symbol.html#a350b9a625cf7bad95da82894be3cd0a8" target="_top" xlink:title="Provides a convenience method for creating a Symbol for most security types. This method currently do...">
<polygon fill="white" stroke="black" points="260,-251 260,-270 421,-270 421,-251 260,-251"/>
<text text-anchor="middle" x="340.5" y="-258" font-family="Helvetica,sans-Serif" font-size="10.00">QuantConnect.Symbol.Create</text>
</a>
</g>
</g>
<!-- Node1&#45;&gt;Node2 -->
<g id="edge1" class="edge">
<title>Node1&#45;&gt;Node2</title>
<path fill="none" stroke="midnightblue" d="M224.26,-260.5C232.77,-260.5 241.3,-260.5 249.64,-260.5"/>
<polygon fill="midnightblue" stroke="midnightblue" points="249.73,-264 259.73,-260.5 249.73,-257 249.73,-264"/>
</g>
<!-- Node3 -->
<g id="node3" class="node">
<title>Node3</title>
<g id="a_node3"><a xlink:href="classQuantConnect_1_1Symbol.html#a7518a1932d1babbff128f2ba9666a78b" target="_top" xlink:title="Provides a convenience method for creating an option Symbol.">
<polygon fill="white" stroke="black" points="466.5,-431.5 466.5,-461.5 627.5,-461.5 627.5,-431.5 466.5,-431.5"/>
<text text-anchor="start" x="474.5" y="-449.5" font-family="Helvetica,sans-Serif" font-size="10.00">QuantConnect.Symbol.Create</text>
<text text-anchor="middle" x="547" y="-438.5" font-family="Helvetica,sans-Serif" font-size="10.00">Option</text>
</a>
</g>
</g>
<!-- Node2&#45;&gt;Node3 -->
<g id="edge2" class="edge">
<title>Node2&#45;&gt;Node3</title>
<path fill="none" stroke="midnightblue" d="M345.99,-270.15C359.11,-297.3 400.06,-375.05 457,-416.5 462.58,-420.56 468.75,-424.1 475.16,-427.18"/>
<polygon fill="midnightblue" stroke="midnightblue" points="474.11,-430.54 484.68,-431.37 476.93,-424.14 474.11,-430.54"/>
</g>
<!-- Node4 -->
<g id="node4" class="node">
<title>Node4</title>
<g id="a_node4"><a xlink:href="classQuantConnect_1_1SecurityIdentifier.html#a0c21d7880c9fdd260883d11ea0c99a00" target="_top" xlink:title="Helper overload that will search the mapfiles to resolve the first date. This implementation uses the...">
<polygon fill="white" stroke="black" points="673,-464.5 673,-494.5 847,-494.5 847,-464.5 673,-464.5"/>
<text text-anchor="start" x="681" y="-482.5" font-family="Helvetica,sans-Serif" font-size="10.00">QuantConnect.SecurityIdentifier.</text>
<text text-anchor="middle" x="760" y="-471.5" font-family="Helvetica,sans-Serif" font-size="10.00">GenerateEquity</text>
</a>
</g>
</g>
<!-- Node2&#45;&gt;Node4 -->
<g id="edge15" class="edge">
<title>Node2&#45;&gt;Node4</title>
<path fill="none" stroke="midnightblue" d="M343.34,-270.41C350.45,-305.5 379.66,-424.27 457,-471.5 526.68,-514.05 623.29,-507.81 688.31,-496.38"/>
<polygon fill="midnightblue" stroke="midnightblue" points="689.27,-499.77 698.47,-494.51 688,-492.88 689.27,-499.77"/>
</g>
<!-- Node5 -->
<g id="node5" class="node">
<title>Node5</title>
<g id="a_node5"><a xlink:href="classQuantConnect_1_1Symbol.html#a59158f74116be3dad0ea0f3f3f134416" target="_top" xlink:title="Initializes a new instance of the Symbol class">
<polygon fill="white" stroke="black" points="677.5,-415 677.5,-434 842.5,-434 842.5,-415 677.5,-415"/>
<text text-anchor="middle" x="760" y="-422" font-family="Helvetica,sans-Serif" font-size="10.00">QuantConnect.Symbol.Symbol</text>
</a>
</g>
</g>
<!-- Node2&#45;&gt;Node5 -->
<g id="edge20" class="edge">
<title>Node2&#45;&gt;Node5</title>
<path fill="none" stroke="midnightblue" d="M347.31,-270.18C362.17,-293.96 404.1,-355.26 457,-382.5 492.62,-400.84 591.72,-412.18 666.76,-418.38"/>
<polygon fill="midnightblue" stroke="midnightblue" points="666.93,-421.9 677.18,-419.22 667.49,-414.93 666.93,-421.9"/>
</g>
<!-- Node11 -->
<g id="node11" class="node">
<title>Node11</title>
<g id="a_node11"><a xlink:href="classQuantConnect_1_1SecurityIdentifier.html#a02ca750115844561c001c2346fbafc00" target="_top" xlink:title="Generates a new SecurityIdentifier for a custom security with the option of providing the first date">
<polygon fill="white" stroke="black" points="460,-343.5 460,-373.5 634,-373.5 634,-343.5 460,-343.5"/>
<text text-anchor="start" x="468" y="-361.5" font-family="Helvetica,sans-Serif" font-size="10.00">QuantConnect.SecurityIdentifier.</text>
<text text-anchor="middle" x="547" y="-350.5" font-family="Helvetica,sans-Serif" font-size="10.00">GenerateBase</text>
</a>
</g>
</g>
<!-- Node2&#45;&gt;Node11 -->
<g id="edge10" class="edge">
<title>Node2&#45;&gt;Node11</title>
<path fill="none" stroke="midnightblue" d="M353.97,-270.11C374.44,-285.48 416.91,-315.66 457,-333.5 462.35,-335.88 467.99,-338.09 473.72,-340.14"/>
<polygon fill="midnightblue" stroke="midnightblue" points="472.83,-343.53 483.42,-343.41 475.07,-336.9 472.83,-343.53"/>
</g>
<!-- Node13 -->
<g id="node13" class="node">
<title>Node13</title>
<g id="a_node13"><a xlink:href="classQuantConnect_1_1SecurityIdentifier.html#a53953b18d814c5445e4ecdcb3b555080" target="_top" xlink:title="Generates a new SecurityIdentifier for a CFD security">
<polygon fill="white" stroke="black" points="460,-294.5 460,-324.5 634,-324.5 634,-294.5 460,-294.5"/>
<text text-anchor="start" x="468" y="-312.5" font-family="Helvetica,sans-Serif" font-size="10.00">QuantConnect.SecurityIdentifier.</text>
<text text-anchor="middle" x="547" y="-301.5" font-family="Helvetica,sans-Serif" font-size="10.00">GenerateCfd</text>
</a>
</g>
</g>
<!-- Node2&#45;&gt;Node13 -->
<g id="edge12" class="edge">
<title>Node2&#45;&gt;Node13</title>
<path fill="none" stroke="midnightblue" d="M381.42,-270.06C407.53,-276.32 442.42,-284.68 473.36,-292.09"/>
<polygon fill="midnightblue" stroke="midnightblue" points="472.7,-295.54 483.24,-294.46 474.33,-288.73 472.7,-295.54"/>
</g>
<!-- Node14 -->
<g id="node14" class="node">
<title>Node14</title>
<g id="a_node14"><a xlink:href="classQuantConnect_1_1SecurityIdentifier.html#a5889a95a36ce927dd0a109cbfbcbe663" target="_top" xlink:title="Generates a new SecurityIdentifier for a Crypto pair">
<polygon fill="white" stroke="black" points="460,-245.5 460,-275.5 634,-275.5 634,-245.5 460,-245.5"/>
<text text-anchor="start" x="468" y="-263.5" font-family="Helvetica,sans-Serif" font-size="10.00">QuantConnect.SecurityIdentifier.</text>
<text text-anchor="middle" x="547" y="-252.5" font-family="Helvetica,sans-Serif" font-size="10.00">GenerateCrypto</text>
</a>
</g>
</g>
<!-- Node2&#45;&gt;Node14 -->
<g id="edge13" class="edge">
<title>Node2&#45;&gt;Node14</title>
<path fill="none" stroke="midnightblue" d="M421.15,-260.5C430.46,-260.5 440.03,-260.5 449.53,-260.5"/>
<polygon fill="midnightblue" stroke="midnightblue" points="449.8,-264 459.8,-260.5 449.8,-257 449.8,-264"/>
</g>
<!-- Node15 -->
<g id="node15" class="node">
<title>Node15</title>
<g id="a_node15"><a xlink:href="classQuantConnect_1_1SecurityIdentifier.html#ac665665a16d5449872fed3427b95a260" target="_top" xlink:title="Generates a new SecurityIdentifier for a CryptoFuture pair">
<polygon fill="white" stroke="black" points="460,-196.5 460,-226.5 634,-226.5 634,-196.5 460,-196.5"/>
<text text-anchor="start" x="468" y="-214.5" font-family="Helvetica,sans-Serif" font-size="10.00">QuantConnect.SecurityIdentifier.</text>
<text text-anchor="middle" x="547" y="-203.5" font-family="Helvetica,sans-Serif" font-size="10.00">GenerateCryptoFuture</text>
</a>
</g>
</g>
<!-- Node2&#45;&gt;Node15 -->
<g id="edge14" class="edge">
<title>Node2&#45;&gt;Node15</title>
<path fill="none" stroke="midnightblue" d="M381.42,-250.94C407.53,-244.68 442.42,-236.32 473.36,-228.91"/>
<polygon fill="midnightblue" stroke="midnightblue" points="474.33,-232.27 483.24,-226.54 472.7,-225.46 474.33,-232.27"/>
</g>
<!-- Node16 -->
<g id="node16" class="node">
<title>Node16</title>
<g id="a_node16"><a xlink:href="classQuantConnect_1_1SecurityIdentifier.html#a9cf0d3b208a5171e6112516ce441f18d" target="_top" xlink:title="Generates a new SecurityIdentifier for a forex pair">
<polygon fill="white" stroke="black" points="460,-147.5 460,-177.5 634,-177.5 634,-147.5 460,-147.5"/>
<text text-anchor="start" x="468" y="-165.5" font-family="Helvetica,sans-Serif" font-size="10.00">QuantConnect.SecurityIdentifier.</text>
<text text-anchor="middle" x="547" y="-154.5" font-family="Helvetica,sans-Serif" font-size="10.00">GenerateForex</text>
</a>
</g>
</g>
<!-- Node2&#45;&gt;Node16 -->
<g id="edge16" class="edge">
<title>Node2&#45;&gt;Node16</title>
<path fill="none" stroke="midnightblue" d="M353.6,-250.95C373.88,-235.37 416.49,-204.42 457,-186.5 461.64,-184.45 466.49,-182.54 471.43,-180.76"/>
<polygon fill="midnightblue" stroke="midnightblue" points="472.67,-184.04 481.02,-177.52 470.43,-177.41 472.67,-184.04"/>
</g>
<!-- Node17 -->
<g id="node17" class="node">
<title>Node17</title>
<g id="a_node17"><a xlink:href="classQuantConnect_1_1SecurityIdentifier.html#ad50a891c97cb0c084a9e2aa43607ed66" target="_top" xlink:title="Generates a new SecurityIdentifier for a future">
<polygon fill="white" stroke="black" points="460,-98.5 460,-128.5 634,-128.5 634,-98.5 460,-98.5"/>
<text text-anchor="start" x="468" y="-116.5" font-family="Helvetica,sans-Serif" font-size="10.00">QuantConnect.SecurityIdentifier.</text>
<text text-anchor="middle" x="547" y="-105.5" font-family="Helvetica,sans-Serif" font-size="10.00">GenerateFuture</text>
</a>
</g>
</g>
<!-- Node2&#45;&gt;Node17 -->
<g id="edge17" class="edge">
<title>Node2&#45;&gt;Node17</title>
<path fill="none" stroke="midnightblue" d="M347.74,-250.8C363.26,-227.5 406,-168.08 457,-137.5 459.97,-135.72 463.08,-134.07 466.28,-132.53"/>
<polygon fill="midnightblue" stroke="midnightblue" points="467.71,-135.73 475.49,-128.53 464.92,-129.31 467.71,-135.73"/>
</g>
<!-- Node18 -->
<g id="node18" class="node">
<title>Node18</title>
<g id="a_node18"><a xlink:href="classQuantConnect_1_1SecurityIdentifier.html#ade05a8e57b041ab484cf585be8d05699" target="_top" xlink:title="Generates a new SecurityIdentifier for a INDEX security">
<polygon fill="white" stroke="black" points="460,-49.5 460,-79.5 634,-79.5 634,-49.5 460,-49.5"/>
<text text-anchor="start" x="468" y="-67.5" font-family="Helvetica,sans-Serif" font-size="10.00">QuantConnect.SecurityIdentifier.</text>
<text text-anchor="middle" x="547" y="-56.5" font-family="Helvetica,sans-Serif" font-size="10.00">GenerateIndex</text>
</a>
</g>
</g>
<!-- Node2&#45;&gt;Node18 -->
<g id="edge18" class="edge">
<title>Node2&#45;&gt;Node18</title>
<path fill="none" stroke="midnightblue" d="M345.07,-250.94C356.48,-221.72 395,-132.89 457,-88.5 459.11,-86.99 461.3,-85.58 463.57,-84.25"/>
<polygon fill="midnightblue" stroke="midnightblue" points="465.34,-87.28 472.61,-79.57 462.12,-81.06 465.34,-87.28"/>
</g>
<!-- Node19 -->
<g id="node19" class="node">
<title>Node19</title>
<g id="a_node19"><a xlink:href="classQuantConnect_1_1Messages_1_1Symbol.html#ab801bef52a308b8ba7ba6d42e1ef1988" target="_top" xlink:title="Returns a string message saying the given security type has not been implemented yet">
<polygon fill="white" stroke="black" points="457,-0.5 457,-30.5 637,-30.5 637,-0.5 457,-0.5"/>
<text text-anchor="start" x="465" y="-18.5" font-family="Helvetica,sans-Serif" font-size="10.00">QuantConnect.Messages.Symbol.</text>
<text text-anchor="middle" x="547" y="-7.5" font-family="Helvetica,sans-Serif" font-size="10.00">SecurityTypeNotImplementedYet</text>
</a>
</g>
</g>
<!-- Node2&#45;&gt;Node19 -->
<g id="edge19" class="edge">
<title>Node2&#45;&gt;Node19</title>
<path fill="none" stroke="midnightblue" d="M343.62,-250.77C351.69,-216.21 383.73,-98.3 457,-39.5 458.59,-38.22 460.24,-37.01 461.95,-35.87"/>
<polygon fill="midnightblue" stroke="midnightblue" points="464,-38.73 470.87,-30.66 460.47,-32.68 464,-38.73"/>
</g>
<!-- Node3&#45;&gt;Node4 -->
<g id="edge3" class="edge">
<title>Node3&#45;&gt;Node4</title>
<path fill="none" stroke="midnightblue" d="M627.77,-458.98C639.14,-460.75 650.94,-462.6 662.59,-464.42"/>
<polygon fill="midnightblue" stroke="midnightblue" points="662.35,-467.93 672.77,-466.01 663.43,-461.01 662.35,-467.93"/>
</g>
<!-- Node3&#45;&gt;Node5 -->
<g id="edge4" class="edge">
<title>Node3&#45;&gt;Node5</title>
<path fill="none" stroke="midnightblue" d="M627.77,-438.18C640.7,-436.83 654.17,-435.43 667.35,-434.06"/>
<polygon fill="midnightblue" stroke="midnightblue" points="667.78,-437.53 677.36,-433.01 667.05,-430.57 667.78,-437.53"/>
</g>
<!-- Node6 -->
<g id="node6" class="node">
<title>Node6</title>
<g id="a_node6"><a xlink:href="classQuantConnect_1_1Symbol.html#a59b0795fa21f46c306deb5576fa03bb9" target="_top" xlink:title="Centralized helper method to resolve alias for a symbol">
<polygon fill="white" stroke="black" points="883,-415 883,-434 1053,-434 1053,-415 883,-415"/>
<text text-anchor="middle" x="968" y="-422" font-family="Helvetica,sans-Serif" font-size="10.00">QuantConnect.Symbol.GetAlias</text>
</a>
</g>
</g>
<!-- Node5&#45;&gt;Node6 -->
<g id="edge5" class="edge">
<title>Node5&#45;&gt;Node6</title>
<path fill="none" stroke="midnightblue" d="M842.71,-424.5C852.47,-424.5 862.49,-424.5 872.4,-424.5"/>
<polygon fill="midnightblue" stroke="midnightblue" points="872.68,-428 882.68,-424.5 872.68,-421 872.68,-428"/>
</g>
<!-- Node7 -->
<g id="node7" class="node">
<title>Node7</title>
<g id="a_node7"><a xlink:href="classQuantConnect_1_1SymbolRepresentation.html#ad43ac907f6c19083821f58f21c6de017" target="_top" xlink:title="Returns future symbol ticker from underlying and expiration date. Function can generate tickers of tw...">
<polygon fill="white" stroke="black" points="1089,-437.5 1089,-467.5 1292,-467.5 1292,-437.5 1089,-437.5"/>
<text text-anchor="start" x="1097" y="-455.5" font-family="Helvetica,sans-Serif" font-size="10.00">QuantConnect.SymbolRepresentation.</text>
<text text-anchor="middle" x="1190.5" y="-444.5" font-family="Helvetica,sans-Serif" font-size="10.00">GenerateFutureTicker</text>
</a>
</g>
</g>
<!-- Node6&#45;&gt;Node7 -->
<g id="edge6" class="edge">
<title>Node6&#45;&gt;Node7</title>
<path fill="none" stroke="midnightblue" d="M1043.96,-434.02C1055.27,-435.46 1067.14,-436.96 1079.01,-438.47"/>
<polygon fill="midnightblue" stroke="midnightblue" points="1078.62,-441.95 1088.98,-439.74 1079.5,-435 1078.62,-441.95"/>
</g>
<!-- Node9 -->
<g id="node9" class="node">
<title>Node9</title>
<g id="a_node9"><a xlink:href="classQuantConnect_1_1SymbolRepresentation.html#ab133044f5cf8c16e700190a2202b215e" target="_top" xlink:title="Returns option symbol ticker in accordance with OSI symbology More information can be found at http:/...">
<polygon fill="white" stroke="black" points="1089,-385.5 1089,-415.5 1292,-415.5 1292,-385.5 1089,-385.5"/>
<text text-anchor="start" x="1097" y="-403.5" font-family="Helvetica,sans-Serif" font-size="10.00">QuantConnect.SymbolRepresentation.</text>
<text text-anchor="middle" x="1190.5" y="-392.5" font-family="Helvetica,sans-Serif" font-size="10.00">GenerateOptionTickerOSI</text>
</a>
</g>
</g>
<!-- Node6&#45;&gt;Node9 -->
<g id="edge8" class="edge">
<title>Node6&#45;&gt;Node9</title>
<path fill="none" stroke="midnightblue" d="M1053.31,-415.32C1061.69,-414.41 1070.3,-413.47 1078.9,-412.54"/>
<polygon fill="midnightblue" stroke="midnightblue" points="1079.43,-416 1088.99,-411.44 1078.67,-409.04 1079.43,-416"/>
</g>
<!-- Node8 -->
<g id="node8" class="node">
<title>Node8</title>
<g id="a_node8"><a xlink:href="classQuantConnect_1_1Securities_1_1Future_1_1FuturesExpiryUtilityFunctions.html#a4ccb1e2f2fe40ff09785a74a02f26df1" target="_top" xlink:title="Gets the number of months between the contract month and the expiry date.">
<polygon fill="white" stroke="black" points="1328,-435 1328,-476 1594,-476 1594,-435 1328,-435"/>
<text text-anchor="start" x="1336" y="-464" font-family="Helvetica,sans-Serif" font-size="10.00">QuantConnect.Securities.</text>
<text text-anchor="start" x="1336" y="-453" font-family="Helvetica,sans-Serif" font-size="10.00">Future.FuturesExpiryUtilityFunctions.</text>
<text text-anchor="middle" x="1461" y="-442" font-family="Helvetica,sans-Serif" font-size="10.00">GetDeltaBetweenContractMonthAndContractExpiry</text>
</a>
</g>
</g>
<!-- Node7&#45;&gt;Node8 -->
<g id="edge7" class="edge">
<title>Node7&#45;&gt;Node8</title>
<path fill="none" stroke="midnightblue" d="M1292.24,-453.63C1300.59,-453.72 1309.11,-453.81 1317.68,-453.91"/>
<polygon fill="midnightblue" stroke="midnightblue" points="1317.72,-457.41 1327.76,-454.02 1317.8,-450.41 1317.72,-457.41"/>
</g>
<!-- Node10 -->
<g id="node10" class="node">
<title>Node10</title>
<g id="a_node10"><a xlink:href="classQuantConnect_1_1Messages_1_1SymbolRepresentation.html#a2c514157d8055cfa271ea3a7ca1ccde7" target="_top" xlink:title="Returns a string message saying an unexpected security type was received by the given method name">
<polygon fill="white" stroke="black" points="1365,-375 1365,-416 1557,-416 1557,-375 1365,-375"/>
<text text-anchor="start" x="1373" y="-404" font-family="Helvetica,sans-Serif" font-size="10.00">QuantConnect.Messages.Symbol</text>
<text text-anchor="start" x="1373" y="-393" font-family="Helvetica,sans-Serif" font-size="10.00">Representation.UnexpectedSecurity</text>
<text text-anchor="middle" x="1461" y="-382" font-family="Helvetica,sans-Serif" font-size="10.00">TypeForMethod</text>
</a>
</g>
</g>
<!-- Node9&#45;&gt;Node10 -->
<g id="edge9" class="edge">
<title>Node9&#45;&gt;Node10</title>
<path fill="none" stroke="midnightblue" d="M1292.24,-398.62C1312.7,-398.24 1334.27,-397.84 1354.88,-397.46"/>
<polygon fill="midnightblue" stroke="midnightblue" points="1354.98,-400.96 1364.91,-397.27 1354.85,-393.96 1354.98,-400.96"/>
</g>
<!-- Node12 -->
<g id="node12" class="node">
<title>Node12</title>
<g id="a_node12"><a xlink:href="classQuantConnect_1_1SecurityIdentifier.html#a19e1f9da410608020d74ed9e7d283575" target="_top" xlink:title="Generates the Symbol property for QuantConnect.SecurityType.Base security identifiers">
<polygon fill="white" stroke="black" points="673,-343.5 673,-373.5 847,-373.5 847,-343.5 673,-343.5"/>
<text text-anchor="start" x="681" y="-361.5" font-family="Helvetica,sans-Serif" font-size="10.00">QuantConnect.SecurityIdentifier.</text>
<text text-anchor="middle" x="760" y="-350.5" font-family="Helvetica,sans-Serif" font-size="10.00">GenerateBaseSymbol</text>
</a>
</g>
</g>
<!-- Node11&#45;&gt;Node12 -->
<g id="edge11" class="edge">
<title>Node11&#45;&gt;Node12</title>
<path fill="none" stroke="midnightblue" d="M634.13,-358.5C643.5,-358.5 653.08,-358.5 662.57,-358.5"/>
<polygon fill="midnightblue" stroke="midnightblue" points="662.81,-362 672.81,-358.5 662.81,-355 662.81,-362"/>
</g>
</g>
</svg>
