<?xml version="1.0" encoding="UTF-8" standalone="no"?>
<!DOCTYPE svg PUBLIC "-//W3C//DTD SVG 1.1//EN"
 "http://www.w3.org/Graphics/SVG/1.1/DTD/svg11.dtd">
<!-- Generated by graphviz version 2.43.0 (0)
 -->
<!-- Title: QuantConnect.Securities.Option.OptionStrategies.Conversion Pages: 1 -->
<svg width="1553pt" height="100pt"
 viewBox="0.00 0.00 1553.00 99.50" xmlns="http://www.w3.org/2000/svg" xmlns:xlink="http://www.w3.org/1999/xlink">
<g id="graph0" class="graph" transform="scale(1 1) rotate(0) translate(4 95.5)">
<title>QuantConnect.Securities.Option.OptionStrategies.Conversion</title>
<polygon fill="white" stroke="transparent" points="-4,4 -4,-95.5 1549,-95.5 1549,4 -4,4"/>
<!-- Node1 -->
<g id="node1" class="node">
<title>Node1</title>
<g id="a_node1"><a xlink:title="Creates a Conversion strategy that consists of buying 1 put contract, 1 lot of the underlying and sel...">
<polygon fill="#bfbfbf" stroke="black" points="0,-27.5 0,-57.5 191,-57.5 191,-27.5 0,-27.5"/>
<text text-anchor="start" x="8" y="-45.5" font-family="Helvetica,sans-Serif" font-size="10.00">QuantConnect.Securities.</text>
<text text-anchor="middle" x="95.5" y="-34.5" font-family="Helvetica,sans-Serif" font-size="10.00">Option.OptionStrategies.Conversion</text>
</a>
</g>
</g>
<!-- Node2 -->
<g id="node2" class="node">
<title>Node2</title>
<g id="a_node2"><a xlink:href="classQuantConnect_1_1Securities_1_1Option_1_1OptionStrategies.html#a27e8afa95f66711aa32a2f3035c21381" target="_top" xlink:title="Creates a Protective Collar strategy that consists of buying 1 put contract and 1 lot of the underlyi...">
<polygon fill="white" stroke="black" points="227,-22 227,-63 413,-63 413,-22 227,-22"/>
<text text-anchor="start" x="235" y="-51" font-family="Helvetica,sans-Serif" font-size="10.00">QuantConnect.Securities.</text>
<text text-anchor="start" x="235" y="-40" font-family="Helvetica,sans-Serif" font-size="10.00">Option.OptionStrategies.Protective</text>
<text text-anchor="middle" x="320" y="-29" font-family="Helvetica,sans-Serif" font-size="10.00">Collar</text>
</a>
</g>
</g>
<!-- Node1&#45;&gt;Node2 -->
<g id="edge1" class="edge">
<title>Node1&#45;&gt;Node2</title>
<path fill="none" stroke="midnightblue" d="M191.18,-42.5C199.68,-42.5 208.32,-42.5 216.88,-42.5"/>
<polygon fill="midnightblue" stroke="midnightblue" points="216.88,-46 226.88,-42.5 216.88,-39 216.88,-46"/>
</g>
<!-- Node3 -->
<g id="node3" class="node">
<title>Node3</title>
<g id="a_node3"><a xlink:href="classQuantConnect_1_1Securities_1_1Option_1_1OptionStrategies.html#af962e2a102203b581881d61b26f6e2b9" target="_top" xlink:title="Creates a Covered Call strategy that consists of selling one call contract and buying 1 lot of the un...">
<polygon fill="white" stroke="black" points="687,-52.5 687,-82.5 883,-82.5 883,-52.5 687,-52.5"/>
<text text-anchor="start" x="695" y="-70.5" font-family="Helvetica,sans-Serif" font-size="10.00">QuantConnect.Securities.</text>
<text text-anchor="middle" x="785" y="-59.5" font-family="Helvetica,sans-Serif" font-size="10.00">Option.OptionStrategies.CoveredCall</text>
</a>
</g>
</g>
<!-- Node2&#45;&gt;Node3 -->
<g id="edge2" class="edge">
<title>Node2&#45;&gt;Node3</title>
<path fill="none" stroke="midnightblue" d="M413.03,-47.47C489.03,-51.57 596.99,-57.4 676.87,-61.72"/>
<polygon fill="midnightblue" stroke="midnightblue" points="676.79,-65.22 686.96,-62.26 677.16,-58.23 676.79,-65.22"/>
</g>
<!-- Node8 -->
<g id="node8" class="node">
<title>Node8</title>
<g id="a_node8"><a xlink:href="classQuantConnect_1_1Securities_1_1Option_1_1OptionStrategies.html#afcfb6c6bdefd28c465c8c1ada3f170d6" target="_top" xlink:title="Creates a Protective Put strategy that consists of buying 1 put contract and 1 lot of the underlying.">
<polygon fill="white" stroke="black" points="449,-5.5 449,-35.5 651,-35.5 651,-5.5 449,-5.5"/>
<text text-anchor="start" x="457" y="-23.5" font-family="Helvetica,sans-Serif" font-size="10.00">QuantConnect.Securities.</text>
<text text-anchor="middle" x="550" y="-12.5" font-family="Helvetica,sans-Serif" font-size="10.00">Option.OptionStrategies.ProtectivePut</text>
</a>
</g>
</g>
<!-- Node2&#45;&gt;Node8 -->
<g id="edge7" class="edge">
<title>Node2&#45;&gt;Node8</title>
<path fill="none" stroke="midnightblue" d="M413.08,-33.62C421.52,-32.8 430.12,-31.97 438.7,-31.14"/>
<polygon fill="midnightblue" stroke="midnightblue" points="439.13,-34.62 448.75,-30.17 438.46,-27.65 439.13,-34.62"/>
</g>
<!-- Node4 -->
<g id="node4" class="node">
<title>Node4</title>
<g id="a_node4"><a xlink:href="classQuantConnect_1_1Securities_1_1SymbolPropertiesDatabase.html#a3ea48557a7a885c2c53529f8c4b75598" target="_top" xlink:title="Gets the symbol properties for the specified market/symbol/security&#45;type">
<polygon fill="white" stroke="black" points="919,-22 919,-63 1089,-63 1089,-22 919,-22"/>
<text text-anchor="start" x="927" y="-51" font-family="Helvetica,sans-Serif" font-size="10.00">QuantConnect.Securities.</text>
<text text-anchor="start" x="927" y="-40" font-family="Helvetica,sans-Serif" font-size="10.00">SymbolPropertiesDatabase.Get</text>
<text text-anchor="middle" x="1004" y="-29" font-family="Helvetica,sans-Serif" font-size="10.00">SymbolProperties</text>
</a>
</g>
</g>
<!-- Node3&#45;&gt;Node4 -->
<g id="edge3" class="edge">
<title>Node3&#45;&gt;Node4</title>
<path fill="none" stroke="midnightblue" d="M883.08,-56.32C891.67,-55.33 900.37,-54.32 908.94,-53.34"/>
<polygon fill="midnightblue" stroke="midnightblue" points="909.4,-56.81 918.93,-52.19 908.6,-49.85 909.4,-56.81"/>
</g>
<!-- Node5 -->
<g id="node5" class="node">
<title>Node5</title>
<g id="a_node5"><a xlink:href="classQuantConnect_1_1Securities_1_1MarketHoursDatabase.html#aa717adb9bb04be931913608ffd5a2733" target="_top" xlink:title="Gets the correct string symbol to use as a database key">
<polygon fill="white" stroke="black" points="1125,-50 1125,-91 1317,-91 1317,-50 1125,-50"/>
<text text-anchor="start" x="1133" y="-79" font-family="Helvetica,sans-Serif" font-size="10.00">QuantConnect.Securities.</text>
<text text-anchor="start" x="1133" y="-68" font-family="Helvetica,sans-Serif" font-size="10.00">MarketHoursDatabase.GetDatabase</text>
<text text-anchor="middle" x="1221" y="-57" font-family="Helvetica,sans-Serif" font-size="10.00">SymbolKey</text>
</a>
</g>
</g>
<!-- Node4&#45;&gt;Node5 -->
<g id="edge4" class="edge">
<title>Node4&#45;&gt;Node5</title>
<path fill="none" stroke="midnightblue" d="M1089.05,-53.45C1097.51,-54.55 1106.18,-55.68 1114.83,-56.8"/>
<polygon fill="midnightblue" stroke="midnightblue" points="1114.59,-60.3 1124.96,-58.12 1115.5,-53.36 1114.59,-60.3"/>
</g>
<!-- Node6 -->
<g id="node6" class="node">
<title>Node6</title>
<g id="a_node6"><a xlink:href="classQuantConnect_1_1Securities_1_1SymbolProperties.html#ad148190d1dfce7109d38d3107b7b8fbf" target="_top" xlink:title="Gets a default instance of the SymbolProperties class for the specified quoteCurrency">
<polygon fill="white" stroke="black" points="1141.5,-0.5 1141.5,-30.5 1300.5,-30.5 1300.5,-0.5 1141.5,-0.5"/>
<text text-anchor="start" x="1149.5" y="-18.5" font-family="Helvetica,sans-Serif" font-size="10.00">QuantConnect.Securities.</text>
<text text-anchor="middle" x="1221" y="-7.5" font-family="Helvetica,sans-Serif" font-size="10.00">SymbolProperties.GetDefault</text>
</a>
</g>
</g>
<!-- Node4&#45;&gt;Node6 -->
<g id="edge5" class="edge">
<title>Node4&#45;&gt;Node6</title>
<path fill="none" stroke="midnightblue" d="M1089.05,-31.95C1102.89,-30.21 1117.27,-28.4 1131.21,-26.65"/>
<polygon fill="midnightblue" stroke="midnightblue" points="1131.79,-30.1 1141.28,-25.39 1130.92,-23.16 1131.79,-30.1"/>
</g>
<!-- Node7 -->
<g id="node7" class="node">
<title>Node7</title>
<g id="a_node7"><a xlink:href="classQuantConnect_1_1Securities_1_1SymbolProperties.html#a0f421617bcddd5b08a830689b1e2dcfa" target="_top" xlink:title="Creates an instance of the SymbolProperties class">
<polygon fill="white" stroke="black" points="1353,-0.5 1353,-30.5 1545,-30.5 1545,-0.5 1353,-0.5"/>
<text text-anchor="start" x="1361" y="-18.5" font-family="Helvetica,sans-Serif" font-size="10.00">QuantConnect.Securities.</text>
<text text-anchor="middle" x="1449" y="-7.5" font-family="Helvetica,sans-Serif" font-size="10.00">SymbolProperties.SymbolProperties</text>
</a>
</g>
</g>
<!-- Node6&#45;&gt;Node7 -->
<g id="edge6" class="edge">
<title>Node6&#45;&gt;Node7</title>
<path fill="none" stroke="midnightblue" d="M1300.73,-15.5C1314.26,-15.5 1328.51,-15.5 1342.61,-15.5"/>
<polygon fill="midnightblue" stroke="midnightblue" points="1342.83,-19 1352.83,-15.5 1342.83,-12 1342.83,-19"/>
</g>
<!-- Node9 -->
<g id="node9" class="node">
<title>Node9</title>
<g id="a_node9"><a xlink:href="classQuantConnect_1_1Securities_1_1Option_1_1OptionStrategies.html#a4f753c3cf6890aad92052dada75760fb" target="_top" xlink:title="Creates a Covered Put strategy that consists of selling 1 put contract and 1 lot of the underlying.">
<polygon fill="white" stroke="black" points="688.5,-3.5 688.5,-33.5 881.5,-33.5 881.5,-3.5 688.5,-3.5"/>
<text text-anchor="start" x="696.5" y="-21.5" font-family="Helvetica,sans-Serif" font-size="10.00">QuantConnect.Securities.</text>
<text text-anchor="middle" x="785" y="-10.5" font-family="Helvetica,sans-Serif" font-size="10.00">Option.OptionStrategies.CoveredPut</text>
</a>
</g>
</g>
<!-- Node8&#45;&gt;Node9 -->
<g id="edge8" class="edge">
<title>Node8&#45;&gt;Node9</title>
<path fill="none" stroke="midnightblue" d="M651.17,-19.64C660.13,-19.56 669.22,-19.49 678.23,-19.41"/>
<polygon fill="midnightblue" stroke="midnightblue" points="678.38,-22.91 688.35,-19.32 678.32,-15.91 678.38,-22.91"/>
</g>
<!-- Node9&#45;&gt;Node4 -->
<g id="edge9" class="edge">
<title>Node9&#45;&gt;Node4</title>
<path fill="none" stroke="midnightblue" d="M881.81,-29.1C890.8,-30.09 899.91,-31.1 908.89,-32.09"/>
<polygon fill="midnightblue" stroke="midnightblue" points="908.63,-35.58 918.95,-33.2 909.4,-28.63 908.63,-35.58"/>
</g>
</g>
</svg>
