<?xml version="1.0" encoding="UTF-8" standalone="no"?>
<!DOCTYPE svg PUBLIC "-//W3C//DTD SVG 1.1//EN"
 "http://www.w3.org/Graphics/SVG/1.1/DTD/svg11.dtd">
<!-- Generated by graphviz version 2.43.0 (0)
 -->
<!-- Title: QuantConnect.Messages.InteractiveBrokersFeeModel.UnexpectedOptionMarket Pages: 1 -->
<svg width="445pt" height="50pt"
 viewBox="0.00 0.00 445.00 50.00" xmlns="http://www.w3.org/2000/svg" xmlns:xlink="http://www.w3.org/1999/xlink">
<g id="graph0" class="graph" transform="scale(1 1) rotate(0) translate(4 46)">
<title>QuantConnect.Messages.InteractiveBrokersFeeModel.UnexpectedOptionMarket</title>
<polygon fill="white" stroke="transparent" points="-4,4 -4,-46 441,-46 441,4 -4,4"/>
<!-- Node1 -->
<g id="node1" class="node">
<title>Node1</title>
<g id="a_node1"><a xlink:title="Returns a string message saying the given option market was unexpected">
<polygon fill="#bfbfbf" stroke="black" points="209,-6 209,-36 437,-36 437,-6 209,-6"/>
<text text-anchor="start" x="217" y="-24" font-family="Helvetica,sans-Serif" font-size="10.00">QuantConnect.Messages.Interactive</text>
<text text-anchor="middle" x="323" y="-13" font-family="Helvetica,sans-Serif" font-size="10.00">BrokersFeeModel.UnexpectedOptionMarket</text>
</a>
</g>
</g>
<!-- Node2 -->
<g id="node2" class="node">
<title>Node2</title>
<g id="a_node2"><a xlink:href="classQuantConnect_1_1Orders_1_1Fees_1_1InteractiveBrokersFeeModel.html#a55f8a97e7c5f4134ca526fafc49e3983" target="_top" xlink:title="Gets the order fee associated with the specified order. This returns the cost of the transaction in t...">
<polygon fill="white" stroke="black" points="0,-0.5 0,-41.5 173,-41.5 173,-0.5 0,-0.5"/>
<text text-anchor="start" x="8" y="-29.5" font-family="Helvetica,sans-Serif" font-size="10.00">QuantConnect.Orders.Fees.</text>
<text text-anchor="start" x="8" y="-18.5" font-family="Helvetica,sans-Serif" font-size="10.00">InteractiveBrokersFeeModel.Get</text>
<text text-anchor="middle" x="86.5" y="-7.5" font-family="Helvetica,sans-Serif" font-size="10.00">OrderFee</text>
</a>
</g>
</g>
<!-- Node1&#45;&gt;Node2 -->
<g id="edge1" class="edge">
<title>Node1&#45;&gt;Node2</title>
<path fill="none" stroke="midnightblue" d="M198.69,-21C190.03,-21 181.4,-21 173.02,-21"/>
<polygon fill="midnightblue" stroke="midnightblue" points="198.87,-24.5 208.87,-21 198.87,-17.5 198.87,-24.5"/>
</g>
</g>
</svg>
