<?xml version="1.0" encoding="UTF-8" standalone="no"?>
<!DOCTYPE svg PUBLIC "-//W3C//DTD SVG 1.1//EN"
 "http://www.w3.org/Graphics/SVG/1.1/DTD/svg11.dtd">
<!-- Generated by graphviz version 2.43.0 (0)
 -->
<!-- Title: QuantConnect.Data.DividendYieldProvider.CreateForOption Pages: 1 -->
<svg width="1571pt" height="512pt"
 viewBox="0.00 0.00 1571.00 511.92" xmlns="http://www.w3.org/2000/svg" xmlns:xlink="http://www.w3.org/1999/xlink">
<g id="graph0" class="graph" transform="scale(1 1) rotate(0) translate(4 507.92)">
<title>QuantConnect.Data.DividendYieldProvider.CreateForOption</title>
<polygon fill="white" stroke="transparent" points="-4,4 -4,-507.92 1567,-507.92 1567,4 -4,4"/>
<!-- Node1 -->
<g id="node1" class="node">
<title>Node1</title>
<g id="a_node1"><a xlink:title="Creates a new instance for the given option symbol">
<polygon fill="#bfbfbf" stroke="black" points="0,-223.5 0,-253.5 163,-253.5 163,-223.5 0,-223.5"/>
<text text-anchor="start" x="8" y="-241.5" font-family="Helvetica,sans-Serif" font-size="10.00">QuantConnect.Data.Dividend</text>
<text text-anchor="middle" x="81.5" y="-230.5" font-family="Helvetica,sans-Serif" font-size="10.00">YieldProvider.CreateForOption</text>
</a>
</g>
</g>
<!-- Node2 -->
<g id="node2" class="node">
<title>Node2</title>
<g id="a_node2"><a xlink:href="classQuantConnect_1_1Symbol.html#a350b9a625cf7bad95da82894be3cd0a8" target="_top" xlink:title="Provides a convenience method for creating a Symbol for most security types. This method currently do...">
<polygon fill="white" stroke="black" points="214,-251 214,-270 375,-270 375,-251 214,-251"/>
<text text-anchor="middle" x="294.5" y="-258" font-family="Helvetica,sans-Serif" font-size="10.00">QuantConnect.Symbol.Create</text>
</a>
</g>
</g>
<!-- Node1&#45;&gt;Node2 -->
<g id="edge1" class="edge">
<title>Node1&#45;&gt;Node2</title>
<path fill="none" stroke="midnightblue" d="M163.17,-246.91C176.43,-248.29 190.24,-249.73 203.71,-251.14"/>
<polygon fill="midnightblue" stroke="midnightblue" points="203.61,-254.65 213.92,-252.2 204.33,-247.68 203.61,-254.65"/>
</g>
<!-- Node20 -->
<g id="node20" class="node">
<title>Node20</title>
<g id="a_node20"><a xlink:href="classQuantConnect_1_1Data_1_1DividendYieldProvider.html#a1ccede714b7c88bf50dbcf36f107164e" target="_top" xlink:title="Creates a new instance using the default symbol">
<polygon fill="white" stroke="black" points="199,-201.5 199,-231.5 390,-231.5 390,-201.5 199,-201.5"/>
<text text-anchor="start" x="207" y="-219.5" font-family="Helvetica,sans-Serif" font-size="10.00">QuantConnect.Data.Dividend</text>
<text text-anchor="middle" x="294.5" y="-208.5" font-family="Helvetica,sans-Serif" font-size="10.00">YieldProvider.DividendYieldProvider</text>
</a>
</g>
</g>
<!-- Node1&#45;&gt;Node20 -->
<g id="edge21" class="edge">
<title>Node1&#45;&gt;Node20</title>
<path fill="none" stroke="midnightblue" d="M163.17,-230.09C171.54,-229.22 180.12,-228.32 188.69,-227.43"/>
<polygon fill="midnightblue" stroke="midnightblue" points="189.16,-230.9 198.75,-226.38 188.44,-223.94 189.16,-230.9"/>
</g>
<!-- Node3 -->
<g id="node3" class="node">
<title>Node3</title>
<g id="a_node3"><a xlink:href="classQuantConnect_1_1Symbol.html#a7518a1932d1babbff128f2ba9666a78b" target="_top" xlink:title="Provides a convenience method for creating an option Symbol.">
<polygon fill="white" stroke="black" points="435.5,-431.5 435.5,-461.5 596.5,-461.5 596.5,-431.5 435.5,-431.5"/>
<text text-anchor="start" x="443.5" y="-449.5" font-family="Helvetica,sans-Serif" font-size="10.00">QuantConnect.Symbol.Create</text>
<text text-anchor="middle" x="516" y="-438.5" font-family="Helvetica,sans-Serif" font-size="10.00">Option</text>
</a>
</g>
</g>
<!-- Node2&#45;&gt;Node3 -->
<g id="edge2" class="edge">
<title>Node2&#45;&gt;Node3</title>
<path fill="none" stroke="midnightblue" d="M300.92,-270.13C316.65,-297.23 365.08,-374.85 426,-416.5 432.11,-420.68 438.85,-424.31 445.8,-427.47"/>
<polygon fill="midnightblue" stroke="midnightblue" points="444.8,-430.85 455.38,-431.49 447.51,-424.39 444.8,-430.85"/>
</g>
<!-- Node4 -->
<g id="node4" class="node">
<title>Node4</title>
<g id="a_node4"><a xlink:href="classQuantConnect_1_1SecurityIdentifier.html#a0c21d7880c9fdd260883d11ea0c99a00" target="_top" xlink:title="Helper overload that will search the mapfiles to resolve the first date. This implementation uses the...">
<polygon fill="white" stroke="black" points="642,-464.5 642,-494.5 816,-494.5 816,-464.5 642,-464.5"/>
<text text-anchor="start" x="650" y="-482.5" font-family="Helvetica,sans-Serif" font-size="10.00">QuantConnect.SecurityIdentifier.</text>
<text text-anchor="middle" x="729" y="-471.5" font-family="Helvetica,sans-Serif" font-size="10.00">GenerateEquity</text>
</a>
</g>
</g>
<!-- Node2&#45;&gt;Node4 -->
<g id="edge15" class="edge">
<title>Node2&#45;&gt;Node4</title>
<path fill="none" stroke="midnightblue" d="M298.02,-270.46C307.54,-305.7 344.97,-424.92 426,-471.5 495.28,-511.32 589.06,-506.58 653.64,-496.21"/>
<polygon fill="midnightblue" stroke="midnightblue" points="654.47,-499.62 663.74,-494.5 653.3,-492.72 654.47,-499.62"/>
</g>
<!-- Node5 -->
<g id="node5" class="node">
<title>Node5</title>
<g id="a_node5"><a xlink:href="classQuantConnect_1_1Symbol.html#a59158f74116be3dad0ea0f3f3f134416" target="_top" xlink:title="Initializes a new instance of the Symbol class">
<polygon fill="white" stroke="black" points="646.5,-415 646.5,-434 811.5,-434 811.5,-415 646.5,-415"/>
<text text-anchor="middle" x="729" y="-422" font-family="Helvetica,sans-Serif" font-size="10.00">QuantConnect.Symbol.Symbol</text>
</a>
</g>
</g>
<!-- Node2&#45;&gt;Node5 -->
<g id="edge20" class="edge">
<title>Node2&#45;&gt;Node5</title>
<path fill="none" stroke="midnightblue" d="M302.4,-270.19C319.93,-293.97 368.89,-355.27 426,-382.5 462.17,-399.75 561.16,-411.28 636.03,-417.83"/>
<polygon fill="midnightblue" stroke="midnightblue" points="636.16,-421.35 646.43,-418.72 636.76,-414.38 636.16,-421.35"/>
</g>
<!-- Node11 -->
<g id="node11" class="node">
<title>Node11</title>
<g id="a_node11"><a xlink:href="classQuantConnect_1_1SecurityIdentifier.html#a02ca750115844561c001c2346fbafc00" target="_top" xlink:title="Generates a new SecurityIdentifier for a custom security with the option of providing the first date">
<polygon fill="white" stroke="black" points="429,-343.5 429,-373.5 603,-373.5 603,-343.5 429,-343.5"/>
<text text-anchor="start" x="437" y="-361.5" font-family="Helvetica,sans-Serif" font-size="10.00">QuantConnect.SecurityIdentifier.</text>
<text text-anchor="middle" x="516" y="-350.5" font-family="Helvetica,sans-Serif" font-size="10.00">GenerateBase</text>
</a>
</g>
</g>
<!-- Node2&#45;&gt;Node11 -->
<g id="edge10" class="edge">
<title>Node2&#45;&gt;Node11</title>
<path fill="none" stroke="midnightblue" d="M310.19,-270.25C333.75,-285.52 381.86,-315.25 426,-333.5 431.84,-335.91 437.99,-338.18 444.21,-340.28"/>
<polygon fill="midnightblue" stroke="midnightblue" points="443.43,-343.7 454.03,-343.44 445.58,-337.04 443.43,-343.7"/>
</g>
<!-- Node13 -->
<g id="node13" class="node">
<title>Node13</title>
<g id="a_node13"><a xlink:href="classQuantConnect_1_1SecurityIdentifier.html#a53953b18d814c5445e4ecdcb3b555080" target="_top" xlink:title="Generates a new SecurityIdentifier for a CFD security">
<polygon fill="white" stroke="black" points="429,-294.5 429,-324.5 603,-324.5 603,-294.5 429,-294.5"/>
<text text-anchor="start" x="437" y="-312.5" font-family="Helvetica,sans-Serif" font-size="10.00">QuantConnect.SecurityIdentifier.</text>
<text text-anchor="middle" x="516" y="-301.5" font-family="Helvetica,sans-Serif" font-size="10.00">GenerateCfd</text>
</a>
</g>
</g>
<!-- Node2&#45;&gt;Node13 -->
<g id="edge12" class="edge">
<title>Node2&#45;&gt;Node13</title>
<path fill="none" stroke="midnightblue" d="M338.08,-270.01C366.34,-276.31 404.24,-284.77 437.72,-292.25"/>
<polygon fill="midnightblue" stroke="midnightblue" points="436.96,-295.67 447.49,-294.43 438.49,-288.83 436.96,-295.67"/>
</g>
<!-- Node14 -->
<g id="node14" class="node">
<title>Node14</title>
<g id="a_node14"><a xlink:href="classQuantConnect_1_1SecurityIdentifier.html#a5889a95a36ce927dd0a109cbfbcbe663" target="_top" xlink:title="Generates a new SecurityIdentifier for a Crypto pair">
<polygon fill="white" stroke="black" points="429,-245.5 429,-275.5 603,-275.5 603,-245.5 429,-245.5"/>
<text text-anchor="start" x="437" y="-263.5" font-family="Helvetica,sans-Serif" font-size="10.00">QuantConnect.SecurityIdentifier.</text>
<text text-anchor="middle" x="516" y="-252.5" font-family="Helvetica,sans-Serif" font-size="10.00">GenerateCrypto</text>
</a>
</g>
</g>
<!-- Node2&#45;&gt;Node14 -->
<g id="edge13" class="edge">
<title>Node2&#45;&gt;Node14</title>
<path fill="none" stroke="midnightblue" d="M375.05,-260.5C389.21,-260.5 404.09,-260.5 418.65,-260.5"/>
<polygon fill="midnightblue" stroke="midnightblue" points="418.67,-264 428.67,-260.5 418.67,-257 418.67,-264"/>
</g>
<!-- Node15 -->
<g id="node15" class="node">
<title>Node15</title>
<g id="a_node15"><a xlink:href="classQuantConnect_1_1SecurityIdentifier.html#ac665665a16d5449872fed3427b95a260" target="_top" xlink:title="Generates a new SecurityIdentifier for a CryptoFuture pair">
<polygon fill="white" stroke="black" points="429,-196.5 429,-226.5 603,-226.5 603,-196.5 429,-196.5"/>
<text text-anchor="start" x="437" y="-214.5" font-family="Helvetica,sans-Serif" font-size="10.00">QuantConnect.SecurityIdentifier.</text>
<text text-anchor="middle" x="516" y="-203.5" font-family="Helvetica,sans-Serif" font-size="10.00">GenerateCryptoFuture</text>
</a>
</g>
</g>
<!-- Node2&#45;&gt;Node15 -->
<g id="edge14" class="edge">
<title>Node2&#45;&gt;Node15</title>
<path fill="none" stroke="midnightblue" d="M341.68,-250.91C357.06,-247.67 374.28,-243.99 390,-240.5 406.64,-236.81 424.49,-232.74 441.35,-228.84"/>
<polygon fill="midnightblue" stroke="midnightblue" points="442.19,-232.23 451.14,-226.57 440.61,-225.42 442.19,-232.23"/>
</g>
<!-- Node16 -->
<g id="node16" class="node">
<title>Node16</title>
<g id="a_node16"><a xlink:href="classQuantConnect_1_1SecurityIdentifier.html#a9cf0d3b208a5171e6112516ce441f18d" target="_top" xlink:title="Generates a new SecurityIdentifier for a forex pair">
<polygon fill="white" stroke="black" points="429,-147.5 429,-177.5 603,-177.5 603,-147.5 429,-147.5"/>
<text text-anchor="start" x="437" y="-165.5" font-family="Helvetica,sans-Serif" font-size="10.00">QuantConnect.SecurityIdentifier.</text>
<text text-anchor="middle" x="516" y="-154.5" font-family="Helvetica,sans-Serif" font-size="10.00">GenerateForex</text>
</a>
</g>
</g>
<!-- Node2&#45;&gt;Node16 -->
<g id="edge16" class="edge">
<title>Node2&#45;&gt;Node16</title>
<path fill="none" stroke="midnightblue" d="M369.05,-250.94C376.47,-248.25 383.61,-244.83 390,-240.5 413.88,-224.32 402.58,-203.33 426,-186.5 428.1,-184.99 430.3,-183.57 432.56,-182.24"/>
<polygon fill="midnightblue" stroke="midnightblue" points="434.33,-185.27 441.6,-177.55 431.11,-179.05 434.33,-185.27"/>
</g>
<!-- Node17 -->
<g id="node17" class="node">
<title>Node17</title>
<g id="a_node17"><a xlink:href="classQuantConnect_1_1SecurityIdentifier.html#ad50a891c97cb0c084a9e2aa43607ed66" target="_top" xlink:title="Generates a new SecurityIdentifier for a future">
<polygon fill="white" stroke="black" points="429,-98.5 429,-128.5 603,-128.5 603,-98.5 429,-98.5"/>
<text text-anchor="start" x="437" y="-116.5" font-family="Helvetica,sans-Serif" font-size="10.00">QuantConnect.SecurityIdentifier.</text>
<text text-anchor="middle" x="516" y="-105.5" font-family="Helvetica,sans-Serif" font-size="10.00">GenerateFuture</text>
</a>
</g>
</g>
<!-- Node2&#45;&gt;Node17 -->
<g id="edge17" class="edge">
<title>Node2&#45;&gt;Node17</title>
<path fill="none" stroke="midnightblue" d="M373.96,-250.85C379.77,-248.11 385.22,-244.71 390,-240.5 426.41,-208.47 390.48,-170.52 426,-137.5 427.14,-136.44 428.31,-135.43 429.53,-134.47"/>
<polygon fill="midnightblue" stroke="midnightblue" points="431.71,-137.21 438.02,-128.7 427.78,-131.42 431.71,-137.21"/>
</g>
<!-- Node18 -->
<g id="node18" class="node">
<title>Node18</title>
<g id="a_node18"><a xlink:href="classQuantConnect_1_1SecurityIdentifier.html#ade05a8e57b041ab484cf585be8d05699" target="_top" xlink:title="Generates a new SecurityIdentifier for a INDEX security">
<polygon fill="white" stroke="black" points="429,-49.5 429,-79.5 603,-79.5 603,-49.5 429,-49.5"/>
<text text-anchor="start" x="437" y="-67.5" font-family="Helvetica,sans-Serif" font-size="10.00">QuantConnect.SecurityIdentifier.</text>
<text text-anchor="middle" x="516" y="-56.5" font-family="Helvetica,sans-Serif" font-size="10.00">GenerateIndex</text>
</a>
</g>
</g>
<!-- Node2&#45;&gt;Node18 -->
<g id="edge18" class="edge">
<title>Node2&#45;&gt;Node18</title>
<path fill="none" stroke="midnightblue" d="M375.35,-250.92C380.71,-248.14 385.68,-244.72 390,-240.5 439.68,-192 377.67,-138.34 426,-88.5 426.94,-87.53 427.91,-86.6 428.92,-85.7"/>
<polygon fill="midnightblue" stroke="midnightblue" points="431.27,-88.32 437.19,-79.53 427.09,-82.71 431.27,-88.32"/>
</g>
<!-- Node19 -->
<g id="node19" class="node">
<title>Node19</title>
<g id="a_node19"><a xlink:href="classQuantConnect_1_1Messages_1_1Symbol.html#ab801bef52a308b8ba7ba6d42e1ef1988" target="_top" xlink:title="Returns a string message saying the given security type has not been implemented yet">
<polygon fill="white" stroke="black" points="426,-0.5 426,-30.5 606,-30.5 606,-0.5 426,-0.5"/>
<text text-anchor="start" x="434" y="-18.5" font-family="Helvetica,sans-Serif" font-size="10.00">QuantConnect.Messages.Symbol.</text>
<text text-anchor="middle" x="516" y="-7.5" font-family="Helvetica,sans-Serif" font-size="10.00">SecurityTypeNotImplementedYet</text>
</a>
</g>
</g>
<!-- Node2&#45;&gt;Node19 -->
<g id="edge19" class="edge">
<title>Node2&#45;&gt;Node19</title>
<path fill="none" stroke="midnightblue" d="M375.17,-251.41C380.64,-248.54 385.68,-244.96 390,-240.5 453.16,-175.33 364.65,-106.38 426,-39.5 426.78,-38.65 427.6,-37.82 428.43,-37.02"/>
<polygon fill="midnightblue" stroke="midnightblue" points="430.9,-39.53 436.57,-30.58 426.56,-34.04 430.9,-39.53"/>
</g>
<!-- Node3&#45;&gt;Node4 -->
<g id="edge3" class="edge">
<title>Node3&#45;&gt;Node4</title>
<path fill="none" stroke="midnightblue" d="M596.77,-458.98C608.14,-460.75 619.94,-462.6 631.59,-464.42"/>
<polygon fill="midnightblue" stroke="midnightblue" points="631.35,-467.93 641.77,-466.01 632.43,-461.01 631.35,-467.93"/>
</g>
<!-- Node3&#45;&gt;Node5 -->
<g id="edge4" class="edge">
<title>Node3&#45;&gt;Node5</title>
<path fill="none" stroke="midnightblue" d="M596.77,-438.18C609.7,-436.83 623.17,-435.43 636.35,-434.06"/>
<polygon fill="midnightblue" stroke="midnightblue" points="636.78,-437.53 646.36,-433.01 636.05,-430.57 636.78,-437.53"/>
</g>
<!-- Node6 -->
<g id="node6" class="node">
<title>Node6</title>
<g id="a_node6"><a xlink:href="classQuantConnect_1_1Symbol.html#a59b0795fa21f46c306deb5576fa03bb9" target="_top" xlink:title="Centralized helper method to resolve alias for a symbol">
<polygon fill="white" stroke="black" points="852,-415 852,-434 1022,-434 1022,-415 852,-415"/>
<text text-anchor="middle" x="937" y="-422" font-family="Helvetica,sans-Serif" font-size="10.00">QuantConnect.Symbol.GetAlias</text>
</a>
</g>
</g>
<!-- Node5&#45;&gt;Node6 -->
<g id="edge5" class="edge">
<title>Node5&#45;&gt;Node6</title>
<path fill="none" stroke="midnightblue" d="M811.71,-424.5C821.47,-424.5 831.49,-424.5 841.4,-424.5"/>
<polygon fill="midnightblue" stroke="midnightblue" points="841.68,-428 851.68,-424.5 841.68,-421 841.68,-428"/>
</g>
<!-- Node7 -->
<g id="node7" class="node">
<title>Node7</title>
<g id="a_node7"><a xlink:href="classQuantConnect_1_1SymbolRepresentation.html#ad43ac907f6c19083821f58f21c6de017" target="_top" xlink:title="Returns future symbol ticker from underlying and expiration date. Function can generate tickers of tw...">
<polygon fill="white" stroke="black" points="1058,-437.5 1058,-467.5 1261,-467.5 1261,-437.5 1058,-437.5"/>
<text text-anchor="start" x="1066" y="-455.5" font-family="Helvetica,sans-Serif" font-size="10.00">QuantConnect.SymbolRepresentation.</text>
<text text-anchor="middle" x="1159.5" y="-444.5" font-family="Helvetica,sans-Serif" font-size="10.00">GenerateFutureTicker</text>
</a>
</g>
</g>
<!-- Node6&#45;&gt;Node7 -->
<g id="edge6" class="edge">
<title>Node6&#45;&gt;Node7</title>
<path fill="none" stroke="midnightblue" d="M1012.96,-434.02C1024.27,-435.46 1036.14,-436.96 1048.01,-438.47"/>
<polygon fill="midnightblue" stroke="midnightblue" points="1047.62,-441.95 1057.98,-439.74 1048.5,-435 1047.62,-441.95"/>
</g>
<!-- Node9 -->
<g id="node9" class="node">
<title>Node9</title>
<g id="a_node9"><a xlink:href="classQuantConnect_1_1SymbolRepresentation.html#ab133044f5cf8c16e700190a2202b215e" target="_top" xlink:title="Returns option symbol ticker in accordance with OSI symbology More information can be found at http:/...">
<polygon fill="white" stroke="black" points="1058,-385.5 1058,-415.5 1261,-415.5 1261,-385.5 1058,-385.5"/>
<text text-anchor="start" x="1066" y="-403.5" font-family="Helvetica,sans-Serif" font-size="10.00">QuantConnect.SymbolRepresentation.</text>
<text text-anchor="middle" x="1159.5" y="-392.5" font-family="Helvetica,sans-Serif" font-size="10.00">GenerateOptionTickerOSI</text>
</a>
</g>
</g>
<!-- Node6&#45;&gt;Node9 -->
<g id="edge8" class="edge">
<title>Node6&#45;&gt;Node9</title>
<path fill="none" stroke="midnightblue" d="M1022.31,-415.32C1030.69,-414.41 1039.3,-413.47 1047.9,-412.54"/>
<polygon fill="midnightblue" stroke="midnightblue" points="1048.43,-416 1057.99,-411.44 1047.67,-409.04 1048.43,-416"/>
</g>
<!-- Node8 -->
<g id="node8" class="node">
<title>Node8</title>
<g id="a_node8"><a xlink:href="classQuantConnect_1_1Securities_1_1Future_1_1FuturesExpiryUtilityFunctions.html#a4ccb1e2f2fe40ff09785a74a02f26df1" target="_top" xlink:title="Gets the number of months between the contract month and the expiry date.">
<polygon fill="white" stroke="black" points="1297,-435 1297,-476 1563,-476 1563,-435 1297,-435"/>
<text text-anchor="start" x="1305" y="-464" font-family="Helvetica,sans-Serif" font-size="10.00">QuantConnect.Securities.</text>
<text text-anchor="start" x="1305" y="-453" font-family="Helvetica,sans-Serif" font-size="10.00">Future.FuturesExpiryUtilityFunctions.</text>
<text text-anchor="middle" x="1430" y="-442" font-family="Helvetica,sans-Serif" font-size="10.00">GetDeltaBetweenContractMonthAndContractExpiry</text>
</a>
</g>
</g>
<!-- Node7&#45;&gt;Node8 -->
<g id="edge7" class="edge">
<title>Node7&#45;&gt;Node8</title>
<path fill="none" stroke="midnightblue" d="M1261.24,-453.63C1269.59,-453.72 1278.11,-453.81 1286.68,-453.91"/>
<polygon fill="midnightblue" stroke="midnightblue" points="1286.72,-457.41 1296.76,-454.02 1286.8,-450.41 1286.72,-457.41"/>
</g>
<!-- Node10 -->
<g id="node10" class="node">
<title>Node10</title>
<g id="a_node10"><a xlink:href="classQuantConnect_1_1Messages_1_1SymbolRepresentation.html#a2c514157d8055cfa271ea3a7ca1ccde7" target="_top" xlink:title="Returns a string message saying an unexpected security type was received by the given method name">
<polygon fill="white" stroke="black" points="1334,-375 1334,-416 1526,-416 1526,-375 1334,-375"/>
<text text-anchor="start" x="1342" y="-404" font-family="Helvetica,sans-Serif" font-size="10.00">QuantConnect.Messages.Symbol</text>
<text text-anchor="start" x="1342" y="-393" font-family="Helvetica,sans-Serif" font-size="10.00">Representation.UnexpectedSecurity</text>
<text text-anchor="middle" x="1430" y="-382" font-family="Helvetica,sans-Serif" font-size="10.00">TypeForMethod</text>
</a>
</g>
</g>
<!-- Node9&#45;&gt;Node10 -->
<g id="edge9" class="edge">
<title>Node9&#45;&gt;Node10</title>
<path fill="none" stroke="midnightblue" d="M1261.24,-398.62C1281.7,-398.24 1303.27,-397.84 1323.88,-397.46"/>
<polygon fill="midnightblue" stroke="midnightblue" points="1323.98,-400.96 1333.91,-397.27 1323.85,-393.96 1323.98,-400.96"/>
</g>
<!-- Node12 -->
<g id="node12" class="node">
<title>Node12</title>
<g id="a_node12"><a xlink:href="classQuantConnect_1_1SecurityIdentifier.html#a19e1f9da410608020d74ed9e7d283575" target="_top" xlink:title="Generates the Symbol property for QuantConnect.SecurityType.Base security identifiers">
<polygon fill="white" stroke="black" points="642,-343.5 642,-373.5 816,-373.5 816,-343.5 642,-343.5"/>
<text text-anchor="start" x="650" y="-361.5" font-family="Helvetica,sans-Serif" font-size="10.00">QuantConnect.SecurityIdentifier.</text>
<text text-anchor="middle" x="729" y="-350.5" font-family="Helvetica,sans-Serif" font-size="10.00">GenerateBaseSymbol</text>
</a>
</g>
</g>
<!-- Node11&#45;&gt;Node12 -->
<g id="edge11" class="edge">
<title>Node11&#45;&gt;Node12</title>
<path fill="none" stroke="midnightblue" d="M603.13,-358.5C612.5,-358.5 622.08,-358.5 631.57,-358.5"/>
<polygon fill="midnightblue" stroke="midnightblue" points="631.81,-362 641.81,-358.5 631.81,-355 631.81,-362"/>
</g>
</g>
</svg>
