<?xml version="1.0" encoding="UTF-8" standalone="no"?>
<!DOCTYPE svg PUBLIC "-//W3C//DTD SVG 1.1//EN"
 "http://www.w3.org/Graphics/SVG/1.1/DTD/svg11.dtd">
<!-- Generated by graphviz version 2.43.0 (0)
 -->
<!-- Title: QuantConnect.Brokerages.BinanceBrokerageModel.CanSubmitOrder Pages: 1 -->
<svg width="486pt" height="258pt"
 viewBox="0.00 0.00 486.00 258.00" xmlns="http://www.w3.org/2000/svg" xmlns:xlink="http://www.w3.org/1999/xlink">
<g id="graph0" class="graph" transform="scale(1 1) rotate(0) translate(4 254)">
<title>QuantConnect.Brokerages.BinanceBrokerageModel.CanSubmitOrder</title>
<polygon fill="white" stroke="transparent" points="-4,4 -4,-254 482,-254 482,4 -4,4"/>
<!-- Node1 -->
<g id="node1" class="node">
<title>Node1</title>
<g id="a_node1"><a xlink:title="Returns true if the brokerage could accept this order. This takes into account order type,...">
<polygon fill="#bfbfbf" stroke="black" points="0,-115.5 0,-145.5 218,-145.5 218,-115.5 0,-115.5"/>
<text text-anchor="start" x="8" y="-133.5" font-family="Helvetica,sans-Serif" font-size="10.00">QuantConnect.Brokerages.</text>
<text text-anchor="middle" x="109" y="-122.5" font-family="Helvetica,sans-Serif" font-size="10.00">BinanceBrokerageModel.CanSubmitOrder</text>
</a>
</g>
</g>
<!-- Node2 -->
<g id="node2" class="node">
<title>Node2</title>
<g id="a_node2"><a xlink:href="classQuantConnect_1_1Messages_1_1DefaultBrokerageModel.html#aad3e16239c7c0b54a9585f33b58b7b67" target="_top" xlink:title="Returns a string message saying the given order size (quantity * price) was invalid for the given sec...">
<polygon fill="white" stroke="black" points="276.5,-219.5 276.5,-249.5 455.5,-249.5 455.5,-219.5 276.5,-219.5"/>
<text text-anchor="start" x="284.5" y="-237.5" font-family="Helvetica,sans-Serif" font-size="10.00">QuantConnect.Messages.Default</text>
<text text-anchor="middle" x="366" y="-226.5" font-family="Helvetica,sans-Serif" font-size="10.00">BrokerageModel.InvalidOrderSize</text>
</a>
</g>
</g>
<!-- Node1&#45;&gt;Node2 -->
<g id="edge1" class="edge">
<title>Node1&#45;&gt;Node2</title>
<path fill="none" stroke="midnightblue" d="M132.43,-145.72C159.93,-163.71 208.5,-193.37 254,-210.5 259.93,-212.73 266.13,-214.78 272.42,-216.66"/>
<polygon fill="midnightblue" stroke="midnightblue" points="271.8,-220.13 282.38,-219.48 273.71,-213.39 271.8,-220.13"/>
</g>
<!-- Node3 -->
<g id="node3" class="node">
<title>Node3</title>
<g id="a_node3"><a xlink:href="classQuantConnect_1_1Messages_1_1DefaultBrokerageModel.html#a772b06f7270c604cc7386874e827dc84" target="_top" xlink:title="Returns a string message saying the type of the given order is unsupported by the given brokerage mod...">
<polygon fill="white" stroke="black" points="260.5,-170.5 260.5,-200.5 471.5,-200.5 471.5,-170.5 260.5,-170.5"/>
<text text-anchor="start" x="268.5" y="-188.5" font-family="Helvetica,sans-Serif" font-size="10.00">QuantConnect.Messages.Default</text>
<text text-anchor="middle" x="366" y="-177.5" font-family="Helvetica,sans-Serif" font-size="10.00">BrokerageModel.UnsupportedOrderType</text>
</a>
</g>
</g>
<!-- Node1&#45;&gt;Node3 -->
<g id="edge2" class="edge">
<title>Node1&#45;&gt;Node3</title>
<path fill="none" stroke="midnightblue" d="M179.68,-145.53C212.43,-152.59 251.63,-161.05 285.53,-168.36"/>
<polygon fill="midnightblue" stroke="midnightblue" points="284.89,-171.8 295.4,-170.49 286.37,-164.96 284.89,-171.8"/>
</g>
<!-- Node4 -->
<g id="node4" class="node">
<title>Node4</title>
<g id="a_node4"><a xlink:href="classQuantConnect_1_1Messages_1_1BinanceBrokerageModel.html#a759434942acff17386c5527ed66532a7" target="_top" xlink:title="Returns a string message saying the type of the given order is unsupported for the symbol of the give...">
<polygon fill="white" stroke="black" points="260.5,-110 260.5,-151 471.5,-151 471.5,-110 260.5,-110"/>
<text text-anchor="start" x="268.5" y="-139" font-family="Helvetica,sans-Serif" font-size="10.00">QuantConnect.Messages.Binance</text>
<text text-anchor="start" x="268.5" y="-128" font-family="Helvetica,sans-Serif" font-size="10.00">BrokerageModel.UnsupportedOrderType</text>
<text text-anchor="middle" x="366" y="-117" font-family="Helvetica,sans-Serif" font-size="10.00">ForSecurityType</text>
</a>
</g>
</g>
<!-- Node1&#45;&gt;Node4 -->
<g id="edge3" class="edge">
<title>Node1&#45;&gt;Node4</title>
<path fill="none" stroke="midnightblue" d="M218.14,-130.5C228.74,-130.5 239.52,-130.5 250.17,-130.5"/>
<polygon fill="midnightblue" stroke="midnightblue" points="250.35,-134 260.35,-130.5 250.35,-127 250.35,-134"/>
</g>
<!-- Node5 -->
<g id="node5" class="node">
<title>Node5</title>
<g id="a_node5"><a xlink:href="classQuantConnect_1_1Messages_1_1BinanceBrokerageModel.html#af90138c1faee5ae6bdbe400af228f2f4" target="_top" xlink:title="Returns a string message saying the type of the given order is unsupported for the symbol of the give...">
<polygon fill="white" stroke="black" points="260.5,-50 260.5,-91 471.5,-91 471.5,-50 260.5,-50"/>
<text text-anchor="start" x="268.5" y="-79" font-family="Helvetica,sans-Serif" font-size="10.00">QuantConnect.Messages.Binance</text>
<text text-anchor="start" x="268.5" y="-68" font-family="Helvetica,sans-Serif" font-size="10.00">BrokerageModel.UnsupportedOrderType</text>
<text text-anchor="middle" x="366" y="-57" font-family="Helvetica,sans-Serif" font-size="10.00">WithLinkToSupportedTypes</text>
</a>
</g>
</g>
<!-- Node1&#45;&gt;Node5 -->
<g id="edge4" class="edge">
<title>Node1&#45;&gt;Node5</title>
<path fill="none" stroke="midnightblue" d="M174.02,-115.44C202.37,-108.77 236.35,-100.77 267.74,-93.39"/>
<polygon fill="midnightblue" stroke="midnightblue" points="268.89,-96.71 277.83,-91.01 267.29,-89.89 268.89,-96.71"/>
</g>
<!-- Node6 -->
<g id="node6" class="node">
<title>Node6</title>
<g id="a_node6"><a xlink:href="classQuantConnect_1_1Messages_1_1DefaultBrokerageModel.html#a1b9fa7f8e1c87b388c646fcef6cdb389" target="_top" xlink:title="Retunrns a string message saying the type of the given security is not supported by the given brokera...">
<polygon fill="white" stroke="black" points="254,-0.5 254,-30.5 478,-30.5 478,-0.5 254,-0.5"/>
<text text-anchor="start" x="262" y="-18.5" font-family="Helvetica,sans-Serif" font-size="10.00">QuantConnect.Messages.Default</text>
<text text-anchor="middle" x="366" y="-7.5" font-family="Helvetica,sans-Serif" font-size="10.00">BrokerageModel.UnsupportedSecurityType</text>
</a>
</g>
</g>
<!-- Node1&#45;&gt;Node6 -->
<g id="edge5" class="edge">
<title>Node1&#45;&gt;Node6</title>
<path fill="none" stroke="midnightblue" d="M129.34,-115.41C155.94,-95.37 206.01,-60.23 254,-40.5 260.26,-37.93 266.83,-35.59 273.52,-33.48"/>
<polygon fill="midnightblue" stroke="midnightblue" points="274.8,-36.76 283.39,-30.55 272.8,-30.05 274.8,-36.76"/>
</g>
</g>
</svg>
