<?xml version="1.0" encoding="UTF-8" standalone="no"?>
<!DOCTYPE svg PUBLIC "-//W3C//DTD SVG 1.1//EN"
 "http://www.w3.org/Graphics/SVG/1.1/DTD/svg11.dtd">
<!-- Generated by graphviz version 2.43.0 (0)
 -->
<!-- Title: QuantConnect.SymbolCache.TryGetSymbol Pages: 1 -->
<svg width="932pt" height="462pt"
 viewBox="0.00 0.00 932.00 462.26" xmlns="http://www.w3.org/2000/svg" xmlns:xlink="http://www.w3.org/1999/xlink">
<g id="graph0" class="graph" transform="scale(1 1) rotate(0) translate(4 458.26)">
<title>QuantConnect.SymbolCache.TryGetSymbol</title>
<polygon fill="white" stroke="transparent" points="-4,4 -4,-458.26 928,-458.26 928,4 -4,4"/>
<!-- Node1 -->
<g id="node1" class="node">
<title>Node1</title>
<g id="a_node1"><a xlink:title="Gets the Symbol object that is mapped to the specified string ticker symbol">
<polygon fill="#bfbfbf" stroke="black" points="766,-208.5 766,-238.5 924,-238.5 924,-208.5 766,-208.5"/>
<text text-anchor="start" x="774" y="-226.5" font-family="Helvetica,sans-Serif" font-size="10.00">QuantConnect.SymbolCache.</text>
<text text-anchor="middle" x="845" y="-215.5" font-family="Helvetica,sans-Serif" font-size="10.00">TryGetSymbol</text>
</a>
</g>
</g>
<!-- Node2 -->
<g id="node2" class="node">
<title>Node2</title>
<g id="a_node2"><a xlink:href="classQuantConnect_1_1Algorithm_1_1QCAlgorithm.html#a091fba2e75c493178894d0447edcaff3" target="_top" xlink:title="AddData a new user defined data source, requiring only the minimum config options....">
<polygon fill="white" stroke="black" points="0,-196.5 0,-226.5 205,-226.5 205,-196.5 0,-196.5"/>
<text text-anchor="start" x="8" y="-214.5" font-family="Helvetica,sans-Serif" font-size="10.00">QuantConnect.Algorithm.QCAlgorithm.</text>
<text text-anchor="middle" x="102.5" y="-203.5" font-family="Helvetica,sans-Serif" font-size="10.00">AddData</text>
</a>
</g>
</g>
<!-- Node1&#45;&gt;Node2 -->
<g id="edge1" class="edge">
<title>Node1&#45;&gt;Node2</title>
<path fill="none" stroke="midnightblue" d="M834.13,-248.27C818.29,-284.26 783.43,-349.75 730,-377.5 537.12,-477.7 436.75,-478.97 241,-384.5 171.03,-350.73 125.72,-262.14 109.84,-226.58"/>
<polygon fill="midnightblue" stroke="midnightblue" points="837.4,-249.53 838.1,-238.96 830.96,-246.79 837.4,-249.53"/>
</g>
<!-- Node3 -->
<g id="node3" class="node">
<title>Node3</title>
<g id="a_node3"><a xlink:href="classQuantConnect_1_1Algorithm_1_1QCAlgorithm.html#ae40bde218ca98e593a076fd671837bd4" target="_top" xlink:title="Creates and adds a new Future security to the algorithm">
<polygon fill="white" stroke="black" points="503.5,-306.5 503.5,-336.5 708.5,-336.5 708.5,-306.5 503.5,-306.5"/>
<text text-anchor="start" x="511.5" y="-324.5" font-family="Helvetica,sans-Serif" font-size="10.00">QuantConnect.Algorithm.QCAlgorithm.</text>
<text text-anchor="middle" x="606" y="-313.5" font-family="Helvetica,sans-Serif" font-size="10.00">AddFuture</text>
</a>
</g>
</g>
<!-- Node1&#45;&gt;Node3 -->
<g id="edge2" class="edge">
<title>Node1&#45;&gt;Node3</title>
<path fill="none" stroke="midnightblue" d="M816.81,-245.03C794.65,-261.52 761.92,-283.56 730,-296.5 720.41,-300.39 710.14,-303.69 699.78,-306.5"/>
<polygon fill="midnightblue" stroke="midnightblue" points="819.18,-247.62 825.04,-238.79 814.96,-242.04 819.18,-247.62"/>
</g>
<!-- Node4 -->
<g id="node4" class="node">
<title>Node4</title>
<g id="a_node4"><a xlink:href="classQuantConnect_1_1Algorithm_1_1QCAlgorithm.html#af1f764316cffc3d289d335df1edef76e" target="_top" xlink:title="Set a required SecurityType&#45;symbol and resolution for algorithm">
<polygon fill="white" stroke="black" points="241,-344.5 241,-374.5 446,-374.5 446,-344.5 241,-344.5"/>
<text text-anchor="start" x="249" y="-362.5" font-family="Helvetica,sans-Serif" font-size="10.00">QuantConnect.Algorithm.QCAlgorithm.</text>
<text text-anchor="middle" x="343.5" y="-351.5" font-family="Helvetica,sans-Serif" font-size="10.00">AddSecurity</text>
</a>
</g>
</g>
<!-- Node1&#45;&gt;Node4 -->
<g id="edge6" class="edge">
<title>Node1&#45;&gt;Node4</title>
<path fill="none" stroke="midnightblue" d="M830.06,-247.64C811.5,-277.12 775.64,-325.65 730,-346.5 633.61,-390.54 509.08,-385.1 428.03,-374.52"/>
<polygon fill="midnightblue" stroke="midnightblue" points="833.24,-249.15 835.47,-238.79 827.26,-245.5 833.24,-249.15"/>
</g>
<!-- Node6 -->
<g id="node6" class="node">
<title>Node6</title>
<g id="a_node6"><a xlink:href="classQuantConnect_1_1Algorithm_1_1QCAlgorithm.html#a3cea39b93f311bd9a9bff3231f6399c8" target="_top" xlink:title="Creates and adds a new Option security to the algorithm. This method can be used to add options with ...">
<polygon fill="white" stroke="black" points="503.5,-257.5 503.5,-287.5 708.5,-287.5 708.5,-257.5 503.5,-257.5"/>
<text text-anchor="start" x="511.5" y="-275.5" font-family="Helvetica,sans-Serif" font-size="10.00">QuantConnect.Algorithm.QCAlgorithm.</text>
<text text-anchor="middle" x="606" y="-264.5" font-family="Helvetica,sans-Serif" font-size="10.00">AddOption</text>
</a>
</g>
</g>
<!-- Node1&#45;&gt;Node6 -->
<g id="edge5" class="edge">
<title>Node1&#45;&gt;Node6</title>
<path fill="none" stroke="midnightblue" d="M762.8,-240.67C751.78,-242.98 740.61,-245.3 730,-247.5 714.32,-250.74 697.5,-254.19 681.49,-257.45"/>
<polygon fill="midnightblue" stroke="midnightblue" points="763.8,-244.03 772.87,-238.56 762.36,-237.18 763.8,-244.03"/>
</g>
<!-- Node7 -->
<g id="node7" class="node">
<title>Node7</title>
<g id="a_node7"><a xlink:href="classQuantConnect_1_1Extensions.html#af76a78bb89ab66a93ad280b9248df50f" target="_top" xlink:title="Wraps the provided universe selection selector checking if it returned Universe.Unchanged and returns...">
<polygon fill="white" stroke="black" points="501.5,-208.5 501.5,-238.5 710.5,-238.5 710.5,-208.5 501.5,-208.5"/>
<text text-anchor="start" x="509.5" y="-226.5" font-family="Helvetica,sans-Serif" font-size="10.00">QuantConnect.Extensions.</text>
<text text-anchor="middle" x="606" y="-215.5" font-family="Helvetica,sans-Serif" font-size="10.00">ConvertSelectionSymbolDelegate&lt; T &gt;</text>
</a>
</g>
</g>
<!-- Node1&#45;&gt;Node7 -->
<g id="edge7" class="edge">
<title>Node1&#45;&gt;Node7</title>
<path fill="none" stroke="midnightblue" d="M755.67,-223.5C740.96,-223.5 725.59,-223.5 710.54,-223.5"/>
<polygon fill="midnightblue" stroke="midnightblue" points="755.74,-227 765.74,-223.5 755.74,-220 755.74,-227"/>
</g>
<!-- Node8 -->
<g id="node8" class="node">
<title>Node8</title>
<g id="a_node8"><a xlink:href="classQuantConnect_1_1Algorithm_1_1Framework_1_1Selection_1_1ETFConstituentsUniverseSelectionModel.html#aea55089a697521bf992414395fe1ce82" target="_top" xlink:title="Initializes a new instance of the ETFConstituentsUniverseSelectionModel class">
<polygon fill="white" stroke="black" points="482,-148 482,-189 730,-189 730,-148 482,-148"/>
<text text-anchor="start" x="490" y="-177" font-family="Helvetica,sans-Serif" font-size="10.00">QuantConnect.Algorithm.Framework.</text>
<text text-anchor="start" x="490" y="-166" font-family="Helvetica,sans-Serif" font-size="10.00">Selection.ETFConstituentsUniverseSelection</text>
<text text-anchor="middle" x="606" y="-155" font-family="Helvetica,sans-Serif" font-size="10.00">Model.ETFConstituentsUniverseSelectionModel</text>
</a>
</g>
</g>
<!-- Node1&#45;&gt;Node8 -->
<g id="edge8" class="edge">
<title>Node1&#45;&gt;Node8</title>
<path fill="none" stroke="midnightblue" d="M769.39,-206.18C745.99,-200.76 719.94,-194.71 695.67,-189.08"/>
<polygon fill="midnightblue" stroke="midnightblue" points="768.71,-209.62 779.24,-208.47 770.29,-202.8 768.71,-209.62"/>
</g>
<!-- Node9 -->
<g id="node9" class="node">
<title>Node9</title>
<g id="a_node9"><a xlink:href="classQuantConnect_1_1SymbolCache.html#a16ba0efea4bf17d7a83e417a86beb1b5" target="_top" xlink:title="Gets the Symbol object that is mapped to the specified string ticker symbol">
<polygon fill="white" stroke="black" points="527,-98.5 527,-128.5 685,-128.5 685,-98.5 527,-98.5"/>
<text text-anchor="start" x="535" y="-116.5" font-family="Helvetica,sans-Serif" font-size="10.00">QuantConnect.SymbolCache.</text>
<text text-anchor="middle" x="606" y="-105.5" font-family="Helvetica,sans-Serif" font-size="10.00">GetSymbol</text>
</a>
</g>
</g>
<!-- Node1&#45;&gt;Node9 -->
<g id="edge9" class="edge">
<title>Node1&#45;&gt;Node9</title>
<path fill="none" stroke="midnightblue" d="M821.07,-201.53C799.34,-181.98 764.92,-154.12 730,-138.5 715.98,-132.23 700.35,-127.51 685.06,-123.98"/>
<polygon fill="midnightblue" stroke="midnightblue" points="818.74,-204.15 828.47,-208.32 823.47,-198.99 818.74,-204.15"/>
</g>
<!-- Node13 -->
<g id="node13" class="node">
<title>Node13</title>
<g id="a_node13"><a xlink:href="classQuantConnect_1_1Symbol.html#aecda88cc7e43c9b510fdb5caa19fb06f" target="_top" xlink:title="Creates symbol using string as sid">
<polygon fill="white" stroke="black" points="521,-49.5 521,-79.5 691,-79.5 691,-49.5 521,-49.5"/>
<text text-anchor="start" x="529" y="-67.5" font-family="Helvetica,sans-Serif" font-size="10.00">QuantConnect.Symbol.operator</text>
<text text-anchor="middle" x="606" y="-56.5" font-family="Helvetica,sans-Serif" font-size="10.00"> Symbol</text>
</a>
</g>
</g>
<!-- Node1&#45;&gt;Node13 -->
<g id="edge14" class="edge">
<title>Node1&#45;&gt;Node13</title>
<path fill="none" stroke="midnightblue" d="M830.86,-199.62C812.52,-168.74 776.26,-115.68 730,-88.5 718.18,-81.56 704.73,-76.58 691.17,-73.02"/>
<polygon fill="midnightblue" stroke="midnightblue" points="827.92,-201.54 835.96,-208.44 833.98,-198.04 827.92,-201.54"/>
</g>
<!-- Node14 -->
<g id="node14" class="node">
<title>Node14</title>
<g id="a_node14"><a xlink:href="classQuantConnect_1_1Algorithm_1_1QCAlgorithm.html#a4ca29e2c5ad24fcd326ebbb78b67e7e6" target="_top" xlink:title="Sets the benchmark used for computing statistics of the algorithm to the specified ticker,...">
<polygon fill="white" stroke="black" points="503.5,-0.5 503.5,-30.5 708.5,-30.5 708.5,-0.5 503.5,-0.5"/>
<text text-anchor="start" x="511.5" y="-18.5" font-family="Helvetica,sans-Serif" font-size="10.00">QuantConnect.Algorithm.QCAlgorithm.</text>
<text text-anchor="middle" x="606" y="-7.5" font-family="Helvetica,sans-Serif" font-size="10.00">SetBenchmark</text>
</a>
</g>
</g>
<!-- Node1&#45;&gt;Node14 -->
<g id="edge15" class="edge">
<title>Node1&#45;&gt;Node14</title>
<path fill="none" stroke="midnightblue" d="M836.06,-198.85C821.74,-158.6 787.6,-79.28 730,-39.5 723.47,-34.99 716.29,-31.27 708.8,-28.22"/>
<polygon fill="midnightblue" stroke="midnightblue" points="832.79,-200.1 839.35,-208.42 839.41,-197.82 832.79,-200.1"/>
</g>
<!-- Node3&#45;&gt;Node4 -->
<g id="edge3" class="edge">
<title>Node3&#45;&gt;Node4</title>
<path fill="none" stroke="midnightblue" d="M493.02,-337.84C477.48,-340.1 461.6,-342.42 446.26,-344.66"/>
<polygon fill="midnightblue" stroke="midnightblue" points="493.77,-341.26 503.16,-336.36 492.76,-334.34 493.77,-341.26"/>
</g>
<!-- Node5 -->
<g id="node5" class="node">
<title>Node5</title>
<g id="a_node5"><a xlink:href="classQuantConnect_1_1Research_1_1QuantBook.html#a9c6829f944fce7f66a72fa0d9b64f7b8" target="_top" xlink:title="Gets OptionHistory object for a given symbol, date and resolution">
<polygon fill="white" stroke="black" points="260.5,-295.5 260.5,-325.5 426.5,-325.5 426.5,-295.5 260.5,-295.5"/>
<text text-anchor="start" x="268.5" y="-313.5" font-family="Helvetica,sans-Serif" font-size="10.00">QuantConnect.Research.Quant</text>
<text text-anchor="middle" x="343.5" y="-302.5" font-family="Helvetica,sans-Serif" font-size="10.00">Book.OptionHistory</text>
</a>
</g>
</g>
<!-- Node3&#45;&gt;Node5 -->
<g id="edge4" class="edge">
<title>Node3&#45;&gt;Node5</title>
<path fill="none" stroke="midnightblue" d="M492.97,-316.77C470.66,-315.83 447.62,-314.85 426.54,-313.96"/>
<polygon fill="midnightblue" stroke="midnightblue" points="493.03,-320.27 503.16,-317.2 493.32,-313.28 493.03,-320.27"/>
</g>
<!-- Node10 -->
<g id="node10" class="node">
<title>Node10</title>
<g id="a_node10"><a xlink:href="classQuantConnect_1_1Data_1_1DynamicData.html#ac37b26cff252702587c0c362e099f9ec" target="_top" xlink:title="Sets the property with the specified name to the value. This is a case&#45;insensitve search.">
<polygon fill="white" stroke="black" points="264.5,-98.5 264.5,-128.5 422.5,-128.5 422.5,-98.5 264.5,-98.5"/>
<text text-anchor="start" x="272.5" y="-116.5" font-family="Helvetica,sans-Serif" font-size="10.00">QuantConnect.Data.Dynamic</text>
<text text-anchor="middle" x="343.5" y="-105.5" font-family="Helvetica,sans-Serif" font-size="10.00">Data.SetProperty</text>
</a>
</g>
</g>
<!-- Node9&#45;&gt;Node10 -->
<g id="edge10" class="edge">
<title>Node9&#45;&gt;Node10</title>
<path fill="none" stroke="midnightblue" d="M516.64,-113.5C486.15,-113.5 452.22,-113.5 422.6,-113.5"/>
<polygon fill="midnightblue" stroke="midnightblue" points="516.84,-117 526.84,-113.5 516.84,-110 516.84,-117"/>
</g>
<!-- Node12 -->
<g id="node12" class="node">
<title>Node12</title>
<g id="a_node12"><a xlink:href="classQuantConnect_1_1Algorithm_1_1QCAlgorithm.html#aa13b5a2143a58f5fda30bda0bbc9bff1" target="_top" xlink:title="Converts the string &#39;ticker&#39; symbol into a full Symbol object This requires that the string &#39;ticker&#39; ...">
<polygon fill="white" stroke="black" points="241,-196.5 241,-226.5 446,-226.5 446,-196.5 241,-196.5"/>
<text text-anchor="start" x="249" y="-214.5" font-family="Helvetica,sans-Serif" font-size="10.00">QuantConnect.Algorithm.QCAlgorithm.</text>
<text text-anchor="middle" x="343.5" y="-203.5" font-family="Helvetica,sans-Serif" font-size="10.00">Symbol</text>
</a>
</g>
</g>
<!-- Node9&#45;&gt;Node12 -->
<g id="edge12" class="edge">
<title>Node9&#45;&gt;Node12</title>
<path fill="none" stroke="midnightblue" d="M516.99,-128.17C505.08,-131.08 493.14,-134.51 482,-138.5 439.77,-153.64 394.49,-179.84 367.87,-196.39"/>
<polygon fill="midnightblue" stroke="midnightblue" points="518.03,-131.52 526.97,-125.83 516.44,-124.7 518.03,-131.52"/>
</g>
<!-- Node11 -->
<g id="node11" class="node">
<title>Node11</title>
<g id="a_node11"><a xlink:href="classQuantConnect_1_1Python_1_1PythonData.html#a6c32ee1e07b3ee55aef88baff6208167" target="_top" xlink:title="Generic Reader Implementation for Python Custom Data.">
<polygon fill="white" stroke="black" points="23,-98.5 23,-128.5 182,-128.5 182,-98.5 23,-98.5"/>
<text text-anchor="start" x="31" y="-116.5" font-family="Helvetica,sans-Serif" font-size="10.00">QuantConnect.Python.Python</text>
<text text-anchor="middle" x="102.5" y="-105.5" font-family="Helvetica,sans-Serif" font-size="10.00">Data.Reader</text>
</a>
</g>
</g>
<!-- Node10&#45;&gt;Node11 -->
<g id="edge11" class="edge">
<title>Node10&#45;&gt;Node11</title>
<path fill="none" stroke="midnightblue" d="M253.94,-113.5C230.46,-113.5 205.27,-113.5 182.34,-113.5"/>
<polygon fill="midnightblue" stroke="midnightblue" points="254.24,-117 264.24,-113.5 254.24,-110 254.24,-117"/>
</g>
<!-- Node12&#45;&gt;Node2 -->
<g id="edge13" class="edge">
<title>Node12&#45;&gt;Node2</title>
<path fill="none" stroke="midnightblue" d="M230.78,-211.5C222.22,-211.5 213.6,-211.5 205.11,-211.5"/>
<polygon fill="midnightblue" stroke="midnightblue" points="230.8,-215 240.8,-211.5 230.8,-208 230.8,-215"/>
</g>
</g>
</svg>
