<?xml version="1.0" encoding="UTF-8" standalone="no"?>
<!DOCTYPE svg PUBLIC "-//W3C//DTD SVG 1.1//EN"
 "http://www.w3.org/Graphics/SVG/1.1/DTD/svg11.dtd">
<!-- Generated by graphviz version 2.43.0 (0)
 -->
<!-- Title: QuantConnect.Lean.Engine.DataFeeds.FileSystemDataFeed.ConfigureEnumerator Pages: 1 -->
<svg width="926pt" height="258pt"
 viewBox="0.00 0.00 926.00 258.00" xmlns="http://www.w3.org/2000/svg" xmlns:xlink="http://www.w3.org/1999/xlink">
<g id="graph0" class="graph" transform="scale(1 1) rotate(0) translate(4 254)">
<title>QuantConnect.Lean.Engine.DataFeeds.FileSystemDataFeed.ConfigureEnumerator</title>
<polygon fill="white" stroke="transparent" points="-4,4 -4,-254 922,-254 922,4 -4,4"/>
<!-- Node1 -->
<g id="node1" class="node">
<title>Node1</title>
<g id="a_node1"><a xlink:title="Configure the enumerator with aggregation/fill&#45;forward/filter behaviors. Returns new instance if re&#45;c...">
<polygon fill="#bfbfbf" stroke="black" points="0,-104.5 0,-145.5 221,-145.5 221,-104.5 0,-104.5"/>
<text text-anchor="start" x="8" y="-133.5" font-family="Helvetica,sans-Serif" font-size="10.00">QuantConnect.Lean.Engine.</text>
<text text-anchor="start" x="8" y="-122.5" font-family="Helvetica,sans-Serif" font-size="10.00">DataFeeds.FileSystemDataFeed.Configure</text>
<text text-anchor="middle" x="110.5" y="-111.5" font-family="Helvetica,sans-Serif" font-size="10.00">Enumerator</text>
</a>
</g>
</g>
<!-- Node2 -->
<g id="node2" class="node">
<title>Node2</title>
<g id="a_node2"><a xlink:href="classQuantConnect_1_1Lean_1_1Engine_1_1DataFeeds_1_1FileSystemDataFeed.html#a03afe9ed0b4f26f8e96d890fd0b17d1c" target="_top" xlink:title="Will add a fill forward enumerator if requested">
<polygon fill="white" stroke="black" points="261,-153.5 261,-194.5 450,-194.5 450,-153.5 261,-153.5"/>
<text text-anchor="start" x="269" y="-182.5" font-family="Helvetica,sans-Serif" font-size="10.00">QuantConnect.Lean.Engine.</text>
<text text-anchor="start" x="269" y="-171.5" font-family="Helvetica,sans-Serif" font-size="10.00">DataFeeds.FileSystemDataFeed.Try</text>
<text text-anchor="middle" x="355.5" y="-160.5" font-family="Helvetica,sans-Serif" font-size="10.00">AddFillForwardEnumerator</text>
</a>
</g>
</g>
<!-- Node1&#45;&gt;Node2 -->
<g id="edge1" class="edge">
<title>Node1&#45;&gt;Node2</title>
<path fill="none" stroke="midnightblue" d="M213.5,-145.57C225.9,-148.07 238.58,-150.62 251,-153.13"/>
<polygon fill="midnightblue" stroke="midnightblue" points="250.4,-156.58 260.9,-155.13 251.79,-149.72 250.4,-156.58"/>
</g>
<!-- Node5 -->
<g id="node5" class="node">
<title>Node5</title>
<g id="a_node5"><a xlink:href="classQuantConnect_1_1Lean_1_1Engine_1_1DataFeeds_1_1Enumerators_1_1SubscriptionFilterEnumerator.html#a489162658ae5cb3ea3b12e66b104a3f2" target="_top" xlink:title="Convenience method to wrap the enumerator and attach the data filter event to log and alery users of ...">
<polygon fill="white" stroke="black" points="257,-74.5 257,-115.5 454,-115.5 454,-74.5 257,-74.5"/>
<text text-anchor="start" x="265" y="-103.5" font-family="Helvetica,sans-Serif" font-size="10.00">QuantConnect.Lean.Engine.</text>
<text text-anchor="start" x="265" y="-92.5" font-family="Helvetica,sans-Serif" font-size="10.00">DataFeeds.Enumerators.Subscription</text>
<text text-anchor="middle" x="355.5" y="-81.5" font-family="Helvetica,sans-Serif" font-size="10.00">FilterEnumerator.WrapForDataFeed</text>
</a>
</g>
</g>
<!-- Node1&#45;&gt;Node5 -->
<g id="edge4" class="edge">
<title>Node1&#45;&gt;Node5</title>
<path fill="none" stroke="midnightblue" d="M221.27,-111.45C229.68,-110.41 238.16,-109.36 246.55,-108.33"/>
<polygon fill="midnightblue" stroke="midnightblue" points="247.24,-111.77 256.73,-107.07 246.38,-104.82 247.24,-111.77"/>
</g>
<!-- Node3 -->
<g id="node3" class="node">
<title>Node3</title>
<g id="a_node3"><a xlink:href="classQuantConnect_1_1Lean_1_1Engine_1_1DataFeeds_1_1SubscriptionCollection.html#a003d18530854d890b5c0733ff10a6f35" target="_top" xlink:title="Gets and updates the fill forward resolution by checking specified subscription configurations and se...">
<polygon fill="white" stroke="black" points="514.5,-208.5 514.5,-249.5 707.5,-249.5 707.5,-208.5 514.5,-208.5"/>
<text text-anchor="start" x="522.5" y="-237.5" font-family="Helvetica,sans-Serif" font-size="10.00">QuantConnect.Lean.Engine.</text>
<text text-anchor="start" x="522.5" y="-226.5" font-family="Helvetica,sans-Serif" font-size="10.00">DataFeeds.SubscriptionCollection.</text>
<text text-anchor="middle" x="611" y="-215.5" font-family="Helvetica,sans-Serif" font-size="10.00">UpdateAndGetFillForwardResolution</text>
</a>
</g>
</g>
<!-- Node2&#45;&gt;Node3 -->
<g id="edge2" class="edge">
<title>Node2&#45;&gt;Node3</title>
<path fill="none" stroke="midnightblue" d="M450.17,-194.32C468.23,-198.24 487.24,-202.37 505.61,-206.35"/>
<polygon fill="midnightblue" stroke="midnightblue" points="504.93,-209.78 515.44,-208.48 506.41,-202.94 504.93,-209.78"/>
</g>
<!-- Node4 -->
<g id="node4" class="node">
<title>Node4</title>
<g id="a_node4"><a xlink:href="classQuantConnect_1_1Util_1_1LeanData.html#a45d5455942a1261f332547548a7682d9" target="_top" xlink:title="Helper method to determine if we should use strict end time">
<polygon fill="white" stroke="black" points="532,-159 532,-189 690,-189 690,-159 532,-159"/>
<text text-anchor="start" x="540" y="-177" font-family="Helvetica,sans-Serif" font-size="10.00">QuantConnect.Util.LeanData.</text>
<text text-anchor="middle" x="611" y="-166" font-family="Helvetica,sans-Serif" font-size="10.00">UseDailyStrictEndTimes</text>
</a>
</g>
</g>
<!-- Node2&#45;&gt;Node4 -->
<g id="edge3" class="edge">
<title>Node2&#45;&gt;Node4</title>
<path fill="none" stroke="midnightblue" d="M450.17,-174C473.52,-174 498.47,-174 521.55,-174"/>
<polygon fill="midnightblue" stroke="midnightblue" points="521.67,-177.5 531.67,-174 521.66,-170.5 521.67,-177.5"/>
</g>
<!-- Node6 -->
<g id="node6" class="node">
<title>Node6</title>
<g id="a_node6"><a xlink:href="classQuantConnect_1_1Logging_1_1Log.html#af0e7955911bc7664b37661b2a303a9e3" target="_top" xlink:title="Log error">
<polygon fill="white" stroke="black" points="536,-110 536,-140 686,-140 686,-110 536,-110"/>
<text text-anchor="start" x="544" y="-128" font-family="Helvetica,sans-Serif" font-size="10.00">QuantConnect.Logging.Log.</text>
<text text-anchor="middle" x="611" y="-117" font-family="Helvetica,sans-Serif" font-size="10.00">Error</text>
</a>
</g>
</g>
<!-- Node5&#45;&gt;Node6 -->
<g id="edge5" class="edge">
<title>Node5&#45;&gt;Node6</title>
<path fill="none" stroke="midnightblue" d="M454.15,-106.56C477.72,-109.35 502.71,-112.3 525.61,-115.01"/>
<polygon fill="midnightblue" stroke="midnightblue" points="525.29,-118.5 535.63,-116.2 526.11,-111.55 525.29,-118.5"/>
</g>
<!-- Node8 -->
<g id="node8" class="node">
<title>Node8</title>
<g id="a_node8"><a xlink:href="interfaceQuantConnect_1_1Lean_1_1Engine_1_1Results_1_1IResultHandler.html#a39001e16aa61bfdefb3f42503e46cf06" target="_top" xlink:title="Send a runtime error message back to the browser highlighted with in red">
<polygon fill="white" stroke="black" points="514,-61 514,-91 708,-91 708,-61 514,-61"/>
<text text-anchor="start" x="522" y="-79" font-family="Helvetica,sans-Serif" font-size="10.00">QuantConnect.Lean.Engine.</text>
<text text-anchor="middle" x="611" y="-68" font-family="Helvetica,sans-Serif" font-size="10.00">Results.IResultHandler.RuntimeError</text>
</a>
</g>
</g>
<!-- Node5&#45;&gt;Node8 -->
<g id="edge7" class="edge">
<title>Node5&#45;&gt;Node8</title>
<path fill="none" stroke="midnightblue" d="M454.15,-87.68C470.32,-86.47 487.16,-85.21 503.53,-83.98"/>
<polygon fill="midnightblue" stroke="midnightblue" points="503.95,-87.46 513.66,-83.22 503.42,-80.48 503.95,-87.46"/>
</g>
<!-- Node9 -->
<g id="node9" class="node">
<title>Node9</title>
<g id="a_node9"><a xlink:href="classQuantConnect_1_1Lean_1_1Engine_1_1DataFeeds_1_1Enumerators_1_1SubscriptionFilterEnumerator.html#ab41f26d23f7f81622f4cb448eb9fdcee" target="_top" xlink:title="Initializes a new instance of the SubscriptionFilterEnumerator class">
<polygon fill="white" stroke="black" points="490,-0.5 490,-41.5 732,-41.5 732,-0.5 490,-0.5"/>
<text text-anchor="start" x="498" y="-29.5" font-family="Helvetica,sans-Serif" font-size="10.00">QuantConnect.Lean.Engine.</text>
<text text-anchor="start" x="498" y="-18.5" font-family="Helvetica,sans-Serif" font-size="10.00">DataFeeds.Enumerators.Subscription</text>
<text text-anchor="middle" x="611" y="-7.5" font-family="Helvetica,sans-Serif" font-size="10.00">FilterEnumerator.SubscriptionFilterEnumerator</text>
</a>
</g>
</g>
<!-- Node5&#45;&gt;Node9 -->
<g id="edge8" class="edge">
<title>Node5&#45;&gt;Node9</title>
<path fill="none" stroke="midnightblue" d="M417.75,-74.44C440.36,-67.07 466.26,-58.88 490,-52 499.05,-49.38 508.51,-46.74 517.99,-44.18"/>
<polygon fill="midnightblue" stroke="midnightblue" points="519.09,-47.51 527.85,-41.54 517.28,-40.75 519.09,-47.51"/>
</g>
<!-- Node7 -->
<g id="node7" class="node">
<title>Node7</title>
<g id="a_node7"><a xlink:href="interfaceQuantConnect_1_1Logging_1_1ILogHandler.html#a35373a0c5d76031fa5ccf5dc39e5c25d" target="_top" xlink:title="Write error message to log">
<polygon fill="white" stroke="black" points="768,-110 768,-140 918,-140 918,-110 768,-110"/>
<text text-anchor="start" x="776" y="-128" font-family="Helvetica,sans-Serif" font-size="10.00">QuantConnect.Logging.ILog</text>
<text text-anchor="middle" x="843" y="-117" font-family="Helvetica,sans-Serif" font-size="10.00">Handler.Error</text>
</a>
</g>
</g>
<!-- Node6&#45;&gt;Node7 -->
<g id="edge6" class="edge">
<title>Node6&#45;&gt;Node7</title>
<path fill="none" stroke="midnightblue" d="M686.04,-125C708.8,-125 734.03,-125 757.44,-125"/>
<polygon fill="midnightblue" stroke="midnightblue" points="757.71,-128.5 767.71,-125 757.71,-121.5 757.71,-128.5"/>
</g>
</g>
</svg>
