<?xml version="1.0" encoding="UTF-8" standalone="no"?>
<!DOCTYPE svg PUBLIC "-//W3C//DTD SVG 1.1//EN"
 "http://www.w3.org/Graphics/SVG/1.1/DTD/svg11.dtd">
<!-- Generated by graphviz version 2.43.0 (0)
 -->
<!-- Title: QuantConnect.Securities.UniverseManager.TryGetValue Pages: 1 -->
<svg width="654pt" height="235pt"
 viewBox="0.00 0.00 654.00 235.00" xmlns="http://www.w3.org/2000/svg" xmlns:xlink="http://www.w3.org/1999/xlink">
<g id="graph0" class="graph" transform="scale(1 1) rotate(0) translate(4 231)">
<title>QuantConnect.Securities.UniverseManager.TryGetValue</title>
<polygon fill="white" stroke="transparent" points="-4,4 -4,-231 650,-231 650,4 -4,4"/>
<!-- Node1 -->
<g id="node1" class="node">
<title>Node1</title>
<g id="a_node1"><a xlink:title="Gets the value associated with the specified key.">
<polygon fill="#bfbfbf" stroke="black" points="482,-73.5 482,-103.5 646,-103.5 646,-73.5 482,-73.5"/>
<text text-anchor="start" x="490" y="-91.5" font-family="Helvetica,sans-Serif" font-size="10.00">QuantConnect.Securities.</text>
<text text-anchor="middle" x="564" y="-80.5" font-family="Helvetica,sans-Serif" font-size="10.00">UniverseManager.TryGetValue</text>
</a>
</g>
</g>
<!-- Node2 -->
<g id="node2" class="node">
<title>Node2</title>
<g id="a_node2"><a xlink:href="classQuantConnect_1_1Algorithm_1_1QCAlgorithm.html#a0f7ec3a574e47b4ac26448590c4ef685" target="_top" xlink:title="Creates and adds a new single Option contract to the algorithm">
<polygon fill="white" stroke="black" points="241,-147.5 241,-177.5 446,-177.5 446,-147.5 241,-147.5"/>
<text text-anchor="start" x="249" y="-165.5" font-family="Helvetica,sans-Serif" font-size="10.00">QuantConnect.Algorithm.QCAlgorithm.</text>
<text text-anchor="middle" x="343.5" y="-154.5" font-family="Helvetica,sans-Serif" font-size="10.00">AddOptionContract</text>
</a>
</g>
</g>
<!-- Node1&#45;&gt;Node2 -->
<g id="edge1" class="edge">
<title>Node1&#45;&gt;Node2</title>
<path fill="none" stroke="midnightblue" d="M522.64,-107.78C500.4,-117.89 472.07,-129.92 446,-138.5 436.11,-141.76 425.54,-144.76 415.1,-147.46"/>
<polygon fill="midnightblue" stroke="midnightblue" points="524.16,-110.94 531.78,-103.58 521.24,-104.57 524.16,-110.94"/>
</g>
<!-- Node6 -->
<g id="node6" class="node">
<title>Node6</title>
<g id="a_node6"><a xlink:href="classQuantConnect_1_1Algorithm_1_1QCAlgorithm.html#ad83209d9da7b1bf084694f3f9092f0ad" target="_top" xlink:title="Adds a new universe that creates options of the security by monitoring any changes in the Universe th...">
<polygon fill="white" stroke="black" points="241,-98.5 241,-128.5 446,-128.5 446,-98.5 241,-98.5"/>
<text text-anchor="start" x="249" y="-116.5" font-family="Helvetica,sans-Serif" font-size="10.00">QuantConnect.Algorithm.QCAlgorithm.</text>
<text text-anchor="middle" x="343.5" y="-105.5" font-family="Helvetica,sans-Serif" font-size="10.00">AddUniverseOptions</text>
</a>
</g>
</g>
<!-- Node1&#45;&gt;Node6 -->
<g id="edge5" class="edge">
<title>Node1&#45;&gt;Node6</title>
<path fill="none" stroke="midnightblue" d="M471.74,-98.94C463.29,-99.91 454.7,-100.89 446.17,-101.87"/>
<polygon fill="midnightblue" stroke="midnightblue" points="472.41,-102.39 481.95,-97.77 471.62,-95.43 472.41,-102.39"/>
</g>
<!-- Node7 -->
<g id="node7" class="node">
<title>Node7</title>
<g id="a_node7"><a xlink:href="classQuantConnect_1_1Algorithm_1_1QCAlgorithm.html#a726d08cd0cd7a6f1b7ce9a912d7d89b1" target="_top" xlink:title="Invoked at the end of every time step. This allows the algorithm to process events before advancing t...">
<polygon fill="white" stroke="black" points="241,-49.5 241,-79.5 446,-79.5 446,-49.5 241,-49.5"/>
<text text-anchor="start" x="249" y="-67.5" font-family="Helvetica,sans-Serif" font-size="10.00">QuantConnect.Algorithm.QCAlgorithm.</text>
<text text-anchor="middle" x="343.5" y="-56.5" font-family="Helvetica,sans-Serif" font-size="10.00">OnEndOfTimeStep</text>
</a>
</g>
</g>
<!-- Node1&#45;&gt;Node7 -->
<g id="edge6" class="edge">
<title>Node1&#45;&gt;Node7</title>
<path fill="none" stroke="midnightblue" d="M471.74,-78.48C463.29,-77.55 454.7,-76.6 446.17,-75.67"/>
<polygon fill="midnightblue" stroke="midnightblue" points="471.63,-81.98 481.95,-79.6 472.39,-75.03 471.63,-81.98"/>
</g>
<!-- Node9 -->
<g id="node9" class="node">
<title>Node9</title>
<g id="a_node9"><a xlink:href="classQuantConnect_1_1Research_1_1QuantBook.html#a9c6829f944fce7f66a72fa0d9b64f7b8" target="_top" xlink:title="Gets OptionHistory object for a given symbol, date and resolution">
<polygon fill="white" stroke="black" points="260.5,-0.5 260.5,-30.5 426.5,-30.5 426.5,-0.5 260.5,-0.5"/>
<text text-anchor="start" x="268.5" y="-18.5" font-family="Helvetica,sans-Serif" font-size="10.00">QuantConnect.Research.Quant</text>
<text text-anchor="middle" x="343.5" y="-7.5" font-family="Helvetica,sans-Serif" font-size="10.00">Book.OptionHistory</text>
</a>
</g>
</g>
<!-- Node1&#45;&gt;Node9 -->
<g id="edge8" class="edge">
<title>Node1&#45;&gt;Node9</title>
<path fill="none" stroke="midnightblue" d="M521.37,-69.1C499.3,-59.32 471.54,-47.81 446,-39.5 436.01,-36.25 425.34,-33.24 414.81,-30.53"/>
<polygon fill="midnightblue" stroke="midnightblue" points="520.21,-72.41 530.76,-73.31 523.07,-66.02 520.21,-72.41"/>
</g>
<!-- Node3 -->
<g id="node3" class="node">
<title>Node3</title>
<g id="a_node3"><a xlink:href="classQuantConnect_1_1Algorithm_1_1QCAlgorithm.html#ada6451c3b45f03209b586c6bc661ccb0" target="_top" xlink:title="Adds a future option contract to the algorithm.">
<polygon fill="white" stroke="black" points="0,-196.5 0,-226.5 205,-226.5 205,-196.5 0,-196.5"/>
<text text-anchor="start" x="8" y="-214.5" font-family="Helvetica,sans-Serif" font-size="10.00">QuantConnect.Algorithm.QCAlgorithm.</text>
<text text-anchor="middle" x="102.5" y="-203.5" font-family="Helvetica,sans-Serif" font-size="10.00">AddFutureOptionContract</text>
</a>
</g>
</g>
<!-- Node2&#45;&gt;Node3 -->
<g id="edge2" class="edge">
<title>Node2&#45;&gt;Node3</title>
<path fill="none" stroke="midnightblue" d="M259.03,-179.61C232.21,-185.11 202.72,-191.16 176.69,-196.49"/>
<polygon fill="midnightblue" stroke="midnightblue" points="260.07,-182.97 269.17,-177.53 258.67,-176.11 260.07,-182.97"/>
</g>
<!-- Node4 -->
<g id="node4" class="node">
<title>Node4</title>
<g id="a_node4"><a xlink:href="classQuantConnect_1_1Algorithm_1_1QCAlgorithm.html#a87673f13f7831209b9cea29f860d63c3" target="_top" xlink:title="Adds an index option contract to the algorithm.">
<polygon fill="white" stroke="black" points="0,-147.5 0,-177.5 205,-177.5 205,-147.5 0,-147.5"/>
<text text-anchor="start" x="8" y="-165.5" font-family="Helvetica,sans-Serif" font-size="10.00">QuantConnect.Algorithm.QCAlgorithm.</text>
<text text-anchor="middle" x="102.5" y="-154.5" font-family="Helvetica,sans-Serif" font-size="10.00">AddIndexOptionContract</text>
</a>
</g>
</g>
<!-- Node2&#45;&gt;Node4 -->
<g id="edge3" class="edge">
<title>Node2&#45;&gt;Node4</title>
<path fill="none" stroke="midnightblue" d="M230.78,-162.5C222.22,-162.5 213.6,-162.5 205.11,-162.5"/>
<polygon fill="midnightblue" stroke="midnightblue" points="230.8,-166 240.8,-162.5 230.8,-159 230.8,-166"/>
</g>
<!-- Node5 -->
<g id="node5" class="node">
<title>Node5</title>
<g id="a_node5"><a xlink:href="classQuantConnect_1_1Algorithm_1_1QCAlgorithm.html#afcdaf47586751fe6105f43d044b7cf70" target="_top" xlink:title="Set a required SecurityType&#45;symbol and resolution for algorithm">
<polygon fill="white" stroke="black" points="0,-98.5 0,-128.5 205,-128.5 205,-98.5 0,-98.5"/>
<text text-anchor="start" x="8" y="-116.5" font-family="Helvetica,sans-Serif" font-size="10.00">QuantConnect.Algorithm.QCAlgorithm.</text>
<text text-anchor="middle" x="102.5" y="-105.5" font-family="Helvetica,sans-Serif" font-size="10.00">AddSecurity</text>
</a>
</g>
</g>
<!-- Node2&#45;&gt;Node5 -->
<g id="edge4" class="edge">
<title>Node2&#45;&gt;Node5</title>
<path fill="none" stroke="midnightblue" d="M259.03,-145.39C232.21,-139.89 202.72,-133.84 176.69,-128.51"/>
<polygon fill="midnightblue" stroke="midnightblue" points="258.67,-148.89 269.17,-147.47 260.07,-142.03 258.67,-148.89"/>
</g>
<!-- Node8 -->
<g id="node8" class="node">
<title>Node8</title>
<g id="a_node8"><a xlink:href="classQuantConnect_1_1Algorithm_1_1QCAlgorithm.html#ad8a5d8d6d6fd62a8a3962f0649567804" target="_top" xlink:title="Called by setup handlers after Initialize and allows the algorithm a chance to organize the data gath...">
<polygon fill="white" stroke="black" points="0,-49.5 0,-79.5 205,-79.5 205,-49.5 0,-49.5"/>
<text text-anchor="start" x="8" y="-67.5" font-family="Helvetica,sans-Serif" font-size="10.00">QuantConnect.Algorithm.QCAlgorithm.</text>
<text text-anchor="middle" x="102.5" y="-56.5" font-family="Helvetica,sans-Serif" font-size="10.00">PostInitialize</text>
</a>
</g>
</g>
<!-- Node7&#45;&gt;Node8 -->
<g id="edge7" class="edge">
<title>Node7&#45;&gt;Node8</title>
<path fill="none" stroke="midnightblue" d="M230.78,-64.5C222.22,-64.5 213.6,-64.5 205.11,-64.5"/>
<polygon fill="midnightblue" stroke="midnightblue" points="230.8,-68 240.8,-64.5 230.8,-61 230.8,-68"/>
</g>
</g>
</svg>
