<?xml version="1.0" encoding="UTF-8" standalone="no"?>
<!DOCTYPE svg PUBLIC "-//W3C//DTD SVG 1.1//EN"
 "http://www.w3.org/Graphics/SVG/1.1/DTD/svg11.dtd">
<!-- Generated by graphviz version 2.43.0 (0)
 -->
<!-- Title: QuantConnect.Lean.Engine.DataFeeds.Enumerators.LiveMappingEventProvider.GetEvents Pages: 1 -->
<svg width="670pt" height="138pt"
 viewBox="0.00 0.00 670.00 137.50" xmlns="http://www.w3.org/2000/svg" xmlns:xlink="http://www.w3.org/1999/xlink">
<g id="graph0" class="graph" transform="scale(1 1) rotate(0) translate(4 133.5)">
<title>QuantConnect.Lean.Engine.DataFeeds.Enumerators.LiveMappingEventProvider.GetEvents</title>
<polygon fill="white" stroke="transparent" points="-4,4 -4,-133.5 666,-133.5 666,4 -4,4"/>
<!-- Node1 -->
<g id="node1" class="node">
<title>Node1</title>
<g id="a_node1"><a xlink:title="Check for new mappings">
<polygon fill="#bfbfbf" stroke="black" points="0,-50 0,-91 199,-91 199,-50 0,-50"/>
<text text-anchor="start" x="8" y="-79" font-family="Helvetica,sans-Serif" font-size="10.00">QuantConnect.Lean.Engine.</text>
<text text-anchor="start" x="8" y="-68" font-family="Helvetica,sans-Serif" font-size="10.00">DataFeeds.Enumerators.LiveMapping</text>
<text text-anchor="middle" x="99.5" y="-57" font-family="Helvetica,sans-Serif" font-size="10.00">EventProvider.GetEvents</text>
</a>
</g>
</g>
<!-- Node2 -->
<g id="node2" class="node">
<title>Node2</title>
<g id="a_node2"><a xlink:href="classQuantConnect_1_1Symbol.html#a8b9805ec0602ba89ee464ec7b3634e9f" target="_top" xlink:title="Determines whether the symbol has a canonical representation">
<polygon fill="white" stroke="black" points="240.5,-110 240.5,-129 435.5,-129 435.5,-110 240.5,-110"/>
<text text-anchor="middle" x="338" y="-117" font-family="Helvetica,sans-Serif" font-size="10.00">QuantConnect.Symbol.HasCanonical</text>
</a>
</g>
</g>
<!-- Node1&#45;&gt;Node2 -->
<g id="edge1" class="edge">
<title>Node1&#45;&gt;Node2</title>
<path fill="none" stroke="midnightblue" d="M190.48,-91.03C205.33,-94.29 220.59,-97.55 235,-100.5 247.53,-103.06 260.96,-105.67 273.82,-108.09"/>
<polygon fill="midnightblue" stroke="midnightblue" points="273.52,-111.59 283.99,-109.99 274.8,-104.71 273.52,-111.59"/>
</g>
<!-- Node4 -->
<g id="node4" class="node">
<title>Node4</title>
<g id="a_node4"><a xlink:href="classQuantConnect_1_1Lean_1_1Engine_1_1DataFeeds_1_1Enumerators_1_1MappingEventProvider.html#ab68c8d755608d4f64f61e159aaea6fbb" target="_top" xlink:title="Initializes the map file to use">
<polygon fill="white" stroke="black" points="235,-50 235,-91 441,-91 441,-50 235,-50"/>
<text text-anchor="start" x="243" y="-79" font-family="Helvetica,sans-Serif" font-size="10.00">QuantConnect.Lean.Engine.</text>
<text text-anchor="start" x="243" y="-68" font-family="Helvetica,sans-Serif" font-size="10.00">DataFeeds.Enumerators.MappingEvent</text>
<text text-anchor="middle" x="338" y="-57" font-family="Helvetica,sans-Serif" font-size="10.00">Provider.InitializeMapFile</text>
</a>
</g>
</g>
<!-- Node1&#45;&gt;Node4 -->
<g id="edge3" class="edge">
<title>Node1&#45;&gt;Node4</title>
<path fill="none" stroke="midnightblue" d="M199.08,-70.5C207.56,-70.5 216.17,-70.5 224.74,-70.5"/>
<polygon fill="midnightblue" stroke="midnightblue" points="224.76,-74 234.76,-70.5 224.76,-67 224.76,-74"/>
</g>
<!-- Node5 -->
<g id="node5" class="node">
<title>Node5</title>
<g id="a_node5"><a xlink:href="classQuantConnect_1_1Logging_1_1Log.html#a4e55477fbc790846b74550a57198cea9" target="_top" xlink:title="Log trace">
<polygon fill="white" stroke="black" points="263,-0.5 263,-30.5 413,-30.5 413,-0.5 263,-0.5"/>
<text text-anchor="start" x="271" y="-18.5" font-family="Helvetica,sans-Serif" font-size="10.00">QuantConnect.Logging.Log.</text>
<text text-anchor="middle" x="338" y="-7.5" font-family="Helvetica,sans-Serif" font-size="10.00">Trace</text>
</a>
</g>
</g>
<!-- Node1&#45;&gt;Node5 -->
<g id="edge4" class="edge">
<title>Node1&#45;&gt;Node5</title>
<path fill="none" stroke="midnightblue" d="M188.9,-49.94C213.12,-44.31 239.13,-38.26 262.49,-32.83"/>
<polygon fill="midnightblue" stroke="midnightblue" points="263.38,-36.21 272.33,-30.54 261.8,-29.4 263.38,-36.21"/>
</g>
<!-- Node3 -->
<g id="node3" class="node">
<title>Node3</title>
<g id="a_node3"><a xlink:href="classQuantConnect_1_1Symbol.html#a1f3c25223fd9a7b753a4f84ece6469ab" target="_top" xlink:title="Method returns true, if symbol is a derivative canonical symbol">
<polygon fill="white" stroke="black" points="477,-110 477,-129 662,-129 662,-110 477,-110"/>
<text text-anchor="middle" x="569.5" y="-117" font-family="Helvetica,sans-Serif" font-size="10.00">QuantConnect.Symbol.IsCanonical</text>
</a>
</g>
</g>
<!-- Node2&#45;&gt;Node3 -->
<g id="edge2" class="edge">
<title>Node2&#45;&gt;Node3</title>
<path fill="none" stroke="midnightblue" d="M435.66,-119.5C445.86,-119.5 456.26,-119.5 466.51,-119.5"/>
<polygon fill="midnightblue" stroke="midnightblue" points="466.71,-123 476.71,-119.5 466.71,-116 466.71,-123"/>
</g>
<!-- Node6 -->
<g id="node6" class="node">
<title>Node6</title>
<g id="a_node6"><a xlink:href="interfaceQuantConnect_1_1Logging_1_1ILogHandler.html#a3fb71a33ac66129240b63f12b6fcda3b" target="_top" xlink:title="Write debug message to log">
<polygon fill="white" stroke="black" points="494.5,-0.5 494.5,-30.5 644.5,-30.5 644.5,-0.5 494.5,-0.5"/>
<text text-anchor="start" x="502.5" y="-18.5" font-family="Helvetica,sans-Serif" font-size="10.00">QuantConnect.Logging.ILog</text>
<text text-anchor="middle" x="569.5" y="-7.5" font-family="Helvetica,sans-Serif" font-size="10.00">Handler.Trace</text>
</a>
</g>
</g>
<!-- Node5&#45;&gt;Node6 -->
<g id="edge5" class="edge">
<title>Node5&#45;&gt;Node6</title>
<path fill="none" stroke="midnightblue" d="M413.2,-15.5C435.78,-15.5 460.78,-15.5 483.99,-15.5"/>
<polygon fill="midnightblue" stroke="midnightblue" points="484.17,-19 494.17,-15.5 484.17,-12 484.17,-19"/>
</g>
</g>
</svg>
