<?xml version="1.0" encoding="UTF-8" standalone="no"?>
<!DOCTYPE svg PUBLIC "-//W3C//DTD SVG 1.1//EN"
 "http://www.w3.org/Graphics/SVG/1.1/DTD/svg11.dtd">
<!-- Generated by graphviz version 2.43.0 (0)
 -->
<!-- Title: QuantConnect.Data.Common.MarketHourAwareConsolidator.Initialize Pages: 1 -->
<svg width="647pt" height="148pt"
 viewBox="0.00 0.00 647.00 147.50" xmlns="http://www.w3.org/2000/svg" xmlns:xlink="http://www.w3.org/1999/xlink">
<g id="graph0" class="graph" transform="scale(1 1) rotate(0) translate(4 143.5)">
<title>QuantConnect.Data.Common.MarketHourAwareConsolidator.Initialize</title>
<polygon fill="white" stroke="transparent" points="-4,4 -4,-143.5 643,-143.5 643,4 -4,4"/>
<!-- Node1 -->
<g id="node1" class="node">
<title>Node1</title>
<g id="a_node1"><a xlink:title="Perform late initialization based on the datas symbol">
<polygon fill="#bfbfbf" stroke="black" points="0,-36 0,-66 210,-66 210,-36 0,-36"/>
<text text-anchor="start" x="8" y="-54" font-family="Helvetica,sans-Serif" font-size="10.00">QuantConnect.Data.Common.</text>
<text text-anchor="middle" x="105" y="-43" font-family="Helvetica,sans-Serif" font-size="10.00">MarketHourAwareConsolidator.Initialize</text>
</a>
</g>
</g>
<!-- Node2 -->
<g id="node2" class="node">
<title>Node2</title>
<g id="a_node2"><a xlink:href="classQuantConnect_1_1Securities_1_1MarketHoursDatabase.html#aa01232d91c17c556b18ea8f1f7fabcd0" target="_top" xlink:title="Gets the instance of the MarketHoursDatabase class produced by reading in the market hours data found...">
<polygon fill="white" stroke="black" points="251.5,-60.5 251.5,-101.5 427.5,-101.5 427.5,-60.5 251.5,-60.5"/>
<text text-anchor="start" x="259.5" y="-89.5" font-family="Helvetica,sans-Serif" font-size="10.00">QuantConnect.Securities.</text>
<text text-anchor="start" x="259.5" y="-78.5" font-family="Helvetica,sans-Serif" font-size="10.00">MarketHoursDatabase.FromData</text>
<text text-anchor="middle" x="339.5" y="-67.5" font-family="Helvetica,sans-Serif" font-size="10.00">Folder</text>
</a>
</g>
</g>
<!-- Node1&#45;&gt;Node2 -->
<g id="edge1" class="edge">
<title>Node1&#45;&gt;Node2</title>
<path fill="none" stroke="midnightblue" d="M210.01,-64.42C220.35,-65.75 230.82,-67.11 241.08,-68.43"/>
<polygon fill="midnightblue" stroke="midnightblue" points="240.9,-71.94 251.27,-69.74 241.8,-64.99 240.9,-71.94"/>
</g>
<!-- Node5 -->
<g id="node5" class="node">
<title>Node5</title>
<g id="a_node5"><a xlink:href="classQuantConnect_1_1Data_1_1Common_1_1MarketHourAwareConsolidator.html#afa1ad701ff92332bc7d9fb18df951223" target="_top" xlink:title="Useful for testing">
<polygon fill="white" stroke="black" points="246,-0.5 246,-41.5 433,-41.5 433,-0.5 246,-0.5"/>
<text text-anchor="start" x="254" y="-29.5" font-family="Helvetica,sans-Serif" font-size="10.00">QuantConnect.Data.Common.</text>
<text text-anchor="start" x="254" y="-18.5" font-family="Helvetica,sans-Serif" font-size="10.00">MarketHourAwareConsolidator.Use</text>
<text text-anchor="middle" x="339.5" y="-7.5" font-family="Helvetica,sans-Serif" font-size="10.00">StrictEndTime</text>
</a>
</g>
</g>
<!-- Node1&#45;&gt;Node5 -->
<g id="edge4" class="edge">
<title>Node1&#45;&gt;Node5</title>
<path fill="none" stroke="midnightblue" d="M210.01,-37.58C218.61,-36.47 227.31,-35.35 235.9,-34.24"/>
<polygon fill="midnightblue" stroke="midnightblue" points="236.46,-37.7 245.93,-32.94 235.56,-30.75 236.46,-37.7"/>
</g>
<!-- Node3 -->
<g id="node3" class="node">
<title>Node3</title>
<g id="a_node3"><a xlink:href="classQuantConnect_1_1Securities_1_1MarketHoursDatabase.html#a6fdcc5f6d09cc11743e258e570d0a9eb" target="_top" xlink:title="Reads the specified file as a market hours database instance">
<polygon fill="white" stroke="black" points="469,-109 469,-139 639,-139 639,-109 469,-109"/>
<text text-anchor="start" x="477" y="-127" font-family="Helvetica,sans-Serif" font-size="10.00">QuantConnect.Securities.</text>
<text text-anchor="middle" x="554" y="-116" font-family="Helvetica,sans-Serif" font-size="10.00">MarketHoursDatabase.FromFile</text>
</a>
</g>
</g>
<!-- Node2&#45;&gt;Node3 -->
<g id="edge2" class="edge">
<title>Node2&#45;&gt;Node3</title>
<path fill="none" stroke="midnightblue" d="M427.55,-98.61C441.06,-101.35 455.01,-104.17 468.47,-106.9"/>
<polygon fill="midnightblue" stroke="midnightblue" points="468.16,-110.4 478.65,-108.96 469.55,-103.54 468.16,-110.4"/>
</g>
<!-- Node4 -->
<g id="node4" class="node">
<title>Node4</title>
<g id="a_node4"><a xlink:href="classQuantConnect_1_1Globals.html#ae01b5c94ef475a21ab1a62fe1b04ea5c" target="_top" xlink:title="Helper method that will build a data folder path checking if it exists on the cache folder else will ...">
<polygon fill="white" stroke="black" points="481,-60 481,-90 627,-90 627,-60 481,-60"/>
<text text-anchor="start" x="489" y="-78" font-family="Helvetica,sans-Serif" font-size="10.00">QuantConnect.Globals.Get</text>
<text text-anchor="middle" x="554" y="-67" font-family="Helvetica,sans-Serif" font-size="10.00">DataFolderPath</text>
</a>
</g>
</g>
<!-- Node2&#45;&gt;Node4 -->
<g id="edge3" class="edge">
<title>Node2&#45;&gt;Node4</title>
<path fill="none" stroke="midnightblue" d="M427.55,-78.54C441.84,-78.14 456.62,-77.72 470.79,-77.32"/>
<polygon fill="midnightblue" stroke="midnightblue" points="471.09,-80.81 480.99,-77.03 470.89,-73.82 471.09,-80.81"/>
</g>
<!-- Node6 -->
<g id="node6" class="node">
<title>Node6</title>
<g id="a_node6"><a xlink:href="classQuantConnect_1_1Util_1_1LeanData.html#a285cd342950b1f06c6b8527e0087fde5" target="_top" xlink:title="Helper method to determine if we should use strict end time">
<polygon fill="white" stroke="black" points="475,-6 475,-36 633,-36 633,-6 475,-6"/>
<text text-anchor="start" x="483" y="-24" font-family="Helvetica,sans-Serif" font-size="10.00">QuantConnect.Util.LeanData.</text>
<text text-anchor="middle" x="554" y="-13" font-family="Helvetica,sans-Serif" font-size="10.00">UseStrictEndTime</text>
</a>
</g>
</g>
<!-- Node5&#45;&gt;Node6 -->
<g id="edge5" class="edge">
<title>Node5&#45;&gt;Node6</title>
<path fill="none" stroke="midnightblue" d="M433.09,-21C443.49,-21 454.07,-21 464.42,-21"/>
<polygon fill="midnightblue" stroke="midnightblue" points="464.67,-24.5 474.67,-21 464.67,-17.5 464.67,-24.5"/>
</g>
</g>
</svg>
