<?xml version="1.0" encoding="UTF-8" standalone="no"?>
<!DOCTYPE svg PUBLIC "-//W3C//DTD SVG 1.1//EN"
 "http://www.w3.org/Graphics/SVG/1.1/DTD/svg11.dtd">
<!-- Generated by graphviz version 2.43.0 (0)
 -->
<!-- Title: QuantConnect.Brokerages.BitfinexBrokerageModel.CanUpdateOrder Pages: 1 -->
<svg width="666pt" height="50pt"
 viewBox="0.00 0.00 666.00 50.00" xmlns="http://www.w3.org/2000/svg" xmlns:xlink="http://www.w3.org/1999/xlink">
<g id="graph0" class="graph" transform="scale(1 1) rotate(0) translate(4 46)">
<title>QuantConnect.Brokerages.BitfinexBrokerageModel.CanUpdateOrder</title>
<polygon fill="white" stroke="transparent" points="-4,4 -4,-46 662,-46 662,4 -4,4"/>
<!-- Node1 -->
<g id="node1" class="node">
<title>Node1</title>
<g id="a_node1"><a xlink:title="Checks whether an order can be updated or not in the Bitfinex brokerage model">
<polygon fill="#bfbfbf" stroke="black" points="0,-6 0,-36 218,-36 218,-6 0,-6"/>
<text text-anchor="start" x="8" y="-24" font-family="Helvetica,sans-Serif" font-size="10.00">QuantConnect.Brokerages.</text>
<text text-anchor="middle" x="109" y="-13" font-family="Helvetica,sans-Serif" font-size="10.00">BitfinexBrokerageModel.CanUpdateOrder</text>
</a>
</g>
</g>
<!-- Node2 -->
<g id="node2" class="node">
<title>Node2</title>
<g id="a_node2"><a xlink:href="classQuantConnect_1_1Brokerages_1_1DefaultBrokerageModel.html#aab045cb269fc0ddda72e6c05c280c2d3" target="_top" xlink:title="Checks if the order quantity is valid, it means, the order size is bigger than the minimum size allow...">
<polygon fill="white" stroke="black" points="254,-0.5 254,-41.5 421,-41.5 421,-0.5 254,-0.5"/>
<text text-anchor="start" x="262" y="-29.5" font-family="Helvetica,sans-Serif" font-size="10.00">QuantConnect.Brokerages.</text>
<text text-anchor="start" x="262" y="-18.5" font-family="Helvetica,sans-Serif" font-size="10.00">DefaultBrokerageModel.IsValid</text>
<text text-anchor="middle" x="337.5" y="-7.5" font-family="Helvetica,sans-Serif" font-size="10.00">OrderSize</text>
</a>
</g>
</g>
<!-- Node1&#45;&gt;Node2 -->
<g id="edge1" class="edge">
<title>Node1&#45;&gt;Node2</title>
<path fill="none" stroke="midnightblue" d="M218.27,-21C226.76,-21 235.29,-21 243.67,-21"/>
<polygon fill="midnightblue" stroke="midnightblue" points="243.79,-24.5 253.79,-21 243.79,-17.5 243.79,-24.5"/>
</g>
<!-- Node3 -->
<g id="node3" class="node">
<title>Node3</title>
<g id="a_node3"><a xlink:href="classQuantConnect_1_1Messages_1_1DefaultBrokerageModel.html#ad5fe70a9d5974d5c9fb72a7cf4b0cdb0" target="_top" xlink:title="Returns a string message saying the quantity given was invalid for the given security">
<polygon fill="white" stroke="black" points="457,-6 457,-36 658,-36 658,-6 457,-6"/>
<text text-anchor="start" x="465" y="-24" font-family="Helvetica,sans-Serif" font-size="10.00">QuantConnect.Messages.Default</text>
<text text-anchor="middle" x="557.5" y="-13" font-family="Helvetica,sans-Serif" font-size="10.00">BrokerageModel.InvalidOrderQuantity</text>
</a>
</g>
</g>
<!-- Node2&#45;&gt;Node3 -->
<g id="edge2" class="edge">
<title>Node2&#45;&gt;Node3</title>
<path fill="none" stroke="midnightblue" d="M421.23,-21C429.62,-21 438.24,-21 446.87,-21"/>
<polygon fill="midnightblue" stroke="midnightblue" points="446.98,-24.5 456.98,-21 446.98,-17.5 446.98,-24.5"/>
</g>
</g>
</svg>
