<?xml version="1.0" encoding="UTF-8" standalone="no"?>
<!DOCTYPE svg PUBLIC "-//W3C//DTD SVG 1.1//EN"
 "http://www.w3.org/Graphics/SVG/1.1/DTD/svg11.dtd">
<!-- Generated by graphviz version 2.43.0 (0)
 -->
<!-- Title: QuantConnect.Extensions.GetCustomDataTypeFromSymbols Pages: 1 -->
<svg width="612pt" height="39pt"
 viewBox="0.00 0.00 612.00 39.00" xmlns="http://www.w3.org/2000/svg" xmlns:xlink="http://www.w3.org/1999/xlink">
<g id="graph0" class="graph" transform="scale(1 1) rotate(0) translate(4 35)">
<title>QuantConnect.Extensions.GetCustomDataTypeFromSymbols</title>
<polygon fill="white" stroke="transparent" points="-4,4 -4,-35 608,-35 608,4 -4,4"/>
<!-- Node1 -->
<g id="node1" class="node">
<title>Node1</title>
<g id="a_node1"><a xlink:title="Retrieve a common custom data types from the given symbols if any">
<polygon fill="#bfbfbf" stroke="black" points="0,-0.5 0,-30.5 184,-30.5 184,-0.5 0,-0.5"/>
<text text-anchor="start" x="8" y="-18.5" font-family="Helvetica,sans-Serif" font-size="10.00">QuantConnect.Extensions.</text>
<text text-anchor="middle" x="92" y="-7.5" font-family="Helvetica,sans-Serif" font-size="10.00">GetCustomDataTypeFromSymbols</text>
</a>
</g>
</g>
<!-- Node2 -->
<g id="node2" class="node">
<title>Node2</title>
<g id="a_node2"><a xlink:href="classQuantConnect_1_1SecurityIdentifier.html#a2a52cbd8bce9ff527bc8021a3e3a0037" target="_top" xlink:title="Tries to fetch the custom data type associated with a symbol">
<polygon fill="white" stroke="black" points="220,-0.5 220,-30.5 394,-30.5 394,-0.5 220,-0.5"/>
<text text-anchor="start" x="228" y="-18.5" font-family="Helvetica,sans-Serif" font-size="10.00">QuantConnect.SecurityIdentifier.</text>
<text text-anchor="middle" x="307" y="-7.5" font-family="Helvetica,sans-Serif" font-size="10.00">TryGetCustomDataTypeInstance</text>
</a>
</g>
</g>
<!-- Node1&#45;&gt;Node2 -->
<g id="edge1" class="edge">
<title>Node1&#45;&gt;Node2</title>
<path fill="none" stroke="midnightblue" d="M184.26,-15.5C192.69,-15.5 201.25,-15.5 209.72,-15.5"/>
<polygon fill="midnightblue" stroke="midnightblue" points="209.99,-19 219.99,-15.5 209.99,-12 209.99,-19"/>
</g>
<!-- Node3 -->
<g id="node3" class="node">
<title>Node3</title>
<g id="a_node3"><a xlink:href="classQuantConnect_1_1SecurityIdentifier.html#a65051a4af9e25cab40451dc9ef12db6a" target="_top" xlink:title="Tries to fetch the custom data type associated with a symbol">
<polygon fill="white" stroke="black" points="430,-0.5 430,-30.5 604,-30.5 604,-0.5 430,-0.5"/>
<text text-anchor="start" x="438" y="-18.5" font-family="Helvetica,sans-Serif" font-size="10.00">QuantConnect.SecurityIdentifier.</text>
<text text-anchor="middle" x="517" y="-7.5" font-family="Helvetica,sans-Serif" font-size="10.00">TryGetCustomDataType</text>
</a>
</g>
</g>
<!-- Node2&#45;&gt;Node3 -->
<g id="edge2" class="edge">
<title>Node2&#45;&gt;Node3</title>
<path fill="none" stroke="midnightblue" d="M394.1,-15.5C402.62,-15.5 411.3,-15.5 419.91,-15.5"/>
<polygon fill="midnightblue" stroke="midnightblue" points="419.96,-19 429.96,-15.5 419.96,-12 419.96,-19"/>
</g>
</g>
</svg>
