<?xml version="1.0" encoding="UTF-8" standalone="no"?>
<!DOCTYPE svg PUBLIC "-//W3C//DTD SVG 1.1//EN"
 "http://www.w3.org/Graphics/SVG/1.1/DTD/svg11.dtd">
<!-- Generated by graphviz version 2.43.0 (0)
 -->
<!-- Title: QuantConnect.Data.DataQueueHandlerSubscriptionManager.GetSubscribedSymbols Pages: 1 -->
<svg width="474pt" height="50pt"
 viewBox="0.00 0.00 474.00 50.00" xmlns="http://www.w3.org/2000/svg" xmlns:xlink="http://www.w3.org/1999/xlink">
<g id="graph0" class="graph" transform="scale(1 1) rotate(0) translate(4 46)">
<title>QuantConnect.Data.DataQueueHandlerSubscriptionManager.GetSubscribedSymbols</title>
<polygon fill="white" stroke="transparent" points="-4,4 -4,-46 470,-46 470,4 -4,4"/>
<!-- Node1 -->
<g id="node1" class="node">
<title>Node1</title>
<g id="a_node1"><a xlink:title="Retrieves the list of unique Symbol instances that are currently subscribed for a specific TickType.">
<polygon fill="#bfbfbf" stroke="black" points="0,-0.5 0,-41.5 230,-41.5 230,-0.5 0,-0.5"/>
<text text-anchor="start" x="8" y="-29.5" font-family="Helvetica,sans-Serif" font-size="10.00">QuantConnect.Data.DataQueue</text>
<text text-anchor="start" x="8" y="-18.5" font-family="Helvetica,sans-Serif" font-size="10.00">HandlerSubscriptionManager.GetSubscribed</text>
<text text-anchor="middle" x="115" y="-7.5" font-family="Helvetica,sans-Serif" font-size="10.00">Symbols</text>
</a>
</g>
</g>
<!-- Node2 -->
<g id="node2" class="node">
<title>Node2</title>
<g id="a_node2"><a xlink:href="classQuantConnect_1_1Data_1_1DataQueueHandlerSubscriptionManager.html#a71500a7366358d2ba2f3f295dcd1f773" target="_top" xlink:title="Brokerage maps TickType to real socket/api channel">
<polygon fill="white" stroke="black" points="266,-0.5 266,-41.5 466,-41.5 466,-0.5 266,-0.5"/>
<text text-anchor="start" x="274" y="-29.5" font-family="Helvetica,sans-Serif" font-size="10.00">QuantConnect.Data.DataQueue</text>
<text text-anchor="start" x="274" y="-18.5" font-family="Helvetica,sans-Serif" font-size="10.00">HandlerSubscriptionManager.Channel</text>
<text text-anchor="middle" x="366" y="-7.5" font-family="Helvetica,sans-Serif" font-size="10.00">NameFromTickType</text>
</a>
</g>
</g>
<!-- Node1&#45;&gt;Node2 -->
<g id="edge1" class="edge">
<title>Node1&#45;&gt;Node2</title>
<path fill="none" stroke="midnightblue" d="M230.3,-21C238.75,-21 247.27,-21 255.69,-21"/>
<polygon fill="midnightblue" stroke="midnightblue" points="255.9,-24.5 265.9,-21 255.9,-17.5 255.9,-24.5"/>
</g>
</g>
</svg>
