<?xml version="1.0" encoding="UTF-8" standalone="no"?>
<!DOCTYPE svg PUBLIC "-//W3C//DTD SVG 1.1//EN"
 "http://www.w3.org/Graphics/SVG/1.1/DTD/svg11.dtd">
<!-- Generated by graphviz version 2.43.0 (0)
 -->
<!-- Title: QuantConnect.Lean.Engine.TransactionHandlers.BrokerageTransactionHandler.Run Pages: 1 -->
<svg width="679pt" height="160pt"
 viewBox="0.00 0.00 679.00 159.50" xmlns="http://www.w3.org/2000/svg" xmlns:xlink="http://www.w3.org/1999/xlink">
<g id="graph0" class="graph" transform="scale(1 1) rotate(0) translate(4 155.5)">
<title>QuantConnect.Lean.Engine.TransactionHandlers.BrokerageTransactionHandler.Run</title>
<polygon fill="white" stroke="transparent" points="-4,4 -4,-155.5 675,-155.5 675,4 -4,4"/>
<!-- Node1 -->
<g id="node1" class="node">
<title>Node1</title>
<g id="a_node1"><a xlink:title="Primary thread entry point to launch the transaction thread.">
<polygon fill="#bfbfbf" stroke="black" points="0,-50 0,-91 224,-91 224,-50 0,-50"/>
<text text-anchor="start" x="8" y="-79" font-family="Helvetica,sans-Serif" font-size="10.00">QuantConnect.Lean.Engine.</text>
<text text-anchor="start" x="8" y="-68" font-family="Helvetica,sans-Serif" font-size="10.00">TransactionHandlers.BrokerageTransaction</text>
<text text-anchor="middle" x="112" y="-57" font-family="Helvetica,sans-Serif" font-size="10.00">Handler.Run</text>
</a>
</g>
</g>
<!-- Node2 -->
<g id="node2" class="node">
<title>Node2</title>
<g id="a_node2"><a xlink:href="classQuantConnect_1_1Lean_1_1Engine_1_1TransactionHandlers_1_1BrokerageTransactionHandler.html#aba770aab9844310dafb4fb7c7794adc9" target="_top" xlink:title="Handles a generic order request">
<polygon fill="white" stroke="black" points="260,-110 260,-151 484,-151 484,-110 260,-110"/>
<text text-anchor="start" x="268" y="-139" font-family="Helvetica,sans-Serif" font-size="10.00">QuantConnect.Lean.Engine.</text>
<text text-anchor="start" x="268" y="-128" font-family="Helvetica,sans-Serif" font-size="10.00">TransactionHandlers.BrokerageTransaction</text>
<text text-anchor="middle" x="372" y="-117" font-family="Helvetica,sans-Serif" font-size="10.00">Handler.HandleOrderRequest</text>
</a>
</g>
</g>
<!-- Node1&#45;&gt;Node2 -->
<g id="edge1" class="edge">
<title>Node1&#45;&gt;Node2</title>
<path fill="none" stroke="midnightblue" d="M201.43,-91.06C224.4,-96.41 249.29,-102.2 272.74,-107.65"/>
<polygon fill="midnightblue" stroke="midnightblue" points="272.15,-111.11 282.69,-109.96 273.74,-104.29 272.15,-111.11"/>
</g>
<!-- Node4 -->
<g id="node4" class="node">
<title>Node4</title>
<g id="a_node4"><a xlink:href="classQuantConnect_1_1Lean_1_1Engine_1_1TransactionHandlers_1_1BrokerageTransactionHandler.html#abd6ad9f599d8b799f22df59a1d6bd1c9" target="_top" xlink:title="Processes asynchronous events on the transaction handler&#39;s thread">
<polygon fill="white" stroke="black" points="260,-50 260,-91 484,-91 484,-50 260,-50"/>
<text text-anchor="start" x="268" y="-79" font-family="Helvetica,sans-Serif" font-size="10.00">QuantConnect.Lean.Engine.</text>
<text text-anchor="start" x="268" y="-68" font-family="Helvetica,sans-Serif" font-size="10.00">TransactionHandlers.BrokerageTransaction</text>
<text text-anchor="middle" x="372" y="-57" font-family="Helvetica,sans-Serif" font-size="10.00">Handler.ProcessAsynchronousEvents</text>
</a>
</g>
</g>
<!-- Node1&#45;&gt;Node4 -->
<g id="edge3" class="edge">
<title>Node1&#45;&gt;Node4</title>
<path fill="none" stroke="midnightblue" d="M224.29,-70.5C232.63,-70.5 241.06,-70.5 249.46,-70.5"/>
<polygon fill="midnightblue" stroke="midnightblue" points="249.67,-74 259.67,-70.5 249.67,-67 249.67,-74"/>
</g>
<!-- Node5 -->
<g id="node5" class="node">
<title>Node5</title>
<g id="a_node5"><a xlink:href="classQuantConnect_1_1Logging_1_1Log.html#a4e55477fbc790846b74550a57198cea9" target="_top" xlink:title="Log trace">
<polygon fill="white" stroke="black" points="297,-0.5 297,-30.5 447,-30.5 447,-0.5 297,-0.5"/>
<text text-anchor="start" x="305" y="-18.5" font-family="Helvetica,sans-Serif" font-size="10.00">QuantConnect.Logging.Log.</text>
<text text-anchor="middle" x="372" y="-7.5" font-family="Helvetica,sans-Serif" font-size="10.00">Trace</text>
</a>
</g>
</g>
<!-- Node1&#45;&gt;Node5 -->
<g id="edge4" class="edge">
<title>Node1&#45;&gt;Node5</title>
<path fill="none" stroke="midnightblue" d="M209.44,-49.94C236.1,-44.26 264.74,-38.15 290.4,-32.68"/>
<polygon fill="midnightblue" stroke="midnightblue" points="291.4,-36.05 300.45,-30.54 289.94,-29.2 291.4,-36.05"/>
</g>
<!-- Node3 -->
<g id="node3" class="node">
<title>Node3</title>
<g id="a_node3"><a xlink:href="classQuantConnect_1_1Orders_1_1OrderRequest.html#aed73f8f311c9224866211078cd6caef1" target="_top" xlink:title="Sets the Response for this request">
<polygon fill="white" stroke="black" points="520,-115.5 520,-145.5 671,-145.5 671,-115.5 520,-115.5"/>
<text text-anchor="start" x="528" y="-133.5" font-family="Helvetica,sans-Serif" font-size="10.00">QuantConnect.Orders.Order</text>
<text text-anchor="middle" x="595.5" y="-122.5" font-family="Helvetica,sans-Serif" font-size="10.00">Request.SetResponse</text>
</a>
</g>
</g>
<!-- Node2&#45;&gt;Node3 -->
<g id="edge2" class="edge">
<title>Node2&#45;&gt;Node3</title>
<path fill="none" stroke="midnightblue" d="M484.07,-130.5C492.67,-130.5 501.26,-130.5 509.64,-130.5"/>
<polygon fill="midnightblue" stroke="midnightblue" points="509.75,-134 519.75,-130.5 509.75,-127 509.75,-134"/>
</g>
<!-- Node6 -->
<g id="node6" class="node">
<title>Node6</title>
<g id="a_node6"><a xlink:href="interfaceQuantConnect_1_1Logging_1_1ILogHandler.html#a3fb71a33ac66129240b63f12b6fcda3b" target="_top" xlink:title="Write debug message to log">
<polygon fill="white" stroke="black" points="520.5,-0.5 520.5,-30.5 670.5,-30.5 670.5,-0.5 520.5,-0.5"/>
<text text-anchor="start" x="528.5" y="-18.5" font-family="Helvetica,sans-Serif" font-size="10.00">QuantConnect.Logging.ILog</text>
<text text-anchor="middle" x="595.5" y="-7.5" font-family="Helvetica,sans-Serif" font-size="10.00">Handler.Trace</text>
</a>
</g>
</g>
<!-- Node5&#45;&gt;Node6 -->
<g id="edge5" class="edge">
<title>Node5&#45;&gt;Node6</title>
<path fill="none" stroke="midnightblue" d="M447.06,-15.5C467.28,-15.5 489.32,-15.5 510.06,-15.5"/>
<polygon fill="midnightblue" stroke="midnightblue" points="510.13,-19 520.13,-15.5 510.13,-12 510.13,-19"/>
</g>
</g>
</svg>
