<?xml version="1.0" encoding="UTF-8" standalone="no"?>
<!DOCTYPE svg PUBLIC "-//W3C//DTD SVG 1.1//EN"
 "http://www.w3.org/Graphics/SVG/1.1/DTD/svg11.dtd">
<!-- Generated by graphviz version 2.43.0 (0)
 -->
<!-- Title: QuantConnect.Orders.OptionExercise.DefaultExerciseModel.OptionExercise Pages: 1 -->
<svg width="1004pt" height="149pt"
 viewBox="0.00 0.00 1004.00 148.50" xmlns="http://www.w3.org/2000/svg" xmlns:xlink="http://www.w3.org/1999/xlink">
<g id="graph0" class="graph" transform="scale(1 1) rotate(0) translate(4 144.5)">
<title>QuantConnect.Orders.OptionExercise.DefaultExerciseModel.OptionExercise</title>
<polygon fill="white" stroke="transparent" points="-4,4 -4,-144.5 1000,-144.5 1000,4 -4,4"/>
<!-- Node1 -->
<g id="node1" class="node">
<title>Node1</title>
<g id="a_node1"><a xlink:title="Default option exercise model for the basic equity/index option security class.">
<polygon fill="#bfbfbf" stroke="black" points="0,-44 0,-85 170,-85 170,-44 0,-44"/>
<text text-anchor="start" x="8" y="-73" font-family="Helvetica,sans-Serif" font-size="10.00">QuantConnect.Orders.Option</text>
<text text-anchor="start" x="8" y="-62" font-family="Helvetica,sans-Serif" font-size="10.00">Exercise.DefaultExerciseModel.</text>
<text text-anchor="middle" x="85" y="-51" font-family="Helvetica,sans-Serif" font-size="10.00">OptionExercise</text>
</a>
</g>
</g>
<!-- Node2 -->
<g id="node2" class="node">
<title>Node2</title>
<g id="a_node2"><a xlink:href="classQuantConnect_1_1Messages_1_1DefaultExerciseModel.html#a9373d4a3dd72b2302dff8e993298d5bf" target="_top" xlink:title="Returns a string message containing basic information such as if it&#39;s an assignment or an exercise,...">
<polygon fill="white" stroke="black" points="206,-99 206,-140 436,-140 436,-99 206,-99"/>
<text text-anchor="start" x="214" y="-128" font-family="Helvetica,sans-Serif" font-size="10.00">QuantConnect.Messages.Default</text>
<text text-anchor="start" x="214" y="-117" font-family="Helvetica,sans-Serif" font-size="10.00">ExerciseModel.ContractHoldingsAdjustment</text>
<text text-anchor="middle" x="321" y="-106" font-family="Helvetica,sans-Serif" font-size="10.00">FillTag</text>
</a>
</g>
</g>
<!-- Node1&#45;&gt;Node2 -->
<g id="edge1" class="edge">
<title>Node1&#45;&gt;Node2</title>
<path fill="none" stroke="midnightblue" d="M170.15,-84.28C187.13,-88.27 205.11,-92.5 222.5,-96.58"/>
<polygon fill="midnightblue" stroke="midnightblue" points="222.12,-100.09 232.66,-98.97 223.72,-93.28 222.12,-100.09"/>
</g>
<!-- Node3 -->
<g id="node3" class="node">
<title>Node3</title>
<g id="a_node3"><a xlink:href="classQuantConnect_1_1Securities_1_1Option_1_1Option.html#adeeb8d76458ba523d657a9d2c1e7dfe5" target="_top" xlink:title="Returns the directional quantity of underlying shares that are going to change hands on exercise/assi...">
<polygon fill="white" stroke="black" points="227.5,-49.5 227.5,-79.5 414.5,-79.5 414.5,-49.5 227.5,-49.5"/>
<text text-anchor="start" x="235.5" y="-67.5" font-family="Helvetica,sans-Serif" font-size="10.00">QuantConnect.Securities.</text>
<text text-anchor="middle" x="321" y="-56.5" font-family="Helvetica,sans-Serif" font-size="10.00">Option.Option.GetExerciseQuantity</text>
</a>
</g>
</g>
<!-- Node1&#45;&gt;Node3 -->
<g id="edge2" class="edge">
<title>Node1&#45;&gt;Node3</title>
<path fill="none" stroke="midnightblue" d="M170.15,-64.5C185.41,-64.5 201.49,-64.5 217.21,-64.5"/>
<polygon fill="midnightblue" stroke="midnightblue" points="217.48,-68 227.48,-64.5 217.48,-61 217.48,-68"/>
</g>
<!-- Node4 -->
<g id="node4" class="node">
<title>Node4</title>
<g id="a_node4"><a xlink:href="classQuantConnect_1_1Securities_1_1Option_1_1Option.html#a4779561bd70015ffe94be56dac2a1c05" target="_top" xlink:title="Checks if option is eligible for automatic exercise on expiration">
<polygon fill="white" stroke="black" points="239,-0.5 239,-30.5 403,-30.5 403,-0.5 239,-0.5"/>
<text text-anchor="start" x="247" y="-18.5" font-family="Helvetica,sans-Serif" font-size="10.00">QuantConnect.Securities.</text>
<text text-anchor="middle" x="321" y="-7.5" font-family="Helvetica,sans-Serif" font-size="10.00">Option.Option.IsAutoExercised</text>
</a>
</g>
</g>
<!-- Node1&#45;&gt;Node4 -->
<g id="edge3" class="edge">
<title>Node1&#45;&gt;Node4</title>
<path fill="none" stroke="midnightblue" d="M170.15,-46.88C192.31,-42.24 216.17,-37.24 238.2,-32.63"/>
<polygon fill="midnightblue" stroke="midnightblue" points="239.11,-36.01 248.18,-30.54 237.68,-29.16 239.11,-36.01"/>
</g>
<!-- Node5 -->
<g id="node5" class="node">
<title>Node5</title>
<g id="a_node5"><a xlink:href="classQuantConnect_1_1Securities_1_1Option_1_1Option.html#a6038a942fd8a3b859a771b5269224208" target="_top" xlink:title="Intrinsic value function of the option">
<polygon fill="white" stroke="black" points="472,-0.5 472,-30.5 642,-30.5 642,-0.5 472,-0.5"/>
<text text-anchor="start" x="480" y="-18.5" font-family="Helvetica,sans-Serif" font-size="10.00">QuantConnect.Securities.</text>
<text text-anchor="middle" x="557" y="-7.5" font-family="Helvetica,sans-Serif" font-size="10.00">Option.Option.GetIntrinsicValue</text>
</a>
</g>
</g>
<!-- Node4&#45;&gt;Node5 -->
<g id="edge4" class="edge">
<title>Node4&#45;&gt;Node5</title>
<path fill="none" stroke="midnightblue" d="M403.19,-15.5C422.07,-15.5 442.33,-15.5 461.73,-15.5"/>
<polygon fill="midnightblue" stroke="midnightblue" points="461.78,-19 471.78,-15.5 461.78,-12 461.78,-19"/>
</g>
<!-- Node6 -->
<g id="node6" class="node">
<title>Node6</title>
<g id="a_node6"><a xlink:href="classQuantConnect_1_1Util_1_1OptionPayoff.html#a0366ba69bfc3bcf1dfba8816cdb1db42" target="_top" xlink:title="Intrinsic value function of the option">
<polygon fill="white" stroke="black" points="678,-0.5 678,-30.5 819,-30.5 819,-0.5 678,-0.5"/>
<text text-anchor="start" x="686" y="-18.5" font-family="Helvetica,sans-Serif" font-size="10.00">QuantConnect.Util.Option</text>
<text text-anchor="middle" x="748.5" y="-7.5" font-family="Helvetica,sans-Serif" font-size="10.00">Payoff.GetIntrinsicValue</text>
</a>
</g>
</g>
<!-- Node5&#45;&gt;Node6 -->
<g id="edge5" class="edge">
<title>Node5&#45;&gt;Node6</title>
<path fill="none" stroke="midnightblue" d="M642.22,-15.5C650.65,-15.5 659.2,-15.5 667.59,-15.5"/>
<polygon fill="midnightblue" stroke="midnightblue" points="667.72,-19 677.72,-15.5 667.72,-12 667.72,-19"/>
</g>
<!-- Node7 -->
<g id="node7" class="node">
<title>Node7</title>
<g id="a_node7"><a xlink:href="classQuantConnect_1_1Util_1_1OptionPayoff.html#a04bbbe3975d01c29101b7581d2564844" target="_top" xlink:title="Option payoff function at expiration time">
<polygon fill="white" stroke="black" points="855,-0.5 855,-30.5 996,-30.5 996,-0.5 855,-0.5"/>
<text text-anchor="start" x="863" y="-18.5" font-family="Helvetica,sans-Serif" font-size="10.00">QuantConnect.Util.Option</text>
<text text-anchor="middle" x="925.5" y="-7.5" font-family="Helvetica,sans-Serif" font-size="10.00">Payoff.GetPayOff</text>
</a>
</g>
</g>
<!-- Node6&#45;&gt;Node7 -->
<g id="edge6" class="edge">
<title>Node6&#45;&gt;Node7</title>
<path fill="none" stroke="midnightblue" d="M819.17,-15.5C827.5,-15.5 836.06,-15.5 844.53,-15.5"/>
<polygon fill="midnightblue" stroke="midnightblue" points="844.79,-19 854.79,-15.5 844.79,-12 844.79,-19"/>
</g>
</g>
</svg>
