<?xml version="1.0" encoding="UTF-8" standalone="no"?>
<!DOCTYPE svg PUBLIC "-//W3C//DTD SVG 1.1//EN"
 "http://www.w3.org/Graphics/SVG/1.1/DTD/svg11.dtd">
<!-- Generated by graphviz version 2.43.0 (0)
 -->
<!-- Title: QuantConnect.Messages.IndicatorDataPoint.UnsupportedMethod Pages: 1 -->
<svg width="388pt" height="88pt"
 viewBox="0.00 0.00 388.00 88.00" xmlns="http://www.w3.org/2000/svg" xmlns:xlink="http://www.w3.org/1999/xlink">
<g id="graph0" class="graph" transform="scale(1 1) rotate(0) translate(4 84)">
<title>QuantConnect.Messages.IndicatorDataPoint.UnsupportedMethod</title>
<polygon fill="white" stroke="transparent" points="-4,4 -4,-84 384,-84 384,4 -4,4"/>
<!-- Node1 -->
<g id="node1" class="node">
<title>Node1</title>
<g id="a_node1"><a xlink:title="Returns a string message saying the given method cannot be called on this type">
<polygon fill="#bfbfbf" stroke="black" points="197,-24.5 197,-54.5 380,-54.5 380,-24.5 197,-24.5"/>
<text text-anchor="start" x="205" y="-42.5" font-family="Helvetica,sans-Serif" font-size="10.00">QuantConnect.Messages.Indicator</text>
<text text-anchor="middle" x="288.5" y="-31.5" font-family="Helvetica,sans-Serif" font-size="10.00">DataPoint.UnsupportedMethod</text>
</a>
</g>
</g>
<!-- Node2 -->
<g id="node2" class="node">
<title>Node2</title>
<g id="a_node2"><a xlink:href="classQuantConnect_1_1Indicators_1_1IndicatorDataPoint.html#a17014ed9c51d979a3b88fe0342e2e601" target="_top" xlink:title="This function is purposefully not implemented.">
<polygon fill="white" stroke="black" points="0,-49.5 0,-79.5 161,-79.5 161,-49.5 0,-49.5"/>
<text text-anchor="start" x="8" y="-67.5" font-family="Helvetica,sans-Serif" font-size="10.00">QuantConnect.Indicators.</text>
<text text-anchor="middle" x="80.5" y="-56.5" font-family="Helvetica,sans-Serif" font-size="10.00">IndicatorDataPoint.GetSource</text>
</a>
</g>
</g>
<!-- Node1&#45;&gt;Node2 -->
<g id="edge1" class="edge">
<title>Node1&#45;&gt;Node2</title>
<path fill="none" stroke="midnightblue" d="M186.79,-51.72C178.2,-52.76 169.59,-53.81 161.2,-54.83"/>
<polygon fill="midnightblue" stroke="midnightblue" points="187.34,-55.18 196.85,-50.5 186.5,-48.23 187.34,-55.18"/>
</g>
<!-- Node3 -->
<g id="node3" class="node">
<title>Node3</title>
<g id="a_node3"><a xlink:href="classQuantConnect_1_1Indicators_1_1IndicatorDataPoint.html#a3f7ef587f2e9117dbe0397d7cf71c034" target="_top" xlink:title="This function is purposefully not implemented.">
<polygon fill="white" stroke="black" points="8,-0.5 8,-30.5 153,-30.5 153,-0.5 8,-0.5"/>
<text text-anchor="start" x="16" y="-18.5" font-family="Helvetica,sans-Serif" font-size="10.00">QuantConnect.Indicators.</text>
<text text-anchor="middle" x="80.5" y="-7.5" font-family="Helvetica,sans-Serif" font-size="10.00">IndicatorDataPoint.Reader</text>
</a>
</g>
</g>
<!-- Node1&#45;&gt;Node3 -->
<g id="edge2" class="edge">
<title>Node1&#45;&gt;Node3</title>
<path fill="none" stroke="midnightblue" d="M186.83,-27.77C175.4,-26.44 163.94,-25.1 153,-23.83"/>
<polygon fill="midnightblue" stroke="midnightblue" points="186.51,-31.26 196.85,-28.94 187.32,-24.3 186.51,-31.26"/>
</g>
</g>
</svg>
