<?xml version="1.0" encoding="UTF-8" standalone="no"?>
<!DOCTYPE svg PUBLIC "-//W3C//DTD SVG 1.1//EN"
 "http://www.w3.org/Graphics/SVG/1.1/DTD/svg11.dtd">
<!-- Generated by graphviz version 2.43.0 (0)
 -->
<!-- Title: QuantConnect.Python.BrokerageMessageHandlerPythonWrapper.HandleMessage Pages: 1 -->
<svg width="453pt" height="50pt"
 viewBox="0.00 0.00 453.00 50.00" xmlns="http://www.w3.org/2000/svg" xmlns:xlink="http://www.w3.org/1999/xlink">
<g id="graph0" class="graph" transform="scale(1 1) rotate(0) translate(4 46)">
<title>QuantConnect.Python.BrokerageMessageHandlerPythonWrapper.HandleMessage</title>
<polygon fill="white" stroke="transparent" points="-4,4 -4,-46 449,-46 449,4 -4,4"/>
<!-- Node1 -->
<g id="node1" class="node">
<title>Node1</title>
<g id="a_node1"><a xlink:title="Handles the message">
<polygon fill="#bfbfbf" stroke="black" points="0,-0.5 0,-41.5 210,-41.5 210,-0.5 0,-0.5"/>
<text text-anchor="start" x="8" y="-29.5" font-family="Helvetica,sans-Serif" font-size="10.00">QuantConnect.Python.Brokerage</text>
<text text-anchor="start" x="8" y="-18.5" font-family="Helvetica,sans-Serif" font-size="10.00">MessageHandlerPythonWrapper.Handle</text>
<text text-anchor="middle" x="105" y="-7.5" font-family="Helvetica,sans-Serif" font-size="10.00">Message</text>
</a>
</g>
</g>
<!-- Node2 -->
<g id="node2" class="node">
<title>Node2</title>
<g id="a_node2"><a xlink:href="classQuantConnect_1_1Python_1_1BasePythonWrapper.html#a05fa6adc417fbc2930f9bb95c91af17a" target="_top" xlink:title="Invokes the specified method with the specified arguments">
<polygon fill="white" stroke="black" points="246,-0.5 246,-41.5 445,-41.5 445,-0.5 246,-0.5"/>
<text text-anchor="start" x="254" y="-29.5" font-family="Helvetica,sans-Serif" font-size="10.00">QuantConnect.Python.Base</text>
<text text-anchor="start" x="254" y="-18.5" font-family="Helvetica,sans-Serif" font-size="10.00">PythonWrapper&lt; IBrokerageMessage</text>
<text text-anchor="middle" x="345.5" y="-7.5" font-family="Helvetica,sans-Serif" font-size="10.00">Handler &gt;::InvokeMethod</text>
</a>
</g>
</g>
<!-- Node1&#45;&gt;Node2 -->
<g id="edge1" class="edge">
<title>Node1&#45;&gt;Node2</title>
<path fill="none" stroke="midnightblue" d="M210.26,-21C218.64,-21 227.12,-21 235.52,-21"/>
<polygon fill="midnightblue" stroke="midnightblue" points="235.73,-24.5 245.73,-21 235.73,-17.5 235.73,-24.5"/>
</g>
</g>
</svg>
