<?xml version="1.0" encoding="UTF-8" standalone="no"?>
<!DOCTYPE svg PUBLIC "-//W3C//DTD SVG 1.1//EN"
 "http://www.w3.org/Graphics/SVG/1.1/DTD/svg11.dtd">
<!-- Generated by graphviz version 2.43.0 (0)
 -->
<!-- Title: QuantConnect.Securities.Option.OptionStrategies.PutBackspread Pages: 1 -->
<svg width="415pt" height="50pt"
 viewBox="0.00 0.00 415.00 50.00" xmlns="http://www.w3.org/2000/svg" xmlns:xlink="http://www.w3.org/1999/xlink">
<g id="graph0" class="graph" transform="scale(1 1) rotate(0) translate(4 46)">
<title>QuantConnect.Securities.Option.OptionStrategies.PutBackspread</title>
<polygon fill="white" stroke="transparent" points="-4,4 -4,-46 411,-46 411,4 -4,4"/>
<!-- Node1 -->
<g id="node1" class="node">
<title>Node1</title>
<g id="a_node1"><a xlink:title="Method creates new Long Put Backspread strategy, that consists of two puts with the same expiration b...">
<polygon fill="#bfbfbf" stroke="black" points="198,-6 198,-36 407,-36 407,-6 198,-6"/>
<text text-anchor="start" x="206" y="-24" font-family="Helvetica,sans-Serif" font-size="10.00">QuantConnect.Securities.</text>
<text text-anchor="middle" x="302.5" y="-13" font-family="Helvetica,sans-Serif" font-size="10.00">Option.OptionStrategies.PutBackspread</text>
</a>
</g>
</g>
<!-- Node2 -->
<g id="node2" class="node">
<title>Node2</title>
<g id="a_node2"><a xlink:href="classQuantConnect_1_1Securities_1_1Option_1_1OptionStrategies.html#a2d64535f1bb030be3593ce790f4920e5" target="_top" xlink:title="Method creates new Short Put Backspread strategy, that consists of two puts with the same expiration ...">
<polygon fill="white" stroke="black" points="0,-0.5 0,-41.5 162,-41.5 162,-0.5 0,-0.5"/>
<text text-anchor="start" x="8" y="-29.5" font-family="Helvetica,sans-Serif" font-size="10.00">QuantConnect.Securities.</text>
<text text-anchor="start" x="8" y="-18.5" font-family="Helvetica,sans-Serif" font-size="10.00">Option.OptionStrategies.Short</text>
<text text-anchor="middle" x="81" y="-7.5" font-family="Helvetica,sans-Serif" font-size="10.00">PutBackspread</text>
</a>
</g>
</g>
<!-- Node1&#45;&gt;Node2 -->
<g id="edge1" class="edge">
<title>Node1&#45;&gt;Node2</title>
<path fill="none" stroke="midnightblue" d="M187.73,-21C179.11,-21 170.52,-21 162.17,-21"/>
<polygon fill="midnightblue" stroke="midnightblue" points="187.86,-24.5 197.86,-21 187.86,-17.5 187.86,-24.5"/>
</g>
</g>
</svg>
