<?xml version="1.0" encoding="UTF-8" standalone="no"?>
<!DOCTYPE svg PUBLIC "-//W3C//DTD SVG 1.1//EN"
 "http://www.w3.org/Graphics/SVG/1.1/DTD/svg11.dtd">
<!-- Generated by graphviz version 2.43.0 (0)
 -->
<!-- Title: QuantConnect.Time.GetStartTimeForTradeBars Pages: 1 -->
<svg width="853pt" height="149pt"
 viewBox="0.00 0.00 853.00 148.50" xmlns="http://www.w3.org/2000/svg" xmlns:xlink="http://www.w3.org/1999/xlink">
<g id="graph0" class="graph" transform="scale(1 1) rotate(0) translate(4 144.5)">
<title>QuantConnect.Time.GetStartTimeForTradeBars</title>
<polygon fill="white" stroke="transparent" points="-4,4 -4,-144.5 849,-144.5 849,4 -4,4"/>
<!-- Node1 -->
<g id="node1" class="node">
<title>Node1</title>
<g id="a_node1"><a xlink:title="Determines the start time required to produce the requested number of bars and the given size">
<polygon fill="#bfbfbf" stroke="black" points="0,-49.5 0,-79.5 157,-79.5 157,-49.5 0,-49.5"/>
<text text-anchor="start" x="8" y="-67.5" font-family="Helvetica,sans-Serif" font-size="10.00">QuantConnect.Time.GetStart</text>
<text text-anchor="middle" x="78.5" y="-56.5" font-family="Helvetica,sans-Serif" font-size="10.00">TimeForTradeBars</text>
</a>
</g>
</g>
<!-- Node2 -->
<g id="node2" class="node">
<title>Node2</title>
<g id="a_node2"><a xlink:href="classQuantConnect_1_1Securities_1_1SecurityExchangeHours.html#ae4d431df8172a13151fbc6dcad979492" target="_top" xlink:title="Gets the local date time corresponding to the next market close following the specified time">
<polygon fill="white" stroke="black" points="201,-99 201,-140 377,-140 377,-99 201,-99"/>
<text text-anchor="start" x="209" y="-128" font-family="Helvetica,sans-Serif" font-size="10.00">QuantConnect.Securities.</text>
<text text-anchor="start" x="209" y="-117" font-family="Helvetica,sans-Serif" font-size="10.00">SecurityExchangeHours.GetNext</text>
<text text-anchor="middle" x="289" y="-106" font-family="Helvetica,sans-Serif" font-size="10.00">MarketClose</text>
</a>
</g>
</g>
<!-- Node1&#45;&gt;Node2 -->
<g id="edge1" class="edge">
<title>Node1&#45;&gt;Node2</title>
<path fill="none" stroke="midnightblue" d="M136.47,-79.53C156.13,-84.71 178.63,-90.65 200.18,-96.33"/>
<polygon fill="midnightblue" stroke="midnightblue" points="199.43,-99.76 209.99,-98.92 201.22,-92.99 199.43,-99.76"/>
</g>
<!-- Node3 -->
<g id="node3" class="node">
<title>Node3</title>
<g id="a_node3"><a xlink:href="classQuantConnect_1_1Securities_1_1SecurityExchangeHours.html#a9938e951dadf16e7518f648ff9c4a040" target="_top" xlink:title="Determines if the exchange will be open on the date specified by the local date time">
<polygon fill="white" stroke="black" points="193,-49.5 193,-79.5 385,-79.5 385,-49.5 193,-49.5"/>
<text text-anchor="start" x="201" y="-67.5" font-family="Helvetica,sans-Serif" font-size="10.00">QuantConnect.Securities.</text>
<text text-anchor="middle" x="289" y="-56.5" font-family="Helvetica,sans-Serif" font-size="10.00">SecurityExchangeHours.IsDateOpen</text>
</a>
</g>
</g>
<!-- Node1&#45;&gt;Node3 -->
<g id="edge2" class="edge">
<title>Node1&#45;&gt;Node3</title>
<path fill="none" stroke="midnightblue" d="M157.14,-64.5C165.46,-64.5 174.02,-64.5 182.6,-64.5"/>
<polygon fill="midnightblue" stroke="midnightblue" points="182.65,-68 192.65,-64.5 182.65,-61 182.65,-68"/>
</g>
<!-- Node6 -->
<g id="node6" class="node">
<title>Node6</title>
<g id="a_node6"><a xlink:href="classQuantConnect_1_1Securities_1_1SecurityExchangeHours.html#af2deedeacdcb6bbe40f4874002cdbac3" target="_top" xlink:title="Determines if the exchange is open at the specified local date time.">
<polygon fill="white" stroke="black" points="204.5,-0.5 204.5,-30.5 373.5,-30.5 373.5,-0.5 204.5,-0.5"/>
<text text-anchor="start" x="212.5" y="-18.5" font-family="Helvetica,sans-Serif" font-size="10.00">QuantConnect.Securities.</text>
<text text-anchor="middle" x="289" y="-7.5" font-family="Helvetica,sans-Serif" font-size="10.00">SecurityExchangeHours.IsOpen</text>
</a>
</g>
</g>
<!-- Node1&#45;&gt;Node6 -->
<g id="edge5" class="edge">
<title>Node1&#45;&gt;Node6</title>
<path fill="none" stroke="midnightblue" d="M143.47,-49.47C165.89,-44.2 191.24,-38.24 214.38,-32.8"/>
<polygon fill="midnightblue" stroke="midnightblue" points="215.21,-36.2 224.15,-30.51 213.61,-29.39 215.21,-36.2"/>
</g>
<!-- Node4 -->
<g id="node4" class="node">
<title>Node4</title>
<g id="a_node4"><a xlink:href="classQuantConnect_1_1Securities_1_1SecurityExchangeHours.html#a106e2dd187ab76452e14ac6a28f929aa" target="_top" xlink:title="Helper to access the market hours field based on the day of week">
<polygon fill="white" stroke="black" points="421,-49.5 421,-79.5 636,-79.5 636,-49.5 421,-49.5"/>
<text text-anchor="start" x="429" y="-67.5" font-family="Helvetica,sans-Serif" font-size="10.00">QuantConnect.Securities.</text>
<text text-anchor="middle" x="528.5" y="-56.5" font-family="Helvetica,sans-Serif" font-size="10.00">SecurityExchangeHours.GetMarketHours</text>
</a>
</g>
</g>
<!-- Node3&#45;&gt;Node4 -->
<g id="edge3" class="edge">
<title>Node3&#45;&gt;Node4</title>
<path fill="none" stroke="midnightblue" d="M385.23,-64.5C393.67,-64.5 402.28,-64.5 410.87,-64.5"/>
<polygon fill="midnightblue" stroke="midnightblue" points="410.94,-68 420.94,-64.5 410.94,-61 410.94,-68"/>
</g>
<!-- Node5 -->
<g id="node5" class="node">
<title>Node5</title>
<g id="a_node5"><a xlink:href="classQuantConnect_1_1Securities_1_1LocalMarketHours.html#a1e9178f81413c7d1f032a003d74acecf" target="_top" xlink:title="Gets a LocalMarketHours instance that is always closed">
<polygon fill="white" stroke="black" points="672,-49.5 672,-79.5 845,-79.5 845,-49.5 672,-49.5"/>
<text text-anchor="start" x="680" y="-67.5" font-family="Helvetica,sans-Serif" font-size="10.00">QuantConnect.Securities.</text>
<text text-anchor="middle" x="758.5" y="-56.5" font-family="Helvetica,sans-Serif" font-size="10.00">LocalMarketHours.ClosedAllDay</text>
</a>
</g>
</g>
<!-- Node4&#45;&gt;Node5 -->
<g id="edge4" class="edge">
<title>Node4&#45;&gt;Node5</title>
<path fill="none" stroke="midnightblue" d="M636.16,-64.5C644.64,-64.5 653.18,-64.5 661.59,-64.5"/>
<polygon fill="midnightblue" stroke="midnightblue" points="661.77,-68 671.77,-64.5 661.77,-61 661.77,-68"/>
</g>
<!-- Node6&#45;&gt;Node4 -->
<g id="edge6" class="edge">
<title>Node6&#45;&gt;Node4</title>
<path fill="none" stroke="midnightblue" d="M362.87,-30.53C388.75,-35.87 418.05,-41.92 444.7,-47.42"/>
<polygon fill="midnightblue" stroke="midnightblue" points="444.26,-50.9 454.77,-49.49 445.68,-44.05 444.26,-50.9"/>
</g>
<!-- Node7 -->
<g id="node7" class="node">
<title>Node7</title>
<g id="a_node7"><a xlink:href="classQuantConnect_1_1Securities_1_1LocalMarketHours.html#a97e5d374a28d55f3ebee72c328a0810f" target="_top" xlink:title="Determines if the exchange is open at the specified time">
<polygon fill="white" stroke="black" points="458,-0.5 458,-30.5 599,-30.5 599,-0.5 458,-0.5"/>
<text text-anchor="start" x="466" y="-18.5" font-family="Helvetica,sans-Serif" font-size="10.00">QuantConnect.Securities.</text>
<text text-anchor="middle" x="528.5" y="-7.5" font-family="Helvetica,sans-Serif" font-size="10.00">LocalMarketHours.IsOpen</text>
</a>
</g>
</g>
<!-- Node6&#45;&gt;Node7 -->
<g id="edge7" class="edge">
<title>Node6&#45;&gt;Node7</title>
<path fill="none" stroke="midnightblue" d="M373.73,-15.5C397.81,-15.5 423.99,-15.5 447.81,-15.5"/>
<polygon fill="midnightblue" stroke="midnightblue" points="447.86,-19 457.86,-15.5 447.86,-12 447.86,-19"/>
</g>
</g>
</svg>
