<?xml version="1.0" encoding="UTF-8" standalone="no"?>
<!DOCTYPE svg PUBLIC "-//W3C//DTD SVG 1.1//EN"
 "http://www.w3.org/Graphics/SVG/1.1/DTD/svg11.dtd">
<!-- Generated by graphviz version 2.43.0 (0)
 -->
<!-- Title: QuantConnect.Compression.UnzipToFolder Pages: 1 -->
<svg width="354pt" height="88pt"
 viewBox="0.00 0.00 354.00 88.00" xmlns="http://www.w3.org/2000/svg" xmlns:xlink="http://www.w3.org/1999/xlink">
<g id="graph0" class="graph" transform="scale(1 1) rotate(0) translate(4 84)">
<title>QuantConnect.Compression.UnzipToFolder</title>
<polygon fill="white" stroke="transparent" points="-4,4 -4,-84 350,-84 350,4 -4,4"/>
<!-- Node1 -->
<g id="node1" class="node">
<title>Node1</title>
<g id="a_node1"><a xlink:title="Unzip the given byte array and return the created file names.">
<polygon fill="#bfbfbf" stroke="black" points="191,-24.5 191,-54.5 346,-54.5 346,-24.5 191,-24.5"/>
<text text-anchor="start" x="199" y="-42.5" font-family="Helvetica,sans-Serif" font-size="10.00">QuantConnect.Compression.</text>
<text text-anchor="middle" x="268.5" y="-31.5" font-family="Helvetica,sans-Serif" font-size="10.00">UnzipToFolder</text>
</a>
</g>
</g>
<!-- Node2 -->
<g id="node2" class="node">
<title>Node2</title>
<g id="a_node2"><a xlink:href="classQuantConnect_1_1Api_1_1Api.html#a1b18264dc686c3b32cd089bb3cdaf731" target="_top" xlink:title="Download the object store files associated with the given organization ID and key">
<polygon fill="white" stroke="black" points="6,-49.5 6,-79.5 149,-79.5 149,-49.5 6,-49.5"/>
<text text-anchor="start" x="14" y="-67.5" font-family="Helvetica,sans-Serif" font-size="10.00">QuantConnect.Api.Api.Get</text>
<text text-anchor="middle" x="77.5" y="-56.5" font-family="Helvetica,sans-Serif" font-size="10.00">ObjectStore</text>
</a>
</g>
</g>
<!-- Node1&#45;&gt;Node2 -->
<g id="edge1" class="edge">
<title>Node1&#45;&gt;Node2</title>
<path fill="none" stroke="midnightblue" d="M180.79,-50.97C170.18,-52.37 159.44,-53.79 149.11,-55.16"/>
<polygon fill="midnightblue" stroke="midnightblue" points="181.44,-54.41 190.9,-49.63 180.53,-47.47 181.44,-54.41"/>
</g>
<!-- Node3 -->
<g id="node3" class="node">
<title>Node3</title>
<g id="a_node3"><a xlink:href="classQuantConnect_1_1Compression.html#aa0445b795ad8317fd28ce7e18cb95ddf" target="_top" xlink:title="Unzip a local file and return the created file names">
<polygon fill="white" stroke="black" points="0,-0.5 0,-30.5 155,-30.5 155,-0.5 0,-0.5"/>
<text text-anchor="start" x="8" y="-18.5" font-family="Helvetica,sans-Serif" font-size="10.00">QuantConnect.Compression.</text>
<text text-anchor="middle" x="77.5" y="-7.5" font-family="Helvetica,sans-Serif" font-size="10.00">UnzipToFolder</text>
</a>
</g>
</g>
<!-- Node1&#45;&gt;Node3 -->
<g id="edge2" class="edge">
<title>Node1&#45;&gt;Node3</title>
<path fill="none" stroke="midnightblue" d="M180.9,-28.5C172.33,-27.41 163.67,-26.32 155.21,-25.24"/>
<polygon fill="midnightblue" stroke="midnightblue" points="180.54,-31.99 190.9,-29.77 181.42,-25.04 180.54,-31.99"/>
</g>
</g>
</svg>
