<?xml version="1.0" encoding="UTF-8" standalone="no"?>
<!DOCTYPE svg PUBLIC "-//W3C//DTD SVG 1.1//EN"
 "http://www.w3.org/Graphics/SVG/1.1/DTD/svg11.dtd">
<!-- Generated by graphviz version 2.43.0 (0)
 -->
<!-- Title: QuantConnect.Python.BasePythonWrapper.InvokeMethod Pages: 1 -->
<svg width="397pt" height="100pt"
 viewBox="0.00 0.00 397.00 99.50" xmlns="http://www.w3.org/2000/svg" xmlns:xlink="http://www.w3.org/1999/xlink">
<g id="graph0" class="graph" transform="scale(1 1) rotate(0) translate(4 95.5)">
<title>QuantConnect.Python.BasePythonWrapper.InvokeMethod</title>
<polygon fill="white" stroke="transparent" points="-4,4 -4,-95.5 393,-95.5 393,4 -4,4"/>
<!-- Node1 -->
<g id="node1" class="node">
<title>Node1</title>
<g id="a_node1"><a xlink:title="Invokes the specified method with the specified arguments">
<polygon fill="#bfbfbf" stroke="black" points="226,-33 226,-63 389,-63 389,-33 226,-33"/>
<text text-anchor="start" x="234" y="-51" font-family="Helvetica,sans-Serif" font-size="10.00">QuantConnect.Python.Base</text>
<text text-anchor="middle" x="307.5" y="-40" font-family="Helvetica,sans-Serif" font-size="10.00">PythonWrapper.InvokeMethod</text>
</a>
</g>
</g>
<!-- Node2 -->
<g id="node2" class="node">
<title>Node2</title>
<g id="a_node2"><a xlink:href="classQuantConnect_1_1Indicators_1_1PythonIndicator.html#a06aca444f3f477a92d080e4955dda742" target="_top" xlink:title="Computes the next value of this indicator from the given state">
<polygon fill="white" stroke="black" points="0,-61 0,-91 190,-91 190,-61 0,-61"/>
<text text-anchor="start" x="8" y="-79" font-family="Helvetica,sans-Serif" font-size="10.00">QuantConnect.Indicators.</text>
<text text-anchor="middle" x="95" y="-68" font-family="Helvetica,sans-Serif" font-size="10.00">PythonIndicator.ComputeNextValue</text>
</a>
</g>
</g>
<!-- Node1&#45;&gt;Node2 -->
<g id="edge1" class="edge">
<title>Node1&#45;&gt;Node2</title>
<path fill="none" stroke="midnightblue" d="M215.57,-60.09C207.19,-61.21 198.69,-62.34 190.28,-63.46"/>
<polygon fill="midnightblue" stroke="midnightblue" points="216.27,-63.53 225.72,-58.75 215.34,-56.59 216.27,-63.53"/>
</g>
<!-- Node3 -->
<g id="node3" class="node">
<title>Node3</title>
<g id="a_node3"><a xlink:href="classQuantConnect_1_1Python_1_1BasePythonWrapper.html#ac06825cb5b651595762dc276f712c18b" target="_top" xlink:title="Invokes the specified method with the specified arguments without returning a value">
<polygon fill="white" stroke="black" points="5.5,-0.5 5.5,-41.5 184.5,-41.5 184.5,-0.5 5.5,-0.5"/>
<text text-anchor="start" x="13.5" y="-29.5" font-family="Helvetica,sans-Serif" font-size="10.00">QuantConnect.Python.Base</text>
<text text-anchor="start" x="13.5" y="-18.5" font-family="Helvetica,sans-Serif" font-size="10.00">PythonWrapper&lt; IOptionExercise</text>
<text text-anchor="middle" x="95" y="-7.5" font-family="Helvetica,sans-Serif" font-size="10.00">Model &gt;::InvokeVoidMethod</text>
</a>
</g>
</g>
<!-- Node1&#45;&gt;Node3 -->
<g id="edge2" class="edge">
<title>Node1&#45;&gt;Node3</title>
<path fill="none" stroke="midnightblue" d="M215.54,-36.33C205.29,-35.02 194.85,-33.68 184.62,-32.37"/>
<polygon fill="midnightblue" stroke="midnightblue" points="215.35,-39.84 225.72,-37.64 216.24,-32.89 215.35,-39.84"/>
</g>
</g>
</svg>
