<?xml version="1.0" encoding="UTF-8" standalone="no"?>
<!DOCTYPE svg PUBLIC "-//W3C//DTD SVG 1.1//EN"
 "http://www.w3.org/Graphics/SVG/1.1/DTD/svg11.dtd">
<!-- Generated by graphviz version 2.43.0 (0)
 -->
<!-- Title: QuantConnect.Securities.SecurityTransactionManager.AddOrder Pages: 1 -->
<svg width="860pt" height="247pt"
 viewBox="0.00 0.00 860.00 247.00" xmlns="http://www.w3.org/2000/svg" xmlns:xlink="http://www.w3.org/1999/xlink">
<g id="graph0" class="graph" transform="scale(1 1) rotate(0) translate(4 243)">
<title>QuantConnect.Securities.SecurityTransactionManager.AddOrder</title>
<polygon fill="white" stroke="transparent" points="-4,4 -4,-243 856,-243 856,4 -4,4"/>
<!-- Node1 -->
<g id="node1" class="node">
<title>Node1</title>
<g id="a_node1"><a xlink:title="Add an order to collection and return the unique order id or negative if an error.">
<polygon fill="#bfbfbf" stroke="black" points="0,-125.5 0,-155.5 203,-155.5 203,-125.5 0,-125.5"/>
<text text-anchor="start" x="8" y="-143.5" font-family="Helvetica,sans-Serif" font-size="10.00">QuantConnect.Securities.</text>
<text text-anchor="middle" x="101.5" y="-132.5" font-family="Helvetica,sans-Serif" font-size="10.00">SecurityTransactionManager.AddOrder</text>
</a>
</g>
</g>
<!-- Node2 -->
<g id="node2" class="node">
<title>Node2</title>
<g id="a_node2"><a xlink:href="classQuantConnect_1_1Securities_1_1SecurityTransactionManager.html#a136cdc31b644e087e48f4f986e8c064b" target="_top" xlink:title="Processes the order request">
<polygon fill="white" stroke="black" points="239,-120 239,-161 433,-161 433,-120 239,-120"/>
<text text-anchor="start" x="247" y="-149" font-family="Helvetica,sans-Serif" font-size="10.00">QuantConnect.Securities.</text>
<text text-anchor="start" x="247" y="-138" font-family="Helvetica,sans-Serif" font-size="10.00">SecurityTransactionManager.Process</text>
<text text-anchor="middle" x="336" y="-127" font-family="Helvetica,sans-Serif" font-size="10.00">Request</text>
</a>
</g>
</g>
<!-- Node1&#45;&gt;Node2 -->
<g id="edge1" class="edge">
<title>Node1&#45;&gt;Node2</title>
<path fill="none" stroke="midnightblue" d="M203.13,-140.5C211.68,-140.5 220.35,-140.5 228.95,-140.5"/>
<polygon fill="midnightblue" stroke="midnightblue" points="229,-144 239,-140.5 229,-137 229,-144"/>
</g>
<!-- Node3 -->
<g id="node3" class="node">
<title>Node3</title>
<g id="a_node3"><a xlink:href="interfaceQuantConnect_1_1Securities_1_1IOrderProcessor.html#a153e85c4defb70ea096de8e35c340f4e" target="_top" xlink:title="Adds the specified order to be processed">
<polygon fill="white" stroke="black" points="485.5,-208.5 485.5,-238.5 625.5,-238.5 625.5,-208.5 485.5,-208.5"/>
<text text-anchor="start" x="493.5" y="-226.5" font-family="Helvetica,sans-Serif" font-size="10.00">QuantConnect.Securities.</text>
<text text-anchor="middle" x="555.5" y="-215.5" font-family="Helvetica,sans-Serif" font-size="10.00">IOrderProcessor.Process</text>
</a>
</g>
</g>
<!-- Node2&#45;&gt;Node3 -->
<g id="edge2" class="edge">
<title>Node2&#45;&gt;Node3</title>
<path fill="none" stroke="midnightblue" d="M379.82,-161C405.38,-172.81 438.66,-187.45 469,-198.5 475.44,-200.85 482.22,-203.13 489.02,-205.3"/>
<polygon fill="midnightblue" stroke="midnightblue" points="488.38,-208.77 498.97,-208.4 490.46,-202.08 488.38,-208.77"/>
</g>
<!-- Node4 -->
<g id="node4" class="node">
<title>Node4</title>
<g id="a_node4"><a xlink:href="classQuantConnect_1_1Securities_1_1SecurityTransactionManager.html#acdba6b5b86c1de4968b5b21752292dd9" target="_top" xlink:title="Sets the order id for the specified submit request">
<polygon fill="white" stroke="black" points="469,-148 469,-189 642,-189 642,-148 469,-148"/>
<text text-anchor="start" x="477" y="-177" font-family="Helvetica,sans-Serif" font-size="10.00">QuantConnect.Securities.</text>
<text text-anchor="start" x="477" y="-166" font-family="Helvetica,sans-Serif" font-size="10.00">SecurityTransactionManager.Set</text>
<text text-anchor="middle" x="555.5" y="-155" font-family="Helvetica,sans-Serif" font-size="10.00">OrderId</text>
</a>
</g>
</g>
<!-- Node2&#45;&gt;Node4 -->
<g id="edge3" class="edge">
<title>Node2&#45;&gt;Node4</title>
<path fill="none" stroke="midnightblue" d="M433.03,-152.86C441.62,-153.97 450.32,-155.09 458.9,-156.19"/>
<polygon fill="midnightblue" stroke="midnightblue" points="458.55,-159.68 468.91,-157.48 459.44,-152.73 458.55,-159.68"/>
</g>
<!-- Node6 -->
<g id="node6" class="node">
<title>Node6</title>
<g id="a_node6"><a xlink:href="classQuantConnect_1_1Orders_1_1OrderResponse.html#aee85b2e31d5c1887ec0cfa15568777c9" target="_top" xlink:title="Returns a string that represents the current object.">
<polygon fill="white" stroke="black" points="480,-98.5 480,-128.5 631,-128.5 631,-98.5 480,-98.5"/>
<text text-anchor="start" x="488" y="-116.5" font-family="Helvetica,sans-Serif" font-size="10.00">QuantConnect.Orders.Order</text>
<text text-anchor="middle" x="555.5" y="-105.5" font-family="Helvetica,sans-Serif" font-size="10.00">Response.ToString</text>
</a>
</g>
</g>
<!-- Node2&#45;&gt;Node6 -->
<g id="edge5" class="edge">
<title>Node2&#45;&gt;Node6</title>
<path fill="none" stroke="midnightblue" d="M433.03,-128.58C445.3,-127.06 457.79,-125.51 469.86,-124.01"/>
<polygon fill="midnightblue" stroke="midnightblue" points="470.39,-127.47 479.89,-122.76 469.53,-120.52 470.39,-127.47"/>
</g>
<!-- Node8 -->
<g id="node8" class="node">
<title>Node8</title>
<g id="a_node8"><a xlink:href="classQuantConnect_1_1Orders_1_1OrderResponse.html#af8bdc5b0fd7d8e5929a659099d1d939f" target="_top" xlink:title="Helper method to create an error response due to algorithm still in warmup mode">
<polygon fill="white" stroke="black" points="480,-49.5 480,-79.5 631,-79.5 631,-49.5 480,-49.5"/>
<text text-anchor="start" x="488" y="-67.5" font-family="Helvetica,sans-Serif" font-size="10.00">QuantConnect.Orders.Order</text>
<text text-anchor="middle" x="555.5" y="-56.5" font-family="Helvetica,sans-Serif" font-size="10.00">Response.WarmingUp</text>
</a>
</g>
</g>
<!-- Node2&#45;&gt;Node8 -->
<g id="edge7" class="edge">
<title>Node2&#45;&gt;Node8</title>
<path fill="none" stroke="midnightblue" d="M387.41,-119.88C411.86,-110.17 441.78,-98.72 469,-89.5 475.95,-87.15 483.26,-84.81 490.56,-82.56"/>
<polygon fill="midnightblue" stroke="midnightblue" points="491.91,-85.8 500.46,-79.55 489.88,-79.1 491.91,-85.8"/>
</g>
<!-- Node5 -->
<g id="node5" class="node">
<title>Node5</title>
<g id="a_node5"><a xlink:href="classQuantConnect_1_1Securities_1_1SecurityTransactionManager.html#a470623a731aa5e8e241518af157c9ffe" target="_top" xlink:title="Get a new order id, and increment the internal counter.">
<polygon fill="white" stroke="black" points="678,-148 678,-189 852,-189 852,-148 678,-148"/>
<text text-anchor="start" x="686" y="-177" font-family="Helvetica,sans-Serif" font-size="10.00">QuantConnect.Securities.</text>
<text text-anchor="start" x="686" y="-166" font-family="Helvetica,sans-Serif" font-size="10.00">SecurityTransactionManager.Get</text>
<text text-anchor="middle" x="765" y="-155" font-family="Helvetica,sans-Serif" font-size="10.00">IncrementOrderId</text>
</a>
</g>
</g>
<!-- Node4&#45;&gt;Node5 -->
<g id="edge4" class="edge">
<title>Node4&#45;&gt;Node5</title>
<path fill="none" stroke="midnightblue" d="M642.1,-168.5C650.6,-168.5 659.27,-168.5 667.88,-168.5"/>
<polygon fill="midnightblue" stroke="midnightblue" points="667.93,-172 677.93,-168.5 667.93,-165 667.93,-172"/>
</g>
<!-- Node7 -->
<g id="node7" class="node">
<title>Node7</title>
<g id="a_node7"><a xlink:href="classQuantConnect_1_1Messages_1_1OrderResponse.html#aa0c4af569013ec9ebaed20d28708ed0d" target="_top" xlink:title="Parses the given order response into a string message containing basic information about it">
<polygon fill="white" stroke="black" points="681.5,-98.5 681.5,-128.5 848.5,-128.5 848.5,-98.5 681.5,-98.5"/>
<text text-anchor="start" x="689.5" y="-116.5" font-family="Helvetica,sans-Serif" font-size="10.00">QuantConnect.Messages.Order</text>
<text text-anchor="middle" x="765" y="-105.5" font-family="Helvetica,sans-Serif" font-size="10.00">Response.ToString</text>
</a>
</g>
</g>
<!-- Node6&#45;&gt;Node7 -->
<g id="edge6" class="edge">
<title>Node6&#45;&gt;Node7</title>
<path fill="none" stroke="midnightblue" d="M631.12,-113.5C644.08,-113.5 657.7,-113.5 671.08,-113.5"/>
<polygon fill="midnightblue" stroke="midnightblue" points="671.25,-117 681.25,-113.5 671.25,-110 671.25,-117"/>
</g>
<!-- Node9 -->
<g id="node9" class="node">
<title>Node9</title>
<g id="a_node9"><a xlink:href="classQuantConnect_1_1Orders_1_1OrderResponse.html#a14ded2753785926becc5e7f8e5a02a09" target="_top" xlink:title="Helper method to create an error response from a request">
<polygon fill="white" stroke="black" points="689.5,-49.5 689.5,-79.5 840.5,-79.5 840.5,-49.5 689.5,-49.5"/>
<text text-anchor="start" x="697.5" y="-67.5" font-family="Helvetica,sans-Serif" font-size="10.00">QuantConnect.Orders.Order</text>
<text text-anchor="middle" x="765" y="-56.5" font-family="Helvetica,sans-Serif" font-size="10.00">Response.Error</text>
</a>
</g>
</g>
<!-- Node8&#45;&gt;Node9 -->
<g id="edge8" class="edge">
<title>Node8&#45;&gt;Node9</title>
<path fill="none" stroke="midnightblue" d="M631.12,-64.5C646.65,-64.5 663.14,-64.5 679.02,-64.5"/>
<polygon fill="midnightblue" stroke="midnightblue" points="679.35,-68 689.35,-64.5 679.35,-61 679.35,-68"/>
</g>
<!-- Node10 -->
<g id="node10" class="node">
<title>Node10</title>
<g id="a_node10"><a xlink:href="classQuantConnect_1_1Messages_1_1OrderResponse.html#adf822bd611fdfdf041194a195b2d2150" target="_top" xlink:title="Returns a string message saying the given order request operation is not allowed in Initialize or dur...">
<polygon fill="white" stroke="black" points="681.5,-0.5 681.5,-30.5 848.5,-30.5 848.5,-0.5 681.5,-0.5"/>
<text text-anchor="start" x="689.5" y="-18.5" font-family="Helvetica,sans-Serif" font-size="10.00">QuantConnect.Messages.Order</text>
<text text-anchor="middle" x="765" y="-7.5" font-family="Helvetica,sans-Serif" font-size="10.00">Response.WarmingUp</text>
</a>
</g>
</g>
<!-- Node8&#45;&gt;Node10 -->
<g id="edge9" class="edge">
<title>Node8&#45;&gt;Node10</title>
<path fill="none" stroke="midnightblue" d="M620.17,-49.47C642.37,-44.22 667.48,-38.29 690.42,-32.87"/>
<polygon fill="midnightblue" stroke="midnightblue" points="691.53,-36.21 700.45,-30.51 689.92,-29.4 691.53,-36.21"/>
</g>
</g>
</svg>
