<?xml version="1.0" encoding="UTF-8" standalone="no"?>
<!DOCTYPE svg PUBLIC "-//W3C//DTD SVG 1.1//EN"
 "http://www.w3.org/Graphics/SVG/1.1/DTD/svg11.dtd">
<!-- Generated by graphviz version 2.43.0 (0)
 -->
<!-- Title: QuantConnect.Algorithm.QCAlgorithm.OptionChains Pages: 1 -->
<svg width="910pt" height="209pt"
 viewBox="0.00 0.00 910.00 208.50" xmlns="http://www.w3.org/2000/svg" xmlns:xlink="http://www.w3.org/1999/xlink">
<g id="graph0" class="graph" transform="scale(1 1) rotate(0) translate(4 204.5)">
<title>QuantConnect.Algorithm.QCAlgorithm.OptionChains</title>
<polygon fill="white" stroke="transparent" points="-4,4 -4,-204.5 906,-204.5 906,4 -4,4"/>
<!-- Node1 -->
<g id="node1" class="node">
<title>Node1</title>
<g id="a_node1"><a xlink:title="Get the option chains for the specified symbols at the current time (Time)">
<polygon fill="#bfbfbf" stroke="black" points="0,-49.5 0,-79.5 205,-79.5 205,-49.5 0,-49.5"/>
<text text-anchor="start" x="8" y="-67.5" font-family="Helvetica,sans-Serif" font-size="10.00">QuantConnect.Algorithm.QCAlgorithm.</text>
<text text-anchor="middle" x="102.5" y="-56.5" font-family="Helvetica,sans-Serif" font-size="10.00">OptionChains</text>
</a>
</g>
</g>
<!-- Node2 -->
<g id="node2" class="node">
<title>Node2</title>
<g id="a_node2"><a xlink:href="interfaceQuantConnect_1_1Interfaces_1_1IOptionChainProvider.html#ae84aa4fcafd5bd9723724ffd4c8878ee" target="_top" xlink:title="Gets the list of option contracts for a given underlying symbol">
<polygon fill="white" stroke="black" points="257.5,-159 257.5,-200 429.5,-200 429.5,-159 257.5,-159"/>
<text text-anchor="start" x="265.5" y="-188" font-family="Helvetica,sans-Serif" font-size="10.00">QuantConnect.Interfaces.</text>
<text text-anchor="start" x="265.5" y="-177" font-family="Helvetica,sans-Serif" font-size="10.00">IOptionChainProvider.GetOption</text>
<text text-anchor="middle" x="343.5" y="-166" font-family="Helvetica,sans-Serif" font-size="10.00">ContractList</text>
</a>
</g>
</g>
<!-- Node1&#45;&gt;Node2 -->
<g id="edge1" class="edge">
<title>Node1&#45;&gt;Node2</title>
<path fill="none" stroke="midnightblue" d="M123.96,-79.58C150.01,-98.2 196.93,-129.79 241,-149.5 245.65,-151.58 250.48,-153.56 255.41,-155.44"/>
<polygon fill="midnightblue" stroke="midnightblue" points="254.37,-158.79 264.96,-158.93 256.77,-152.21 254.37,-158.79"/>
</g>
<!-- Node3 -->
<g id="node3" class="node">
<title>Node3</title>
<g id="a_node3"><a xlink:href="classQuantConnect_1_1Securities_1_1SymbolPropertiesDatabase.html#a3ea48557a7a885c2c53529f8c4b75598" target="_top" xlink:title="Gets the symbol properties for the specified market/symbol/security&#45;type">
<polygon fill="white" stroke="black" points="258.5,-99 258.5,-140 428.5,-140 428.5,-99 258.5,-99"/>
<text text-anchor="start" x="266.5" y="-128" font-family="Helvetica,sans-Serif" font-size="10.00">QuantConnect.Securities.</text>
<text text-anchor="start" x="266.5" y="-117" font-family="Helvetica,sans-Serif" font-size="10.00">SymbolPropertiesDatabase.Get</text>
<text text-anchor="middle" x="343.5" y="-106" font-family="Helvetica,sans-Serif" font-size="10.00">SymbolProperties</text>
</a>
</g>
</g>
<!-- Node1&#45;&gt;Node3 -->
<g id="edge2" class="edge">
<title>Node1&#45;&gt;Node3</title>
<path fill="none" stroke="midnightblue" d="M168.81,-79.53C193.43,-85.19 221.94,-91.76 248.65,-97.9"/>
<polygon fill="midnightblue" stroke="midnightblue" points="247.88,-101.32 258.41,-100.15 249.45,-94.49 247.88,-101.32"/>
</g>
<!-- Node7 -->
<g id="node7" class="node">
<title>Node7</title>
<g id="a_node7"><a xlink:href="classQuantConnect_1_1Algorithm_1_1QCAlgorithm.html#a446a10e68319fdc3c0b2ed85d80f55f8" target="_top" xlink:title="Get the history for all configured securities over the requested span. This will use the resolution a...">
<polygon fill="white" stroke="black" points="241,-49.5 241,-79.5 446,-79.5 446,-49.5 241,-49.5"/>
<text text-anchor="start" x="249" y="-67.5" font-family="Helvetica,sans-Serif" font-size="10.00">QuantConnect.Algorithm.QCAlgorithm.</text>
<text text-anchor="middle" x="343.5" y="-56.5" font-family="Helvetica,sans-Serif" font-size="10.00">History</text>
</a>
</g>
</g>
<!-- Node1&#45;&gt;Node7 -->
<g id="edge6" class="edge">
<title>Node1&#45;&gt;Node7</title>
<path fill="none" stroke="midnightblue" d="M205.2,-64.5C213.7,-64.5 222.31,-64.5 230.87,-64.5"/>
<polygon fill="midnightblue" stroke="midnightblue" points="230.89,-68 240.89,-64.5 230.89,-61 230.89,-68"/>
</g>
<!-- Node8 -->
<g id="node8" class="node">
<title>Node8</title>
<g id="a_node8"><a xlink:href="classQuantConnect_1_1Algorithm_1_1QCAlgorithm.html#aa259ba2e3bd6c96d4710fff0ccdd24e6" target="_top" xlink:title="Get the option chain for the specified symbol at the current time (Time)">
<polygon fill="white" stroke="black" points="241,-0.5 241,-30.5 446,-30.5 446,-0.5 241,-0.5"/>
<text text-anchor="start" x="249" y="-18.5" font-family="Helvetica,sans-Serif" font-size="10.00">QuantConnect.Algorithm.QCAlgorithm.</text>
<text text-anchor="middle" x="343.5" y="-7.5" font-family="Helvetica,sans-Serif" font-size="10.00">OptionChain</text>
</a>
</g>
</g>
<!-- Node1&#45;&gt;Node8 -->
<g id="edge7" class="edge">
<title>Node1&#45;&gt;Node8</title>
<path fill="none" stroke="midnightblue" d="M150.15,-49.46C173.24,-43.79 202.19,-37.44 230.58,-31.71"/>
<polygon fill="midnightblue" stroke="midnightblue" points="231.46,-35.1 240.58,-29.71 230.09,-28.24 231.46,-35.1"/>
</g>
<!-- Node4 -->
<g id="node4" class="node">
<title>Node4</title>
<g id="a_node4"><a xlink:href="classQuantConnect_1_1Securities_1_1MarketHoursDatabase.html#aa717adb9bb04be931913608ffd5a2733" target="_top" xlink:title="Gets the correct string symbol to use as a database key">
<polygon fill="white" stroke="black" points="482,-126 482,-167 674,-167 674,-126 482,-126"/>
<text text-anchor="start" x="490" y="-155" font-family="Helvetica,sans-Serif" font-size="10.00">QuantConnect.Securities.</text>
<text text-anchor="start" x="490" y="-144" font-family="Helvetica,sans-Serif" font-size="10.00">MarketHoursDatabase.GetDatabase</text>
<text text-anchor="middle" x="578" y="-133" font-family="Helvetica,sans-Serif" font-size="10.00">SymbolKey</text>
</a>
</g>
</g>
<!-- Node3&#45;&gt;Node4 -->
<g id="edge3" class="edge">
<title>Node3&#45;&gt;Node4</title>
<path fill="none" stroke="midnightblue" d="M428.77,-129.29C442.81,-130.92 457.53,-132.63 472.01,-134.31"/>
<polygon fill="midnightblue" stroke="midnightblue" points="471.65,-137.79 481.99,-135.47 472.46,-130.84 471.65,-137.79"/>
</g>
<!-- Node5 -->
<g id="node5" class="node">
<title>Node5</title>
<g id="a_node5"><a xlink:href="classQuantConnect_1_1Securities_1_1SymbolProperties.html#ad148190d1dfce7109d38d3107b7b8fbf" target="_top" xlink:title="Gets a default instance of the SymbolProperties class for the specified quoteCurrency">
<polygon fill="white" stroke="black" points="498.5,-76.5 498.5,-106.5 657.5,-106.5 657.5,-76.5 498.5,-76.5"/>
<text text-anchor="start" x="506.5" y="-94.5" font-family="Helvetica,sans-Serif" font-size="10.00">QuantConnect.Securities.</text>
<text text-anchor="middle" x="578" y="-83.5" font-family="Helvetica,sans-Serif" font-size="10.00">SymbolProperties.GetDefault</text>
</a>
</g>
</g>
<!-- Node3&#45;&gt;Node5 -->
<g id="edge4" class="edge">
<title>Node3&#45;&gt;Node5</title>
<path fill="none" stroke="midnightblue" d="M428.77,-109.35C448.13,-107.02 468.78,-104.53 488.33,-102.18"/>
<polygon fill="midnightblue" stroke="midnightblue" points="488.93,-105.63 498.44,-100.96 488.09,-98.68 488.93,-105.63"/>
</g>
<!-- Node6 -->
<g id="node6" class="node">
<title>Node6</title>
<g id="a_node6"><a xlink:href="classQuantConnect_1_1Securities_1_1SymbolProperties.html#a0f421617bcddd5b08a830689b1e2dcfa" target="_top" xlink:title="Creates an instance of the SymbolProperties class">
<polygon fill="white" stroke="black" points="710,-76.5 710,-106.5 902,-106.5 902,-76.5 710,-76.5"/>
<text text-anchor="start" x="718" y="-94.5" font-family="Helvetica,sans-Serif" font-size="10.00">QuantConnect.Securities.</text>
<text text-anchor="middle" x="806" y="-83.5" font-family="Helvetica,sans-Serif" font-size="10.00">SymbolProperties.SymbolProperties</text>
</a>
</g>
</g>
<!-- Node5&#45;&gt;Node6 -->
<g id="edge5" class="edge">
<title>Node5&#45;&gt;Node6</title>
<path fill="none" stroke="midnightblue" d="M657.73,-91.5C671.26,-91.5 685.51,-91.5 699.61,-91.5"/>
<polygon fill="midnightblue" stroke="midnightblue" points="699.83,-95 709.83,-91.5 699.83,-88 699.83,-95"/>
</g>
<!-- Node8&#45;&gt;Node1 -->
<g id="edge8" class="edge">
<title>Node8&#45;&gt;Node1</title>
<path fill="none" stroke="midnightblue" d="M295.77,-30.57C272.64,-36.24 243.63,-42.6 215.22,-48.33"/>
<polygon fill="midnightblue" stroke="midnightblue" points="214.33,-44.94 205.2,-50.33 215.7,-51.81 214.33,-44.94"/>
</g>
</g>
</svg>
