<?xml version="1.0" encoding="UTF-8" standalone="no"?>
<!DOCTYPE svg PUBLIC "-//W3C//DTD SVG 1.1//EN"
 "http://www.w3.org/Graphics/SVG/1.1/DTD/svg11.dtd">
<!-- Generated by graphviz version 2.43.0 (0)
 -->
<!-- Title: QuantConnect.Symbol.CreateOption Pages: 1 -->
<svg width="1155pt" height="118pt"
 viewBox="0.00 0.00 1155.00 117.50" xmlns="http://www.w3.org/2000/svg" xmlns:xlink="http://www.w3.org/1999/xlink">
<g id="graph0" class="graph" transform="scale(1 1) rotate(0) translate(4 113.5)">
<title>QuantConnect.Symbol.CreateOption</title>
<polygon fill="white" stroke="transparent" points="-4,4 -4,-113.5 1151,-113.5 1151,4 -4,4"/>
<!-- Node1 -->
<g id="node1" class="node">
<title>Node1</title>
<g id="a_node1"><a xlink:title="Provides a convenience method for creating an option Symbol from its SecurityIdentifier and alias.">
<polygon fill="#bfbfbf" stroke="black" points="0,-44.5 0,-74.5 161,-74.5 161,-44.5 0,-44.5"/>
<text text-anchor="start" x="8" y="-62.5" font-family="Helvetica,sans-Serif" font-size="10.00">QuantConnect.Symbol.Create</text>
<text text-anchor="middle" x="80.5" y="-51.5" font-family="Helvetica,sans-Serif" font-size="10.00">Option</text>
</a>
</g>
</g>
<!-- Node2 -->
<g id="node2" class="node">
<title>Node2</title>
<g id="a_node2"><a xlink:href="classQuantConnect_1_1Symbol.html#a1f3c25223fd9a7b753a4f84ece6469ab" target="_top" xlink:title="Method returns true, if symbol is a derivative canonical symbol">
<polygon fill="white" stroke="black" points="206,-88 206,-107 391,-107 391,-88 206,-88"/>
<text text-anchor="middle" x="298.5" y="-95" font-family="Helvetica,sans-Serif" font-size="10.00">QuantConnect.Symbol.IsCanonical</text>
</a>
</g>
</g>
<!-- Node1&#45;&gt;Node2 -->
<g id="edge1" class="edge">
<title>Node1&#45;&gt;Node2</title>
<path fill="none" stroke="midnightblue" d="M161.01,-73.49C184.9,-77.69 210.79,-82.25 233.54,-86.25"/>
<polygon fill="midnightblue" stroke="midnightblue" points="232.96,-89.7 243.42,-87.99 234.18,-82.81 232.96,-89.7"/>
</g>
<!-- Node3 -->
<g id="node3" class="node">
<title>Node3</title>
<g id="a_node3"><a xlink:href="classQuantConnect_1_1Symbol.html#a59158f74116be3dad0ea0f3f3f134416" target="_top" xlink:title="Initializes a new instance of the Symbol class">
<polygon fill="white" stroke="black" points="216,-50 216,-69 381,-69 381,-50 216,-50"/>
<text text-anchor="middle" x="298.5" y="-57" font-family="Helvetica,sans-Serif" font-size="10.00">QuantConnect.Symbol.Symbol</text>
</a>
</g>
</g>
<!-- Node1&#45;&gt;Node3 -->
<g id="edge2" class="edge">
<title>Node1&#45;&gt;Node3</title>
<path fill="none" stroke="midnightblue" d="M161.01,-59.5C175.57,-59.5 190.88,-59.5 205.76,-59.5"/>
<polygon fill="midnightblue" stroke="midnightblue" points="205.99,-63 215.99,-59.5 205.99,-56 205.99,-63"/>
</g>
<!-- Node9 -->
<g id="node9" class="node">
<title>Node9</title>
<g id="a_node9"><a xlink:href="classQuantConnect_1_1SymbolRepresentation.html#a595675935788d53a5fa4130cc076615a" target="_top" xlink:title="Tries to decompose the specified OSI options ticker into its components">
<polygon fill="white" stroke="black" points="197,-0.5 197,-30.5 400,-30.5 400,-0.5 197,-0.5"/>
<text text-anchor="start" x="205" y="-18.5" font-family="Helvetica,sans-Serif" font-size="10.00">QuantConnect.SymbolRepresentation.</text>
<text text-anchor="middle" x="298.5" y="-7.5" font-family="Helvetica,sans-Serif" font-size="10.00">TryDecomposeOptionTickerOSI</text>
</a>
</g>
</g>
<!-- Node1&#45;&gt;Node9 -->
<g id="edge8" class="edge">
<title>Node1&#45;&gt;Node9</title>
<path fill="none" stroke="midnightblue" d="M155.23,-44.48C174.07,-40.64 194.46,-36.49 213.76,-32.56"/>
<polygon fill="midnightblue" stroke="midnightblue" points="214.63,-35.95 223.73,-30.53 213.24,-29.09 214.63,-35.95"/>
</g>
<!-- Node4 -->
<g id="node4" class="node">
<title>Node4</title>
<g id="a_node4"><a xlink:href="classQuantConnect_1_1Symbol.html#a59b0795fa21f46c306deb5576fa03bb9" target="_top" xlink:title="Centralized helper method to resolve alias for a symbol">
<polygon fill="white" stroke="black" points="436,-50 436,-69 606,-69 606,-50 436,-50"/>
<text text-anchor="middle" x="521" y="-57" font-family="Helvetica,sans-Serif" font-size="10.00">QuantConnect.Symbol.GetAlias</text>
</a>
</g>
</g>
<!-- Node3&#45;&gt;Node4 -->
<g id="edge3" class="edge">
<title>Node3&#45;&gt;Node4</title>
<path fill="none" stroke="midnightblue" d="M381.29,-59.5C395.73,-59.5 410.87,-59.5 425.62,-59.5"/>
<polygon fill="midnightblue" stroke="midnightblue" points="425.76,-63 435.76,-59.5 425.76,-56 425.76,-63"/>
</g>
<!-- Node5 -->
<g id="node5" class="node">
<title>Node5</title>
<g id="a_node5"><a xlink:href="classQuantConnect_1_1SymbolRepresentation.html#ad43ac907f6c19083821f58f21c6de017" target="_top" xlink:title="Returns future symbol ticker from underlying and expiration date. Function can generate tickers of tw...">
<polygon fill="white" stroke="black" points="642,-70.5 642,-100.5 845,-100.5 845,-70.5 642,-70.5"/>
<text text-anchor="start" x="650" y="-88.5" font-family="Helvetica,sans-Serif" font-size="10.00">QuantConnect.SymbolRepresentation.</text>
<text text-anchor="middle" x="743.5" y="-77.5" font-family="Helvetica,sans-Serif" font-size="10.00">GenerateFutureTicker</text>
</a>
</g>
</g>
<!-- Node4&#45;&gt;Node5 -->
<g id="edge4" class="edge">
<title>Node4&#45;&gt;Node5</title>
<path fill="none" stroke="midnightblue" d="M602.85,-69.03C612.25,-70.14 621.95,-71.29 631.66,-72.43"/>
<polygon fill="midnightblue" stroke="midnightblue" points="631.43,-75.93 641.77,-73.62 632.25,-68.98 631.43,-75.93"/>
</g>
<!-- Node7 -->
<g id="node7" class="node">
<title>Node7</title>
<g id="a_node7"><a xlink:href="classQuantConnect_1_1SymbolRepresentation.html#ab133044f5cf8c16e700190a2202b215e" target="_top" xlink:title="Returns option symbol ticker in accordance with OSI symbology More information can be found at http:/...">
<polygon fill="white" stroke="black" points="642,-18.5 642,-48.5 845,-48.5 845,-18.5 642,-18.5"/>
<text text-anchor="start" x="650" y="-36.5" font-family="Helvetica,sans-Serif" font-size="10.00">QuantConnect.SymbolRepresentation.</text>
<text text-anchor="middle" x="743.5" y="-25.5" font-family="Helvetica,sans-Serif" font-size="10.00">GenerateOptionTickerOSI</text>
</a>
</g>
</g>
<!-- Node4&#45;&gt;Node7 -->
<g id="edge6" class="edge">
<title>Node4&#45;&gt;Node7</title>
<path fill="none" stroke="midnightblue" d="M602.85,-49.97C612.25,-48.86 621.95,-47.71 631.66,-46.57"/>
<polygon fill="midnightblue" stroke="midnightblue" points="632.25,-50.02 641.77,-45.38 631.43,-43.07 632.25,-50.02"/>
</g>
<!-- Node6 -->
<g id="node6" class="node">
<title>Node6</title>
<g id="a_node6"><a xlink:href="classQuantConnect_1_1Securities_1_1Future_1_1FuturesExpiryUtilityFunctions.html#a4ccb1e2f2fe40ff09785a74a02f26df1" target="_top" xlink:title="Gets the number of months between the contract month and the expiry date.">
<polygon fill="white" stroke="black" points="881,-68 881,-109 1147,-109 1147,-68 881,-68"/>
<text text-anchor="start" x="889" y="-97" font-family="Helvetica,sans-Serif" font-size="10.00">QuantConnect.Securities.</text>
<text text-anchor="start" x="889" y="-86" font-family="Helvetica,sans-Serif" font-size="10.00">Future.FuturesExpiryUtilityFunctions.</text>
<text text-anchor="middle" x="1014" y="-75" font-family="Helvetica,sans-Serif" font-size="10.00">GetDeltaBetweenContractMonthAndContractExpiry</text>
</a>
</g>
</g>
<!-- Node5&#45;&gt;Node6 -->
<g id="edge5" class="edge">
<title>Node5&#45;&gt;Node6</title>
<path fill="none" stroke="midnightblue" d="M845.24,-86.63C853.59,-86.72 862.11,-86.81 870.68,-86.91"/>
<polygon fill="midnightblue" stroke="midnightblue" points="870.72,-90.41 880.76,-87.02 870.8,-83.41 870.72,-90.41"/>
</g>
<!-- Node8 -->
<g id="node8" class="node">
<title>Node8</title>
<g id="a_node8"><a xlink:href="classQuantConnect_1_1Messages_1_1SymbolRepresentation.html#a2c514157d8055cfa271ea3a7ca1ccde7" target="_top" xlink:title="Returns a string message saying an unexpected security type was received by the given method name">
<polygon fill="white" stroke="black" points="918,-8 918,-49 1110,-49 1110,-8 918,-8"/>
<text text-anchor="start" x="926" y="-37" font-family="Helvetica,sans-Serif" font-size="10.00">QuantConnect.Messages.Symbol</text>
<text text-anchor="start" x="926" y="-26" font-family="Helvetica,sans-Serif" font-size="10.00">Representation.UnexpectedSecurity</text>
<text text-anchor="middle" x="1014" y="-15" font-family="Helvetica,sans-Serif" font-size="10.00">TypeForMethod</text>
</a>
</g>
</g>
<!-- Node7&#45;&gt;Node8 -->
<g id="edge7" class="edge">
<title>Node7&#45;&gt;Node8</title>
<path fill="none" stroke="midnightblue" d="M845.24,-31.62C865.7,-31.24 887.27,-30.84 907.88,-30.46"/>
<polygon fill="midnightblue" stroke="midnightblue" points="907.98,-33.96 917.91,-30.27 907.85,-26.96 907.98,-33.96"/>
</g>
<!-- Node10 -->
<g id="node10" class="node">
<title>Node10</title>
<g id="a_node10"><a xlink:href="classQuantConnect_1_1Parse.html#aac0a89458d90280d2b3b04afa9e197a2" target="_top" xlink:title="Parses the provided value as a decimal using CultureInfo.InvariantCulture">
<polygon fill="white" stroke="black" points="442,-6 442,-25 600,-25 600,-6 442,-6"/>
<text text-anchor="middle" x="521" y="-13" font-family="Helvetica,sans-Serif" font-size="10.00">QuantConnect.Parse.Decimal</text>
</a>
</g>
</g>
<!-- Node9&#45;&gt;Node10 -->
<g id="edge9" class="edge">
<title>Node9&#45;&gt;Node10</title>
<path fill="none" stroke="midnightblue" d="M400.07,-15.5C410.55,-15.5 421.14,-15.5 431.48,-15.5"/>
<polygon fill="midnightblue" stroke="midnightblue" points="431.7,-19 441.7,-15.5 431.7,-12 431.7,-19"/>
</g>
</g>
</svg>
