<?xml version="1.0" encoding="UTF-8" standalone="no"?>
<!DOCTYPE svg PUBLIC "-//W3C//DTD SVG 1.1//EN"
 "http://www.w3.org/Graphics/SVG/1.1/DTD/svg11.dtd">
<!-- Generated by graphviz version 2.43.0 (0)
 -->
<!-- Title: QuantConnect.Time.GetStartTimeForTradeBars Pages: 1 -->
<!--zoomable 360 -->
<svg id="main" version="1.1" xmlns="http://www.w3.org/2000/svg" xmlns:xlink="http://www.w3.org/1999/xlink" xml:space="preserve" onload="init(evt)">
<style type="text/css"><![CDATA[
.edge:hover path { stroke: red; }
.edge:hover polygon { stroke: red; fill: red; }
]]></style>
<script type="text/javascript"><![CDATA[
var edges = document.getElementsByTagName('g');
if (edges && edges.length) {
  for (var i=0;i<edges.length;i++) {
    if (edges[i].id.substr(0,4)=='edge') {
      edges[i].setAttribute('class','edge');
    }
  }
}
]]></script>
        <defs>
                <circle id="rim" cx="0" cy="0" r="7"/>
                <circle id="rim2" cx="0" cy="0" r="3.5"/>
                <g id="zoomPlus">
                        <use xlink:href="#rim" fill="#404040">
                                <set attributeName="fill" to="#808080" begin="zoomplus.mouseover" end="zoomplus.mouseout"/>
                        </use>
                        <path d="M-4,0h8M0,-4v8" fill="none" stroke="white" stroke-width="1.5" pointer-events="none"/>
                </g>
                <g id="zoomMin">
                        <use xlink:href="#rim" fill="#404040">
                                <set attributeName="fill" to="#808080" begin="zoomminus.mouseover" end="zoomminus.mouseout"/>
                        </use>
                        <path d="M-4,0h8" fill="none" stroke="white" stroke-width="1.5" pointer-events="none"/>
                </g>
                <g id="dirArrow">
                        <path fill="none" stroke="white" stroke-width="1.5" d="M0,-3.0v7 M-2.5,-0.5L0,-3.0L2.5,-0.5"/>
                </g>
               <g id="resetDef">
                       <use xlink:href="#rim2" fill="#404040">
                               <set attributeName="fill" to="#808080" begin="reset.mouseover" end="reset.mouseout"/>
                       </use>
               </g>
        </defs>

<script type="text/javascript">
var viewWidth = 633;
var viewHeight = 360;
var sectionId = 'dynsection-29';
</script>
<script xlink:href="svgpan.js"/>
<svg id="graph" class="graph">
<g id="viewport">
<title>QuantConnect.Time.GetStartTimeForTradeBars</title>
<polygon fill="white" stroke="transparent" points="-4,4 -4,-356 629,-356 629,4 -4,4"/>
<!-- Node1 -->
<g id="node1" class="node">
<title>Node1</title>
<g id="a_node1"><a xlink:title="Determines the start time required to produce the requested number of bars and the given size">
<polygon fill="#bfbfbf" stroke="black" points="468,-173 468,-203 625,-203 625,-173 468,-173"/>
<text text-anchor="start" x="476" y="-191" font-family="Helvetica,sans-Serif" font-size="10.00">QuantConnect.Time.GetStart</text>
<text text-anchor="middle" x="546.5" y="-180" font-family="Helvetica,sans-Serif" font-size="10.00">TimeForTradeBars</text>
</a>
</g>
</g>
<!-- Node2 -->
<g id="node2" class="node">
<title>Node2</title>
<g id="a_node2"><a xlink:href="classQuantConnect_1_1Lean_1_1Engine_1_1DataFeeds_1_1UniverseSelection.html#aa1f5bba72357a2a66d98099a3d20a0e5" target="_top" xlink:title="Will add any pending internal currency subscriptions">
<polygon fill="white" stroke="black" points="237.5,-310.5 237.5,-351.5 419.5,-351.5 419.5,-310.5 237.5,-310.5"/>
<text text-anchor="start" x="245.5" y="-339.5" font-family="Helvetica,sans-Serif" font-size="10.00">QuantConnect.Lean.Engine.</text>
<text text-anchor="start" x="245.5" y="-328.5" font-family="Helvetica,sans-Serif" font-size="10.00">DataFeeds.UniverseSelection.Add</text>
<text text-anchor="middle" x="328.5" y="-317.5" font-family="Helvetica,sans-Serif" font-size="10.00">PendingInternalDataFeeds</text>
</a>
</g>
</g>
<!-- Node1&#45;&gt;Node2 -->
<g id="edge1" class="edge">
<title>Node1&#45;&gt;Node2</title>
<path fill="none" stroke="midnightblue" d="M528.09,-211.27C507.75,-236.87 471.78,-277.48 432,-301 426.01,-304.54 419.58,-307.68 412.97,-310.48"/>
<polygon fill="midnightblue" stroke="midnightblue" points="530.98,-213.25 534.37,-203.21 525.46,-208.95 530.98,-213.25"/>
</g>
<!-- Node3 -->
<g id="node3" class="node">
<title>Node3</title>
<g id="a_node3"><a xlink:href="classQuantConnect_1_1Lean_1_1Engine_1_1DataFeeds_1_1FileSystemDataFeed.html#ac148e78fc814fca88c70a1835be51a25" target="_top" xlink:title="Creates a new subscription to provide data for the specified security.">
<polygon fill="white" stroke="black" points="225,-250.5 225,-291.5 432,-291.5 432,-250.5 225,-250.5"/>
<text text-anchor="start" x="233" y="-279.5" font-family="Helvetica,sans-Serif" font-size="10.00">QuantConnect.Lean.Engine.</text>
<text text-anchor="start" x="233" y="-268.5" font-family="Helvetica,sans-Serif" font-size="10.00">DataFeeds.FileSystemDataFeed.Create</text>
<text text-anchor="middle" x="328.5" y="-257.5" font-family="Helvetica,sans-Serif" font-size="10.00">Subscription</text>
</a>
</g>
</g>
<!-- Node1&#45;&gt;Node3 -->
<g id="edge2" class="edge">
<title>Node1&#45;&gt;Node3</title>
<path fill="none" stroke="midnightblue" d="M506.96,-207.78C485.28,-218.45 457.52,-231.37 432,-241 423.24,-244.31 413.95,-247.47 404.67,-250.43"/>
<polygon fill="midnightblue" stroke="midnightblue" points="508.76,-210.79 516.16,-203.21 505.65,-204.53 508.76,-210.79"/>
</g>
<!-- Node4 -->
<g id="node4" class="node">
<title>Node4</title>
<g id="a_node4"><a xlink:href="classQuantConnect_1_1Lean_1_1Engine_1_1DataFeeds_1_1DataManager.html#acf9050df1be040d4259dc9a89c2cb740" target="_top" xlink:title="Creates a new instance of the DataManager">
<polygon fill="white" stroke="black" points="225.5,-201 225.5,-231 431.5,-231 431.5,-201 225.5,-201"/>
<text text-anchor="start" x="233.5" y="-219" font-family="Helvetica,sans-Serif" font-size="10.00">QuantConnect.Lean.Engine.</text>
<text text-anchor="middle" x="328.5" y="-208" font-family="Helvetica,sans-Serif" font-size="10.00">DataFeeds.DataManager.DataManager</text>
</a>
</g>
</g>
<!-- Node1&#45;&gt;Node4 -->
<g id="edge3" class="edge">
<title>Node1&#45;&gt;Node4</title>
<path fill="none" stroke="midnightblue" d="M457.82,-199.37C449.21,-200.48 440.42,-201.62 431.69,-202.75"/>
<polygon fill="midnightblue" stroke="midnightblue" points="458.36,-202.83 467.82,-198.07 457.46,-195.88 458.36,-202.83"/>
</g>
<!-- Node5 -->
<g id="node5" class="node">
<title>Node5</title>
<g id="a_node5"><a xlink:href="classQuantConnect_1_1Securities_1_1Volatility_1_1BaseVolatilityModel.html#a1447baed13180db4f86dc485496400b8" target="_top" xlink:title="Gets history requests required for warming up the greeks with the provided resolution">
<polygon fill="white" stroke="black" points="247.5,-140.5 247.5,-181.5 409.5,-181.5 409.5,-140.5 247.5,-140.5"/>
<text text-anchor="start" x="255.5" y="-169.5" font-family="Helvetica,sans-Serif" font-size="10.00">QuantConnect.Securities.</text>
<text text-anchor="start" x="255.5" y="-158.5" font-family="Helvetica,sans-Serif" font-size="10.00">Volatility.BaseVolatilityModel.</text>
<text text-anchor="middle" x="328.5" y="-147.5" font-family="Helvetica,sans-Serif" font-size="10.00">GetHistoryRequirements</text>
</a>
</g>
</g>
<!-- Node1&#45;&gt;Node5 -->
<g id="edge4" class="edge">
<title>Node1&#45;&gt;Node5</title>
<path fill="none" stroke="midnightblue" d="M457.54,-177C441.73,-175.03 425.33,-172.98 409.76,-171.03"/>
<polygon fill="midnightblue" stroke="midnightblue" points="457.47,-180.52 467.82,-178.29 458.34,-173.58 457.47,-180.52"/>
</g>
<!-- Node6 -->
<g id="node6" class="node">
<title>Node6</title>
<g id="a_node6"><a xlink:href="classQuantConnect_1_1Data_1_1HistoryRequestFactory.html#a76f5a4548714e2abf1a8c2d7e0664564" target="_top" xlink:title="Gets the start time required for the specified bar count in terms of the algorithm&#39;s time zone">
<polygon fill="white" stroke="black" points="233,-91 233,-121 424,-121 424,-91 233,-91"/>
<text text-anchor="start" x="241" y="-109" font-family="Helvetica,sans-Serif" font-size="10.00">QuantConnect.Data.History</text>
<text text-anchor="middle" x="328.5" y="-98" font-family="Helvetica,sans-Serif" font-size="10.00">RequestFactory.GetStartTimeAlgoTz</text>
</a>
</g>
</g>
<!-- Node1&#45;&gt;Node6 -->
<g id="edge5" class="edge">
<title>Node1&#45;&gt;Node6</title>
<path fill="none" stroke="midnightblue" d="M510.7,-167.94C488.7,-155.91 459.34,-141.05 432,-131 421.86,-127.27 410.94,-123.93 400.16,-121"/>
<polygon fill="midnightblue" stroke="midnightblue" points="509.21,-171.11 519.65,-172.9 512.6,-164.99 509.21,-171.11"/>
</g>
<!-- Node7 -->
<g id="node7" class="node">
<title>Node7</title>
<g id="a_node7"><a xlink:href="classQuantConnect_1_1Lean_1_1Engine_1_1DataFeeds_1_1BacktestingChainProvider.html#a903ec0b9ee074f1a7ee6d1eccc5f712b" target="_top" xlink:title="Get the contract symbols associated with the given canonical symbol and date">
<polygon fill="white" stroke="black" points="228.5,-30.5 228.5,-71.5 428.5,-71.5 428.5,-30.5 228.5,-30.5"/>
<text text-anchor="start" x="236.5" y="-59.5" font-family="Helvetica,sans-Serif" font-size="10.00">QuantConnect.Lean.Engine.</text>
<text text-anchor="start" x="236.5" y="-48.5" font-family="Helvetica,sans-Serif" font-size="10.00">DataFeeds.BacktestingChainProvider.</text>
<text text-anchor="middle" x="328.5" y="-37.5" font-family="Helvetica,sans-Serif" font-size="10.00">GetSymbols</text>
</a>
</g>
</g>
<!-- Node1&#45;&gt;Node7 -->
<g id="edge6" class="edge">
<title>Node1&#45;&gt;Node7</title>
<path fill="none" stroke="midnightblue" d="M526.45,-164.79C505.6,-140.82 470.04,-103.9 432,-82 425.23,-78.1 417.93,-74.65 410.44,-71.6"/>
<polygon fill="midnightblue" stroke="midnightblue" points="524.04,-167.36 533.19,-172.69 529.36,-162.81 524.04,-167.36"/>
</g>
<!-- Node8 -->
<g id="node8" class="node">
<title>Node8</title>
<g id="a_node8"><a xlink:href="classQuantConnect_1_1Lean_1_1Engine_1_1DataFeeds_1_1BacktestingFutureChainProvider.html#ad95ac9ea6895b03fa51209aa7e9c2fb4" target="_top" xlink:title="Gets the list of future contracts for a given underlying symbol">
<polygon fill="white" stroke="black" points="0.5,-60.5 0.5,-101.5 188.5,-101.5 188.5,-60.5 0.5,-60.5"/>
<text text-anchor="start" x="8.5" y="-89.5" font-family="Helvetica,sans-Serif" font-size="10.00">QuantConnect.Lean.Engine.</text>
<text text-anchor="start" x="8.5" y="-78.5" font-family="Helvetica,sans-Serif" font-size="10.00">DataFeeds.BacktestingFutureChain</text>
<text text-anchor="middle" x="94.5" y="-67.5" font-family="Helvetica,sans-Serif" font-size="10.00">Provider.GetFutureContractList</text>
</a>
</g>
</g>
<!-- Node7&#45;&gt;Node8 -->
<g id="edge7" class="edge">
<title>Node7&#45;&gt;Node8</title>
<path fill="none" stroke="midnightblue" d="M218.51,-65.09C208.55,-66.38 198.52,-67.68 188.71,-68.95"/>
<polygon fill="midnightblue" stroke="midnightblue" points="218.97,-68.56 228.44,-63.81 218.07,-61.62 218.97,-68.56"/>
</g>
<!-- Node9 -->
<g id="node9" class="node">
<title>Node9</title>
<g id="a_node9"><a xlink:href="classQuantConnect_1_1Lean_1_1Engine_1_1DataFeeds_1_1BacktestingOptionChainProvider.html#a5b140615fad8e3c0f8d08597a7ca1509" target="_top" xlink:title="Gets the list of option contracts for a given underlying symbol">
<polygon fill="white" stroke="black" points="0,-0.5 0,-41.5 189,-41.5 189,-0.5 0,-0.5"/>
<text text-anchor="start" x="8" y="-29.5" font-family="Helvetica,sans-Serif" font-size="10.00">QuantConnect.Lean.Engine.</text>
<text text-anchor="start" x="8" y="-18.5" font-family="Helvetica,sans-Serif" font-size="10.00">DataFeeds.BacktestingOptionChain</text>
<text text-anchor="middle" x="94.5" y="-7.5" font-family="Helvetica,sans-Serif" font-size="10.00">Provider.GetOptionContractList</text>
</a>
</g>
</g>
<!-- Node7&#45;&gt;Node9 -->
<g id="edge8" class="edge">
<title>Node7&#45;&gt;Node9</title>
<path fill="none" stroke="midnightblue" d="M218.29,-36.88C208.53,-35.62 198.7,-34.34 189.08,-33.1"/>
<polygon fill="midnightblue" stroke="midnightblue" points="218.07,-40.38 228.44,-38.19 218.97,-33.44 218.07,-40.38"/>
</g>
</g>
</svg>
        <g id="navigator" transform="translate(0 0)" fill="#404254">
                <rect fill="#f2f5e9" fill-opacity="0.5" stroke="#606060" stroke-width=".5" x="0" y="0" width="60" height="60"/>
                <use id="zoomplus" xlink:href="#zoomPlus" x="17" y="9" onmousedown="handleZoom(evt,'in')"/>
                <use id="zoomminus" xlink:href="#zoomMin" x="42" y="9" onmousedown="handleZoom(evt,'out')"/>
                <use id="reset" xlink:href="#resetDef" x="30" y="36" onmousedown="handleReset()"/>
                <g id="arrowUp" xlink:href="#dirArrow" transform="translate(30 24)" onmousedown="handlePan(0,-1)">
                  <use xlink:href="#rim" fill="#404040">
                        <set attributeName="fill" to="#808080" begin="arrowUp.mouseover" end="arrowUp.mouseout"/>
                  </use>
                  <path fill="none" stroke="white" stroke-width="1.5" d="M0,-3.0v7 M-2.5,-0.5L0,-3.0L2.5,-0.5"/>
                </g>
                <g id="arrowRight" xlink:href="#dirArrow" transform="rotate(90) translate(36 -43)" onmousedown="handlePan(1,0)">
                  <use xlink:href="#rim" fill="#404040">
                        <set attributeName="fill" to="#808080" begin="arrowRight.mouseover" end="arrowRight.mouseout"/>
                  </use>
                  <path fill="none" stroke="white" stroke-width="1.5" d="M0,-3.0v7 M-2.5,-0.5L0,-3.0L2.5,-0.5"/>
                </g>
                <g id="arrowDown" xlink:href="#dirArrow" transform="rotate(180) translate(-30 -48)" onmousedown="handlePan(0,1)">
                  <use xlink:href="#rim" fill="#404040">
                        <set attributeName="fill" to="#808080" begin="arrowDown.mouseover" end="arrowDown.mouseout"/>
                  </use>
                  <path fill="none" stroke="white" stroke-width="1.5" d="M0,-3.0v7 M-2.5,-0.5L0,-3.0L2.5,-0.5"/>
                </g>
                <g id="arrowLeft" xlink:href="#dirArrow" transform="rotate(270) translate(-36 17)" onmousedown="handlePan(-1,0)">
                  <use xlink:href="#rim" fill="#404040">
                        <set attributeName="fill" to="#808080" begin="arrowLeft.mouseover" end="arrowLeft.mouseout"/>
                  </use>
                  <path fill="none" stroke="white" stroke-width="1.5" d="M0,-3.0v7 M-2.5,-0.5L0,-3.0L2.5,-0.5"/>
                </g>
        </g>
        <svg viewBox="0 0 15 15" width="100%" height="30px" preserveAspectRatio="xMaxYMin meet">
         <g id="arrow_out" transform="scale(0.3 0.3)">
          <a xlink:href="classQuantConnect_1_1Time_a50fc3d93661ea9b1506e9d6ab78bcabd_icgraph_org.svg" target="_base">
           <rect id="button" ry="5" rx="5" y="6" x="6" height="38" width="38"
                fill="#f2f5e9" fill-opacity="0.5" stroke="#606060" stroke-width="1.0"/>
           <path id="arrow"
             d="M 11.500037,31.436501 C 11.940474,20.09759 22.043105,11.32322 32.158766,21.979434 L 37.068811,17.246167 C 37.068811,17.246167 37.088388,32 37.088388,32 L 22.160133,31.978069 C 22.160133,31.978069 26.997745,27.140456 26.997745,27.140456 C 18.528582,18.264221 13.291696,25.230495 11.500037,31.436501 z"
             style="fill:#404040;"/>
          </a>
         </g>
        </svg>
</svg>
