<?xml version="1.0" encoding="UTF-8" standalone="no"?>
<!DOCTYPE svg PUBLIC "-//W3C//DTD SVG 1.1//EN"
 "http://www.w3.org/Graphics/SVG/1.1/DTD/svg11.dtd">
<!-- Generated by graphviz version 2.43.0 (0)
 -->
<!-- Title: QuantConnect.Api.BasicObjectStore Pages: 1 -->
<svg width="338pt" height="106pt"
 viewBox="0.00 0.00 338.00 106.00" xmlns="http://www.w3.org/2000/svg" xmlns:xlink="http://www.w3.org/1999/xlink">
<g id="graph0" class="graph" transform="scale(1 1) rotate(0) translate(4 102)">
<title>QuantConnect.Api.BasicObjectStore</title>
<polygon fill="white" stroke="transparent" points="-4,4 -4,-102 334,-102 334,4 -4,4"/>
<!-- Node1 -->
<g id="node1" class="node">
<title>Node1</title>
<g id="a_node1"><a xlink:title="Class contining basic store properties present in the REST response from QC API">
<polygon fill="#bfbfbf" stroke="black" points="83,-67.5 83,-97.5 248,-97.5 248,-67.5 83,-67.5"/>
<text text-anchor="start" x="91" y="-85.5" font-family="Helvetica,sans-Serif" font-size="10.00">QuantConnect.Api.BasicObject</text>
<text text-anchor="middle" x="165.5" y="-74.5" font-family="Helvetica,sans-Serif" font-size="10.00">Store</text>
</a>
</g>
</g>
<!-- Node2 -->
<g id="node2" class="node">
<title>Node2</title>
<g id="a_node2"><a xlink:href="classQuantConnect_1_1Api_1_1PropertiesObjectStore.html" target="_top" xlink:title="Object Store file properties">
<polygon fill="white" stroke="black" points="0,-0.5 0,-30.5 157,-30.5 157,-0.5 0,-0.5"/>
<text text-anchor="start" x="8" y="-18.5" font-family="Helvetica,sans-Serif" font-size="10.00">QuantConnect.Api.Properties</text>
<text text-anchor="middle" x="78.5" y="-7.5" font-family="Helvetica,sans-Serif" font-size="10.00">ObjectStore</text>
</a>
</g>
</g>
<!-- Node1&#45;&gt;Node2 -->
<g id="edge1" class="edge">
<title>Node1&#45;&gt;Node2</title>
<path fill="none" stroke="midnightblue" d="M138.29,-61.17C124.98,-51.23 109.3,-39.51 97.34,-30.58"/>
<polygon fill="midnightblue" stroke="midnightblue" points="136.52,-64.21 146.62,-67.4 140.71,-58.61 136.52,-64.21"/>
</g>
<!-- Node3 -->
<g id="node3" class="node">
<title>Node3</title>
<g id="a_node3"><a xlink:href="classQuantConnect_1_1Api_1_1SummaryObjectStore.html" target="_top" xlink:title="Summary information of the Object Store">
<polygon fill="white" stroke="black" points="175,-0.5 175,-30.5 330,-30.5 330,-0.5 175,-0.5"/>
<text text-anchor="start" x="183" y="-18.5" font-family="Helvetica,sans-Serif" font-size="10.00">QuantConnect.Api.Summary</text>
<text text-anchor="middle" x="252.5" y="-7.5" font-family="Helvetica,sans-Serif" font-size="10.00">ObjectStore</text>
</a>
</g>
</g>
<!-- Node1&#45;&gt;Node3 -->
<g id="edge2" class="edge">
<title>Node1&#45;&gt;Node3</title>
<path fill="none" stroke="midnightblue" d="M192.71,-61.17C206.02,-51.23 221.7,-39.51 233.66,-30.58"/>
<polygon fill="midnightblue" stroke="midnightblue" points="190.29,-58.61 184.38,-67.4 194.48,-64.21 190.29,-58.61"/>
</g>
</g>
</svg>
