<?xml version="1.0" encoding="UTF-8" standalone="no"?>
<!DOCTYPE svg PUBLIC "-//W3C//DTD SVG 1.1//EN"
 "http://www.w3.org/Graphics/SVG/1.1/DTD/svg11.dtd">
<!-- Generated by graphviz version 2.43.0 (0)
 -->
<!-- Title: QuantConnect.SecurityIdentifier.Ticker Pages: 1 -->
<svg width="919pt" height="94pt"
 viewBox="0.00 0.00 919.00 93.50" xmlns="http://www.w3.org/2000/svg" xmlns:xlink="http://www.w3.org/1999/xlink">
<g id="graph0" class="graph" transform="scale(1 1) rotate(0) translate(4 89.5)">
<title>QuantConnect.SecurityIdentifier.Ticker</title>
<polygon fill="white" stroke="transparent" points="-4,4 -4,-89.5 915,-89.5 915,4 -4,4"/>
<!-- Node1 -->
<g id="node1" class="node">
<title>Node1</title>
<g id="a_node1"><a xlink:title="For the given symbol will resolve the ticker it used at the requested date">
<polygon fill="#bfbfbf" stroke="black" points="737,-24.5 737,-54.5 911,-54.5 911,-24.5 737,-24.5"/>
<text text-anchor="start" x="745" y="-42.5" font-family="Helvetica,sans-Serif" font-size="10.00">QuantConnect.SecurityIdentifier.</text>
<text text-anchor="middle" x="824" y="-31.5" font-family="Helvetica,sans-Serif" font-size="10.00">Ticker</text>
</a>
</g>
</g>
<!-- Node2 -->
<g id="node2" class="node">
<title>Node2</title>
<g id="a_node2"><a xlink:href="classQuantConnect_1_1SymbolRepresentation.html#ab8432a8d2fc0d7ce9ec70e0d23360e93" target="_top" xlink:title="Function returns option ticker from IQFeed option ticker For example CSCO1220V19 Cisco October Put at...">
<polygon fill="white" stroke="black" points="497,-49.5 497,-79.5 700,-79.5 700,-49.5 497,-49.5"/>
<text text-anchor="start" x="505" y="-67.5" font-family="Helvetica,sans-Serif" font-size="10.00">QuantConnect.SymbolRepresentation.</text>
<text text-anchor="middle" x="598.5" y="-56.5" font-family="Helvetica,sans-Serif" font-size="10.00">GenerateOptionTicker</text>
</a>
</g>
</g>
<!-- Node1&#45;&gt;Node2 -->
<g id="edge1" class="edge">
<title>Node1&#45;&gt;Node2</title>
<path fill="none" stroke="midnightblue" d="M726.94,-50.24C718.05,-51.24 709.03,-52.25 700.1,-53.25"/>
<polygon fill="midnightblue" stroke="midnightblue" points="727.36,-53.72 736.91,-49.13 726.58,-46.76 727.36,-53.72"/>
</g>
<!-- Node5 -->
<g id="node5" class="node">
<title>Node5</title>
<g id="a_node5"><a xlink:href="classQuantConnect_1_1Algorithm_1_1QCAlgorithm.html#a8b7080abef09f15d67c349bde3d5d025" target="_top" xlink:title="For the given symbol will resolve the ticker it used at the current algorithm date">
<polygon fill="white" stroke="black" points="496,-0.5 496,-30.5 701,-30.5 701,-0.5 496,-0.5"/>
<text text-anchor="start" x="504" y="-18.5" font-family="Helvetica,sans-Serif" font-size="10.00">QuantConnect.Algorithm.QCAlgorithm.</text>
<text text-anchor="middle" x="598.5" y="-7.5" font-family="Helvetica,sans-Serif" font-size="10.00">Ticker</text>
</a>
</g>
</g>
<!-- Node1&#45;&gt;Node5 -->
<g id="edge4" class="edge">
<title>Node1&#45;&gt;Node5</title>
<path fill="none" stroke="midnightblue" d="M726.69,-29.16C718.26,-28.25 709.7,-27.33 701.22,-26.42"/>
<polygon fill="midnightblue" stroke="midnightblue" points="726.59,-32.67 736.91,-30.26 727.34,-25.71 726.59,-32.67"/>
</g>
<!-- Node3 -->
<g id="node3" class="node">
<title>Node3</title>
<g id="a_node3"><a xlink:href="classQuantConnect_1_1Algorithm_1_1Framework_1_1Portfolio_1_1SignalExports_1_1Collective2SignalExport.html#a87920e10ff6ced2b1299745f8ddb5aa3" target="_top" xlink:title="Converts a list of targets to a list of Collective2 positions">
<polygon fill="white" stroke="black" points="233,-44 233,-85 460,-85 460,-44 233,-44"/>
<text text-anchor="start" x="241" y="-73" font-family="Helvetica,sans-Serif" font-size="10.00">QuantConnect.Algorithm.Framework.</text>
<text text-anchor="start" x="241" y="-62" font-family="Helvetica,sans-Serif" font-size="10.00">Portfolio.SignalExports.Collective2</text>
<text text-anchor="middle" x="346.5" y="-51" font-family="Helvetica,sans-Serif" font-size="10.00">SignalExport.ConvertHoldingsToCollective2</text>
</a>
</g>
</g>
<!-- Node2&#45;&gt;Node3 -->
<g id="edge2" class="edge">
<title>Node2&#45;&gt;Node3</title>
<path fill="none" stroke="midnightblue" d="M486.64,-64.5C477.86,-64.5 468.99,-64.5 460.2,-64.5"/>
<polygon fill="midnightblue" stroke="midnightblue" points="486.9,-68 496.9,-64.5 486.9,-61 486.9,-68"/>
</g>
<!-- Node4 -->
<g id="node4" class="node">
<title>Node4</title>
<g id="a_node4"><a xlink:href="classQuantConnect_1_1Algorithm_1_1Framework_1_1Portfolio_1_1SignalExports_1_1Collective2SignalExport.html#ae72a36410f161dff06b714c17837a623" target="_top" xlink:title="Creates a JSON message with the desired positions using the expected Collective2 API format and then ...">
<polygon fill="white" stroke="black" points="0,-44 0,-85 197,-85 197,-44 0,-44"/>
<text text-anchor="start" x="8" y="-73" font-family="Helvetica,sans-Serif" font-size="10.00">QuantConnect.Algorithm.Framework.</text>
<text text-anchor="start" x="8" y="-62" font-family="Helvetica,sans-Serif" font-size="10.00">Portfolio.SignalExports.Collective2</text>
<text text-anchor="middle" x="98.5" y="-51" font-family="Helvetica,sans-Serif" font-size="10.00">SignalExport.Send</text>
</a>
</g>
</g>
<!-- Node3&#45;&gt;Node4 -->
<g id="edge3" class="edge">
<title>Node3&#45;&gt;Node4</title>
<path fill="none" stroke="midnightblue" d="M222.88,-64.5C214.31,-64.5 205.73,-64.5 197.32,-64.5"/>
<polygon fill="midnightblue" stroke="midnightblue" points="222.94,-68 232.94,-64.5 222.94,-61 222.94,-68"/>
</g>
</g>
</svg>
