<?xml version="1.0" encoding="UTF-8" standalone="no"?>
<!DOCTYPE svg PUBLIC "-//W3C//DTD SVG 1.1//EN"
 "http://www.w3.org/Graphics/SVG/1.1/DTD/svg11.dtd">
<!-- Generated by graphviz version 2.43.0 (0)
 -->
<!-- Title: QuantConnect.Securities.SecurityExchangeHours.GetFirstDailyMarketOpen Pages: 1 -->
<svg width="375pt" height="50pt"
 viewBox="0.00 0.00 375.00 50.00" xmlns="http://www.w3.org/2000/svg" xmlns:xlink="http://www.w3.org/1999/xlink">
<g id="graph0" class="graph" transform="scale(1 1) rotate(0) translate(4 46)">
<title>QuantConnect.Securities.SecurityExchangeHours.GetFirstDailyMarketOpen</title>
<polygon fill="white" stroke="transparent" points="-4,4 -4,-46 371,-46 371,4 -4,4"/>
<!-- Node1 -->
<g id="node1" class="node">
<title>Node1</title>
<g id="a_node1"><a xlink:title="Gets the local date time corresponding to the first market open to the specified previous date">
<polygon fill="#bfbfbf" stroke="black" points="194,-0.5 194,-41.5 367,-41.5 367,-0.5 194,-0.5"/>
<text text-anchor="start" x="202" y="-29.5" font-family="Helvetica,sans-Serif" font-size="10.00">QuantConnect.Securities.</text>
<text text-anchor="start" x="202" y="-18.5" font-family="Helvetica,sans-Serif" font-size="10.00">SecurityExchangeHours.GetFirst</text>
<text text-anchor="middle" x="280.5" y="-7.5" font-family="Helvetica,sans-Serif" font-size="10.00">DailyMarketOpen</text>
</a>
</g>
</g>
<!-- Node2 -->
<g id="node2" class="node">
<title>Node2</title>
<g id="a_node2"><a xlink:href="classQuantConnect_1_1Util_1_1LeanData.html#a684e4331309b64aec17e6074ce456b2a" target="_top" xlink:title="Helper method to return the start time and period of a bar the given point time should be part of">
<polygon fill="white" stroke="black" points="0,-6 0,-36 158,-36 158,-6 0,-6"/>
<text text-anchor="start" x="8" y="-24" font-family="Helvetica,sans-Serif" font-size="10.00">QuantConnect.Util.LeanData.</text>
<text text-anchor="middle" x="79" y="-13" font-family="Helvetica,sans-Serif" font-size="10.00">GetDailyCalendar</text>
</a>
</g>
</g>
<!-- Node1&#45;&gt;Node2 -->
<g id="edge1" class="edge">
<title>Node1&#45;&gt;Node2</title>
<path fill="none" stroke="midnightblue" d="M183.71,-21C175.14,-21 166.53,-21 158.13,-21"/>
<polygon fill="midnightblue" stroke="midnightblue" points="183.74,-24.5 193.74,-21 183.74,-17.5 183.74,-24.5"/>
</g>
</g>
</svg>
