<?xml version="1.0" encoding="UTF-8" standalone="no"?>
<!DOCTYPE svg PUBLIC "-//W3C//DTD SVG 1.1//EN"
 "http://www.w3.org/Graphics/SVG/1.1/DTD/svg11.dtd">
<!-- Generated by graphviz version 2.43.0 (0)
 -->
<!-- Title: QuantConnect.Brokerages.CharlesSchwabBrokerageModel.CanSubmitOrder Pages: 1 -->
<svg width="441pt" height="88pt"
 viewBox="0.00 0.00 441.00 88.00" xmlns="http://www.w3.org/2000/svg" xmlns:xlink="http://www.w3.org/1999/xlink">
<g id="graph0" class="graph" transform="scale(1 1) rotate(0) translate(4 84)">
<title>QuantConnect.Brokerages.CharlesSchwabBrokerageModel.CanSubmitOrder</title>
<polygon fill="white" stroke="transparent" points="-4,4 -4,-84 437,-84 437,4 -4,4"/>
<!-- Node1 -->
<g id="node1" class="node">
<title>Node1</title>
<g id="a_node1"><a xlink:title="Returns true if the brokerage could accept this order. This takes into account order type,...">
<polygon fill="#bfbfbf" stroke="black" points="0,-19 0,-60 173,-60 173,-19 0,-19"/>
<text text-anchor="start" x="8" y="-48" font-family="Helvetica,sans-Serif" font-size="10.00">QuantConnect.Brokerages.</text>
<text text-anchor="start" x="8" y="-37" font-family="Helvetica,sans-Serif" font-size="10.00">CharlesSchwabBrokerageModel.</text>
<text text-anchor="middle" x="86.5" y="-26" font-family="Helvetica,sans-Serif" font-size="10.00">CanSubmitOrder</text>
</a>
</g>
</g>
<!-- Node2 -->
<g id="node2" class="node">
<title>Node2</title>
<g id="a_node2"><a xlink:href="classQuantConnect_1_1Messages_1_1DefaultBrokerageModel.html#a772b06f7270c604cc7386874e827dc84" target="_top" xlink:title="Returns a string message saying the type of the given order is unsupported by the given brokerage mod...">
<polygon fill="white" stroke="black" points="215.5,-49.5 215.5,-79.5 426.5,-79.5 426.5,-49.5 215.5,-49.5"/>
<text text-anchor="start" x="223.5" y="-67.5" font-family="Helvetica,sans-Serif" font-size="10.00">QuantConnect.Messages.Default</text>
<text text-anchor="middle" x="321" y="-56.5" font-family="Helvetica,sans-Serif" font-size="10.00">BrokerageModel.UnsupportedOrderType</text>
</a>
</g>
</g>
<!-- Node1&#45;&gt;Node2 -->
<g id="edge1" class="edge">
<title>Node1&#45;&gt;Node2</title>
<path fill="none" stroke="midnightblue" d="M173.08,-48.7C183.59,-49.83 194.46,-51 205.31,-52.17"/>
<polygon fill="midnightblue" stroke="midnightblue" points="204.94,-55.65 215.26,-53.24 205.69,-48.69 204.94,-55.65"/>
</g>
<!-- Node3 -->
<g id="node3" class="node">
<title>Node3</title>
<g id="a_node3"><a xlink:href="classQuantConnect_1_1Messages_1_1DefaultBrokerageModel.html#a1b9fa7f8e1c87b388c646fcef6cdb389" target="_top" xlink:title="Retunrns a string message saying the type of the given security is not supported by the given brokera...">
<polygon fill="white" stroke="black" points="209,-0.5 209,-30.5 433,-30.5 433,-0.5 209,-0.5"/>
<text text-anchor="start" x="217" y="-18.5" font-family="Helvetica,sans-Serif" font-size="10.00">QuantConnect.Messages.Default</text>
<text text-anchor="middle" x="321" y="-7.5" font-family="Helvetica,sans-Serif" font-size="10.00">BrokerageModel.UnsupportedSecurityType</text>
</a>
</g>
</g>
<!-- Node1&#45;&gt;Node3 -->
<g id="edge2" class="edge">
<title>Node1&#45;&gt;Node3</title>
<path fill="none" stroke="midnightblue" d="M173.08,-30.67C181.46,-29.8 190.06,-28.91 198.71,-28.02"/>
<polygon fill="midnightblue" stroke="midnightblue" points="199.27,-31.48 208.86,-26.97 198.55,-24.52 199.27,-31.48"/>
</g>
</g>
</svg>
