<?xml version="1.0" encoding="UTF-8" standalone="no"?>
<!DOCTYPE svg PUBLIC "-//W3C//DTD SVG 1.1//EN"
 "http://www.w3.org/Graphics/SVG/1.1/DTD/svg11.dtd">
<!-- Generated by graphviz version 2.43.0 (0)
 -->
<!-- Title: QuantConnect.Securities.BuyingPowerModel.GetAmountToOrder Pages: 1 -->
<svg width="472pt" height="170pt"
 viewBox="0.00 0.00 472.00 170.00" xmlns="http://www.w3.org/2000/svg" xmlns:xlink="http://www.w3.org/1999/xlink">
<g id="graph0" class="graph" transform="scale(1 1) rotate(0) translate(4 166)">
<title>QuantConnect.Securities.BuyingPowerModel.GetAmountToOrder</title>
<polygon fill="white" stroke="transparent" points="-4,4 -4,-166 468,-166 468,4 -4,4"/>
<!-- Node1 -->
<g id="node1" class="node">
<title>Node1</title>
<g id="a_node1"><a xlink:title="Helper function that determines the amount to order to get to a given target safely....">
<polygon fill="#bfbfbf" stroke="black" points="0,-66 0,-96 206,-96 206,-66 0,-66"/>
<text text-anchor="start" x="8" y="-84" font-family="Helvetica,sans-Serif" font-size="10.00">QuantConnect.Securities.</text>
<text text-anchor="middle" x="103" y="-73" font-family="Helvetica,sans-Serif" font-size="10.00">BuyingPowerModel.GetAmountToOrder</text>
</a>
</g>
</g>
<!-- Node2 -->
<g id="node2" class="node">
<title>Node2</title>
<g id="a_node2"><a xlink:href="classQuantConnect_1_1Securities_1_1BuyingPowerModel.html#a662d7e6905d1818ee738b142a05399af" target="_top" xlink:title="The margin that must be held in order to increase the position by the provided quantity">
<polygon fill="white" stroke="black" points="257,-120.5 257,-161.5 449,-161.5 449,-120.5 257,-120.5"/>
<text text-anchor="start" x="265" y="-149.5" font-family="Helvetica,sans-Serif" font-size="10.00">QuantConnect.Securities.</text>
<text text-anchor="start" x="265" y="-138.5" font-family="Helvetica,sans-Serif" font-size="10.00">BuyingPowerModel.GetInitialMargin</text>
<text text-anchor="middle" x="353" y="-127.5" font-family="Helvetica,sans-Serif" font-size="10.00">Requirement</text>
</a>
</g>
</g>
<!-- Node1&#45;&gt;Node2 -->
<g id="edge1" class="edge">
<title>Node1&#45;&gt;Node2</title>
<path fill="none" stroke="midnightblue" d="M166.26,-96.06C193.84,-102.73 226.88,-110.73 257.41,-118.11"/>
<polygon fill="midnightblue" stroke="midnightblue" points="256.68,-121.54 267.22,-120.49 258.32,-114.74 256.68,-121.54"/>
</g>
<!-- Node3 -->
<g id="node3" class="node">
<title>Node3</title>
<g id="a_node3"><a xlink:href="classQuantConnect_1_1Messages_1_1BuyingPowerModel.html#a2d2fb1d6840c4c102f305f30718de6e0" target="_top" xlink:title="Returns a string message saying the margin is being adjusted in the wrong direction....">
<polygon fill="white" stroke="black" points="256.5,-60.5 256.5,-101.5 449.5,-101.5 449.5,-60.5 256.5,-60.5"/>
<text text-anchor="start" x="264.5" y="-89.5" font-family="Helvetica,sans-Serif" font-size="10.00">QuantConnect.Messages.Buying</text>
<text text-anchor="start" x="264.5" y="-78.5" font-family="Helvetica,sans-Serif" font-size="10.00">PowerModel.MarginBeingAdjustedIn</text>
<text text-anchor="middle" x="353" y="-67.5" font-family="Helvetica,sans-Serif" font-size="10.00">TheWrongDirection</text>
</a>
</g>
</g>
<!-- Node1&#45;&gt;Node3 -->
<g id="edge2" class="edge">
<title>Node1&#45;&gt;Node3</title>
<path fill="none" stroke="midnightblue" d="M206.3,-81C219.49,-81 233.01,-81 246.25,-81"/>
<polygon fill="midnightblue" stroke="midnightblue" points="246.31,-84.5 256.31,-81 246.31,-77.5 246.31,-84.5"/>
</g>
<!-- Node4 -->
<g id="node4" class="node">
<title>Node4</title>
<g id="a_node4"><a xlink:href="classQuantConnect_1_1Messages_1_1BuyingPowerModel.html#ae120457deee17faca7051591968b866a" target="_top" xlink:title="Returns a string message containing basic information related with the underlying security such as th...">
<polygon fill="white" stroke="black" points="242,-0.5 242,-41.5 464,-41.5 464,-0.5 242,-0.5"/>
<text text-anchor="start" x="250" y="-29.5" font-family="Helvetica,sans-Serif" font-size="10.00">QuantConnect.Messages.Buying</text>
<text text-anchor="start" x="250" y="-18.5" font-family="Helvetica,sans-Serif" font-size="10.00">PowerModel.MarginBeingAdjustedIn</text>
<text text-anchor="middle" x="353" y="-7.5" font-family="Helvetica,sans-Serif" font-size="10.00">TheWrongDirectionUnderlyingSecurityInfo</text>
</a>
</g>
</g>
<!-- Node1&#45;&gt;Node4 -->
<g id="edge3" class="edge">
<title>Node1&#45;&gt;Node4</title>
<path fill="none" stroke="midnightblue" d="M166.26,-65.94C193.84,-59.27 226.88,-51.27 257.41,-43.89"/>
<polygon fill="midnightblue" stroke="midnightblue" points="258.32,-47.26 267.22,-41.51 256.68,-40.46 258.32,-47.26"/>
</g>
</g>
</svg>
