<?xml version="1.0" encoding="UTF-8" standalone="no"?>
<!DOCTYPE svg PUBLIC "-//W3C//DTD SVG 1.1//EN"
 "http://www.w3.org/Graphics/SVG/1.1/DTD/svg11.dtd">
<!-- Generated by graphviz version 2.43.0 (0)
 -->
<!-- Title: QuantConnect.Extensions.GetDelistingDate Pages: 1 -->
<!--zoomable 410 -->
<svg id="main" version="1.1" xmlns="http://www.w3.org/2000/svg" xmlns:xlink="http://www.w3.org/1999/xlink" xml:space="preserve" onload="init(evt)">
<style type="text/css"><![CDATA[
.edge:hover path { stroke: red; }
.edge:hover polygon { stroke: red; fill: red; }
]]></style>
<script type="text/javascript"><![CDATA[
var edges = document.getElementsByTagName('g');
if (edges && edges.length) {
  for (var i=0;i<edges.length;i++) {
    if (edges[i].id.substr(0,4)=='edge') {
      edges[i].setAttribute('class','edge');
    }
  }
}
]]></script>
        <defs>
                <circle id="rim" cx="0" cy="0" r="7"/>
                <circle id="rim2" cx="0" cy="0" r="3.5"/>
                <g id="zoomPlus">
                        <use xlink:href="#rim" fill="#404040">
                                <set attributeName="fill" to="#808080" begin="zoomplus.mouseover" end="zoomplus.mouseout"/>
                        </use>
                        <path d="M-4,0h8M0,-4v8" fill="none" stroke="white" stroke-width="1.5" pointer-events="none"/>
                </g>
                <g id="zoomMin">
                        <use xlink:href="#rim" fill="#404040">
                                <set attributeName="fill" to="#808080" begin="zoomminus.mouseover" end="zoomminus.mouseout"/>
                        </use>
                        <path d="M-4,0h8" fill="none" stroke="white" stroke-width="1.5" pointer-events="none"/>
                </g>
                <g id="dirArrow">
                        <path fill="none" stroke="white" stroke-width="1.5" d="M0,-3.0v7 M-2.5,-0.5L0,-3.0L2.5,-0.5"/>
                </g>
               <g id="resetDef">
                       <use xlink:href="#rim2" fill="#404040">
                               <set attributeName="fill" to="#808080" begin="reset.mouseover" end="reset.mouseout"/>
                       </use>
               </g>
        </defs>

<script type="text/javascript">
var viewWidth = 1283;
var viewHeight = 410;
var sectionId = 'dynsection-33';
</script>
<script xlink:href="svgpan.js"/>
<svg id="graph" class="graph">
<g id="viewport">
<title>QuantConnect.Extensions.GetDelistingDate</title>
<polygon fill="white" stroke="transparent" points="-4,4 -4,-405.5 1279,-405.5 1279,4 -4,4"/>
<!-- Node1 -->
<g id="node1" class="node">
<title>Node1</title>
<g id="a_node1"><a xlink:title="Gets the delisting date for the provided Symbol">
<polygon fill="#bfbfbf" stroke="black" points="0,-171 0,-201 145,-201 145,-171 0,-171"/>
<text text-anchor="start" x="8" y="-189" font-family="Helvetica,sans-Serif" font-size="10.00">QuantConnect.Extensions.</text>
<text text-anchor="middle" x="72.5" y="-178" font-family="Helvetica,sans-Serif" font-size="10.00">GetDelistingDate</text>
</a>
</g>
</g>
<!-- Node2 -->
<g id="node2" class="node">
<title>Node2</title>
<g id="a_node2"><a xlink:href="classQuantConnect_1_1Securities_1_1FutureOption_1_1FutureOptionSymbol.html#a644e49a8f90042f002d1a16fba8437a8" target="_top" xlink:title="Gets the last day of trading, aliased to be the Futures options&#39; expiry">
<polygon fill="white" stroke="black" points="181,-225.5 181,-266.5 366,-266.5 366,-225.5 181,-225.5"/>
<text text-anchor="start" x="189" y="-254.5" font-family="Helvetica,sans-Serif" font-size="10.00">QuantConnect.Securities.</text>
<text text-anchor="start" x="189" y="-243.5" font-family="Helvetica,sans-Serif" font-size="10.00">FutureOption.FutureOptionSymbol.</text>
<text text-anchor="middle" x="273.5" y="-232.5" font-family="Helvetica,sans-Serif" font-size="10.00">GetLastDayOfTrading</text>
</a>
</g>
</g>
<!-- Node1&#45;&gt;Node2 -->
<g id="edge1" class="edge">
<title>Node1&#45;&gt;Node2</title>
<path fill="none" stroke="midnightblue" d="M123.46,-201.06C145.01,-207.56 170.73,-215.32 194.69,-222.54"/>
<polygon fill="midnightblue" stroke="midnightblue" points="193.89,-225.95 204.47,-225.49 195.91,-219.25 193.89,-225.95"/>
</g>
<!-- Node3 -->
<g id="node3" class="node">
<title>Node3</title>
<g id="a_node3"><a xlink:href="classQuantConnect_1_1Securities_1_1Option_1_1OptionSymbol.html#a75217e30f16bc69188675c474bb703b0" target="_top" xlink:title="Returns the last trading date for the option contract">
<polygon fill="white" stroke="black" points="183,-165.5 183,-206.5 364,-206.5 364,-165.5 183,-165.5"/>
<text text-anchor="start" x="191" y="-194.5" font-family="Helvetica,sans-Serif" font-size="10.00">QuantConnect.Securities.</text>
<text text-anchor="start" x="191" y="-183.5" font-family="Helvetica,sans-Serif" font-size="10.00">Option.OptionSymbol.GetLastDay</text>
<text text-anchor="middle" x="273.5" y="-172.5" font-family="Helvetica,sans-Serif" font-size="10.00">OfTrading</text>
</a>
</g>
</g>
<!-- Node1&#45;&gt;Node3 -->
<g id="edge2" class="edge">
<title>Node1&#45;&gt;Node3</title>
<path fill="none" stroke="midnightblue" d="M145.06,-186C154.06,-186 163.4,-186 172.73,-186"/>
<polygon fill="midnightblue" stroke="midnightblue" points="172.85,-189.5 182.85,-186 172.85,-182.5 172.85,-189.5"/>
</g>
<!-- Node19 -->
<g id="node19" class="node">
<title>Node19</title>
<g id="a_node19"><a xlink:href="classQuantConnect_1_1Symbol.html#a1f3c25223fd9a7b753a4f84ece6469ab" target="_top" xlink:title="Method returns true, if symbol is a derivative canonical symbol">
<polygon fill="white" stroke="black" points="181,-127.5 181,-146.5 366,-146.5 366,-127.5 181,-127.5"/>
<text text-anchor="middle" x="273.5" y="-134.5" font-family="Helvetica,sans-Serif" font-size="10.00">QuantConnect.Symbol.IsCanonical</text>
</a>
</g>
</g>
<!-- Node1&#45;&gt;Node19 -->
<g id="edge19" class="edge">
<title>Node1&#45;&gt;Node19</title>
<path fill="none" stroke="midnightblue" d="M124.71,-170.95C142.47,-165.93 162.55,-160.48 181,-156 191.5,-153.45 202.73,-150.94 213.6,-148.62"/>
<polygon fill="midnightblue" stroke="midnightblue" points="214.39,-152.03 223.45,-146.55 212.95,-145.18 214.39,-152.03"/>
</g>
<!-- Node4 -->
<g id="node4" class="node">
<title>Node4</title>
<g id="a_node4"><a xlink:href="classQuantConnect_1_1Securities_1_1MarketHoursDatabase.html#aa01232d91c17c556b18ea8f1f7fabcd0" target="_top" xlink:title="Gets the instance of the MarketHoursDatabase class produced by reading in the market hours data found...">
<polygon fill="white" stroke="black" points="402,-321.5 402,-362.5 578,-362.5 578,-321.5 402,-321.5"/>
<text text-anchor="start" x="410" y="-350.5" font-family="Helvetica,sans-Serif" font-size="10.00">QuantConnect.Securities.</text>
<text text-anchor="start" x="410" y="-339.5" font-family="Helvetica,sans-Serif" font-size="10.00">MarketHoursDatabase.FromData</text>
<text text-anchor="middle" x="490" y="-328.5" font-family="Helvetica,sans-Serif" font-size="10.00">Folder</text>
</a>
</g>
</g>
<!-- Node3&#45;&gt;Node4 -->
<g id="edge3" class="edge">
<title>Node3&#45;&gt;Node4</title>
<path fill="none" stroke="midnightblue" d="M348.35,-206.69C354.49,-209.46 360.47,-212.55 366,-216 407.56,-241.89 445.27,-284.72 467.67,-313.14"/>
<polygon fill="midnightblue" stroke="midnightblue" points="464.96,-315.35 473.85,-321.11 470.49,-311.06 464.96,-315.35"/>
</g>
<!-- Node7 -->
<g id="node7" class="node">
<title>Node7</title>
<g id="a_node7"><a xlink:href="classQuantConnect_1_1Securities_1_1MarketHoursDatabase.html#aeac6cf20dbffdbafd258f0d5f4473713" target="_top" xlink:title="Gets the entry for the specified market/symbol/security&#45;type">
<polygon fill="white" stroke="black" points="404.5,-171 404.5,-201 575.5,-201 575.5,-171 404.5,-171"/>
<text text-anchor="start" x="412.5" y="-189" font-family="Helvetica,sans-Serif" font-size="10.00">QuantConnect.Securities.</text>
<text text-anchor="middle" x="490" y="-178" font-family="Helvetica,sans-Serif" font-size="10.00">MarketHoursDatabase.GetEntry</text>
</a>
</g>
</g>
<!-- Node3&#45;&gt;Node7 -->
<g id="edge6" class="edge">
<title>Node3&#45;&gt;Node7</title>
<path fill="none" stroke="midnightblue" d="M364.22,-186C374.11,-186 384.2,-186 394.14,-186"/>
<polygon fill="midnightblue" stroke="midnightblue" points="394.44,-189.5 404.44,-186 394.44,-182.5 394.44,-189.5"/>
</g>
<!-- Node18 -->
<g id="node18" class="node">
<title>Node18</title>
<g id="a_node18"><a xlink:href="classQuantConnect_1_1Securities_1_1Option_1_1OptionSymbol.html#a67479caa555c9b1c103efabf3e7e038c" target="_top" xlink:title="Returns true if the option is a standard contract that expires 3rd Friday of the month">
<polygon fill="white" stroke="black" points="402,-122 402,-152 578,-152 578,-122 402,-122"/>
<text text-anchor="start" x="410" y="-140" font-family="Helvetica,sans-Serif" font-size="10.00">QuantConnect.Securities.</text>
<text text-anchor="middle" x="490" y="-129" font-family="Helvetica,sans-Serif" font-size="10.00">Option.OptionSymbol.IsStandard</text>
</a>
</g>
</g>
<!-- Node3&#45;&gt;Node18 -->
<g id="edge18" class="edge">
<title>Node3&#45;&gt;Node18</title>
<path fill="none" stroke="midnightblue" d="M364.22,-165.5C380.58,-161.77 397.49,-157.9 413.38,-154.27"/>
<polygon fill="midnightblue" stroke="midnightblue" points="414.16,-157.69 423.13,-152.05 412.6,-150.86 414.16,-157.69"/>
</g>
<!-- Node5 -->
<g id="node5" class="node">
<title>Node5</title>
<g id="a_node5"><a xlink:href="classQuantConnect_1_1Securities_1_1MarketHoursDatabase.html#a6fdcc5f6d09cc11743e258e570d0a9eb" target="_top" xlink:title="Reads the specified file as a market hours database instance">
<polygon fill="white" stroke="black" points="637.5,-371 637.5,-401 807.5,-401 807.5,-371 637.5,-371"/>
<text text-anchor="start" x="645.5" y="-389" font-family="Helvetica,sans-Serif" font-size="10.00">QuantConnect.Securities.</text>
<text text-anchor="middle" x="722.5" y="-378" font-family="Helvetica,sans-Serif" font-size="10.00">MarketHoursDatabase.FromFile</text>
</a>
</g>
</g>
<!-- Node4&#45;&gt;Node5 -->
<g id="edge4" class="edge">
<title>Node4&#45;&gt;Node5</title>
<path fill="none" stroke="midnightblue" d="M578.14,-358.63C596,-362.04 614.81,-365.63 632.73,-369.05"/>
<polygon fill="midnightblue" stroke="midnightblue" points="632.09,-372.5 642.57,-370.93 633.41,-365.62 632.09,-372.5"/>
</g>
<!-- Node6 -->
<g id="node6" class="node">
<title>Node6</title>
<g id="a_node6"><a xlink:href="classQuantConnect_1_1Globals.html#ae01b5c94ef475a21ab1a62fe1b04ea5c" target="_top" xlink:title="Helper method that will build a data folder path checking if it exists on the cache folder else will ...">
<polygon fill="white" stroke="black" points="890,-328 890,-358 1036,-358 1036,-328 890,-328"/>
<text text-anchor="start" x="898" y="-346" font-family="Helvetica,sans-Serif" font-size="10.00">QuantConnect.Globals.Get</text>
<text text-anchor="middle" x="963" y="-335" font-family="Helvetica,sans-Serif" font-size="10.00">DataFolderPath</text>
</a>
</g>
</g>
<!-- Node4&#45;&gt;Node6 -->
<g id="edge5" class="edge">
<title>Node4&#45;&gt;Node6</title>
<path fill="none" stroke="midnightblue" d="M578.21,-342.19C664.45,-342.37 795.43,-342.65 879.86,-342.83"/>
<polygon fill="midnightblue" stroke="midnightblue" points="879.91,-346.33 889.92,-342.85 879.93,-339.33 879.91,-346.33"/>
</g>
<!-- Node8 -->
<g id="node8" class="node">
<title>Node8</title>
<g id="a_node8"><a xlink:href="classQuantConnect_1_1Logging_1_1Log.html#af0e7955911bc7664b37661b2a303a9e3" target="_top" xlink:title="Log error">
<polygon fill="white" stroke="black" points="647.5,-220 647.5,-250 797.5,-250 797.5,-220 647.5,-220"/>
<text text-anchor="start" x="655.5" y="-238" font-family="Helvetica,sans-Serif" font-size="10.00">QuantConnect.Logging.Log.</text>
<text text-anchor="middle" x="722.5" y="-227" font-family="Helvetica,sans-Serif" font-size="10.00">Error</text>
</a>
</g>
</g>
<!-- Node7&#45;&gt;Node8 -->
<g id="edge7" class="edge">
<title>Node7&#45;&gt;Node8</title>
<path fill="none" stroke="midnightblue" d="M561.72,-201.03C586.73,-206.35 615.03,-212.37 640.8,-217.84"/>
<polygon fill="midnightblue" stroke="midnightblue" points="640.4,-221.34 650.91,-219.99 641.86,-214.49 640.4,-221.34"/>
</g>
<!-- Node10 -->
<g id="node10" class="node">
<title>Node10</title>
<g id="a_node10"><a xlink:href="classQuantConnect_1_1Messages_1_1MarketHoursDatabase.html#af07138844a7ebc1a342f8b56a6be9917" target="_top" xlink:title="Returns a string message saying it was impossible to locate exchange hours for the given key....">
<polygon fill="white" stroke="black" points="614,-171 614,-201 831,-201 831,-171 614,-171"/>
<text text-anchor="start" x="622" y="-189" font-family="Helvetica,sans-Serif" font-size="10.00">QuantConnect.Messages.Market</text>
<text text-anchor="middle" x="722.5" y="-178" font-family="Helvetica,sans-Serif" font-size="10.00">HoursDatabase.ExchangeHoursNotFound</text>
</a>
</g>
</g>
<!-- Node7&#45;&gt;Node10 -->
<g id="edge9" class="edge">
<title>Node7&#45;&gt;Node10</title>
<path fill="none" stroke="midnightblue" d="M575.52,-186C584.67,-186 594.1,-186 603.56,-186"/>
<polygon fill="midnightblue" stroke="midnightblue" points="603.82,-189.5 613.82,-186 603.82,-182.5 603.82,-189.5"/>
</g>
<!-- Node11 -->
<g id="node11" class="node">
<title>Node11</title>
<g id="a_node11"><a xlink:href="classQuantConnect_1_1Securities_1_1SymbolPropertiesDatabase.html#aee26fb588793fd311c44eb8b2909cc33" target="_top" xlink:title="Gets the instance of the SymbolPropertiesDatabase class produced by reading in the symbol properties ...">
<polygon fill="white" stroke="black" points="634,-269.5 634,-310.5 811,-310.5 811,-269.5 634,-269.5"/>
<text text-anchor="start" x="642" y="-298.5" font-family="Helvetica,sans-Serif" font-size="10.00">QuantConnect.Securities.</text>
<text text-anchor="start" x="642" y="-287.5" font-family="Helvetica,sans-Serif" font-size="10.00">SymbolPropertiesDatabase.From</text>
<text text-anchor="middle" x="722.5" y="-276.5" font-family="Helvetica,sans-Serif" font-size="10.00">DataFolder</text>
</a>
</g>
</g>
<!-- Node7&#45;&gt;Node11 -->
<g id="edge10" class="edge">
<title>Node7&#45;&gt;Node11</title>
<path fill="none" stroke="midnightblue" d="M512.26,-201.24C536.06,-217.69 576.24,-243.73 614,-260 619,-262.16 624.21,-264.2 629.5,-266.13"/>
<polygon fill="midnightblue" stroke="midnightblue" points="628.52,-269.5 639.12,-269.49 630.83,-262.89 628.52,-269.5"/>
</g>
<!-- Node14 -->
<g id="node14" class="node">
<title>Node14</title>
<g id="a_node14"><a xlink:href="classQuantConnect_1_1Messages_1_1MarketHoursDatabase.html#a656d4c4976d6c12d2d865ad34fb23c42" target="_top" xlink:title="Returns a string message that suggests the given market based on the provided ticker">
<polygon fill="white" stroke="black" points="618,-110.5 618,-151.5 827,-151.5 827,-110.5 618,-110.5"/>
<text text-anchor="start" x="626" y="-139.5" font-family="Helvetica,sans-Serif" font-size="10.00">QuantConnect.Messages.Market</text>
<text text-anchor="start" x="626" y="-128.5" font-family="Helvetica,sans-Serif" font-size="10.00">HoursDatabase.SuggestedMarketBased</text>
<text text-anchor="middle" x="722.5" y="-117.5" font-family="Helvetica,sans-Serif" font-size="10.00">OnTicker</text>
</a>
</g>
</g>
<!-- Node7&#45;&gt;Node14 -->
<g id="edge14" class="edge">
<title>Node7&#45;&gt;Node14</title>
<path fill="none" stroke="midnightblue" d="M553.99,-170.97C576.01,-165.72 601.27,-159.69 625.37,-153.94"/>
<polygon fill="midnightblue" stroke="midnightblue" points="626.35,-157.3 635.26,-151.58 624.72,-150.49 626.35,-157.3"/>
</g>
<!-- Node15 -->
<g id="node15" class="node">
<title>Node15</title>
<g id="a_node15"><a xlink:href="classQuantConnect_1_1Securities_1_1MarketHoursDatabase.html#a3eedd1459368e8f50da2cedfc7508006" target="_top" xlink:title="Tries to get the entry for the specified market/symbol/security&#45;type">
<polygon fill="white" stroke="black" points="630,-61 630,-91 815,-91 815,-61 630,-61"/>
<text text-anchor="start" x="638" y="-79" font-family="Helvetica,sans-Serif" font-size="10.00">QuantConnect.Securities.</text>
<text text-anchor="middle" x="722.5" y="-68" font-family="Helvetica,sans-Serif" font-size="10.00">MarketHoursDatabase.TryGetEntry</text>
</a>
</g>
</g>
<!-- Node7&#45;&gt;Node15 -->
<g id="edge15" class="edge">
<title>Node7&#45;&gt;Node15</title>
<path fill="none" stroke="midnightblue" d="M563.4,-170.89C568.58,-168.37 573.52,-165.43 578,-162 603,-142.86 588.62,-119.62 614,-101 616.54,-99.13 619.21,-97.4 621.96,-95.8"/>
<polygon fill="midnightblue" stroke="midnightblue" points="623.76,-98.81 631.03,-91.1 620.55,-92.59 623.76,-98.81"/>
</g>
<!-- Node17 -->
<g id="node17" class="node">
<title>Node17</title>
<g id="a_node17"><a xlink:href="classQuantConnect_1_1Securities_1_1SymbolPropertiesDatabase.html#a5a7baeddd03bfc7fb60cef8ab2e6834b" target="_top" xlink:title="Tries to get the market for the provided symbol/security type">
<polygon fill="white" stroke="black" points="639,-0.5 639,-41.5 806,-41.5 806,-0.5 639,-0.5"/>
<text text-anchor="start" x="647" y="-29.5" font-family="Helvetica,sans-Serif" font-size="10.00">QuantConnect.Securities.</text>
<text text-anchor="start" x="647" y="-18.5" font-family="Helvetica,sans-Serif" font-size="10.00">SymbolPropertiesDatabase.Try</text>
<text text-anchor="middle" x="722.5" y="-7.5" font-family="Helvetica,sans-Serif" font-size="10.00">GetMarket</text>
</a>
</g>
</g>
<!-- Node7&#45;&gt;Node17 -->
<g id="edge17" class="edge">
<title>Node7&#45;&gt;Node17</title>
<path fill="none" stroke="midnightblue" d="M565.94,-170.99C570.3,-168.44 574.38,-165.47 578,-162 615.48,-126.15 576.57,-86.9 614,-51 618.68,-46.51 623.97,-42.68 629.64,-39.42"/>
<polygon fill="midnightblue" stroke="midnightblue" points="631.5,-42.4 638.82,-34.74 628.32,-36.16 631.5,-42.4"/>
</g>
<!-- Node9 -->
<g id="node9" class="node">
<title>Node9</title>
<g id="a_node9"><a xlink:href="interfaceQuantConnect_1_1Logging_1_1ILogHandler.html#a35373a0c5d76031fa5ccf5dc39e5c25d" target="_top" xlink:title="Write error message to log">
<polygon fill="white" stroke="black" points="888,-218 888,-248 1038,-248 1038,-218 888,-218"/>
<text text-anchor="start" x="896" y="-236" font-family="Helvetica,sans-Serif" font-size="10.00">QuantConnect.Logging.ILog</text>
<text text-anchor="middle" x="963" y="-225" font-family="Helvetica,sans-Serif" font-size="10.00">Handler.Error</text>
</a>
</g>
</g>
<!-- Node8&#45;&gt;Node9 -->
<g id="edge8" class="edge">
<title>Node8&#45;&gt;Node9</title>
<path fill="none" stroke="midnightblue" d="M797.66,-234.38C823.01,-234.17 851.55,-233.93 877.64,-233.71"/>
<polygon fill="midnightblue" stroke="midnightblue" points="877.92,-237.21 887.89,-233.62 877.86,-230.21 877.92,-237.21"/>
</g>
<!-- Node11&#45;&gt;Node6 -->
<g id="edge11" class="edge">
<title>Node11&#45;&gt;Node6</title>
<path fill="none" stroke="midnightblue" d="M811.29,-309.51C835.23,-314.83 861,-320.55 884.33,-325.74"/>
<polygon fill="midnightblue" stroke="midnightblue" points="883.65,-329.17 894.17,-327.93 885.17,-322.34 883.65,-329.17"/>
</g>
<!-- Node12 -->
<g id="node12" class="node">
<title>Node12</title>
<g id="a_node12"><a xlink:href="classQuantConnect_1_1Securities_1_1SymbolPropertiesDatabase.html#a1658f93bf0dce7022bb7584e1a95cc7a" target="_top" xlink:title="Initialize a new instance of SymbolPropertiesDatabase using the given file">
<polygon fill="white" stroke="black" points="868.5,-267.5 868.5,-308.5 1057.5,-308.5 1057.5,-267.5 868.5,-267.5"/>
<text text-anchor="start" x="876.5" y="-296.5" font-family="Helvetica,sans-Serif" font-size="10.00">QuantConnect.Securities.</text>
<text text-anchor="start" x="876.5" y="-285.5" font-family="Helvetica,sans-Serif" font-size="10.00">SymbolPropertiesDatabase.Symbol</text>
<text text-anchor="middle" x="963" y="-274.5" font-family="Helvetica,sans-Serif" font-size="10.00">PropertiesDatabase</text>
</a>
</g>
</g>
<!-- Node11&#45;&gt;Node12 -->
<g id="edge12" class="edge">
<title>Node11&#45;&gt;Node12</title>
<path fill="none" stroke="midnightblue" d="M811.29,-289.26C826.55,-289.14 842.54,-289 858.17,-288.87"/>
<polygon fill="midnightblue" stroke="midnightblue" points="858.41,-292.37 868.38,-288.79 858.35,-285.37 858.41,-292.37"/>
</g>
<!-- Node13 -->
<g id="node13" class="node">
<title>Node13</title>
<g id="a_node13"><a xlink:href="classQuantConnect_1_1Messages_1_1SymbolPropertiesDatabase.html#a6abceae517a349a28223bfc2dc9106d7" target="_top" xlink:title="Returns a string saying a duplicated key was found while processing the given file">
<polygon fill="white" stroke="black" points="1095,-267.5 1095,-308.5 1275,-308.5 1275,-267.5 1095,-267.5"/>
<text text-anchor="start" x="1103" y="-296.5" font-family="Helvetica,sans-Serif" font-size="10.00">QuantConnect.Messages.Symbol</text>
<text text-anchor="start" x="1103" y="-285.5" font-family="Helvetica,sans-Serif" font-size="10.00">PropertiesDatabase.DuplicateKey</text>
<text text-anchor="middle" x="1185" y="-274.5" font-family="Helvetica,sans-Serif" font-size="10.00">InFile</text>
</a>
</g>
</g>
<!-- Node12&#45;&gt;Node13 -->
<g id="edge13" class="edge">
<title>Node12&#45;&gt;Node13</title>
<path fill="none" stroke="midnightblue" d="M1057.62,-288C1066.54,-288 1075.61,-288 1084.58,-288"/>
<polygon fill="midnightblue" stroke="midnightblue" points="1084.66,-291.5 1094.66,-288 1084.66,-284.5 1084.66,-291.5"/>
</g>
<!-- Node16 -->
<g id="node16" class="node">
<title>Node16</title>
<g id="a_node16"><a xlink:href="classQuantConnect_1_1Securities_1_1MarketHoursDatabase.html#aa717adb9bb04be931913608ffd5a2733" target="_top" xlink:title="Gets the correct string symbol to use as a database key">
<polygon fill="white" stroke="black" points="867,-55.5 867,-96.5 1059,-96.5 1059,-55.5 867,-55.5"/>
<text text-anchor="start" x="875" y="-84.5" font-family="Helvetica,sans-Serif" font-size="10.00">QuantConnect.Securities.</text>
<text text-anchor="start" x="875" y="-73.5" font-family="Helvetica,sans-Serif" font-size="10.00">MarketHoursDatabase.GetDatabase</text>
<text text-anchor="middle" x="963" y="-62.5" font-family="Helvetica,sans-Serif" font-size="10.00">SymbolKey</text>
</a>
</g>
</g>
<!-- Node15&#45;&gt;Node16 -->
<g id="edge16" class="edge">
<title>Node15&#45;&gt;Node16</title>
<path fill="none" stroke="midnightblue" d="M815.03,-76C828.66,-76 842.81,-76 856.7,-76"/>
<polygon fill="midnightblue" stroke="midnightblue" points="856.76,-79.5 866.76,-76 856.76,-72.5 856.76,-79.5"/>
</g>
</g>
</svg>
        <g id="navigator" transform="translate(0 0)" fill="#404254">
                <rect fill="#f2f5e9" fill-opacity="0.5" stroke="#606060" stroke-width=".5" x="0" y="0" width="60" height="60"/>
                <use id="zoomplus" xlink:href="#zoomPlus" x="17" y="9" onmousedown="handleZoom(evt,'in')"/>
                <use id="zoomminus" xlink:href="#zoomMin" x="42" y="9" onmousedown="handleZoom(evt,'out')"/>
                <use id="reset" xlink:href="#resetDef" x="30" y="36" onmousedown="handleReset()"/>
                <g id="arrowUp" xlink:href="#dirArrow" transform="translate(30 24)" onmousedown="handlePan(0,-1)">
                  <use xlink:href="#rim" fill="#404040">
                        <set attributeName="fill" to="#808080" begin="arrowUp.mouseover" end="arrowUp.mouseout"/>
                  </use>
                  <path fill="none" stroke="white" stroke-width="1.5" d="M0,-3.0v7 M-2.5,-0.5L0,-3.0L2.5,-0.5"/>
                </g>
                <g id="arrowRight" xlink:href="#dirArrow" transform="rotate(90) translate(36 -43)" onmousedown="handlePan(1,0)">
                  <use xlink:href="#rim" fill="#404040">
                        <set attributeName="fill" to="#808080" begin="arrowRight.mouseover" end="arrowRight.mouseout"/>
                  </use>
                  <path fill="none" stroke="white" stroke-width="1.5" d="M0,-3.0v7 M-2.5,-0.5L0,-3.0L2.5,-0.5"/>
                </g>
                <g id="arrowDown" xlink:href="#dirArrow" transform="rotate(180) translate(-30 -48)" onmousedown="handlePan(0,1)">
                  <use xlink:href="#rim" fill="#404040">
                        <set attributeName="fill" to="#808080" begin="arrowDown.mouseover" end="arrowDown.mouseout"/>
                  </use>
                  <path fill="none" stroke="white" stroke-width="1.5" d="M0,-3.0v7 M-2.5,-0.5L0,-3.0L2.5,-0.5"/>
                </g>
                <g id="arrowLeft" xlink:href="#dirArrow" transform="rotate(270) translate(-36 17)" onmousedown="handlePan(-1,0)">
                  <use xlink:href="#rim" fill="#404040">
                        <set attributeName="fill" to="#808080" begin="arrowLeft.mouseover" end="arrowLeft.mouseout"/>
                  </use>
                  <path fill="none" stroke="white" stroke-width="1.5" d="M0,-3.0v7 M-2.5,-0.5L0,-3.0L2.5,-0.5"/>
                </g>
        </g>
        <svg viewBox="0 0 15 15" width="100%" height="30px" preserveAspectRatio="xMaxYMin meet">
         <g id="arrow_out" transform="scale(0.3 0.3)">
          <a xlink:href="classQuantConnect_1_1Extensions_a0ffdbe5701923c4217f90dd5fbe87641_cgraph_org.svg" target="_base">
           <rect id="button" ry="5" rx="5" y="6" x="6" height="38" width="38"
                fill="#f2f5e9" fill-opacity="0.5" stroke="#606060" stroke-width="1.0"/>
           <path id="arrow"
             d="M 11.500037,31.436501 C 11.940474,20.09759 22.043105,11.32322 32.158766,21.979434 L 37.068811,17.246167 C 37.068811,17.246167 37.088388,32 37.088388,32 L 22.160133,31.978069 C 22.160133,31.978069 26.997745,27.140456 26.997745,27.140456 C 18.528582,18.264221 13.291696,25.230495 11.500037,31.436501 z"
             style="fill:#404040;"/>
          </a>
         </g>
        </svg>
</svg>
