<?xml version="1.0" encoding="UTF-8" standalone="no"?>
<!DOCTYPE svg PUBLIC "-//W3C//DTD SVG 1.1//EN"
 "http://www.w3.org/Graphics/SVG/1.1/DTD/svg11.dtd">
<!-- Generated by graphviz version 2.43.0 (0)
 -->
<!-- Title: QuantConnect.Brokerages.BinanceCoinFuturesBrokerageModel.GetBenchmark Pages: 1 -->
<!--zoomable 627 -->
<svg id="main" version="1.1" xmlns="http://www.w3.org/2000/svg" xmlns:xlink="http://www.w3.org/1999/xlink" xml:space="preserve" onload="init(evt)">
<style type="text/css"><![CDATA[
.edge:hover path { stroke: red; }
.edge:hover polygon { stroke: red; fill: red; }
]]></style>
<script type="text/javascript"><![CDATA[
var edges = document.getElementsByTagName('g');
if (edges && edges.length) {
  for (var i=0;i<edges.length;i++) {
    if (edges[i].id.substr(0,4)=='edge') {
      edges[i].setAttribute('class','edge');
    }
  }
}
]]></script>
        <defs>
                <circle id="rim" cx="0" cy="0" r="7"/>
                <circle id="rim2" cx="0" cy="0" r="3.5"/>
                <g id="zoomPlus">
                        <use xlink:href="#rim" fill="#404040">
                                <set attributeName="fill" to="#808080" begin="zoomplus.mouseover" end="zoomplus.mouseout"/>
                        </use>
                        <path d="M-4,0h8M0,-4v8" fill="none" stroke="white" stroke-width="1.5" pointer-events="none"/>
                </g>
                <g id="zoomMin">
                        <use xlink:href="#rim" fill="#404040">
                                <set attributeName="fill" to="#808080" begin="zoomminus.mouseover" end="zoomminus.mouseout"/>
                        </use>
                        <path d="M-4,0h8" fill="none" stroke="white" stroke-width="1.5" pointer-events="none"/>
                </g>
                <g id="dirArrow">
                        <path fill="none" stroke="white" stroke-width="1.5" d="M0,-3.0v7 M-2.5,-0.5L0,-3.0L2.5,-0.5"/>
                </g>
               <g id="resetDef">
                       <use xlink:href="#rim2" fill="#404040">
                               <set attributeName="fill" to="#808080" begin="reset.mouseover" end="reset.mouseout"/>
                       </use>
               </g>
        </defs>

<script type="text/javascript">
var viewWidth = 1640;
var viewHeight = 627;
var sectionId = 'dynsection-1';
</script>
<script xlink:href="svgpan.js"/>
<svg id="graph" class="graph">
<g id="viewport">
<title>QuantConnect.Brokerages.BinanceCoinFuturesBrokerageModel.GetBenchmark</title>
<polygon fill="white" stroke="transparent" points="-4,4 -4,-622.88 1636,-622.88 1636,4 -4,4"/>
<!-- Node1 -->
<g id="node1" class="node">
<title>Node1</title>
<g id="a_node1"><a xlink:title="Get the benchmark for this model">
<polygon fill="#bfbfbf" stroke="black" points="0,-175 0,-216 196,-216 196,-175 0,-175"/>
<text text-anchor="start" x="8" y="-204" font-family="Helvetica,sans-Serif" font-size="10.00">QuantConnect.Brokerages.</text>
<text text-anchor="start" x="8" y="-193" font-family="Helvetica,sans-Serif" font-size="10.00">BinanceCoinFuturesBrokerageModel.</text>
<text text-anchor="middle" x="98" y="-182" font-family="Helvetica,sans-Serif" font-size="10.00">GetBenchmark</text>
</a>
</g>
</g>
<!-- Node2 -->
<g id="node2" class="node">
<title>Node2</title>
<g id="a_node2"><a xlink:href="classQuantConnect_1_1Symbol.html#a350b9a625cf7bad95da82894be3cd0a8" target="_top" xlink:title="Provides a convenience method for creating a Symbol for most security types. This method currently do...">
<polygon fill="white" stroke="black" points="245.5,-336 245.5,-355 406.5,-355 406.5,-336 245.5,-336"/>
<text text-anchor="middle" x="326" y="-343" font-family="Helvetica,sans-Serif" font-size="10.00">QuantConnect.Symbol.Create</text>
</a>
</g>
</g>
<!-- Node1&#45;&gt;Node2 -->
<g id="edge1" class="edge">
<title>Node1&#45;&gt;Node2</title>
<path fill="none" stroke="midnightblue" d="M129.95,-216.04C175.92,-246.55 261.19,-303.15 302.03,-330.25"/>
<polygon fill="midnightblue" stroke="midnightblue" points="300.23,-333.26 310.5,-335.87 304.1,-327.43 300.23,-333.26"/>
</g>
<!-- Node20 -->
<g id="node20" class="node">
<title>Node20</title>
<g id="a_node20"><a xlink:href="classQuantConnect_1_1Benchmarks_1_1SecurityBenchmark.html#a40c97e12584a0fc70ffb48f9aead3287" target="_top" xlink:title="Helper function that will create a security with the given SecurityManager for a specific symbol and ...">
<polygon fill="white" stroke="black" points="232,-55.5 232,-85.5 420,-85.5 420,-55.5 232,-55.5"/>
<text text-anchor="start" x="240" y="-73.5" font-family="Helvetica,sans-Serif" font-size="10.00">QuantConnect.Benchmarks.</text>
<text text-anchor="middle" x="326" y="-62.5" font-family="Helvetica,sans-Serif" font-size="10.00">SecurityBenchmark.CreateInstance</text>
</a>
</g>
</g>
<!-- Node1&#45;&gt;Node20 -->
<g id="edge21" class="edge">
<title>Node1&#45;&gt;Node20</title>
<path fill="none" stroke="midnightblue" d="M136.07,-175C178.42,-151.58 247.25,-113.5 289.1,-90.35"/>
<polygon fill="midnightblue" stroke="midnightblue" points="290.8,-93.41 297.86,-85.51 287.42,-87.29 290.8,-93.41"/>
</g>
<!-- Node3 -->
<g id="node3" class="node">
<title>Node3</title>
<g id="a_node3"><a xlink:href="classQuantConnect_1_1Symbol.html#a7518a1932d1babbff128f2ba9666a78b" target="_top" xlink:title="Provides a convenience method for creating an option Symbol.">
<polygon fill="white" stroke="black" points="480.5,-541.5 480.5,-571.5 641.5,-571.5 641.5,-541.5 480.5,-541.5"/>
<text text-anchor="start" x="488.5" y="-559.5" font-family="Helvetica,sans-Serif" font-size="10.00">QuantConnect.Symbol.Create</text>
<text text-anchor="middle" x="561" y="-548.5" font-family="Helvetica,sans-Serif" font-size="10.00">Option</text>
</a>
</g>
</g>
<!-- Node2&#45;&gt;Node3 -->
<g id="edge2" class="edge">
<title>Node2&#45;&gt;Node3</title>
<path fill="none" stroke="midnightblue" d="M331.02,-355.08C344.16,-385.24 388.93,-479 456,-526.5 461.96,-530.72 468.5,-534.35 475.32,-537.47"/>
<polygon fill="midnightblue" stroke="midnightblue" points="474.17,-540.78 484.75,-541.42 476.88,-534.33 474.17,-540.78"/>
</g>
<!-- Node4 -->
<g id="node4" class="node">
<title>Node4</title>
<g id="a_node4"><a xlink:href="classQuantConnect_1_1SecurityIdentifier.html#a0c21d7880c9fdd260883d11ea0c99a00" target="_top" xlink:title="Helper overload that will search the mapfiles to resolve the first date. This implementation uses the...">
<polygon fill="white" stroke="black" points="706.5,-574.5 706.5,-604.5 880.5,-604.5 880.5,-574.5 706.5,-574.5"/>
<text text-anchor="start" x="714.5" y="-592.5" font-family="Helvetica,sans-Serif" font-size="10.00">QuantConnect.SecurityIdentifier.</text>
<text text-anchor="middle" x="793.5" y="-581.5" font-family="Helvetica,sans-Serif" font-size="10.00">GenerateEquity</text>
</a>
</g>
</g>
<!-- Node2&#45;&gt;Node4 -->
<g id="edge15" class="edge">
<title>Node2&#45;&gt;Node4</title>
<path fill="none" stroke="midnightblue" d="M328.73,-355.02C336.06,-392.18 368.27,-528.05 456,-581.5 537.74,-631.3 652.64,-620.65 724.8,-606.51"/>
<polygon fill="midnightblue" stroke="midnightblue" points="725.59,-609.93 734.69,-604.5 724.19,-603.07 725.59,-609.93"/>
</g>
<!-- Node5 -->
<g id="node5" class="node">
<title>Node5</title>
<g id="a_node5"><a xlink:href="classQuantConnect_1_1Symbol.html#a59158f74116be3dad0ea0f3f3f134416" target="_top" xlink:title="Initializes a new instance of the Symbol class">
<polygon fill="white" stroke="black" points="711,-514 711,-533 876,-533 876,-514 711,-514"/>
<text text-anchor="middle" x="793.5" y="-521" font-family="Helvetica,sans-Serif" font-size="10.00">QuantConnect.Symbol.Symbol</text>
</a>
</g>
</g>
<!-- Node2&#45;&gt;Node5 -->
<g id="edge20" class="edge">
<title>Node2&#45;&gt;Node5</title>
<path fill="none" stroke="midnightblue" d="M332.03,-355.36C346.71,-382.98 392.53,-461.15 456,-493.5 497.3,-514.55 615.9,-521.04 700.59,-522.93"/>
<polygon fill="midnightblue" stroke="midnightblue" points="700.67,-526.43 710.74,-523.14 700.81,-519.43 700.67,-526.43"/>
</g>
<!-- Node11 -->
<g id="node11" class="node">
<title>Node11</title>
<g id="a_node11"><a xlink:href="classQuantConnect_1_1SecurityIdentifier.html#a02ca750115844561c001c2346fbafc00" target="_top" xlink:title="Generates a new SecurityIdentifier for a custom security with the option of providing the first date">
<polygon fill="white" stroke="black" points="474,-453.5 474,-483.5 648,-483.5 648,-453.5 474,-453.5"/>
<text text-anchor="start" x="482" y="-471.5" font-family="Helvetica,sans-Serif" font-size="10.00">QuantConnect.SecurityIdentifier.</text>
<text text-anchor="middle" x="561" y="-460.5" font-family="Helvetica,sans-Serif" font-size="10.00">GenerateBase</text>
</a>
</g>
</g>
<!-- Node2&#45;&gt;Node11 -->
<g id="edge10" class="edge">
<title>Node2&#45;&gt;Node11</title>
<path fill="none" stroke="midnightblue" d="M336.38,-355.07C356.42,-374.94 405.7,-420.78 456,-444.5 460.33,-446.54 464.84,-448.42 469.46,-450.13"/>
<polygon fill="midnightblue" stroke="midnightblue" points="468.46,-453.49 479.06,-453.45 470.75,-446.88 468.46,-453.49"/>
</g>
<!-- Node13 -->
<g id="node13" class="node">
<title>Node13</title>
<g id="a_node13"><a xlink:href="classQuantConnect_1_1SecurityIdentifier.html#a53953b18d814c5445e4ecdcb3b555080" target="_top" xlink:title="Generates a new SecurityIdentifier for a CFD security">
<polygon fill="white" stroke="black" points="474,-404.5 474,-434.5 648,-434.5 648,-404.5 474,-404.5"/>
<text text-anchor="start" x="482" y="-422.5" font-family="Helvetica,sans-Serif" font-size="10.00">QuantConnect.SecurityIdentifier.</text>
<text text-anchor="middle" x="561" y="-411.5" font-family="Helvetica,sans-Serif" font-size="10.00">GenerateCfd</text>
</a>
</g>
</g>
<!-- Node2&#45;&gt;Node13 -->
<g id="edge12" class="edge">
<title>Node2&#45;&gt;Node13</title>
<path fill="none" stroke="midnightblue" d="M349.03,-355.15C374.44,-366.03 417.66,-383.71 456,-395.5 463.35,-397.76 471.04,-399.92 478.79,-401.95"/>
<polygon fill="midnightblue" stroke="midnightblue" points="478.04,-405.37 488.59,-404.44 479.77,-398.58 478.04,-405.37"/>
</g>
<!-- Node14 -->
<g id="node14" class="node">
<title>Node14</title>
<g id="a_node14"><a xlink:href="classQuantConnect_1_1SecurityIdentifier.html#a5889a95a36ce927dd0a109cbfbcbe663" target="_top" xlink:title="Generates a new SecurityIdentifier for a Crypto pair">
<polygon fill="white" stroke="black" points="474,-355.5 474,-385.5 648,-385.5 648,-355.5 474,-355.5"/>
<text text-anchor="start" x="482" y="-373.5" font-family="Helvetica,sans-Serif" font-size="10.00">QuantConnect.SecurityIdentifier.</text>
<text text-anchor="middle" x="561" y="-362.5" font-family="Helvetica,sans-Serif" font-size="10.00">GenerateCrypto</text>
</a>
</g>
</g>
<!-- Node2&#45;&gt;Node14 -->
<g id="edge13" class="edge">
<title>Node2&#45;&gt;Node14</title>
<path fill="none" stroke="midnightblue" d="M406.53,-354.03C424.86,-356 444.55,-358.11 463.51,-360.15"/>
<polygon fill="midnightblue" stroke="midnightblue" points="463.33,-363.65 473.65,-361.23 464.08,-356.69 463.33,-363.65"/>
</g>
<!-- Node15 -->
<g id="node15" class="node">
<title>Node15</title>
<g id="a_node15"><a xlink:href="classQuantConnect_1_1SecurityIdentifier.html#ac665665a16d5449872fed3427b95a260" target="_top" xlink:title="Generates a new SecurityIdentifier for a CryptoFuture pair">
<polygon fill="white" stroke="black" points="474,-306.5 474,-336.5 648,-336.5 648,-306.5 474,-306.5"/>
<text text-anchor="start" x="482" y="-324.5" font-family="Helvetica,sans-Serif" font-size="10.00">QuantConnect.SecurityIdentifier.</text>
<text text-anchor="middle" x="561" y="-313.5" font-family="Helvetica,sans-Serif" font-size="10.00">GenerateCryptoFuture</text>
</a>
</g>
</g>
<!-- Node2&#45;&gt;Node15 -->
<g id="edge14" class="edge">
<title>Node2&#45;&gt;Node15</title>
<path fill="none" stroke="midnightblue" d="M406.53,-337.31C424.86,-335.42 444.55,-333.39 463.51,-331.44"/>
<polygon fill="midnightblue" stroke="midnightblue" points="464.06,-334.9 473.65,-330.39 463.34,-327.94 464.06,-334.9"/>
</g>
<!-- Node16 -->
<g id="node16" class="node">
<title>Node16</title>
<g id="a_node16"><a xlink:href="classQuantConnect_1_1SecurityIdentifier.html#a9cf0d3b208a5171e6112516ce441f18d" target="_top" xlink:title="Generates a new SecurityIdentifier for a forex pair">
<polygon fill="white" stroke="black" points="474,-257.5 474,-287.5 648,-287.5 648,-257.5 474,-257.5"/>
<text text-anchor="start" x="482" y="-275.5" font-family="Helvetica,sans-Serif" font-size="10.00">QuantConnect.SecurityIdentifier.</text>
<text text-anchor="middle" x="561" y="-264.5" font-family="Helvetica,sans-Serif" font-size="10.00">GenerateForex</text>
</a>
</g>
</g>
<!-- Node2&#45;&gt;Node16 -->
<g id="edge16" class="edge">
<title>Node2&#45;&gt;Node16</title>
<path fill="none" stroke="midnightblue" d="M350.02,-335.98C375.6,-325.62 418.29,-309 456,-297.5 464.54,-294.89 473.55,-292.38 482.54,-290.03"/>
<polygon fill="midnightblue" stroke="midnightblue" points="483.45,-293.41 492.27,-287.53 481.71,-286.63 483.45,-293.41"/>
</g>
<!-- Node17 -->
<g id="node17" class="node">
<title>Node17</title>
<g id="a_node17"><a xlink:href="classQuantConnect_1_1SecurityIdentifier.html#ad50a891c97cb0c084a9e2aa43607ed66" target="_top" xlink:title="Generates a new SecurityIdentifier for a future">
<polygon fill="white" stroke="black" points="474,-208.5 474,-238.5 648,-238.5 648,-208.5 474,-208.5"/>
<text text-anchor="start" x="482" y="-226.5" font-family="Helvetica,sans-Serif" font-size="10.00">QuantConnect.SecurityIdentifier.</text>
<text text-anchor="middle" x="561" y="-215.5" font-family="Helvetica,sans-Serif" font-size="10.00">GenerateFuture</text>
</a>
</g>
</g>
<!-- Node2&#45;&gt;Node17 -->
<g id="edge17" class="edge">
<title>Node2&#45;&gt;Node17</title>
<path fill="none" stroke="midnightblue" d="M336.75,-335.87C357.09,-316.33 406.32,-271.91 456,-248.5 461.22,-246.04 466.7,-243.81 472.31,-241.79"/>
<polygon fill="midnightblue" stroke="midnightblue" points="473.48,-245.09 481.84,-238.58 471.25,-238.45 473.48,-245.09"/>
</g>
<!-- Node18 -->
<g id="node18" class="node">
<title>Node18</title>
<g id="a_node18"><a xlink:href="classQuantConnect_1_1SecurityIdentifier.html#ade05a8e57b041ab484cf585be8d05699" target="_top" xlink:title="Generates a new SecurityIdentifier for a INDEX security">
<polygon fill="white" stroke="black" points="474,-159.5 474,-189.5 648,-189.5 648,-159.5 474,-159.5"/>
<text text-anchor="start" x="482" y="-177.5" font-family="Helvetica,sans-Serif" font-size="10.00">QuantConnect.SecurityIdentifier.</text>
<text text-anchor="middle" x="561" y="-166.5" font-family="Helvetica,sans-Serif" font-size="10.00">GenerateIndex</text>
</a>
</g>
</g>
<!-- Node2&#45;&gt;Node18 -->
<g id="edge18" class="edge">
<title>Node2&#45;&gt;Node18</title>
<path fill="none" stroke="midnightblue" d="M332.55,-335.85C348.23,-309.48 395.71,-235.76 456,-199.5 459.63,-197.32 463.43,-195.33 467.35,-193.51"/>
<polygon fill="midnightblue" stroke="midnightblue" points="468.83,-196.69 476.69,-189.58 466.11,-190.24 468.83,-196.69"/>
</g>
<!-- Node19 -->
<g id="node19" class="node">
<title>Node19</title>
<g id="a_node19"><a xlink:href="classQuantConnect_1_1Messages_1_1Symbol.html#ab801bef52a308b8ba7ba6d42e1ef1988" target="_top" xlink:title="Returns a string message saying the given security type has not been implemented yet">
<polygon fill="white" stroke="black" points="471,-110.5 471,-140.5 651,-140.5 651,-110.5 471,-110.5"/>
<text text-anchor="start" x="479" y="-128.5" font-family="Helvetica,sans-Serif" font-size="10.00">QuantConnect.Messages.Symbol.</text>
<text text-anchor="middle" x="561" y="-117.5" font-family="Helvetica,sans-Serif" font-size="10.00">SecurityTypeNotImplementedYet</text>
</a>
</g>
</g>
<!-- Node2&#45;&gt;Node19 -->
<g id="edge19" class="edge">
<title>Node2&#45;&gt;Node19</title>
<path fill="none" stroke="midnightblue" d="M330.37,-335.95C342.12,-304.08 384.52,-200.58 456,-150.5 458.86,-148.49 461.87,-146.65 464.97,-144.95"/>
<polygon fill="midnightblue" stroke="midnightblue" points="466.54,-148.08 473.98,-140.54 463.46,-141.79 466.54,-148.08"/>
</g>
<!-- Node3&#45;&gt;Node4 -->
<g id="edge3" class="edge">
<title>Node3&#45;&gt;Node4</title>
<path fill="none" stroke="midnightblue" d="M641.65,-567.9C659.21,-570.42 678.01,-573.11 696.15,-575.71"/>
<polygon fill="midnightblue" stroke="midnightblue" points="695.76,-579.19 706.16,-577.14 696.76,-572.26 695.76,-579.19"/>
</g>
<!-- Node3&#45;&gt;Node5 -->
<g id="edge4" class="edge">
<title>Node3&#45;&gt;Node5</title>
<path fill="none" stroke="midnightblue" d="M641.65,-545.1C665.67,-541.66 691.99,-537.89 715.81,-534.48"/>
<polygon fill="midnightblue" stroke="midnightblue" points="716.46,-537.92 725.86,-533.04 715.46,-530.99 716.46,-537.92"/>
</g>
<!-- Node6 -->
<g id="node6" class="node">
<title>Node6</title>
<g id="a_node6"><a xlink:href="classQuantConnect_1_1Symbol.html#a59b0795fa21f46c306deb5576fa03bb9" target="_top" xlink:title="Centralized helper method to resolve alias for a symbol">
<polygon fill="white" stroke="black" points="921,-514 921,-533 1091,-533 1091,-514 921,-514"/>
<text text-anchor="middle" x="1006" y="-521" font-family="Helvetica,sans-Serif" font-size="10.00">QuantConnect.Symbol.GetAlias</text>
</a>
</g>
</g>
<!-- Node5&#45;&gt;Node6 -->
<g id="edge5" class="edge">
<title>Node5&#45;&gt;Node6</title>
<path fill="none" stroke="midnightblue" d="M876.19,-523.5C887.54,-523.5 899.27,-523.5 910.83,-523.5"/>
<polygon fill="midnightblue" stroke="midnightblue" points="910.93,-527 920.93,-523.5 910.93,-520 910.93,-527"/>
</g>
<!-- Node7 -->
<g id="node7" class="node">
<title>Node7</title>
<g id="a_node7"><a xlink:href="classQuantConnect_1_1SymbolRepresentation.html#ad43ac907f6c19083821f58f21c6de017" target="_top" xlink:title="Returns future symbol ticker from underlying and expiration date. Function can generate tickers of tw...">
<polygon fill="white" stroke="black" points="1127,-536.5 1127,-566.5 1330,-566.5 1330,-536.5 1127,-536.5"/>
<text text-anchor="start" x="1135" y="-554.5" font-family="Helvetica,sans-Serif" font-size="10.00">QuantConnect.SymbolRepresentation.</text>
<text text-anchor="middle" x="1228.5" y="-543.5" font-family="Helvetica,sans-Serif" font-size="10.00">GenerateFutureTicker</text>
</a>
</g>
</g>
<!-- Node6&#45;&gt;Node7 -->
<g id="edge6" class="edge">
<title>Node6&#45;&gt;Node7</title>
<path fill="none" stroke="midnightblue" d="M1081.96,-533.02C1093.27,-534.46 1105.14,-535.96 1117.01,-537.47"/>
<polygon fill="midnightblue" stroke="midnightblue" points="1116.62,-540.95 1126.98,-538.74 1117.5,-534 1116.62,-540.95"/>
</g>
<!-- Node9 -->
<g id="node9" class="node">
<title>Node9</title>
<g id="a_node9"><a xlink:href="classQuantConnect_1_1SymbolRepresentation.html#ab133044f5cf8c16e700190a2202b215e" target="_top" xlink:title="Returns option symbol ticker in accordance with OSI symbology More information can be found at http:/...">
<polygon fill="white" stroke="black" points="1127,-484.5 1127,-514.5 1330,-514.5 1330,-484.5 1127,-484.5"/>
<text text-anchor="start" x="1135" y="-502.5" font-family="Helvetica,sans-Serif" font-size="10.00">QuantConnect.SymbolRepresentation.</text>
<text text-anchor="middle" x="1228.5" y="-491.5" font-family="Helvetica,sans-Serif" font-size="10.00">GenerateOptionTickerOSI</text>
</a>
</g>
</g>
<!-- Node6&#45;&gt;Node9 -->
<g id="edge8" class="edge">
<title>Node6&#45;&gt;Node9</title>
<path fill="none" stroke="midnightblue" d="M1091.31,-514.32C1099.69,-513.41 1108.3,-512.47 1116.9,-511.54"/>
<polygon fill="midnightblue" stroke="midnightblue" points="1117.43,-515 1126.99,-510.44 1116.67,-508.04 1117.43,-515"/>
</g>
<!-- Node8 -->
<g id="node8" class="node">
<title>Node8</title>
<g id="a_node8"><a xlink:href="classQuantConnect_1_1Securities_1_1Future_1_1FuturesExpiryUtilityFunctions.html#a4ccb1e2f2fe40ff09785a74a02f26df1" target="_top" xlink:title="Gets the number of months between the contract month and the expiry date.">
<polygon fill="white" stroke="black" points="1366,-534 1366,-575 1632,-575 1632,-534 1366,-534"/>
<text text-anchor="start" x="1374" y="-563" font-family="Helvetica,sans-Serif" font-size="10.00">QuantConnect.Securities.</text>
<text text-anchor="start" x="1374" y="-552" font-family="Helvetica,sans-Serif" font-size="10.00">Future.FuturesExpiryUtilityFunctions.</text>
<text text-anchor="middle" x="1499" y="-541" font-family="Helvetica,sans-Serif" font-size="10.00">GetDeltaBetweenContractMonthAndContractExpiry</text>
</a>
</g>
</g>
<!-- Node7&#45;&gt;Node8 -->
<g id="edge7" class="edge">
<title>Node7&#45;&gt;Node8</title>
<path fill="none" stroke="midnightblue" d="M1330.24,-552.63C1338.59,-552.72 1347.11,-552.81 1355.68,-552.91"/>
<polygon fill="midnightblue" stroke="midnightblue" points="1355.72,-556.41 1365.76,-553.02 1355.8,-549.41 1355.72,-556.41"/>
</g>
<!-- Node10 -->
<g id="node10" class="node">
<title>Node10</title>
<g id="a_node10"><a xlink:href="classQuantConnect_1_1Messages_1_1SymbolRepresentation.html#a2c514157d8055cfa271ea3a7ca1ccde7" target="_top" xlink:title="Returns a string message saying an unexpected security type was received by the given method name">
<polygon fill="white" stroke="black" points="1403,-474 1403,-515 1595,-515 1595,-474 1403,-474"/>
<text text-anchor="start" x="1411" y="-503" font-family="Helvetica,sans-Serif" font-size="10.00">QuantConnect.Messages.Symbol</text>
<text text-anchor="start" x="1411" y="-492" font-family="Helvetica,sans-Serif" font-size="10.00">Representation.UnexpectedSecurity</text>
<text text-anchor="middle" x="1499" y="-481" font-family="Helvetica,sans-Serif" font-size="10.00">TypeForMethod</text>
</a>
</g>
</g>
<!-- Node9&#45;&gt;Node10 -->
<g id="edge9" class="edge">
<title>Node9&#45;&gt;Node10</title>
<path fill="none" stroke="midnightblue" d="M1330.24,-497.62C1350.7,-497.24 1372.27,-496.84 1392.88,-496.46"/>
<polygon fill="midnightblue" stroke="midnightblue" points="1392.98,-499.96 1402.91,-496.27 1392.85,-492.96 1392.98,-499.96"/>
</g>
<!-- Node12 -->
<g id="node12" class="node">
<title>Node12</title>
<g id="a_node12"><a xlink:href="classQuantConnect_1_1SecurityIdentifier.html#a19e1f9da410608020d74ed9e7d283575" target="_top" xlink:title="Generates the Symbol property for QuantConnect.SecurityType.Base security identifiers">
<polygon fill="white" stroke="black" points="706.5,-453.5 706.5,-483.5 880.5,-483.5 880.5,-453.5 706.5,-453.5"/>
<text text-anchor="start" x="714.5" y="-471.5" font-family="Helvetica,sans-Serif" font-size="10.00">QuantConnect.SecurityIdentifier.</text>
<text text-anchor="middle" x="793.5" y="-460.5" font-family="Helvetica,sans-Serif" font-size="10.00">GenerateBaseSymbol</text>
</a>
</g>
</g>
<!-- Node11&#45;&gt;Node12 -->
<g id="edge11" class="edge">
<title>Node11&#45;&gt;Node12</title>
<path fill="none" stroke="midnightblue" d="M648.16,-468.5C663.79,-468.5 680.18,-468.5 696.08,-468.5"/>
<polygon fill="midnightblue" stroke="midnightblue" points="696.45,-472 706.45,-468.5 696.45,-465 696.45,-472"/>
</g>
<!-- Node21 -->
<g id="node21" class="node">
<title>Node21</title>
<g id="a_node21"><a xlink:href="classQuantConnect_1_1Securities_1_1SecurityManager.html#a3ac388b31cf00c501b738b751427b883" target="_top" xlink:title="Creates a new benchmark security">
<polygon fill="white" stroke="black" points="466.5,-50 466.5,-91 655.5,-91 655.5,-50 466.5,-50"/>
<text text-anchor="start" x="474.5" y="-79" font-family="Helvetica,sans-Serif" font-size="10.00">QuantConnect.Securities.</text>
<text text-anchor="start" x="474.5" y="-68" font-family="Helvetica,sans-Serif" font-size="10.00">SecurityManager.CreateBenchmark</text>
<text text-anchor="middle" x="561" y="-57" font-family="Helvetica,sans-Serif" font-size="10.00">Security</text>
</a>
</g>
</g>
<!-- Node20&#45;&gt;Node21 -->
<g id="edge22" class="edge">
<title>Node20&#45;&gt;Node21</title>
<path fill="none" stroke="midnightblue" d="M420.09,-70.5C431.98,-70.5 444.2,-70.5 456.24,-70.5"/>
<polygon fill="midnightblue" stroke="midnightblue" points="456.29,-74 466.29,-70.5 456.29,-67 456.29,-74"/>
</g>
<!-- Node23 -->
<g id="node23" class="node">
<title>Node23</title>
<g id="a_node23"><a xlink:href="classQuantConnect_1_1Benchmarks_1_1SecurityBenchmark.html#a45a12b43bac87b210770258630e56622" target="_top" xlink:title="Initializes a new instance of the SecurityBenchmark class">
<polygon fill="white" stroke="black" points="456,-0.5 456,-30.5 666,-30.5 666,-0.5 456,-0.5"/>
<text text-anchor="start" x="464" y="-18.5" font-family="Helvetica,sans-Serif" font-size="10.00">QuantConnect.Benchmarks.</text>
<text text-anchor="middle" x="561" y="-7.5" font-family="Helvetica,sans-Serif" font-size="10.00">SecurityBenchmark.SecurityBenchmark</text>
</a>
</g>
</g>
<!-- Node20&#45;&gt;Node23 -->
<g id="edge24" class="edge">
<title>Node20&#45;&gt;Node23</title>
<path fill="none" stroke="midnightblue" d="M390.67,-55.47C420.33,-48.47 455.8,-40.1 486.59,-32.83"/>
<polygon fill="midnightblue" stroke="midnightblue" points="487.48,-36.21 496.41,-30.51 485.87,-29.4 487.48,-36.21"/>
</g>
<!-- Node22 -->
<g id="node22" class="node">
<title>Node22</title>
<g id="a_node22"><a xlink:href="classQuantConnect_1_1Securities_1_1SecurityService.html#aa449d8886d5728a00e44b9aea24ad036" target="_top" xlink:title="Creates a new security">
<polygon fill="white" stroke="black" points="702,-50 702,-91 885,-91 885,-50 702,-50"/>
<text text-anchor="start" x="710" y="-79" font-family="Helvetica,sans-Serif" font-size="10.00">QuantConnect.Securities.</text>
<text text-anchor="start" x="710" y="-68" font-family="Helvetica,sans-Serif" font-size="10.00">SecurityService.CreateBenchmark</text>
<text text-anchor="middle" x="793.5" y="-57" font-family="Helvetica,sans-Serif" font-size="10.00">Security</text>
</a>
</g>
</g>
<!-- Node21&#45;&gt;Node22 -->
<g id="edge23" class="edge">
<title>Node21&#45;&gt;Node22</title>
<path fill="none" stroke="midnightblue" d="M655.75,-70.5C667.63,-70.5 679.83,-70.5 691.81,-70.5"/>
<polygon fill="midnightblue" stroke="midnightblue" points="691.81,-74 701.81,-70.5 691.81,-67 691.81,-74"/>
</g>
</g>
</svg>
        <g id="navigator" transform="translate(0 0)" fill="#404254">
                <rect fill="#f2f5e9" fill-opacity="0.5" stroke="#606060" stroke-width=".5" x="0" y="0" width="60" height="60"/>
                <use id="zoomplus" xlink:href="#zoomPlus" x="17" y="9" onmousedown="handleZoom(evt,'in')"/>
                <use id="zoomminus" xlink:href="#zoomMin" x="42" y="9" onmousedown="handleZoom(evt,'out')"/>
                <use id="reset" xlink:href="#resetDef" x="30" y="36" onmousedown="handleReset()"/>
                <g id="arrowUp" xlink:href="#dirArrow" transform="translate(30 24)" onmousedown="handlePan(0,-1)">
                  <use xlink:href="#rim" fill="#404040">
                        <set attributeName="fill" to="#808080" begin="arrowUp.mouseover" end="arrowUp.mouseout"/>
                  </use>
                  <path fill="none" stroke="white" stroke-width="1.5" d="M0,-3.0v7 M-2.5,-0.5L0,-3.0L2.5,-0.5"/>
                </g>
                <g id="arrowRight" xlink:href="#dirArrow" transform="rotate(90) translate(36 -43)" onmousedown="handlePan(1,0)">
                  <use xlink:href="#rim" fill="#404040">
                        <set attributeName="fill" to="#808080" begin="arrowRight.mouseover" end="arrowRight.mouseout"/>
                  </use>
                  <path fill="none" stroke="white" stroke-width="1.5" d="M0,-3.0v7 M-2.5,-0.5L0,-3.0L2.5,-0.5"/>
                </g>
                <g id="arrowDown" xlink:href="#dirArrow" transform="rotate(180) translate(-30 -48)" onmousedown="handlePan(0,1)">
                  <use xlink:href="#rim" fill="#404040">
                        <set attributeName="fill" to="#808080" begin="arrowDown.mouseover" end="arrowDown.mouseout"/>
                  </use>
                  <path fill="none" stroke="white" stroke-width="1.5" d="M0,-3.0v7 M-2.5,-0.5L0,-3.0L2.5,-0.5"/>
                </g>
                <g id="arrowLeft" xlink:href="#dirArrow" transform="rotate(270) translate(-36 17)" onmousedown="handlePan(-1,0)">
                  <use xlink:href="#rim" fill="#404040">
                        <set attributeName="fill" to="#808080" begin="arrowLeft.mouseover" end="arrowLeft.mouseout"/>
                  </use>
                  <path fill="none" stroke="white" stroke-width="1.5" d="M0,-3.0v7 M-2.5,-0.5L0,-3.0L2.5,-0.5"/>
                </g>
        </g>
        <svg viewBox="0 0 15 15" width="100%" height="30px" preserveAspectRatio="xMaxYMin meet">
         <g id="arrow_out" transform="scale(0.3 0.3)">
          <a xlink:href="classQuantConnect_1_1Brokerages_1_1BinanceCoinFuturesBrokerageModel_addeb13fd25cf94c48a7a11d82bf0ca29_cgraph_org.svg" target="_base">
           <rect id="button" ry="5" rx="5" y="6" x="6" height="38" width="38"
                fill="#f2f5e9" fill-opacity="0.5" stroke="#606060" stroke-width="1.0"/>
           <path id="arrow"
             d="M 11.500037,31.436501 C 11.940474,20.09759 22.043105,11.32322 32.158766,21.979434 L 37.068811,17.246167 C 37.068811,17.246167 37.088388,32 37.088388,32 L 22.160133,31.978069 C 22.160133,31.978069 26.997745,27.140456 26.997745,27.140456 C 18.528582,18.264221 13.291696,25.230495 11.500037,31.436501 z"
             style="fill:#404040;"/>
          </a>
         </g>
        </svg>
</svg>
