<?xml version="1.0" encoding="UTF-8" standalone="no"?>
<!DOCTYPE svg PUBLIC "-//W3C//DTD SVG 1.1//EN"
 "http://www.w3.org/Graphics/SVG/1.1/DTD/svg11.dtd">
<!-- Generated by graphviz version 2.43.0 (0)
 -->
<!-- Title: QuantConnect.Data.Fundamental.FundamentalTimeDependentProperty Pages: 1 -->
<svg width="580pt" height="431pt"
 viewBox="0.00 0.00 580.00 431.00" xmlns="http://www.w3.org/2000/svg" xmlns:xlink="http://www.w3.org/1999/xlink">
<g id="graph0" class="graph" transform="scale(1 1) rotate(0) translate(4 427)">
<title>QuantConnect.Data.Fundamental.FundamentalTimeDependentProperty</title>
<polygon fill="white" stroke="transparent" points="-4,4 -4,-427 576,-427 576,4 -4,4"/>
<!-- Node1 -->
<g id="node1" class="node">
<title>Node1</title>
<g id="a_node1"><a xlink:title="Simple base class shared by top layer fundamental properties which depend on a time provider">
<polygon fill="#bfbfbf" stroke="black" points="154,-196.5 154,-226.5 354,-226.5 354,-196.5 154,-196.5"/>
<text text-anchor="start" x="162" y="-214.5" font-family="Helvetica,sans-Serif" font-size="10.00">QuantConnect.Data.Fundamental.</text>
<text text-anchor="middle" x="254" y="-203.5" font-family="Helvetica,sans-Serif" font-size="10.00">FundamentalTimeDependentProperty</text>
</a>
</g>
</g>
<!-- Node3 -->
<g id="node3" class="node">
<title>Node3</title>
<g id="a_node3"><a xlink:href="classQuantConnect_1_1Data_1_1Fundamental_1_1AssetClassification.html" target="_top" xlink:title="Definition of the AssetClassification class">
<polygon fill="white" stroke="black" points="390,-392.5 390,-422.5 572,-422.5 572,-392.5 390,-392.5"/>
<text text-anchor="start" x="398" y="-410.5" font-family="Helvetica,sans-Serif" font-size="10.00">QuantConnect.Data.Fundamental.</text>
<text text-anchor="middle" x="481" y="-399.5" font-family="Helvetica,sans-Serif" font-size="10.00">AssetClassification</text>
</a>
</g>
</g>
<!-- Node1&#45;&gt;Node3 -->
<g id="edge2" class="edge">
<title>Node1&#45;&gt;Node3</title>
<path fill="none" stroke="midnightblue" d="M267.33,-235.79C287.65,-273.33 331.82,-345.13 390,-383.5 395.27,-386.97 401.01,-389.94 406.98,-392.49"/>
<polygon fill="midnightblue" stroke="midnightblue" points="270.23,-233.79 262.45,-226.59 264.04,-237.07 270.23,-233.79"/>
</g>
<!-- Node4 -->
<g id="node4" class="node">
<title>Node4</title>
<g id="a_node4"><a xlink:href="classQuantConnect_1_1Data_1_1Fundamental_1_1CompanyProfile.html" target="_top" xlink:title="Definition of the CompanyProfile class">
<polygon fill="white" stroke="black" points="390,-343.5 390,-373.5 572,-373.5 572,-343.5 390,-343.5"/>
<text text-anchor="start" x="398" y="-361.5" font-family="Helvetica,sans-Serif" font-size="10.00">QuantConnect.Data.Fundamental.</text>
<text text-anchor="middle" x="481" y="-350.5" font-family="Helvetica,sans-Serif" font-size="10.00">CompanyProfile</text>
</a>
</g>
</g>
<!-- Node1&#45;&gt;Node4 -->
<g id="edge3" class="edge">
<title>Node1&#45;&gt;Node4</title>
<path fill="none" stroke="midnightblue" d="M273.98,-234.53C298.11,-262.31 342.38,-308.5 390,-334.5 396.25,-337.91 403,-340.86 409.91,-343.4"/>
<polygon fill="midnightblue" stroke="midnightblue" points="276.6,-232.21 267.44,-226.88 271.28,-236.75 276.6,-232.21"/>
</g>
<!-- Node5 -->
<g id="node5" class="node">
<title>Node5</title>
<g id="a_node5"><a xlink:href="classQuantConnect_1_1Data_1_1Fundamental_1_1CompanyReference.html" target="_top" xlink:title="Definition of the CompanyReference class">
<polygon fill="white" stroke="black" points="390,-294.5 390,-324.5 572,-324.5 572,-294.5 390,-294.5"/>
<text text-anchor="start" x="398" y="-312.5" font-family="Helvetica,sans-Serif" font-size="10.00">QuantConnect.Data.Fundamental.</text>
<text text-anchor="middle" x="481" y="-301.5" font-family="Helvetica,sans-Serif" font-size="10.00">CompanyReference</text>
</a>
</g>
</g>
<!-- Node1&#45;&gt;Node5 -->
<g id="edge4" class="edge">
<title>Node1&#45;&gt;Node5</title>
<path fill="none" stroke="midnightblue" d="M287.07,-231.96C313.77,-248.28 353.22,-270.77 390,-285.5 398.26,-288.81 407.12,-291.8 415.95,-294.46"/>
<polygon fill="midnightblue" stroke="midnightblue" points="288.88,-228.97 278.53,-226.69 285.2,-234.92 288.88,-228.97"/>
</g>
<!-- Node6 -->
<g id="node6" class="node">
<title>Node6</title>
<g id="a_node6"><a xlink:href="classQuantConnect_1_1Data_1_1Fundamental_1_1EarningRatios.html" target="_top" xlink:title="Definition of the EarningRatios class">
<polygon fill="white" stroke="black" points="390,-245.5 390,-275.5 572,-275.5 572,-245.5 390,-245.5"/>
<text text-anchor="start" x="398" y="-263.5" font-family="Helvetica,sans-Serif" font-size="10.00">QuantConnect.Data.Fundamental.</text>
<text text-anchor="middle" x="481" y="-252.5" font-family="Helvetica,sans-Serif" font-size="10.00">EarningRatios</text>
</a>
</g>
</g>
<!-- Node1&#45;&gt;Node6 -->
<g id="edge5" class="edge">
<title>Node1&#45;&gt;Node6</title>
<path fill="none" stroke="midnightblue" d="M333.91,-228.69C359.07,-234.16 386.7,-240.18 411.09,-245.49"/>
<polygon fill="midnightblue" stroke="midnightblue" points="334.55,-225.24 324.04,-226.53 333.06,-232.08 334.55,-225.24"/>
</g>
<!-- Node7 -->
<g id="node7" class="node">
<title>Node7</title>
<g id="a_node7"><a xlink:href="classQuantConnect_1_1Data_1_1Fundamental_1_1EarningReports.html" target="_top" xlink:title="Definition of the EarningReports class">
<polygon fill="white" stroke="black" points="390,-196.5 390,-226.5 572,-226.5 572,-196.5 390,-196.5"/>
<text text-anchor="start" x="398" y="-214.5" font-family="Helvetica,sans-Serif" font-size="10.00">QuantConnect.Data.Fundamental.</text>
<text text-anchor="middle" x="481" y="-203.5" font-family="Helvetica,sans-Serif" font-size="10.00">EarningReports</text>
</a>
</g>
</g>
<!-- Node1&#45;&gt;Node7 -->
<g id="edge6" class="edge">
<title>Node1&#45;&gt;Node7</title>
<path fill="none" stroke="midnightblue" d="M364.1,-211.5C372.71,-211.5 381.35,-211.5 389.81,-211.5"/>
<polygon fill="midnightblue" stroke="midnightblue" points="364.02,-208 354.02,-211.5 364.02,-215 364.02,-208"/>
</g>
<!-- Node8 -->
<g id="node8" class="node">
<title>Node8</title>
<g id="a_node8"><a xlink:href="classQuantConnect_1_1Data_1_1Fundamental_1_1FinancialStatements.html" target="_top" xlink:title="Definition of the FinancialStatements class">
<polygon fill="white" stroke="black" points="390,-147.5 390,-177.5 572,-177.5 572,-147.5 390,-147.5"/>
<text text-anchor="start" x="398" y="-165.5" font-family="Helvetica,sans-Serif" font-size="10.00">QuantConnect.Data.Fundamental.</text>
<text text-anchor="middle" x="481" y="-154.5" font-family="Helvetica,sans-Serif" font-size="10.00">FinancialStatements</text>
</a>
</g>
</g>
<!-- Node1&#45;&gt;Node8 -->
<g id="edge7" class="edge">
<title>Node1&#45;&gt;Node8</title>
<path fill="none" stroke="midnightblue" d="M333.91,-194.31C359.07,-188.84 386.7,-182.82 411.09,-177.51"/>
<polygon fill="midnightblue" stroke="midnightblue" points="333.06,-190.92 324.04,-196.47 334.55,-197.76 333.06,-190.92"/>
</g>
<!-- Node9 -->
<g id="node9" class="node">
<title>Node9</title>
<g id="a_node9"><a xlink:href="classQuantConnect_1_1Data_1_1Fundamental_1_1OperationRatios.html" target="_top" xlink:title="Definition of the OperationRatios class">
<polygon fill="white" stroke="black" points="390,-98.5 390,-128.5 572,-128.5 572,-98.5 390,-98.5"/>
<text text-anchor="start" x="398" y="-116.5" font-family="Helvetica,sans-Serif" font-size="10.00">QuantConnect.Data.Fundamental.</text>
<text text-anchor="middle" x="481" y="-105.5" font-family="Helvetica,sans-Serif" font-size="10.00">OperationRatios</text>
</a>
</g>
</g>
<!-- Node1&#45;&gt;Node9 -->
<g id="edge8" class="edge">
<title>Node1&#45;&gt;Node9</title>
<path fill="none" stroke="midnightblue" d="M287.07,-191.04C313.77,-174.72 353.22,-152.23 390,-137.5 398.26,-134.19 407.12,-131.2 415.95,-128.54"/>
<polygon fill="midnightblue" stroke="midnightblue" points="285.2,-188.08 278.53,-196.31 288.88,-194.03 285.2,-188.08"/>
</g>
<!-- Node10 -->
<g id="node10" class="node">
<title>Node10</title>
<g id="a_node10"><a xlink:href="classQuantConnect_1_1Data_1_1Fundamental_1_1SecurityReference.html" target="_top" xlink:title="Definition of the SecurityReference class">
<polygon fill="white" stroke="black" points="390,-49.5 390,-79.5 572,-79.5 572,-49.5 390,-49.5"/>
<text text-anchor="start" x="398" y="-67.5" font-family="Helvetica,sans-Serif" font-size="10.00">QuantConnect.Data.Fundamental.</text>
<text text-anchor="middle" x="481" y="-56.5" font-family="Helvetica,sans-Serif" font-size="10.00">SecurityReference</text>
</a>
</g>
</g>
<!-- Node1&#45;&gt;Node10 -->
<g id="edge9" class="edge">
<title>Node1&#45;&gt;Node10</title>
<path fill="none" stroke="midnightblue" d="M273.98,-188.47C298.11,-160.69 342.38,-114.5 390,-88.5 396.25,-85.09 403,-82.14 409.91,-79.6"/>
<polygon fill="midnightblue" stroke="midnightblue" points="271.28,-186.25 267.44,-196.12 276.6,-190.79 271.28,-186.25"/>
</g>
<!-- Node11 -->
<g id="node11" class="node">
<title>Node11</title>
<g id="a_node11"><a xlink:href="classQuantConnect_1_1Data_1_1Fundamental_1_1ValuationRatios.html" target="_top" xlink:title="Definition of the ValuationRatios class">
<polygon fill="white" stroke="black" points="390,-0.5 390,-30.5 572,-30.5 572,-0.5 390,-0.5"/>
<text text-anchor="start" x="398" y="-18.5" font-family="Helvetica,sans-Serif" font-size="10.00">QuantConnect.Data.Fundamental.</text>
<text text-anchor="middle" x="481" y="-7.5" font-family="Helvetica,sans-Serif" font-size="10.00">ValuationRatios</text>
</a>
</g>
</g>
<!-- Node1&#45;&gt;Node11 -->
<g id="edge10" class="edge">
<title>Node1&#45;&gt;Node11</title>
<path fill="none" stroke="midnightblue" d="M267.33,-187.21C287.65,-149.67 331.82,-77.87 390,-39.5 395.27,-36.03 401.01,-33.06 406.98,-30.51"/>
<polygon fill="midnightblue" stroke="midnightblue" points="264.04,-185.93 262.45,-196.41 270.23,-189.21 264.04,-185.93"/>
</g>
<!-- Node2 -->
<g id="node2" class="node">
<title>Node2</title>
<g id="a_node2"><a xlink:title=" ">
<polygon fill="white" stroke="#bfbfbf" points="0,-202 0,-221 118,-221 118,-202 0,-202"/>
<text text-anchor="middle" x="59" y="-209" font-family="Helvetica,sans-Serif" font-size="10.00">ReusuableCLRObject</text>
</a>
</g>
</g>
<!-- Node2&#45;&gt;Node1 -->
<g id="edge1" class="edge">
<title>Node2&#45;&gt;Node1</title>
<path fill="none" stroke="midnightblue" d="M128.18,-211.5C136.52,-211.5 145.18,-211.5 153.87,-211.5"/>
<polygon fill="midnightblue" stroke="midnightblue" points="128.17,-208 118.17,-211.5 128.17,-215 128.17,-208"/>
</g>
</g>
</svg>
