<?xml version="1.0" encoding="UTF-8" standalone="no"?>
<!DOCTYPE svg PUBLIC "-//W3C//DTD SVG 1.1//EN"
 "http://www.w3.org/Graphics/SVG/1.1/DTD/svg11.dtd">
<!-- Generated by graphviz version 2.43.0 (0)
 -->
<!-- Title: QuantConnect.Api.RestResponse Pages: 1 -->
<svg width="781pt" height="1497pt"
 viewBox="0.00 0.00 781.00 1496.50" xmlns="http://www.w3.org/2000/svg" xmlns:xlink="http://www.w3.org/1999/xlink">
<g id="graph0" class="graph" transform="scale(1 1) rotate(0) translate(4 1492.5)">
<title>QuantConnect.Api.RestResponse</title>
<polygon fill="white" stroke="transparent" points="-4,4 -4,-1492.5 777,-1492.5 777,4 -4,4"/>
<!-- Node1 -->
<g id="node1" class="node">
<title>Node1</title>
<g id="a_node1"><a xlink:title="Base API response class for the QuantConnect API.">
<polygon fill="#bfbfbf" stroke="black" points="155,-761 155,-780 331,-780 331,-761 155,-761"/>
<text text-anchor="middle" x="243" y="-768" font-family="Helvetica,sans-Serif" font-size="10.00">QuantConnect.Api.RestResponse</text>
</a>
</g>
</g>
<!-- Node3 -->
<g id="node3" class="node">
<title>Node3</title>
<g id="a_node3"><a xlink:href="classQuantConnect_1_1Api_1_1Account.html" target="_top" xlink:title="Account information for an organization">
<polygon fill="white" stroke="black" points="391,-1469 391,-1488 537,-1488 537,-1469 391,-1469"/>
<text text-anchor="middle" x="464" y="-1476" font-family="Helvetica,sans-Serif" font-size="10.00">QuantConnect.Api.Account</text>
</a>
</g>
</g>
<!-- Node1&#45;&gt;Node3 -->
<g id="edge2" class="edge">
<title>Node1&#45;&gt;Node3</title>
<path fill="none" stroke="midnightblue" d="M244.62,-790.25C248.26,-892.49 270.09,-1360.76 367,-1459.5 373.66,-1466.29 382.01,-1471.02 390.97,-1474.26"/>
<polygon fill="midnightblue" stroke="midnightblue" points="248.12,-789.98 244.28,-780.1 241.12,-790.21 248.12,-789.98"/>
</g>
<!-- Node4 -->
<g id="node4" class="node">
<title>Node4</title>
<g id="a_node4"><a xlink:href="classQuantConnect_1_1Api_1_1AuthenticationResponse.html" target="_top" xlink:title="Verify if the credentials are OK.">
<polygon fill="white" stroke="black" points="374.5,-1419.5 374.5,-1449.5 553.5,-1449.5 553.5,-1419.5 374.5,-1419.5"/>
<text text-anchor="start" x="382.5" y="-1437.5" font-family="Helvetica,sans-Serif" font-size="10.00">QuantConnect.Api.Authentication</text>
<text text-anchor="middle" x="464" y="-1426.5" font-family="Helvetica,sans-Serif" font-size="10.00">Response</text>
</a>
</g>
</g>
<!-- Node1&#45;&gt;Node4 -->
<g id="edge3" class="edge">
<title>Node1&#45;&gt;Node4</title>
<path fill="none" stroke="midnightblue" d="M245.05,-790.54C250.6,-888.52 279.58,-1316.24 367,-1409.5 370.53,-1413.27 374.56,-1416.5 378.91,-1419.26"/>
<polygon fill="midnightblue" stroke="midnightblue" points="248.53,-790.06 244.49,-780.27 241.54,-790.45 248.53,-790.06"/>
</g>
<!-- Node5 -->
<g id="node5" class="node">
<title>Node5</title>
<g id="a_node5"><a xlink:href="classQuantConnect_1_1Api_1_1BacktestList.html" target="_top" xlink:title="Collection container for a list of backtests for a project">
<polygon fill="white" stroke="black" points="380.5,-1381 380.5,-1400 547.5,-1400 547.5,-1381 380.5,-1381"/>
<text text-anchor="middle" x="464" y="-1388" font-family="Helvetica,sans-Serif" font-size="10.00">QuantConnect.Api.BacktestList</text>
</a>
</g>
</g>
<!-- Node1&#45;&gt;Node5 -->
<g id="edge4" class="edge">
<title>Node1&#45;&gt;Node5</title>
<path fill="none" stroke="midnightblue" d="M245.19,-790.34C251.24,-884.69 281.78,-1286.83 367,-1371.5 370.98,-1375.45 375.52,-1378.7 380.43,-1381.36"/>
<polygon fill="midnightblue" stroke="midnightblue" points="248.67,-789.95 244.56,-780.19 241.68,-790.39 248.67,-789.95"/>
</g>
<!-- Node6 -->
<g id="node6" class="node">
<title>Node6</title>
<g id="a_node6"><a xlink:href="classQuantConnect_1_1Api_1_1BacktestReport.html" target="_top" xlink:title="Backtest Report Response wrapper">
<polygon fill="white" stroke="black" points="389,-1331.5 389,-1361.5 539,-1361.5 539,-1331.5 389,-1331.5"/>
<text text-anchor="start" x="397" y="-1349.5" font-family="Helvetica,sans-Serif" font-size="10.00">QuantConnect.Api.Backtest</text>
<text text-anchor="middle" x="464" y="-1338.5" font-family="Helvetica,sans-Serif" font-size="10.00">Report</text>
</a>
</g>
</g>
<!-- Node1&#45;&gt;Node6 -->
<g id="edge5" class="edge">
<title>Node1&#45;&gt;Node6</title>
<path fill="none" stroke="midnightblue" d="M245.67,-790.32C253.58,-879.62 290.19,-1243.69 367,-1322.5 373.12,-1328.77 380.6,-1333.5 388.68,-1337.05"/>
<polygon fill="midnightblue" stroke="midnightblue" points="249.14,-789.87 244.79,-780.21 242.17,-790.47 249.14,-789.87"/>
</g>
<!-- Node7 -->
<g id="node7" class="node">
<title>Node7</title>
<g id="a_node7"><a xlink:href="classQuantConnect_1_1Api_1_1BacktestResponseWrapper.html" target="_top" xlink:title="Wrapper class for Backtest/* endpoints JSON response Currently used by Backtest/Read and Backtest/Cre...">
<polygon fill="white" stroke="black" points="389,-1282.5 389,-1312.5 539,-1312.5 539,-1282.5 389,-1282.5"/>
<text text-anchor="start" x="397" y="-1300.5" font-family="Helvetica,sans-Serif" font-size="10.00">QuantConnect.Api.Backtest</text>
<text text-anchor="middle" x="464" y="-1289.5" font-family="Helvetica,sans-Serif" font-size="10.00">ResponseWrapper</text>
</a>
</g>
</g>
<!-- Node1&#45;&gt;Node7 -->
<g id="edge6" class="edge">
<title>Node1&#45;&gt;Node7</title>
<path fill="none" stroke="midnightblue" d="M246.11,-790.15C255.53,-874.21 296.38,-1202.52 367,-1273.5 373.18,-1279.71 380.71,-1284.4 388.8,-1287.93"/>
<polygon fill="midnightblue" stroke="midnightblue" points="249.58,-789.71 245.01,-780.15 242.63,-790.48 249.58,-789.71"/>
</g>
<!-- Node8 -->
<g id="node8" class="node">
<title>Node8</title>
<g id="a_node8"><a xlink:href="classQuantConnect_1_1Api_1_1BacktestSummaryList.html" target="_top" xlink:title="Collection container for a list of backtest summaries for a project">
<polygon fill="white" stroke="black" points="389,-1233.5 389,-1263.5 539,-1263.5 539,-1233.5 389,-1233.5"/>
<text text-anchor="start" x="397" y="-1251.5" font-family="Helvetica,sans-Serif" font-size="10.00">QuantConnect.Api.Backtest</text>
<text text-anchor="middle" x="464" y="-1240.5" font-family="Helvetica,sans-Serif" font-size="10.00">SummaryList</text>
</a>
</g>
</g>
<!-- Node1&#45;&gt;Node8 -->
<g id="edge7" class="edge">
<title>Node1&#45;&gt;Node8</title>
<path fill="none" stroke="midnightblue" d="M246.73,-790.41C257.98,-869.51 303.1,-1160.26 367,-1223.5 373.24,-1229.68 380.81,-1234.39 388.92,-1237.97"/>
<polygon fill="midnightblue" stroke="midnightblue" points="250.17,-789.75 245.32,-780.33 243.24,-790.72 250.17,-789.75"/>
</g>
<!-- Node9 -->
<g id="node9" class="node">
<title>Node9</title>
<g id="a_node9"><a xlink:href="classQuantConnect_1_1Api_1_1BacktestTags.html" target="_top" xlink:title="Collection container for a list of backtest tags">
<polygon fill="white" stroke="black" points="378,-1195 378,-1214 550,-1214 550,-1195 378,-1195"/>
<text text-anchor="middle" x="464" y="-1202" font-family="Helvetica,sans-Serif" font-size="10.00">QuantConnect.Api.BacktestTags</text>
</a>
</g>
</g>
<!-- Node1&#45;&gt;Node9 -->
<g id="edge8" class="edge">
<title>Node1&#45;&gt;Node9</title>
<path fill="none" stroke="midnightblue" d="M243.27,-790.57C241.99,-857.75 247.54,-1076.63 367,-1185.5 371.14,-1189.28 375.81,-1192.4 380.81,-1194.96"/>
<polygon fill="midnightblue" stroke="midnightblue" points="246.78,-790.26 243.55,-780.17 239.78,-790.07 246.78,-790.26"/>
</g>
<!-- Node10 -->
<g id="node10" class="node">
<title>Node10</title>
<g id="a_node10"><a xlink:href="classQuantConnect_1_1Api_1_1BaseLiveAlgorithm.html" target="_top" xlink:title="Class representing the REST response from QC API when creating or reading a live algorithm">
<polygon fill="white" stroke="black" points="388,-1145.5 388,-1175.5 540,-1175.5 540,-1145.5 388,-1145.5"/>
<text text-anchor="start" x="396" y="-1163.5" font-family="Helvetica,sans-Serif" font-size="10.00">QuantConnect.Api.BaseLive</text>
<text text-anchor="middle" x="464" y="-1152.5" font-family="Helvetica,sans-Serif" font-size="10.00">Algorithm</text>
</a>
</g>
</g>
<!-- Node1&#45;&gt;Node10 -->
<g id="edge9" class="edge">
<title>Node1&#45;&gt;Node10</title>
<path fill="none" stroke="midnightblue" d="M244.45,-790.3C246.95,-851.4 263.14,-1038.7 367,-1135.5 373.05,-1141.14 380.2,-1145.54 387.84,-1148.97"/>
<polygon fill="midnightblue" stroke="midnightblue" points="247.94,-790 244.12,-780.12 240.95,-790.23 247.94,-790"/>
</g>
<!-- Node13 -->
<g id="node13" class="node">
<title>Node13</title>
<g id="a_node13"><a xlink:href="classQuantConnect_1_1Api_1_1BaseOptimization.html" target="_top" xlink:title="BaseOptimization item from the QuantConnect.com API.">
<polygon fill="white" stroke="black" points="367,-1107 367,-1126 561,-1126 561,-1107 367,-1107"/>
<text text-anchor="middle" x="464" y="-1114" font-family="Helvetica,sans-Serif" font-size="10.00">QuantConnect.Api.BaseOptimization</text>
</a>
</g>
</g>
<!-- Node1&#45;&gt;Node13 -->
<g id="edge12" class="edge">
<title>Node1&#45;&gt;Node13</title>
<path fill="none" stroke="midnightblue" d="M245.07,-790.38C249.31,-847.81 269.83,-1015.12 367,-1097.5 371.41,-1101.24 376.34,-1104.31 381.57,-1106.84"/>
<polygon fill="midnightblue" stroke="midnightblue" points="248.55,-789.89 244.41,-780.13 241.56,-790.34 248.55,-789.89"/>
</g>
<!-- Node16 -->
<g id="node16" class="node">
<title>Node16</title>
<g id="a_node16"><a xlink:href="classQuantConnect_1_1Api_1_1BasicBacktest.html" target="_top" xlink:title="Base class for backtest result object response">
<polygon fill="white" stroke="black" points="376,-1069 376,-1088 552,-1088 552,-1069 376,-1069"/>
<text text-anchor="middle" x="464" y="-1076" font-family="Helvetica,sans-Serif" font-size="10.00">QuantConnect.Api.BasicBacktest</text>
</a>
</g>
</g>
<!-- Node1&#45;&gt;Node16 -->
<g id="edge15" class="edge">
<title>Node1&#45;&gt;Node16</title>
<path fill="none" stroke="midnightblue" d="M246.13,-790.17C252.96,-842.9 279.24,-988.26 367,-1059.5 371.62,-1063.25 376.77,-1066.33 382.21,-1068.85"/>
<polygon fill="midnightblue" stroke="midnightblue" points="249.59,-789.64 244.93,-780.12 242.64,-790.47 249.59,-789.64"/>
</g>
<!-- Node19 -->
<g id="node19" class="node">
<title>Node19</title>
<g id="a_node19"><a xlink:href="classQuantConnect_1_1Api_1_1Compile.html" target="_top" xlink:title="Response from the compiler on a build event">
<polygon fill="white" stroke="black" points="390,-1031 390,-1050 538,-1050 538,-1031 390,-1031"/>
<text text-anchor="middle" x="464" y="-1038" font-family="Helvetica,sans-Serif" font-size="10.00">QuantConnect.Api.Compile</text>
</a>
</g>
</g>
<!-- Node1&#45;&gt;Node19 -->
<g id="edge18" class="edge">
<title>Node1&#45;&gt;Node19</title>
<path fill="none" stroke="midnightblue" d="M247.49,-790.13C257.11,-838 288.63,-961.27 367,-1021.5 373.74,-1026.68 381.5,-1030.56 389.64,-1033.45"/>
<polygon fill="midnightblue" stroke="midnightblue" points="250.9,-789.3 245.59,-780.14 244.02,-790.61 250.9,-789.3"/>
</g>
<!-- Node20 -->
<g id="node20" class="node">
<title>Node20</title>
<g id="a_node20"><a xlink:href="classQuantConnect_1_1Api_1_1CreatedNode.html" target="_top" xlink:title="Rest api response wrapper for node/create, reads in the nodes information into a node object">
<polygon fill="white" stroke="black" points="378.5,-993 378.5,-1012 549.5,-1012 549.5,-993 378.5,-993"/>
<text text-anchor="middle" x="464" y="-1000" font-family="Helvetica,sans-Serif" font-size="10.00">QuantConnect.Api.CreatedNode</text>
</a>
</g>
</g>
<!-- Node1&#45;&gt;Node20 -->
<g id="edge19" class="edge">
<title>Node1&#45;&gt;Node20</title>
<path fill="none" stroke="midnightblue" d="M249.18,-789.72C261.68,-832.13 297.68,-933.88 367,-983.5 372.25,-987.26 378.06,-990.32 384.14,-992.81"/>
<polygon fill="midnightblue" stroke="midnightblue" points="252.54,-788.74 246.45,-780.07 245.81,-790.64 252.54,-788.74"/>
</g>
<!-- Node21 -->
<g id="node21" class="node">
<title>Node21</title>
<g id="a_node21"><a xlink:href="classQuantConnect_1_1Api_1_1DataLink.html" target="_top" xlink:title="Data/Read response wrapper, contains link to requested data">
<polygon fill="white" stroke="black" points="388.5,-955 388.5,-974 539.5,-974 539.5,-955 388.5,-955"/>
<text text-anchor="middle" x="464" y="-962" font-family="Helvetica,sans-Serif" font-size="10.00">QuantConnect.Api.DataLink</text>
</a>
</g>
</g>
<!-- Node1&#45;&gt;Node21 -->
<g id="edge20" class="edge">
<title>Node1&#45;&gt;Node21</title>
<path fill="none" stroke="midnightblue" d="M251.56,-789.49C267.17,-826.08 306.65,-906.24 367,-945.5 373.55,-949.76 380.85,-953.11 388.41,-955.72"/>
<polygon fill="midnightblue" stroke="midnightblue" points="254.69,-787.91 247.63,-780 248.22,-790.58 254.69,-787.91"/>
</g>
<!-- Node22 -->
<g id="node22" class="node">
<title>Node22</title>
<g id="a_node22"><a xlink:href="classQuantConnect_1_1Api_1_1DataList.html" target="_top" xlink:title="Data/List response wrapper for available data">
<polygon fill="white" stroke="black" points="390,-917 390,-936 538,-936 538,-917 390,-917"/>
<text text-anchor="middle" x="464" y="-924" font-family="Helvetica,sans-Serif" font-size="10.00">QuantConnect.Api.DataList</text>
</a>
</g>
</g>
<!-- Node1&#45;&gt;Node22 -->
<g id="edge21" class="edge">
<title>Node1&#45;&gt;Node22</title>
<path fill="none" stroke="midnightblue" d="M254.73,-788.65C273.46,-818.6 315.11,-877.97 367,-907.5 374.09,-911.53 381.89,-914.72 389.9,-917.24"/>
<polygon fill="midnightblue" stroke="midnightblue" points="257.67,-786.75 249.47,-780.04 251.7,-790.4 257.67,-786.75"/>
</g>
<!-- Node23 -->
<g id="node23" class="node">
<title>Node23</title>
<g id="a_node23"><a xlink:href="classQuantConnect_1_1Api_1_1DataPricesList.html" target="_top" xlink:title="Data/Prices response wrapper for prices by vendor">
<polygon fill="white" stroke="black" points="375.5,-879 375.5,-898 552.5,-898 552.5,-879 375.5,-879"/>
<text text-anchor="middle" x="464" y="-886" font-family="Helvetica,sans-Serif" font-size="10.00">QuantConnect.Api.DataPricesList</text>
</a>
</g>
</g>
<!-- Node1&#45;&gt;Node23 -->
<g id="edge22" class="edge">
<title>Node1&#45;&gt;Node23</title>
<path fill="none" stroke="midnightblue" d="M259.92,-787.7C281.8,-810.2 323.42,-849.16 367,-869.5 375.39,-873.42 384.56,-876.52 393.8,-878.99"/>
<polygon fill="midnightblue" stroke="midnightblue" points="262.22,-785.04 252.79,-780.21 257.16,-789.87 262.22,-785.04"/>
</g>
<!-- Node24 -->
<g id="node24" class="node">
<title>Node24</title>
<g id="a_node24"><a xlink:href="classQuantConnect_1_1Api_1_1EstimateResponseWrapper.html" target="_top" xlink:title="Wrapper class for Optimizations/* endpoints JSON response Currently used by Optimizations/Estimate">
<polygon fill="white" stroke="black" points="388.5,-829.5 388.5,-859.5 539.5,-859.5 539.5,-829.5 388.5,-829.5"/>
<text text-anchor="start" x="396.5" y="-847.5" font-family="Helvetica,sans-Serif" font-size="10.00">QuantConnect.Api.Estimate</text>
<text text-anchor="middle" x="464" y="-836.5" font-family="Helvetica,sans-Serif" font-size="10.00">ResponseWrapper</text>
</a>
</g>
</g>
<!-- Node1&#45;&gt;Node24 -->
<g id="edge23" class="edge">
<title>Node1&#45;&gt;Node24</title>
<path fill="none" stroke="midnightblue" d="M274.67,-783.96C299.32,-794.47 334.99,-809 367,-819.5 377.8,-823.04 389.41,-826.42 400.7,-829.48"/>
<polygon fill="midnightblue" stroke="midnightblue" points="276.04,-780.73 265.47,-780 273.28,-787.17 276.04,-780.73"/>
</g>
<!-- Node25 -->
<g id="node25" class="node">
<title>Node25</title>
<g id="a_node25"><a xlink:href="classQuantConnect_1_1Api_1_1GetObjectStoreResponse.html" target="_top" xlink:title="Response received when fetching Object Store">
<polygon fill="white" stroke="black" points="386,-780.5 386,-810.5 542,-810.5 542,-780.5 386,-780.5"/>
<text text-anchor="start" x="394" y="-798.5" font-family="Helvetica,sans-Serif" font-size="10.00">QuantConnect.Api.GetObject</text>
<text text-anchor="middle" x="464" y="-787.5" font-family="Helvetica,sans-Serif" font-size="10.00">StoreResponse</text>
</a>
</g>
</g>
<!-- Node1&#45;&gt;Node25 -->
<g id="edge24" class="edge">
<title>Node1&#45;&gt;Node25</title>
<path fill="none" stroke="midnightblue" d="M337.42,-781.16C353.59,-783.01 370.25,-784.91 385.93,-786.7"/>
<polygon fill="midnightblue" stroke="midnightblue" points="337.75,-777.68 327.42,-780.02 336.96,-784.63 337.75,-777.68"/>
</g>
<!-- Node26 -->
<g id="node26" class="node">
<title>Node26</title>
<g id="a_node26"><a xlink:href="classQuantConnect_1_1Api_1_1InsightResponse.html" target="_top" xlink:title="Class containing insights and the number of insights of the live algorithm in the request criteria">
<polygon fill="white" stroke="black" points="394,-731.5 394,-761.5 534,-761.5 534,-731.5 394,-731.5"/>
<text text-anchor="start" x="402" y="-749.5" font-family="Helvetica,sans-Serif" font-size="10.00">QuantConnect.Api.Insight</text>
<text text-anchor="middle" x="464" y="-738.5" font-family="Helvetica,sans-Serif" font-size="10.00">Response</text>
</a>
</g>
</g>
<!-- Node1&#45;&gt;Node26 -->
<g id="edge25" class="edge">
<title>Node1&#45;&gt;Node26</title>
<path fill="none" stroke="midnightblue" d="M341.23,-759.84C358.95,-757.9 377.09,-755.91 393.79,-754.08"/>
<polygon fill="midnightblue" stroke="midnightblue" points="340.43,-756.41 330.87,-760.98 341.19,-763.37 340.43,-756.41"/>
</g>
<!-- Node27 -->
<g id="node27" class="node">
<title>Node27</title>
<g id="a_node27"><a xlink:href="classQuantConnect_1_1Api_1_1ListObjectStoreResponse.html" target="_top" xlink:title="Response received containing a list of stored objects metadata, as well as the total size of all of t...">
<polygon fill="white" stroke="black" points="386,-682.5 386,-712.5 542,-712.5 542,-682.5 386,-682.5"/>
<text text-anchor="start" x="394" y="-700.5" font-family="Helvetica,sans-Serif" font-size="10.00">QuantConnect.Api.ListObject</text>
<text text-anchor="middle" x="464" y="-689.5" font-family="Helvetica,sans-Serif" font-size="10.00">StoreResponse</text>
</a>
</g>
</g>
<!-- Node1&#45;&gt;Node27 -->
<g id="edge26" class="edge">
<title>Node1&#45;&gt;Node27</title>
<path fill="none" stroke="midnightblue" d="M274.65,-756.96C299.28,-746.4 334.94,-731.84 367,-721.5 376.89,-718.31 387.47,-715.29 397.86,-712.53"/>
<polygon fill="midnightblue" stroke="midnightblue" points="273.24,-753.75 265.45,-760.93 276.02,-760.18 273.24,-753.75"/>
</g>
<!-- Node28 -->
<g id="node28" class="node">
<title>Node28</title>
<g id="a_node28"><a xlink:href="classQuantConnect_1_1Api_1_1LiveAlgorithmResults.html" target="_top" xlink:title="Details a live algorithm from the &quot;live/read&quot; Api endpoint">
<polygon fill="white" stroke="black" points="376,-633.5 376,-663.5 552,-663.5 552,-633.5 376,-633.5"/>
<text text-anchor="start" x="384" y="-651.5" font-family="Helvetica,sans-Serif" font-size="10.00">QuantConnect.Api.LiveAlgorithm</text>
<text text-anchor="middle" x="464" y="-640.5" font-family="Helvetica,sans-Serif" font-size="10.00">Results</text>
</a>
</g>
</g>
<!-- Node1&#45;&gt;Node28 -->
<g id="edge27" class="edge">
<title>Node1&#45;&gt;Node28</title>
<path fill="none" stroke="midnightblue" d="M260.45,-753.47C282.62,-731.5 324.27,-693.61 367,-672.5 373.93,-669.08 381.39,-666.11 388.98,-663.56"/>
<polygon fill="midnightblue" stroke="midnightblue" points="257.75,-751.22 253.2,-760.78 262.72,-756.14 257.75,-751.22"/>
</g>
<!-- Node29 -->
<g id="node29" class="node">
<title>Node29</title>
<g id="a_node29"><a xlink:href="classQuantConnect_1_1Api_1_1LiveList.html" target="_top" xlink:title="List of the live algorithms running which match the requested status">
<polygon fill="white" stroke="black" points="391.5,-595 391.5,-614 536.5,-614 536.5,-595 391.5,-595"/>
<text text-anchor="middle" x="464" y="-602" font-family="Helvetica,sans-Serif" font-size="10.00">QuantConnect.Api.LiveList</text>
</a>
</g>
</g>
<!-- Node1&#45;&gt;Node29 -->
<g id="edge28" class="edge">
<title>Node1&#45;&gt;Node29</title>
<path fill="none" stroke="midnightblue" d="M254.12,-751.48C272.21,-719.5 313.26,-655.33 367,-623.5 374.46,-619.08 382.75,-615.67 391.25,-613.04"/>
<polygon fill="midnightblue" stroke="midnightblue" points="250.83,-750.21 249.07,-760.65 256.96,-753.58 250.83,-750.21"/>
</g>
<!-- Node30 -->
<g id="node30" class="node">
<title>Node30</title>
<g id="a_node30"><a xlink:href="classQuantConnect_1_1Api_1_1LiveLog.html" target="_top" xlink:title="Logs from a live algorithm">
<polygon fill="white" stroke="black" points="391.5,-557 391.5,-576 536.5,-576 536.5,-557 391.5,-557"/>
<text text-anchor="middle" x="464" y="-564" font-family="Helvetica,sans-Serif" font-size="10.00">QuantConnect.Api.LiveLog</text>
</a>
</g>
</g>
<!-- Node1&#45;&gt;Node30 -->
<g id="edge29" class="edge">
<title>Node1&#45;&gt;Node30</title>
<path fill="none" stroke="midnightblue" d="M250.84,-751.48C265.6,-713.31 304.3,-627.46 367,-585.5 374.34,-580.59 382.66,-576.89 391.26,-574.11"/>
<polygon fill="midnightblue" stroke="midnightblue" points="247.54,-750.31 247.31,-760.9 254.09,-752.76 247.54,-750.31"/>
</g>
<!-- Node31 -->
<g id="node31" class="node">
<title>Node31</title>
<g id="a_node31"><a xlink:href="classQuantConnect_1_1Api_1_1NodeList.html" target="_top" xlink:title="Collection of Node objects for each target environment.">
<polygon fill="white" stroke="black" points="389,-519 389,-538 539,-538 539,-519 389,-519"/>
<text text-anchor="middle" x="464" y="-526" font-family="Helvetica,sans-Serif" font-size="10.00">QuantConnect.Api.NodeList</text>
</a>
</g>
</g>
<!-- Node1&#45;&gt;Node31 -->
<g id="edge30" class="edge">
<title>Node1&#45;&gt;Node31</title>
<path fill="none" stroke="midnightblue" d="M248.66,-751.28C260.35,-707.47 295.26,-599.93 367,-547.5 373.58,-542.69 381.07,-539.01 388.9,-536.22"/>
<polygon fill="midnightblue" stroke="midnightblue" points="245.27,-750.42 246.18,-760.98 252.05,-752.16 245.27,-750.42"/>
</g>
<!-- Node32 -->
<g id="node32" class="node">
<title>Node32</title>
<g id="a_node32"><a xlink:href="classQuantConnect_1_1Api_1_1OptimizationList.html" target="_top" xlink:title="Collection container for a list of summarized optimizations for a project">
<polygon fill="white" stroke="black" points="370,-481 370,-500 558,-500 558,-481 370,-481"/>
<text text-anchor="middle" x="464" y="-488" font-family="Helvetica,sans-Serif" font-size="10.00">QuantConnect.Api.OptimizationList</text>
</a>
</g>
</g>
<!-- Node1&#45;&gt;Node32 -->
<g id="edge31" class="edge">
<title>Node1&#45;&gt;Node32</title>
<path fill="none" stroke="midnightblue" d="M247.12,-750.76C256,-701.5 286.23,-572.56 367,-509.5 371.82,-505.74 377.18,-502.65 382.84,-500.14"/>
<polygon fill="midnightblue" stroke="midnightblue" points="243.65,-750.31 245.42,-760.76 250.55,-751.49 243.65,-750.31"/>
</g>
<!-- Node33 -->
<g id="node33" class="node">
<title>Node33</title>
<g id="a_node33"><a xlink:href="classQuantConnect_1_1Api_1_1OptimizationResponseWrapper.html" target="_top" xlink:title="Wrapper class for Optimizations/Read endpoint JSON response">
<polygon fill="white" stroke="black" points="379,-431.5 379,-461.5 549,-461.5 549,-431.5 379,-431.5"/>
<text text-anchor="start" x="387" y="-449.5" font-family="Helvetica,sans-Serif" font-size="10.00">QuantConnect.Api.Optimization</text>
<text text-anchor="middle" x="464" y="-438.5" font-family="Helvetica,sans-Serif" font-size="10.00">ResponseWrapper</text>
</a>
</g>
</g>
<!-- Node1&#45;&gt;Node33 -->
<g id="edge32" class="edge">
<title>Node1&#45;&gt;Node33</title>
<path fill="none" stroke="midnightblue" d="M246.1,-750.82C252.88,-697.33 279.15,-548.19 367,-471.5 371.41,-467.65 376.34,-464.38 381.58,-461.61"/>
<polygon fill="midnightblue" stroke="midnightblue" points="242.6,-750.64 244.9,-760.98 249.55,-751.46 242.6,-750.64"/>
</g>
<!-- Node34 -->
<g id="node34" class="node">
<title>Node34</title>
<g id="a_node34"><a xlink:href="classQuantConnect_1_1Api_1_1OrganizationResponse.html" target="_top" xlink:title="Response wrapper for Organizations/Read">
<polygon fill="white" stroke="black" points="379,-382.5 379,-412.5 549,-412.5 549,-382.5 379,-382.5"/>
<text text-anchor="start" x="387" y="-400.5" font-family="Helvetica,sans-Serif" font-size="10.00">QuantConnect.Api.Organization</text>
<text text-anchor="middle" x="464" y="-389.5" font-family="Helvetica,sans-Serif" font-size="10.00">Response</text>
</a>
</g>
</g>
<!-- Node1&#45;&gt;Node34 -->
<g id="edge33" class="edge">
<title>Node1&#45;&gt;Node34</title>
<path fill="none" stroke="midnightblue" d="M244.75,-750.74C248.13,-691.35 266.57,-512.92 367,-421.5 370.68,-418.15 374.77,-415.24 379.11,-412.74"/>
<polygon fill="midnightblue" stroke="midnightblue" points="241.25,-750.81 244.26,-760.97 248.24,-751.15 241.25,-750.81"/>
</g>
<!-- Node35 -->
<g id="node35" class="node">
<title>Node35</title>
<g id="a_node35"><a xlink:href="classQuantConnect_1_1Api_1_1PortfolioResponse.html" target="_top" xlink:title="Response class for reading the portfolio of a live algorithm">
<polygon fill="white" stroke="black" points="389.5,-333.5 389.5,-363.5 538.5,-363.5 538.5,-333.5 389.5,-333.5"/>
<text text-anchor="start" x="397.5" y="-351.5" font-family="Helvetica,sans-Serif" font-size="10.00">QuantConnect.Api.Portfolio</text>
<text text-anchor="middle" x="464" y="-340.5" font-family="Helvetica,sans-Serif" font-size="10.00">Response</text>
</a>
</g>
</g>
<!-- Node1&#45;&gt;Node35 -->
<g id="edge34" class="edge">
<title>Node1&#45;&gt;Node35</title>
<path fill="none" stroke="midnightblue" d="M243.77,-750.6C244.16,-685.81 254.53,-478.97 367,-372.5 373.36,-366.48 381,-361.9 389.15,-358.43"/>
<polygon fill="midnightblue" stroke="midnightblue" points="240.27,-750.69 243.79,-760.68 247.27,-750.67 240.27,-750.69"/>
</g>
<!-- Node36 -->
<g id="node36" class="node">
<title>Node36</title>
<g id="a_node36"><a xlink:href="classQuantConnect_1_1Api_1_1Project.html" target="_top" xlink:title="Response from reading a project by id.">
<polygon fill="white" stroke="black" points="393.5,-295 393.5,-314 534.5,-314 534.5,-295 393.5,-295"/>
<text text-anchor="middle" x="464" y="-302" font-family="Helvetica,sans-Serif" font-size="10.00">QuantConnect.Api.Project</text>
</a>
</g>
</g>
<!-- Node1&#45;&gt;Node36 -->
<g id="edge35" class="edge">
<title>Node1&#45;&gt;Node36</title>
<path fill="none" stroke="midnightblue" d="M246.67,-750.74C257.66,-672.27 301.96,-383.95 367,-323.5 374.47,-316.56 383.71,-311.83 393.48,-308.65"/>
<polygon fill="midnightblue" stroke="midnightblue" points="243.19,-750.36 245.29,-760.74 250.12,-751.32 243.19,-750.36"/>
</g>
<!-- Node37 -->
<g id="node37" class="node">
<title>Node37</title>
<g id="a_node37"><a xlink:href="classQuantConnect_1_1Api_1_1ProjectFilesResponse.html" target="_top" xlink:title="Response received when creating a file or reading one file or more in a project">
<polygon fill="white" stroke="black" points="393.5,-245.5 393.5,-275.5 534.5,-275.5 534.5,-245.5 393.5,-245.5"/>
<text text-anchor="start" x="401.5" y="-263.5" font-family="Helvetica,sans-Serif" font-size="10.00">QuantConnect.Api.Project</text>
<text text-anchor="middle" x="464" y="-252.5" font-family="Helvetica,sans-Serif" font-size="10.00">FilesResponse</text>
</a>
</g>
</g>
<!-- Node1&#45;&gt;Node37 -->
<g id="edge36" class="edge">
<title>Node1&#45;&gt;Node37</title>
<path fill="none" stroke="midnightblue" d="M246.33,-750.79C256.43,-668.55 299.02,-353.92 367,-285.5 374.28,-278.17 383.43,-272.9 393.16,-269.13"/>
<polygon fill="midnightblue" stroke="midnightblue" points="242.84,-750.45 245.12,-760.8 249.79,-751.29 242.84,-750.45"/>
</g>
<!-- Node38 -->
<g id="node38" class="node">
<title>Node38</title>
<g id="a_node38"><a xlink:href="classQuantConnect_1_1Api_1_1ProjectNodesResponse.html" target="_top" xlink:title="Response received when reading or updating some nodes of a project">
<polygon fill="white" stroke="black" points="393.5,-196.5 393.5,-226.5 534.5,-226.5 534.5,-196.5 393.5,-196.5"/>
<text text-anchor="start" x="401.5" y="-214.5" font-family="Helvetica,sans-Serif" font-size="10.00">QuantConnect.Api.Project</text>
<text text-anchor="middle" x="464" y="-203.5" font-family="Helvetica,sans-Serif" font-size="10.00">NodesResponse</text>
</a>
</g>
</g>
<!-- Node1&#45;&gt;Node38 -->
<g id="edge37" class="edge">
<title>Node1&#45;&gt;Node38</title>
<path fill="none" stroke="midnightblue" d="M245.84,-750.46C254.32,-662.48 292.42,-311.51 367,-235.5 374.22,-228.14 383.33,-222.92 393.04,-219.22"/>
<polygon fill="midnightblue" stroke="midnightblue" points="242.33,-750.38 244.88,-760.67 249.3,-751.04 242.33,-750.38"/>
</g>
<!-- Node39 -->
<g id="node39" class="node">
<title>Node39</title>
<g id="a_node39"><a xlink:href="classQuantConnect_1_1Api_1_1PropertiesObjectStoreResponse.html" target="_top" xlink:title="Response received containing the properties of the requested Object Store">
<polygon fill="white" stroke="black" points="385.5,-147.5 385.5,-177.5 542.5,-177.5 542.5,-147.5 385.5,-147.5"/>
<text text-anchor="start" x="393.5" y="-165.5" font-family="Helvetica,sans-Serif" font-size="10.00">QuantConnect.Api.Properties</text>
<text text-anchor="middle" x="464" y="-154.5" font-family="Helvetica,sans-Serif" font-size="10.00">ObjectStoreResponse</text>
</a>
</g>
</g>
<!-- Node1&#45;&gt;Node39 -->
<g id="edge38" class="edge">
<title>Node1&#45;&gt;Node39</title>
<path fill="none" stroke="midnightblue" d="M245.43,-750.43C252.44,-657.55 286.17,-270.41 367,-186.5 372.24,-181.06 378.52,-176.77 385.32,-173.42"/>
<polygon fill="midnightblue" stroke="midnightblue" points="241.92,-750.46 244.67,-760.69 248.9,-750.97 241.92,-750.46"/>
</g>
<!-- Node40 -->
<g id="node40" class="node">
<title>Node40</title>
<g id="a_node40"><a xlink:href="classQuantConnect_1_1Api_1_1ReadChartResponse.html" target="_top" xlink:title="Class for wrapping Read Chart response">
<polygon fill="white" stroke="black" points="385,-98.5 385,-128.5 543,-128.5 543,-98.5 385,-98.5"/>
<text text-anchor="start" x="393" y="-116.5" font-family="Helvetica,sans-Serif" font-size="10.00">QuantConnect.Api.ReadChart</text>
<text text-anchor="middle" x="464" y="-105.5" font-family="Helvetica,sans-Serif" font-size="10.00">Response</text>
</a>
</g>
</g>
<!-- Node1&#45;&gt;Node40 -->
<g id="edge39" class="edge">
<title>Node1&#45;&gt;Node40</title>
<path fill="none" stroke="midnightblue" d="M245.06,-750.63C250.66,-653.47 279.84,-229.42 367,-137.5 372.08,-132.14 378.17,-127.9 384.77,-124.56"/>
<polygon fill="midnightblue" stroke="midnightblue" points="241.56,-750.63 244.49,-760.81 248.55,-751.02 241.56,-750.63"/>
</g>
<!-- Node41 -->
<g id="node41" class="node">
<title>Node41</title>
<g id="a_node41"><a xlink:href="classQuantConnect_1_1Api_1_1VersionsResponse.html" target="_top" xlink:title="Read versions response">
<polygon fill="white" stroke="black" points="389.5,-49.5 389.5,-79.5 538.5,-79.5 538.5,-49.5 389.5,-49.5"/>
<text text-anchor="start" x="397.5" y="-67.5" font-family="Helvetica,sans-Serif" font-size="10.00">QuantConnect.Api.Versions</text>
<text text-anchor="middle" x="464" y="-56.5" font-family="Helvetica,sans-Serif" font-size="10.00">Response</text>
</a>
</g>
</g>
<!-- Node1&#45;&gt;Node41 -->
<g id="edge40" class="edge">
<title>Node1&#45;&gt;Node41</title>
<path fill="none" stroke="midnightblue" d="M244.77,-750.39C249.1,-648.31 273.61,-188.32 367,-88.5 373.22,-81.85 380.98,-76.93 389.38,-73.3"/>
<polygon fill="midnightblue" stroke="midnightblue" points="241.27,-750.43 244.36,-760.56 248.26,-750.71 241.27,-750.43"/>
</g>
<!-- Node43 -->
<g id="node43" class="node">
<title>Node43</title>
<g id="a_node43"><a xlink:href="classQuantConnect_1_1Orders_1_1OrdersResponseWrapper.html" target="_top" xlink:title="Collection container for a list of orders for a project">
<polygon fill="white" stroke="black" points="386,-0.5 386,-30.5 542,-30.5 542,-0.5 386,-0.5"/>
<text text-anchor="start" x="394" y="-18.5" font-family="Helvetica,sans-Serif" font-size="10.00">QuantConnect.Orders.Orders</text>
<text text-anchor="middle" x="464" y="-7.5" font-family="Helvetica,sans-Serif" font-size="10.00">ResponseWrapper</text>
</a>
</g>
</g>
<!-- Node1&#45;&gt;Node43 -->
<g id="edge42" class="edge">
<title>Node1&#45;&gt;Node43</title>
<path fill="none" stroke="midnightblue" d="M244.5,-750.66C247.57,-644.8 267.21,-147.43 367,-39.5 372.25,-33.82 378.62,-29.4 385.55,-25.97"/>
<polygon fill="midnightblue" stroke="midnightblue" points="241,-750.78 244.22,-760.87 247.99,-750.97 241,-750.78"/>
</g>
<!-- Node2 -->
<g id="node2" class="node">
<title>Node2</title>
<g id="a_node2"><a xlink:href="classQuantConnect_1_1Api_1_1StringRepresentation.html" target="_top" xlink:title="Class to return the string representation of an API response class">
<polygon fill="white" stroke="black" points="0,-761 0,-780 119,-780 119,-761 0,-761"/>
<text text-anchor="middle" x="59.5" y="-768" font-family="Helvetica,sans-Serif" font-size="10.00">StringRepresentation</text>
</a>
</g>
</g>
<!-- Node2&#45;&gt;Node1 -->
<g id="edge1" class="edge">
<title>Node2&#45;&gt;Node1</title>
<path fill="none" stroke="midnightblue" d="M129.23,-770.5C137.6,-770.5 146.23,-770.5 154.82,-770.5"/>
<polygon fill="midnightblue" stroke="midnightblue" points="129.18,-767 119.18,-770.5 129.18,-774 129.18,-767"/>
</g>
<!-- Node11 -->
<g id="node11" class="node">
<title>Node11</title>
<g id="a_node11"><a xlink:href="classQuantConnect_1_1Api_1_1CreateLiveAlgorithmResponse.html" target="_top" xlink:title="Class representing the REST response from QC API when creating a live algorithm">
<polygon fill="white" stroke="black" points="605,-1216.5 605,-1246.5 765,-1246.5 765,-1216.5 605,-1216.5"/>
<text text-anchor="start" x="613" y="-1234.5" font-family="Helvetica,sans-Serif" font-size="10.00">QuantConnect.Api.CreateLive</text>
<text text-anchor="middle" x="685" y="-1223.5" font-family="Helvetica,sans-Serif" font-size="10.00">AlgorithmResponse</text>
</a>
</g>
</g>
<!-- Node10&#45;&gt;Node11 -->
<g id="edge10" class="edge">
<title>Node10&#45;&gt;Node11</title>
<path fill="none" stroke="midnightblue" d="M542.81,-1178.66C549.04,-1180.75 555.17,-1183.03 561,-1185.5 578.26,-1192.83 579.79,-1200.05 597,-1207.5 604.62,-1210.8 612.81,-1213.76 621.02,-1216.39"/>
<polygon fill="midnightblue" stroke="midnightblue" points="543.56,-1175.22 532.97,-1175.53 541.44,-1181.89 543.56,-1175.22"/>
</g>
<!-- Node12 -->
<g id="node12" class="node">
<title>Node12</title>
<g id="a_node12"><a xlink:href="classQuantConnect_1_1Api_1_1LiveAlgorithmSummary.html" target="_top" xlink:title="Response from List Live Algorithms request to QuantConnect Rest API.">
<polygon fill="white" stroke="black" points="597,-1167.5 597,-1197.5 773,-1197.5 773,-1167.5 597,-1167.5"/>
<text text-anchor="start" x="605" y="-1185.5" font-family="Helvetica,sans-Serif" font-size="10.00">QuantConnect.Api.LiveAlgorithm</text>
<text text-anchor="middle" x="685" y="-1174.5" font-family="Helvetica,sans-Serif" font-size="10.00">Summary</text>
</a>
</g>
</g>
<!-- Node10&#45;&gt;Node12 -->
<g id="edge11" class="edge">
<title>Node10&#45;&gt;Node12</title>
<path fill="none" stroke="midnightblue" d="M550.06,-1169.05C565.46,-1170.59 581.53,-1172.21 596.98,-1173.76"/>
<polygon fill="midnightblue" stroke="midnightblue" points="550.36,-1165.56 540.06,-1168.04 549.66,-1172.52 550.36,-1165.56"/>
</g>
<!-- Node14 -->
<g id="node14" class="node">
<title>Node14</title>
<g id="a_node14"><a xlink:href="classQuantConnect_1_1Api_1_1Optimization.html" target="_top" xlink:title="Optimization response packet from the QuantConnect.com API.">
<polygon fill="white" stroke="black" points="600,-1129 600,-1148 770,-1148 770,-1129 600,-1129"/>
<text text-anchor="middle" x="685" y="-1136" font-family="Helvetica,sans-Serif" font-size="10.00">QuantConnect.Api.Optimization</text>
</a>
</g>
</g>
<!-- Node13&#45;&gt;Node14 -->
<g id="edge13" class="edge">
<title>Node13&#45;&gt;Node14</title>
<path fill="none" stroke="midnightblue" d="M569.8,-1127.03C579.84,-1128.04 589.94,-1129.05 599.75,-1130.04"/>
<polygon fill="midnightblue" stroke="midnightblue" points="570.08,-1123.54 559.78,-1126.02 569.38,-1130.5 570.08,-1123.54"/>
</g>
<!-- Node15 -->
<g id="node15" class="node">
<title>Node15</title>
<g id="a_node15"><a xlink:href="classQuantConnect_1_1Api_1_1OptimizationSummary.html" target="_top" xlink:title="Optimization summary response for creating an optimization">
<polygon fill="white" stroke="black" points="600,-1079.5 600,-1109.5 770,-1109.5 770,-1079.5 600,-1079.5"/>
<text text-anchor="start" x="608" y="-1097.5" font-family="Helvetica,sans-Serif" font-size="10.00">QuantConnect.Api.Optimization</text>
<text text-anchor="middle" x="685" y="-1086.5" font-family="Helvetica,sans-Serif" font-size="10.00">Summary</text>
</a>
</g>
</g>
<!-- Node13&#45;&gt;Node15 -->
<g id="edge14" class="edge">
<title>Node13&#45;&gt;Node15</title>
<path fill="none" stroke="midnightblue" d="M569.8,-1105.97C579.84,-1104.96 589.94,-1103.95 599.75,-1102.96"/>
<polygon fill="midnightblue" stroke="midnightblue" points="569.38,-1102.5 559.78,-1106.98 570.08,-1109.46 569.38,-1102.5"/>
</g>
<!-- Node17 -->
<g id="node17" class="node">
<title>Node17</title>
<g id="a_node17"><a xlink:href="classQuantConnect_1_1Api_1_1Backtest.html" target="_top" xlink:title="Results object class. Results are exhaust from backtest or live algorithms running in LEAN">
<polygon fill="white" stroke="black" points="610,-1041 610,-1060 760,-1060 760,-1041 610,-1041"/>
<text text-anchor="middle" x="685" y="-1048" font-family="Helvetica,sans-Serif" font-size="10.00">QuantConnect.Api.Backtest</text>
</a>
</g>
</g>
<!-- Node16&#45;&gt;Node17 -->
<g id="edge16" class="edge">
<title>Node16&#45;&gt;Node17</title>
<path fill="none" stroke="midnightblue" d="M549.42,-1067.71C569.3,-1065.16 590.36,-1062.47 609.76,-1059.99"/>
<polygon fill="midnightblue" stroke="midnightblue" points="548.92,-1064.24 539.45,-1068.98 549.81,-1071.18 548.92,-1064.24"/>
</g>
<!-- Node18 -->
<g id="node18" class="node">
<title>Node18</title>
<g id="a_node18"><a xlink:href="classQuantConnect_1_1Api_1_1BacktestSummary.html" target="_top" xlink:title="Result object class for the List Backtest response from the API">
<polygon fill="white" stroke="black" points="610,-991.5 610,-1021.5 760,-1021.5 760,-991.5 610,-991.5"/>
<text text-anchor="start" x="618" y="-1009.5" font-family="Helvetica,sans-Serif" font-size="10.00">QuantConnect.Api.Backtest</text>
<text text-anchor="middle" x="685" y="-998.5" font-family="Helvetica,sans-Serif" font-size="10.00">Summary</text>
</a>
</g>
</g>
<!-- Node16&#45;&gt;Node18 -->
<g id="edge17" class="edge">
<title>Node16&#45;&gt;Node18</title>
<path fill="none" stroke="midnightblue" d="M543.3,-1066.22C549.4,-1064.29 555.37,-1062.07 561,-1059.5 579.44,-1051.08 578.93,-1040.69 597,-1031.5 604.42,-1027.72 612.5,-1024.44 620.65,-1021.61"/>
<polygon fill="midnightblue" stroke="midnightblue" points="542.28,-1062.87 533.63,-1069 544.21,-1069.59 542.28,-1062.87"/>
</g>
<!-- Node42 -->
<g id="node42" class="node">
<title>Node42</title>
<g id="a_node42"><a xlink:href="classQuantConnect_1_1Api_1_1ProjectResponse.html" target="_top" xlink:title="Project list response">
<polygon fill="white" stroke="black" points="614.5,-49.5 614.5,-79.5 755.5,-79.5 755.5,-49.5 614.5,-49.5"/>
<text text-anchor="start" x="622.5" y="-67.5" font-family="Helvetica,sans-Serif" font-size="10.00">QuantConnect.Api.Project</text>
<text text-anchor="middle" x="685" y="-56.5" font-family="Helvetica,sans-Serif" font-size="10.00">Response</text>
</a>
</g>
</g>
<!-- Node41&#45;&gt;Node42 -->
<g id="edge41" class="edge">
<title>Node41&#45;&gt;Node42</title>
<path fill="none" stroke="midnightblue" d="M548.71,-64.5C570.39,-64.5 593.5,-64.5 614.36,-64.5"/>
<polygon fill="midnightblue" stroke="midnightblue" points="548.53,-61 538.53,-64.5 548.53,-68 548.53,-61"/>
</g>
</g>
</svg>
