<?xml version="1.0" encoding="UTF-8" standalone="no"?>
<!DOCTYPE svg PUBLIC "-//W3C//DTD SVG 1.1//EN"
 "http://www.w3.org/Graphics/SVG/1.1/DTD/svg11.dtd">
<!-- Generated by graphviz version 2.43.0 (0)
 -->
<!-- Title: QuantConnect.Scheduling.TimeRules.AfterMarketClose Pages: 1 -->
<svg width="1475pt" height="319pt"
 viewBox="0.00 0.00 1475.00 318.50" xmlns="http://www.w3.org/2000/svg" xmlns:xlink="http://www.w3.org/1999/xlink">
<g id="graph0" class="graph" transform="scale(1 1) rotate(0) translate(4 314.5)">
<title>QuantConnect.Scheduling.TimeRules.AfterMarketClose</title>
<polygon fill="white" stroke="transparent" points="-4,4 -4,-314.5 1471,-314.5 1471,4 -4,4"/>
<!-- Node1 -->
<g id="node1" class="node">
<title>Node1</title>
<g id="a_node1"><a xlink:title="Specifies an event should fire at the market close +&#45; minutesAfterClose">
<polygon fill="#bfbfbf" stroke="black" points="0,-121 0,-151 155,-151 155,-121 0,-121"/>
<text text-anchor="start" x="8" y="-139" font-family="Helvetica,sans-Serif" font-size="10.00">QuantConnect.Scheduling.</text>
<text text-anchor="middle" x="77.5" y="-128" font-family="Helvetica,sans-Serif" font-size="10.00">TimeRules.AfterMarketClose</text>
</a>
</g>
</g>
<!-- Node2 -->
<g id="node2" class="node">
<title>Node2</title>
<g id="a_node2"><a xlink:href="classQuantConnect_1_1Scheduling_1_1TimeRules.html#a2deae02e63a372ec702f2bc8b1233506" target="_top" xlink:title="Specifies an event should fire at the market close +&#45; minutesBeforeClose">
<polygon fill="white" stroke="black" points="191,-121 191,-151 355,-151 355,-121 191,-121"/>
<text text-anchor="start" x="199" y="-139" font-family="Helvetica,sans-Serif" font-size="10.00">QuantConnect.Scheduling.</text>
<text text-anchor="middle" x="273" y="-128" font-family="Helvetica,sans-Serif" font-size="10.00">TimeRules.BeforeMarketClose</text>
</a>
</g>
</g>
<!-- Node1&#45;&gt;Node2 -->
<g id="edge1" class="edge">
<title>Node1&#45;&gt;Node2</title>
<path fill="none" stroke="midnightblue" d="M155.25,-136C163.67,-136 172.3,-136 180.87,-136"/>
<polygon fill="midnightblue" stroke="midnightblue" points="180.89,-139.5 190.89,-136 180.89,-132.5 180.89,-139.5"/>
</g>
<!-- Node3 -->
<g id="node3" class="node">
<title>Node3</title>
<g id="a_node3"><a xlink:href="classQuantConnect_1_1Scheduling_1_1BaseScheduleRules.html#a7f7f5459a775e24b528b7c58ebe6fe77" target="_top" xlink:title="Helper method to fetch the security exchange hours">
<polygon fill="white" stroke="black" points="391,-115.5 391,-156.5 563,-156.5 563,-115.5 391,-115.5"/>
<text text-anchor="start" x="399" y="-144.5" font-family="Helvetica,sans-Serif" font-size="10.00">QuantConnect.Scheduling.</text>
<text text-anchor="start" x="399" y="-133.5" font-family="Helvetica,sans-Serif" font-size="10.00">BaseScheduleRules.GetSecurity</text>
<text text-anchor="middle" x="477" y="-122.5" font-family="Helvetica,sans-Serif" font-size="10.00">ExchangeHours</text>
</a>
</g>
</g>
<!-- Node2&#45;&gt;Node3 -->
<g id="edge2" class="edge">
<title>Node2&#45;&gt;Node3</title>
<path fill="none" stroke="midnightblue" d="M355.29,-136C363.72,-136 372.34,-136 380.91,-136"/>
<polygon fill="midnightblue" stroke="midnightblue" points="380.92,-139.5 390.92,-136 380.92,-132.5 380.92,-139.5"/>
</g>
<!-- Node4 -->
<g id="node4" class="node">
<title>Node4</title>
<g id="a_node4"><a xlink:href="classQuantConnect_1_1Securities_1_1MarketHoursDatabase.html#aeac6cf20dbffdbafd258f0d5f4473713" target="_top" xlink:title="Gets the entry for the specified market/symbol/security&#45;type">
<polygon fill="white" stroke="black" points="599,-146 599,-176 770,-176 770,-146 599,-146"/>
<text text-anchor="start" x="607" y="-164" font-family="Helvetica,sans-Serif" font-size="10.00">QuantConnect.Securities.</text>
<text text-anchor="middle" x="684.5" y="-153" font-family="Helvetica,sans-Serif" font-size="10.00">MarketHoursDatabase.GetEntry</text>
</a>
</g>
</g>
<!-- Node3&#45;&gt;Node4 -->
<g id="edge3" class="edge">
<title>Node3&#45;&gt;Node4</title>
<path fill="none" stroke="midnightblue" d="M563.07,-146.35C571.56,-147.38 580.22,-148.44 588.8,-149.48"/>
<polygon fill="midnightblue" stroke="midnightblue" points="588.48,-152.97 598.83,-150.7 589.32,-146.02 588.48,-152.97"/>
</g>
<!-- Node16 -->
<g id="node16" class="node">
<title>Node16</title>
<g id="a_node16"><a xlink:href="classQuantConnect_1_1Securities_1_1SecurityManager.html#af3ad97e370ceec706ac1afe70f7fbb42" target="_top" xlink:title="Try and get this security object with matching symbol and return true on success.">
<polygon fill="white" stroke="black" points="604.5,-97 604.5,-127 764.5,-127 764.5,-97 604.5,-97"/>
<text text-anchor="start" x="612.5" y="-115" font-family="Helvetica,sans-Serif" font-size="10.00">QuantConnect.Securities.</text>
<text text-anchor="middle" x="684.5" y="-104" font-family="Helvetica,sans-Serif" font-size="10.00">SecurityManager.TryGetValue</text>
</a>
</g>
</g>
<!-- Node3&#45;&gt;Node16 -->
<g id="edge15" class="edge">
<title>Node3&#45;&gt;Node16</title>
<path fill="none" stroke="midnightblue" d="M563.07,-126.07C573.34,-124.87 583.85,-123.64 594.18,-122.43"/>
<polygon fill="midnightblue" stroke="midnightblue" points="594.9,-125.87 604.43,-121.23 594.09,-118.92 594.9,-125.87"/>
</g>
<!-- Node5 -->
<g id="node5" class="node">
<title>Node5</title>
<g id="a_node5"><a xlink:href="classQuantConnect_1_1Logging_1_1Log.html#af0e7955911bc7664b37661b2a303a9e3" target="_top" xlink:title="Log error">
<polygon fill="white" stroke="black" points="839.5,-280 839.5,-310 989.5,-310 989.5,-280 839.5,-280"/>
<text text-anchor="start" x="847.5" y="-298" font-family="Helvetica,sans-Serif" font-size="10.00">QuantConnect.Logging.Log.</text>
<text text-anchor="middle" x="914.5" y="-287" font-family="Helvetica,sans-Serif" font-size="10.00">Error</text>
</a>
</g>
</g>
<!-- Node4&#45;&gt;Node5 -->
<g id="edge4" class="edge">
<title>Node4&#45;&gt;Node5</title>
<path fill="none" stroke="midnightblue" d="M697.44,-176.11C717.29,-200.14 759.51,-246.81 806,-271 813.44,-274.87 821.48,-278.12 829.7,-280.84"/>
<polygon fill="midnightblue" stroke="midnightblue" points="828.83,-284.24 839.41,-283.81 830.87,-277.54 828.83,-284.24"/>
</g>
<!-- Node7 -->
<g id="node7" class="node">
<title>Node7</title>
<g id="a_node7"><a xlink:href="classQuantConnect_1_1Messages_1_1MarketHoursDatabase.html#af07138844a7ebc1a342f8b56a6be9917" target="_top" xlink:title="Returns a string message saying it was impossible to locate exchange hours for the given key....">
<polygon fill="white" stroke="black" points="806,-231 806,-261 1023,-261 1023,-231 806,-231"/>
<text text-anchor="start" x="814" y="-249" font-family="Helvetica,sans-Serif" font-size="10.00">QuantConnect.Messages.Market</text>
<text text-anchor="middle" x="914.5" y="-238" font-family="Helvetica,sans-Serif" font-size="10.00">HoursDatabase.ExchangeHoursNotFound</text>
</a>
</g>
</g>
<!-- Node4&#45;&gt;Node7 -->
<g id="edge6" class="edge">
<title>Node4&#45;&gt;Node7</title>
<path fill="none" stroke="midnightblue" d="M711.52,-176.18C735.41,-189.58 772.13,-208.82 806,-221 813.29,-223.62 820.96,-226.04 828.7,-228.25"/>
<polygon fill="midnightblue" stroke="midnightblue" points="827.96,-231.68 838.53,-230.94 829.81,-224.93 827.96,-231.68"/>
</g>
<!-- Node8 -->
<g id="node8" class="node">
<title>Node8</title>
<g id="a_node8"><a xlink:href="classQuantConnect_1_1Securities_1_1SymbolPropertiesDatabase.html#aee26fb588793fd311c44eb8b2909cc33" target="_top" xlink:title="Gets the instance of the SymbolPropertiesDatabase class produced by reading in the symbol properties ...">
<polygon fill="white" stroke="black" points="826,-170.5 826,-211.5 1003,-211.5 1003,-170.5 826,-170.5"/>
<text text-anchor="start" x="834" y="-199.5" font-family="Helvetica,sans-Serif" font-size="10.00">QuantConnect.Securities.</text>
<text text-anchor="start" x="834" y="-188.5" font-family="Helvetica,sans-Serif" font-size="10.00">SymbolPropertiesDatabase.From</text>
<text text-anchor="middle" x="914.5" y="-177.5" font-family="Helvetica,sans-Serif" font-size="10.00">DataFolder</text>
</a>
</g>
</g>
<!-- Node4&#45;&gt;Node8 -->
<g id="edge7" class="edge">
<title>Node4&#45;&gt;Node8</title>
<path fill="none" stroke="midnightblue" d="M770.07,-172.13C784.8,-174.07 800.23,-176.1 815.28,-178.08"/>
<polygon fill="midnightblue" stroke="midnightblue" points="815.26,-181.6 825.63,-179.44 816.17,-174.66 815.26,-181.6"/>
</g>
<!-- Node12 -->
<g id="node12" class="node">
<title>Node12</title>
<g id="a_node12"><a xlink:href="classQuantConnect_1_1Messages_1_1MarketHoursDatabase.html#a656d4c4976d6c12d2d865ad34fb23c42" target="_top" xlink:title="Returns a string message that suggests the given market based on the provided ticker">
<polygon fill="white" stroke="black" points="810,-110.5 810,-151.5 1019,-151.5 1019,-110.5 810,-110.5"/>
<text text-anchor="start" x="818" y="-139.5" font-family="Helvetica,sans-Serif" font-size="10.00">QuantConnect.Messages.Market</text>
<text text-anchor="start" x="818" y="-128.5" font-family="Helvetica,sans-Serif" font-size="10.00">HoursDatabase.SuggestedMarketBased</text>
<text text-anchor="middle" x="914.5" y="-117.5" font-family="Helvetica,sans-Serif" font-size="10.00">OnTicker</text>
</a>
</g>
</g>
<!-- Node4&#45;&gt;Node12 -->
<g id="edge11" class="edge">
<title>Node4&#45;&gt;Node12</title>
<path fill="none" stroke="midnightblue" d="M770.07,-149.87C779.77,-148.6 789.77,-147.28 799.77,-145.96"/>
<polygon fill="midnightblue" stroke="midnightblue" points="800.29,-149.43 809.75,-144.65 799.38,-142.49 800.29,-149.43"/>
</g>
<!-- Node13 -->
<g id="node13" class="node">
<title>Node13</title>
<g id="a_node13"><a xlink:href="classQuantConnect_1_1Securities_1_1MarketHoursDatabase.html#a3eedd1459368e8f50da2cedfc7508006" target="_top" xlink:title="Tries to get the entry for the specified market/symbol/security&#45;type">
<polygon fill="white" stroke="black" points="822,-61 822,-91 1007,-91 1007,-61 822,-61"/>
<text text-anchor="start" x="830" y="-79" font-family="Helvetica,sans-Serif" font-size="10.00">QuantConnect.Securities.</text>
<text text-anchor="middle" x="914.5" y="-68" font-family="Helvetica,sans-Serif" font-size="10.00">MarketHoursDatabase.TryGetEntry</text>
</a>
</g>
</g>
<!-- Node4&#45;&gt;Node13 -->
<g id="edge12" class="edge">
<title>Node4&#45;&gt;Node13</title>
<path fill="none" stroke="midnightblue" d="M748.76,-145.99C756.15,-143.17 763.4,-139.86 770,-136 789.26,-124.73 786.42,-111.7 806,-101 810.24,-98.68 814.69,-96.58 819.27,-94.67"/>
<polygon fill="midnightblue" stroke="midnightblue" points="820.73,-97.86 828.82,-91.02 818.23,-91.32 820.73,-97.86"/>
</g>
<!-- Node15 -->
<g id="node15" class="node">
<title>Node15</title>
<g id="a_node15"><a xlink:href="classQuantConnect_1_1Securities_1_1SymbolPropertiesDatabase.html#a5a7baeddd03bfc7fb60cef8ab2e6834b" target="_top" xlink:title="Tries to get the market for the provided symbol/security type">
<polygon fill="white" stroke="black" points="831,-0.5 831,-41.5 998,-41.5 998,-0.5 831,-0.5"/>
<text text-anchor="start" x="839" y="-29.5" font-family="Helvetica,sans-Serif" font-size="10.00">QuantConnect.Securities.</text>
<text text-anchor="start" x="839" y="-18.5" font-family="Helvetica,sans-Serif" font-size="10.00">SymbolPropertiesDatabase.Try</text>
<text text-anchor="middle" x="914.5" y="-7.5" font-family="Helvetica,sans-Serif" font-size="10.00">GetMarket</text>
</a>
</g>
</g>
<!-- Node4&#45;&gt;Node15 -->
<g id="edge14" class="edge">
<title>Node4&#45;&gt;Node15</title>
<path fill="none" stroke="midnightblue" d="M755.53,-145.91C760.75,-143.15 765.66,-139.87 770,-136 800.6,-108.67 775.19,-78.09 806,-51 810.78,-46.8 816.09,-43.19 821.73,-40.08"/>
<polygon fill="midnightblue" stroke="midnightblue" points="823.41,-43.15 830.84,-35.59 820.32,-36.87 823.41,-43.15"/>
</g>
<!-- Node6 -->
<g id="node6" class="node">
<title>Node6</title>
<g id="a_node6"><a xlink:href="interfaceQuantConnect_1_1Logging_1_1ILogHandler.html#a35373a0c5d76031fa5ccf5dc39e5c25d" target="_top" xlink:title="Write error message to log">
<polygon fill="white" stroke="black" points="1080,-280 1080,-310 1230,-310 1230,-280 1080,-280"/>
<text text-anchor="start" x="1088" y="-298" font-family="Helvetica,sans-Serif" font-size="10.00">QuantConnect.Logging.ILog</text>
<text text-anchor="middle" x="1155" y="-287" font-family="Helvetica,sans-Serif" font-size="10.00">Handler.Error</text>
</a>
</g>
</g>
<!-- Node5&#45;&gt;Node6 -->
<g id="edge5" class="edge">
<title>Node5&#45;&gt;Node6</title>
<path fill="none" stroke="midnightblue" d="M989.66,-295C1015.01,-295 1043.55,-295 1069.64,-295"/>
<polygon fill="midnightblue" stroke="midnightblue" points="1069.89,-298.5 1079.89,-295 1069.89,-291.5 1069.89,-298.5"/>
</g>
<!-- Node9 -->
<g id="node9" class="node">
<title>Node9</title>
<g id="a_node9"><a xlink:href="classQuantConnect_1_1Globals.html#ae01b5c94ef475a21ab1a62fe1b04ea5c" target="_top" xlink:title="Helper method that will build a data folder path checking if it exists on the cache folder else will ...">
<polygon fill="white" stroke="black" points="1082,-204 1082,-234 1228,-234 1228,-204 1082,-204"/>
<text text-anchor="start" x="1090" y="-222" font-family="Helvetica,sans-Serif" font-size="10.00">QuantConnect.Globals.Get</text>
<text text-anchor="middle" x="1155" y="-211" font-family="Helvetica,sans-Serif" font-size="10.00">DataFolderPath</text>
</a>
</g>
</g>
<!-- Node8&#45;&gt;Node9 -->
<g id="edge8" class="edge">
<title>Node8&#45;&gt;Node9</title>
<path fill="none" stroke="midnightblue" d="M1003.29,-201.31C1025.64,-203.93 1049.57,-206.74 1071.63,-209.33"/>
<polygon fill="midnightblue" stroke="midnightblue" points="1071.29,-212.81 1081.63,-210.5 1072.1,-205.86 1071.29,-212.81"/>
</g>
<!-- Node10 -->
<g id="node10" class="node">
<title>Node10</title>
<g id="a_node10"><a xlink:href="classQuantConnect_1_1Securities_1_1SymbolPropertiesDatabase.html#a1658f93bf0dce7022bb7584e1a95cc7a" target="_top" xlink:title="Initialize a new instance of SymbolPropertiesDatabase using the given file">
<polygon fill="white" stroke="black" points="1060.5,-143.5 1060.5,-184.5 1249.5,-184.5 1249.5,-143.5 1060.5,-143.5"/>
<text text-anchor="start" x="1068.5" y="-172.5" font-family="Helvetica,sans-Serif" font-size="10.00">QuantConnect.Securities.</text>
<text text-anchor="start" x="1068.5" y="-161.5" font-family="Helvetica,sans-Serif" font-size="10.00">SymbolPropertiesDatabase.Symbol</text>
<text text-anchor="middle" x="1155" y="-150.5" font-family="Helvetica,sans-Serif" font-size="10.00">PropertiesDatabase</text>
</a>
</g>
</g>
<!-- Node8&#45;&gt;Node10 -->
<g id="edge9" class="edge">
<title>Node8&#45;&gt;Node10</title>
<path fill="none" stroke="midnightblue" d="M1003.29,-181.06C1018.55,-179.33 1034.54,-177.52 1050.17,-175.75"/>
<polygon fill="midnightblue" stroke="midnightblue" points="1050.84,-179.2 1060.38,-174.6 1050.05,-172.25 1050.84,-179.2"/>
</g>
<!-- Node11 -->
<g id="node11" class="node">
<title>Node11</title>
<g id="a_node11"><a xlink:href="classQuantConnect_1_1Messages_1_1SymbolPropertiesDatabase.html#a6abceae517a349a28223bfc2dc9106d7" target="_top" xlink:title="Returns a string saying a duplicated key was found while processing the given file">
<polygon fill="white" stroke="black" points="1287,-143.5 1287,-184.5 1467,-184.5 1467,-143.5 1287,-143.5"/>
<text text-anchor="start" x="1295" y="-172.5" font-family="Helvetica,sans-Serif" font-size="10.00">QuantConnect.Messages.Symbol</text>
<text text-anchor="start" x="1295" y="-161.5" font-family="Helvetica,sans-Serif" font-size="10.00">PropertiesDatabase.DuplicateKey</text>
<text text-anchor="middle" x="1377" y="-150.5" font-family="Helvetica,sans-Serif" font-size="10.00">InFile</text>
</a>
</g>
</g>
<!-- Node10&#45;&gt;Node11 -->
<g id="edge10" class="edge">
<title>Node10&#45;&gt;Node11</title>
<path fill="none" stroke="midnightblue" d="M1249.62,-164C1258.54,-164 1267.61,-164 1276.58,-164"/>
<polygon fill="midnightblue" stroke="midnightblue" points="1276.66,-167.5 1286.66,-164 1276.66,-160.5 1276.66,-167.5"/>
</g>
<!-- Node14 -->
<g id="node14" class="node">
<title>Node14</title>
<g id="a_node14"><a xlink:href="classQuantConnect_1_1Securities_1_1MarketHoursDatabase.html#aa717adb9bb04be931913608ffd5a2733" target="_top" xlink:title="Gets the correct string symbol to use as a database key">
<polygon fill="white" stroke="black" points="1059,-55.5 1059,-96.5 1251,-96.5 1251,-55.5 1059,-55.5"/>
<text text-anchor="start" x="1067" y="-84.5" font-family="Helvetica,sans-Serif" font-size="10.00">QuantConnect.Securities.</text>
<text text-anchor="start" x="1067" y="-73.5" font-family="Helvetica,sans-Serif" font-size="10.00">MarketHoursDatabase.GetDatabase</text>
<text text-anchor="middle" x="1155" y="-62.5" font-family="Helvetica,sans-Serif" font-size="10.00">SymbolKey</text>
</a>
</g>
</g>
<!-- Node13&#45;&gt;Node14 -->
<g id="edge13" class="edge">
<title>Node13&#45;&gt;Node14</title>
<path fill="none" stroke="midnightblue" d="M1007.03,-76C1020.66,-76 1034.81,-76 1048.7,-76"/>
<polygon fill="midnightblue" stroke="midnightblue" points="1048.76,-79.5 1058.76,-76 1048.76,-72.5 1048.76,-79.5"/>
</g>
</g>
</svg>
