<?xml version="1.0" encoding="UTF-8" standalone="no"?>
<!DOCTYPE svg PUBLIC "-//W3C//DTD SVG 1.1//EN"
 "http://www.w3.org/Graphics/SVG/1.1/DTD/svg11.dtd">
<!-- Generated by graphviz version 2.43.0 (0)
 -->
<!-- Title: QuantConnect.Securities.Option.OptionStrategies.ShortJellyRoll Pages: 1 -->
<svg width="812pt" height="110pt"
 viewBox="0.00 0.00 812.00 110.00" xmlns="http://www.w3.org/2000/svg" xmlns:xlink="http://www.w3.org/1999/xlink">
<g id="graph0" class="graph" transform="scale(1 1) rotate(0) translate(4 106)">
<title>QuantConnect.Securities.Option.OptionStrategies.ShortJellyRoll</title>
<polygon fill="white" stroke="transparent" points="-4,4 -4,-106 808,-106 808,4 -4,4"/>
<!-- Node1 -->
<g id="node1" class="node">
<title>Node1</title>
<g id="a_node1"><a xlink:title="Creates new Short Jelly Roll strategy which combines a long call calendar spread and a short put cale...">
<polygon fill="#bfbfbf" stroke="black" points="0,-30.5 0,-71.5 162,-71.5 162,-30.5 0,-30.5"/>
<text text-anchor="start" x="8" y="-59.5" font-family="Helvetica,sans-Serif" font-size="10.00">QuantConnect.Securities.</text>
<text text-anchor="start" x="8" y="-48.5" font-family="Helvetica,sans-Serif" font-size="10.00">Option.OptionStrategies.Short</text>
<text text-anchor="middle" x="81" y="-37.5" font-family="Helvetica,sans-Serif" font-size="10.00">JellyRoll</text>
</a>
</g>
</g>
<!-- Node2 -->
<g id="node2" class="node">
<title>Node2</title>
<g id="a_node2"><a xlink:href="classQuantConnect_1_1Securities_1_1Option_1_1OptionStrategies.html#aea9734281dbee8dff88bb0d66cb613d3" target="_top" xlink:title="Creates new Jelly Roll strategy which combines a long call calendar spread and a short put calendar s...">
<polygon fill="white" stroke="black" points="198,-36 198,-66 374,-66 374,-36 198,-36"/>
<text text-anchor="start" x="206" y="-54" font-family="Helvetica,sans-Serif" font-size="10.00">QuantConnect.Securities.</text>
<text text-anchor="middle" x="286" y="-43" font-family="Helvetica,sans-Serif" font-size="10.00">Option.OptionStrategies.JellyRoll</text>
</a>
</g>
</g>
<!-- Node1&#45;&gt;Node2 -->
<g id="edge1" class="edge">
<title>Node1&#45;&gt;Node2</title>
<path fill="none" stroke="midnightblue" d="M162.23,-51C170.67,-51 179.32,-51 187.93,-51"/>
<polygon fill="midnightblue" stroke="midnightblue" points="188,-54.5 198,-51 188,-47.5 188,-54.5"/>
</g>
<!-- Node3 -->
<g id="node3" class="node">
<title>Node3</title>
<g id="a_node3"><a xlink:href="classQuantConnect_1_1Securities_1_1Option_1_1OptionStrategies.html#a3a95817e17db0ad052cfb383dc51cb4a" target="_top" xlink:title="Creates new Call Calendar Spread strategy which consists of a short and a long call with the same str...">
<polygon fill="white" stroke="black" points="413.5,-60.5 413.5,-101.5 568.5,-101.5 568.5,-60.5 413.5,-60.5"/>
<text text-anchor="start" x="421.5" y="-89.5" font-family="Helvetica,sans-Serif" font-size="10.00">QuantConnect.Securities.</text>
<text text-anchor="start" x="421.5" y="-78.5" font-family="Helvetica,sans-Serif" font-size="10.00">Option.OptionStrategies.Call</text>
<text text-anchor="middle" x="491" y="-67.5" font-family="Helvetica,sans-Serif" font-size="10.00">CalendarSpread</text>
</a>
</g>
</g>
<!-- Node2&#45;&gt;Node3 -->
<g id="edge2" class="edge">
<title>Node2&#45;&gt;Node3</title>
<path fill="none" stroke="midnightblue" d="M374.27,-63.9C383.92,-65.32 393.74,-66.78 403.39,-68.2"/>
<polygon fill="midnightblue" stroke="midnightblue" points="402.95,-71.67 413.35,-69.67 403.97,-64.75 402.95,-71.67"/>
</g>
<!-- Node4 -->
<g id="node4" class="node">
<title>Node4</title>
<g id="a_node4"><a xlink:href="classQuantConnect_1_1Securities_1_1Option_1_1OptionStrategies.html#a1e8a14739aac68ff9a709e028fa34f12" target="_top" xlink:title="Creates new Short Put Calendar Spread strategy which consists of a short and a long put with the same...">
<polygon fill="white" stroke="black" points="410,-0.5 410,-41.5 572,-41.5 572,-0.5 410,-0.5"/>
<text text-anchor="start" x="418" y="-29.5" font-family="Helvetica,sans-Serif" font-size="10.00">QuantConnect.Securities.</text>
<text text-anchor="start" x="418" y="-18.5" font-family="Helvetica,sans-Serif" font-size="10.00">Option.OptionStrategies.Short</text>
<text text-anchor="middle" x="491" y="-7.5" font-family="Helvetica,sans-Serif" font-size="10.00">PutCalendarSpread</text>
</a>
</g>
</g>
<!-- Node2&#45;&gt;Node4 -->
<g id="edge3" class="edge">
<title>Node2&#45;&gt;Node4</title>
<path fill="none" stroke="midnightblue" d="M374.27,-38.1C382.76,-36.85 391.4,-35.57 399.92,-34.31"/>
<polygon fill="midnightblue" stroke="midnightblue" points="400.48,-37.77 409.86,-32.84 399.46,-30.84 400.48,-37.77"/>
</g>
<!-- Node5 -->
<g id="node5" class="node">
<title>Node5</title>
<g id="a_node5"><a xlink:href="classQuantConnect_1_1Securities_1_1Option_1_1OptionStrategies.html#a38c4025416082f438ecc0d45ae254ade" target="_top" xlink:title="Creates new Put Calendar Spread strategy which consists of a short and a long put with the same strik...">
<polygon fill="white" stroke="black" points="608,-0.5 608,-41.5 804,-41.5 804,-0.5 608,-0.5"/>
<text text-anchor="start" x="616" y="-29.5" font-family="Helvetica,sans-Serif" font-size="10.00">QuantConnect.Securities.</text>
<text text-anchor="start" x="616" y="-18.5" font-family="Helvetica,sans-Serif" font-size="10.00">Option.OptionStrategies.PutCalendar</text>
<text text-anchor="middle" x="706" y="-7.5" font-family="Helvetica,sans-Serif" font-size="10.00">Spread</text>
</a>
</g>
</g>
<!-- Node4&#45;&gt;Node5 -->
<g id="edge4" class="edge">
<title>Node4&#45;&gt;Node5</title>
<path fill="none" stroke="midnightblue" d="M572.22,-21C580.61,-21 589.24,-21 597.87,-21"/>
<polygon fill="midnightblue" stroke="midnightblue" points="597.99,-24.5 607.99,-21 597.99,-17.5 597.99,-24.5"/>
</g>
</g>
</svg>
