<?xml version="1.0" encoding="UTF-8" standalone="no"?>
<!DOCTYPE svg PUBLIC "-//W3C//DTD SVG 1.1//EN"
 "http://www.w3.org/Graphics/SVG/1.1/DTD/svg11.dtd">
<!-- Generated by graphviz version 2.43.0 (0)
 -->
<!-- Title: QuantConnect.Securities.SecurityExchangeHours.GetLastDailyMarketClose Pages: 1 -->
<svg width="398pt" height="149pt"
 viewBox="0.00 0.00 398.00 148.50" xmlns="http://www.w3.org/2000/svg" xmlns:xlink="http://www.w3.org/1999/xlink">
<g id="graph0" class="graph" transform="scale(1 1) rotate(0) translate(4 144.5)">
<title>QuantConnect.Securities.SecurityExchangeHours.GetLastDailyMarketClose</title>
<polygon fill="white" stroke="transparent" points="-4,4 -4,-144.5 394,-144.5 394,4 -4,4"/>
<!-- Node1 -->
<g id="node1" class="node">
<title>Node1</title>
<g id="a_node1"><a xlink:title="Gets the local date time corresponding to the last market close following the specified date">
<polygon fill="#bfbfbf" stroke="black" points="217,-44 217,-85 390,-85 390,-44 217,-44"/>
<text text-anchor="start" x="225" y="-73" font-family="Helvetica,sans-Serif" font-size="10.00">QuantConnect.Securities.</text>
<text text-anchor="start" x="225" y="-62" font-family="Helvetica,sans-Serif" font-size="10.00">SecurityExchangeHours.GetLast</text>
<text text-anchor="middle" x="303.5" y="-51" font-family="Helvetica,sans-Serif" font-size="10.00">DailyMarketClose</text>
</a>
</g>
</g>
<!-- Node2 -->
<g id="node2" class="node">
<title>Node2</title>
<g id="a_node2"><a xlink:href="classQuantConnect_1_1Lean_1_1Engine_1_1RealTime_1_1ScheduledEventFactory.html#a2a548ebf5457bc6d9ae25dd28f2a3dcd" target="_top" xlink:title="Creates a new ScheduledEvent that will fire before market close by the specified time">
<polygon fill="white" stroke="black" points="0,-99 0,-140 181,-140 181,-99 0,-99"/>
<text text-anchor="start" x="8" y="-128" font-family="Helvetica,sans-Serif" font-size="10.00">QuantConnect.Lean.Engine.</text>
<text text-anchor="start" x="8" y="-117" font-family="Helvetica,sans-Serif" font-size="10.00">RealTime.ScheduledEventFactory.</text>
<text text-anchor="middle" x="90.5" y="-106" font-family="Helvetica,sans-Serif" font-size="10.00">EverySecurityEndOfDay</text>
</a>
</g>
</g>
<!-- Node1&#45;&gt;Node2 -->
<g id="edge1" class="edge">
<title>Node1&#45;&gt;Node2</title>
<path fill="none" stroke="midnightblue" d="M213.72,-87.64C199.3,-91.4 184.44,-95.27 170.27,-98.97"/>
<polygon fill="midnightblue" stroke="midnightblue" points="214.84,-90.97 223.63,-85.06 213.07,-84.19 214.84,-90.97"/>
</g>
<!-- Node3 -->
<g id="node3" class="node">
<title>Node3</title>
<g id="a_node3"><a xlink:href="classQuantConnect_1_1Util_1_1LeanData.html#a684e4331309b64aec17e6074ce456b2a" target="_top" xlink:title="Helper method to return the start time and period of a bar the given point time should be part of">
<polygon fill="white" stroke="black" points="11.5,-49.5 11.5,-79.5 169.5,-79.5 169.5,-49.5 11.5,-49.5"/>
<text text-anchor="start" x="19.5" y="-67.5" font-family="Helvetica,sans-Serif" font-size="10.00">QuantConnect.Util.LeanData.</text>
<text text-anchor="middle" x="90.5" y="-56.5" font-family="Helvetica,sans-Serif" font-size="10.00">GetDailyCalendar</text>
</a>
</g>
</g>
<!-- Node1&#45;&gt;Node3 -->
<g id="edge2" class="edge">
<title>Node1&#45;&gt;Node3</title>
<path fill="none" stroke="midnightblue" d="M206.64,-64.5C194.26,-64.5 181.7,-64.5 169.65,-64.5"/>
<polygon fill="midnightblue" stroke="midnightblue" points="206.98,-68 216.98,-64.5 206.98,-61 206.98,-68"/>
</g>
<!-- Node4 -->
<g id="node4" class="node">
<title>Node4</title>
<g id="a_node4"><a xlink:href="classQuantConnect_1_1Util_1_1LeanData.html#ad63021af2455d8433040838f49a7a15d" target="_top" xlink:title="Helper method to get the next daily end time, taking into account strict end times if appropriate">
<polygon fill="white" stroke="black" points="11.5,-0.5 11.5,-30.5 169.5,-30.5 169.5,-0.5 11.5,-0.5"/>
<text text-anchor="start" x="19.5" y="-18.5" font-family="Helvetica,sans-Serif" font-size="10.00">QuantConnect.Util.LeanData.</text>
<text text-anchor="middle" x="90.5" y="-7.5" font-family="Helvetica,sans-Serif" font-size="10.00">GetNextDailyEndTime</text>
</a>
</g>
</g>
<!-- Node1&#45;&gt;Node4 -->
<g id="edge3" class="edge">
<title>Node1&#45;&gt;Node4</title>
<path fill="none" stroke="midnightblue" d="M206.96,-42.31C189.85,-38.34 172.39,-34.28 156.39,-30.57"/>
<polygon fill="midnightblue" stroke="midnightblue" points="206.45,-45.79 216.98,-44.64 208.03,-38.97 206.45,-45.79"/>
</g>
</g>
</svg>
