<?xml version="1.0" encoding="UTF-8" standalone="no"?>
<!DOCTYPE svg PUBLIC "-//W3C//DTD SVG 1.1//EN"
 "http://www.w3.org/Graphics/SVG/1.1/DTD/svg11.dtd">
<!-- Generated by graphviz version 2.43.0 (0)
 -->
<!-- Title: QuantConnect.Securities.SecurityDatabaseKey.Parse Pages: 1 -->
<svg width="399pt" height="100pt"
 viewBox="0.00 0.00 399.00 99.50" xmlns="http://www.w3.org/2000/svg" xmlns:xlink="http://www.w3.org/1999/xlink">
<g id="graph0" class="graph" transform="scale(1 1) rotate(0) translate(4 95.5)">
<title>QuantConnect.Securities.SecurityDatabaseKey.Parse</title>
<polygon fill="white" stroke="transparent" points="-4,4 -4,-95.5 395,-95.5 395,4 -4,4"/>
<!-- Node1 -->
<g id="node1" class="node">
<title>Node1</title>
<g id="a_node1"><a xlink:title="Parses the specified string as a SecurityDatabaseKey">
<polygon fill="#bfbfbf" stroke="black" points="0,-33 0,-63 149,-63 149,-33 0,-33"/>
<text text-anchor="start" x="8" y="-51" font-family="Helvetica,sans-Serif" font-size="10.00">QuantConnect.Securities.</text>
<text text-anchor="middle" x="74.5" y="-40" font-family="Helvetica,sans-Serif" font-size="10.00">SecurityDatabaseKey.Parse</text>
</a>
</g>
</g>
<!-- Node2 -->
<g id="node2" class="node">
<title>Node2</title>
<g id="a_node2"><a xlink:href="classQuantConnect_1_1Messages_1_1SecurityDatabaseKey.html#aae62e52eb34820d4192847dfceba6562" target="_top" xlink:title="Returns a string message saying the specified and given key was not in the expected format">
<polygon fill="white" stroke="black" points="185,-61 185,-91 391,-91 391,-61 185,-61"/>
<text text-anchor="start" x="193" y="-79" font-family="Helvetica,sans-Serif" font-size="10.00">QuantConnect.Messages.Security</text>
<text text-anchor="middle" x="288" y="-68" font-family="Helvetica,sans-Serif" font-size="10.00">DatabaseKey.KeyNotInExpectedFormat</text>
</a>
</g>
</g>
<!-- Node1&#45;&gt;Node2 -->
<g id="edge1" class="edge">
<title>Node1&#45;&gt;Node2</title>
<path fill="none" stroke="midnightblue" d="M149.18,-57.75C157.49,-58.85 166.09,-59.99 174.75,-61.14"/>
<polygon fill="midnightblue" stroke="midnightblue" points="174.56,-64.64 184.93,-62.49 175.48,-57.71 174.56,-64.64"/>
</g>
<!-- Node3 -->
<g id="node3" class="node">
<title>Node3</title>
<g id="a_node3"><a xlink:href="classQuantConnect_1_1Securities_1_1SecurityDatabaseKey.html#a709d4b45aad5fb375b354f9e514b620e" target="_top" xlink:title="Initializes a new instance of the SecurityDatabaseKey class">
<polygon fill="white" stroke="black" points="207,-0.5 207,-41.5 369,-41.5 369,-0.5 207,-0.5"/>
<text text-anchor="start" x="215" y="-29.5" font-family="Helvetica,sans-Serif" font-size="10.00">QuantConnect.Securities.</text>
<text text-anchor="start" x="215" y="-18.5" font-family="Helvetica,sans-Serif" font-size="10.00">SecurityDatabaseKey.Security</text>
<text text-anchor="middle" x="288" y="-7.5" font-family="Helvetica,sans-Serif" font-size="10.00">DatabaseKey</text>
</a>
</g>
</g>
<!-- Node1&#45;&gt;Node3 -->
<g id="edge2" class="edge">
<title>Node1&#45;&gt;Node3</title>
<path fill="none" stroke="midnightblue" d="M149.18,-38.59C164.43,-36.65 180.67,-34.57 196.45,-32.56"/>
<polygon fill="midnightblue" stroke="midnightblue" points="197.26,-35.98 206.74,-31.25 196.37,-29.04 197.26,-35.98"/>
</g>
</g>
</svg>
