<?xml version="1.0" encoding="UTF-8" standalone="no"?>
<!DOCTYPE svg PUBLIC "-//W3C//DTD SVG 1.1//EN"
 "http://www.w3.org/Graphics/SVG/1.1/DTD/svg11.dtd">
<!-- Generated by graphviz version 2.43.0 (0)
 -->
<!-- Title: QuantConnect.Messages.BuyingPowerModel.TargetOrderMarginNotAboveMinimum Pages: 1 -->
<svg width="752pt" height="171pt"
 viewBox="0.00 0.00 752.00 171.00" xmlns="http://www.w3.org/2000/svg" xmlns:xlink="http://www.w3.org/1999/xlink">
<g id="graph0" class="graph" transform="scale(1 1) rotate(0) translate(4 167)">
<title>QuantConnect.Messages.BuyingPowerModel.TargetOrderMarginNotAboveMinimum</title>
<polygon fill="white" stroke="transparent" points="-4,4 -4,-167 748,-167 748,4 -4,4"/>
<!-- Node1 -->
<g id="node1" class="node">
<title>Node1</title>
<g id="a_node1"><a xlink:title="Returns a string message saying the given target order margin is less than the given minimum value">
<polygon fill="#bfbfbf" stroke="black" points="556,-50 556,-91 744,-91 744,-50 556,-50"/>
<text text-anchor="start" x="564" y="-79" font-family="Helvetica,sans-Serif" font-size="10.00">QuantConnect.Messages.Buying</text>
<text text-anchor="start" x="564" y="-68" font-family="Helvetica,sans-Serif" font-size="10.00">PowerModel.TargetOrderMarginNot</text>
<text text-anchor="middle" x="650" y="-57" font-family="Helvetica,sans-Serif" font-size="10.00">AboveMinimum</text>
</a>
</g>
</g>
<!-- Node2 -->
<g id="node2" class="node">
<title>Node2</title>
<g id="a_node2"><a xlink:href="classQuantConnect_1_1Securities_1_1Positions_1_1PositionGroupBuyingPowerModel.html#a6ffef28c266745b259088113c3b04459" target="_top" xlink:title="Get the maximum position group order quantity to obtain a position with a given buying power percenta...">
<polygon fill="white" stroke="black" points="308,-110.5 308,-162.5 520,-162.5 520,-110.5 308,-110.5"/>
<text text-anchor="start" x="316" y="-150.5" font-family="Helvetica,sans-Serif" font-size="10.00">QuantConnect.Securities.</text>
<text text-anchor="start" x="316" y="-139.5" font-family="Helvetica,sans-Serif" font-size="10.00">Positions.PositionGroupBuying</text>
<text text-anchor="start" x="316" y="-128.5" font-family="Helvetica,sans-Serif" font-size="10.00">PowerModel.GetMaximumLotsForTarget</text>
<text text-anchor="middle" x="414" y="-117.5" font-family="Helvetica,sans-Serif" font-size="10.00">BuyingPower</text>
</a>
</g>
</g>
<!-- Node1&#45;&gt;Node2 -->
<g id="edge1" class="edge">
<title>Node1&#45;&gt;Node2</title>
<path fill="none" stroke="midnightblue" d="M566.42,-93.79C547.38,-99.16 527,-104.91 507.56,-110.39"/>
<polygon fill="midnightblue" stroke="midnightblue" points="567.57,-97.1 576.24,-91.02 565.67,-90.37 567.57,-97.1"/>
</g>
<!-- Node4 -->
<g id="node4" class="node">
<title>Node4</title>
<g id="a_node4"><a xlink:href="classQuantConnect_1_1Securities_1_1BuyingPowerModel.html#ac77dd32649e7d51e54d52b2d3b695afc" target="_top" xlink:title="Get the maximum market order quantity to obtain a position with a given buying power percentage....">
<polygon fill="white" stroke="black" points="310.5,-50 310.5,-91 517.5,-91 517.5,-50 310.5,-50"/>
<text text-anchor="start" x="318.5" y="-79" font-family="Helvetica,sans-Serif" font-size="10.00">QuantConnect.Securities.</text>
<text text-anchor="start" x="318.5" y="-68" font-family="Helvetica,sans-Serif" font-size="10.00">BuyingPowerModel.GetMaximumOrder</text>
<text text-anchor="middle" x="414" y="-57" font-family="Helvetica,sans-Serif" font-size="10.00">QuantityForTargetBuyingPower</text>
</a>
</g>
</g>
<!-- Node1&#45;&gt;Node4 -->
<g id="edge3" class="edge">
<title>Node1&#45;&gt;Node4</title>
<path fill="none" stroke="midnightblue" d="M545.82,-70.5C536.53,-70.5 527.13,-70.5 517.84,-70.5"/>
<polygon fill="midnightblue" stroke="midnightblue" points="545.84,-74 555.84,-70.5 545.84,-67 545.84,-74"/>
</g>
<!-- Node6 -->
<g id="node6" class="node">
<title>Node6</title>
<g id="a_node6"><a xlink:href="classQuantConnect_1_1Algorithm_1_1Framework_1_1Portfolio_1_1PortfolioTarget.html#a6e9c9bbcf5f629f8c686bab23c542db0" target="_top" xlink:title="Creates a new target for the specified percent">
<polygon fill="white" stroke="black" points="315.5,-0.5 315.5,-30.5 512.5,-30.5 512.5,-0.5 315.5,-0.5"/>
<text text-anchor="start" x="323.5" y="-18.5" font-family="Helvetica,sans-Serif" font-size="10.00">QuantConnect.Algorithm.Framework.</text>
<text text-anchor="middle" x="414" y="-7.5" font-family="Helvetica,sans-Serif" font-size="10.00">Portfolio.PortfolioTarget.Percent</text>
</a>
</g>
</g>
<!-- Node1&#45;&gt;Node6 -->
<g id="edge5" class="edge">
<title>Node1&#45;&gt;Node6</title>
<path fill="none" stroke="midnightblue" d="M551.49,-47.58C527.01,-41.83 501.36,-35.8 478.99,-30.54"/>
<polygon fill="midnightblue" stroke="midnightblue" points="551,-51.06 561.53,-49.94 552.6,-44.25 551,-51.06"/>
</g>
<!-- Node3 -->
<g id="node3" class="node">
<title>Node3</title>
<g id="a_node3"><a xlink:href="classQuantConnect_1_1Securities_1_1Positions_1_1PositionGroupBuyingPowerModel.html#abc9b4d24eebe829eda4d4fe1e4b10126" target="_top" xlink:title="Get the maximum market position group order quantity to obtain a delta in the buying power used by a ...">
<polygon fill="white" stroke="black" points="0,-116 0,-157 272,-157 272,-116 0,-116"/>
<text text-anchor="start" x="8" y="-145" font-family="Helvetica,sans-Serif" font-size="10.00">QuantConnect.Securities.</text>
<text text-anchor="start" x="8" y="-134" font-family="Helvetica,sans-Serif" font-size="10.00">Positions.PositionGroupBuying</text>
<text text-anchor="middle" x="136" y="-123" font-family="Helvetica,sans-Serif" font-size="10.00">PowerModel.GetMaximumLotsForDeltaBuyingPower</text>
</a>
</g>
</g>
<!-- Node2&#45;&gt;Node3 -->
<g id="edge2" class="edge">
<title>Node2&#45;&gt;Node3</title>
<path fill="none" stroke="midnightblue" d="M297.62,-136.5C289.17,-136.5 280.59,-136.5 272.04,-136.5"/>
<polygon fill="midnightblue" stroke="midnightblue" points="297.87,-140 307.87,-136.5 297.87,-133 297.87,-140"/>
</g>
<!-- Node5 -->
<g id="node5" class="node">
<title>Node5</title>
<g id="a_node5"><a xlink:href="classQuantConnect_1_1Securities_1_1BuyingPowerModel.html#a47123e9eef707732a20838c29a8bee69" target="_top" xlink:title="Get the maximum market order quantity to obtain a delta in the buying power used by a security....">
<polygon fill="white" stroke="black" points="32.5,-50 32.5,-91 239.5,-91 239.5,-50 32.5,-50"/>
<text text-anchor="start" x="40.5" y="-79" font-family="Helvetica,sans-Serif" font-size="10.00">QuantConnect.Securities.</text>
<text text-anchor="start" x="40.5" y="-68" font-family="Helvetica,sans-Serif" font-size="10.00">BuyingPowerModel.GetMaximumOrder</text>
<text text-anchor="middle" x="136" y="-57" font-family="Helvetica,sans-Serif" font-size="10.00">QuantityForDeltaBuyingPower</text>
</a>
</g>
</g>
<!-- Node4&#45;&gt;Node5 -->
<g id="edge4" class="edge">
<title>Node4&#45;&gt;Node5</title>
<path fill="none" stroke="midnightblue" d="M300.18,-70.5C280.22,-70.5 259.53,-70.5 239.86,-70.5"/>
<polygon fill="midnightblue" stroke="midnightblue" points="300.23,-74 310.23,-70.5 300.23,-67 300.23,-74"/>
</g>
</g>
</svg>
