<?xml version="1.0" encoding="UTF-8" standalone="no"?>
<!DOCTYPE svg PUBLIC "-//W3C//DTD SVG 1.1//EN"
 "http://www.w3.org/Graphics/SVG/1.1/DTD/svg11.dtd">
<!-- Generated by graphviz version 2.43.0 (0)
 -->
<!-- Title: QuantConnect.Data.Common.MarketHourAwareConsolidator.Update Pages: 1 -->
<!--zoomable 246 -->
<svg id="main" version="1.1" xmlns="http://www.w3.org/2000/svg" xmlns:xlink="http://www.w3.org/1999/xlink" xml:space="preserve" onload="init(evt)">
<style type="text/css"><![CDATA[
.edge:hover path { stroke: red; }
.edge:hover polygon { stroke: red; fill: red; }
]]></style>
<script type="text/javascript"><![CDATA[
var edges = document.getElementsByTagName('g');
if (edges && edges.length) {
  for (var i=0;i<edges.length;i++) {
    if (edges[i].id.substr(0,4)=='edge') {
      edges[i].setAttribute('class','edge');
    }
  }
}
]]></script>
        <defs>
                <circle id="rim" cx="0" cy="0" r="7"/>
                <circle id="rim2" cx="0" cy="0" r="3.5"/>
                <g id="zoomPlus">
                        <use xlink:href="#rim" fill="#404040">
                                <set attributeName="fill" to="#808080" begin="zoomplus.mouseover" end="zoomplus.mouseout"/>
                        </use>
                        <path d="M-4,0h8M0,-4v8" fill="none" stroke="white" stroke-width="1.5" pointer-events="none"/>
                </g>
                <g id="zoomMin">
                        <use xlink:href="#rim" fill="#404040">
                                <set attributeName="fill" to="#808080" begin="zoomminus.mouseover" end="zoomminus.mouseout"/>
                        </use>
                        <path d="M-4,0h8" fill="none" stroke="white" stroke-width="1.5" pointer-events="none"/>
                </g>
                <g id="dirArrow">
                        <path fill="none" stroke="white" stroke-width="1.5" d="M0,-3.0v7 M-2.5,-0.5L0,-3.0L2.5,-0.5"/>
                </g>
               <g id="resetDef">
                       <use xlink:href="#rim2" fill="#404040">
                               <set attributeName="fill" to="#808080" begin="reset.mouseover" end="reset.mouseout"/>
                       </use>
               </g>
        </defs>

<script type="text/javascript">
var viewWidth = 917;
var viewHeight = 246;
var sectionId = 'dynsection-2';
</script>
<script xlink:href="svgpan.js"/>
<svg id="graph" class="graph">
<g id="viewport">
<title>QuantConnect.Data.Common.MarketHourAwareConsolidator.Update</title>
<polygon fill="white" stroke="transparent" points="-4,4 -4,-242 913,-242 913,4 -4,4"/>
<!-- Node1 -->
<g id="node1" class="node">
<title>Node1</title>
<g id="a_node1"><a xlink:title="Updates this consolidator with the specified data">
<polygon fill="#bfbfbf" stroke="black" points="0,-49.5 0,-79.5 203,-79.5 203,-49.5 0,-49.5"/>
<text text-anchor="start" x="8" y="-67.5" font-family="Helvetica,sans-Serif" font-size="10.00">QuantConnect.Data.Common.</text>
<text text-anchor="middle" x="101.5" y="-56.5" font-family="Helvetica,sans-Serif" font-size="10.00">MarketHourAwareConsolidator.Update</text>
</a>
</g>
</g>
<!-- Node2 -->
<g id="node2" class="node">
<title>Node2</title>
<g id="a_node2"><a xlink:href="classQuantConnect_1_1Data_1_1Common_1_1MarketHourAwareConsolidator.html#a4c25267f3235115e0930b33f6a7883bf" target="_top" xlink:title="Perform late initialization based on the datas symbol">
<polygon fill="white" stroke="black" points="239,-104.5 239,-134.5 449,-134.5 449,-104.5 239,-104.5"/>
<text text-anchor="start" x="247" y="-122.5" font-family="Helvetica,sans-Serif" font-size="10.00">QuantConnect.Data.Common.</text>
<text text-anchor="middle" x="344" y="-111.5" font-family="Helvetica,sans-Serif" font-size="10.00">MarketHourAwareConsolidator.Initialize</text>
</a>
</g>
</g>
<!-- Node1&#45;&gt;Node2 -->
<g id="edge1" class="edge">
<title>Node1&#45;&gt;Node2</title>
<path fill="none" stroke="midnightblue" d="M168.22,-79.53C198.84,-86.53 235.44,-94.9 267.23,-102.17"/>
<polygon fill="midnightblue" stroke="midnightblue" points="266.83,-105.67 277.36,-104.49 268.39,-98.85 266.83,-105.67"/>
</g>
<!-- Node8 -->
<g id="node8" class="node">
<title>Node8</title>
<g id="a_node8"><a xlink:href="classQuantConnect_1_1Securities_1_1SecurityExchangeHours.html#af2deedeacdcb6bbe40f4874002cdbac3" target="_top" xlink:title="Determines if the exchange is open at the specified local date time.">
<polygon fill="white" stroke="black" points="259.5,-49.5 259.5,-79.5 428.5,-79.5 428.5,-49.5 259.5,-49.5"/>
<text text-anchor="start" x="267.5" y="-67.5" font-family="Helvetica,sans-Serif" font-size="10.00">QuantConnect.Securities.</text>
<text text-anchor="middle" x="344" y="-56.5" font-family="Helvetica,sans-Serif" font-size="10.00">SecurityExchangeHours.IsOpen</text>
</a>
</g>
</g>
<!-- Node1&#45;&gt;Node8 -->
<g id="edge7" class="edge">
<title>Node1&#45;&gt;Node8</title>
<path fill="none" stroke="midnightblue" d="M203.1,-64.5C218.26,-64.5 233.86,-64.5 248.88,-64.5"/>
<polygon fill="midnightblue" stroke="midnightblue" points="249.17,-68 259.17,-64.5 249.17,-61 249.17,-68"/>
</g>
<!-- Node12 -->
<g id="node12" class="node">
<title>Node12</title>
<g id="a_node12"><a xlink:href="interfaceQuantConnect_1_1Data_1_1Consolidators_1_1IDataConsolidator.html#a3264316f60148fcf40f83dfcd92dbd67" target="_top" xlink:title="Updates this consolidator with the specified data">
<polygon fill="white" stroke="black" points="251.5,-0.5 251.5,-30.5 436.5,-30.5 436.5,-0.5 251.5,-0.5"/>
<text text-anchor="start" x="259.5" y="-18.5" font-family="Helvetica,sans-Serif" font-size="10.00">QuantConnect.Data.Consolidators.</text>
<text text-anchor="middle" x="344" y="-7.5" font-family="Helvetica,sans-Serif" font-size="10.00">IDataConsolidator.Update</text>
</a>
</g>
</g>
<!-- Node1&#45;&gt;Node12 -->
<g id="edge11" class="edge">
<title>Node1&#45;&gt;Node12</title>
<path fill="none" stroke="midnightblue" d="M176.29,-49.47C202.61,-44.1 232.43,-38.03 259.51,-32.51"/>
<polygon fill="midnightblue" stroke="midnightblue" points="260.25,-35.93 269.35,-30.51 258.85,-29.07 260.25,-35.93"/>
</g>
<!-- Node3 -->
<g id="node3" class="node">
<title>Node3</title>
<g id="a_node3"><a xlink:href="classQuantConnect_1_1Securities_1_1MarketHoursDatabase.html#aa01232d91c17c556b18ea8f1f7fabcd0" target="_top" xlink:title="Gets the instance of the MarketHoursDatabase class produced by reading in the market hours data found...">
<polygon fill="white" stroke="black" points="504.5,-159 504.5,-200 680.5,-200 680.5,-159 504.5,-159"/>
<text text-anchor="start" x="512.5" y="-188" font-family="Helvetica,sans-Serif" font-size="10.00">QuantConnect.Securities.</text>
<text text-anchor="start" x="512.5" y="-177" font-family="Helvetica,sans-Serif" font-size="10.00">MarketHoursDatabase.FromData</text>
<text text-anchor="middle" x="592.5" y="-166" font-family="Helvetica,sans-Serif" font-size="10.00">Folder</text>
</a>
</g>
</g>
<!-- Node2&#45;&gt;Node3 -->
<g id="edge2" class="edge">
<title>Node2&#45;&gt;Node3</title>
<path fill="none" stroke="midnightblue" d="M406.88,-134.56C434.29,-141.23 467.14,-149.23 497.48,-156.61"/>
<polygon fill="midnightblue" stroke="midnightblue" points="496.69,-160.02 507.23,-158.99 498.34,-153.22 496.69,-160.02"/>
</g>
<!-- Node6 -->
<g id="node6" class="node">
<title>Node6</title>
<g id="a_node6"><a xlink:href="classQuantConnect_1_1Data_1_1Common_1_1MarketHourAwareConsolidator.html#afa1ad701ff92332bc7d9fb18df951223" target="_top" xlink:title="Useful for testing">
<polygon fill="white" stroke="black" points="499,-99 499,-140 686,-140 686,-99 499,-99"/>
<text text-anchor="start" x="507" y="-128" font-family="Helvetica,sans-Serif" font-size="10.00">QuantConnect.Data.Common.</text>
<text text-anchor="start" x="507" y="-117" font-family="Helvetica,sans-Serif" font-size="10.00">MarketHourAwareConsolidator.Use</text>
<text text-anchor="middle" x="592.5" y="-106" font-family="Helvetica,sans-Serif" font-size="10.00">StrictEndTime</text>
</a>
</g>
</g>
<!-- Node2&#45;&gt;Node6 -->
<g id="edge5" class="edge">
<title>Node2&#45;&gt;Node6</title>
<path fill="none" stroke="midnightblue" d="M449.18,-119.5C462.14,-119.5 475.39,-119.5 488.33,-119.5"/>
<polygon fill="midnightblue" stroke="midnightblue" points="488.64,-123 498.64,-119.5 488.64,-116 488.64,-123"/>
</g>
<!-- Node4 -->
<g id="node4" class="node">
<title>Node4</title>
<g id="a_node4"><a xlink:href="classQuantConnect_1_1Securities_1_1MarketHoursDatabase.html#a6fdcc5f6d09cc11743e258e570d0a9eb" target="_top" xlink:title="Reads the specified file as a market hours database instance">
<polygon fill="white" stroke="black" points="737.5,-207.5 737.5,-237.5 907.5,-237.5 907.5,-207.5 737.5,-207.5"/>
<text text-anchor="start" x="745.5" y="-225.5" font-family="Helvetica,sans-Serif" font-size="10.00">QuantConnect.Securities.</text>
<text text-anchor="middle" x="822.5" y="-214.5" font-family="Helvetica,sans-Serif" font-size="10.00">MarketHoursDatabase.FromFile</text>
</a>
</g>
</g>
<!-- Node3&#45;&gt;Node4 -->
<g id="edge3" class="edge">
<title>Node3&#45;&gt;Node4</title>
<path fill="none" stroke="midnightblue" d="M680.67,-195.94C697.49,-199.11 715.13,-202.44 732.01,-205.62"/>
<polygon fill="midnightblue" stroke="midnightblue" points="731.38,-209.07 741.86,-207.48 732.68,-202.19 731.38,-209.07"/>
</g>
<!-- Node5 -->
<g id="node5" class="node">
<title>Node5</title>
<g id="a_node5"><a xlink:href="classQuantConnect_1_1Globals.html#ae01b5c94ef475a21ab1a62fe1b04ea5c" target="_top" xlink:title="Helper method that will build a data folder path checking if it exists on the cache folder else will ...">
<polygon fill="white" stroke="black" points="749.5,-158.5 749.5,-188.5 895.5,-188.5 895.5,-158.5 749.5,-158.5"/>
<text text-anchor="start" x="757.5" y="-176.5" font-family="Helvetica,sans-Serif" font-size="10.00">QuantConnect.Globals.Get</text>
<text text-anchor="middle" x="822.5" y="-165.5" font-family="Helvetica,sans-Serif" font-size="10.00">DataFolderPath</text>
</a>
</g>
</g>
<!-- Node3&#45;&gt;Node5 -->
<g id="edge4" class="edge">
<title>Node3&#45;&gt;Node5</title>
<path fill="none" stroke="midnightblue" d="M680.67,-177.21C699.85,-176.7 720.11,-176.17 739.1,-175.67"/>
<polygon fill="midnightblue" stroke="midnightblue" points="739.29,-179.16 749.2,-175.4 739.11,-172.17 739.29,-179.16"/>
</g>
<!-- Node7 -->
<g id="node7" class="node">
<title>Node7</title>
<g id="a_node7"><a xlink:href="classQuantConnect_1_1Util_1_1LeanData.html#a285cd342950b1f06c6b8527e0087fde5" target="_top" xlink:title="Helper method to determine if we should use strict end time">
<polygon fill="white" stroke="black" points="743.5,-104.5 743.5,-134.5 901.5,-134.5 901.5,-104.5 743.5,-104.5"/>
<text text-anchor="start" x="751.5" y="-122.5" font-family="Helvetica,sans-Serif" font-size="10.00">QuantConnect.Util.LeanData.</text>
<text text-anchor="middle" x="822.5" y="-111.5" font-family="Helvetica,sans-Serif" font-size="10.00">UseStrictEndTime</text>
</a>
</g>
</g>
<!-- Node6&#45;&gt;Node7 -->
<g id="edge6" class="edge">
<title>Node6&#45;&gt;Node7</title>
<path fill="none" stroke="midnightblue" d="M686.24,-119.5C701.81,-119.5 717.93,-119.5 733.39,-119.5"/>
<polygon fill="midnightblue" stroke="midnightblue" points="733.43,-123 743.43,-119.5 733.43,-116 733.43,-123"/>
</g>
<!-- Node9 -->
<g id="node9" class="node">
<title>Node9</title>
<g id="a_node9"><a xlink:href="classQuantConnect_1_1Securities_1_1SecurityExchangeHours.html#a106e2dd187ab76452e14ac6a28f929aa" target="_top" xlink:title="Helper to access the market hours field based on the day of week">
<polygon fill="white" stroke="black" points="485,-49.5 485,-79.5 700,-79.5 700,-49.5 485,-49.5"/>
<text text-anchor="start" x="493" y="-67.5" font-family="Helvetica,sans-Serif" font-size="10.00">QuantConnect.Securities.</text>
<text text-anchor="middle" x="592.5" y="-56.5" font-family="Helvetica,sans-Serif" font-size="10.00">SecurityExchangeHours.GetMarketHours</text>
</a>
</g>
</g>
<!-- Node8&#45;&gt;Node9 -->
<g id="edge8" class="edge">
<title>Node8&#45;&gt;Node9</title>
<path fill="none" stroke="midnightblue" d="M428.8,-64.5C443.57,-64.5 459.18,-64.5 474.66,-64.5"/>
<polygon fill="midnightblue" stroke="midnightblue" points="474.8,-68 484.8,-64.5 474.8,-61 474.8,-68"/>
</g>
<!-- Node11 -->
<g id="node11" class="node">
<title>Node11</title>
<g id="a_node11"><a xlink:href="classQuantConnect_1_1Securities_1_1LocalMarketHours.html#a97e5d374a28d55f3ebee72c328a0810f" target="_top" xlink:title="Determines if the exchange is open at the specified time">
<polygon fill="white" stroke="black" points="522,-0.5 522,-30.5 663,-30.5 663,-0.5 522,-0.5"/>
<text text-anchor="start" x="530" y="-18.5" font-family="Helvetica,sans-Serif" font-size="10.00">QuantConnect.Securities.</text>
<text text-anchor="middle" x="592.5" y="-7.5" font-family="Helvetica,sans-Serif" font-size="10.00">LocalMarketHours.IsOpen</text>
</a>
</g>
</g>
<!-- Node8&#45;&gt;Node11 -->
<g id="edge10" class="edge">
<title>Node8&#45;&gt;Node11</title>
<path fill="none" stroke="midnightblue" d="M420.63,-49.47C449.5,-43.73 482.48,-37.17 511.72,-31.36"/>
<polygon fill="midnightblue" stroke="midnightblue" points="512.76,-34.72 521.89,-29.34 511.4,-27.85 512.76,-34.72"/>
</g>
<!-- Node10 -->
<g id="node10" class="node">
<title>Node10</title>
<g id="a_node10"><a xlink:href="classQuantConnect_1_1Securities_1_1LocalMarketHours.html#a1e9178f81413c7d1f032a003d74acecf" target="_top" xlink:title="Gets a LocalMarketHours instance that is always closed">
<polygon fill="white" stroke="black" points="736,-49.5 736,-79.5 909,-79.5 909,-49.5 736,-49.5"/>
<text text-anchor="start" x="744" y="-67.5" font-family="Helvetica,sans-Serif" font-size="10.00">QuantConnect.Securities.</text>
<text text-anchor="middle" x="822.5" y="-56.5" font-family="Helvetica,sans-Serif" font-size="10.00">LocalMarketHours.ClosedAllDay</text>
</a>
</g>
</g>
<!-- Node9&#45;&gt;Node10 -->
<g id="edge9" class="edge">
<title>Node9&#45;&gt;Node10</title>
<path fill="none" stroke="midnightblue" d="M700.16,-64.5C708.64,-64.5 717.18,-64.5 725.59,-64.5"/>
<polygon fill="midnightblue" stroke="midnightblue" points="725.77,-68 735.77,-64.5 725.77,-61 725.77,-68"/>
</g>
</g>
</svg>
        <g id="navigator" transform="translate(0 0)" fill="#404254">
                <rect fill="#f2f5e9" fill-opacity="0.5" stroke="#606060" stroke-width=".5" x="0" y="0" width="60" height="60"/>
                <use id="zoomplus" xlink:href="#zoomPlus" x="17" y="9" onmousedown="handleZoom(evt,'in')"/>
                <use id="zoomminus" xlink:href="#zoomMin" x="42" y="9" onmousedown="handleZoom(evt,'out')"/>
                <use id="reset" xlink:href="#resetDef" x="30" y="36" onmousedown="handleReset()"/>
                <g id="arrowUp" xlink:href="#dirArrow" transform="translate(30 24)" onmousedown="handlePan(0,-1)">
                  <use xlink:href="#rim" fill="#404040">
                        <set attributeName="fill" to="#808080" begin="arrowUp.mouseover" end="arrowUp.mouseout"/>
                  </use>
                  <path fill="none" stroke="white" stroke-width="1.5" d="M0,-3.0v7 M-2.5,-0.5L0,-3.0L2.5,-0.5"/>
                </g>
                <g id="arrowRight" xlink:href="#dirArrow" transform="rotate(90) translate(36 -43)" onmousedown="handlePan(1,0)">
                  <use xlink:href="#rim" fill="#404040">
                        <set attributeName="fill" to="#808080" begin="arrowRight.mouseover" end="arrowRight.mouseout"/>
                  </use>
                  <path fill="none" stroke="white" stroke-width="1.5" d="M0,-3.0v7 M-2.5,-0.5L0,-3.0L2.5,-0.5"/>
                </g>
                <g id="arrowDown" xlink:href="#dirArrow" transform="rotate(180) translate(-30 -48)" onmousedown="handlePan(0,1)">
                  <use xlink:href="#rim" fill="#404040">
                        <set attributeName="fill" to="#808080" begin="arrowDown.mouseover" end="arrowDown.mouseout"/>
                  </use>
                  <path fill="none" stroke="white" stroke-width="1.5" d="M0,-3.0v7 M-2.5,-0.5L0,-3.0L2.5,-0.5"/>
                </g>
                <g id="arrowLeft" xlink:href="#dirArrow" transform="rotate(270) translate(-36 17)" onmousedown="handlePan(-1,0)">
                  <use xlink:href="#rim" fill="#404040">
                        <set attributeName="fill" to="#808080" begin="arrowLeft.mouseover" end="arrowLeft.mouseout"/>
                  </use>
                  <path fill="none" stroke="white" stroke-width="1.5" d="M0,-3.0v7 M-2.5,-0.5L0,-3.0L2.5,-0.5"/>
                </g>
        </g>
        <svg viewBox="0 0 15 15" width="100%" height="30px" preserveAspectRatio="xMaxYMin meet">
         <g id="arrow_out" transform="scale(0.3 0.3)">
          <a xlink:href="classQuantConnect_1_1Data_1_1Common_1_1MarketHourAwareConsolidator_ada2633845f46ba47d02bc3d8d696383f_cgraph_org.svg" target="_base">
           <rect id="button" ry="5" rx="5" y="6" x="6" height="38" width="38"
                fill="#f2f5e9" fill-opacity="0.5" stroke="#606060" stroke-width="1.0"/>
           <path id="arrow"
             d="M 11.500037,31.436501 C 11.940474,20.09759 22.043105,11.32322 32.158766,21.979434 L 37.068811,17.246167 C 37.068811,17.246167 37.088388,32 37.088388,32 L 22.160133,31.978069 C 22.160133,31.978069 26.997745,27.140456 26.997745,27.140456 C 18.528582,18.264221 13.291696,25.230495 11.500037,31.436501 z"
             style="fill:#404040;"/>
          </a>
         </g>
        </svg>
</svg>
