<?xml version="1.0" encoding="UTF-8" standalone="no"?>
<!DOCTYPE svg PUBLIC "-//W3C//DTD SVG 1.1//EN"
 "http://www.w3.org/Graphics/SVG/1.1/DTD/svg11.dtd">
<!-- Generated by graphviz version 2.43.0 (0)
 -->
<!-- Title: QuantConnect.Data.Custom.Tiingo.TiingoPrice.Reader Pages: 1 -->
<svg width="1111pt" height="110pt"
 viewBox="0.00 0.00 1111.00 110.00" xmlns="http://www.w3.org/2000/svg" xmlns:xlink="http://www.w3.org/1999/xlink">
<g id="graph0" class="graph" transform="scale(1 1) rotate(0) translate(4 106)">
<title>QuantConnect.Data.Custom.Tiingo.TiingoPrice.Reader</title>
<polygon fill="white" stroke="transparent" points="-4,4 -4,-106 1107,-106 1107,4 -4,4"/>
<!-- Node1 -->
<g id="node1" class="node">
<title>Node1</title>
<g id="a_node1"><a xlink:title="Reader converts each line of the data source into BaseData objects. Each data type creates its own fa...">
<polygon fill="#bfbfbf" stroke="black" points="0,-35 0,-65 155,-65 155,-35 0,-35"/>
<text text-anchor="start" x="8" y="-53" font-family="Helvetica,sans-Serif" font-size="10.00">QuantConnect.Data.Custom.</text>
<text text-anchor="middle" x="77.5" y="-42" font-family="Helvetica,sans-Serif" font-size="10.00">Tiingo.TiingoPrice.Reader</text>
</a>
</g>
</g>
<!-- Node2 -->
<g id="node2" class="node">
<title>Node2</title>
<g id="a_node2"><a xlink:href="classQuantConnect_1_1Symbol.html#a59158f74116be3dad0ea0f3f3f134416" target="_top" xlink:title="Initializes a new instance of the Symbol class">
<polygon fill="white" stroke="black" points="191,-40.5 191,-59.5 356,-59.5 356,-40.5 191,-40.5"/>
<text text-anchor="middle" x="273.5" y="-47.5" font-family="Helvetica,sans-Serif" font-size="10.00">QuantConnect.Symbol.Symbol</text>
</a>
</g>
</g>
<!-- Node1&#45;&gt;Node2 -->
<g id="edge1" class="edge">
<title>Node1&#45;&gt;Node2</title>
<path fill="none" stroke="midnightblue" d="M155.17,-50C163.62,-50 172.29,-50 180.9,-50"/>
<polygon fill="midnightblue" stroke="midnightblue" points="180.96,-53.5 190.96,-50 180.96,-46.5 180.96,-53.5"/>
</g>
<!-- Node3 -->
<g id="node3" class="node">
<title>Node3</title>
<g id="a_node3"><a xlink:href="classQuantConnect_1_1Symbol.html#a59b0795fa21f46c306deb5576fa03bb9" target="_top" xlink:title="Centralized helper method to resolve alias for a symbol">
<polygon fill="white" stroke="black" points="392,-40.5 392,-59.5 562,-59.5 562,-40.5 392,-40.5"/>
<text text-anchor="middle" x="477" y="-47.5" font-family="Helvetica,sans-Serif" font-size="10.00">QuantConnect.Symbol.GetAlias</text>
</a>
</g>
</g>
<!-- Node2&#45;&gt;Node3 -->
<g id="edge2" class="edge">
<title>Node2&#45;&gt;Node3</title>
<path fill="none" stroke="midnightblue" d="M356.17,-50C364.64,-50 373.29,-50 381.88,-50"/>
<polygon fill="midnightblue" stroke="midnightblue" points="381.92,-53.5 391.92,-50 381.92,-46.5 381.92,-53.5"/>
</g>
<!-- Node4 -->
<g id="node4" class="node">
<title>Node4</title>
<g id="a_node4"><a xlink:href="classQuantConnect_1_1SymbolRepresentation.html#ad43ac907f6c19083821f58f21c6de017" target="_top" xlink:title="Returns future symbol ticker from underlying and expiration date. Function can generate tickers of tw...">
<polygon fill="white" stroke="black" points="598,-63 598,-93 801,-93 801,-63 598,-63"/>
<text text-anchor="start" x="606" y="-81" font-family="Helvetica,sans-Serif" font-size="10.00">QuantConnect.SymbolRepresentation.</text>
<text text-anchor="middle" x="699.5" y="-70" font-family="Helvetica,sans-Serif" font-size="10.00">GenerateFutureTicker</text>
</a>
</g>
</g>
<!-- Node3&#45;&gt;Node4 -->
<g id="edge3" class="edge">
<title>Node3&#45;&gt;Node4</title>
<path fill="none" stroke="midnightblue" d="M552.96,-59.52C564.27,-60.96 576.14,-62.46 588.01,-63.97"/>
<polygon fill="midnightblue" stroke="midnightblue" points="587.62,-67.45 597.98,-65.24 588.5,-60.5 587.62,-67.45"/>
</g>
<!-- Node6 -->
<g id="node6" class="node">
<title>Node6</title>
<g id="a_node6"><a xlink:href="classQuantConnect_1_1SymbolRepresentation.html#ab133044f5cf8c16e700190a2202b215e" target="_top" xlink:title="Returns option symbol ticker in accordance with OSI symbology More information can be found at http:/...">
<polygon fill="white" stroke="black" points="598,-11 598,-41 801,-41 801,-11 598,-11"/>
<text text-anchor="start" x="606" y="-29" font-family="Helvetica,sans-Serif" font-size="10.00">QuantConnect.SymbolRepresentation.</text>
<text text-anchor="middle" x="699.5" y="-18" font-family="Helvetica,sans-Serif" font-size="10.00">GenerateOptionTickerOSI</text>
</a>
</g>
</g>
<!-- Node3&#45;&gt;Node6 -->
<g id="edge5" class="edge">
<title>Node3&#45;&gt;Node6</title>
<path fill="none" stroke="midnightblue" d="M562.31,-40.82C570.69,-39.91 579.3,-38.97 587.9,-38.04"/>
<polygon fill="midnightblue" stroke="midnightblue" points="588.43,-41.5 597.99,-36.94 587.67,-34.54 588.43,-41.5"/>
</g>
<!-- Node5 -->
<g id="node5" class="node">
<title>Node5</title>
<g id="a_node5"><a xlink:href="classQuantConnect_1_1Securities_1_1Future_1_1FuturesExpiryUtilityFunctions.html#a4ccb1e2f2fe40ff09785a74a02f26df1" target="_top" xlink:title="Gets the number of months between the contract month and the expiry date.">
<polygon fill="white" stroke="black" points="837,-60.5 837,-101.5 1103,-101.5 1103,-60.5 837,-60.5"/>
<text text-anchor="start" x="845" y="-89.5" font-family="Helvetica,sans-Serif" font-size="10.00">QuantConnect.Securities.</text>
<text text-anchor="start" x="845" y="-78.5" font-family="Helvetica,sans-Serif" font-size="10.00">Future.FuturesExpiryUtilityFunctions.</text>
<text text-anchor="middle" x="970" y="-67.5" font-family="Helvetica,sans-Serif" font-size="10.00">GetDeltaBetweenContractMonthAndContractExpiry</text>
</a>
</g>
</g>
<!-- Node4&#45;&gt;Node5 -->
<g id="edge4" class="edge">
<title>Node4&#45;&gt;Node5</title>
<path fill="none" stroke="midnightblue" d="M801.24,-79.13C809.59,-79.22 818.11,-79.31 826.68,-79.41"/>
<polygon fill="midnightblue" stroke="midnightblue" points="826.72,-82.91 836.76,-79.52 826.8,-75.91 826.72,-82.91"/>
</g>
<!-- Node7 -->
<g id="node7" class="node">
<title>Node7</title>
<g id="a_node7"><a xlink:href="classQuantConnect_1_1Messages_1_1SymbolRepresentation.html#a2c514157d8055cfa271ea3a7ca1ccde7" target="_top" xlink:title="Returns a string message saying an unexpected security type was received by the given method name">
<polygon fill="white" stroke="black" points="874,-0.5 874,-41.5 1066,-41.5 1066,-0.5 874,-0.5"/>
<text text-anchor="start" x="882" y="-29.5" font-family="Helvetica,sans-Serif" font-size="10.00">QuantConnect.Messages.Symbol</text>
<text text-anchor="start" x="882" y="-18.5" font-family="Helvetica,sans-Serif" font-size="10.00">Representation.UnexpectedSecurity</text>
<text text-anchor="middle" x="970" y="-7.5" font-family="Helvetica,sans-Serif" font-size="10.00">TypeForMethod</text>
</a>
</g>
</g>
<!-- Node6&#45;&gt;Node7 -->
<g id="edge6" class="edge">
<title>Node6&#45;&gt;Node7</title>
<path fill="none" stroke="midnightblue" d="M801.24,-24.12C821.7,-23.74 843.27,-23.34 863.88,-22.96"/>
<polygon fill="midnightblue" stroke="midnightblue" points="863.98,-26.46 873.91,-22.77 863.85,-19.46 863.98,-26.46"/>
</g>
</g>
</svg>
