<?xml version="1.0" encoding="UTF-8" standalone="no"?>
<!DOCTYPE svg PUBLIC "-//W3C//DTD SVG 1.1//EN"
 "http://www.w3.org/Graphics/SVG/1.1/DTD/svg11.dtd">
<!-- Generated by graphviz version 2.43.0 (0)
 -->
<!-- Title: QuantConnect.Messages.SymbolCache.UnableToLocateTicker Pages: 1 -->
<svg width="861pt" height="88pt"
 viewBox="0.00 0.00 861.00 88.00" xmlns="http://www.w3.org/2000/svg" xmlns:xlink="http://www.w3.org/1999/xlink">
<g id="graph0" class="graph" transform="scale(1 1) rotate(0) translate(4 84)">
<title>QuantConnect.Messages.SymbolCache.UnableToLocateTicker</title>
<polygon fill="white" stroke="transparent" points="-4,4 -4,-84 857,-84 857,4 -4,4"/>
<!-- Node1 -->
<g id="node1" class="node">
<title>Node1</title>
<g id="a_node1"><a xlink:title="Returns a string message saying the given ticker could not be localized">
<polygon fill="#bfbfbf" stroke="black" points="676,-24.5 676,-54.5 853,-54.5 853,-24.5 676,-24.5"/>
<text text-anchor="start" x="684" y="-42.5" font-family="Helvetica,sans-Serif" font-size="10.00">QuantConnect.Messages.Symbol</text>
<text text-anchor="middle" x="764.5" y="-31.5" font-family="Helvetica,sans-Serif" font-size="10.00">Cache.UnableToLocateTicker</text>
</a>
</g>
</g>
<!-- Node2 -->
<g id="node2" class="node">
<title>Node2</title>
<g id="a_node2"><a xlink:href="classQuantConnect_1_1SymbolCache.html#a16ba0efea4bf17d7a83e417a86beb1b5" target="_top" xlink:title="Gets the Symbol object that is mapped to the specified string ticker symbol">
<polygon fill="white" stroke="black" points="482,-24.5 482,-54.5 640,-54.5 640,-24.5 482,-24.5"/>
<text text-anchor="start" x="490" y="-42.5" font-family="Helvetica,sans-Serif" font-size="10.00">QuantConnect.SymbolCache.</text>
<text text-anchor="middle" x="561" y="-31.5" font-family="Helvetica,sans-Serif" font-size="10.00">GetSymbol</text>
</a>
</g>
</g>
<!-- Node1&#45;&gt;Node2 -->
<g id="edge1" class="edge">
<title>Node1&#45;&gt;Node2</title>
<path fill="none" stroke="midnightblue" d="M665.92,-39.5C657.3,-39.5 648.66,-39.5 640.24,-39.5"/>
<polygon fill="midnightblue" stroke="midnightblue" points="666,-43 676,-39.5 666,-36 666,-43"/>
</g>
<!-- Node3 -->
<g id="node3" class="node">
<title>Node3</title>
<g id="a_node3"><a xlink:href="classQuantConnect_1_1Data_1_1DynamicData.html#ac37b26cff252702587c0c362e099f9ec" target="_top" xlink:title="Sets the property with the specified name to the value. This is a case&#45;insensitve search.">
<polygon fill="white" stroke="black" points="264.5,-49.5 264.5,-79.5 422.5,-79.5 422.5,-49.5 264.5,-49.5"/>
<text text-anchor="start" x="272.5" y="-67.5" font-family="Helvetica,sans-Serif" font-size="10.00">QuantConnect.Data.Dynamic</text>
<text text-anchor="middle" x="343.5" y="-56.5" font-family="Helvetica,sans-Serif" font-size="10.00">Data.SetProperty</text>
</a>
</g>
</g>
<!-- Node2&#45;&gt;Node3 -->
<g id="edge2" class="edge">
<title>Node2&#45;&gt;Node3</title>
<path fill="none" stroke="midnightblue" d="M471.85,-49.73C455.57,-51.62 438.66,-53.58 422.7,-55.43"/>
<polygon fill="midnightblue" stroke="midnightblue" points="472.36,-53.19 481.89,-48.56 471.56,-46.24 472.36,-53.19"/>
</g>
<!-- Node5 -->
<g id="node5" class="node">
<title>Node5</title>
<g id="a_node5"><a xlink:href="classQuantConnect_1_1Algorithm_1_1QCAlgorithm.html#aa13b5a2143a58f5fda30bda0bbc9bff1" target="_top" xlink:title="Converts the string &#39;ticker&#39; symbol into a full Symbol object This requires that the string &#39;ticker&#39; ...">
<polygon fill="white" stroke="black" points="241,-0.5 241,-30.5 446,-30.5 446,-0.5 241,-0.5"/>
<text text-anchor="start" x="249" y="-18.5" font-family="Helvetica,sans-Serif" font-size="10.00">QuantConnect.Algorithm.QCAlgorithm.</text>
<text text-anchor="middle" x="343.5" y="-7.5" font-family="Helvetica,sans-Serif" font-size="10.00">Symbol</text>
</a>
</g>
</g>
<!-- Node2&#45;&gt;Node5 -->
<g id="edge4" class="edge">
<title>Node2&#45;&gt;Node5</title>
<path fill="none" stroke="midnightblue" d="M471.76,-29.67C463.37,-28.74 454.82,-27.79 446.31,-26.84"/>
<polygon fill="midnightblue" stroke="midnightblue" points="471.57,-33.17 481.89,-30.8 472.34,-26.22 471.57,-33.17"/>
</g>
<!-- Node4 -->
<g id="node4" class="node">
<title>Node4</title>
<g id="a_node4"><a xlink:href="classQuantConnect_1_1Python_1_1PythonData.html#a6c32ee1e07b3ee55aef88baff6208167" target="_top" xlink:title="Generic Reader Implementation for Python Custom Data.">
<polygon fill="white" stroke="black" points="23,-49.5 23,-79.5 182,-79.5 182,-49.5 23,-49.5"/>
<text text-anchor="start" x="31" y="-67.5" font-family="Helvetica,sans-Serif" font-size="10.00">QuantConnect.Python.Python</text>
<text text-anchor="middle" x="102.5" y="-56.5" font-family="Helvetica,sans-Serif" font-size="10.00">Data.Reader</text>
</a>
</g>
</g>
<!-- Node3&#45;&gt;Node4 -->
<g id="edge3" class="edge">
<title>Node3&#45;&gt;Node4</title>
<path fill="none" stroke="midnightblue" d="M253.94,-64.5C230.46,-64.5 205.27,-64.5 182.34,-64.5"/>
<polygon fill="midnightblue" stroke="midnightblue" points="254.24,-68 264.24,-64.5 254.24,-61 254.24,-68"/>
</g>
<!-- Node6 -->
<g id="node6" class="node">
<title>Node6</title>
<g id="a_node6"><a xlink:href="classQuantConnect_1_1Algorithm_1_1QCAlgorithm.html#a091fba2e75c493178894d0447edcaff3" target="_top" xlink:title="AddData a new user defined data source, requiring only the minimum config options....">
<polygon fill="white" stroke="black" points="0,-0.5 0,-30.5 205,-30.5 205,-0.5 0,-0.5"/>
<text text-anchor="start" x="8" y="-18.5" font-family="Helvetica,sans-Serif" font-size="10.00">QuantConnect.Algorithm.QCAlgorithm.</text>
<text text-anchor="middle" x="102.5" y="-7.5" font-family="Helvetica,sans-Serif" font-size="10.00">AddData</text>
</a>
</g>
</g>
<!-- Node5&#45;&gt;Node6 -->
<g id="edge5" class="edge">
<title>Node5&#45;&gt;Node6</title>
<path fill="none" stroke="midnightblue" d="M230.78,-15.5C222.22,-15.5 213.6,-15.5 205.11,-15.5"/>
<polygon fill="midnightblue" stroke="midnightblue" points="230.8,-19 240.8,-15.5 230.8,-12 230.8,-19"/>
</g>
</g>
</svg>
