<?xml version="1.0" encoding="UTF-8" standalone="no"?>
<!DOCTYPE svg PUBLIC "-//W3C//DTD SVG 1.1//EN"
 "http://www.w3.org/Graphics/SVG/1.1/DTD/svg11.dtd">
<!-- Generated by graphviz version 2.43.0 (0)
 -->
<!-- Title: QuantConnect.Securities.SecurityTransactionManager.RemoveOrder Pages: 1 -->
<svg width="881pt" height="247pt"
 viewBox="0.00 0.00 881.00 247.00" xmlns="http://www.w3.org/2000/svg" xmlns:xlink="http://www.w3.org/1999/xlink">
<g id="graph0" class="graph" transform="scale(1 1) rotate(0) translate(4 243)">
<title>QuantConnect.Securities.SecurityTransactionManager.RemoveOrder</title>
<polygon fill="white" stroke="transparent" points="-4,4 -4,-243 877,-243 877,4 -4,4"/>
<!-- Node1 -->
<g id="node1" class="node">
<title>Node1</title>
<g id="a_node1"><a xlink:title="Remove this order from outstanding queue: user is requesting a cancel.">
<polygon fill="#bfbfbf" stroke="black" points="0,-125.5 0,-155.5 224,-155.5 224,-125.5 0,-125.5"/>
<text text-anchor="start" x="8" y="-143.5" font-family="Helvetica,sans-Serif" font-size="10.00">QuantConnect.Securities.</text>
<text text-anchor="middle" x="112" y="-132.5" font-family="Helvetica,sans-Serif" font-size="10.00">SecurityTransactionManager.RemoveOrder</text>
</a>
</g>
</g>
<!-- Node2 -->
<g id="node2" class="node">
<title>Node2</title>
<g id="a_node2"><a xlink:href="classQuantConnect_1_1Securities_1_1SecurityTransactionManager.html#a136cdc31b644e087e48f4f986e8c064b" target="_top" xlink:title="Processes the order request">
<polygon fill="white" stroke="black" points="260,-120 260,-161 454,-161 454,-120 260,-120"/>
<text text-anchor="start" x="268" y="-149" font-family="Helvetica,sans-Serif" font-size="10.00">QuantConnect.Securities.</text>
<text text-anchor="start" x="268" y="-138" font-family="Helvetica,sans-Serif" font-size="10.00">SecurityTransactionManager.Process</text>
<text text-anchor="middle" x="357" y="-127" font-family="Helvetica,sans-Serif" font-size="10.00">Request</text>
</a>
</g>
</g>
<!-- Node1&#45;&gt;Node2 -->
<g id="edge1" class="edge">
<title>Node1&#45;&gt;Node2</title>
<path fill="none" stroke="midnightblue" d="M224.19,-140.5C232.63,-140.5 241.14,-140.5 249.55,-140.5"/>
<polygon fill="midnightblue" stroke="midnightblue" points="249.74,-144 259.74,-140.5 249.74,-137 249.74,-144"/>
</g>
<!-- Node3 -->
<g id="node3" class="node">
<title>Node3</title>
<g id="a_node3"><a xlink:href="interfaceQuantConnect_1_1Securities_1_1IOrderProcessor.html#a153e85c4defb70ea096de8e35c340f4e" target="_top" xlink:title="Adds the specified order to be processed">
<polygon fill="white" stroke="black" points="506.5,-208.5 506.5,-238.5 646.5,-238.5 646.5,-208.5 506.5,-208.5"/>
<text text-anchor="start" x="514.5" y="-226.5" font-family="Helvetica,sans-Serif" font-size="10.00">QuantConnect.Securities.</text>
<text text-anchor="middle" x="576.5" y="-215.5" font-family="Helvetica,sans-Serif" font-size="10.00">IOrderProcessor.Process</text>
</a>
</g>
</g>
<!-- Node2&#45;&gt;Node3 -->
<g id="edge2" class="edge">
<title>Node2&#45;&gt;Node3</title>
<path fill="none" stroke="midnightblue" d="M400.82,-161C426.38,-172.81 459.66,-187.45 490,-198.5 496.44,-200.85 503.22,-203.13 510.02,-205.3"/>
<polygon fill="midnightblue" stroke="midnightblue" points="509.38,-208.77 519.97,-208.4 511.46,-202.08 509.38,-208.77"/>
</g>
<!-- Node4 -->
<g id="node4" class="node">
<title>Node4</title>
<g id="a_node4"><a xlink:href="classQuantConnect_1_1Securities_1_1SecurityTransactionManager.html#acdba6b5b86c1de4968b5b21752292dd9" target="_top" xlink:title="Sets the order id for the specified submit request">
<polygon fill="white" stroke="black" points="490,-148 490,-189 663,-189 663,-148 490,-148"/>
<text text-anchor="start" x="498" y="-177" font-family="Helvetica,sans-Serif" font-size="10.00">QuantConnect.Securities.</text>
<text text-anchor="start" x="498" y="-166" font-family="Helvetica,sans-Serif" font-size="10.00">SecurityTransactionManager.Set</text>
<text text-anchor="middle" x="576.5" y="-155" font-family="Helvetica,sans-Serif" font-size="10.00">OrderId</text>
</a>
</g>
</g>
<!-- Node2&#45;&gt;Node4 -->
<g id="edge3" class="edge">
<title>Node2&#45;&gt;Node4</title>
<path fill="none" stroke="midnightblue" d="M454.03,-152.86C462.62,-153.97 471.32,-155.09 479.9,-156.19"/>
<polygon fill="midnightblue" stroke="midnightblue" points="479.55,-159.68 489.91,-157.48 480.44,-152.73 479.55,-159.68"/>
</g>
<!-- Node6 -->
<g id="node6" class="node">
<title>Node6</title>
<g id="a_node6"><a xlink:href="classQuantConnect_1_1Orders_1_1OrderResponse.html#aee85b2e31d5c1887ec0cfa15568777c9" target="_top" xlink:title="Returns a string that represents the current object.">
<polygon fill="white" stroke="black" points="501,-98.5 501,-128.5 652,-128.5 652,-98.5 501,-98.5"/>
<text text-anchor="start" x="509" y="-116.5" font-family="Helvetica,sans-Serif" font-size="10.00">QuantConnect.Orders.Order</text>
<text text-anchor="middle" x="576.5" y="-105.5" font-family="Helvetica,sans-Serif" font-size="10.00">Response.ToString</text>
</a>
</g>
</g>
<!-- Node2&#45;&gt;Node6 -->
<g id="edge5" class="edge">
<title>Node2&#45;&gt;Node6</title>
<path fill="none" stroke="midnightblue" d="M454.03,-128.58C466.3,-127.06 478.79,-125.51 490.86,-124.01"/>
<polygon fill="midnightblue" stroke="midnightblue" points="491.39,-127.47 500.89,-122.76 490.53,-120.52 491.39,-127.47"/>
</g>
<!-- Node8 -->
<g id="node8" class="node">
<title>Node8</title>
<g id="a_node8"><a xlink:href="classQuantConnect_1_1Orders_1_1OrderResponse.html#af8bdc5b0fd7d8e5929a659099d1d939f" target="_top" xlink:title="Helper method to create an error response due to algorithm still in warmup mode">
<polygon fill="white" stroke="black" points="501,-49.5 501,-79.5 652,-79.5 652,-49.5 501,-49.5"/>
<text text-anchor="start" x="509" y="-67.5" font-family="Helvetica,sans-Serif" font-size="10.00">QuantConnect.Orders.Order</text>
<text text-anchor="middle" x="576.5" y="-56.5" font-family="Helvetica,sans-Serif" font-size="10.00">Response.WarmingUp</text>
</a>
</g>
</g>
<!-- Node2&#45;&gt;Node8 -->
<g id="edge7" class="edge">
<title>Node2&#45;&gt;Node8</title>
<path fill="none" stroke="midnightblue" d="M408.41,-119.88C432.86,-110.17 462.78,-98.72 490,-89.5 496.95,-87.15 504.26,-84.81 511.56,-82.56"/>
<polygon fill="midnightblue" stroke="midnightblue" points="512.91,-85.8 521.46,-79.55 510.88,-79.1 512.91,-85.8"/>
</g>
<!-- Node5 -->
<g id="node5" class="node">
<title>Node5</title>
<g id="a_node5"><a xlink:href="classQuantConnect_1_1Securities_1_1SecurityTransactionManager.html#a470623a731aa5e8e241518af157c9ffe" target="_top" xlink:title="Get a new order id, and increment the internal counter.">
<polygon fill="white" stroke="black" points="699,-148 699,-189 873,-189 873,-148 699,-148"/>
<text text-anchor="start" x="707" y="-177" font-family="Helvetica,sans-Serif" font-size="10.00">QuantConnect.Securities.</text>
<text text-anchor="start" x="707" y="-166" font-family="Helvetica,sans-Serif" font-size="10.00">SecurityTransactionManager.Get</text>
<text text-anchor="middle" x="786" y="-155" font-family="Helvetica,sans-Serif" font-size="10.00">IncrementOrderId</text>
</a>
</g>
</g>
<!-- Node4&#45;&gt;Node5 -->
<g id="edge4" class="edge">
<title>Node4&#45;&gt;Node5</title>
<path fill="none" stroke="midnightblue" d="M663.1,-168.5C671.6,-168.5 680.27,-168.5 688.88,-168.5"/>
<polygon fill="midnightblue" stroke="midnightblue" points="688.93,-172 698.93,-168.5 688.93,-165 688.93,-172"/>
</g>
<!-- Node7 -->
<g id="node7" class="node">
<title>Node7</title>
<g id="a_node7"><a xlink:href="classQuantConnect_1_1Messages_1_1OrderResponse.html#aa0c4af569013ec9ebaed20d28708ed0d" target="_top" xlink:title="Parses the given order response into a string message containing basic information about it">
<polygon fill="white" stroke="black" points="702.5,-98.5 702.5,-128.5 869.5,-128.5 869.5,-98.5 702.5,-98.5"/>
<text text-anchor="start" x="710.5" y="-116.5" font-family="Helvetica,sans-Serif" font-size="10.00">QuantConnect.Messages.Order</text>
<text text-anchor="middle" x="786" y="-105.5" font-family="Helvetica,sans-Serif" font-size="10.00">Response.ToString</text>
</a>
</g>
</g>
<!-- Node6&#45;&gt;Node7 -->
<g id="edge6" class="edge">
<title>Node6&#45;&gt;Node7</title>
<path fill="none" stroke="midnightblue" d="M652.12,-113.5C665.08,-113.5 678.7,-113.5 692.08,-113.5"/>
<polygon fill="midnightblue" stroke="midnightblue" points="692.25,-117 702.25,-113.5 692.25,-110 692.25,-117"/>
</g>
<!-- Node9 -->
<g id="node9" class="node">
<title>Node9</title>
<g id="a_node9"><a xlink:href="classQuantConnect_1_1Orders_1_1OrderResponse.html#a14ded2753785926becc5e7f8e5a02a09" target="_top" xlink:title="Helper method to create an error response from a request">
<polygon fill="white" stroke="black" points="710.5,-49.5 710.5,-79.5 861.5,-79.5 861.5,-49.5 710.5,-49.5"/>
<text text-anchor="start" x="718.5" y="-67.5" font-family="Helvetica,sans-Serif" font-size="10.00">QuantConnect.Orders.Order</text>
<text text-anchor="middle" x="786" y="-56.5" font-family="Helvetica,sans-Serif" font-size="10.00">Response.Error</text>
</a>
</g>
</g>
<!-- Node8&#45;&gt;Node9 -->
<g id="edge8" class="edge">
<title>Node8&#45;&gt;Node9</title>
<path fill="none" stroke="midnightblue" d="M652.12,-64.5C667.65,-64.5 684.14,-64.5 700.02,-64.5"/>
<polygon fill="midnightblue" stroke="midnightblue" points="700.35,-68 710.35,-64.5 700.35,-61 700.35,-68"/>
</g>
<!-- Node10 -->
<g id="node10" class="node">
<title>Node10</title>
<g id="a_node10"><a xlink:href="classQuantConnect_1_1Messages_1_1OrderResponse.html#adf822bd611fdfdf041194a195b2d2150" target="_top" xlink:title="Returns a string message saying the given order request operation is not allowed in Initialize or dur...">
<polygon fill="white" stroke="black" points="702.5,-0.5 702.5,-30.5 869.5,-30.5 869.5,-0.5 702.5,-0.5"/>
<text text-anchor="start" x="710.5" y="-18.5" font-family="Helvetica,sans-Serif" font-size="10.00">QuantConnect.Messages.Order</text>
<text text-anchor="middle" x="786" y="-7.5" font-family="Helvetica,sans-Serif" font-size="10.00">Response.WarmingUp</text>
</a>
</g>
</g>
<!-- Node8&#45;&gt;Node10 -->
<g id="edge9" class="edge">
<title>Node8&#45;&gt;Node10</title>
<path fill="none" stroke="midnightblue" d="M641.17,-49.47C663.37,-44.22 688.48,-38.29 711.42,-32.87"/>
<polygon fill="midnightblue" stroke="midnightblue" points="712.53,-36.21 721.45,-30.51 710.92,-29.4 712.53,-36.21"/>
</g>
</g>
</svg>
