<?xml version="1.0" encoding="UTF-8" standalone="no"?>
<!DOCTYPE svg PUBLIC "-//W3C//DTD SVG 1.1//EN"
 "http://www.w3.org/Graphics/SVG/1.1/DTD/svg11.dtd">
<!-- Generated by graphviz version 2.43.0 (0)
 -->
<!-- Title: QuantConnect.Python.SettlementModelPythonWrapper.Scan Pages: 1 -->
<svg width="413pt" height="50pt"
 viewBox="0.00 0.00 413.00 50.00" xmlns="http://www.w3.org/2000/svg" xmlns:xlink="http://www.w3.org/1999/xlink">
<g id="graph0" class="graph" transform="scale(1 1) rotate(0) translate(4 46)">
<title>QuantConnect.Python.SettlementModelPythonWrapper.Scan</title>
<polygon fill="white" stroke="transparent" points="-4,4 -4,-46 409,-46 409,4 -4,4"/>
<!-- Node1 -->
<g id="node1" class="node">
<title>Node1</title>
<g id="a_node1"><a xlink:title="Scan for pending settlements using the method defined in the Python class">
<polygon fill="#bfbfbf" stroke="black" points="0,-6 0,-36 179,-36 179,-6 0,-6"/>
<text text-anchor="start" x="8" y="-24" font-family="Helvetica,sans-Serif" font-size="10.00">QuantConnect.Python.Settlement</text>
<text text-anchor="middle" x="89.5" y="-13" font-family="Helvetica,sans-Serif" font-size="10.00">ModelPythonWrapper.Scan</text>
</a>
</g>
</g>
<!-- Node2 -->
<g id="node2" class="node">
<title>Node2</title>
<g id="a_node2"><a xlink:href="classQuantConnect_1_1Python_1_1BasePythonWrapper.html#a05fa6adc417fbc2930f9bb95c91af17a" target="_top" xlink:title="Invokes the specified method with the specified arguments">
<polygon fill="white" stroke="black" points="215,-0.5 215,-41.5 405,-41.5 405,-0.5 215,-0.5"/>
<text text-anchor="start" x="223" y="-29.5" font-family="Helvetica,sans-Serif" font-size="10.00">QuantConnect.Python.Base</text>
<text text-anchor="start" x="223" y="-18.5" font-family="Helvetica,sans-Serif" font-size="10.00">PythonWrapper&lt; ISettlementModel</text>
<text text-anchor="middle" x="310" y="-7.5" font-family="Helvetica,sans-Serif" font-size="10.00"> &gt;::InvokeMethod</text>
</a>
</g>
</g>
<!-- Node1&#45;&gt;Node2 -->
<g id="edge1" class="edge">
<title>Node1&#45;&gt;Node2</title>
<path fill="none" stroke="midnightblue" d="M179.06,-21C187.56,-21 196.24,-21 204.87,-21"/>
<polygon fill="midnightblue" stroke="midnightblue" points="204.97,-24.5 214.97,-21 204.97,-17.5 204.97,-24.5"/>
</g>
</g>
</svg>
