<?xml version="1.0" encoding="UTF-8" standalone="no"?>
<!DOCTYPE svg PUBLIC "-//W3C//DTD SVG 1.1//EN"
 "http://www.w3.org/Graphics/SVG/1.1/DTD/svg11.dtd">
<!-- Generated by graphviz version 2.43.0 (0)
 -->
<!-- Title: QuantConnect.AlgorithmFactory.Python.Wrappers.AlgorithmPythonWrapper.SetFinishedWarmingUp Pages: 1 -->
<svg width="690pt" height="50pt"
 viewBox="0.00 0.00 690.00 50.00" xmlns="http://www.w3.org/2000/svg" xmlns:xlink="http://www.w3.org/1999/xlink">
<g id="graph0" class="graph" transform="scale(1 1) rotate(0) translate(4 46)">
<title>QuantConnect.AlgorithmFactory.Python.Wrappers.AlgorithmPythonWrapper.SetFinishedWarmingUp</title>
<polygon fill="white" stroke="transparent" points="-4,4 -4,-46 686,-46 686,4 -4,4"/>
<!-- Node1 -->
<g id="node1" class="node">
<title>Node1</title>
<g id="a_node1"><a xlink:title="Sets IsWarmingUp to false to indicate this algorithm has finished its warm up">
<polygon fill="#bfbfbf" stroke="black" points="0,-0.5 0,-41.5 228,-41.5 228,-0.5 0,-0.5"/>
<text text-anchor="start" x="8" y="-29.5" font-family="Helvetica,sans-Serif" font-size="10.00">QuantConnect.AlgorithmFactory.</text>
<text text-anchor="start" x="8" y="-18.5" font-family="Helvetica,sans-Serif" font-size="10.00">Python.Wrappers.AlgorithmPythonWrapper.</text>
<text text-anchor="middle" x="114" y="-7.5" font-family="Helvetica,sans-Serif" font-size="10.00">SetFinishedWarmingUp</text>
</a>
</g>
</g>
<!-- Node2 -->
<g id="node2" class="node">
<title>Node2</title>
<g id="a_node2"><a xlink:href="classQuantConnect_1_1AlgorithmFactory_1_1Python_1_1Wrappers_1_1AlgorithmPythonWrapper.html#aa7e0e4da8ada78d669e1bc31dc5097c5" target="_top" xlink:title="Called when the algorithm has completed initialization and warm up.">
<polygon fill="white" stroke="black" points="264,-0.5 264,-41.5 492,-41.5 492,-0.5 264,-0.5"/>
<text text-anchor="start" x="272" y="-29.5" font-family="Helvetica,sans-Serif" font-size="10.00">QuantConnect.AlgorithmFactory.</text>
<text text-anchor="start" x="272" y="-18.5" font-family="Helvetica,sans-Serif" font-size="10.00">Python.Wrappers.AlgorithmPythonWrapper.</text>
<text text-anchor="middle" x="378" y="-7.5" font-family="Helvetica,sans-Serif" font-size="10.00">OnWarmupFinished</text>
</a>
</g>
</g>
<!-- Node1&#45;&gt;Node2 -->
<g id="edge1" class="edge">
<title>Node1&#45;&gt;Node2</title>
<path fill="none" stroke="midnightblue" d="M228.01,-21C236.57,-21 245.24,-21 253.86,-21"/>
<polygon fill="midnightblue" stroke="midnightblue" points="253.95,-24.5 263.95,-21 253.95,-17.5 253.95,-24.5"/>
</g>
<!-- Node3 -->
<g id="node3" class="node">
<title>Node3</title>
<g id="a_node3"><a xlink:href="classQuantConnect_1_1Python_1_1BasePythonWrapper.html#a05fa6adc417fbc2930f9bb95c91af17a" target="_top" xlink:title="Invokes the specified method with the specified arguments">
<polygon fill="white" stroke="black" points="528,-0.5 528,-41.5 682,-41.5 682,-0.5 528,-0.5"/>
<text text-anchor="start" x="536" y="-29.5" font-family="Helvetica,sans-Serif" font-size="10.00">QuantConnect.Python.Base</text>
<text text-anchor="start" x="536" y="-18.5" font-family="Helvetica,sans-Serif" font-size="10.00">PythonWrapper&lt; IAlgorithm</text>
<text text-anchor="middle" x="605" y="-7.5" font-family="Helvetica,sans-Serif" font-size="10.00"> &gt;::InvokeMethod</text>
</a>
</g>
</g>
<!-- Node2&#45;&gt;Node3 -->
<g id="edge2" class="edge">
<title>Node2&#45;&gt;Node3</title>
<path fill="none" stroke="midnightblue" d="M492.16,-21C500.72,-21 509.27,-21 517.62,-21"/>
<polygon fill="midnightblue" stroke="midnightblue" points="517.69,-24.5 527.69,-21 517.69,-17.5 517.69,-24.5"/>
</g>
</g>
</svg>
