<?xml version="1.0" encoding="UTF-8" standalone="no"?>
<!DOCTYPE svg PUBLIC "-//W3C//DTD SVG 1.1//EN"
 "http://www.w3.org/Graphics/SVG/1.1/DTD/svg11.dtd">
<!-- Generated by graphviz version 2.43.0 (0)
 -->
<!-- Title: QuantConnect.Packets.PythonEnvironmentPacket Pages: 1 -->
<svg width="867pt" height="137pt"
 viewBox="0.00 0.00 867.00 137.00" xmlns="http://www.w3.org/2000/svg" xmlns:xlink="http://www.w3.org/1999/xlink">
<g id="graph0" class="graph" transform="scale(1 1) rotate(0) translate(4 133)">
<title>QuantConnect.Packets.PythonEnvironmentPacket</title>
<polygon fill="white" stroke="transparent" points="-4,4 -4,-133 863,-133 863,4 -4,4"/>
<!-- Node1 -->
<g id="node1" class="node">
<title>Node1</title>
<g id="a_node1"><a xlink:title="Python Environment Packet is an abstract packet that contains a PythonVirtualEnvironment definition....">
<polygon fill="#bfbfbf" stroke="black" points="84,-49.5 84,-79.5 246,-79.5 246,-49.5 84,-49.5"/>
<text text-anchor="start" x="92" y="-67.5" font-family="Helvetica,sans-Serif" font-size="10.00">QuantConnect.Packets.Python</text>
<text text-anchor="middle" x="165" y="-56.5" font-family="Helvetica,sans-Serif" font-size="10.00">EnvironmentPacket</text>
</a>
</g>
</g>
<!-- Node3 -->
<g id="node3" class="node">
<title>Node3</title>
<g id="a_node3"><a xlink:href="classQuantConnect_1_1Packets_1_1AlgorithmNodePacket.html" target="_top" xlink:title="Algorithm Node Packet is a work task for the Lean Engine">
<polygon fill="white" stroke="black" points="282,-49.5 282,-79.5 458,-79.5 458,-49.5 282,-49.5"/>
<text text-anchor="start" x="290" y="-67.5" font-family="Helvetica,sans-Serif" font-size="10.00">QuantConnect.Packets.Algorithm</text>
<text text-anchor="middle" x="370" y="-56.5" font-family="Helvetica,sans-Serif" font-size="10.00">NodePacket</text>
</a>
</g>
</g>
<!-- Node1&#45;&gt;Node3 -->
<g id="edge2" class="edge">
<title>Node1&#45;&gt;Node3</title>
<path fill="none" stroke="midnightblue" d="M256.5,-64.5C264.98,-64.5 273.56,-64.5 282,-64.5"/>
<polygon fill="midnightblue" stroke="midnightblue" points="256.23,-61 246.23,-64.5 256.23,-68 256.23,-61"/>
</g>
<!-- Node2 -->
<g id="node2" class="node">
<title>Node2</title>
<g id="a_node2"><a xlink:href="classQuantConnect_1_1Packets_1_1Packet.html" target="_top" xlink:title="Base class for packet messaging system">
<polygon fill="white" stroke="black" points="0,-55 0,-74 48,-74 48,-55 0,-55"/>
<text text-anchor="middle" x="24" y="-62" font-family="Helvetica,sans-Serif" font-size="10.00">Packet</text>
</a>
</g>
</g>
<!-- Node2&#45;&gt;Node1 -->
<g id="edge1" class="edge">
<title>Node2&#45;&gt;Node1</title>
<path fill="none" stroke="midnightblue" d="M58.4,-64.5C66.26,-64.5 74.98,-64.5 83.94,-64.5"/>
<polygon fill="midnightblue" stroke="midnightblue" points="58.27,-61 48.27,-64.5 58.27,-68 58.27,-61"/>
</g>
<!-- Node4 -->
<g id="node4" class="node">
<title>Node4</title>
<g id="a_node4"><a xlink:href="classQuantConnect_1_1Packets_1_1BacktestNodePacket.html" target="_top" xlink:title="Algorithm backtest task information packet.">
<polygon fill="white" stroke="black" points="495,-98.5 495,-128.5 666,-128.5 666,-98.5 495,-98.5"/>
<text text-anchor="start" x="503" y="-116.5" font-family="Helvetica,sans-Serif" font-size="10.00">QuantConnect.Packets.Backtest</text>
<text text-anchor="middle" x="580.5" y="-105.5" font-family="Helvetica,sans-Serif" font-size="10.00">NodePacket</text>
</a>
</g>
</g>
<!-- Node3&#45;&gt;Node4 -->
<g id="edge3" class="edge">
<title>Node3&#45;&gt;Node4</title>
<path fill="none" stroke="midnightblue" d="M444.74,-81.83C467.89,-87.27 493.24,-93.23 515.65,-98.49"/>
<polygon fill="midnightblue" stroke="midnightblue" points="445.51,-78.42 434.97,-79.53 443.91,-85.23 445.51,-78.42"/>
</g>
<!-- Node5 -->
<g id="node5" class="node">
<title>Node5</title>
<g id="a_node5"><a xlink:href="classQuantConnect_1_1Packets_1_1LiveNodePacket.html" target="_top" xlink:title="Live job task packet: container for any live specific job variables">
<polygon fill="white" stroke="black" points="506,-49.5 506,-79.5 655,-79.5 655,-49.5 506,-49.5"/>
<text text-anchor="start" x="514" y="-67.5" font-family="Helvetica,sans-Serif" font-size="10.00">QuantConnect.Packets.Live</text>
<text text-anchor="middle" x="580.5" y="-56.5" font-family="Helvetica,sans-Serif" font-size="10.00">NodePacket</text>
</a>
</g>
</g>
<!-- Node3&#45;&gt;Node5 -->
<g id="edge4" class="edge">
<title>Node3&#45;&gt;Node5</title>
<path fill="none" stroke="midnightblue" d="M468.3,-64.5C480.93,-64.5 493.7,-64.5 505.85,-64.5"/>
<polygon fill="midnightblue" stroke="midnightblue" points="468.21,-61 458.21,-64.5 468.21,-68 468.21,-61"/>
</g>
<!-- Node7 -->
<g id="node7" class="node">
<title>Node7</title>
<g id="a_node7"><a xlink:href="classQuantConnect_1_1Packets_1_1ResearchNodePacket.html" target="_top" xlink:title="Represents a research node packet">
<polygon fill="white" stroke="black" points="494,-0.5 494,-30.5 667,-30.5 667,-0.5 494,-0.5"/>
<text text-anchor="start" x="502" y="-18.5" font-family="Helvetica,sans-Serif" font-size="10.00">QuantConnect.Packets.Research</text>
<text text-anchor="middle" x="580.5" y="-7.5" font-family="Helvetica,sans-Serif" font-size="10.00">NodePacket</text>
</a>
</g>
</g>
<!-- Node3&#45;&gt;Node7 -->
<g id="edge6" class="edge">
<title>Node3&#45;&gt;Node7</title>
<path fill="none" stroke="midnightblue" d="M444.74,-47.17C467.89,-41.73 493.24,-35.77 515.65,-30.51"/>
<polygon fill="midnightblue" stroke="midnightblue" points="443.91,-43.77 434.97,-49.47 445.51,-50.58 443.91,-43.77"/>
</g>
<!-- Node6 -->
<g id="node6" class="node">
<title>Node6</title>
<g id="a_node6"><a xlink:href="classQuantConnect_1_1Packets_1_1AlphaNodePacket.html" target="_top" xlink:title="Alpha job packet">
<polygon fill="white" stroke="black" points="703,-49.5 703,-79.5 859,-79.5 859,-49.5 703,-49.5"/>
<text text-anchor="start" x="711" y="-67.5" font-family="Helvetica,sans-Serif" font-size="10.00">QuantConnect.Packets.Alpha</text>
<text text-anchor="middle" x="781" y="-56.5" font-family="Helvetica,sans-Serif" font-size="10.00">NodePacket</text>
</a>
</g>
</g>
<!-- Node5&#45;&gt;Node6 -->
<g id="edge5" class="edge">
<title>Node5&#45;&gt;Node6</title>
<path fill="none" stroke="midnightblue" d="M665.45,-64.5C677.85,-64.5 690.58,-64.5 702.83,-64.5"/>
<polygon fill="midnightblue" stroke="midnightblue" points="665.13,-61 655.13,-64.5 665.13,-68 665.13,-61"/>
</g>
</g>
</svg>
