<?xml version="1.0" encoding="UTF-8" standalone="no"?>
<!DOCTYPE svg PUBLIC "-//W3C//DTD SVG 1.1//EN"
 "http://www.w3.org/Graphics/SVG/1.1/DTD/svg11.dtd">
<!-- Generated by graphviz version 2.43.0 (0)
 -->
<!-- Title: QuantConnect.Lean.Engine.DataFeeds.BaseSubscriptionDataSourceReader.OnInvalidSource Pages: 1 -->
<!--zoomable 230 -->
<svg id="main" version="1.1" xmlns="http://www.w3.org/2000/svg" xmlns:xlink="http://www.w3.org/1999/xlink" xml:space="preserve" onload="init(evt)">
<style type="text/css"><![CDATA[
.edge:hover path { stroke: red; }
.edge:hover polygon { stroke: red; fill: red; }
]]></style>
<script type="text/javascript"><![CDATA[
var edges = document.getElementsByTagName('g');
if (edges && edges.length) {
  for (var i=0;i<edges.length;i++) {
    if (edges[i].id.substr(0,4)=='edge') {
      edges[i].setAttribute('class','edge');
    }
  }
}
]]></script>
        <defs>
                <circle id="rim" cx="0" cy="0" r="7"/>
                <circle id="rim2" cx="0" cy="0" r="3.5"/>
                <g id="zoomPlus">
                        <use xlink:href="#rim" fill="#404040">
                                <set attributeName="fill" to="#808080" begin="zoomplus.mouseover" end="zoomplus.mouseout"/>
                        </use>
                        <path d="M-4,0h8M0,-4v8" fill="none" stroke="white" stroke-width="1.5" pointer-events="none"/>
                </g>
                <g id="zoomMin">
                        <use xlink:href="#rim" fill="#404040">
                                <set attributeName="fill" to="#808080" begin="zoomminus.mouseover" end="zoomminus.mouseout"/>
                        </use>
                        <path d="M-4,0h8" fill="none" stroke="white" stroke-width="1.5" pointer-events="none"/>
                </g>
                <g id="dirArrow">
                        <path fill="none" stroke="white" stroke-width="1.5" d="M0,-3.0v7 M-2.5,-0.5L0,-3.0L2.5,-0.5"/>
                </g>
               <g id="resetDef">
                       <use xlink:href="#rim2" fill="#404040">
                               <set attributeName="fill" to="#808080" begin="reset.mouseover" end="reset.mouseout"/>
                       </use>
               </g>
        </defs>

<script type="text/javascript">
var viewWidth = 649;
var viewHeight = 230;
var sectionId = 'dynsection-3';
</script>
<script xlink:href="svgpan.js"/>
<svg id="graph" class="graph">
<g id="viewport">
<title>QuantConnect.Lean.Engine.DataFeeds.BaseSubscriptionDataSourceReader.OnInvalidSource</title>
<polygon fill="white" stroke="transparent" points="-4,4 -4,-226 645,-226 645,4 -4,4"/>
<!-- Node1 -->
<g id="node1" class="node">
<title>Node1</title>
<g id="a_node1"><a xlink:title="Event invocator for the InvalidSource event">
<polygon fill="#bfbfbf" stroke="black" points="462,-90.5 462,-131.5 641,-131.5 641,-90.5 462,-90.5"/>
<text text-anchor="start" x="470" y="-119.5" font-family="Helvetica,sans-Serif" font-size="10.00">QuantConnect.Lean.Engine.</text>
<text text-anchor="start" x="470" y="-108.5" font-family="Helvetica,sans-Serif" font-size="10.00">DataFeeds.BaseSubscriptionData</text>
<text text-anchor="middle" x="551.5" y="-97.5" font-family="Helvetica,sans-Serif" font-size="10.00">SourceReader.OnInvalidSource</text>
</a>
</g>
</g>
<!-- Node2 -->
<g id="node2" class="node">
<title>Node2</title>
<g id="a_node2"><a xlink:href="classQuantConnect_1_1Lean_1_1Engine_1_1DataFeeds_1_1BaseSubscriptionDataSourceReader.html#a722a3e99039d7aa02b25df5dd54f8820" target="_top" xlink:title="Creates a new IStreamReader for the specified subscriptionDataSource">
<polygon fill="white" stroke="black" points="238,-90.5 238,-131.5 426,-131.5 426,-90.5 238,-90.5"/>
<text text-anchor="start" x="246" y="-119.5" font-family="Helvetica,sans-Serif" font-size="10.00">QuantConnect.Lean.Engine.</text>
<text text-anchor="start" x="246" y="-108.5" font-family="Helvetica,sans-Serif" font-size="10.00">DataFeeds.BaseSubscriptionData</text>
<text text-anchor="middle" x="332" y="-97.5" font-family="Helvetica,sans-Serif" font-size="10.00">SourceReader.CreateStreamReader</text>
</a>
</g>
</g>
<!-- Node1&#45;&gt;Node2 -->
<g id="edge1" class="edge">
<title>Node1&#45;&gt;Node2</title>
<path fill="none" stroke="midnightblue" d="M451.47,-111C443.02,-111 434.49,-111 426.09,-111"/>
<polygon fill="midnightblue" stroke="midnightblue" points="451.72,-114.5 461.72,-111 451.72,-107.5 451.72,-114.5"/>
</g>
<!-- Node4 -->
<g id="node4" class="node">
<title>Node4</title>
<g id="a_node4"><a xlink:href="classQuantConnect_1_1Lean_1_1Engine_1_1DataFeeds_1_1CollectionSubscriptionDataSourceReader.html#a1199aa83652a26b23433cdabb9964f91" target="_top" xlink:title="Reads the specified source">
<polygon fill="white" stroke="black" points="11,-180.5 11,-221.5 191,-221.5 191,-180.5 11,-180.5"/>
<text text-anchor="start" x="19" y="-209.5" font-family="Helvetica,sans-Serif" font-size="10.00">QuantConnect.Lean.Engine.</text>
<text text-anchor="start" x="19" y="-198.5" font-family="Helvetica,sans-Serif" font-size="10.00">DataFeeds.CollectionSubscription</text>
<text text-anchor="middle" x="101" y="-187.5" font-family="Helvetica,sans-Serif" font-size="10.00">DataSourceReader.Read</text>
</a>
</g>
</g>
<!-- Node1&#45;&gt;Node4 -->
<g id="edge6" class="edge">
<title>Node1&#45;&gt;Node4</title>
<path fill="none" stroke="midnightblue" d="M458.06,-133.85C447.27,-136.35 436.41,-138.78 426,-141 346.97,-157.83 256.51,-174.35 191.3,-185.78"/>
<polygon fill="midnightblue" stroke="midnightblue" points="458.99,-137.23 467.93,-131.55 457.4,-130.41 458.99,-137.23"/>
</g>
<!-- Node5 -->
<g id="node5" class="node">
<title>Node5</title>
<g id="a_node5"><a xlink:href="classQuantConnect_1_1Lean_1_1Engine_1_1DataFeeds_1_1IndexSubscriptionDataSourceReader.html#a00690b5e347e1e3c2f7239df484f6453" target="_top" xlink:title="Reads the specified source">
<polygon fill="white" stroke="black" points="10,-0.5 10,-41.5 192,-41.5 192,-0.5 10,-0.5"/>
<text text-anchor="start" x="18" y="-29.5" font-family="Helvetica,sans-Serif" font-size="10.00">QuantConnect.Lean.Engine.</text>
<text text-anchor="start" x="18" y="-18.5" font-family="Helvetica,sans-Serif" font-size="10.00">DataFeeds.IndexSubscriptionData</text>
<text text-anchor="middle" x="101" y="-7.5" font-family="Helvetica,sans-Serif" font-size="10.00">SourceReader.Read</text>
</a>
</g>
</g>
<!-- Node1&#45;&gt;Node5 -->
<g id="edge7" class="edge">
<title>Node1&#45;&gt;Node5</title>
<path fill="none" stroke="midnightblue" d="M458.06,-88.15C447.27,-85.65 436.41,-83.22 426,-81 347.39,-64.26 257.47,-47.82 192.34,-36.4"/>
<polygon fill="midnightblue" stroke="midnightblue" points="457.4,-91.59 467.93,-90.45 458.99,-84.77 457.4,-91.59"/>
</g>
<!-- Node3 -->
<g id="node3" class="node">
<title>Node3</title>
<g id="a_node3"><a xlink:href="classQuantConnect_1_1Lean_1_1Engine_1_1DataFeeds_1_1ZipEntryNameSubscriptionDataSourceReader.html#ae2ba56b015a913c678e9c87e37df9b4a" target="_top" xlink:title="Reads the specified source">
<polygon fill="white" stroke="black" points="0,-120.5 0,-161.5 202,-161.5 202,-120.5 0,-120.5"/>
<text text-anchor="start" x="8" y="-149.5" font-family="Helvetica,sans-Serif" font-size="10.00">QuantConnect.Lean.Engine.</text>
<text text-anchor="start" x="8" y="-138.5" font-family="Helvetica,sans-Serif" font-size="10.00">DataFeeds.ZipEntryNameSubscription</text>
<text text-anchor="middle" x="101" y="-127.5" font-family="Helvetica,sans-Serif" font-size="10.00">DataSourceReader.Read</text>
</a>
</g>
</g>
<!-- Node2&#45;&gt;Node3 -->
<g id="edge2" class="edge">
<title>Node2&#45;&gt;Node3</title>
<path fill="none" stroke="midnightblue" d="M227.87,-124.51C219.32,-125.63 210.68,-126.76 202.15,-127.88"/>
<polygon fill="midnightblue" stroke="midnightblue" points="228.4,-127.97 237.86,-123.2 227.49,-121.03 228.4,-127.97"/>
</g>
<!-- Node2&#45;&gt;Node4 -->
<g id="edge3" class="edge">
<title>Node2&#45;&gt;Node4</title>
<path fill="none" stroke="midnightblue" d="M281.54,-136.04C257.82,-147.52 228.8,-160.81 202,-171 193.36,-174.29 184.19,-177.45 175.05,-180.42"/>
<polygon fill="midnightblue" stroke="midnightblue" points="283.23,-139.11 290.69,-131.58 280.16,-132.82 283.23,-139.11"/>
</g>
<!-- Node2&#45;&gt;Node5 -->
<g id="edge4" class="edge">
<title>Node2&#45;&gt;Node5</title>
<path fill="none" stroke="midnightblue" d="M271.15,-86.32C260.04,-81.44 248.6,-76.21 238,-71 221.57,-62.93 218.86,-58.12 202,-51 193.98,-47.62 185.46,-44.45 176.9,-41.53"/>
<polygon fill="midnightblue" stroke="midnightblue" points="269.82,-89.55 280.38,-90.33 272.61,-83.13 269.82,-89.55"/>
</g>
<!-- Node6 -->
<g id="node6" class="node">
<title>Node6</title>
<g id="a_node6"><a xlink:href="classQuantConnect_1_1Lean_1_1Engine_1_1DataFeeds_1_1TextSubscriptionDataSourceReader.html#ac3d0be11cf0a59efc44c8b41053675a2" target="_top" xlink:title="Reads the specified source">
<polygon fill="white" stroke="black" points="13.5,-60.5 13.5,-101.5 188.5,-101.5 188.5,-60.5 13.5,-60.5"/>
<text text-anchor="start" x="21.5" y="-89.5" font-family="Helvetica,sans-Serif" font-size="10.00">QuantConnect.Lean.Engine.</text>
<text text-anchor="start" x="21.5" y="-78.5" font-family="Helvetica,sans-Serif" font-size="10.00">DataFeeds.TextSubscriptionData</text>
<text text-anchor="middle" x="101" y="-67.5" font-family="Helvetica,sans-Serif" font-size="10.00">SourceReader.Read</text>
</a>
</g>
</g>
<!-- Node2&#45;&gt;Node6 -->
<g id="edge5" class="edge">
<title>Node2&#45;&gt;Node6</title>
<path fill="none" stroke="midnightblue" d="M227.91,-97.49C214.84,-95.78 201.56,-94.04 188.78,-92.37"/>
<polygon fill="midnightblue" stroke="midnightblue" points="227.49,-100.97 237.86,-98.8 228.4,-94.03 227.49,-100.97"/>
</g>
</g>
</svg>
        <g id="navigator" transform="translate(0 0)" fill="#404254">
                <rect fill="#f2f5e9" fill-opacity="0.5" stroke="#606060" stroke-width=".5" x="0" y="0" width="60" height="60"/>
                <use id="zoomplus" xlink:href="#zoomPlus" x="17" y="9" onmousedown="handleZoom(evt,'in')"/>
                <use id="zoomminus" xlink:href="#zoomMin" x="42" y="9" onmousedown="handleZoom(evt,'out')"/>
                <use id="reset" xlink:href="#resetDef" x="30" y="36" onmousedown="handleReset()"/>
                <g id="arrowUp" xlink:href="#dirArrow" transform="translate(30 24)" onmousedown="handlePan(0,-1)">
                  <use xlink:href="#rim" fill="#404040">
                        <set attributeName="fill" to="#808080" begin="arrowUp.mouseover" end="arrowUp.mouseout"/>
                  </use>
                  <path fill="none" stroke="white" stroke-width="1.5" d="M0,-3.0v7 M-2.5,-0.5L0,-3.0L2.5,-0.5"/>
                </g>
                <g id="arrowRight" xlink:href="#dirArrow" transform="rotate(90) translate(36 -43)" onmousedown="handlePan(1,0)">
                  <use xlink:href="#rim" fill="#404040">
                        <set attributeName="fill" to="#808080" begin="arrowRight.mouseover" end="arrowRight.mouseout"/>
                  </use>
                  <path fill="none" stroke="white" stroke-width="1.5" d="M0,-3.0v7 M-2.5,-0.5L0,-3.0L2.5,-0.5"/>
                </g>
                <g id="arrowDown" xlink:href="#dirArrow" transform="rotate(180) translate(-30 -48)" onmousedown="handlePan(0,1)">
                  <use xlink:href="#rim" fill="#404040">
                        <set attributeName="fill" to="#808080" begin="arrowDown.mouseover" end="arrowDown.mouseout"/>
                  </use>
                  <path fill="none" stroke="white" stroke-width="1.5" d="M0,-3.0v7 M-2.5,-0.5L0,-3.0L2.5,-0.5"/>
                </g>
                <g id="arrowLeft" xlink:href="#dirArrow" transform="rotate(270) translate(-36 17)" onmousedown="handlePan(-1,0)">
                  <use xlink:href="#rim" fill="#404040">
                        <set attributeName="fill" to="#808080" begin="arrowLeft.mouseover" end="arrowLeft.mouseout"/>
                  </use>
                  <path fill="none" stroke="white" stroke-width="1.5" d="M0,-3.0v7 M-2.5,-0.5L0,-3.0L2.5,-0.5"/>
                </g>
        </g>
        <svg viewBox="0 0 15 15" width="100%" height="30px" preserveAspectRatio="xMaxYMin meet">
         <g id="arrow_out" transform="scale(0.3 0.3)">
          <a xlink:href="classQuantConnect_1_1Lean_1_1Engine_1_1DataFeeds_1_1BaseSubscriptionDataSourceReader_a4f33151f5c236a60bcd78fa58e74503d_icgraph_org.svg" target="_base">
           <rect id="button" ry="5" rx="5" y="6" x="6" height="38" width="38"
                fill="#f2f5e9" fill-opacity="0.5" stroke="#606060" stroke-width="1.0"/>
           <path id="arrow"
             d="M 11.500037,31.436501 C 11.940474,20.09759 22.043105,11.32322 32.158766,21.979434 L 37.068811,17.246167 C 37.068811,17.246167 37.088388,32 37.088388,32 L 22.160133,31.978069 C 22.160133,31.978069 26.997745,27.140456 26.997745,27.140456 C 18.528582,18.264221 13.291696,25.230495 11.500037,31.436501 z"
             style="fill:#404040;"/>
          </a>
         </g>
        </svg>
</svg>
