<?xml version="1.0" encoding="UTF-8" standalone="no"?>
<!DOCTYPE svg PUBLIC "-//W3C//DTD SVG 1.1//EN"
 "http://www.w3.org/Graphics/SVG/1.1/DTD/svg11.dtd">
<!-- Generated by graphviz version 2.43.0 (0)
 -->
<!-- Title: QuantConnect.Messages.OrderEvent.ToString Pages: 1 -->
<svg width="566pt" height="61pt"
 viewBox="0.00 0.00 566.00 61.00" xmlns="http://www.w3.org/2000/svg" xmlns:xlink="http://www.w3.org/1999/xlink">
<g id="graph0" class="graph" transform="scale(1 1) rotate(0) translate(4 57)">
<title>QuantConnect.Messages.OrderEvent.ToString</title>
<polygon fill="white" stroke="transparent" points="-4,4 -4,-57 562,-57 562,4 -4,4"/>
<!-- Node1 -->
<g id="node1" class="node">
<title>Node1</title>
<g id="a_node1"><a xlink:title="Parses the given order event into a string message containing basic information about it">
<polygon fill="#bfbfbf" stroke="black" points="0,-22.5 0,-52.5 167,-52.5 167,-22.5 0,-22.5"/>
<text text-anchor="start" x="8" y="-40.5" font-family="Helvetica,sans-Serif" font-size="10.00">QuantConnect.Messages.Order</text>
<text text-anchor="middle" x="83.5" y="-29.5" font-family="Helvetica,sans-Serif" font-size="10.00">Event.ToString</text>
</a>
</g>
</g>
<!-- Node2 -->
<g id="node2" class="node">
<title>Node2</title>
<g id="a_node2"><a xlink:href="classQuantConnect_1_1Currencies.html#a2a7c85f9abe93db2a30c36612098e30e" target="_top" xlink:title="Gets the currency symbol for the specified currency code">
<polygon fill="white" stroke="black" points="415,-22.5 415,-52.5 558,-52.5 558,-22.5 415,-22.5"/>
<text text-anchor="start" x="423" y="-40.5" font-family="Helvetica,sans-Serif" font-size="10.00">QuantConnect.Currencies.</text>
<text text-anchor="middle" x="486.5" y="-29.5" font-family="Helvetica,sans-Serif" font-size="10.00">GetCurrencySymbol</text>
</a>
</g>
</g>
<!-- Node1&#45;&gt;Node2 -->
<g id="edge1" class="edge">
<title>Node1&#45;&gt;Node2</title>
<path fill="none" stroke="midnightblue" d="M167.05,-39.86C179.11,-40.12 191.37,-40.35 203,-40.5 281.22,-41.49 300.79,-41.6 379,-40.5 387.31,-40.38 395.98,-40.21 404.63,-40.02"/>
<polygon fill="midnightblue" stroke="midnightblue" points="404.84,-43.51 414.76,-39.77 404.67,-36.51 404.84,-43.51"/>
</g>
<!-- Node3 -->
<g id="node3" class="node">
<title>Node3</title>
<g id="a_node3"><a xlink:href="classQuantConnect_1_1Messages_1_1TrailingStopOrder.html#a57af95588c344800d240911558955fa1" target="_top" xlink:title="Returns a TrailingAmount string representation for the given TrailingStopOrder">
<polygon fill="white" stroke="black" points="203,-0.5 203,-30.5 379,-30.5 379,-0.5 203,-0.5"/>
<text text-anchor="start" x="211" y="-18.5" font-family="Helvetica,sans-Serif" font-size="10.00">QuantConnect.Messages.Trailing</text>
<text text-anchor="middle" x="291" y="-7.5" font-family="Helvetica,sans-Serif" font-size="10.00">StopOrder.TrailingAmount</text>
</a>
</g>
</g>
<!-- Node1&#45;&gt;Node3 -->
<g id="edge2" class="edge">
<title>Node1&#45;&gt;Node3</title>
<path fill="none" stroke="midnightblue" d="M167.2,-28.65C175.61,-27.75 184.22,-26.82 192.77,-25.91"/>
<polygon fill="midnightblue" stroke="midnightblue" points="193.2,-29.38 202.77,-24.84 192.46,-22.42 193.2,-29.38"/>
</g>
<!-- Node3&#45;&gt;Node2 -->
<g id="edge3" class="edge">
<title>Node3&#45;&gt;Node2</title>
<path fill="none" stroke="midnightblue" d="M379.13,-25.41C387.61,-26.37 396.2,-27.35 404.62,-28.3"/>
<polygon fill="midnightblue" stroke="midnightblue" points="404.46,-31.81 414.79,-29.46 405.25,-24.85 404.46,-31.81"/>
</g>
</g>
</svg>
