<?xml version="1.0" encoding="UTF-8" standalone="no"?>
<!DOCTYPE svg PUBLIC "-//W3C//DTD SVG 1.1//EN"
 "http://www.w3.org/Graphics/SVG/1.1/DTD/svg11.dtd">
<!-- Generated by graphviz version 2.43.0 (0)
 -->
<!-- Title: QuantConnect.Util.ObjectActivator.Clone Pages: 1 -->
<svg width="1279pt" height="269pt"
 viewBox="0.00 0.00 1279.00 268.50" xmlns="http://www.w3.org/2000/svg" xmlns:xlink="http://www.w3.org/1999/xlink">
<g id="graph0" class="graph" transform="scale(1 1) rotate(0) translate(4 264.5)">
<title>QuantConnect.Util.ObjectActivator.Clone</title>
<polygon fill="white" stroke="transparent" points="-4,4 -4,-264.5 1275,-264.5 1275,4 -4,4"/>
<!-- Node1 -->
<g id="node1" class="node">
<title>Node1</title>
<g id="a_node1"><a xlink:title="Clones the specified instance using reflection">
<polygon fill="#bfbfbf" stroke="black" points="1131,-126 1131,-156 1271,-156 1271,-126 1131,-126"/>
<text text-anchor="start" x="1139" y="-144" font-family="Helvetica,sans-Serif" font-size="10.00">QuantConnect.Util.Object</text>
<text text-anchor="middle" x="1201" y="-133" font-family="Helvetica,sans-Serif" font-size="10.00">Activator.Clone</text>
</a>
</g>
</g>
<!-- Node2 -->
<g id="node2" class="node">
<title>Node2</title>
<g id="a_node2"><a xlink:href="classQuantConnect_1_1Data_1_1DynamicData.html#a118a5a4521c68dc0682c187d40185b90" target="_top" xlink:title="Return a new instance clone of this object, used in fill forward">
<polygon fill="white" stroke="black" points="933.5,-175 933.5,-205 1091.5,-205 1091.5,-175 933.5,-175"/>
<text text-anchor="start" x="941.5" y="-193" font-family="Helvetica,sans-Serif" font-size="10.00">QuantConnect.Data.Dynamic</text>
<text text-anchor="middle" x="1012.5" y="-182" font-family="Helvetica,sans-Serif" font-size="10.00">Data.Clone</text>
</a>
</g>
</g>
<!-- Node1&#45;&gt;Node2 -->
<g id="edge1" class="edge">
<title>Node1&#45;&gt;Node2</title>
<path fill="none" stroke="midnightblue" d="M1132.93,-158.62C1112.52,-163.98 1090.3,-169.82 1070.62,-174.99"/>
<polygon fill="midnightblue" stroke="midnightblue" points="1133.99,-161.96 1142.78,-156.03 1132.22,-155.19 1133.99,-161.96"/>
</g>
<!-- Node3 -->
<g id="node3" class="node">
<title>Node3</title>
<g id="a_node3"><a xlink:href="classQuantConnect_1_1Data_1_1BaseData.html#af973f9d8b7c0726fed42fa03ccd5f963" target="_top" xlink:title="Return a new instance clone of this object, used in fill forward">
<polygon fill="white" stroke="black" points="930,-126 930,-156 1095,-156 1095,-126 930,-126"/>
<text text-anchor="start" x="938" y="-144" font-family="Helvetica,sans-Serif" font-size="10.00">QuantConnect.Data.BaseData.</text>
<text text-anchor="middle" x="1012.5" y="-133" font-family="Helvetica,sans-Serif" font-size="10.00">Clone</text>
</a>
</g>
</g>
<!-- Node1&#45;&gt;Node3 -->
<g id="edge2" class="edge">
<title>Node1&#45;&gt;Node3</title>
<path fill="none" stroke="midnightblue" d="M1120.64,-141C1112.21,-141 1103.63,-141 1095.17,-141"/>
<polygon fill="midnightblue" stroke="midnightblue" points="1120.82,-144.5 1130.82,-141 1120.82,-137.5 1120.82,-144.5"/>
</g>
<!-- Node13 -->
<g id="node13" class="node">
<title>Node13</title>
<g id="a_node13"><a xlink:href="classQuantConnect_1_1Util_1_1ObjectActivator.html#a3acb2f858622f80ace157d0c27c53f13" target="_top" xlink:title="Clones the specified instance and then casts it to T before returning">
<polygon fill="white" stroke="black" points="942.5,-77 942.5,-107 1082.5,-107 1082.5,-77 942.5,-77"/>
<text text-anchor="start" x="950.5" y="-95" font-family="Helvetica,sans-Serif" font-size="10.00">QuantConnect.Util.Object</text>
<text text-anchor="middle" x="1012.5" y="-84" font-family="Helvetica,sans-Serif" font-size="10.00">Activator.Clone&lt; T &gt;</text>
</a>
</g>
</g>
<!-- Node1&#45;&gt;Node13 -->
<g id="edge12" class="edge">
<title>Node1&#45;&gt;Node13</title>
<path fill="none" stroke="midnightblue" d="M1132.93,-123.38C1112.52,-118.02 1090.3,-112.18 1070.62,-107.01"/>
<polygon fill="midnightblue" stroke="midnightblue" points="1132.22,-126.81 1142.78,-125.97 1133.99,-120.04 1132.22,-126.81"/>
</g>
<!-- Node4 -->
<g id="node4" class="node">
<title>Node4</title>
<g id="a_node4"><a xlink:href="classQuantConnect_1_1Data_1_1BaseData.html#af8622cdfef34470fda9fd08d2f4c02b7" target="_top" xlink:title="Return a new instance clone of this object, used in fill forward">
<polygon fill="white" stroke="black" points="729,-126 729,-156 894,-156 894,-126 729,-126"/>
<text text-anchor="start" x="737" y="-144" font-family="Helvetica,sans-Serif" font-size="10.00">QuantConnect.Data.BaseData.</text>
<text text-anchor="middle" x="811.5" y="-133" font-family="Helvetica,sans-Serif" font-size="10.00">Clone</text>
</a>
</g>
</g>
<!-- Node3&#45;&gt;Node4 -->
<g id="edge3" class="edge">
<title>Node3&#45;&gt;Node4</title>
<path fill="none" stroke="midnightblue" d="M919.96,-141C911.37,-141 902.7,-141 894.21,-141"/>
<polygon fill="midnightblue" stroke="midnightblue" points="919.98,-144.5 929.98,-141 919.98,-137.5 919.98,-144.5"/>
</g>
<!-- Node5 -->
<g id="node5" class="node">
<title>Node5</title>
<g id="a_node5"><a xlink:href="classQuantConnect_1_1Data_1_1Market_1_1TradeBar.html#a5b812a68eb9bbb94a3fb2d3da53843ee" target="_top" xlink:title="Return a new instance clone of this object, used in fill forward">
<polygon fill="white" stroke="black" points="508.5,-230 508.5,-260 660.5,-260 660.5,-230 508.5,-230"/>
<text text-anchor="start" x="516.5" y="-248" font-family="Helvetica,sans-Serif" font-size="10.00">QuantConnect.Data.Market.</text>
<text text-anchor="middle" x="584.5" y="-237" font-family="Helvetica,sans-Serif" font-size="10.00">TradeBar.Clone</text>
</a>
</g>
</g>
<!-- Node4&#45;&gt;Node5 -->
<g id="edge4" class="edge">
<title>Node4&#45;&gt;Node5</title>
<path fill="none" stroke="midnightblue" d="M785.26,-162.39C762.53,-180.58 727.49,-206.06 693,-221 682.82,-225.41 671.74,-229.05 660.68,-232.05"/>
<polygon fill="midnightblue" stroke="midnightblue" points="787.5,-165.08 793.05,-156.06 783.08,-159.65 787.5,-165.08"/>
</g>
<!-- Node6 -->
<g id="node6" class="node">
<title>Node6</title>
<g id="a_node6"><a xlink:href="classQuantConnect_1_1Lean_1_1Engine_1_1DataFeeds_1_1SubscriptionData.html#ad92a6b0d165cc21e6186648e74db9614" target="_top" xlink:title="Clones the data, computes the utc emit time and performs exchange round down behavior,...">
<polygon fill="white" stroke="black" points="489.5,-181 489.5,-211 679.5,-211 679.5,-181 489.5,-181"/>
<text text-anchor="start" x="497.5" y="-199" font-family="Helvetica,sans-Serif" font-size="10.00">QuantConnect.Lean.Engine.</text>
<text text-anchor="middle" x="584.5" y="-188" font-family="Helvetica,sans-Serif" font-size="10.00">DataFeeds.SubscriptionData.Create</text>
</a>
</g>
</g>
<!-- Node4&#45;&gt;Node6 -->
<g id="edge5" class="edge">
<title>Node4&#45;&gt;Node6</title>
<path fill="none" stroke="midnightblue" d="M742.63,-158.59C726.39,-162.73 709.09,-167.08 693,-171 679.5,-174.29 665.03,-177.72 651.21,-180.95"/>
<polygon fill="midnightblue" stroke="midnightblue" points="743.77,-161.91 752.59,-156.05 742.04,-155.13 743.77,-161.91"/>
</g>
<!-- Node10 -->
<g id="node10" class="node">
<title>Node10</title>
<g id="a_node10"><a xlink:href="classQuantConnect_1_1Lean_1_1Engine_1_1DataFeeds_1_1Enumerators_1_1StrictDailyEndTimesEnumerator.html#a3999ce01b214b32d39ed3043d6b0f8e5" target="_top" xlink:title="Move to the next date">
<polygon fill="white" stroke="black" points="490.5,-120.5 490.5,-161.5 678.5,-161.5 678.5,-120.5 490.5,-120.5"/>
<text text-anchor="start" x="498.5" y="-149.5" font-family="Helvetica,sans-Serif" font-size="10.00">QuantConnect.Lean.Engine.</text>
<text text-anchor="start" x="498.5" y="-138.5" font-family="Helvetica,sans-Serif" font-size="10.00">DataFeeds.Enumerators.StrictDaily</text>
<text text-anchor="middle" x="584.5" y="-127.5" font-family="Helvetica,sans-Serif" font-size="10.00">EndTimesEnumerator.MoveNext</text>
</a>
</g>
</g>
<!-- Node4&#45;&gt;Node10 -->
<g id="edge9" class="edge">
<title>Node4&#45;&gt;Node10</title>
<path fill="none" stroke="midnightblue" d="M718.88,-141C705.6,-141 691.91,-141 678.6,-141"/>
<polygon fill="midnightblue" stroke="midnightblue" points="718.95,-144.5 728.95,-141 718.95,-137.5 718.95,-144.5"/>
</g>
<!-- Node11 -->
<g id="node11" class="node">
<title>Node11</title>
<g id="a_node11"><a xlink:href="classQuantConnect_1_1Lean_1_1Engine_1_1DataFeeds_1_1Enumerators_1_1ScheduledEnumerator.html#ad5bf2a02e0b77e83d31bbcf6b840b233" target="_top" xlink:title="Advances the enumerator to the next element of the collection.">
<polygon fill="white" stroke="black" points="491,-60.5 491,-101.5 678,-101.5 678,-60.5 491,-60.5"/>
<text text-anchor="start" x="499" y="-89.5" font-family="Helvetica,sans-Serif" font-size="10.00">QuantConnect.Lean.Engine.</text>
<text text-anchor="start" x="499" y="-78.5" font-family="Helvetica,sans-Serif" font-size="10.00">DataFeeds.Enumerators.Scheduled</text>
<text text-anchor="middle" x="584.5" y="-67.5" font-family="Helvetica,sans-Serif" font-size="10.00">Enumerator.MoveNext</text>
</a>
</g>
</g>
<!-- Node4&#45;&gt;Node11 -->
<g id="edge10" class="edge">
<title>Node4&#45;&gt;Node11</title>
<path fill="none" stroke="midnightblue" d="M744.03,-123.27C718.41,-116.44 688.94,-108.58 662.42,-101.51"/>
<polygon fill="midnightblue" stroke="midnightblue" points="743.45,-126.74 754.01,-125.94 745.25,-119.98 743.45,-126.74"/>
</g>
<!-- Node12 -->
<g id="node12" class="node">
<title>Node12</title>
<g id="a_node12"><a xlink:href="classQuantConnect_1_1Lean_1_1Engine_1_1DataFeeds_1_1Enumerators_1_1LiveSubscriptionEnumerator.html#af4531dceccbb14e47e5df44a2c03c646" target="_top" xlink:title="Advances the enumerator to the next element.">
<polygon fill="white" stroke="black" points="476,-0.5 476,-41.5 693,-41.5 693,-0.5 476,-0.5"/>
<text text-anchor="start" x="484" y="-29.5" font-family="Helvetica,sans-Serif" font-size="10.00">QuantConnect.Lean.Engine.</text>
<text text-anchor="start" x="484" y="-18.5" font-family="Helvetica,sans-Serif" font-size="10.00">DataFeeds.Enumerators.LiveSubscription</text>
<text text-anchor="middle" x="584.5" y="-7.5" font-family="Helvetica,sans-Serif" font-size="10.00">Enumerator.MoveNext</text>
</a>
</g>
</g>
<!-- Node4&#45;&gt;Node12 -->
<g id="edge11" class="edge">
<title>Node4&#45;&gt;Node12</title>
<path fill="none" stroke="midnightblue" d="M787.37,-118.94C764.9,-98.61 728.99,-68.96 693,-51 685.98,-47.5 678.49,-44.35 670.85,-41.54"/>
<polygon fill="midnightblue" stroke="midnightblue" points="785.01,-121.51 794.74,-125.7 789.74,-116.36 785.01,-121.51"/>
</g>
<!-- Node7 -->
<g id="node7" class="node">
<title>Node7</title>
<g id="a_node7"><a xlink:href="classQuantConnect_1_1Lean_1_1Engine_1_1DataFeeds_1_1SubscriptionUtils.html#a1730082b174a831b7b6ae6f090a35cdb" target="_top" xlink:title="Setups a new Subscription which will consume a blocking EnqueueableEnumerator&lt;T&gt; that will be feed by...">
<polygon fill="white" stroke="black" points="247,-205.5 247,-246.5 436,-246.5 436,-205.5 247,-205.5"/>
<text text-anchor="start" x="255" y="-234.5" font-family="Helvetica,sans-Serif" font-size="10.00">QuantConnect.Lean.Engine.</text>
<text text-anchor="start" x="255" y="-223.5" font-family="Helvetica,sans-Serif" font-size="10.00">DataFeeds.SubscriptionUtils.Create</text>
<text text-anchor="middle" x="341.5" y="-212.5" font-family="Helvetica,sans-Serif" font-size="10.00">AndScheduleWorker</text>
</a>
</g>
</g>
<!-- Node6&#45;&gt;Node7 -->
<g id="edge6" class="edge">
<title>Node6&#45;&gt;Node7</title>
<path fill="none" stroke="midnightblue" d="M479,-209.01C464.78,-210.78 450.26,-212.59 436.25,-214.33"/>
<polygon fill="midnightblue" stroke="midnightblue" points="479.8,-212.44 489.29,-207.73 478.93,-205.49 479.8,-212.44"/>
</g>
<!-- Node9 -->
<g id="node9" class="node">
<title>Node9</title>
<g id="a_node9"><a xlink:href="classQuantConnect_1_1Lean_1_1Engine_1_1DataFeeds_1_1Enumerators_1_1SubscriptionDataEnumerator.html#a64fa7fd463f6b3c0575ccaba788a9e79" target="_top" xlink:title="Advances the enumerator to the next element of the collection.">
<polygon fill="white" stroke="black" points="243,-145.5 243,-186.5 440,-186.5 440,-145.5 243,-145.5"/>
<text text-anchor="start" x="251" y="-174.5" font-family="Helvetica,sans-Serif" font-size="10.00">QuantConnect.Lean.Engine.</text>
<text text-anchor="start" x="251" y="-163.5" font-family="Helvetica,sans-Serif" font-size="10.00">DataFeeds.Enumerators.Subscription</text>
<text text-anchor="middle" x="341.5" y="-152.5" font-family="Helvetica,sans-Serif" font-size="10.00">DataEnumerator.MoveNext</text>
</a>
</g>
</g>
<!-- Node6&#45;&gt;Node9 -->
<g id="edge8" class="edge">
<title>Node6&#45;&gt;Node9</title>
<path fill="none" stroke="midnightblue" d="M479.02,-182.99C466.13,-181.39 453,-179.76 440.22,-178.16"/>
<polygon fill="midnightblue" stroke="midnightblue" points="478.93,-186.51 489.29,-184.27 479.8,-179.56 478.93,-186.51"/>
</g>
<!-- Node8 -->
<g id="node8" class="node">
<title>Node8</title>
<g id="a_node8"><a xlink:href="classQuantConnect_1_1Lean_1_1Engine_1_1DataFeeds_1_1FileSystemDataFeed.html#ac148e78fc814fca88c70a1835be51a25" target="_top" xlink:title="Creates a new subscription to provide data for the specified security.">
<polygon fill="white" stroke="black" points="0,-205.5 0,-246.5 207,-246.5 207,-205.5 0,-205.5"/>
<text text-anchor="start" x="8" y="-234.5" font-family="Helvetica,sans-Serif" font-size="10.00">QuantConnect.Lean.Engine.</text>
<text text-anchor="start" x="8" y="-223.5" font-family="Helvetica,sans-Serif" font-size="10.00">DataFeeds.FileSystemDataFeed.Create</text>
<text text-anchor="middle" x="103.5" y="-212.5" font-family="Helvetica,sans-Serif" font-size="10.00">Subscription</text>
</a>
</g>
</g>
<!-- Node7&#45;&gt;Node8 -->
<g id="edge7" class="edge">
<title>Node7&#45;&gt;Node8</title>
<path fill="none" stroke="midnightblue" d="M236.76,-226C226.99,-226 217.09,-226 207.32,-226"/>
<polygon fill="midnightblue" stroke="midnightblue" points="236.89,-229.5 246.89,-226 236.89,-222.5 236.89,-229.5"/>
</g>
</g>
</svg>
