<?xml version="1.0" encoding="UTF-8" standalone="no"?>
<!DOCTYPE svg PUBLIC "-//W3C//DTD SVG 1.1//EN"
 "http://www.w3.org/Graphics/SVG/1.1/DTD/svg11.dtd">
<!-- Generated by graphviz version 2.43.0 (0)
 -->
<!-- Title: QuantConnect.Securities.SecurityHolding.TotalCloseProfit Pages: 1 -->
<svg width="585pt" height="88pt"
 viewBox="0.00 0.00 585.00 88.00" xmlns="http://www.w3.org/2000/svg" xmlns:xlink="http://www.w3.org/1999/xlink">
<g id="graph0" class="graph" transform="scale(1 1) rotate(0) translate(4 84)">
<title>QuantConnect.Securities.SecurityHolding.TotalCloseProfit</title>
<polygon fill="white" stroke="transparent" points="-4,4 -4,-84 581,-84 581,4 -4,4"/>
<!-- Node1 -->
<g id="node1" class="node">
<title>Node1</title>
<g id="a_node1"><a xlink:title="Profit if we closed the holdings right now including the approximate fees in units of the account&#39;s c...">
<polygon fill="#bfbfbf" stroke="black" points="0,-24.5 0,-54.5 173,-54.5 173,-24.5 0,-24.5"/>
<text text-anchor="start" x="8" y="-42.5" font-family="Helvetica,sans-Serif" font-size="10.00">QuantConnect.Securities.</text>
<text text-anchor="middle" x="86.5" y="-31.5" font-family="Helvetica,sans-Serif" font-size="10.00">SecurityHolding.TotalCloseProfit</text>
</a>
</g>
</g>
<!-- Node2 -->
<g id="node2" class="node">
<title>Node2</title>
<g id="a_node2"><a xlink:href="classQuantConnect_1_1Extensions.html#a3a13bce5beb2126e8a5a89b65b46599f" target="_top" xlink:title="Returns the amount of fee&#39;s charged by executing a market order with the given arguments">
<polygon fill="white" stroke="black" points="228,-49.5 228,-79.5 373,-79.5 373,-49.5 228,-49.5"/>
<text text-anchor="start" x="236" y="-67.5" font-family="Helvetica,sans-Serif" font-size="10.00">QuantConnect.Extensions.</text>
<text text-anchor="middle" x="300.5" y="-56.5" font-family="Helvetica,sans-Serif" font-size="10.00">GetMarketOrderFees</text>
</a>
</g>
</g>
<!-- Node1&#45;&gt;Node2 -->
<g id="edge1" class="edge">
<title>Node1&#45;&gt;Node2</title>
<path fill="none" stroke="midnightblue" d="M173.12,-49.6C187.87,-51.34 203.17,-53.14 217.82,-54.87"/>
<polygon fill="midnightblue" stroke="midnightblue" points="217.49,-58.35 227.84,-56.05 218.31,-51.4 217.49,-58.35"/>
</g>
<!-- Node4 -->
<g id="node4" class="node">
<title>Node4</title>
<g id="a_node4"><a xlink:href="classQuantConnect_1_1Securities_1_1SecurityHolding.html#a88902e4d2b5e59fd73934daa215efb0e" target="_top" xlink:title="Gets the total value of the specified quantity &#160;of shares of this security in the account currency">
<polygon fill="white" stroke="black" points="209,-0.5 209,-30.5 392,-30.5 392,-0.5 209,-0.5"/>
<text text-anchor="start" x="217" y="-18.5" font-family="Helvetica,sans-Serif" font-size="10.00">QuantConnect.Securities.</text>
<text text-anchor="middle" x="300.5" y="-7.5" font-family="Helvetica,sans-Serif" font-size="10.00">SecurityHolding.GetQuantityValue</text>
</a>
</g>
</g>
<!-- Node1&#45;&gt;Node4 -->
<g id="edge3" class="edge">
<title>Node1&#45;&gt;Node4</title>
<path fill="none" stroke="midnightblue" d="M173.12,-29.81C181.54,-28.85 190.15,-27.88 198.7,-26.91"/>
<polygon fill="midnightblue" stroke="midnightblue" points="199.17,-30.38 208.72,-25.78 198.39,-23.42 199.17,-30.38"/>
</g>
<!-- Node3 -->
<g id="node3" class="node">
<title>Node3</title>
<g id="a_node3"><a xlink:href="interfaceQuantConnect_1_1Orders_1_1Fees_1_1IFeeModel.html#ab0bf50e204c8c07f1d37fd7680f23e59" target="_top" xlink:title="Gets the order fee associated with the specified order.">
<polygon fill="white" stroke="black" points="428,-49.5 428,-79.5 577,-79.5 577,-49.5 428,-49.5"/>
<text text-anchor="start" x="436" y="-67.5" font-family="Helvetica,sans-Serif" font-size="10.00">QuantConnect.Orders.Fees.</text>
<text text-anchor="middle" x="502.5" y="-56.5" font-family="Helvetica,sans-Serif" font-size="10.00">IFeeModel.GetOrderFee</text>
</a>
</g>
</g>
<!-- Node2&#45;&gt;Node3 -->
<g id="edge2" class="edge">
<title>Node2&#45;&gt;Node3</title>
<path fill="none" stroke="midnightblue" d="M373.14,-64.5C387.53,-64.5 402.77,-64.5 417.54,-64.5"/>
<polygon fill="midnightblue" stroke="midnightblue" points="417.66,-68 427.66,-64.5 417.66,-61 417.66,-68"/>
</g>
</g>
</svg>
