<?xml version="1.0" encoding="UTF-8" standalone="no"?>
<!DOCTYPE svg PUBLIC "-//W3C//DTD SVG 1.1//EN"
 "http://www.w3.org/Graphics/SVG/1.1/DTD/svg11.dtd">
<!-- Generated by graphviz version 2.43.0 (0)
 -->
<!-- Title: QuantConnect.Messages.DefaultBrokerageMessageHandler.BrokerageInfo Pages: 1 -->
<svg width="448pt" height="50pt"
 viewBox="0.00 0.00 448.00 50.00" xmlns="http://www.w3.org/2000/svg" xmlns:xlink="http://www.w3.org/1999/xlink">
<g id="graph0" class="graph" transform="scale(1 1) rotate(0) translate(4 46)">
<title>QuantConnect.Messages.DefaultBrokerageMessageHandler.BrokerageInfo</title>
<polygon fill="white" stroke="transparent" points="-4,4 -4,-46 444,-46 444,4 -4,4"/>
<!-- Node1 -->
<g id="node1" class="node">
<title>Node1</title>
<g id="a_node1"><a xlink:title="Returns a string message with basic information about the given message event">
<polygon fill="#bfbfbf" stroke="black" points="222,-6 222,-36 440,-36 440,-6 222,-6"/>
<text text-anchor="start" x="230" y="-24" font-family="Helvetica,sans-Serif" font-size="10.00">QuantConnect.Messages.Default</text>
<text text-anchor="middle" x="331" y="-13" font-family="Helvetica,sans-Serif" font-size="10.00">BrokerageMessageHandler.BrokerageInfo</text>
</a>
</g>
</g>
<!-- Node2 -->
<g id="node2" class="node">
<title>Node2</title>
<g id="a_node2"><a xlink:href="classQuantConnect_1_1Brokerages_1_1DefaultBrokerageMessageHandler.html#ad83d56fb469c9bd8947030a8fbe70922" target="_top" xlink:title="Handles the message">
<polygon fill="white" stroke="black" points="0,-0.5 0,-41.5 186,-41.5 186,-0.5 0,-0.5"/>
<text text-anchor="start" x="8" y="-29.5" font-family="Helvetica,sans-Serif" font-size="10.00">QuantConnect.Brokerages.</text>
<text text-anchor="start" x="8" y="-18.5" font-family="Helvetica,sans-Serif" font-size="10.00">DefaultBrokerageMessageHandler.</text>
<text text-anchor="middle" x="93" y="-7.5" font-family="Helvetica,sans-Serif" font-size="10.00">HandleMessage</text>
</a>
</g>
</g>
<!-- Node1&#45;&gt;Node2 -->
<g id="edge1" class="edge">
<title>Node1&#45;&gt;Node2</title>
<path fill="none" stroke="midnightblue" d="M211.63,-21C203.07,-21 194.51,-21 186.14,-21"/>
<polygon fill="midnightblue" stroke="midnightblue" points="211.67,-24.5 221.67,-21 211.67,-17.5 211.67,-24.5"/>
</g>
</g>
</svg>
