<?xml version="1.0" encoding="UTF-8" standalone="no"?>
<!DOCTYPE svg PUBLIC "-//W3C//DTD SVG 1.1//EN"
 "http://www.w3.org/Graphics/SVG/1.1/DTD/svg11.dtd">
<!-- Generated by graphviz version 2.43.0 (0)
 -->
<!-- Title: QuantConnect.Data.Common.MarketHourAwareConsolidator.DailyStrictEndTime Pages: 1 -->
<svg width="440pt" height="50pt"
 viewBox="0.00 0.00 440.00 50.00" xmlns="http://www.w3.org/2000/svg" xmlns:xlink="http://www.w3.org/1999/xlink">
<g id="graph0" class="graph" transform="scale(1 1) rotate(0) translate(4 46)">
<title>QuantConnect.Data.Common.MarketHourAwareConsolidator.DailyStrictEndTime</title>
<polygon fill="white" stroke="transparent" points="-4,4 -4,-46 436,-46 436,4 -4,4"/>
<!-- Node1 -->
<g id="node1" class="node">
<title>Node1</title>
<g id="a_node1"><a xlink:title="Determines a bar start time and period">
<polygon fill="#bfbfbf" stroke="black" points="238,-0.5 238,-41.5 432,-41.5 432,-0.5 238,-0.5"/>
<text text-anchor="start" x="246" y="-29.5" font-family="Helvetica,sans-Serif" font-size="10.00">QuantConnect.Data.Common.</text>
<text text-anchor="start" x="246" y="-18.5" font-family="Helvetica,sans-Serif" font-size="10.00">MarketHourAwareConsolidator.Daily</text>
<text text-anchor="middle" x="335" y="-7.5" font-family="Helvetica,sans-Serif" font-size="10.00">StrictEndTime</text>
</a>
</g>
</g>
<!-- Node2 -->
<g id="node2" class="node">
<title>Node2</title>
<g id="a_node2"><a xlink:href="classQuantConnect_1_1Data_1_1Common_1_1MarketHourAwareConsolidator.html#a3781c22982094f1f129715a99de246e5" target="_top" xlink:title="Initializes a new instance of the MarketHourAwareConsolidator class.">
<polygon fill="white" stroke="black" points="0,-0.5 0,-41.5 202,-41.5 202,-0.5 0,-0.5"/>
<text text-anchor="start" x="8" y="-29.5" font-family="Helvetica,sans-Serif" font-size="10.00">QuantConnect.Data.Common.</text>
<text text-anchor="start" x="8" y="-18.5" font-family="Helvetica,sans-Serif" font-size="10.00">MarketHourAwareConsolidator.Market</text>
<text text-anchor="middle" x="101" y="-7.5" font-family="Helvetica,sans-Serif" font-size="10.00">HourAwareConsolidator</text>
</a>
</g>
</g>
<!-- Node1&#45;&gt;Node2 -->
<g id="edge1" class="edge">
<title>Node1&#45;&gt;Node2</title>
<path fill="none" stroke="midnightblue" d="M227.91,-21C219.32,-21 210.64,-21 202.09,-21"/>
<polygon fill="midnightblue" stroke="midnightblue" points="227.96,-24.5 237.96,-21 227.96,-17.5 227.96,-24.5"/>
</g>
</g>
</svg>
