<?xml version="1.0" encoding="UTF-8" standalone="no"?>
<!DOCTYPE svg PUBLIC "-//W3C//DTD SVG 1.1//EN"
 "http://www.w3.org/Graphics/SVG/1.1/DTD/svg11.dtd">
<!-- Generated by graphviz version 2.43.0 (0)
 -->
<!-- Title: QuantConnect.Python.BuyingPowerModelPythonWrapper Pages: 1 -->
<svg width="268pt" height="106pt"
 viewBox="0.00 0.00 267.50 106.00" xmlns="http://www.w3.org/2000/svg" xmlns:xlink="http://www.w3.org/1999/xlink">
<g id="graph0" class="graph" transform="scale(1 1) rotate(0) translate(4 102)">
<title>QuantConnect.Python.BuyingPowerModelPythonWrapper</title>
<polygon fill="white" stroke="transparent" points="-4,4 -4,-102 263.5,-102 263.5,4 -4,4"/>
<!-- Node1 -->
<g id="node1" class="node">
<title>Node1</title>
<g id="a_node1"><a xlink:title="Wraps a PyObject object that represents a security&#39;s model of buying power">
<polygon fill="#bfbfbf" stroke="black" points="53.5,-0.5 53.5,-30.5 212.5,-30.5 212.5,-0.5 53.5,-0.5"/>
<text text-anchor="start" x="61.5" y="-18.5" font-family="Helvetica,sans-Serif" font-size="10.00">QuantConnect.Python.Buying</text>
<text text-anchor="middle" x="133" y="-7.5" font-family="Helvetica,sans-Serif" font-size="10.00">PowerModelPythonWrapper</text>
</a>
</g>
</g>
<!-- Node2 -->
<g id="node2" class="node">
<title>Node2</title>
<g id="a_node2"><a xlink:href="classQuantConnect_1_1Python_1_1BasePythonWrapper.html" target="_top" xlink:title=" ">
<polygon fill="white" stroke="black" points="0,-67.5 0,-97.5 128,-97.5 128,-67.5 0,-67.5"/>
<text text-anchor="start" x="8" y="-85.5" font-family="Helvetica,sans-Serif" font-size="10.00">BasePythonWrapper&lt;</text>
<text text-anchor="middle" x="64" y="-74.5" font-family="Helvetica,sans-Serif" font-size="10.00"> IBuyingPowerModel &gt;</text>
</a>
</g>
</g>
<!-- Node2&#45;&gt;Node1 -->
<g id="edge1" class="edge">
<title>Node2&#45;&gt;Node1</title>
<path fill="none" stroke="midnightblue" d="M86.49,-60.31C96.84,-50.56 108.84,-39.26 118.06,-30.58"/>
<polygon fill="midnightblue" stroke="midnightblue" points="83.85,-57.99 78.97,-67.4 88.65,-63.09 83.85,-57.99"/>
</g>
<!-- Node3 -->
<g id="node3" class="node">
<title>Node3</title>
<g id="a_node3"><a xlink:href="interfaceQuantConnect_1_1Securities_1_1IBuyingPowerModel.html" target="_top" xlink:title="Represents a security&#39;s model of buying power">
<polygon fill="white" stroke="black" points="146.5,-73 146.5,-92 259.5,-92 259.5,-73 146.5,-73"/>
<text text-anchor="middle" x="203" y="-80" font-family="Helvetica,sans-Serif" font-size="10.00">IBuyingPowerModel</text>
</a>
</g>
</g>
<!-- Node3&#45;&gt;Node1 -->
<g id="edge2" class="edge">
<title>Node3&#45;&gt;Node1</title>
<path fill="none" stroke="midnightblue" d="M186.23,-65.93C174.65,-55.18 159.39,-41 148.17,-30.59"/>
<polygon fill="midnightblue" stroke="midnightblue" points="183.85,-68.49 193.56,-72.73 188.61,-63.36 183.85,-68.49"/>
</g>
</g>
</svg>
