<?xml version="1.0" encoding="UTF-8" standalone="no"?>
<!DOCTYPE svg PUBLIC "-//W3C//DTD SVG 1.1//EN"
 "http://www.w3.org/Graphics/SVG/1.1/DTD/svg11.dtd">
<!-- Generated by graphviz version 2.43.0 (0)
 -->
<!-- Title: QuantConnect.Lean.Engine.DataFeeds.Enumerators.SortEnumerator&lt; TKey &gt; Pages: 1 -->
<svg width="252pt" height="106pt"
 viewBox="0.00 0.00 251.50 106.00" xmlns="http://www.w3.org/2000/svg" xmlns:xlink="http://www.w3.org/1999/xlink">
<g id="graph0" class="graph" transform="scale(1 1) rotate(0) translate(4 102)">
<title>QuantConnect.Lean.Engine.DataFeeds.Enumerators.SortEnumerator&lt; TKey &gt;</title>
<polygon fill="white" stroke="transparent" points="-4,4 -4,-102 247.5,-102 247.5,4 -4,4"/>
<!-- Node1 -->
<g id="node1" class="node">
<title>Node1</title>
<g id="a_node1"><a xlink:title="Provides an enumerator for sorting collections of BaseData objects based on a specified property....">
<polygon fill="#bfbfbf" stroke="black" points="30.5,-0.5 30.5,-41.5 243.5,-41.5 243.5,-0.5 30.5,-0.5"/>
<text text-anchor="start" x="38.5" y="-29.5" font-family="Helvetica,sans-Serif" font-size="10.00">QuantConnect.Lean.Engine.</text>
<text text-anchor="start" x="38.5" y="-18.5" font-family="Helvetica,sans-Serif" font-size="10.00">DataFeeds.Enumerators.SortEnumerator</text>
<text text-anchor="middle" x="137" y="-7.5" font-family="Helvetica,sans-Serif" font-size="10.00">&lt; TKey &gt;</text>
</a>
</g>
</g>
<!-- Node2 -->
<g id="node2" class="node">
<title>Node2</title>
<g id="a_node2"><a xlink:title=" ">
<polygon fill="white" stroke="#bfbfbf" points="0,-78.5 0,-97.5 146,-97.5 146,-78.5 0,-78.5"/>
<text text-anchor="middle" x="73" y="-85.5" font-family="Helvetica,sans-Serif" font-size="10.00">IEnumerator&lt; BaseData &gt;</text>
</a>
</g>
</g>
<!-- Node2&#45;&gt;Node1 -->
<g id="edge1" class="edge">
<title>Node2&#45;&gt;Node1</title>
<path fill="none" stroke="midnightblue" d="M88.67,-71.09C97.44,-62.17 108.46,-50.98 117.76,-41.54"/>
<polygon fill="midnightblue" stroke="midnightblue" points="86.15,-68.65 81.63,-78.23 91.14,-73.56 86.15,-68.65"/>
</g>
<!-- Node3 -->
<g id="node3" class="node">
<title>Node3</title>
<g id="a_node3"><a xlink:title=" ">
<polygon fill="white" stroke="#bfbfbf" points="164,-78.5 164,-97.5 238,-97.5 238,-78.5 164,-78.5"/>
<text text-anchor="middle" x="201" y="-85.5" font-family="Helvetica,sans-Serif" font-size="10.00">IDisposable</text>
</a>
</g>
</g>
<!-- Node3&#45;&gt;Node1 -->
<g id="edge2" class="edge">
<title>Node3&#45;&gt;Node1</title>
<path fill="none" stroke="midnightblue" d="M185.33,-71.09C176.56,-62.17 165.54,-50.98 156.24,-41.54"/>
<polygon fill="midnightblue" stroke="midnightblue" points="182.86,-73.56 192.37,-78.23 187.85,-68.65 182.86,-73.56"/>
</g>
</g>
</svg>
