<?xml version="1.0" encoding="UTF-8" standalone="no"?>
<!DOCTYPE svg PUBLIC "-//W3C//DTD SVG 1.1//EN"
 "http://www.w3.org/Graphics/SVG/1.1/DTD/svg11.dtd">
<!-- Generated by graphviz version 2.43.0 (0)
 -->
<!-- Title: QuantConnect.Algorithm.QCAlgorithm.PostInitialize Pages: 1 -->
<svg width="1422pt" height="623pt"
 viewBox="0.00 0.00 1422.00 623.00" xmlns="http://www.w3.org/2000/svg" xmlns:xlink="http://www.w3.org/1999/xlink">
<g id="graph0" class="graph" transform="scale(1 1) rotate(0) translate(4 619)">
<title>QuantConnect.Algorithm.QCAlgorithm.PostInitialize</title>
<polygon fill="white" stroke="transparent" points="-4,4 -4,-619 1418,-619 1418,4 -4,4"/>
<!-- Node1 -->
<g id="node1" class="node">
<title>Node1</title>
<g id="a_node1"><a xlink:title="Called by setup handlers after Initialize and allows the algorithm a chance to organize the data gath...">
<polygon fill="#bfbfbf" stroke="black" points="0,-294.5 0,-324.5 205,-324.5 205,-294.5 0,-294.5"/>
<text text-anchor="start" x="8" y="-312.5" font-family="Helvetica,sans-Serif" font-size="10.00">QuantConnect.Algorithm.QCAlgorithm.</text>
<text text-anchor="middle" x="102.5" y="-301.5" font-family="Helvetica,sans-Serif" font-size="10.00">PostInitialize</text>
</a>
</g>
</g>
<!-- Node2 -->
<g id="node2" class="node">
<title>Node2</title>
<g id="a_node2"><a xlink:href="classQuantConnect_1_1Algorithm_1_1QCAlgorithm.html#a16bd52d937ab647c889e8d5f6577f744" target="_top" xlink:title="Send a debug message to the web console:">
<polygon fill="white" stroke="black" points="503.5,-294.5 503.5,-324.5 708.5,-324.5 708.5,-294.5 503.5,-294.5"/>
<text text-anchor="start" x="511.5" y="-312.5" font-family="Helvetica,sans-Serif" font-size="10.00">QuantConnect.Algorithm.QCAlgorithm.</text>
<text text-anchor="middle" x="606" y="-301.5" font-family="Helvetica,sans-Serif" font-size="10.00">Debug</text>
</a>
</g>
</g>
<!-- Node1&#45;&gt;Node2 -->
<g id="edge1" class="edge">
<title>Node1&#45;&gt;Node2</title>
<path fill="none" stroke="midnightblue" d="M205.29,-309.5C288.87,-309.5 407.09,-309.5 493.28,-309.5"/>
<polygon fill="midnightblue" stroke="midnightblue" points="493.36,-313 503.36,-309.5 493.36,-306 493.36,-313"/>
</g>
<!-- Node3 -->
<g id="node3" class="node">
<title>Node3</title>
<g id="a_node3"><a xlink:href="classQuantConnect_1_1Algorithm_1_1QCAlgorithm.html#a975ad7e9fe2cf71b44d700d56305d0d4" target="_top" xlink:title="Called by setup handlers after Initialize and allows the algorithm a chance to organize the data gath...">
<polygon fill="white" stroke="black" points="247.5,-504.5 247.5,-534.5 452.5,-534.5 452.5,-504.5 247.5,-504.5"/>
<text text-anchor="start" x="255.5" y="-522.5" font-family="Helvetica,sans-Serif" font-size="10.00">QuantConnect.Algorithm.QCAlgorithm.</text>
<text text-anchor="middle" x="350" y="-511.5" font-family="Helvetica,sans-Serif" font-size="10.00">FrameworkPostInitialize</text>
</a>
</g>
</g>
<!-- Node1&#45;&gt;Node3 -->
<g id="edge2" class="edge">
<title>Node1&#45;&gt;Node3</title>
<path fill="none" stroke="midnightblue" d="M113.7,-324.54C134.63,-354.52 185.21,-422.56 241,-465.5 259.06,-479.4 281.26,-491.23 300.82,-500.25"/>
<polygon fill="midnightblue" stroke="midnightblue" points="299.63,-503.55 310.18,-504.44 302.49,-497.16 299.63,-503.55"/>
</g>
<!-- Node7 -->
<g id="node7" class="node">
<title>Node7</title>
<g id="a_node7"><a xlink:href="classQuantConnect_1_1Algorithm_1_1QCAlgorithm.html#a67b117790972c1715ab8b85742d4bfb7" target="_top" xlink:title="Added another method for logging if user guessed.">
<polygon fill="white" stroke="black" points="495,-486 495,-505 717,-505 717,-486 495,-486"/>
<text text-anchor="middle" x="606" y="-493" font-family="Helvetica,sans-Serif" font-size="10.00">QuantConnect.Algorithm.QCAlgorithm.Log</text>
</a>
</g>
</g>
<!-- Node1&#45;&gt;Node7 -->
<g id="edge21" class="edge">
<title>Node1&#45;&gt;Node7</title>
<path fill="none" stroke="midnightblue" d="M128.49,-324.52C155.58,-340.44 200.41,-365.69 241,-383.5 350.4,-431.52 379.99,-439.15 495,-471.5 511.21,-476.06 528.96,-480.27 545.38,-483.84"/>
<polygon fill="midnightblue" stroke="midnightblue" points="544.9,-487.32 555.41,-485.99 546.36,-480.47 544.9,-487.32"/>
</g>
<!-- Node8 -->
<g id="node8" class="node">
<title>Node8</title>
<g id="a_node8"><a xlink:href="classQuantConnect_1_1Securities_1_1MarketHoursDatabase.html#a92534128098fef25ab73e8d2faf58793" target="_top" xlink:title="Performs a lookup using the specified information and returns the data&#39;s time zone if found,...">
<polygon fill="white" stroke="black" points="241,-343.5 241,-373.5 459,-373.5 459,-343.5 241,-343.5"/>
<text text-anchor="start" x="249" y="-361.5" font-family="Helvetica,sans-Serif" font-size="10.00">QuantConnect.Securities.</text>
<text text-anchor="middle" x="350" y="-350.5" font-family="Helvetica,sans-Serif" font-size="10.00">MarketHoursDatabase.GetDataTimeZone</text>
</a>
</g>
</g>
<!-- Node1&#45;&gt;Node8 -->
<g id="edge7" class="edge">
<title>Node1&#45;&gt;Node8</title>
<path fill="none" stroke="midnightblue" d="M178.83,-324.53C205.69,-329.9 236.14,-335.97 263.77,-341.49"/>
<polygon fill="midnightblue" stroke="midnightblue" points="263.32,-344.97 273.82,-343.49 264.69,-338.1 263.32,-344.97"/>
</g>
<!-- Node21 -->
<g id="node21" class="node">
<title>Node21</title>
<g id="a_node21"><a xlink:href="classQuantConnect_1_1Algorithm_1_1QCAlgorithm.html#a726d08cd0cd7a6f1b7ce9a912d7d89b1" target="_top" xlink:title="Invoked at the end of every time step. This allows the algorithm to process events before advancing t...">
<polygon fill="white" stroke="black" points="247.5,-196.5 247.5,-226.5 452.5,-226.5 452.5,-196.5 247.5,-196.5"/>
<text text-anchor="start" x="255.5" y="-214.5" font-family="Helvetica,sans-Serif" font-size="10.00">QuantConnect.Algorithm.QCAlgorithm.</text>
<text text-anchor="middle" x="350" y="-203.5" font-family="Helvetica,sans-Serif" font-size="10.00">OnEndOfTimeStep</text>
</a>
</g>
</g>
<!-- Node1&#45;&gt;Node21 -->
<g id="edge22" class="edge">
<title>Node1&#45;&gt;Node21</title>
<path fill="none" stroke="midnightblue" d="M141.32,-294.4C184.48,-277.17 255.12,-248.98 301.84,-230.33"/>
<polygon fill="midnightblue" stroke="midnightblue" points="303.15,-233.57 311.14,-226.61 300.55,-227.07 303.15,-233.57"/>
</g>
<!-- Node28 -->
<g id="node28" class="node">
<title>Node28</title>
<g id="a_node28"><a xlink:href="classQuantConnect_1_1Algorithm_1_1QCAlgorithm.html#aba2db914b00bbdc25368ee154f931fc0" target="_top" xlink:title="Update the internal algorithm time frontier.">
<polygon fill="white" stroke="black" points="247.5,-27.5 247.5,-57.5 452.5,-57.5 452.5,-27.5 247.5,-27.5"/>
<text text-anchor="start" x="255.5" y="-45.5" font-family="Helvetica,sans-Serif" font-size="10.00">QuantConnect.Algorithm.QCAlgorithm.</text>
<text text-anchor="middle" x="350" y="-34.5" font-family="Helvetica,sans-Serif" font-size="10.00">SetDateTime</text>
</a>
</g>
</g>
<!-- Node1&#45;&gt;Node28 -->
<g id="edge30" class="edge">
<title>Node1&#45;&gt;Node28</title>
<path fill="none" stroke="midnightblue" d="M112.98,-294.21C133.75,-261.39 185.83,-182.6 241,-126.5 264.63,-102.47 295.24,-79.28 317.83,-63.37"/>
<polygon fill="midnightblue" stroke="midnightblue" points="319.86,-66.23 326.07,-57.65 315.86,-60.48 319.86,-66.23"/>
</g>
<!-- Node29 -->
<g id="node29" class="node">
<title>Node29</title>
<g id="a_node29"><a xlink:href="classQuantConnect_1_1Algorithm_1_1QCAlgorithm.html#a241dc95c0b1bc8926c4fde785c30c29d" target="_top" xlink:title="Sets IAlgorithm.IsWarmingUp to false to indicate this algorithm has finished its warm up">
<polygon fill="white" stroke="black" points="503.5,-0.5 503.5,-30.5 708.5,-30.5 708.5,-0.5 503.5,-0.5"/>
<text text-anchor="start" x="511.5" y="-18.5" font-family="Helvetica,sans-Serif" font-size="10.00">QuantConnect.Algorithm.QCAlgorithm.</text>
<text text-anchor="middle" x="606" y="-7.5" font-family="Helvetica,sans-Serif" font-size="10.00">SetFinishedWarmingUp</text>
</a>
</g>
</g>
<!-- Node1&#45;&gt;Node29 -->
<g id="edge32" class="edge">
<title>Node1&#45;&gt;Node29</title>
<path fill="none" stroke="midnightblue" d="M118.23,-294.41C142.43,-270.09 192.76,-221.54 241,-187.5 331.37,-123.74 366.09,-127.49 459,-67.5 475.8,-56.65 476.85,-48.9 495,-40.5 500.35,-38.02 505.97,-35.78 511.71,-33.76"/>
<polygon fill="midnightblue" stroke="midnightblue" points="513.06,-37 521.46,-30.55 510.87,-30.35 513.06,-37"/>
</g>
<!-- Node4 -->
<g id="node4" class="node">
<title>Node4</title>
<g id="a_node4"><a xlink:href="classQuantConnect_1_1Algorithm_1_1QCAlgorithm.html#aeac560d821c1d05c6af8864ec7075a72" target="_top" xlink:title="Creates a new universe and adds it to the algorithm. This is for coarse fundamental US Equity data an...">
<polygon fill="white" stroke="black" points="503.5,-584.5 503.5,-614.5 708.5,-614.5 708.5,-584.5 503.5,-584.5"/>
<text text-anchor="start" x="511.5" y="-602.5" font-family="Helvetica,sans-Serif" font-size="10.00">QuantConnect.Algorithm.QCAlgorithm.</text>
<text text-anchor="middle" x="606" y="-591.5" font-family="Helvetica,sans-Serif" font-size="10.00">AddUniverse</text>
</a>
</g>
</g>
<!-- Node3&#45;&gt;Node4 -->
<g id="edge3" class="edge">
<title>Node3&#45;&gt;Node4</title>
<path fill="none" stroke="midnightblue" d="M386.32,-534.6C415.17,-546.54 457.22,-563.06 495,-574.5 503.74,-577.15 512.95,-579.66 522.16,-582"/>
<polygon fill="midnightblue" stroke="midnightblue" points="521.59,-585.46 532.14,-584.47 523.27,-578.67 521.59,-585.46"/>
</g>
<!-- Node6 -->
<g id="node6" class="node">
<title>Node6</title>
<g id="a_node6"><a xlink:href="interfaceQuantConnect_1_1Algorithm_1_1Framework_1_1Selection_1_1IUniverseSelectionModel.html#a06a427bb2e736a7ff364c978f2694246" target="_top" xlink:title="Creates the universes for this algorithm. Called once after IAlgorithm.Initialize">
<polygon fill="white" stroke="black" points="495.5,-524 495.5,-565 716.5,-565 716.5,-524 495.5,-524"/>
<text text-anchor="start" x="503.5" y="-553" font-family="Helvetica,sans-Serif" font-size="10.00">QuantConnect.Algorithm.Framework.</text>
<text text-anchor="start" x="503.5" y="-542" font-family="Helvetica,sans-Serif" font-size="10.00">Selection.IUniverseSelectionModel.Create</text>
<text text-anchor="middle" x="606" y="-531" font-family="Helvetica,sans-Serif" font-size="10.00">Universes</text>
</a>
</g>
</g>
<!-- Node3&#45;&gt;Node6 -->
<g id="edge5" class="edge">
<title>Node3&#45;&gt;Node6</title>
<path fill="none" stroke="midnightblue" d="M452.85,-529.52C463.41,-530.56 474.22,-531.63 484.96,-532.68"/>
<polygon fill="midnightblue" stroke="midnightblue" points="484.93,-536.2 495.22,-533.7 485.61,-529.23 484.93,-536.2"/>
</g>
<!-- Node3&#45;&gt;Node7 -->
<g id="edge6" class="edge">
<title>Node3&#45;&gt;Node7</title>
<path fill="none" stroke="midnightblue" d="M452.85,-509.88C466.51,-508.59 480.57,-507.26 494.38,-505.95"/>
<polygon fill="midnightblue" stroke="midnightblue" points="494.74,-509.43 504.37,-505.01 494.09,-502.46 494.74,-509.43"/>
</g>
<!-- Node5 -->
<g id="node5" class="node">
<title>Node5</title>
<g id="a_node5"><a xlink:href="classQuantConnect_1_1Data_1_1Fundamental_1_1FundamentalUniverse.html#a311287571a6bdb1fdbdb0a9abe5b3aa8" target="_top" xlink:title="Creates a new fundamental universe for the USA market">
<polygon fill="white" stroke="black" points="770.5,-584.5 770.5,-614.5 952.5,-614.5 952.5,-584.5 770.5,-584.5"/>
<text text-anchor="start" x="778.5" y="-602.5" font-family="Helvetica,sans-Serif" font-size="10.00">QuantConnect.Data.Fundamental.</text>
<text text-anchor="middle" x="861.5" y="-591.5" font-family="Helvetica,sans-Serif" font-size="10.00">FundamentalUniverse.USA</text>
</a>
</g>
</g>
<!-- Node4&#45;&gt;Node5 -->
<g id="edge4" class="edge">
<title>Node4&#45;&gt;Node5</title>
<path fill="none" stroke="midnightblue" d="M708.65,-599.5C725.53,-599.5 743.03,-599.5 759.89,-599.5"/>
<polygon fill="midnightblue" stroke="midnightblue" points="760.29,-603 770.29,-599.5 760.29,-596 760.29,-603"/>
</g>
<!-- Node9 -->
<g id="node9" class="node">
<title>Node9</title>
<g id="a_node9"><a xlink:href="classQuantConnect_1_1Securities_1_1MarketHoursDatabase.html#aa717adb9bb04be931913608ffd5a2733" target="_top" xlink:title="Gets the correct string symbol to use as a database key">
<polygon fill="white" stroke="black" points="1006,-415 1006,-456 1198,-456 1198,-415 1006,-415"/>
<text text-anchor="start" x="1014" y="-444" font-family="Helvetica,sans-Serif" font-size="10.00">QuantConnect.Securities.</text>
<text text-anchor="start" x="1014" y="-433" font-family="Helvetica,sans-Serif" font-size="10.00">MarketHoursDatabase.GetDatabase</text>
<text text-anchor="middle" x="1102" y="-422" font-family="Helvetica,sans-Serif" font-size="10.00">SymbolKey</text>
</a>
</g>
</g>
<!-- Node8&#45;&gt;Node9 -->
<g id="edge8" class="edge">
<title>Node8&#45;&gt;Node9</title>
<path fill="none" stroke="midnightblue" d="M428.59,-373.53C438.82,-375.53 449.16,-377.56 459,-379.5 589.74,-405.33 620.38,-425.32 753,-438.5 848.97,-448.03 873.56,-439.6 970,-438.5 978.34,-438.4 986.97,-438.27 995.65,-438.12"/>
<polygon fill="midnightblue" stroke="midnightblue" points="995.91,-441.62 1005.84,-437.93 995.78,-434.62 995.91,-441.62"/>
</g>
<!-- Node10 -->
<g id="node10" class="node">
<title>Node10</title>
<g id="a_node10"><a xlink:href="classQuantConnect_1_1Securities_1_1MarketHoursDatabase.html#aeac6cf20dbffdbafd258f0d5f4473713" target="_top" xlink:title="Gets the entry for the specified market/symbol/security&#45;type">
<polygon fill="white" stroke="black" points="520.5,-343.5 520.5,-373.5 691.5,-373.5 691.5,-343.5 520.5,-343.5"/>
<text text-anchor="start" x="528.5" y="-361.5" font-family="Helvetica,sans-Serif" font-size="10.00">QuantConnect.Securities.</text>
<text text-anchor="middle" x="606" y="-350.5" font-family="Helvetica,sans-Serif" font-size="10.00">MarketHoursDatabase.GetEntry</text>
</a>
</g>
</g>
<!-- Node8&#45;&gt;Node10 -->
<g id="edge9" class="edge">
<title>Node8&#45;&gt;Node10</title>
<path fill="none" stroke="midnightblue" d="M459.09,-358.5C476.08,-358.5 493.54,-358.5 510.21,-358.5"/>
<polygon fill="midnightblue" stroke="midnightblue" points="510.47,-362 520.47,-358.5 510.47,-355 510.47,-362"/>
</g>
<!-- Node11 -->
<g id="node11" class="node">
<title>Node11</title>
<g id="a_node11"><a xlink:href="classQuantConnect_1_1Logging_1_1Log.html#af0e7955911bc7664b37661b2a303a9e3" target="_top" xlink:title="Log error">
<polygon fill="white" stroke="black" points="786.5,-228.5 786.5,-258.5 936.5,-258.5 936.5,-228.5 786.5,-228.5"/>
<text text-anchor="start" x="794.5" y="-246.5" font-family="Helvetica,sans-Serif" font-size="10.00">QuantConnect.Logging.Log.</text>
<text text-anchor="middle" x="861.5" y="-235.5" font-family="Helvetica,sans-Serif" font-size="10.00">Error</text>
</a>
</g>
</g>
<!-- Node10&#45;&gt;Node11 -->
<g id="edge10" class="edge">
<title>Node10&#45;&gt;Node11</title>
<path fill="none" stroke="midnightblue" d="M691.7,-347.96C700.75,-344.58 709.41,-340.19 717,-334.5 743.74,-314.46 726.4,-288.72 753,-268.5 760.09,-263.11 768.16,-258.85 776.6,-255.49"/>
<polygon fill="midnightblue" stroke="midnightblue" points="778.01,-258.71 786.27,-252.07 775.68,-252.11 778.01,-258.71"/>
</g>
<!-- Node13 -->
<g id="node13" class="node">
<title>Node13</title>
<g id="a_node13"><a xlink:href="classQuantConnect_1_1Messages_1_1MarketHoursDatabase.html#af07138844a7ebc1a342f8b56a6be9917" target="_top" xlink:title="Returns a string message saying it was impossible to locate exchange hours for the given key....">
<polygon fill="white" stroke="black" points="753,-179.5 753,-209.5 970,-209.5 970,-179.5 753,-179.5"/>
<text text-anchor="start" x="761" y="-197.5" font-family="Helvetica,sans-Serif" font-size="10.00">QuantConnect.Messages.Market</text>
<text text-anchor="middle" x="861.5" y="-186.5" font-family="Helvetica,sans-Serif" font-size="10.00">HoursDatabase.ExchangeHoursNotFound</text>
</a>
</g>
</g>
<!-- Node10&#45;&gt;Node13 -->
<g id="edge12" class="edge">
<title>Node10&#45;&gt;Node13</title>
<path fill="none" stroke="midnightblue" d="M691.77,-349.82C701.03,-346.13 709.72,-341.16 717,-334.5 756.51,-298.34 713.74,-255.93 753,-219.5 754.68,-217.94 756.44,-216.47 758.27,-215.08"/>
<polygon fill="midnightblue" stroke="midnightblue" points="760.25,-217.97 766.68,-209.55 756.41,-212.12 760.25,-217.97"/>
</g>
<!-- Node14 -->
<g id="node14" class="node">
<title>Node14</title>
<g id="a_node14"><a xlink:href="classQuantConnect_1_1Securities_1_1SymbolPropertiesDatabase.html#aee26fb588793fd311c44eb8b2909cc33" target="_top" xlink:title="Gets the instance of the SymbolPropertiesDatabase class produced by reading in the symbol properties ...">
<polygon fill="white" stroke="black" points="773,-119 773,-160 950,-160 950,-119 773,-119"/>
<text text-anchor="start" x="781" y="-148" font-family="Helvetica,sans-Serif" font-size="10.00">QuantConnect.Securities.</text>
<text text-anchor="start" x="781" y="-137" font-family="Helvetica,sans-Serif" font-size="10.00">SymbolPropertiesDatabase.From</text>
<text text-anchor="middle" x="861.5" y="-126" font-family="Helvetica,sans-Serif" font-size="10.00">DataFolder</text>
</a>
</g>
</g>
<!-- Node10&#45;&gt;Node14 -->
<g id="edge13" class="edge">
<title>Node10&#45;&gt;Node14</title>
<path fill="none" stroke="midnightblue" d="M691.53,-350.75C701,-346.94 709.81,-341.68 717,-334.5 769.8,-281.77 701.97,-224.95 753,-170.5 756.39,-166.88 760.18,-163.68 764.24,-160.84"/>
<polygon fill="midnightblue" stroke="midnightblue" points="766.24,-163.72 772.94,-155.51 762.59,-157.75 766.24,-163.72"/>
</g>
<!-- Node18 -->
<g id="node18" class="node">
<title>Node18</title>
<g id="a_node18"><a xlink:href="classQuantConnect_1_1Messages_1_1MarketHoursDatabase.html#a656d4c4976d6c12d2d865ad34fb23c42" target="_top" xlink:title="Returns a string message that suggests the given market based on the provided ticker">
<polygon fill="white" stroke="black" points="757,-338 757,-379 966,-379 966,-338 757,-338"/>
<text text-anchor="start" x="765" y="-367" font-family="Helvetica,sans-Serif" font-size="10.00">QuantConnect.Messages.Market</text>
<text text-anchor="start" x="765" y="-356" font-family="Helvetica,sans-Serif" font-size="10.00">HoursDatabase.SuggestedMarketBased</text>
<text text-anchor="middle" x="861.5" y="-345" font-family="Helvetica,sans-Serif" font-size="10.00">OnTicker</text>
</a>
</g>
</g>
<!-- Node10&#45;&gt;Node18 -->
<g id="edge17" class="edge">
<title>Node10&#45;&gt;Node18</title>
<path fill="none" stroke="midnightblue" d="M691.76,-358.5C709.37,-358.5 728.2,-358.5 746.66,-358.5"/>
<polygon fill="midnightblue" stroke="midnightblue" points="746.87,-362 756.87,-358.5 746.87,-355 746.87,-362"/>
</g>
<!-- Node19 -->
<g id="node19" class="node">
<title>Node19</title>
<g id="a_node19"><a xlink:href="classQuantConnect_1_1Securities_1_1MarketHoursDatabase.html#a3eedd1459368e8f50da2cedfc7508006" target="_top" xlink:title="Tries to get the entry for the specified market/symbol/security&#45;type">
<polygon fill="white" stroke="black" points="769,-398.5 769,-428.5 954,-428.5 954,-398.5 769,-398.5"/>
<text text-anchor="start" x="777" y="-416.5" font-family="Helvetica,sans-Serif" font-size="10.00">QuantConnect.Securities.</text>
<text text-anchor="middle" x="861.5" y="-405.5" font-family="Helvetica,sans-Serif" font-size="10.00">MarketHoursDatabase.TryGetEntry</text>
</a>
</g>
</g>
<!-- Node10&#45;&gt;Node19 -->
<g id="edge18" class="edge">
<title>Node10&#45;&gt;Node19</title>
<path fill="none" stroke="midnightblue" d="M676.27,-373.53C708.83,-380.59 747.8,-389.05 781.5,-396.36"/>
<polygon fill="midnightblue" stroke="midnightblue" points="780.8,-399.79 791.31,-398.49 782.28,-392.95 780.8,-399.79"/>
</g>
<!-- Node20 -->
<g id="node20" class="node">
<title>Node20</title>
<g id="a_node20"><a xlink:href="classQuantConnect_1_1Securities_1_1SymbolPropertiesDatabase.html#a5a7baeddd03bfc7fb60cef8ab2e6834b" target="_top" xlink:title="Tries to get the market for the provided symbol/security type">
<polygon fill="white" stroke="black" points="778,-278 778,-319 945,-319 945,-278 778,-278"/>
<text text-anchor="start" x="786" y="-307" font-family="Helvetica,sans-Serif" font-size="10.00">QuantConnect.Securities.</text>
<text text-anchor="start" x="786" y="-296" font-family="Helvetica,sans-Serif" font-size="10.00">SymbolPropertiesDatabase.Try</text>
<text text-anchor="middle" x="861.5" y="-285" font-family="Helvetica,sans-Serif" font-size="10.00">GetMarket</text>
</a>
</g>
</g>
<!-- Node10&#45;&gt;Node20 -->
<g id="edge20" class="edge">
<title>Node10&#45;&gt;Node20</title>
<path fill="none" stroke="midnightblue" d="M677.49,-343.46C690.64,-340.56 704.25,-337.49 717,-334.5 734.41,-330.42 752.96,-325.9 770.74,-321.47"/>
<polygon fill="midnightblue" stroke="midnightblue" points="771.68,-324.85 780.53,-319.03 769.98,-318.05 771.68,-324.85"/>
</g>
<!-- Node12 -->
<g id="node12" class="node">
<title>Node12</title>
<g id="a_node12"><a xlink:href="interfaceQuantConnect_1_1Logging_1_1ILogHandler.html#a35373a0c5d76031fa5ccf5dc39e5c25d" target="_top" xlink:title="Write error message to log">
<polygon fill="white" stroke="black" points="1027,-228.5 1027,-258.5 1177,-258.5 1177,-228.5 1027,-228.5"/>
<text text-anchor="start" x="1035" y="-246.5" font-family="Helvetica,sans-Serif" font-size="10.00">QuantConnect.Logging.ILog</text>
<text text-anchor="middle" x="1102" y="-235.5" font-family="Helvetica,sans-Serif" font-size="10.00">Handler.Error</text>
</a>
</g>
</g>
<!-- Node11&#45;&gt;Node12 -->
<g id="edge11" class="edge">
<title>Node11&#45;&gt;Node12</title>
<path fill="none" stroke="midnightblue" d="M936.66,-243.5C962.01,-243.5 990.55,-243.5 1016.64,-243.5"/>
<polygon fill="midnightblue" stroke="midnightblue" points="1016.89,-247 1026.89,-243.5 1016.89,-240 1016.89,-247"/>
</g>
<!-- Node15 -->
<g id="node15" class="node">
<title>Node15</title>
<g id="a_node15"><a xlink:href="classQuantConnect_1_1Globals.html#ae01b5c94ef475a21ab1a62fe1b04ea5c" target="_top" xlink:title="Helper method that will build a data folder path checking if it exists on the cache folder else will ...">
<polygon fill="white" stroke="black" points="1029,-151.5 1029,-181.5 1175,-181.5 1175,-151.5 1029,-151.5"/>
<text text-anchor="start" x="1037" y="-169.5" font-family="Helvetica,sans-Serif" font-size="10.00">QuantConnect.Globals.Get</text>
<text text-anchor="middle" x="1102" y="-158.5" font-family="Helvetica,sans-Serif" font-size="10.00">DataFolderPath</text>
</a>
</g>
</g>
<!-- Node14&#45;&gt;Node15 -->
<g id="edge14" class="edge">
<title>Node14&#45;&gt;Node15</title>
<path fill="none" stroke="midnightblue" d="M950.29,-149.44C972.64,-151.97 996.57,-154.68 1018.63,-157.18"/>
<polygon fill="midnightblue" stroke="midnightblue" points="1018.3,-160.66 1028.63,-158.31 1019.08,-153.7 1018.3,-160.66"/>
</g>
<!-- Node16 -->
<g id="node16" class="node">
<title>Node16</title>
<g id="a_node16"><a xlink:href="classQuantConnect_1_1Securities_1_1SymbolPropertiesDatabase.html#a1658f93bf0dce7022bb7584e1a95cc7a" target="_top" xlink:title="Initialize a new instance of SymbolPropertiesDatabase using the given file">
<polygon fill="white" stroke="black" points="1007.5,-91 1007.5,-132 1196.5,-132 1196.5,-91 1007.5,-91"/>
<text text-anchor="start" x="1015.5" y="-120" font-family="Helvetica,sans-Serif" font-size="10.00">QuantConnect.Securities.</text>
<text text-anchor="start" x="1015.5" y="-109" font-family="Helvetica,sans-Serif" font-size="10.00">SymbolPropertiesDatabase.Symbol</text>
<text text-anchor="middle" x="1102" y="-98" font-family="Helvetica,sans-Serif" font-size="10.00">PropertiesDatabase</text>
</a>
</g>
</g>
<!-- Node14&#45;&gt;Node16 -->
<g id="edge15" class="edge">
<title>Node14&#45;&gt;Node16</title>
<path fill="none" stroke="midnightblue" d="M950.29,-129.19C965.55,-127.4 981.54,-125.52 997.17,-123.69"/>
<polygon fill="midnightblue" stroke="midnightblue" points="997.86,-127.13 1007.38,-122.49 997.04,-120.18 997.86,-127.13"/>
</g>
<!-- Node17 -->
<g id="node17" class="node">
<title>Node17</title>
<g id="a_node17"><a xlink:href="classQuantConnect_1_1Messages_1_1SymbolPropertiesDatabase.html#a6abceae517a349a28223bfc2dc9106d7" target="_top" xlink:title="Returns a string saying a duplicated key was found while processing the given file">
<polygon fill="white" stroke="black" points="1234,-91 1234,-132 1414,-132 1414,-91 1234,-91"/>
<text text-anchor="start" x="1242" y="-120" font-family="Helvetica,sans-Serif" font-size="10.00">QuantConnect.Messages.Symbol</text>
<text text-anchor="start" x="1242" y="-109" font-family="Helvetica,sans-Serif" font-size="10.00">PropertiesDatabase.DuplicateKey</text>
<text text-anchor="middle" x="1324" y="-98" font-family="Helvetica,sans-Serif" font-size="10.00">InFile</text>
</a>
</g>
</g>
<!-- Node16&#45;&gt;Node17 -->
<g id="edge16" class="edge">
<title>Node16&#45;&gt;Node17</title>
<path fill="none" stroke="midnightblue" d="M1196.62,-111.5C1205.54,-111.5 1214.61,-111.5 1223.58,-111.5"/>
<polygon fill="midnightblue" stroke="midnightblue" points="1223.66,-115 1233.66,-111.5 1223.66,-108 1223.66,-115"/>
</g>
<!-- Node19&#45;&gt;Node9 -->
<g id="edge19" class="edge">
<title>Node19&#45;&gt;Node9</title>
<path fill="none" stroke="midnightblue" d="M954.03,-421.94C967.66,-423.2 981.81,-424.51 995.7,-425.79"/>
<polygon fill="midnightblue" stroke="midnightblue" points="995.48,-429.28 1005.76,-426.72 996.13,-422.31 995.48,-429.28"/>
</g>
<!-- Node21&#45;&gt;Node2 -->
<g id="edge24" class="edge">
<title>Node21&#45;&gt;Node2</title>
<path fill="none" stroke="midnightblue" d="M375.34,-226.51C403.29,-243.14 450.95,-269.68 495,-285.5 501.3,-287.76 507.89,-289.85 514.57,-291.77"/>
<polygon fill="midnightblue" stroke="midnightblue" points="513.84,-295.2 524.41,-294.46 515.68,-288.45 513.84,-295.2"/>
</g>
<!-- Node22 -->
<g id="node22" class="node">
<title>Node22</title>
<g id="a_node22"><a xlink:href="classQuantConnect_1_1Algorithm_1_1QCAlgorithm.html#a101da8582e6819d82780f37a3b3162e0" target="_top" xlink:title="Add specified data to our data subscriptions. QuantConnect will funnel this data to the handle data r...">
<polygon fill="white" stroke="black" points="503.5,-147.5 503.5,-177.5 708.5,-177.5 708.5,-147.5 503.5,-147.5"/>
<text text-anchor="start" x="511.5" y="-165.5" font-family="Helvetica,sans-Serif" font-size="10.00">QuantConnect.Algorithm.QCAlgorithm.</text>
<text text-anchor="middle" x="606" y="-154.5" font-family="Helvetica,sans-Serif" font-size="10.00">AddSecurity</text>
</a>
</g>
</g>
<!-- Node21&#45;&gt;Node22 -->
<g id="edge23" class="edge">
<title>Node21&#45;&gt;Node22</title>
<path fill="none" stroke="midnightblue" d="M428.93,-196.47C456.85,-191.08 488.5,-184.97 517.2,-179.44"/>
<polygon fill="midnightblue" stroke="midnightblue" points="518.06,-182.84 527.21,-177.51 516.73,-175.96 518.06,-182.84"/>
</g>
<!-- Node23 -->
<g id="node23" class="node">
<title>Node23</title>
<g id="a_node23"><a xlink:href="classQuantConnect_1_1Algorithm_1_1QCAlgorithm.html#a446a10e68319fdc3c0b2ed85d80f55f8" target="_top" xlink:title="Get the history for all configured securities over the requested span. This will use the resolution a...">
<polygon fill="white" stroke="black" points="503.5,-98.5 503.5,-128.5 708.5,-128.5 708.5,-98.5 503.5,-98.5"/>
<text text-anchor="start" x="511.5" y="-116.5" font-family="Helvetica,sans-Serif" font-size="10.00">QuantConnect.Algorithm.QCAlgorithm.</text>
<text text-anchor="middle" x="606" y="-105.5" font-family="Helvetica,sans-Serif" font-size="10.00">History</text>
</a>
</g>
</g>
<!-- Node21&#45;&gt;Node23 -->
<g id="edge25" class="edge">
<title>Node21&#45;&gt;Node23</title>
<path fill="none" stroke="midnightblue" d="M378.8,-196.38C413.78,-177.53 472.06,-146.78 495,-138.5 502.32,-135.86 510.01,-133.44 517.79,-131.23"/>
<polygon fill="midnightblue" stroke="midnightblue" points="518.94,-134.54 527.67,-128.54 517.1,-127.79 518.94,-134.54"/>
</g>
<!-- Node24 -->
<g id="node24" class="node">
<title>Node24</title>
<g id="a_node24"><a xlink:href="classQuantConnect_1_1Securities_1_1UniverseManager.html#abe6979bdb54d3053fff0552cff794b45" target="_top" xlink:title="Will trigger collection changed event if required">
<polygon fill="white" stroke="black" points="513.5,-49.5 513.5,-79.5 698.5,-79.5 698.5,-49.5 513.5,-49.5"/>
<text text-anchor="start" x="521.5" y="-67.5" font-family="Helvetica,sans-Serif" font-size="10.00">QuantConnect.Securities.</text>
<text text-anchor="middle" x="606" y="-56.5" font-family="Helvetica,sans-Serif" font-size="10.00">UniverseManager.ProcessChanges</text>
</a>
</g>
</g>
<!-- Node21&#45;&gt;Node24 -->
<g id="edge26" class="edge">
<title>Node21&#45;&gt;Node24</title>
<path fill="none" stroke="midnightblue" d="M392.29,-196.46C414.09,-186.96 440.15,-172.98 459,-154.5 482.59,-131.39 468.6,-109.33 495,-89.5 497.99,-87.25 501.16,-85.2 504.44,-83.32"/>
<polygon fill="midnightblue" stroke="midnightblue" points="506.07,-86.42 513.4,-78.77 502.9,-80.18 506.07,-86.42"/>
</g>
<!-- Node26 -->
<g id="node26" class="node">
<title>Node26</title>
<g id="a_node26"><a xlink:href="classQuantConnect_1_1Securities_1_1UniverseManager.html#af60ce15a9fe3719dcca8f1cf5d346a2a" target="_top" xlink:title="Gets the value associated with the specified key.">
<polygon fill="white" stroke="black" points="524,-245.5 524,-275.5 688,-275.5 688,-245.5 524,-245.5"/>
<text text-anchor="start" x="532" y="-263.5" font-family="Helvetica,sans-Serif" font-size="10.00">QuantConnect.Securities.</text>
<text text-anchor="middle" x="606" y="-252.5" font-family="Helvetica,sans-Serif" font-size="10.00">UniverseManager.TryGetValue</text>
</a>
</g>
</g>
<!-- Node21&#45;&gt;Node26 -->
<g id="edge28" class="edge">
<title>Node21&#45;&gt;Node26</title>
<path fill="none" stroke="midnightblue" d="M428.93,-226.53C456.85,-231.92 488.5,-238.03 517.2,-243.56"/>
<polygon fill="midnightblue" stroke="midnightblue" points="516.73,-247.04 527.21,-245.49 518.06,-240.16 516.73,-247.04"/>
</g>
<!-- Node27 -->
<g id="node27" class="node">
<title>Node27</title>
<g id="a_node27"><a xlink:href="classQuantConnect_1_1Securities_1_1SecurityManager.html#af3ad97e370ceec706ac1afe70f7fbb42" target="_top" xlink:title="Try and get this security object with matching symbol and return true on success.">
<polygon fill="white" stroke="black" points="526,-196.5 526,-226.5 686,-226.5 686,-196.5 526,-196.5"/>
<text text-anchor="start" x="534" y="-214.5" font-family="Helvetica,sans-Serif" font-size="10.00">QuantConnect.Securities.</text>
<text text-anchor="middle" x="606" y="-203.5" font-family="Helvetica,sans-Serif" font-size="10.00">SecurityManager.TryGetValue</text>
</a>
</g>
</g>
<!-- Node21&#45;&gt;Node27 -->
<g id="edge29" class="edge">
<title>Node21&#45;&gt;Node27</title>
<path fill="none" stroke="midnightblue" d="M452.85,-211.5C473.63,-211.5 495.34,-211.5 515.65,-211.5"/>
<polygon fill="midnightblue" stroke="midnightblue" points="515.81,-215 525.81,-211.5 515.81,-208 515.81,-215"/>
</g>
<!-- Node25 -->
<g id="node25" class="node">
<title>Node25</title>
<g id="a_node25"><a xlink:href="classQuantConnect_1_1Securities_1_1UniverseManager.html#aa10596cb0fc9f25ebd3ed9c6d0de5d4b" target="_top" xlink:title="Event invocator for the CollectionChanged event">
<polygon fill="white" stroke="black" points="778,-44 778,-85 945,-85 945,-44 778,-44"/>
<text text-anchor="start" x="786" y="-73" font-family="Helvetica,sans-Serif" font-size="10.00">QuantConnect.Securities.</text>
<text text-anchor="start" x="786" y="-62" font-family="Helvetica,sans-Serif" font-size="10.00">UniverseManager.OnCollection</text>
<text text-anchor="middle" x="861.5" y="-51" font-family="Helvetica,sans-Serif" font-size="10.00">Changed</text>
</a>
</g>
</g>
<!-- Node24&#45;&gt;Node25 -->
<g id="edge27" class="edge">
<title>Node24&#45;&gt;Node25</title>
<path fill="none" stroke="midnightblue" d="M698.52,-64.5C721.03,-64.5 745.14,-64.5 767.71,-64.5"/>
<polygon fill="midnightblue" stroke="midnightblue" points="767.95,-68 777.95,-64.5 767.95,-61 767.95,-68"/>
</g>
<!-- Node28&#45;&gt;Node29 -->
<g id="edge31" class="edge">
<title>Node28&#45;&gt;Node29</title>
<path fill="none" stroke="midnightblue" d="M452.85,-31.67C466.05,-30.27 479.62,-28.83 492.97,-27.41"/>
<polygon fill="midnightblue" stroke="midnightblue" points="493.56,-30.87 503.13,-26.33 492.82,-23.91 493.56,-30.87"/>
</g>
</g>
</svg>
