<?xml version="1.0" encoding="UTF-8" standalone="no"?>
<!DOCTYPE svg PUBLIC "-//W3C//DTD SVG 1.1//EN"
 "http://www.w3.org/Graphics/SVG/1.1/DTD/svg11.dtd">
<!-- Generated by graphviz version 2.43.0 (0)
 -->
<!-- Title: QuantConnect.Data.DynamicData Pages: 1 -->
<svg width="348pt" height="263pt"
 viewBox="0.00 0.00 348.00 263.00" xmlns="http://www.w3.org/2000/svg" xmlns:xlink="http://www.w3.org/1999/xlink">
<g id="graph0" class="graph" transform="scale(1 1) rotate(0) translate(4 259)">
<title>QuantConnect.Data.DynamicData</title>
<polygon fill="white" stroke="transparent" points="-4,4 -4,-259 344,-259 344,4 -4,4"/>
<!-- Node1 -->
<g id="node1" class="node">
<title>Node1</title>
<g id="a_node1"><a xlink:title="Dynamic Data Class: Accept flexible data, adapting to the columns provided by source.">
<polygon fill="#bfbfbf" stroke="black" points="68,-67.5 68,-86.5 250,-86.5 250,-67.5 68,-67.5"/>
<text text-anchor="middle" x="159" y="-74.5" font-family="Helvetica,sans-Serif" font-size="10.00">QuantConnect.Data.DynamicData</text>
</a>
</g>
</g>
<!-- Node6 -->
<g id="node6" class="node">
<title>Node6</title>
<g id="a_node6"><a xlink:href="classQuantConnect_1_1Indicators_1_1IndicatorDataPoints.html" target="_top" xlink:title="Collection of indicator data points for a given time">
<polygon fill="white" stroke="black" points="0,-0.5 0,-30.5 140,-30.5 140,-0.5 0,-0.5"/>
<text text-anchor="start" x="8" y="-18.5" font-family="Helvetica,sans-Serif" font-size="10.00">QuantConnect.Indicators.</text>
<text text-anchor="middle" x="70" y="-7.5" font-family="Helvetica,sans-Serif" font-size="10.00">IndicatorDataPoints</text>
</a>
</g>
</g>
<!-- Node1&#45;&gt;Node6 -->
<g id="edge5" class="edge">
<title>Node1&#45;&gt;Node6</title>
<path fill="none" stroke="midnightblue" d="M137.67,-61.74C123.52,-52.28 105.05,-39.93 90.98,-30.52"/>
<polygon fill="midnightblue" stroke="midnightblue" points="135.99,-64.83 146.25,-67.48 139.88,-59.01 135.99,-64.83"/>
</g>
<!-- Node7 -->
<g id="node7" class="node">
<title>Node7</title>
<g id="a_node7"><a xlink:href="classQuantConnect_1_1Python_1_1PythonData.html" target="_top" xlink:title="Dynamic data class for Python algorithms. Stores properties of python instances in DynamicData dictio...">
<polygon fill="white" stroke="black" points="158,-6 158,-25 340,-25 340,-6 158,-6"/>
<text text-anchor="middle" x="249" y="-13" font-family="Helvetica,sans-Serif" font-size="10.00">QuantConnect.Python.PythonData</text>
</a>
</g>
</g>
<!-- Node1&#45;&gt;Node7 -->
<g id="edge6" class="edge">
<title>Node1&#45;&gt;Node7</title>
<path fill="none" stroke="midnightblue" d="M180.28,-61.93C197.63,-50.46 221.57,-34.63 236.13,-25.01"/>
<polygon fill="midnightblue" stroke="midnightblue" points="178.31,-59.04 171.89,-67.48 182.17,-64.88 178.31,-59.04"/>
</g>
<!-- Node2 -->
<g id="node2" class="node">
<title>Node2</title>
<g id="a_node2"><a xlink:href="classQuantConnect_1_1Data_1_1BaseData.html" target="_top" xlink:title="Abstract base data class of QuantConnect. It is intended to be extended to define generic user custom...">
<polygon fill="white" stroke="black" points="62,-123.5 62,-142.5 126,-142.5 126,-123.5 62,-123.5"/>
<text text-anchor="middle" x="94" y="-130.5" font-family="Helvetica,sans-Serif" font-size="10.00">BaseData</text>
</a>
</g>
</g>
<!-- Node2&#45;&gt;Node1 -->
<g id="edge1" class="edge">
<title>Node2&#45;&gt;Node1</title>
<path fill="none" stroke="midnightblue" d="M112.27,-116.82C123.92,-107.15 138.6,-94.95 148.37,-86.83"/>
<polygon fill="midnightblue" stroke="midnightblue" points="109.9,-114.24 104.44,-123.32 114.37,-119.63 109.9,-114.24"/>
</g>
<!-- Node3 -->
<g id="node3" class="node">
<title>Node3</title>
<g id="a_node3"><a xlink:href="interfaceQuantConnect_1_1Data_1_1IBaseData.html" target="_top" xlink:title="Base Data Class: Type, Timestamp, Key – Base Features.">
<polygon fill="white" stroke="black" points="60.5,-179.5 60.5,-198.5 127.5,-198.5 127.5,-179.5 60.5,-179.5"/>
<text text-anchor="middle" x="94" y="-186.5" font-family="Helvetica,sans-Serif" font-size="10.00">IBaseData</text>
</a>
</g>
</g>
<!-- Node3&#45;&gt;Node2 -->
<g id="edge2" class="edge">
<title>Node3&#45;&gt;Node2</title>
<path fill="none" stroke="midnightblue" d="M94,-168.8C94,-159.91 94,-149.78 94,-142.75"/>
<polygon fill="midnightblue" stroke="midnightblue" points="90.5,-169.08 94,-179.08 97.5,-169.08 90.5,-169.08"/>
</g>
<!-- Node4 -->
<g id="node4" class="node">
<title>Node4</title>
<g id="a_node4"><a xlink:href="interfaceQuantConnect_1_1Data_1_1ISymbolProvider.html" target="_top" xlink:title="Base data with a symbol">
<polygon fill="white" stroke="black" points="45.5,-235.5 45.5,-254.5 142.5,-254.5 142.5,-235.5 45.5,-235.5"/>
<text text-anchor="middle" x="94" y="-242.5" font-family="Helvetica,sans-Serif" font-size="10.00">ISymbolProvider</text>
</a>
</g>
</g>
<!-- Node4&#45;&gt;Node3 -->
<g id="edge3" class="edge">
<title>Node4&#45;&gt;Node3</title>
<path fill="none" stroke="midnightblue" d="M94,-224.8C94,-215.91 94,-205.78 94,-198.75"/>
<polygon fill="midnightblue" stroke="midnightblue" points="90.5,-225.08 94,-235.08 97.5,-225.08 90.5,-225.08"/>
</g>
<!-- Node5 -->
<g id="node5" class="node">
<title>Node5</title>
<g id="a_node5"><a xlink:title=" ">
<polygon fill="white" stroke="#bfbfbf" points="144,-123.5 144,-142.5 304,-142.5 304,-123.5 144,-123.5"/>
<text text-anchor="middle" x="224" y="-130.5" font-family="Helvetica,sans-Serif" font-size="10.00">IDynamicMetaObjectProvider</text>
</a>
</g>
</g>
<!-- Node5&#45;&gt;Node1 -->
<g id="edge4" class="edge">
<title>Node5&#45;&gt;Node1</title>
<path fill="none" stroke="midnightblue" d="M205.73,-116.82C194.08,-107.15 179.4,-94.95 169.63,-86.83"/>
<polygon fill="midnightblue" stroke="midnightblue" points="203.63,-119.63 213.56,-123.32 208.1,-114.24 203.63,-119.63"/>
</g>
</g>
</svg>
