<?xml version="1.0" encoding="UTF-8" standalone="no"?>
<!DOCTYPE svg PUBLIC "-//W3C//DTD SVG 1.1//EN"
 "http://www.w3.org/Graphics/SVG/1.1/DTD/svg11.dtd">
<!-- Generated by graphviz version 2.43.0 (0)
 -->
<!-- Title: QuantConnect.Algorithm.QCAlgorithm.SetAccountCurrency Pages: 1 -->
<svg width="896pt" height="198pt"
 viewBox="0.00 0.00 896.00 197.50" xmlns="http://www.w3.org/2000/svg" xmlns:xlink="http://www.w3.org/1999/xlink">
<g id="graph0" class="graph" transform="scale(1 1) rotate(0) translate(4 193.5)">
<title>QuantConnect.Algorithm.QCAlgorithm.SetAccountCurrency</title>
<polygon fill="white" stroke="transparent" points="-4,4 -4,-193.5 892,-193.5 892,4 -4,4"/>
<!-- Node1 -->
<g id="node1" class="node">
<title>Node1</title>
<g id="a_node1"><a xlink:title="Sets the account currency cash symbol this algorithm is to manage, as well as the starting cash in th...">
<polygon fill="#bfbfbf" stroke="black" points="0,-100.5 0,-130.5 205,-130.5 205,-100.5 0,-100.5"/>
<text text-anchor="start" x="8" y="-118.5" font-family="Helvetica,sans-Serif" font-size="10.00">QuantConnect.Algorithm.QCAlgorithm.</text>
<text text-anchor="middle" x="102.5" y="-107.5" font-family="Helvetica,sans-Serif" font-size="10.00">SetAccountCurrency</text>
</a>
</g>
</g>
<!-- Node2 -->
<g id="node2" class="node">
<title>Node2</title>
<g id="a_node2"><a xlink:href="classQuantConnect_1_1Algorithm_1_1QCAlgorithm.html#a16bd52d937ab647c889e8d5f6577f744" target="_top" xlink:title="Send a debug message to the web console:">
<polygon fill="white" stroke="black" points="241,-128.5 241,-158.5 446,-158.5 446,-128.5 241,-128.5"/>
<text text-anchor="start" x="249" y="-146.5" font-family="Helvetica,sans-Serif" font-size="10.00">QuantConnect.Algorithm.QCAlgorithm.</text>
<text text-anchor="middle" x="343.5" y="-135.5" font-family="Helvetica,sans-Serif" font-size="10.00">Debug</text>
</a>
</g>
</g>
<!-- Node1&#45;&gt;Node2 -->
<g id="edge1" class="edge">
<title>Node1&#45;&gt;Node2</title>
<path fill="none" stroke="midnightblue" d="M205.2,-127.42C213.7,-128.41 222.31,-129.42 230.87,-130.42"/>
<polygon fill="midnightblue" stroke="midnightblue" points="230.55,-133.91 240.89,-131.6 231.36,-126.96 230.55,-133.91"/>
</g>
<!-- Node3 -->
<g id="node3" class="node">
<title>Node3</title>
<g id="a_node3"><a xlink:href="classQuantConnect_1_1Securities_1_1SecurityPortfolioManager.html#ace04c1c80ebeef4a75f6fc0bdb7aa215" target="_top" xlink:title="Sets the account currency cash symbol this algorithm is to manage, as well as the starting cash in th...">
<polygon fill="white" stroke="black" points="264.5,-68 264.5,-109 422.5,-109 422.5,-68 264.5,-68"/>
<text text-anchor="start" x="272.5" y="-97" font-family="Helvetica,sans-Serif" font-size="10.00">QuantConnect.Securities.</text>
<text text-anchor="start" x="272.5" y="-86" font-family="Helvetica,sans-Serif" font-size="10.00">SecurityPortfolioManager.Set</text>
<text text-anchor="middle" x="343.5" y="-75" font-family="Helvetica,sans-Serif" font-size="10.00">AccountCurrency</text>
</a>
</g>
</g>
<!-- Node1&#45;&gt;Node3 -->
<g id="edge2" class="edge">
<title>Node1&#45;&gt;Node3</title>
<path fill="none" stroke="midnightblue" d="M205.2,-104.01C221.46,-102.17 238.17,-100.29 254.09,-98.49"/>
<polygon fill="midnightblue" stroke="midnightblue" points="254.88,-101.92 264.42,-97.32 254.09,-94.97 254.88,-101.92"/>
</g>
<!-- Node4 -->
<g id="node4" class="node">
<title>Node4</title>
<g id="a_node4"><a xlink:href="classQuantConnect_1_1Messages_1_1SecurityPortfolioManager.html#a06dfacaaac00cd6aaeea5c5ac216c8b7" target="_top" xlink:title="Returns a string message saying the AccountCurrency has already been set and that the new value for t...">
<polygon fill="white" stroke="black" points="499.5,-148 499.5,-189 684.5,-189 684.5,-148 499.5,-148"/>
<text text-anchor="start" x="507.5" y="-177" font-family="Helvetica,sans-Serif" font-size="10.00">QuantConnect.Messages.Security</text>
<text text-anchor="start" x="507.5" y="-166" font-family="Helvetica,sans-Serif" font-size="10.00">PortfolioManager.AccountCurrency</text>
<text text-anchor="middle" x="592" y="-155" font-family="Helvetica,sans-Serif" font-size="10.00">AlreadySet</text>
</a>
</g>
</g>
<!-- Node3&#45;&gt;Node4 -->
<g id="edge3" class="edge">
<title>Node3&#45;&gt;Node4</title>
<path fill="none" stroke="midnightblue" d="M417.72,-109.04C427.33,-112.27 436.97,-115.78 446,-119.5 462.73,-126.4 465.18,-131.84 482,-138.5 487.49,-140.68 493.2,-142.76 499,-144.73"/>
<polygon fill="midnightblue" stroke="midnightblue" points="498.23,-148.16 508.82,-147.95 500.41,-141.51 498.23,-148.16"/>
</g>
<!-- Node5 -->
<g id="node5" class="node">
<title>Node5</title>
<g id="a_node5"><a xlink:href="classQuantConnect_1_1Securities_1_1SecurityPortfolioManager.html#acac8f78a9d4193124aa4b735832fa1f6" target="_top" xlink:title="Set the account currency cash this algorithm is to manage.">
<polygon fill="white" stroke="black" points="501,-98.5 501,-128.5 683,-128.5 683,-98.5 501,-98.5"/>
<text text-anchor="start" x="509" y="-116.5" font-family="Helvetica,sans-Serif" font-size="10.00">QuantConnect.Securities.</text>
<text text-anchor="middle" x="592" y="-105.5" font-family="Helvetica,sans-Serif" font-size="10.00">SecurityPortfolioManager.SetCash</text>
</a>
</g>
</g>
<!-- Node3&#45;&gt;Node5 -->
<g id="edge4" class="edge">
<title>Node3&#45;&gt;Node5</title>
<path fill="none" stroke="midnightblue" d="M422.83,-96.44C444.45,-98.64 468.19,-101.05 490.86,-103.34"/>
<polygon fill="midnightblue" stroke="midnightblue" points="490.54,-106.83 500.84,-104.36 491.25,-99.86 490.54,-106.83"/>
</g>
<!-- Node7 -->
<g id="node7" class="node">
<title>Node7</title>
<g id="a_node7"><a xlink:href="classQuantConnect_1_1Messages_1_1SecurityPortfolioManager.html#a842a7fb0e84105cf0cb74c80fe64195a" target="_top" xlink:title="Returns a string message saying the AccountCurrency is being set to the given account currency">
<polygon fill="white" stroke="black" points="482,-49.5 482,-79.5 702,-79.5 702,-49.5 482,-49.5"/>
<text text-anchor="start" x="490" y="-67.5" font-family="Helvetica,sans-Serif" font-size="10.00">QuantConnect.Messages.Security</text>
<text text-anchor="middle" x="592" y="-56.5" font-family="Helvetica,sans-Serif" font-size="10.00">PortfolioManager.SettingAccountCurrency</text>
</a>
</g>
</g>
<!-- Node3&#45;&gt;Node7 -->
<g id="edge6" class="edge">
<title>Node3&#45;&gt;Node7</title>
<path fill="none" stroke="midnightblue" d="M422.83,-80.87C438.36,-79.36 454.99,-77.74 471.53,-76.13"/>
<polygon fill="midnightblue" stroke="midnightblue" points="472.19,-79.58 481.8,-75.13 471.51,-72.62 472.19,-79.58"/>
</g>
<!-- Node8 -->
<g id="node8" class="node">
<title>Node8</title>
<g id="a_node8"><a xlink:href="classQuantConnect_1_1Logging_1_1Log.html#a4e55477fbc790846b74550a57198cea9" target="_top" xlink:title="Log trace">
<polygon fill="white" stroke="black" points="517,-0.5 517,-30.5 667,-30.5 667,-0.5 517,-0.5"/>
<text text-anchor="start" x="525" y="-18.5" font-family="Helvetica,sans-Serif" font-size="10.00">QuantConnect.Logging.Log.</text>
<text text-anchor="middle" x="592" y="-7.5" font-family="Helvetica,sans-Serif" font-size="10.00">Trace</text>
</a>
</g>
</g>
<!-- Node3&#45;&gt;Node8 -->
<g id="edge7" class="edge">
<title>Node3&#45;&gt;Node8</title>
<path fill="none" stroke="midnightblue" d="M397.21,-67.96C422.6,-58.53 453.62,-47.65 482,-39.5 490.03,-37.19 498.45,-34.98 506.9,-32.9"/>
<polygon fill="midnightblue" stroke="midnightblue" points="507.9,-36.26 516.81,-30.52 506.27,-29.46 507.9,-36.26"/>
</g>
<!-- Node6 -->
<g id="node6" class="node">
<title>Node6</title>
<g id="a_node6"><a xlink:href="classQuantConnect_1_1Securities_1_1Cash.html#a10f484f2c0fa7902c2c1db937a929978" target="_top" xlink:title="Sets the Quantity to the specified amount">
<polygon fill="white" stroke="black" points="743,-98.5 743,-128.5 883,-128.5 883,-98.5 743,-98.5"/>
<text text-anchor="start" x="751" y="-116.5" font-family="Helvetica,sans-Serif" font-size="10.00">QuantConnect.Securities.</text>
<text text-anchor="middle" x="813" y="-105.5" font-family="Helvetica,sans-Serif" font-size="10.00">Cash.SetAmount</text>
</a>
</g>
</g>
<!-- Node5&#45;&gt;Node6 -->
<g id="edge5" class="edge">
<title>Node5&#45;&gt;Node6</title>
<path fill="none" stroke="midnightblue" d="M683.02,-113.5C699.38,-113.5 716.33,-113.5 732.36,-113.5"/>
<polygon fill="midnightblue" stroke="midnightblue" points="732.75,-117 742.75,-113.5 732.75,-110 732.75,-117"/>
</g>
<!-- Node9 -->
<g id="node9" class="node">
<title>Node9</title>
<g id="a_node9"><a xlink:href="interfaceQuantConnect_1_1Logging_1_1ILogHandler.html#a3fb71a33ac66129240b63f12b6fcda3b" target="_top" xlink:title="Write debug message to log">
<polygon fill="white" stroke="black" points="738,-0.5 738,-30.5 888,-30.5 888,-0.5 738,-0.5"/>
<text text-anchor="start" x="746" y="-18.5" font-family="Helvetica,sans-Serif" font-size="10.00">QuantConnect.Logging.ILog</text>
<text text-anchor="middle" x="813" y="-7.5" font-family="Helvetica,sans-Serif" font-size="10.00">Handler.Trace</text>
</a>
</g>
</g>
<!-- Node8&#45;&gt;Node9 -->
<g id="edge8" class="edge">
<title>Node8&#45;&gt;Node9</title>
<path fill="none" stroke="midnightblue" d="M667.14,-15.5C686.68,-15.5 707.89,-15.5 727.9,-15.5"/>
<polygon fill="midnightblue" stroke="midnightblue" points="727.93,-19 737.93,-15.5 727.93,-12 727.93,-19"/>
</g>
</g>
</svg>
