<?xml version="1.0" encoding="UTF-8" standalone="no"?>
<!DOCTYPE svg PUBLIC "-//W3C//DTD SVG 1.1//EN"
 "http://www.w3.org/Graphics/SVG/1.1/DTD/svg11.dtd">
<!-- Generated by graphviz version 2.43.0 (0)
 -->
<!-- Title: QuantConnect.SecurityIdentifier.TryParse Pages: 1 -->
<!--zoomable 638 -->
<svg id="main" version="1.1" xmlns="http://www.w3.org/2000/svg" xmlns:xlink="http://www.w3.org/1999/xlink" xml:space="preserve" onload="init(evt)">
<style type="text/css"><![CDATA[
.edge:hover path { stroke: red; }
.edge:hover polygon { stroke: red; fill: red; }
]]></style>
<script type="text/javascript"><![CDATA[
var edges = document.getElementsByTagName('g');
if (edges && edges.length) {
  for (var i=0;i<edges.length;i++) {
    if (edges[i].id.substr(0,4)=='edge') {
      edges[i].setAttribute('class','edge');
    }
  }
}
]]></script>
        <defs>
                <circle id="rim" cx="0" cy="0" r="7"/>
                <circle id="rim2" cx="0" cy="0" r="3.5"/>
                <g id="zoomPlus">
                        <use xlink:href="#rim" fill="#404040">
                                <set attributeName="fill" to="#808080" begin="zoomplus.mouseover" end="zoomplus.mouseout"/>
                        </use>
                        <path d="M-4,0h8M0,-4v8" fill="none" stroke="white" stroke-width="1.5" pointer-events="none"/>
                </g>
                <g id="zoomMin">
                        <use xlink:href="#rim" fill="#404040">
                                <set attributeName="fill" to="#808080" begin="zoomminus.mouseover" end="zoomminus.mouseout"/>
                        </use>
                        <path d="M-4,0h8" fill="none" stroke="white" stroke-width="1.5" pointer-events="none"/>
                </g>
                <g id="dirArrow">
                        <path fill="none" stroke="white" stroke-width="1.5" d="M0,-3.0v7 M-2.5,-0.5L0,-3.0L2.5,-0.5"/>
                </g>
               <g id="resetDef">
                       <use xlink:href="#rim2" fill="#404040">
                               <set attributeName="fill" to="#808080" begin="reset.mouseover" end="reset.mouseout"/>
                       </use>
               </g>
        </defs>

<script type="text/javascript">
var viewWidth = 1072;
var viewHeight = 638;
var sectionId = 'dynsection-22';
</script>
<script xlink:href="svgpan.js"/>
<svg id="graph" class="graph">
<g id="viewport">
<title>QuantConnect.SecurityIdentifier.TryParse</title>
<polygon fill="white" stroke="transparent" points="-4,4 -4,-633.5 1068,-633.5 1068,4 -4,4"/>
<!-- Node1 -->
<g id="node1" class="node">
<title>Node1</title>
<g id="a_node1"><a xlink:title="Attempts to parse the specified &#160;as a SecurityIdentifier.">
<polygon fill="#bfbfbf" stroke="black" points="890,-320 890,-350 1064,-350 1064,-320 890,-320"/>
<text text-anchor="start" x="898" y="-338" font-family="Helvetica,sans-Serif" font-size="10.00">QuantConnect.SecurityIdentifier.</text>
<text text-anchor="middle" x="977" y="-327" font-family="Helvetica,sans-Serif" font-size="10.00">TryParse</text>
</a>
</g>
</g>
<!-- Node2 -->
<g id="node2" class="node">
<title>Node2</title>
<g id="a_node2"><a xlink:href="classQuantConnect_1_1SecurityIdentifier.html#a89ccb2161613f17d18ca3dc1e9eb3872" target="_top" xlink:title="Parses the specified string into a SecurityIdentifier The string must be a 40 digit number....">
<polygon fill="white" stroke="black" points="680,-320 680,-350 854,-350 854,-320 680,-320"/>
<text text-anchor="start" x="688" y="-338" font-family="Helvetica,sans-Serif" font-size="10.00">QuantConnect.SecurityIdentifier.</text>
<text text-anchor="middle" x="767" y="-327" font-family="Helvetica,sans-Serif" font-size="10.00">Parse</text>
</a>
</g>
</g>
<!-- Node1&#45;&gt;Node2 -->
<g id="edge1" class="edge">
<title>Node1&#45;&gt;Node2</title>
<path fill="none" stroke="midnightblue" d="M879.84,-335C871.23,-335 862.55,-335 854.04,-335"/>
<polygon fill="midnightblue" stroke="midnightblue" points="879.9,-338.5 889.9,-335 879.9,-331.5 879.9,-338.5"/>
</g>
<!-- Node3 -->
<g id="node3" class="node">
<title>Node3</title>
<g id="a_node3"><a xlink:href="classQuantConnect_1_1Util_1_1SecurityIdentifierJsonConverter.html#a55029986bfa80668ec83127416bcf354" target="_top" xlink:title="Converts the input string to a security identifier">
<polygon fill="white" stroke="black" points="456.5,-599 456.5,-629 625.5,-629 625.5,-599 456.5,-599"/>
<text text-anchor="start" x="464.5" y="-617" font-family="Helvetica,sans-Serif" font-size="10.00">QuantConnect.Util.Security</text>
<text text-anchor="middle" x="541" y="-606" font-family="Helvetica,sans-Serif" font-size="10.00">IdentifierJsonConverter.Convert</text>
</a>
</g>
</g>
<!-- Node2&#45;&gt;Node3 -->
<g id="edge2" class="edge">
<title>Node2&#45;&gt;Node3</title>
<path fill="none" stroke="midnightblue" d="M761.47,-360.1C750.8,-411.62 719.13,-529.52 644,-590 638.47,-594.45 632.26,-598.1 625.71,-601.09"/>
<polygon fill="midnightblue" stroke="midnightblue" points="764.93,-360.65 763.43,-350.16 758.06,-359.29 764.93,-360.65"/>
</g>
<!-- Node4 -->
<g id="node4" class="node">
<title>Node4</title>
<g id="a_node4"><a xlink:href="classQuantConnect_1_1Orders_1_1OrderJsonConverter.html#ae7718abf2cec0c8473eee7cdec4b4b15" target="_top" xlink:title="Create an order from a simple JObject">
<polygon fill="white" stroke="black" points="438,-550 438,-580 644,-580 644,-550 438,-550"/>
<text text-anchor="start" x="446" y="-568" font-family="Helvetica,sans-Serif" font-size="10.00">QuantConnect.Orders.Order</text>
<text text-anchor="middle" x="541" y="-557" font-family="Helvetica,sans-Serif" font-size="10.00">JsonConverter.CreateOrderFromJObject</text>
</a>
</g>
</g>
<!-- Node2&#45;&gt;Node4 -->
<g id="edge3" class="edge">
<title>Node2&#45;&gt;Node4</title>
<path fill="none" stroke="midnightblue" d="M758.5,-359.84C743.94,-403.62 707.57,-494.3 644,-541 639.31,-544.45 634.2,-547.41 628.84,-549.95"/>
<polygon fill="midnightblue" stroke="midnightblue" points="761.85,-360.85 761.58,-350.26 755.18,-358.71 761.85,-360.85"/>
</g>
<!-- Node7 -->
<g id="node7" class="node">
<title>Node7</title>
<g id="a_node7"><a xlink:href="classQuantConnect_1_1Securities_1_1SecurityDefinition.html#afeaaba888400d043436e7e093306ccac" target="_top" xlink:title="Parses a single line of CSV and converts it into an instance">
<polygon fill="white" stroke="black" points="456,-501 456,-531 626,-531 626,-501 456,-501"/>
<text text-anchor="start" x="464" y="-519" font-family="Helvetica,sans-Serif" font-size="10.00">QuantConnect.Securities.</text>
<text text-anchor="middle" x="541" y="-508" font-family="Helvetica,sans-Serif" font-size="10.00">SecurityDefinition.FromCsvLine</text>
</a>
</g>
</g>
<!-- Node2&#45;&gt;Node7 -->
<g id="edge6" class="edge">
<title>Node2&#45;&gt;Node7</title>
<path fill="none" stroke="midnightblue" d="M753.97,-359.38C735.39,-394.4 696.31,-458.42 644,-492 638.41,-495.59 632.34,-498.64 626.05,-501.24"/>
<polygon fill="midnightblue" stroke="midnightblue" points="757.18,-360.81 758.67,-350.32 750.96,-357.59 757.18,-360.81"/>
</g>
<!-- Node10 -->
<g id="node10" class="node">
<title>Node10</title>
<g id="a_node10"><a xlink:href="classQuantConnect_1_1Orders_1_1OrderEvent.html#ab5201a3c4066f451616e2602bdb36a7d" target="_top" xlink:title="Creates a new instance based on the provided serialized order event">
<polygon fill="white" stroke="black" points="465.5,-452 465.5,-482 616.5,-482 616.5,-452 465.5,-452"/>
<text text-anchor="start" x="473.5" y="-470" font-family="Helvetica,sans-Serif" font-size="10.00">QuantConnect.Orders.Order</text>
<text text-anchor="middle" x="541" y="-459" font-family="Helvetica,sans-Serif" font-size="10.00">Event.FromSerialized</text>
</a>
</g>
</g>
<!-- Node2&#45;&gt;Node10 -->
<g id="edge9" class="edge">
<title>Node2&#45;&gt;Node10</title>
<path fill="none" stroke="midnightblue" d="M746.55,-357.96C724.29,-382.73 685.52,-421.5 644,-443 635.44,-447.43 626.05,-451.06 616.54,-454.02"/>
<polygon fill="midnightblue" stroke="midnightblue" points="749.46,-359.96 753.45,-350.14 744.21,-355.33 749.46,-359.96"/>
</g>
<!-- Node12 -->
<g id="node12" class="node">
<title>Node12</title>
<g id="a_node12"><a xlink:href="classQuantConnect_1_1Algorithm_1_1Framework_1_1Alphas_1_1Insight.html#a45c92b494352cbd2da4db9890911200f" target="_top" xlink:title="Creates a new Insight object from the specified serialized form">
<polygon fill="white" stroke="black" points="442.5,-403 442.5,-433 639.5,-433 639.5,-403 442.5,-403"/>
<text text-anchor="start" x="450.5" y="-421" font-family="Helvetica,sans-Serif" font-size="10.00">QuantConnect.Algorithm.Framework.</text>
<text text-anchor="middle" x="541" y="-410" font-family="Helvetica,sans-Serif" font-size="10.00">Alphas.Insight.FromSerializedInsight</text>
</a>
</g>
</g>
<!-- Node2&#45;&gt;Node12 -->
<g id="edge11" class="edge">
<title>Node2&#45;&gt;Node12</title>
<path fill="none" stroke="midnightblue" d="M729.56,-354.73C705.73,-367.02 673.65,-382.44 644,-393 633.69,-396.67 622.62,-399.99 611.69,-402.93"/>
<polygon fill="midnightblue" stroke="midnightblue" points="731.34,-357.75 738.58,-350.02 728.1,-351.54 731.34,-357.75"/>
</g>
<!-- Node14 -->
<g id="node14" class="node">
<title>Node14</title>
<g id="a_node14"><a xlink:href="classQuantConnect_1_1Data_1_1UniverseSelection_1_1CoarseFundamentalDataProvider.html#a6071bd52f44e52b65bcb5412694ed1a9" target="_top" xlink:title="Reads the given line and returns a CoarseFundamentalSource with the information within it">
<polygon fill="white" stroke="black" points="448.5,-342.5 448.5,-383.5 633.5,-383.5 633.5,-342.5 448.5,-342.5"/>
<text text-anchor="start" x="456.5" y="-371.5" font-family="Helvetica,sans-Serif" font-size="10.00">QuantConnect.Data.Universe</text>
<text text-anchor="start" x="456.5" y="-360.5" font-family="Helvetica,sans-Serif" font-size="10.00">Selection.CoarseFundamentalData</text>
<text text-anchor="middle" x="541" y="-349.5" font-family="Helvetica,sans-Serif" font-size="10.00">Provider.Read</text>
</a>
</g>
</g>
<!-- Node2&#45;&gt;Node14 -->
<g id="edge13" class="edge">
<title>Node2&#45;&gt;Node14</title>
<path fill="none" stroke="midnightblue" d="M669.77,-347.03C657.84,-348.52 645.67,-350.04 633.81,-351.52"/>
<polygon fill="midnightblue" stroke="midnightblue" points="670.23,-350.5 679.72,-345.79 669.36,-343.55 670.23,-350.5"/>
</g>
<!-- Node16 -->
<g id="node16" class="node">
<title>Node16</title>
<g id="a_node16"><a xlink:href="classQuantConnect_1_1Data_1_1Fundamental_1_1FundamentalUniverse.html#ab0cc57b7cf7c3565309f15f7887e3dd7" target="_top" xlink:title="Will read a new instance from the given line">
<polygon fill="white" stroke="black" points="450,-293 450,-323 632,-323 632,-293 450,-293"/>
<text text-anchor="start" x="458" y="-311" font-family="Helvetica,sans-Serif" font-size="10.00">QuantConnect.Data.Fundamental.</text>
<text text-anchor="middle" x="541" y="-300" font-family="Helvetica,sans-Serif" font-size="10.00">FundamentalUniverse.Reader</text>
</a>
</g>
</g>
<!-- Node2&#45;&gt;Node16 -->
<g id="edge15" class="edge">
<title>Node2&#45;&gt;Node16</title>
<path fill="none" stroke="midnightblue" d="M669.44,-323.36C657.12,-321.88 644.54,-320.36 632.32,-318.89"/>
<polygon fill="midnightblue" stroke="midnightblue" points="669.37,-326.88 679.72,-324.6 670.21,-319.93 669.37,-326.88"/>
</g>
<!-- Node17 -->
<g id="node17" class="node">
<title>Node17</title>
<g id="a_node17"><a xlink:href="classQuantConnect_1_1Data_1_1UniverseSelection_1_1ConstituentsUniverseData.html#ac6491a989536209afe26c164a7764444" target="_top" xlink:title="Reader converts each line of the data source into BaseData objects. Each data type creates its own fa...">
<polygon fill="white" stroke="black" points="456,-232.5 456,-273.5 626,-273.5 626,-232.5 456,-232.5"/>
<text text-anchor="start" x="464" y="-261.5" font-family="Helvetica,sans-Serif" font-size="10.00">QuantConnect.Data.Universe</text>
<text text-anchor="start" x="464" y="-250.5" font-family="Helvetica,sans-Serif" font-size="10.00">Selection.ConstituentsUniverse</text>
<text text-anchor="middle" x="541" y="-239.5" font-family="Helvetica,sans-Serif" font-size="10.00">Data.Reader</text>
</a>
</g>
</g>
<!-- Node2&#45;&gt;Node17 -->
<g id="edge16" class="edge">
<title>Node2&#45;&gt;Node17</title>
<path fill="none" stroke="midnightblue" d="M723.22,-315.87C700,-305.81 670.67,-293.6 644,-284 633.99,-280.4 623.33,-276.85 612.81,-273.51"/>
<polygon fill="midnightblue" stroke="midnightblue" points="721.87,-319.1 732.44,-319.89 724.67,-312.69 721.87,-319.1"/>
</g>
<!-- Node18 -->
<g id="node18" class="node">
<title>Node18</title>
<g id="a_node18"><a xlink:href="classQuantConnect_1_1Data_1_1Fundamental_1_1Fundamental.html#a6ee785f2be07bb11e2aacb6cd7e15eae" target="_top" xlink:title="Will read a new instance from the given line">
<polygon fill="white" stroke="black" points="450,-183 450,-213 632,-213 632,-183 450,-183"/>
<text text-anchor="start" x="458" y="-201" font-family="Helvetica,sans-Serif" font-size="10.00">QuantConnect.Data.Fundamental.</text>
<text text-anchor="middle" x="541" y="-190" font-family="Helvetica,sans-Serif" font-size="10.00">Fundamental.Reader</text>
</a>
</g>
</g>
<!-- Node2&#45;&gt;Node18 -->
<g id="edge17" class="edge">
<title>Node2&#45;&gt;Node18</title>
<path fill="none" stroke="midnightblue" d="M747.34,-311.99C725.32,-286.39 686.32,-245.65 644,-223 636.77,-219.13 628.92,-215.84 620.91,-213.06"/>
<polygon fill="midnightblue" stroke="midnightblue" points="744.75,-314.34 753.87,-319.73 750.1,-309.83 744.75,-314.34"/>
</g>
<!-- Node19 -->
<g id="node19" class="node">
<title>Node19</title>
<g id="a_node19"><a xlink:href="classQuantConnect_1_1Data_1_1UniverseSelection_1_1ETFConstituentUniverse.html#a40b220bec099d556460cebbebbf07e7a" target="_top" xlink:title="Reader converts each line of the data source into BaseData objects. Each data type creates its own fa...">
<polygon fill="white" stroke="black" points="448.5,-122.5 448.5,-163.5 633.5,-163.5 633.5,-122.5 448.5,-122.5"/>
<text text-anchor="start" x="456.5" y="-151.5" font-family="Helvetica,sans-Serif" font-size="10.00">QuantConnect.Data.Universe</text>
<text text-anchor="start" x="456.5" y="-140.5" font-family="Helvetica,sans-Serif" font-size="10.00">Selection.ETFConstituentUniverse.</text>
<text text-anchor="middle" x="541" y="-129.5" font-family="Helvetica,sans-Serif" font-size="10.00">Reader</text>
</a>
</g>
</g>
<!-- Node2&#45;&gt;Node19 -->
<g id="edge18" class="edge">
<title>Node2&#45;&gt;Node19</title>
<path fill="none" stroke="midnightblue" d="M753.84,-310.44C735.09,-275.08 695.81,-210.11 644,-174 638.31,-170.03 632.09,-166.56 625.63,-163.53"/>
<polygon fill="midnightblue" stroke="midnightblue" points="750.87,-312.31 758.58,-319.58 757.09,-309.09 750.87,-312.31"/>
</g>
<!-- Node20 -->
<g id="node20" class="node">
<title>Node20</title>
<g id="a_node20"><a xlink:href="classQuantConnect_1_1Data_1_1UniverseSelection_1_1OptionUniverse.html#a9c722865b50f2840c0cd33a88a0ef629" target="_top" xlink:title="Reader converts each line of the data source into BaseData objects. Each data type creates its own fa...">
<polygon fill="white" stroke="black" points="452,-73 452,-103 630,-103 630,-73 452,-73"/>
<text text-anchor="start" x="460" y="-91" font-family="Helvetica,sans-Serif" font-size="10.00">QuantConnect.Data.Universe</text>
<text text-anchor="middle" x="541" y="-80" font-family="Helvetica,sans-Serif" font-size="10.00">Selection.OptionUniverse.Reader</text>
</a>
</g>
</g>
<!-- Node2&#45;&gt;Node20 -->
<g id="edge19" class="edge">
<title>Node2&#45;&gt;Node20</title>
<path fill="none" stroke="midnightblue" d="M759.51,-309.98C746.14,-263.61 711.01,-164.4 644,-113 638.94,-109.12 633.35,-105.83 627.48,-103.04"/>
<polygon fill="midnightblue" stroke="midnightblue" points="756.19,-311.11 762.24,-319.8 762.93,-309.23 756.19,-311.11"/>
</g>
<!-- Node21 -->
<g id="node21" class="node">
<title>Node21</title>
<g id="a_node21"><a xlink:href="classQuantConnect_1_1Symbol.html#a13e0f04010a2d52bb7fc2000e5929394" target="_top" xlink:title="Creates new symbol with updated mapped symbol. Symbol Mapping: When symbols change over time (e....">
<polygon fill="white" stroke="black" points="459,-6 459,-36 623,-36 623,-6 459,-6"/>
<text text-anchor="start" x="467" y="-24" font-family="Helvetica,sans-Serif" font-size="10.00">QuantConnect.Symbol.Update</text>
<text text-anchor="middle" x="541" y="-13" font-family="Helvetica,sans-Serif" font-size="10.00">MappedSymbol</text>
</a>
</g>
</g>
<!-- Node2&#45;&gt;Node21 -->
<g id="edge20" class="edge">
<title>Node2&#45;&gt;Node21</title>
<path fill="none" stroke="midnightblue" d="M761.28,-309.95C750.12,-257.28 717.35,-134.11 644,-63 631.69,-51.07 615.53,-42.35 599.7,-36.05"/>
<polygon fill="midnightblue" stroke="midnightblue" points="757.86,-310.69 763.28,-319.79 764.72,-309.29 757.86,-310.69"/>
</g>
<!-- Node5 -->
<g id="node5" class="node">
<title>Node5</title>
<g id="a_node5"><a xlink:href="classQuantConnect_1_1Report_1_1OrderTypeNormalizingJsonConverter.html#a095a046916eb5872ed67ebc83a46d7a5" target="_top" xlink:title="Read Json and convert">
<polygon fill="white" stroke="black" points="185,-599 185,-629 399,-629 399,-599 185,-599"/>
<text text-anchor="start" x="193" y="-617" font-family="Helvetica,sans-Serif" font-size="10.00">QuantConnect.Report.Order</text>
<text text-anchor="middle" x="292" y="-606" font-family="Helvetica,sans-Serif" font-size="10.00">TypeNormalizingJsonConverter.ReadJson</text>
</a>
</g>
</g>
<!-- Node4&#45;&gt;Node5 -->
<g id="edge4" class="edge">
<title>Node4&#45;&gt;Node5</title>
<path fill="none" stroke="midnightblue" d="M454.1,-582.04C426.29,-587.56 395.66,-593.63 368.64,-598.99"/>
<polygon fill="midnightblue" stroke="midnightblue" points="455.09,-585.41 464.21,-580.03 453.72,-578.55 455.09,-585.41"/>
</g>
<!-- Node6 -->
<g id="node6" class="node">
<title>Node6</title>
<g id="a_node6"><a xlink:href="classQuantConnect_1_1Orders_1_1OrderJsonConverter.html#abed44f89edc8905ac0d4b8af39a47802" target="_top" xlink:title="Reads the JSON representation of the object.">
<polygon fill="white" stroke="black" points="216.5,-550 216.5,-580 367.5,-580 367.5,-550 216.5,-550"/>
<text text-anchor="start" x="224.5" y="-568" font-family="Helvetica,sans-Serif" font-size="10.00">QuantConnect.Orders.Order</text>
<text text-anchor="middle" x="292" y="-557" font-family="Helvetica,sans-Serif" font-size="10.00">JsonConverter.ReadJson</text>
</a>
</g>
</g>
<!-- Node4&#45;&gt;Node6 -->
<g id="edge5" class="edge">
<title>Node4&#45;&gt;Node6</title>
<path fill="none" stroke="midnightblue" d="M427.51,-565C407.22,-565 386.52,-565 367.65,-565"/>
<polygon fill="midnightblue" stroke="midnightblue" points="427.75,-568.5 437.75,-565 427.75,-561.5 427.75,-568.5"/>
</g>
<!-- Node8 -->
<g id="node8" class="node">
<title>Node8</title>
<g id="a_node8"><a xlink:href="classQuantConnect_1_1Securities_1_1SecurityDefinition.html#a82de6b15f6e510abee79feeeb133a3e1" target="_top" xlink:title="Reads data from the specified file and converts it to a list of SecurityDefinition">
<polygon fill="white" stroke="black" points="222,-501 222,-531 362,-531 362,-501 222,-501"/>
<text text-anchor="start" x="230" y="-519" font-family="Helvetica,sans-Serif" font-size="10.00">QuantConnect.Securities.</text>
<text text-anchor="middle" x="292" y="-508" font-family="Helvetica,sans-Serif" font-size="10.00">SecurityDefinition.Read</text>
</a>
</g>
</g>
<!-- Node7&#45;&gt;Node8 -->
<g id="edge7" class="edge">
<title>Node7&#45;&gt;Node8</title>
<path fill="none" stroke="midnightblue" d="M445.57,-516C417.84,-516 388.03,-516 362.19,-516"/>
<polygon fill="midnightblue" stroke="midnightblue" points="445.69,-519.5 455.69,-516 445.69,-512.5 445.69,-519.5"/>
</g>
<!-- Node9 -->
<g id="node9" class="node">
<title>Node9</title>
<g id="a_node9"><a xlink:href="classQuantConnect_1_1Securities_1_1SecurityDefinition.html#ae557fc970973cc2169c0b244b181de05" target="_top" xlink:title="Attempts to read data from the specified file and convert it into a list of SecurityDefinition">
<polygon fill="white" stroke="black" points="0,-501 0,-531 146,-531 146,-501 0,-501"/>
<text text-anchor="start" x="8" y="-519" font-family="Helvetica,sans-Serif" font-size="10.00">QuantConnect.Securities.</text>
<text text-anchor="middle" x="73" y="-508" font-family="Helvetica,sans-Serif" font-size="10.00">SecurityDefinition.TryRead</text>
</a>
</g>
</g>
<!-- Node8&#45;&gt;Node9 -->
<g id="edge8" class="edge">
<title>Node8&#45;&gt;Node9</title>
<path fill="none" stroke="midnightblue" d="M211.72,-516C190.34,-516 167.32,-516 146.34,-516"/>
<polygon fill="midnightblue" stroke="midnightblue" points="211.74,-519.5 221.74,-516 211.74,-512.5 211.74,-519.5"/>
</g>
<!-- Node11 -->
<g id="node11" class="node">
<title>Node11</title>
<g id="a_node11"><a xlink:href="classQuantConnect_1_1Orders_1_1Serialization_1_1OrderEventJsonConverter.html#ae6c48e8ac3a202ba0187ea307c82b22d" target="_top" xlink:title="Converts the input value to be deserialized">
<polygon fill="white" stroke="black" points="198,-452 198,-482 386,-482 386,-452 198,-452"/>
<text text-anchor="start" x="206" y="-470" font-family="Helvetica,sans-Serif" font-size="10.00">QuantConnect.Orders.Serialization.</text>
<text text-anchor="middle" x="292" y="-459" font-family="Helvetica,sans-Serif" font-size="10.00">OrderEventJsonConverter.Convert</text>
</a>
</g>
</g>
<!-- Node10&#45;&gt;Node11 -->
<g id="edge10" class="edge">
<title>Node10&#45;&gt;Node11</title>
<path fill="none" stroke="midnightblue" d="M455.17,-467C432.97,-467 408.93,-467 386.32,-467"/>
<polygon fill="midnightblue" stroke="midnightblue" points="455.22,-470.5 465.22,-467 455.22,-463.5 455.22,-470.5"/>
</g>
<!-- Node13 -->
<g id="node13" class="node">
<title>Node13</title>
<g id="a_node13"><a xlink:href="classQuantConnect_1_1Algorithm_1_1Framework_1_1Alphas_1_1Serialization_1_1InsightJsonConverter.html#af2dd7ec283dc30929df11534ca3cc274" target="_top" xlink:title="Converts the input value to be deserialized">
<polygon fill="white" stroke="black" points="182,-391.5 182,-432.5 402,-432.5 402,-391.5 182,-391.5"/>
<text text-anchor="start" x="190" y="-420.5" font-family="Helvetica,sans-Serif" font-size="10.00">QuantConnect.Algorithm.Framework.</text>
<text text-anchor="start" x="190" y="-409.5" font-family="Helvetica,sans-Serif" font-size="10.00">Alphas.Serialization.InsightJsonConverter.</text>
<text text-anchor="middle" x="292" y="-398.5" font-family="Helvetica,sans-Serif" font-size="10.00">Convert</text>
</a>
</g>
</g>
<!-- Node12&#45;&gt;Node13 -->
<g id="edge12" class="edge">
<title>Node12&#45;&gt;Node13</title>
<path fill="none" stroke="midnightblue" d="M432.09,-415.38C422.15,-415.14 412.08,-414.89 402.14,-414.65"/>
<polygon fill="midnightblue" stroke="midnightblue" points="432.3,-418.88 442.38,-415.63 432.47,-411.89 432.3,-418.88"/>
</g>
<!-- Node15 -->
<g id="node15" class="node">
<title>Node15</title>
<g id="a_node15"><a xlink:href="classQuantConnect_1_1Data_1_1UniverseSelection_1_1CoarseFundamentalDataProvider.html#a10da7f47da92820dc783dd24b2de9392" target="_top" xlink:title="Will fetch the requested fundamental information for the requested time and symbol">
<polygon fill="white" stroke="black" points="199.5,-331.5 199.5,-372.5 384.5,-372.5 384.5,-331.5 199.5,-331.5"/>
<text text-anchor="start" x="207.5" y="-360.5" font-family="Helvetica,sans-Serif" font-size="10.00">QuantConnect.Data.Universe</text>
<text text-anchor="start" x="207.5" y="-349.5" font-family="Helvetica,sans-Serif" font-size="10.00">Selection.CoarseFundamentalData</text>
<text text-anchor="middle" x="292" y="-338.5" font-family="Helvetica,sans-Serif" font-size="10.00">Provider.Get&lt; T &gt;</text>
</a>
</g>
</g>
<!-- Node14&#45;&gt;Node15 -->
<g id="edge14" class="edge">
<title>Node14&#45;&gt;Node15</title>
<path fill="none" stroke="midnightblue" d="M438.08,-358.46C420.46,-357.68 402.23,-356.86 384.89,-356.09"/>
<polygon fill="midnightblue" stroke="midnightblue" points="438.23,-361.97 448.38,-358.92 438.54,-354.98 438.23,-361.97"/>
</g>
<!-- Node21&#45;&gt;Node21 -->
<g id="edge22" class="edge">
<title>Node21&#45;&gt;Node21</title>
<path fill="none" stroke="midnightblue" d="M581.16,-46.46C576.17,-51.18 562.79,-54.5 541,-54.5 505.25,-54.5 492.12,-45.56 501.61,-36.16"/>
<polygon fill="midnightblue" stroke="midnightblue" points="584.62,-45.87 580.39,-36.16 577.64,-46.39 584.62,-45.87"/>
</g>
<!-- Node22 -->
<g id="node22" class="node">
<title>Node22</title>
<g id="a_node22"><a xlink:href="classQuantConnect_1_1Data_1_1HistoryExtensions.html#a3b6a56b1bd013e0178ae4d01775fc68b" target="_top" xlink:title="Split HistoryRequest on several request with update mapped symbol.">
<polygon fill="white" stroke="black" points="207,-0.5 207,-41.5 377,-41.5 377,-0.5 207,-0.5"/>
<text text-anchor="start" x="215" y="-29.5" font-family="Helvetica,sans-Serif" font-size="10.00">QuantConnect.Data.History</text>
<text text-anchor="start" x="215" y="-18.5" font-family="Helvetica,sans-Serif" font-size="10.00">Extensions.SplitHistoryRequest</text>
<text text-anchor="middle" x="292" y="-7.5" font-family="Helvetica,sans-Serif" font-size="10.00">WithUpdatedMappedSymbol</text>
</a>
</g>
</g>
<!-- Node21&#45;&gt;Node22 -->
<g id="edge21" class="edge">
<title>Node21&#45;&gt;Node22</title>
<path fill="none" stroke="midnightblue" d="M448.54,-21C425.19,-21 400.2,-21 377.23,-21"/>
<polygon fill="midnightblue" stroke="midnightblue" points="448.78,-24.5 458.78,-21 448.78,-17.5 448.78,-24.5"/>
</g>
</g>
</svg>
        <g id="navigator" transform="translate(0 0)" fill="#404254">
                <rect fill="#f2f5e9" fill-opacity="0.5" stroke="#606060" stroke-width=".5" x="0" y="0" width="60" height="60"/>
                <use id="zoomplus" xlink:href="#zoomPlus" x="17" y="9" onmousedown="handleZoom(evt,'in')"/>
                <use id="zoomminus" xlink:href="#zoomMin" x="42" y="9" onmousedown="handleZoom(evt,'out')"/>
                <use id="reset" xlink:href="#resetDef" x="30" y="36" onmousedown="handleReset()"/>
                <g id="arrowUp" xlink:href="#dirArrow" transform="translate(30 24)" onmousedown="handlePan(0,-1)">
                  <use xlink:href="#rim" fill="#404040">
                        <set attributeName="fill" to="#808080" begin="arrowUp.mouseover" end="arrowUp.mouseout"/>
                  </use>
                  <path fill="none" stroke="white" stroke-width="1.5" d="M0,-3.0v7 M-2.5,-0.5L0,-3.0L2.5,-0.5"/>
                </g>
                <g id="arrowRight" xlink:href="#dirArrow" transform="rotate(90) translate(36 -43)" onmousedown="handlePan(1,0)">
                  <use xlink:href="#rim" fill="#404040">
                        <set attributeName="fill" to="#808080" begin="arrowRight.mouseover" end="arrowRight.mouseout"/>
                  </use>
                  <path fill="none" stroke="white" stroke-width="1.5" d="M0,-3.0v7 M-2.5,-0.5L0,-3.0L2.5,-0.5"/>
                </g>
                <g id="arrowDown" xlink:href="#dirArrow" transform="rotate(180) translate(-30 -48)" onmousedown="handlePan(0,1)">
                  <use xlink:href="#rim" fill="#404040">
                        <set attributeName="fill" to="#808080" begin="arrowDown.mouseover" end="arrowDown.mouseout"/>
                  </use>
                  <path fill="none" stroke="white" stroke-width="1.5" d="M0,-3.0v7 M-2.5,-0.5L0,-3.0L2.5,-0.5"/>
                </g>
                <g id="arrowLeft" xlink:href="#dirArrow" transform="rotate(270) translate(-36 17)" onmousedown="handlePan(-1,0)">
                  <use xlink:href="#rim" fill="#404040">
                        <set attributeName="fill" to="#808080" begin="arrowLeft.mouseover" end="arrowLeft.mouseout"/>
                  </use>
                  <path fill="none" stroke="white" stroke-width="1.5" d="M0,-3.0v7 M-2.5,-0.5L0,-3.0L2.5,-0.5"/>
                </g>
        </g>
        <svg viewBox="0 0 15 15" width="100%" height="30px" preserveAspectRatio="xMaxYMin meet">
         <g id="arrow_out" transform="scale(0.3 0.3)">
          <a xlink:href="classQuantConnect_1_1SecurityIdentifier_a59bd74be4ec55a0e4631af9e10f65d7c_icgraph_org.svg" target="_base">
           <rect id="button" ry="5" rx="5" y="6" x="6" height="38" width="38"
                fill="#f2f5e9" fill-opacity="0.5" stroke="#606060" stroke-width="1.0"/>
           <path id="arrow"
             d="M 11.500037,31.436501 C 11.940474,20.09759 22.043105,11.32322 32.158766,21.979434 L 37.068811,17.246167 C 37.068811,17.246167 37.088388,32 37.088388,32 L 22.160133,31.978069 C 22.160133,31.978069 26.997745,27.140456 26.997745,27.140456 C 18.528582,18.264221 13.291696,25.230495 11.500037,31.436501 z"
             style="fill:#404040;"/>
          </a>
         </g>
        </svg>
</svg>
