<?xml version="1.0" encoding="UTF-8" standalone="no"?>
<!DOCTYPE svg PUBLIC "-//W3C//DTD SVG 1.1//EN"
 "http://www.w3.org/Graphics/SVG/1.1/DTD/svg11.dtd">
<!-- Generated by graphviz version 2.43.0 (0)
 -->
<!-- Title: QuantConnect.Algorithm.QCAlgorithm.VWAP Pages: 1 -->
<svg width="1184pt" height="112pt"
 viewBox="0.00 0.00 1184.00 112.00" xmlns="http://www.w3.org/2000/svg" xmlns:xlink="http://www.w3.org/1999/xlink">
<g id="graph0" class="graph" transform="scale(1 1) rotate(0) translate(4 108)">
<title>QuantConnect.Algorithm.QCAlgorithm.VWAP</title>
<polygon fill="white" stroke="transparent" points="-4,4 -4,-108 1180,-108 1180,4 -4,4"/>
<!-- Node1 -->
<g id="node1" class="node">
<title>Node1</title>
<g id="a_node1"><a xlink:title="Creates the canonical VWAP indicator that resets each day. The indicator will be automatically update...">
<polygon fill="#bfbfbf" stroke="black" points="0,-54 0,-73 233,-73 233,-54 0,-54"/>
<text text-anchor="middle" x="116.5" y="-61" font-family="Helvetica,sans-Serif" font-size="10.00">QuantConnect.Algorithm.QCAlgorithm.VWAP</text>
</a>
</g>
</g>
<!-- Node2 -->
<g id="node2" class="node">
<title>Node2</title>
<g id="a_node2"><a xlink:href="classQuantConnect_1_1Algorithm_1_1QCAlgorithm.html#a46d89a30b7e0513cf7a4ac77f3ca3fe5" target="_top" xlink:title="Creates a new name for an indicator created with the convenience functions (SMA, EMA,...">
<polygon fill="white" stroke="black" points="269,-73.5 269,-103.5 474,-103.5 474,-73.5 269,-73.5"/>
<text text-anchor="start" x="277" y="-91.5" font-family="Helvetica,sans-Serif" font-size="10.00">QuantConnect.Algorithm.QCAlgorithm.</text>
<text text-anchor="middle" x="371.5" y="-80.5" font-family="Helvetica,sans-Serif" font-size="10.00">CreateIndicatorName</text>
</a>
</g>
</g>
<!-- Node1&#45;&gt;Node2 -->
<g id="edge1" class="edge">
<title>Node1&#45;&gt;Node2</title>
<path fill="none" stroke="midnightblue" d="M213.87,-73.02C228.51,-74.47 243.71,-75.97 258.65,-77.45"/>
<polygon fill="midnightblue" stroke="midnightblue" points="258.63,-80.96 268.93,-78.46 259.32,-74 258.63,-80.96"/>
</g>
<!-- Node3 -->
<g id="node3" class="node">
<title>Node3</title>
<g id="a_node3"><a xlink:href="classQuantConnect_1_1Algorithm_1_1QCAlgorithm.html#a918f318ce76cdc3ed9efad235ff7481e" target="_top" xlink:title="Creates and registers a new consolidator to receive automatic updates at the specified resolution as ...">
<polygon fill="white" stroke="black" points="269,-24.5 269,-54.5 474,-54.5 474,-24.5 269,-24.5"/>
<text text-anchor="start" x="277" y="-42.5" font-family="Helvetica,sans-Serif" font-size="10.00">QuantConnect.Algorithm.QCAlgorithm.</text>
<text text-anchor="middle" x="371.5" y="-31.5" font-family="Helvetica,sans-Serif" font-size="10.00">RegisterIndicator</text>
</a>
</g>
</g>
<!-- Node1&#45;&gt;Node3 -->
<g id="edge2" class="edge">
<title>Node1&#45;&gt;Node3</title>
<path fill="none" stroke="midnightblue" d="M217.86,-53.98C231.16,-52.72 244.86,-51.42 258.35,-50.14"/>
<polygon fill="midnightblue" stroke="midnightblue" points="258.98,-53.59 268.61,-49.17 258.32,-46.63 258.98,-53.59"/>
</g>
<!-- Node4 -->
<g id="node4" class="node">
<title>Node4</title>
<g id="a_node4"><a xlink:href="classQuantConnect_1_1Algorithm_1_1QCAlgorithm.html#ade17e71e20d320dc9a1efa3ddf8aa3cd" target="_top" xlink:title="Gets the default consolidator for the specified symbol and resolution">
<polygon fill="white" stroke="black" points="510,-24.5 510,-54.5 715,-54.5 715,-24.5 510,-24.5"/>
<text text-anchor="start" x="518" y="-42.5" font-family="Helvetica,sans-Serif" font-size="10.00">QuantConnect.Algorithm.QCAlgorithm.</text>
<text text-anchor="middle" x="612.5" y="-31.5" font-family="Helvetica,sans-Serif" font-size="10.00">ResolveConsolidator</text>
</a>
</g>
</g>
<!-- Node3&#45;&gt;Node4 -->
<g id="edge3" class="edge">
<title>Node3&#45;&gt;Node4</title>
<path fill="none" stroke="midnightblue" d="M474.2,-39.5C482.7,-39.5 491.31,-39.5 499.87,-39.5"/>
<polygon fill="midnightblue" stroke="midnightblue" points="499.89,-43 509.89,-39.5 499.89,-36 499.89,-43"/>
</g>
<!-- Node5 -->
<g id="node5" class="node">
<title>Node5</title>
<g id="a_node5"><a xlink:href="classQuantConnect_1_1Algorithm_1_1QCAlgorithm.html#a656b1f8da059abe31170845a61834a09" target="_top" xlink:title="Creates a new consolidator for the specified period, generating the requested output type.">
<polygon fill="white" stroke="black" points="764,-49.5 764,-79.5 969,-79.5 969,-49.5 764,-49.5"/>
<text text-anchor="start" x="772" y="-67.5" font-family="Helvetica,sans-Serif" font-size="10.00">QuantConnect.Algorithm.QCAlgorithm.</text>
<text text-anchor="middle" x="866.5" y="-56.5" font-family="Helvetica,sans-Serif" font-size="10.00">CreateConsolidator</text>
</a>
</g>
</g>
<!-- Node4&#45;&gt;Node5 -->
<g id="edge4" class="edge">
<title>Node4&#45;&gt;Node5</title>
<path fill="none" stroke="midnightblue" d="M715.27,-49.6C727.88,-50.85 740.83,-52.13 753.58,-53.4"/>
<polygon fill="midnightblue" stroke="midnightblue" points="753.46,-56.9 763.76,-54.41 754.15,-49.94 753.46,-56.9"/>
</g>
<!-- Node6 -->
<g id="node6" class="node">
<title>Node6</title>
<g id="a_node6"><a xlink:href="classQuantConnect_1_1Util_1_1LeanData.html#adf1799b921849e0643385e6794ec2471" target="_top" xlink:title="Get the TickType for common Lean data types. If not a Lean common data type, return a TickType of Tra...">
<polygon fill="white" stroke="black" points="751,-0.5 751,-30.5 982,-30.5 982,-0.5 751,-0.5"/>
<text text-anchor="start" x="759" y="-18.5" font-family="Helvetica,sans-Serif" font-size="10.00">QuantConnect.Util.LeanData.</text>
<text text-anchor="middle" x="866.5" y="-7.5" font-family="Helvetica,sans-Serif" font-size="10.00">GetCommonTickTypeForCommonDataTypes</text>
</a>
</g>
</g>
<!-- Node4&#45;&gt;Node6 -->
<g id="edge5" class="edge">
<title>Node4&#45;&gt;Node6</title>
<path fill="none" stroke="midnightblue" d="M715.27,-29.81C723.72,-29 732.31,-28.18 740.9,-27.37"/>
<polygon fill="midnightblue" stroke="midnightblue" points="741.34,-30.84 750.96,-26.41 740.67,-23.87 741.34,-30.84"/>
</g>
<!-- Node7 -->
<g id="node7" class="node">
<title>Node7</title>
<g id="a_node7"><a xlink:href="classQuantConnect_1_1Util_1_1LeanData.html#a24869ac4b029b3f2d468596baab6d72d" target="_top" xlink:title="Gets the tick type most commonly associated with the specified security type">
<polygon fill="white" stroke="black" points="1018,-0.5 1018,-30.5 1176,-30.5 1176,-0.5 1018,-0.5"/>
<text text-anchor="start" x="1026" y="-18.5" font-family="Helvetica,sans-Serif" font-size="10.00">QuantConnect.Util.LeanData.</text>
<text text-anchor="middle" x="1097" y="-7.5" font-family="Helvetica,sans-Serif" font-size="10.00">GetCommonTickType</text>
</a>
</g>
</g>
<!-- Node6&#45;&gt;Node7 -->
<g id="edge6" class="edge">
<title>Node6&#45;&gt;Node7</title>
<path fill="none" stroke="midnightblue" d="M982.08,-15.5C990.71,-15.5 999.34,-15.5 1007.77,-15.5"/>
<polygon fill="midnightblue" stroke="midnightblue" points="1007.93,-19 1017.93,-15.5 1007.93,-12 1007.93,-19"/>
</g>
</g>
</svg>
