<?xml version="1.0" encoding="UTF-8" standalone="no"?>
<!DOCTYPE svg PUBLIC "-//W3C//DTD SVG 1.1//EN"
 "http://www.w3.org/Graphics/SVG/1.1/DTD/svg11.dtd">
<!-- Generated by graphviz version 2.43.0 (0)
 -->
<!-- Title: QuantConnect.Algorithm.QCAlgorithm.OptionChains Pages: 1 -->
<svg width="1151pt" height="209pt"
 viewBox="0.00 0.00 1151.00 208.50" xmlns="http://www.w3.org/2000/svg" xmlns:xlink="http://www.w3.org/1999/xlink">
<g id="graph0" class="graph" transform="scale(1 1) rotate(0) translate(4 204.5)">
<title>QuantConnect.Algorithm.QCAlgorithm.OptionChains</title>
<polygon fill="white" stroke="transparent" points="-4,4 -4,-204.5 1147,-204.5 1147,4 -4,4"/>
<!-- Node1 -->
<g id="node1" class="node">
<title>Node1</title>
<g id="a_node1"><a xlink:title="Get the option chains for the specified symbols at the current time (Time)">
<polygon fill="#bfbfbf" stroke="black" points="0,-49.5 0,-79.5 205,-79.5 205,-49.5 0,-49.5"/>
<text text-anchor="start" x="8" y="-67.5" font-family="Helvetica,sans-Serif" font-size="10.00">QuantConnect.Algorithm.QCAlgorithm.</text>
<text text-anchor="middle" x="102.5" y="-56.5" font-family="Helvetica,sans-Serif" font-size="10.00">OptionChains</text>
</a>
</g>
</g>
<!-- Node2 -->
<g id="node2" class="node">
<title>Node2</title>
<g id="a_node2"><a xlink:href="classQuantConnect_1_1Algorithm_1_1QCAlgorithm.html#ab0ce62f4aed3af8852c58a99cf3aa245" target="_top" xlink:title="Get the option chains for the specified symbols at the current time (Time)">
<polygon fill="white" stroke="black" points="241,-49.5 241,-79.5 446,-79.5 446,-49.5 241,-49.5"/>
<text text-anchor="start" x="249" y="-67.5" font-family="Helvetica,sans-Serif" font-size="10.00">QuantConnect.Algorithm.QCAlgorithm.</text>
<text text-anchor="middle" x="343.5" y="-56.5" font-family="Helvetica,sans-Serif" font-size="10.00">OptionChains</text>
</a>
</g>
</g>
<!-- Node1&#45;&gt;Node2 -->
<g id="edge1" class="edge">
<title>Node1&#45;&gt;Node2</title>
<path fill="none" stroke="midnightblue" d="M205.2,-64.5C213.7,-64.5 222.31,-64.5 230.87,-64.5"/>
<polygon fill="midnightblue" stroke="midnightblue" points="230.89,-68 240.89,-64.5 230.89,-61 230.89,-68"/>
</g>
<!-- Node3 -->
<g id="node3" class="node">
<title>Node3</title>
<g id="a_node3"><a xlink:href="interfaceQuantConnect_1_1Interfaces_1_1IOptionChainProvider.html#ae84aa4fcafd5bd9723724ffd4c8878ee" target="_top" xlink:title="Gets the list of option contracts for a given underlying symbol">
<polygon fill="white" stroke="black" points="498.5,-159 498.5,-200 670.5,-200 670.5,-159 498.5,-159"/>
<text text-anchor="start" x="506.5" y="-188" font-family="Helvetica,sans-Serif" font-size="10.00">QuantConnect.Interfaces.</text>
<text text-anchor="start" x="506.5" y="-177" font-family="Helvetica,sans-Serif" font-size="10.00">IOptionChainProvider.GetOption</text>
<text text-anchor="middle" x="584.5" y="-166" font-family="Helvetica,sans-Serif" font-size="10.00">ContractList</text>
</a>
</g>
</g>
<!-- Node2&#45;&gt;Node3 -->
<g id="edge2" class="edge">
<title>Node2&#45;&gt;Node3</title>
<path fill="none" stroke="midnightblue" d="M364.96,-79.58C391.01,-98.2 437.93,-129.79 482,-149.5 486.65,-151.58 491.48,-153.56 496.41,-155.44"/>
<polygon fill="midnightblue" stroke="midnightblue" points="495.37,-158.79 505.96,-158.93 497.77,-152.21 495.37,-158.79"/>
</g>
<!-- Node4 -->
<g id="node4" class="node">
<title>Node4</title>
<g id="a_node4"><a xlink:href="classQuantConnect_1_1Securities_1_1SymbolPropertiesDatabase.html#a3ea48557a7a885c2c53529f8c4b75598" target="_top" xlink:title="Gets the symbol properties for the specified market/symbol/security&#45;type">
<polygon fill="white" stroke="black" points="499.5,-99 499.5,-140 669.5,-140 669.5,-99 499.5,-99"/>
<text text-anchor="start" x="507.5" y="-128" font-family="Helvetica,sans-Serif" font-size="10.00">QuantConnect.Securities.</text>
<text text-anchor="start" x="507.5" y="-117" font-family="Helvetica,sans-Serif" font-size="10.00">SymbolPropertiesDatabase.Get</text>
<text text-anchor="middle" x="584.5" y="-106" font-family="Helvetica,sans-Serif" font-size="10.00">SymbolProperties</text>
</a>
</g>
</g>
<!-- Node2&#45;&gt;Node4 -->
<g id="edge3" class="edge">
<title>Node2&#45;&gt;Node4</title>
<path fill="none" stroke="midnightblue" d="M409.81,-79.53C434.43,-85.19 462.94,-91.76 489.65,-97.9"/>
<polygon fill="midnightblue" stroke="midnightblue" points="488.88,-101.32 499.41,-100.15 490.45,-94.49 488.88,-101.32"/>
</g>
<!-- Node8 -->
<g id="node8" class="node">
<title>Node8</title>
<g id="a_node8"><a xlink:href="classQuantConnect_1_1Algorithm_1_1QCAlgorithm.html#a446a10e68319fdc3c0b2ed85d80f55f8" target="_top" xlink:title="Get the history for all configured securities over the requested span. This will use the resolution a...">
<polygon fill="white" stroke="black" points="482,-49.5 482,-79.5 687,-79.5 687,-49.5 482,-49.5"/>
<text text-anchor="start" x="490" y="-67.5" font-family="Helvetica,sans-Serif" font-size="10.00">QuantConnect.Algorithm.QCAlgorithm.</text>
<text text-anchor="middle" x="584.5" y="-56.5" font-family="Helvetica,sans-Serif" font-size="10.00">History</text>
</a>
</g>
</g>
<!-- Node2&#45;&gt;Node8 -->
<g id="edge7" class="edge">
<title>Node2&#45;&gt;Node8</title>
<path fill="none" stroke="midnightblue" d="M446.2,-64.5C454.7,-64.5 463.31,-64.5 471.87,-64.5"/>
<polygon fill="midnightblue" stroke="midnightblue" points="471.89,-68 481.89,-64.5 471.89,-61 471.89,-68"/>
</g>
<!-- Node9 -->
<g id="node9" class="node">
<title>Node9</title>
<g id="a_node9"><a xlink:href="classQuantConnect_1_1Algorithm_1_1QCAlgorithm.html#aa259ba2e3bd6c96d4710fff0ccdd24e6" target="_top" xlink:title="Get the option chain for the specified symbol at the current time (Time)">
<polygon fill="white" stroke="black" points="482,-0.5 482,-30.5 687,-30.5 687,-0.5 482,-0.5"/>
<text text-anchor="start" x="490" y="-18.5" font-family="Helvetica,sans-Serif" font-size="10.00">QuantConnect.Algorithm.QCAlgorithm.</text>
<text text-anchor="middle" x="584.5" y="-7.5" font-family="Helvetica,sans-Serif" font-size="10.00">OptionChain</text>
</a>
</g>
</g>
<!-- Node2&#45;&gt;Node9 -->
<g id="edge8" class="edge">
<title>Node2&#45;&gt;Node9</title>
<path fill="none" stroke="midnightblue" d="M391.15,-49.46C414.24,-43.79 443.19,-37.44 471.58,-31.71"/>
<polygon fill="midnightblue" stroke="midnightblue" points="472.46,-35.1 481.58,-29.71 471.09,-28.24 472.46,-35.1"/>
</g>
<!-- Node5 -->
<g id="node5" class="node">
<title>Node5</title>
<g id="a_node5"><a xlink:href="classQuantConnect_1_1Securities_1_1MarketHoursDatabase.html#aa717adb9bb04be931913608ffd5a2733" target="_top" xlink:title="Gets the correct string symbol to use as a database key">
<polygon fill="white" stroke="black" points="723,-126 723,-167 915,-167 915,-126 723,-126"/>
<text text-anchor="start" x="731" y="-155" font-family="Helvetica,sans-Serif" font-size="10.00">QuantConnect.Securities.</text>
<text text-anchor="start" x="731" y="-144" font-family="Helvetica,sans-Serif" font-size="10.00">MarketHoursDatabase.GetDatabase</text>
<text text-anchor="middle" x="819" y="-133" font-family="Helvetica,sans-Serif" font-size="10.00">SymbolKey</text>
</a>
</g>
</g>
<!-- Node4&#45;&gt;Node5 -->
<g id="edge4" class="edge">
<title>Node4&#45;&gt;Node5</title>
<path fill="none" stroke="midnightblue" d="M669.77,-129.29C683.81,-130.92 698.53,-132.63 713.01,-134.31"/>
<polygon fill="midnightblue" stroke="midnightblue" points="712.65,-137.79 722.99,-135.47 713.46,-130.84 712.65,-137.79"/>
</g>
<!-- Node6 -->
<g id="node6" class="node">
<title>Node6</title>
<g id="a_node6"><a xlink:href="classQuantConnect_1_1Securities_1_1SymbolProperties.html#ad148190d1dfce7109d38d3107b7b8fbf" target="_top" xlink:title="Gets a default instance of the SymbolProperties class for the specified quoteCurrency">
<polygon fill="white" stroke="black" points="739.5,-76.5 739.5,-106.5 898.5,-106.5 898.5,-76.5 739.5,-76.5"/>
<text text-anchor="start" x="747.5" y="-94.5" font-family="Helvetica,sans-Serif" font-size="10.00">QuantConnect.Securities.</text>
<text text-anchor="middle" x="819" y="-83.5" font-family="Helvetica,sans-Serif" font-size="10.00">SymbolProperties.GetDefault</text>
</a>
</g>
</g>
<!-- Node4&#45;&gt;Node6 -->
<g id="edge5" class="edge">
<title>Node4&#45;&gt;Node6</title>
<path fill="none" stroke="midnightblue" d="M669.77,-109.35C689.13,-107.02 709.78,-104.53 729.33,-102.18"/>
<polygon fill="midnightblue" stroke="midnightblue" points="729.93,-105.63 739.44,-100.96 729.09,-98.68 729.93,-105.63"/>
</g>
<!-- Node7 -->
<g id="node7" class="node">
<title>Node7</title>
<g id="a_node7"><a xlink:href="classQuantConnect_1_1Securities_1_1SymbolProperties.html#a0f421617bcddd5b08a830689b1e2dcfa" target="_top" xlink:title="Creates an instance of the SymbolProperties class">
<polygon fill="white" stroke="black" points="951,-76.5 951,-106.5 1143,-106.5 1143,-76.5 951,-76.5"/>
<text text-anchor="start" x="959" y="-94.5" font-family="Helvetica,sans-Serif" font-size="10.00">QuantConnect.Securities.</text>
<text text-anchor="middle" x="1047" y="-83.5" font-family="Helvetica,sans-Serif" font-size="10.00">SymbolProperties.SymbolProperties</text>
</a>
</g>
</g>
<!-- Node6&#45;&gt;Node7 -->
<g id="edge6" class="edge">
<title>Node6&#45;&gt;Node7</title>
<path fill="none" stroke="midnightblue" d="M898.73,-91.5C912.26,-91.5 926.51,-91.5 940.61,-91.5"/>
<polygon fill="midnightblue" stroke="midnightblue" points="940.83,-95 950.83,-91.5 940.83,-88 940.83,-95"/>
</g>
<!-- Node9&#45;&gt;Node2 -->
<g id="edge9" class="edge">
<title>Node9&#45;&gt;Node2</title>
<path fill="none" stroke="midnightblue" d="M536.77,-30.57C513.64,-36.24 484.63,-42.6 456.22,-48.33"/>
<polygon fill="midnightblue" stroke="midnightblue" points="455.33,-44.94 446.2,-50.33 456.7,-51.81 455.33,-44.94"/>
</g>
</g>
</svg>
