<?xml version="1.0" encoding="UTF-8" standalone="no"?>
<!DOCTYPE svg PUBLIC "-//W3C//DTD SVG 1.1//EN"
 "http://www.w3.org/Graphics/SVG/1.1/DTD/svg11.dtd">
<!-- Generated by graphviz version 2.43.0 (0)
 -->
<!-- Title: QuantConnect.Data.Custom.Tiingo.TiingoDailyData Pages: 1 -->
<svg width="179pt" height="319pt"
 viewBox="0.00 0.00 179.00 319.00" xmlns="http://www.w3.org/2000/svg" xmlns:xlink="http://www.w3.org/1999/xlink">
<g id="graph0" class="graph" transform="scale(1 1) rotate(0) translate(4 315)">
<title>QuantConnect.Data.Custom.Tiingo.TiingoDailyData</title>
<polygon fill="white" stroke="transparent" points="-4,4 -4,-315 175,-315 175,4 -4,4"/>
<!-- Node1 -->
<g id="node1" class="node">
<title>Node1</title>
<g id="a_node1"><a xlink:title="Tiingo daily price data https://api.tiingo.com/docs/tiingo/daily">
<polygon fill="#bfbfbf" stroke="black" points="10,-0.5 10,-30.5 165,-30.5 165,-0.5 10,-0.5"/>
<text text-anchor="start" x="18" y="-18.5" font-family="Helvetica,sans-Serif" font-size="10.00">QuantConnect.Data.Custom.</text>
<text text-anchor="middle" x="87.5" y="-7.5" font-family="Helvetica,sans-Serif" font-size="10.00">Tiingo.TiingoDailyData</text>
</a>
</g>
</g>
<!-- Node2 -->
<g id="node2" class="node">
<title>Node2</title>
<g id="a_node2"><a xlink:href="classQuantConnect_1_1Data_1_1Custom_1_1Tiingo_1_1TiingoPrice.html" target="_top" xlink:title="Tiingo daily price data https://api.tiingo.com/docs/tiingo/daily">
<polygon fill="white" stroke="black" points="52,-67.5 52,-86.5 123,-86.5 123,-67.5 52,-67.5"/>
<text text-anchor="middle" x="87.5" y="-74.5" font-family="Helvetica,sans-Serif" font-size="10.00">TiingoPrice</text>
</a>
</g>
</g>
<!-- Node2&#45;&gt;Node1 -->
<g id="edge1" class="edge">
<title>Node2&#45;&gt;Node1</title>
<path fill="none" stroke="midnightblue" d="M87.5,-57.23C87.5,-48.59 87.5,-38.5 87.5,-30.52"/>
<polygon fill="midnightblue" stroke="midnightblue" points="84,-57.48 87.5,-67.48 91,-57.48 84,-57.48"/>
</g>
<!-- Node3 -->
<g id="node3" class="node">
<title>Node3</title>
<g id="a_node3"><a xlink:href="classQuantConnect_1_1Data_1_1Market_1_1TradeBar.html" target="_top" xlink:title="TradeBar class for second and minute resolution data: An OHLC implementation of the QuantConnect Base...">
<polygon fill="white" stroke="black" points="58,-123.5 58,-142.5 117,-142.5 117,-123.5 58,-123.5"/>
<text text-anchor="middle" x="87.5" y="-130.5" font-family="Helvetica,sans-Serif" font-size="10.00">TradeBar</text>
</a>
</g>
</g>
<!-- Node3&#45;&gt;Node2 -->
<g id="edge2" class="edge">
<title>Node3&#45;&gt;Node2</title>
<path fill="none" stroke="midnightblue" d="M87.5,-112.8C87.5,-103.91 87.5,-93.78 87.5,-86.75"/>
<polygon fill="midnightblue" stroke="midnightblue" points="84,-113.08 87.5,-123.08 91,-113.08 84,-113.08"/>
</g>
<!-- Node4 -->
<g id="node4" class="node">
<title>Node4</title>
<g id="a_node4"><a xlink:href="classQuantConnect_1_1Data_1_1BaseData.html" target="_top" xlink:title="Abstract base data class of QuantConnect. It is intended to be extended to define generic user custom...">
<polygon fill="white" stroke="black" points="101.5,-179.5 101.5,-198.5 165.5,-198.5 165.5,-179.5 101.5,-179.5"/>
<text text-anchor="middle" x="133.5" y="-186.5" font-family="Helvetica,sans-Serif" font-size="10.00">BaseData</text>
</a>
</g>
</g>
<!-- Node4&#45;&gt;Node3 -->
<g id="edge3" class="edge">
<title>Node4&#45;&gt;Node3</title>
<path fill="none" stroke="midnightblue" d="M119.39,-171.43C111.32,-161.97 101.54,-150.48 94.95,-142.75"/>
<polygon fill="midnightblue" stroke="midnightblue" points="116.75,-173.74 125.9,-179.08 122.08,-169.2 116.75,-173.74"/>
</g>
<!-- Node5 -->
<g id="node5" class="node">
<title>Node5</title>
<g id="a_node5"><a xlink:href="interfaceQuantConnect_1_1Data_1_1IBaseData.html" target="_top" xlink:title="Base Data Class: Type, Timestamp, Key – Base Features.">
<polygon fill="white" stroke="black" points="89,-235.5 89,-254.5 156,-254.5 156,-235.5 89,-235.5"/>
<text text-anchor="middle" x="122.5" y="-242.5" font-family="Helvetica,sans-Serif" font-size="10.00">IBaseData</text>
</a>
</g>
</g>
<!-- Node5&#45;&gt;Node4 -->
<g id="edge4" class="edge">
<title>Node5&#45;&gt;Node4</title>
<path fill="none" stroke="midnightblue" d="M126.35,-225.1C128.18,-216.14 130.27,-205.86 131.72,-198.75"/>
<polygon fill="midnightblue" stroke="midnightblue" points="122.88,-224.59 124.32,-235.08 129.74,-225.98 122.88,-224.59"/>
</g>
<!-- Node7 -->
<g id="node7" class="node">
<title>Node7</title>
<g id="a_node7"><a xlink:href="interfaceQuantConnect_1_1Data_1_1Market_1_1IBaseDataBar.html" target="_top" xlink:title="Represents a type that is both a bar and base data">
<polygon fill="white" stroke="black" points="0,-179.5 0,-198.5 83,-198.5 83,-179.5 0,-179.5"/>
<text text-anchor="middle" x="41.5" y="-186.5" font-family="Helvetica,sans-Serif" font-size="10.00">IBaseDataBar</text>
</a>
</g>
</g>
<!-- Node5&#45;&gt;Node7 -->
<g id="edge7" class="edge">
<title>Node5&#45;&gt;Node7</title>
<path fill="none" stroke="midnightblue" d="M100.93,-229.62C86.14,-219.76 66.99,-206.99 54.48,-198.65"/>
<polygon fill="midnightblue" stroke="midnightblue" points="99.22,-232.69 109.49,-235.32 103.11,-226.86 99.22,-232.69"/>
</g>
<!-- Node6 -->
<g id="node6" class="node">
<title>Node6</title>
<g id="a_node6"><a xlink:href="interfaceQuantConnect_1_1Data_1_1ISymbolProvider.html" target="_top" xlink:title="Base data with a symbol">
<polygon fill="white" stroke="black" points="74,-291.5 74,-310.5 171,-310.5 171,-291.5 74,-291.5"/>
<text text-anchor="middle" x="122.5" y="-298.5" font-family="Helvetica,sans-Serif" font-size="10.00">ISymbolProvider</text>
</a>
</g>
</g>
<!-- Node6&#45;&gt;Node5 -->
<g id="edge5" class="edge">
<title>Node6&#45;&gt;Node5</title>
<path fill="none" stroke="midnightblue" d="M122.5,-280.8C122.5,-271.91 122.5,-261.78 122.5,-254.75"/>
<polygon fill="midnightblue" stroke="midnightblue" points="119,-281.08 122.5,-291.08 126,-281.08 119,-281.08"/>
</g>
<!-- Node7&#45;&gt;Node3 -->
<g id="edge6" class="edge">
<title>Node7&#45;&gt;Node3</title>
<path fill="none" stroke="midnightblue" d="M55.61,-171.43C63.68,-161.97 73.46,-150.48 80.05,-142.75"/>
<polygon fill="midnightblue" stroke="midnightblue" points="52.92,-169.2 49.1,-179.08 58.25,-173.74 52.92,-169.2"/>
</g>
<!-- Node8 -->
<g id="node8" class="node">
<title>Node8</title>
<g id="a_node8"><a xlink:href="interfaceQuantConnect_1_1Data_1_1Market_1_1IBar.html" target="_top" xlink:title="Generic bar interface with Open, High, Low and Close.">
<polygon fill="white" stroke="black" points="23.5,-235.5 23.5,-254.5 59.5,-254.5 59.5,-235.5 23.5,-235.5"/>
<text text-anchor="middle" x="41.5" y="-242.5" font-family="Helvetica,sans-Serif" font-size="10.00">IBar</text>
</a>
</g>
</g>
<!-- Node8&#45;&gt;Node7 -->
<g id="edge8" class="edge">
<title>Node8&#45;&gt;Node7</title>
<path fill="none" stroke="midnightblue" d="M41.5,-224.8C41.5,-215.91 41.5,-205.78 41.5,-198.75"/>
<polygon fill="midnightblue" stroke="midnightblue" points="38,-225.08 41.5,-235.08 45,-225.08 38,-225.08"/>
</g>
</g>
</svg>
