<?xml version="1.0" encoding="UTF-8" standalone="no"?>
<!DOCTYPE svg PUBLIC "-//W3C//DTD SVG 1.1//EN"
 "http://www.w3.org/Graphics/SVG/1.1/DTD/svg11.dtd">
<!-- Generated by graphviz version 2.43.0 (0)
 -->
<!-- Title: QuantConnect.Lean.Engine.DataFeeds.ProcessedDataProvider Pages: 1 -->
<svg width="193pt" height="95pt"
 viewBox="0.00 0.00 193.00 95.00" xmlns="http://www.w3.org/2000/svg" xmlns:xlink="http://www.w3.org/1999/xlink">
<g id="graph0" class="graph" transform="scale(1 1) rotate(0) translate(4 91)">
<title>QuantConnect.Lean.Engine.DataFeeds.ProcessedDataProvider</title>
<polygon fill="white" stroke="transparent" points="-4,4 -4,-91 189,-91 189,4 -4,4"/>
<!-- Node1 -->
<g id="node1" class="node">
<title>Node1</title>
<g id="a_node1"><a xlink:title="A data provider that will check the processed data folder first">
<polygon fill="#bfbfbf" stroke="black" points="0,-0.5 0,-30.5 185,-30.5 185,-0.5 0,-0.5"/>
<text text-anchor="start" x="8" y="-18.5" font-family="Helvetica,sans-Serif" font-size="10.00">QuantConnect.Lean.Engine.</text>
<text text-anchor="middle" x="92.5" y="-7.5" font-family="Helvetica,sans-Serif" font-size="10.00">DataFeeds.ProcessedDataProvider</text>
</a>
</g>
</g>
<!-- Node2 -->
<g id="node2" class="node">
<title>Node2</title>
<g id="a_node2"><a xlink:href="interfaceQuantConnect_1_1Interfaces_1_1IDataProvider.html" target="_top" xlink:title="Fetches a remote file for a security. Must save the file to Globals.DataFolder.">
<polygon fill="white" stroke="black" points="3,-67.5 3,-86.5 86,-86.5 86,-67.5 3,-67.5"/>
<text text-anchor="middle" x="44.5" y="-74.5" font-family="Helvetica,sans-Serif" font-size="10.00">IDataProvider</text>
</a>
</g>
</g>
<!-- Node2&#45;&gt;Node1 -->
<g id="edge1" class="edge">
<title>Node2&#45;&gt;Node1</title>
<path fill="none" stroke="midnightblue" d="M57.79,-59.53C65.14,-50.42 74.18,-39.21 81.19,-30.52"/>
<polygon fill="midnightblue" stroke="midnightblue" points="54.93,-57.49 51.38,-67.48 60.38,-61.89 54.93,-57.49"/>
</g>
<!-- Node3 -->
<g id="node3" class="node">
<title>Node3</title>
<g id="a_node3"><a xlink:title=" ">
<polygon fill="white" stroke="#bfbfbf" points="104.5,-67.5 104.5,-86.5 178.5,-86.5 178.5,-67.5 104.5,-67.5"/>
<text text-anchor="middle" x="141.5" y="-74.5" font-family="Helvetica,sans-Serif" font-size="10.00">IDisposable</text>
</a>
</g>
</g>
<!-- Node3&#45;&gt;Node1 -->
<g id="edge2" class="edge">
<title>Node3&#45;&gt;Node1</title>
<path fill="none" stroke="midnightblue" d="M127.94,-59.53C120.43,-50.42 111.21,-39.21 104.05,-30.52"/>
<polygon fill="midnightblue" stroke="midnightblue" points="125.42,-61.98 134.48,-67.48 130.82,-57.53 125.42,-61.98"/>
</g>
</g>
</svg>
