<?xml version="1.0" encoding="UTF-8" standalone="no"?>
<!DOCTYPE svg PUBLIC "-//W3C//DTD SVG 1.1//EN"
 "http://www.w3.org/Graphics/SVG/1.1/DTD/svg11.dtd">
<!-- Generated by graphviz version 2.43.0 (0)
 -->
<!-- Title: QuantConnect.Lean.Engine.Server.LocalLeanManager.SetCommandHandler Pages: 1 -->
<svg width="454pt" height="50pt"
 viewBox="0.00 0.00 454.00 50.00" xmlns="http://www.w3.org/2000/svg" xmlns:xlink="http://www.w3.org/1999/xlink">
<g id="graph0" class="graph" transform="scale(1 1) rotate(0) translate(4 46)">
<title>QuantConnect.Lean.Engine.Server.LocalLeanManager.SetCommandHandler</title>
<polygon fill="white" stroke="transparent" points="-4,4 -4,-46 450,-46 450,4 -4,4"/>
<!-- Node1 -->
<g id="node1" class="node">
<title>Node1</title>
<g id="a_node1"><a xlink:title="Set the command handler to use, protected for testing purposes">
<polygon fill="#bfbfbf" stroke="black" points="0,-0.5 0,-41.5 210,-41.5 210,-0.5 0,-0.5"/>
<text text-anchor="start" x="8" y="-29.5" font-family="Helvetica,sans-Serif" font-size="10.00">QuantConnect.Lean.Engine.</text>
<text text-anchor="start" x="8" y="-18.5" font-family="Helvetica,sans-Serif" font-size="10.00">Server.LocalLeanManager.SetCommand</text>
<text text-anchor="middle" x="105" y="-7.5" font-family="Helvetica,sans-Serif" font-size="10.00">Handler</text>
</a>
</g>
</g>
<!-- Node2 -->
<g id="node2" class="node">
<title>Node2</title>
<g id="a_node2"><a xlink:href="interfaceQuantConnect_1_1Commands_1_1ICommandHandler.html#a725c2f2ac1e353ac19e232a414b8902c" target="_top" xlink:title="Initializes this command queue for the specified job">
<polygon fill="white" stroke="black" points="246,-6 246,-36 446,-36 446,-6 246,-6"/>
<text text-anchor="start" x="254" y="-24" font-family="Helvetica,sans-Serif" font-size="10.00">QuantConnect.Commands.ICommand</text>
<text text-anchor="middle" x="346" y="-13" font-family="Helvetica,sans-Serif" font-size="10.00">Handler.Initialize</text>
</a>
</g>
</g>
<!-- Node1&#45;&gt;Node2 -->
<g id="edge1" class="edge">
<title>Node1&#45;&gt;Node2</title>
<path fill="none" stroke="midnightblue" d="M210.13,-21C218.54,-21 227.05,-21 235.49,-21"/>
<polygon fill="midnightblue" stroke="midnightblue" points="235.75,-24.5 245.75,-21 235.75,-17.5 235.75,-24.5"/>
</g>
</g>
</svg>
