<?xml version="1.0" encoding="UTF-8" standalone="no"?>
<!DOCTYPE svg PUBLIC "-//W3C//DTD SVG 1.1//EN"
 "http://www.w3.org/Graphics/SVG/1.1/DTD/svg11.dtd">
<!-- Generated by graphviz version 2.43.0 (0)
 -->
<!-- Title: Graphical Class Hierarchy Pages: 1 -->
<svg width="489pt" height="259pt"
 viewBox="0.00 0.00 489.00 258.50" xmlns="http://www.w3.org/2000/svg" xmlns:xlink="http://www.w3.org/1999/xlink">
<g id="graph0" class="graph" transform="scale(1 1) rotate(0) translate(4 254.5)">
<title>Graphical Class Hierarchy</title>
<polygon fill="white" stroke="transparent" points="-4,4 -4,-254.5 485,-254.5 485,4 -4,4"/>
<!-- Node2732 -->
<g id="node1" class="node">
<title>Node2732</title>
<g id="a_node1"><a xlink:href="classQuantConnect_1_1Python_1_1BasePythonWrapper.html" target="_top" xlink:title=" ">
<polygon fill="white" stroke="black" points="0,-220 0,-250 206,-250 206,-220 0,-220"/>
<text text-anchor="start" x="8" y="-238" font-family="Helvetica,sans-Serif" font-size="10.00">QuantConnect.Python.Base</text>
<text text-anchor="middle" x="103" y="-227" font-family="Helvetica,sans-Serif" font-size="10.00">PythonWrapper&lt; IPortfolioOptimizer &gt;</text>
</a>
</g>
</g>
<!-- Node3 -->
<g id="node2" class="node">
<title>Node3</title>
<g id="a_node2"><a xlink:href="classQuantConnect_1_1Algorithm_1_1Framework_1_1Portfolio_1_1PortfolioOptimizerPythonWrapper.html" target="_top" xlink:title="Python wrapper for custom portfolio optimizer">
<polygon fill="white" stroke="black" points="249,-220 249,-250 474,-250 474,-220 249,-220"/>
<text text-anchor="start" x="257" y="-238" font-family="Helvetica,sans-Serif" font-size="10.00">QuantConnect.Algorithm.Framework.</text>
<text text-anchor="middle" x="361.5" y="-227" font-family="Helvetica,sans-Serif" font-size="10.00">Portfolio.PortfolioOptimizerPythonWrapper</text>
</a>
</g>
</g>
<!-- Node2732&#45;&gt;Node3 -->
<g id="edge1" class="edge">
<title>Node2732&#45;&gt;Node3</title>
<path fill="none" stroke="midnightblue" d="M216.33,-235C227.04,-235 237.91,-235 248.62,-235"/>
<polygon fill="midnightblue" stroke="midnightblue" points="216.11,-231.5 206.11,-235 216.11,-238.5 216.11,-231.5"/>
</g>
<!-- Node0 -->
<g id="node3" class="node">
<title>Node0</title>
<g id="a_node3"><a xlink:href="interfaceQuantConnect_1_1Algorithm_1_1Framework_1_1Portfolio_1_1IPortfolioOptimizer.html" target="_top" xlink:title="Interface for portfolio optimization algorithms">
<polygon fill="white" stroke="black" points="4.5,-110 4.5,-140 201.5,-140 201.5,-110 4.5,-110"/>
<text text-anchor="start" x="12.5" y="-128" font-family="Helvetica,sans-Serif" font-size="10.00">QuantConnect.Algorithm.Framework.</text>
<text text-anchor="middle" x="103" y="-117" font-family="Helvetica,sans-Serif" font-size="10.00">Portfolio.IPortfolioOptimizer</text>
</a>
</g>
</g>
<!-- Node0&#45;&gt;Node3 -->
<g id="edge4" class="edge">
<title>Node0&#45;&gt;Node3</title>
<path fill="none" stroke="midnightblue" d="M132.01,-146.28C158.85,-165.68 201.21,-193.71 242,-210 251.67,-213.86 262.02,-217.16 272.44,-219.98"/>
<polygon fill="midnightblue" stroke="midnightblue" points="133.99,-143.4 123.86,-140.32 129.86,-149.05 133.99,-143.4"/>
</g>
<!-- Node1 -->
<g id="node4" class="node">
<title>Node1</title>
<g id="a_node4"><a xlink:href="classQuantConnect_1_1Algorithm_1_1Framework_1_1Portfolio_1_1MaximumSharpeRatioPortfolioOptimizer.html" target="_top" xlink:title="Provides an implementation of a portfolio optimizer that maximizes the portfolio Sharpe Ratio....">
<polygon fill="white" stroke="black" points="256,-159.5 256,-200.5 467,-200.5 467,-159.5 256,-159.5"/>
<text text-anchor="start" x="264" y="-188.5" font-family="Helvetica,sans-Serif" font-size="10.00">QuantConnect.Algorithm.Framework.</text>
<text text-anchor="start" x="264" y="-177.5" font-family="Helvetica,sans-Serif" font-size="10.00">Portfolio.MaximumSharpeRatioPortfolio</text>
<text text-anchor="middle" x="361.5" y="-166.5" font-family="Helvetica,sans-Serif" font-size="10.00">Optimizer</text>
</a>
</g>
</g>
<!-- Node0&#45;&gt;Node1 -->
<g id="edge2" class="edge">
<title>Node0&#45;&gt;Node1</title>
<path fill="none" stroke="midnightblue" d="M184.07,-142.17C209.57,-147.64 238.03,-153.74 264.53,-159.42"/>
<polygon fill="midnightblue" stroke="midnightblue" points="184.6,-138.7 174.09,-140.03 183.13,-145.55 184.6,-138.7"/>
</g>
<!-- Node2 -->
<g id="node5" class="node">
<title>Node2</title>
<g id="a_node5"><a xlink:href="classQuantConnect_1_1Algorithm_1_1Framework_1_1Portfolio_1_1MinimumVariancePortfolioOptimizer.html" target="_top" xlink:title="Provides an implementation of a minimum variance portfolio optimizer that calculate the optimal weigh...">
<polygon fill="white" stroke="black" points="242,-110 242,-140 481,-140 481,-110 242,-110"/>
<text text-anchor="start" x="250" y="-128" font-family="Helvetica,sans-Serif" font-size="10.00">QuantConnect.Algorithm.Framework.</text>
<text text-anchor="middle" x="361.5" y="-117" font-family="Helvetica,sans-Serif" font-size="10.00">Portfolio.MinimumVariancePortfolioOptimizer</text>
</a>
</g>
</g>
<!-- Node0&#45;&gt;Node2 -->
<g id="edge3" class="edge">
<title>Node0&#45;&gt;Node2</title>
<path fill="none" stroke="midnightblue" d="M211.97,-125C221.88,-125 231.97,-125 241.97,-125"/>
<polygon fill="midnightblue" stroke="midnightblue" points="211.7,-121.5 201.7,-125 211.7,-128.5 211.7,-121.5"/>
</g>
<!-- Node4 -->
<g id="node6" class="node">
<title>Node4</title>
<g id="a_node6"><a xlink:href="classQuantConnect_1_1Algorithm_1_1Framework_1_1Portfolio_1_1RiskParityPortfolioOptimizer.html" target="_top" xlink:title="Provides an implementation of a risk parity portfolio optimizer that calculate the optimal weights wi...">
<polygon fill="white" stroke="black" points="262,-61 262,-91 461,-91 461,-61 262,-61"/>
<text text-anchor="start" x="270" y="-79" font-family="Helvetica,sans-Serif" font-size="10.00">QuantConnect.Algorithm.Framework.</text>
<text text-anchor="middle" x="361.5" y="-68" font-family="Helvetica,sans-Serif" font-size="10.00">Portfolio.RiskParityPortfolioOptimizer</text>
</a>
</g>
</g>
<!-- Node0&#45;&gt;Node4 -->
<g id="edge5" class="edge">
<title>Node0&#45;&gt;Node4</title>
<path fill="none" stroke="midnightblue" d="M192.82,-108.03C221.81,-102.5 253.77,-96.39 281.95,-91.01"/>
<polygon fill="midnightblue" stroke="midnightblue" points="191.87,-104.65 182.7,-109.97 193.18,-111.53 191.87,-104.65"/>
</g>
<!-- Node5 -->
<g id="node7" class="node">
<title>Node5</title>
<g id="a_node7"><a xlink:href="classQuantConnect_1_1Algorithm_1_1Framework_1_1Portfolio_1_1UnconstrainedMeanVariancePortfolioOptimizer.html" target="_top" xlink:title="Provides an implementation of a portfolio optimizer with unconstrained mean variance.">
<polygon fill="white" stroke="black" points="261.5,-0.5 261.5,-41.5 461.5,-41.5 461.5,-0.5 261.5,-0.5"/>
<text text-anchor="start" x="269.5" y="-29.5" font-family="Helvetica,sans-Serif" font-size="10.00">QuantConnect.Algorithm.Framework.</text>
<text text-anchor="start" x="269.5" y="-18.5" font-family="Helvetica,sans-Serif" font-size="10.00">Portfolio.UnconstrainedMeanVariance</text>
<text text-anchor="middle" x="361.5" y="-7.5" font-family="Helvetica,sans-Serif" font-size="10.00">PortfolioOptimizer</text>
</a>
</g>
</g>
<!-- Node0&#45;&gt;Node5 -->
<g id="edge6" class="edge">
<title>Node0&#45;&gt;Node5</title>
<path fill="none" stroke="midnightblue" d="M136.8,-104.45C164.1,-88.09 204.43,-65.58 242,-51 250.9,-47.55 260.34,-44.38 269.84,-41.51"/>
<polygon fill="midnightblue" stroke="midnightblue" points="134.8,-101.57 128.06,-109.75 138.43,-107.56 134.8,-101.57"/>
</g>
</g>
</svg>
