<?xml version="1.0" encoding="UTF-8" standalone="no"?>
<!DOCTYPE svg PUBLIC "-//W3C//DTD SVG 1.1//EN"
 "http://www.w3.org/Graphics/SVG/1.1/DTD/svg11.dtd">
<!-- Generated by graphviz version 2.43.0 (0)
 -->
<!-- Title: Graphical Class Hierarchy Pages: 1 -->
<svg width="745pt" height="406pt"
 viewBox="0.00 0.00 745.00 406.00" xmlns="http://www.w3.org/2000/svg" xmlns:xlink="http://www.w3.org/1999/xlink">
<g id="graph0" class="graph" transform="scale(1 1) rotate(0) translate(4 402)">
<title>Graphical Class Hierarchy</title>
<polygon fill="white" stroke="transparent" points="-4,4 -4,-402 741,-402 741,4 -4,4"/>
<!-- Node2540 -->
<g id="node1" class="node">
<title>Node2540</title>
<g id="a_node1"><a xlink:title=" ">
<polygon fill="white" stroke="#bfbfbf" points="24,-248 24,-267 116,-267 116,-248 24,-248"/>
<text text-anchor="middle" x="70" y="-255" font-family="Helvetica,sans-Serif" font-size="10.00">DynamicObject</text>
</a>
</g>
</g>
<!-- Node2541 -->
<g id="node2" class="node">
<title>Node2541</title>
<g id="a_node2"><a xlink:href="classQuantConnect_1_1Commands_1_1Command.html" target="_top" xlink:title="Base generic dynamic command class">
<polygon fill="white" stroke="black" points="176,-343 176,-362 373,-362 373,-343 176,-343"/>
<text text-anchor="middle" x="274.5" y="-350" font-family="Helvetica,sans-Serif" font-size="10.00">QuantConnect.Commands.Command</text>
</a>
</g>
</g>
<!-- Node2540&#45;&gt;Node2541 -->
<g id="edge1" class="edge">
<title>Node2540&#45;&gt;Node2541</title>
<path fill="none" stroke="midnightblue" d="M88.64,-274.04C108.37,-291.58 142.04,-318.76 176,-333.5 184.94,-337.38 194.68,-340.47 204.44,-342.94"/>
<polygon fill="midnightblue" stroke="midnightblue" points="90.83,-271.3 81.08,-267.17 86.13,-276.49 90.83,-271.3"/>
</g>
<!-- Node5 -->
<g id="node3" class="node">
<title>Node5</title>
<g id="a_node3"><a xlink:href="classQuantConnect_1_1Securities_1_1Security.html" target="_top" xlink:title="A base vehicle properties class for providing a common interface to all assets in QuantConnect.">
<polygon fill="white" stroke="black" points="204.5,-195.5 204.5,-225.5 344.5,-225.5 344.5,-195.5 204.5,-195.5"/>
<text text-anchor="start" x="212.5" y="-213.5" font-family="Helvetica,sans-Serif" font-size="10.00">QuantConnect.Securities.</text>
<text text-anchor="middle" x="274.5" y="-202.5" font-family="Helvetica,sans-Serif" font-size="10.00">Security</text>
</a>
</g>
</g>
<!-- Node2540&#45;&gt;Node5 -->
<g id="edge2" class="edge">
<title>Node2540&#45;&gt;Node5</title>
<path fill="none" stroke="midnightblue" d="M121.75,-245.72C148.08,-239.61 180.53,-232.08 208.66,-225.55"/>
<polygon fill="midnightblue" stroke="midnightblue" points="120.93,-242.32 111.98,-247.99 122.51,-249.14 120.93,-242.32"/>
</g>
<!-- Node6 -->
<g id="node4" class="node">
<title>Node6</title>
<g id="a_node4"><a xlink:href="classQuantConnect_1_1Securities_1_1Cfd_1_1Cfd.html" target="_top" xlink:title="CFD Security Object Implementation for CFD Assets">
<polygon fill="white" stroke="black" points="412,-220.5 412,-250.5 552,-250.5 552,-220.5 412,-220.5"/>
<text text-anchor="start" x="420" y="-238.5" font-family="Helvetica,sans-Serif" font-size="10.00">QuantConnect.Securities.</text>
<text text-anchor="middle" x="482" y="-227.5" font-family="Helvetica,sans-Serif" font-size="10.00">Cfd.Cfd</text>
</a>
</g>
</g>
<!-- Node5&#45;&gt;Node6 -->
<g id="edge3" class="edge">
<title>Node5&#45;&gt;Node6</title>
<path fill="none" stroke="midnightblue" d="M354.55,-220.12C373.43,-222.41 393.44,-224.85 411.83,-227.09"/>
<polygon fill="midnightblue" stroke="midnightblue" points="354.85,-216.63 344.5,-218.89 354,-223.58 354.85,-216.63"/>
</g>
<!-- Node7 -->
<g id="node5" class="node">
<title>Node7</title>
<g id="a_node5"><a xlink:href="classQuantConnect_1_1Securities_1_1Crypto_1_1Crypto.html" target="_top" xlink:title="Crypto Security Object Implementation for Crypto Assets">
<polygon fill="white" stroke="black" points="412,-367.5 412,-397.5 552,-397.5 552,-367.5 412,-367.5"/>
<text text-anchor="start" x="420" y="-385.5" font-family="Helvetica,sans-Serif" font-size="10.00">QuantConnect.Securities.</text>
<text text-anchor="middle" x="482" y="-374.5" font-family="Helvetica,sans-Serif" font-size="10.00">Crypto.Crypto</text>
</a>
</g>
</g>
<!-- Node5&#45;&gt;Node7 -->
<g id="edge4" class="edge">
<title>Node5&#45;&gt;Node7</title>
<path fill="none" stroke="midnightblue" d="M310.47,-231.18C330.69,-244.46 355.5,-263.18 373,-284.5 396.2,-312.77 381.5,-334.39 409,-358.5 412.96,-361.97 417.44,-364.95 422.19,-367.5"/>
<polygon fill="midnightblue" stroke="midnightblue" points="312.14,-228.09 301.83,-225.65 308.37,-233.99 312.14,-228.09"/>
</g>
<!-- Node8 -->
<g id="node6" class="node">
<title>Node8</title>
<g id="a_node6"><a xlink:href="classQuantConnect_1_1Securities_1_1CryptoFuture_1_1CryptoFuture.html" target="_top" xlink:title="Crypto Future Security Object Implementation for Crypto Future Assets">
<polygon fill="white" stroke="black" points="409,-318.5 409,-348.5 555,-348.5 555,-318.5 409,-318.5"/>
<text text-anchor="start" x="417" y="-336.5" font-family="Helvetica,sans-Serif" font-size="10.00">QuantConnect.Securities.</text>
<text text-anchor="middle" x="482" y="-325.5" font-family="Helvetica,sans-Serif" font-size="10.00">CryptoFuture.CryptoFuture</text>
</a>
</g>
</g>
<!-- Node5&#45;&gt;Node8 -->
<g id="edge5" class="edge">
<title>Node5&#45;&gt;Node8</title>
<path fill="none" stroke="midnightblue" d="M303.23,-231.79C338.93,-259.09 397.74,-303.64 409,-309.5 415.31,-312.79 422.16,-315.75 429.05,-318.39"/>
<polygon fill="midnightblue" stroke="midnightblue" points="305.19,-228.89 295.12,-225.59 300.93,-234.44 305.19,-228.89"/>
</g>
<!-- Node9 -->
<g id="node7" class="node">
<title>Node9</title>
<g id="a_node7"><a xlink:href="classQuantConnect_1_1Securities_1_1Equity_1_1Equity.html" target="_top" xlink:title="Equity Security Type : Extension of the underlying Security class for equity specific behaviours.">
<polygon fill="white" stroke="black" points="412,-171.5 412,-201.5 552,-201.5 552,-171.5 412,-171.5"/>
<text text-anchor="start" x="420" y="-189.5" font-family="Helvetica,sans-Serif" font-size="10.00">QuantConnect.Securities.</text>
<text text-anchor="middle" x="482" y="-178.5" font-family="Helvetica,sans-Serif" font-size="10.00">Equity.Equity</text>
</a>
</g>
</g>
<!-- Node5&#45;&gt;Node9 -->
<g id="edge6" class="edge">
<title>Node5&#45;&gt;Node9</title>
<path fill="none" stroke="midnightblue" d="M354.55,-201.27C373.43,-199.06 393.44,-196.73 411.83,-194.58"/>
<polygon fill="midnightblue" stroke="midnightblue" points="354.03,-197.81 344.5,-202.44 354.84,-204.76 354.03,-197.81"/>
</g>
<!-- Node10 -->
<g id="node8" class="node">
<title>Node10</title>
<g id="a_node8"><a xlink:href="classQuantConnect_1_1Securities_1_1Forex_1_1Forex.html" target="_top" xlink:title="FOREX Security Object Implementation for FOREX Assets">
<polygon fill="white" stroke="black" points="412,-269.5 412,-299.5 552,-299.5 552,-269.5 412,-269.5"/>
<text text-anchor="start" x="420" y="-287.5" font-family="Helvetica,sans-Serif" font-size="10.00">QuantConnect.Securities.</text>
<text text-anchor="middle" x="482" y="-276.5" font-family="Helvetica,sans-Serif" font-size="10.00">Forex.Forex</text>
</a>
</g>
</g>
<!-- Node5&#45;&gt;Node10 -->
<g id="edge7" class="edge">
<title>Node5&#45;&gt;Node10</title>
<path fill="none" stroke="midnightblue" d="M323.87,-229.1C349.15,-238.7 380.66,-250.47 409,-260.5 417.32,-263.44 426.22,-266.49 434.82,-269.39"/>
<polygon fill="midnightblue" stroke="midnightblue" points="325.09,-225.82 314.5,-225.54 322.6,-232.37 325.09,-225.82"/>
</g>
<!-- Node11 -->
<g id="node9" class="node">
<title>Node11</title>
<g id="a_node9"><a xlink:href="classQuantConnect_1_1Securities_1_1Future_1_1Future.html" target="_top" xlink:title="Futures Security Object Implementation for Futures Assets">
<polygon fill="white" stroke="black" points="412,-73.5 412,-103.5 552,-103.5 552,-73.5 412,-73.5"/>
<text text-anchor="start" x="420" y="-91.5" font-family="Helvetica,sans-Serif" font-size="10.00">QuantConnect.Securities.</text>
<text text-anchor="middle" x="482" y="-80.5" font-family="Helvetica,sans-Serif" font-size="10.00">Future.Future</text>
</a>
</g>
</g>
<!-- Node5&#45;&gt;Node11 -->
<g id="edge8" class="edge">
<title>Node5&#45;&gt;Node11</title>
<path fill="none" stroke="midnightblue" d="M326.23,-191.15C342.19,-183.65 359.22,-174.05 373,-162.5 393.72,-145.15 387.26,-129.54 409,-113.5 414.22,-109.65 420.08,-106.36 426.14,-103.55"/>
<polygon fill="midnightblue" stroke="midnightblue" points="324.67,-188.02 317,-195.33 327.55,-194.4 324.67,-188.02"/>
</g>
<!-- Node12 -->
<g id="node10" class="node">
<title>Node12</title>
<g id="a_node10"><a xlink:href="classQuantConnect_1_1Securities_1_1Index_1_1Index.html" target="_top" xlink:title="INDEX Security Object Implementation for INDEX Assets">
<polygon fill="white" stroke="black" points="412,-122.5 412,-152.5 552,-152.5 552,-122.5 412,-122.5"/>
<text text-anchor="start" x="420" y="-140.5" font-family="Helvetica,sans-Serif" font-size="10.00">QuantConnect.Securities.</text>
<text text-anchor="middle" x="482" y="-129.5" font-family="Helvetica,sans-Serif" font-size="10.00">Index.Index</text>
</a>
</g>
</g>
<!-- Node5&#45;&gt;Node12 -->
<g id="edge9" class="edge">
<title>Node5&#45;&gt;Node12</title>
<path fill="none" stroke="midnightblue" d="M326.54,-192C351.4,-183.03 381.73,-172.14 409,-162.5 418.11,-159.28 427.88,-155.87 437.19,-152.63"/>
<polygon fill="midnightblue" stroke="midnightblue" points="325.17,-188.78 316.95,-195.46 327.55,-195.36 325.17,-188.78"/>
</g>
<!-- Node2 -->
<g id="node11" class="node">
<title>Node2</title>
<g id="a_node11"><a xlink:href="classQuantConnect_1_1Securities_1_1Option_1_1Option.html" target="_top" xlink:title="Option Security Object Implementation for Option Assets">
<polygon fill="white" stroke="black" points="412,-24.5 412,-54.5 552,-54.5 552,-24.5 412,-24.5"/>
<text text-anchor="start" x="420" y="-42.5" font-family="Helvetica,sans-Serif" font-size="10.00">QuantConnect.Securities.</text>
<text text-anchor="middle" x="482" y="-31.5" font-family="Helvetica,sans-Serif" font-size="10.00">Option.Option</text>
</a>
</g>
</g>
<!-- Node5&#45;&gt;Node2 -->
<g id="edge10" class="edge">
<title>Node5&#45;&gt;Node2</title>
<path fill="none" stroke="midnightblue" d="M332.57,-191.33C347.29,-184.17 362.05,-174.71 373,-162.5 404.26,-127.64 375.45,-96.16 409,-63.5 412.49,-60.1 416.48,-57.18 420.75,-54.68"/>
<polygon fill="midnightblue" stroke="midnightblue" points="331.09,-188.16 323.44,-195.49 333.99,-194.52 331.09,-188.16"/>
</g>
<!-- Node3 -->
<g id="node12" class="node">
<title>Node3</title>
<g id="a_node12"><a xlink:href="classQuantConnect_1_1Securities_1_1FutureOption_1_1FutureOption.html" target="_top" xlink:title="Futures Options security">
<polygon fill="white" stroke="black" points="591,-49.5 591,-79.5 737,-79.5 737,-49.5 591,-49.5"/>
<text text-anchor="start" x="599" y="-67.5" font-family="Helvetica,sans-Serif" font-size="10.00">QuantConnect.Securities.</text>
<text text-anchor="middle" x="664" y="-56.5" font-family="Helvetica,sans-Serif" font-size="10.00">FutureOption.FutureOption</text>
</a>
</g>
</g>
<!-- Node2&#45;&gt;Node3 -->
<g id="edge11" class="edge">
<title>Node2&#45;&gt;Node3</title>
<path fill="none" stroke="midnightblue" d="M561.99,-50.47C571.58,-51.8 581.34,-53.16 590.82,-54.48"/>
<polygon fill="midnightblue" stroke="midnightblue" points="562.46,-47 552.08,-49.09 561.5,-53.94 562.46,-47"/>
</g>
<!-- Node4 -->
<g id="node13" class="node">
<title>Node4</title>
<g id="a_node13"><a xlink:href="classQuantConnect_1_1Securities_1_1IndexOption_1_1IndexOption.html" target="_top" xlink:title="Index Options security">
<polygon fill="white" stroke="black" points="594,-0.5 594,-30.5 734,-30.5 734,-0.5 594,-0.5"/>
<text text-anchor="start" x="602" y="-18.5" font-family="Helvetica,sans-Serif" font-size="10.00">QuantConnect.Securities.</text>
<text text-anchor="middle" x="664" y="-7.5" font-family="Helvetica,sans-Serif" font-size="10.00">IndexOption.IndexOption</text>
</a>
</g>
</g>
<!-- Node2&#45;&gt;Node4 -->
<g id="edge12" class="edge">
<title>Node2&#45;&gt;Node4</title>
<path fill="none" stroke="midnightblue" d="M562.12,-28.95C572.68,-27.54 583.44,-26.11 593.81,-24.73"/>
<polygon fill="midnightblue" stroke="midnightblue" points="561.53,-25.5 552.08,-30.29 562.45,-32.44 561.53,-25.5"/>
</g>
<!-- Node2402 -->
<g id="node14" class="node">
<title>Node2402</title>
<g id="a_node14"><a xlink:href="interfaceQuantConnect_1_1Securities_1_1IBaseCurrencySymbol.html" target="_top" xlink:title="Interface for various currency symbols">
<polygon fill="white" stroke="black" points="204.5,-293.5 204.5,-323.5 344.5,-323.5 344.5,-293.5 204.5,-293.5"/>
<text text-anchor="start" x="212.5" y="-311.5" font-family="Helvetica,sans-Serif" font-size="10.00">QuantConnect.Securities.</text>
<text text-anchor="middle" x="274.5" y="-300.5" font-family="Helvetica,sans-Serif" font-size="10.00">IBaseCurrencySymbol</text>
</a>
</g>
</g>
<!-- Node2402&#45;&gt;Node7 -->
<g id="edge13" class="edge">
<title>Node2402&#45;&gt;Node7</title>
<path fill="none" stroke="midnightblue" d="M354.7,-326.22C360.99,-328.41 367.16,-330.83 373,-333.5 390.71,-341.6 391.58,-349.78 409,-358.5 415.6,-361.8 422.75,-364.81 429.91,-367.49"/>
<polygon fill="midnightblue" stroke="midnightblue" points="355.34,-322.75 344.75,-322.98 353.17,-329.41 355.34,-322.75"/>
</g>
<!-- Node2402&#45;&gt;Node8 -->
<g id="edge14" class="edge">
<title>Node2402&#45;&gt;Node8</title>
<path fill="none" stroke="midnightblue" d="M354.81,-318.15C372.53,-320.3 391.24,-322.58 408.67,-324.7"/>
<polygon fill="midnightblue" stroke="midnightblue" points="354.85,-314.63 344.5,-316.89 354,-321.58 354.85,-314.63"/>
</g>
<!-- Node2402&#45;&gt;Node10 -->
<g id="edge15" class="edge">
<title>Node2402&#45;&gt;Node10</title>
<path fill="none" stroke="midnightblue" d="M354.55,-299.27C373.43,-297.06 393.44,-294.73 411.83,-292.58"/>
<polygon fill="midnightblue" stroke="midnightblue" points="354.03,-295.81 344.5,-300.44 354.84,-302.76 354.03,-295.81"/>
</g>
<!-- Node2336 -->
<g id="node15" class="node">
<title>Node2336</title>
<g id="a_node15"><a xlink:href="interfaceQuantConnect_1_1Securities_1_1IContinuousSecurity.html" target="_top" xlink:title="A continuous security that get&#39;s mapped during his life">
<polygon fill="white" stroke="black" points="204.5,-122.5 204.5,-152.5 344.5,-152.5 344.5,-122.5 204.5,-122.5"/>
<text text-anchor="start" x="212.5" y="-140.5" font-family="Helvetica,sans-Serif" font-size="10.00">QuantConnect.Securities.</text>
<text text-anchor="middle" x="274.5" y="-129.5" font-family="Helvetica,sans-Serif" font-size="10.00">IContinuousSecurity</text>
</a>
</g>
</g>
<!-- Node2336&#45;&gt;Node11 -->
<g id="edge16" class="edge">
<title>Node2336&#45;&gt;Node11</title>
<path fill="none" stroke="midnightblue" d="M348.49,-120.1C371.22,-114.68 396.08,-108.75 418.07,-103.51"/>
<polygon fill="midnightblue" stroke="midnightblue" points="347.47,-116.74 338.55,-122.47 349.09,-123.55 347.47,-116.74"/>
</g>
<!-- Node2300 -->
<g id="node16" class="node">
<title>Node2300</title>
<g id="a_node16"><a xlink:href="interfaceQuantConnect_1_1Securities_1_1IDerivativeSecurity.html" target="_top" xlink:title="Defines a security as a derivative of another security">
<polygon fill="white" stroke="black" points="204.5,-73.5 204.5,-103.5 344.5,-103.5 344.5,-73.5 204.5,-73.5"/>
<text text-anchor="start" x="212.5" y="-91.5" font-family="Helvetica,sans-Serif" font-size="10.00">QuantConnect.Securities.</text>
<text text-anchor="middle" x="274.5" y="-80.5" font-family="Helvetica,sans-Serif" font-size="10.00">IDerivativeSecurity</text>
</a>
</g>
</g>
<!-- Node2300&#45;&gt;Node11 -->
<g id="edge17" class="edge">
<title>Node2300&#45;&gt;Node11</title>
<path fill="none" stroke="midnightblue" d="M354.55,-88.5C373.43,-88.5 393.44,-88.5 411.83,-88.5"/>
<polygon fill="midnightblue" stroke="midnightblue" points="354.5,-85 344.5,-88.5 354.5,-92 354.5,-85"/>
</g>
<!-- Node2300&#45;&gt;Node2 -->
<g id="edge18" class="edge">
<title>Node2300&#45;&gt;Node2</title>
<path fill="none" stroke="midnightblue" d="M348.49,-71.1C371.22,-65.68 396.08,-59.75 418.07,-54.51"/>
<polygon fill="midnightblue" stroke="midnightblue" points="347.47,-67.74 338.55,-73.47 349.09,-74.55 347.47,-67.74"/>
</g>
<!-- Node0 -->
<g id="node17" class="node">
<title>Node0</title>
<g id="a_node17"><a xlink:href="interfaceQuantConnect_1_1Interfaces_1_1ISecurityPrice.html" target="_top" xlink:title="Reduced interface which allows setting and accessing price properties for a Security">
<polygon fill="white" stroke="black" points="0,-147.5 0,-177.5 140,-177.5 140,-147.5 0,-147.5"/>
<text text-anchor="start" x="8" y="-165.5" font-family="Helvetica,sans-Serif" font-size="10.00">QuantConnect.Interfaces.</text>
<text text-anchor="middle" x="70" y="-154.5" font-family="Helvetica,sans-Serif" font-size="10.00">ISecurityPrice</text>
</a>
</g>
</g>
<!-- Node0&#45;&gt;Node5 -->
<g id="edge21" class="edge">
<title>Node0&#45;&gt;Node5</title>
<path fill="none" stroke="midnightblue" d="M144.29,-179.87C165.88,-184.99 189.31,-190.54 210.21,-195.5"/>
<polygon fill="midnightblue" stroke="midnightblue" points="145.05,-176.46 134.52,-177.56 143.44,-183.27 145.05,-176.46"/>
</g>
<!-- Node1 -->
<g id="node18" class="node">
<title>Node1</title>
<g id="a_node18"><a xlink:href="interfaceQuantConnect_1_1Interfaces_1_1IOptionPrice.html" target="_top" xlink:title="Reduced interface for accessing Option specific price properties and methods">
<polygon fill="white" stroke="black" points="204.5,-24.5 204.5,-54.5 344.5,-54.5 344.5,-24.5 204.5,-24.5"/>
<text text-anchor="start" x="212.5" y="-42.5" font-family="Helvetica,sans-Serif" font-size="10.00">QuantConnect.Interfaces.</text>
<text text-anchor="middle" x="274.5" y="-31.5" font-family="Helvetica,sans-Serif" font-size="10.00">IOptionPrice</text>
</a>
</g>
</g>
<!-- Node0&#45;&gt;Node1 -->
<g id="edge19" class="edge">
<title>Node0&#45;&gt;Node1</title>
<path fill="none" stroke="midnightblue" d="M89.26,-139.4C108.45,-116.68 140.73,-82.71 176,-63.5 184.8,-58.71 194.57,-54.85 204.42,-51.76"/>
<polygon fill="midnightblue" stroke="midnightblue" points="86.47,-137.27 82.8,-147.21 91.87,-141.73 86.47,-137.27"/>
</g>
<!-- Node1&#45;&gt;Node2 -->
<g id="edge20" class="edge">
<title>Node1&#45;&gt;Node2</title>
<path fill="none" stroke="midnightblue" d="M354.55,-39.5C373.43,-39.5 393.44,-39.5 411.83,-39.5"/>
<polygon fill="midnightblue" stroke="midnightblue" points="354.5,-36 344.5,-39.5 354.5,-43 354.5,-36"/>
</g>
</g>
</svg>
