<?xml version="1.0" encoding="UTF-8" standalone="no"?>
<!DOCTYPE svg PUBLIC "-//W3C//DTD SVG 1.1//EN"
 "http://www.w3.org/Graphics/SVG/1.1/DTD/svg11.dtd">
<!-- Generated by graphviz version 2.43.0 (0)
 -->
<!-- Title: Graphical Class Hierarchy Pages: 1 -->
<svg width="463pt" height="158pt"
 viewBox="0.00 0.00 463.00 158.00" xmlns="http://www.w3.org/2000/svg" xmlns:xlink="http://www.w3.org/1999/xlink">
<g id="graph0" class="graph" transform="scale(1 1) rotate(0) translate(4 154)">
<title>Graphical Class Hierarchy</title>
<polygon fill="white" stroke="transparent" points="-4,4 -4,-154 459,-154 459,4 -4,4"/>
<!-- Node2742 -->
<g id="node1" class="node">
<title>Node2742</title>
<g id="a_node1"><a xlink:href="classQuantConnect_1_1Python_1_1BasePythonWrapper.html" target="_top" xlink:title=" ">
<polygon fill="white" stroke="black" points="0,-108.5 0,-149.5 199,-149.5 199,-108.5 0,-108.5"/>
<text text-anchor="start" x="8" y="-137.5" font-family="Helvetica,sans-Serif" font-size="10.00">QuantConnect.Python.Base</text>
<text text-anchor="start" x="8" y="-126.5" font-family="Helvetica,sans-Serif" font-size="10.00">PythonWrapper&lt; IBrokerageMessage</text>
<text text-anchor="middle" x="99.5" y="-115.5" font-family="Helvetica,sans-Serif" font-size="10.00">Handler &gt;</text>
</a>
</g>
</g>
<!-- Node3 -->
<g id="node2" class="node">
<title>Node3</title>
<g id="a_node2"><a xlink:href="classQuantConnect_1_1Python_1_1BrokerageMessageHandlerPythonWrapper.html" target="_top" xlink:title="Provides a wrapper for IBrokerageMessageHandler implementations written in python">
<polygon fill="white" stroke="black" points="257.5,-113 257.5,-143 432.5,-143 432.5,-113 257.5,-113"/>
<text text-anchor="start" x="265.5" y="-131" font-family="Helvetica,sans-Serif" font-size="10.00">QuantConnect.Python.Brokerage</text>
<text text-anchor="middle" x="345" y="-120" font-family="Helvetica,sans-Serif" font-size="10.00">MessageHandlerPythonWrapper</text>
</a>
</g>
</g>
<!-- Node2742&#45;&gt;Node3 -->
<g id="edge1" class="edge">
<title>Node2742&#45;&gt;Node3</title>
<path fill="none" stroke="midnightblue" d="M209.63,-128.55C225.6,-128.49 241.86,-128.42 257.31,-128.36"/>
<polygon fill="midnightblue" stroke="midnightblue" points="209.18,-125.05 199.19,-128.59 209.2,-132.05 209.18,-125.05"/>
</g>
<!-- Node0 -->
<g id="node3" class="node">
<title>Node0</title>
<g id="a_node3"><a xlink:href="interfaceQuantConnect_1_1Brokerages_1_1IBrokerageMessageHandler.html" target="_top" xlink:title="Provides an plugin point to allow algorithms to directly handle the messages that come from their bro...">
<polygon fill="white" stroke="black" points="24,-59 24,-89 175,-89 175,-59 24,-59"/>
<text text-anchor="start" x="32" y="-77" font-family="Helvetica,sans-Serif" font-size="10.00">QuantConnect.Brokerages.</text>
<text text-anchor="middle" x="99.5" y="-66" font-family="Helvetica,sans-Serif" font-size="10.00">IBrokerageMessageHandler</text>
</a>
</g>
</g>
<!-- Node0&#45;&gt;Node3 -->
<g id="edge4" class="edge">
<title>Node0&#45;&gt;Node3</title>
<path fill="none" stroke="midnightblue" d="M178.37,-91.27C209.81,-98.24 245.76,-106.21 276.11,-112.95"/>
<polygon fill="midnightblue" stroke="midnightblue" points="178.85,-87.79 168.33,-89.04 177.33,-94.62 178.85,-87.79"/>
</g>
<!-- Node1 -->
<g id="node4" class="node">
<title>Node1</title>
<g id="a_node4"><a xlink:href="classQuantConnect_1_1Brokerages_1_1DefaultBrokerageMessageHandler.html" target="_top" xlink:title="Provides a default implementation o IBrokerageMessageHandler that will forward messages as follows: I...">
<polygon fill="white" stroke="black" points="253,-61 253,-91 437,-91 437,-61 253,-61"/>
<text text-anchor="start" x="261" y="-79" font-family="Helvetica,sans-Serif" font-size="10.00">QuantConnect.Brokerages.</text>
<text text-anchor="middle" x="345" y="-68" font-family="Helvetica,sans-Serif" font-size="10.00">DefaultBrokerageMessageHandler</text>
</a>
</g>
</g>
<!-- Node0&#45;&gt;Node1 -->
<g id="edge2" class="edge">
<title>Node0&#45;&gt;Node1</title>
<path fill="none" stroke="midnightblue" d="M185.4,-74.7C207.15,-74.88 230.63,-75.07 252.69,-75.25"/>
<polygon fill="midnightblue" stroke="midnightblue" points="185.24,-71.2 175.21,-74.61 185.18,-78.2 185.24,-71.2"/>
</g>
<!-- Node2 -->
<g id="node5" class="node">
<title>Node2</title>
<g id="a_node5"><a xlink:href="classQuantConnect_1_1Brokerages_1_1DowngradeErrorCodeToWarningBrokerageMessageHandler.html" target="_top" xlink:title="Provides an implementation of IBrokerageMessageHandler that converts specified error codes into warni...">
<polygon fill="white" stroke="black" points="235,-0.5 235,-41.5 455,-41.5 455,-0.5 235,-0.5"/>
<text text-anchor="start" x="243" y="-29.5" font-family="Helvetica,sans-Serif" font-size="10.00">QuantConnect.Brokerages.</text>
<text text-anchor="start" x="243" y="-18.5" font-family="Helvetica,sans-Serif" font-size="10.00">DowngradeErrorCodeToWarningBrokerage</text>
<text text-anchor="middle" x="345" y="-7.5" font-family="Helvetica,sans-Serif" font-size="10.00">MessageHandler</text>
</a>
</g>
</g>
<!-- Node0&#45;&gt;Node2 -->
<g id="edge3" class="edge">
<title>Node0&#45;&gt;Node2</title>
<path fill="none" stroke="midnightblue" d="M179.42,-56.82C201.83,-51.94 226.47,-46.58 249.7,-41.53"/>
<polygon fill="midnightblue" stroke="midnightblue" points="178.65,-53.41 169.63,-58.95 180.14,-60.25 178.65,-53.41"/>
</g>
</g>
</svg>
