<?xml version="1.0" encoding="UTF-8" standalone="no"?>
<!DOCTYPE svg PUBLIC "-//W3C//DTD SVG 1.1//EN"
 "http://www.w3.org/Graphics/SVG/1.1/DTD/svg11.dtd">
<!-- Generated by graphviz version 2.43.0 (0)
 -->
<!-- Title: Graphical Class Hierarchy Pages: 1 -->
<svg width="568pt" height="235pt"
 viewBox="0.00 0.00 568.00 235.00" xmlns="http://www.w3.org/2000/svg" xmlns:xlink="http://www.w3.org/1999/xlink">
<g id="graph0" class="graph" transform="scale(1 1) rotate(0) translate(4 231)">
<title>Graphical Class Hierarchy</title>
<polygon fill="white" stroke="transparent" points="-4,4 -4,-231 564,-231 564,4 -4,4"/>
<!-- Node2730 -->
<g id="node1" class="node">
<title>Node2730</title>
<g id="a_node1"><a xlink:href="classQuantConnect_1_1Python_1_1BasePythonWrapper.html" target="_top" xlink:title=" ">
<polygon fill="white" stroke="black" points="0,-148 0,-189 169,-189 169,-148 0,-148"/>
<text text-anchor="start" x="8" y="-177" font-family="Helvetica,sans-Serif" font-size="10.00">QuantConnect.Python.Base</text>
<text text-anchor="start" x="8" y="-166" font-family="Helvetica,sans-Serif" font-size="10.00">PythonWrapper&lt; ISecurityData</text>
<text text-anchor="middle" x="84.5" y="-155" font-family="Helvetica,sans-Serif" font-size="10.00">Filter &gt;</text>
</a>
</g>
</g>
<!-- Node7 -->
<g id="node2" class="node">
<title>Node7</title>
<g id="a_node2"><a xlink:href="classQuantConnect_1_1Securities_1_1SecurityDataFilterPythonWrapper.html" target="_top" xlink:title="Python Wrapper for custom security data filters from Python">
<polygon fill="white" stroke="black" points="205,-150.5 205,-180.5 384,-180.5 384,-150.5 205,-150.5"/>
<text text-anchor="start" x="213" y="-168.5" font-family="Helvetica,sans-Serif" font-size="10.00">QuantConnect.Securities.</text>
<text text-anchor="middle" x="294.5" y="-157.5" font-family="Helvetica,sans-Serif" font-size="10.00">SecurityDataFilterPythonWrapper</text>
</a>
</g>
</g>
<!-- Node2730&#45;&gt;Node7 -->
<g id="edge1" class="edge">
<title>Node2730&#45;&gt;Node7</title>
<path fill="none" stroke="midnightblue" d="M179.46,-167.14C187.91,-167.02 196.46,-166.9 204.87,-166.78"/>
<polygon fill="midnightblue" stroke="midnightblue" points="179.15,-163.65 169.2,-167.29 179.25,-170.65 179.15,-163.65"/>
</g>
<!-- Node0 -->
<g id="node3" class="node">
<title>Node0</title>
<g id="a_node3"><a xlink:href="interfaceQuantConnect_1_1Securities_1_1Interfaces_1_1ISecurityDataFilter.html" target="_top" xlink:title="Security data filter interface. Defines pattern for the user defined data filter techniques.">
<polygon fill="white" stroke="black" points="5,-98.5 5,-128.5 164,-128.5 164,-98.5 5,-98.5"/>
<text text-anchor="start" x="13" y="-116.5" font-family="Helvetica,sans-Serif" font-size="10.00">QuantConnect.Securities.</text>
<text text-anchor="middle" x="84.5" y="-105.5" font-family="Helvetica,sans-Serif" font-size="10.00">Interfaces.ISecurityDataFilter</text>
</a>
</g>
</g>
<!-- Node0&#45;&gt;Node7 -->
<g id="edge8" class="edge">
<title>Node0&#45;&gt;Node7</title>
<path fill="none" stroke="midnightblue" d="M155.56,-131.01C180.84,-137.33 209.13,-144.41 233.47,-150.49"/>
<polygon fill="midnightblue" stroke="midnightblue" points="156.21,-127.57 145.66,-128.54 154.51,-134.36 156.21,-127.57"/>
</g>
<!-- Node1 -->
<g id="node4" class="node">
<title>Node1</title>
<g id="a_node4"><a xlink:href="classQuantConnect_1_1Securities_1_1SecurityDataFilter.html" target="_top" xlink:title="Base class implementation for packet by packet data filtering mechanism to dynamically detect bad tic...">
<polygon fill="white" stroke="black" points="224.5,-98.5 224.5,-128.5 364.5,-128.5 364.5,-98.5 224.5,-98.5"/>
<text text-anchor="start" x="232.5" y="-116.5" font-family="Helvetica,sans-Serif" font-size="10.00">QuantConnect.Securities.</text>
<text text-anchor="middle" x="294.5" y="-105.5" font-family="Helvetica,sans-Serif" font-size="10.00">SecurityDataFilter</text>
</a>
</g>
</g>
<!-- Node0&#45;&gt;Node1 -->
<g id="edge2" class="edge">
<title>Node0&#45;&gt;Node1</title>
<path fill="none" stroke="midnightblue" d="M174.44,-113.5C191.12,-113.5 208.33,-113.5 224.3,-113.5"/>
<polygon fill="midnightblue" stroke="midnightblue" points="174.14,-110 164.14,-113.5 174.14,-117 174.14,-110"/>
</g>
<!-- Node2 -->
<g id="node5" class="node">
<title>Node2</title>
<g id="a_node5"><a xlink:href="classQuantConnect_1_1Securities_1_1Cfd_1_1CfdDataFilter.html" target="_top" xlink:title="CFD packet by packet data filtering mechanism for dynamically detecting bad ticks.">
<polygon fill="white" stroke="black" points="420,-196.5 420,-226.5 560,-226.5 560,-196.5 420,-196.5"/>
<text text-anchor="start" x="428" y="-214.5" font-family="Helvetica,sans-Serif" font-size="10.00">QuantConnect.Securities.</text>
<text text-anchor="middle" x="490" y="-203.5" font-family="Helvetica,sans-Serif" font-size="10.00">Cfd.CfdDataFilter</text>
</a>
</g>
</g>
<!-- Node1&#45;&gt;Node2 -->
<g id="edge3" class="edge">
<title>Node1&#45;&gt;Node2</title>
<path fill="none" stroke="midnightblue" d="M368.74,-132.69C374.09,-135.28 379.25,-138.2 384,-141.5 405.33,-156.3 398.88,-172.4 420,-187.5 424.75,-190.89 430.01,-193.84 435.46,-196.4"/>
<polygon fill="midnightblue" stroke="midnightblue" points="370.13,-129.48 359.57,-128.65 367.31,-135.89 370.13,-129.48"/>
</g>
<!-- Node3 -->
<g id="node6" class="node">
<title>Node3</title>
<g id="a_node6"><a xlink:href="classQuantConnect_1_1Securities_1_1Equity_1_1EquityDataFilter.html" target="_top" xlink:title="Equity security type data filter">
<polygon fill="white" stroke="black" points="420,-147.5 420,-177.5 560,-177.5 560,-147.5 420,-147.5"/>
<text text-anchor="start" x="428" y="-165.5" font-family="Helvetica,sans-Serif" font-size="10.00">QuantConnect.Securities.</text>
<text text-anchor="middle" x="490" y="-154.5" font-family="Helvetica,sans-Serif" font-size="10.00">Equity.EquityDataFilter</text>
</a>
</g>
</g>
<!-- Node1&#45;&gt;Node3 -->
<g id="edge4" class="edge">
<title>Node1&#45;&gt;Node3</title>
<path fill="none" stroke="midnightblue" d="M364.8,-131.05C386.05,-136.43 409.23,-142.3 429.74,-147.49"/>
<polygon fill="midnightblue" stroke="midnightblue" points="365.42,-127.6 354.87,-128.53 363.71,-134.38 365.42,-127.6"/>
</g>
<!-- Node4 -->
<g id="node7" class="node">
<title>Node4</title>
<g id="a_node7"><a xlink:href="classQuantConnect_1_1Securities_1_1Forex_1_1ForexDataFilter.html" target="_top" xlink:title="Forex packet by packet data filtering mechanism for dynamically detecting bad ticks.">
<polygon fill="white" stroke="black" points="420,-98.5 420,-128.5 560,-128.5 560,-98.5 420,-98.5"/>
<text text-anchor="start" x="428" y="-116.5" font-family="Helvetica,sans-Serif" font-size="10.00">QuantConnect.Securities.</text>
<text text-anchor="middle" x="490" y="-105.5" font-family="Helvetica,sans-Serif" font-size="10.00">Forex.ForexDataFilter</text>
</a>
</g>
</g>
<!-- Node1&#45;&gt;Node4 -->
<g id="edge5" class="edge">
<title>Node1&#45;&gt;Node4</title>
<path fill="none" stroke="midnightblue" d="M374.8,-113.5C389.79,-113.5 405.35,-113.5 419.99,-113.5"/>
<polygon fill="midnightblue" stroke="midnightblue" points="374.54,-110 364.54,-113.5 374.54,-117 374.54,-110"/>
</g>
<!-- Node5 -->
<g id="node8" class="node">
<title>Node5</title>
<g id="a_node8"><a xlink:href="classQuantConnect_1_1Securities_1_1Index_1_1IndexDataFilter.html" target="_top" xlink:title="Index packet by packet data filtering mechanism for dynamically detecting bad ticks.">
<polygon fill="white" stroke="black" points="420,-49.5 420,-79.5 560,-79.5 560,-49.5 420,-49.5"/>
<text text-anchor="start" x="428" y="-67.5" font-family="Helvetica,sans-Serif" font-size="10.00">QuantConnect.Securities.</text>
<text text-anchor="middle" x="490" y="-56.5" font-family="Helvetica,sans-Serif" font-size="10.00">Index.IndexDataFilter</text>
</a>
</g>
</g>
<!-- Node1&#45;&gt;Node5 -->
<g id="edge6" class="edge">
<title>Node1&#45;&gt;Node5</title>
<path fill="none" stroke="midnightblue" d="M364.8,-95.95C386.05,-90.57 409.23,-84.7 429.74,-79.51"/>
<polygon fill="midnightblue" stroke="midnightblue" points="363.71,-92.62 354.87,-98.47 365.42,-99.4 363.71,-92.62"/>
</g>
<!-- Node6 -->
<g id="node9" class="node">
<title>Node6</title>
<g id="a_node9"><a xlink:href="classQuantConnect_1_1Securities_1_1Option_1_1OptionDataFilter.html" target="_top" xlink:title="Option packet by packet data filtering mechanism for dynamically detecting bad ticks.">
<polygon fill="white" stroke="black" points="420,-0.5 420,-30.5 560,-30.5 560,-0.5 420,-0.5"/>
<text text-anchor="start" x="428" y="-18.5" font-family="Helvetica,sans-Serif" font-size="10.00">QuantConnect.Securities.</text>
<text text-anchor="middle" x="490" y="-7.5" font-family="Helvetica,sans-Serif" font-size="10.00">Option.OptionDataFilter</text>
</a>
</g>
</g>
<!-- Node1&#45;&gt;Node6 -->
<g id="edge7" class="edge">
<title>Node1&#45;&gt;Node6</title>
<path fill="none" stroke="midnightblue" d="M326.24,-92.85C350.87,-76.9 386.7,-54.99 420,-39.5 426.9,-36.29 434.36,-33.27 441.73,-30.52"/>
<polygon fill="midnightblue" stroke="midnightblue" points="324.15,-90.04 317.69,-98.44 327.98,-95.89 324.15,-90.04"/>
</g>
</g>
</svg>
