<?xml version="1.0" encoding="UTF-8" standalone="no"?>
<!DOCTYPE svg PUBLIC "-//W3C//DTD SVG 1.1//EN"
 "http://www.w3.org/Graphics/SVG/1.1/DTD/svg11.dtd">
<!-- Generated by graphviz version 2.43.0 (0)
 -->
<!-- Title: Graphical Class Hierarchy Pages: 1 -->
<svg width="327pt" height="1097pt"
 viewBox="0.00 0.00 327.00 1097.00" xmlns="http://www.w3.org/2000/svg" xmlns:xlink="http://www.w3.org/1999/xlink">
<g id="graph0" class="graph" transform="scale(1 1) rotate(0) translate(4 1093)">
<title>Graphical Class Hierarchy</title>
<polygon fill="white" stroke="transparent" points="-4,4 -4,-1093 323,-1093 323,4 -4,4"/>
<!-- Node1439 -->
<g id="node1" class="node">
<title>Node1439</title>
<g id="a_node1"><a xlink:title=" ">
<polygon fill="white" stroke="#bfbfbf" points="0,-535 0,-554 85,-554 85,-535 0,-535"/>
<text text-anchor="middle" x="42.5" y="-542" font-family="Helvetica,sans-Serif" font-size="10.00">JsonConverter</text>
</a>
</g>
</g>
<!-- Node0 -->
<g id="node2" class="node">
<title>Node0</title>
<g id="a_node2"><a xlink:href="classQuantConnect_1_1Api_1_1LiveAlgorithmResultsJsonConverter.html" target="_top" xlink:title="Custom JsonConverter for LiveResults data for live algorithms">
<polygon fill="white" stroke="black" points="132,-1058.5 132,-1088.5 308,-1088.5 308,-1058.5 132,-1058.5"/>
<text text-anchor="start" x="140" y="-1076.5" font-family="Helvetica,sans-Serif" font-size="10.00">QuantConnect.Api.LiveAlgorithm</text>
<text text-anchor="middle" x="220" y="-1065.5" font-family="Helvetica,sans-Serif" font-size="10.00">ResultsJsonConverter</text>
</a>
</g>
</g>
<!-- Node1439&#45;&gt;Node0 -->
<g id="edge1" class="edge">
<title>Node1439&#45;&gt;Node0</title>
<path fill="none" stroke="midnightblue" d="M43.71,-564.4C45.01,-648.88 54.35,-976.71 121,-1049.5 124.19,-1052.99 127.8,-1056.01 131.71,-1058.62"/>
<polygon fill="midnightblue" stroke="midnightblue" points="47.21,-564.1 43.57,-554.15 40.21,-564.2 47.21,-564.1"/>
</g>
<!-- Node1441 -->
<g id="node3" class="node">
<title>Node1441</title>
<g id="a_node3"><a xlink:href="classQuantConnect_1_1Api_1_1OptimizationBacktestJsonConverter.html" target="_top" xlink:title="Json converter for OptimizationBacktest which creates a light weight easy to consume serialized versi...">
<polygon fill="white" stroke="black" points="135,-1009.5 135,-1039.5 305,-1039.5 305,-1009.5 135,-1009.5"/>
<text text-anchor="start" x="143" y="-1027.5" font-family="Helvetica,sans-Serif" font-size="10.00">QuantConnect.Api.Optimization</text>
<text text-anchor="middle" x="220" y="-1016.5" font-family="Helvetica,sans-Serif" font-size="10.00">BacktestJsonConverter</text>
</a>
</g>
</g>
<!-- Node1439&#45;&gt;Node1441 -->
<g id="edge2" class="edge">
<title>Node1439&#45;&gt;Node1441</title>
<path fill="none" stroke="midnightblue" d="M44.07,-564.48C46.76,-643.83 60.65,-935.65 121,-1000.5 125.06,-1004.86 129.77,-1008.48 134.88,-1011.49"/>
<polygon fill="midnightblue" stroke="midnightblue" points="47.57,-564.25 43.75,-554.36 40.57,-564.47 47.57,-564.25"/>
</g>
<!-- Node1442 -->
<g id="node4" class="node">
<title>Node1442</title>
<g id="a_node4"><a xlink:href="classQuantConnect_1_1Api_1_1ParameterSetJsonConverter.html" target="_top" xlink:title="Json converter for ParameterSet which creates a light weight easy to consume serialized version">
<polygon fill="white" stroke="black" points="141,-960.5 141,-990.5 299,-990.5 299,-960.5 141,-960.5"/>
<text text-anchor="start" x="149" y="-978.5" font-family="Helvetica,sans-Serif" font-size="10.00">QuantConnect.Api.Parameter</text>
<text text-anchor="middle" x="220" y="-967.5" font-family="Helvetica,sans-Serif" font-size="10.00">SetJsonConverter</text>
</a>
</g>
</g>
<!-- Node1439&#45;&gt;Node1442 -->
<g id="edge3" class="edge">
<title>Node1439&#45;&gt;Node1442</title>
<path fill="none" stroke="midnightblue" d="M44.5,-564.17C48.64,-637.62 66.82,-894.43 121,-951.5 126.55,-957.34 133.27,-961.86 140.55,-965.34"/>
<polygon fill="midnightblue" stroke="midnightblue" points="47.99,-563.82 43.95,-554.02 41,-564.19 47.99,-563.82"/>
</g>
<!-- Node1443 -->
<g id="node5" class="node">
<title>Node1443</title>
<g id="a_node5"><a xlink:href="classQuantConnect_1_1Api_1_1Serialization_1_1ProductJsonConverter.html" target="_top" xlink:title="Provides an implementation of JsonConverter that can deserialize Product">
<polygon fill="white" stroke="black" points="134.5,-911.5 134.5,-941.5 305.5,-941.5 305.5,-911.5 134.5,-911.5"/>
<text text-anchor="start" x="142.5" y="-929.5" font-family="Helvetica,sans-Serif" font-size="10.00">QuantConnect.Api.Serialization.</text>
<text text-anchor="middle" x="220" y="-918.5" font-family="Helvetica,sans-Serif" font-size="10.00">ProductJsonConverter</text>
</a>
</g>
</g>
<!-- Node1439&#45;&gt;Node1443 -->
<g id="edge4" class="edge">
<title>Node1439&#45;&gt;Node1443</title>
<path fill="none" stroke="midnightblue" d="M45.08,-564.38C50.86,-632.25 73.09,-853.28 121,-902.5 124.91,-906.52 129.37,-909.9 134.19,-912.76"/>
<polygon fill="midnightblue" stroke="midnightblue" points="48.55,-563.88 44.24,-554.2 41.57,-564.46 48.55,-563.88"/>
</g>
<!-- Node1444 -->
<g id="node6" class="node">
<title>Node1444</title>
<g id="a_node6"><a xlink:href="classQuantConnect_1_1ChartSeriesJsonConverter.html" target="_top" xlink:title="Convert a Chart Series to and from JSON">
<polygon fill="white" stroke="black" points="147.5,-862.5 147.5,-892.5 292.5,-892.5 292.5,-862.5 147.5,-862.5"/>
<text text-anchor="start" x="155.5" y="-880.5" font-family="Helvetica,sans-Serif" font-size="10.00">QuantConnect.ChartSeries</text>
<text text-anchor="middle" x="220" y="-869.5" font-family="Helvetica,sans-Serif" font-size="10.00">JsonConverter</text>
</a>
</g>
</g>
<!-- Node1439&#45;&gt;Node1444 -->
<g id="edge5" class="edge">
<title>Node1439&#45;&gt;Node1444</title>
<path fill="none" stroke="midnightblue" d="M45.84,-564.31C53.47,-625.68 79.59,-810.95 121,-852.5 128.31,-859.84 137.46,-865.12 147.21,-868.91"/>
<polygon fill="midnightblue" stroke="midnightblue" points="49.27,-563.57 44.59,-554.07 42.33,-564.41 49.27,-563.57"/>
</g>
<!-- Node1445 -->
<g id="node7" class="node">
<title>Node1445</title>
<g id="a_node7"><a xlink:href="classQuantConnect_1_1DefaultConverter.html" target="_top" xlink:title="Helper json converter to use the default json converter, breaking inheritance json converter">
<polygon fill="white" stroke="black" points="133.5,-824 133.5,-843 306.5,-843 306.5,-824 133.5,-824"/>
<text text-anchor="middle" x="220" y="-831" font-family="Helvetica,sans-Serif" font-size="10.00">QuantConnect.DefaultConverter</text>
</a>
</g>
</g>
<!-- Node1439&#45;&gt;Node1445 -->
<g id="edge6" class="edge">
<title>Node1439&#45;&gt;Node1445</title>
<path fill="none" stroke="midnightblue" d="M42.72,-564.32C41.92,-614.42 47.26,-746.98 121,-814.5 125.09,-818.25 129.69,-821.35 134.61,-823.92"/>
<polygon fill="midnightblue" stroke="midnightblue" points="46.23,-564.27 42.99,-554.18 39.23,-564.08 46.23,-564.27"/>
</g>
<!-- Node1446 -->
<g id="node8" class="node">
<title>Node1446</title>
<g id="a_node8"><a xlink:href="classQuantConnect_1_1Notifications_1_1NotificationJsonConverter.html" target="_top" xlink:title="Defines a JsonConverter to be used when deserializing to the Notification class.">
<polygon fill="white" stroke="black" points="143.5,-774.5 143.5,-804.5 296.5,-804.5 296.5,-774.5 143.5,-774.5"/>
<text text-anchor="start" x="151.5" y="-792.5" font-family="Helvetica,sans-Serif" font-size="10.00">QuantConnect.Notifications.</text>
<text text-anchor="middle" x="220" y="-781.5" font-family="Helvetica,sans-Serif" font-size="10.00">NotificationJsonConverter</text>
</a>
</g>
</g>
<!-- Node1439&#45;&gt;Node1446 -->
<g id="edge7" class="edge">
<title>Node1439&#45;&gt;Node1446</title>
<path fill="none" stroke="midnightblue" d="M44.39,-564.27C47.46,-607.54 61.02,-711.08 121,-765.5 127.49,-771.39 135.18,-775.89 143.36,-779.32"/>
<polygon fill="midnightblue" stroke="midnightblue" points="47.88,-563.97 43.8,-554.2 40.89,-564.39 47.88,-563.97"/>
</g>
<!-- Node1447 -->
<g id="node9" class="node">
<title>Node1447</title>
<g id="a_node9"><a xlink:href="classQuantConnect_1_1Optimizer_1_1Parameters_1_1OptimizationParameterJsonConverter.html" target="_top" xlink:title="Override OptimizationParameter deserialization method. Can handle OptimizationStepParameter instances">
<polygon fill="white" stroke="black" points="121,-725.5 121,-755.5 319,-755.5 319,-725.5 121,-725.5"/>
<text text-anchor="start" x="129" y="-743.5" font-family="Helvetica,sans-Serif" font-size="10.00">QuantConnect.Optimizer.Parameters.</text>
<text text-anchor="middle" x="220" y="-732.5" font-family="Helvetica,sans-Serif" font-size="10.00">OptimizationParameterJsonConverter</text>
</a>
</g>
</g>
<!-- Node1439&#45;&gt;Node1447 -->
<g id="edge8" class="edge">
<title>Node1439&#45;&gt;Node1447</title>
<path fill="none" stroke="midnightblue" d="M46.62,-564.23C53.38,-600.2 72.83,-676.43 121,-716.5 125.04,-719.86 129.48,-722.76 134.17,-725.27"/>
<polygon fill="midnightblue" stroke="midnightblue" points="50.01,-563.31 44.85,-554.06 43.12,-564.51 50.01,-563.31"/>
</g>
<!-- Node1448 -->
<g id="node10" class="node">
<title>Node1448</title>
<g id="a_node10"><a xlink:href="classQuantConnect_1_1Orders_1_1OrderJsonConverter.html" target="_top" xlink:title="Provides an implementation of JsonConverter that can deserialize Orders">
<polygon fill="white" stroke="black" points="144.5,-676.5 144.5,-706.5 295.5,-706.5 295.5,-676.5 144.5,-676.5"/>
<text text-anchor="start" x="152.5" y="-694.5" font-family="Helvetica,sans-Serif" font-size="10.00">QuantConnect.Orders.Order</text>
<text text-anchor="middle" x="220" y="-683.5" font-family="Helvetica,sans-Serif" font-size="10.00">JsonConverter</text>
</a>
</g>
</g>
<!-- Node1439&#45;&gt;Node1448 -->
<g id="edge9" class="edge">
<title>Node1439&#45;&gt;Node1448</title>
<path fill="none" stroke="midnightblue" d="M50.33,-563.92C61,-591.36 84.3,-641.06 121,-667.5 128.03,-672.57 136.01,-676.57 144.31,-679.74"/>
<polygon fill="midnightblue" stroke="midnightblue" points="53.51,-562.43 46.74,-554.28 46.95,-564.87 53.51,-562.43"/>
</g>
<!-- Node1449 -->
<g id="node11" class="node">
<title>Node1449</title>
<g id="a_node11"><a xlink:href="classQuantConnect_1_1Orders_1_1ReadOrdersResponseJsonConverter.html" target="_top" xlink:title="Api orders read response json converter">
<polygon fill="white" stroke="black" points="138,-627.5 138,-657.5 302,-657.5 302,-627.5 138,-627.5"/>
<text text-anchor="start" x="146" y="-645.5" font-family="Helvetica,sans-Serif" font-size="10.00">QuantConnect.Orders.Read</text>
<text text-anchor="middle" x="220" y="-634.5" font-family="Helvetica,sans-Serif" font-size="10.00">OrdersResponseJsonConverter</text>
</a>
</g>
</g>
<!-- Node1439&#45;&gt;Node1449 -->
<g id="edge10" class="edge">
<title>Node1439&#45;&gt;Node1449</title>
<path fill="none" stroke="midnightblue" d="M57.21,-562.12C71.37,-579.11 95.02,-604.27 121,-618.5 127.3,-621.95 134.09,-624.91 141.06,-627.45"/>
<polygon fill="midnightblue" stroke="midnightblue" points="59.72,-559.66 50.71,-554.09 54.28,-564.06 59.72,-559.66"/>
</g>
<!-- Node1450 -->
<g id="node12" class="node">
<title>Node1450</title>
<g id="a_node12"><a xlink:href="classQuantConnect_1_1Orders_1_1TimeInForceJsonConverter.html" target="_top" xlink:title="Provides an implementation of JsonConverter that can deserialize TimeInForce objects">
<polygon fill="white" stroke="black" points="145.5,-578.5 145.5,-608.5 294.5,-608.5 294.5,-578.5 145.5,-578.5"/>
<text text-anchor="start" x="153.5" y="-596.5" font-family="Helvetica,sans-Serif" font-size="10.00">QuantConnect.Orders.Time</text>
<text text-anchor="middle" x="220" y="-585.5" font-family="Helvetica,sans-Serif" font-size="10.00">InForceJsonConverter</text>
</a>
</g>
</g>
<!-- Node1439&#45;&gt;Node1450 -->
<g id="edge11" class="edge">
<title>Node1439&#45;&gt;Node1450</title>
<path fill="none" stroke="midnightblue" d="M81.07,-557.22C93.7,-561.33 107.91,-565.79 121,-569.5 131.87,-572.58 143.48,-575.63 154.78,-578.47"/>
<polygon fill="midnightblue" stroke="midnightblue" points="81.93,-553.82 71.33,-554.01 79.74,-560.47 81.93,-553.82"/>
</g>
<!-- Node1451 -->
<g id="node13" class="node">
<title>Node1451</title>
<g id="a_node13"><a xlink:href="classQuantConnect_1_1Report_1_1NullResultValueTypeJsonConverter.html" target="_top" xlink:title="Removes null values in the Result object&#39;s x,y values so that deserialization can occur without excep...">
<polygon fill="white" stroke="black" points="123,-529.5 123,-559.5 317,-559.5 317,-529.5 123,-529.5"/>
<text text-anchor="start" x="131" y="-547.5" font-family="Helvetica,sans-Serif" font-size="10.00">QuantConnect.Report.Null</text>
<text text-anchor="middle" x="220" y="-536.5" font-family="Helvetica,sans-Serif" font-size="10.00">ResultValueTypeJsonConverter&lt; T &gt;</text>
</a>
</g>
</g>
<!-- Node1439&#45;&gt;Node1451 -->
<g id="edge12" class="edge">
<title>Node1439&#45;&gt;Node1451</title>
<path fill="none" stroke="midnightblue" d="M95.17,-544.5C104.01,-544.5 113.44,-544.5 123,-544.5"/>
<polygon fill="midnightblue" stroke="midnightblue" points="95.09,-541 85.09,-544.5 95.09,-548 95.09,-541"/>
</g>
<!-- Node1452 -->
<g id="node14" class="node">
<title>Node1452</title>
<g id="a_node14"><a xlink:href="classQuantConnect_1_1Report_1_1OrderTypeNormalizingJsonConverter.html" target="_top" xlink:title="Normalizes the &quot;Type&quot; field to a value that will allow for successful deserialization in the OrderJso...">
<polygon fill="white" stroke="black" points="136.5,-480.5 136.5,-510.5 303.5,-510.5 303.5,-480.5 136.5,-480.5"/>
<text text-anchor="start" x="144.5" y="-498.5" font-family="Helvetica,sans-Serif" font-size="10.00">QuantConnect.Report.Order</text>
<text text-anchor="middle" x="220" y="-487.5" font-family="Helvetica,sans-Serif" font-size="10.00">TypeNormalizingJsonConverter</text>
</a>
</g>
</g>
<!-- Node1439&#45;&gt;Node1452 -->
<g id="edge13" class="edge">
<title>Node1439&#45;&gt;Node1452</title>
<path fill="none" stroke="midnightblue" d="M83.05,-531.83C95.19,-528.06 108.61,-524 121,-520.5 132.91,-517.14 145.7,-513.73 157.97,-510.56"/>
<polygon fill="midnightblue" stroke="midnightblue" points="81.7,-528.58 73.21,-534.92 83.79,-535.26 81.7,-528.58"/>
</g>
<!-- Node1453 -->
<g id="node15" class="node">
<title>Node1453</title>
<g id="a_node15"><a xlink:href="classQuantConnect_1_1ScatterChartPointJsonConverter.html" target="_top" xlink:title="ScatterChartPoint json converter">
<polygon fill="white" stroke="black" points="145.5,-431.5 145.5,-461.5 294.5,-461.5 294.5,-431.5 145.5,-431.5"/>
<text text-anchor="start" x="153.5" y="-449.5" font-family="Helvetica,sans-Serif" font-size="10.00">QuantConnect.ScatterChart</text>
<text text-anchor="middle" x="220" y="-438.5" font-family="Helvetica,sans-Serif" font-size="10.00">PointJsonConverter</text>
</a>
</g>
</g>
<!-- Node1439&#45;&gt;Node1453 -->
<g id="edge14" class="edge">
<title>Node1439&#45;&gt;Node1453</title>
<path fill="none" stroke="midnightblue" d="M57.52,-526.91C71.77,-510.2 95.34,-485.6 121,-471.5 128.62,-467.31 136.95,-463.81 145.44,-460.88"/>
<polygon fill="midnightblue" stroke="midnightblue" points="54.64,-524.89 50.96,-534.83 60.03,-529.36 54.64,-524.89"/>
</g>
<!-- Node1454 -->
<g id="node16" class="node">
<title>Node1454</title>
<g id="a_node16"><a xlink:href="classQuantConnect_1_1SymbolJsonConverter.html" target="_top" xlink:title="Defines a JsonConverter to be used when deserializing to the Symbol class.">
<polygon fill="white" stroke="black" points="123,-393 123,-412 317,-412 317,-393 123,-393"/>
<text text-anchor="middle" x="220" y="-400" font-family="Helvetica,sans-Serif" font-size="10.00">QuantConnect.SymbolJsonConverter</text>
</a>
</g>
</g>
<!-- Node1439&#45;&gt;Node1454 -->
<g id="edge15" class="edge">
<title>Node1439&#45;&gt;Node1454</title>
<path fill="none" stroke="midnightblue" d="M50.24,-525.04C60.8,-497.59 83.96,-448.01 121,-422.5 127.29,-418.17 134.32,-414.73 141.64,-412.01"/>
<polygon fill="midnightblue" stroke="midnightblue" points="46.86,-524.1 46.7,-534.69 53.43,-526.51 46.86,-524.1"/>
</g>
<!-- Node1455 -->
<g id="node17" class="node">
<title>Node1455</title>
<g id="a_node17"><a xlink:href="classQuantConnect_1_1SymbolValueJsonConverter.html" target="_top" xlink:title="Defines a JsonConverter to be used when you only want to serialize the Symbol.Value property instead ...">
<polygon fill="white" stroke="black" points="144,-343.5 144,-373.5 296,-373.5 296,-343.5 144,-343.5"/>
<text text-anchor="start" x="152" y="-361.5" font-family="Helvetica,sans-Serif" font-size="10.00">QuantConnect.SymbolValue</text>
<text text-anchor="middle" x="220" y="-350.5" font-family="Helvetica,sans-Serif" font-size="10.00">JsonConverter</text>
</a>
</g>
</g>
<!-- Node1439&#45;&gt;Node1455 -->
<g id="edge16" class="edge">
<title>Node1439&#45;&gt;Node1455</title>
<path fill="none" stroke="midnightblue" d="M47.36,-524.64C55.08,-490.45 75.71,-420.57 121,-383.5 127.79,-377.94 135.67,-373.6 143.95,-370.21"/>
<polygon fill="midnightblue" stroke="midnightblue" points="43.87,-524.26 45.22,-534.77 50.72,-525.71 43.87,-524.26"/>
</g>
<!-- Node1456 -->
<g id="node18" class="node">
<title>Node1456</title>
<g id="a_node18"><a xlink:href="classQuantConnect_1_1Util_1_1CandlestickJsonConverter.html" target="_top" xlink:title="Candlestick Json Converter">
<polygon fill="white" stroke="black" points="137,-294.5 137,-324.5 303,-324.5 303,-294.5 137,-294.5"/>
<text text-anchor="start" x="145" y="-312.5" font-family="Helvetica,sans-Serif" font-size="10.00">QuantConnect.Util.Candlestick</text>
<text text-anchor="middle" x="220" y="-301.5" font-family="Helvetica,sans-Serif" font-size="10.00">JsonConverter</text>
</a>
</g>
</g>
<!-- Node1439&#45;&gt;Node1456 -->
<g id="edge17" class="edge">
<title>Node1439&#45;&gt;Node1456</title>
<path fill="none" stroke="midnightblue" d="M44.86,-524.62C48.83,-482.91 64,-385.87 121,-334.5 125.7,-330.27 131.01,-326.73 136.67,-323.78"/>
<polygon fill="midnightblue" stroke="midnightblue" points="41.36,-524.58 44.02,-534.84 48.33,-525.16 41.36,-524.58"/>
</g>
<!-- Node1457 -->
<g id="node19" class="node">
<title>Node1457</title>
<g id="a_node19"><a xlink:href="classQuantConnect_1_1Util_1_1ChartPointJsonConverter.html" target="_top" xlink:title="Json Converter for ChartPoint which handles special reading">
<polygon fill="white" stroke="black" points="140,-245.5 140,-275.5 300,-275.5 300,-245.5 140,-245.5"/>
<text text-anchor="start" x="148" y="-263.5" font-family="Helvetica,sans-Serif" font-size="10.00">QuantConnect.Util.ChartPoint</text>
<text text-anchor="middle" x="220" y="-252.5" font-family="Helvetica,sans-Serif" font-size="10.00">JsonConverter</text>
</a>
</g>
</g>
<!-- Node1439&#45;&gt;Node1457 -->
<g id="edge18" class="edge">
<title>Node1439&#45;&gt;Node1457</title>
<path fill="none" stroke="midnightblue" d="M43.25,-524.76C43.75,-476.5 52.03,-351.7 121,-285.5 126.45,-280.27 132.83,-276.09 139.68,-272.76"/>
<polygon fill="midnightblue" stroke="midnightblue" points="39.75,-524.82 43.25,-534.82 46.75,-524.82 39.75,-524.82"/>
</g>
<!-- Node1458 -->
<g id="node20" class="node">
<title>Node1458</title>
<g id="a_node20"><a xlink:href="classQuantConnect_1_1Util_1_1JsonRoundingConverter.html" target="_top" xlink:title="Helper JsonConverter that will round decimal and double types, to FractionalDigits fractional digits">
<polygon fill="white" stroke="black" points="132.5,-196.5 132.5,-226.5 307.5,-226.5 307.5,-196.5 132.5,-196.5"/>
<text text-anchor="start" x="140.5" y="-214.5" font-family="Helvetica,sans-Serif" font-size="10.00">QuantConnect.Util.JsonRounding</text>
<text text-anchor="middle" x="220" y="-203.5" font-family="Helvetica,sans-Serif" font-size="10.00">Converter</text>
</a>
</g>
</g>
<!-- Node1439&#45;&gt;Node1458 -->
<g id="edge19" class="edge">
<title>Node1439&#45;&gt;Node1458</title>
<path fill="none" stroke="midnightblue" d="M45.84,-524.69C53.47,-463.32 79.59,-278.05 121,-236.5 124.84,-232.64 129.19,-229.36 133.87,-226.55"/>
<polygon fill="midnightblue" stroke="midnightblue" points="42.33,-524.59 44.59,-534.93 49.27,-525.43 42.33,-524.59"/>
</g>
<!-- Node1459 -->
<g id="node21" class="node">
<title>Node1459</title>
<g id="a_node21"><a xlink:href="classQuantConnect_1_1Util_1_1NullStringValueConverter.html" target="_top" xlink:title="Converts the string &quot;null&quot; into a new instance of T. This converter only handles deserialization conc...">
<polygon fill="white" stroke="black" points="141.5,-147.5 141.5,-177.5 298.5,-177.5 298.5,-147.5 141.5,-147.5"/>
<text text-anchor="start" x="149.5" y="-165.5" font-family="Helvetica,sans-Serif" font-size="10.00">QuantConnect.Util.NullString</text>
<text text-anchor="middle" x="220" y="-154.5" font-family="Helvetica,sans-Serif" font-size="10.00">ValueConverter&lt; T &gt;</text>
</a>
</g>
</g>
<!-- Node1439&#45;&gt;Node1459 -->
<g id="edge20" class="edge">
<title>Node1439&#45;&gt;Node1459</title>
<path fill="none" stroke="midnightblue" d="M45.1,-524.69C50.97,-457.07 73.44,-236.8 121,-187.5 126.73,-181.56 133.66,-176.96 141.15,-173.4"/>
<polygon fill="midnightblue" stroke="midnightblue" points="41.6,-524.57 44.25,-534.83 48.57,-525.16 41.6,-524.57"/>
</g>
<!-- Node1460 -->
<g id="node22" class="node">
<title>Node1460</title>
<g id="a_node22"><a xlink:href="classQuantConnect_1_1Util_1_1SeriesJsonConverter.html" target="_top" xlink:title="Json Converter for Series which handles special Pie Series serialization case">
<polygon fill="white" stroke="black" points="150.5,-98.5 150.5,-128.5 289.5,-128.5 289.5,-98.5 150.5,-98.5"/>
<text text-anchor="start" x="158.5" y="-116.5" font-family="Helvetica,sans-Serif" font-size="10.00">QuantConnect.Util.Series</text>
<text text-anchor="middle" x="220" y="-105.5" font-family="Helvetica,sans-Serif" font-size="10.00">JsonConverter</text>
</a>
</g>
</g>
<!-- Node1439&#45;&gt;Node1460 -->
<g id="edge21" class="edge">
<title>Node1439&#45;&gt;Node1460</title>
<path fill="none" stroke="midnightblue" d="M44.55,-524.41C48.84,-450.58 67.33,-195.56 121,-138.5 128.94,-130.06 139.3,-124.31 150.3,-120.42"/>
<polygon fill="midnightblue" stroke="midnightblue" points="41.05,-524.47 43.99,-534.65 48.04,-524.86 41.05,-524.47"/>
</g>
<!-- Node1461 -->
<g id="node23" class="node">
<title>Node1461</title>
<g id="a_node23"><a xlink:href="classQuantConnect_1_1Util_1_1SingleValueListConverter.html" target="_top" xlink:title="Reads json and always produces a List, even if the input has just an object">
<polygon fill="white" stroke="black" points="150.5,-49.5 150.5,-79.5 289.5,-79.5 289.5,-49.5 150.5,-49.5"/>
<text text-anchor="start" x="158.5" y="-67.5" font-family="Helvetica,sans-Serif" font-size="10.00">QuantConnect.Util.Single</text>
<text text-anchor="middle" x="220" y="-56.5" font-family="Helvetica,sans-Serif" font-size="10.00">ValueListConverter&lt; T &gt;</text>
</a>
</g>
</g>
<!-- Node1439&#45;&gt;Node1461 -->
<g id="edge22" class="edge">
<title>Node1439&#45;&gt;Node1461</title>
<path fill="none" stroke="midnightblue" d="M44.1,-524.58C46.88,-445.46 61.07,-154.49 121,-89.5 128.86,-80.98 139.17,-75.19 150.16,-71.29"/>
<polygon fill="midnightblue" stroke="midnightblue" points="40.6,-524.56 43.77,-534.67 47.59,-524.79 40.6,-524.56"/>
</g>
<!-- Node1462 -->
<g id="node24" class="node">
<title>Node1462</title>
<g id="a_node24"><a xlink:href="classQuantConnect_1_1Util_1_1TypeChangeJsonConverter.html" target="_top" xlink:title="Provides a base class for a JsonConverter that serializes a an input type as some other output type">
<polygon fill="white" stroke="black" points="136,-0.5 136,-30.5 304,-30.5 304,-0.5 136,-0.5"/>
<text text-anchor="start" x="144" y="-18.5" font-family="Helvetica,sans-Serif" font-size="10.00">QuantConnect.Util.TypeChange</text>
<text text-anchor="middle" x="220" y="-7.5" font-family="Helvetica,sans-Serif" font-size="10.00">JsonConverter&lt; T, TResult &gt;</text>
</a>
</g>
</g>
<!-- Node1439&#45;&gt;Node1462 -->
<g id="edge23" class="edge">
<title>Node1439&#45;&gt;Node1462</title>
<path fill="none" stroke="midnightblue" d="M43.73,-524.65C45.13,-440.41 54.81,-113.45 121,-40.5 125.25,-35.82 130.24,-31.96 135.68,-28.78"/>
<polygon fill="midnightblue" stroke="midnightblue" points="40.23,-524.83 43.59,-534.88 47.23,-524.93 40.23,-524.83"/>
</g>
</g>
</svg>
