<?xml version="1.0" encoding="UTF-8" standalone="no"?>
<!DOCTYPE svg PUBLIC "-//W3C//DTD SVG 1.1//EN"
 "http://www.w3.org/Graphics/SVG/1.1/DTD/svg11.dtd">
<!-- Generated by graphviz version 2.43.0 (0)
 -->
<!-- Title: Graphical Class Hierarchy Pages: 1 -->
<svg width="267pt" height="382pt"
 viewBox="0.00 0.00 267.00 382.00" xmlns="http://www.w3.org/2000/svg" xmlns:xlink="http://www.w3.org/1999/xlink">
<g id="graph0" class="graph" transform="scale(1 1) rotate(0) translate(4 378)">
<title>Graphical Class Hierarchy</title>
<polygon fill="white" stroke="transparent" points="-4,4 -4,-378 263,-378 263,4 -4,4"/>
<!-- Node2761 -->
<g id="node1" class="node">
<title>Node2761</title>
<g id="a_node1"><a xlink:title=" ">
<polygon fill="white" stroke="#bfbfbf" points="0,-177 0,-196 59,-196 59,-177 0,-177"/>
<text text-anchor="middle" x="29.5" y="-184" font-family="Helvetica,sans-Serif" font-size="10.00">Attribute</text>
</a>
</g>
</g>
<!-- Node0 -->
<g id="node2" class="node">
<title>Node0</title>
<g id="a_node2"><a xlink:href="classQuantConnect_1_1Brokerages_1_1BrokerageFactoryAttribute.html" target="_top" xlink:title="Represents the brokerage factory type required to load a data queue handler">
<polygon fill="white" stroke="black" points="104,-343.5 104,-373.5 250,-373.5 250,-343.5 104,-343.5"/>
<text text-anchor="start" x="112" y="-361.5" font-family="Helvetica,sans-Serif" font-size="10.00">QuantConnect.Brokerages.</text>
<text text-anchor="middle" x="177" y="-350.5" font-family="Helvetica,sans-Serif" font-size="10.00">BrokerageFactoryAttribute</text>
</a>
</g>
</g>
<!-- Node2761&#45;&gt;Node0 -->
<g id="edge1" class="edge">
<title>Node2761&#45;&gt;Node0</title>
<path fill="none" stroke="midnightblue" d="M33.64,-206.28C39.72,-237.99 56.1,-300.11 95,-334.5 98.85,-337.9 103.15,-340.82 107.73,-343.32"/>
<polygon fill="midnightblue" stroke="midnightblue" points="37.03,-205.33 31.85,-196.09 30.13,-206.54 37.03,-205.33"/>
</g>
<!-- Node2763 -->
<g id="node3" class="node">
<title>Node2763</title>
<g id="a_node3"><a xlink:href="classQuantConnect_1_1DocumentationAttribute.html" target="_top" xlink:title="Custom attribute used for documentation">
<polygon fill="white" stroke="black" points="95,-294.5 95,-324.5 259,-324.5 259,-294.5 95,-294.5"/>
<text text-anchor="start" x="103" y="-312.5" font-family="Helvetica,sans-Serif" font-size="10.00">QuantConnect.Documentation</text>
<text text-anchor="middle" x="177" y="-301.5" font-family="Helvetica,sans-Serif" font-size="10.00">Attribute</text>
</a>
</g>
</g>
<!-- Node2761&#45;&gt;Node2763 -->
<g id="edge2" class="edge">
<title>Node2761&#45;&gt;Node2763</title>
<path fill="none" stroke="midnightblue" d="M37.97,-205.43C47.76,-227.81 67.03,-264.65 95,-285.5 99.59,-288.92 104.65,-291.85 109.95,-294.37"/>
<polygon fill="midnightblue" stroke="midnightblue" points="41.12,-203.88 34.04,-196 34.66,-206.58 41.12,-203.88"/>
</g>
<!-- Node2764 -->
<g id="node4" class="node">
<title>Node2764</title>
<g id="a_node4"><a xlink:href="classQuantConnect_1_1Parameters_1_1ParameterAttribute.html" target="_top" xlink:title="Specifies a field or property is a parameter that can be set from an AlgorithmNodePacket....">
<polygon fill="white" stroke="black" points="103.5,-245.5 103.5,-275.5 250.5,-275.5 250.5,-245.5 103.5,-245.5"/>
<text text-anchor="start" x="111.5" y="-263.5" font-family="Helvetica,sans-Serif" font-size="10.00">QuantConnect.Parameters.</text>
<text text-anchor="middle" x="177" y="-252.5" font-family="Helvetica,sans-Serif" font-size="10.00">ParameterAttribute</text>
</a>
</g>
</g>
<!-- Node2761&#45;&gt;Node2764 -->
<g id="edge3" class="edge">
<title>Node2761&#45;&gt;Node2764</title>
<path fill="none" stroke="midnightblue" d="M48.29,-203.25C60.6,-214.05 77.79,-227.68 95,-236.5 101.53,-239.85 108.59,-242.8 115.74,-245.39"/>
<polygon fill="midnightblue" stroke="midnightblue" points="50.38,-200.42 40.62,-196.31 45.69,-205.61 50.38,-200.42"/>
</g>
<!-- Node2765 -->
<g id="node5" class="node">
<title>Node2765</title>
<g id="a_node5"><a xlink:href="classQuantConnect_1_1Python_1_1PandasColumnAttribute.html" target="_top" xlink:title="Attribute to rename a property or field when converting an instance to a pandas DataFrame row.">
<polygon fill="white" stroke="black" points="97,-196.5 97,-226.5 257,-226.5 257,-196.5 97,-196.5"/>
<text text-anchor="start" x="105" y="-214.5" font-family="Helvetica,sans-Serif" font-size="10.00">QuantConnect.Python.Pandas</text>
<text text-anchor="middle" x="177" y="-203.5" font-family="Helvetica,sans-Serif" font-size="10.00">ColumnAttribute</text>
</a>
</g>
</g>
<!-- Node2761&#45;&gt;Node2765 -->
<g id="edge4" class="edge">
<title>Node2761&#45;&gt;Node2765</title>
<path fill="none" stroke="midnightblue" d="M69.29,-193.17C77.9,-194.64 87.32,-196.26 96.89,-197.91"/>
<polygon fill="midnightblue" stroke="midnightblue" points="69.69,-189.68 59.25,-191.44 68.51,-196.58 69.69,-189.68"/>
</g>
<!-- Node2766 -->
<g id="node6" class="node">
<title>Node2766</title>
<g id="a_node6"><a xlink:href="classQuantConnect_1_1Python_1_1PandasIgnoreAttribute.html" target="_top" xlink:title="Attribute to mark a property or field as ignored when converting an instance to a pandas DataFrame ro...">
<polygon fill="white" stroke="black" points="97,-147.5 97,-177.5 257,-177.5 257,-147.5 97,-147.5"/>
<text text-anchor="start" x="105" y="-165.5" font-family="Helvetica,sans-Serif" font-size="10.00">QuantConnect.Python.Pandas</text>
<text text-anchor="middle" x="177" y="-154.5" font-family="Helvetica,sans-Serif" font-size="10.00">IgnoreAttribute</text>
</a>
</g>
</g>
<!-- Node2761&#45;&gt;Node2766 -->
<g id="edge5" class="edge">
<title>Node2761&#45;&gt;Node2766</title>
<path fill="none" stroke="midnightblue" d="M69.29,-180.1C77.9,-178.68 87.32,-177.13 96.89,-175.55"/>
<polygon fill="midnightblue" stroke="midnightblue" points="68.54,-176.68 59.25,-181.76 69.68,-183.58 68.54,-176.68"/>
</g>
<!-- Node2767 -->
<g id="node7" class="node">
<title>Node2767</title>
<g id="a_node7"><a xlink:href="classQuantConnect_1_1Python_1_1PandasIgnoreMembersAttribute.html" target="_top" xlink:title="Attribute to indicate the pandas converter to ignore all members of the class when converting an inst...">
<polygon fill="white" stroke="black" points="97,-98.5 97,-128.5 257,-128.5 257,-98.5 97,-98.5"/>
<text text-anchor="start" x="105" y="-116.5" font-family="Helvetica,sans-Serif" font-size="10.00">QuantConnect.Python.Pandas</text>
<text text-anchor="middle" x="177" y="-105.5" font-family="Helvetica,sans-Serif" font-size="10.00">IgnoreMembersAttribute</text>
</a>
</g>
</g>
<!-- Node2761&#45;&gt;Node2767 -->
<g id="edge6" class="edge">
<title>Node2761&#45;&gt;Node2767</title>
<path fill="none" stroke="midnightblue" d="M48.88,-170.15C61.21,-159.89 78.21,-147.02 95,-138.5 102.35,-134.77 110.36,-131.48 118.39,-128.61"/>
<polygon fill="midnightblue" stroke="midnightblue" points="46.48,-167.6 41.15,-176.76 51.02,-172.92 46.48,-167.6"/>
</g>
<!-- Node2768 -->
<g id="node8" class="node">
<title>Node2768</title>
<g id="a_node8"><a xlink:href="classQuantConnect_1_1Python_1_1PandasNonExpandableAttribute.html" target="_top" xlink:title="Attribute to mark a class, field or property as non&#45;expandable by the pandas converter....">
<polygon fill="white" stroke="black" points="97,-49.5 97,-79.5 257,-79.5 257,-49.5 97,-49.5"/>
<text text-anchor="start" x="105" y="-67.5" font-family="Helvetica,sans-Serif" font-size="10.00">QuantConnect.Python.Pandas</text>
<text text-anchor="middle" x="177" y="-56.5" font-family="Helvetica,sans-Serif" font-size="10.00">NonExpandableAttribute</text>
</a>
</g>
</g>
<!-- Node2761&#45;&gt;Node2768 -->
<g id="edge7" class="edge">
<title>Node2761&#45;&gt;Node2768</title>
<path fill="none" stroke="midnightblue" d="M38.26,-167.67C48.23,-145.76 67.59,-109.98 95,-89.5 100.19,-85.62 105.98,-82.34 112.03,-79.56"/>
<polygon fill="midnightblue" stroke="midnightblue" points="35.02,-166.36 34.24,-176.92 41.44,-169.15 35.02,-166.36"/>
</g>
<!-- Node2769 -->
<g id="node9" class="node">
<title>Node2769</title>
<g id="a_node9"><a xlink:href="classQuantConnect_1_1StubsIgnoreAttribute.html" target="_top" xlink:title="P Custom attribute used for marking classes, methods, properties, etc. that should be ignored by the ...">
<polygon fill="white" stroke="black" points="104,-0.5 104,-30.5 250,-30.5 250,-0.5 104,-0.5"/>
<text text-anchor="start" x="112" y="-18.5" font-family="Helvetica,sans-Serif" font-size="10.00">QuantConnect.StubsIgnore</text>
<text text-anchor="middle" x="177" y="-7.5" font-family="Helvetica,sans-Serif" font-size="10.00">Attribute</text>
</a>
</g>
</g>
<!-- Node2761&#45;&gt;Node2769 -->
<g id="edge8" class="edge">
<title>Node2761&#45;&gt;Node2769</title>
<path fill="none" stroke="midnightblue" d="M33.86,-166.58C40.19,-135.22 56.83,-74.46 95,-40.5 99.4,-36.59 104.4,-33.29 109.71,-30.5"/>
<polygon fill="midnightblue" stroke="midnightblue" points="30.37,-166.22 31.97,-176.69 37.25,-167.5 30.37,-166.22"/>
</g>
</g>
</svg>
