<?xml version="1.0" encoding="UTF-8" standalone="no"?>
<!DOCTYPE svg PUBLIC "-//W3C//DTD SVG 1.1//EN"
 "http://www.w3.org/Graphics/SVG/1.1/DTD/svg11.dtd">
<!-- Generated by graphviz version 2.43.0 (0)
 -->
<!-- Title: Graphical Class Hierarchy Pages: 1 -->
<svg width="1082pt" height="1068pt"
 viewBox="0.00 0.00 1082.00 1068.00" xmlns="http://www.w3.org/2000/svg" xmlns:xlink="http://www.w3.org/1999/xlink">
<g id="graph0" class="graph" transform="scale(1 1) rotate(0) translate(4 1064)">
<title>Graphical Class Hierarchy</title>
<polygon fill="white" stroke="transparent" points="-4,4 -4,-1064 1078,-1064 1078,4 -4,4"/>
<!-- Node2741 -->
<g id="node1" class="node">
<title>Node2741</title>
<g id="a_node1"><a xlink:href="classQuantConnect_1_1Python_1_1BasePythonWrapper.html" target="_top" xlink:title=" ">
<polygon fill="white" stroke="black" points="0,-563.5 0,-593.5 197,-593.5 197,-563.5 0,-563.5"/>
<text text-anchor="start" x="8" y="-581.5" font-family="Helvetica,sans-Serif" font-size="10.00">QuantConnect.Python.Base</text>
<text text-anchor="middle" x="98.5" y="-570.5" font-family="Helvetica,sans-Serif" font-size="10.00">PythonWrapper&lt; IBrokerageModel &gt;</text>
</a>
</g>
</g>
<!-- Node29 -->
<g id="node2" class="node">
<title>Node29</title>
<g id="a_node2"><a xlink:href="classQuantConnect_1_1Python_1_1BrokerageModelPythonWrapper.html" target="_top" xlink:title="Provides an implementation of IBrokerageModel that wraps a PyObject object">
<polygon fill="white" stroke="black" points="233,-563.5 233,-593.5 408,-593.5 408,-563.5 233,-563.5"/>
<text text-anchor="start" x="241" y="-581.5" font-family="Helvetica,sans-Serif" font-size="10.00">QuantConnect.Python.Brokerage</text>
<text text-anchor="middle" x="320.5" y="-570.5" font-family="Helvetica,sans-Serif" font-size="10.00">ModelPythonWrapper</text>
</a>
</g>
</g>
<!-- Node2741&#45;&gt;Node29 -->
<g id="edge1" class="edge">
<title>Node2741&#45;&gt;Node29</title>
<path fill="none" stroke="midnightblue" d="M207.28,-578.5C215.82,-578.5 224.38,-578.5 232.75,-578.5"/>
<polygon fill="midnightblue" stroke="midnightblue" points="207.28,-575 197.28,-578.5 207.28,-582 207.28,-575"/>
</g>
<!-- Node0 -->
<g id="node3" class="node">
<title>Node0</title>
<g id="a_node3"><a xlink:href="interfaceQuantConnect_1_1Brokerages_1_1IBrokerageModel.html" target="_top" xlink:title="Models brokerage transactions, fees, and order">
<polygon fill="white" stroke="black" points="25.5,-514.5 25.5,-544.5 171.5,-544.5 171.5,-514.5 25.5,-514.5"/>
<text text-anchor="start" x="33.5" y="-532.5" font-family="Helvetica,sans-Serif" font-size="10.00">QuantConnect.Brokerages.</text>
<text text-anchor="middle" x="98.5" y="-521.5" font-family="Helvetica,sans-Serif" font-size="10.00">IBrokerageModel</text>
</a>
</g>
</g>
<!-- Node0&#45;&gt;Node29 -->
<g id="edge30" class="edge">
<title>Node0&#45;&gt;Node29</title>
<path fill="none" stroke="midnightblue" d="M176.99,-546.76C201.5,-552.22 228.38,-558.21 252.13,-563.49"/>
<polygon fill="midnightblue" stroke="midnightblue" points="177.52,-543.29 167,-544.53 176,-550.12 177.52,-543.29"/>
</g>
<!-- Node1 -->
<g id="node4" class="node">
<title>Node1</title>
<g id="a_node4"><a xlink:href="classQuantConnect_1_1Brokerages_1_1DefaultBrokerageModel.html" target="_top" xlink:title="Provides a default implementation of IBrokerageModel that allows all orders and uses the default tran...">
<polygon fill="white" stroke="black" points="247.5,-514.5 247.5,-544.5 393.5,-544.5 393.5,-514.5 247.5,-514.5"/>
<text text-anchor="start" x="255.5" y="-532.5" font-family="Helvetica,sans-Serif" font-size="10.00">QuantConnect.Brokerages.</text>
<text text-anchor="middle" x="320.5" y="-521.5" font-family="Helvetica,sans-Serif" font-size="10.00">DefaultBrokerageModel</text>
</a>
</g>
</g>
<!-- Node0&#45;&gt;Node1 -->
<g id="edge2" class="edge">
<title>Node0&#45;&gt;Node1</title>
<path fill="none" stroke="midnightblue" d="M181.65,-529.5C203.21,-529.5 226.3,-529.5 247.3,-529.5"/>
<polygon fill="midnightblue" stroke="midnightblue" points="181.54,-526 171.54,-529.5 181.54,-533 181.54,-526"/>
</g>
<!-- Node2 -->
<g id="node5" class="node">
<title>Node2</title>
<g id="a_node5"><a xlink:href="classQuantConnect_1_1Brokerages_1_1AlpacaBrokerageModel.html" target="_top" xlink:title="Provides an implementation of the DefaultBrokerageModel specific to Alpaca brokerage.">
<polygon fill="white" stroke="black" points="468,-1029.5 468,-1059.5 614,-1059.5 614,-1029.5 468,-1029.5"/>
<text text-anchor="start" x="476" y="-1047.5" font-family="Helvetica,sans-Serif" font-size="10.00">QuantConnect.Brokerages.</text>
<text text-anchor="middle" x="541" y="-1036.5" font-family="Helvetica,sans-Serif" font-size="10.00">AlpacaBrokerageModel</text>
</a>
</g>
</g>
<!-- Node1&#45;&gt;Node2 -->
<g id="edge3" class="edge">
<title>Node1&#45;&gt;Node2</title>
<path fill="none" stroke="midnightblue" d="M402.33,-547.7C404.37,-549.46 406.27,-551.39 408,-553.5 474.14,-633.87 376.84,-940.98 444,-1020.5 450.32,-1027.98 458.58,-1033.32 467.61,-1037.1"/>
<polygon fill="midnightblue" stroke="midnightblue" points="404.04,-544.61 393.86,-541.64 399.97,-550.31 404.04,-544.61"/>
</g>
<!-- Node3 -->
<g id="node6" class="node">
<title>Node3</title>
<g id="a_node6"><a xlink:href="classQuantConnect_1_1Brokerages_1_1AlphaStreamsBrokerageModel.html" target="_top" xlink:title="Provides properties specific to Alpha Streams">
<polygon fill="white" stroke="black" points="459,-980.5 459,-1010.5 623,-1010.5 623,-980.5 459,-980.5"/>
<text text-anchor="start" x="467" y="-998.5" font-family="Helvetica,sans-Serif" font-size="10.00">QuantConnect.Brokerages.</text>
<text text-anchor="middle" x="541" y="-987.5" font-family="Helvetica,sans-Serif" font-size="10.00">AlphaStreamsBrokerageModel</text>
</a>
</g>
</g>
<!-- Node1&#45;&gt;Node3 -->
<g id="edge4" class="edge">
<title>Node1&#45;&gt;Node3</title>
<path fill="none" stroke="midnightblue" d="M402.31,-547.72C404.35,-549.48 406.26,-551.4 408,-553.5 467.56,-625.23 383.52,-900.55 444,-971.5 448.23,-976.47 453.33,-980.49 458.93,-983.74"/>
<polygon fill="midnightblue" stroke="midnightblue" points="404,-544.62 393.82,-541.68 399.94,-550.33 404,-544.62"/>
</g>
<!-- Node4 -->
<g id="node7" class="node">
<title>Node4</title>
<g id="a_node7"><a xlink:href="classQuantConnect_1_1Brokerages_1_1AxosClearingBrokerageModel.html" target="_top" xlink:title="Provides the Axos clearing brokerage model specific properties">
<polygon fill="white" stroke="black" points="461,-931.5 461,-961.5 621,-961.5 621,-931.5 461,-931.5"/>
<text text-anchor="start" x="469" y="-949.5" font-family="Helvetica,sans-Serif" font-size="10.00">QuantConnect.Brokerages.</text>
<text text-anchor="middle" x="541" y="-938.5" font-family="Helvetica,sans-Serif" font-size="10.00">AxosClearingBrokerageModel</text>
</a>
</g>
</g>
<!-- Node1&#45;&gt;Node4 -->
<g id="edge5" class="edge">
<title>Node1&#45;&gt;Node4</title>
<path fill="none" stroke="midnightblue" d="M402.27,-547.74C404.33,-549.5 406.25,-551.41 408,-553.5 460.99,-616.58 390.2,-860.1 444,-922.5 448.71,-927.96 454.46,-932.28 460.78,-935.68"/>
<polygon fill="midnightblue" stroke="midnightblue" points="403.95,-544.64 393.76,-541.73 399.91,-550.36 403.95,-544.64"/>
</g>
<!-- Node5 -->
<g id="node8" class="node">
<title>Node5</title>
<g id="a_node8"><a xlink:href="classQuantConnect_1_1Brokerages_1_1BinanceBrokerageModel.html" target="_top" xlink:title="Provides Binance specific properties">
<polygon fill="white" stroke="black" points="468,-882.5 468,-912.5 614,-912.5 614,-882.5 468,-882.5"/>
<text text-anchor="start" x="476" y="-900.5" font-family="Helvetica,sans-Serif" font-size="10.00">QuantConnect.Brokerages.</text>
<text text-anchor="middle" x="541" y="-889.5" font-family="Helvetica,sans-Serif" font-size="10.00">BinanceBrokerageModel</text>
</a>
</g>
</g>
<!-- Node1&#45;&gt;Node5 -->
<g id="edge6" class="edge">
<title>Node1&#45;&gt;Node5</title>
<path fill="none" stroke="midnightblue" d="M402.23,-547.78C404.3,-549.52 406.23,-551.42 408,-553.5 500.86,-662.4 349.75,-765.8 444,-873.5 450.45,-880.87 458.79,-886.15 467.85,-889.9"/>
<polygon fill="midnightblue" stroke="midnightblue" points="403.89,-544.66 393.69,-541.79 399.87,-550.39 403.89,-544.66"/>
</g>
<!-- Node9 -->
<g id="node12" class="node">
<title>Node9</title>
<g id="a_node12"><a xlink:href="classQuantConnect_1_1Brokerages_1_1BitfinexBrokerageModel.html" target="_top" xlink:title="Provides Bitfinex specific properties">
<polygon fill="white" stroke="black" points="468,-833.5 468,-863.5 614,-863.5 614,-833.5 468,-833.5"/>
<text text-anchor="start" x="476" y="-851.5" font-family="Helvetica,sans-Serif" font-size="10.00">QuantConnect.Brokerages.</text>
<text text-anchor="middle" x="541" y="-840.5" font-family="Helvetica,sans-Serif" font-size="10.00">BitfinexBrokerageModel</text>
</a>
</g>
</g>
<!-- Node1&#45;&gt;Node9 -->
<g id="edge10" class="edge">
<title>Node1&#45;&gt;Node9</title>
<path fill="none" stroke="midnightblue" d="M402.18,-547.82C404.26,-549.55 406.21,-551.44 408,-553.5 487.76,-645.16 363.07,-733.87 444,-824.5 450.52,-831.8 458.9,-837.05 467.98,-840.78"/>
<polygon fill="midnightblue" stroke="midnightblue" points="403.8,-544.69 393.58,-541.88 399.82,-550.45 403.8,-544.69"/>
</g>
<!-- Node10 -->
<g id="node13" class="node">
<title>Node10</title>
<g id="a_node13"><a xlink:href="classQuantConnect_1_1Brokerages_1_1CharlesSchwabBrokerageModel.html" target="_top" xlink:title="Represents a brokerage model specific to Charles Schwab.">
<polygon fill="white" stroke="black" points="456,-784.5 456,-814.5 626,-814.5 626,-784.5 456,-784.5"/>
<text text-anchor="start" x="464" y="-802.5" font-family="Helvetica,sans-Serif" font-size="10.00">QuantConnect.Brokerages.</text>
<text text-anchor="middle" x="541" y="-791.5" font-family="Helvetica,sans-Serif" font-size="10.00">CharlesSchwabBrokerageModel</text>
</a>
</g>
</g>
<!-- Node1&#45;&gt;Node10 -->
<g id="edge11" class="edge">
<title>Node1&#45;&gt;Node10</title>
<path fill="none" stroke="midnightblue" d="M402.26,-548.02C404.3,-549.7 406.23,-551.52 408,-553.5 474.69,-627.95 376.36,-701.91 444,-775.5 447.49,-779.29 451.48,-782.53 455.8,-785.28"/>
<polygon fill="midnightblue" stroke="midnightblue" points="404.07,-545.02 393.85,-542.24 400.11,-550.79 404.07,-545.02"/>
</g>
<!-- Node11 -->
<g id="node14" class="node">
<title>Node11</title>
<g id="a_node14"><a xlink:href="classQuantConnect_1_1Brokerages_1_1CoinbaseBrokerageModel.html" target="_top" xlink:title="Represents a brokerage model for interacting with the Coinbase exchange. This class extends the defau...">
<polygon fill="white" stroke="black" points="468,-735.5 468,-765.5 614,-765.5 614,-735.5 468,-735.5"/>
<text text-anchor="start" x="476" y="-753.5" font-family="Helvetica,sans-Serif" font-size="10.00">QuantConnect.Brokerages.</text>
<text text-anchor="middle" x="541" y="-742.5" font-family="Helvetica,sans-Serif" font-size="10.00">CoinbaseBrokerageModel</text>
</a>
</g>
</g>
<!-- Node1&#45;&gt;Node11 -->
<g id="edge12" class="edge">
<title>Node1&#45;&gt;Node11</title>
<path fill="none" stroke="midnightblue" d="M402.15,-548.12C404.22,-549.77 406.18,-551.56 408,-553.5 461.42,-610.47 390.13,-668.95 444,-725.5 450.65,-732.48 458.99,-737.61 467.95,-741.35"/>
<polygon fill="midnightblue" stroke="midnightblue" points="403.89,-545.08 393.63,-542.44 400,-550.9 403.89,-545.08"/>
</g>
<!-- Node13 -->
<g id="node16" class="node">
<title>Node13</title>
<g id="a_node16"><a xlink:href="classQuantConnect_1_1Brokerages_1_1ExanteBrokerageModel.html" target="_top" xlink:title="Exante Brokerage Model Implementation for Back Testing.">
<polygon fill="white" stroke="black" points="468,-686.5 468,-716.5 614,-716.5 614,-686.5 468,-686.5"/>
<text text-anchor="start" x="476" y="-704.5" font-family="Helvetica,sans-Serif" font-size="10.00">QuantConnect.Brokerages.</text>
<text text-anchor="middle" x="541" y="-693.5" font-family="Helvetica,sans-Serif" font-size="10.00">ExanteBrokerageModel</text>
</a>
</g>
</g>
<!-- Node1&#45;&gt;Node13 -->
<g id="edge14" class="edge">
<title>Node1&#45;&gt;Node13</title>
<path fill="none" stroke="midnightblue" d="M402.11,-548.44C404.18,-550 406.16,-551.68 408,-553.5 448.56,-593.49 403.12,-636.83 444,-676.5 450.8,-683.1 459.11,-688.01 467.96,-691.67"/>
<polygon fill="midnightblue" stroke="midnightblue" points="403.98,-545.48 393.67,-543.02 400.2,-551.37 403.98,-545.48"/>
</g>
<!-- Node14 -->
<g id="node17" class="node">
<title>Node14</title>
<g id="a_node17"><a xlink:href="classQuantConnect_1_1Brokerages_1_1EzeBrokerageModel.html" target="_top" xlink:title="Provides Eze specific properties">
<polygon fill="white" stroke="black" points="468,-637.5 468,-667.5 614,-667.5 614,-637.5 468,-637.5"/>
<text text-anchor="start" x="476" y="-655.5" font-family="Helvetica,sans-Serif" font-size="10.00">QuantConnect.Brokerages.</text>
<text text-anchor="middle" x="541" y="-644.5" font-family="Helvetica,sans-Serif" font-size="10.00">EzeBrokerageModel</text>
</a>
</g>
</g>
<!-- Node1&#45;&gt;Node14 -->
<g id="edge15" class="edge">
<title>Node1&#45;&gt;Node14</title>
<path fill="none" stroke="midnightblue" d="M402.51,-549.38C404.41,-550.67 406.25,-552.04 408,-553.5 436.11,-576.9 415.71,-604.32 444,-627.5 451.06,-633.28 459.31,-637.75 467.96,-641.18"/>
<polygon fill="midnightblue" stroke="midnightblue" points="404.19,-546.31 393.8,-544.26 400.64,-552.34 404.19,-546.31"/>
</g>
<!-- Node15 -->
<g id="node18" class="node">
<title>Node15</title>
<g id="a_node18"><a xlink:href="classQuantConnect_1_1Brokerages_1_1FTXBrokerageModel.html" target="_top" xlink:title="FTX Brokerage model">
<polygon fill="white" stroke="black" points="468,-588.5 468,-618.5 614,-618.5 614,-588.5 468,-588.5"/>
<text text-anchor="start" x="476" y="-606.5" font-family="Helvetica,sans-Serif" font-size="10.00">QuantConnect.Brokerages.</text>
<text text-anchor="middle" x="541" y="-595.5" font-family="Helvetica,sans-Serif" font-size="10.00">FTXBrokerageModel</text>
</a>
</g>
</g>
<!-- Node1&#45;&gt;Node15 -->
<g id="edge16" class="edge">
<title>Node1&#45;&gt;Node15</title>
<path fill="none" stroke="midnightblue" d="M394.69,-547.9C399.26,-549.63 403.73,-551.49 408,-553.5 425.63,-561.78 426.3,-570.36 444,-578.5 452.29,-582.31 461.27,-585.62 470.29,-588.46"/>
<polygon fill="midnightblue" stroke="midnightblue" points="395.82,-544.58 385.23,-544.53 393.47,-551.18 395.82,-544.58"/>
</g>
<!-- Node17 -->
<g id="node20" class="node">
<title>Node17</title>
<g id="a_node20"><a xlink:href="classQuantConnect_1_1Brokerages_1_1FxcmBrokerageModel.html" target="_top" xlink:title="Provides FXCM specific properties">
<polygon fill="white" stroke="black" points="468,-539.5 468,-569.5 614,-569.5 614,-539.5 468,-539.5"/>
<text text-anchor="start" x="476" y="-557.5" font-family="Helvetica,sans-Serif" font-size="10.00">QuantConnect.Brokerages.</text>
<text text-anchor="middle" x="541" y="-546.5" font-family="Helvetica,sans-Serif" font-size="10.00">FxcmBrokerageModel</text>
</a>
</g>
</g>
<!-- Node1&#45;&gt;Node17 -->
<g id="edge18" class="edge">
<title>Node1&#45;&gt;Node17</title>
<path fill="none" stroke="midnightblue" d="M403.86,-538.92C424.93,-541.33 447.42,-543.91 467.93,-546.25"/>
<polygon fill="midnightblue" stroke="midnightblue" points="403.98,-535.41 393.65,-537.76 403.19,-542.37 403.98,-535.41"/>
</g>
<!-- Node18 -->
<g id="node21" class="node">
<title>Node18</title>
<g id="a_node21"><a xlink:href="classQuantConnect_1_1Brokerages_1_1InteractiveBrokersBrokerageModel.html" target="_top" xlink:title="Provides properties specific to interactive brokers">
<polygon fill="white" stroke="black" points="448.5,-490.5 448.5,-520.5 633.5,-520.5 633.5,-490.5 448.5,-490.5"/>
<text text-anchor="start" x="456.5" y="-508.5" font-family="Helvetica,sans-Serif" font-size="10.00">QuantConnect.Brokerages.</text>
<text text-anchor="middle" x="541" y="-497.5" font-family="Helvetica,sans-Serif" font-size="10.00">InteractiveBrokersBrokerageModel</text>
</a>
</g>
</g>
<!-- Node1&#45;&gt;Node18 -->
<g id="edge19" class="edge">
<title>Node1&#45;&gt;Node18</title>
<path fill="none" stroke="midnightblue" d="M403.65,-520.48C418.27,-518.87 433.58,-517.19 448.44,-515.56"/>
<polygon fill="midnightblue" stroke="midnightblue" points="403.21,-517 393.65,-521.57 403.97,-523.96 403.21,-517"/>
</g>
<!-- Node19 -->
<g id="node22" class="node">
<title>Node19</title>
<g id="a_node22"><a xlink:href="classQuantConnect_1_1Brokerages_1_1KrakenBrokerageModel.html" target="_top" xlink:title="Kraken Brokerage model">
<polygon fill="white" stroke="black" points="468,-441.5 468,-471.5 614,-471.5 614,-441.5 468,-441.5"/>
<text text-anchor="start" x="476" y="-459.5" font-family="Helvetica,sans-Serif" font-size="10.00">QuantConnect.Brokerages.</text>
<text text-anchor="middle" x="541" y="-448.5" font-family="Helvetica,sans-Serif" font-size="10.00">KrakenBrokerageModel</text>
</a>
</g>
</g>
<!-- Node1&#45;&gt;Node19 -->
<g id="edge20" class="edge">
<title>Node1&#45;&gt;Node19</title>
<path fill="none" stroke="midnightblue" d="M364.85,-510.49C388.05,-500.74 417.28,-489.14 444,-480.5 453.89,-477.3 464.47,-474.28 474.85,-471.52"/>
<polygon fill="midnightblue" stroke="midnightblue" points="363.47,-507.28 355.63,-514.4 366.2,-513.72 363.47,-507.28"/>
</g>
<!-- Node20 -->
<g id="node23" class="node">
<title>Node20</title>
<g id="a_node23"><a xlink:href="classQuantConnect_1_1Brokerages_1_1OandaBrokerageModel.html" target="_top" xlink:title="Oanda Brokerage Model Implementation for Back Testing.">
<polygon fill="white" stroke="black" points="468,-392.5 468,-422.5 614,-422.5 614,-392.5 468,-392.5"/>
<text text-anchor="start" x="476" y="-410.5" font-family="Helvetica,sans-Serif" font-size="10.00">QuantConnect.Brokerages.</text>
<text text-anchor="middle" x="541" y="-399.5" font-family="Helvetica,sans-Serif" font-size="10.00">OandaBrokerageModel</text>
</a>
</g>
</g>
<!-- Node1&#45;&gt;Node20 -->
<g id="edge21" class="edge">
<title>Node1&#45;&gt;Node20</title>
<path fill="none" stroke="midnightblue" d="M343.05,-507.37C366.04,-485.01 404.53,-451.05 444,-431.5 451.47,-427.8 459.55,-424.64 467.75,-421.95"/>
<polygon fill="midnightblue" stroke="midnightblue" points="340.51,-504.95 335.86,-514.47 345.44,-509.93 340.51,-504.95"/>
</g>
<!-- Node21 -->
<g id="node24" class="node">
<title>Node21</title>
<g id="a_node24"><a xlink:href="classQuantConnect_1_1Brokerages_1_1RBIBrokerageModel.html" target="_top" xlink:title="RBI Brokerage model">
<polygon fill="white" stroke="black" points="468,-343.5 468,-373.5 614,-373.5 614,-343.5 468,-343.5"/>
<text text-anchor="start" x="476" y="-361.5" font-family="Helvetica,sans-Serif" font-size="10.00">QuantConnect.Brokerages.</text>
<text text-anchor="middle" x="541" y="-350.5" font-family="Helvetica,sans-Serif" font-size="10.00">RBIBrokerageModel</text>
</a>
</g>
</g>
<!-- Node1&#45;&gt;Node21 -->
<g id="edge22" class="edge">
<title>Node1&#45;&gt;Node21</title>
<path fill="none" stroke="midnightblue" d="M334.91,-505.34C354.49,-472.38 394.06,-413.84 444,-382.5 451.28,-377.93 459.37,-374.24 467.69,-371.24"/>
<polygon fill="midnightblue" stroke="midnightblue" points="331.7,-503.9 329.71,-514.3 337.75,-507.41 331.7,-503.9"/>
</g>
<!-- Node22 -->
<g id="node25" class="node">
<title>Node22</title>
<g id="a_node25"><a xlink:href="classQuantConnect_1_1Brokerages_1_1SamcoBrokerageModel.html" target="_top" xlink:title="Brokerage Model implementation for Samco">
<polygon fill="white" stroke="black" points="468,-294.5 468,-324.5 614,-324.5 614,-294.5 468,-294.5"/>
<text text-anchor="start" x="476" y="-312.5" font-family="Helvetica,sans-Serif" font-size="10.00">QuantConnect.Brokerages.</text>
<text text-anchor="middle" x="541" y="-301.5" font-family="Helvetica,sans-Serif" font-size="10.00">SamcoBrokerageModel</text>
</a>
</g>
</g>
<!-- Node1&#45;&gt;Node22 -->
<g id="edge23" class="edge">
<title>Node1&#45;&gt;Node22</title>
<path fill="none" stroke="midnightblue" d="M329.81,-505.06C345.33,-463.19 382.83,-377.97 444,-333.5 451.09,-328.35 459.16,-324.3 467.55,-321.11"/>
<polygon fill="midnightblue" stroke="midnightblue" points="326.51,-503.89 326.41,-514.48 333.09,-506.26 326.51,-503.89"/>
</g>
<!-- Node23 -->
<g id="node26" class="node">
<title>Node23</title>
<g id="a_node26"><a xlink:href="classQuantConnect_1_1Brokerages_1_1TDAmeritradeBrokerageModel.html" target="_top" xlink:title="TDAmeritrade">
<polygon fill="white" stroke="black" points="459,-245.5 459,-275.5 623,-275.5 623,-245.5 459,-245.5"/>
<text text-anchor="start" x="467" y="-263.5" font-family="Helvetica,sans-Serif" font-size="10.00">QuantConnect.Brokerages.</text>
<text text-anchor="middle" x="541" y="-252.5" font-family="Helvetica,sans-Serif" font-size="10.00">TDAmeritradeBrokerageModel</text>
</a>
</g>
</g>
<!-- Node1&#45;&gt;Node23 -->
<g id="edge24" class="edge">
<title>Node1&#45;&gt;Node23</title>
<path fill="none" stroke="midnightblue" d="M326.7,-504.42C338.39,-454.51 371.6,-342.58 444,-284.5 448.56,-280.85 453.6,-277.74 458.91,-275.1"/>
<polygon fill="midnightblue" stroke="midnightblue" points="323.24,-503.83 324.46,-514.36 330.07,-505.37 323.24,-503.83"/>
</g>
<!-- Node24 -->
<g id="node27" class="node">
<title>Node24</title>
<g id="a_node27"><a xlink:href="classQuantConnect_1_1Brokerages_1_1TradeStationBrokerageModel.html" target="_top" xlink:title="Represents a brokerage model specific to TradeStation.">
<polygon fill="white" stroke="black" points="462.5,-196.5 462.5,-226.5 619.5,-226.5 619.5,-196.5 462.5,-196.5"/>
<text text-anchor="start" x="470.5" y="-214.5" font-family="Helvetica,sans-Serif" font-size="10.00">QuantConnect.Brokerages.</text>
<text text-anchor="middle" x="541" y="-203.5" font-family="Helvetica,sans-Serif" font-size="10.00">TradeStationBrokerageModel</text>
</a>
</g>
</g>
<!-- Node1&#45;&gt;Node24 -->
<g id="edge25" class="edge">
<title>Node1&#45;&gt;Node24</title>
<path fill="none" stroke="midnightblue" d="M324.42,-504.29C332.4,-447.3 359.93,-307.83 444,-235.5 449.47,-230.79 455.73,-226.99 462.37,-223.91"/>
<polygon fill="midnightblue" stroke="midnightblue" points="320.94,-503.88 323.11,-514.25 327.88,-504.79 320.94,-503.88"/>
</g>
<!-- Node25 -->
<g id="node28" class="node">
<title>Node25</title>
<g id="a_node28"><a xlink:href="classQuantConnect_1_1Brokerages_1_1TradierBrokerageModel.html" target="_top" xlink:title="Provides tradier specific properties">
<polygon fill="white" stroke="black" points="468,-147.5 468,-177.5 614,-177.5 614,-147.5 468,-147.5"/>
<text text-anchor="start" x="476" y="-165.5" font-family="Helvetica,sans-Serif" font-size="10.00">QuantConnect.Brokerages.</text>
<text text-anchor="middle" x="541" y="-154.5" font-family="Helvetica,sans-Serif" font-size="10.00">TradierBrokerageModel</text>
</a>
</g>
</g>
<!-- Node1&#45;&gt;Node25 -->
<g id="edge26" class="edge">
<title>Node1&#45;&gt;Node25</title>
<path fill="none" stroke="midnightblue" d="M322.73,-504.18C327.24,-440.66 348.1,-273.43 444,-186.5 450.87,-180.27 459.12,-175.6 467.85,-172.11"/>
<polygon fill="midnightblue" stroke="midnightblue" points="319.22,-504.26 322.08,-514.46 326.21,-504.7 319.22,-504.26"/>
</g>
<!-- Node26 -->
<g id="node29" class="node">
<title>Node26</title>
<g id="a_node29"><a xlink:href="classQuantConnect_1_1Brokerages_1_1TradingTechnologiesBrokerageModel.html" target="_top" xlink:title="Provides properties specific to Trading Technologies">
<polygon fill="white" stroke="black" points="444,-98.5 444,-128.5 638,-128.5 638,-98.5 444,-98.5"/>
<text text-anchor="start" x="452" y="-116.5" font-family="Helvetica,sans-Serif" font-size="10.00">QuantConnect.Brokerages.</text>
<text text-anchor="middle" x="541" y="-105.5" font-family="Helvetica,sans-Serif" font-size="10.00">TradingTechnologiesBrokerageModel</text>
</a>
</g>
</g>
<!-- Node1&#45;&gt;Node26 -->
<g id="edge27" class="edge">
<title>Node1&#45;&gt;Node26</title>
<path fill="none" stroke="midnightblue" d="M321.42,-504.41C322.64,-435.12 335.96,-239.46 444,-137.5 447.62,-134.08 451.66,-131.13 455.96,-128.58"/>
<polygon fill="midnightblue" stroke="midnightblue" points="317.92,-504.38 321.32,-514.42 324.92,-504.45 317.92,-504.38"/>
</g>
<!-- Node27 -->
<g id="node30" class="node">
<title>Node27</title>
<g id="a_node30"><a xlink:href="classQuantConnect_1_1Brokerages_1_1WolverineBrokerageModel.html" target="_top" xlink:title="Wolverine Brokerage model">
<polygon fill="white" stroke="black" points="468,-49.5 468,-79.5 614,-79.5 614,-49.5 468,-49.5"/>
<text text-anchor="start" x="476" y="-67.5" font-family="Helvetica,sans-Serif" font-size="10.00">QuantConnect.Brokerages.</text>
<text text-anchor="middle" x="541" y="-56.5" font-family="Helvetica,sans-Serif" font-size="10.00">WolverineBrokerageModel</text>
</a>
</g>
</g>
<!-- Node1&#45;&gt;Node27 -->
<g id="edge28" class="edge">
<title>Node1&#45;&gt;Node27</title>
<path fill="none" stroke="midnightblue" d="M325.11,-504.43C337.77,-420.04 382.66,-148.27 444,-88.5 450.77,-81.91 459.06,-77.04 467.91,-73.46"/>
<polygon fill="midnightblue" stroke="midnightblue" points="321.64,-504.01 323.64,-514.41 328.56,-505.03 321.64,-504.01"/>
</g>
<!-- Node28 -->
<g id="node31" class="node">
<title>Node28</title>
<g id="a_node31"><a xlink:href="classQuantConnect_1_1Brokerages_1_1ZerodhaBrokerageModel.html" target="_top" xlink:title="Brokerage Model implementation for Zerodha">
<polygon fill="white" stroke="black" points="468,-0.5 468,-30.5 614,-30.5 614,-0.5 468,-0.5"/>
<text text-anchor="start" x="476" y="-18.5" font-family="Helvetica,sans-Serif" font-size="10.00">QuantConnect.Brokerages.</text>
<text text-anchor="middle" x="541" y="-7.5" font-family="Helvetica,sans-Serif" font-size="10.00">ZerodhaBrokerageModel</text>
</a>
</g>
</g>
<!-- Node1&#45;&gt;Node28 -->
<g id="edge29" class="edge">
<title>Node1&#45;&gt;Node28</title>
<path fill="none" stroke="midnightblue" d="M324.41,-504.07C335.32,-413.29 376.59,-106.91 444,-39.5 450.68,-32.82 458.92,-27.9 467.75,-24.3"/>
<polygon fill="midnightblue" stroke="midnightblue" points="320.91,-503.94 323.21,-514.28 327.86,-504.76 320.91,-503.94"/>
</g>
<!-- Node6 -->
<g id="node9" class="node">
<title>Node6</title>
<g id="a_node9"><a xlink:href="classQuantConnect_1_1Brokerages_1_1BinanceFuturesBrokerageModel.html" target="_top" xlink:title="Provides Binance Futures specific properties">
<polygon fill="white" stroke="black" points="674,-906.5 674,-936.5 845,-936.5 845,-906.5 674,-906.5"/>
<text text-anchor="start" x="682" y="-924.5" font-family="Helvetica,sans-Serif" font-size="10.00">QuantConnect.Brokerages.</text>
<text text-anchor="middle" x="759.5" y="-913.5" font-family="Helvetica,sans-Serif" font-size="10.00">BinanceFuturesBrokerageModel</text>
</a>
</g>
</g>
<!-- Node5&#45;&gt;Node6 -->
<g id="edge7" class="edge">
<title>Node5&#45;&gt;Node6</title>
<path fill="none" stroke="midnightblue" d="M624.12,-906.6C640.43,-908.41 657.58,-910.31 673.97,-912.13"/>
<polygon fill="midnightblue" stroke="midnightblue" points="624.42,-903.11 614.09,-905.49 623.64,-910.07 624.42,-903.11"/>
</g>
<!-- Node8 -->
<g id="node11" class="node">
<title>Node8</title>
<g id="a_node11"><a xlink:href="classQuantConnect_1_1Brokerages_1_1BinanceUSBrokerageModel.html" target="_top" xlink:title="Provides Binance.US specific properties">
<polygon fill="white" stroke="black" points="685,-857.5 685,-887.5 834,-887.5 834,-857.5 685,-857.5"/>
<text text-anchor="start" x="693" y="-875.5" font-family="Helvetica,sans-Serif" font-size="10.00">QuantConnect.Brokerages.</text>
<text text-anchor="middle" x="759.5" y="-864.5" font-family="Helvetica,sans-Serif" font-size="10.00">BinanceUSBrokerageModel</text>
</a>
</g>
</g>
<!-- Node5&#45;&gt;Node8 -->
<g id="edge9" class="edge">
<title>Node5&#45;&gt;Node8</title>
<path fill="none" stroke="midnightblue" d="M624.1,-888.02C644.07,-885.71 665.32,-883.26 684.87,-881"/>
<polygon fill="midnightblue" stroke="midnightblue" points="623.62,-884.55 614.09,-889.18 624.43,-891.51 623.62,-884.55"/>
</g>
<!-- Node7 -->
<g id="node10" class="node">
<title>Node7</title>
<g id="a_node10"><a xlink:href="classQuantConnect_1_1Brokerages_1_1BinanceCoinFuturesBrokerageModel.html" target="_top" xlink:title="Provides Binance Coin Futures specific properties">
<polygon fill="white" stroke="black" points="881,-906.5 881,-936.5 1074,-936.5 1074,-906.5 881,-906.5"/>
<text text-anchor="start" x="889" y="-924.5" font-family="Helvetica,sans-Serif" font-size="10.00">QuantConnect.Brokerages.</text>
<text text-anchor="middle" x="977.5" y="-913.5" font-family="Helvetica,sans-Serif" font-size="10.00">BinanceCoinFuturesBrokerageModel</text>
</a>
</g>
</g>
<!-- Node6&#45;&gt;Node7 -->
<g id="edge8" class="edge">
<title>Node6&#45;&gt;Node7</title>
<path fill="none" stroke="midnightblue" d="M855.48,-921.5C863.92,-921.5 872.47,-921.5 880.91,-921.5"/>
<polygon fill="midnightblue" stroke="midnightblue" points="855.25,-918 845.25,-921.5 855.25,-925 855.25,-918"/>
</g>
<!-- Node12 -->
<g id="node15" class="node">
<title>Node12</title>
<g id="a_node15"><a xlink:href="classQuantConnect_1_1Brokerages_1_1GDAXBrokerageModel.html" target="_top" xlink:title="Provides GDAX specific properties">
<polygon fill="white" stroke="black" points="686.5,-735.5 686.5,-765.5 832.5,-765.5 832.5,-735.5 686.5,-735.5"/>
<text text-anchor="start" x="694.5" y="-753.5" font-family="Helvetica,sans-Serif" font-size="10.00">QuantConnect.Brokerages.</text>
<text text-anchor="middle" x="759.5" y="-742.5" font-family="Helvetica,sans-Serif" font-size="10.00">GDAXBrokerageModel</text>
</a>
</g>
</g>
<!-- Node11&#45;&gt;Node12 -->
<g id="edge13" class="edge">
<title>Node11&#45;&gt;Node12</title>
<path fill="none" stroke="midnightblue" d="M624.31,-750.5C644.73,-750.5 666.46,-750.5 686.35,-750.5"/>
<polygon fill="midnightblue" stroke="midnightblue" points="624.09,-747 614.09,-750.5 624.09,-754 624.09,-747"/>
</g>
<!-- Node16 -->
<g id="node19" class="node">
<title>Node16</title>
<g id="a_node19"><a xlink:href="classQuantConnect_1_1Brokerages_1_1FTXUSBrokerageModel.html" target="_top" xlink:title="FTX.US Brokerage model">
<polygon fill="white" stroke="black" points="686.5,-588.5 686.5,-618.5 832.5,-618.5 832.5,-588.5 686.5,-588.5"/>
<text text-anchor="start" x="694.5" y="-606.5" font-family="Helvetica,sans-Serif" font-size="10.00">QuantConnect.Brokerages.</text>
<text text-anchor="middle" x="759.5" y="-595.5" font-family="Helvetica,sans-Serif" font-size="10.00">FTXUSBrokerageModel</text>
</a>
</g>
</g>
<!-- Node15&#45;&gt;Node16 -->
<g id="edge17" class="edge">
<title>Node15&#45;&gt;Node16</title>
<path fill="none" stroke="midnightblue" d="M624.31,-603.5C644.73,-603.5 666.46,-603.5 686.35,-603.5"/>
<polygon fill="midnightblue" stroke="midnightblue" points="624.09,-600 614.09,-603.5 624.09,-607 624.09,-600"/>
</g>
</g>
</svg>
