<?xml version="1.0" encoding="UTF-8" standalone="no"?>
<!DOCTYPE svg PUBLIC "-//W3C//DTD SVG 1.1//EN"
 "http://www.w3.org/Graphics/SVG/1.1/DTD/svg11.dtd">
<!-- Generated by graphviz version 2.43.0 (0)
 -->
<!-- Title: Graphical Class Hierarchy Pages: 1 -->
<svg width="420pt" height="100pt"
 viewBox="0.00 0.00 420.00 99.50" xmlns="http://www.w3.org/2000/svg" xmlns:xlink="http://www.w3.org/1999/xlink">
<g id="graph0" class="graph" transform="scale(1 1) rotate(0) translate(4 95.5)">
<title>Graphical Class Hierarchy</title>
<polygon fill="white" stroke="transparent" points="-4,4 -4,-95.5 416,-95.5 416,4 -4,4"/>
<!-- Node2733 -->
<g id="node1" class="node">
<title>Node2733</title>
<g id="a_node1"><a xlink:href="classQuantConnect_1_1Python_1_1BasePythonWrapper.html" target="_top" xlink:title=" ">
<polygon fill="white" stroke="black" points="0,-50 0,-91 179,-91 179,-50 0,-50"/>
<text text-anchor="start" x="8" y="-79" font-family="Helvetica,sans-Serif" font-size="10.00">QuantConnect.Python.Base</text>
<text text-anchor="start" x="8" y="-68" font-family="Helvetica,sans-Serif" font-size="10.00">PythonWrapper&lt; IOptionExercise</text>
<text text-anchor="middle" x="89.5" y="-57" font-family="Helvetica,sans-Serif" font-size="10.00">Model &gt;</text>
</a>
</g>
</g>
<!-- Node2 -->
<g id="node2" class="node">
<title>Node2</title>
<g id="a_node2"><a xlink:href="classQuantConnect_1_1Orders_1_1OptionExercise_1_1OptionExerciseModelPythonWrapper.html" target="_top" xlink:title="Python wrapper for custom option exercise models">
<polygon fill="white" stroke="black" points="215,-50 215,-91 412,-91 412,-50 215,-50"/>
<text text-anchor="start" x="223" y="-79" font-family="Helvetica,sans-Serif" font-size="10.00">QuantConnect.Orders.Option</text>
<text text-anchor="start" x="223" y="-68" font-family="Helvetica,sans-Serif" font-size="10.00">Exercise.OptionExerciseModelPython</text>
<text text-anchor="middle" x="313.5" y="-57" font-family="Helvetica,sans-Serif" font-size="10.00">Wrapper</text>
</a>
</g>
</g>
<!-- Node2733&#45;&gt;Node2 -->
<g id="edge1" class="edge">
<title>Node2733&#45;&gt;Node2</title>
<path fill="none" stroke="midnightblue" d="M189.43,-70.5C197.87,-70.5 206.4,-70.5 214.83,-70.5"/>
<polygon fill="midnightblue" stroke="midnightblue" points="189.2,-67 179.2,-70.5 189.2,-74 189.2,-67"/>
</g>
<!-- Node0 -->
<g id="node3" class="node">
<title>Node0</title>
<g id="a_node3"><a xlink:href="interfaceQuantConnect_1_1Orders_1_1OptionExercise_1_1IOptionExerciseModel.html" target="_top" xlink:title="Represents a model that simulates option exercise and lapse events">
<polygon fill="white" stroke="black" points="6.5,-0.5 6.5,-30.5 172.5,-30.5 172.5,-0.5 6.5,-0.5"/>
<text text-anchor="start" x="14.5" y="-18.5" font-family="Helvetica,sans-Serif" font-size="10.00">QuantConnect.Orders.Option</text>
<text text-anchor="middle" x="89.5" y="-7.5" font-family="Helvetica,sans-Serif" font-size="10.00">Exercise.IOptionExerciseModel</text>
</a>
</g>
</g>
<!-- Node0&#45;&gt;Node2 -->
<g id="edge3" class="edge">
<title>Node0&#45;&gt;Node2</title>
<path fill="none" stroke="midnightblue" d="M160.98,-32.96C182.74,-38.35 206.91,-44.34 229.44,-49.92"/>
<polygon fill="midnightblue" stroke="midnightblue" points="161.71,-29.54 151.16,-30.53 160.03,-36.33 161.71,-29.54"/>
</g>
<!-- Node1 -->
<g id="node4" class="node">
<title>Node1</title>
<g id="a_node4"><a xlink:href="classQuantConnect_1_1Orders_1_1OptionExercise_1_1DefaultExerciseModel.html" target="_top" xlink:title="Represents the default option exercise model (physical, cash settlement)">
<polygon fill="white" stroke="black" points="230,-0.5 230,-30.5 397,-30.5 397,-0.5 230,-0.5"/>
<text text-anchor="start" x="238" y="-18.5" font-family="Helvetica,sans-Serif" font-size="10.00">QuantConnect.Orders.Option</text>
<text text-anchor="middle" x="313.5" y="-7.5" font-family="Helvetica,sans-Serif" font-size="10.00">Exercise.DefaultExerciseModel</text>
</a>
</g>
</g>
<!-- Node0&#45;&gt;Node1 -->
<g id="edge2" class="edge">
<title>Node0&#45;&gt;Node1</title>
<path fill="none" stroke="midnightblue" d="M182.69,-15.5C198.27,-15.5 214.37,-15.5 229.69,-15.5"/>
<polygon fill="midnightblue" stroke="midnightblue" points="182.53,-12 172.53,-15.5 182.53,-19 182.53,-12"/>
</g>
</g>
</svg>
