<?xml version="1.0" encoding="UTF-8" standalone="no"?>
<!DOCTYPE svg PUBLIC "-//W3C//DTD SVG 1.1//EN"
 "http://www.w3.org/Graphics/SVG/1.1/DTD/svg11.dtd">
<!-- Generated by graphviz version 2.43.0 (0)
 -->
<!-- Title: Graphical Class Hierarchy Pages: 1 -->
<svg width="398pt" height="137pt"
 viewBox="0.00 0.00 398.00 137.00" xmlns="http://www.w3.org/2000/svg" xmlns:xlink="http://www.w3.org/1999/xlink">
<g id="graph0" class="graph" transform="scale(1 1) rotate(0) translate(4 133)">
<title>Graphical Class Hierarchy</title>
<polygon fill="white" stroke="transparent" points="-4,4 -4,-133 394,-133 394,4 -4,4"/>
<!-- Node2743 -->
<g id="node1" class="node">
<title>Node2743</title>
<g id="a_node1"><a xlink:href="classQuantConnect_1_1Python_1_1BasePythonWrapper.html" target="_top" xlink:title=" ">
<polygon fill="white" stroke="black" points="0,-98.5 0,-128.5 173,-128.5 173,-98.5 0,-98.5"/>
<text text-anchor="start" x="8" y="-116.5" font-family="Helvetica,sans-Serif" font-size="10.00">QuantConnect.Python.Base</text>
<text text-anchor="middle" x="86.5" y="-105.5" font-family="Helvetica,sans-Serif" font-size="10.00">PythonWrapper&lt; IBenchmark &gt;</text>
</a>
</g>
</g>
<!-- Node3 -->
<g id="node2" class="node">
<title>Node3</title>
<g id="a_node2"><a xlink:href="classQuantConnect_1_1Python_1_1BenchmarkPythonWrapper.html" target="_top" xlink:title="Provides an implementation of IBenchmark that wraps a PyObject object">
<polygon fill="white" stroke="black" points="209,-98.5 209,-128.5 390,-128.5 390,-98.5 209,-98.5"/>
<text text-anchor="start" x="217" y="-116.5" font-family="Helvetica,sans-Serif" font-size="10.00">QuantConnect.Python.Benchmark</text>
<text text-anchor="middle" x="299.5" y="-105.5" font-family="Helvetica,sans-Serif" font-size="10.00">PythonWrapper</text>
</a>
</g>
</g>
<!-- Node2743&#45;&gt;Node3 -->
<g id="edge1" class="edge">
<title>Node2743&#45;&gt;Node3</title>
<path fill="none" stroke="midnightblue" d="M183.29,-113.5C191.76,-113.5 200.32,-113.5 208.73,-113.5"/>
<polygon fill="midnightblue" stroke="midnightblue" points="183.02,-110 173.02,-113.5 183.02,-117 183.02,-110"/>
</g>
<!-- Node0 -->
<g id="node3" class="node">
<title>Node0</title>
<g id="a_node3"><a xlink:href="interfaceQuantConnect_1_1Benchmarks_1_1IBenchmark.html" target="_top" xlink:title="Specifies how to compute a benchmark for an algorithm">
<polygon fill="white" stroke="black" points="10.5,-49.5 10.5,-79.5 162.5,-79.5 162.5,-49.5 10.5,-49.5"/>
<text text-anchor="start" x="18.5" y="-67.5" font-family="Helvetica,sans-Serif" font-size="10.00">QuantConnect.Benchmarks.</text>
<text text-anchor="middle" x="86.5" y="-56.5" font-family="Helvetica,sans-Serif" font-size="10.00">IBenchmark</text>
</a>
</g>
</g>
<!-- Node0&#45;&gt;Node3 -->
<g id="edge4" class="edge">
<title>Node0&#45;&gt;Node3</title>
<path fill="none" stroke="midnightblue" d="M162.13,-81.83C185.56,-87.27 211.21,-93.23 233.88,-98.49"/>
<polygon fill="midnightblue" stroke="midnightblue" points="162.77,-78.39 152.24,-79.53 161.19,-85.21 162.77,-78.39"/>
</g>
<!-- Node1 -->
<g id="node4" class="node">
<title>Node1</title>
<g id="a_node4"><a xlink:href="classQuantConnect_1_1Benchmarks_1_1FuncBenchmark.html" target="_top" xlink:title="Creates a benchmark defined by a function">
<polygon fill="white" stroke="black" points="223.5,-49.5 223.5,-79.5 375.5,-79.5 375.5,-49.5 223.5,-49.5"/>
<text text-anchor="start" x="231.5" y="-67.5" font-family="Helvetica,sans-Serif" font-size="10.00">QuantConnect.Benchmarks.</text>
<text text-anchor="middle" x="299.5" y="-56.5" font-family="Helvetica,sans-Serif" font-size="10.00">FuncBenchmark</text>
</a>
</g>
</g>
<!-- Node0&#45;&gt;Node1 -->
<g id="edge2" class="edge">
<title>Node0&#45;&gt;Node1</title>
<path fill="none" stroke="midnightblue" d="M173.03,-64.5C189.66,-64.5 206.98,-64.5 223.25,-64.5"/>
<polygon fill="midnightblue" stroke="midnightblue" points="172.78,-61 162.78,-64.5 172.78,-68 172.78,-61"/>
</g>
<!-- Node2 -->
<g id="node5" class="node">
<title>Node2</title>
<g id="a_node5"><a xlink:href="classQuantConnect_1_1Benchmarks_1_1SecurityBenchmark.html" target="_top" xlink:title="Creates a benchmark defined by the closing price of a Security instance">
<polygon fill="white" stroke="black" points="223.5,-0.5 223.5,-30.5 375.5,-30.5 375.5,-0.5 223.5,-0.5"/>
<text text-anchor="start" x="231.5" y="-18.5" font-family="Helvetica,sans-Serif" font-size="10.00">QuantConnect.Benchmarks.</text>
<text text-anchor="middle" x="299.5" y="-7.5" font-family="Helvetica,sans-Serif" font-size="10.00">SecurityBenchmark</text>
</a>
</g>
</g>
<!-- Node0&#45;&gt;Node2 -->
<g id="edge3" class="edge">
<title>Node0&#45;&gt;Node2</title>
<path fill="none" stroke="midnightblue" d="M162.13,-47.17C185.56,-41.73 211.21,-35.77 233.88,-30.51"/>
<polygon fill="midnightblue" stroke="midnightblue" points="161.19,-43.79 152.24,-49.47 162.77,-50.61 161.19,-43.79"/>
</g>
</g>
</svg>
