<?xml version="1.0" encoding="UTF-8" standalone="no"?>
<!DOCTYPE svg PUBLIC "-//W3C//DTD SVG 1.1//EN"
 "http://www.w3.org/Graphics/SVG/1.1/DTD/svg11.dtd">
<!-- Generated by graphviz version 2.43.0 (0)
 -->
<!-- Title: Graphical Class Hierarchy Pages: 1 -->
<svg width="696pt" height="161pt"
 viewBox="0.00 0.00 696.00 161.00" xmlns="http://www.w3.org/2000/svg" xmlns:xlink="http://www.w3.org/1999/xlink">
<g id="graph0" class="graph" transform="scale(1 1) rotate(0) translate(4 157)">
<title>Graphical Class Hierarchy</title>
<polygon fill="white" stroke="transparent" points="-4,4 -4,-157 692,-157 692,4 -4,4"/>
<!-- Node2728 -->
<g id="node1" class="node">
<title>Node2728</title>
<g id="a_node1"><a xlink:href="classQuantConnect_1_1Python_1_1BasePythonWrapper.html" target="_top" xlink:title=" ">
<polygon fill="white" stroke="black" points="0,-122.5 0,-152.5 201,-152.5 201,-122.5 0,-122.5"/>
<text text-anchor="start" x="8" y="-140.5" font-family="Helvetica,sans-Serif" font-size="10.00">QuantConnect.Python.Base</text>
<text text-anchor="middle" x="100.5" y="-129.5" font-family="Helvetica,sans-Serif" font-size="10.00">PythonWrapper&lt; ISettlementModel &gt;</text>
</a>
</g>
</g>
<!-- Node1 -->
<g id="node2" class="node">
<title>Node1</title>
<g id="a_node2"><a xlink:href="classQuantConnect_1_1Python_1_1SettlementModelPythonWrapper.html" target="_top" xlink:title="Provides an implementation of ISettlementModel that wraps a PyObject object">
<polygon fill="white" stroke="black" points="237,-122.5 237,-152.5 416,-152.5 416,-122.5 237,-122.5"/>
<text text-anchor="start" x="245" y="-140.5" font-family="Helvetica,sans-Serif" font-size="10.00">QuantConnect.Python.Settlement</text>
<text text-anchor="middle" x="326.5" y="-129.5" font-family="Helvetica,sans-Serif" font-size="10.00">ModelPythonWrapper</text>
</a>
</g>
</g>
<!-- Node2728&#45;&gt;Node1 -->
<g id="edge1" class="edge">
<title>Node2728&#45;&gt;Node1</title>
<path fill="none" stroke="midnightblue" d="M211.14,-137.5C219.76,-137.5 228.39,-137.5 236.83,-137.5"/>
<polygon fill="midnightblue" stroke="midnightblue" points="211.05,-134 201.05,-137.5 211.05,-141 211.05,-134"/>
</g>
<!-- Node0 -->
<g id="node3" class="node">
<title>Node0</title>
<g id="a_node3"><a xlink:href="interfaceQuantConnect_1_1Securities_1_1ISettlementModel.html" target="_top" xlink:title="Represents the model responsible for applying cash settlement rules">
<polygon fill="white" stroke="black" points="30.5,-73.5 30.5,-103.5 170.5,-103.5 170.5,-73.5 30.5,-73.5"/>
<text text-anchor="start" x="38.5" y="-91.5" font-family="Helvetica,sans-Serif" font-size="10.00">QuantConnect.Securities.</text>
<text text-anchor="middle" x="100.5" y="-80.5" font-family="Helvetica,sans-Serif" font-size="10.00">ISettlementModel</text>
</a>
</g>
</g>
<!-- Node0&#45;&gt;Node1 -->
<g id="edge2" class="edge">
<title>Node0&#45;&gt;Node1</title>
<path fill="none" stroke="midnightblue" d="M180.06,-105.69C205.11,-111.16 232.62,-117.18 256.9,-122.49"/>
<polygon fill="midnightblue" stroke="midnightblue" points="180.75,-102.25 170.23,-103.53 179.25,-109.09 180.75,-102.25"/>
</g>
<!-- Node2 -->
<g id="node4" class="node">
<title>Node2</title>
<g id="a_node4"><a xlink:href="classQuantConnect_1_1Securities_1_1DelayedSettlementModel.html" target="_top" xlink:title="Represents the model responsible for applying cash settlement rules">
<polygon fill="white" stroke="black" points="256,-73.5 256,-103.5 397,-103.5 397,-73.5 256,-73.5"/>
<text text-anchor="start" x="264" y="-91.5" font-family="Helvetica,sans-Serif" font-size="10.00">QuantConnect.Securities.</text>
<text text-anchor="middle" x="326.5" y="-80.5" font-family="Helvetica,sans-Serif" font-size="10.00">DelayedSettlementModel</text>
</a>
</g>
</g>
<!-- Node0&#45;&gt;Node2 -->
<g id="edge3" class="edge">
<title>Node0&#45;&gt;Node2</title>
<path fill="none" stroke="midnightblue" d="M180.55,-88.5C205.13,-88.5 232.04,-88.5 255.92,-88.5"/>
<polygon fill="midnightblue" stroke="midnightblue" points="180.54,-85 170.54,-88.5 180.54,-92 180.54,-85"/>
</g>
<!-- Node3 -->
<g id="node5" class="node">
<title>Node3</title>
<g id="a_node5"><a xlink:href="classQuantConnect_1_1Securities_1_1ImmediateSettlementModel.html" target="_top" xlink:title="Represents the model responsible for applying cash settlement rules">
<polygon fill="white" stroke="black" points="249.5,-24.5 249.5,-54.5 403.5,-54.5 403.5,-24.5 249.5,-24.5"/>
<text text-anchor="start" x="257.5" y="-42.5" font-family="Helvetica,sans-Serif" font-size="10.00">QuantConnect.Securities.</text>
<text text-anchor="middle" x="326.5" y="-31.5" font-family="Helvetica,sans-Serif" font-size="10.00">ImmediateSettlementModel</text>
</a>
</g>
</g>
<!-- Node0&#45;&gt;Node3 -->
<g id="edge4" class="edge">
<title>Node0&#45;&gt;Node3</title>
<path fill="none" stroke="midnightblue" d="M180.06,-71.31C205.11,-65.84 232.62,-59.82 256.9,-54.51"/>
<polygon fill="midnightblue" stroke="midnightblue" points="179.25,-67.91 170.23,-73.47 180.75,-74.75 179.25,-67.91"/>
</g>
<!-- Node4 -->
<g id="node6" class="node">
<title>Node4</title>
<g id="a_node6"><a xlink:href="classQuantConnect_1_1Securities_1_1AccountCurrencyImmediateSettlementModel.html" target="_top" xlink:title="Represents the model responsible for applying cash settlement rules">
<polygon fill="white" stroke="black" points="452,-49.5 452,-79.5 688,-79.5 688,-49.5 452,-49.5"/>
<text text-anchor="start" x="460" y="-67.5" font-family="Helvetica,sans-Serif" font-size="10.00">QuantConnect.Securities.</text>
<text text-anchor="middle" x="570" y="-56.5" font-family="Helvetica,sans-Serif" font-size="10.00">AccountCurrencyImmediateSettlementModel</text>
</a>
</g>
</g>
<!-- Node3&#45;&gt;Node4 -->
<g id="edge5" class="edge">
<title>Node3&#45;&gt;Node4</title>
<path fill="none" stroke="midnightblue" d="M413.8,-48.43C426.13,-49.71 438.98,-51.04 451.78,-52.36"/>
<polygon fill="midnightblue" stroke="midnightblue" points="413.89,-44.92 403.58,-47.38 413.17,-51.89 413.89,-44.92"/>
</g>
<!-- Node5 -->
<g id="node7" class="node">
<title>Node5</title>
<g id="a_node7"><a xlink:href="classQuantConnect_1_1Securities_1_1Future_1_1FutureSettlementModel.html" target="_top" xlink:title="Settlement model which can handle daily profit and loss settlement">
<polygon fill="white" stroke="black" points="487.5,-0.5 487.5,-30.5 652.5,-30.5 652.5,-0.5 487.5,-0.5"/>
<text text-anchor="start" x="495.5" y="-18.5" font-family="Helvetica,sans-Serif" font-size="10.00">QuantConnect.Securities.</text>
<text text-anchor="middle" x="570" y="-7.5" font-family="Helvetica,sans-Serif" font-size="10.00">Future.FutureSettlementModel</text>
</a>
</g>
</g>
<!-- Node3&#45;&gt;Node5 -->
<g id="edge6" class="edge">
<title>Node3&#45;&gt;Node5</title>
<path fill="none" stroke="midnightblue" d="M413.73,-30.93C437.74,-28.54 463.73,-25.96 487.45,-23.6"/>
<polygon fill="midnightblue" stroke="midnightblue" points="413.19,-27.47 403.58,-31.94 413.88,-34.43 413.19,-27.47"/>
</g>
</g>
</svg>
