<?xml version="1.0" encoding="UTF-8" standalone="no"?>
<!DOCTYPE svg PUBLIC "-//W3C//DTD SVG 1.1//EN"
 "http://www.w3.org/Graphics/SVG/1.1/DTD/svg11.dtd">
<!-- Generated by graphviz version 2.43.0 (0)
 -->
<!-- Title: Graphical Class Hierarchy Pages: 1 -->
<svg width="448pt" height="147pt"
 viewBox="0.00 0.00 448.00 146.50" xmlns="http://www.w3.org/2000/svg" xmlns:xlink="http://www.w3.org/1999/xlink">
<g id="graph0" class="graph" transform="scale(1 1) rotate(0) translate(4 142.5)">
<title>Graphical Class Hierarchy</title>
<polygon fill="white" stroke="transparent" points="-4,4 -4,-142.5 444,-142.5 444,4 -4,4"/>
<!-- Node2734 -->
<g id="node1" class="node">
<title>Node2734</title>
<g id="a_node1"><a xlink:href="classQuantConnect_1_1Python_1_1BasePythonWrapper.html" target="_top" xlink:title=" ">
<polygon fill="white" stroke="black" points="0,-97 0,-138 196,-138 196,-97 0,-97"/>
<text text-anchor="start" x="8" y="-126" font-family="Helvetica,sans-Serif" font-size="10.00">QuantConnect.Python.Base</text>
<text text-anchor="start" x="8" y="-115" font-family="Helvetica,sans-Serif" font-size="10.00">PythonWrapper&lt; IOptionAssignment</text>
<text text-anchor="middle" x="98" y="-104" font-family="Helvetica,sans-Serif" font-size="10.00">Model &gt;</text>
</a>
</g>
</g>
<!-- Node1 -->
<g id="node2" class="node">
<title>Node1</title>
<g id="a_node2"><a xlink:href="classQuantConnect_1_1Python_1_1OptionAssignmentModelPythonWrapper.html" target="_top" xlink:title="Python wrapper for custom option assignment models">
<polygon fill="white" stroke="black" points="246.5,-101.5 246.5,-131.5 425.5,-131.5 425.5,-101.5 246.5,-101.5"/>
<text text-anchor="start" x="254.5" y="-119.5" font-family="Helvetica,sans-Serif" font-size="10.00">QuantConnect.Python.Option</text>
<text text-anchor="middle" x="336" y="-108.5" font-family="Helvetica,sans-Serif" font-size="10.00">AssignmentModelPythonWrapper</text>
</a>
</g>
</g>
<!-- Node2734&#45;&gt;Node1 -->
<g id="edge1" class="edge">
<title>Node2734&#45;&gt;Node1</title>
<path fill="none" stroke="midnightblue" d="M206.22,-117.05C219.63,-116.99 233.23,-116.93 246.32,-116.88"/>
<polygon fill="midnightblue" stroke="midnightblue" points="206,-113.55 196.01,-117.09 206.03,-120.55 206,-113.55"/>
</g>
<!-- Node0 -->
<g id="node3" class="node">
<title>Node0</title>
<g id="a_node3"><a xlink:href="interfaceQuantConnect_1_1Securities_1_1Option_1_1IOptionAssignmentModel.html" target="_top" xlink:title="The option assignment model emulates exercising of short option positions in the portfolio.">
<polygon fill="white" stroke="black" points="10.5,-47.5 10.5,-77.5 185.5,-77.5 185.5,-47.5 10.5,-47.5"/>
<text text-anchor="start" x="18.5" y="-65.5" font-family="Helvetica,sans-Serif" font-size="10.00">QuantConnect.Securities.</text>
<text text-anchor="middle" x="98" y="-54.5" font-family="Helvetica,sans-Serif" font-size="10.00">Option.IOptionAssignmentModel</text>
</a>
</g>
</g>
<!-- Node0&#45;&gt;Node1 -->
<g id="edge2" class="edge">
<title>Node0&#45;&gt;Node1</title>
<path fill="none" stroke="midnightblue" d="M174.86,-79.86C205.24,-86.81 239.91,-94.74 269.2,-101.45"/>
<polygon fill="midnightblue" stroke="midnightblue" points="175.27,-76.36 164.74,-77.54 173.71,-83.18 175.27,-76.36"/>
</g>
<!-- Node2 -->
<g id="node4" class="node">
<title>Node2</title>
<g id="a_node4"><a xlink:href="classQuantConnect_1_1Securities_1_1Option_1_1DefaultOptionAssignmentModel.html" target="_top" xlink:title="The option assignment model emulates exercising of short option positions in the portfolio....">
<polygon fill="white" stroke="black" points="232,-49.5 232,-79.5 440,-79.5 440,-49.5 232,-49.5"/>
<text text-anchor="start" x="240" y="-67.5" font-family="Helvetica,sans-Serif" font-size="10.00">QuantConnect.Securities.</text>
<text text-anchor="middle" x="336" y="-56.5" font-family="Helvetica,sans-Serif" font-size="10.00">Option.DefaultOptionAssignmentModel</text>
</a>
</g>
</g>
<!-- Node0&#45;&gt;Node2 -->
<g id="edge3" class="edge">
<title>Node0&#45;&gt;Node2</title>
<path fill="none" stroke="midnightblue" d="M195.83,-63.32C207.64,-63.42 219.75,-63.52 231.65,-63.62"/>
<polygon fill="midnightblue" stroke="midnightblue" points="195.57,-59.82 185.54,-63.23 195.51,-66.82 195.57,-59.82"/>
</g>
<!-- Node3 -->
<g id="node5" class="node">
<title>Node3</title>
<g id="a_node5"><a xlink:href="classQuantConnect_1_1Securities_1_1Option_1_1NullOptionAssignmentModel.html" target="_top" xlink:title="The null option assignment model, that will disable automatic order assignment">
<polygon fill="white" stroke="black" points="240.5,-0.5 240.5,-30.5 431.5,-30.5 431.5,-0.5 240.5,-0.5"/>
<text text-anchor="start" x="248.5" y="-18.5" font-family="Helvetica,sans-Serif" font-size="10.00">QuantConnect.Securities.</text>
<text text-anchor="middle" x="336" y="-7.5" font-family="Helvetica,sans-Serif" font-size="10.00">Option.NullOptionAssignmentModel</text>
</a>
</g>
</g>
<!-- Node0&#45;&gt;Node3 -->
<g id="edge4" class="edge">
<title>Node0&#45;&gt;Node3</title>
<path fill="none" stroke="midnightblue" d="M184.36,-45.5C208.97,-40.6 235.63,-35.29 259.59,-30.52"/>
<polygon fill="midnightblue" stroke="midnightblue" points="183.44,-42.11 174.32,-47.5 184.81,-48.98 183.44,-42.11"/>
</g>
</g>
</svg>
