<?xml version="1.0" encoding="UTF-8" standalone="no"?>
<!DOCTYPE svg PUBLIC "-//W3C//DTD SVG 1.1//EN"
 "http://www.w3.org/Graphics/SVG/1.1/DTD/svg11.dtd">
<!-- Generated by graphviz version 2.43.0 (0)
 -->
<!-- Title: QuantConnect.Commands.ICommand Pages: 1 -->
<svg width="849pt" height="333pt"
 viewBox="0.00 0.00 849.00 333.00" xmlns="http://www.w3.org/2000/svg" xmlns:xlink="http://www.w3.org/1999/xlink">
<g id="graph0" class="graph" transform="scale(1 1) rotate(0) translate(4 329)">
<title>QuantConnect.Commands.ICommand</title>
<polygon fill="white" stroke="transparent" points="-4,4 -4,-329 845,-329 845,4 -4,4"/>
<!-- Node1 -->
<g id="node1" class="node">
<title>Node1</title>
<g id="a_node1"><a xlink:title="Represents a command that can be run against a single algorithm">
<polygon fill="#bfbfbf" stroke="black" points="0,-153 0,-172 200,-172 200,-153 0,-153"/>
<text text-anchor="middle" x="100" y="-160" font-family="Helvetica,sans-Serif" font-size="10.00">QuantConnect.Commands.ICommand</text>
</a>
</g>
</g>
<!-- Node2 -->
<g id="node2" class="node">
<title>Node2</title>
<g id="a_node2"><a xlink:href="classQuantConnect_1_1Commands_1_1BaseCommand.html" target="_top" xlink:title="Base command implementation">
<polygon fill="white" stroke="black" points="236,-147.5 236,-177.5 407,-177.5 407,-147.5 236,-147.5"/>
<text text-anchor="start" x="244" y="-165.5" font-family="Helvetica,sans-Serif" font-size="10.00">QuantConnect.Commands.Base</text>
<text text-anchor="middle" x="321.5" y="-154.5" font-family="Helvetica,sans-Serif" font-size="10.00">Command</text>
</a>
</g>
</g>
<!-- Node1&#45;&gt;Node2 -->
<g id="edge1" class="edge">
<title>Node1&#45;&gt;Node2</title>
<path fill="none" stroke="midnightblue" d="M210.25,-162.5C218.86,-162.5 227.47,-162.5 235.88,-162.5"/>
<polygon fill="midnightblue" stroke="midnightblue" points="210.15,-159 200.15,-162.5 210.15,-166 210.15,-159"/>
</g>
<!-- Node3 -->
<g id="node3" class="node">
<title>Node3</title>
<g id="a_node3"><a xlink:href="classQuantConnect_1_1Commands_1_1AddSecurityCommand.html" target="_top" xlink:title="Represents a command to add a security to the algorithm">
<polygon fill="white" stroke="black" points="457.5,-294.5 457.5,-324.5 623.5,-324.5 623.5,-294.5 457.5,-294.5"/>
<text text-anchor="start" x="465.5" y="-312.5" font-family="Helvetica,sans-Serif" font-size="10.00">QuantConnect.Commands.Add</text>
<text text-anchor="middle" x="540.5" y="-301.5" font-family="Helvetica,sans-Serif" font-size="10.00">SecurityCommand</text>
</a>
</g>
</g>
<!-- Node2&#45;&gt;Node3 -->
<g id="edge2" class="edge">
<title>Node2&#45;&gt;Node3</title>
<path fill="none" stroke="midnightblue" d="M339.03,-186C359.98,-214.01 398.75,-260.18 443,-285.5 449.07,-288.97 455.63,-291.95 462.38,-294.49"/>
<polygon fill="midnightblue" stroke="midnightblue" points="341.6,-183.59 332.86,-177.6 335.95,-187.73 341.6,-183.59"/>
</g>
<!-- Node4 -->
<g id="node4" class="node">
<title>Node4</title>
<g id="a_node4"><a xlink:href="classQuantConnect_1_1Commands_1_1AlgorithmStatusCommand.html" target="_top" xlink:title="Represents a command that will change the algorithm&#39;s status">
<polygon fill="white" stroke="black" points="443,-245.5 443,-275.5 638,-275.5 638,-245.5 443,-245.5"/>
<text text-anchor="start" x="451" y="-263.5" font-family="Helvetica,sans-Serif" font-size="10.00">QuantConnect.Commands.Algorithm</text>
<text text-anchor="middle" x="540.5" y="-252.5" font-family="Helvetica,sans-Serif" font-size="10.00">StatusCommand</text>
</a>
</g>
</g>
<!-- Node2&#45;&gt;Node4 -->
<g id="edge3" class="edge">
<title>Node2&#45;&gt;Node4</title>
<path fill="none" stroke="midnightblue" d="M351.24,-183.66C374.84,-200.15 409.68,-222.52 443,-236.5 451.04,-239.87 459.66,-242.85 468.33,-245.45"/>
<polygon fill="midnightblue" stroke="midnightblue" points="352.96,-180.59 342.77,-177.66 348.91,-186.3 352.96,-180.59"/>
</g>
<!-- Node6 -->
<g id="node6" class="node">
<title>Node6</title>
<g id="a_node6"><a xlink:href="classQuantConnect_1_1Commands_1_1CallbackCommand.html" target="_top" xlink:title="Algorithm callback command type">
<polygon fill="white" stroke="black" points="446,-196.5 446,-226.5 635,-226.5 635,-196.5 446,-196.5"/>
<text text-anchor="start" x="454" y="-214.5" font-family="Helvetica,sans-Serif" font-size="10.00">QuantConnect.Commands.Callback</text>
<text text-anchor="middle" x="540.5" y="-203.5" font-family="Helvetica,sans-Serif" font-size="10.00">Command</text>
</a>
</g>
</g>
<!-- Node2&#45;&gt;Node6 -->
<g id="edge5" class="edge">
<title>Node2&#45;&gt;Node6</title>
<path fill="none" stroke="midnightblue" d="M398.93,-179.76C423.11,-185.22 449.62,-191.21 473.04,-196.49"/>
<polygon fill="midnightblue" stroke="midnightblue" points="399.61,-176.32 389.08,-177.53 398.07,-183.15 399.61,-176.32"/>
</g>
<!-- Node7 -->
<g id="node7" class="node">
<title>Node7</title>
<g id="a_node7"><a xlink:href="classQuantConnect_1_1Commands_1_1CancelOrderCommand.html" target="_top" xlink:title="Represents a command to cancel a specific order by id">
<polygon fill="white" stroke="black" points="450.5,-147.5 450.5,-177.5 630.5,-177.5 630.5,-147.5 450.5,-147.5"/>
<text text-anchor="start" x="458.5" y="-165.5" font-family="Helvetica,sans-Serif" font-size="10.00">QuantConnect.Commands.Cancel</text>
<text text-anchor="middle" x="540.5" y="-154.5" font-family="Helvetica,sans-Serif" font-size="10.00">OrderCommand</text>
</a>
</g>
</g>
<!-- Node2&#45;&gt;Node7 -->
<g id="edge6" class="edge">
<title>Node2&#45;&gt;Node7</title>
<path fill="none" stroke="midnightblue" d="M417.06,-162.5C428.06,-162.5 439.26,-162.5 450.19,-162.5"/>
<polygon fill="midnightblue" stroke="midnightblue" points="417.02,-159 407.02,-162.5 417.02,-166 417.02,-159"/>
</g>
<!-- Node8 -->
<g id="node8" class="node">
<title>Node8</title>
<g id="a_node8"><a xlink:href="classQuantConnect_1_1Commands_1_1LiquidateCommand.html" target="_top" xlink:title="Represents a command that will liquidate the entire algorithm">
<polygon fill="white" stroke="black" points="444.5,-98.5 444.5,-128.5 636.5,-128.5 636.5,-98.5 444.5,-98.5"/>
<text text-anchor="start" x="452.5" y="-116.5" font-family="Helvetica,sans-Serif" font-size="10.00">QuantConnect.Commands.Liquidate</text>
<text text-anchor="middle" x="540.5" y="-105.5" font-family="Helvetica,sans-Serif" font-size="10.00">Command</text>
</a>
</g>
</g>
<!-- Node2&#45;&gt;Node8 -->
<g id="edge7" class="edge">
<title>Node2&#45;&gt;Node8</title>
<path fill="none" stroke="midnightblue" d="M398.93,-145.24C423.11,-139.78 449.62,-133.79 473.04,-128.51"/>
<polygon fill="midnightblue" stroke="midnightblue" points="398.07,-141.85 389.08,-147.47 399.61,-148.68 398.07,-141.85"/>
</g>
<!-- Node9 -->
<g id="node9" class="node">
<title>Node9</title>
<g id="a_node9"><a xlink:href="classQuantConnect_1_1Commands_1_1OrderCommand.html" target="_top" xlink:title="Represents a command to submit an order to the algorithm">
<polygon fill="white" stroke="black" points="453.5,-49.5 453.5,-79.5 627.5,-79.5 627.5,-49.5 453.5,-49.5"/>
<text text-anchor="start" x="461.5" y="-67.5" font-family="Helvetica,sans-Serif" font-size="10.00">QuantConnect.Commands.Order</text>
<text text-anchor="middle" x="540.5" y="-56.5" font-family="Helvetica,sans-Serif" font-size="10.00">Command</text>
</a>
</g>
</g>
<!-- Node2&#45;&gt;Node9 -->
<g id="edge8" class="edge">
<title>Node2&#45;&gt;Node9</title>
<path fill="none" stroke="midnightblue" d="M351.75,-141.44C375.38,-125.26 410.03,-103.41 443,-89.5 451.93,-85.73 461.57,-82.42 471.18,-79.54"/>
<polygon fill="midnightblue" stroke="midnightblue" points="349.48,-138.75 343.26,-147.33 353.47,-144.5 349.48,-138.75"/>
</g>
<!-- Node10 -->
<g id="node10" class="node">
<title>Node10</title>
<g id="a_node10"><a xlink:href="classQuantConnect_1_1Commands_1_1UpdateOrderCommand.html" target="_top" xlink:title="Represents a command to update an order by id">
<polygon fill="white" stroke="black" points="449.5,-0.5 449.5,-30.5 631.5,-30.5 631.5,-0.5 449.5,-0.5"/>
<text text-anchor="start" x="457.5" y="-18.5" font-family="Helvetica,sans-Serif" font-size="10.00">QuantConnect.Commands.Update</text>
<text text-anchor="middle" x="540.5" y="-7.5" font-family="Helvetica,sans-Serif" font-size="10.00">OrderCommand</text>
</a>
</g>
</g>
<!-- Node2&#45;&gt;Node10 -->
<g id="edge9" class="edge">
<title>Node2&#45;&gt;Node10</title>
<path fill="none" stroke="midnightblue" d="M339.45,-138.82C360.56,-111.08 399.24,-65.7 443,-40.5 449.75,-36.61 457.11,-33.32 464.65,-30.53"/>
<polygon fill="midnightblue" stroke="midnightblue" points="336.4,-137.05 333.22,-147.16 342.01,-141.24 336.4,-137.05"/>
</g>
<!-- Node5 -->
<g id="node5" class="node">
<title>Node5</title>
<g id="a_node5"><a xlink:href="classQuantConnect_1_1Commands_1_1QuitCommand.html" target="_top" xlink:title="Represents a command that will terminate the algorithm">
<polygon fill="white" stroke="black" points="674,-245.5 674,-275.5 841,-275.5 841,-245.5 674,-245.5"/>
<text text-anchor="start" x="682" y="-263.5" font-family="Helvetica,sans-Serif" font-size="10.00">QuantConnect.Commands.Quit</text>
<text text-anchor="middle" x="757.5" y="-252.5" font-family="Helvetica,sans-Serif" font-size="10.00">Command</text>
</a>
</g>
</g>
<!-- Node4&#45;&gt;Node5 -->
<g id="edge4" class="edge">
<title>Node4&#45;&gt;Node5</title>
<path fill="none" stroke="midnightblue" d="M648.58,-260.5C657.02,-260.5 665.46,-260.5 673.69,-260.5"/>
<polygon fill="midnightblue" stroke="midnightblue" points="648.31,-257 638.31,-260.5 648.31,-264 648.31,-257"/>
</g>
</g>
</svg>
