<?xml version="1.0" encoding="UTF-8" standalone="no"?>
<!DOCTYPE svg PUBLIC "-//W3C//DTD SVG 1.1//EN"
 "http://www.w3.org/Graphics/SVG/1.1/DTD/svg11.dtd">
<!-- Generated by graphviz version 2.43.0 (0)
 -->
<!-- Title: QuantConnect.Interfaces.ISubscriptionDataConfigProvider.GetSubscriptionDataConfigs Pages: 1 -->
<!--zoomable 489 -->
<svg id="main" version="1.1" xmlns="http://www.w3.org/2000/svg" xmlns:xlink="http://www.w3.org/1999/xlink" xml:space="preserve" onload="init(evt)">
<style type="text/css"><![CDATA[
.edge:hover path { stroke: red; }
.edge:hover polygon { stroke: red; fill: red; }
]]></style>
<script type="text/javascript"><![CDATA[
var edges = document.getElementsByTagName('g');
if (edges && edges.length) {
  for (var i=0;i<edges.length;i++) {
    if (edges[i].id.substr(0,4)=='edge') {
      edges[i].setAttribute('class','edge');
    }
  }
}
]]></script>
        <defs>
                <circle id="rim" cx="0" cy="0" r="7"/>
                <circle id="rim2" cx="0" cy="0" r="3.5"/>
                <g id="zoomPlus">
                        <use xlink:href="#rim" fill="#404040">
                                <set attributeName="fill" to="#808080" begin="zoomplus.mouseover" end="zoomplus.mouseout"/>
                        </use>
                        <path d="M-4,0h8M0,-4v8" fill="none" stroke="white" stroke-width="1.5" pointer-events="none"/>
                </g>
                <g id="zoomMin">
                        <use xlink:href="#rim" fill="#404040">
                                <set attributeName="fill" to="#808080" begin="zoomminus.mouseover" end="zoomminus.mouseout"/>
                        </use>
                        <path d="M-4,0h8" fill="none" stroke="white" stroke-width="1.5" pointer-events="none"/>
                </g>
                <g id="dirArrow">
                        <path fill="none" stroke="white" stroke-width="1.5" d="M0,-3.0v7 M-2.5,-0.5L0,-3.0L2.5,-0.5"/>
                </g>
               <g id="resetDef">
                       <use xlink:href="#rim2" fill="#404040">
                               <set attributeName="fill" to="#808080" begin="reset.mouseover" end="reset.mouseout"/>
                       </use>
               </g>
        </defs>

<script type="text/javascript">
var viewWidth = 928;
var viewHeight = 489;
var sectionId = 'dynsection-1';
</script>
<script xlink:href="svgpan.js"/>
<svg id="graph" class="graph">
<g id="viewport">
<title>QuantConnect.Interfaces.ISubscriptionDataConfigProvider.GetSubscriptionDataConfigs</title>
<polygon fill="white" stroke="transparent" points="-4,4 -4,-485 924,-485 924,4 -4,4"/>
<!-- Node1 -->
<g id="node1" class="node">
<title>Node1</title>
<g id="a_node1"><a xlink:title="Gets a list of all registered SubscriptionDataConfig for a given Symbol if any else will return the w...">
<polygon fill="#bfbfbf" stroke="black" points="744,-193 744,-234 920,-234 920,-193 744,-193"/>
<text text-anchor="start" x="752" y="-222" font-family="Helvetica,sans-Serif" font-size="10.00">QuantConnect.Interfaces.</text>
<text text-anchor="start" x="752" y="-211" font-family="Helvetica,sans-Serif" font-size="10.00">ISubscriptionDataConfigProvider.</text>
<text text-anchor="middle" x="832" y="-200" font-family="Helvetica,sans-Serif" font-size="10.00">GetSubscriptionDataConfigs</text>
</a>
</g>
</g>
<!-- Node2 -->
<g id="node2" class="node">
<title>Node2</title>
<g id="a_node2"><a xlink:href="classQuantConnect_1_1Algorithm_1_1QCAlgorithm.html#a0f7ec3a574e47b4ac26448590c4ef685" target="_top" xlink:title="Creates and adds a new single Option contract to the algorithm">
<polygon fill="white" stroke="black" points="492.5,-401.5 492.5,-431.5 697.5,-431.5 697.5,-401.5 492.5,-401.5"/>
<text text-anchor="start" x="500.5" y="-419.5" font-family="Helvetica,sans-Serif" font-size="10.00">QuantConnect.Algorithm.QCAlgorithm.</text>
<text text-anchor="middle" x="595" y="-408.5" font-family="Helvetica,sans-Serif" font-size="10.00">AddOptionContract</text>
</a>
</g>
</g>
<!-- Node1&#45;&gt;Node2 -->
<g id="edge1" class="edge">
<title>Node1&#45;&gt;Node2</title>
<path fill="none" stroke="midnightblue" d="M818.82,-243.34C800.79,-283.55 763.11,-354.37 708,-391.5 702.22,-395.4 695.92,-398.69 689.36,-401.48"/>
<polygon fill="midnightblue" stroke="midnightblue" points="822.08,-244.62 822.87,-234.05 815.66,-241.81 822.08,-244.62"/>
</g>
<!-- Node6 -->
<g id="node6" class="node">
<title>Node6</title>
<g id="a_node6"><a xlink:href="classQuantConnect_1_1Securities_1_1Volatility_1_1BaseVolatilityModel.html#a1447baed13180db4f86dc485496400b8" target="_top" xlink:title="Gets history requests required for warming up the greeks with the provided resolution">
<polygon fill="white" stroke="black" points="514,-341 514,-382 676,-382 676,-341 514,-341"/>
<text text-anchor="start" x="522" y="-370" font-family="Helvetica,sans-Serif" font-size="10.00">QuantConnect.Securities.</text>
<text text-anchor="start" x="522" y="-359" font-family="Helvetica,sans-Serif" font-size="10.00">Volatility.BaseVolatilityModel.</text>
<text text-anchor="middle" x="595" y="-348" font-family="Helvetica,sans-Serif" font-size="10.00">GetHistoryRequirements</text>
</a>
</g>
</g>
<!-- Node1&#45;&gt;Node6 -->
<g id="edge5" class="edge">
<title>Node1&#45;&gt;Node6</title>
<path fill="none" stroke="midnightblue" d="M808.5,-242.21C785.89,-269.13 748.65,-308.59 708,-331.5 698.18,-337.03 687.3,-341.58 676.28,-345.31"/>
<polygon fill="midnightblue" stroke="midnightblue" points="811.37,-244.23 815.03,-234.28 805.97,-239.77 811.37,-244.23"/>
</g>
<!-- Node7 -->
<g id="node7" class="node">
<title>Node7</title>
<g id="a_node7"><a xlink:href="classQuantConnect_1_1Algorithm_1_1Framework_1_1Selection_1_1CustomUniverse.html#a4f0f7254095868fa76cb9b0290e367e7" target="_top" xlink:title="Gets the subscription requests to be added for the specified security">
<polygon fill="white" stroke="black" points="482,-281 482,-322 708,-322 708,-281 482,-281"/>
<text text-anchor="start" x="490" y="-310" font-family="Helvetica,sans-Serif" font-size="10.00">QuantConnect.Algorithm.Framework.</text>
<text text-anchor="start" x="490" y="-299" font-family="Helvetica,sans-Serif" font-size="10.00">Selection.CustomUniverse.GetSubscription</text>
<text text-anchor="middle" x="595" y="-288" font-family="Helvetica,sans-Serif" font-size="10.00">Requests</text>
</a>
</g>
</g>
<!-- Node1&#45;&gt;Node7 -->
<g id="edge6" class="edge">
<title>Node1&#45;&gt;Node7</title>
<path fill="none" stroke="midnightblue" d="M783.19,-238.49C760.76,-249.57 733.43,-262.18 708,-271.5 698.83,-274.86 689.12,-278.02 679.4,-280.94"/>
<polygon fill="midnightblue" stroke="midnightblue" points="784.78,-241.61 792.16,-234.01 781.65,-235.35 784.78,-241.61"/>
</g>
<!-- Node8 -->
<g id="node8" class="node">
<title>Node8</title>
<g id="a_node8"><a xlink:href="classQuantConnect_1_1Algorithm_1_1Framework_1_1Selection_1_1ManualUniverse.html#a555c7ca603a4133e6bc7b7788764d4ee" target="_top" xlink:title="Gets the subscription requests to be added for the specified security">
<polygon fill="white" stroke="black" points="483,-221 483,-262 707,-262 707,-221 483,-221"/>
<text text-anchor="start" x="491" y="-250" font-family="Helvetica,sans-Serif" font-size="10.00">QuantConnect.Algorithm.Framework.</text>
<text text-anchor="start" x="491" y="-239" font-family="Helvetica,sans-Serif" font-size="10.00">Selection.ManualUniverse.GetSubscription</text>
<text text-anchor="middle" x="595" y="-228" font-family="Helvetica,sans-Serif" font-size="10.00">Requests</text>
</a>
</g>
</g>
<!-- Node1&#45;&gt;Node8 -->
<g id="edge7" class="edge">
<title>Node1&#45;&gt;Node8</title>
<path fill="none" stroke="midnightblue" d="M733.71,-225.09C725.01,-226.13 716.17,-227.18 707.37,-228.23"/>
<polygon fill="midnightblue" stroke="midnightblue" points="734.31,-228.55 743.83,-223.89 733.48,-221.59 734.31,-228.55"/>
</g>
<!-- Node9 -->
<g id="node9" class="node">
<title>Node9</title>
<g id="a_node9"><a xlink:href="classQuantConnect_1_1Lean_1_1Engine_1_1AlgorithmManager.html#a02a0ac8ada5d5bae842b39947cad34e6" target="_top" xlink:title="Helper method to apply a dividend to an algorithm instance">
<polygon fill="white" stroke="black" points="498.5,-171.5 498.5,-201.5 691.5,-201.5 691.5,-171.5 498.5,-171.5"/>
<text text-anchor="start" x="506.5" y="-189.5" font-family="Helvetica,sans-Serif" font-size="10.00">QuantConnect.Lean.Engine.</text>
<text text-anchor="middle" x="595" y="-178.5" font-family="Helvetica,sans-Serif" font-size="10.00">AlgorithmManager.HandleDividends</text>
</a>
</g>
</g>
<!-- Node1&#45;&gt;Node9 -->
<g id="edge8" class="edge">
<title>Node1&#45;&gt;Node9</title>
<path fill="none" stroke="midnightblue" d="M733.79,-202.33C719.88,-200.73 705.59,-199.09 691.72,-197.5"/>
<polygon fill="midnightblue" stroke="midnightblue" points="733.49,-205.82 743.83,-203.48 734.29,-198.87 733.49,-205.82"/>
</g>
<!-- Node11 -->
<g id="node11" class="node">
<title>Node11</title>
<g id="a_node11"><a xlink:href="classQuantConnect_1_1Lean_1_1Engine_1_1AlgorithmManager.html#ab1723b951a86a876c7ae3cc7281365f3" target="_top" xlink:title="Helper method to apply a split to an algorithm instance">
<polygon fill="white" stroke="black" points="509.5,-122.5 509.5,-152.5 680.5,-152.5 680.5,-122.5 509.5,-122.5"/>
<text text-anchor="start" x="517.5" y="-140.5" font-family="Helvetica,sans-Serif" font-size="10.00">QuantConnect.Lean.Engine.</text>
<text text-anchor="middle" x="595" y="-129.5" font-family="Helvetica,sans-Serif" font-size="10.00">AlgorithmManager.HandleSplits</text>
</a>
</g>
</g>
<!-- Node1&#45;&gt;Node11 -->
<g id="edge10" class="edge">
<title>Node1&#45;&gt;Node11</title>
<path fill="none" stroke="midnightblue" d="M777.5,-188.95C756.18,-179.79 731.23,-169.85 708,-162.5 696.41,-158.84 683.99,-155.5 671.78,-152.54"/>
<polygon fill="midnightblue" stroke="midnightblue" points="776.14,-192.17 786.71,-192.95 778.93,-185.75 776.14,-192.17"/>
</g>
<!-- Node12 -->
<g id="node12" class="node">
<title>Node12</title>
<g id="a_node12"><a xlink:href="classQuantConnect_1_1Research_1_1QuantBook.html#a9c6829f944fce7f66a72fa0d9b64f7b8" target="_top" xlink:title="Gets OptionHistory object for a given symbol, date and resolution">
<polygon fill="white" stroke="black" points="512,-73.5 512,-103.5 678,-103.5 678,-73.5 512,-73.5"/>
<text text-anchor="start" x="520" y="-91.5" font-family="Helvetica,sans-Serif" font-size="10.00">QuantConnect.Research.Quant</text>
<text text-anchor="middle" x="595" y="-80.5" font-family="Helvetica,sans-Serif" font-size="10.00">Book.OptionHistory</text>
</a>
</g>
</g>
<!-- Node1&#45;&gt;Node12 -->
<g id="edge12" class="edge">
<title>Node1&#45;&gt;Node12</title>
<path fill="none" stroke="midnightblue" d="M804.63,-185.84C781.33,-163.02 745.32,-131.58 708,-113.5 698.68,-108.98 688.52,-105.27 678.25,-102.22"/>
<polygon fill="midnightblue" stroke="midnightblue" points="802.18,-188.33 811.74,-192.91 807.12,-183.37 802.18,-188.33"/>
</g>
<!-- Node13 -->
<g id="node13" class="node">
<title>Node13</title>
<g id="a_node13"><a xlink:href="classQuantConnect_1_1Data_1_1SubscriptionManager.html#a3f2a45fe4d2836822427cbd67281f162" target="_top" xlink:title="Removes the specified consolidator for the symbol">
<polygon fill="white" stroke="black" points="507.5,-24.5 507.5,-54.5 682.5,-54.5 682.5,-24.5 507.5,-24.5"/>
<text text-anchor="start" x="515.5" y="-42.5" font-family="Helvetica,sans-Serif" font-size="10.00">QuantConnect.Data.Subscription</text>
<text text-anchor="middle" x="595" y="-31.5" font-family="Helvetica,sans-Serif" font-size="10.00">Manager.RemoveConsolidator</text>
</a>
</g>
</g>
<!-- Node1&#45;&gt;Node13 -->
<g id="edge13" class="edge">
<title>Node1&#45;&gt;Node13</title>
<path fill="none" stroke="midnightblue" d="M814.82,-183.9C794.49,-149.65 756.35,-94.16 708,-64.5 700.19,-59.71 691.57,-55.83 682.68,-52.7"/>
<polygon fill="midnightblue" stroke="midnightblue" points="812.03,-186.07 820.07,-192.96 818.08,-182.55 812.03,-186.07"/>
</g>
<!-- Node3 -->
<g id="node3" class="node">
<title>Node3</title>
<g id="a_node3"><a xlink:href="classQuantConnect_1_1Algorithm_1_1QCAlgorithm.html#ada6451c3b45f03209b586c6bc661ccb0" target="_top" xlink:title="Adds a future option contract to the algorithm.">
<polygon fill="white" stroke="black" points="241,-450.5 241,-480.5 446,-480.5 446,-450.5 241,-450.5"/>
<text text-anchor="start" x="249" y="-468.5" font-family="Helvetica,sans-Serif" font-size="10.00">QuantConnect.Algorithm.QCAlgorithm.</text>
<text text-anchor="middle" x="343.5" y="-457.5" font-family="Helvetica,sans-Serif" font-size="10.00">AddFutureOptionContract</text>
</a>
</g>
</g>
<!-- Node2&#45;&gt;Node3 -->
<g id="edge2" class="edge">
<title>Node2&#45;&gt;Node3</title>
<path fill="none" stroke="midnightblue" d="M507.6,-433.47C479.41,-439 448.32,-445.11 420.91,-450.49"/>
<polygon fill="midnightblue" stroke="midnightblue" points="508.31,-436.9 517.45,-431.53 506.96,-430.03 508.31,-436.9"/>
</g>
<!-- Node4 -->
<g id="node4" class="node">
<title>Node4</title>
<g id="a_node4"><a xlink:href="classQuantConnect_1_1Algorithm_1_1QCAlgorithm.html#a87673f13f7831209b9cea29f860d63c3" target="_top" xlink:title="Adds an index option contract to the algorithm.">
<polygon fill="white" stroke="black" points="241,-401.5 241,-431.5 446,-431.5 446,-401.5 241,-401.5"/>
<text text-anchor="start" x="249" y="-419.5" font-family="Helvetica,sans-Serif" font-size="10.00">QuantConnect.Algorithm.QCAlgorithm.</text>
<text text-anchor="middle" x="343.5" y="-408.5" font-family="Helvetica,sans-Serif" font-size="10.00">AddIndexOptionContract</text>
</a>
</g>
</g>
<!-- Node2&#45;&gt;Node4 -->
<g id="edge3" class="edge">
<title>Node2&#45;&gt;Node4</title>
<path fill="none" stroke="midnightblue" d="M482.11,-416.5C470.09,-416.5 457.91,-416.5 446.02,-416.5"/>
<polygon fill="midnightblue" stroke="midnightblue" points="482.16,-420 492.16,-416.5 482.16,-413 482.16,-420"/>
</g>
<!-- Node5 -->
<g id="node5" class="node">
<title>Node5</title>
<g id="a_node5"><a xlink:href="classQuantConnect_1_1Algorithm_1_1QCAlgorithm.html#afcdaf47586751fe6105f43d044b7cf70" target="_top" xlink:title="Set a required SecurityType&#45;symbol and resolution for algorithm">
<polygon fill="white" stroke="black" points="241,-352.5 241,-382.5 446,-382.5 446,-352.5 241,-352.5"/>
<text text-anchor="start" x="249" y="-370.5" font-family="Helvetica,sans-Serif" font-size="10.00">QuantConnect.Algorithm.QCAlgorithm.</text>
<text text-anchor="middle" x="343.5" y="-359.5" font-family="Helvetica,sans-Serif" font-size="10.00">AddSecurity</text>
</a>
</g>
</g>
<!-- Node2&#45;&gt;Node5 -->
<g id="edge4" class="edge">
<title>Node2&#45;&gt;Node5</title>
<path fill="none" stroke="midnightblue" d="M507.6,-399.53C479.41,-394 448.32,-387.89 420.91,-382.51"/>
<polygon fill="midnightblue" stroke="midnightblue" points="506.96,-402.97 517.45,-401.47 508.31,-396.1 506.96,-402.97"/>
</g>
<!-- Node10 -->
<g id="node10" class="node">
<title>Node10</title>
<g id="a_node10"><a xlink:href="classQuantConnect_1_1Lean_1_1Engine_1_1AlgorithmManager.html#a1a51d2e48b1be28cb89347a0123c19fd" target="_top" xlink:title="Launch the algorithm manager to run this strategy">
<polygon fill="white" stroke="black" points="268,-147.5 268,-177.5 419,-177.5 419,-147.5 268,-147.5"/>
<text text-anchor="start" x="276" y="-165.5" font-family="Helvetica,sans-Serif" font-size="10.00">QuantConnect.Lean.Engine.</text>
<text text-anchor="middle" x="343.5" y="-154.5" font-family="Helvetica,sans-Serif" font-size="10.00">AlgorithmManager.Run</text>
</a>
</g>
</g>
<!-- Node9&#45;&gt;Node10 -->
<g id="edge9" class="edge">
<title>Node9&#45;&gt;Node10</title>
<path fill="none" stroke="midnightblue" d="M488.02,-176.31C464.82,-174.07 440.74,-171.76 419.07,-169.67"/>
<polygon fill="midnightblue" stroke="midnightblue" points="487.96,-179.82 498.25,-177.29 488.63,-172.85 487.96,-179.82"/>
</g>
<!-- Node11&#45;&gt;Node10 -->
<g id="edge11" class="edge">
<title>Node11&#45;&gt;Node10</title>
<path fill="none" stroke="midnightblue" d="M499.13,-147.01C472.63,-149.66 444.21,-152.51 419.06,-155.03"/>
<polygon fill="midnightblue" stroke="midnightblue" points="499.58,-150.48 509.18,-146 498.88,-143.51 499.58,-150.48"/>
</g>
<!-- Node14 -->
<g id="node14" class="node">
<title>Node14</title>
<g id="a_node14"><a xlink:href="classQuantConnect_1_1Algorithm_1_1QCAlgorithm.html#a01a9ba644d79fd55e6105c39dfd6159d" target="_top" xlink:title="Will deregister an indicator and it&#39;s associated consolidator instance so they stop receiving data up...">
<polygon fill="white" stroke="black" points="241,-49.5 241,-79.5 446,-79.5 446,-49.5 241,-49.5"/>
<text text-anchor="start" x="249" y="-67.5" font-family="Helvetica,sans-Serif" font-size="10.00">QuantConnect.Algorithm.QCAlgorithm.</text>
<text text-anchor="middle" x="343.5" y="-56.5" font-family="Helvetica,sans-Serif" font-size="10.00">DeregisterIndicator</text>
</a>
</g>
</g>
<!-- Node13&#45;&gt;Node14 -->
<g id="edge14" class="edge">
<title>Node13&#45;&gt;Node14</title>
<path fill="none" stroke="midnightblue" d="M497.16,-49.2C480.5,-50.87 463.14,-52.61 446.35,-54.29"/>
<polygon fill="midnightblue" stroke="midnightblue" points="497.84,-52.65 507.44,-48.17 497.14,-45.69 497.84,-52.65"/>
</g>
<!-- Node16 -->
<g id="node16" class="node">
<title>Node16</title>
<g id="a_node16"><a xlink:href="classQuantConnect_1_1Data_1_1SubscriptionManager.html#a1ce9be8d9f34e0cbe8db293d776ebf04" target="_top" xlink:title="Removes the specified python consolidator for the symbol">
<polygon fill="white" stroke="black" points="256,-0.5 256,-30.5 431,-30.5 431,-0.5 256,-0.5"/>
<text text-anchor="start" x="264" y="-18.5" font-family="Helvetica,sans-Serif" font-size="10.00">QuantConnect.Data.Subscription</text>
<text text-anchor="middle" x="343.5" y="-7.5" font-family="Helvetica,sans-Serif" font-size="10.00">Manager.RemoveConsolidator</text>
</a>
</g>
</g>
<!-- Node13&#45;&gt;Node16 -->
<g id="edge16" class="edge">
<title>Node13&#45;&gt;Node16</title>
<path fill="none" stroke="midnightblue" d="M497.22,-30.19C475.51,-28.1 452.61,-25.9 431.33,-23.85"/>
<polygon fill="midnightblue" stroke="midnightblue" points="497.15,-33.7 507.44,-31.17 497.82,-26.73 497.15,-33.7"/>
</g>
<!-- Node15 -->
<g id="node15" class="node">
<title>Node15</title>
<g id="a_node15"><a xlink:href="classQuantConnect_1_1Algorithm_1_1QCAlgorithm.html#a5fa01b04da66f3c189ac3dc6bc2742d6" target="_top" xlink:title="Will unregister an indicator and it&#39;s associated consolidator instance so they stop receiving data up...">
<polygon fill="white" stroke="black" points="0,-49.5 0,-79.5 205,-79.5 205,-49.5 0,-49.5"/>
<text text-anchor="start" x="8" y="-67.5" font-family="Helvetica,sans-Serif" font-size="10.00">QuantConnect.Algorithm.QCAlgorithm.</text>
<text text-anchor="middle" x="102.5" y="-56.5" font-family="Helvetica,sans-Serif" font-size="10.00">UnregisterIndicator</text>
</a>
</g>
</g>
<!-- Node14&#45;&gt;Node15 -->
<g id="edge15" class="edge">
<title>Node14&#45;&gt;Node15</title>
<path fill="none" stroke="midnightblue" d="M230.78,-64.5C222.22,-64.5 213.6,-64.5 205.11,-64.5"/>
<polygon fill="midnightblue" stroke="midnightblue" points="230.8,-68 240.8,-64.5 230.8,-61 230.8,-68"/>
</g>
</g>
</svg>
        <g id="navigator" transform="translate(0 0)" fill="#404254">
                <rect fill="#f2f5e9" fill-opacity="0.5" stroke="#606060" stroke-width=".5" x="0" y="0" width="60" height="60"/>
                <use id="zoomplus" xlink:href="#zoomPlus" x="17" y="9" onmousedown="handleZoom(evt,'in')"/>
                <use id="zoomminus" xlink:href="#zoomMin" x="42" y="9" onmousedown="handleZoom(evt,'out')"/>
                <use id="reset" xlink:href="#resetDef" x="30" y="36" onmousedown="handleReset()"/>
                <g id="arrowUp" xlink:href="#dirArrow" transform="translate(30 24)" onmousedown="handlePan(0,-1)">
                  <use xlink:href="#rim" fill="#404040">
                        <set attributeName="fill" to="#808080" begin="arrowUp.mouseover" end="arrowUp.mouseout"/>
                  </use>
                  <path fill="none" stroke="white" stroke-width="1.5" d="M0,-3.0v7 M-2.5,-0.5L0,-3.0L2.5,-0.5"/>
                </g>
                <g id="arrowRight" xlink:href="#dirArrow" transform="rotate(90) translate(36 -43)" onmousedown="handlePan(1,0)">
                  <use xlink:href="#rim" fill="#404040">
                        <set attributeName="fill" to="#808080" begin="arrowRight.mouseover" end="arrowRight.mouseout"/>
                  </use>
                  <path fill="none" stroke="white" stroke-width="1.5" d="M0,-3.0v7 M-2.5,-0.5L0,-3.0L2.5,-0.5"/>
                </g>
                <g id="arrowDown" xlink:href="#dirArrow" transform="rotate(180) translate(-30 -48)" onmousedown="handlePan(0,1)">
                  <use xlink:href="#rim" fill="#404040">
                        <set attributeName="fill" to="#808080" begin="arrowDown.mouseover" end="arrowDown.mouseout"/>
                  </use>
                  <path fill="none" stroke="white" stroke-width="1.5" d="M0,-3.0v7 M-2.5,-0.5L0,-3.0L2.5,-0.5"/>
                </g>
                <g id="arrowLeft" xlink:href="#dirArrow" transform="rotate(270) translate(-36 17)" onmousedown="handlePan(-1,0)">
                  <use xlink:href="#rim" fill="#404040">
                        <set attributeName="fill" to="#808080" begin="arrowLeft.mouseover" end="arrowLeft.mouseout"/>
                  </use>
                  <path fill="none" stroke="white" stroke-width="1.5" d="M0,-3.0v7 M-2.5,-0.5L0,-3.0L2.5,-0.5"/>
                </g>
        </g>
        <svg viewBox="0 0 15 15" width="100%" height="30px" preserveAspectRatio="xMaxYMin meet">
         <g id="arrow_out" transform="scale(0.3 0.3)">
          <a xlink:href="interfaceQuantConnect_1_1Interfaces_1_1ISubscriptionDataConfigProvider_a29826b931901dd4e4b64515663a2073b_icgraph_org.svg" target="_base">
           <rect id="button" ry="5" rx="5" y="6" x="6" height="38" width="38"
                fill="#f2f5e9" fill-opacity="0.5" stroke="#606060" stroke-width="1.0"/>
           <path id="arrow"
             d="M 11.500037,31.436501 C 11.940474,20.09759 22.043105,11.32322 32.158766,21.979434 L 37.068811,17.246167 C 37.068811,17.246167 37.088388,32 37.088388,32 L 22.160133,31.978069 C 22.160133,31.978069 26.997745,27.140456 26.997745,27.140456 C 18.528582,18.264221 13.291696,25.230495 11.500037,31.436501 z"
             style="fill:#404040;"/>
          </a>
         </g>
        </svg>
</svg>
