<?xml version="1.0" encoding="UTF-8" standalone="no"?>
<!DOCTYPE svg PUBLIC "-//W3C//DTD SVG 1.1//EN"
 "http://www.w3.org/Graphics/SVG/1.1/DTD/svg11.dtd">
<!-- Generated by graphviz version 2.43.0 (0)
 -->
<!-- Title: QuantConnect.Securities.ISettlementModel.ApplyFunds Pages: 1 -->
<svg width="593pt" height="130pt"
 viewBox="0.00 0.00 593.00 129.50" xmlns="http://www.w3.org/2000/svg" xmlns:xlink="http://www.w3.org/1999/xlink">
<g id="graph0" class="graph" transform="scale(1 1) rotate(0) translate(4 125.5)">
<title>QuantConnect.Securities.ISettlementModel.ApplyFunds</title>
<polygon fill="white" stroke="transparent" points="-4,4 -4,-125.5 589,-125.5 589,4 -4,4"/>
<!-- Node1 -->
<g id="node1" class="node">
<title>Node1</title>
<g id="a_node1"><a xlink:title="Applies cash settlement rules">
<polygon fill="#bfbfbf" stroke="black" points="422,-25.5 422,-55.5 585,-55.5 585,-25.5 422,-25.5"/>
<text text-anchor="start" x="430" y="-43.5" font-family="Helvetica,sans-Serif" font-size="10.00">QuantConnect.Securities.</text>
<text text-anchor="middle" x="503.5" y="-32.5" font-family="Helvetica,sans-Serif" font-size="10.00">ISettlementModel.ApplyFunds</text>
</a>
</g>
</g>
<!-- Node2 -->
<g id="node2" class="node">
<title>Node2</title>
<g id="a_node2"><a xlink:href="classQuantConnect_1_1Securities_1_1Option_1_1OptionPortfolioModel.html#adff7062b57f0978b9f34a40181d3eea1" target="_top" xlink:title="Helper method to determine the close trade profit">
<polygon fill="white" stroke="black" points="223,-80 223,-121 381,-121 381,-80 223,-80"/>
<text text-anchor="start" x="231" y="-109" font-family="Helvetica,sans-Serif" font-size="10.00">QuantConnect.Securities.</text>
<text text-anchor="start" x="231" y="-98" font-family="Helvetica,sans-Serif" font-size="10.00">Option.OptionPortfolioModel.</text>
<text text-anchor="middle" x="302" y="-87" font-family="Helvetica,sans-Serif" font-size="10.00">ProcessCloseTradeProfit</text>
</a>
</g>
</g>
<!-- Node1&#45;&gt;Node2 -->
<g id="edge1" class="edge">
<title>Node1&#45;&gt;Node2</title>
<path fill="none" stroke="midnightblue" d="M442.66,-58.5C420.15,-65.27 394.41,-73.01 371.2,-79.99"/>
<polygon fill="midnightblue" stroke="midnightblue" points="443.85,-61.79 452.42,-55.56 441.83,-55.09 443.85,-61.79"/>
</g>
<!-- Node3 -->
<g id="node3" class="node">
<title>Node3</title>
<g id="a_node3"><a xlink:href="classQuantConnect_1_1Securities_1_1SecurityPortfolioModel.html#ad135956ec1db8e8227e58b81c3354c61" target="_top" xlink:title="Helper method to determine the close trade profit">
<polygon fill="white" stroke="black" points="218,-20 218,-61 386,-61 386,-20 218,-20"/>
<text text-anchor="start" x="226" y="-49" font-family="Helvetica,sans-Serif" font-size="10.00">QuantConnect.Securities.</text>
<text text-anchor="start" x="226" y="-38" font-family="Helvetica,sans-Serif" font-size="10.00">SecurityPortfolioModel.Process</text>
<text text-anchor="middle" x="302" y="-27" font-family="Helvetica,sans-Serif" font-size="10.00">CloseTradeProfit</text>
</a>
</g>
</g>
<!-- Node1&#45;&gt;Node3 -->
<g id="edge2" class="edge">
<title>Node1&#45;&gt;Node3</title>
<path fill="none" stroke="midnightblue" d="M411.91,-40.5C403.33,-40.5 394.66,-40.5 386.15,-40.5"/>
<polygon fill="midnightblue" stroke="midnightblue" points="411.93,-44 421.93,-40.5 411.93,-37 411.93,-44"/>
</g>
<!-- Node4 -->
<g id="node4" class="node">
<title>Node4</title>
<g id="a_node4"><a xlink:href="classQuantConnect_1_1Securities_1_1SecurityPortfolioModel.html#a5fec18e0e959a173c5fbb6187ab56f7c" target="_top" xlink:title="Performs application of an OrderEvent to the portfolio">
<polygon fill="white" stroke="black" points="0,-0.5 0,-30.5 182,-30.5 182,-0.5 0,-0.5"/>
<text text-anchor="start" x="8" y="-18.5" font-family="Helvetica,sans-Serif" font-size="10.00">QuantConnect.Securities.</text>
<text text-anchor="middle" x="91" y="-7.5" font-family="Helvetica,sans-Serif" font-size="10.00">SecurityPortfolioModel.ProcessFill</text>
</a>
</g>
</g>
<!-- Node1&#45;&gt;Node4 -->
<g id="edge4" class="edge">
<title>Node1&#45;&gt;Node4</title>
<path fill="none" stroke="midnightblue" d="M445.54,-22.78C426.77,-17.76 405.67,-12.99 386,-10.5 318.01,-1.89 240.48,-3.68 182.11,-7.34"/>
<polygon fill="midnightblue" stroke="midnightblue" points="444.84,-26.21 455.41,-25.49 446.7,-19.47 444.84,-26.21"/>
</g>
<!-- Node3&#45;&gt;Node4 -->
<g id="edge3" class="edge">
<title>Node3&#45;&gt;Node4</title>
<path fill="none" stroke="midnightblue" d="M207.83,-29.36C199.29,-28.33 190.64,-27.3 182.13,-26.28"/>
<polygon fill="midnightblue" stroke="midnightblue" points="207.45,-32.83 217.8,-30.55 208.28,-25.88 207.45,-32.83"/>
</g>
</g>
</svg>
