<?xml version="1.0" encoding="UTF-8" standalone="no"?>
<!DOCTYPE svg PUBLIC "-//W3C//DTD SVG 1.1//EN"
 "http://www.w3.org/Graphics/SVG/1.1/DTD/svg11.dtd">
<!-- Generated by graphviz version 2.43.0 (0)
 -->
<!-- Title: QuantConnect.Lean.Engine.DataFeeds.ISubscriptionDataSourceReader Pages: 1 -->
<!--zoomable 230 -->
<svg id="main" version="1.1" xmlns="http://www.w3.org/2000/svg" xmlns:xlink="http://www.w3.org/1999/xlink" xml:space="preserve" onload="init(evt)">
<style type="text/css"><![CDATA[
.edge:hover path { stroke: red; }
.edge:hover polygon { stroke: red; fill: red; }
]]></style>
<script type="text/javascript"><![CDATA[
var edges = document.getElementsByTagName('g');
if (edges && edges.length) {
  for (var i=0;i<edges.length;i++) {
    if (edges[i].id.substr(0,4)=='edge') {
      edges[i].setAttribute('class','edge');
    }
  }
}
]]></script>
        <defs>
                <circle id="rim" cx="0" cy="0" r="7"/>
                <circle id="rim2" cx="0" cy="0" r="3.5"/>
                <g id="zoomPlus">
                        <use xlink:href="#rim" fill="#404040">
                                <set attributeName="fill" to="#808080" begin="zoomplus.mouseover" end="zoomplus.mouseout"/>
                        </use>
                        <path d="M-4,0h8M0,-4v8" fill="none" stroke="white" stroke-width="1.5" pointer-events="none"/>
                </g>
                <g id="zoomMin">
                        <use xlink:href="#rim" fill="#404040">
                                <set attributeName="fill" to="#808080" begin="zoomminus.mouseover" end="zoomminus.mouseout"/>
                        </use>
                        <path d="M-4,0h8" fill="none" stroke="white" stroke-width="1.5" pointer-events="none"/>
                </g>
                <g id="dirArrow">
                        <path fill="none" stroke="white" stroke-width="1.5" d="M0,-3.0v7 M-2.5,-0.5L0,-3.0L2.5,-0.5"/>
                </g>
               <g id="resetDef">
                       <use xlink:href="#rim2" fill="#404040">
                               <set attributeName="fill" to="#808080" begin="reset.mouseover" end="reset.mouseout"/>
                       </use>
               </g>
        </defs>

<script type="text/javascript">
var viewWidth = 909;
var viewHeight = 230;
var sectionId = 'dynsection-0';
</script>
<script xlink:href="svgpan.js"/>
<svg id="graph" class="graph">
<g id="viewport">
<title>QuantConnect.Lean.Engine.DataFeeds.ISubscriptionDataSourceReader</title>
<polygon fill="white" stroke="transparent" points="-4,4 -4,-226 905,-226 905,4 -4,4"/>
<!-- Node1 -->
<g id="node1" class="node">
<title>Node1</title>
<g id="a_node1"><a xlink:title="Represents a type responsible for accepting an input SubscriptionDataSource and returning an enumerab...">
<polygon fill="#bfbfbf" stroke="black" points="0,-90.5 0,-131.5 191,-131.5 191,-90.5 0,-90.5"/>
<text text-anchor="start" x="8" y="-119.5" font-family="Helvetica,sans-Serif" font-size="10.00">QuantConnect.Lean.Engine.</text>
<text text-anchor="start" x="8" y="-108.5" font-family="Helvetica,sans-Serif" font-size="10.00">DataFeeds.ISubscriptionDataSource</text>
<text text-anchor="middle" x="95.5" y="-97.5" font-family="Helvetica,sans-Serif" font-size="10.00">Reader</text>
</a>
</g>
</g>
<!-- Node2 -->
<g id="node2" class="node">
<title>Node2</title>
<g id="a_node2"><a xlink:href="classQuantConnect_1_1Lean_1_1Engine_1_1DataFeeds_1_1BaseSubscriptionDataSourceReader.html" target="_top" xlink:title="A base class for implementations of the ISubscriptionDataSourceReader">
<polygon fill="white" stroke="black" points="227,-90.5 227,-131.5 406,-131.5 406,-90.5 227,-90.5"/>
<text text-anchor="start" x="235" y="-119.5" font-family="Helvetica,sans-Serif" font-size="10.00">QuantConnect.Lean.Engine.</text>
<text text-anchor="start" x="235" y="-108.5" font-family="Helvetica,sans-Serif" font-size="10.00">DataFeeds.BaseSubscriptionData</text>
<text text-anchor="middle" x="316.5" y="-97.5" font-family="Helvetica,sans-Serif" font-size="10.00">SourceReader</text>
</a>
</g>
</g>
<!-- Node1&#45;&gt;Node2 -->
<g id="edge1" class="edge">
<title>Node1&#45;&gt;Node2</title>
<path fill="none" stroke="midnightblue" d="M201.55,-111C210,-111 218.48,-111 226.79,-111"/>
<polygon fill="midnightblue" stroke="midnightblue" points="201.28,-107.5 191.28,-111 201.28,-114.5 201.28,-107.5"/>
</g>
<!-- Node3 -->
<g id="node3" class="node">
<title>Node3</title>
<g id="a_node3"><a xlink:href="classQuantConnect_1_1Lean_1_1Engine_1_1DataFeeds_1_1CollectionSubscriptionDataSourceReader.html" target="_top" xlink:title="Collection Subscription Factory takes a BaseDataCollection from BaseData factories and yields it one ...">
<polygon fill="white" stroke="black" points="453,-180.5 453,-221.5 633,-221.5 633,-180.5 453,-180.5"/>
<text text-anchor="start" x="461" y="-209.5" font-family="Helvetica,sans-Serif" font-size="10.00">QuantConnect.Lean.Engine.</text>
<text text-anchor="start" x="461" y="-198.5" font-family="Helvetica,sans-Serif" font-size="10.00">DataFeeds.CollectionSubscription</text>
<text text-anchor="middle" x="543" y="-187.5" font-family="Helvetica,sans-Serif" font-size="10.00">DataSourceReader</text>
</a>
</g>
</g>
<!-- Node2&#45;&gt;Node3 -->
<g id="edge2" class="edge">
<title>Node2&#45;&gt;Node3</title>
<path fill="none" stroke="midnightblue" d="M365.19,-136.17C388.05,-147.66 416.05,-160.93 442,-171 450.53,-174.31 459.59,-177.49 468.63,-180.44"/>
<polygon fill="midnightblue" stroke="midnightblue" points="366.55,-132.93 356.05,-131.53 363.38,-139.17 366.55,-132.93"/>
</g>
<!-- Node4 -->
<g id="node4" class="node">
<title>Node4</title>
<g id="a_node4"><a xlink:href="classQuantConnect_1_1Lean_1_1Engine_1_1DataFeeds_1_1IndexSubscriptionDataSourceReader.html" target="_top" xlink:title="This ISubscriptionDataSourceReader implementation supports the FileFormat.Index and IndexedBaseData t...">
<polygon fill="white" stroke="black" points="452,-120.5 452,-161.5 634,-161.5 634,-120.5 452,-120.5"/>
<text text-anchor="start" x="460" y="-149.5" font-family="Helvetica,sans-Serif" font-size="10.00">QuantConnect.Lean.Engine.</text>
<text text-anchor="start" x="460" y="-138.5" font-family="Helvetica,sans-Serif" font-size="10.00">DataFeeds.IndexSubscriptionData</text>
<text text-anchor="middle" x="543" y="-127.5" font-family="Helvetica,sans-Serif" font-size="10.00">SourceReader</text>
</a>
</g>
</g>
<!-- Node2&#45;&gt;Node4 -->
<g id="edge3" class="edge">
<title>Node2&#45;&gt;Node4</title>
<path fill="none" stroke="midnightblue" d="M416.47,-124.23C428.19,-125.79 440.11,-127.38 451.71,-128.93"/>
<polygon fill="midnightblue" stroke="midnightblue" points="416.6,-120.71 406.23,-122.86 415.68,-127.65 416.6,-120.71"/>
</g>
<!-- Node5 -->
<g id="node5" class="node">
<title>Node5</title>
<g id="a_node5"><a xlink:href="classQuantConnect_1_1Lean_1_1Engine_1_1DataFeeds_1_1TextSubscriptionDataSourceReader.html" target="_top" xlink:title="Provides an implementations of ISubscriptionDataSourceReader that uses the BaseData....">
<polygon fill="white" stroke="black" points="455.5,-60.5 455.5,-101.5 630.5,-101.5 630.5,-60.5 455.5,-60.5"/>
<text text-anchor="start" x="463.5" y="-89.5" font-family="Helvetica,sans-Serif" font-size="10.00">QuantConnect.Lean.Engine.</text>
<text text-anchor="start" x="463.5" y="-78.5" font-family="Helvetica,sans-Serif" font-size="10.00">DataFeeds.TextSubscriptionData</text>
<text text-anchor="middle" x="543" y="-67.5" font-family="Helvetica,sans-Serif" font-size="10.00">SourceReader</text>
</a>
</g>
</g>
<!-- Node2&#45;&gt;Node5 -->
<g id="edge4" class="edge">
<title>Node2&#45;&gt;Node5</title>
<path fill="none" stroke="midnightblue" d="M416.16,-97.82C429.23,-96.07 442.54,-94.29 455.38,-92.57"/>
<polygon fill="midnightblue" stroke="midnightblue" points="415.68,-94.35 406.23,-99.14 416.6,-101.29 415.68,-94.35"/>
</g>
<!-- Node7 -->
<g id="node7" class="node">
<title>Node7</title>
<g id="a_node7"><a xlink:href="classQuantConnect_1_1Lean_1_1Engine_1_1DataFeeds_1_1ZipEntryNameSubscriptionDataSourceReader.html" target="_top" xlink:title="Provides an implementation of ISubscriptionDataSourceReader that reads zip entry names">
<polygon fill="white" stroke="black" points="442,-0.5 442,-41.5 644,-41.5 644,-0.5 442,-0.5"/>
<text text-anchor="start" x="450" y="-29.5" font-family="Helvetica,sans-Serif" font-size="10.00">QuantConnect.Lean.Engine.</text>
<text text-anchor="start" x="450" y="-18.5" font-family="Helvetica,sans-Serif" font-size="10.00">DataFeeds.ZipEntryNameSubscription</text>
<text text-anchor="middle" x="543" y="-7.5" font-family="Helvetica,sans-Serif" font-size="10.00">DataSourceReader</text>
</a>
</g>
</g>
<!-- Node2&#45;&gt;Node7 -->
<g id="edge6" class="edge">
<title>Node2&#45;&gt;Node7</title>
<path fill="none" stroke="midnightblue" d="M365.19,-85.83C388.05,-74.34 416.05,-61.07 442,-51 450.53,-47.69 459.59,-44.51 468.63,-41.56"/>
<polygon fill="midnightblue" stroke="midnightblue" points="363.38,-82.83 356.05,-90.47 366.55,-89.07 363.38,-82.83"/>
</g>
<!-- Node6 -->
<g id="node6" class="node">
<title>Node6</title>
<g id="a_node6"><a xlink:href="classQuantConnect_1_1Lean_1_1Engine_1_1DataFeeds_1_1BaseDataCollectionAggregatorReader.html" target="_top" xlink:title="Data source reader that will aggregate data points into a base data collection">
<polygon fill="white" stroke="black" points="680,-60.5 680,-101.5 901,-101.5 901,-60.5 680,-60.5"/>
<text text-anchor="start" x="688" y="-89.5" font-family="Helvetica,sans-Serif" font-size="10.00">QuantConnect.Lean.Engine.</text>
<text text-anchor="start" x="688" y="-78.5" font-family="Helvetica,sans-Serif" font-size="10.00">DataFeeds.BaseDataCollectionAggregator</text>
<text text-anchor="middle" x="790.5" y="-67.5" font-family="Helvetica,sans-Serif" font-size="10.00">Reader</text>
</a>
</g>
</g>
<!-- Node5&#45;&gt;Node6 -->
<g id="edge5" class="edge">
<title>Node5&#45;&gt;Node6</title>
<path fill="none" stroke="midnightblue" d="M640.71,-81C653.49,-81 666.66,-81 679.64,-81"/>
<polygon fill="midnightblue" stroke="midnightblue" points="640.55,-77.5 630.55,-81 640.55,-84.5 640.55,-77.5"/>
</g>
</g>
</svg>
        <g id="navigator" transform="translate(0 0)" fill="#404254">
                <rect fill="#f2f5e9" fill-opacity="0.5" stroke="#606060" stroke-width=".5" x="0" y="0" width="60" height="60"/>
                <use id="zoomplus" xlink:href="#zoomPlus" x="17" y="9" onmousedown="handleZoom(evt,'in')"/>
                <use id="zoomminus" xlink:href="#zoomMin" x="42" y="9" onmousedown="handleZoom(evt,'out')"/>
                <use id="reset" xlink:href="#resetDef" x="30" y="36" onmousedown="handleReset()"/>
                <g id="arrowUp" xlink:href="#dirArrow" transform="translate(30 24)" onmousedown="handlePan(0,-1)">
                  <use xlink:href="#rim" fill="#404040">
                        <set attributeName="fill" to="#808080" begin="arrowUp.mouseover" end="arrowUp.mouseout"/>
                  </use>
                  <path fill="none" stroke="white" stroke-width="1.5" d="M0,-3.0v7 M-2.5,-0.5L0,-3.0L2.5,-0.5"/>
                </g>
                <g id="arrowRight" xlink:href="#dirArrow" transform="rotate(90) translate(36 -43)" onmousedown="handlePan(1,0)">
                  <use xlink:href="#rim" fill="#404040">
                        <set attributeName="fill" to="#808080" begin="arrowRight.mouseover" end="arrowRight.mouseout"/>
                  </use>
                  <path fill="none" stroke="white" stroke-width="1.5" d="M0,-3.0v7 M-2.5,-0.5L0,-3.0L2.5,-0.5"/>
                </g>
                <g id="arrowDown" xlink:href="#dirArrow" transform="rotate(180) translate(-30 -48)" onmousedown="handlePan(0,1)">
                  <use xlink:href="#rim" fill="#404040">
                        <set attributeName="fill" to="#808080" begin="arrowDown.mouseover" end="arrowDown.mouseout"/>
                  </use>
                  <path fill="none" stroke="white" stroke-width="1.5" d="M0,-3.0v7 M-2.5,-0.5L0,-3.0L2.5,-0.5"/>
                </g>
                <g id="arrowLeft" xlink:href="#dirArrow" transform="rotate(270) translate(-36 17)" onmousedown="handlePan(-1,0)">
                  <use xlink:href="#rim" fill="#404040">
                        <set attributeName="fill" to="#808080" begin="arrowLeft.mouseover" end="arrowLeft.mouseout"/>
                  </use>
                  <path fill="none" stroke="white" stroke-width="1.5" d="M0,-3.0v7 M-2.5,-0.5L0,-3.0L2.5,-0.5"/>
                </g>
        </g>
        <svg viewBox="0 0 15 15" width="100%" height="30px" preserveAspectRatio="xMaxYMin meet">
         <g id="arrow_out" transform="scale(0.3 0.3)">
          <a xlink:href="interfaceQuantConnect_1_1Lean_1_1Engine_1_1DataFeeds_1_1ISubscriptionDataSourceReader__inherit__graph_org.svg" target="_base">
           <rect id="button" ry="5" rx="5" y="6" x="6" height="38" width="38"
                fill="#f2f5e9" fill-opacity="0.5" stroke="#606060" stroke-width="1.0"/>
           <path id="arrow"
             d="M 11.500037,31.436501 C 11.940474,20.09759 22.043105,11.32322 32.158766,21.979434 L 37.068811,17.246167 C 37.068811,17.246167 37.088388,32 37.088388,32 L 22.160133,31.978069 C 22.160133,31.978069 26.997745,27.140456 26.997745,27.140456 C 18.528582,18.264221 13.291696,25.230495 11.500037,31.436501 z"
             style="fill:#404040;"/>
          </a>
         </g>
        </svg>
</svg>
