<?xml version="1.0" encoding="UTF-8" standalone="no"?>
<!DOCTYPE svg PUBLIC "-//W3C//DTD SVG 1.1//EN"
 "http://www.w3.org/Graphics/SVG/1.1/DTD/svg11.dtd">
<!-- Generated by graphviz version 2.43.0 (0)
 -->
<!-- Title: QuantConnect.Data.Consolidators.IDataConsolidator Pages: 1 -->
<svg width="524pt" height="284pt"
 viewBox="0.00 0.00 524.00 284.00" xmlns="http://www.w3.org/2000/svg" xmlns:xlink="http://www.w3.org/1999/xlink">
<g id="graph0" class="graph" transform="scale(1 1) rotate(0) translate(4 280)">
<title>QuantConnect.Data.Consolidators.IDataConsolidator</title>
<polygon fill="white" stroke="transparent" points="-4,4 -4,-280 520,-280 520,4 -4,4"/>
<!-- Node1 -->
<g id="node1" class="node">
<title>Node1</title>
<g id="a_node1"><a xlink:title="Represents a type capable of taking BaseData updates and firing events containing new &#39;consolidated&#39; ...">
<polygon fill="#bfbfbf" stroke="black" points="110,-122.5 110,-152.5 295,-152.5 295,-122.5 110,-122.5"/>
<text text-anchor="start" x="118" y="-140.5" font-family="Helvetica,sans-Serif" font-size="10.00">QuantConnect.Data.Consolidators.</text>
<text text-anchor="middle" x="202.5" y="-129.5" font-family="Helvetica,sans-Serif" font-size="10.00">IDataConsolidator</text>
</a>
</g>
</g>
<!-- Node3 -->
<g id="node3" class="node">
<title>Node3</title>
<g id="a_node3"><a xlink:href="classQuantConnect_1_1Data_1_1Common_1_1MarketHourAwareConsolidator.html" target="_top" xlink:title="Consolidator for open markets bar only, extended hours bar are not consolidated.">
<polygon fill="white" stroke="black" points="340.5,-245.5 340.5,-275.5 506.5,-275.5 506.5,-245.5 340.5,-245.5"/>
<text text-anchor="start" x="348.5" y="-263.5" font-family="Helvetica,sans-Serif" font-size="10.00">QuantConnect.Data.Common.</text>
<text text-anchor="middle" x="423.5" y="-252.5" font-family="Helvetica,sans-Serif" font-size="10.00">MarketHourAwareConsolidator</text>
</a>
</g>
</g>
<!-- Node1&#45;&gt;Node3 -->
<g id="edge2" class="edge">
<title>Node1&#45;&gt;Node3</title>
<path fill="none" stroke="midnightblue" d="M226.1,-159.73C250.18,-182.22 290.36,-216.45 331,-236.5 337.92,-239.92 345.39,-242.89 352.96,-245.46"/>
<polygon fill="midnightblue" stroke="midnightblue" points="228.24,-156.94 218.58,-152.59 223.42,-162.02 228.24,-156.94"/>
</g>
<!-- Node4 -->
<g id="node4" class="node">
<title>Node4</title>
<g id="a_node4"><a xlink:href="classQuantConnect_1_1Data_1_1Consolidators_1_1BaseTimelessConsolidator.html" target="_top" xlink:title="Represents a timeless consolidator which depends on the given values. This consolidator is meant to c...">
<polygon fill="white" stroke="black" points="331,-196.5 331,-226.5 516,-226.5 516,-196.5 331,-196.5"/>
<text text-anchor="start" x="339" y="-214.5" font-family="Helvetica,sans-Serif" font-size="10.00">QuantConnect.Data.Consolidators.</text>
<text text-anchor="middle" x="423.5" y="-203.5" font-family="Helvetica,sans-Serif" font-size="10.00">BaseTimelessConsolidator&lt; T &gt;</text>
</a>
</g>
</g>
<!-- Node1&#45;&gt;Node4 -->
<g id="edge3" class="edge">
<title>Node1&#45;&gt;Node4</title>
<path fill="none" stroke="midnightblue" d="M247.86,-156.37C272.16,-166.34 302.96,-178.36 331,-187.5 340.68,-190.66 351.04,-193.69 361.18,-196.48"/>
<polygon fill="midnightblue" stroke="midnightblue" points="249.12,-153.11 238.55,-152.53 246.45,-159.58 249.12,-153.11"/>
</g>
<!-- Node5 -->
<g id="node5" class="node">
<title>Node5</title>
<g id="a_node5"><a xlink:href="classQuantConnect_1_1Data_1_1Consolidators_1_1DataConsolidator.html" target="_top" xlink:title="Represents a type that consumes BaseData instances and fires an event with consolidated and/or aggreg...">
<polygon fill="white" stroke="black" points="331,-147.5 331,-177.5 516,-177.5 516,-147.5 331,-147.5"/>
<text text-anchor="start" x="339" y="-165.5" font-family="Helvetica,sans-Serif" font-size="10.00">QuantConnect.Data.Consolidators.</text>
<text text-anchor="middle" x="423.5" y="-154.5" font-family="Helvetica,sans-Serif" font-size="10.00">DataConsolidator&lt; TInput &gt;</text>
</a>
</g>
</g>
<!-- Node1&#45;&gt;Node5 -->
<g id="edge4" class="edge">
<title>Node1&#45;&gt;Node5</title>
<path fill="none" stroke="midnightblue" d="M305.15,-149.1C313.74,-150.08 322.4,-151.07 330.91,-152.04"/>
<polygon fill="midnightblue" stroke="midnightblue" points="305.44,-145.61 295.11,-147.96 304.65,-152.57 305.44,-145.61"/>
</g>
<!-- Node6 -->
<g id="node6" class="node">
<title>Node6</title>
<g id="a_node6"><a xlink:href="classQuantConnect_1_1Data_1_1Consolidators_1_1RenkoConsolidator.html" target="_top" xlink:title="Provides a type safe wrapper on the RenkoConsolidator class. This just allows us to define our select...">
<polygon fill="white" stroke="black" points="331,-98.5 331,-128.5 516,-128.5 516,-98.5 331,-98.5"/>
<text text-anchor="start" x="339" y="-116.5" font-family="Helvetica,sans-Serif" font-size="10.00">QuantConnect.Data.Consolidators.</text>
<text text-anchor="middle" x="423.5" y="-105.5" font-family="Helvetica,sans-Serif" font-size="10.00">RenkoConsolidator&lt; TInput &gt;</text>
</a>
</g>
</g>
<!-- Node1&#45;&gt;Node6 -->
<g id="edge5" class="edge">
<title>Node1&#45;&gt;Node6</title>
<path fill="none" stroke="midnightblue" d="M305.15,-126.36C313.74,-125.42 322.4,-124.47 330.91,-123.54"/>
<polygon fill="midnightblue" stroke="midnightblue" points="304.67,-122.89 295.11,-127.46 305.43,-129.85 304.67,-122.89"/>
</g>
<!-- Node7 -->
<g id="node7" class="node">
<title>Node7</title>
<g id="a_node7"><a xlink:href="classQuantConnect_1_1Data_1_1Consolidators_1_1SequentialConsolidator.html" target="_top" xlink:title="This consolidator wires up the events on its First and Second consolidators such that data flows from...">
<polygon fill="white" stroke="black" points="331,-49.5 331,-79.5 516,-79.5 516,-49.5 331,-49.5"/>
<text text-anchor="start" x="339" y="-67.5" font-family="Helvetica,sans-Serif" font-size="10.00">QuantConnect.Data.Consolidators.</text>
<text text-anchor="middle" x="423.5" y="-56.5" font-family="Helvetica,sans-Serif" font-size="10.00">SequentialConsolidator</text>
</a>
</g>
</g>
<!-- Node1&#45;&gt;Node7 -->
<g id="edge6" class="edge">
<title>Node1&#45;&gt;Node7</title>
<path fill="none" stroke="midnightblue" d="M248.67,-118.74C272.86,-109.05 303.3,-97.42 331,-88.5 340.69,-85.38 351.06,-82.36 361.2,-79.58"/>
<polygon fill="midnightblue" stroke="midnightblue" points="247.36,-115.5 239.39,-122.49 249.98,-121.99 247.36,-115.5"/>
</g>
<!-- Node8 -->
<g id="node8" class="node">
<title>Node8</title>
<g id="a_node8"><a xlink:href="classQuantConnect_1_1Python_1_1DataConsolidatorPythonWrapper.html" target="_top" xlink:title="Provides an Data Consolidator that wraps a PyObject object that represents a custom Python consolidat...">
<polygon fill="white" stroke="black" points="347,-0.5 347,-30.5 500,-30.5 500,-0.5 347,-0.5"/>
<text text-anchor="start" x="355" y="-18.5" font-family="Helvetica,sans-Serif" font-size="10.00">QuantConnect.Python.Data</text>
<text text-anchor="middle" x="423.5" y="-7.5" font-family="Helvetica,sans-Serif" font-size="10.00">ConsolidatorPythonWrapper</text>
</a>
</g>
</g>
<!-- Node1&#45;&gt;Node8 -->
<g id="edge7" class="edge">
<title>Node1&#45;&gt;Node8</title>
<path fill="none" stroke="midnightblue" d="M226.55,-115.13C250.71,-92.87 290.69,-59.27 331,-39.5 337.93,-36.1 345.4,-33.14 352.98,-30.57"/>
<polygon fill="midnightblue" stroke="midnightblue" points="223.9,-112.82 218.99,-122.21 228.68,-117.93 223.9,-112.82"/>
</g>
<!-- Node2 -->
<g id="node2" class="node">
<title>Node2</title>
<g id="a_node2"><a xlink:title=" ">
<polygon fill="white" stroke="#bfbfbf" points="0,-128 0,-147 74,-147 74,-128 0,-128"/>
<text text-anchor="middle" x="37" y="-135" font-family="Helvetica,sans-Serif" font-size="10.00">IDisposable</text>
</a>
</g>
</g>
<!-- Node2&#45;&gt;Node1 -->
<g id="edge1" class="edge">
<title>Node2&#45;&gt;Node1</title>
<path fill="none" stroke="midnightblue" d="M84.48,-137.5C92.51,-137.5 101.1,-137.5 109.84,-137.5"/>
<polygon fill="midnightblue" stroke="midnightblue" points="84.29,-134 74.29,-137.5 84.29,-141 84.29,-134"/>
</g>
</g>
</svg>
