<?xml version="1.0" encoding="UTF-8" standalone="no"?>
<!DOCTYPE svg PUBLIC "-//W3C//DTD SVG 1.1//EN"
 "http://www.w3.org/Graphics/SVG/1.1/DTD/svg11.dtd">
<!-- Generated by graphviz version 2.43.0 (0)
 -->
<!-- Title: QuantConnect.Interfaces.IAlgorithm.GetLastKnownPrice Pages: 1 -->
<svg width="626pt" height="50pt"
 viewBox="0.00 0.00 626.00 50.00" xmlns="http://www.w3.org/2000/svg" xmlns:xlink="http://www.w3.org/1999/xlink">
<g id="graph0" class="graph" transform="scale(1 1) rotate(0) translate(4 46)">
<title>QuantConnect.Interfaces.IAlgorithm.GetLastKnownPrice</title>
<polygon fill="white" stroke="transparent" points="-4,4 -4,-46 622,-46 622,4 -4,4"/>
<!-- Node1 -->
<g id="node1" class="node">
<title>Node1</title>
<g id="a_node1"><a xlink:title="Get the last known price using the history provider. Useful for seeding securities with the correct p...">
<polygon fill="#bfbfbf" stroke="black" points="453,-6 453,-36 618,-36 618,-6 453,-6"/>
<text text-anchor="start" x="461" y="-24" font-family="Helvetica,sans-Serif" font-size="10.00">QuantConnect.Interfaces.</text>
<text text-anchor="middle" x="535.5" y="-13" font-family="Helvetica,sans-Serif" font-size="10.00">IAlgorithm.GetLastKnownPrice</text>
</a>
</g>
</g>
<!-- Node2 -->
<g id="node2" class="node">
<title>Node2</title>
<g id="a_node2"><a xlink:href="classQuantConnect_1_1Lean_1_1Engine_1_1Setup_1_1BrokerageSetupHandler.html#abcd444fc0f3eca0af0470d9f963a5efd" target="_top" xlink:title="Loads existing holdings and orders">
<polygon fill="white" stroke="black" points="229,-0.5 229,-41.5 417,-41.5 417,-0.5 229,-0.5"/>
<text text-anchor="start" x="237" y="-29.5" font-family="Helvetica,sans-Serif" font-size="10.00">QuantConnect.Lean.Engine.</text>
<text text-anchor="start" x="237" y="-18.5" font-family="Helvetica,sans-Serif" font-size="10.00">Setup.BrokerageSetupHandler.Load</text>
<text text-anchor="middle" x="323" y="-7.5" font-family="Helvetica,sans-Serif" font-size="10.00">ExistingHoldingsAndOrders</text>
</a>
</g>
</g>
<!-- Node1&#45;&gt;Node2 -->
<g id="edge1" class="edge">
<title>Node1&#45;&gt;Node2</title>
<path fill="none" stroke="midnightblue" d="M442.6,-21C434.18,-21 425.63,-21 417.19,-21"/>
<polygon fill="midnightblue" stroke="midnightblue" points="442.81,-24.5 452.81,-21 442.81,-17.5 442.81,-24.5"/>
</g>
<!-- Node3 -->
<g id="node3" class="node">
<title>Node3</title>
<g id="a_node3"><a xlink:href="classQuantConnect_1_1Lean_1_1Engine_1_1Setup_1_1BrokerageSetupHandler.html#a31fba19179b2197553a8f0152885886b" target="_top" xlink:title="Primary entry point to setup a new algorithm">
<polygon fill="white" stroke="black" points="0,-6 0,-36 193,-36 193,-6 0,-6"/>
<text text-anchor="start" x="8" y="-24" font-family="Helvetica,sans-Serif" font-size="10.00">QuantConnect.Lean.Engine.</text>
<text text-anchor="middle" x="96.5" y="-13" font-family="Helvetica,sans-Serif" font-size="10.00">Setup.BrokerageSetupHandler.Setup</text>
</a>
</g>
</g>
<!-- Node2&#45;&gt;Node3 -->
<g id="edge2" class="edge">
<title>Node2&#45;&gt;Node3</title>
<path fill="none" stroke="midnightblue" d="M218.72,-21C210.15,-21 201.51,-21 193,-21"/>
<polygon fill="midnightblue" stroke="midnightblue" points="218.74,-24.5 228.74,-21 218.74,-17.5 218.74,-24.5"/>
</g>
</g>
</svg>
