<?xml version="1.0" encoding="UTF-8" standalone="no"?>
<!DOCTYPE svg PUBLIC "-//W3C//DTD SVG 1.1//EN"
 "http://www.w3.org/Graphics/SVG/1.1/DTD/svg11.dtd">
<!-- Generated by graphviz version 2.43.0 (0)
 -->
<!-- Title: QuantConnect.Data.IBaseData Pages: 1 -->
<svg width="1177pt" height="1190pt"
 viewBox="0.00 0.00 1177.00 1190.00" xmlns="http://www.w3.org/2000/svg" xmlns:xlink="http://www.w3.org/1999/xlink">
<g id="graph0" class="graph" transform="scale(1 1) rotate(0) translate(4 1186)">
<title>QuantConnect.Data.IBaseData</title>
<polygon fill="white" stroke="transparent" points="-4,4 -4,-1186 1173,-1186 1173,4 -4,4"/>
<!-- Node1 -->
<g id="node1" class="node">
<title>Node1</title>
<g id="a_node1"><a xlink:title="Base Data Class: Type, Timestamp, Key – Base Features.">
<polygon fill="#bfbfbf" stroke="black" points="133,-339 133,-358 298,-358 298,-339 133,-339"/>
<text text-anchor="middle" x="215.5" y="-346" font-family="Helvetica,sans-Serif" font-size="10.00">QuantConnect.Data.IBaseData</text>
</a>
</g>
</g>
<!-- Node3 -->
<g id="node3" class="node">
<title>Node3</title>
<g id="a_node3"><a xlink:href="classQuantConnect_1_1Data_1_1BaseData.html" target="_top" xlink:title="Abstract base data class of QuantConnect. It is intended to be extended to define generic user custom...">
<polygon fill="white" stroke="black" points="334,-603 334,-622 496,-622 496,-603 334,-603"/>
<text text-anchor="middle" x="415" y="-610" font-family="Helvetica,sans-Serif" font-size="10.00">QuantConnect.Data.BaseData</text>
</a>
</g>
</g>
<!-- Node1&#45;&gt;Node3 -->
<g id="edge2" class="edge">
<title>Node1&#45;&gt;Node3</title>
<path fill="none" stroke="midnightblue" d="M229.87,-366.38C268.25,-417.68 377.86,-564.19 406.88,-602.98"/>
<polygon fill="midnightblue" stroke="midnightblue" points="232.56,-364.12 223.76,-358.21 226.95,-368.31 232.56,-364.12"/>
</g>
<!-- Node45 -->
<g id="node45" class="node">
<title>Node45</title>
<g id="a_node45"><a xlink:href="interfaceQuantConnect_1_1Data_1_1Market_1_1IBaseDataBar.html" target="_top" xlink:title="Represents a type that is both a bar and base data">
<polygon fill="white" stroke="black" points="339,-118.5 339,-148.5 491,-148.5 491,-118.5 339,-118.5"/>
<text text-anchor="start" x="347" y="-136.5" font-family="Helvetica,sans-Serif" font-size="10.00">QuantConnect.Data.Market.</text>
<text text-anchor="middle" x="415" y="-125.5" font-family="Helvetica,sans-Serif" font-size="10.00">IBaseDataBar</text>
</a>
</g>
</g>
<!-- Node1&#45;&gt;Node45 -->
<g id="edge44" class="edge">
<title>Node1&#45;&gt;Node45</title>
<path fill="none" stroke="midnightblue" d="M232.15,-331.46C269.71,-290.58 364.46,-187.43 400.13,-148.6"/>
<polygon fill="midnightblue" stroke="midnightblue" points="229.43,-329.25 225.24,-338.98 234.58,-333.99 229.43,-329.25"/>
</g>
<!-- Node2 -->
<g id="node2" class="node">
<title>Node2</title>
<g id="a_node2"><a xlink:href="interfaceQuantConnect_1_1Data_1_1ISymbolProvider.html" target="_top" xlink:title="Base data with a symbol">
<polygon fill="white" stroke="black" points="0,-339 0,-358 97,-358 97,-339 0,-339"/>
<text text-anchor="middle" x="48.5" y="-346" font-family="Helvetica,sans-Serif" font-size="10.00">ISymbolProvider</text>
</a>
</g>
</g>
<!-- Node2&#45;&gt;Node1 -->
<g id="edge1" class="edge">
<title>Node2&#45;&gt;Node1</title>
<path fill="none" stroke="midnightblue" d="M107.48,-348.5C115.75,-348.5 124.38,-348.5 132.99,-348.5"/>
<polygon fill="midnightblue" stroke="midnightblue" points="107.22,-345 97.22,-348.5 107.22,-352 107.22,-345"/>
</g>
<!-- Node4 -->
<g id="node4" class="node">
<title>Node4</title>
<g id="a_node4"><a xlink:href="classQuantConnect_1_1Data_1_1Auxiliary_1_1ZipEntryName.html" target="_top" xlink:title="Defines a data type that just produces data points from the zip entry names in a zip file">
<polygon fill="white" stroke="black" points="548.5,-720.5 548.5,-750.5 708.5,-750.5 708.5,-720.5 548.5,-720.5"/>
<text text-anchor="start" x="556.5" y="-738.5" font-family="Helvetica,sans-Serif" font-size="10.00">QuantConnect.Data.Auxiliary.</text>
<text text-anchor="middle" x="628.5" y="-727.5" font-family="Helvetica,sans-Serif" font-size="10.00">ZipEntryName</text>
</a>
</g>
</g>
<!-- Node3&#45;&gt;Node4 -->
<g id="edge3" class="edge">
<title>Node3&#45;&gt;Node4</title>
<path fill="none" stroke="midnightblue" d="M431.62,-629.8C452.42,-651.78 491.33,-689.39 532,-710.5 539.45,-714.37 547.55,-717.67 555.78,-720.49"/>
<polygon fill="midnightblue" stroke="midnightblue" points="433.94,-627.15 424.57,-622.2 428.81,-631.91 433.94,-627.15"/>
</g>
<!-- Node5 -->
<g id="node5" class="node">
<title>Node5</title>
<g id="a_node5"><a xlink:href="classQuantConnect_1_1Data_1_1Custom_1_1FxcmVolume.html" target="_top" xlink:title="FXCM Real FOREX Volume and Transaction data from its clients base, available for the following pairs:">
<polygon fill="white" stroke="black" points="551,-671.5 551,-701.5 706,-701.5 706,-671.5 551,-671.5"/>
<text text-anchor="start" x="559" y="-689.5" font-family="Helvetica,sans-Serif" font-size="10.00">QuantConnect.Data.Custom.</text>
<text text-anchor="middle" x="628.5" y="-678.5" font-family="Helvetica,sans-Serif" font-size="10.00">FxcmVolume</text>
</a>
</g>
</g>
<!-- Node3&#45;&gt;Node5 -->
<g id="edge4" class="edge">
<title>Node3&#45;&gt;Node5</title>
<path fill="none" stroke="midnightblue" d="M445.47,-626.34C468.65,-636.88 501.94,-651.27 532,-661.5 542.47,-665.06 553.72,-668.41 564.7,-671.44"/>
<polygon fill="midnightblue" stroke="midnightblue" points="446.74,-623.07 436.19,-622.08 443.82,-629.43 446.74,-623.07"/>
</g>
<!-- Node6 -->
<g id="node6" class="node">
<title>Node6</title>
<g id="a_node6"><a xlink:href="classQuantConnect_1_1Data_1_1Custom_1_1IconicTypes_1_1LinkedData.html" target="_top" xlink:title="Data source that is linked (tickers that can have renames or be delisted)">
<polygon fill="white" stroke="black" points="551,-622.5 551,-652.5 706,-652.5 706,-622.5 551,-622.5"/>
<text text-anchor="start" x="559" y="-640.5" font-family="Helvetica,sans-Serif" font-size="10.00">QuantConnect.Data.Custom.</text>
<text text-anchor="middle" x="628.5" y="-629.5" font-family="Helvetica,sans-Serif" font-size="10.00">IconicTypes.LinkedData</text>
</a>
</g>
</g>
<!-- Node3&#45;&gt;Node6 -->
<g id="edge5" class="edge">
<title>Node3&#45;&gt;Node6</title>
<path fill="none" stroke="midnightblue" d="M506.41,-623.19C521.19,-624.93 536.38,-626.73 550.79,-628.43"/>
<polygon fill="midnightblue" stroke="midnightblue" points="506.6,-619.69 496.26,-621.99 505.78,-626.64 506.6,-619.69"/>
</g>
<!-- Node7 -->
<g id="node7" class="node">
<title>Node7</title>
<g id="a_node7"><a xlink:href="classQuantConnect_1_1Data_1_1Custom_1_1IconicTypes_1_1UnlinkedData.html" target="_top" xlink:title="Data source that is unlinked (no mapping) and takes any ticker when calling AddData">
<polygon fill="white" stroke="black" points="551,-573.5 551,-603.5 706,-603.5 706,-573.5 551,-573.5"/>
<text text-anchor="start" x="559" y="-591.5" font-family="Helvetica,sans-Serif" font-size="10.00">QuantConnect.Data.Custom.</text>
<text text-anchor="middle" x="628.5" y="-580.5" font-family="Helvetica,sans-Serif" font-size="10.00">IconicTypes.UnlinkedData</text>
</a>
</g>
</g>
<!-- Node3&#45;&gt;Node7 -->
<g id="edge6" class="edge">
<title>Node3&#45;&gt;Node7</title>
<path fill="none" stroke="midnightblue" d="M506.41,-602.24C521.19,-600.56 536.38,-598.84 550.79,-597.21"/>
<polygon fill="midnightblue" stroke="midnightblue" points="505.8,-598.79 496.26,-603.39 506.59,-605.74 505.8,-598.79"/>
</g>
<!-- Node8 -->
<g id="node8" class="node">
<title>Node8</title>
<g id="a_node8"><a xlink:href="classQuantConnect_1_1Data_1_1Custom_1_1Intrinio_1_1IntrinioEconomicData.html" target="_top" xlink:title="Access the massive repository of economic data from the Federal Reserve Economic Data system via the ...">
<polygon fill="white" stroke="black" points="549,-524.5 549,-554.5 708,-554.5 708,-524.5 549,-524.5"/>
<text text-anchor="start" x="557" y="-542.5" font-family="Helvetica,sans-Serif" font-size="10.00">QuantConnect.Data.Custom.</text>
<text text-anchor="middle" x="628.5" y="-531.5" font-family="Helvetica,sans-Serif" font-size="10.00">Intrinio.IntrinioEconomicData</text>
</a>
</g>
</g>
<!-- Node3&#45;&gt;Node8 -->
<g id="edge7" class="edge">
<title>Node3&#45;&gt;Node8</title>
<path fill="none" stroke="midnightblue" d="M445.44,-598.58C468.6,-587.99 501.89,-573.58 532,-563.5 541.65,-560.27 551.97,-557.25 562.13,-554.51"/>
<polygon fill="midnightblue" stroke="midnightblue" points="443.78,-595.49 436.17,-602.86 446.72,-601.85 443.78,-595.49"/>
</g>
<!-- Node9 -->
<g id="node9" class="node">
<title>Node9</title>
<g id="a_node9"><a xlink:href="classQuantConnect_1_1Data_1_1DynamicData.html" target="_top" xlink:title="Dynamic Data Class: Accept flexible data, adapting to the columns provided by source.">
<polygon fill="white" stroke="black" points="537.5,-486 537.5,-505 719.5,-505 719.5,-486 537.5,-486"/>
<text text-anchor="middle" x="628.5" y="-493" font-family="Helvetica,sans-Serif" font-size="10.00">QuantConnect.Data.DynamicData</text>
</a>
</g>
</g>
<!-- Node3&#45;&gt;Node9 -->
<g id="edge8" class="edge">
<title>Node3&#45;&gt;Node9</title>
<path fill="none" stroke="midnightblue" d="M431.12,-595.17C451.63,-572.83 490.51,-534.49 532,-514.5 540.07,-510.61 548.89,-507.52 557.81,-505.06"/>
<polygon fill="midnightblue" stroke="midnightblue" points="428.27,-593.1 424.19,-602.88 433.48,-597.78 428.27,-593.1"/>
</g>
<!-- Node12 -->
<g id="node12" class="node">
<title>Node12</title>
<g id="a_node12"><a xlink:href="classQuantConnect_1_1Data_1_1IndexedBaseData.html" target="_top" xlink:title="Abstract indexed base data class of QuantConnect. It is intended to be extended to define customizabl...">
<polygon fill="white" stroke="black" points="552,-436.5 552,-466.5 705,-466.5 705,-436.5 552,-436.5"/>
<text text-anchor="start" x="560" y="-454.5" font-family="Helvetica,sans-Serif" font-size="10.00">QuantConnect.Data.Indexed</text>
<text text-anchor="middle" x="628.5" y="-443.5" font-family="Helvetica,sans-Serif" font-size="10.00">BaseData</text>
</a>
</g>
</g>
<!-- Node3&#45;&gt;Node12 -->
<g id="edge11" class="edge">
<title>Node3&#45;&gt;Node12</title>
<path fill="none" stroke="midnightblue" d="M426.57,-594C444.41,-564.5 483.35,-507.02 532,-476.5 538.1,-472.67 544.76,-469.43 551.65,-466.68"/>
<polygon fill="midnightblue" stroke="midnightblue" points="423.42,-592.46 421.35,-602.85 429.45,-596.02 423.42,-592.46"/>
</g>
<!-- Node15 -->
<g id="node15" class="node">
<title>Node15</title>
<g id="a_node15"><a xlink:href="classQuantConnect_1_1Data_1_1Market_1_1Delisting.html" target="_top" xlink:title="Delisting event of a security">
<polygon fill="white" stroke="black" points="552.5,-387.5 552.5,-417.5 704.5,-417.5 704.5,-387.5 552.5,-387.5"/>
<text text-anchor="start" x="560.5" y="-405.5" font-family="Helvetica,sans-Serif" font-size="10.00">QuantConnect.Data.Market.</text>
<text text-anchor="middle" x="628.5" y="-394.5" font-family="Helvetica,sans-Serif" font-size="10.00">Delisting</text>
</a>
</g>
</g>
<!-- Node3&#45;&gt;Node15 -->
<g id="edge14" class="edge">
<title>Node3&#45;&gt;Node15</title>
<path fill="none" stroke="midnightblue" d="M422.45,-593.16C436.2,-555.05 472.09,-470.15 532,-426.5 538.22,-421.97 545.2,-418.29 552.49,-415.3"/>
<polygon fill="midnightblue" stroke="midnightblue" points="419.01,-592.4 419.03,-603 425.62,-594.7 419.01,-592.4"/>
</g>
<!-- Node16 -->
<g id="node16" class="node">
<title>Node16</title>
<g id="a_node16"><a xlink:href="classQuantConnect_1_1Data_1_1Market_1_1Dividend.html" target="_top" xlink:title="Dividend event from a security">
<polygon fill="white" stroke="black" points="552.5,-338.5 552.5,-368.5 704.5,-368.5 704.5,-338.5 552.5,-338.5"/>
<text text-anchor="start" x="560.5" y="-356.5" font-family="Helvetica,sans-Serif" font-size="10.00">QuantConnect.Data.Market.</text>
<text text-anchor="middle" x="628.5" y="-345.5" font-family="Helvetica,sans-Serif" font-size="10.00">Dividend</text>
</a>
</g>
</g>
<!-- Node3&#45;&gt;Node16 -->
<g id="edge15" class="edge">
<title>Node3&#45;&gt;Node16</title>
<path fill="none" stroke="midnightblue" d="M419.91,-592.55C429.93,-547.02 460.86,-434.94 532,-377.5 538.12,-372.56 545.12,-368.62 552.49,-365.48"/>
<polygon fill="midnightblue" stroke="midnightblue" points="416.43,-592.12 417.81,-602.62 423.28,-593.55 416.43,-592.12"/>
</g>
<!-- Node17 -->
<g id="node17" class="node">
<title>Node17</title>
<g id="a_node17"><a xlink:href="classQuantConnect_1_1Data_1_1Market_1_1FuturesChain.html" target="_top" xlink:title="Represents an entire chain of futures contracts for a single underlying This type is IEnumerable&lt;Futu...">
<polygon fill="white" stroke="black" points="552.5,-289.5 552.5,-319.5 704.5,-319.5 704.5,-289.5 552.5,-289.5"/>
<text text-anchor="start" x="560.5" y="-307.5" font-family="Helvetica,sans-Serif" font-size="10.00">QuantConnect.Data.Market.</text>
<text text-anchor="middle" x="628.5" y="-296.5" font-family="Helvetica,sans-Serif" font-size="10.00">FuturesChain</text>
</a>
</g>
</g>
<!-- Node3&#45;&gt;Node17 -->
<g id="edge16" class="edge">
<title>Node3&#45;&gt;Node17</title>
<path fill="none" stroke="midnightblue" d="M418.03,-592.75C424.42,-541.01 448.97,-400.54 532,-328.5 537.94,-323.35 544.83,-319.27 552.13,-316.05"/>
<polygon fill="midnightblue" stroke="midnightblue" points="414.52,-592.57 416.87,-602.9 421.48,-593.36 414.52,-592.57"/>
</g>
<!-- Node18 -->
<g id="node18" class="node">
<title>Node18</title>
<g id="a_node18"><a xlink:href="classQuantConnect_1_1Data_1_1Market_1_1MarginInterestRate.html" target="_top" xlink:title="Margin interest rate data source">
<polygon fill="white" stroke="black" points="552.5,-240.5 552.5,-270.5 704.5,-270.5 704.5,-240.5 552.5,-240.5"/>
<text text-anchor="start" x="560.5" y="-258.5" font-family="Helvetica,sans-Serif" font-size="10.00">QuantConnect.Data.Market.</text>
<text text-anchor="middle" x="628.5" y="-247.5" font-family="Helvetica,sans-Serif" font-size="10.00">MarginInterestRate</text>
</a>
</g>
</g>
<!-- Node3&#45;&gt;Node18 -->
<g id="edge17" class="edge">
<title>Node3&#45;&gt;Node18</title>
<path fill="none" stroke="midnightblue" d="M416.7,-592.54C419.85,-534.81 437.13,-366.29 532,-279.5 537.93,-274.08 544.9,-269.84 552.33,-266.53"/>
<polygon fill="midnightblue" stroke="midnightblue" points="413.19,-592.68 416.23,-602.83 420.18,-593 413.19,-592.68"/>
</g>
<!-- Node19 -->
<g id="node19" class="node">
<title>Node19</title>
<g id="a_node19"><a xlink:href="classQuantConnect_1_1Data_1_1Market_1_1OptionChain.html" target="_top" xlink:title="Represents an entire chain of option contracts for a single underying security. This type is IEnumera...">
<polygon fill="white" stroke="black" points="552.5,-191.5 552.5,-221.5 704.5,-221.5 704.5,-191.5 552.5,-191.5"/>
<text text-anchor="start" x="560.5" y="-209.5" font-family="Helvetica,sans-Serif" font-size="10.00">QuantConnect.Data.Market.</text>
<text text-anchor="middle" x="628.5" y="-198.5" font-family="Helvetica,sans-Serif" font-size="10.00">OptionChain</text>
</a>
</g>
</g>
<!-- Node3&#45;&gt;Node19 -->
<g id="edge18" class="edge">
<title>Node3&#45;&gt;Node19</title>
<path fill="none" stroke="midnightblue" d="M415.67,-592.61C415.77,-529.58 424.99,-332.43 532,-230.5 537.82,-224.96 544.72,-220.64 552.11,-217.29"/>
<polygon fill="midnightblue" stroke="midnightblue" points="412.17,-592.79 415.74,-602.76 419.17,-592.74 412.17,-592.79"/>
</g>
<!-- Node20 -->
<g id="node20" class="node">
<title>Node20</title>
<g id="a_node20"><a xlink:href="classQuantConnect_1_1Data_1_1Market_1_1QuoteBar.html" target="_top" xlink:title="QuoteBar class for second and minute resolution data: An OHLC implementation of the QuantConnect Base...">
<polygon fill="white" stroke="black" points="552.5,-93.5 552.5,-123.5 704.5,-123.5 704.5,-93.5 552.5,-93.5"/>
<text text-anchor="start" x="560.5" y="-111.5" font-family="Helvetica,sans-Serif" font-size="10.00">QuantConnect.Data.Market.</text>
<text text-anchor="middle" x="628.5" y="-100.5" font-family="Helvetica,sans-Serif" font-size="10.00">QuoteBar</text>
</a>
</g>
</g>
<!-- Node3&#45;&gt;Node20 -->
<g id="edge19" class="edge">
<title>Node3&#45;&gt;Node20</title>
<path fill="none" stroke="midnightblue" d="M418.1,-592.48C427.11,-510.31 465.14,-199.97 532,-132.5 537.78,-126.67 544.74,-122.18 552.25,-118.74"/>
<polygon fill="midnightblue" stroke="midnightblue" points="414.57,-592.58 416.98,-602.9 421.53,-593.33 414.57,-592.58"/>
</g>
<!-- Node21 -->
<g id="node21" class="node">
<title>Node21</title>
<g id="a_node21"><a xlink:href="classQuantConnect_1_1Data_1_1Market_1_1Split.html" target="_top" xlink:title="Split event from a security">
<polygon fill="white" stroke="black" points="552.5,-1151.5 552.5,-1181.5 704.5,-1181.5 704.5,-1151.5 552.5,-1151.5"/>
<text text-anchor="start" x="560.5" y="-1169.5" font-family="Helvetica,sans-Serif" font-size="10.00">QuantConnect.Data.Market.</text>
<text text-anchor="middle" x="628.5" y="-1158.5" font-family="Helvetica,sans-Serif" font-size="10.00">Split</text>
</a>
</g>
</g>
<!-- Node3&#45;&gt;Node21 -->
<g id="edge20" class="edge">
<title>Node3&#45;&gt;Node21</title>
<path fill="none" stroke="midnightblue" d="M417.59,-632.34C424.99,-719.45 458.73,-1066.95 532,-1142.5 537.71,-1148.39 544.64,-1152.92 552.13,-1156.38"/>
<polygon fill="midnightblue" stroke="midnightblue" points="421.07,-631.91 416.76,-622.23 414.09,-632.49 421.07,-631.91"/>
</g>
<!-- Node22 -->
<g id="node22" class="node">
<title>Node22</title>
<g id="a_node22"><a xlink:href="classQuantConnect_1_1Data_1_1Market_1_1SymbolChangedEvent.html" target="_top" xlink:title="Symbol changed event of a security. This is generated when a symbol is remapped for a given security,...">
<polygon fill="white" stroke="black" points="552.5,-1102.5 552.5,-1132.5 704.5,-1132.5 704.5,-1102.5 552.5,-1102.5"/>
<text text-anchor="start" x="560.5" y="-1120.5" font-family="Helvetica,sans-Serif" font-size="10.00">QuantConnect.Data.Market.</text>
<text text-anchor="middle" x="628.5" y="-1109.5" font-family="Helvetica,sans-Serif" font-size="10.00">SymbolChangedEvent</text>
</a>
</g>
</g>
<!-- Node3&#45;&gt;Node22 -->
<g id="edge21" class="edge">
<title>Node3&#45;&gt;Node22</title>
<path fill="none" stroke="midnightblue" d="M418.12,-632.5C427.2,-714.61 465.47,-1024.7 532,-1092.5 537.76,-1098.37 544.72,-1102.92 552.22,-1106.44"/>
<polygon fill="midnightblue" stroke="midnightblue" points="421.55,-631.66 416.99,-622.09 414.59,-632.41 421.55,-631.66"/>
</g>
<!-- Node23 -->
<g id="node23" class="node">
<title>Node23</title>
<g id="a_node23"><a xlink:href="classQuantConnect_1_1Data_1_1Market_1_1Tick.html" target="_top" xlink:title="Tick class is the base representation for tick data. It is grouped into a Ticks object which implemen...">
<polygon fill="white" stroke="black" points="542.5,-1064 542.5,-1083 714.5,-1083 714.5,-1064 542.5,-1064"/>
<text text-anchor="middle" x="628.5" y="-1071" font-family="Helvetica,sans-Serif" font-size="10.00">QuantConnect.Data.Market.Tick</text>
</a>
</g>
</g>
<!-- Node3&#45;&gt;Node23 -->
<g id="edge22" class="edge">
<title>Node3&#45;&gt;Node23</title>
<path fill="none" stroke="midnightblue" d="M418.44,-632.51C428.39,-710.74 468.4,-994.63 532,-1054.5 535.94,-1058.21 540.38,-1061.29 545.15,-1063.83"/>
<polygon fill="midnightblue" stroke="midnightblue" points="421.86,-631.63 417.15,-622.14 414.91,-632.5 421.86,-631.63"/>
</g>
<!-- Node25 -->
<g id="node25" class="node">
<title>Node25</title>
<g id="a_node25"><a xlink:href="classQuantConnect_1_1Data_1_1Market_1_1TradeBar.html" target="_top" xlink:title="TradeBar class for second and minute resolution data: An OHLC implementation of the QuantConnect Base...">
<polygon fill="white" stroke="black" points="552.5,-142.5 552.5,-172.5 704.5,-172.5 704.5,-142.5 552.5,-142.5"/>
<text text-anchor="start" x="560.5" y="-160.5" font-family="Helvetica,sans-Serif" font-size="10.00">QuantConnect.Data.Market.</text>
<text text-anchor="middle" x="628.5" y="-149.5" font-family="Helvetica,sans-Serif" font-size="10.00">TradeBar</text>
</a>
</g>
</g>
<!-- Node3&#45;&gt;Node25 -->
<g id="edge24" class="edge">
<title>Node3&#45;&gt;Node25</title>
<path fill="none" stroke="midnightblue" d="M418.67,-592.58C429.35,-515.92 471.3,-241.19 532,-181.5 537.85,-175.75 544.86,-171.31 552.4,-167.89"/>
<polygon fill="midnightblue" stroke="midnightblue" points="415.17,-592.38 417.28,-602.77 422.1,-593.33 415.17,-592.38"/>
</g>
<!-- Node33 -->
<g id="node33" class="node">
<title>Node33</title>
<g id="a_node33"><a xlink:href="classQuantConnect_1_1Data_1_1UniverseSelection_1_1BaseDataCollection.html" target="_top" xlink:title="This type exists for transport of data as a single packet">
<polygon fill="white" stroke="black" points="548,-1014.5 548,-1044.5 709,-1044.5 709,-1014.5 548,-1014.5"/>
<text text-anchor="start" x="556" y="-1032.5" font-family="Helvetica,sans-Serif" font-size="10.00">QuantConnect.Data.Universe</text>
<text text-anchor="middle" x="628.5" y="-1021.5" font-family="Helvetica,sans-Serif" font-size="10.00">Selection.BaseDataCollection</text>
</a>
</g>
</g>
<!-- Node3&#45;&gt;Node33 -->
<g id="edge32" class="edge">
<title>Node3&#45;&gt;Node33</title>
<path fill="none" stroke="midnightblue" d="M415.47,-632.52C414.93,-696.85 422.33,-900.22 532,-1005.5 536.69,-1010 542.09,-1013.69 547.88,-1016.72"/>
<polygon fill="midnightblue" stroke="midnightblue" points="418.98,-632.24 415.64,-622.18 411.98,-632.12 418.98,-632.24"/>
</g>
<!-- Node39 -->
<g id="node39" class="node">
<title>Node39</title>
<g id="a_node39"><a xlink:href="classQuantConnect_1_1Data_1_1UniverseSelection_1_1CoarseFundamental.html" target="_top" xlink:title="Defines summary information about a single symbol for a given date">
<polygon fill="white" stroke="black" points="547.5,-965.5 547.5,-995.5 709.5,-995.5 709.5,-965.5 547.5,-965.5"/>
<text text-anchor="start" x="555.5" y="-983.5" font-family="Helvetica,sans-Serif" font-size="10.00">QuantConnect.Data.Universe</text>
<text text-anchor="middle" x="628.5" y="-972.5" font-family="Helvetica,sans-Serif" font-size="10.00">Selection.CoarseFundamental</text>
</a>
</g>
</g>
<!-- Node3&#45;&gt;Node39 -->
<g id="edge38" class="edge">
<title>Node3&#45;&gt;Node39</title>
<path fill="none" stroke="midnightblue" d="M416.44,-632.34C418.87,-691.18 434.35,-866.28 532,-956.5 536.52,-960.68 541.66,-964.15 547.15,-967.04"/>
<polygon fill="midnightblue" stroke="midnightblue" points="419.93,-632.06 416.11,-622.18 412.94,-632.29 419.93,-632.06"/>
</g>
<!-- Node41 -->
<g id="node41" class="node">
<title>Node41</title>
<g id="a_node41"><a xlink:href="classQuantConnect_1_1Data_1_1UniverseSelection_1_1ConstituentsUniverseData.html" target="_top" xlink:title="Custom base data class used for ConstituentsUniverse">
<polygon fill="white" stroke="black" points="532,-916.5 532,-946.5 725,-946.5 725,-916.5 532,-916.5"/>
<text text-anchor="start" x="540" y="-934.5" font-family="Helvetica,sans-Serif" font-size="10.00">QuantConnect.Data.Universe</text>
<text text-anchor="middle" x="628.5" y="-923.5" font-family="Helvetica,sans-Serif" font-size="10.00">Selection.ConstituentsUniverseData</text>
</a>
</g>
</g>
<!-- Node3&#45;&gt;Node41 -->
<g id="edge40" class="edge">
<title>Node3&#45;&gt;Node41</title>
<path fill="none" stroke="midnightblue" d="M417.7,-632.3C423.34,-685.42 446.33,-832.18 532,-907.5 535.85,-910.89 540.11,-913.81 544.63,-916.33"/>
<polygon fill="midnightblue" stroke="midnightblue" points="421.16,-631.8 416.72,-622.18 414.2,-632.47 421.16,-631.8"/>
</g>
<!-- Node42 -->
<g id="node42" class="node">
<title>Node42</title>
<g id="a_node42"><a xlink:href="classQuantConnect_1_1DataSource_1_1NullData.html" target="_top" xlink:title="Represents a custom data type place holder">
<polygon fill="white" stroke="black" points="554.5,-867.5 554.5,-897.5 702.5,-897.5 702.5,-867.5 554.5,-867.5"/>
<text text-anchor="start" x="562.5" y="-885.5" font-family="Helvetica,sans-Serif" font-size="10.00">QuantConnect.DataSource.</text>
<text text-anchor="middle" x="628.5" y="-874.5" font-family="Helvetica,sans-Serif" font-size="10.00">NullData</text>
</a>
</g>
</g>
<!-- Node3&#45;&gt;Node42 -->
<g id="edge41" class="edge">
<title>Node3&#45;&gt;Node42</title>
<path fill="none" stroke="midnightblue" d="M419.37,-632.09C428.47,-678.86 458.04,-797.69 532,-858.5 538.6,-863.93 546.27,-868.15 554.33,-871.44"/>
<polygon fill="midnightblue" stroke="midnightblue" points="422.77,-631.26 417.52,-622.06 415.89,-632.53 422.77,-631.26"/>
</g>
<!-- Node43 -->
<g id="node43" class="node">
<title>Node43</title>
<g id="a_node43"><a xlink:href="classQuantConnect_1_1Indicators_1_1IndicatorDataPoint.html" target="_top" xlink:title="Represents a piece of data at a specific time">
<polygon fill="white" stroke="black" points="558.5,-818.5 558.5,-848.5 698.5,-848.5 698.5,-818.5 558.5,-818.5"/>
<text text-anchor="start" x="566.5" y="-836.5" font-family="Helvetica,sans-Serif" font-size="10.00">QuantConnect.Indicators.</text>
<text text-anchor="middle" x="628.5" y="-825.5" font-family="Helvetica,sans-Serif" font-size="10.00">IndicatorDataPoint</text>
</a>
</g>
</g>
<!-- Node3&#45;&gt;Node43 -->
<g id="edge42" class="edge">
<title>Node3&#45;&gt;Node43</title>
<path fill="none" stroke="midnightblue" d="M421.76,-631.89C434.62,-671.69 469.55,-762.77 532,-809.5 539.8,-815.34 548.86,-819.77 558.24,-823.12"/>
<polygon fill="midnightblue" stroke="midnightblue" points="425.03,-630.61 418.72,-622.11 418.35,-632.69 425.03,-630.61"/>
</g>
<!-- Node44 -->
<g id="node44" class="node">
<title>Node44</title>
<g id="a_node44"><a xlink:href="classQuantConnect_1_1Indicators_1_1PivotPoint.html" target="_top" xlink:title="Represents the points identified by Pivot Point High/Low Indicator.">
<polygon fill="white" stroke="black" points="558.5,-769.5 558.5,-799.5 698.5,-799.5 698.5,-769.5 558.5,-769.5"/>
<text text-anchor="start" x="566.5" y="-787.5" font-family="Helvetica,sans-Serif" font-size="10.00">QuantConnect.Indicators.</text>
<text text-anchor="middle" x="628.5" y="-776.5" font-family="Helvetica,sans-Serif" font-size="10.00">PivotPoint</text>
</a>
</g>
</g>
<!-- Node3&#45;&gt;Node44 -->
<g id="edge43" class="edge">
<title>Node3&#45;&gt;Node44</title>
<path fill="none" stroke="midnightblue" d="M425.4,-631.36C442.23,-663.13 480.62,-727.12 532,-760.5 540.03,-765.72 549.11,-769.8 558.41,-772.99"/>
<polygon fill="midnightblue" stroke="midnightblue" points="428.39,-629.54 420.7,-622.26 422.17,-632.75 428.39,-629.54"/>
</g>
<!-- Node10 -->
<g id="node10" class="node">
<title>Node10</title>
<g id="a_node10"><a xlink:href="classQuantConnect_1_1Indicators_1_1IndicatorDataPoints.html" target="_top" xlink:title="Collection of indicator data points for a given time">
<polygon fill="white" stroke="black" points="786,-524.5 786,-554.5 926,-554.5 926,-524.5 786,-524.5"/>
<text text-anchor="start" x="794" y="-542.5" font-family="Helvetica,sans-Serif" font-size="10.00">QuantConnect.Indicators.</text>
<text text-anchor="middle" x="856" y="-531.5" font-family="Helvetica,sans-Serif" font-size="10.00">IndicatorDataPoints</text>
</a>
</g>
</g>
<!-- Node9&#45;&gt;Node10 -->
<g id="edge9" class="edge">
<title>Node9&#45;&gt;Node10</title>
<path fill="none" stroke="midnightblue" d="M688.27,-506.97C718.07,-512.78 754.46,-519.88 785.63,-525.96"/>
<polygon fill="midnightblue" stroke="midnightblue" points="688.92,-503.53 678.43,-505.05 687.57,-510.4 688.92,-503.53"/>
</g>
<!-- Node11 -->
<g id="node11" class="node">
<title>Node11</title>
<g id="a_node11"><a xlink:href="classQuantConnect_1_1Python_1_1PythonData.html" target="_top" xlink:title="Dynamic data class for Python algorithms. Stores properties of python instances in DynamicData dictio...">
<polygon fill="white" stroke="black" points="765,-486 765,-505 947,-505 947,-486 765,-486"/>
<text text-anchor="middle" x="856" y="-493" font-family="Helvetica,sans-Serif" font-size="10.00">QuantConnect.Python.PythonData</text>
</a>
</g>
</g>
<!-- Node9&#45;&gt;Node11 -->
<g id="edge10" class="edge">
<title>Node9&#45;&gt;Node11</title>
<path fill="none" stroke="midnightblue" d="M729.76,-495.5C741.39,-495.5 753.19,-495.5 764.68,-495.5"/>
<polygon fill="midnightblue" stroke="midnightblue" points="729.6,-492 719.6,-495.5 729.6,-499 729.6,-492"/>
</g>
<!-- Node13 -->
<g id="node13" class="node">
<title>Node13</title>
<g id="a_node13"><a xlink:href="classQuantConnect_1_1Data_1_1Custom_1_1IconicTypes_1_1IndexedLinkedData.html" target="_top" xlink:title="Data type that is indexed, i.e. a file that points to another file containing the contents we&#39;re look...">
<polygon fill="white" stroke="black" points="771.5,-436.5 771.5,-466.5 940.5,-466.5 940.5,-436.5 771.5,-436.5"/>
<text text-anchor="start" x="779.5" y="-454.5" font-family="Helvetica,sans-Serif" font-size="10.00">QuantConnect.Data.Custom.</text>
<text text-anchor="middle" x="856" y="-443.5" font-family="Helvetica,sans-Serif" font-size="10.00">IconicTypes.IndexedLinkedData</text>
</a>
</g>
</g>
<!-- Node12&#45;&gt;Node13 -->
<g id="edge12" class="edge">
<title>Node12&#45;&gt;Node13</title>
<path fill="none" stroke="midnightblue" d="M715.3,-451.5C733.67,-451.5 753.05,-451.5 771.34,-451.5"/>
<polygon fill="midnightblue" stroke="midnightblue" points="715.22,-448 705.22,-451.5 715.22,-455 715.22,-448"/>
</g>
<!-- Node14 -->
<g id="node14" class="node">
<title>Node14</title>
<g id="a_node14"><a xlink:href="classQuantConnect_1_1Data_1_1Custom_1_1IconicTypes_1_1IndexedLinkedData2.html" target="_top" xlink:title="Data type that is indexed, i.e. a file that points to another file containing the contents we&#39;re look...">
<polygon fill="white" stroke="black" points="768.5,-387.5 768.5,-417.5 943.5,-417.5 943.5,-387.5 768.5,-387.5"/>
<text text-anchor="start" x="776.5" y="-405.5" font-family="Helvetica,sans-Serif" font-size="10.00">QuantConnect.Data.Custom.</text>
<text text-anchor="middle" x="856" y="-394.5" font-family="Helvetica,sans-Serif" font-size="10.00">IconicTypes.IndexedLinkedData2</text>
</a>
</g>
</g>
<!-- Node12&#45;&gt;Node14 -->
<g id="edge13" class="edge">
<title>Node12&#45;&gt;Node14</title>
<path fill="none" stroke="midnightblue" d="M708.59,-434.31C733.8,-428.84 761.49,-422.82 785.94,-417.51"/>
<polygon fill="midnightblue" stroke="midnightblue" points="707.72,-430.92 698.69,-436.47 709.21,-437.76 707.72,-430.92"/>
</g>
<!-- Node24 -->
<g id="node24" class="node">
<title>Node24</title>
<g id="a_node24"><a xlink:href="classQuantConnect_1_1Data_1_1Market_1_1OpenInterest.html" target="_top" xlink:title="Defines a data type that represents open interest for given security">
<polygon fill="white" stroke="black" points="780,-1112.5 780,-1142.5 932,-1142.5 932,-1112.5 780,-1112.5"/>
<text text-anchor="start" x="788" y="-1130.5" font-family="Helvetica,sans-Serif" font-size="10.00">QuantConnect.Data.Market.</text>
<text text-anchor="middle" x="856" y="-1119.5" font-family="Helvetica,sans-Serif" font-size="10.00">OpenInterest</text>
</a>
</g>
</g>
<!-- Node23&#45;&gt;Node24 -->
<g id="edge23" class="edge">
<title>Node23&#45;&gt;Node24</title>
<path fill="none" stroke="midnightblue" d="M688.28,-1085.19C700.45,-1087.78 713.17,-1090.62 725,-1093.5 741.14,-1097.43 744.95,-1099.22 761,-1103.5 772.07,-1106.45 783.89,-1109.53 795.28,-1112.45"/>
<polygon fill="midnightblue" stroke="midnightblue" points="688.73,-1081.7 678.22,-1083.07 687.29,-1088.55 688.73,-1081.7"/>
</g>
<!-- Node26 -->
<g id="node26" class="node">
<title>Node26</title>
<g id="a_node26"><a xlink:href="classQuantConnect_1_1Data_1_1Custom_1_1IconicTypes_1_1UnlinkedDataTradeBar.html" target="_top" xlink:title="Data source that is unlinked (no mapping) and takes any ticker when calling AddData">
<polygon fill="white" stroke="black" points="763.5,-147.5 763.5,-177.5 948.5,-177.5 948.5,-147.5 763.5,-147.5"/>
<text text-anchor="start" x="771.5" y="-165.5" font-family="Helvetica,sans-Serif" font-size="10.00">QuantConnect.Data.Custom.</text>
<text text-anchor="middle" x="856" y="-154.5" font-family="Helvetica,sans-Serif" font-size="10.00">IconicTypes.UnlinkedDataTradeBar</text>
</a>
</g>
</g>
<!-- Node25&#45;&gt;Node26 -->
<g id="edge25" class="edge">
<title>Node25&#45;&gt;Node26</title>
<path fill="none" stroke="midnightblue" d="M714.88,-159.39C730.73,-159.74 747.35,-160.11 763.38,-160.47"/>
<polygon fill="midnightblue" stroke="midnightblue" points="714.66,-155.89 704.59,-159.16 714.51,-162.89 714.66,-155.89"/>
</g>
<!-- Node27 -->
<g id="node27" class="node">
<title>Node27</title>
<g id="a_node27"><a xlink:href="classQuantConnect_1_1Data_1_1Custom_1_1Tiingo_1_1TiingoPrice.html" target="_top" xlink:title="Tiingo daily price data https://api.tiingo.com/docs/tiingo/daily">
<polygon fill="white" stroke="black" points="778.5,-98.5 778.5,-128.5 933.5,-128.5 933.5,-98.5 778.5,-98.5"/>
<text text-anchor="start" x="786.5" y="-116.5" font-family="Helvetica,sans-Serif" font-size="10.00">QuantConnect.Data.Custom.</text>
<text text-anchor="middle" x="856" y="-105.5" font-family="Helvetica,sans-Serif" font-size="10.00">Tiingo.TiingoPrice</text>
</a>
</g>
</g>
<!-- Node25&#45;&gt;Node27 -->
<g id="edge26" class="edge">
<title>Node25&#45;&gt;Node27</title>
<path fill="none" stroke="midnightblue" d="M714.44,-140.93C735.41,-136.83 757.76,-132.47 778.31,-128.46"/>
<polygon fill="midnightblue" stroke="midnightblue" points="713.73,-137.5 704.59,-142.85 715.07,-144.37 713.73,-137.5"/>
</g>
<!-- Node29 -->
<g id="node29" class="node">
<title>Node29</title>
<g id="a_node29"><a xlink:href="classQuantConnect_1_1Data_1_1Market_1_1BaseRenkoBar.html" target="_top" xlink:title="Represents a bar sectioned not by time, but by some amount of movement in a set field,...">
<polygon fill="white" stroke="black" points="780,-49.5 780,-79.5 932,-79.5 932,-49.5 780,-49.5"/>
<text text-anchor="start" x="788" y="-67.5" font-family="Helvetica,sans-Serif" font-size="10.00">QuantConnect.Data.Market.</text>
<text text-anchor="middle" x="856" y="-56.5" font-family="Helvetica,sans-Serif" font-size="10.00">BaseRenkoBar</text>
</a>
</g>
</g>
<!-- Node25&#45;&gt;Node29 -->
<g id="edge28" class="edge">
<title>Node25&#45;&gt;Node29</title>
<path fill="none" stroke="midnightblue" d="M714.34,-138.48C718.03,-136.66 721.61,-134.68 725,-132.5 746.26,-118.85 739.69,-102.08 761,-88.5 766.82,-84.79 773.19,-81.65 779.78,-79"/>
<polygon fill="midnightblue" stroke="midnightblue" points="712.66,-135.39 704.94,-142.65 715.5,-141.79 712.66,-135.39"/>
</g>
<!-- Node32 -->
<g id="node32" class="node">
<title>Node32</title>
<g id="a_node32"><a xlink:href="classQuantConnect_1_1Data_1_1Market_1_1RangeBar.html" target="_top" xlink:title="Represents a bar sectioned not by time, but by some amount of movement in a value (for example,...">
<polygon fill="white" stroke="black" points="780,-196.5 780,-226.5 932,-226.5 932,-196.5 780,-196.5"/>
<text text-anchor="start" x="788" y="-214.5" font-family="Helvetica,sans-Serif" font-size="10.00">QuantConnect.Data.Market.</text>
<text text-anchor="middle" x="856" y="-203.5" font-family="Helvetica,sans-Serif" font-size="10.00">RangeBar</text>
</a>
</g>
</g>
<!-- Node25&#45;&gt;Node32 -->
<g id="edge31" class="edge">
<title>Node25&#45;&gt;Node32</title>
<path fill="none" stroke="midnightblue" d="M702.37,-174.95C731.3,-181.88 764.26,-189.77 792.13,-196.45"/>
<polygon fill="midnightblue" stroke="midnightblue" points="702.85,-171.47 692.31,-172.54 701.22,-178.27 702.85,-171.47"/>
</g>
<!-- Node28 -->
<g id="node28" class="node">
<title>Node28</title>
<g id="a_node28"><a xlink:href="classQuantConnect_1_1Data_1_1Custom_1_1Tiingo_1_1TiingoDailyData.html" target="_top" xlink:title="Tiingo daily price data https://api.tiingo.com/docs/tiingo/daily">
<polygon fill="white" stroke="black" points="1000.5,-98.5 1000.5,-128.5 1155.5,-128.5 1155.5,-98.5 1000.5,-98.5"/>
<text text-anchor="start" x="1008.5" y="-116.5" font-family="Helvetica,sans-Serif" font-size="10.00">QuantConnect.Data.Custom.</text>
<text text-anchor="middle" x="1078" y="-105.5" font-family="Helvetica,sans-Serif" font-size="10.00">Tiingo.TiingoDailyData</text>
</a>
</g>
</g>
<!-- Node27&#45;&gt;Node28 -->
<g id="edge27" class="edge">
<title>Node27&#45;&gt;Node28</title>
<path fill="none" stroke="midnightblue" d="M943.87,-113.5C962.5,-113.5 982.06,-113.5 1000.27,-113.5"/>
<polygon fill="midnightblue" stroke="midnightblue" points="943.64,-110 933.64,-113.5 943.64,-117 943.64,-110"/>
</g>
<!-- Node30 -->
<g id="node30" class="node">
<title>Node30</title>
<g id="a_node30"><a xlink:href="classQuantConnect_1_1Data_1_1Market_1_1RenkoBar.html" target="_top" xlink:title="Represents a bar sectioned not by time, but by some amount of movement in a value (for example,...">
<polygon fill="white" stroke="black" points="1002,-0.5 1002,-30.5 1154,-30.5 1154,-0.5 1002,-0.5"/>
<text text-anchor="start" x="1010" y="-18.5" font-family="Helvetica,sans-Serif" font-size="10.00">QuantConnect.Data.Market.</text>
<text text-anchor="middle" x="1078" y="-7.5" font-family="Helvetica,sans-Serif" font-size="10.00">RenkoBar</text>
</a>
</g>
</g>
<!-- Node29&#45;&gt;Node30 -->
<g id="edge29" class="edge">
<title>Node29&#45;&gt;Node30</title>
<path fill="none" stroke="midnightblue" d="M934.49,-47.24C959,-41.78 985.88,-35.79 1009.63,-30.51"/>
<polygon fill="midnightblue" stroke="midnightblue" points="933.5,-43.88 924.5,-49.47 935.02,-50.71 933.5,-43.88"/>
</g>
<!-- Node31 -->
<g id="node31" class="node">
<title>Node31</title>
<g id="a_node31"><a xlink:href="classQuantConnect_1_1Data_1_1Market_1_1VolumeRenkoBar.html" target="_top" xlink:title="Represents a bar sectioned not by time, but by some amount of movement in volume">
<polygon fill="white" stroke="black" points="1002,-49.5 1002,-79.5 1154,-79.5 1154,-49.5 1002,-49.5"/>
<text text-anchor="start" x="1010" y="-67.5" font-family="Helvetica,sans-Serif" font-size="10.00">QuantConnect.Data.Market.</text>
<text text-anchor="middle" x="1078" y="-56.5" font-family="Helvetica,sans-Serif" font-size="10.00">VolumeRenkoBar</text>
</a>
</g>
</g>
<!-- Node29&#45;&gt;Node31 -->
<g id="edge30" class="edge">
<title>Node29&#45;&gt;Node31</title>
<path fill="none" stroke="midnightblue" d="M942.26,-64.5C961.91,-64.5 982.68,-64.5 1001.87,-64.5"/>
<polygon fill="midnightblue" stroke="midnightblue" points="942.1,-61 932.1,-64.5 942.1,-68 942.1,-61"/>
</g>
<!-- Node34 -->
<g id="node34" class="node">
<title>Node34</title>
<g id="a_node34"><a xlink:href="classQuantConnect_1_1Data_1_1Fundamental_1_1FundamentalUniverse.html" target="_top" xlink:title="Lean fundamentals universe data class">
<polygon fill="white" stroke="black" points="765,-965.5 765,-995.5 947,-995.5 947,-965.5 765,-965.5"/>
<text text-anchor="start" x="773" y="-983.5" font-family="Helvetica,sans-Serif" font-size="10.00">QuantConnect.Data.Fundamental.</text>
<text text-anchor="middle" x="856" y="-972.5" font-family="Helvetica,sans-Serif" font-size="10.00">FundamentalUniverse</text>
</a>
</g>
</g>
<!-- Node33&#45;&gt;Node34 -->
<g id="edge33" class="edge">
<title>Node33&#45;&gt;Node34</title>
<path fill="none" stroke="midnightblue" d="M708.59,-1012.31C733.8,-1006.84 761.49,-1000.82 785.94,-995.51"/>
<polygon fill="midnightblue" stroke="midnightblue" points="707.72,-1008.92 698.69,-1014.47 709.21,-1015.76 707.72,-1008.92"/>
</g>
<!-- Node36 -->
<g id="node36" class="node">
<title>Node36</title>
<g id="a_node36"><a xlink:href="classQuantConnect_1_1Data_1_1UniverseSelection_1_1ETFConstituentUniverse.html" target="_top" xlink:title="ETF constituent data">
<polygon fill="white" stroke="black" points="765,-1063.5 765,-1093.5 947,-1093.5 947,-1063.5 765,-1063.5"/>
<text text-anchor="start" x="773" y="-1081.5" font-family="Helvetica,sans-Serif" font-size="10.00">QuantConnect.Data.Universe</text>
<text text-anchor="middle" x="856" y="-1070.5" font-family="Helvetica,sans-Serif" font-size="10.00">Selection.ETFConstituentUniverse</text>
</a>
</g>
</g>
<!-- Node33&#45;&gt;Node36 -->
<g id="edge35" class="edge">
<title>Node33&#45;&gt;Node36</title>
<path fill="none" stroke="midnightblue" d="M708.59,-1046.69C733.8,-1052.16 761.49,-1058.18 785.94,-1063.49"/>
<polygon fill="midnightblue" stroke="midnightblue" points="709.21,-1043.24 698.69,-1044.53 707.72,-1050.08 709.21,-1043.24"/>
</g>
<!-- Node38 -->
<g id="node38" class="node">
<title>Node38</title>
<g id="a_node38"><a xlink:href="classQuantConnect_1_1Data_1_1UniverseSelection_1_1OptionUniverse.html" target="_top" xlink:title="Represents a universe of options data">
<polygon fill="white" stroke="black" points="777,-1014.5 777,-1044.5 935,-1044.5 935,-1014.5 777,-1014.5"/>
<text text-anchor="start" x="785" y="-1032.5" font-family="Helvetica,sans-Serif" font-size="10.00">QuantConnect.Data.Universe</text>
<text text-anchor="middle" x="856" y="-1021.5" font-family="Helvetica,sans-Serif" font-size="10.00">Selection.OptionUniverse</text>
</a>
</g>
</g>
<!-- Node33&#45;&gt;Node38 -->
<g id="edge37" class="edge">
<title>Node33&#45;&gt;Node38</title>
<path fill="none" stroke="midnightblue" d="M719.2,-1029.5C738.31,-1029.5 758.34,-1029.5 776.97,-1029.5"/>
<polygon fill="midnightblue" stroke="midnightblue" points="719,-1026 709,-1029.5 719,-1033 719,-1026"/>
</g>
<!-- Node35 -->
<g id="node35" class="node">
<title>Node35</title>
<g id="a_node35"><a xlink:href="classQuantConnect_1_1Data_1_1Fundamental_1_1Fundamentals.html" target="_top" xlink:title="Lean fundamentals universe data class">
<polygon fill="white" stroke="black" points="987,-965.5 987,-995.5 1169,-995.5 1169,-965.5 987,-965.5"/>
<text text-anchor="start" x="995" y="-983.5" font-family="Helvetica,sans-Serif" font-size="10.00">QuantConnect.Data.Fundamental.</text>
<text text-anchor="middle" x="1078" y="-972.5" font-family="Helvetica,sans-Serif" font-size="10.00">Fundamentals</text>
</a>
</g>
</g>
<!-- Node34&#45;&gt;Node35 -->
<g id="edge34" class="edge">
<title>Node34&#45;&gt;Node35</title>
<path fill="none" stroke="midnightblue" d="M957.28,-980.5C967.07,-980.5 976.98,-980.5 986.67,-980.5"/>
<polygon fill="midnightblue" stroke="midnightblue" points="957.12,-977 947.12,-980.5 957.12,-984 957.12,-977"/>
</g>
<!-- Node37 -->
<g id="node37" class="node">
<title>Node37</title>
<g id="a_node37"><a xlink:href="classQuantConnect_1_1Data_1_1UniverseSelection_1_1ETFConstituentData.html" target="_top" xlink:title="ETF Constituent data">
<polygon fill="white" stroke="black" points="997,-1063.5 997,-1093.5 1159,-1093.5 1159,-1063.5 997,-1063.5"/>
<text text-anchor="start" x="1005" y="-1081.5" font-family="Helvetica,sans-Serif" font-size="10.00">QuantConnect.Data.Universe</text>
<text text-anchor="middle" x="1078" y="-1070.5" font-family="Helvetica,sans-Serif" font-size="10.00">Selection.ETFConstituentData</text>
</a>
</g>
</g>
<!-- Node36&#45;&gt;Node37 -->
<g id="edge36" class="edge">
<title>Node36&#45;&gt;Node37</title>
<path fill="none" stroke="midnightblue" d="M957.23,-1078.5C970.52,-1078.5 984.01,-1078.5 996.9,-1078.5"/>
<polygon fill="midnightblue" stroke="midnightblue" points="957.12,-1075 947.12,-1078.5 957.12,-1082 957.12,-1075"/>
</g>
<!-- Node40 -->
<g id="node40" class="node">
<title>Node40</title>
<g id="a_node40"><a xlink:href="classQuantConnect_1_1Data_1_1UniverseSelection_1_1CoarseFundamentalDataProvider_1_1CoarseFundamentalSource.html" target="_top" xlink:title="Coarse fundamental with setters">
<polygon fill="white" stroke="black" points="761,-905 761,-946 951,-946 951,-905 761,-905"/>
<text text-anchor="start" x="769" y="-934" font-family="Helvetica,sans-Serif" font-size="10.00">QuantConnect.Data.Universe</text>
<text text-anchor="start" x="769" y="-923" font-family="Helvetica,sans-Serif" font-size="10.00">Selection.CoarseFundamentalData</text>
<text text-anchor="middle" x="856" y="-912" font-family="Helvetica,sans-Serif" font-size="10.00">Provider.CoarseFundamentalSource</text>
</a>
</g>
</g>
<!-- Node39&#45;&gt;Node40 -->
<g id="edge39" class="edge">
<title>Node39&#45;&gt;Node40</title>
<path fill="none" stroke="midnightblue" d="M701.09,-963.04C723.19,-957.65 747.75,-951.66 770.63,-946.08"/>
<polygon fill="midnightblue" stroke="midnightblue" points="700,-959.7 691.12,-965.47 701.66,-966.5 700,-959.7"/>
</g>
<!-- Node45&#45;&gt;Node20 -->
<g id="edge46" class="edge">
<title>Node45&#45;&gt;Node20</title>
<path fill="none" stroke="midnightblue" d="M501.51,-123.39C518.3,-121.41 535.8,-119.34 552.22,-117.4"/>
<polygon fill="midnightblue" stroke="midnightblue" points="500.68,-119.97 491.16,-124.62 501.5,-126.92 500.68,-119.97"/>
</g>
<!-- Node45&#45;&gt;Node25 -->
<g id="edge47" class="edge">
<title>Node45&#45;&gt;Node25</title>
<path fill="none" stroke="midnightblue" d="M501.51,-143.2C518.3,-145.11 535.8,-147.09 552.22,-148.96"/>
<polygon fill="midnightblue" stroke="midnightblue" points="501.49,-139.68 491.16,-142.03 500.7,-146.63 501.49,-139.68"/>
</g>
<!-- Node45&#45;&gt;Node29 -->
<g id="edge45" class="edge">
<title>Node45&#45;&gt;Node29</title>
<path fill="none" stroke="midnightblue" d="M452.74,-113.74C475.01,-102.77 504.37,-90.05 532,-83.5 615.22,-63.76 713.7,-60.78 779.85,-61.61"/>
<polygon fill="midnightblue" stroke="midnightblue" points="451.01,-110.69 443.65,-118.31 454.16,-116.94 451.01,-110.69"/>
</g>
</g>
</svg>
