<?xml version="1.0" encoding="UTF-8" standalone="no"?>
<!DOCTYPE svg PUBLIC "-//W3C//DTD SVG 1.1//EN"
 "http://www.w3.org/Graphics/SVG/1.1/DTD/svg11.dtd">
<!-- Generated by graphviz version 2.43.0 (0)
 -->
<!-- Title: QuantConnect.Data.IDataAggregator.Initialize Pages: 1 -->
<svg width="434pt" height="39pt"
 viewBox="0.00 0.00 434.00 39.00" xmlns="http://www.w3.org/2000/svg" xmlns:xlink="http://www.w3.org/1999/xlink">
<g id="graph0" class="graph" transform="scale(1 1) rotate(0) translate(4 35)">
<title>QuantConnect.Data.IDataAggregator.Initialize</title>
<polygon fill="white" stroke="transparent" points="-4,4 -4,-35 430,-35 430,4 -4,4"/>
<!-- Node1 -->
<g id="node1" class="node">
<title>Node1</title>
<g id="a_node1"><a xlink:title="Initialize this instance">
<polygon fill="#bfbfbf" stroke="black" points="229,-0.5 229,-30.5 426,-30.5 426,-0.5 229,-0.5"/>
<text text-anchor="start" x="237" y="-18.5" font-family="Helvetica,sans-Serif" font-size="10.00">QuantConnect.Data.IDataAggregator.</text>
<text text-anchor="middle" x="327.5" y="-7.5" font-family="Helvetica,sans-Serif" font-size="10.00">Initialize</text>
</a>
</g>
</g>
<!-- Node2 -->
<g id="node2" class="node">
<title>Node2</title>
<g id="a_node2"><a xlink:href="classQuantConnect_1_1Lean_1_1Engine_1_1Setup_1_1BrokerageSetupHandler.html#a31fba19179b2197553a8f0152885886b" target="_top" xlink:title="Primary entry point to setup a new algorithm">
<polygon fill="white" stroke="black" points="0,-0.5 0,-30.5 193,-30.5 193,-0.5 0,-0.5"/>
<text text-anchor="start" x="8" y="-18.5" font-family="Helvetica,sans-Serif" font-size="10.00">QuantConnect.Lean.Engine.</text>
<text text-anchor="middle" x="96.5" y="-7.5" font-family="Helvetica,sans-Serif" font-size="10.00">Setup.BrokerageSetupHandler.Setup</text>
</a>
</g>
</g>
<!-- Node1&#45;&gt;Node2 -->
<g id="edge1" class="edge">
<title>Node1&#45;&gt;Node2</title>
<path fill="none" stroke="midnightblue" d="M218.45,-15.5C209.99,-15.5 201.49,-15.5 193.13,-15.5"/>
<polygon fill="midnightblue" stroke="midnightblue" points="218.72,-19 228.72,-15.5 218.72,-12 218.72,-19"/>
</g>
</g>
</svg>
