<?xml version="1.0" encoding="UTF-8" standalone="no"?>
<!DOCTYPE svg PUBLIC "-//W3C//DTD SVG 1.1//EN"
 "http://www.w3.org/Graphics/SVG/1.1/DTD/svg11.dtd">
<!-- Generated by graphviz version 2.43.0 (0)
 -->
<!-- Title: QuantConnect.Interfaces.IOptionChainProvider.GetOptionContractList Pages: 1 -->
<svg width="662pt" height="88pt"
 viewBox="0.00 0.00 662.00 88.00" xmlns="http://www.w3.org/2000/svg" xmlns:xlink="http://www.w3.org/1999/xlink">
<g id="graph0" class="graph" transform="scale(1 1) rotate(0) translate(4 84)">
<title>QuantConnect.Interfaces.IOptionChainProvider.GetOptionContractList</title>
<polygon fill="white" stroke="transparent" points="-4,4 -4,-84 658,-84 658,4 -4,4"/>
<!-- Node1 -->
<g id="node1" class="node">
<title>Node1</title>
<g id="a_node1"><a xlink:title="Gets the list of option contracts for a given underlying symbol">
<polygon fill="#bfbfbf" stroke="black" points="482,-19 482,-60 654,-60 654,-19 482,-19"/>
<text text-anchor="start" x="490" y="-48" font-family="Helvetica,sans-Serif" font-size="10.00">QuantConnect.Interfaces.</text>
<text text-anchor="start" x="490" y="-37" font-family="Helvetica,sans-Serif" font-size="10.00">IOptionChainProvider.GetOption</text>
<text text-anchor="middle" x="568" y="-26" font-family="Helvetica,sans-Serif" font-size="10.00">ContractList</text>
</a>
</g>
</g>
<!-- Node2 -->
<g id="node2" class="node">
<title>Node2</title>
<g id="a_node2"><a xlink:href="classQuantConnect_1_1Algorithm_1_1QCAlgorithm.html#ab0ce62f4aed3af8852c58a99cf3aa245" target="_top" xlink:title="Get the option chains for the specified symbols at the current time (Time)">
<polygon fill="white" stroke="black" points="241,-49.5 241,-79.5 446,-79.5 446,-49.5 241,-49.5"/>
<text text-anchor="start" x="249" y="-67.5" font-family="Helvetica,sans-Serif" font-size="10.00">QuantConnect.Algorithm.QCAlgorithm.</text>
<text text-anchor="middle" x="343.5" y="-56.5" font-family="Helvetica,sans-Serif" font-size="10.00">OptionChains</text>
</a>
</g>
</g>
<!-- Node1&#45;&gt;Node2 -->
<g id="edge1" class="edge">
<title>Node1&#45;&gt;Node2</title>
<path fill="none" stroke="midnightblue" d="M471.73,-50.2C463.31,-51.15 454.77,-52.11 446.3,-53.06"/>
<polygon fill="midnightblue" stroke="midnightblue" points="472.38,-53.65 481.93,-49.06 471.6,-46.7 472.38,-53.65"/>
</g>
<!-- Node5 -->
<g id="node5" class="node">
<title>Node5</title>
<g id="a_node5"><a xlink:href="classQuantConnect_1_1Research_1_1QuantBook.html#a9c6829f944fce7f66a72fa0d9b64f7b8" target="_top" xlink:title="Gets OptionHistory object for a given symbol, date and resolution">
<polygon fill="white" stroke="black" points="260.5,-0.5 260.5,-30.5 426.5,-30.5 426.5,-0.5 260.5,-0.5"/>
<text text-anchor="start" x="268.5" y="-18.5" font-family="Helvetica,sans-Serif" font-size="10.00">QuantConnect.Research.Quant</text>
<text text-anchor="middle" x="343.5" y="-7.5" font-family="Helvetica,sans-Serif" font-size="10.00">Book.OptionHistory</text>
</a>
</g>
</g>
<!-- Node1&#45;&gt;Node5 -->
<g id="edge5" class="edge">
<title>Node1&#45;&gt;Node5</title>
<path fill="none" stroke="midnightblue" d="M471.63,-29.21C456.63,-27.6 441.25,-25.94 426.59,-24.35"/>
<polygon fill="midnightblue" stroke="midnightblue" points="471.61,-32.73 481.93,-30.32 472.36,-25.77 471.61,-32.73"/>
</g>
<!-- Node3 -->
<g id="node3" class="node">
<title>Node3</title>
<g id="a_node3"><a xlink:href="classQuantConnect_1_1Algorithm_1_1QCAlgorithm.html#aa259ba2e3bd6c96d4710fff0ccdd24e6" target="_top" xlink:title="Get the option chain for the specified symbol at the current time (Time)">
<polygon fill="white" stroke="black" points="0,-49.5 0,-79.5 205,-79.5 205,-49.5 0,-49.5"/>
<text text-anchor="start" x="8" y="-67.5" font-family="Helvetica,sans-Serif" font-size="10.00">QuantConnect.Algorithm.QCAlgorithm.</text>
<text text-anchor="middle" x="102.5" y="-56.5" font-family="Helvetica,sans-Serif" font-size="10.00">OptionChain</text>
</a>
</g>
</g>
<!-- Node2&#45;&gt;Node3 -->
<g id="edge2" class="edge">
<title>Node2&#45;&gt;Node3</title>
<path fill="none" stroke="midnightblue" d="M230.78,-57.76C222.22,-57.73 213.6,-57.75 205.11,-57.82"/>
<polygon fill="midnightblue" stroke="midnightblue" points="230.78,-61.26 240.8,-57.82 230.82,-54.26 230.78,-61.26"/>
</g>
<!-- Node4 -->
<g id="node4" class="node">
<title>Node4</title>
<g id="a_node4"><a xlink:href="classQuantConnect_1_1Algorithm_1_1QCAlgorithm.html#adbc8619e7a3b56f232f142856961d947" target="_top" xlink:title="Get the option chains for the specified symbols at the current time (Time)">
<polygon fill="white" stroke="black" points="0,-0.5 0,-30.5 205,-30.5 205,-0.5 0,-0.5"/>
<text text-anchor="start" x="8" y="-18.5" font-family="Helvetica,sans-Serif" font-size="10.00">QuantConnect.Algorithm.QCAlgorithm.</text>
<text text-anchor="middle" x="102.5" y="-7.5" font-family="Helvetica,sans-Serif" font-size="10.00">OptionChains</text>
</a>
</g>
</g>
<!-- Node2&#45;&gt;Node4 -->
<g id="edge4" class="edge">
<title>Node2&#45;&gt;Node4</title>
<path fill="none" stroke="midnightblue" d="M259.03,-47.39C232.21,-41.89 202.72,-35.84 176.69,-30.51"/>
<polygon fill="midnightblue" stroke="midnightblue" points="258.67,-50.89 269.17,-49.47 260.07,-44.03 258.67,-50.89"/>
</g>
<!-- Node3&#45;&gt;Node2 -->
<g id="edge3" class="edge">
<title>Node3&#45;&gt;Node2</title>
<path fill="none" stroke="midnightblue" d="M215.13,-71.24C223.69,-71.27 232.3,-71.25 240.8,-71.18"/>
<polygon fill="midnightblue" stroke="midnightblue" points="215.13,-67.74 205.11,-71.18 215.09,-74.74 215.13,-67.74"/>
</g>
</g>
</svg>
