<?xml version="1.0" encoding="UTF-8" standalone="no"?>
<!DOCTYPE svg PUBLIC "-//W3C//DTD SVG 1.1//EN"
 "http://www.w3.org/Graphics/SVG/1.1/DTD/svg11.dtd">
<!-- Generated by graphviz version 2.43.0 (0)
 -->
<!-- Title: QuantConnect.Interfaces.ITimeKeeper Pages: 1 -->
<svg width="198pt" height="162pt"
 viewBox="0.00 0.00 198.00 162.00" xmlns="http://www.w3.org/2000/svg" xmlns:xlink="http://www.w3.org/1999/xlink">
<g id="graph0" class="graph" transform="scale(1 1) rotate(0) translate(4 158)">
<title>QuantConnect.Interfaces.ITimeKeeper</title>
<polygon fill="white" stroke="transparent" points="-4,4 -4,-158 194,-158 194,4 -4,4"/>
<!-- Node1 -->
<g id="node1" class="node">
<title>Node1</title>
<g id="a_node1"><a xlink:title="Interface implemented by TimeKeeper">
<polygon fill="#bfbfbf" stroke="black" points="25,-123.5 25,-153.5 165,-153.5 165,-123.5 25,-123.5"/>
<text text-anchor="start" x="33" y="-141.5" font-family="Helvetica,sans-Serif" font-size="10.00">QuantConnect.Interfaces.</text>
<text text-anchor="middle" x="95" y="-130.5" font-family="Helvetica,sans-Serif" font-size="10.00">ITimeKeeper</text>
</a>
</g>
</g>
<!-- Node2 -->
<g id="node2" class="node">
<title>Node2</title>
<g id="a_node2"><a xlink:href="classQuantConnect_1_1TimeKeeper.html" target="_top" xlink:title="Provides a means of centralizing time for various time zones.">
<polygon fill="white" stroke="black" points="21.5,-67.5 21.5,-86.5 168.5,-86.5 168.5,-67.5 21.5,-67.5"/>
<text text-anchor="middle" x="95" y="-74.5" font-family="Helvetica,sans-Serif" font-size="10.00">QuantConnect.TimeKeeper</text>
</a>
</g>
</g>
<!-- Node1&#45;&gt;Node2 -->
<g id="edge1" class="edge">
<title>Node1&#45;&gt;Node2</title>
<path fill="none" stroke="midnightblue" d="M95,-113.29C95,-103.86 95,-93.65 95,-86.66"/>
<polygon fill="midnightblue" stroke="midnightblue" points="91.5,-113.4 95,-123.4 98.5,-113.4 91.5,-113.4"/>
</g>
<!-- Node3 -->
<g id="node3" class="node">
<title>Node3</title>
<g id="a_node3"><a xlink:title="Time keeper specialization to keep time for a subscription both in data and exchange time zones....">
<polygon fill="white" stroke="#bfbfbf" points="0,-0.5 0,-30.5 190,-30.5 190,-0.5 0,-0.5"/>
<text text-anchor="start" x="8" y="-18.5" font-family="Helvetica,sans-Serif" font-size="10.00">QuantConnect.Lean.Engine.</text>
<text text-anchor="middle" x="95" y="-7.5" font-family="Helvetica,sans-Serif" font-size="10.00">DataFeeds.DateChangeTimeKeeper</text>
</a>
</g>
</g>
<!-- Node2&#45;&gt;Node3 -->
<g id="edge2" class="edge">
<title>Node2&#45;&gt;Node3</title>
<path fill="none" stroke="midnightblue" d="M95,-57.23C95,-48.59 95,-38.5 95,-30.52"/>
<polygon fill="midnightblue" stroke="midnightblue" points="91.5,-57.48 95,-67.48 98.5,-57.48 91.5,-57.48"/>
</g>
</g>
</svg>
