<?xml version="1.0" encoding="UTF-8" standalone="no"?>
<!DOCTYPE svg PUBLIC "-//W3C//DTD SVG 1.1//EN"
 "http://www.w3.org/Graphics/SVG/1.1/DTD/svg11.dtd">
<!-- Generated by graphviz version 2.43.0 (0)
 -->
<!-- Title: QuantConnect.Scheduling.IDateRule.GetDates Pages: 1 -->
<svg width="820pt" height="94pt"
 viewBox="0.00 0.00 820.00 93.50" xmlns="http://www.w3.org/2000/svg" xmlns:xlink="http://www.w3.org/1999/xlink">
<g id="graph0" class="graph" transform="scale(1 1) rotate(0) translate(4 89.5)">
<title>QuantConnect.Scheduling.IDateRule.GetDates</title>
<polygon fill="white" stroke="transparent" points="-4,4 -4,-89.5 816,-89.5 816,4 -4,4"/>
<!-- Node1 -->
<g id="node1" class="node">
<title>Node1</title>
<g id="a_node1"><a xlink:title="Gets the dates produced by this date rule between the specified times">
<polygon fill="#bfbfbf" stroke="black" points="667,-24.5 667,-54.5 812,-54.5 812,-24.5 667,-24.5"/>
<text text-anchor="start" x="675" y="-42.5" font-family="Helvetica,sans-Serif" font-size="10.00">QuantConnect.Scheduling.</text>
<text text-anchor="middle" x="739.5" y="-31.5" font-family="Helvetica,sans-Serif" font-size="10.00">IDateRule.GetDates</text>
</a>
</g>
</g>
<!-- Node2 -->
<g id="node2" class="node">
<title>Node2</title>
<g id="a_node2"><a xlink:href="classQuantConnect_1_1Data_1_1UniverseSelection_1_1Schedule.html#a86f2f855c409e08bae9900499fa416df" target="_top" xlink:title="Gets the current schedule for a given start time">
<polygon fill="white" stroke="black" points="473,-49.5 473,-79.5 631,-79.5 631,-49.5 473,-49.5"/>
<text text-anchor="start" x="481" y="-67.5" font-family="Helvetica,sans-Serif" font-size="10.00">QuantConnect.Data.Universe</text>
<text text-anchor="middle" x="552" y="-56.5" font-family="Helvetica,sans-Serif" font-size="10.00">Selection.Schedule.Get</text>
</a>
</g>
</g>
<!-- Node1&#45;&gt;Node2 -->
<g id="edge1" class="edge">
<title>Node1&#45;&gt;Node2</title>
<path fill="none" stroke="midnightblue" d="M656.6,-50.54C648.2,-51.67 639.67,-52.82 631.3,-53.95"/>
<polygon fill="midnightblue" stroke="midnightblue" points="657.34,-53.97 666.78,-49.17 656.4,-47.03 657.34,-53.97"/>
</g>
<!-- Node5 -->
<g id="node5" class="node">
<title>Node5</title>
<g id="a_node5"><a xlink:href="classQuantConnect_1_1Extensions.html#a32c2afd6782045cba603ab70bbcba29e" target="_top" xlink:title="Converts a date rule into a function that receives current time and returns the next date.">
<polygon fill="white" stroke="black" points="479.5,-0.5 479.5,-30.5 624.5,-30.5 624.5,-0.5 479.5,-0.5"/>
<text text-anchor="start" x="487.5" y="-18.5" font-family="Helvetica,sans-Serif" font-size="10.00">QuantConnect.Extensions.</text>
<text text-anchor="middle" x="552" y="-7.5" font-family="Helvetica,sans-Serif" font-size="10.00">ToFunc</text>
</a>
</g>
</g>
<!-- Node1&#45;&gt;Node5 -->
<g id="edge4" class="edge">
<title>Node1&#45;&gt;Node5</title>
<path fill="none" stroke="midnightblue" d="M656.61,-28.9C645.92,-27.52 635.03,-26.11 624.53,-24.75"/>
<polygon fill="midnightblue" stroke="midnightblue" points="656.41,-32.41 666.78,-30.22 657.31,-25.47 656.41,-32.41"/>
</g>
<!-- Node3 -->
<g id="node3" class="node">
<title>Node3</title>
<g id="a_node3"><a xlink:href="classQuantConnect_1_1Lean_1_1Engine_1_1DataFeeds_1_1FileSystemDataFeed.html#a8e5ed511f57facc6e1c2ac6b0e0a623a" target="_top" xlink:title="Returns a scheduled enumerator from the given arguments. It can also return the given underlying enum...">
<polygon fill="white" stroke="black" points="243,-44 243,-85 437,-85 437,-44 243,-44"/>
<text text-anchor="start" x="251" y="-73" font-family="Helvetica,sans-Serif" font-size="10.00">QuantConnect.Lean.Engine.</text>
<text text-anchor="start" x="251" y="-62" font-family="Helvetica,sans-Serif" font-size="10.00">DataFeeds.FileSystemDataFeed.Add</text>
<text text-anchor="middle" x="340" y="-51" font-family="Helvetica,sans-Serif" font-size="10.00">ScheduleWrapper</text>
</a>
</g>
</g>
<!-- Node2&#45;&gt;Node3 -->
<g id="edge2" class="edge">
<title>Node2&#45;&gt;Node3</title>
<path fill="none" stroke="midnightblue" d="M462.59,-64.5C454.14,-64.5 445.55,-64.5 437.03,-64.5"/>
<polygon fill="midnightblue" stroke="midnightblue" points="462.8,-68 472.8,-64.5 462.8,-61 462.8,-68"/>
</g>
<!-- Node4 -->
<g id="node4" class="node">
<title>Node4</title>
<g id="a_node4"><a xlink:href="classQuantConnect_1_1Lean_1_1Engine_1_1DataFeeds_1_1FileSystemDataFeed.html#ac148e78fc814fca88c70a1835be51a25" target="_top" xlink:title="Creates a new subscription to provide data for the specified security.">
<polygon fill="white" stroke="black" points="0,-44 0,-85 207,-85 207,-44 0,-44"/>
<text text-anchor="start" x="8" y="-73" font-family="Helvetica,sans-Serif" font-size="10.00">QuantConnect.Lean.Engine.</text>
<text text-anchor="start" x="8" y="-62" font-family="Helvetica,sans-Serif" font-size="10.00">DataFeeds.FileSystemDataFeed.Create</text>
<text text-anchor="middle" x="103.5" y="-51" font-family="Helvetica,sans-Serif" font-size="10.00">Subscription</text>
</a>
</g>
</g>
<!-- Node3&#45;&gt;Node4 -->
<g id="edge3" class="edge">
<title>Node3&#45;&gt;Node4</title>
<path fill="none" stroke="midnightblue" d="M232.68,-64.5C224.23,-64.5 215.7,-64.5 207.27,-64.5"/>
<polygon fill="midnightblue" stroke="midnightblue" points="232.94,-68 242.94,-64.5 232.94,-61 232.94,-68"/>
</g>
</g>
</svg>
