<?xml version="1.0" encoding="UTF-8" standalone="no"?>
<!DOCTYPE svg PUBLIC "-//W3C//DTD SVG 1.1//EN"
 "http://www.w3.org/Graphics/SVG/1.1/DTD/svg11.dtd">
<!-- Generated by graphviz version 2.43.0 (0)
 -->
<!-- Title: QuantConnect.Orders.Fees.IFeeModel.GetOrderFee Pages: 1 -->
<svg width="843pt" height="428pt"
 viewBox="0.00 0.00 843.00 427.50" xmlns="http://www.w3.org/2000/svg" xmlns:xlink="http://www.w3.org/1999/xlink">
<g id="graph0" class="graph" transform="scale(1 1) rotate(0) translate(4 423.5)">
<title>QuantConnect.Orders.Fees.IFeeModel.GetOrderFee</title>
<polygon fill="white" stroke="transparent" points="-4,4 -4,-423.5 839,-423.5 839,4 -4,4"/>
<!-- Node1 -->
<g id="node1" class="node">
<title>Node1</title>
<g id="a_node1"><a xlink:title="Gets the order fee associated with the specified order.">
<polygon fill="#bfbfbf" stroke="black" points="686,-180.5 686,-210.5 835,-210.5 835,-180.5 686,-180.5"/>
<text text-anchor="start" x="694" y="-198.5" font-family="Helvetica,sans-Serif" font-size="10.00">QuantConnect.Orders.Fees.</text>
<text text-anchor="middle" x="760.5" y="-187.5" font-family="Helvetica,sans-Serif" font-size="10.00">IFeeModel.GetOrderFee</text>
</a>
</g>
</g>
<!-- Node2 -->
<g id="node2" class="node">
<title>Node2</title>
<g id="a_node2"><a xlink:href="classQuantConnect_1_1Securities_1_1Option_1_1OptionMarginModel.html#ab940a1ecbee727923e7ce692b47c8547" target="_top" xlink:title="Gets the total margin required to execute the specified order in units of the account currency includ...">
<polygon fill="white" stroke="black" points="462.5,-378 462.5,-419 630.5,-419 630.5,-378 462.5,-378"/>
<text text-anchor="start" x="470.5" y="-407" font-family="Helvetica,sans-Serif" font-size="10.00">QuantConnect.Securities.</text>
<text text-anchor="start" x="470.5" y="-396" font-family="Helvetica,sans-Serif" font-size="10.00">Option.OptionMarginModel.Get</text>
<text text-anchor="middle" x="546.5" y="-385" font-family="Helvetica,sans-Serif" font-size="10.00">InitialMarginRequiredForOrder</text>
</a>
</g>
</g>
<!-- Node1&#45;&gt;Node2 -->
<g id="edge1" class="edge">
<title>Node1&#45;&gt;Node2</title>
<path fill="none" stroke="midnightblue" d="M750.49,-220.25C735.52,-257.92 701.9,-329.4 650,-368.5 644.08,-372.96 637.5,-376.76 630.62,-380"/>
<polygon fill="midnightblue" stroke="midnightblue" points="753.89,-221.16 754.22,-210.57 747.36,-218.64 753.89,-221.16"/>
</g>
<!-- Node3 -->
<g id="node3" class="node">
<title>Node3</title>
<g id="a_node3"><a xlink:href="classQuantConnect_1_1Securities_1_1Future_1_1FutureMarginModel.html#a0cf1fe49d455ede4000c6919e1232405" target="_top" xlink:title="Gets the total margin required to execute the specified order in units of the account currency includ...">
<polygon fill="white" stroke="black" points="464,-318 464,-359 629,-359 629,-318 464,-318"/>
<text text-anchor="start" x="472" y="-347" font-family="Helvetica,sans-Serif" font-size="10.00">QuantConnect.Securities.</text>
<text text-anchor="start" x="472" y="-336" font-family="Helvetica,sans-Serif" font-size="10.00">Future.FutureMarginModel.Get</text>
<text text-anchor="middle" x="546.5" y="-325" font-family="Helvetica,sans-Serif" font-size="10.00">InitialMarginRequiredForOrder</text>
</a>
</g>
</g>
<!-- Node1&#45;&gt;Node3 -->
<g id="edge2" class="edge">
<title>Node1&#45;&gt;Node3</title>
<path fill="none" stroke="midnightblue" d="M742.89,-218.79C723.43,-244.41 688.88,-285.04 650,-308.5 643.49,-312.43 636.44,-315.87 629.18,-318.87"/>
<polygon fill="midnightblue" stroke="midnightblue" points="745.73,-220.84 748.89,-210.73 740.11,-216.66 745.73,-220.84"/>
</g>
<!-- Node4 -->
<g id="node4" class="node">
<title>Node4</title>
<g id="a_node4"><a xlink:href="classQuantConnect_1_1Securities_1_1BuyingPowerModel.html#a590d798fb26334523c44a600e08d85f3" target="_top" xlink:title="Gets the total margin required to execute the specified order in units of the account currency includ...">
<polygon fill="white" stroke="black" points="450.5,-258 450.5,-299 642.5,-299 642.5,-258 450.5,-258"/>
<text text-anchor="start" x="458.5" y="-287" font-family="Helvetica,sans-Serif" font-size="10.00">QuantConnect.Securities.</text>
<text text-anchor="start" x="458.5" y="-276" font-family="Helvetica,sans-Serif" font-size="10.00">BuyingPowerModel.GetInitialMargin</text>
<text text-anchor="middle" x="546.5" y="-265" font-family="Helvetica,sans-Serif" font-size="10.00">RequiredForOrder</text>
</a>
</g>
</g>
<!-- Node1&#45;&gt;Node4 -->
<g id="edge3" class="edge">
<title>Node1&#45;&gt;Node4</title>
<path fill="none" stroke="midnightblue" d="M722.55,-215.29C701.64,-226 674.78,-238.95 650,-248.5 641.35,-251.83 632.17,-255.01 622.99,-257.96"/>
<polygon fill="midnightblue" stroke="midnightblue" points="724.44,-218.25 731.71,-210.54 721.22,-212.03 724.44,-218.25"/>
</g>
<!-- Node5 -->
<g id="node5" class="node">
<title>Node5</title>
<g id="a_node5"><a xlink:href="classQuantConnect_1_1Extensions.html#a3a13bce5beb2126e8a5a89b65b46599f" target="_top" xlink:title="Returns the amount of fee&#39;s charged by executing a market order with the given arguments">
<polygon fill="white" stroke="black" points="474,-208.5 474,-238.5 619,-238.5 619,-208.5 474,-208.5"/>
<text text-anchor="start" x="482" y="-226.5" font-family="Helvetica,sans-Serif" font-size="10.00">QuantConnect.Extensions.</text>
<text text-anchor="middle" x="546.5" y="-215.5" font-family="Helvetica,sans-Serif" font-size="10.00">GetMarketOrderFees</text>
</a>
</g>
</g>
<!-- Node1&#45;&gt;Node5 -->
<g id="edge4" class="edge">
<title>Node1&#45;&gt;Node5</title>
<path fill="none" stroke="midnightblue" d="M675.93,-206.54C657.15,-209.02 637.38,-211.63 619.13,-214.04"/>
<polygon fill="midnightblue" stroke="midnightblue" points="676.49,-209.99 685.95,-205.21 675.58,-203.05 676.49,-209.99"/>
</g>
<!-- Node9 -->
<g id="node9" class="node">
<title>Node9</title>
<g id="a_node9"><a xlink:href="classQuantConnect_1_1Securities_1_1CashBuyingPowerModel.html#a3098b5ecbdc50ae031e8d5716f036724" target="_top" xlink:title="Get the maximum market order quantity to obtain a position with a given buying power percentage....">
<polygon fill="white" stroke="black" points="444.5,-148 444.5,-189 648.5,-189 648.5,-148 444.5,-148"/>
<text text-anchor="start" x="452.5" y="-177" font-family="Helvetica,sans-Serif" font-size="10.00">QuantConnect.Securities.</text>
<text text-anchor="start" x="452.5" y="-166" font-family="Helvetica,sans-Serif" font-size="10.00">CashBuyingPowerModel.GetMaximum</text>
<text text-anchor="middle" x="546.5" y="-155" font-family="Helvetica,sans-Serif" font-size="10.00">OrderQuantityForTargetBuyingPower</text>
</a>
</g>
</g>
<!-- Node1&#45;&gt;Node9 -->
<g id="edge8" class="edge">
<title>Node1&#45;&gt;Node9</title>
<path fill="none" stroke="midnightblue" d="M675.91,-184.85C666.93,-183.71 657.72,-182.54 648.56,-181.37"/>
<polygon fill="midnightblue" stroke="midnightblue" points="675.59,-188.34 685.95,-186.13 676.47,-181.4 675.59,-188.34"/>
</g>
<!-- Node10 -->
<g id="node10" class="node">
<title>Node10</title>
<g id="a_node10"><a xlink:href="classQuantConnect_1_1Securities_1_1CashBuyingPowerModel.html#ae2182361668bcb0b67727ea2e077423a" target="_top" xlink:title="Check if there is sufficient buying power to execute this order.">
<polygon fill="white" stroke="black" points="202.5,-129 202.5,-170 404.5,-170 404.5,-129 202.5,-129"/>
<text text-anchor="start" x="210.5" y="-158" font-family="Helvetica,sans-Serif" font-size="10.00">QuantConnect.Securities.</text>
<text text-anchor="start" x="210.5" y="-147" font-family="Helvetica,sans-Serif" font-size="10.00">CashBuyingPowerModel.HasSufficient</text>
<text text-anchor="middle" x="303.5" y="-136" font-family="Helvetica,sans-Serif" font-size="10.00">BuyingPowerForOrder</text>
</a>
</g>
</g>
<!-- Node1&#45;&gt;Node10 -->
<g id="edge13" class="edge">
<title>Node1&#45;&gt;Node10</title>
<path fill="none" stroke="midnightblue" d="M729.58,-174.89C708.41,-161.6 678.78,-145.54 650,-138.5 569.12,-118.71 474.42,-123.6 404.64,-132.24"/>
<polygon fill="midnightblue" stroke="midnightblue" points="727.8,-177.9 738.11,-180.37 731.59,-172.02 727.8,-177.9"/>
</g>
<!-- Node11 -->
<g id="node11" class="node">
<title>Node11</title>
<g id="a_node11"><a xlink:href="classQuantConnect_1_1Securities_1_1BuyingPowerModel.html#ac77dd32649e7d51e54d52b2d3b695afc" target="_top" xlink:title="Get the maximum market order quantity to obtain a position with a given buying power percentage....">
<polygon fill="white" stroke="black" points="443,-50 443,-91 650,-91 650,-50 443,-50"/>
<text text-anchor="start" x="451" y="-79" font-family="Helvetica,sans-Serif" font-size="10.00">QuantConnect.Securities.</text>
<text text-anchor="start" x="451" y="-68" font-family="Helvetica,sans-Serif" font-size="10.00">BuyingPowerModel.GetMaximumOrder</text>
<text text-anchor="middle" x="546.5" y="-57" font-family="Helvetica,sans-Serif" font-size="10.00">QuantityForTargetBuyingPower</text>
</a>
</g>
</g>
<!-- Node1&#45;&gt;Node11 -->
<g id="edge10" class="edge">
<title>Node1&#45;&gt;Node11</title>
<path fill="none" stroke="midnightblue" d="M737.44,-173.27C716.51,-153.21 683.35,-124.09 650,-105.5 640.23,-100.05 629.46,-95.25 618.69,-91.08"/>
<polygon fill="midnightblue" stroke="midnightblue" points="735.24,-176 744.85,-180.47 740.12,-170.99 735.24,-176"/>
</g>
<!-- Node13 -->
<g id="node13" class="node">
<title>Node13</title>
<g id="a_node13"><a xlink:href="classQuantConnect_1_1Orders_1_1Fees_1_1FeeModelExtensions.html#a1036304591f1196129e1bf7639dce561" target="_top" xlink:title="Gets the order fee associated with the specified order. This returns the cost of the transaction in t...">
<polygon fill="white" stroke="black" points="455.5,-0.5 455.5,-30.5 637.5,-30.5 637.5,-0.5 455.5,-0.5"/>
<text text-anchor="start" x="463.5" y="-18.5" font-family="Helvetica,sans-Serif" font-size="10.00">QuantConnect.Orders.Fees.</text>
<text text-anchor="middle" x="546.5" y="-7.5" font-family="Helvetica,sans-Serif" font-size="10.00">FeeModelExtensions.GetOrderFee</text>
</a>
</g>
</g>
<!-- Node1&#45;&gt;Node13 -->
<g id="edge12" class="edge">
<title>Node1&#45;&gt;Node13</title>
<path fill="none" stroke="midnightblue" d="M749.05,-171.05C732.98,-136.45 698.84,-73.73 650,-40.5 644.32,-36.64 638.11,-33.37 631.64,-30.6"/>
<polygon fill="midnightblue" stroke="midnightblue" points="745.98,-172.74 753.28,-180.41 752.36,-169.86 745.98,-172.74"/>
</g>
<!-- Node6 -->
<g id="node6" class="node">
<title>Node6</title>
<g id="a_node6"><a xlink:href="classQuantConnect_1_1Orders_1_1OrderSizing.html#a2ee0b0a2af935521e2752f60ae2ee2bf" target="_top" xlink:title="Gets the remaining quantity to be ordered to reach the specified target quantity.">
<polygon fill="white" stroke="black" points="224,-247.5 224,-277.5 383,-277.5 383,-247.5 224,-247.5"/>
<text text-anchor="start" x="232" y="-265.5" font-family="Helvetica,sans-Serif" font-size="10.00">QuantConnect.Orders.Order</text>
<text text-anchor="middle" x="303.5" y="-254.5" font-family="Helvetica,sans-Serif" font-size="10.00">Sizing.GetUnorderedQuantity</text>
</a>
</g>
</g>
<!-- Node5&#45;&gt;Node6 -->
<g id="edge5" class="edge">
<title>Node5&#45;&gt;Node6</title>
<path fill="none" stroke="midnightblue" d="M463.97,-236.69C437.83,-240.92 408.95,-245.6 383.03,-249.79"/>
<polygon fill="midnightblue" stroke="midnightblue" points="464.53,-240.15 473.84,-235.1 463.41,-233.24 464.53,-240.15"/>
</g>
<!-- Node7 -->
<g id="node7" class="node">
<title>Node7</title>
<g id="a_node7"><a xlink:href="classQuantConnect_1_1Securities_1_1SecurityHolding.html#a4bc70d2b17f24b1f755183e2eeec7674" target="_top" xlink:title="Profit if we closed the holdings right now including the approximate fees in units of the account&#39;s c...">
<polygon fill="white" stroke="black" points="217,-198.5 217,-228.5 390,-228.5 390,-198.5 217,-198.5"/>
<text text-anchor="start" x="225" y="-216.5" font-family="Helvetica,sans-Serif" font-size="10.00">QuantConnect.Securities.</text>
<text text-anchor="middle" x="303.5" y="-205.5" font-family="Helvetica,sans-Serif" font-size="10.00">SecurityHolding.TotalCloseProfit</text>
</a>
</g>
</g>
<!-- Node5&#45;&gt;Node7 -->
<g id="edge6" class="edge">
<title>Node5&#45;&gt;Node7</title>
<path fill="none" stroke="midnightblue" d="M463.85,-220.11C440.18,-219.13 414.26,-218.05 390.34,-217.06"/>
<polygon fill="midnightblue" stroke="midnightblue" points="463.71,-223.61 473.84,-220.53 464,-216.62 463.71,-223.61"/>
</g>
<!-- Node8 -->
<g id="node8" class="node">
<title>Node8</title>
<g id="a_node8"><a xlink:href="classQuantConnect_1_1Securities_1_1Forex_1_1ForexHolding.html#a3b9fd440c6dbd7615e769ff6c2c84723" target="_top" xlink:title="Profit in pips if we closed the holdings right now including the approximate fees">
<polygon fill="white" stroke="black" points="0,-193 0,-234 164,-234 164,-193 0,-193"/>
<text text-anchor="start" x="8" y="-222" font-family="Helvetica,sans-Serif" font-size="10.00">QuantConnect.Securities.</text>
<text text-anchor="start" x="8" y="-211" font-family="Helvetica,sans-Serif" font-size="10.00">Forex.ForexHolding.TotalClose</text>
<text text-anchor="middle" x="82" y="-200" font-family="Helvetica,sans-Serif" font-size="10.00">ProfitPips</text>
</a>
</g>
</g>
<!-- Node7&#45;&gt;Node8 -->
<g id="edge7" class="edge">
<title>Node7&#45;&gt;Node8</title>
<path fill="none" stroke="midnightblue" d="M206.47,-213.5C192.33,-213.5 177.88,-213.5 164.08,-213.5"/>
<polygon fill="midnightblue" stroke="midnightblue" points="206.69,-217 216.69,-213.5 206.69,-210 206.69,-217"/>
</g>
<!-- Node9&#45;&gt;Node10 -->
<g id="edge9" class="edge">
<title>Node9&#45;&gt;Node10</title>
<path fill="none" stroke="midnightblue" d="M434.13,-159.72C424.29,-158.94 414.37,-158.16 404.63,-157.39"/>
<polygon fill="midnightblue" stroke="midnightblue" points="434.1,-163.23 444.34,-160.52 434.65,-156.25 434.1,-163.23"/>
</g>
<!-- Node12 -->
<g id="node12" class="node">
<title>Node12</title>
<g id="a_node12"><a xlink:href="classQuantConnect_1_1Securities_1_1BuyingPowerModel.html#a47123e9eef707732a20838c29a8bee69" target="_top" xlink:title="Get the maximum market order quantity to obtain a delta in the buying power used by a security....">
<polygon fill="white" stroke="black" points="200,-50 200,-91 407,-91 407,-50 200,-50"/>
<text text-anchor="start" x="208" y="-79" font-family="Helvetica,sans-Serif" font-size="10.00">QuantConnect.Securities.</text>
<text text-anchor="start" x="208" y="-68" font-family="Helvetica,sans-Serif" font-size="10.00">BuyingPowerModel.GetMaximumOrder</text>
<text text-anchor="middle" x="303.5" y="-57" font-family="Helvetica,sans-Serif" font-size="10.00">QuantityForDeltaBuyingPower</text>
</a>
</g>
</g>
<!-- Node11&#45;&gt;Node12 -->
<g id="edge11" class="edge">
<title>Node11&#45;&gt;Node12</title>
<path fill="none" stroke="midnightblue" d="M432.68,-70.5C424.23,-70.5 415.73,-70.5 407.35,-70.5"/>
<polygon fill="midnightblue" stroke="midnightblue" points="432.94,-74 442.94,-70.5 432.94,-67 432.94,-74"/>
</g>
</g>
</svg>
