<?xml version="1.0" encoding="UTF-8" standalone="no"?>
<!DOCTYPE svg PUBLIC "-//W3C//DTD SVG 1.1//EN"
 "http://www.w3.org/Graphics/SVG/1.1/DTD/svg11.dtd">
<!-- Generated by graphviz version 2.43.0 (0)
 -->
<!-- Title: QuantConnect.Brokerages.IBrokerageModel Pages: 1 -->
<svg width="1031pt" height="1068pt"
 viewBox="0.00 0.00 1031.00 1068.00" xmlns="http://www.w3.org/2000/svg" xmlns:xlink="http://www.w3.org/1999/xlink">
<g id="graph0" class="graph" transform="scale(1 1) rotate(0) translate(4 1064)">
<title>QuantConnect.Brokerages.IBrokerageModel</title>
<polygon fill="white" stroke="transparent" points="-4,4 -4,-1064 1027,-1064 1027,4 -4,4"/>
<!-- Node1 -->
<g id="node1" class="node">
<title>Node1</title>
<g id="a_node1"><a xlink:title="Models brokerage transactions, fees, and order">
<polygon fill="#bfbfbf" stroke="black" points="0,-489.5 0,-519.5 146,-519.5 146,-489.5 0,-489.5"/>
<text text-anchor="start" x="8" y="-507.5" font-family="Helvetica,sans-Serif" font-size="10.00">QuantConnect.Brokerages.</text>
<text text-anchor="middle" x="73" y="-496.5" font-family="Helvetica,sans-Serif" font-size="10.00">IBrokerageModel</text>
</a>
</g>
</g>
<!-- Node2 -->
<g id="node2" class="node">
<title>Node2</title>
<g id="a_node2"><a xlink:href="classQuantConnect_1_1Brokerages_1_1DefaultBrokerageModel.html" target="_top" xlink:title="Provides a default implementation of IBrokerageModel that allows all orders and uses the default tran...">
<polygon fill="white" stroke="black" points="196.5,-514.5 196.5,-544.5 342.5,-544.5 342.5,-514.5 196.5,-514.5"/>
<text text-anchor="start" x="204.5" y="-532.5" font-family="Helvetica,sans-Serif" font-size="10.00">QuantConnect.Brokerages.</text>
<text text-anchor="middle" x="269.5" y="-521.5" font-family="Helvetica,sans-Serif" font-size="10.00">DefaultBrokerageModel</text>
</a>
</g>
</g>
<!-- Node1&#45;&gt;Node2 -->
<g id="edge1" class="edge">
<title>Node1&#45;&gt;Node2</title>
<path fill="none" stroke="midnightblue" d="M156.27,-515.07C169.63,-516.79 183.38,-518.56 196.47,-520.24"/>
<polygon fill="midnightblue" stroke="midnightblue" points="156.51,-511.58 146.15,-513.77 155.62,-518.52 156.51,-511.58"/>
</g>
<!-- Node30 -->
<g id="node30" class="node">
<title>Node30</title>
<g id="a_node30"><a xlink:href="classQuantConnect_1_1Python_1_1BrokerageModelPythonWrapper.html" target="_top" xlink:title="Provides an implementation of IBrokerageModel that wraps a PyObject object">
<polygon fill="white" stroke="black" points="182,-465.5 182,-495.5 357,-495.5 357,-465.5 182,-465.5"/>
<text text-anchor="start" x="190" y="-483.5" font-family="Helvetica,sans-Serif" font-size="10.00">QuantConnect.Python.Brokerage</text>
<text text-anchor="middle" x="269.5" y="-472.5" font-family="Helvetica,sans-Serif" font-size="10.00">ModelPythonWrapper</text>
</a>
</g>
</g>
<!-- Node1&#45;&gt;Node30 -->
<g id="edge29" class="edge">
<title>Node1&#45;&gt;Node30</title>
<path fill="none" stroke="midnightblue" d="M156.11,-494.37C164.67,-493.31 173.39,-492.24 181.99,-491.17"/>
<polygon fill="midnightblue" stroke="midnightblue" points="155.64,-490.9 146.15,-495.6 156.5,-497.85 155.64,-490.9"/>
</g>
<!-- Node3 -->
<g id="node3" class="node">
<title>Node3</title>
<g id="a_node3"><a xlink:href="classQuantConnect_1_1Brokerages_1_1AlpacaBrokerageModel.html" target="_top" xlink:title="Provides an implementation of the DefaultBrokerageModel specific to Alpaca brokerage.">
<polygon fill="white" stroke="black" points="417,-1029.5 417,-1059.5 563,-1059.5 563,-1029.5 417,-1029.5"/>
<text text-anchor="start" x="425" y="-1047.5" font-family="Helvetica,sans-Serif" font-size="10.00">QuantConnect.Brokerages.</text>
<text text-anchor="middle" x="490" y="-1036.5" font-family="Helvetica,sans-Serif" font-size="10.00">AlpacaBrokerageModel</text>
</a>
</g>
</g>
<!-- Node2&#45;&gt;Node3 -->
<g id="edge2" class="edge">
<title>Node2&#45;&gt;Node3</title>
<path fill="none" stroke="midnightblue" d="M273.37,-554.7C284.2,-645.32 325.41,-952.88 393,-1020.5 399.68,-1027.18 407.92,-1032.1 416.74,-1035.71"/>
<polygon fill="midnightblue" stroke="midnightblue" points="276.85,-554.28 272.2,-544.75 269.9,-555.09 276.85,-554.28"/>
</g>
<!-- Node4 -->
<g id="node4" class="node">
<title>Node4</title>
<g id="a_node4"><a xlink:href="classQuantConnect_1_1Brokerages_1_1AlphaStreamsBrokerageModel.html" target="_top" xlink:title="Provides properties specific to Alpha Streams">
<polygon fill="white" stroke="black" points="408,-980.5 408,-1010.5 572,-1010.5 572,-980.5 408,-980.5"/>
<text text-anchor="start" x="416" y="-998.5" font-family="Helvetica,sans-Serif" font-size="10.00">QuantConnect.Brokerages.</text>
<text text-anchor="middle" x="490" y="-987.5" font-family="Helvetica,sans-Serif" font-size="10.00">AlphaStreamsBrokerageModel</text>
</a>
</g>
</g>
<!-- Node2&#45;&gt;Node4 -->
<g id="edge3" class="edge">
<title>Node2&#45;&gt;Node4</title>
<path fill="none" stroke="midnightblue" d="M274.11,-554.63C286.73,-639.21 331.55,-911.59 393,-971.5 397.43,-975.82 402.51,-979.4 407.97,-982.36"/>
<polygon fill="midnightblue" stroke="midnightblue" points="277.55,-554.01 272.63,-544.62 270.63,-555.03 277.55,-554.01"/>
</g>
<!-- Node5 -->
<g id="node5" class="node">
<title>Node5</title>
<g id="a_node5"><a xlink:href="classQuantConnect_1_1Brokerages_1_1AxosClearingBrokerageModel.html" target="_top" xlink:title="Provides the Axos clearing brokerage model specific properties">
<polygon fill="white" stroke="black" points="410,-931.5 410,-961.5 570,-961.5 570,-931.5 410,-931.5"/>
<text text-anchor="start" x="418" y="-949.5" font-family="Helvetica,sans-Serif" font-size="10.00">QuantConnect.Brokerages.</text>
<text text-anchor="middle" x="490" y="-938.5" font-family="Helvetica,sans-Serif" font-size="10.00">AxosClearingBrokerageModel</text>
</a>
</g>
</g>
<!-- Node2&#45;&gt;Node5 -->
<g id="edge4" class="edge">
<title>Node2&#45;&gt;Node5</title>
<path fill="none" stroke="midnightblue" d="M270.4,-554.65C271.56,-624.12 284.74,-820.26 393,-922.5 398,-927.22 403.77,-931.05 409.97,-934.15"/>
<polygon fill="midnightblue" stroke="midnightblue" points="273.9,-554.59 270.31,-544.62 266.9,-554.65 273.9,-554.59"/>
</g>
<!-- Node6 -->
<g id="node6" class="node">
<title>Node6</title>
<g id="a_node6"><a xlink:href="classQuantConnect_1_1Brokerages_1_1BinanceBrokerageModel.html" target="_top" xlink:title="Provides Binance specific properties">
<polygon fill="white" stroke="black" points="417,-882.5 417,-912.5 563,-912.5 563,-882.5 417,-882.5"/>
<text text-anchor="start" x="425" y="-900.5" font-family="Helvetica,sans-Serif" font-size="10.00">QuantConnect.Brokerages.</text>
<text text-anchor="middle" x="490" y="-889.5" font-family="Helvetica,sans-Serif" font-size="10.00">BinanceBrokerageModel</text>
</a>
</g>
</g>
<!-- Node2&#45;&gt;Node6 -->
<g id="edge5" class="edge">
<title>Node2&#45;&gt;Node6</title>
<path fill="none" stroke="midnightblue" d="M271.71,-554.89C276.16,-618.59 296.89,-786.3 393,-873.5 399.87,-879.73 408.11,-884.41 416.85,-887.9"/>
<polygon fill="midnightblue" stroke="midnightblue" points="275.18,-554.35 271.07,-544.58 268.19,-554.78 275.18,-554.35"/>
</g>
<!-- Node10 -->
<g id="node10" class="node">
<title>Node10</title>
<g id="a_node10"><a xlink:href="classQuantConnect_1_1Brokerages_1_1BitfinexBrokerageModel.html" target="_top" xlink:title="Provides Bitfinex specific properties">
<polygon fill="white" stroke="black" points="417,-833.5 417,-863.5 563,-863.5 563,-833.5 417,-833.5"/>
<text text-anchor="start" x="425" y="-851.5" font-family="Helvetica,sans-Serif" font-size="10.00">QuantConnect.Brokerages.</text>
<text text-anchor="middle" x="490" y="-840.5" font-family="Helvetica,sans-Serif" font-size="10.00">BitfinexBrokerageModel</text>
</a>
</g>
</g>
<!-- Node2&#45;&gt;Node10 -->
<g id="edge9" class="edge">
<title>Node2&#45;&gt;Node10</title>
<path fill="none" stroke="midnightblue" d="M273.39,-554.79C281.31,-611.98 308.73,-751.91 393,-824.5 399.9,-830.44 408.06,-834.95 416.65,-838.37"/>
<polygon fill="midnightblue" stroke="midnightblue" points="276.85,-554.27 272.09,-544.8 269.91,-555.17 276.85,-554.27"/>
</g>
<!-- Node11 -->
<g id="node11" class="node">
<title>Node11</title>
<g id="a_node11"><a xlink:href="classQuantConnect_1_1Brokerages_1_1CharlesSchwabBrokerageModel.html" target="_top" xlink:title="Represents a brokerage model specific to Charles Schwab.">
<polygon fill="white" stroke="black" points="405,-784.5 405,-814.5 575,-814.5 575,-784.5 405,-784.5"/>
<text text-anchor="start" x="413" y="-802.5" font-family="Helvetica,sans-Serif" font-size="10.00">QuantConnect.Brokerages.</text>
<text text-anchor="middle" x="490" y="-791.5" font-family="Helvetica,sans-Serif" font-size="10.00">CharlesSchwabBrokerageModel</text>
</a>
</g>
</g>
<!-- Node2&#45;&gt;Node11 -->
<g id="edge10" class="edge">
<title>Node2&#45;&gt;Node11</title>
<path fill="none" stroke="midnightblue" d="M275.67,-554.68C287.3,-604.79 320.41,-717.17 393,-775.5 397.29,-778.94 402,-781.9 406.97,-784.44"/>
<polygon fill="midnightblue" stroke="midnightblue" points="279.03,-553.7 273.44,-544.7 272.2,-555.23 279.03,-553.7"/>
</g>
<!-- Node12 -->
<g id="node12" class="node">
<title>Node12</title>
<g id="a_node12"><a xlink:href="classQuantConnect_1_1Brokerages_1_1CoinbaseBrokerageModel.html" target="_top" xlink:title="Represents a brokerage model for interacting with the Coinbase exchange. This class extends the defau...">
<polygon fill="white" stroke="black" points="417,-735.5 417,-765.5 563,-765.5 563,-735.5 417,-735.5"/>
<text text-anchor="start" x="425" y="-753.5" font-family="Helvetica,sans-Serif" font-size="10.00">QuantConnect.Brokerages.</text>
<text text-anchor="middle" x="490" y="-742.5" font-family="Helvetica,sans-Serif" font-size="10.00">CoinbaseBrokerageModel</text>
</a>
</g>
</g>
<!-- Node2&#45;&gt;Node12 -->
<g id="edge11" class="edge">
<title>Node2&#45;&gt;Node12</title>
<path fill="none" stroke="midnightblue" d="M278.97,-554.19C294.63,-596.07 332.2,-680.84 393,-725.5 400.08,-730.7 408.15,-734.82 416.53,-738.08"/>
<polygon fill="midnightblue" stroke="midnightblue" points="282.24,-552.95 275.54,-544.75 275.66,-555.34 282.24,-552.95"/>
</g>
<!-- Node14 -->
<g id="node14" class="node">
<title>Node14</title>
<g id="a_node14"><a xlink:href="classQuantConnect_1_1Brokerages_1_1ExanteBrokerageModel.html" target="_top" xlink:title="Exante Brokerage Model Implementation for Back Testing.">
<polygon fill="white" stroke="black" points="417,-686.5 417,-716.5 563,-716.5 563,-686.5 417,-686.5"/>
<text text-anchor="start" x="425" y="-704.5" font-family="Helvetica,sans-Serif" font-size="10.00">QuantConnect.Brokerages.</text>
<text text-anchor="middle" x="490" y="-693.5" font-family="Helvetica,sans-Serif" font-size="10.00">ExanteBrokerageModel</text>
</a>
</g>
</g>
<!-- Node2&#45;&gt;Node14 -->
<g id="edge13" class="edge">
<title>Node2&#45;&gt;Node14</title>
<path fill="none" stroke="midnightblue" d="M283.95,-553.59C303.58,-586.47 343.22,-644.91 393,-676.5 400.27,-681.11 408.36,-684.88 416.68,-687.95"/>
<polygon fill="midnightblue" stroke="midnightblue" points="286.8,-551.52 278.73,-544.65 280.75,-555.05 286.8,-551.52"/>
</g>
<!-- Node15 -->
<g id="node15" class="node">
<title>Node15</title>
<g id="a_node15"><a xlink:href="classQuantConnect_1_1Brokerages_1_1EzeBrokerageModel.html" target="_top" xlink:title="Provides Eze specific properties">
<polygon fill="white" stroke="black" points="417,-637.5 417,-667.5 563,-667.5 563,-637.5 417,-637.5"/>
<text text-anchor="start" x="425" y="-655.5" font-family="Helvetica,sans-Serif" font-size="10.00">QuantConnect.Brokerages.</text>
<text text-anchor="middle" x="490" y="-644.5" font-family="Helvetica,sans-Serif" font-size="10.00">EzeBrokerageModel</text>
</a>
</g>
</g>
<!-- Node2&#45;&gt;Node15 -->
<g id="edge14" class="edge">
<title>Node2&#45;&gt;Node15</title>
<path fill="none" stroke="midnightblue" d="M292.47,-551.93C315.54,-574.23 353.85,-607.87 393,-627.5 400.7,-631.36 409.05,-634.67 417.51,-637.49"/>
<polygon fill="midnightblue" stroke="midnightblue" points="294.84,-549.35 285.25,-544.83 289.93,-554.34 294.84,-549.35"/>
</g>
<!-- Node16 -->
<g id="node16" class="node">
<title>Node16</title>
<g id="a_node16"><a xlink:href="classQuantConnect_1_1Brokerages_1_1FTXBrokerageModel.html" target="_top" xlink:title="FTX Brokerage model">
<polygon fill="white" stroke="black" points="417,-588.5 417,-618.5 563,-618.5 563,-588.5 417,-588.5"/>
<text text-anchor="start" x="425" y="-606.5" font-family="Helvetica,sans-Serif" font-size="10.00">QuantConnect.Brokerages.</text>
<text text-anchor="middle" x="490" y="-595.5" font-family="Helvetica,sans-Serif" font-size="10.00">FTXBrokerageModel</text>
</a>
</g>
</g>
<!-- Node2&#45;&gt;Node16 -->
<g id="edge15" class="edge">
<title>Node2&#45;&gt;Node16</title>
<path fill="none" stroke="midnightblue" d="M313.89,-548.4C337.1,-558.12 366.32,-569.73 393,-578.5 403.8,-582.05 415.41,-585.43 426.7,-588.49"/>
<polygon fill="midnightblue" stroke="midnightblue" points="315.23,-545.17 304.66,-544.51 312.51,-551.62 315.23,-545.17"/>
</g>
<!-- Node18 -->
<g id="node18" class="node">
<title>Node18</title>
<g id="a_node18"><a xlink:href="classQuantConnect_1_1Brokerages_1_1FxcmBrokerageModel.html" target="_top" xlink:title="Provides FXCM specific properties">
<polygon fill="white" stroke="black" points="417,-539.5 417,-569.5 563,-569.5 563,-539.5 417,-539.5"/>
<text text-anchor="start" x="425" y="-557.5" font-family="Helvetica,sans-Serif" font-size="10.00">QuantConnect.Brokerages.</text>
<text text-anchor="middle" x="490" y="-546.5" font-family="Helvetica,sans-Serif" font-size="10.00">FxcmBrokerageModel</text>
</a>
</g>
</g>
<!-- Node2&#45;&gt;Node18 -->
<g id="edge17" class="edge">
<title>Node2&#45;&gt;Node18</title>
<path fill="none" stroke="midnightblue" d="M352.86,-538.92C373.93,-541.33 396.42,-543.91 416.93,-546.25"/>
<polygon fill="midnightblue" stroke="midnightblue" points="352.98,-535.41 342.65,-537.76 352.19,-542.37 352.98,-535.41"/>
</g>
<!-- Node19 -->
<g id="node19" class="node">
<title>Node19</title>
<g id="a_node19"><a xlink:href="classQuantConnect_1_1Brokerages_1_1InteractiveBrokersBrokerageModel.html" target="_top" xlink:title="Provides properties specific to interactive brokers">
<polygon fill="white" stroke="black" points="397.5,-490.5 397.5,-520.5 582.5,-520.5 582.5,-490.5 397.5,-490.5"/>
<text text-anchor="start" x="405.5" y="-508.5" font-family="Helvetica,sans-Serif" font-size="10.00">QuantConnect.Brokerages.</text>
<text text-anchor="middle" x="490" y="-497.5" font-family="Helvetica,sans-Serif" font-size="10.00">InteractiveBrokersBrokerageModel</text>
</a>
</g>
</g>
<!-- Node2&#45;&gt;Node19 -->
<g id="edge18" class="edge">
<title>Node2&#45;&gt;Node19</title>
<path fill="none" stroke="midnightblue" d="M352.65,-520.48C367.27,-518.87 382.58,-517.19 397.44,-515.56"/>
<polygon fill="midnightblue" stroke="midnightblue" points="352.21,-517 342.65,-521.57 352.97,-523.96 352.21,-517"/>
</g>
<!-- Node20 -->
<g id="node20" class="node">
<title>Node20</title>
<g id="a_node20"><a xlink:href="classQuantConnect_1_1Brokerages_1_1KrakenBrokerageModel.html" target="_top" xlink:title="Kraken Brokerage model">
<polygon fill="white" stroke="black" points="417,-441.5 417,-471.5 563,-471.5 563,-441.5 417,-441.5"/>
<text text-anchor="start" x="425" y="-459.5" font-family="Helvetica,sans-Serif" font-size="10.00">QuantConnect.Brokerages.</text>
<text text-anchor="middle" x="490" y="-448.5" font-family="Helvetica,sans-Serif" font-size="10.00">KrakenBrokerageModel</text>
</a>
</g>
</g>
<!-- Node2&#45;&gt;Node20 -->
<g id="edge19" class="edge">
<title>Node2&#45;&gt;Node20</title>
<path fill="none" stroke="midnightblue" d="M341.21,-511.03C346.63,-509.02 351.95,-506.85 357,-504.5 374.44,-496.4 375.41,-488.28 393,-480.5 400.7,-477.09 408.97,-474.11 417.31,-471.52"/>
<polygon fill="midnightblue" stroke="midnightblue" points="339.68,-507.86 331.39,-514.47 341.99,-514.47 339.68,-507.86"/>
</g>
<!-- Node21 -->
<g id="node21" class="node">
<title>Node21</title>
<g id="a_node21"><a xlink:href="classQuantConnect_1_1Brokerages_1_1OandaBrokerageModel.html" target="_top" xlink:title="Oanda Brokerage Model Implementation for Back Testing.">
<polygon fill="white" stroke="black" points="417,-392.5 417,-422.5 563,-422.5 563,-392.5 417,-392.5"/>
<text text-anchor="start" x="425" y="-410.5" font-family="Helvetica,sans-Serif" font-size="10.00">QuantConnect.Brokerages.</text>
<text text-anchor="middle" x="490" y="-399.5" font-family="Helvetica,sans-Serif" font-size="10.00">OandaBrokerageModel</text>
</a>
</g>
</g>
<!-- Node2&#45;&gt;Node21 -->
<g id="edge20" class="edge">
<title>Node2&#45;&gt;Node21</title>
<path fill="none" stroke="midnightblue" d="M350.55,-509.29C352.8,-507.81 354.95,-506.21 357,-504.5 384.74,-481.28 364.84,-454.21 393,-431.5 399.95,-425.89 408.04,-421.57 416.52,-418.25"/>
<polygon fill="midnightblue" stroke="midnightblue" points="348.43,-506.48 341.51,-514.5 351.93,-512.54 348.43,-506.48"/>
</g>
<!-- Node22 -->
<g id="node22" class="node">
<title>Node22</title>
<g id="a_node22"><a xlink:href="classQuantConnect_1_1Brokerages_1_1RBIBrokerageModel.html" target="_top" xlink:title="RBI Brokerage model">
<polygon fill="white" stroke="black" points="417,-343.5 417,-373.5 563,-373.5 563,-343.5 417,-343.5"/>
<text text-anchor="start" x="425" y="-361.5" font-family="Helvetica,sans-Serif" font-size="10.00">QuantConnect.Brokerages.</text>
<text text-anchor="middle" x="490" y="-350.5" font-family="Helvetica,sans-Serif" font-size="10.00">RBIBrokerageModel</text>
</a>
</g>
</g>
<!-- Node2&#45;&gt;Node22 -->
<g id="edge21" class="edge">
<title>Node2&#45;&gt;Node22</title>
<path fill="none" stroke="midnightblue" d="M351.12,-509.61C353.19,-508.03 355.16,-506.33 357,-504.5 397.09,-464.64 352.19,-421.63 393,-382.5 399.7,-376.08 407.84,-371.3 416.52,-367.75"/>
<polygon fill="midnightblue" stroke="midnightblue" points="349.16,-506.71 342.68,-515.1 352.97,-512.58 349.16,-506.71"/>
</g>
<!-- Node23 -->
<g id="node23" class="node">
<title>Node23</title>
<g id="a_node23"><a xlink:href="classQuantConnect_1_1Brokerages_1_1SamcoBrokerageModel.html" target="_top" xlink:title="Brokerage Model implementation for Samco">
<polygon fill="white" stroke="black" points="417,-294.5 417,-324.5 563,-324.5 563,-294.5 417,-294.5"/>
<text text-anchor="start" x="425" y="-312.5" font-family="Helvetica,sans-Serif" font-size="10.00">QuantConnect.Brokerages.</text>
<text text-anchor="middle" x="490" y="-301.5" font-family="Helvetica,sans-Serif" font-size="10.00">SamcoBrokerageModel</text>
</a>
</g>
</g>
<!-- Node2&#45;&gt;Node23 -->
<g id="edge22" class="edge">
<title>Node2&#45;&gt;Node23</title>
<path fill="none" stroke="midnightblue" d="M351.15,-509.93C353.23,-508.26 355.18,-506.45 357,-504.5 409.85,-447.59 339.12,-389.44 393,-333.5 399.67,-326.57 408.02,-321.52 416.99,-317.87"/>
<polygon fill="midnightblue" stroke="midnightblue" points="348.96,-507.19 342.65,-515.69 352.89,-512.98 348.96,-507.19"/>
</g>
<!-- Node24 -->
<g id="node24" class="node">
<title>Node24</title>
<g id="a_node24"><a xlink:href="classQuantConnect_1_1Brokerages_1_1TDAmeritradeBrokerageModel.html" target="_top" xlink:title="TDAmeritrade">
<polygon fill="white" stroke="black" points="408,-245.5 408,-275.5 572,-275.5 572,-245.5 408,-245.5"/>
<text text-anchor="start" x="416" y="-263.5" font-family="Helvetica,sans-Serif" font-size="10.00">QuantConnect.Brokerages.</text>
<text text-anchor="middle" x="490" y="-252.5" font-family="Helvetica,sans-Serif" font-size="10.00">TDAmeritradeBrokerageModel</text>
</a>
</g>
</g>
<!-- Node2&#45;&gt;Node24 -->
<g id="edge23" class="edge">
<title>Node2&#45;&gt;Node24</title>
<path fill="none" stroke="midnightblue" d="M351.27,-510.03C353.31,-508.34 355.23,-506.49 357,-504.5 422.76,-430.39 325.9,-357.4 393,-284.5 397.3,-279.82 402.37,-276 407.89,-272.87"/>
<polygon fill="midnightblue" stroke="midnightblue" points="349.07,-507.3 342.87,-515.89 353.07,-513.04 349.07,-507.3"/>
</g>
<!-- Node25 -->
<g id="node25" class="node">
<title>Node25</title>
<g id="a_node25"><a xlink:href="classQuantConnect_1_1Brokerages_1_1TradeStationBrokerageModel.html" target="_top" xlink:title="Represents a brokerage model specific to TradeStation.">
<polygon fill="white" stroke="black" points="411.5,-196.5 411.5,-226.5 568.5,-226.5 568.5,-196.5 411.5,-196.5"/>
<text text-anchor="start" x="419.5" y="-214.5" font-family="Helvetica,sans-Serif" font-size="10.00">QuantConnect.Brokerages.</text>
<text text-anchor="middle" x="490" y="-203.5" font-family="Helvetica,sans-Serif" font-size="10.00">TradeStationBrokerageModel</text>
</a>
</g>
</g>
<!-- Node2&#45;&gt;Node25 -->
<g id="edge24" class="edge">
<title>Node2&#45;&gt;Node25</title>
<path fill="none" stroke="midnightblue" d="M351.19,-510.23C353.27,-508.48 355.21,-506.57 357,-504.5 435.74,-413.12 312.61,-325.43 393,-235.5 398.15,-229.74 404.46,-225.26 411.36,-221.79"/>
<polygon fill="midnightblue" stroke="midnightblue" points="348.78,-507.65 342.61,-516.26 352.8,-513.38 348.78,-507.65"/>
</g>
<!-- Node26 -->
<g id="node26" class="node">
<title>Node26</title>
<g id="a_node26"><a xlink:href="classQuantConnect_1_1Brokerages_1_1TradierBrokerageModel.html" target="_top" xlink:title="Provides tradier specific properties">
<polygon fill="white" stroke="black" points="417,-147.5 417,-177.5 563,-177.5 563,-147.5 417,-147.5"/>
<text text-anchor="start" x="425" y="-165.5" font-family="Helvetica,sans-Serif" font-size="10.00">QuantConnect.Brokerages.</text>
<text text-anchor="middle" x="490" y="-154.5" font-family="Helvetica,sans-Serif" font-size="10.00">TradierBrokerageModel</text>
</a>
</g>
</g>
<!-- Node2&#45;&gt;Node26 -->
<g id="edge25" class="edge">
<title>Node2&#45;&gt;Node26</title>
<path fill="none" stroke="midnightblue" d="M351.25,-510.28C353.31,-508.51 355.24,-506.59 357,-504.5 448.75,-395.81 299.29,-293.5 393,-186.5 399.45,-179.13 407.79,-173.86 416.85,-170.11"/>
<polygon fill="midnightblue" stroke="midnightblue" points="348.83,-507.7 342.71,-516.34 352.89,-513.41 348.83,-507.7"/>
</g>
<!-- Node27 -->
<g id="node27" class="node">
<title>Node27</title>
<g id="a_node27"><a xlink:href="classQuantConnect_1_1Brokerages_1_1TradingTechnologiesBrokerageModel.html" target="_top" xlink:title="Provides properties specific to Trading Technologies">
<polygon fill="white" stroke="black" points="393,-98.5 393,-128.5 587,-128.5 587,-98.5 393,-98.5"/>
<text text-anchor="start" x="401" y="-116.5" font-family="Helvetica,sans-Serif" font-size="10.00">QuantConnect.Brokerages.</text>
<text text-anchor="middle" x="490" y="-105.5" font-family="Helvetica,sans-Serif" font-size="10.00">TradingTechnologiesBrokerageModel</text>
</a>
</g>
</g>
<!-- Node2&#45;&gt;Node27 -->
<g id="edge26" class="edge">
<title>Node2&#45;&gt;Node27</title>
<path fill="none" stroke="midnightblue" d="M351.29,-510.31C353.34,-508.54 355.25,-506.6 357,-504.5 409.39,-441.49 339.47,-199.55 393,-137.5 395.92,-134.12 399.23,-131.18 402.83,-128.62"/>
<polygon fill="midnightblue" stroke="midnightblue" points="348.87,-507.74 342.79,-516.41 352.95,-513.43 348.87,-507.74"/>
</g>
<!-- Node28 -->
<g id="node28" class="node">
<title>Node28</title>
<g id="a_node28"><a xlink:href="classQuantConnect_1_1Brokerages_1_1WolverineBrokerageModel.html" target="_top" xlink:title="Wolverine Brokerage model">
<polygon fill="white" stroke="black" points="417,-49.5 417,-79.5 563,-79.5 563,-49.5 417,-49.5"/>
<text text-anchor="start" x="425" y="-67.5" font-family="Helvetica,sans-Serif" font-size="10.00">QuantConnect.Brokerages.</text>
<text text-anchor="middle" x="490" y="-56.5" font-family="Helvetica,sans-Serif" font-size="10.00">WolverineBrokerageModel</text>
</a>
</g>
</g>
<!-- Node2&#45;&gt;Node28 -->
<g id="edge27" class="edge">
<title>Node2&#45;&gt;Node28</title>
<path fill="none" stroke="midnightblue" d="M351.32,-510.34C353.36,-508.55 355.26,-506.61 357,-504.5 415.91,-432.81 332.79,-159.11 393,-88.5 399.35,-81.05 407.64,-75.73 416.68,-71.95"/>
<polygon fill="midnightblue" stroke="midnightblue" points="348.9,-507.77 342.85,-516.46 353,-513.44 348.9,-507.77"/>
</g>
<!-- Node29 -->
<g id="node29" class="node">
<title>Node29</title>
<g id="a_node29"><a xlink:href="classQuantConnect_1_1Brokerages_1_1ZerodhaBrokerageModel.html" target="_top" xlink:title="Brokerage Model implementation for Zerodha">
<polygon fill="white" stroke="black" points="417,-0.5 417,-30.5 563,-30.5 563,-0.5 417,-0.5"/>
<text text-anchor="start" x="425" y="-18.5" font-family="Helvetica,sans-Serif" font-size="10.00">QuantConnect.Brokerages.</text>
<text text-anchor="middle" x="490" y="-7.5" font-family="Helvetica,sans-Serif" font-size="10.00">ZerodhaBrokerageModel</text>
</a>
</g>
</g>
<!-- Node2&#45;&gt;Node29 -->
<g id="edge28" class="edge">
<title>Node2&#45;&gt;Node29</title>
<path fill="none" stroke="midnightblue" d="M351.35,-510.36C353.38,-508.57 355.27,-506.62 357,-504.5 422.44,-424.13 326.11,-118.67 393,-39.5 399.32,-32.02 407.58,-26.68 416.62,-22.9"/>
<polygon fill="midnightblue" stroke="midnightblue" points="348.93,-507.79 342.89,-516.5 353.04,-513.45 348.93,-507.79"/>
</g>
<!-- Node7 -->
<g id="node7" class="node">
<title>Node7</title>
<g id="a_node7"><a xlink:href="classQuantConnect_1_1Brokerages_1_1BinanceFuturesBrokerageModel.html" target="_top" xlink:title="Provides Binance Futures specific properties">
<polygon fill="white" stroke="black" points="623,-906.5 623,-936.5 794,-936.5 794,-906.5 623,-906.5"/>
<text text-anchor="start" x="631" y="-924.5" font-family="Helvetica,sans-Serif" font-size="10.00">QuantConnect.Brokerages.</text>
<text text-anchor="middle" x="708.5" y="-913.5" font-family="Helvetica,sans-Serif" font-size="10.00">BinanceFuturesBrokerageModel</text>
</a>
</g>
</g>
<!-- Node6&#45;&gt;Node7 -->
<g id="edge6" class="edge">
<title>Node6&#45;&gt;Node7</title>
<path fill="none" stroke="midnightblue" d="M573.12,-906.6C589.43,-908.41 606.58,-910.31 622.97,-912.13"/>
<polygon fill="midnightblue" stroke="midnightblue" points="573.42,-903.11 563.09,-905.49 572.64,-910.07 573.42,-903.11"/>
</g>
<!-- Node9 -->
<g id="node9" class="node">
<title>Node9</title>
<g id="a_node9"><a xlink:href="classQuantConnect_1_1Brokerages_1_1BinanceUSBrokerageModel.html" target="_top" xlink:title="Provides Binance.US specific properties">
<polygon fill="white" stroke="black" points="634,-857.5 634,-887.5 783,-887.5 783,-857.5 634,-857.5"/>
<text text-anchor="start" x="642" y="-875.5" font-family="Helvetica,sans-Serif" font-size="10.00">QuantConnect.Brokerages.</text>
<text text-anchor="middle" x="708.5" y="-864.5" font-family="Helvetica,sans-Serif" font-size="10.00">BinanceUSBrokerageModel</text>
</a>
</g>
</g>
<!-- Node6&#45;&gt;Node9 -->
<g id="edge8" class="edge">
<title>Node6&#45;&gt;Node9</title>
<path fill="none" stroke="midnightblue" d="M573.1,-888.02C593.07,-885.71 614.32,-883.26 633.87,-881"/>
<polygon fill="midnightblue" stroke="midnightblue" points="572.62,-884.55 563.09,-889.18 573.43,-891.51 572.62,-884.55"/>
</g>
<!-- Node8 -->
<g id="node8" class="node">
<title>Node8</title>
<g id="a_node8"><a xlink:href="classQuantConnect_1_1Brokerages_1_1BinanceCoinFuturesBrokerageModel.html" target="_top" xlink:title="Provides Binance Coin Futures specific properties">
<polygon fill="white" stroke="black" points="830,-906.5 830,-936.5 1023,-936.5 1023,-906.5 830,-906.5"/>
<text text-anchor="start" x="838" y="-924.5" font-family="Helvetica,sans-Serif" font-size="10.00">QuantConnect.Brokerages.</text>
<text text-anchor="middle" x="926.5" y="-913.5" font-family="Helvetica,sans-Serif" font-size="10.00">BinanceCoinFuturesBrokerageModel</text>
</a>
</g>
</g>
<!-- Node7&#45;&gt;Node8 -->
<g id="edge7" class="edge">
<title>Node7&#45;&gt;Node8</title>
<path fill="none" stroke="midnightblue" d="M804.48,-921.5C812.92,-921.5 821.47,-921.5 829.91,-921.5"/>
<polygon fill="midnightblue" stroke="midnightblue" points="804.25,-918 794.25,-921.5 804.25,-925 804.25,-918"/>
</g>
<!-- Node13 -->
<g id="node13" class="node">
<title>Node13</title>
<g id="a_node13"><a xlink:href="classQuantConnect_1_1Brokerages_1_1GDAXBrokerageModel.html" target="_top" xlink:title="Provides GDAX specific properties">
<polygon fill="white" stroke="black" points="635.5,-735.5 635.5,-765.5 781.5,-765.5 781.5,-735.5 635.5,-735.5"/>
<text text-anchor="start" x="643.5" y="-753.5" font-family="Helvetica,sans-Serif" font-size="10.00">QuantConnect.Brokerages.</text>
<text text-anchor="middle" x="708.5" y="-742.5" font-family="Helvetica,sans-Serif" font-size="10.00">GDAXBrokerageModel</text>
</a>
</g>
</g>
<!-- Node12&#45;&gt;Node13 -->
<g id="edge12" class="edge">
<title>Node12&#45;&gt;Node13</title>
<path fill="none" stroke="midnightblue" d="M573.31,-750.5C593.73,-750.5 615.46,-750.5 635.35,-750.5"/>
<polygon fill="midnightblue" stroke="midnightblue" points="573.09,-747 563.09,-750.5 573.09,-754 573.09,-747"/>
</g>
<!-- Node17 -->
<g id="node17" class="node">
<title>Node17</title>
<g id="a_node17"><a xlink:href="classQuantConnect_1_1Brokerages_1_1FTXUSBrokerageModel.html" target="_top" xlink:title="FTX.US Brokerage model">
<polygon fill="white" stroke="black" points="635.5,-588.5 635.5,-618.5 781.5,-618.5 781.5,-588.5 635.5,-588.5"/>
<text text-anchor="start" x="643.5" y="-606.5" font-family="Helvetica,sans-Serif" font-size="10.00">QuantConnect.Brokerages.</text>
<text text-anchor="middle" x="708.5" y="-595.5" font-family="Helvetica,sans-Serif" font-size="10.00">FTXUSBrokerageModel</text>
</a>
</g>
</g>
<!-- Node16&#45;&gt;Node17 -->
<g id="edge16" class="edge">
<title>Node16&#45;&gt;Node17</title>
<path fill="none" stroke="midnightblue" d="M573.31,-603.5C593.73,-603.5 615.46,-603.5 635.35,-603.5"/>
<polygon fill="midnightblue" stroke="midnightblue" points="573.09,-600 563.09,-603.5 573.09,-607 573.09,-600"/>
</g>
</g>
</svg>
