<?xml version="1.0" encoding="UTF-8" standalone="no"?>
<!DOCTYPE svg PUBLIC "-//W3C//DTD SVG 1.1//EN"
 "http://www.w3.org/Graphics/SVG/1.1/DTD/svg11.dtd">
<!-- Generated by graphviz version 2.43.0 (0)
 -->
<!-- Title: QuantConnect.Interfaces.IDataProvider Pages: 1 -->
<svg width="856pt" height="137pt"
 viewBox="0.00 0.00 856.00 137.00" xmlns="http://www.w3.org/2000/svg" xmlns:xlink="http://www.w3.org/1999/xlink">
<g id="graph0" class="graph" transform="scale(1 1) rotate(0) translate(4 133)">
<title>QuantConnect.Interfaces.IDataProvider</title>
<polygon fill="white" stroke="transparent" points="-4,4 -4,-133 852,-133 852,4 -4,4"/>
<!-- Node1 -->
<g id="node1" class="node">
<title>Node1</title>
<g id="a_node1"><a xlink:title="Fetches a remote file for a security. Must save the file to Globals.DataFolder.">
<polygon fill="#bfbfbf" stroke="black" points="0,-49.5 0,-79.5 140,-79.5 140,-49.5 0,-49.5"/>
<text text-anchor="start" x="8" y="-67.5" font-family="Helvetica,sans-Serif" font-size="10.00">QuantConnect.Interfaces.</text>
<text text-anchor="middle" x="70" y="-56.5" font-family="Helvetica,sans-Serif" font-size="10.00">IDataProvider</text>
</a>
</g>
</g>
<!-- Node2 -->
<g id="node2" class="node">
<title>Node2</title>
<g id="a_node2"><a xlink:href="classQuantConnect_1_1Lean_1_1Engine_1_1DataFeeds_1_1CompositeDataProvider.html" target="_top" xlink:title="This data provider will wrap and use multiple data providers internally in the provided order">
<polygon fill="white" stroke="black" points="176,-98.5 176,-128.5 364,-128.5 364,-98.5 176,-98.5"/>
<text text-anchor="start" x="184" y="-116.5" font-family="Helvetica,sans-Serif" font-size="10.00">QuantConnect.Lean.Engine.</text>
<text text-anchor="middle" x="270" y="-105.5" font-family="Helvetica,sans-Serif" font-size="10.00">DataFeeds.CompositeDataProvider</text>
</a>
</g>
</g>
<!-- Node1&#45;&gt;Node2 -->
<g id="edge1" class="edge">
<title>Node1&#45;&gt;Node2</title>
<path fill="none" stroke="midnightblue" d="M141.62,-81.98C163.44,-87.38 187.28,-93.28 208.36,-98.49"/>
<polygon fill="midnightblue" stroke="midnightblue" points="142.3,-78.54 131.75,-79.53 140.62,-85.33 142.3,-78.54"/>
</g>
<!-- Node3 -->
<g id="node3" class="node">
<title>Node3</title>
<g id="a_node3"><a xlink:href="classQuantConnect_1_1Lean_1_1Engine_1_1DataFeeds_1_1DefaultDataProvider.html" target="_top" xlink:title="Default file provider functionality that retrieves data from disc to be used in an algorithm">
<polygon fill="white" stroke="black" points="184.5,-49.5 184.5,-79.5 355.5,-79.5 355.5,-49.5 184.5,-49.5"/>
<text text-anchor="start" x="192.5" y="-67.5" font-family="Helvetica,sans-Serif" font-size="10.00">QuantConnect.Lean.Engine.</text>
<text text-anchor="middle" x="270" y="-56.5" font-family="Helvetica,sans-Serif" font-size="10.00">DataFeeds.DefaultDataProvider</text>
</a>
</g>
</g>
<!-- Node1&#45;&gt;Node3 -->
<g id="edge2" class="edge">
<title>Node1&#45;&gt;Node3</title>
<path fill="none" stroke="midnightblue" d="M150.42,-64.5C161.62,-64.5 173.17,-64.5 184.46,-64.5"/>
<polygon fill="midnightblue" stroke="midnightblue" points="150.25,-61 140.25,-64.5 150.25,-68 150.25,-61"/>
</g>
<!-- Node7 -->
<g id="node7" class="node">
<title>Node7</title>
<g id="a_node7"><a xlink:href="classQuantConnect_1_1Lean_1_1Engine_1_1DataFeeds_1_1ProcessedDataProvider.html" target="_top" xlink:title="A data provider that will check the processed data folder first">
<polygon fill="white" stroke="black" points="177.5,-0.5 177.5,-30.5 362.5,-30.5 362.5,-0.5 177.5,-0.5"/>
<text text-anchor="start" x="185.5" y="-18.5" font-family="Helvetica,sans-Serif" font-size="10.00">QuantConnect.Lean.Engine.</text>
<text text-anchor="middle" x="270" y="-7.5" font-family="Helvetica,sans-Serif" font-size="10.00">DataFeeds.ProcessedDataProvider</text>
</a>
</g>
</g>
<!-- Node1&#45;&gt;Node7 -->
<g id="edge6" class="edge">
<title>Node1&#45;&gt;Node7</title>
<path fill="none" stroke="midnightblue" d="M141.62,-47.02C163.44,-41.62 187.28,-35.72 208.36,-30.51"/>
<polygon fill="midnightblue" stroke="midnightblue" points="140.62,-43.67 131.75,-49.47 142.3,-50.46 140.62,-43.67"/>
</g>
<!-- Node4 -->
<g id="node4" class="node">
<title>Node4</title>
<g id="a_node4"><a xlink:href="classQuantConnect_1_1Lean_1_1Engine_1_1DataFeeds_1_1BaseDownloaderDataProvider.html" target="_top" xlink:title="Base downloader implementation with some helper methods">
<polygon fill="white" stroke="black" points="400,-49.5 400,-79.5 618,-79.5 618,-49.5 400,-49.5"/>
<text text-anchor="start" x="408" y="-67.5" font-family="Helvetica,sans-Serif" font-size="10.00">QuantConnect.Lean.Engine.</text>
<text text-anchor="middle" x="509" y="-56.5" font-family="Helvetica,sans-Serif" font-size="10.00">DataFeeds.BaseDownloaderDataProvider</text>
</a>
</g>
</g>
<!-- Node3&#45;&gt;Node4 -->
<g id="edge3" class="edge">
<title>Node3&#45;&gt;Node4</title>
<path fill="none" stroke="midnightblue" d="M365.76,-64.5C376.97,-64.5 388.48,-64.5 399.86,-64.5"/>
<polygon fill="midnightblue" stroke="midnightblue" points="365.56,-61 355.56,-64.5 365.56,-68 365.56,-61"/>
</g>
<!-- Node5 -->
<g id="node5" class="node">
<title>Node5</title>
<g id="a_node5"><a xlink:href="classQuantConnect_1_1Lean_1_1Engine_1_1DataFeeds_1_1ApiDataProvider.html" target="_top" xlink:title="An instance of the IDataProvider that will download and update data files as needed via QC&#39;s Api.">
<polygon fill="white" stroke="black" points="675.5,-74.5 675.5,-104.5 826.5,-104.5 826.5,-74.5 675.5,-74.5"/>
<text text-anchor="start" x="683.5" y="-92.5" font-family="Helvetica,sans-Serif" font-size="10.00">QuantConnect.Lean.Engine.</text>
<text text-anchor="middle" x="751" y="-81.5" font-family="Helvetica,sans-Serif" font-size="10.00">DataFeeds.ApiDataProvider</text>
</a>
</g>
</g>
<!-- Node4&#45;&gt;Node5 -->
<g id="edge4" class="edge">
<title>Node4&#45;&gt;Node5</title>
<path fill="none" stroke="midnightblue" d="M628.1,-76.8C644.24,-78.48 660.43,-80.17 675.5,-81.74"/>
<polygon fill="midnightblue" stroke="midnightblue" points="628.37,-73.31 618.06,-75.76 627.65,-80.27 628.37,-73.31"/>
</g>
<!-- Node6 -->
<g id="node6" class="node">
<title>Node6</title>
<g id="a_node6"><a xlink:href="classQuantConnect_1_1Lean_1_1Engine_1_1DataFeeds_1_1DownloaderDataProvider.html" target="_top" xlink:title="Data provider which downloads data using an IDataDownloader or IBrokerage implementation">
<polygon fill="white" stroke="black" points="654,-25.5 654,-55.5 848,-55.5 848,-25.5 654,-25.5"/>
<text text-anchor="start" x="662" y="-43.5" font-family="Helvetica,sans-Serif" font-size="10.00">QuantConnect.Lean.Engine.</text>
<text text-anchor="middle" x="751" y="-32.5" font-family="Helvetica,sans-Serif" font-size="10.00">DataFeeds.DownloaderDataProvider</text>
</a>
</g>
</g>
<!-- Node4&#45;&gt;Node6 -->
<g id="edge5" class="edge">
<title>Node4&#45;&gt;Node6</title>
<path fill="none" stroke="midnightblue" d="M628.17,-52.68C636.79,-51.82 645.43,-50.96 653.9,-50.11"/>
<polygon fill="midnightblue" stroke="midnightblue" points="627.67,-49.22 618.06,-53.69 628.36,-56.18 627.67,-49.22"/>
</g>
</g>
</svg>
