<?xml version="1.0" encoding="UTF-8" standalone="no"?>
<!DOCTYPE svg PUBLIC "-//W3C//DTD SVG 1.1//EN"
 "http://www.w3.org/Graphics/SVG/1.1/DTD/svg11.dtd">
<!-- Generated by graphviz version 2.43.0 (0)
 -->
<!-- Title: QuantConnect.Securities.IOrderProvider.GetOrderTicket Pages: 1 -->
<svg width="863pt" height="204pt"
 viewBox="0.00 0.00 863.00 203.50" xmlns="http://www.w3.org/2000/svg" xmlns:xlink="http://www.w3.org/1999/xlink">
<g id="graph0" class="graph" transform="scale(1 1) rotate(0) translate(4 199.5)">
<title>QuantConnect.Securities.IOrderProvider.GetOrderTicket</title>
<polygon fill="white" stroke="transparent" points="-4,4 -4,-199.5 859,-199.5 859,4 -4,4"/>
<!-- Node1 -->
<g id="node1" class="node">
<title>Node1</title>
<g id="a_node1"><a xlink:title="Gets the order ticket for the specified order id. Returns null if not found">
<polygon fill="#bfbfbf" stroke="black" points="692,-104.5 692,-134.5 855,-134.5 855,-104.5 692,-104.5"/>
<text text-anchor="start" x="700" y="-122.5" font-family="Helvetica,sans-Serif" font-size="10.00">QuantConnect.Securities.</text>
<text text-anchor="middle" x="773.5" y="-111.5" font-family="Helvetica,sans-Serif" font-size="10.00">IOrderProvider.GetOrderTicket</text>
</a>
</g>
</g>
<!-- Node2 -->
<g id="node2" class="node">
<title>Node2</title>
<g id="a_node2"><a xlink:href="classQuantConnect_1_1Securities_1_1SecurityTransactionManager.html#ab2d222cc403ed3c9445f691c851dd232" target="_top" xlink:title="Gets the order ticket for the specified order id. Returns null if not found">
<polygon fill="white" stroke="black" points="482,-99 482,-140 656,-140 656,-99 482,-99"/>
<text text-anchor="start" x="490" y="-128" font-family="Helvetica,sans-Serif" font-size="10.00">QuantConnect.Securities.</text>
<text text-anchor="start" x="490" y="-117" font-family="Helvetica,sans-Serif" font-size="10.00">SecurityTransactionManager.Get</text>
<text text-anchor="middle" x="569" y="-106" font-family="Helvetica,sans-Serif" font-size="10.00">OrderTicket</text>
</a>
</g>
</g>
<!-- Node1&#45;&gt;Node2 -->
<g id="edge1" class="edge">
<title>Node1&#45;&gt;Node2</title>
<path fill="none" stroke="midnightblue" d="M681.67,-119.5C673.24,-119.5 664.71,-119.5 656.32,-119.5"/>
<polygon fill="midnightblue" stroke="midnightblue" points="681.88,-123 691.88,-119.5 681.88,-116 681.88,-123"/>
</g>
<!-- Node3 -->
<g id="node3" class="node">
<title>Node3</title>
<g id="a_node3"><a xlink:href="classQuantConnect_1_1Securities_1_1BuyingPowerModel.html#a0140983f8f8ab4d126538464a6e24bb1" target="_top" xlink:title="Check if there is sufficient buying power to execute this order.">
<polygon fill="white" stroke="black" points="254.5,-154 254.5,-195 432.5,-195 432.5,-154 254.5,-154"/>
<text text-anchor="start" x="262.5" y="-183" font-family="Helvetica,sans-Serif" font-size="10.00">QuantConnect.Securities.</text>
<text text-anchor="start" x="262.5" y="-172" font-family="Helvetica,sans-Serif" font-size="10.00">BuyingPowerModel.HasSufficient</text>
<text text-anchor="middle" x="343.5" y="-161" font-family="Helvetica,sans-Serif" font-size="10.00">BuyingPowerForOrder</text>
</a>
</g>
</g>
<!-- Node2&#45;&gt;Node3 -->
<g id="edge2" class="edge">
<title>Node2&#45;&gt;Node3</title>
<path fill="none" stroke="midnightblue" d="M474.41,-142.53C458.99,-146.33 443.09,-150.24 427.94,-153.97"/>
<polygon fill="midnightblue" stroke="midnightblue" points="475.59,-145.85 484.46,-140.06 473.91,-139.05 475.59,-145.85"/>
</g>
<!-- Node4 -->
<g id="node4" class="node">
<title>Node4</title>
<g id="a_node4"><a xlink:href="classQuantConnect_1_1Algorithm_1_1QCAlgorithm.html#a5904e7c2ffd71a165c6f1afd3f5f68c2" target="_top" xlink:title="Liquidate your portfolio holdings">
<polygon fill="white" stroke="black" points="241,-104.5 241,-134.5 446,-134.5 446,-104.5 241,-104.5"/>
<text text-anchor="start" x="249" y="-122.5" font-family="Helvetica,sans-Serif" font-size="10.00">QuantConnect.Algorithm.QCAlgorithm.</text>
<text text-anchor="middle" x="343.5" y="-111.5" font-family="Helvetica,sans-Serif" font-size="10.00">Liquidate</text>
</a>
</g>
</g>
<!-- Node2&#45;&gt;Node4 -->
<g id="edge3" class="edge">
<title>Node2&#45;&gt;Node4</title>
<path fill="none" stroke="midnightblue" d="M471.69,-119.5C463.26,-119.5 454.7,-119.5 446.22,-119.5"/>
<polygon fill="midnightblue" stroke="midnightblue" points="471.91,-123 481.91,-119.5 471.91,-116 471.91,-123"/>
</g>
<!-- Node5 -->
<g id="node5" class="node">
<title>Node5</title>
<g id="a_node5"><a xlink:href="classQuantConnect_1_1Securities_1_1SecurityTransactionManager.html#a40e8a75a6dcac71544bc9a88037cca5d" target="_top" xlink:title="Wait for a specific order to be either Filled, Invalid or Canceled">
<polygon fill="white" stroke="black" points="254,-44 254,-85 433,-85 433,-44 254,-44"/>
<text text-anchor="start" x="262" y="-73" font-family="Helvetica,sans-Serif" font-size="10.00">QuantConnect.Securities.</text>
<text text-anchor="start" x="262" y="-62" font-family="Helvetica,sans-Serif" font-size="10.00">SecurityTransactionManager.Wait</text>
<text text-anchor="middle" x="343.5" y="-51" font-family="Helvetica,sans-Serif" font-size="10.00">ForOrder</text>
</a>
</g>
</g>
<!-- Node2&#45;&gt;Node5 -->
<g id="edge4" class="edge">
<title>Node2&#45;&gt;Node5</title>
<path fill="none" stroke="midnightblue" d="M474.41,-96.47C458.99,-92.67 443.09,-88.76 427.94,-85.03"/>
<polygon fill="midnightblue" stroke="midnightblue" points="473.91,-99.95 484.46,-98.94 475.59,-93.15 473.91,-99.95"/>
</g>
<!-- Node6 -->
<g id="node6" class="node">
<title>Node6</title>
<g id="a_node6"><a xlink:href="classQuantConnect_1_1Securities_1_1DefaultMarginCallModel.html#a7c489c9899a3685a318889925b306812" target="_top" xlink:title="Executes synchronous orders to bring the account within margin requirements.">
<polygon fill="white" stroke="black" points="14.5,-99 14.5,-140 190.5,-140 190.5,-99 14.5,-99"/>
<text text-anchor="start" x="22.5" y="-128" font-family="Helvetica,sans-Serif" font-size="10.00">QuantConnect.Securities.</text>
<text text-anchor="start" x="22.5" y="-117" font-family="Helvetica,sans-Serif" font-size="10.00">DefaultMarginCallModel.Execute</text>
<text text-anchor="middle" x="102.5" y="-106" font-family="Helvetica,sans-Serif" font-size="10.00">MarginCall</text>
</a>
</g>
</g>
<!-- Node5&#45;&gt;Node6 -->
<g id="edge5" class="edge">
<title>Node5&#45;&gt;Node6</title>
<path fill="none" stroke="midnightblue" d="M243.62,-87.26C226.1,-91.29 207.98,-95.46 190.82,-99.41"/>
<polygon fill="midnightblue" stroke="midnightblue" points="244.88,-90.56 253.84,-84.9 243.31,-83.73 244.88,-90.56"/>
</g>
<!-- Node7 -->
<g id="node7" class="node">
<title>Node7</title>
<g id="a_node7"><a xlink:href="classQuantConnect_1_1Algorithm_1_1QCAlgorithm.html#a11352466438b0832f09b224722815e72" target="_top" xlink:title="Send an exercise order to the transaction handler">
<polygon fill="white" stroke="black" points="0,-49.5 0,-79.5 205,-79.5 205,-49.5 0,-49.5"/>
<text text-anchor="start" x="8" y="-67.5" font-family="Helvetica,sans-Serif" font-size="10.00">QuantConnect.Algorithm.QCAlgorithm.</text>
<text text-anchor="middle" x="102.5" y="-56.5" font-family="Helvetica,sans-Serif" font-size="10.00">ExerciseOption</text>
</a>
</g>
</g>
<!-- Node5&#45;&gt;Node7 -->
<g id="edge6" class="edge">
<title>Node5&#45;&gt;Node7</title>
<path fill="none" stroke="midnightblue" d="M243.75,-64.5C231.06,-64.5 218.05,-64.5 205.31,-64.5"/>
<polygon fill="midnightblue" stroke="midnightblue" points="243.84,-68 253.84,-64.5 243.84,-61 243.84,-68"/>
</g>
<!-- Node8 -->
<g id="node8" class="node">
<title>Node8</title>
<g id="a_node8"><a xlink:href="classQuantConnect_1_1Algorithm_1_1QCAlgorithm.html#a741fed77f0c320fdec734f00457634f4" target="_top" xlink:title="Market order implementation: Send a market order and wait for it to be filled.">
<polygon fill="white" stroke="black" points="0,-0.5 0,-30.5 205,-30.5 205,-0.5 0,-0.5"/>
<text text-anchor="start" x="8" y="-18.5" font-family="Helvetica,sans-Serif" font-size="10.00">QuantConnect.Algorithm.QCAlgorithm.</text>
<text text-anchor="middle" x="102.5" y="-7.5" font-family="Helvetica,sans-Serif" font-size="10.00">MarketOrder</text>
</a>
</g>
</g>
<!-- Node5&#45;&gt;Node8 -->
<g id="edge7" class="edge">
<title>Node5&#45;&gt;Node8</title>
<path fill="none" stroke="midnightblue" d="M243.94,-44.29C221.47,-39.69 197.97,-34.87 176.77,-30.52"/>
<polygon fill="midnightblue" stroke="midnightblue" points="243.35,-47.74 253.84,-46.32 244.75,-40.89 243.35,-47.74"/>
</g>
</g>
</svg>
