<?xml version="1.0" encoding="UTF-8" standalone="no"?>
<!DOCTYPE svg PUBLIC "-//W3C//DTD SVG 1.1//EN"
 "http://www.w3.org/Graphics/SVG/1.1/DTD/svg11.dtd">
<!-- Generated by graphviz version 2.43.0 (0)
 -->
<!-- Title: QuantConnect.Data.Consolidators.IDataConsolidator.Update Pages: 1 -->
<svg width="474pt" height="247pt"
 viewBox="0.00 0.00 474.00 246.50" xmlns="http://www.w3.org/2000/svg" xmlns:xlink="http://www.w3.org/1999/xlink">
<g id="graph0" class="graph" transform="scale(1 1) rotate(0) translate(4 242.5)">
<title>QuantConnect.Data.Consolidators.IDataConsolidator.Update</title>
<polygon fill="white" stroke="transparent" points="-4,4 -4,-242.5 470,-242.5 470,4 -4,4"/>
<!-- Node1 -->
<g id="node1" class="node">
<title>Node1</title>
<g id="a_node1"><a xlink:title="Updates this consolidator with the specified data">
<polygon fill="#bfbfbf" stroke="black" points="281,-98.5 281,-128.5 466,-128.5 466,-98.5 281,-98.5"/>
<text text-anchor="start" x="289" y="-116.5" font-family="Helvetica,sans-Serif" font-size="10.00">QuantConnect.Data.Consolidators.</text>
<text text-anchor="middle" x="373.5" y="-105.5" font-family="Helvetica,sans-Serif" font-size="10.00">IDataConsolidator.Update</text>
</a>
</g>
</g>
<!-- Node2 -->
<g id="node2" class="node">
<title>Node2</title>
<g id="a_node2"><a xlink:href="classQuantConnect_1_1ToolBox_1_1AlgoSeekFuturesConverter_1_1AlgoSeekFuturesProcessor.html#a0febf12b8533c9644f597bdd879e6ecc" target="_top" xlink:title="Process the tick; add to the con">
<polygon fill="white" stroke="black" points="18,-197 18,-238 227,-238 227,-197 18,-197"/>
<text text-anchor="start" x="26" y="-226" font-family="Helvetica,sans-Serif" font-size="10.00">QuantConnect.ToolBox.Algo</text>
<text text-anchor="start" x="26" y="-215" font-family="Helvetica,sans-Serif" font-size="10.00">SeekFuturesConverter.AlgoSeekFutures</text>
<text text-anchor="middle" x="122.5" y="-204" font-family="Helvetica,sans-Serif" font-size="10.00">Processor.Process</text>
</a>
</g>
</g>
<!-- Node1&#45;&gt;Node2 -->
<g id="edge1" class="edge">
<title>Node1&#45;&gt;Node2</title>
<path fill="none" stroke="midnightblue" d="M342.57,-134.16C317.49,-150.64 280.24,-173.26 245,-187.5 236.44,-190.96 227.37,-194.1 218.2,-196.92"/>
<polygon fill="midnightblue" stroke="midnightblue" points="344.53,-137.06 350.91,-128.61 340.65,-131.23 344.53,-137.06"/>
</g>
<!-- Node3 -->
<g id="node3" class="node">
<title>Node3</title>
<g id="a_node3"><a xlink:href="classQuantConnect_1_1Data_1_1Consolidators_1_1SequentialConsolidator.html#aad1044676f058aea343ef20d90f2b159" target="_top" xlink:title="Creates a new consolidator that will pump date through the first, and then the output of the first in...">
<polygon fill="white" stroke="black" points="0,-147.5 0,-177.5 245,-177.5 245,-147.5 0,-147.5"/>
<text text-anchor="start" x="8" y="-165.5" font-family="Helvetica,sans-Serif" font-size="10.00">QuantConnect.Data.Consolidators.</text>
<text text-anchor="middle" x="122.5" y="-154.5" font-family="Helvetica,sans-Serif" font-size="10.00">SequentialConsolidator.SequentialConsolidator</text>
</a>
</g>
</g>
<!-- Node1&#45;&gt;Node3 -->
<g id="edge2" class="edge">
<title>Node1&#45;&gt;Node3</title>
<path fill="none" stroke="midnightblue" d="M286.28,-130.47C258.14,-136 227.11,-142.11 199.76,-147.49"/>
<polygon fill="midnightblue" stroke="midnightblue" points="286.96,-133.9 296.1,-128.53 285.61,-127.03 286.96,-133.9"/>
</g>
<!-- Node4 -->
<g id="node4" class="node">
<title>Node4</title>
<g id="a_node4"><a xlink:href="classQuantConnect_1_1ToolBox_1_1TickAggregator.html#a5c1c3756a78e6b125f83b1a95e46291d" target="_top" xlink:title="Updates the consolidator with the specified bar.">
<polygon fill="white" stroke="black" points="47.5,-98.5 47.5,-128.5 197.5,-128.5 197.5,-98.5 47.5,-98.5"/>
<text text-anchor="start" x="55.5" y="-116.5" font-family="Helvetica,sans-Serif" font-size="10.00">QuantConnect.ToolBox.Tick</text>
<text text-anchor="middle" x="122.5" y="-105.5" font-family="Helvetica,sans-Serif" font-size="10.00">Aggregator.Update</text>
</a>
</g>
</g>
<!-- Node1&#45;&gt;Node4 -->
<g id="edge3" class="edge">
<title>Node1&#45;&gt;Node4</title>
<path fill="none" stroke="midnightblue" d="M270.83,-113.5C246.41,-113.5 220.78,-113.5 197.87,-113.5"/>
<polygon fill="midnightblue" stroke="midnightblue" points="270.84,-117 280.84,-113.5 270.84,-110 270.84,-117"/>
</g>
<!-- Node5 -->
<g id="node5" class="node">
<title>Node5</title>
<g id="a_node5"><a xlink:href="classQuantConnect_1_1Data_1_1Consolidators_1_1SequentialConsolidator.html#a1b2999c893aa7d70b37a69eac64835e7" target="_top" xlink:title="Updates this consolidator with the specified data">
<polygon fill="white" stroke="black" points="30,-49.5 30,-79.5 215,-79.5 215,-49.5 30,-49.5"/>
<text text-anchor="start" x="38" y="-67.5" font-family="Helvetica,sans-Serif" font-size="10.00">QuantConnect.Data.Consolidators.</text>
<text text-anchor="middle" x="122.5" y="-56.5" font-family="Helvetica,sans-Serif" font-size="10.00">SequentialConsolidator.Update</text>
</a>
</g>
</g>
<!-- Node1&#45;&gt;Node5 -->
<g id="edge4" class="edge">
<title>Node1&#45;&gt;Node5</title>
<path fill="none" stroke="midnightblue" d="M286.28,-96.53C258.14,-91 227.11,-84.89 199.76,-79.51"/>
<polygon fill="midnightblue" stroke="midnightblue" points="285.61,-99.97 296.1,-98.47 286.96,-93.1 285.61,-99.97"/>
</g>
<!-- Node6 -->
<g id="node6" class="node">
<title>Node6</title>
<g id="a_node6"><a xlink:href="classQuantConnect_1_1Data_1_1Common_1_1MarketHourAwareConsolidator.html#ada2633845f46ba47d02bc3d8d696383f" target="_top" xlink:title="Updates this consolidator with the specified data">
<polygon fill="white" stroke="black" points="21,-0.5 21,-30.5 224,-30.5 224,-0.5 21,-0.5"/>
<text text-anchor="start" x="29" y="-18.5" font-family="Helvetica,sans-Serif" font-size="10.00">QuantConnect.Data.Common.</text>
<text text-anchor="middle" x="122.5" y="-7.5" font-family="Helvetica,sans-Serif" font-size="10.00">MarketHourAwareConsolidator.Update</text>
</a>
</g>
</g>
<!-- Node1&#45;&gt;Node6 -->
<g id="edge5" class="edge">
<title>Node1&#45;&gt;Node6</title>
<path fill="none" stroke="midnightblue" d="M342.34,-92.56C317.33,-76.12 280.27,-53.84 245,-40.5 234.83,-36.65 223.94,-33.35 213.02,-30.53"/>
<polygon fill="midnightblue" stroke="midnightblue" points="340.73,-95.69 350.99,-98.33 344.61,-89.87 340.73,-95.69"/>
</g>
</g>
</svg>
