<?xml version="1.0" encoding="UTF-8" standalone="no"?>
<!DOCTYPE svg PUBLIC "-//W3C//DTD SVG 1.1//EN"
 "http://www.w3.org/Graphics/SVG/1.1/DTD/svg11.dtd">
<!-- Generated by graphviz version 2.43.0 (0)
 -->
<!-- Title: QuantConnect.Interfaces.IAlgorithm.Debug Pages: 1 -->
<svg width="923pt" height="718pt"
 viewBox="0.00 0.00 923.00 718.00" xmlns="http://www.w3.org/2000/svg" xmlns:xlink="http://www.w3.org/1999/xlink">
<g id="graph0" class="graph" transform="scale(1 1) rotate(0) translate(4 714)">
<title>QuantConnect.Interfaces.IAlgorithm.Debug</title>
<polygon fill="white" stroke="transparent" points="-4,4 -4,-714 919,-714 919,4 -4,4"/>
<!-- Node1 -->
<g id="node1" class="node">
<title>Node1</title>
<g id="a_node1"><a xlink:title="Send debug message">
<polygon fill="#bfbfbf" stroke="black" points="775,-329 775,-359 915,-359 915,-329 775,-329"/>
<text text-anchor="start" x="783" y="-347" font-family="Helvetica,sans-Serif" font-size="10.00">QuantConnect.Interfaces.</text>
<text text-anchor="middle" x="845" y="-336" font-family="Helvetica,sans-Serif" font-size="10.00">IAlgorithm.Debug</text>
</a>
</g>
</g>
<!-- Node2 -->
<g id="node2" class="node">
<title>Node2</title>
<g id="a_node2"><a xlink:href="classQuantConnect_1_1Lean_1_1Engine_1_1TransactionHandlers_1_1BrokerageTransactionHandler.html#a68f215fe79ea4c800a036e7169b8b0a4" target="_top" xlink:title="Add an order to collection and return the unique order id or negative if an error.">
<polygon fill="white" stroke="black" points="505.5,-219.5 505.5,-260.5 729.5,-260.5 729.5,-219.5 505.5,-219.5"/>
<text text-anchor="start" x="513.5" y="-248.5" font-family="Helvetica,sans-Serif" font-size="10.00">QuantConnect.Lean.Engine.</text>
<text text-anchor="start" x="513.5" y="-237.5" font-family="Helvetica,sans-Serif" font-size="10.00">TransactionHandlers.BrokerageTransaction</text>
<text text-anchor="middle" x="617.5" y="-226.5" font-family="Helvetica,sans-Serif" font-size="10.00">Handler.AddOrder</text>
</a>
</g>
</g>
<!-- Node1&#45;&gt;Node2 -->
<g id="edge1" class="edge">
<title>Node1&#45;&gt;Node2</title>
<path fill="none" stroke="midnightblue" d="M818.78,-322.59C798.43,-306.32 768.45,-284.49 739,-271 730.46,-267.09 721.34,-263.61 712.09,-260.53"/>
<polygon fill="midnightblue" stroke="midnightblue" points="816.65,-325.37 826.62,-328.97 821.07,-319.94 816.65,-325.37"/>
</g>
<!-- Node4 -->
<g id="node4" class="node">
<title>Node4</title>
<g id="a_node4"><a xlink:href="classQuantConnect_1_1Lean_1_1Engine_1_1Results_1_1RegressionResultHandler.html#ade656801b5499dab8c205dd6a57cf236" target="_top" xlink:title="We want to make algorithm messages end up in both the standard regression log file {algorithm}....">
<polygon fill="white" stroke="black" points="527,-608.5 527,-649.5 708,-649.5 708,-608.5 527,-608.5"/>
<text text-anchor="start" x="535" y="-637.5" font-family="Helvetica,sans-Serif" font-size="10.00">QuantConnect.Lean.Engine.</text>
<text text-anchor="start" x="535" y="-626.5" font-family="Helvetica,sans-Serif" font-size="10.00">Results.RegressionResultHandler.</text>
<text text-anchor="middle" x="617.5" y="-615.5" font-family="Helvetica,sans-Serif" font-size="10.00">ConfigureConsoleTextWriter</text>
</a>
</g>
</g>
<!-- Node1&#45;&gt;Node4 -->
<g id="edge3" class="edge">
<title>Node1&#45;&gt;Node4</title>
<path fill="none" stroke="midnightblue" d="M841.12,-369.27C833.87,-420.65 810.08,-537.65 739,-599 730.02,-606.75 719.34,-612.55 708.1,-616.89"/>
<polygon fill="midnightblue" stroke="midnightblue" points="844.63,-369.43 842.46,-359.06 837.69,-368.52 844.63,-369.43"/>
</g>
<!-- Node5 -->
<g id="node5" class="node">
<title>Node5</title>
<g id="a_node5"><a xlink:href="classQuantConnect_1_1Lean_1_1Engine_1_1Results_1_1BacktestingResultHandler.html#a3d67960a346455c56df5a6bc8aca0d9d" target="_top" xlink:title="Configures the Console.Out and Console.Error TextWriter instances. By default, we forward Console....">
<polygon fill="white" stroke="black" points="525,-668.5 525,-709.5 710,-709.5 710,-668.5 525,-668.5"/>
<text text-anchor="start" x="533" y="-697.5" font-family="Helvetica,sans-Serif" font-size="10.00">QuantConnect.Lean.Engine.</text>
<text text-anchor="start" x="533" y="-686.5" font-family="Helvetica,sans-Serif" font-size="10.00">Results.BacktestingResultHandler.</text>
<text text-anchor="middle" x="617.5" y="-675.5" font-family="Helvetica,sans-Serif" font-size="10.00">ConfigureConsoleTextWriter</text>
</a>
</g>
</g>
<!-- Node1&#45;&gt;Node5 -->
<g id="edge4" class="edge">
<title>Node1&#45;&gt;Node5</title>
<path fill="none" stroke="midnightblue" d="M843.38,-369.22C840.5,-428.92 824.65,-579.77 739,-659 730.69,-666.69 720.72,-672.48 710.12,-676.84"/>
<polygon fill="midnightblue" stroke="midnightblue" points="846.88,-369.31 843.78,-359.17 839.89,-369.03 846.88,-369.31"/>
</g>
<!-- Node7 -->
<g id="node7" class="node">
<title>Node7</title>
<g id="a_node7"><a xlink:href="classQuantConnect_1_1Algorithm_1_1Framework_1_1Portfolio_1_1SignalExports_1_1Collective2SignalExport.html#a068778469a955aa908e2657d2ed1b1a3" target="_top" xlink:title="Converts a given percentage of a position into the number of shares of it">
<polygon fill="white" stroke="black" points="504,-548.5 504,-589.5 731,-589.5 731,-548.5 504,-548.5"/>
<text text-anchor="start" x="512" y="-577.5" font-family="Helvetica,sans-Serif" font-size="10.00">QuantConnect.Algorithm.Framework.</text>
<text text-anchor="start" x="512" y="-566.5" font-family="Helvetica,sans-Serif" font-size="10.00">Portfolio.SignalExports.Collective2</text>
<text text-anchor="middle" x="617.5" y="-555.5" font-family="Helvetica,sans-Serif" font-size="10.00">SignalExport.ConvertPercentageToQuantity</text>
</a>
</g>
</g>
<!-- Node1&#45;&gt;Node7 -->
<g id="edge6" class="edge">
<title>Node1&#45;&gt;Node7</title>
<path fill="none" stroke="midnightblue" d="M837.72,-368.85C825.83,-410.63 795.97,-494.75 739,-539 734.49,-542.5 729.62,-545.61 724.52,-548.35"/>
<polygon fill="midnightblue" stroke="midnightblue" points="841.1,-369.75 840.36,-359.18 834.35,-367.91 841.1,-369.75"/>
</g>
<!-- Node10 -->
<g id="node10" class="node">
<title>Node10</title>
<g id="a_node10"><a xlink:href="classQuantConnect_1_1Lean_1_1Engine_1_1DataFeeds_1_1DataManager.html#acf9050df1be040d4259dc9a89c2cb740" target="_top" xlink:title="Creates a new instance of the DataManager">
<polygon fill="white" stroke="black" points="514.5,-439 514.5,-469 720.5,-469 720.5,-439 514.5,-439"/>
<text text-anchor="start" x="522.5" y="-457" font-family="Helvetica,sans-Serif" font-size="10.00">QuantConnect.Lean.Engine.</text>
<text text-anchor="middle" x="617.5" y="-446" font-family="Helvetica,sans-Serif" font-size="10.00">DataFeeds.DataManager.DataManager</text>
</a>
</g>
</g>
<!-- Node1&#45;&gt;Node10 -->
<g id="edge9" class="edge">
<title>Node1&#45;&gt;Node10</title>
<path fill="none" stroke="midnightblue" d="M822.67,-366.51C802.85,-386.05 771.56,-413.57 739,-429 730.79,-432.89 721.99,-436.18 713.02,-438.95"/>
<polygon fill="midnightblue" stroke="midnightblue" points="825.37,-368.76 829.93,-359.2 820.4,-363.83 825.37,-368.76"/>
</g>
<!-- Node11 -->
<g id="node11" class="node">
<title>Node11</title>
<g id="a_node11"><a xlink:href="classQuantConnect_1_1Lean_1_1Engine_1_1RealTime_1_1ScheduledEventFactory.html#a2cb626793d1a0a1ca03f3c2dab340865" target="_top" xlink:title="Creates a new ScheduledEvent that will fire before market close by the specified time">
<polygon fill="white" stroke="black" points="527,-378.5 527,-419.5 708,-419.5 708,-378.5 527,-378.5"/>
<text text-anchor="start" x="535" y="-407.5" font-family="Helvetica,sans-Serif" font-size="10.00">QuantConnect.Lean.Engine.</text>
<text text-anchor="start" x="535" y="-396.5" font-family="Helvetica,sans-Serif" font-size="10.00">RealTime.ScheduledEventFactory.</text>
<text text-anchor="middle" x="617.5" y="-385.5" font-family="Helvetica,sans-Serif" font-size="10.00">EveryAlgorithmEndOfDay</text>
</a>
</g>
</g>
<!-- Node1&#45;&gt;Node11 -->
<g id="edge10" class="edge">
<title>Node1&#45;&gt;Node11</title>
<path fill="none" stroke="midnightblue" d="M772.41,-361.46C750.31,-366.85 725.75,-372.84 702.87,-378.42"/>
<polygon fill="midnightblue" stroke="midnightblue" points="773.5,-364.8 782.38,-359.03 771.84,-358 773.5,-364.8"/>
</g>
<!-- Node12 -->
<g id="node12" class="node">
<title>Node12</title>
<g id="a_node12"><a xlink:href="classQuantConnect_1_1Extensions.html#ad5dd976799decc110d468ff697b3f4e6" target="_top" xlink:title="Gets the security for the specified symbol from the algorithm&#39;s securities collection....">
<polygon fill="white" stroke="black" points="534.5,-329 534.5,-359 700.5,-359 700.5,-329 534.5,-329"/>
<text text-anchor="start" x="542.5" y="-347" font-family="Helvetica,sans-Serif" font-size="10.00">QuantConnect.Extensions.</text>
<text text-anchor="middle" x="617.5" y="-336" font-family="Helvetica,sans-Serif" font-size="10.00">GetOrAddUnrequestedSecurity</text>
</a>
</g>
</g>
<!-- Node1&#45;&gt;Node12 -->
<g id="edge11" class="edge">
<title>Node1&#45;&gt;Node12</title>
<path fill="none" stroke="midnightblue" d="M764.76,-344C743.99,-344 721.55,-344 700.64,-344"/>
<polygon fill="midnightblue" stroke="midnightblue" points="764.81,-347.5 774.81,-344 764.81,-340.5 764.81,-347.5"/>
</g>
<!-- Node13 -->
<g id="node13" class="node">
<title>Node13</title>
<g id="a_node13"><a xlink:href="classQuantConnect_1_1Algorithm_1_1Framework_1_1Portfolio_1_1PortfolioTarget.html#a6e9c9bbcf5f629f8c686bab23c542db0" target="_top" xlink:title="Creates a new target for the specified percent">
<polygon fill="white" stroke="black" points="519,-280 519,-310 716,-310 716,-280 519,-280"/>
<text text-anchor="start" x="527" y="-298" font-family="Helvetica,sans-Serif" font-size="10.00">QuantConnect.Algorithm.Framework.</text>
<text text-anchor="middle" x="617.5" y="-287" font-family="Helvetica,sans-Serif" font-size="10.00">Portfolio.PortfolioTarget.Percent</text>
</a>
</g>
</g>
<!-- Node1&#45;&gt;Node13 -->
<g id="edge12" class="edge">
<title>Node1&#45;&gt;Node13</title>
<path fill="none" stroke="midnightblue" d="M769.05,-326.67C758.95,-324.4 748.73,-322.12 739,-320 723.87,-316.7 707.64,-313.27 692.15,-310.03"/>
<polygon fill="midnightblue" stroke="midnightblue" points="768.55,-330.15 779.07,-328.94 770.09,-323.32 768.55,-330.15"/>
</g>
<!-- Node14 -->
<g id="node14" class="node">
<title>Node14</title>
<g id="a_node14"><a xlink:href="classQuantConnect_1_1Lean_1_1Engine_1_1Results_1_1LiveTradingResultHandler.html#ab93e70238aae83c7d570c57f41afb711" target="_top" xlink:title="Process the synchronous result events, sampling and message reading. This method is triggered from th...">
<polygon fill="white" stroke="black" points="526.5,-0.5 526.5,-41.5 708.5,-41.5 708.5,-0.5 526.5,-0.5"/>
<text text-anchor="start" x="534.5" y="-29.5" font-family="Helvetica,sans-Serif" font-size="10.00">QuantConnect.Lean.Engine.</text>
<text text-anchor="start" x="534.5" y="-18.5" font-family="Helvetica,sans-Serif" font-size="10.00">Results.LiveTradingResultHandler.</text>
<text text-anchor="middle" x="617.5" y="-7.5" font-family="Helvetica,sans-Serif" font-size="10.00">ProcessSynchronousEvents</text>
</a>
</g>
</g>
<!-- Node1&#45;&gt;Node14 -->
<g id="edge13" class="edge">
<title>Node1&#45;&gt;Node14</title>
<path fill="none" stroke="midnightblue" d="M842.64,-318.61C838.18,-261.77 819.21,-123.56 739,-51 730.29,-43.12 719.82,-37.23 708.75,-32.85"/>
<polygon fill="midnightblue" stroke="midnightblue" points="839.17,-319.12 843.35,-328.85 846.15,-318.64 839.17,-319.12"/>
</g>
<!-- Node16 -->
<g id="node16" class="node">
<title>Node16</title>
<g id="a_node16"><a xlink:href="classQuantConnect_1_1Commands_1_1OrderCommand.html#a9076463d1b93e18f452219182b25f721" target="_top" xlink:title="Runs this command against the specified algorithm instance">
<polygon fill="white" stroke="black" points="530.5,-170 530.5,-200 704.5,-200 704.5,-170 530.5,-170"/>
<text text-anchor="start" x="538.5" y="-188" font-family="Helvetica,sans-Serif" font-size="10.00">QuantConnect.Commands.Order</text>
<text text-anchor="middle" x="617.5" y="-177" font-family="Helvetica,sans-Serif" font-size="10.00">Command.Run</text>
</a>
</g>
</g>
<!-- Node1&#45;&gt;Node16 -->
<g id="edge15" class="edge">
<title>Node1&#45;&gt;Node16</title>
<path fill="none" stroke="midnightblue" d="M831.82,-319.51C815.22,-288.83 782.51,-237 739,-210 728.56,-203.52 716.73,-198.69 704.66,-195.1"/>
<polygon fill="midnightblue" stroke="midnightblue" points="828.88,-321.45 836.63,-328.67 835.08,-318.19 828.88,-321.45"/>
</g>
<!-- Node17 -->
<g id="node17" class="node">
<title>Node17</title>
<g id="a_node17"><a xlink:href="classQuantConnect_1_1Algorithm_1_1Framework_1_1Portfolio_1_1SignalExports_1_1BaseSignalExport.html#a96185808ee6f8e457645851ff3e0fab3" target="_top" xlink:title="Sends positions to different 3rd party API&#39;s">
<polygon fill="white" stroke="black" points="496,-121 496,-151 739,-151 739,-121 496,-121"/>
<text text-anchor="start" x="504" y="-139" font-family="Helvetica,sans-Serif" font-size="10.00">QuantConnect.Algorithm.Framework.</text>
<text text-anchor="middle" x="617.5" y="-128" font-family="Helvetica,sans-Serif" font-size="10.00">Portfolio.SignalExports.BaseSignalExport.Send</text>
</a>
</g>
</g>
<!-- Node1&#45;&gt;Node17 -->
<g id="edge16" class="edge">
<title>Node1&#45;&gt;Node17</title>
<path fill="none" stroke="midnightblue" d="M837,-319.04C824.41,-278.99 793.99,-200.86 739,-161 733.72,-157.18 727.99,-153.91 721.99,-151.12"/>
<polygon fill="midnightblue" stroke="midnightblue" points="833.71,-320.24 839.95,-328.8 840.41,-318.22 833.71,-320.24"/>
</g>
<!-- Node18 -->
<g id="node18" class="node">
<title>Node18</title>
<g id="a_node18"><a xlink:href="classQuantConnect_1_1Algorithm_1_1Framework_1_1Portfolio_1_1SignalExports_1_1CrunchDAOSignalExport.html#a7464145034ec48cc24ca119e6f82c43f" target="_top" xlink:title="Verifies every holding is a stock, creates a message with the desired positions using the expected Cr...">
<polygon fill="white" stroke="black" points="509.5,-60.5 509.5,-101.5 725.5,-101.5 725.5,-60.5 509.5,-60.5"/>
<text text-anchor="start" x="517.5" y="-89.5" font-family="Helvetica,sans-Serif" font-size="10.00">QuantConnect.Algorithm.Framework.</text>
<text text-anchor="start" x="517.5" y="-78.5" font-family="Helvetica,sans-Serif" font-size="10.00">Portfolio.SignalExports.CrunchDAOSignal</text>
<text text-anchor="middle" x="617.5" y="-67.5" font-family="Helvetica,sans-Serif" font-size="10.00">Export.Send</text>
</a>
</g>
</g>
<!-- Node1&#45;&gt;Node18 -->
<g id="edge17" class="edge">
<title>Node1&#45;&gt;Node18</title>
<path fill="none" stroke="midnightblue" d="M840.05,-318.86C831.13,-270.85 804.86,-165.99 739,-111 734.78,-107.48 730.21,-104.36 725.39,-101.6"/>
<polygon fill="midnightblue" stroke="midnightblue" points="836.6,-319.49 841.78,-328.74 843.5,-318.28 836.6,-319.49"/>
</g>
<!-- Node19 -->
<g id="node19" class="node">
<title>Node19</title>
<g id="a_node19"><a xlink:href="classQuantConnect_1_1Lean_1_1Engine_1_1TransactionHandlers_1_1BrokerageTransactionHandler.html#a1a38e71d6ea75fe654d365cb6b7501d2" target="_top" xlink:title="Update an order yet to be filled such as stop or limit orders.">
<polygon fill="white" stroke="black" points="505.5,-488.5 505.5,-529.5 729.5,-529.5 729.5,-488.5 505.5,-488.5"/>
<text text-anchor="start" x="513.5" y="-517.5" font-family="Helvetica,sans-Serif" font-size="10.00">QuantConnect.Lean.Engine.</text>
<text text-anchor="start" x="513.5" y="-506.5" font-family="Helvetica,sans-Serif" font-size="10.00">TransactionHandlers.BrokerageTransaction</text>
<text text-anchor="middle" x="617.5" y="-495.5" font-family="Helvetica,sans-Serif" font-size="10.00">Handler.UpdateOrder</text>
</a>
</g>
</g>
<!-- Node1&#45;&gt;Node19 -->
<g id="edge18" class="edge">
<title>Node1&#45;&gt;Node19</title>
<path fill="none" stroke="midnightblue" d="M831.69,-368.4C814.96,-399.03 782.12,-450.94 739,-479 733.58,-482.53 727.77,-485.64 721.75,-488.39"/>
<polygon fill="midnightblue" stroke="midnightblue" points="834.95,-369.74 836.55,-359.26 828.77,-366.45 834.95,-369.74"/>
</g>
<!-- Node3 -->
<g id="node3" class="node">
<title>Node3</title>
<g id="a_node3"><a xlink:href="classQuantConnect_1_1Lean_1_1Engine_1_1TransactionHandlers_1_1BrokerageTransactionHandler.html#ad7914edfb9b6e24fcbcd637e2c468cd5" target="_top" xlink:title="Adds the specified order to be processed">
<polygon fill="white" stroke="black" points="234.5,-353.5 234.5,-394.5 458.5,-394.5 458.5,-353.5 234.5,-353.5"/>
<text text-anchor="start" x="242.5" y="-382.5" font-family="Helvetica,sans-Serif" font-size="10.00">QuantConnect.Lean.Engine.</text>
<text text-anchor="start" x="242.5" y="-371.5" font-family="Helvetica,sans-Serif" font-size="10.00">TransactionHandlers.BrokerageTransaction</text>
<text text-anchor="middle" x="346.5" y="-360.5" font-family="Helvetica,sans-Serif" font-size="10.00">Handler.Process</text>
</a>
</g>
</g>
<!-- Node2&#45;&gt;Node3 -->
<g id="edge2" class="edge">
<title>Node2&#45;&gt;Node3</title>
<path fill="none" stroke="midnightblue" d="M513.44,-263.85C507.46,-266.06 501.61,-268.43 496,-271 448.21,-292.87 399.38,-330.21 371.34,-353.42"/>
<polygon fill="midnightblue" stroke="midnightblue" points="514.63,-267.14 522.92,-260.54 512.32,-260.54 514.63,-267.14"/>
</g>
<!-- Node6 -->
<g id="node6" class="node">
<title>Node6</title>
<g id="a_node6"><a xlink:href="classQuantConnect_1_1Lean_1_1Engine_1_1Results_1_1BacktestingResultHandler.html#a187cf964394ce96cafca9a1048e9b143" target="_top" xlink:title="Set the Algorithm instance for ths result.">
<polygon fill="white" stroke="black" points="254,-668.5 254,-709.5 439,-709.5 439,-668.5 254,-668.5"/>
<text text-anchor="start" x="262" y="-697.5" font-family="Helvetica,sans-Serif" font-size="10.00">QuantConnect.Lean.Engine.</text>
<text text-anchor="start" x="262" y="-686.5" font-family="Helvetica,sans-Serif" font-size="10.00">Results.BacktestingResultHandler.</text>
<text text-anchor="middle" x="346.5" y="-675.5" font-family="Helvetica,sans-Serif" font-size="10.00">SetAlgorithm</text>
</a>
</g>
</g>
<!-- Node5&#45;&gt;Node6 -->
<g id="edge5" class="edge">
<title>Node5&#45;&gt;Node6</title>
<path fill="none" stroke="midnightblue" d="M514.56,-689C489.85,-689 463.58,-689 439.36,-689"/>
<polygon fill="midnightblue" stroke="midnightblue" points="514.68,-692.5 524.68,-689 514.68,-685.5 514.68,-692.5"/>
</g>
<!-- Node8 -->
<g id="node8" class="node">
<title>Node8</title>
<g id="a_node8"><a xlink:href="classQuantConnect_1_1Algorithm_1_1Framework_1_1Portfolio_1_1SignalExports_1_1Collective2SignalExport.html#a87920e10ff6ced2b1299745f8ddb5aa3" target="_top" xlink:title="Converts a list of targets to a list of Collective2 positions">
<polygon fill="white" stroke="black" points="233,-548.5 233,-589.5 460,-589.5 460,-548.5 233,-548.5"/>
<text text-anchor="start" x="241" y="-577.5" font-family="Helvetica,sans-Serif" font-size="10.00">QuantConnect.Algorithm.Framework.</text>
<text text-anchor="start" x="241" y="-566.5" font-family="Helvetica,sans-Serif" font-size="10.00">Portfolio.SignalExports.Collective2</text>
<text text-anchor="middle" x="346.5" y="-555.5" font-family="Helvetica,sans-Serif" font-size="10.00">SignalExport.ConvertHoldingsToCollective2</text>
</a>
</g>
</g>
<!-- Node7&#45;&gt;Node8 -->
<g id="edge7" class="edge">
<title>Node7&#45;&gt;Node8</title>
<path fill="none" stroke="midnightblue" d="M493.71,-569C482.48,-569 471.14,-569 460,-569"/>
<polygon fill="midnightblue" stroke="midnightblue" points="493.98,-572.5 503.98,-569 493.98,-565.5 493.98,-572.5"/>
</g>
<!-- Node9 -->
<g id="node9" class="node">
<title>Node9</title>
<g id="a_node9"><a xlink:href="classQuantConnect_1_1Algorithm_1_1Framework_1_1Portfolio_1_1SignalExports_1_1Collective2SignalExport.html#ae72a36410f161dff06b714c17837a623" target="_top" xlink:title="Creates a JSON message with the desired positions using the expected Collective2 API format and then ...">
<polygon fill="white" stroke="black" points="0,-548.5 0,-589.5 197,-589.5 197,-548.5 0,-548.5"/>
<text text-anchor="start" x="8" y="-577.5" font-family="Helvetica,sans-Serif" font-size="10.00">QuantConnect.Algorithm.Framework.</text>
<text text-anchor="start" x="8" y="-566.5" font-family="Helvetica,sans-Serif" font-size="10.00">Portfolio.SignalExports.Collective2</text>
<text text-anchor="middle" x="98.5" y="-555.5" font-family="Helvetica,sans-Serif" font-size="10.00">SignalExport.Send</text>
</a>
</g>
</g>
<!-- Node8&#45;&gt;Node9 -->
<g id="edge8" class="edge">
<title>Node8&#45;&gt;Node9</title>
<path fill="none" stroke="midnightblue" d="M222.88,-569C214.31,-569 205.73,-569 197.32,-569"/>
<polygon fill="midnightblue" stroke="midnightblue" points="222.94,-572.5 232.94,-569 222.94,-565.5 222.94,-572.5"/>
</g>
<!-- Node15 -->
<g id="node15" class="node">
<title>Node15</title>
<g id="a_node15"><a xlink:href="classQuantConnect_1_1Lean_1_1Engine_1_1Results_1_1LiveTradingResultHandler.html#a1dbddef89eec0b724268ecdaa7c211ff" target="_top" xlink:title="Terminate the result thread and apply any required exit procedures like sending final results">
<polygon fill="white" stroke="black" points="246,-6 246,-36 447,-36 447,-6 246,-6"/>
<text text-anchor="start" x="254" y="-24" font-family="Helvetica,sans-Serif" font-size="10.00">QuantConnect.Lean.Engine.</text>
<text text-anchor="middle" x="346.5" y="-13" font-family="Helvetica,sans-Serif" font-size="10.00">Results.LiveTradingResultHandler.Exit</text>
</a>
</g>
</g>
<!-- Node14&#45;&gt;Node15 -->
<g id="edge14" class="edge">
<title>Node14&#45;&gt;Node15</title>
<path fill="none" stroke="midnightblue" d="M515.97,-21C493.52,-21 469.72,-21 447.3,-21"/>
<polygon fill="midnightblue" stroke="midnightblue" points="516.18,-24.5 526.18,-21 516.18,-17.5 516.18,-24.5"/>
</g>
<!-- Node19&#45;&gt;Node3 -->
<g id="edge19" class="edge">
<title>Node19&#45;&gt;Node3</title>
<path fill="none" stroke="midnightblue" d="M510.42,-485C505.49,-483.13 500.66,-481.13 496,-479 447.78,-456.9 398.89,-418.59 370.98,-394.86"/>
<polygon fill="midnightblue" stroke="midnightblue" points="509.42,-488.36 520.01,-488.43 511.78,-481.76 509.42,-488.36"/>
</g>
</g>
</svg>
