<?xml version="1.0" encoding="UTF-8" standalone="no"?>
<!DOCTYPE svg PUBLIC "-//W3C//DTD SVG 1.1//EN"
 "http://www.w3.org/Graphics/SVG/1.1/DTD/svg11.dtd">
<!-- Generated by graphviz version 2.43.0 (0)
 -->
<!-- Title: QuantConnect.DownloaderDataProvider.Launcher.DataDownloadConfig.DataDownloadConfig Pages: 1 -->
<svg width="1604pt" height="700pt"
 viewBox="0.00 0.00 1604.00 699.93" xmlns="http://www.w3.org/2000/svg" xmlns:xlink="http://www.w3.org/1999/xlink">
<g id="graph0" class="graph" transform="scale(1 1) rotate(0) translate(4 695.93)">
<title>QuantConnect.DownloaderDataProvider.Launcher.DataDownloadConfig.DataDownloadConfig</title>
<polygon fill="white" stroke="transparent" points="-4,4 -4,-695.93 1600,-695.93 1600,4 -4,4"/>
<!-- Node1 -->
<g id="node1" class="node">
<title>Node1</title>
<g id="a_node1"><a xlink:title="Initializes a new instance of the DataDownloadConfig struct.">
<polygon fill="#bfbfbf" stroke="black" points="0,-61 0,-102 212,-102 212,-61 0,-61"/>
<text text-anchor="start" x="8" y="-90" font-family="Helvetica,sans-Serif" font-size="10.00">QuantConnect.DownloaderData</text>
<text text-anchor="start" x="8" y="-79" font-family="Helvetica,sans-Serif" font-size="10.00">Provider.Launcher.DataDownloadConfig.</text>
<text text-anchor="middle" x="106" y="-68" font-family="Helvetica,sans-Serif" font-size="10.00">DataDownloadConfig</text>
</a>
</g>
</g>
<!-- Node2 -->
<g id="node2" class="node">
<title>Node2</title>
<g id="a_node2"><a xlink:href="classQuantConnect_1_1Symbol.html#a350b9a625cf7bad95da82894be3cd0a8" target="_top" xlink:title="Provides a convenience method for creating a Symbol for most security types. This method currently do...">
<polygon fill="white" stroke="black" points="255,-412 255,-431 416,-431 416,-412 255,-412"/>
<text text-anchor="middle" x="335.5" y="-419" font-family="Helvetica,sans-Serif" font-size="10.00">QuantConnect.Symbol.Create</text>
</a>
</g>
</g>
<!-- Node1&#45;&gt;Node2 -->
<g id="edge1" class="edge">
<title>Node1&#45;&gt;Node2</title>
<path fill="none" stroke="midnightblue" d="M120.72,-102C161.76,-163.34 283.15,-344.76 322.23,-403.16"/>
<polygon fill="midnightblue" stroke="midnightblue" points="319.49,-405.37 327.96,-411.73 325.31,-401.48 319.49,-405.37"/>
</g>
<!-- Node20 -->
<g id="node20" class="node">
<title>Node20</title>
<g id="a_node20"><a xlink:href="classQuantConnect_1_1Configuration_1_1Config.html#aaabf1286e33a675b2e116f3289981839" target="_top" xlink:title="Get the matching config setting from the file searching for this key.">
<polygon fill="white" stroke="black" points="257,-88.5 257,-118.5 414,-118.5 414,-88.5 257,-88.5"/>
<text text-anchor="start" x="265" y="-106.5" font-family="Helvetica,sans-Serif" font-size="10.00">QuantConnect.Configuration.</text>
<text text-anchor="middle" x="335.5" y="-95.5" font-family="Helvetica,sans-Serif" font-size="10.00">Config.Get</text>
</a>
</g>
</g>
<!-- Node1&#45;&gt;Node20 -->
<g id="edge21" class="edge">
<title>Node1&#45;&gt;Node20</title>
<path fill="none" stroke="midnightblue" d="M212.09,-91.66C223.59,-92.77 235.21,-93.9 246.47,-94.99"/>
<polygon fill="midnightblue" stroke="midnightblue" points="246.41,-98.5 256.7,-95.98 247.08,-91.53 246.41,-98.5"/>
</g>
<!-- Node23 -->
<g id="node23" class="node">
<title>Node23</title>
<g id="a_node23"><a xlink:href="classQuantConnect_1_1Logging_1_1Log.html#a4e55477fbc790846b74550a57198cea9" target="_top" xlink:title="Log trace">
<polygon fill="white" stroke="black" points="474,-39.5 474,-69.5 624,-69.5 624,-39.5 474,-39.5"/>
<text text-anchor="start" x="482" y="-57.5" font-family="Helvetica,sans-Serif" font-size="10.00">QuantConnect.Logging.Log.</text>
<text text-anchor="middle" x="549" y="-46.5" font-family="Helvetica,sans-Serif" font-size="10.00">Trace</text>
</a>
</g>
</g>
<!-- Node1&#45;&gt;Node23 -->
<g id="edge27" class="edge">
<title>Node1&#45;&gt;Node23</title>
<path fill="none" stroke="midnightblue" d="M212.07,-75.07C288.92,-70.36 391.83,-64.06 463.41,-59.68"/>
<polygon fill="midnightblue" stroke="midnightblue" points="463.97,-63.15 473.74,-59.05 463.54,-56.16 463.97,-63.15"/>
</g>
<!-- Node25 -->
<g id="node25" class="node">
<title>Node25</title>
<g id="a_node25"><a xlink:href="classQuantConnect_1_1Market.html#a68544ce4a0cb84a13a0517eeeee94b02" target="_top" xlink:title="Returns a list of the supported markets">
<polygon fill="white" stroke="black" points="248,-0.5 248,-30.5 423,-30.5 423,-0.5 248,-0.5"/>
<text text-anchor="start" x="256" y="-18.5" font-family="Helvetica,sans-Serif" font-size="10.00">QuantConnect.Market.Supported</text>
<text text-anchor="middle" x="335.5" y="-7.5" font-family="Helvetica,sans-Serif" font-size="10.00">Markets</text>
</a>
</g>
</g>
<!-- Node1&#45;&gt;Node25 -->
<g id="edge26" class="edge">
<title>Node1&#45;&gt;Node25</title>
<path fill="none" stroke="midnightblue" d="M177.74,-60.98C208.2,-52.14 243.5,-41.9 272.88,-33.38"/>
<polygon fill="midnightblue" stroke="midnightblue" points="273.97,-36.7 282.6,-30.56 272.02,-29.98 273.97,-36.7"/>
</g>
<!-- Node3 -->
<g id="node3" class="node">
<title>Node3</title>
<g id="a_node3"><a xlink:href="classQuantConnect_1_1Symbol.html#a7518a1932d1babbff128f2ba9666a78b" target="_top" xlink:title="Provides a convenience method for creating an option Symbol.">
<polygon fill="white" stroke="black" points="468.5,-617.5 468.5,-647.5 629.5,-647.5 629.5,-617.5 468.5,-617.5"/>
<text text-anchor="start" x="476.5" y="-635.5" font-family="Helvetica,sans-Serif" font-size="10.00">QuantConnect.Symbol.Create</text>
<text text-anchor="middle" x="549" y="-624.5" font-family="Helvetica,sans-Serif" font-size="10.00">Option</text>
</a>
</g>
</g>
<!-- Node2&#45;&gt;Node3 -->
<g id="edge2" class="edge">
<title>Node2&#45;&gt;Node3</title>
<path fill="none" stroke="midnightblue" d="M340.44,-431.39C352.99,-461.63 394.98,-553.79 459,-602.5 464.41,-606.61 470.41,-610.18 476.67,-613.27"/>
<polygon fill="midnightblue" stroke="midnightblue" points="475.44,-616.56 485.99,-617.47 478.31,-610.18 475.44,-616.56"/>
</g>
<!-- Node4 -->
<g id="node4" class="node">
<title>Node4</title>
<g id="a_node4"><a xlink:href="classQuantConnect_1_1SecurityIdentifier.html#a0c21d7880c9fdd260883d11ea0c99a00" target="_top" xlink:title="Helper overload that will search the mapfiles to resolve the first date. This implementation uses the...">
<polygon fill="white" stroke="black" points="675,-650.5 675,-680.5 849,-680.5 849,-650.5 675,-650.5"/>
<text text-anchor="start" x="683" y="-668.5" font-family="Helvetica,sans-Serif" font-size="10.00">QuantConnect.SecurityIdentifier.</text>
<text text-anchor="middle" x="762" y="-657.5" font-family="Helvetica,sans-Serif" font-size="10.00">GenerateEquity</text>
</a>
</g>
</g>
<!-- Node2&#45;&gt;Node4 -->
<g id="edge15" class="edge">
<title>Node2&#45;&gt;Node4</title>
<path fill="none" stroke="midnightblue" d="M338.02,-431.25C344.45,-468.67 373.11,-603.74 459,-657.5 528.74,-701.15 626.4,-694.31 691.58,-682.47"/>
<polygon fill="midnightblue" stroke="midnightblue" points="692.58,-685.84 701.75,-680.53 691.27,-678.96 692.58,-685.84"/>
</g>
<!-- Node5 -->
<g id="node5" class="node">
<title>Node5</title>
<g id="a_node5"><a xlink:href="classQuantConnect_1_1Symbol.html#a59158f74116be3dad0ea0f3f3f134416" target="_top" xlink:title="Initializes a new instance of the Symbol class">
<polygon fill="white" stroke="black" points="679.5,-590 679.5,-609 844.5,-609 844.5,-590 679.5,-590"/>
<text text-anchor="middle" x="762" y="-597" font-family="Helvetica,sans-Serif" font-size="10.00">QuantConnect.Symbol.Symbol</text>
</a>
</g>
</g>
<!-- Node2&#45;&gt;Node5 -->
<g id="edge20" class="edge">
<title>Node2&#45;&gt;Node5</title>
<path fill="none" stroke="midnightblue" d="M341.15,-431.32C354.76,-458.83 397.47,-536.74 459,-569.5 523.32,-603.74 606.29,-609.74 668.98,-608.02"/>
<polygon fill="midnightblue" stroke="midnightblue" points="669.38,-611.51 679.25,-607.67 669.14,-604.51 669.38,-611.51"/>
</g>
<!-- Node11 -->
<g id="node11" class="node">
<title>Node11</title>
<g id="a_node11"><a xlink:href="classQuantConnect_1_1SecurityIdentifier.html#a02ca750115844561c001c2346fbafc00" target="_top" xlink:title="Generates a new SecurityIdentifier for a custom security with the option of providing the first date">
<polygon fill="white" stroke="black" points="462,-529.5 462,-559.5 636,-559.5 636,-529.5 462,-529.5"/>
<text text-anchor="start" x="470" y="-547.5" font-family="Helvetica,sans-Serif" font-size="10.00">QuantConnect.SecurityIdentifier.</text>
<text text-anchor="middle" x="549" y="-536.5" font-family="Helvetica,sans-Serif" font-size="10.00">GenerateBase</text>
</a>
</g>
</g>
<!-- Node2&#45;&gt;Node11 -->
<g id="edge10" class="edge">
<title>Node2&#45;&gt;Node11</title>
<path fill="none" stroke="midnightblue" d="M345.66,-431.25C364.81,-451.06 411.25,-496.15 459,-520.5 462.77,-522.42 466.71,-524.2 470.74,-525.85"/>
<polygon fill="midnightblue" stroke="midnightblue" points="469.7,-529.2 480.3,-529.46 472.18,-522.65 469.7,-529.2"/>
</g>
<!-- Node13 -->
<g id="node13" class="node">
<title>Node13</title>
<g id="a_node13"><a xlink:href="classQuantConnect_1_1SecurityIdentifier.html#a53953b18d814c5445e4ecdcb3b555080" target="_top" xlink:title="Generates a new SecurityIdentifier for a CFD security">
<polygon fill="white" stroke="black" points="462,-480.5 462,-510.5 636,-510.5 636,-480.5 462,-480.5"/>
<text text-anchor="start" x="470" y="-498.5" font-family="Helvetica,sans-Serif" font-size="10.00">QuantConnect.SecurityIdentifier.</text>
<text text-anchor="middle" x="549" y="-487.5" font-family="Helvetica,sans-Serif" font-size="10.00">GenerateCfd</text>
</a>
</g>
</g>
<!-- Node2&#45;&gt;Node13 -->
<g id="edge12" class="edge">
<title>Node2&#45;&gt;Node13</title>
<path fill="none" stroke="midnightblue" d="M357.88,-431.17C382.09,-441.9 422.87,-459.31 459,-471.5 465.07,-473.55 471.42,-475.54 477.81,-477.45"/>
<polygon fill="midnightblue" stroke="midnightblue" points="477.27,-480.94 487.85,-480.37 479.23,-474.22 477.27,-480.94"/>
</g>
<!-- Node14 -->
<g id="node14" class="node">
<title>Node14</title>
<g id="a_node14"><a xlink:href="classQuantConnect_1_1SecurityIdentifier.html#a5889a95a36ce927dd0a109cbfbcbe663" target="_top" xlink:title="Generates a new SecurityIdentifier for a Crypto pair">
<polygon fill="white" stroke="black" points="462,-431.5 462,-461.5 636,-461.5 636,-431.5 462,-431.5"/>
<text text-anchor="start" x="470" y="-449.5" font-family="Helvetica,sans-Serif" font-size="10.00">QuantConnect.SecurityIdentifier.</text>
<text text-anchor="middle" x="549" y="-438.5" font-family="Helvetica,sans-Serif" font-size="10.00">GenerateCrypto</text>
</a>
</g>
</g>
<!-- Node2&#45;&gt;Node14 -->
<g id="edge13" class="edge">
<title>Node2&#45;&gt;Node14</title>
<path fill="none" stroke="midnightblue" d="M416.16,-430.92C427.78,-432.29 439.84,-433.72 451.75,-435.12"/>
<polygon fill="midnightblue" stroke="midnightblue" points="451.35,-438.6 461.7,-436.3 452.18,-431.65 451.35,-438.6"/>
</g>
<!-- Node15 -->
<g id="node15" class="node">
<title>Node15</title>
<g id="a_node15"><a xlink:href="classQuantConnect_1_1SecurityIdentifier.html#ac665665a16d5449872fed3427b95a260" target="_top" xlink:title="Generates a new SecurityIdentifier for a CryptoFuture pair">
<polygon fill="white" stroke="black" points="462,-382.5 462,-412.5 636,-412.5 636,-382.5 462,-382.5"/>
<text text-anchor="start" x="470" y="-400.5" font-family="Helvetica,sans-Serif" font-size="10.00">QuantConnect.SecurityIdentifier.</text>
<text text-anchor="middle" x="549" y="-389.5" font-family="Helvetica,sans-Serif" font-size="10.00">GenerateCryptoFuture</text>
</a>
</g>
</g>
<!-- Node2&#45;&gt;Node15 -->
<g id="edge14" class="edge">
<title>Node2&#45;&gt;Node15</title>
<path fill="none" stroke="midnightblue" d="M416.16,-412.46C427.78,-411.14 439.84,-409.77 451.75,-408.42"/>
<polygon fill="midnightblue" stroke="midnightblue" points="452.15,-411.9 461.7,-407.29 451.36,-404.94 452.15,-411.9"/>
</g>
<!-- Node16 -->
<g id="node16" class="node">
<title>Node16</title>
<g id="a_node16"><a xlink:href="classQuantConnect_1_1SecurityIdentifier.html#a9cf0d3b208a5171e6112516ce441f18d" target="_top" xlink:title="Generates a new SecurityIdentifier for a forex pair">
<polygon fill="white" stroke="black" points="462,-333.5 462,-363.5 636,-363.5 636,-333.5 462,-333.5"/>
<text text-anchor="start" x="470" y="-351.5" font-family="Helvetica,sans-Serif" font-size="10.00">QuantConnect.SecurityIdentifier.</text>
<text text-anchor="middle" x="549" y="-340.5" font-family="Helvetica,sans-Serif" font-size="10.00">GenerateForex</text>
</a>
</g>
</g>
<!-- Node2&#45;&gt;Node16 -->
<g id="edge16" class="edge">
<title>Node2&#45;&gt;Node16</title>
<path fill="none" stroke="midnightblue" d="M358.83,-411.97C383.2,-401.76 423.48,-385.41 459,-373.5 466.28,-371.06 473.94,-368.66 481.59,-366.37"/>
<polygon fill="midnightblue" stroke="midnightblue" points="482.64,-369.71 491.24,-363.53 480.66,-362.99 482.64,-369.71"/>
</g>
<!-- Node17 -->
<g id="node17" class="node">
<title>Node17</title>
<g id="a_node17"><a xlink:href="classQuantConnect_1_1SecurityIdentifier.html#ad50a891c97cb0c084a9e2aa43607ed66" target="_top" xlink:title="Generates a new SecurityIdentifier for a future">
<polygon fill="white" stroke="black" points="462,-284.5 462,-314.5 636,-314.5 636,-284.5 462,-284.5"/>
<text text-anchor="start" x="470" y="-302.5" font-family="Helvetica,sans-Serif" font-size="10.00">QuantConnect.SecurityIdentifier.</text>
<text text-anchor="middle" x="549" y="-291.5" font-family="Helvetica,sans-Serif" font-size="10.00">GenerateFuture</text>
</a>
</g>
</g>
<!-- Node2&#45;&gt;Node17 -->
<g id="edge17" class="edge">
<title>Node2&#45;&gt;Node17</title>
<path fill="none" stroke="midnightblue" d="M345.73,-411.99C364.99,-392.69 411.64,-348.66 459,-324.5 463.53,-322.19 468.3,-320.07 473.19,-318.12"/>
<polygon fill="midnightblue" stroke="midnightblue" points="474.53,-321.36 482.69,-314.6 472.09,-314.79 474.53,-321.36"/>
</g>
<!-- Node18 -->
<g id="node18" class="node">
<title>Node18</title>
<g id="a_node18"><a xlink:href="classQuantConnect_1_1SecurityIdentifier.html#ade05a8e57b041ab484cf585be8d05699" target="_top" xlink:title="Generates a new SecurityIdentifier for a INDEX security">
<polygon fill="white" stroke="black" points="462,-235.5 462,-265.5 636,-265.5 636,-235.5 462,-235.5"/>
<text text-anchor="start" x="470" y="-253.5" font-family="Helvetica,sans-Serif" font-size="10.00">QuantConnect.SecurityIdentifier.</text>
<text text-anchor="middle" x="549" y="-242.5" font-family="Helvetica,sans-Serif" font-size="10.00">GenerateIndex</text>
</a>
</g>
</g>
<!-- Node2&#45;&gt;Node18 -->
<g id="edge18" class="edge">
<title>Node2&#45;&gt;Node18</title>
<path fill="none" stroke="midnightblue" d="M341.71,-411.96C356.45,-385.88 401.18,-312.83 459,-275.5 462.15,-273.47 465.47,-271.59 468.9,-269.87"/>
<polygon fill="midnightblue" stroke="midnightblue" points="470.53,-272.98 478.19,-265.66 467.64,-266.6 470.53,-272.98"/>
</g>
<!-- Node19 -->
<g id="node19" class="node">
<title>Node19</title>
<g id="a_node19"><a xlink:href="classQuantConnect_1_1Messages_1_1Symbol.html#ab801bef52a308b8ba7ba6d42e1ef1988" target="_top" xlink:title="Returns a string message saying the given security type has not been implemented yet">
<polygon fill="white" stroke="black" points="459,-186.5 459,-216.5 639,-216.5 639,-186.5 459,-186.5"/>
<text text-anchor="start" x="467" y="-204.5" font-family="Helvetica,sans-Serif" font-size="10.00">QuantConnect.Messages.Symbol.</text>
<text text-anchor="middle" x="549" y="-193.5" font-family="Helvetica,sans-Serif" font-size="10.00">SecurityTypeNotImplementedYet</text>
</a>
</g>
</g>
<!-- Node2&#45;&gt;Node19 -->
<g id="edge19" class="edge">
<title>Node2&#45;&gt;Node19</title>
<path fill="none" stroke="midnightblue" d="M339.78,-411.61C350.91,-379.57 390.47,-277.72 459,-226.5 461.49,-224.64 464.11,-222.92 466.84,-221.32"/>
<polygon fill="midnightblue" stroke="midnightblue" points="468.56,-224.37 475.82,-216.65 465.33,-218.16 468.56,-224.37"/>
</g>
<!-- Node3&#45;&gt;Node4 -->
<g id="edge3" class="edge">
<title>Node3&#45;&gt;Node4</title>
<path fill="none" stroke="midnightblue" d="M629.77,-644.98C641.14,-646.75 652.94,-648.6 664.59,-650.42"/>
<polygon fill="midnightblue" stroke="midnightblue" points="664.35,-653.93 674.77,-652.01 665.43,-647.01 664.35,-653.93"/>
</g>
<!-- Node3&#45;&gt;Node5 -->
<g id="edge4" class="edge">
<title>Node3&#45;&gt;Node5</title>
<path fill="none" stroke="midnightblue" d="M629.77,-620.02C649.65,-616.92 670.82,-613.6 690.23,-610.57"/>
<polygon fill="midnightblue" stroke="midnightblue" points="690.86,-614.01 700.2,-609.01 689.78,-607.1 690.86,-614.01"/>
</g>
<!-- Node6 -->
<g id="node6" class="node">
<title>Node6</title>
<g id="a_node6"><a xlink:href="classQuantConnect_1_1Symbol.html#a59b0795fa21f46c306deb5576fa03bb9" target="_top" xlink:title="Centralized helper method to resolve alias for a symbol">
<polygon fill="white" stroke="black" points="885,-590 885,-609 1055,-609 1055,-590 885,-590"/>
<text text-anchor="middle" x="970" y="-597" font-family="Helvetica,sans-Serif" font-size="10.00">QuantConnect.Symbol.GetAlias</text>
</a>
</g>
</g>
<!-- Node5&#45;&gt;Node6 -->
<g id="edge5" class="edge">
<title>Node5&#45;&gt;Node6</title>
<path fill="none" stroke="midnightblue" d="M844.71,-599.5C854.47,-599.5 864.49,-599.5 874.4,-599.5"/>
<polygon fill="midnightblue" stroke="midnightblue" points="874.68,-603 884.68,-599.5 874.68,-596 874.68,-603"/>
</g>
<!-- Node7 -->
<g id="node7" class="node">
<title>Node7</title>
<g id="a_node7"><a xlink:href="classQuantConnect_1_1SymbolRepresentation.html#ad43ac907f6c19083821f58f21c6de017" target="_top" xlink:title="Returns future symbol ticker from underlying and expiration date. Function can generate tickers of tw...">
<polygon fill="white" stroke="black" points="1091,-612.5 1091,-642.5 1294,-642.5 1294,-612.5 1091,-612.5"/>
<text text-anchor="start" x="1099" y="-630.5" font-family="Helvetica,sans-Serif" font-size="10.00">QuantConnect.SymbolRepresentation.</text>
<text text-anchor="middle" x="1192.5" y="-619.5" font-family="Helvetica,sans-Serif" font-size="10.00">GenerateFutureTicker</text>
</a>
</g>
</g>
<!-- Node6&#45;&gt;Node7 -->
<g id="edge6" class="edge">
<title>Node6&#45;&gt;Node7</title>
<path fill="none" stroke="midnightblue" d="M1045.96,-609.02C1057.27,-610.46 1069.14,-611.96 1081.01,-613.47"/>
<polygon fill="midnightblue" stroke="midnightblue" points="1080.62,-616.95 1090.98,-614.74 1081.5,-610 1080.62,-616.95"/>
</g>
<!-- Node9 -->
<g id="node9" class="node">
<title>Node9</title>
<g id="a_node9"><a xlink:href="classQuantConnect_1_1SymbolRepresentation.html#ab133044f5cf8c16e700190a2202b215e" target="_top" xlink:title="Returns option symbol ticker in accordance with OSI symbology More information can be found at http:/...">
<polygon fill="white" stroke="black" points="1091,-560.5 1091,-590.5 1294,-590.5 1294,-560.5 1091,-560.5"/>
<text text-anchor="start" x="1099" y="-578.5" font-family="Helvetica,sans-Serif" font-size="10.00">QuantConnect.SymbolRepresentation.</text>
<text text-anchor="middle" x="1192.5" y="-567.5" font-family="Helvetica,sans-Serif" font-size="10.00">GenerateOptionTickerOSI</text>
</a>
</g>
</g>
<!-- Node6&#45;&gt;Node9 -->
<g id="edge8" class="edge">
<title>Node6&#45;&gt;Node9</title>
<path fill="none" stroke="midnightblue" d="M1055.31,-590.32C1063.69,-589.41 1072.3,-588.47 1080.9,-587.54"/>
<polygon fill="midnightblue" stroke="midnightblue" points="1081.43,-591 1090.99,-586.44 1080.67,-584.04 1081.43,-591"/>
</g>
<!-- Node8 -->
<g id="node8" class="node">
<title>Node8</title>
<g id="a_node8"><a xlink:href="classQuantConnect_1_1Securities_1_1Future_1_1FuturesExpiryUtilityFunctions.html#a4ccb1e2f2fe40ff09785a74a02f26df1" target="_top" xlink:title="Gets the number of months between the contract month and the expiry date.">
<polygon fill="white" stroke="black" points="1330,-610 1330,-651 1596,-651 1596,-610 1330,-610"/>
<text text-anchor="start" x="1338" y="-639" font-family="Helvetica,sans-Serif" font-size="10.00">QuantConnect.Securities.</text>
<text text-anchor="start" x="1338" y="-628" font-family="Helvetica,sans-Serif" font-size="10.00">Future.FuturesExpiryUtilityFunctions.</text>
<text text-anchor="middle" x="1463" y="-617" font-family="Helvetica,sans-Serif" font-size="10.00">GetDeltaBetweenContractMonthAndContractExpiry</text>
</a>
</g>
</g>
<!-- Node7&#45;&gt;Node8 -->
<g id="edge7" class="edge">
<title>Node7&#45;&gt;Node8</title>
<path fill="none" stroke="midnightblue" d="M1294.24,-628.63C1302.59,-628.72 1311.11,-628.81 1319.68,-628.91"/>
<polygon fill="midnightblue" stroke="midnightblue" points="1319.72,-632.41 1329.76,-629.02 1319.8,-625.41 1319.72,-632.41"/>
</g>
<!-- Node10 -->
<g id="node10" class="node">
<title>Node10</title>
<g id="a_node10"><a xlink:href="classQuantConnect_1_1Messages_1_1SymbolRepresentation.html#a2c514157d8055cfa271ea3a7ca1ccde7" target="_top" xlink:title="Returns a string message saying an unexpected security type was received by the given method name">
<polygon fill="white" stroke="black" points="1367,-550 1367,-591 1559,-591 1559,-550 1367,-550"/>
<text text-anchor="start" x="1375" y="-579" font-family="Helvetica,sans-Serif" font-size="10.00">QuantConnect.Messages.Symbol</text>
<text text-anchor="start" x="1375" y="-568" font-family="Helvetica,sans-Serif" font-size="10.00">Representation.UnexpectedSecurity</text>
<text text-anchor="middle" x="1463" y="-557" font-family="Helvetica,sans-Serif" font-size="10.00">TypeForMethod</text>
</a>
</g>
</g>
<!-- Node9&#45;&gt;Node10 -->
<g id="edge9" class="edge">
<title>Node9&#45;&gt;Node10</title>
<path fill="none" stroke="midnightblue" d="M1294.24,-573.62C1314.7,-573.24 1336.27,-572.84 1356.88,-572.46"/>
<polygon fill="midnightblue" stroke="midnightblue" points="1356.98,-575.96 1366.91,-572.27 1356.85,-568.96 1356.98,-575.96"/>
</g>
<!-- Node12 -->
<g id="node12" class="node">
<title>Node12</title>
<g id="a_node12"><a xlink:href="classQuantConnect_1_1SecurityIdentifier.html#a19e1f9da410608020d74ed9e7d283575" target="_top" xlink:title="Generates the Symbol property for QuantConnect.SecurityType.Base security identifiers">
<polygon fill="white" stroke="black" points="675,-529.5 675,-559.5 849,-559.5 849,-529.5 675,-529.5"/>
<text text-anchor="start" x="683" y="-547.5" font-family="Helvetica,sans-Serif" font-size="10.00">QuantConnect.SecurityIdentifier.</text>
<text text-anchor="middle" x="762" y="-536.5" font-family="Helvetica,sans-Serif" font-size="10.00">GenerateBaseSymbol</text>
</a>
</g>
</g>
<!-- Node11&#45;&gt;Node12 -->
<g id="edge11" class="edge">
<title>Node11&#45;&gt;Node12</title>
<path fill="none" stroke="midnightblue" d="M636.13,-544.5C645.5,-544.5 655.08,-544.5 664.57,-544.5"/>
<polygon fill="midnightblue" stroke="midnightblue" points="664.81,-548 674.81,-544.5 664.81,-541 664.81,-548"/>
</g>
<!-- Node21 -->
<g id="node21" class="node">
<title>Node21</title>
<g id="a_node21"><a xlink:href="classQuantConnect_1_1Configuration_1_1Config.html#a1504ca19b3759d008b090375ddf4ad10" target="_top" xlink:title="Gets the currently selected environment. If sub&#45;environments are defined, they&#39;ll be returned as {env...">
<polygon fill="white" stroke="black" points="470.5,-137.5 470.5,-167.5 627.5,-167.5 627.5,-137.5 470.5,-137.5"/>
<text text-anchor="start" x="478.5" y="-155.5" font-family="Helvetica,sans-Serif" font-size="10.00">QuantConnect.Configuration.</text>
<text text-anchor="middle" x="549" y="-144.5" font-family="Helvetica,sans-Serif" font-size="10.00">Config.GetEnvironment</text>
</a>
</g>
</g>
<!-- Node20&#45;&gt;Node21 -->
<g id="edge22" class="edge">
<title>Node20&#45;&gt;Node21</title>
<path fill="none" stroke="midnightblue" d="M401.39,-118.53C424.13,-123.8 449.85,-129.76 473.32,-135.2"/>
<polygon fill="midnightblue" stroke="midnightblue" points="472.7,-138.65 483.23,-137.49 474.28,-131.83 472.7,-138.65"/>
</g>
<!-- Node22 -->
<g id="node22" class="node">
<title>Node22</title>
<g id="a_node22"><a xlink:href="classQuantConnect_1_1Configuration_1_1Config.html#a9ed01bc116e8181a7557f3e668f34691" target="_top" xlink:title="Gets the underlying JToken for the specified key">
<polygon fill="white" stroke="black" points="470.5,-88.5 470.5,-118.5 627.5,-118.5 627.5,-88.5 470.5,-88.5"/>
<text text-anchor="start" x="478.5" y="-106.5" font-family="Helvetica,sans-Serif" font-size="10.00">QuantConnect.Configuration.</text>
<text text-anchor="middle" x="549" y="-95.5" font-family="Helvetica,sans-Serif" font-size="10.00">Config.GetToken</text>
</a>
</g>
</g>
<!-- Node20&#45;&gt;Node22 -->
<g id="edge23" class="edge">
<title>Node20&#45;&gt;Node22</title>
<path fill="none" stroke="midnightblue" d="M414.05,-103.5C429.14,-103.5 445.05,-103.5 460.44,-103.5"/>
<polygon fill="midnightblue" stroke="midnightblue" points="460.46,-107 470.46,-103.5 460.46,-100 460.46,-107"/>
</g>
<!-- Node20&#45;&gt;Node23 -->
<g id="edge24" class="edge">
<title>Node20&#45;&gt;Node23</title>
<path fill="none" stroke="midnightblue" d="M401.39,-88.47C424.13,-83.2 449.85,-77.24 473.32,-71.8"/>
<polygon fill="midnightblue" stroke="midnightblue" points="474.28,-75.17 483.23,-69.51 472.7,-68.35 474.28,-75.17"/>
</g>
<!-- Node24 -->
<g id="node24" class="node">
<title>Node24</title>
<g id="a_node24"><a xlink:href="interfaceQuantConnect_1_1Logging_1_1ILogHandler.html#a3fb71a33ac66129240b63f12b6fcda3b" target="_top" xlink:title="Write debug message to log">
<polygon fill="white" stroke="black" points="687,-39.5 687,-69.5 837,-69.5 837,-39.5 687,-39.5"/>
<text text-anchor="start" x="695" y="-57.5" font-family="Helvetica,sans-Serif" font-size="10.00">QuantConnect.Logging.ILog</text>
<text text-anchor="middle" x="762" y="-46.5" font-family="Helvetica,sans-Serif" font-size="10.00">Handler.Trace</text>
</a>
</g>
</g>
<!-- Node23&#45;&gt;Node24 -->
<g id="edge25" class="edge">
<title>Node23&#45;&gt;Node24</title>
<path fill="none" stroke="midnightblue" d="M624.09,-54.5C641.07,-54.5 659.24,-54.5 676.61,-54.5"/>
<polygon fill="midnightblue" stroke="midnightblue" points="676.73,-58 686.73,-54.5 676.73,-51 676.73,-58"/>
</g>
</g>
</svg>
